# PROJECT OEN production source mesh: ENV_STORM_CAMP_001
mtllib ENV_STORM_CAMP_001.mtl
s off
v -5.161444 0.000000 -3.170368
v -4.838556 0.000000 -4.429632
v -0.938556 0.000000 -3.429632
v -1.261444 0.000000 -2.170368
v -5.161444 0.045000 -3.170368
v -4.838556 0.045000 -4.429632
v -0.938556 0.045000 -3.429632
v -1.261444 0.045000 -2.170368
v -3.577632 0.000000 3.430262
v -4.022368 0.000000 2.369738
v -0.922368 0.000000 1.069738
v -0.477632 0.000000 2.130262
v -3.577632 0.045000 3.430262
v -4.022368 0.045000 2.369738
v -0.922368 0.045000 1.069738
v -0.477632 0.045000 2.130262
v 1.249456 0.000000 4.245685
v 0.750544 0.000000 3.154315
v 4.250544 0.000000 1.554315
v 4.749456 0.000000 2.645685
v 1.249456 0.045000 4.245685
v 0.750544 0.045000 3.154315
v 4.250544 0.045000 1.554315
v 4.749456 0.045000 2.645685
v 1.748628 0.000000 -3.200574
v 2.251372 0.000000 -4.399426
v 5.351372 0.000000 -3.099426
v 4.848628 0.000000 -1.900574
v 1.748628 0.045000 -3.200574
v 2.251372 0.045000 -4.399426
v 5.351372 0.045000 -3.099426
v 4.848628 0.045000 -1.900574
v -1.550000 0.042500 -1.000000
v -1.583169 0.042500 -0.811889
v -1.678676 0.042500 -0.646467
v -1.825000 0.042500 -0.523686
v -2.004494 0.042500 -0.458356
v -2.195506 0.042500 -0.458356
v -2.375000 0.042500 -0.523686
v -2.521324 0.042500 -0.646467
v -2.616831 0.042500 -0.811889
v -2.650000 0.042500 -1.000000
v -2.616831 0.042500 -1.188111
v -2.521324 0.042500 -1.353533
v -2.375000 0.042500 -1.476314
v -2.195506 0.042500 -1.541644
v -2.004494 0.042500 -1.541644
v -1.825000 0.042500 -1.476314
v -1.678676 0.042500 -1.353533
v -1.583169 0.042500 -1.188111
v -1.550000 0.067500 -1.000000
v -1.583169 0.067500 -0.811889
v -1.678676 0.067500 -0.646467
v -1.825000 0.067500 -0.523686
v -2.004494 0.067500 -0.458356
v -2.195506 0.067500 -0.458356
v -2.375000 0.067500 -0.523686
v -2.521324 0.067500 -0.646467
v -2.616831 0.067500 -0.811889
v -2.650000 0.067500 -1.000000
v -2.616831 0.067500 -1.188111
v -2.521324 0.067500 -1.353533
v -2.375000 0.067500 -1.476314
v -2.195506 0.067500 -1.541644
v -2.004494 0.067500 -1.541644
v -1.825000 0.067500 -1.476314
v -1.678676 0.067500 -1.353533
v -1.583169 0.067500 -1.188111
v 1.620000 0.042500 2.000000
v 1.576579 0.042500 2.246255
v 1.451552 0.042500 2.462807
v 1.260000 0.042500 2.623538
v 1.025027 0.042500 2.709062
v 0.774973 0.042500 2.709062
v 0.540000 0.042500 2.623538
v 0.348448 0.042500 2.462807
v 0.223421 0.042500 2.246255
v 0.180000 0.042500 2.000000
v 0.223421 0.042500 1.753745
v 0.348448 0.042500 1.537193
v 0.540000 0.042500 1.376462
v 0.774973 0.042500 1.290938
v 1.025027 0.042500 1.290938
v 1.260000 0.042500 1.376462
v 1.451552 0.042500 1.537193
v 1.576579 0.042500 1.753745
v 1.620000 0.067500 2.000000
v 1.576579 0.067500 2.246255
v 1.451552 0.067500 2.462807
v 1.260000 0.067500 2.623538
v 1.025027 0.067500 2.709062
v 0.774973 0.067500 2.709062
v 0.540000 0.067500 2.623538
v 0.348448 0.067500 2.462807
v 0.223421 0.067500 2.246255
v 0.180000 0.067500 2.000000
v 0.223421 0.067500 1.753745
v 0.348448 0.067500 1.537193
v 0.540000 0.067500 1.376462
v 0.774973 0.067500 1.290938
v 1.025027 0.067500 1.290938
v 1.260000 0.067500 1.376462
v 1.451552 0.067500 1.537193
v 1.576579 0.067500 1.753745
v 3.820000 0.042500 -1.300000
v 3.782609 0.042500 -1.087948
v 3.674948 0.042500 -0.901472
v 3.510000 0.042500 -0.763064
v 3.307662 0.042500 -0.689419
v 3.092338 0.042500 -0.689419
v 2.890000 0.042500 -0.763064
v 2.725052 0.042500 -0.901472
v 2.617391 0.042500 -1.087948
v 2.580000 0.042500 -1.300000
v 2.617391 0.042500 -1.512052
v 2.725052 0.042500 -1.698528
v 2.890000 0.042500 -1.836936
v 3.092338 0.042500 -1.910581
v 3.307662 0.042500 -1.910581
v 3.510000 0.042500 -1.836936
v 3.674948 0.042500 -1.698528
v 3.782609 0.042500 -1.512052
v 3.820000 0.067500 -1.300000
v 3.782609 0.067500 -1.087948
v 3.674948 0.067500 -0.901472
v 3.510000 0.067500 -0.763064
v 3.307662 0.067500 -0.689419
v 3.092338 0.067500 -0.689419
v 2.890000 0.067500 -0.763064
v 2.725052 0.067500 -0.901472
v 2.617391 0.067500 -1.087948
v 2.580000 0.067500 -1.300000
v 2.617391 0.067500 -1.512052
v 2.725052 0.067500 -1.698528
v 2.890000 0.067500 -1.836936
v 3.092338 0.067500 -1.910581
v 3.307662 0.067500 -1.910581
v 3.510000 0.067500 -1.836936
v 3.674948 0.067500 -1.698528
v 3.782609 0.067500 -1.512052
v -3.120000 0.042500 1.000000
v -3.148948 0.042500 1.164170
v -3.232299 0.042500 1.308538
v -3.360000 0.042500 1.415692
v -3.516649 0.042500 1.472708
v -3.683351 0.042500 1.472708
v -3.840000 0.042500 1.415692
v -3.967701 0.042500 1.308538
v -4.051052 0.042500 1.164170
v -4.080000 0.042500 1.000000
v -4.051052 0.042500 0.835830
v -3.967701 0.042500 0.691462
v -3.840000 0.042500 0.584308
v -3.683351 0.042500 0.527292
v -3.516649 0.042500 0.527292
v -3.360000 0.042500 0.584308
v -3.232299 0.042500 0.691462
v -3.148948 0.042500 0.835830
v -3.120000 0.067500 1.000000
v -3.148948 0.067500 1.164170
v -3.232299 0.067500 1.308538
v -3.360000 0.067500 1.415692
v -3.516649 0.067500 1.472708
v -3.683351 0.067500 1.472708
v -3.840000 0.067500 1.415692
v -3.967701 0.067500 1.308538
v -4.051052 0.067500 1.164170
v -4.080000 0.067500 1.000000
v -4.051052 0.067500 0.835830
v -3.967701 0.067500 0.691462
v -3.840000 0.067500 0.584308
v -3.683351 0.067500 0.527292
v -3.516649 0.067500 0.527292
v -3.360000 0.067500 0.584308
v -3.232299 0.067500 0.691462
v -3.148948 0.067500 0.835830
v -4.017987 0.090450 -0.431888
v -3.967245 0.090450 -0.562369
v -4.032755 0.229550 -0.437631
v -3.982013 0.229550 -0.568112
v -3.117987 0.200450 -0.081888
v -3.067245 0.200450 -0.212369
v -3.132755 0.339550 -0.087631
v -3.082013 0.339550 -0.218112
v -0.953171 0.080664 3.852910
v -1.030829 0.080664 3.736423
v -0.969171 0.219336 3.863577
v -1.046829 0.219336 3.747090
v -0.053171 0.230664 3.252910
v -0.130829 0.230664 3.136423
v -0.069171 0.369336 3.263577
v -0.146829 0.369336 3.147090
v 3.143169 0.070499 3.455732
v 3.071140 0.070499 3.335683
v 3.128860 0.209501 3.464317
v 3.056831 0.209501 3.344268
v 4.143169 0.210499 2.855732
v 4.071140 0.210499 2.735683
v 4.128860 0.349501 2.864317
v 4.056831 0.349501 2.744268
v 3.467593 0.060427 -3.337475
v 3.545251 0.060427 -3.453962
v 3.454749 0.199573 -3.346038
v 3.532407 0.199573 -3.462525
v 4.367593 0.180427 -2.737475
v 4.445251 0.180427 -2.853962
v 4.354749 0.319573 -2.746038
v 4.432407 0.319573 -2.862525
v -4.225000 0.082500 1.175000
v -3.175000 0.082500 1.175000
v -3.175000 0.117500 1.175000
v -4.225000 0.117500 1.175000
v -4.225000 0.082500 1.725000
v -3.175000 0.082500 1.725000
v -3.175000 0.117500 1.725000
v -4.225000 0.117500 1.725000
v 2.090000 0.065000 -4.160000
v 2.810000 0.065000 -4.160000
v 2.810000 0.095000 -4.160000
v 2.090000 0.095000 -4.160000
v 2.090000 0.065000 -3.740000
v 2.810000 0.065000 -3.740000
v 2.810000 0.095000 -3.740000
v 2.090000 0.095000 -3.740000
v -0.950000 0.000000 0.310000
v -0.950000 0.000000 -0.310000
v 0.950000 0.000000 -0.310000
v 0.950000 0.000000 0.310000
v -0.950000 0.075000 0.310000
v -0.950000 0.075000 -0.310000
v 0.950000 0.075000 -0.310000
v 0.950000 0.075000 0.310000
v 0.288861 0.000000 -0.301056
v -0.288861 0.000000 -0.598944
v 1.361139 0.000000 -3.798944
v 1.938861 0.000000 -3.501056
v 0.288861 0.075000 -0.301056
v -0.288861 0.075000 -0.598944
v 1.361139 0.075000 -3.798944
v 1.938861 0.075000 -3.501056
vt 0.000000 0.000000
vt 1.000000 0.000000
vt 1.000000 1.000000
vt 0.000000 1.000000
vt 0.000000 0.000000
vt 1.000000 0.000000
vt 1.000000 1.000000
vt 0.000000 1.000000
vt 0.000000 0.000000
vt 1.000000 0.000000
vt 1.000000 1.000000
vt 0.000000 1.000000
vt 0.000000 0.000000
vt 1.000000 0.000000
vt 1.000000 1.000000
vt 0.000000 1.000000
vt 0.000000 0.000000
vt 1.000000 0.000000
vt 1.000000 1.000000
vt 0.000000 1.000000
vt 0.000000 0.000000
vt 1.000000 0.000000
vt 1.000000 1.000000
vt 0.000000 1.000000
vt 0.000000 0.000000
vt 1.000000 0.000000
vt 1.000000 1.000000
vt 0.000000 1.000000
vt 0.000000 0.000000
vt 1.000000 0.000000
vt 1.000000 1.000000
vt 0.000000 1.000000
vt 0.000000 0.000000
vt 1.000000 0.000000
vt 1.000000 1.000000
vt 0.000000 1.000000
vt 0.000000 0.000000
vt 1.000000 0.000000
vt 1.000000 1.000000
vt 0.000000 1.000000
vt 0.000000 0.000000
vt 1.000000 0.000000
vt 1.000000 1.000000
vt 0.000000 1.000000
vt 0.000000 0.000000
vt 1.000000 0.000000
vt 1.000000 1.000000
vt 0.000000 1.000000
vt 0.000000 0.000000
vt 1.000000 0.000000
vt 1.000000 1.000000
vt 0.000000 1.000000
vt 0.000000 0.000000
vt 1.000000 0.000000
vt 1.000000 1.000000
vt 0.000000 1.000000
vt 0.000000 0.000000
vt 1.000000 0.000000
vt 1.000000 1.000000
vt 0.000000 1.000000
vt 0.000000 0.000000
vt 1.000000 0.000000
vt 1.000000 1.000000
vt 0.000000 1.000000
vt 0.000000 0.000000
vt 1.000000 0.000000
vt 1.000000 1.000000
vt 0.000000 1.000000
vt 0.000000 0.000000
vt 1.000000 0.000000
vt 1.000000 1.000000
vt 0.000000 1.000000
vt 0.000000 0.000000
vt 1.000000 0.000000
vt 1.000000 1.000000
vt 0.000000 1.000000
vt 0.000000 0.000000
vt 1.000000 0.000000
vt 1.000000 1.000000
vt 0.000000 1.000000
vt 0.000000 0.000000
vt 1.000000 0.000000
vt 1.000000 1.000000
vt 0.000000 1.000000
vt 0.000000 0.000000
vt 1.000000 0.000000
vt 1.000000 1.000000
vt 0.000000 1.000000
vt 0.000000 0.000000
vt 1.000000 0.000000
vt 1.000000 1.000000
vt 0.000000 1.000000
vt 0.000000 0.000000
vt 1.000000 0.000000
vt 1.000000 1.000000
vt 0.000000 1.000000
vt 0.000000 0.000000
vt 1.000000 0.000000
vt 1.000000 1.000000
vt 0.000000 1.000000
vt 0.000000 0.000000
vt 1.000000 0.000000
vt 1.000000 1.000000
vt 0.000000 1.000000
vt 0.000000 0.000000
vt 1.000000 0.000000
vt 1.000000 1.000000
vt 0.000000 1.000000
vt 0.000000 0.000000
vt 1.000000 0.000000
vt 1.000000 1.000000
vt 0.000000 1.000000
vt 0.000000 0.000000
vt 1.000000 0.000000
vt 1.000000 1.000000
vt 0.000000 1.000000
vt 0.000000 0.000000
vt 1.000000 0.000000
vt 1.000000 1.000000
vt 0.000000 1.000000
vt 0.000000 0.000000
vt 1.000000 0.000000
vt 1.000000 1.000000
vt 0.000000 1.000000
vt 0.000000 0.000000
vt 1.000000 0.000000
vt 1.000000 1.000000
vt 0.000000 1.000000
vt 0.000000 0.000000
vt 1.000000 0.000000
vt 1.000000 1.000000
vt 0.000000 1.000000
vt 0.000000 0.000000
vt 1.000000 0.000000
vt 1.000000 1.000000
vt 0.000000 1.000000
vt 0.000000 0.000000
vt 1.000000 0.000000
vt 1.000000 1.000000
vt 0.000000 1.000000
vt 0.000000 0.000000
vt 1.000000 0.000000
vt 1.000000 1.000000
vt 0.000000 1.000000
vt 0.000000 0.000000
vt 1.000000 0.000000
vt 1.000000 1.000000
vt 0.000000 1.000000
vt 0.000000 0.000000
vt 1.000000 0.000000
vt 1.000000 1.000000
vt 0.000000 1.000000
vt 0.000000 0.000000
vt 1.000000 0.000000
vt 1.000000 1.000000
vt 0.000000 1.000000
vt 0.000000 0.000000
vt 1.000000 0.000000
vt 1.000000 1.000000
vt 0.000000 1.000000
vt 0.000000 0.000000
vt 1.000000 0.000000
vt 1.000000 1.000000
vt 0.000000 1.000000
vt 0.000000 0.000000
vt 1.000000 0.000000
vt 1.000000 1.000000
vt 0.000000 1.000000
vt 1.000000 0.500000
vt 0.969846 0.671010
vt 0.883022 0.821394
vt 0.750000 0.933013
vt 0.586824 0.992404
vt 0.413176 0.992404
vt 0.250000 0.933013
vt 0.116978 0.821394
vt 0.030154 0.671010
vt 0.000000 0.500000
vt 0.030154 0.328990
vt 0.116978 0.178606
vt 0.250000 0.066987
vt 0.413176 0.007596
vt 0.586824 0.007596
vt 0.750000 0.066987
vt 0.883022 0.178606
vt 0.969846 0.328990
vt 1.000000 0.500000
vt 0.969846 0.671010
vt 0.883022 0.821394
vt 0.750000 0.933013
vt 0.586824 0.992404
vt 0.413176 0.992404
vt 0.250000 0.933013
vt 0.116978 0.821394
vt 0.030154 0.671010
vt 0.000000 0.500000
vt 0.030154 0.328990
vt 0.116978 0.178606
vt 0.250000 0.066987
vt 0.413176 0.007596
vt 0.586824 0.007596
vt 0.750000 0.066987
vt 0.883022 0.178606
vt 0.969846 0.328990
vt 0.000000 0.000000
vt 1.000000 0.000000
vt 1.000000 1.000000
vt 0.000000 1.000000
vt 0.000000 0.000000
vt 1.000000 0.000000
vt 1.000000 1.000000
vt 0.000000 1.000000
vt 0.000000 0.000000
vt 1.000000 0.000000
vt 1.000000 1.000000
vt 0.000000 1.000000
vt 0.000000 0.000000
vt 1.000000 0.000000
vt 1.000000 1.000000
vt 0.000000 1.000000
vt 0.000000 0.000000
vt 1.000000 0.000000
vt 1.000000 1.000000
vt 0.000000 1.000000
vt 0.000000 0.000000
vt 1.000000 0.000000
vt 1.000000 1.000000
vt 0.000000 1.000000
vt 0.000000 0.000000
vt 1.000000 0.000000
vt 1.000000 1.000000
vt 0.000000 1.000000
vt 0.000000 0.000000
vt 1.000000 0.000000
vt 1.000000 1.000000
vt 0.000000 1.000000
vt 0.000000 0.000000
vt 1.000000 0.000000
vt 1.000000 1.000000
vt 0.000000 1.000000
vt 0.000000 0.000000
vt 1.000000 0.000000
vt 1.000000 1.000000
vt 0.000000 1.000000
vt 0.000000 0.000000
vt 1.000000 0.000000
vt 1.000000 1.000000
vt 0.000000 1.000000
vt 0.000000 0.000000
vt 1.000000 0.000000
vt 1.000000 1.000000
vt 0.000000 1.000000
vt 0.000000 0.000000
vt 1.000000 0.000000
vt 1.000000 1.000000
vt 0.000000 1.000000
vt 0.000000 0.000000
vt 1.000000 0.000000
vt 1.000000 1.000000
vt 0.000000 1.000000
vt 0.000000 0.000000
vt 1.000000 0.000000
vt 1.000000 1.000000
vt 0.000000 1.000000
vt 0.000000 0.000000
vt 1.000000 0.000000
vt 1.000000 1.000000
vt 0.000000 1.000000
vt 0.000000 0.000000
vt 1.000000 0.000000
vt 1.000000 1.000000
vt 0.000000 1.000000
vt 0.000000 0.000000
vt 1.000000 0.000000
vt 1.000000 1.000000
vt 0.000000 1.000000
vt 1.000000 0.500000
vt 0.969846 0.671010
vt 0.883022 0.821394
vt 0.750000 0.933013
vt 0.586824 0.992404
vt 0.413176 0.992404
vt 0.250000 0.933013
vt 0.116978 0.821394
vt 0.030154 0.671010
vt 0.000000 0.500000
vt 0.030154 0.328990
vt 0.116978 0.178606
vt 0.250000 0.066987
vt 0.413176 0.007596
vt 0.586824 0.007596
vt 0.750000 0.066987
vt 0.883022 0.178606
vt 0.969846 0.328990
vt 1.000000 0.500000
vt 0.969846 0.671010
vt 0.883022 0.821394
vt 0.750000 0.933013
vt 0.586824 0.992404
vt 0.413176 0.992404
vt 0.250000 0.933013
vt 0.116978 0.821394
vt 0.030154 0.671010
vt 0.000000 0.500000
vt 0.030154 0.328990
vt 0.116978 0.178606
vt 0.250000 0.066987
vt 0.413176 0.007596
vt 0.586824 0.007596
vt 0.750000 0.066987
vt 0.883022 0.178606
vt 0.969846 0.328990
vt 0.000000 0.000000
vt 1.000000 0.000000
vt 1.000000 1.000000
vt 0.000000 1.000000
vt 0.000000 0.000000
vt 1.000000 0.000000
vt 1.000000 1.000000
vt 0.000000 1.000000
vt 0.000000 0.000000
vt 1.000000 0.000000
vt 1.000000 1.000000
vt 0.000000 1.000000
vt 0.000000 0.000000
vt 1.000000 0.000000
vt 1.000000 1.000000
vt 0.000000 1.000000
vt 0.000000 0.000000
vt 1.000000 0.000000
vt 1.000000 1.000000
vt 0.000000 1.000000
vt 0.000000 0.000000
vt 1.000000 0.000000
vt 1.000000 1.000000
vt 0.000000 1.000000
vt 0.000000 0.000000
vt 1.000000 0.000000
vt 1.000000 1.000000
vt 0.000000 1.000000
vt 0.000000 0.000000
vt 1.000000 0.000000
vt 1.000000 1.000000
vt 0.000000 1.000000
vt 0.000000 0.000000
vt 1.000000 0.000000
vt 1.000000 1.000000
vt 0.000000 1.000000
vt 0.000000 0.000000
vt 1.000000 0.000000
vt 1.000000 1.000000
vt 0.000000 1.000000
vt 0.000000 0.000000
vt 1.000000 0.000000
vt 1.000000 1.000000
vt 0.000000 1.000000
vt 0.000000 0.000000
vt 1.000000 0.000000
vt 1.000000 1.000000
vt 0.000000 1.000000
vt 0.000000 0.000000
vt 1.000000 0.000000
vt 1.000000 1.000000
vt 0.000000 1.000000
vt 0.000000 0.000000
vt 1.000000 0.000000
vt 1.000000 1.000000
vt 0.000000 1.000000
vt 0.000000 0.000000
vt 1.000000 0.000000
vt 1.000000 1.000000
vt 0.000000 1.000000
vt 0.000000 0.000000
vt 1.000000 0.000000
vt 1.000000 1.000000
vt 0.000000 1.000000
vt 0.000000 0.000000
vt 1.000000 0.000000
vt 1.000000 1.000000
vt 0.000000 1.000000
vt 0.000000 0.000000
vt 1.000000 0.000000
vt 1.000000 1.000000
vt 0.000000 1.000000
vt 1.000000 0.500000
vt 0.969846 0.671010
vt 0.883022 0.821394
vt 0.750000 0.933013
vt 0.586824 0.992404
vt 0.413176 0.992404
vt 0.250000 0.933013
vt 0.116978 0.821394
vt 0.030154 0.671010
vt 0.000000 0.500000
vt 0.030154 0.328990
vt 0.116978 0.178606
vt 0.250000 0.066987
vt 0.413176 0.007596
vt 0.586824 0.007596
vt 0.750000 0.066987
vt 0.883022 0.178606
vt 0.969846 0.328990
vt 1.000000 0.500000
vt 0.969846 0.671010
vt 0.883022 0.821394
vt 0.750000 0.933013
vt 0.586824 0.992404
vt 0.413176 0.992404
vt 0.250000 0.933013
vt 0.116978 0.821394
vt 0.030154 0.671010
vt 0.000000 0.500000
vt 0.030154 0.328990
vt 0.116978 0.178606
vt 0.250000 0.066987
vt 0.413176 0.007596
vt 0.586824 0.007596
vt 0.750000 0.066987
vt 0.883022 0.178606
vt 0.969846 0.328990
vt 0.000000 0.000000
vt 1.000000 0.000000
vt 1.000000 1.000000
vt 0.000000 1.000000
vt 0.000000 0.000000
vt 1.000000 0.000000
vt 1.000000 1.000000
vt 0.000000 1.000000
vt 0.000000 0.000000
vt 1.000000 0.000000
vt 1.000000 1.000000
vt 0.000000 1.000000
vt 0.000000 0.000000
vt 1.000000 0.000000
vt 1.000000 1.000000
vt 0.000000 1.000000
vt 0.000000 0.000000
vt 1.000000 0.000000
vt 1.000000 1.000000
vt 0.000000 1.000000
vt 0.000000 0.000000
vt 1.000000 0.000000
vt 1.000000 1.000000
vt 0.000000 1.000000
vt 0.000000 0.000000
vt 1.000000 0.000000
vt 1.000000 1.000000
vt 0.000000 1.000000
vt 0.000000 0.000000
vt 1.000000 0.000000
vt 1.000000 1.000000
vt 0.000000 1.000000
vt 0.000000 0.000000
vt 1.000000 0.000000
vt 1.000000 1.000000
vt 0.000000 1.000000
vt 0.000000 0.000000
vt 1.000000 0.000000
vt 1.000000 1.000000
vt 0.000000 1.000000
vt 0.000000 0.000000
vt 1.000000 0.000000
vt 1.000000 1.000000
vt 0.000000 1.000000
vt 0.000000 0.000000
vt 1.000000 0.000000
vt 1.000000 1.000000
vt 0.000000 1.000000
vt 0.000000 0.000000
vt 1.000000 0.000000
vt 1.000000 1.000000
vt 0.000000 1.000000
vt 0.000000 0.000000
vt 1.000000 0.000000
vt 1.000000 1.000000
vt 0.000000 1.000000
vt 0.000000 0.000000
vt 1.000000 0.000000
vt 1.000000 1.000000
vt 0.000000 1.000000
vt 0.000000 0.000000
vt 1.000000 0.000000
vt 1.000000 1.000000
vt 0.000000 1.000000
vt 0.000000 0.000000
vt 1.000000 0.000000
vt 1.000000 1.000000
vt 0.000000 1.000000
vt 0.000000 0.000000
vt 1.000000 0.000000
vt 1.000000 1.000000
vt 0.000000 1.000000
vt 1.000000 0.500000
vt 0.969846 0.671010
vt 0.883022 0.821394
vt 0.750000 0.933013
vt 0.586824 0.992404
vt 0.413176 0.992404
vt 0.250000 0.933013
vt 0.116978 0.821394
vt 0.030154 0.671010
vt 0.000000 0.500000
vt 0.030154 0.328990
vt 0.116978 0.178606
vt 0.250000 0.066987
vt 0.413176 0.007596
vt 0.586824 0.007596
vt 0.750000 0.066987
vt 0.883022 0.178606
vt 0.969846 0.328990
vt 1.000000 0.500000
vt 0.969846 0.671010
vt 0.883022 0.821394
vt 0.750000 0.933013
vt 0.586824 0.992404
vt 0.413176 0.992404
vt 0.250000 0.933013
vt 0.116978 0.821394
vt 0.030154 0.671010
vt 0.000000 0.500000
vt 0.030154 0.328990
vt 0.116978 0.178606
vt 0.250000 0.066987
vt 0.413176 0.007596
vt 0.586824 0.007596
vt 0.750000 0.066987
vt 0.883022 0.178606
vt 0.969846 0.328990
vt 0.000000 0.000000
vt 1.000000 0.000000
vt 1.000000 1.000000
vt 0.000000 1.000000
vt 0.000000 0.000000
vt 1.000000 0.000000
vt 1.000000 1.000000
vt 0.000000 1.000000
vt 0.000000 0.000000
vt 1.000000 0.000000
vt 1.000000 1.000000
vt 0.000000 1.000000
vt 0.000000 0.000000
vt 1.000000 0.000000
vt 1.000000 1.000000
vt 0.000000 1.000000
vt 0.000000 0.000000
vt 1.000000 0.000000
vt 1.000000 1.000000
vt 0.000000 1.000000
vt 0.000000 0.000000
vt 1.000000 0.000000
vt 1.000000 1.000000
vt 0.000000 1.000000
vt 0.000000 0.000000
vt 1.000000 0.000000
vt 1.000000 1.000000
vt 0.000000 1.000000
vt 0.000000 0.000000
vt 1.000000 0.000000
vt 1.000000 1.000000
vt 0.000000 1.000000
vt 0.000000 0.000000
vt 1.000000 0.000000
vt 1.000000 1.000000
vt 0.000000 1.000000
vt 0.000000 0.000000
vt 1.000000 0.000000
vt 1.000000 1.000000
vt 0.000000 1.000000
vt 0.000000 0.000000
vt 1.000000 0.000000
vt 1.000000 1.000000
vt 0.000000 1.000000
vt 0.000000 0.000000
vt 1.000000 0.000000
vt 1.000000 1.000000
vt 0.000000 1.000000
vt 0.000000 0.000000
vt 1.000000 0.000000
vt 1.000000 1.000000
vt 0.000000 1.000000
vt 0.000000 0.000000
vt 1.000000 0.000000
vt 1.000000 1.000000
vt 0.000000 1.000000
vt 0.000000 0.000000
vt 1.000000 0.000000
vt 1.000000 1.000000
vt 0.000000 1.000000
vt 0.000000 0.000000
vt 1.000000 0.000000
vt 1.000000 1.000000
vt 0.000000 1.000000
vt 0.000000 0.000000
vt 1.000000 0.000000
vt 1.000000 1.000000
vt 0.000000 1.000000
vt 0.000000 0.000000
vt 1.000000 0.000000
vt 1.000000 1.000000
vt 0.000000 1.000000
vt 0.000000 0.000000
vt 1.000000 0.000000
vt 1.000000 1.000000
vt 0.000000 1.000000
vt 0.000000 0.000000
vt 1.000000 0.000000
vt 1.000000 1.000000
vt 0.000000 1.000000
vt 0.000000 0.000000
vt 1.000000 0.000000
vt 1.000000 1.000000
vt 0.000000 1.000000
vt 0.000000 0.000000
vt 1.000000 0.000000
vt 1.000000 1.000000
vt 0.000000 1.000000
vt 0.000000 0.000000
vt 1.000000 0.000000
vt 1.000000 1.000000
vt 0.000000 1.000000
vt 0.000000 0.000000
vt 1.000000 0.000000
vt 1.000000 1.000000
vt 0.000000 1.000000
vt 0.000000 0.000000
vt 1.000000 0.000000
vt 1.000000 1.000000
vt 0.000000 1.000000
vt 0.000000 0.000000
vt 1.000000 0.000000
vt 1.000000 1.000000
vt 0.000000 1.000000
vt 0.000000 0.000000
vt 1.000000 0.000000
vt 1.000000 1.000000
vt 0.000000 1.000000
vt 0.000000 0.000000
vt 1.000000 0.000000
vt 1.000000 1.000000
vt 0.000000 1.000000
vt 0.000000 0.000000
vt 1.000000 0.000000
vt 1.000000 1.000000
vt 0.000000 1.000000
vt 0.000000 0.000000
vt 1.000000 0.000000
vt 1.000000 1.000000
vt 0.000000 1.000000
vt 0.000000 0.000000
vt 1.000000 0.000000
vt 1.000000 1.000000
vt 0.000000 1.000000
vt 0.000000 0.000000
vt 1.000000 0.000000
vt 1.000000 1.000000
vt 0.000000 1.000000
vt 0.000000 0.000000
vt 1.000000 0.000000
vt 1.000000 1.000000
vt 0.000000 1.000000
vt 0.000000 0.000000
vt 1.000000 0.000000
vt 1.000000 1.000000
vt 0.000000 1.000000
vt 0.000000 0.000000
vt 1.000000 0.000000
vt 1.000000 1.000000
vt 0.000000 1.000000
vt 0.000000 0.000000
vt 1.000000 0.000000
vt 1.000000 1.000000
vt 0.000000 1.000000
vt 0.000000 0.000000
vt 1.000000 0.000000
vt 1.000000 1.000000
vt 0.000000 1.000000
vt 0.000000 0.000000
vt 1.000000 0.000000
vt 1.000000 1.000000
vt 0.000000 1.000000
vt 0.000000 0.000000
vt 1.000000 0.000000
vt 1.000000 1.000000
vt 0.000000 1.000000
vt 0.000000 0.000000
vt 1.000000 0.000000
vt 1.000000 1.000000
vt 0.000000 1.000000
vt 0.000000 0.000000
vt 1.000000 0.000000
vt 1.000000 1.000000
vt 0.000000 1.000000
vt 0.000000 0.000000
vt 1.000000 0.000000
vt 1.000000 1.000000
vt 0.000000 1.000000
vt 0.000000 0.000000
vt 1.000000 0.000000
vt 1.000000 1.000000
vt 0.000000 1.000000
vt 0.000000 0.000000
vt 1.000000 0.000000
vt 1.000000 1.000000
vt 0.000000 1.000000
vt 0.000000 0.000000
vt 1.000000 0.000000
vt 1.000000 1.000000
vt 0.000000 1.000000
vt 0.000000 0.000000
vt 1.000000 0.000000
vt 1.000000 1.000000
vt 0.000000 1.000000
vt 0.000000 0.000000
vt 1.000000 0.000000
vt 1.000000 1.000000
vt 0.000000 1.000000
vt 0.000000 0.000000
vt 1.000000 0.000000
vt 1.000000 1.000000
vt 0.000000 1.000000
o LargeWetGroundPatch_1
usemtl MAT_STORM_GROUND
f 1/1 2/2 3/3 4/4
f 5/5 8/6 7/7 6/8
f 1/9 5/10 6/11 2/12
f 2/13 6/14 7/15 3/16
f 3/17 7/18 8/19 4/20
f 4/21 8/22 5/23 1/24
o LargeWetGroundPatch_2
f 9/25 10/26 11/27 12/28
f 13/29 16/30 15/31 14/32
f 9/33 13/34 14/35 10/36
f 10/37 14/38 15/39 11/40
f 11/41 15/42 16/43 12/44
f 12/45 16/46 13/47 9/48
o LargeWetGroundPatch_3
f 17/49 18/50 19/51 20/52
f 21/53 24/54 23/55 22/56
f 17/57 21/58 22/59 18/60
f 18/61 22/62 23/63 19/64
f 19/65 23/66 24/67 20/68
f 20/69 24/70 21/71 17/72
o LargeWetGroundPatch_4
f 25/73 26/74 27/75 28/76
f 29/77 32/78 31/79 30/80
f 25/81 29/82 30/83 26/84
f 26/85 30/86 31/87 27/88
f 27/89 31/90 32/91 28/92
f 28/93 32/94 29/95 25/96
o BroadStormPuddle_1
f 33/97 34/98 52/99 51/100
f 34/101 35/102 53/103 52/104
f 35/105 36/106 54/107 53/108
f 36/109 37/110 55/111 54/112
f 37/113 38/114 56/115 55/116
f 38/117 39/118 57/119 56/120
f 39/121 40/122 58/123 57/124
f 40/125 41/126 59/127 58/128
f 41/129 42/130 60/131 59/132
f 42/133 43/134 61/135 60/136
f 43/137 44/138 62/139 61/140
f 44/141 45/142 63/143 62/144
f 45/145 46/146 64/147 63/148
f 46/149 47/150 65/151 64/152
f 47/153 48/154 66/155 65/156
f 48/157 49/158 67/159 66/160
f 49/161 50/162 68/163 67/164
f 50/165 33/166 51/167 68/168
f 50/169 49/170 48/171 47/172 46/173 45/174 44/175 43/176 42/177 41/178 40/179 39/180 38/181 37/182 36/183 35/184 34/185 33/186
f 51/187 52/188 53/189 54/190 55/191 56/192 57/193 58/194 59/195 60/196 61/197 62/198 63/199 64/200 65/201 66/202 67/203 68/204
o BroadStormPuddle_2
f 69/205 70/206 88/207 87/208
f 70/209 71/210 89/211 88/212
f 71/213 72/214 90/215 89/216
f 72/217 73/218 91/219 90/220
f 73/221 74/222 92/223 91/224
f 74/225 75/226 93/227 92/228
f 75/229 76/230 94/231 93/232
f 76/233 77/234 95/235 94/236
f 77/237 78/238 96/239 95/240
f 78/241 79/242 97/243 96/244
f 79/245 80/246 98/247 97/248
f 80/249 81/250 99/251 98/252
f 81/253 82/254 100/255 99/256
f 82/257 83/258 101/259 100/260
f 83/261 84/262 102/263 101/264
f 84/265 85/266 103/267 102/268
f 85/269 86/270 104/271 103/272
f 86/273 69/274 87/275 104/276
f 86/277 85/278 84/279 83/280 82/281 81/282 80/283 79/284 78/285 77/286 76/287 75/288 74/289 73/290 72/291 71/292 70/293 69/294
f 87/295 88/296 89/297 90/298 91/299 92/300 93/301 94/302 95/303 96/304 97/305 98/306 99/307 100/308 101/309 102/310 103/311 104/312
o BroadStormPuddle_3
f 105/313 106/314 124/315 123/316
f 106/317 107/318 125/319 124/320
f 107/321 108/322 126/323 125/324
f 108/325 109/326 127/327 126/328
f 109/329 110/330 128/331 127/332
f 110/333 111/334 129/335 128/336
f 111/337 112/338 130/339 129/340
f 112/341 113/342 131/343 130/344
f 113/345 114/346 132/347 131/348
f 114/349 115/350 133/351 132/352
f 115/353 116/354 134/355 133/356
f 116/357 117/358 135/359 134/360
f 117/361 118/362 136/363 135/364
f 118/365 119/366 137/367 136/368
f 119/369 120/370 138/371 137/372
f 120/373 121/374 139/375 138/376
f 121/377 122/378 140/379 139/380
f 122/381 105/382 123/383 140/384
f 122/385 121/386 120/387 119/388 118/389 117/390 116/391 115/392 114/393 113/394 112/395 111/396 110/397 109/398 108/399 107/400 106/401 105/402
f 123/403 124/404 125/405 126/406 127/407 128/408 129/409 130/410 131/411 132/412 133/413 134/414 135/415 136/416 137/417 138/418 139/419 140/420
o BroadStormPuddle_4
f 141/421 142/422 160/423 159/424
f 142/425 143/426 161/427 160/428
f 143/429 144/430 162/431 161/432
f 144/433 145/434 163/435 162/436
f 145/437 146/438 164/439 163/440
f 146/441 147/442 165/443 164/444
f 147/445 148/446 166/447 165/448
f 148/449 149/450 167/451 166/452
f 149/453 150/454 168/455 167/456
f 150/457 151/458 169/459 168/460
f 151/461 152/462 170/463 169/464
f 152/465 153/466 171/467 170/468
f 153/469 154/470 172/471 171/472
f 154/473 155/474 173/475 172/476
f 155/477 156/478 174/479 173/480
f 156/481 157/482 175/483 174/484
f 157/485 158/486 176/487 175/488
f 158/489 141/490 159/491 176/492
f 158/493 157/494 156/495 155/496 154/497 153/498 152/499 151/500 150/501 149/502 148/503 147/504 146/505 145/506 144/507 143/508 142/509 141/510
f 159/511 160/512 161/513 162/514 163/515 164/516 165/517 166/518 167/519 168/520 169/521 170/522 171/523 172/524 173/525 174/526 175/527 176/528
o LooseReadableDebris_1
usemtl MAT_DRIFTWOOD
f 177/529 178/530 180/531 179/532
f 181/533 183/534 184/535 182/536
f 177/537 181/538 182/539 178/540
f 179/541 180/542 184/543 183/544
f 177/545 179/546 183/547 181/548
f 178/549 182/550 184/551 180/552
o LooseReadableDebris_2
f 185/553 186/554 188/555 187/556
f 189/557 191/558 192/559 190/560
f 185/561 189/562 190/563 186/564
f 187/565 188/566 192/567 191/568
f 185/569 187/570 191/571 189/572
f 186/573 190/574 192/575 188/576
o LooseReadableDebris_3
f 193/577 194/578 196/579 195/580
f 197/581 199/582 200/583 198/584
f 193/585 197/586 198/587 194/588
f 195/589 196/590 200/591 199/592
f 193/593 195/594 199/595 197/596
f 194/597 198/598 200/599 196/600
o LooseReadableDebris_4
f 201/601 202/602 204/603 203/604
f 205/605 207/606 208/607 206/608
f 201/609 205/610 206/611 202/612
f 203/613 204/614 208/615 207/616
f 201/617 203/618 207/619 205/620
f 202/621 206/622 208/623 204/624
o TornShelterCanvasScrap
usemtl MAT_CANVAS
f 209/625 212/626 211/627 210/628
f 213/629 214/630 215/631 216/632
f 209/633 210/634 214/635 213/636
f 212/637 216/638 215/639 211/640
f 209/641 213/642 216/643 212/644
f 210/645 211/646 215/647 214/648
o LooseSignalCanvasScrap
f 217/649 220/650 219/651 218/652
f 221/653 222/654 223/655 224/656
f 217/657 218/658 222/659 221/660
f 220/661 224/662 223/663 219/664
f 217/665 221/666 224/667 220/668
f 218/669 219/670 223/671 222/672
o PreservedFireReadability
usemtl MAT_MARKER
f 225/673 226/674 227/675 228/676
f 229/677 232/678 231/679 230/680
f 225/681 229/682 230/683 226/684
f 226/685 230/686 231/687 227/688
f 227/689 231/690 232/691 228/692
f 228/693 232/694 229/695 225/696
o PreservedSignalFinalApproach
f 233/697 234/698 235/699 236/700
f 237/701 240/702 239/703 238/704
f 233/705 237/706 238/707 234/708
f 234/709 238/710 239/711 235/712
f 235/713 239/714 240/715 236/716
f 236/717 240/718 237/719 233/720
