# PROJECT OEN production source mesh: ENV_CAMP_GROUND_001
mtllib ENV_CAMP_GROUND_001.mtl
s off
v -6.000000 -0.056809 -5.250000
v -5.000000 -0.024953 -5.250000
v -4.000000 0.008925 -5.250000
v -3.000000 0.010646 -5.250000
v -2.000000 -0.012555 -5.250000
v -1.000000 -0.021207 -5.250000
v 0.000000 0.000000 -5.250000
v 1.000000 0.020883 -5.250000
v 2.000000 0.009963 -5.250000
v 3.000000 -0.019396 -5.250000
v 4.000000 -0.029666 -5.250000
v 5.000000 -0.015556 -5.250000
v 6.000000 -0.013191 -5.250000
v -6.000000 -0.015617 -4.200000
v -5.000000 -0.002678 -4.200000
v -4.000000 -0.002038 -4.200000
v -3.000000 -0.001586 -4.200000
v -2.000000 0.001189 -4.200000
v -1.000000 0.002222 -4.200000
v 0.000000 -0.000000 -4.200000
v 1.000000 -0.002222 -4.200000
v 2.000000 -0.001189 -4.200000
v 3.000000 0.001586 -4.200000
v 4.000000 0.002038 -4.200000
v 5.000000 -0.003671 -4.200000
v 6.000000 -0.020223 -4.200000
v -6.000000 0.016109 -3.150000
v -5.000000 0.005099 -3.150000
v -4.000000 -0.020941 -3.150000
v -3.000000 -0.016303 -3.150000
v -2.000000 0.012219 -3.150000
v -1.000000 0.022840 -3.150000
v 0.000000 -0.000000 -3.150000
v 1.000000 -0.022840 -3.150000
v 2.000000 -0.012219 -3.150000
v 3.000000 0.016303 -3.150000
v 4.000000 0.020941 -3.150000
v 5.000000 -0.005099 -3.150000
v 6.000000 -0.031229 -3.150000
v -6.000000 0.014578 -2.100000
v -5.000000 0.003623 -2.100000
v -4.000000 -0.014880 -2.100000
v -3.000000 -0.011584 -2.100000
v -2.000000 0.008682 -2.100000
v -1.000000 0.016229 -2.100000
v 0.000000 -0.000000 -2.100000
v 1.000000 -0.016229 -2.100000
v 2.000000 -0.008682 -2.100000
v 3.000000 0.011584 -2.100000
v 4.000000 0.014880 -2.100000
v 5.000000 -0.003623 -2.100000
v 6.000000 -0.019058 -2.100000
v -6.000000 -0.010363 -1.050000
v -5.000000 -0.002172 -1.050000
v -4.000000 0.008921 -1.050000
v -3.000000 0.006945 -1.050000
v -2.000000 -0.005206 -1.050000
v -1.000000 -0.009730 -1.050000
v 0.000000 0.000000 -1.050000
v 1.000000 0.009730 -1.050000
v 2.000000 0.005206 -1.050000
v 3.000000 -0.006945 -1.050000
v 4.000000 -0.008921 -1.050000
v 5.000000 0.002172 -1.050000
v 6.000000 0.009803 -1.050000
v -6.000000 -0.024964 0.000000
v -5.000000 -0.005378 0.000000
v -4.000000 0.022086 0.000000
v -3.000000 0.017194 0.000000
v -2.000000 -0.012888 0.000000
v -1.000000 -0.024089 0.000000
v 0.000000 0.000000 0.000000
v 1.000000 0.024089 0.000000
v 2.000000 0.012888 0.000000
v 3.000000 -0.017194 0.000000
v 4.000000 -0.022086 0.000000
v 5.000000 0.005378 0.000000
v 6.000000 0.024964 0.000000
v -6.000000 -0.010363 1.050000
v -5.000000 -0.002172 1.050000
v -4.000000 0.008921 1.050000
v -3.000000 0.006945 1.050000
v -2.000000 -0.005206 1.050000
v -1.000000 -0.009730 1.050000
v 0.000000 0.000000 1.050000
v 1.000000 0.009730 1.050000
v 2.000000 0.005206 1.050000
v 3.000000 -0.006945 1.050000
v 4.000000 -0.008921 1.050000
v 5.000000 0.002172 1.050000
v 6.000000 0.009803 1.050000
v -6.000000 0.014578 2.100000
v -5.000000 0.003623 2.100000
v -4.000000 -0.014880 2.100000
v -3.000000 -0.011584 2.100000
v -2.000000 0.008682 2.100000
v -1.000000 0.016229 2.100000
v 0.000000 -0.000000 2.100000
v 1.000000 -0.016229 2.100000
v 2.000000 -0.008682 2.100000
v 3.000000 0.011584 2.100000
v 4.000000 0.014880 2.100000
v 5.000000 -0.003623 2.100000
v 6.000000 -0.019058 2.100000
v -6.000000 0.016109 3.150000
v -5.000000 0.005099 3.150000
v -4.000000 -0.020941 3.150000
v -3.000000 -0.016303 3.150000
v -2.000000 0.012219 3.150000
v -1.000000 0.022840 3.150000
v 0.000000 -0.000000 3.150000
v 1.000000 -0.022840 3.150000
v 2.000000 -0.012219 3.150000
v 3.000000 0.016303 3.150000
v 4.000000 0.020941 3.150000
v 5.000000 -0.005099 3.150000
v 6.000000 -0.031229 3.150000
v -6.000000 -0.015617 4.200000
v -5.000000 -0.002678 4.200000
v -4.000000 -0.002038 4.200000
v -3.000000 -0.001586 4.200000
v -2.000000 0.001189 4.200000
v -1.000000 0.002222 4.200000
v 0.000000 -0.000000 4.200000
v 1.000000 -0.002222 4.200000
v 2.000000 -0.001189 4.200000
v 3.000000 0.001586 4.200000
v 4.000000 0.002038 4.200000
v 5.000000 -0.003671 4.200000
v 6.000000 -0.020223 4.200000
v -6.000000 -0.056809 5.250000
v -5.000000 -0.024953 5.250000
v -4.000000 0.008925 5.250000
v -3.000000 0.010646 5.250000
v -2.000000 -0.012555 5.250000
v -1.000000 -0.021207 5.250000
v 0.000000 0.000000 5.250000
v 1.000000 0.020883 5.250000
v 2.000000 0.009963 5.250000
v 3.000000 -0.019396 5.250000
v 4.000000 -0.029666 5.250000
v 5.000000 -0.015556 5.250000
v 6.000000 -0.013191 5.250000
v 1.350000 0.000000 0.000000
v 1.268585 0.000000 0.461727
v 1.034160 0.000000 0.867763
v 0.675000 0.000000 1.169134
v 0.234425 0.000000 1.329490
v -0.234425 0.000000 1.329490
v -0.675000 0.000000 1.169134
v -1.034160 0.000000 0.867763
v -1.268585 0.000000 0.461727
v -1.350000 0.000000 0.000000
v -1.268585 0.000000 -0.461727
v -1.034160 0.000000 -0.867763
v -0.675000 0.000000 -1.169134
v -0.234425 0.000000 -1.329490
v 0.234425 0.000000 -1.329490
v 0.675000 0.000000 -1.169134
v 1.034160 0.000000 -0.867763
v 1.268585 0.000000 -0.461727
v 1.350000 0.050000 0.000000
v 1.268585 0.050000 0.461727
v 1.034160 0.050000 0.867763
v 0.675000 0.050000 1.169134
v 0.234425 0.050000 1.329490
v -0.234425 0.050000 1.329490
v -0.675000 0.050000 1.169134
v -1.034160 0.050000 0.867763
v -1.268585 0.050000 0.461727
v -1.350000 0.050000 0.000000
v -1.268585 0.050000 -0.461727
v -1.034160 0.050000 -0.867763
v -0.675000 0.050000 -1.169134
v -0.234425 0.050000 -1.329490
v 0.234425 0.050000 -1.329490
v 0.675000 0.050000 -1.169134
v 1.034160 0.050000 -0.867763
v 1.268585 0.050000 -0.461727
v -1.850000 0.000000 2.200000
v -1.925384 0.000000 2.627525
v -2.142444 0.000000 3.003485
v -2.475000 0.000000 3.282532
v -2.882940 0.000000 3.431010
v -3.317060 0.000000 3.431010
v -3.725000 0.000000 3.282532
v -4.057556 0.000000 3.003485
v -4.274616 0.000000 2.627525
v -4.350000 0.000000 2.200000
v -4.274616 0.000000 1.772475
v -4.057556 0.000000 1.396515
v -3.725000 0.000000 1.117468
v -3.317060 0.000000 0.968990
v -2.882940 0.000000 0.968990
v -2.475000 0.000000 1.117468
v -2.142444 0.000000 1.396515
v -1.925384 0.000000 1.772475
v -1.850000 0.050000 2.200000
v -1.925384 0.050000 2.627525
v -2.142444 0.050000 3.003485
v -2.475000 0.050000 3.282532
v -2.882940 0.050000 3.431010
v -3.317060 0.050000 3.431010
v -3.725000 0.050000 3.282532
v -4.057556 0.050000 3.003485
v -4.274616 0.050000 2.627525
v -4.350000 0.050000 2.200000
v -4.274616 0.050000 1.772475
v -4.057556 0.050000 1.396515
v -3.725000 0.050000 1.117468
v -3.317060 0.050000 0.968990
v -2.882940 0.050000 0.968990
v -2.475000 0.050000 1.117468
v -2.142444 0.050000 1.396515
v -1.925384 0.050000 1.772475
v 4.300000 0.000000 0.800000
v 4.227631 0.000000 1.210424
v 4.019253 0.000000 1.571345
v 3.700000 0.000000 1.839230
v 3.308378 0.000000 1.981769
v 2.891622 0.000000 1.981769
v 2.500000 0.000000 1.839230
v 2.180747 0.000000 1.571345
v 1.972369 0.000000 1.210424
v 1.900000 0.000000 0.800000
v 1.972369 0.000000 0.389576
v 2.180747 0.000000 0.028655
v 2.500000 0.000000 -0.239230
v 2.891622 0.000000 -0.381769
v 3.308378 0.000000 -0.381769
v 3.700000 0.000000 -0.239230
v 4.019253 0.000000 0.028655
v 4.227631 0.000000 0.389576
v 4.300000 0.050000 0.800000
v 4.227631 0.050000 1.210424
v 4.019253 0.050000 1.571345
v 3.700000 0.050000 1.839230
v 3.308378 0.050000 1.981769
v 2.891622 0.050000 1.981769
v 2.500000 0.050000 1.839230
v 2.180747 0.050000 1.571345
v 1.972369 0.050000 1.210424
v 1.900000 0.050000 0.800000
v 1.972369 0.050000 0.389576
v 2.180747 0.050000 0.028655
v 2.500000 0.050000 -0.239230
v 2.891622 0.050000 -0.381769
v 3.308378 0.050000 -0.381769
v 3.700000 0.050000 -0.239230
v 4.019253 0.050000 0.028655
v 4.227631 0.050000 0.389576
v 4.200000 0.000000 2.750000
v 4.142708 0.000000 3.074919
v 3.977742 0.000000 3.360648
v 3.725000 0.000000 3.572724
v 3.414966 0.000000 3.685567
v 3.085034 0.000000 3.685567
v 2.775000 0.000000 3.572724
v 2.522258 0.000000 3.360648
v 2.357292 0.000000 3.074919
v 2.300000 0.000000 2.750000
v 2.357292 0.000000 2.425081
v 2.522258 0.000000 2.139352
v 2.775000 0.000000 1.927276
v 3.085034 0.000000 1.814433
v 3.414966 0.000000 1.814433
v 3.725000 0.000000 1.927276
v 3.977742 0.000000 2.139352
v 4.142708 0.000000 2.425081
v 4.200000 0.050000 2.750000
v 4.142708 0.050000 3.074919
v 3.977742 0.050000 3.360648
v 3.725000 0.050000 3.572724
v 3.414966 0.050000 3.685567
v 3.085034 0.050000 3.685567
v 2.775000 0.050000 3.572724
v 2.522258 0.050000 3.360648
v 2.357292 0.050000 3.074919
v 2.300000 0.050000 2.750000
v 2.357292 0.050000 2.425081
v 2.522258 0.050000 2.139352
v 2.775000 0.050000 1.927276
v 3.085034 0.050000 1.814433
v 3.414966 0.050000 1.814433
v 3.725000 0.050000 1.927276
v 3.977742 0.050000 2.139352
v 4.142708 0.050000 2.425081
v -1.350000 0.000000 -3.250000
v -1.431415 0.000000 -2.788273
v -1.665840 0.000000 -2.382237
v -2.025000 0.000000 -2.080866
v -2.465575 0.000000 -1.920510
v -2.934425 0.000000 -1.920510
v -3.375000 0.000000 -2.080866
v -3.734160 0.000000 -2.382237
v -3.968585 0.000000 -2.788273
v -4.050000 0.000000 -3.250000
v -3.968585 0.000000 -3.711727
v -3.734160 0.000000 -4.117763
v -3.375000 0.000000 -4.419134
v -2.934425 0.000000 -4.579490
v -2.465575 0.000000 -4.579490
v -2.025000 0.000000 -4.419134
v -1.665840 0.000000 -4.117763
v -1.431415 0.000000 -3.711727
v -1.350000 0.050000 -3.250000
v -1.431415 0.050000 -2.788273
v -1.665840 0.050000 -2.382237
v -2.025000 0.050000 -2.080866
v -2.465575 0.050000 -1.920510
v -2.934425 0.050000 -1.920510
v -3.375000 0.050000 -2.080866
v -3.734160 0.050000 -2.382237
v -3.968585 0.050000 -2.788273
v -4.050000 0.050000 -3.250000
v -3.968585 0.050000 -3.711727
v -3.734160 0.050000 -4.117763
v -3.375000 0.050000 -4.419134
v -2.934425 0.050000 -4.579490
v -2.465575 0.050000 -4.579490
v -2.025000 0.050000 -4.419134
v -1.665840 0.050000 -4.117763
v -1.431415 0.050000 -3.711727
v 2.750000 0.000000 -3.850000
v 2.683662 0.000000 -3.473778
v 2.492649 0.000000 -3.142934
v 2.200000 0.000000 -2.897372
v 1.841013 0.000000 -2.766711
v 1.458987 0.000000 -2.766711
v 1.100000 0.000000 -2.897372
v 0.807351 0.000000 -3.142934
v 0.616338 0.000000 -3.473778
v 0.550000 0.000000 -3.850000
v 0.616338 0.000000 -4.226222
v 0.807351 0.000000 -4.557066
v 1.100000 0.000000 -4.802628
v 1.458987 0.000000 -4.933289
v 1.841013 0.000000 -4.933289
v 2.200000 0.000000 -4.802628
v 2.492649 0.000000 -4.557066
v 2.683662 0.000000 -4.226222
v 2.750000 0.050000 -3.850000
v 2.683662 0.050000 -3.473778
v 2.492649 0.050000 -3.142934
v 2.200000 0.050000 -2.897372
v 1.841013 0.050000 -2.766711
v 1.458987 0.050000 -2.766711
v 1.100000 0.050000 -2.897372
v 0.807351 0.050000 -3.142934
v 0.616338 0.050000 -3.473778
v 0.550000 0.050000 -3.850000
v 0.616338 0.050000 -4.226222
v 0.807351 0.050000 -4.557066
v 1.100000 0.050000 -4.802628
v 1.458987 0.050000 -4.933289
v 1.841013 0.050000 -4.933289
v 2.200000 0.050000 -4.802628
v 2.492649 0.050000 -4.557066
v 2.683662 0.050000 -4.226222
v -5.800000 0.000000 -4.590000
v -5.800000 0.000000 -5.310000
v 5.800000 0.000000 -5.310000
v 5.800000 0.000000 -4.590000
v -5.800000 0.035000 -4.590000
v -5.800000 0.035000 -5.310000
v 5.800000 0.035000 -5.310000
v 5.800000 0.035000 -4.590000
v -0.225711 0.000000 -0.318048
v 0.225711 0.000000 0.318048
v -2.874289 0.000000 2.518048
v -3.325711 0.000000 1.881952
v -0.225711 0.055000 -0.318048
v 0.225711 0.055000 0.318048
v -2.874289 0.055000 2.518048
v -3.325711 0.055000 1.881952
v -0.097452 0.000000 0.377628
v 0.097452 0.000000 -0.377628
v 3.197452 0.000000 0.422372
v 3.002548 0.000000 1.177628
v -0.097452 0.055000 0.377628
v 0.097452 0.055000 -0.377628
v 3.197452 0.055000 0.422372
v 3.002548 0.055000 1.177628
v 0.315368 0.000000 -0.261998
v -0.315368 0.000000 0.261998
v -3.015368 0.000000 -2.988002
v -2.384632 0.000000 -3.511998
v 0.315368 0.055000 -0.261998
v -0.315368 0.055000 0.261998
v -3.015368 0.055000 -2.988002
v -2.384632 0.055000 -3.511998
v 0.376849 0.000000 0.161507
v -0.376849 0.000000 -0.161507
v 1.273151 0.000000 -4.011507
v 2.026849 0.000000 -3.688493
v 0.376849 0.055000 0.161507
v -0.376849 0.055000 -0.161507
v 1.273151 0.055000 -4.011507
v 2.026849 0.055000 -3.688493
v -0.460000 0.000000 0.000000
v 0.460000 0.000000 0.000000
v 0.460000 0.000000 4.650000
v -0.460000 0.000000 4.650000
v -0.460000 0.055000 0.000000
v 0.460000 0.055000 0.000000
v 0.460000 0.055000 4.650000
v -0.460000 0.055000 4.650000
v -3.126750 0.000000 2.508844
v -3.073250 0.000000 1.891156
v 3.276750 0.000000 2.441156
v 3.223250 0.000000 3.058844
v -3.126750 0.055000 2.508844
v -3.073250 0.055000 1.891156
v 3.276750 0.055000 2.441156
v 3.223250 0.055000 3.058844
vt 0.000000 0.000000
vt 1.000000 0.000000
vt 1.000000 1.000000
vt 0.000000 1.000000
vt 0.000000 0.000000
vt 1.000000 0.000000
vt 1.000000 1.000000
vt 0.000000 1.000000
vt 0.000000 0.000000
vt 1.000000 0.000000
vt 1.000000 1.000000
vt 0.000000 1.000000
vt 0.000000 0.000000
vt 1.000000 0.000000
vt 1.000000 1.000000
vt 0.000000 1.000000
vt 0.000000 0.000000
vt 1.000000 0.000000
vt 1.000000 1.000000
vt 0.000000 1.000000
vt 0.000000 0.000000
vt 1.000000 0.000000
vt 1.000000 1.000000
vt 0.000000 1.000000
vt 0.000000 0.000000
vt 1.000000 0.000000
vt 1.000000 1.000000
vt 0.000000 1.000000
vt 0.000000 0.000000
vt 1.000000 0.000000
vt 1.000000 1.000000
vt 0.000000 1.000000
vt 0.000000 0.000000
vt 1.000000 0.000000
vt 1.000000 1.000000
vt 0.000000 1.000000
vt 0.000000 0.000000
vt 1.000000 0.000000
vt 1.000000 1.000000
vt 0.000000 1.000000
vt 0.000000 0.000000
vt 1.000000 0.000000
vt 1.000000 1.000000
vt 0.000000 1.000000
vt 0.000000 0.000000
vt 1.000000 0.000000
vt 1.000000 1.000000
vt 0.000000 1.000000
vt 0.000000 0.000000
vt 1.000000 0.000000
vt 1.000000 1.000000
vt 0.000000 1.000000
vt 0.000000 0.000000
vt 1.000000 0.000000
vt 1.000000 1.000000
vt 0.000000 1.000000
vt 0.000000 0.000000
vt 1.000000 0.000000
vt 1.000000 1.000000
vt 0.000000 1.000000
vt 0.000000 0.000000
vt 1.000000 0.000000
vt 1.000000 1.000000
vt 0.000000 1.000000
vt 0.000000 0.000000
vt 1.000000 0.000000
vt 1.000000 1.000000
vt 0.000000 1.000000
vt 0.000000 0.000000
vt 1.000000 0.000000
vt 1.000000 1.000000
vt 0.000000 1.000000
vt 0.000000 0.000000
vt 1.000000 0.000000
vt 1.000000 1.000000
vt 0.000000 1.000000
vt 0.000000 0.000000
vt 1.000000 0.000000
vt 1.000000 1.000000
vt 0.000000 1.000000
vt 0.000000 0.000000
vt 1.000000 0.000000
vt 1.000000 1.000000
vt 0.000000 1.000000
vt 0.000000 0.000000
vt 1.000000 0.000000
vt 1.000000 1.000000
vt 0.000000 1.000000
vt 0.000000 0.000000
vt 1.000000 0.000000
vt 1.000000 1.000000
vt 0.000000 1.000000
vt 0.000000 0.000000
vt 1.000000 0.000000
vt 1.000000 1.000000
vt 0.000000 1.000000
vt 0.000000 0.000000
vt 1.000000 0.000000
vt 1.000000 1.000000
vt 0.000000 1.000000
vt 0.000000 0.000000
vt 1.000000 0.000000
vt 1.000000 1.000000
vt 0.000000 1.000000
vt 0.000000 0.000000
vt 1.000000 0.000000
vt 1.000000 1.000000
vt 0.000000 1.000000
vt 0.000000 0.000000
vt 1.000000 0.000000
vt 1.000000 1.000000
vt 0.000000 1.000000
vt 0.000000 0.000000
vt 1.000000 0.000000
vt 1.000000 1.000000
vt 0.000000 1.000000
vt 0.000000 0.000000
vt 1.000000 0.000000
vt 1.000000 1.000000
vt 0.000000 1.000000
vt 0.000000 0.000000
vt 1.000000 0.000000
vt 1.000000 1.000000
vt 0.000000 1.000000
vt 0.000000 0.000000
vt 1.000000 0.000000
vt 1.000000 1.000000
vt 0.000000 1.000000
vt 0.000000 0.000000
vt 1.000000 0.000000
vt 1.000000 1.000000
vt 0.000000 1.000000
vt 0.000000 0.000000
vt 1.000000 0.000000
vt 1.000000 1.000000
vt 0.000000 1.000000
vt 0.000000 0.000000
vt 1.000000 0.000000
vt 1.000000 1.000000
vt 0.000000 1.000000
vt 0.000000 0.000000
vt 1.000000 0.000000
vt 1.000000 1.000000
vt 0.000000 1.000000
vt 0.000000 0.000000
vt 1.000000 0.000000
vt 1.000000 1.000000
vt 0.000000 1.000000
vt 0.000000 0.000000
vt 1.000000 0.000000
vt 1.000000 1.000000
vt 0.000000 1.000000
vt 0.000000 0.000000
vt 1.000000 0.000000
vt 1.000000 1.000000
vt 0.000000 1.000000
vt 0.000000 0.000000
vt 1.000000 0.000000
vt 1.000000 1.000000
vt 0.000000 1.000000
vt 0.000000 0.000000
vt 1.000000 0.000000
vt 1.000000 1.000000
vt 0.000000 1.000000
vt 0.000000 0.000000
vt 1.000000 0.000000
vt 1.000000 1.000000
vt 0.000000 1.000000
vt 0.000000 0.000000
vt 1.000000 0.000000
vt 1.000000 1.000000
vt 0.000000 1.000000
vt 0.000000 0.000000
vt 1.000000 0.000000
vt 1.000000 1.000000
vt 0.000000 1.000000
vt 0.000000 0.000000
vt 1.000000 0.000000
vt 1.000000 1.000000
vt 0.000000 1.000000
vt 0.000000 0.000000
vt 1.000000 0.000000
vt 1.000000 1.000000
vt 0.000000 1.000000
vt 0.000000 0.000000
vt 1.000000 0.000000
vt 1.000000 1.000000
vt 0.000000 1.000000
vt 0.000000 0.000000
vt 1.000000 0.000000
vt 1.000000 1.000000
vt 0.000000 1.000000
vt 0.000000 0.000000
vt 1.000000 0.000000
vt 1.000000 1.000000
vt 0.000000 1.000000
vt 0.000000 0.000000
vt 1.000000 0.000000
vt 1.000000 1.000000
vt 0.000000 1.000000
vt 0.000000 0.000000
vt 1.000000 0.000000
vt 1.000000 1.000000
vt 0.000000 1.000000
vt 0.000000 0.000000
vt 1.000000 0.000000
vt 1.000000 1.000000
vt 0.000000 1.000000
vt 0.000000 0.000000
vt 1.000000 0.000000
vt 1.000000 1.000000
vt 0.000000 1.000000
vt 0.000000 0.000000
vt 1.000000 0.000000
vt 1.000000 1.000000
vt 0.000000 1.000000
vt 0.000000 0.000000
vt 1.000000 0.000000
vt 1.000000 1.000000
vt 0.000000 1.000000
vt 0.000000 0.000000
vt 1.000000 0.000000
vt 1.000000 1.000000
vt 0.000000 1.000000
vt 0.000000 0.000000
vt 1.000000 0.000000
vt 1.000000 1.000000
vt 0.000000 1.000000
vt 0.000000 0.000000
vt 1.000000 0.000000
vt 1.000000 1.000000
vt 0.000000 1.000000
vt 0.000000 0.000000
vt 1.000000 0.000000
vt 1.000000 1.000000
vt 0.000000 1.000000
vt 0.000000 0.000000
vt 1.000000 0.000000
vt 1.000000 1.000000
vt 0.000000 1.000000
vt 0.000000 0.000000
vt 1.000000 0.000000
vt 1.000000 1.000000
vt 0.000000 1.000000
vt 0.000000 0.000000
vt 1.000000 0.000000
vt 1.000000 1.000000
vt 0.000000 1.000000
vt 0.000000 0.000000
vt 1.000000 0.000000
vt 1.000000 1.000000
vt 0.000000 1.000000
vt 0.000000 0.000000
vt 1.000000 0.000000
vt 1.000000 1.000000
vt 0.000000 1.000000
vt 0.000000 0.000000
vt 1.000000 0.000000
vt 1.000000 1.000000
vt 0.000000 1.000000
vt 0.000000 0.000000
vt 1.000000 0.000000
vt 1.000000 1.000000
vt 0.000000 1.000000
vt 0.000000 0.000000
vt 1.000000 0.000000
vt 1.000000 1.000000
vt 0.000000 1.000000
vt 0.000000 0.000000
vt 1.000000 0.000000
vt 1.000000 1.000000
vt 0.000000 1.000000
vt 0.000000 0.000000
vt 1.000000 0.000000
vt 1.000000 1.000000
vt 0.000000 1.000000
vt 0.000000 0.000000
vt 1.000000 0.000000
vt 1.000000 1.000000
vt 0.000000 1.000000
vt 0.000000 0.000000
vt 1.000000 0.000000
vt 1.000000 1.000000
vt 0.000000 1.000000
vt 0.000000 0.000000
vt 1.000000 0.000000
vt 1.000000 1.000000
vt 0.000000 1.000000
vt 0.000000 0.000000
vt 1.000000 0.000000
vt 1.000000 1.000000
vt 0.000000 1.000000
vt 0.000000 0.000000
vt 1.000000 0.000000
vt 1.000000 1.000000
vt 0.000000 1.000000
vt 0.000000 0.000000
vt 1.000000 0.000000
vt 1.000000 1.000000
vt 0.000000 1.000000
vt 0.000000 0.000000
vt 1.000000 0.000000
vt 1.000000 1.000000
vt 0.000000 1.000000
vt 0.000000 0.000000
vt 1.000000 0.000000
vt 1.000000 1.000000
vt 0.000000 1.000000
vt 0.000000 0.000000
vt 1.000000 0.000000
vt 1.000000 1.000000
vt 0.000000 1.000000
vt 0.000000 0.000000
vt 1.000000 0.000000
vt 1.000000 1.000000
vt 0.000000 1.000000
vt 0.000000 0.000000
vt 1.000000 0.000000
vt 1.000000 1.000000
vt 0.000000 1.000000
vt 0.000000 0.000000
vt 1.000000 0.000000
vt 1.000000 1.000000
vt 0.000000 1.000000
vt 0.000000 0.000000
vt 1.000000 0.000000
vt 1.000000 1.000000
vt 0.000000 1.000000
vt 0.000000 0.000000
vt 1.000000 0.000000
vt 1.000000 1.000000
vt 0.000000 1.000000
vt 0.000000 0.000000
vt 1.000000 0.000000
vt 1.000000 1.000000
vt 0.000000 1.000000
vt 0.000000 0.000000
vt 1.000000 0.000000
vt 1.000000 1.000000
vt 0.000000 1.000000
vt 0.000000 0.000000
vt 1.000000 0.000000
vt 1.000000 1.000000
vt 0.000000 1.000000
vt 0.000000 0.000000
vt 1.000000 0.000000
vt 1.000000 1.000000
vt 0.000000 1.000000
vt 0.000000 0.000000
vt 1.000000 0.000000
vt 1.000000 1.000000
vt 0.000000 1.000000
vt 0.000000 0.000000
vt 1.000000 0.000000
vt 1.000000 1.000000
vt 0.000000 1.000000
vt 0.000000 0.000000
vt 1.000000 0.000000
vt 1.000000 1.000000
vt 0.000000 1.000000
vt 0.000000 0.000000
vt 1.000000 0.000000
vt 1.000000 1.000000
vt 0.000000 1.000000
vt 0.000000 0.000000
vt 1.000000 0.000000
vt 1.000000 1.000000
vt 0.000000 1.000000
vt 0.000000 0.000000
vt 1.000000 0.000000
vt 1.000000 1.000000
vt 0.000000 1.000000
vt 0.000000 0.000000
vt 1.000000 0.000000
vt 1.000000 1.000000
vt 0.000000 1.000000
vt 0.000000 0.000000
vt 1.000000 0.000000
vt 1.000000 1.000000
vt 0.000000 1.000000
vt 0.000000 0.000000
vt 1.000000 0.000000
vt 1.000000 1.000000
vt 0.000000 1.000000
vt 0.000000 0.000000
vt 1.000000 0.000000
vt 1.000000 1.000000
vt 0.000000 1.000000
vt 0.000000 0.000000
vt 1.000000 0.000000
vt 1.000000 1.000000
vt 0.000000 1.000000
vt 0.000000 0.000000
vt 1.000000 0.000000
vt 1.000000 1.000000
vt 0.000000 1.000000
vt 0.000000 0.000000
vt 1.000000 0.000000
vt 1.000000 1.000000
vt 0.000000 1.000000
vt 0.000000 0.000000
vt 1.000000 0.000000
vt 1.000000 1.000000
vt 0.000000 1.000000
vt 0.000000 0.000000
vt 1.000000 0.000000
vt 1.000000 1.000000
vt 0.000000 1.000000
vt 0.000000 0.000000
vt 1.000000 0.000000
vt 1.000000 1.000000
vt 0.000000 1.000000
vt 0.000000 0.000000
vt 1.000000 0.000000
vt 1.000000 1.000000
vt 0.000000 1.000000
vt 0.000000 0.000000
vt 1.000000 0.000000
vt 1.000000 1.000000
vt 0.000000 1.000000
vt 0.000000 0.000000
vt 1.000000 0.000000
vt 1.000000 1.000000
vt 0.000000 1.000000
vt 0.000000 0.000000
vt 1.000000 0.000000
vt 1.000000 1.000000
vt 0.000000 1.000000
vt 0.000000 0.000000
vt 1.000000 0.000000
vt 1.000000 1.000000
vt 0.000000 1.000000
vt 0.000000 0.000000
vt 1.000000 0.000000
vt 1.000000 1.000000
vt 0.000000 1.000000
vt 0.000000 0.000000
vt 1.000000 0.000000
vt 1.000000 1.000000
vt 0.000000 1.000000
vt 0.000000 0.000000
vt 1.000000 0.000000
vt 1.000000 1.000000
vt 0.000000 1.000000
vt 0.000000 0.000000
vt 1.000000 0.000000
vt 1.000000 1.000000
vt 0.000000 1.000000
vt 0.000000 0.000000
vt 1.000000 0.000000
vt 1.000000 1.000000
vt 0.000000 1.000000
vt 0.000000 0.000000
vt 1.000000 0.000000
vt 1.000000 1.000000
vt 0.000000 1.000000
vt 0.000000 0.000000
vt 1.000000 0.000000
vt 1.000000 1.000000
vt 0.000000 1.000000
vt 0.000000 0.000000
vt 1.000000 0.000000
vt 1.000000 1.000000
vt 0.000000 1.000000
vt 0.000000 0.000000
vt 1.000000 0.000000
vt 1.000000 1.000000
vt 0.000000 1.000000
vt 0.000000 0.000000
vt 1.000000 0.000000
vt 1.000000 1.000000
vt 0.000000 1.000000
vt 0.000000 0.000000
vt 1.000000 0.000000
vt 1.000000 1.000000
vt 0.000000 1.000000
vt 0.000000 0.000000
vt 1.000000 0.000000
vt 1.000000 1.000000
vt 0.000000 1.000000
vt 0.000000 0.000000
vt 1.000000 0.000000
vt 1.000000 1.000000
vt 0.000000 1.000000
vt 0.000000 0.000000
vt 1.000000 0.000000
vt 1.000000 1.000000
vt 0.000000 1.000000
vt 0.000000 0.000000
vt 1.000000 0.000000
vt 1.000000 1.000000
vt 0.000000 1.000000
vt 0.000000 0.000000
vt 1.000000 0.000000
vt 1.000000 1.000000
vt 0.000000 1.000000
vt 0.000000 0.000000
vt 1.000000 0.000000
vt 1.000000 1.000000
vt 0.000000 1.000000
vt 0.000000 0.000000
vt 1.000000 0.000000
vt 1.000000 1.000000
vt 0.000000 1.000000
vt 0.000000 0.000000
vt 1.000000 0.000000
vt 1.000000 1.000000
vt 0.000000 1.000000
vt 0.000000 0.000000
vt 1.000000 0.000000
vt 1.000000 1.000000
vt 0.000000 1.000000
vt 0.000000 0.000000
vt 1.000000 0.000000
vt 1.000000 1.000000
vt 0.000000 1.000000
vt 0.000000 0.000000
vt 1.000000 0.000000
vt 1.000000 1.000000
vt 0.000000 1.000000
vt 0.000000 0.000000
vt 1.000000 0.000000
vt 1.000000 1.000000
vt 0.000000 1.000000
vt 0.000000 0.000000
vt 1.000000 0.000000
vt 1.000000 1.000000
vt 0.000000 1.000000
vt 0.000000 0.000000
vt 1.000000 0.000000
vt 1.000000 1.000000
vt 0.000000 1.000000
vt 0.000000 0.000000
vt 1.000000 0.000000
vt 1.000000 1.000000
vt 0.000000 1.000000
vt 0.000000 0.000000
vt 1.000000 0.000000
vt 1.000000 1.000000
vt 0.000000 1.000000
vt 0.000000 0.000000
vt 1.000000 0.000000
vt 1.000000 1.000000
vt 0.000000 1.000000
vt 0.000000 0.000000
vt 1.000000 0.000000
vt 1.000000 1.000000
vt 0.000000 1.000000
vt 0.000000 0.000000
vt 1.000000 0.000000
vt 1.000000 1.000000
vt 0.000000 1.000000
vt 1.000000 0.500000
vt 0.969846 0.671010
vt 0.883022 0.821394
vt 0.750000 0.933013
vt 0.586824 0.992404
vt 0.413176 0.992404
vt 0.250000 0.933013
vt 0.116978 0.821394
vt 0.030154 0.671010
vt 0.000000 0.500000
vt 0.030154 0.328990
vt 0.116978 0.178606
vt 0.250000 0.066987
vt 0.413176 0.007596
vt 0.586824 0.007596
vt 0.750000 0.066987
vt 0.883022 0.178606
vt 0.969846 0.328990
vt 1.000000 0.500000
vt 0.969846 0.671010
vt 0.883022 0.821394
vt 0.750000 0.933013
vt 0.586824 0.992404
vt 0.413176 0.992404
vt 0.250000 0.933013
vt 0.116978 0.821394
vt 0.030154 0.671010
vt 0.000000 0.500000
vt 0.030154 0.328990
vt 0.116978 0.178606
vt 0.250000 0.066987
vt 0.413176 0.007596
vt 0.586824 0.007596
vt 0.750000 0.066987
vt 0.883022 0.178606
vt 0.969846 0.328990
vt 0.000000 0.000000
vt 1.000000 0.000000
vt 1.000000 1.000000
vt 0.000000 1.000000
vt 0.000000 0.000000
vt 1.000000 0.000000
vt 1.000000 1.000000
vt 0.000000 1.000000
vt 0.000000 0.000000
vt 1.000000 0.000000
vt 1.000000 1.000000
vt 0.000000 1.000000
vt 0.000000 0.000000
vt 1.000000 0.000000
vt 1.000000 1.000000
vt 0.000000 1.000000
vt 0.000000 0.000000
vt 1.000000 0.000000
vt 1.000000 1.000000
vt 0.000000 1.000000
vt 0.000000 0.000000
vt 1.000000 0.000000
vt 1.000000 1.000000
vt 0.000000 1.000000
vt 0.000000 0.000000
vt 1.000000 0.000000
vt 1.000000 1.000000
vt 0.000000 1.000000
vt 0.000000 0.000000
vt 1.000000 0.000000
vt 1.000000 1.000000
vt 0.000000 1.000000
vt 0.000000 0.000000
vt 1.000000 0.000000
vt 1.000000 1.000000
vt 0.000000 1.000000
vt 0.000000 0.000000
vt 1.000000 0.000000
vt 1.000000 1.000000
vt 0.000000 1.000000
vt 0.000000 0.000000
vt 1.000000 0.000000
vt 1.000000 1.000000
vt 0.000000 1.000000
vt 0.000000 0.000000
vt 1.000000 0.000000
vt 1.000000 1.000000
vt 0.000000 1.000000
vt 0.000000 0.000000
vt 1.000000 0.000000
vt 1.000000 1.000000
vt 0.000000 1.000000
vt 0.000000 0.000000
vt 1.000000 0.000000
vt 1.000000 1.000000
vt 0.000000 1.000000
vt 0.000000 0.000000
vt 1.000000 0.000000
vt 1.000000 1.000000
vt 0.000000 1.000000
vt 0.000000 0.000000
vt 1.000000 0.000000
vt 1.000000 1.000000
vt 0.000000 1.000000
vt 0.000000 0.000000
vt 1.000000 0.000000
vt 1.000000 1.000000
vt 0.000000 1.000000
vt 0.000000 0.000000
vt 1.000000 0.000000
vt 1.000000 1.000000
vt 0.000000 1.000000
vt 1.000000 0.500000
vt 0.969846 0.671010
vt 0.883022 0.821394
vt 0.750000 0.933013
vt 0.586824 0.992404
vt 0.413176 0.992404
vt 0.250000 0.933013
vt 0.116978 0.821394
vt 0.030154 0.671010
vt 0.000000 0.500000
vt 0.030154 0.328990
vt 0.116978 0.178606
vt 0.250000 0.066987
vt 0.413176 0.007596
vt 0.586824 0.007596
vt 0.750000 0.066987
vt 0.883022 0.178606
vt 0.969846 0.328990
vt 1.000000 0.500000
vt 0.969846 0.671010
vt 0.883022 0.821394
vt 0.750000 0.933013
vt 0.586824 0.992404
vt 0.413176 0.992404
vt 0.250000 0.933013
vt 0.116978 0.821394
vt 0.030154 0.671010
vt 0.000000 0.500000
vt 0.030154 0.328990
vt 0.116978 0.178606
vt 0.250000 0.066987
vt 0.413176 0.007596
vt 0.586824 0.007596
vt 0.750000 0.066987
vt 0.883022 0.178606
vt 0.969846 0.328990
vt 0.000000 0.000000
vt 1.000000 0.000000
vt 1.000000 1.000000
vt 0.000000 1.000000
vt 0.000000 0.000000
vt 1.000000 0.000000
vt 1.000000 1.000000
vt 0.000000 1.000000
vt 0.000000 0.000000
vt 1.000000 0.000000
vt 1.000000 1.000000
vt 0.000000 1.000000
vt 0.000000 0.000000
vt 1.000000 0.000000
vt 1.000000 1.000000
vt 0.000000 1.000000
vt 0.000000 0.000000
vt 1.000000 0.000000
vt 1.000000 1.000000
vt 0.000000 1.000000
vt 0.000000 0.000000
vt 1.000000 0.000000
vt 1.000000 1.000000
vt 0.000000 1.000000
vt 0.000000 0.000000
vt 1.000000 0.000000
vt 1.000000 1.000000
vt 0.000000 1.000000
vt 0.000000 0.000000
vt 1.000000 0.000000
vt 1.000000 1.000000
vt 0.000000 1.000000
vt 0.000000 0.000000
vt 1.000000 0.000000
vt 1.000000 1.000000
vt 0.000000 1.000000
vt 0.000000 0.000000
vt 1.000000 0.000000
vt 1.000000 1.000000
vt 0.000000 1.000000
vt 0.000000 0.000000
vt 1.000000 0.000000
vt 1.000000 1.000000
vt 0.000000 1.000000
vt 0.000000 0.000000
vt 1.000000 0.000000
vt 1.000000 1.000000
vt 0.000000 1.000000
vt 0.000000 0.000000
vt 1.000000 0.000000
vt 1.000000 1.000000
vt 0.000000 1.000000
vt 0.000000 0.000000
vt 1.000000 0.000000
vt 1.000000 1.000000
vt 0.000000 1.000000
vt 0.000000 0.000000
vt 1.000000 0.000000
vt 1.000000 1.000000
vt 0.000000 1.000000
vt 0.000000 0.000000
vt 1.000000 0.000000
vt 1.000000 1.000000
vt 0.000000 1.000000
vt 0.000000 0.000000
vt 1.000000 0.000000
vt 1.000000 1.000000
vt 0.000000 1.000000
vt 0.000000 0.000000
vt 1.000000 0.000000
vt 1.000000 1.000000
vt 0.000000 1.000000
vt 1.000000 0.500000
vt 0.969846 0.671010
vt 0.883022 0.821394
vt 0.750000 0.933013
vt 0.586824 0.992404
vt 0.413176 0.992404
vt 0.250000 0.933013
vt 0.116978 0.821394
vt 0.030154 0.671010
vt 0.000000 0.500000
vt 0.030154 0.328990
vt 0.116978 0.178606
vt 0.250000 0.066987
vt 0.413176 0.007596
vt 0.586824 0.007596
vt 0.750000 0.066987
vt 0.883022 0.178606
vt 0.969846 0.328990
vt 1.000000 0.500000
vt 0.969846 0.671010
vt 0.883022 0.821394
vt 0.750000 0.933013
vt 0.586824 0.992404
vt 0.413176 0.992404
vt 0.250000 0.933013
vt 0.116978 0.821394
vt 0.030154 0.671010
vt 0.000000 0.500000
vt 0.030154 0.328990
vt 0.116978 0.178606
vt 0.250000 0.066987
vt 0.413176 0.007596
vt 0.586824 0.007596
vt 0.750000 0.066987
vt 0.883022 0.178606
vt 0.969846 0.328990
vt 0.000000 0.000000
vt 1.000000 0.000000
vt 1.000000 1.000000
vt 0.000000 1.000000
vt 0.000000 0.000000
vt 1.000000 0.000000
vt 1.000000 1.000000
vt 0.000000 1.000000
vt 0.000000 0.000000
vt 1.000000 0.000000
vt 1.000000 1.000000
vt 0.000000 1.000000
vt 0.000000 0.000000
vt 1.000000 0.000000
vt 1.000000 1.000000
vt 0.000000 1.000000
vt 0.000000 0.000000
vt 1.000000 0.000000
vt 1.000000 1.000000
vt 0.000000 1.000000
vt 0.000000 0.000000
vt 1.000000 0.000000
vt 1.000000 1.000000
vt 0.000000 1.000000
vt 0.000000 0.000000
vt 1.000000 0.000000
vt 1.000000 1.000000
vt 0.000000 1.000000
vt 0.000000 0.000000
vt 1.000000 0.000000
vt 1.000000 1.000000
vt 0.000000 1.000000
vt 0.000000 0.000000
vt 1.000000 0.000000
vt 1.000000 1.000000
vt 0.000000 1.000000
vt 0.000000 0.000000
vt 1.000000 0.000000
vt 1.000000 1.000000
vt 0.000000 1.000000
vt 0.000000 0.000000
vt 1.000000 0.000000
vt 1.000000 1.000000
vt 0.000000 1.000000
vt 0.000000 0.000000
vt 1.000000 0.000000
vt 1.000000 1.000000
vt 0.000000 1.000000
vt 0.000000 0.000000
vt 1.000000 0.000000
vt 1.000000 1.000000
vt 0.000000 1.000000
vt 0.000000 0.000000
vt 1.000000 0.000000
vt 1.000000 1.000000
vt 0.000000 1.000000
vt 0.000000 0.000000
vt 1.000000 0.000000
vt 1.000000 1.000000
vt 0.000000 1.000000
vt 0.000000 0.000000
vt 1.000000 0.000000
vt 1.000000 1.000000
vt 0.000000 1.000000
vt 0.000000 0.000000
vt 1.000000 0.000000
vt 1.000000 1.000000
vt 0.000000 1.000000
vt 0.000000 0.000000
vt 1.000000 0.000000
vt 1.000000 1.000000
vt 0.000000 1.000000
vt 1.000000 0.500000
vt 0.969846 0.671010
vt 0.883022 0.821394
vt 0.750000 0.933013
vt 0.586824 0.992404
vt 0.413176 0.992404
vt 0.250000 0.933013
vt 0.116978 0.821394
vt 0.030154 0.671010
vt 0.000000 0.500000
vt 0.030154 0.328990
vt 0.116978 0.178606
vt 0.250000 0.066987
vt 0.413176 0.007596
vt 0.586824 0.007596
vt 0.750000 0.066987
vt 0.883022 0.178606
vt 0.969846 0.328990
vt 1.000000 0.500000
vt 0.969846 0.671010
vt 0.883022 0.821394
vt 0.750000 0.933013
vt 0.586824 0.992404
vt 0.413176 0.992404
vt 0.250000 0.933013
vt 0.116978 0.821394
vt 0.030154 0.671010
vt 0.000000 0.500000
vt 0.030154 0.328990
vt 0.116978 0.178606
vt 0.250000 0.066987
vt 0.413176 0.007596
vt 0.586824 0.007596
vt 0.750000 0.066987
vt 0.883022 0.178606
vt 0.969846 0.328990
vt 0.000000 0.000000
vt 1.000000 0.000000
vt 1.000000 1.000000
vt 0.000000 1.000000
vt 0.000000 0.000000
vt 1.000000 0.000000
vt 1.000000 1.000000
vt 0.000000 1.000000
vt 0.000000 0.000000
vt 1.000000 0.000000
vt 1.000000 1.000000
vt 0.000000 1.000000
vt 0.000000 0.000000
vt 1.000000 0.000000
vt 1.000000 1.000000
vt 0.000000 1.000000
vt 0.000000 0.000000
vt 1.000000 0.000000
vt 1.000000 1.000000
vt 0.000000 1.000000
vt 0.000000 0.000000
vt 1.000000 0.000000
vt 1.000000 1.000000
vt 0.000000 1.000000
vt 0.000000 0.000000
vt 1.000000 0.000000
vt 1.000000 1.000000
vt 0.000000 1.000000
vt 0.000000 0.000000
vt 1.000000 0.000000
vt 1.000000 1.000000
vt 0.000000 1.000000
vt 0.000000 0.000000
vt 1.000000 0.000000
vt 1.000000 1.000000
vt 0.000000 1.000000
vt 0.000000 0.000000
vt 1.000000 0.000000
vt 1.000000 1.000000
vt 0.000000 1.000000
vt 0.000000 0.000000
vt 1.000000 0.000000
vt 1.000000 1.000000
vt 0.000000 1.000000
vt 0.000000 0.000000
vt 1.000000 0.000000
vt 1.000000 1.000000
vt 0.000000 1.000000
vt 0.000000 0.000000
vt 1.000000 0.000000
vt 1.000000 1.000000
vt 0.000000 1.000000
vt 0.000000 0.000000
vt 1.000000 0.000000
vt 1.000000 1.000000
vt 0.000000 1.000000
vt 0.000000 0.000000
vt 1.000000 0.000000
vt 1.000000 1.000000
vt 0.000000 1.000000
vt 0.000000 0.000000
vt 1.000000 0.000000
vt 1.000000 1.000000
vt 0.000000 1.000000
vt 0.000000 0.000000
vt 1.000000 0.000000
vt 1.000000 1.000000
vt 0.000000 1.000000
vt 0.000000 0.000000
vt 1.000000 0.000000
vt 1.000000 1.000000
vt 0.000000 1.000000
vt 1.000000 0.500000
vt 0.969846 0.671010
vt 0.883022 0.821394
vt 0.750000 0.933013
vt 0.586824 0.992404
vt 0.413176 0.992404
vt 0.250000 0.933013
vt 0.116978 0.821394
vt 0.030154 0.671010
vt 0.000000 0.500000
vt 0.030154 0.328990
vt 0.116978 0.178606
vt 0.250000 0.066987
vt 0.413176 0.007596
vt 0.586824 0.007596
vt 0.750000 0.066987
vt 0.883022 0.178606
vt 0.969846 0.328990
vt 1.000000 0.500000
vt 0.969846 0.671010
vt 0.883022 0.821394
vt 0.750000 0.933013
vt 0.586824 0.992404
vt 0.413176 0.992404
vt 0.250000 0.933013
vt 0.116978 0.821394
vt 0.030154 0.671010
vt 0.000000 0.500000
vt 0.030154 0.328990
vt 0.116978 0.178606
vt 0.250000 0.066987
vt 0.413176 0.007596
vt 0.586824 0.007596
vt 0.750000 0.066987
vt 0.883022 0.178606
vt 0.969846 0.328990
vt 0.000000 0.000000
vt 1.000000 0.000000
vt 1.000000 1.000000
vt 0.000000 1.000000
vt 0.000000 0.000000
vt 1.000000 0.000000
vt 1.000000 1.000000
vt 0.000000 1.000000
vt 0.000000 0.000000
vt 1.000000 0.000000
vt 1.000000 1.000000
vt 0.000000 1.000000
vt 0.000000 0.000000
vt 1.000000 0.000000
vt 1.000000 1.000000
vt 0.000000 1.000000
vt 0.000000 0.000000
vt 1.000000 0.000000
vt 1.000000 1.000000
vt 0.000000 1.000000
vt 0.000000 0.000000
vt 1.000000 0.000000
vt 1.000000 1.000000
vt 0.000000 1.000000
vt 0.000000 0.000000
vt 1.000000 0.000000
vt 1.000000 1.000000
vt 0.000000 1.000000
vt 0.000000 0.000000
vt 1.000000 0.000000
vt 1.000000 1.000000
vt 0.000000 1.000000
vt 0.000000 0.000000
vt 1.000000 0.000000
vt 1.000000 1.000000
vt 0.000000 1.000000
vt 0.000000 0.000000
vt 1.000000 0.000000
vt 1.000000 1.000000
vt 0.000000 1.000000
vt 0.000000 0.000000
vt 1.000000 0.000000
vt 1.000000 1.000000
vt 0.000000 1.000000
vt 0.000000 0.000000
vt 1.000000 0.000000
vt 1.000000 1.000000
vt 0.000000 1.000000
vt 0.000000 0.000000
vt 1.000000 0.000000
vt 1.000000 1.000000
vt 0.000000 1.000000
vt 0.000000 0.000000
vt 1.000000 0.000000
vt 1.000000 1.000000
vt 0.000000 1.000000
vt 0.000000 0.000000
vt 1.000000 0.000000
vt 1.000000 1.000000
vt 0.000000 1.000000
vt 0.000000 0.000000
vt 1.000000 0.000000
vt 1.000000 1.000000
vt 0.000000 1.000000
vt 0.000000 0.000000
vt 1.000000 0.000000
vt 1.000000 1.000000
vt 0.000000 1.000000
vt 0.000000 0.000000
vt 1.000000 0.000000
vt 1.000000 1.000000
vt 0.000000 1.000000
vt 1.000000 0.500000
vt 0.969846 0.671010
vt 0.883022 0.821394
vt 0.750000 0.933013
vt 0.586824 0.992404
vt 0.413176 0.992404
vt 0.250000 0.933013
vt 0.116978 0.821394
vt 0.030154 0.671010
vt 0.000000 0.500000
vt 0.030154 0.328990
vt 0.116978 0.178606
vt 0.250000 0.066987
vt 0.413176 0.007596
vt 0.586824 0.007596
vt 0.750000 0.066987
vt 0.883022 0.178606
vt 0.969846 0.328990
vt 1.000000 0.500000
vt 0.969846 0.671010
vt 0.883022 0.821394
vt 0.750000 0.933013
vt 0.586824 0.992404
vt 0.413176 0.992404
vt 0.250000 0.933013
vt 0.116978 0.821394
vt 0.030154 0.671010
vt 0.000000 0.500000
vt 0.030154 0.328990
vt 0.116978 0.178606
vt 0.250000 0.066987
vt 0.413176 0.007596
vt 0.586824 0.007596
vt 0.750000 0.066987
vt 0.883022 0.178606
vt 0.969846 0.328990
vt 0.000000 0.000000
vt 1.000000 0.000000
vt 1.000000 1.000000
vt 0.000000 1.000000
vt 0.000000 0.000000
vt 1.000000 0.000000
vt 1.000000 1.000000
vt 0.000000 1.000000
vt 0.000000 0.000000
vt 1.000000 0.000000
vt 1.000000 1.000000
vt 0.000000 1.000000
vt 0.000000 0.000000
vt 1.000000 0.000000
vt 1.000000 1.000000
vt 0.000000 1.000000
vt 0.000000 0.000000
vt 1.000000 0.000000
vt 1.000000 1.000000
vt 0.000000 1.000000
vt 0.000000 0.000000
vt 1.000000 0.000000
vt 1.000000 1.000000
vt 0.000000 1.000000
vt 0.000000 0.000000
vt 1.000000 0.000000
vt 1.000000 1.000000
vt 0.000000 1.000000
vt 0.000000 0.000000
vt 1.000000 0.000000
vt 1.000000 1.000000
vt 0.000000 1.000000
vt 0.000000 0.000000
vt 1.000000 0.000000
vt 1.000000 1.000000
vt 0.000000 1.000000
vt 0.000000 0.000000
vt 1.000000 0.000000
vt 1.000000 1.000000
vt 0.000000 1.000000
vt 0.000000 0.000000
vt 1.000000 0.000000
vt 1.000000 1.000000
vt 0.000000 1.000000
vt 0.000000 0.000000
vt 1.000000 0.000000
vt 1.000000 1.000000
vt 0.000000 1.000000
vt 0.000000 0.000000
vt 1.000000 0.000000
vt 1.000000 1.000000
vt 0.000000 1.000000
vt 0.000000 0.000000
vt 1.000000 0.000000
vt 1.000000 1.000000
vt 0.000000 1.000000
vt 0.000000 0.000000
vt 1.000000 0.000000
vt 1.000000 1.000000
vt 0.000000 1.000000
vt 0.000000 0.000000
vt 1.000000 0.000000
vt 1.000000 1.000000
vt 0.000000 1.000000
vt 0.000000 0.000000
vt 1.000000 0.000000
vt 1.000000 1.000000
vt 0.000000 1.000000
vt 0.000000 0.000000
vt 1.000000 0.000000
vt 1.000000 1.000000
vt 0.000000 1.000000
vt 0.000000 0.000000
vt 1.000000 0.000000
vt 1.000000 1.000000
vt 0.000000 1.000000
vt 0.000000 0.000000
vt 1.000000 0.000000
vt 1.000000 1.000000
vt 0.000000 1.000000
vt 0.000000 0.000000
vt 1.000000 0.000000
vt 1.000000 1.000000
vt 0.000000 1.000000
vt 0.000000 0.000000
vt 1.000000 0.000000
vt 1.000000 1.000000
vt 0.000000 1.000000
vt 0.000000 0.000000
vt 1.000000 0.000000
vt 1.000000 1.000000
vt 0.000000 1.000000
vt 0.000000 0.000000
vt 1.000000 0.000000
vt 1.000000 1.000000
vt 0.000000 1.000000
vt 0.000000 0.000000
vt 1.000000 0.000000
vt 1.000000 1.000000
vt 0.000000 1.000000
vt 0.000000 0.000000
vt 1.000000 0.000000
vt 1.000000 1.000000
vt 0.000000 1.000000
vt 0.000000 0.000000
vt 1.000000 0.000000
vt 1.000000 1.000000
vt 0.000000 1.000000
vt 0.000000 0.000000
vt 1.000000 0.000000
vt 1.000000 1.000000
vt 0.000000 1.000000
vt 0.000000 0.000000
vt 1.000000 0.000000
vt 1.000000 1.000000
vt 0.000000 1.000000
vt 0.000000 0.000000
vt 1.000000 0.000000
vt 1.000000 1.000000
vt 0.000000 1.000000
vt 0.000000 0.000000
vt 1.000000 0.000000
vt 1.000000 1.000000
vt 0.000000 1.000000
vt 0.000000 0.000000
vt 1.000000 0.000000
vt 1.000000 1.000000
vt 0.000000 1.000000
vt 0.000000 0.000000
vt 1.000000 0.000000
vt 1.000000 1.000000
vt 0.000000 1.000000
vt 0.000000 0.000000
vt 1.000000 0.000000
vt 1.000000 1.000000
vt 0.000000 1.000000
vt 0.000000 0.000000
vt 1.000000 0.000000
vt 1.000000 1.000000
vt 0.000000 1.000000
vt 0.000000 0.000000
vt 1.000000 0.000000
vt 1.000000 1.000000
vt 0.000000 1.000000
vt 0.000000 0.000000
vt 1.000000 0.000000
vt 1.000000 1.000000
vt 0.000000 1.000000
vt 0.000000 0.000000
vt 1.000000 0.000000
vt 1.000000 1.000000
vt 0.000000 1.000000
vt 0.000000 0.000000
vt 1.000000 0.000000
vt 1.000000 1.000000
vt 0.000000 1.000000
vt 0.000000 0.000000
vt 1.000000 0.000000
vt 1.000000 1.000000
vt 0.000000 1.000000
vt 0.000000 0.000000
vt 1.000000 0.000000
vt 1.000000 1.000000
vt 0.000000 1.000000
vt 0.000000 0.000000
vt 1.000000 0.000000
vt 1.000000 1.000000
vt 0.000000 1.000000
o BroadDryCampGround
usemtl MAT_DRY_SAND
f 1/1 2/2 15/3 14/4
f 2/5 3/6 16/7 15/8
f 3/9 4/10 17/11 16/12
f 4/13 5/14 18/15 17/16
f 5/17 6/18 19/19 18/20
f 6/21 7/22 20/23 19/24
f 7/25 8/26 21/27 20/28
f 8/29 9/30 22/31 21/32
f 9/33 10/34 23/35 22/36
f 10/37 11/38 24/39 23/40
f 11/41 12/42 25/43 24/44
f 12/45 13/46 26/47 25/48
f 14/49 15/50 28/51 27/52
f 15/53 16/54 29/55 28/56
f 16/57 17/58 30/59 29/60
f 17/61 18/62 31/63 30/64
f 18/65 19/66 32/67 31/68
f 19/69 20/70 33/71 32/72
f 20/73 21/74 34/75 33/76
f 21/77 22/78 35/79 34/80
f 22/81 23/82 36/83 35/84
f 23/85 24/86 37/87 36/88
f 24/89 25/90 38/91 37/92
f 25/93 26/94 39/95 38/96
f 27/97 28/98 41/99 40/100
f 28/101 29/102 42/103 41/104
f 29/105 30/106 43/107 42/108
f 30/109 31/110 44/111 43/112
f 31/113 32/114 45/115 44/116
f 32/117 33/118 46/119 45/120
f 33/121 34/122 47/123 46/124
f 34/125 35/126 48/127 47/128
f 35/129 36/130 49/131 48/132
f 36/133 37/134 50/135 49/136
f 37/137 38/138 51/139 50/140
f 38/141 39/142 52/143 51/144
f 40/145 41/146 54/147 53/148
f 41/149 42/150 55/151 54/152
f 42/153 43/154 56/155 55/156
f 43/157 44/158 57/159 56/160
f 44/161 45/162 58/163 57/164
f 45/165 46/166 59/167 58/168
f 46/169 47/170 60/171 59/172
f 47/173 48/174 61/175 60/176
f 48/177 49/178 62/179 61/180
f 49/181 50/182 63/183 62/184
f 50/185 51/186 64/187 63/188
f 51/189 52/190 65/191 64/192
f 53/193 54/194 67/195 66/196
f 54/197 55/198 68/199 67/200
f 55/201 56/202 69/203 68/204
f 56/205 57/206 70/207 69/208
f 57/209 58/210 71/211 70/212
f 58/213 59/214 72/215 71/216
f 59/217 60/218 73/219 72/220
f 60/221 61/222 74/223 73/224
f 61/225 62/226 75/227 74/228
f 62/229 63/230 76/231 75/232
f 63/233 64/234 77/235 76/236
f 64/237 65/238 78/239 77/240
f 66/241 67/242 80/243 79/244
f 67/245 68/246 81/247 80/248
f 68/249 69/250 82/251 81/252
f 69/253 70/254 83/255 82/256
f 70/257 71/258 84/259 83/260
f 71/261 72/262 85/263 84/264
f 72/265 73/266 86/267 85/268
f 73/269 74/270 87/271 86/272
f 74/273 75/274 88/275 87/276
f 75/277 76/278 89/279 88/280
f 76/281 77/282 90/283 89/284
f 77/285 78/286 91/287 90/288
f 79/289 80/290 93/291 92/292
f 80/293 81/294 94/295 93/296
f 81/297 82/298 95/299 94/300
f 82/301 83/302 96/303 95/304
f 83/305 84/306 97/307 96/308
f 84/309 85/310 98/311 97/312
f 85/313 86/314 99/315 98/316
f 86/317 87/318 100/319 99/320
f 87/321 88/322 101/323 100/324
f 88/325 89/326 102/327 101/328
f 89/329 90/330 103/331 102/332
f 90/333 91/334 104/335 103/336
f 92/337 93/338 106/339 105/340
f 93/341 94/342 107/343 106/344
f 94/345 95/346 108/347 107/348
f 95/349 96/350 109/351 108/352
f 96/353 97/354 110/355 109/356
f 97/357 98/358 111/359 110/360
f 98/361 99/362 112/363 111/364
f 99/365 100/366 113/367 112/368
f 100/369 101/370 114/371 113/372
f 101/373 102/374 115/375 114/376
f 102/377 103/378 116/379 115/380
f 103/381 104/382 117/383 116/384
f 105/385 106/386 119/387 118/388
f 106/389 107/390 120/391 119/392
f 107/393 108/394 121/395 120/396
f 108/397 109/398 122/399 121/400
f 109/401 110/402 123/403 122/404
f 110/405 111/406 124/407 123/408
f 111/409 112/410 125/411 124/412
f 112/413 113/414 126/415 125/416
f 113/417 114/418 127/419 126/420
f 114/421 115/422 128/423 127/424
f 115/425 116/426 129/427 128/428
f 116/429 117/430 130/431 129/432
f 118/433 119/434 132/435 131/436
f 119/437 120/438 133/439 132/440
f 120/441 121/442 134/443 133/444
f 121/445 122/446 135/447 134/448
f 122/449 123/450 136/451 135/452
f 123/453 124/454 137/455 136/456
f 124/457 125/458 138/459 137/460
f 125/461 126/462 139/463 138/464
f 126/465 127/466 140/467 139/468
f 127/469 128/470 141/471 140/472
f 128/473 129/474 142/475 141/476
f 129/477 130/478 143/479 142/480
o FireInteractionCalmZone
f 144/481 145/482 163/483 162/484
f 145/485 146/486 164/487 163/488
f 146/489 147/490 165/491 164/492
f 147/493 148/494 166/495 165/496
f 148/497 149/498 167/499 166/500
f 149/501 150/502 168/503 167/504
f 150/505 151/506 169/507 168/508
f 151/509 152/510 170/511 169/512
f 152/513 153/514 171/515 170/516
f 153/517 154/518 172/519 171/520
f 154/521 155/522 173/523 172/524
f 155/525 156/526 174/527 173/528
f 156/529 157/530 175/531 174/532
f 157/533 158/534 176/535 175/536
f 158/537 159/538 177/539 176/540
f 159/541 160/542 178/543 177/544
f 160/545 161/546 179/547 178/548
f 161/549 144/550 162/551 179/552
f 161/553 160/554 159/555 158/556 157/557 156/558 155/559 154/560 153/561 152/562 151/563 150/564 149/565 148/566 147/567 146/568 145/569 144/570
f 162/571 163/572 164/573 165/574 166/575 167/576 168/577 169/578 170/579 171/580 172/581 173/582 174/583 175/584 176/585 177/586 178/587 179/588
o ShelterWorkClearance
f 180/589 181/590 199/591 198/592
f 181/593 182/594 200/595 199/596
f 182/597 183/598 201/599 200/600
f 183/601 184/602 202/603 201/604
f 184/605 185/606 203/607 202/608
f 185/609 186/610 204/611 203/612
f 186/613 187/614 205/615 204/616
f 187/617 188/618 206/619 205/620
f 188/621 189/622 207/623 206/624
f 189/625 190/626 208/627 207/628
f 190/629 191/630 209/631 208/632
f 191/633 192/634 210/635 209/636
f 192/637 193/638 211/639 210/640
f 193/641 194/642 212/643 211/644
f 194/645 195/646 213/647 212/648
f 195/649 196/650 214/651 213/652
f 196/653 197/654 215/655 214/656
f 197/657 180/658 198/659 215/660
f 197/661 196/662 195/663 194/664 193/665 192/666 191/667 190/668 189/669 188/670 187/671 186/672 185/673 184/674 183/675 182/676 181/677 180/678
f 198/679 199/680 200/681 201/682 202/683 203/684 204/685 205/686 206/687 207/688 208/689 209/690 210/691 211/692 212/693 213/694 214/695 215/696
o PlanningStableStance
f 216/697 217/698 235/699 234/700
f 217/701 218/702 236/703 235/704
f 218/705 219/706 237/707 236/708
f 219/709 220/710 238/711 237/712
f 220/713 221/714 239/715 238/716
f 221/717 222/718 240/719 239/720
f 222/721 223/722 241/723 240/724
f 223/725 224/726 242/727 241/728
f 224/729 225/730 243/731 242/732
f 225/733 226/734 244/735 243/736
f 226/737 227/738 245/739 244/740
f 227/741 228/742 246/743 245/744
f 228/745 229/746 247/747 246/748
f 229/749 230/750 248/751 247/752
f 230/753 231/754 249/755 248/756
f 231/757 232/758 250/759 249/760
f 232/761 233/762 251/763 250/764
f 233/765 216/766 234/767 251/768
f 233/769 232/770 231/771 230/772 229/773 228/774 227/775 226/776 225/777 224/778 223/779 222/780 221/781 220/782 219/783 218/784 217/785 216/786
f 234/787 235/788 236/789 237/790 238/791 239/792 240/793 241/794 242/795 243/796 244/797 245/798 246/799 247/800 248/801 249/802 250/803 251/804
o SuppliesReadableZone
f 252/805 253/806 271/807 270/808
f 253/809 254/810 272/811 271/812
f 254/813 255/814 273/815 272/816
f 255/817 256/818 274/819 273/820
f 256/821 257/822 275/823 274/824
f 257/825 258/826 276/827 275/828
f 258/829 259/830 277/831 276/832
f 259/833 260/834 278/835 277/836
f 260/837 261/838 279/839 278/840
f 261/841 262/842 280/843 279/844
f 262/845 263/846 281/847 280/848
f 263/849 264/850 282/851 281/852
f 264/853 265/854 283/855 282/856
f 265/857 266/858 284/859 283/860
f 266/861 267/862 285/863 284/864
f 267/865 268/866 286/867 285/868
f 268/869 269/870 287/871 286/872
f 269/873 252/874 270/875 287/876
f 269/877 268/878 267/879 266/880 265/881 264/882 263/883 262/884 261/885 260/886 259/887 258/888 257/889 256/890 255/891 254/892 253/893 252/894
f 270/895 271/896 272/897 273/898 274/899 275/900 276/901 277/902 278/903 279/904 280/905 281/906 282/907 283/908 284/909 285/910 286/911 287/912
o WreckIntroZone
f 288/913 289/914 307/915 306/916
f 289/917 290/918 308/919 307/920
f 290/921 291/922 309/923 308/924
f 291/925 292/926 310/927 309/928
f 292/929 293/930 311/931 310/932
f 293/933 294/934 312/935 311/936
f 294/937 295/938 313/939 312/940
f 295/941 296/942 314/943 313/944
f 296/945 297/946 315/947 314/948
f 297/949 298/950 316/951 315/952
f 298/953 299/954 317/955 316/956
f 299/957 300/958 318/959 317/960
f 300/961 301/962 319/963 318/964
f 301/965 302/966 320/967 319/968
f 302/969 303/970 321/971 320/972
f 303/973 304/974 322/975 321/976
f 304/977 305/978 323/979 322/980
f 305/981 288/982 306/983 323/984
f 305/985 304/986 303/987 302/988 301/989 300/990 299/991 298/992 297/993 296/994 295/995 294/996 293/997 292/998 291/999 290/1000 289/1001 288/1002
f 306/1003 307/1004 308/1005 309/1006 310/1007 311/1008 312/1009 313/1010 314/1011 315/1012 316/1013 317/1014 318/1015 319/1016 320/1017 321/1018 322/1019 323/1020
o SignalReachZone
f 324/1021 325/1022 343/1023 342/1024
f 325/1025 326/1026 344/1027 343/1028
f 326/1029 327/1030 345/1031 344/1032
f 327/1033 328/1034 346/1035 345/1036
f 328/1037 329/1038 347/1039 346/1040
f 329/1041 330/1042 348/1043 347/1044
f 330/1045 331/1046 349/1047 348/1048
f 331/1049 332/1050 350/1051 349/1052
f 332/1053 333/1054 351/1055 350/1056
f 333/1057 334/1058 352/1059 351/1060
f 334/1061 335/1062 353/1063 352/1064
f 335/1065 336/1066 354/1067 353/1068
f 336/1069 337/1070 355/1071 354/1072
f 337/1073 338/1074 356/1075 355/1076
f 338/1077 339/1078 357/1079 356/1080
f 339/1081 340/1082 358/1083 357/1084
f 340/1085 341/1086 359/1087 358/1088
f 341/1089 324/1090 342/1091 359/1092
f 341/1093 340/1094 339/1095 338/1096 337/1097 336/1098 335/1099 334/1100 333/1101 332/1102 331/1103 330/1104 329/1105 328/1106 327/1107 326/1108 325/1109 324/1110
f 342/1111 343/1112 344/1113 345/1114 346/1115 347/1116 348/1117 349/1118 350/1119 351/1120 352/1121 353/1122 354/1123 355/1124 356/1125 357/1126 358/1127 359/1128
o SeaFacingWetBand
usemtl MAT_WET_SAND
f 360/1129 361/1130 362/1131 363/1132
f 364/1133 367/1134 366/1135 365/1136
f 360/1137 364/1138 365/1139 361/1140
f 361/1141 365/1142 366/1143 362/1144
f 362/1145 366/1146 367/1147 363/1148
f 363/1149 367/1150 364/1151 360/1152
o ReadableCampRoute_1
usemtl MAT_DRY_SAND
f 368/1153 369/1154 370/1155 371/1156
f 372/1157 375/1158 374/1159 373/1160
f 368/1161 372/1162 373/1163 369/1164
f 369/1165 373/1166 374/1167 370/1168
f 370/1169 374/1170 375/1171 371/1172
f 371/1173 375/1174 372/1175 368/1176
o ReadableCampRoute_2
f 376/1177 377/1178 378/1179 379/1180
f 380/1181 383/1182 382/1183 381/1184
f 376/1185 380/1186 381/1187 377/1188
f 377/1189 381/1190 382/1191 378/1192
f 378/1193 382/1194 383/1195 379/1196
f 379/1197 383/1198 380/1199 376/1200
o ReadableCampRoute_3
f 384/1201 385/1202 386/1203 387/1204
f 388/1205 391/1206 390/1207 389/1208
f 384/1209 388/1210 389/1211 385/1212
f 385/1213 389/1214 390/1215 386/1216
f 386/1217 390/1218 391/1219 387/1220
f 387/1221 391/1222 388/1223 384/1224
o ReadableCampRoute_4
f 392/1225 393/1226 394/1227 395/1228
f 396/1229 399/1230 398/1231 397/1232
f 392/1233 396/1234 397/1235 393/1236
f 393/1237 397/1238 398/1239 394/1240
f 394/1241 398/1242 399/1243 395/1244
f 395/1245 399/1246 396/1247 392/1248
o ReadableCampRoute_5
f 400/1249 401/1250 402/1251 403/1252
f 404/1253 407/1254 406/1255 405/1256
f 400/1257 404/1258 405/1259 401/1260
f 401/1261 405/1262 406/1263 402/1264
f 402/1265 406/1266 407/1267 403/1268
f 403/1269 407/1270 404/1271 400/1272
o ReadableCampRoute_6
f 408/1273 409/1274 410/1275 411/1276
f 412/1277 415/1278 414/1279 413/1280
f 408/1281 412/1282 413/1283 409/1284
f 409/1285 413/1286 414/1287 410/1288
f 410/1289 414/1290 415/1291 411/1292
f 411/1293 415/1294 412/1295 408/1296
