mtllib ../../Materials/project_oen.mtl
o en-019_signal_hill_dressing_set__stones
v 0.120000 0.000000 0.000000
v 0.217197 0.005332 0.096831
v 0.264000 0.000000 0.000000
v 0.264000 0.000000 0.000000
v 0.217197 0.005332 0.096831
v 0.220304 0.064492 0.126015
v 0.302477 0.059160 0.000000
v 0.302477 0.059160 0.000000
v 0.220304 0.064492 0.126015
v 0.184665 0.116692 0.092856
v 0.240940 0.111360 0.000000
v 0.120000 0.158400 0.009000
v 0.240940 0.111360 0.000000
v 0.184665 0.116692 0.092856
v 0.120000 0.000000 0.000000
v 0.090942 -0.001690 0.143875
v 0.217197 0.005332 0.096831
v 0.217197 0.005332 0.096831
v 0.090942 -0.001690 0.143875
v 0.085163 0.057470 0.161088
v 0.220304 0.064492 0.126015
v 0.220304 0.064492 0.126015
v 0.085163 0.057470 0.161088
v 0.092760 0.109670 0.098698
v 0.184665 0.116692 0.092856
v 0.120000 0.158400 0.009000
v 0.184665 0.116692 0.092856
v 0.092760 0.109670 0.098698
v 0.120000 0.000000 0.000000
v -0.012657 -0.004796 0.057257
v 0.090942 -0.001690 0.143875
v 0.090942 -0.001690 0.143875
v -0.012657 -0.004796 0.057257
v -0.044905 0.054364 0.060921
v 0.085163 0.057470 0.161088
v 0.085163 0.057470 0.161088
v -0.044905 0.054364 0.060921
v 0.013193 0.106564 0.045498
v 0.092760 0.109670 0.098698
v 0.120000 0.158400 0.009000
v 0.092760 0.109670 0.098698
v 0.013193 0.106564 0.045498
v 0.120000 0.000000 0.000000
v -0.018533 0.003211 -0.054604
v -0.012657 -0.004796 0.057257
v -0.012657 -0.004796 0.057257
v -0.018533 0.003211 -0.054604
v -0.021891 0.062371 -0.071311
v -0.044905 0.054364 0.060921
v -0.044905 0.054364 0.060921
v -0.021891 0.062371 -0.071311
v 0.026110 0.114571 -0.051330
v 0.013193 0.106564 0.045498
v 0.120000 0.158400 0.009000
v 0.013193 0.106564 0.045498
v 0.026110 0.114571 -0.051330
v 0.120000 0.000000 0.000000
v 0.091127 0.003778 -0.144638
v -0.018533 0.003211 -0.054604
v -0.018533 0.003211 -0.054604
v 0.091127 0.003778 -0.144638
v 0.084436 0.062938 -0.158100
v -0.021891 0.062371 -0.071311
v -0.021891 0.062371 -0.071311
v 0.084436 0.062938 -0.158100
v 0.092352 0.115138 -0.097021
v 0.026110 0.114571 -0.051330
v 0.120000 0.158400 0.009000
v 0.026110 0.114571 -0.051330
v 0.092352 0.115138 -0.097021
v 0.120000 0.000000 0.000000
v 0.213717 -0.004409 -0.100922
v 0.091127 0.003778 -0.144638
v 0.091127 0.003778 -0.144638
v 0.213717 -0.004409 -0.100922
v 0.233931 0.054751 -0.109995
v 0.084436 0.062938 -0.158100
v 0.084436 0.062938 -0.158100
v 0.233931 0.054751 -0.109995
v 0.192314 0.106951 -0.083864
v 0.092352 0.115138 -0.097021
v 0.120000 0.158400 0.009000
v 0.092352 0.115138 -0.097021
v 0.192314 0.106951 -0.083864
v 0.120000 0.000000 0.000000
v 0.264000 0.000000 0.000000
v 0.213717 -0.004409 -0.100922
v 0.213717 -0.004409 -0.100922
v 0.264000 0.000000 0.000000
v 0.302477 0.059160 0.000000
v 0.233931 0.054751 -0.109995
v 0.233931 0.054751 -0.109995
v 0.302477 0.059160 0.000000
v 0.240940 0.111360 0.000000
v 0.192314 0.106951 -0.083864
v 0.120000 0.158400 0.009000
v 0.192314 0.106951 -0.083864
v 0.240940 0.111360 0.000000
v -0.140100 0.000000 0.128343
v -0.091733 0.004767 0.255704
v 0.007519 0.001750 0.168432
v 0.007519 0.001750 0.168432
v -0.091733 0.004767 0.255704
v -0.089542 0.063927 0.289507
v 0.029060 0.060910 0.175124
v 0.029060 0.060910 0.175124
v -0.089542 0.063927 0.289507
v -0.103204 0.116127 0.234949
v -0.036036 0.113110 0.164920
v -0.135952 0.158400 0.136858
v -0.036036 0.113110 0.164920
v -0.103204 0.116127 0.234949
v -0.140100 0.000000 0.128343
v -0.209726 -0.003261 0.252480
v -0.091733 0.004767 0.255704
v -0.091733 0.004767 0.255704
v -0.209726 -0.003261 0.252480
v -0.230758 0.055899 0.256344
v -0.089542 0.063927 0.289507
v -0.089542 0.063927 0.289507
v -0.230758 0.055899 0.256344
v -0.206782 0.108099 0.211027
v -0.103204 0.116127 0.234949
v -0.135952 0.158400 0.136858
v -0.103204 0.116127 0.234949
v -0.206782 0.108099 0.211027
v -0.140100 0.000000 0.128343
v -0.296497 -0.003733 0.142843
v -0.209726 -0.003261 0.252480
v -0.209726 -0.003261 0.252480
v -0.296497 -0.003733 0.142843
v -0.314857 0.055427 0.145766
v -0.230758 0.055899 0.256344
v -0.230758 0.055899 0.256344
v -0.314857 0.055427 0.145766
v -0.247161 0.107627 0.141963
v -0.206782 0.108099 0.211027
v -0.135952 0.158400 0.136858
v -0.206782 0.108099 0.211027
v -0.247161 0.107627 0.141963
v -0.140100 0.000000 0.128343
v -0.240105 0.004445 0.031214
v -0.296497 -0.003733 0.142843
v -0.296497 -0.003733 0.142843
v -0.240105 0.004445 0.031214
v -0.246694 0.063605 0.007808
v -0.314857 0.055427 0.145766
v -0.314857 0.055427 0.145766
v -0.246694 0.063605 0.007808
v -0.219857 0.115805 0.050411
v -0.247161 0.107627 0.141963
v -0.135952 0.158400 0.136858
v -0.247161 0.107627 0.141963
v -0.219857 0.115805 0.050411
v -0.140100 0.000000 0.128343
v -0.125930 0.002323 -0.014821
v -0.240105 0.004445 0.031214
v -0.240105 0.004445 0.031214
v -0.125930 0.002323 -0.014821
v -0.121594 0.061483 -0.018239
v -0.246694 0.063605 0.007808
v -0.246694 0.063605 0.007808
v -0.121594 0.061483 -0.018239
v -0.126806 0.113683 0.031130
v -0.219857 0.115805 0.050411
v -0.135952 0.158400 0.136858
v -0.219857 0.115805 0.050411
v -0.126806 0.113683 0.031130
v -0.140100 0.000000 0.128343
v -0.006636 -0.005181 0.062965
v -0.125930 0.002323 -0.014821
v -0.125930 0.002323 -0.014821
v -0.006636 -0.005181 0.062965
v 0.005515 0.053979 0.047649
v -0.121594 0.061483 -0.018239
v -0.121594 0.061483 -0.018239
v 0.005515 0.053979 0.047649
v -0.050704 0.106179 0.065655
v -0.126806 0.113683 0.031130
v -0.135952 0.158400 0.136858
v -0.126806 0.113683 0.031130
v -0.050704 0.106179 0.065655
v -0.140100 0.000000 0.128343
v 0.007519 0.001750 0.168432
v -0.006636 -0.005181 0.062965
v -0.006636 -0.005181 0.062965
v 0.007519 0.001750 0.168432
v 0.029060 0.060910 0.175124
v 0.005515 0.053979 0.047649
v 0.005515 0.053979 0.047649
v 0.029060 0.060910 0.175124
v -0.036036 0.113110 0.164920
v -0.050704 0.106179 0.065655
v -0.135952 0.158400 0.136858
v -0.050704 0.106179 0.065655
v -0.036036 0.113110 0.164920
v 0.022731 0.000000 -0.259004
v 0.024470 0.003687 -0.112596
v 0.146926 0.003311 -0.183827
v 0.146926 0.003311 -0.183827
v 0.024470 0.003687 -0.112596
v 0.024766 0.062847 -0.091579
v 0.152242 0.062471 -0.161944
v 0.152242 0.062471 -0.161944
v 0.024766 0.062847 -0.091579
v 0.024322 0.115047 -0.156066
v 0.104694 0.114671 -0.186208
v 0.030578 0.158400 -0.251895
v 0.104694 0.114671 -0.186208
v 0.024322 0.115047 -0.156066
v 0.022731 0.000000 -0.259004
v -0.089068 -0.004480 -0.173763
v 0.024470 0.003687 -0.112596
v 0.024470 0.003687 -0.112596
v -0.089068 -0.004480 -0.173763
v -0.118536 0.054680 -0.169778
v 0.024766 0.062847 -0.091579
v 0.024766 0.062847 -0.091579
v -0.118536 0.054680 -0.169778
v -0.070533 0.106880 -0.193749
v 0.024322 0.115047 -0.156066
v 0.030578 0.158400 -0.251895
v 0.024322 0.115047 -0.156066
v -0.070533 0.106880 -0.193749
v 0.022731 0.000000 -0.259004
v -0.129397 -0.002267 -0.285028
v -0.089068 -0.004480 -0.173763
v -0.089068 -0.004480 -0.173763
v -0.129397 -0.002267 -0.285028
v -0.134009 0.056893 -0.292906
v -0.118536 0.054680 -0.169778
v -0.118536 0.054680 -0.169778
v -0.134009 0.056893 -0.292906
v -0.078719 0.109093 -0.283894
v -0.070533 0.106880 -0.193749
v 0.030578 0.158400 -0.251895
v -0.070533 0.106880 -0.193749
v -0.078719 0.109093 -0.283894
v 0.022731 0.000000 -0.259004
v -0.035395 0.005199 -0.391262
v -0.129397 -0.002267 -0.285028
v -0.129397 -0.002267 -0.285028
v -0.035395 0.005199 -0.391262
v -0.047274 0.064359 -0.406493
v -0.134009 0.056893 -0.292906
v -0.134009 0.056893 -0.292906
v -0.047274 0.064359 -0.406493
v -0.031980 0.116559 -0.349354
v -0.078719 0.109093 -0.283894
v 0.030578 0.158400 -0.251895
v -0.078719 0.109093 -0.283894
v -0.031980 0.116559 -0.349354
v 0.022731 0.000000 -0.259004
v 0.085075 0.000618 -0.378208
v -0.035395 0.005199 -0.391262
v -0.035395 0.005199 -0.391262
v 0.085075 0.000618 -0.378208
v 0.099965 0.059778 -0.386294
v -0.047274 0.064359 -0.406493
v -0.047274 0.064359 -0.406493
v 0.099965 0.059778 -0.386294
v 0.072580 0.111978 -0.354421
v -0.031980 0.116559 -0.349354
v 0.030578 0.158400 -0.251895
v -0.031980 0.116559 -0.349354
v 0.072580 0.111978 -0.354421
v 0.022731 0.000000 -0.259004
v 0.171786 -0.005395 -0.288713
v 0.085075 0.000618 -0.378208
v 0.085075 0.000618 -0.378208
v 0.171786 -0.005395 -0.288713
v 0.175297 0.053765 -0.297801
v 0.099965 0.059778 -0.386294
v 0.099965 0.059778 -0.386294
v 0.175297 0.053765 -0.297801
v 0.124143 0.105965 -0.286820
v 0.072580 0.111978 -0.354421
v 0.030578 0.158400 -0.251895
v 0.072580 0.111978 -0.354421
v 0.124143 0.105965 -0.286820
v 0.022731 0.000000 -0.259004
v 0.146926 0.003311 -0.183827
v 0.171786 -0.005395 -0.288713
v 0.171786 -0.005395 -0.288713
v 0.146926 0.003311 -0.183827
v 0.152242 0.062471 -0.161944
v 0.175297 0.053765 -0.297801
v 0.175297 0.053765 -0.297801
v 0.152242 0.062471 -0.161944
v 0.104694 0.114671 -0.186208
v 0.124143 0.105965 -0.286820
v 0.030578 0.158400 -0.251895
v 0.124143 0.105965 -0.286820
v 0.104694 0.114671 -0.186208
v 0.200785 0.000000 0.261888
v 0.160007 0.002210 0.401843
v 0.281145 0.004515 0.372824
v 0.281145 0.004515 0.372824
v 0.160007 0.002210 0.401843
v 0.148086 0.061370 0.407664
v 0.283797 0.063675 0.404150
v 0.283797 0.063675 0.404150
v 0.148086 0.061370 0.407664
v 0.161324 0.113570 0.354296
v 0.259955 0.115875 0.357948
v 0.211486 0.158400 0.266826
v 0.259955 0.115875 0.357948
v 0.161324 0.113570 0.354296
v 0.200785 0.000000 0.261888
v 0.054287 -0.005215 0.304959
v 0.160007 0.002210 0.401843
v 0.160007 0.002210 0.401843
v 0.054287 -0.005215 0.304959
v 0.033603 0.053945 0.312394
v 0.148086 0.061370 0.407664
v 0.148086 0.061370 0.407664
v 0.033603 0.053945 0.312394
v 0.098049 0.106145 0.301393
v 0.161324 0.113570 0.354296
v 0.211486 0.158400 0.266826
v 0.161324 0.113570 0.354296
v 0.098049 0.106145 0.301393
v 0.200785 0.000000 0.261888
v 0.078045 -0.000556 0.191957
v 0.054287 -0.005215 0.304959
v 0.054287 -0.005215 0.304959
v 0.078045 -0.000556 0.191957
v 0.072127 0.058604 0.173655
v 0.033603 0.053945 0.312394
v 0.033603 0.053945 0.312394
v 0.072127 0.058604 0.173655
v 0.106488 0.110804 0.203748
v 0.098049 0.106145 0.301393
v 0.211486 0.158400 0.266826
v 0.098049 0.106145 0.301393
v 0.106488 0.110804 0.203748
v 0.200785 0.000000 0.261888
v 0.183336 0.005392 0.117445
v 0.078045 -0.000556 0.191957
v 0.078045 -0.000556 0.191957
v 0.183336 0.005392 0.117445
v 0.178044 0.064552 0.113176
v 0.072127 0.058604 0.173655
v 0.072127 0.058604 0.173655
v 0.178044 0.064552 0.113176
v 0.184120 0.116752 0.165439
v 0.106488 0.110804 0.203748
v 0.211486 0.158400 0.266826
v 0.106488 0.110804 0.203748
v 0.184120 0.116752 0.165439
v 0.200785 0.000000 0.261888
v 0.310054 -0.001153 0.173805
v 0.183336 0.005392 0.117445
v 0.183336 0.005392 0.117445
v 0.310054 -0.001153 0.173805
v 0.322395 0.058007 0.155562
v 0.178044 0.064552 0.113176
v 0.178044 0.064552 0.113176
v 0.322395 0.058007 0.155562
v 0.275279 0.110207 0.178819
v 0.184120 0.116752 0.165439
v 0.211486 0.158400 0.266826
v 0.184120 0.116752 0.165439
v 0.275279 0.110207 0.178819
v 0.200785 0.000000 0.261888
v 0.340180 -0.005026 0.274691
v 0.310054 -0.001153 0.173805
v 0.310054 -0.001153 0.173805
v 0.340180 -0.005026 0.274691
v 0.349910 0.054134 0.277721
v 0.322395 0.058007 0.155562
v 0.322395 0.058007 0.155562
v 0.349910 0.054134 0.277721
v 0.312772 0.106334 0.272090
v 0.275279 0.110207 0.178819
v 0.211486 0.158400 0.266826
v 0.275279 0.110207 0.178819
v 0.312772 0.106334 0.272090
v 0.200785 0.000000 0.261888
v 0.281145 0.004515 0.372824
v 0.340180 -0.005026 0.274691
v 0.340180 -0.005026 0.274691
v 0.281145 0.004515 0.372824
v 0.283797 0.063675 0.404150
v 0.349910 0.054134 0.277721
v 0.349910 0.054134 0.277721
v 0.283797 0.063675 0.404150
v 0.259955 0.115875 0.357948
v 0.312772 0.106334 0.272090
v 0.211486 0.158400 0.266826
v 0.312772 0.106334 0.272090
v 0.259955 0.115875 0.357948
v -0.393885 0.000000 -0.069672
v -0.479341 0.000494 0.039704
v -0.360757 0.005231 0.070652
v -0.360757 0.005231 0.070652
v -0.479341 0.000494 0.039704
v -0.503345 0.059654 0.043421
v -0.356093 0.064391 0.094270
v -0.356093 0.064391 0.094270
v -0.503345 0.059654 0.043421
v -0.467646 0.111854 0.011129
v -0.364459 0.116591 0.031889
v -0.381486 0.158400 -0.067439
v -0.364459 0.116591 0.031889
v -0.467646 0.111854 0.011129
v -0.393885 0.000000 -0.069672
v -0.550822 -0.005388 -0.066431
v -0.479341 0.000494 0.039704
v -0.479341 0.000494 0.039704
v -0.550822 -0.005388 -0.066431
v -0.557164 0.053772 -0.065479
v -0.503345 0.059654 0.043421
v -0.503345 0.059654 0.043421
v -0.557164 0.053772 -0.065479
v -0.497562 0.105972 -0.066538
v -0.467646 0.111854 0.011129
v -0.381486 0.158400 -0.067439
v -0.467646 0.111854 0.011129
v -0.497562 0.105972 -0.066538
v -0.393885 0.000000 -0.069672
v -0.478587 0.001214 -0.181896
v -0.550822 -0.005388 -0.066431
v -0.550822 -0.005388 -0.066431
v -0.478587 0.001214 -0.181896
v -0.493448 0.060374 -0.197476
v -0.557164 0.053772 -0.065479
v -0.557164 0.053772 -0.065479
v -0.493448 0.060374 -0.197476
v -0.471773 0.112574 -0.148172
v -0.497562 0.105972 -0.066538
v -0.381486 0.158400 -0.067439
v -0.497562 0.105972 -0.066538
v -0.471773 0.112574 -0.148172
v -0.393885 0.000000 -0.069672
v -0.365351 0.005003 -0.201061
v -0.478587 0.001214 -0.181896
v -0.478587 0.001214 -0.181896
v -0.365351 0.005003 -0.201061
v -0.357937 0.064163 -0.207596
v -0.493448 0.060374 -0.197476
v -0.493448 0.060374 -0.197476
v -0.357937 0.064163 -0.207596
v -0.370243 0.116363 -0.170976
v -0.471773 0.112574 -0.148172
v -0.381486 0.158400 -0.067439
v -0.471773 0.112574 -0.148172
v -0.370243 0.116363 -0.170976
v -0.393885 0.000000 -0.069672
v -0.255826 -0.002800 -0.126606
v -0.365351 0.005003 -0.201061
v -0.365351 0.005003 -0.201061
v -0.255826 -0.002800 -0.126606
v -0.251848 0.056360 -0.143903
v -0.357937 0.064163 -0.207596
v -0.357937 0.064163 -0.207596
v -0.251848 0.056360 -0.143903
v -0.301576 0.108560 -0.123969
v -0.370243 0.116363 -0.170976
v -0.381486 0.158400 -0.067439
v -0.370243 0.116363 -0.170976
v -0.301576 0.108560 -0.123969
v -0.393885 0.000000 -0.069672
v -0.275095 -0.004115 -0.009040
v -0.255826 -0.002800 -0.126606
v -0.255826 -0.002800 -0.126606
v -0.275095 -0.004115 -0.009040
v -0.250167 0.055045 -0.002325
v -0.251848 0.056360 -0.143903
v -0.251848 0.056360 -0.143903
v -0.250167 0.055045 -0.002325
v -0.281645 0.107245 -0.028417
v -0.301576 0.108560 -0.123969
v -0.381486 0.158400 -0.067439
v -0.301576 0.108560 -0.123969
v -0.281645 0.107245 -0.028417
v -0.393885 0.000000 -0.069672
v -0.360757 0.005231 0.070652
v -0.275095 -0.004115 -0.009040
v -0.275095 -0.004115 -0.009040
v -0.360757 0.005231 0.070652
v -0.356093 0.064391 0.094270
v -0.250167 0.055045 -0.002325
v -0.250167 0.055045 -0.002325
v -0.356093 0.064391 0.094270
v -0.364459 0.116591 0.031889
v -0.281645 0.107245 -0.028417
v -0.381486 0.158400 -0.067439
v -0.281645 0.107245 -0.028417
v -0.364459 0.116591 0.031889
v 0.396565 0.000000 -0.252263
v 0.268369 -0.001275 -0.182317
v 0.386279 0.005383 -0.104606
v 0.386279 0.005383 -0.104606
v 0.268369 -0.001275 -0.182317
v 0.247102 0.057885 -0.172275
v 0.383430 0.064543 -0.096391
v 0.383430 0.064543 -0.096391
v 0.247102 0.057885 -0.172275
v 0.304057 0.110085 -0.189944
v 0.386575 0.116743 -0.154936
v 0.409325 0.158400 -0.252975
v 0.386575 0.116743 -0.154936
v 0.304057 0.110085 -0.189944
v 0.396565 0.000000 -0.252263
v 0.257304 -0.004979 -0.292080
v 0.268369 -0.001275 -0.182317
v 0.268369 -0.001275 -0.182317
v 0.257304 -0.004979 -0.292080
v 0.252428 0.054181 -0.303204
v 0.247102 0.057885 -0.172275
v 0.247102 0.057885 -0.172275
v 0.252428 0.054181 -0.303204
v 0.293342 0.106381 -0.286521
v 0.304057 0.110085 -0.189944
v 0.409325 0.158400 -0.252975
v 0.304057 0.110085 -0.189944
v 0.293342 0.106381 -0.286521
v 0.396565 0.000000 -0.252263
v 0.349197 0.002854 -0.389402
v 0.257304 -0.004979 -0.292080
v 0.257304 -0.004979 -0.292080
v 0.349197 0.002854 -0.389402
v 0.335239 0.062014 -0.394787
v 0.252428 0.054181 -0.303204
v 0.252428 0.054181 -0.303204
v 0.335239 0.062014 -0.394787
v 0.350795 0.114214 -0.342916
v 0.293342 0.106381 -0.286521
v 0.409325 0.158400 -0.252975
v 0.293342 0.106381 -0.286521
v 0.350795 0.114214 -0.342916
v 0.396565 0.000000 -0.252263
v 0.475455 0.004074 -0.358684
v 0.349197 0.002854 -0.389402
v 0.349197 0.002854 -0.389402
v 0.475455 0.004074 -0.358684
v 0.486222 0.063234 -0.377657
v 0.335239 0.062014 -0.394787
v 0.335239 0.062014 -0.394787
v 0.486222 0.063234 -0.377657
v 0.451609 0.115434 -0.350367
v 0.350795 0.114214 -0.342916
v 0.409325 0.158400 -0.252975
v 0.350795 0.114214 -0.342916
v 0.451609 0.115434 -0.350367
v 0.396565 0.000000 -0.252263
v 0.537740 -0.004146 -0.271975
v 0.475455 0.004074 -0.358684
v 0.475455 0.004074 -0.358684
v 0.537740 -0.004146 -0.271975
v 0.544983 0.055014 -0.277059
v 0.486222 0.063234 -0.377657
v 0.486222 0.063234 -0.377657
v 0.544983 0.055014 -0.277059
v 0.505805 0.107214 -0.268540
v 0.451609 0.115434 -0.350367
v 0.409325 0.158400 -0.252975
v 0.451609 0.115434 -0.350367
v 0.505805 0.107214 -0.268540
v 0.396565 0.000000 -0.252263
v 0.493592 -0.002760 -0.152896
v 0.537740 -0.004146 -0.271975
v 0.537740 -0.004146 -0.271975
v 0.493592 -0.002760 -0.152896
v 0.523114 0.056400 -0.150102
v 0.544983 0.055014 -0.277059
v 0.544983 0.055014 -0.277059
v 0.523114 0.056400 -0.150102
v 0.488956 0.108600 -0.185731
v 0.505805 0.107214 -0.268540
v 0.409325 0.158400 -0.252975
v 0.505805 0.107214 -0.268540
v 0.488956 0.108600 -0.185731
v 0.396565 0.000000 -0.252263
v 0.386279 0.005383 -0.104606
v 0.493592 -0.002760 -0.152896
v 0.493592 -0.002760 -0.152896
v 0.386279 0.005383 -0.104606
v 0.383430 0.064543 -0.096391
v 0.523114 0.056400 -0.150102
v 0.523114 0.056400 -0.150102
v 0.383430 0.064543 -0.096391
v 0.386575 0.116743 -0.154936
v 0.488956 0.108600 -0.185731
v 0.409325 0.158400 -0.252975
v 0.488956 0.108600 -0.185731
v 0.386575 0.116743 -0.154936
v -0.140186 0.000000 0.521486
v -0.292645 -0.002907 0.553305
v -0.195552 0.004954 0.649508
v -0.195552 0.004954 0.649508
v -0.292645 -0.002907 0.553305
v -0.300897 0.056253 0.562173
v -0.211842 0.064114 0.652827
v -0.211842 0.064114 0.652827
v -0.300897 0.056253 0.562173
v -0.240664 0.108453 0.552387
v -0.189509 0.116314 0.613030
v -0.128442 0.158400 0.517905
v -0.189509 0.116314 0.613030
v -0.240664 0.108453 0.552387
v -0.140186 0.000000 0.521486
v -0.247477 -0.004033 0.435527
v -0.292645 -0.002907 0.553305
v -0.292645 -0.002907 0.553305
v -0.247477 -0.004033 0.435527
v -0.263177 0.055127 0.421474
v -0.300897 0.056253 0.562173
v -0.300897 0.056253 0.562173
v -0.263177 0.055127 0.421474
v -0.236065 0.107327 0.459639
v -0.240664 0.108453 0.552387
v -0.128442 0.158400 0.517905
v -0.240664 0.108453 0.552387
v -0.236065 0.107327 0.459639
v -0.140186 0.000000 0.521486
v -0.145820 0.004185 0.385026
v -0.247477 -0.004033 0.435527
v -0.247477 -0.004033 0.435527
v -0.145820 0.004185 0.385026
v -0.147385 0.063345 0.380101
v -0.263177 0.055127 0.421474
v -0.263177 0.055127 0.421474
v -0.147385 0.063345 0.380101
v -0.145017 0.115545 0.419998
v -0.236065 0.107327 0.459639
v -0.128442 0.158400 0.517905
v -0.236065 0.107327 0.459639
v -0.145017 0.115545 0.419998
v -0.140186 0.000000 0.521486
v -0.021595 0.002706 0.441022
v -0.145820 0.004185 0.385026
v -0.145820 0.004185 0.385026
v -0.021595 0.002706 0.441022
v -0.017070 0.061866 0.417224
v -0.147385 0.063345 0.380101
v -0.147385 0.063345 0.380101
v -0.017070 0.061866 0.417224
v -0.061741 0.114066 0.443802
v -0.145017 0.115545 0.419998
v -0.128442 0.158400 0.517905
v -0.145017 0.115545 0.419998
v -0.061741 0.114066 0.443802
v -0.140186 0.000000 0.521486
v -0.011135 -0.005043 0.548483
v -0.021595 0.002706 0.441022
v -0.021595 0.002706 0.441022
v -0.011135 -0.005043 0.548483
v 0.012237 0.054117 0.552105
v -0.017070 0.061866 0.417224
v -0.017070 0.061866 0.417224
v 0.012237 0.054117 0.552105
v -0.020928 0.106317 0.540277
v -0.061741 0.114066 0.443802
v -0.128442 0.158400 0.517905
v -0.061741 0.114066 0.443802
v -0.020928 0.106317 0.540277
v -0.140186 0.000000 0.521486
v -0.071875 -0.001107 0.639389
v -0.011135 -0.005043 0.548483
v -0.011135 -0.005043 0.548483
v -0.071875 -0.001107 0.639389
v -0.054390 0.058053 0.645627
v 0.012237 0.054117 0.552105
v 0.012237 0.054117 0.552105
v -0.054390 0.058053 0.645627
v -0.083973 0.110253 0.613048
v -0.020928 0.106317 0.540277
v -0.128442 0.158400 0.517905
v -0.020928 0.106317 0.540277
v -0.083973 0.110253 0.613048
v -0.140186 0.000000 0.521486
v -0.195552 0.004954 0.649508
v -0.071875 -0.001107 0.639389
v -0.071875 -0.001107 0.639389
v -0.195552 0.004954 0.649508
v -0.211842 0.064114 0.652827
v -0.054390 0.058053 0.645627
v -0.054390 0.058053 0.645627
v -0.211842 0.064114 0.652827
v -0.189509 0.116314 0.613030
v -0.083973 0.110253 0.613048
v -0.128442 0.158400 0.517905
v -0.083973 0.110253 0.613048
v -0.189509 0.116314 0.613030
v -0.281154 0.000000 -0.541343
v -0.429426 -0.004225 -0.549963
v -0.384013 0.003991 -0.447590
v -0.384013 0.003991 -0.447590
v -0.429426 -0.004225 -0.549963
v -0.433354 0.054935 -0.552490
v -0.403643 0.063151 -0.436738
v -0.403643 0.063151 -0.436738
v -0.433354 0.054935 -0.552490
v -0.387495 0.107135 -0.549000
v -0.357795 0.115351 -0.460534
v -0.271695 0.158400 -0.547406
v -0.357795 0.115351 -0.460534
v -0.387495 0.107135 -0.549000
v -0.281154 0.000000 -0.541343
v -0.355407 -0.002651 -0.662884
v -0.429426 -0.004225 -0.549963
v -0.429426 -0.004225 -0.549963
v -0.355407 -0.002651 -0.662884
v -0.376226 0.056509 -0.669284
v -0.433354 0.054935 -0.552490
v -0.433354 0.054935 -0.552490
v -0.376226 0.056509 -0.669284
v -0.353256 0.108709 -0.621438
v -0.387495 0.107135 -0.549000
v -0.271695 0.158400 -0.547406
v -0.387495 0.107135 -0.549000
v -0.353256 0.108709 -0.621438
v -0.281154 0.000000 -0.541343
v -0.236760 0.005065 -0.660774
v -0.355407 -0.002651 -0.662884
v -0.355407 -0.002651 -0.662884
v -0.236760 0.005065 -0.660774
v -0.229610 0.064225 -0.678584
v -0.376226 0.056509 -0.669284
v -0.376226 0.056509 -0.669284
v -0.229610 0.064225 -0.678584
v -0.249305 0.116425 -0.648389
v -0.353256 0.108709 -0.621438
v -0.271695 0.158400 -0.547406
v -0.353256 0.108709 -0.621438
v -0.249305 0.116425 -0.648389
v -0.281154 0.000000 -0.541343
v -0.146270 0.001045 -0.591274
v -0.236760 0.005065 -0.660774
v -0.236760 0.005065 -0.660774
v -0.146270 0.001045 -0.591274
v -0.141250 0.060205 -0.605067
v -0.229610 0.064225 -0.678584
v -0.229610 0.064225 -0.678584
v -0.141250 0.060205 -0.605067
v -0.180497 0.112405 -0.584025
v -0.249305 0.116425 -0.648389
v -0.271695 0.158400 -0.547406
v -0.249305 0.116425 -0.648389
v -0.180497 0.112405 -0.584025
v -0.281154 0.000000 -0.541343
v -0.166810 -0.005397 -0.469045
v -0.146270 0.001045 -0.591274
v -0.146270 0.001045 -0.591274
v -0.166810 -0.005397 -0.469045
v -0.132872 0.053763 -0.466363
v -0.141250 0.060205 -0.605067
v -0.141250 0.060205 -0.605067
v -0.132872 0.053763 -0.466363
v -0.170861 0.105963 -0.493484
v -0.180497 0.112405 -0.584025
v -0.271695 0.158400 -0.547406
v -0.180497 0.112405 -0.584025
v -0.170861 0.105963 -0.493484
v -0.281154 0.000000 -0.541343
v -0.256416 0.000666 -0.419916
v -0.166810 -0.005397 -0.469045
v -0.166810 -0.005397 -0.469045
v -0.256416 0.000666 -0.419916
v -0.253155 0.059826 -0.397582
v -0.132872 0.053763 -0.466363
v -0.132872 0.053763 -0.466363
v -0.253155 0.059826 -0.397582
v -0.263977 0.112026 -0.428861
v -0.170861 0.105963 -0.493484
v -0.271695 0.158400 -0.547406
v -0.170861 0.105963 -0.493484
v -0.263977 0.112026 -0.428861
v -0.281154 0.000000 -0.541343
v -0.384013 0.003991 -0.447590
v -0.256416 0.000666 -0.419916
v -0.256416 0.000666 -0.419916
v -0.384013 0.003991 -0.447590
v -0.403643 0.063151 -0.436738
v -0.253155 0.059826 -0.397582
v -0.253155 0.059826 -0.397582
v -0.403643 0.063151 -0.436738
v -0.357795 0.115351 -0.460534
v -0.263977 0.112026 -0.428861
v -0.271695 0.158400 -0.547406
v -0.263977 0.112026 -0.428861
v -0.357795 0.115351 -0.460534
vt 0.000000 0.000000
vt 0.000000 0.000000
vt 0.000000 0.000000
vt 0.000000 0.000000
vt 1.000000 0.000000
vt 1.000000 1.000000
vt 0.000000 1.000000
vt 0.000000 0.000000
vt 1.000000 0.000000
vt 1.000000 1.000000
vt 0.000000 1.000000
vt 0.000000 0.000000
vt 0.000000 0.000000
vt 0.000000 0.000000
vt 0.000000 0.000000
vt 0.000000 0.000000
vt 0.000000 0.000000
vt 0.000000 0.000000
vt 1.000000 0.000000
vt 1.000000 1.000000
vt 0.000000 1.000000
vt 0.000000 0.000000
vt 1.000000 0.000000
vt 1.000000 1.000000
vt 0.000000 1.000000
vt 0.000000 0.000000
vt 0.000000 0.000000
vt 0.000000 0.000000
vt 0.000000 0.000000
vt 0.000000 0.000000
vt 0.000000 0.000000
vt 0.000000 0.000000
vt 1.000000 0.000000
vt 1.000000 1.000000
vt 0.000000 1.000000
vt 0.000000 0.000000
vt 1.000000 0.000000
vt 1.000000 1.000000
vt 0.000000 1.000000
vt 0.000000 0.000000
vt 0.000000 0.000000
vt 0.000000 0.000000
vt 0.000000 0.000000
vt 0.000000 0.000000
vt 0.000000 0.000000
vt 0.000000 0.000000
vt 1.000000 0.000000
vt 1.000000 1.000000
vt 0.000000 1.000000
vt 0.000000 0.000000
vt 1.000000 0.000000
vt 1.000000 1.000000
vt 0.000000 1.000000
vt 0.000000 0.000000
vt 0.000000 0.000000
vt 0.000000 0.000000
vt 0.000000 0.000000
vt 0.000000 0.000000
vt 0.000000 0.000000
vt 0.000000 0.000000
vt 1.000000 0.000000
vt 1.000000 1.000000
vt 0.000000 1.000000
vt 0.000000 0.000000
vt 1.000000 0.000000
vt 1.000000 1.000000
vt 0.000000 1.000000
vt 0.000000 0.000000
vt 0.000000 0.000000
vt 0.000000 0.000000
vt 0.000000 0.000000
vt 0.000000 0.000000
vt 0.000000 0.000000
vt 0.000000 0.000000
vt 1.000000 0.000000
vt 1.000000 1.000000
vt 0.000000 1.000000
vt 0.000000 0.000000
vt 1.000000 0.000000
vt 1.000000 1.000000
vt 0.000000 1.000000
vt 0.000000 0.000000
vt 0.000000 0.000000
vt 0.000000 0.000000
vt 0.000000 0.000000
vt 0.000000 0.000000
vt 0.000000 0.000000
vt 0.000000 0.000000
vt 1.000000 0.000000
vt 1.000000 1.000000
vt 0.000000 1.000000
vt 0.000000 0.000000
vt 1.000000 0.000000
vt 1.000000 1.000000
vt 0.000000 1.000000
vt 0.000000 0.000000
vt 0.000000 0.000000
vt 0.000000 0.000000
vt 0.000000 0.000000
vt 0.000000 0.000000
vt 0.000000 0.000000
vt 0.000000 0.000000
vt 1.000000 0.000000
vt 1.000000 1.000000
vt 0.000000 1.000000
vt 0.000000 0.000000
vt 1.000000 0.000000
vt 1.000000 1.000000
vt 0.000000 1.000000
vt 0.000000 0.000000
vt 0.000000 0.000000
vt 0.000000 0.000000
vt 0.000000 0.000000
vt 0.000000 0.000000
vt 0.000000 0.000000
vt 0.000000 0.000000
vt 1.000000 0.000000
vt 1.000000 1.000000
vt 0.000000 1.000000
vt 0.000000 0.000000
vt 1.000000 0.000000
vt 1.000000 1.000000
vt 0.000000 1.000000
vt 0.000000 0.000000
vt 0.000000 0.000000
vt 0.000000 0.000000
vt 0.000000 0.000000
vt 0.000000 0.000000
vt 0.000000 0.000000
vt 0.000000 0.000000
vt 1.000000 0.000000
vt 1.000000 1.000000
vt 0.000000 1.000000
vt 0.000000 0.000000
vt 1.000000 0.000000
vt 1.000000 1.000000
vt 0.000000 1.000000
vt 0.000000 0.000000
vt 0.000000 0.000000
vt 0.000000 0.000000
vt 0.000000 0.000000
vt 0.000000 0.000000
vt 0.000000 0.000000
vt 0.000000 0.000000
vt 1.000000 0.000000
vt 1.000000 1.000000
vt 0.000000 1.000000
vt 0.000000 0.000000
vt 1.000000 0.000000
vt 1.000000 1.000000
vt 0.000000 1.000000
vt 0.000000 0.000000
vt 0.000000 0.000000
vt 0.000000 0.000000
vt 0.000000 0.000000
vt 0.000000 0.000000
vt 0.000000 0.000000
vt 0.000000 0.000000
vt 1.000000 0.000000
vt 1.000000 1.000000
vt 0.000000 1.000000
vt 0.000000 0.000000
vt 1.000000 0.000000
vt 1.000000 1.000000
vt 0.000000 1.000000
vt 0.000000 0.000000
vt 0.000000 0.000000
vt 0.000000 0.000000
vt 0.000000 0.000000
vt 0.000000 0.000000
vt 0.000000 0.000000
vt 0.000000 0.000000
vt 1.000000 0.000000
vt 1.000000 1.000000
vt 0.000000 1.000000
vt 0.000000 0.000000
vt 1.000000 0.000000
vt 1.000000 1.000000
vt 0.000000 1.000000
vt 0.000000 0.000000
vt 0.000000 0.000000
vt 0.000000 0.000000
vt 0.000000 0.000000
vt 0.000000 0.000000
vt 0.000000 0.000000
vt 0.000000 0.000000
vt 1.000000 0.000000
vt 1.000000 1.000000
vt 0.000000 1.000000
vt 0.000000 0.000000
vt 1.000000 0.000000
vt 1.000000 1.000000
vt 0.000000 1.000000
vt 0.000000 0.000000
vt 0.000000 0.000000
vt 0.000000 0.000000
vt 0.000000 0.000000
vt 0.000000 0.000000
vt 0.000000 0.000000
vt 0.000000 0.000000
vt 1.000000 0.000000
vt 1.000000 1.000000
vt 0.000000 1.000000
vt 0.000000 0.000000
vt 1.000000 0.000000
vt 1.000000 1.000000
vt 0.000000 1.000000
vt 0.000000 0.000000
vt 0.000000 0.000000
vt 0.000000 0.000000
vt 0.000000 0.000000
vt 0.000000 0.000000
vt 0.000000 0.000000
vt 0.000000 0.000000
vt 1.000000 0.000000
vt 1.000000 1.000000
vt 0.000000 1.000000
vt 0.000000 0.000000
vt 1.000000 0.000000
vt 1.000000 1.000000
vt 0.000000 1.000000
vt 0.000000 0.000000
vt 0.000000 0.000000
vt 0.000000 0.000000
vt 0.000000 0.000000
vt 0.000000 0.000000
vt 0.000000 0.000000
vt 0.000000 0.000000
vt 1.000000 0.000000
vt 1.000000 1.000000
vt 0.000000 1.000000
vt 0.000000 0.000000
vt 1.000000 0.000000
vt 1.000000 1.000000
vt 0.000000 1.000000
vt 0.000000 0.000000
vt 0.000000 0.000000
vt 0.000000 0.000000
vt 0.000000 0.000000
vt 0.000000 0.000000
vt 0.000000 0.000000
vt 0.000000 0.000000
vt 1.000000 0.000000
vt 1.000000 1.000000
vt 0.000000 1.000000
vt 0.000000 0.000000
vt 1.000000 0.000000
vt 1.000000 1.000000
vt 0.000000 1.000000
vt 0.000000 0.000000
vt 0.000000 0.000000
vt 0.000000 0.000000
vt 0.000000 0.000000
vt 0.000000 0.000000
vt 0.000000 0.000000
vt 0.000000 0.000000
vt 1.000000 0.000000
vt 1.000000 1.000000
vt 0.000000 1.000000
vt 0.000000 0.000000
vt 1.000000 0.000000
vt 1.000000 1.000000
vt 0.000000 1.000000
vt 0.000000 0.000000
vt 0.000000 0.000000
vt 0.000000 0.000000
vt 0.000000 0.000000
vt 0.000000 0.000000
vt 0.000000 0.000000
vt 0.000000 0.000000
vt 1.000000 0.000000
vt 1.000000 1.000000
vt 0.000000 1.000000
vt 0.000000 0.000000
vt 1.000000 0.000000
vt 1.000000 1.000000
vt 0.000000 1.000000
vt 0.000000 0.000000
vt 0.000000 0.000000
vt 0.000000 0.000000
vt 0.000000 0.000000
vt 0.000000 0.000000
vt 0.000000 0.000000
vt 0.000000 0.000000
vt 1.000000 0.000000
vt 1.000000 1.000000
vt 0.000000 1.000000
vt 0.000000 0.000000
vt 1.000000 0.000000
vt 1.000000 1.000000
vt 0.000000 1.000000
vt 0.000000 0.000000
vt 0.000000 0.000000
vt 0.000000 0.000000
vt 0.000000 0.000000
vt 0.000000 0.000000
vt 0.000000 0.000000
vt 0.000000 0.000000
vt 1.000000 0.000000
vt 1.000000 1.000000
vt 0.000000 1.000000
vt 0.000000 0.000000
vt 1.000000 0.000000
vt 1.000000 1.000000
vt 0.000000 1.000000
vt 0.000000 0.000000
vt 0.000000 0.000000
vt 0.000000 0.000000
vt 0.000000 0.000000
vt 0.000000 0.000000
vt 0.000000 0.000000
vt 0.000000 0.000000
vt 1.000000 0.000000
vt 1.000000 1.000000
vt 0.000000 1.000000
vt 0.000000 0.000000
vt 1.000000 0.000000
vt 1.000000 1.000000
vt 0.000000 1.000000
vt 0.000000 0.000000
vt 0.000000 0.000000
vt 0.000000 0.000000
vt 0.000000 0.000000
vt 0.000000 0.000000
vt 0.000000 0.000000
vt 0.000000 0.000000
vt 1.000000 0.000000
vt 1.000000 1.000000
vt 0.000000 1.000000
vt 0.000000 0.000000
vt 1.000000 0.000000
vt 1.000000 1.000000
vt 0.000000 1.000000
vt 0.000000 0.000000
vt 0.000000 0.000000
vt 0.000000 0.000000
vt 0.000000 0.000000
vt 0.000000 0.000000
vt 0.000000 0.000000
vt 0.000000 0.000000
vt 1.000000 0.000000
vt 1.000000 1.000000
vt 0.000000 1.000000
vt 0.000000 0.000000
vt 1.000000 0.000000
vt 1.000000 1.000000
vt 0.000000 1.000000
vt 0.000000 0.000000
vt 0.000000 0.000000
vt 0.000000 0.000000
vt 0.000000 0.000000
vt 0.000000 0.000000
vt 0.000000 0.000000
vt 0.000000 0.000000
vt 1.000000 0.000000
vt 1.000000 1.000000
vt 0.000000 1.000000
vt 0.000000 0.000000
vt 1.000000 0.000000
vt 1.000000 1.000000
vt 0.000000 1.000000
vt 0.000000 0.000000
vt 0.000000 0.000000
vt 0.000000 0.000000
vt 0.000000 0.000000
vt 0.000000 0.000000
vt 0.000000 0.000000
vt 0.000000 0.000000
vt 1.000000 0.000000
vt 1.000000 1.000000
vt 0.000000 1.000000
vt 0.000000 0.000000
vt 1.000000 0.000000
vt 1.000000 1.000000
vt 0.000000 1.000000
vt 0.000000 0.000000
vt 0.000000 0.000000
vt 0.000000 0.000000
vt 0.000000 0.000000
vt 0.000000 0.000000
vt 0.000000 0.000000
vt 0.000000 0.000000
vt 1.000000 0.000000
vt 1.000000 1.000000
vt 0.000000 1.000000
vt 0.000000 0.000000
vt 1.000000 0.000000
vt 1.000000 1.000000
vt 0.000000 1.000000
vt 0.000000 0.000000
vt 0.000000 0.000000
vt 0.000000 0.000000
vt 0.000000 0.000000
vt 0.000000 0.000000
vt 0.000000 0.000000
vt 0.000000 0.000000
vt 1.000000 0.000000
vt 1.000000 1.000000
vt 0.000000 1.000000
vt 0.000000 0.000000
vt 1.000000 0.000000
vt 1.000000 1.000000
vt 0.000000 1.000000
vt 0.000000 0.000000
vt 0.000000 0.000000
vt 0.000000 0.000000
vt 0.000000 0.000000
vt 0.000000 0.000000
vt 0.000000 0.000000
vt 0.000000 0.000000
vt 1.000000 0.000000
vt 1.000000 1.000000
vt 0.000000 1.000000
vt 0.000000 0.000000
vt 1.000000 0.000000
vt 1.000000 1.000000
vt 0.000000 1.000000
vt 0.000000 0.000000
vt 0.000000 0.000000
vt 0.000000 0.000000
vt 0.000000 0.000000
vt 0.000000 0.000000
vt 0.000000 0.000000
vt 0.000000 0.000000
vt 1.000000 0.000000
vt 1.000000 1.000000
vt 0.000000 1.000000
vt 0.000000 0.000000
vt 1.000000 0.000000
vt 1.000000 1.000000
vt 0.000000 1.000000
vt 0.000000 0.000000
vt 0.000000 0.000000
vt 0.000000 0.000000
vt 0.000000 0.000000
vt 0.000000 0.000000
vt 0.000000 0.000000
vt 0.000000 0.000000
vt 1.000000 0.000000
vt 1.000000 1.000000
vt 0.000000 1.000000
vt 0.000000 0.000000
vt 1.000000 0.000000
vt 1.000000 1.000000
vt 0.000000 1.000000
vt 0.000000 0.000000
vt 0.000000 0.000000
vt 0.000000 0.000000
vt 0.000000 0.000000
vt 0.000000 0.000000
vt 0.000000 0.000000
vt 0.000000 0.000000
vt 1.000000 0.000000
vt 1.000000 1.000000
vt 0.000000 1.000000
vt 0.000000 0.000000
vt 1.000000 0.000000
vt 1.000000 1.000000
vt 0.000000 1.000000
vt 0.000000 0.000000
vt 0.000000 0.000000
vt 0.000000 0.000000
vt 0.000000 0.000000
vt 0.000000 0.000000
vt 0.000000 0.000000
vt 0.000000 0.000000
vt 1.000000 0.000000
vt 1.000000 1.000000
vt 0.000000 1.000000
vt 0.000000 0.000000
vt 1.000000 0.000000
vt 1.000000 1.000000
vt 0.000000 1.000000
vt 0.000000 0.000000
vt 0.000000 0.000000
vt 0.000000 0.000000
vt 0.000000 0.000000
vt 0.000000 0.000000
vt 0.000000 0.000000
vt 0.000000 0.000000
vt 1.000000 0.000000
vt 1.000000 1.000000
vt 0.000000 1.000000
vt 0.000000 0.000000
vt 1.000000 0.000000
vt 1.000000 1.000000
vt 0.000000 1.000000
vt 0.000000 0.000000
vt 0.000000 0.000000
vt 0.000000 0.000000
vt 0.000000 0.000000
vt 0.000000 0.000000
vt 0.000000 0.000000
vt 0.000000 0.000000
vt 1.000000 0.000000
vt 1.000000 1.000000
vt 0.000000 1.000000
vt 0.000000 0.000000
vt 1.000000 0.000000
vt 1.000000 1.000000
vt 0.000000 1.000000
vt 0.000000 0.000000
vt 0.000000 0.000000
vt 0.000000 0.000000
vt 0.000000 0.000000
vt 0.000000 0.000000
vt 0.000000 0.000000
vt 0.000000 0.000000
vt 1.000000 0.000000
vt 1.000000 1.000000
vt 0.000000 1.000000
vt 0.000000 0.000000
vt 1.000000 0.000000
vt 1.000000 1.000000
vt 0.000000 1.000000
vt 0.000000 0.000000
vt 0.000000 0.000000
vt 0.000000 0.000000
vt 0.000000 0.000000
vt 0.000000 0.000000
vt 0.000000 0.000000
vt 0.000000 0.000000
vt 1.000000 0.000000
vt 1.000000 1.000000
vt 0.000000 1.000000
vt 0.000000 0.000000
vt 1.000000 0.000000
vt 1.000000 1.000000
vt 0.000000 1.000000
vt 0.000000 0.000000
vt 0.000000 0.000000
vt 0.000000 0.000000
vt 0.000000 0.000000
vt 0.000000 0.000000
vt 0.000000 0.000000
vt 0.000000 0.000000
vt 1.000000 0.000000
vt 1.000000 1.000000
vt 0.000000 1.000000
vt 0.000000 0.000000
vt 1.000000 0.000000
vt 1.000000 1.000000
vt 0.000000 1.000000
vt 0.000000 0.000000
vt 0.000000 0.000000
vt 0.000000 0.000000
vt 0.000000 0.000000
vt 0.000000 0.000000
vt 0.000000 0.000000
vt 0.000000 0.000000
vt 1.000000 0.000000
vt 1.000000 1.000000
vt 0.000000 1.000000
vt 0.000000 0.000000
vt 1.000000 0.000000
vt 1.000000 1.000000
vt 0.000000 1.000000
vt 0.000000 0.000000
vt 0.000000 0.000000
vt 0.000000 0.000000
vt 0.000000 0.000000
vt 0.000000 0.000000
vt 0.000000 0.000000
vt 0.000000 0.000000
vt 1.000000 0.000000
vt 1.000000 1.000000
vt 0.000000 1.000000
vt 0.000000 0.000000
vt 1.000000 0.000000
vt 1.000000 1.000000
vt 0.000000 1.000000
vt 0.000000 0.000000
vt 0.000000 0.000000
vt 0.000000 0.000000
vt 0.000000 0.000000
vt 0.000000 0.000000
vt 0.000000 0.000000
vt 0.000000 0.000000
vt 1.000000 0.000000
vt 1.000000 1.000000
vt 0.000000 1.000000
vt 0.000000 0.000000
vt 1.000000 0.000000
vt 1.000000 1.000000
vt 0.000000 1.000000
vt 0.000000 0.000000
vt 0.000000 0.000000
vt 0.000000 0.000000
vt 0.000000 0.000000
vt 0.000000 0.000000
vt 0.000000 0.000000
vt 0.000000 0.000000
vt 1.000000 0.000000
vt 1.000000 1.000000
vt 0.000000 1.000000
vt 0.000000 0.000000
vt 1.000000 0.000000
vt 1.000000 1.000000
vt 0.000000 1.000000
vt 0.000000 0.000000
vt 0.000000 0.000000
vt 0.000000 0.000000
vt 0.000000 0.000000
vt 0.000000 0.000000
vt 0.000000 0.000000
vt 0.000000 0.000000
vt 1.000000 0.000000
vt 1.000000 1.000000
vt 0.000000 1.000000
vt 0.000000 0.000000
vt 1.000000 0.000000
vt 1.000000 1.000000
vt 0.000000 1.000000
vt 0.000000 0.000000
vt 0.000000 0.000000
vt 0.000000 0.000000
vt 0.000000 0.000000
vt 0.000000 0.000000
vt 0.000000 0.000000
vt 0.000000 0.000000
vt 1.000000 0.000000
vt 1.000000 1.000000
vt 0.000000 1.000000
vt 0.000000 0.000000
vt 1.000000 0.000000
vt 1.000000 1.000000
vt 0.000000 1.000000
vt 0.000000 0.000000
vt 0.000000 0.000000
vt 0.000000 0.000000
vt 0.000000 0.000000
vt 0.000000 0.000000
vt 0.000000 0.000000
vt 0.000000 0.000000
vt 1.000000 0.000000
vt 1.000000 1.000000
vt 0.000000 1.000000
vt 0.000000 0.000000
vt 1.000000 0.000000
vt 1.000000 1.000000
vt 0.000000 1.000000
vt 0.000000 0.000000
vt 0.000000 0.000000
vt 0.000000 0.000000
vt 0.000000 0.000000
vt 0.000000 0.000000
vt 0.000000 0.000000
vt 0.000000 0.000000
vt 1.000000 0.000000
vt 1.000000 1.000000
vt 0.000000 1.000000
vt 0.000000 0.000000
vt 1.000000 0.000000
vt 1.000000 1.000000
vt 0.000000 1.000000
vt 0.000000 0.000000
vt 0.000000 0.000000
vt 0.000000 0.000000
vt 0.000000 0.000000
vt 0.000000 0.000000
vt 0.000000 0.000000
vt 0.000000 0.000000
vt 1.000000 0.000000
vt 1.000000 1.000000
vt 0.000000 1.000000
vt 0.000000 0.000000
vt 1.000000 0.000000
vt 1.000000 1.000000
vt 0.000000 1.000000
vt 0.000000 0.000000
vt 0.000000 0.000000
vt 0.000000 0.000000
vt 0.000000 0.000000
vt 0.000000 0.000000
vt 0.000000 0.000000
vt 0.000000 0.000000
vt 1.000000 0.000000
vt 1.000000 1.000000
vt 0.000000 1.000000
vt 0.000000 0.000000
vt 1.000000 0.000000
vt 1.000000 1.000000
vt 0.000000 1.000000
vt 0.000000 0.000000
vt 0.000000 0.000000
vt 0.000000 0.000000
vt 0.000000 0.000000
vt 0.000000 0.000000
vt 0.000000 0.000000
vt 0.000000 0.000000
vt 1.000000 0.000000
vt 1.000000 1.000000
vt 0.000000 1.000000
vt 0.000000 0.000000
vt 1.000000 0.000000
vt 1.000000 1.000000
vt 0.000000 1.000000
vt 0.000000 0.000000
vt 0.000000 0.000000
vt 0.000000 0.000000
vt 0.000000 0.000000
vt 0.000000 0.000000
vt 0.000000 0.000000
vt 0.000000 0.000000
vt 1.000000 0.000000
vt 1.000000 1.000000
vt 0.000000 1.000000
vt 0.000000 0.000000
vt 1.000000 0.000000
vt 1.000000 1.000000
vt 0.000000 1.000000
vt 0.000000 0.000000
vt 0.000000 0.000000
vt 0.000000 0.000000
vt 0.000000 0.000000
vt 0.000000 0.000000
vt 0.000000 0.000000
vt 0.000000 0.000000
vt 1.000000 0.000000
vt 1.000000 1.000000
vt 0.000000 1.000000
vt 0.000000 0.000000
vt 1.000000 0.000000
vt 1.000000 1.000000
vt 0.000000 1.000000
vt 0.000000 0.000000
vt 0.000000 0.000000
vt 0.000000 0.000000
vt 0.000000 0.000000
vt 0.000000 0.000000
vt 0.000000 0.000000
vt 0.000000 0.000000
vt 1.000000 0.000000
vt 1.000000 1.000000
vt 0.000000 1.000000
vt 0.000000 0.000000
vt 1.000000 0.000000
vt 1.000000 1.000000
vt 0.000000 1.000000
vt 0.000000 0.000000
vt 0.000000 0.000000
vt 0.000000 0.000000
vt 0.000000 0.000000
vt 0.000000 0.000000
vt 0.000000 0.000000
vt 0.000000 0.000000
vt 1.000000 0.000000
vt 1.000000 1.000000
vt 0.000000 1.000000
vt 0.000000 0.000000
vt 1.000000 0.000000
vt 1.000000 1.000000
vt 0.000000 1.000000
vt 0.000000 0.000000
vt 0.000000 0.000000
vt 0.000000 0.000000
vt 0.000000 0.000000
vt 0.000000 0.000000
vt 0.000000 0.000000
vt 0.000000 0.000000
vt 1.000000 0.000000
vt 1.000000 1.000000
vt 0.000000 1.000000
vt 0.000000 0.000000
vt 1.000000 0.000000
vt 1.000000 1.000000
vt 0.000000 1.000000
vt 0.000000 0.000000
vt 0.000000 0.000000
vt 0.000000 0.000000
vt 0.000000 0.000000
vt 0.000000 0.000000
vt 0.000000 0.000000
vt 0.000000 0.000000
vt 1.000000 0.000000
vt 1.000000 1.000000
vt 0.000000 1.000000
vt 0.000000 0.000000
vt 1.000000 0.000000
vt 1.000000 1.000000
vt 0.000000 1.000000
vt 0.000000 0.000000
vt 0.000000 0.000000
vt 0.000000 0.000000
usemtl Stone
f 1/1 2/2 3/3
f 4/4 5/5 6/6
f 4/4 6/6 7/7
f 8/8 9/9 10/10
f 8/8 10/10 11/11
f 12/12 13/13 14/14
f 15/15 16/16 17/17
f 18/18 19/19 20/20
f 18/18 20/20 21/21
f 22/22 23/23 24/24
f 22/22 24/24 25/25
f 26/26 27/27 28/28
f 29/29 30/30 31/31
f 32/32 33/33 34/34
f 32/32 34/34 35/35
f 36/36 37/37 38/38
f 36/36 38/38 39/39
f 40/40 41/41 42/42
f 43/43 44/44 45/45
f 46/46 47/47 48/48
f 46/46 48/48 49/49
f 50/50 51/51 52/52
f 50/50 52/52 53/53
f 54/54 55/55 56/56
f 57/57 58/58 59/59
f 60/60 61/61 62/62
f 60/60 62/62 63/63
f 64/64 65/65 66/66
f 64/64 66/66 67/67
f 68/68 69/69 70/70
f 71/71 72/72 73/73
f 74/74 75/75 76/76
f 74/74 76/76 77/77
f 78/78 79/79 80/80
f 78/78 80/80 81/81
f 82/82 83/83 84/84
f 85/85 86/86 87/87
f 88/88 89/89 90/90
f 88/88 90/90 91/91
f 92/92 93/93 94/94
f 92/92 94/94 95/95
f 96/96 97/97 98/98
f 99/99 100/100 101/101
f 102/102 103/103 104/104
f 102/102 104/104 105/105
f 106/106 107/107 108/108
f 106/106 108/108 109/109
f 110/110 111/111 112/112
f 113/113 114/114 115/115
f 116/116 117/117 118/118
f 116/116 118/118 119/119
f 120/120 121/121 122/122
f 120/120 122/122 123/123
f 124/124 125/125 126/126
f 127/127 128/128 129/129
f 130/130 131/131 132/132
f 130/130 132/132 133/133
f 134/134 135/135 136/136
f 134/134 136/136 137/137
f 138/138 139/139 140/140
f 141/141 142/142 143/143
f 144/144 145/145 146/146
f 144/144 146/146 147/147
f 148/148 149/149 150/150
f 148/148 150/150 151/151
f 152/152 153/153 154/154
f 155/155 156/156 157/157
f 158/158 159/159 160/160
f 158/158 160/160 161/161
f 162/162 163/163 164/164
f 162/162 164/164 165/165
f 166/166 167/167 168/168
f 169/169 170/170 171/171
f 172/172 173/173 174/174
f 172/172 174/174 175/175
f 176/176 177/177 178/178
f 176/176 178/178 179/179
f 180/180 181/181 182/182
f 183/183 184/184 185/185
f 186/186 187/187 188/188
f 186/186 188/188 189/189
f 190/190 191/191 192/192
f 190/190 192/192 193/193
f 194/194 195/195 196/196
f 197/197 198/198 199/199
f 200/200 201/201 202/202
f 200/200 202/202 203/203
f 204/204 205/205 206/206
f 204/204 206/206 207/207
f 208/208 209/209 210/210
f 211/211 212/212 213/213
f 214/214 215/215 216/216
f 214/214 216/216 217/217
f 218/218 219/219 220/220
f 218/218 220/220 221/221
f 222/222 223/223 224/224
f 225/225 226/226 227/227
f 228/228 229/229 230/230
f 228/228 230/230 231/231
f 232/232 233/233 234/234
f 232/232 234/234 235/235
f 236/236 237/237 238/238
f 239/239 240/240 241/241
f 242/242 243/243 244/244
f 242/242 244/244 245/245
f 246/246 247/247 248/248
f 246/246 248/248 249/249
f 250/250 251/251 252/252
f 253/253 254/254 255/255
f 256/256 257/257 258/258
f 256/256 258/258 259/259
f 260/260 261/261 262/262
f 260/260 262/262 263/263
f 264/264 265/265 266/266
f 267/267 268/268 269/269
f 270/270 271/271 272/272
f 270/270 272/272 273/273
f 274/274 275/275 276/276
f 274/274 276/276 277/277
f 278/278 279/279 280/280
f 281/281 282/282 283/283
f 284/284 285/285 286/286
f 284/284 286/286 287/287
f 288/288 289/289 290/290
f 288/288 290/290 291/291
f 292/292 293/293 294/294
f 295/295 296/296 297/297
f 298/298 299/299 300/300
f 298/298 300/300 301/301
f 302/302 303/303 304/304
f 302/302 304/304 305/305
f 306/306 307/307 308/308
f 309/309 310/310 311/311
f 312/312 313/313 314/314
f 312/312 314/314 315/315
f 316/316 317/317 318/318
f 316/316 318/318 319/319
f 320/320 321/321 322/322
f 323/323 324/324 325/325
f 326/326 327/327 328/328
f 326/326 328/328 329/329
f 330/330 331/331 332/332
f 330/330 332/332 333/333
f 334/334 335/335 336/336
f 337/337 338/338 339/339
f 340/340 341/341 342/342
f 340/340 342/342 343/343
f 344/344 345/345 346/346
f 344/344 346/346 347/347
f 348/348 349/349 350/350
f 351/351 352/352 353/353
f 354/354 355/355 356/356
f 354/354 356/356 357/357
f 358/358 359/359 360/360
f 358/358 360/360 361/361
f 362/362 363/363 364/364
f 365/365 366/366 367/367
f 368/368 369/369 370/370
f 368/368 370/370 371/371
f 372/372 373/373 374/374
f 372/372 374/374 375/375
f 376/376 377/377 378/378
f 379/379 380/380 381/381
f 382/382 383/383 384/384
f 382/382 384/384 385/385
f 386/386 387/387 388/388
f 386/386 388/388 389/389
f 390/390 391/391 392/392
f 393/393 394/394 395/395
f 396/396 397/397 398/398
f 396/396 398/398 399/399
f 400/400 401/401 402/402
f 400/400 402/402 403/403
f 404/404 405/405 406/406
f 407/407 408/408 409/409
f 410/410 411/411 412/412
f 410/410 412/412 413/413
f 414/414 415/415 416/416
f 414/414 416/416 417/417
f 418/418 419/419 420/420
f 421/421 422/422 423/423
f 424/424 425/425 426/426
f 424/424 426/426 427/427
f 428/428 429/429 430/430
f 428/428 430/430 431/431
f 432/432 433/433 434/434
f 435/435 436/436 437/437
f 438/438 439/439 440/440
f 438/438 440/440 441/441
f 442/442 443/443 444/444
f 442/442 444/444 445/445
f 446/446 447/447 448/448
f 449/449 450/450 451/451
f 452/452 453/453 454/454
f 452/452 454/454 455/455
f 456/456 457/457 458/458
f 456/456 458/458 459/459
f 460/460 461/461 462/462
f 463/463 464/464 465/465
f 466/466 467/467 468/468
f 466/466 468/468 469/469
f 470/470 471/471 472/472
f 470/470 472/472 473/473
f 474/474 475/475 476/476
f 477/477 478/478 479/479
f 480/480 481/481 482/482
f 480/480 482/482 483/483
f 484/484 485/485 486/486
f 484/484 486/486 487/487
f 488/488 489/489 490/490
f 491/491 492/492 493/493
f 494/494 495/495 496/496
f 494/494 496/496 497/497
f 498/498 499/499 500/500
f 498/498 500/500 501/501
f 502/502 503/503 504/504
f 505/505 506/506 507/507
f 508/508 509/509 510/510
f 508/508 510/510 511/511
f 512/512 513/513 514/514
f 512/512 514/514 515/515
f 516/516 517/517 518/518
f 519/519 520/520 521/521
f 522/522 523/523 524/524
f 522/522 524/524 525/525
f 526/526 527/527 528/528
f 526/526 528/528 529/529
f 530/530 531/531 532/532
f 533/533 534/534 535/535
f 536/536 537/537 538/538
f 536/536 538/538 539/539
f 540/540 541/541 542/542
f 540/540 542/542 543/543
f 544/544 545/545 546/546
f 547/547 548/548 549/549
f 550/550 551/551 552/552
f 550/550 552/552 553/553
f 554/554 555/555 556/556
f 554/554 556/556 557/557
f 558/558 559/559 560/560
f 561/561 562/562 563/563
f 564/564 565/565 566/566
f 564/564 566/566 567/567
f 568/568 569/569 570/570
f 568/568 570/570 571/571
f 572/572 573/573 574/574
f 575/575 576/576 577/577
f 578/578 579/579 580/580
f 578/578 580/580 581/581
f 582/582 583/583 584/584
f 582/582 584/584 585/585
f 586/586 587/587 588/588
f 589/589 590/590 591/591
f 592/592 593/593 594/594
f 592/592 594/594 595/595
f 596/596 597/597 598/598
f 596/596 598/598 599/599
f 600/600 601/601 602/602
f 603/603 604/604 605/605
f 606/606 607/607 608/608
f 606/606 608/608 609/609
f 610/610 611/611 612/612
f 610/610 612/612 613/613
f 614/614 615/615 616/616
f 617/617 618/618 619/619
f 620/620 621/621 622/622
f 620/620 622/622 623/623
f 624/624 625/625 626/626
f 624/624 626/626 627/627
f 628/628 629/629 630/630
f 631/631 632/632 633/633
f 634/634 635/635 636/636
f 634/634 636/636 637/637
f 638/638 639/639 640/640
f 638/638 640/640 641/641
f 642/642 643/643 644/644
f 645/645 646/646 647/647
f 648/648 649/649 650/650
f 648/648 650/650 651/651
f 652/652 653/653 654/654
f 652/652 654/654 655/655
f 656/656 657/657 658/658
f 659/659 660/660 661/661
f 662/662 663/663 664/664
f 662/662 664/664 665/665
f 666/666 667/667 668/668
f 666/666 668/668 669/669
f 670/670 671/671 672/672
f 673/673 674/674 675/675
f 676/676 677/677 678/678
f 676/676 678/678 679/679
f 680/680 681/681 682/682
f 680/680 682/682 683/683
f 684/684 685/685 686/686
f 687/687 688/688 689/689
f 690/690 691/691 692/692
f 690/690 692/692 693/693
f 694/694 695/695 696/696
f 694/694 696/696 697/697
f 698/698 699/699 700/700
f 701/701 702/702 703/703
f 704/704 705/705 706/706
f 704/704 706/706 707/707
f 708/708 709/709 710/710
f 708/708 710/710 711/711
f 712/712 713/713 714/714
f 715/715 716/716 717/717
f 718/718 719/719 720/720
f 718/718 720/720 721/721
f 722/722 723/723 724/724
f 722/722 724/724 725/725
f 726/726 727/727 728/728
f 729/729 730/730 731/731
f 732/732 733/733 734/734
f 732/732 734/734 735/735
f 736/736 737/737 738/738
f 736/736 738/738 739/739
f 740/740 741/741 742/742
f 743/743 744/744 745/745
f 746/746 747/747 748/748
f 746/746 748/748 749/749
f 750/750 751/751 752/752
f 750/750 752/752 753/753
f 754/754 755/755 756/756
f 757/757 758/758 759/759
f 760/760 761/761 762/762
f 760/760 762/762 763/763
f 764/764 765/765 766/766
f 764/764 766/766 767/767
f 768/768 769/769 770/770
f 771/771 772/772 773/773
f 774/774 775/775 776/776
f 774/774 776/776 777/777
f 778/778 779/779 780/780
f 778/778 780/780 781/781
f 782/782 783/783 784/784
