mtllib ../../Materials/project_oen.mtl
o en-010_vine_cluster_set__hanging
v -0.128926 0.288296 -0.244701
v -0.141234 0.283112 0.161326
v 0.006290 0.320776 0.537961
v 0.018598 0.325960 0.131935
v 0.018598 0.325960 0.131935
v 0.006290 0.320776 0.537961
v -0.141234 0.283112 0.161326
v -0.128926 0.288296 -0.244701
v -0.288768 0.300819 -0.396523
v -0.445738 0.320755 -0.024260
v -0.409608 0.292048 0.377596
v -0.252638 0.272112 0.005332
v -0.252638 0.272112 0.005332
v -0.409608 0.292048 0.377596
v -0.445738 0.320755 -0.024260
v -0.288768 0.300819 -0.396523
v 0.714870 0.107646 -0.112165
v 0.370393 0.046370 0.025024
v 0.090970 -0.004229 0.271201
v 0.435447 0.057047 0.134012
v 0.435447 0.057047 0.134012
v 0.090970 -0.004229 0.271201
v 0.370393 0.046370 0.025024
v 0.714870 0.107646 -0.112165
v -0.296196 0.401812 -0.357404
v -0.579731 0.381195 -0.005106
v -0.701966 0.315480 0.425788
v -0.418432 0.336097 0.073491
v -0.418432 0.336097 0.073491
v -0.701966 0.315480 0.425788
v -0.579731 0.381195 -0.005106
v -0.296196 0.401812 -0.357404
v -0.223998 0.123777 -0.249975
v 0.242287 0.027416 -0.288211
v 0.658835 0.039387 -0.521694
v 0.192550 0.135748 -0.483458
v 0.192550 0.135748 -0.483458
v 0.658835 0.039387 -0.521694
v 0.242287 0.027416 -0.288211
v -0.223998 0.123777 -0.249975
v -0.088900 0.305314 -0.671131
v 0.022921 0.301696 -0.349446
v 0.264433 0.271619 -0.111192
v 0.152612 0.275237 -0.432876
v 0.152612 0.275237 -0.432876
v 0.264433 0.271619 -0.111192
v 0.022921 0.301696 -0.349446
v -0.088900 0.305314 -0.671131
v -0.069643 0.039744 0.280826
v 0.037686 -0.043360 -0.181540
v -0.010700 0.022435 -0.656448
v -0.118029 0.105539 -0.194082
v -0.118029 0.105539 -0.194082
v -0.010700 0.022435 -0.656448
v 0.037686 -0.043360 -0.181540
v -0.069643 0.039744 0.280826
v -0.205635 0.462504 0.047943
v 0.171507 0.397577 -0.020973
v 0.476857 0.325691 -0.250743
v 0.099715 0.390619 -0.181827
v 0.099715 0.390619 -0.181827
v 0.476857 0.325691 -0.250743
v 0.171507 0.397577 -0.020973
v -0.205635 0.462504 0.047943
v -0.264876 0.346946 -0.558174
v -0.517078 0.438554 -0.368424
v -0.662293 0.452146 -0.073923
v -0.410091 0.360538 -0.263673
v -0.410091 0.360538 -0.263673
v -0.662293 0.452146 -0.073923
v -0.517078 0.438554 -0.368424
v -0.264876 0.346946 -0.558174
v -0.801899 0.162735 0.442802
v -0.435753 0.130839 0.127882
v -0.232021 0.094495 -0.309641
v -0.598167 0.126391 0.005278
v -0.598167 0.126391 0.005278
v -0.232021 0.094495 -0.309641
v -0.435753 0.130839 0.127882
v -0.801899 0.162735 0.442802
vt 0.000000 0.000000
vt 1.000000 0.000000
vt 1.000000 1.000000
vt 0.000000 1.000000
vt 0.000000 0.000000
vt 1.000000 0.000000
vt 1.000000 1.000000
vt 0.000000 1.000000
vt 0.000000 0.000000
vt 1.000000 0.000000
vt 1.000000 1.000000
vt 0.000000 1.000000
vt 0.000000 0.000000
vt 1.000000 0.000000
vt 1.000000 1.000000
vt 0.000000 1.000000
vt 0.000000 0.000000
vt 1.000000 0.000000
vt 1.000000 1.000000
vt 0.000000 1.000000
vt 0.000000 0.000000
vt 1.000000 0.000000
vt 1.000000 1.000000
vt 0.000000 1.000000
vt 0.000000 0.000000
vt 1.000000 0.000000
vt 1.000000 1.000000
vt 0.000000 1.000000
vt 0.000000 0.000000
vt 1.000000 0.000000
vt 1.000000 1.000000
vt 0.000000 1.000000
vt 0.000000 0.000000
vt 1.000000 0.000000
vt 1.000000 1.000000
vt 0.000000 1.000000
vt 0.000000 0.000000
vt 1.000000 0.000000
vt 1.000000 1.000000
vt 0.000000 1.000000
vt 0.000000 0.000000
vt 1.000000 0.000000
vt 1.000000 1.000000
vt 0.000000 1.000000
vt 0.000000 0.000000
vt 1.000000 0.000000
vt 1.000000 1.000000
vt 0.000000 1.000000
vt 0.000000 0.000000
vt 1.000000 0.000000
vt 1.000000 1.000000
vt 0.000000 1.000000
vt 0.000000 0.000000
vt 1.000000 0.000000
vt 1.000000 1.000000
vt 0.000000 1.000000
vt 0.000000 0.000000
vt 1.000000 0.000000
vt 1.000000 1.000000
vt 0.000000 1.000000
vt 0.000000 0.000000
vt 1.000000 0.000000
vt 1.000000 1.000000
vt 0.000000 1.000000
vt 0.000000 0.000000
vt 1.000000 0.000000
vt 1.000000 1.000000
vt 0.000000 1.000000
vt 0.000000 0.000000
vt 1.000000 0.000000
vt 1.000000 1.000000
vt 0.000000 1.000000
vt 0.000000 0.000000
vt 1.000000 0.000000
vt 1.000000 1.000000
vt 0.000000 1.000000
vt 0.000000 0.000000
vt 1.000000 0.000000
vt 1.000000 1.000000
vt 0.000000 1.000000
usemtl Leaf
f 1/1 2/2 3/3
f 1/1 3/3 4/4
f 5/5 6/6 7/7
f 5/5 7/7 8/8
f 9/9 10/10 11/11
f 9/9 11/11 12/12
f 13/13 14/14 15/15
f 13/13 15/15 16/16
f 17/17 18/18 19/19
f 17/17 19/19 20/20
f 21/21 22/22 23/23
f 21/21 23/23 24/24
f 25/25 26/26 27/27
f 25/25 27/27 28/28
f 29/29 30/30 31/31
f 29/29 31/31 32/32
f 33/33 34/34 35/35
f 33/33 35/35 36/36
f 37/37 38/38 39/39
f 37/37 39/39 40/40
f 41/41 42/42 43/43
f 41/41 43/43 44/44
f 45/45 46/46 47/47
f 45/45 47/47 48/48
f 49/49 50/50 51/51
f 49/49 51/51 52/52
f 53/53 54/54 55/55
f 53/53 55/55 56/56
f 57/57 58/58 59/59
f 57/57 59/59 60/60
f 61/61 62/62 63/63
f 61/61 63/63 64/64
f 65/65 66/66 67/67
f 65/65 67/67 68/68
f 69/69 70/70 71/71
f 69/69 71/71 72/72
f 73/73 74/74 75/75
f 73/73 75/75 76/76
f 77/77 78/78 79/79
f 77/77 79/79 80/80
