mtllib ../../Materials/project_oen.mtl
o en-002_broken_plank_pile__small
v -0.696869 0.045977 -0.433569
v 0.030907 -0.004914 0.058520
v 0.035441 0.059927 0.058520
v -0.692335 0.110818 -0.433569
v -0.027665 -0.000818 0.145569
v -0.755441 0.050073 -0.346520
v -0.750907 0.114914 -0.346520
v -0.023131 0.064023 0.145569
v -0.755441 0.050073 -0.346520
v -0.696869 0.045977 -0.433569
v -0.692335 0.110818 -0.433569
v -0.750907 0.114914 -0.346520
v 0.030907 -0.004914 0.058520
v -0.027665 -0.000818 0.145569
v -0.023131 0.064023 0.145569
v 0.035441 0.059927 0.058520
v -0.692335 0.110818 -0.433569
v 0.035441 0.059927 0.058520
v -0.023131 0.064023 0.145569
v -0.750907 0.114914 -0.346520
v -0.755441 0.050073 -0.346520
v -0.027665 -0.000818 0.145569
v 0.030907 -0.004914 0.058520
v -0.696869 0.045977 -0.433569
v -0.219171 0.063663 -0.174000
v -0.223538 0.062574 -0.166206
v -0.247730 0.159603 -0.166206
v -0.243363 0.160692 -0.174000
v -0.223538 0.062574 -0.166206
v -0.232270 0.060397 -0.166206
v -0.256462 0.157426 -0.166206
v -0.247730 0.159603 -0.166206
v -0.232270 0.060397 -0.166206
v -0.236637 0.059308 -0.174000
v -0.260829 0.156337 -0.174000
v -0.256462 0.157426 -0.166206
v -0.236637 0.059308 -0.174000
v -0.232270 0.060397 -0.181794
v -0.256462 0.157426 -0.181794
v -0.260829 0.156337 -0.174000
v -0.232270 0.060397 -0.181794
v -0.223538 0.062574 -0.181794
v -0.247730 0.159603 -0.181794
v -0.256462 0.157426 -0.181794
v -0.223538 0.062574 -0.181794
v -0.219171 0.063663 -0.174000
v -0.243363 0.160692 -0.174000
v -0.247730 0.159603 -0.181794
v -0.227904 0.061485 -0.174000
v -0.223538 0.062574 -0.166206
v -0.219171 0.063663 -0.174000
v -0.252096 0.158515 -0.174000
v -0.243363 0.160692 -0.174000
v -0.247730 0.159603 -0.166206
v -0.227904 0.061485 -0.174000
v -0.232270 0.060397 -0.166206
v -0.223538 0.062574 -0.166206
v -0.252096 0.158515 -0.174000
v -0.247730 0.159603 -0.166206
v -0.256462 0.157426 -0.166206
v -0.227904 0.061485 -0.174000
v -0.236637 0.059308 -0.174000
v -0.232270 0.060397 -0.166206
v -0.252096 0.158515 -0.174000
v -0.256462 0.157426 -0.166206
v -0.260829 0.156337 -0.174000
v -0.227904 0.061485 -0.174000
v -0.232270 0.060397 -0.181794
v -0.236637 0.059308 -0.174000
v -0.252096 0.158515 -0.174000
v -0.260829 0.156337 -0.174000
v -0.256462 0.157426 -0.181794
v -0.227904 0.061485 -0.174000
v -0.223538 0.062574 -0.181794
v -0.232270 0.060397 -0.181794
v -0.252096 0.158515 -0.174000
v -0.256462 0.157426 -0.181794
v -0.247730 0.159603 -0.181794
v -0.227904 0.061485 -0.174000
v -0.219171 0.063663 -0.174000
v -0.223538 0.062574 -0.181794
v -0.252096 0.158515 -0.174000
v -0.247730 0.159603 -0.181794
v -0.243363 0.160692 -0.174000
v -0.710110 0.022500 -0.052311
v 0.527340 0.022500 -0.337998
v 0.527340 0.087500 -0.337998
v -0.710110 0.087500 -0.052311
v 0.550960 0.022500 -0.235689
v -0.686490 0.022500 0.049998
v -0.686490 0.087500 0.049998
v 0.550960 0.087500 -0.235689
v -0.686490 0.022500 0.049998
v -0.710110 0.022500 -0.052311
v -0.710110 0.087500 -0.052311
v -0.686490 0.087500 0.049998
v 0.527340 0.022500 -0.337998
v 0.550960 0.022500 -0.235689
v 0.550960 0.087500 -0.235689
v 0.527340 0.087500 -0.337998
v -0.710110 0.087500 -0.052311
v 0.527340 0.087500 -0.337998
v 0.550960 0.087500 -0.235689
v -0.686490 0.087500 0.049998
v -0.686490 0.022500 0.049998
v 0.550960 0.022500 -0.235689
v 0.527340 0.022500 -0.337998
v -0.710110 0.022500 -0.052311
v -0.404390 -0.010921 -0.308755
v 0.577326 0.057727 -0.081554
v 0.572792 0.122569 -0.081554
v -0.408924 0.053920 -0.308755
v 0.553764 0.056080 0.020755
v -0.427952 -0.012569 -0.206446
v -0.432487 0.052273 -0.206446
v 0.549230 0.120921 0.020755
v -0.427952 -0.012569 -0.206446
v -0.404390 -0.010921 -0.308755
v -0.408924 0.053920 -0.308755
v -0.432487 0.052273 -0.206446
v 0.577326 0.057727 -0.081554
v 0.553764 0.056080 0.020755
v 0.549230 0.120921 0.020755
v 0.572792 0.122569 -0.081554
v -0.408924 0.053920 -0.308755
v 0.572792 0.122569 -0.081554
v 0.549230 0.120921 0.020755
v -0.432487 0.052273 -0.206446
v -0.427952 -0.012569 -0.206446
v 0.553764 0.056080 0.020755
v 0.577326 0.057727 -0.081554
v -0.404390 -0.010921 -0.308755
v -0.234889 0.065109 0.203911
v 0.922937 -0.015854 -0.578960
v 0.927471 0.048987 -0.578960
v -0.230355 0.129950 0.203911
v 0.981509 -0.019950 -0.491911
v -0.176317 0.061013 0.290960
v -0.171782 0.125854 0.290960
v 0.986043 0.044891 -0.491911
v -0.176317 0.061013 0.290960
v -0.234889 0.065109 0.203911
v -0.230355 0.129950 0.203911
v -0.171782 0.125854 0.290960
v 0.922937 -0.015854 -0.578960
v 0.981509 -0.019950 -0.491911
v 0.986043 0.044891 -0.491911
v 0.927471 0.048987 -0.578960
v -0.230355 0.129950 0.203911
v 0.927471 0.048987 -0.578960
v 0.986043 0.044891 -0.491911
v -0.171782 0.125854 0.290960
v -0.176317 0.061013 0.290960
v 0.981509 -0.019950 -0.491911
v 0.922937 -0.015854 -0.578960
v -0.234889 0.065109 0.203911
v 0.527689 0.070632 -0.174000
v 0.523753 0.068451 -0.166206
v 0.475272 0.155913 -0.166206
v 0.479208 0.158094 -0.174000
v 0.523753 0.068451 -0.166206
v 0.515882 0.064087 -0.166206
v 0.467401 0.151549 -0.166206
v 0.475272 0.155913 -0.166206
v 0.515882 0.064087 -0.166206
v 0.511946 0.061906 -0.174000
v 0.463465 0.149368 -0.174000
v 0.467401 0.151549 -0.166206
v 0.511946 0.061906 -0.174000
v 0.515882 0.064087 -0.181794
v 0.467401 0.151549 -0.181794
v 0.463465 0.149368 -0.174000
v 0.515882 0.064087 -0.181794
v 0.523753 0.068451 -0.181794
v 0.475272 0.155913 -0.181794
v 0.467401 0.151549 -0.181794
v 0.523753 0.068451 -0.181794
v 0.527689 0.070632 -0.174000
v 0.479208 0.158094 -0.174000
v 0.475272 0.155913 -0.181794
v 0.519818 0.066269 -0.174000
v 0.523753 0.068451 -0.166206
v 0.527689 0.070632 -0.174000
v 0.471337 0.153731 -0.174000
v 0.479208 0.158094 -0.174000
v 0.475272 0.155913 -0.166206
v 0.519818 0.066269 -0.174000
v 0.515882 0.064087 -0.166206
v 0.523753 0.068451 -0.166206
v 0.471337 0.153731 -0.174000
v 0.475272 0.155913 -0.166206
v 0.467401 0.151549 -0.166206
v 0.519818 0.066269 -0.174000
v 0.511946 0.061906 -0.174000
v 0.515882 0.064087 -0.166206
v 0.471337 0.153731 -0.174000
v 0.467401 0.151549 -0.166206
v 0.463465 0.149368 -0.174000
v 0.519818 0.066269 -0.174000
v 0.515882 0.064087 -0.181794
v 0.511946 0.061906 -0.174000
v 0.471337 0.153731 -0.174000
v 0.463465 0.149368 -0.174000
v 0.467401 0.151549 -0.181794
v 0.519818 0.066269 -0.174000
v 0.523753 0.068451 -0.181794
v 0.515882 0.064087 -0.181794
v 0.471337 0.153731 -0.174000
v 0.467401 0.151549 -0.181794
v 0.475272 0.155913 -0.181794
v 0.519818 0.066269 -0.174000
v 0.527689 0.070632 -0.174000
v 0.523753 0.068451 -0.181794
v 0.471337 0.153731 -0.174000
v 0.475272 0.155913 -0.181794
v 0.479208 0.158094 -0.174000
v -0.902514 0.107500 0.063340
v 0.226392 0.107500 -0.095318
v 0.226392 0.172500 -0.095318
v -0.902514 0.172500 0.063340
v 0.241005 0.107500 0.008660
v -0.887900 0.107500 0.167318
v -0.887900 0.172500 0.167318
v 0.241005 0.172500 0.008660
v -0.887900 0.107500 0.167318
v -0.902514 0.107500 0.063340
v -0.902514 0.172500 0.063340
v -0.887900 0.172500 0.167318
v 0.226392 0.107500 -0.095318
v 0.241005 0.107500 0.008660
v 0.241005 0.172500 0.008660
v 0.226392 0.172500 -0.095318
v -0.902514 0.172500 0.063340
v 0.226392 0.172500 -0.095318
v 0.241005 0.172500 0.008660
v -0.887900 0.172500 0.167318
v -0.887900 0.107500 0.167318
v 0.241005 0.107500 0.008660
v 0.226392 0.107500 -0.095318
v -0.902514 0.107500 0.063340
v -0.568994 0.079520 -0.149898
v 0.265897 0.137901 0.122037
v 0.261363 0.202743 0.122037
v -0.573528 0.144362 -0.149898
v 0.233529 0.135638 0.221898
v -0.601362 0.077257 -0.050037
v -0.605896 0.142099 -0.050037
v 0.228995 0.200480 0.221898
v -0.601362 0.077257 -0.050037
v -0.568994 0.079520 -0.149898
v -0.573528 0.144362 -0.149898
v -0.605896 0.142099 -0.050037
v 0.265897 0.137901 0.122037
v 0.233529 0.135638 0.221898
v 0.228995 0.200480 0.221898
v 0.261363 0.202743 0.122037
v -0.573528 0.144362 -0.149898
v 0.261363 0.202743 0.122037
v 0.228995 0.200480 0.221898
v -0.605896 0.142099 -0.050037
v -0.601362 0.077257 -0.050037
v 0.233529 0.135638 0.221898
v 0.265897 0.137901 0.122037
v -0.568994 0.079520 -0.149898
v 0.280000 0.025000 0.000000
v 0.399935 -0.009635 0.095205
v 0.417289 -0.210489 0.258202
v 0.291862 -0.009635 0.152669
v 0.389864 -0.030132 -0.011266
v 0.382833 -0.033052 -0.014392
v 0.312756 -0.164849 0.266343
v 0.319786 -0.161929 0.269469
v 0.382833 -0.033052 -0.014392
v 0.376977 -0.027395 -0.013198
v 0.306900 -0.159192 0.267537
v 0.312756 -0.164849 0.266343
v 0.376977 -0.027395 -0.013198
v 0.380388 -0.020980 -0.009335
v 0.310311 -0.152777 0.271400
v 0.306900 -0.159192 0.267537
v 0.380388 -0.020980 -0.009335
v 0.388353 -0.022671 -0.008141
v 0.318275 -0.154468 0.272594
v 0.310311 -0.152777 0.271400
v 0.388353 -0.022671 -0.008141
v 0.389864 -0.030132 -0.011266
v 0.319786 -0.161929 0.269469
v 0.318275 -0.154468 0.272594
v 0.383683 -0.026846 -0.011266
v 0.382833 -0.033052 -0.014392
v 0.389864 -0.030132 -0.011266
v 0.313605 -0.158643 0.269469
v 0.319786 -0.161929 0.269469
v 0.312756 -0.164849 0.266343
v 0.383683 -0.026846 -0.011266
v 0.376977 -0.027395 -0.013198
v 0.382833 -0.033052 -0.014392
v 0.313605 -0.158643 0.269469
v 0.312756 -0.164849 0.266343
v 0.306900 -0.159192 0.267537
v 0.383683 -0.026846 -0.011266
v 0.380388 -0.020980 -0.009335
v 0.376977 -0.027395 -0.013198
v 0.313605 -0.158643 0.269469
v 0.306900 -0.159192 0.267537
v 0.310311 -0.152777 0.271400
v 0.383683 -0.026846 -0.011266
v 0.388353 -0.022671 -0.008141
v 0.380388 -0.020980 -0.009335
v 0.313605 -0.158643 0.269469
v 0.310311 -0.152777 0.271400
v 0.318275 -0.154468 0.272594
v 0.383683 -0.026846 -0.011266
v 0.389864 -0.030132 -0.011266
v 0.388353 -0.022671 -0.008141
v 0.313605 -0.158643 0.269469
v 0.318275 -0.154468 0.272594
v 0.319786 -0.161929 0.269469
v 0.315000 0.028000 -0.025000
v 0.264600 -0.001573 -0.128146
v 0.315000 -0.176943 -0.239887
v 0.365400 -0.001573 -0.128146
v 0.308000 -0.144044 -0.235589
v 0.312837 -0.138525 -0.239312
v 0.312837 0.000620 -0.033020
v 0.308000 -0.004899 -0.029298
v 0.312837 -0.138525 -0.239312
v 0.320663 -0.140633 -0.237890
v 0.320663 -0.001488 -0.031599
v 0.312837 0.000620 -0.033020
v 0.320663 -0.140633 -0.237890
v 0.320663 -0.147455 -0.233288
v 0.320663 -0.008310 -0.026997
v 0.320663 -0.001488 -0.031599
v 0.320663 -0.147455 -0.233288
v 0.312837 -0.149563 -0.231866
v 0.312837 -0.010418 -0.025575
v 0.320663 -0.008310 -0.026997
v 0.312837 -0.149563 -0.231866
v 0.308000 -0.144044 -0.235589
v 0.308000 -0.004899 -0.029298
v 0.312837 -0.010418 -0.025575
v 0.315000 -0.144044 -0.235589
v 0.312837 -0.138525 -0.239312
v 0.308000 -0.144044 -0.235589
v 0.315000 -0.004899 -0.029298
v 0.308000 -0.004899 -0.029298
v 0.312837 0.000620 -0.033020
v 0.315000 -0.144044 -0.235589
v 0.320663 -0.140633 -0.237890
v 0.312837 -0.138525 -0.239312
v 0.315000 -0.004899 -0.029298
v 0.312837 0.000620 -0.033020
v 0.320663 -0.001488 -0.031599
v 0.315000 -0.144044 -0.235589
v 0.320663 -0.147455 -0.233288
v 0.320663 -0.140633 -0.237890
v 0.315000 -0.004899 -0.029298
v 0.320663 -0.001488 -0.031599
v 0.320663 -0.008310 -0.026997
v 0.315000 -0.144044 -0.235589
v 0.312837 -0.149563 -0.231866
v 0.320663 -0.147455 -0.233288
v 0.315000 -0.004899 -0.029298
v 0.320663 -0.008310 -0.026997
v 0.312837 -0.010418 -0.025575
v 0.315000 -0.144044 -0.235589
v 0.308000 -0.144044 -0.235589
v 0.312837 -0.149563 -0.231866
v 0.315000 -0.004899 -0.029298
v 0.312837 -0.010418 -0.025575
v 0.308000 -0.004899 -0.029298
v -0.188626 0.025000 0.264661
v -0.020377 -0.017927 0.239344
v 0.125227 -0.227766 0.348757
v -0.055576 -0.017927 0.370710
v 0.050214 -0.086681 0.150745
v 0.043285 -0.083530 0.147620
v -0.116919 -0.126457 0.459548
v -0.109989 -0.129607 0.462673
v 0.043285 -0.083530 0.147620
v 0.043428 -0.075390 0.148814
v -0.116776 -0.118316 0.460741
v -0.116919 -0.126457 0.459548
v 0.043428 -0.075390 0.148814
v 0.050446 -0.073509 0.152677
v -0.109758 -0.116436 0.464605
v -0.116776 -0.118316 0.460741
v 0.050446 -0.073509 0.152677
v 0.054640 -0.080488 0.153871
v -0.105563 -0.123414 0.465798
v -0.109758 -0.116436 0.464605
v 0.054640 -0.080488 0.153871
v 0.050214 -0.086681 0.150745
v -0.109989 -0.129607 0.462673
v -0.105563 -0.123414 0.465798
v 0.048403 -0.079920 0.150745
v 0.043285 -0.083530 0.147620
v 0.050214 -0.086681 0.150745
v -0.111801 -0.122846 0.462673
v -0.109989 -0.129607 0.462673
v -0.116919 -0.126457 0.459548
v 0.048403 -0.079920 0.150745
v 0.043428 -0.075390 0.148814
v 0.043285 -0.083530 0.147620
v -0.111801 -0.122846 0.462673
v -0.116919 -0.126457 0.459548
v -0.116776 -0.118316 0.460741
v 0.048403 -0.079920 0.150745
v 0.050446 -0.073509 0.152677
v 0.043428 -0.075390 0.148814
v -0.111801 -0.122846 0.462673
v -0.116776 -0.118316 0.460741
v -0.109758 -0.116436 0.464605
v 0.048403 -0.079920 0.150745
v 0.054640 -0.080488 0.153871
v 0.050446 -0.073509 0.152677
v -0.111801 -0.122846 0.462673
v -0.109758 -0.116436 0.464605
v -0.105563 -0.123414 0.465798
v 0.048403 -0.079920 0.150745
v 0.050214 -0.086681 0.150745
v 0.054640 -0.080488 0.153871
v -0.111801 -0.122846 0.462673
v -0.105563 -0.123414 0.465798
v -0.109989 -0.129607 0.462673
v -0.153626 0.028000 0.239661
v -0.275635 -0.009303 0.202455
v -0.328246 -0.193048 0.076825
v -0.199251 -0.009303 0.120544
v -0.302245 -0.130125 0.043637
v -0.294910 -0.129898 0.039914
v -0.181839 -0.024457 0.269126
v -0.189174 -0.024684 0.272849
v -0.294910 -0.129898 0.039914
v -0.291115 -0.137060 0.041336
v -0.178043 -0.031619 0.270548
v -0.181839 -0.024457 0.269126
v -0.291115 -0.137060 0.041336
v -0.296104 -0.141712 0.045938
v -0.183033 -0.036271 0.275150
v -0.178043 -0.031619 0.270548
v -0.296104 -0.141712 0.045938
v -0.302983 -0.137426 0.047359
v -0.189912 -0.031985 0.276572
v -0.183033 -0.036271 0.275150
v -0.302983 -0.137426 0.047359
v -0.302245 -0.130125 0.043637
v -0.189174 -0.024684 0.272849
v -0.189912 -0.031985 0.276572
v -0.297471 -0.135244 0.043637
v -0.294910 -0.129898 0.039914
v -0.302245 -0.130125 0.043637
v -0.184400 -0.029803 0.272849
v -0.189174 -0.024684 0.272849
v -0.181839 -0.024457 0.269126
v -0.297471 -0.135244 0.043637
v -0.291115 -0.137060 0.041336
v -0.294910 -0.129898 0.039914
v -0.184400 -0.029803 0.272849
v -0.181839 -0.024457 0.269126
v -0.178043 -0.031619 0.270548
v -0.297471 -0.135244 0.043637
v -0.296104 -0.141712 0.045938
v -0.291115 -0.137060 0.041336
v -0.184400 -0.029803 0.272849
v -0.178043 -0.031619 0.270548
v -0.183033 -0.036271 0.275150
v -0.297471 -0.135244 0.043637
v -0.302983 -0.137426 0.047359
v -0.296104 -0.141712 0.045938
v -0.184400 -0.029803 0.272849
v -0.183033 -0.036271 0.275150
v -0.189912 -0.031985 0.276572
v -0.297471 -0.135244 0.043637
v -0.302245 -0.130125 0.043637
v -0.302983 -0.137426 0.047359
v -0.184400 -0.029803 0.272849
v -0.189912 -0.031985 0.276572
v -0.189174 -0.024684 0.272849
v -0.120732 0.025000 -0.349748
v -0.014878 -0.026220 -0.504095
v 0.182375 -0.245042 -0.539150
v 0.064397 -0.026220 -0.377227
v 0.104471 -0.164297 -0.616010
v 0.102050 -0.157080 -0.619135
v -0.052669 -0.060401 -0.276015
v -0.050247 -0.067618 -0.272889
v 0.102050 -0.157080 -0.619135
v 0.108101 -0.151633 -0.617941
v -0.046617 -0.054954 -0.274821
v -0.052669 -0.060401 -0.276015
v 0.108101 -0.151633 -0.617941
v 0.114263 -0.155483 -0.614078
v -0.040456 -0.058804 -0.270957
v -0.046617 -0.054954 -0.274821
v 0.114263 -0.155483 -0.614078
v 0.112019 -0.163310 -0.612884
v -0.042699 -0.066631 -0.269764
v -0.040456 -0.058804 -0.270957
v 0.112019 -0.163310 -0.612884
v 0.104471 -0.164297 -0.616010
v -0.050247 -0.067618 -0.272889
v -0.042699 -0.066631 -0.269764
v 0.108181 -0.158360 -0.616010
v 0.102050 -0.157080 -0.619135
v 0.104471 -0.164297 -0.616010
v -0.046537 -0.061682 -0.272889
v -0.050247 -0.067618 -0.272889
v -0.052669 -0.060401 -0.276015
v 0.108181 -0.158360 -0.616010
v 0.108101 -0.151633 -0.617941
v 0.102050 -0.157080 -0.619135
v -0.046537 -0.061682 -0.272889
v -0.052669 -0.060401 -0.276015
v -0.046617 -0.054954 -0.274821
v 0.108181 -0.158360 -0.616010
v 0.114263 -0.155483 -0.614078
v 0.108101 -0.151633 -0.617941
v -0.046537 -0.061682 -0.272889
v -0.046617 -0.054954 -0.274821
v -0.040456 -0.058804 -0.270957
v 0.108181 -0.158360 -0.616010
v 0.112019 -0.163310 -0.612884
v 0.114263 -0.155483 -0.614078
v -0.046537 -0.061682 -0.272889
v -0.040456 -0.058804 -0.270957
v -0.042699 -0.066631 -0.269764
v 0.108181 -0.158360 -0.616010
v 0.104471 -0.164297 -0.616010
v 0.112019 -0.163310 -0.612884
v -0.046537 -0.061682 -0.272889
v -0.042699 -0.066631 -0.269764
v -0.050247 -0.067618 -0.272889
v -0.085732 0.028000 -0.374748
v -0.207194 -0.017033 -0.304504
v -0.347731 -0.209152 -0.356427
v -0.215788 -0.017033 -0.427404
v -0.301069 -0.077662 -0.491655
v -0.295901 -0.082872 -0.495377
v -0.126249 -0.094735 -0.243244
v -0.131417 -0.089525 -0.239521
v -0.295901 -0.082872 -0.495377
v -0.298550 -0.090532 -0.493955
v -0.128898 -0.102395 -0.241822
v -0.126249 -0.094735 -0.243244
v -0.298550 -0.090532 -0.493955
v -0.305355 -0.090056 -0.489354
v -0.135703 -0.101919 -0.237220
v -0.128898 -0.102395 -0.241822
v -0.305355 -0.090056 -0.489354
v -0.306912 -0.082102 -0.487932
v -0.137260 -0.093965 -0.235798
v -0.135703 -0.101919 -0.237220
v -0.306912 -0.082102 -0.487932
v -0.301069 -0.077662 -0.491655
v -0.131417 -0.089525 -0.239521
v -0.137260 -0.093965 -0.235798
v -0.301557 -0.084645 -0.491655
v -0.295901 -0.082872 -0.495377
v -0.301069 -0.077662 -0.491655
v -0.131905 -0.096508 -0.239521
v -0.131417 -0.089525 -0.239521
v -0.126249 -0.094735 -0.243244
v -0.301557 -0.084645 -0.491655
v -0.298550 -0.090532 -0.493955
v -0.295901 -0.082872 -0.495377
v -0.131905 -0.096508 -0.239521
v -0.126249 -0.094735 -0.243244
v -0.128898 -0.102395 -0.241822
v -0.301557 -0.084645 -0.491655
v -0.305355 -0.090056 -0.489354
v -0.298550 -0.090532 -0.493955
v -0.131905 -0.096508 -0.239521
v -0.128898 -0.102395 -0.241822
v -0.135703 -0.101919 -0.237220
v -0.301557 -0.084645 -0.491655
v -0.306912 -0.082102 -0.487932
v -0.305355 -0.090056 -0.489354
v -0.131905 -0.096508 -0.239521
v -0.135703 -0.101919 -0.237220
v -0.137260 -0.093965 -0.235798
v -0.301557 -0.084645 -0.491655
v -0.301069 -0.077662 -0.491655
v -0.306912 -0.082102 -0.487932
v -0.131905 -0.096508 -0.239521
v -0.137260 -0.093965 -0.235798
v -0.131417 -0.089525 -0.239521
vt 0.000000 0.000000
vt 1.000000 0.000000
vt 1.000000 1.000000
vt 0.000000 1.000000
vt 0.000000 0.000000
vt 1.000000 0.000000
vt 1.000000 1.000000
vt 0.000000 1.000000
vt 0.000000 0.000000
vt 1.000000 0.000000
vt 1.000000 1.000000
vt 0.000000 1.000000
vt 0.000000 0.000000
vt 1.000000 0.000000
vt 1.000000 1.000000
vt 0.000000 1.000000
vt 0.000000 0.000000
vt 1.000000 0.000000
vt 1.000000 1.000000
vt 0.000000 1.000000
vt 0.000000 0.000000
vt 1.000000 0.000000
vt 1.000000 1.000000
vt 0.000000 1.000000
vt 0.000000 0.000000
vt 1.000000 0.000000
vt 1.000000 1.000000
vt 0.000000 1.000000
vt 0.000000 0.000000
vt 1.000000 0.000000
vt 1.000000 1.000000
vt 0.000000 1.000000
vt 0.000000 0.000000
vt 1.000000 0.000000
vt 1.000000 1.000000
vt 0.000000 1.000000
vt 0.000000 0.000000
vt 1.000000 0.000000
vt 1.000000 1.000000
vt 0.000000 1.000000
vt 0.000000 0.000000
vt 1.000000 0.000000
vt 1.000000 1.000000
vt 0.000000 1.000000
vt 0.000000 0.000000
vt 1.000000 0.000000
vt 1.000000 1.000000
vt 0.000000 1.000000
vt 0.500000 0.500000
vt 0.000000 0.000000
vt 1.000000 0.000000
vt 0.500000 0.500000
vt 0.000000 1.000000
vt 1.000000 1.000000
vt 0.500000 0.500000
vt 0.000000 0.000000
vt 1.000000 0.000000
vt 0.500000 0.500000
vt 0.000000 1.000000
vt 1.000000 1.000000
vt 0.500000 0.500000
vt 0.000000 0.000000
vt 1.000000 0.000000
vt 0.500000 0.500000
vt 0.000000 1.000000
vt 1.000000 1.000000
vt 0.500000 0.500000
vt 0.000000 0.000000
vt 1.000000 0.000000
vt 0.500000 0.500000
vt 0.000000 1.000000
vt 1.000000 1.000000
vt 0.500000 0.500000
vt 0.000000 0.000000
vt 1.000000 0.000000
vt 0.500000 0.500000
vt 0.000000 1.000000
vt 1.000000 1.000000
vt 0.500000 0.500000
vt 0.000000 0.000000
vt 1.000000 0.000000
vt 0.500000 0.500000
vt 0.000000 1.000000
vt 1.000000 1.000000
vt 0.000000 0.000000
vt 1.000000 0.000000
vt 1.000000 1.000000
vt 0.000000 1.000000
vt 0.000000 0.000000
vt 1.000000 0.000000
vt 1.000000 1.000000
vt 0.000000 1.000000
vt 0.000000 0.000000
vt 1.000000 0.000000
vt 1.000000 1.000000
vt 0.000000 1.000000
vt 0.000000 0.000000
vt 1.000000 0.000000
vt 1.000000 1.000000
vt 0.000000 1.000000
vt 0.000000 0.000000
vt 1.000000 0.000000
vt 1.000000 1.000000
vt 0.000000 1.000000
vt 0.000000 0.000000
vt 1.000000 0.000000
vt 1.000000 1.000000
vt 0.000000 1.000000
vt 0.000000 0.000000
vt 1.000000 0.000000
vt 1.000000 1.000000
vt 0.000000 1.000000
vt 0.000000 0.000000
vt 1.000000 0.000000
vt 1.000000 1.000000
vt 0.000000 1.000000
vt 0.000000 0.000000
vt 1.000000 0.000000
vt 1.000000 1.000000
vt 0.000000 1.000000
vt 0.000000 0.000000
vt 1.000000 0.000000
vt 1.000000 1.000000
vt 0.000000 1.000000
vt 0.000000 0.000000
vt 1.000000 0.000000
vt 1.000000 1.000000
vt 0.000000 1.000000
vt 0.000000 0.000000
vt 1.000000 0.000000
vt 1.000000 1.000000
vt 0.000000 1.000000
vt 0.000000 0.000000
vt 1.000000 0.000000
vt 1.000000 1.000000
vt 0.000000 1.000000
vt 0.000000 0.000000
vt 1.000000 0.000000
vt 1.000000 1.000000
vt 0.000000 1.000000
vt 0.000000 0.000000
vt 1.000000 0.000000
vt 1.000000 1.000000
vt 0.000000 1.000000
vt 0.000000 0.000000
vt 1.000000 0.000000
vt 1.000000 1.000000
vt 0.000000 1.000000
vt 0.000000 0.000000
vt 1.000000 0.000000
vt 1.000000 1.000000
vt 0.000000 1.000000
vt 0.000000 0.000000
vt 1.000000 0.000000
vt 1.000000 1.000000
vt 0.000000 1.000000
vt 0.000000 0.000000
vt 1.000000 0.000000
vt 1.000000 1.000000
vt 0.000000 1.000000
vt 0.000000 0.000000
vt 1.000000 0.000000
vt 1.000000 1.000000
vt 0.000000 1.000000
vt 0.000000 0.000000
vt 1.000000 0.000000
vt 1.000000 1.000000
vt 0.000000 1.000000
vt 0.000000 0.000000
vt 1.000000 0.000000
vt 1.000000 1.000000
vt 0.000000 1.000000
vt 0.000000 0.000000
vt 1.000000 0.000000
vt 1.000000 1.000000
vt 0.000000 1.000000
vt 0.000000 0.000000
vt 1.000000 0.000000
vt 1.000000 1.000000
vt 0.000000 1.000000
vt 0.500000 0.500000
vt 0.000000 0.000000
vt 1.000000 0.000000
vt 0.500000 0.500000
vt 0.000000 1.000000
vt 1.000000 1.000000
vt 0.500000 0.500000
vt 0.000000 0.000000
vt 1.000000 0.000000
vt 0.500000 0.500000
vt 0.000000 1.000000
vt 1.000000 1.000000
vt 0.500000 0.500000
vt 0.000000 0.000000
vt 1.000000 0.000000
vt 0.500000 0.500000
vt 0.000000 1.000000
vt 1.000000 1.000000
vt 0.500000 0.500000
vt 0.000000 0.000000
vt 1.000000 0.000000
vt 0.500000 0.500000
vt 0.000000 1.000000
vt 1.000000 1.000000
vt 0.500000 0.500000
vt 0.000000 0.000000
vt 1.000000 0.000000
vt 0.500000 0.500000
vt 0.000000 1.000000
vt 1.000000 1.000000
vt 0.500000 0.500000
vt 0.000000 0.000000
vt 1.000000 0.000000
vt 0.500000 0.500000
vt 0.000000 1.000000
vt 1.000000 1.000000
vt 0.000000 0.000000
vt 1.000000 0.000000
vt 1.000000 1.000000
vt 0.000000 1.000000
vt 0.000000 0.000000
vt 1.000000 0.000000
vt 1.000000 1.000000
vt 0.000000 1.000000
vt 0.000000 0.000000
vt 1.000000 0.000000
vt 1.000000 1.000000
vt 0.000000 1.000000
vt 0.000000 0.000000
vt 1.000000 0.000000
vt 1.000000 1.000000
vt 0.000000 1.000000
vt 0.000000 0.000000
vt 1.000000 0.000000
vt 1.000000 1.000000
vt 0.000000 1.000000
vt 0.000000 0.000000
vt 1.000000 0.000000
vt 1.000000 1.000000
vt 0.000000 1.000000
vt 0.000000 0.000000
vt 1.000000 0.000000
vt 1.000000 1.000000
vt 0.000000 1.000000
vt 0.000000 0.000000
vt 1.000000 0.000000
vt 1.000000 1.000000
vt 0.000000 1.000000
vt 0.000000 0.000000
vt 1.000000 0.000000
vt 1.000000 1.000000
vt 0.000000 1.000000
vt 0.000000 0.000000
vt 1.000000 0.000000
vt 1.000000 1.000000
vt 0.000000 1.000000
vt 0.000000 0.000000
vt 1.000000 0.000000
vt 1.000000 1.000000
vt 0.000000 1.000000
vt 0.000000 0.000000
vt 1.000000 0.000000
vt 1.000000 1.000000
vt 0.000000 1.000000
vt 0.000000 0.500000
vt 0.480000 1.000000
vt 1.000000 0.500000
vt 0.480000 0.000000
vt 0.000000 0.000000
vt 1.000000 0.000000
vt 1.000000 1.000000
vt 0.000000 1.000000
vt 0.000000 0.000000
vt 1.000000 0.000000
vt 1.000000 1.000000
vt 0.000000 1.000000
vt 0.000000 0.000000
vt 1.000000 0.000000
vt 1.000000 1.000000
vt 0.000000 1.000000
vt 0.000000 0.000000
vt 1.000000 0.000000
vt 1.000000 1.000000
vt 0.000000 1.000000
vt 0.000000 0.000000
vt 1.000000 0.000000
vt 1.000000 1.000000
vt 0.000000 1.000000
vt 0.500000 0.500000
vt 0.000000 0.000000
vt 1.000000 0.000000
vt 0.500000 0.500000
vt 0.000000 1.000000
vt 1.000000 1.000000
vt 0.500000 0.500000
vt 0.000000 0.000000
vt 1.000000 0.000000
vt 0.500000 0.500000
vt 0.000000 1.000000
vt 1.000000 1.000000
vt 0.500000 0.500000
vt 0.000000 0.000000
vt 1.000000 0.000000
vt 0.500000 0.500000
vt 0.000000 1.000000
vt 1.000000 1.000000
vt 0.500000 0.500000
vt 0.000000 0.000000
vt 1.000000 0.000000
vt 0.500000 0.500000
vt 0.000000 1.000000
vt 1.000000 1.000000
vt 0.500000 0.500000
vt 0.000000 0.000000
vt 1.000000 0.000000
vt 0.500000 0.500000
vt 0.000000 1.000000
vt 1.000000 1.000000
vt 0.000000 0.500000
vt 0.480000 1.000000
vt 1.000000 0.500000
vt 0.480000 0.000000
vt 0.000000 0.000000
vt 1.000000 0.000000
vt 1.000000 1.000000
vt 0.000000 1.000000
vt 0.000000 0.000000
vt 1.000000 0.000000
vt 1.000000 1.000000
vt 0.000000 1.000000
vt 0.000000 0.000000
vt 1.000000 0.000000
vt 1.000000 1.000000
vt 0.000000 1.000000
vt 0.000000 0.000000
vt 1.000000 0.000000
vt 1.000000 1.000000
vt 0.000000 1.000000
vt 0.000000 0.000000
vt 1.000000 0.000000
vt 1.000000 1.000000
vt 0.000000 1.000000
vt 0.500000 0.500000
vt 0.000000 0.000000
vt 1.000000 0.000000
vt 0.500000 0.500000
vt 0.000000 1.000000
vt 1.000000 1.000000
vt 0.500000 0.500000
vt 0.000000 0.000000
vt 1.000000 0.000000
vt 0.500000 0.500000
vt 0.000000 1.000000
vt 1.000000 1.000000
vt 0.500000 0.500000
vt 0.000000 0.000000
vt 1.000000 0.000000
vt 0.500000 0.500000
vt 0.000000 1.000000
vt 1.000000 1.000000
vt 0.500000 0.500000
vt 0.000000 0.000000
vt 1.000000 0.000000
vt 0.500000 0.500000
vt 0.000000 1.000000
vt 1.000000 1.000000
vt 0.500000 0.500000
vt 0.000000 0.000000
vt 1.000000 0.000000
vt 0.500000 0.500000
vt 0.000000 1.000000
vt 1.000000 1.000000
vt 0.000000 0.500000
vt 0.480000 1.000000
vt 1.000000 0.500000
vt 0.480000 0.000000
vt 0.000000 0.000000
vt 1.000000 0.000000
vt 1.000000 1.000000
vt 0.000000 1.000000
vt 0.000000 0.000000
vt 1.000000 0.000000
vt 1.000000 1.000000
vt 0.000000 1.000000
vt 0.000000 0.000000
vt 1.000000 0.000000
vt 1.000000 1.000000
vt 0.000000 1.000000
vt 0.000000 0.000000
vt 1.000000 0.000000
vt 1.000000 1.000000
vt 0.000000 1.000000
vt 0.000000 0.000000
vt 1.000000 0.000000
vt 1.000000 1.000000
vt 0.000000 1.000000
vt 0.500000 0.500000
vt 0.000000 0.000000
vt 1.000000 0.000000
vt 0.500000 0.500000
vt 0.000000 1.000000
vt 1.000000 1.000000
vt 0.500000 0.500000
vt 0.000000 0.000000
vt 1.000000 0.000000
vt 0.500000 0.500000
vt 0.000000 1.000000
vt 1.000000 1.000000
vt 0.500000 0.500000
vt 0.000000 0.000000
vt 1.000000 0.000000
vt 0.500000 0.500000
vt 0.000000 1.000000
vt 1.000000 1.000000
vt 0.500000 0.500000
vt 0.000000 0.000000
vt 1.000000 0.000000
vt 0.500000 0.500000
vt 0.000000 1.000000
vt 1.000000 1.000000
vt 0.500000 0.500000
vt 0.000000 0.000000
vt 1.000000 0.000000
vt 0.500000 0.500000
vt 0.000000 1.000000
vt 1.000000 1.000000
vt 0.000000 0.500000
vt 0.480000 1.000000
vt 1.000000 0.500000
vt 0.480000 0.000000
vt 0.000000 0.000000
vt 1.000000 0.000000
vt 1.000000 1.000000
vt 0.000000 1.000000
vt 0.000000 0.000000
vt 1.000000 0.000000
vt 1.000000 1.000000
vt 0.000000 1.000000
vt 0.000000 0.000000
vt 1.000000 0.000000
vt 1.000000 1.000000
vt 0.000000 1.000000
vt 0.000000 0.000000
vt 1.000000 0.000000
vt 1.000000 1.000000
vt 0.000000 1.000000
vt 0.000000 0.000000
vt 1.000000 0.000000
vt 1.000000 1.000000
vt 0.000000 1.000000
vt 0.500000 0.500000
vt 0.000000 0.000000
vt 1.000000 0.000000
vt 0.500000 0.500000
vt 0.000000 1.000000
vt 1.000000 1.000000
vt 0.500000 0.500000
vt 0.000000 0.000000
vt 1.000000 0.000000
vt 0.500000 0.500000
vt 0.000000 1.000000
vt 1.000000 1.000000
vt 0.500000 0.500000
vt 0.000000 0.000000
vt 1.000000 0.000000
vt 0.500000 0.500000
vt 0.000000 1.000000
vt 1.000000 1.000000
vt 0.500000 0.500000
vt 0.000000 0.000000
vt 1.000000 0.000000
vt 0.500000 0.500000
vt 0.000000 1.000000
vt 1.000000 1.000000
vt 0.500000 0.500000
vt 0.000000 0.000000
vt 1.000000 0.000000
vt 0.500000 0.500000
vt 0.000000 1.000000
vt 1.000000 1.000000
vt 0.000000 0.500000
vt 0.480000 1.000000
vt 1.000000 0.500000
vt 0.480000 0.000000
vt 0.000000 0.000000
vt 1.000000 0.000000
vt 1.000000 1.000000
vt 0.000000 1.000000
vt 0.000000 0.000000
vt 1.000000 0.000000
vt 1.000000 1.000000
vt 0.000000 1.000000
vt 0.000000 0.000000
vt 1.000000 0.000000
vt 1.000000 1.000000
vt 0.000000 1.000000
vt 0.000000 0.000000
vt 1.000000 0.000000
vt 1.000000 1.000000
vt 0.000000 1.000000
vt 0.000000 0.000000
vt 1.000000 0.000000
vt 1.000000 1.000000
vt 0.000000 1.000000
vt 0.500000 0.500000
vt 0.000000 0.000000
vt 1.000000 0.000000
vt 0.500000 0.500000
vt 0.000000 1.000000
vt 1.000000 1.000000
vt 0.500000 0.500000
vt 0.000000 0.000000
vt 1.000000 0.000000
vt 0.500000 0.500000
vt 0.000000 1.000000
vt 1.000000 1.000000
vt 0.500000 0.500000
vt 0.000000 0.000000
vt 1.000000 0.000000
vt 0.500000 0.500000
vt 0.000000 1.000000
vt 1.000000 1.000000
vt 0.500000 0.500000
vt 0.000000 0.000000
vt 1.000000 0.000000
vt 0.500000 0.500000
vt 0.000000 1.000000
vt 1.000000 1.000000
vt 0.500000 0.500000
vt 0.000000 0.000000
vt 1.000000 0.000000
vt 0.500000 0.500000
vt 0.000000 1.000000
vt 1.000000 1.000000
vt 0.000000 0.500000
vt 0.480000 1.000000
vt 1.000000 0.500000
vt 0.480000 0.000000
vt 0.000000 0.000000
vt 1.000000 0.000000
vt 1.000000 1.000000
vt 0.000000 1.000000
vt 0.000000 0.000000
vt 1.000000 0.000000
vt 1.000000 1.000000
vt 0.000000 1.000000
vt 0.000000 0.000000
vt 1.000000 0.000000
vt 1.000000 1.000000
vt 0.000000 1.000000
vt 0.000000 0.000000
vt 1.000000 0.000000
vt 1.000000 1.000000
vt 0.000000 1.000000
vt 0.000000 0.000000
vt 1.000000 0.000000
vt 1.000000 1.000000
vt 0.000000 1.000000
vt 0.500000 0.500000
vt 0.000000 0.000000
vt 1.000000 0.000000
vt 0.500000 0.500000
vt 0.000000 1.000000
vt 1.000000 1.000000
vt 0.500000 0.500000
vt 0.000000 0.000000
vt 1.000000 0.000000
vt 0.500000 0.500000
vt 0.000000 1.000000
vt 1.000000 1.000000
vt 0.500000 0.500000
vt 0.000000 0.000000
vt 1.000000 0.000000
vt 0.500000 0.500000
vt 0.000000 1.000000
vt 1.000000 1.000000
vt 0.500000 0.500000
vt 0.000000 0.000000
vt 1.000000 0.000000
vt 0.500000 0.500000
vt 0.000000 1.000000
vt 1.000000 1.000000
vt 0.500000 0.500000
vt 0.000000 0.000000
vt 1.000000 0.000000
vt 0.500000 0.500000
vt 0.000000 1.000000
vt 1.000000 1.000000
usemtl Wood
f 1/1 2/2 3/3
f 1/1 3/3 4/4
f 5/5 6/6 7/7
f 5/5 7/7 8/8
f 9/9 10/10 11/11
f 9/9 11/11 12/12
f 13/13 14/14 15/15
f 13/13 15/15 16/16
f 17/17 18/18 19/19
f 17/17 19/19 20/20
f 21/21 22/22 23/23
f 21/21 23/23 24/24
usemtl Metal
f 25/25 26/26 27/27
f 25/25 27/27 28/28
f 29/29 30/30 31/31
f 29/29 31/31 32/32
f 33/33 34/34 35/35
f 33/33 35/35 36/36
f 37/37 38/38 39/39
f 37/37 39/39 40/40
f 41/41 42/42 43/43
f 41/41 43/43 44/44
f 45/45 46/46 47/47
f 45/45 47/47 48/48
f 49/49 50/50 51/51
f 52/52 53/53 54/54
f 55/55 56/56 57/57
f 58/58 59/59 60/60
f 61/61 62/62 63/63
f 64/64 65/65 66/66
f 67/67 68/68 69/69
f 70/70 71/71 72/72
f 73/73 74/74 75/75
f 76/76 77/77 78/78
f 79/79 80/80 81/81
f 82/82 83/83 84/84
usemtl Wood
f 85/85 86/86 87/87
f 85/85 87/87 88/88
f 89/89 90/90 91/91
f 89/89 91/91 92/92
f 93/93 94/94 95/95
f 93/93 95/95 96/96
f 97/97 98/98 99/99
f 97/97 99/99 100/100
f 101/101 102/102 103/103
f 101/101 103/103 104/104
f 105/105 106/106 107/107
f 105/105 107/107 108/108
f 109/109 110/110 111/111
f 109/109 111/111 112/112
f 113/113 114/114 115/115
f 113/113 115/115 116/116
f 117/117 118/118 119/119
f 117/117 119/119 120/120
f 121/121 122/122 123/123
f 121/121 123/123 124/124
f 125/125 126/126 127/127
f 125/125 127/127 128/128
f 129/129 130/130 131/131
f 129/129 131/131 132/132
f 133/133 134/134 135/135
f 133/133 135/135 136/136
f 137/137 138/138 139/139
f 137/137 139/139 140/140
f 141/141 142/142 143/143
f 141/141 143/143 144/144
f 145/145 146/146 147/147
f 145/145 147/147 148/148
f 149/149 150/150 151/151
f 149/149 151/151 152/152
f 153/153 154/154 155/155
f 153/153 155/155 156/156
usemtl Metal
f 157/157 158/158 159/159
f 157/157 159/159 160/160
f 161/161 162/162 163/163
f 161/161 163/163 164/164
f 165/165 166/166 167/167
f 165/165 167/167 168/168
f 169/169 170/170 171/171
f 169/169 171/171 172/172
f 173/173 174/174 175/175
f 173/173 175/175 176/176
f 177/177 178/178 179/179
f 177/177 179/179 180/180
f 181/181 182/182 183/183
f 184/184 185/185 186/186
f 187/187 188/188 189/189
f 190/190 191/191 192/192
f 193/193 194/194 195/195
f 196/196 197/197 198/198
f 199/199 200/200 201/201
f 202/202 203/203 204/204
f 205/205 206/206 207/207
f 208/208 209/209 210/210
f 211/211 212/212 213/213
f 214/214 215/215 216/216
usemtl Wood
f 217/217 218/218 219/219
f 217/217 219/219 220/220
f 221/221 222/222 223/223
f 221/221 223/223 224/224
f 225/225 226/226 227/227
f 225/225 227/227 228/228
f 229/229 230/230 231/231
f 229/229 231/231 232/232
f 233/233 234/234 235/235
f 233/233 235/235 236/236
f 237/237 238/238 239/239
f 237/237 239/239 240/240
f 241/241 242/242 243/243
f 241/241 243/243 244/244
f 245/245 246/246 247/247
f 245/245 247/247 248/248
f 249/249 250/250 251/251
f 249/249 251/251 252/252
f 253/253 254/254 255/255
f 253/253 255/255 256/256
f 257/257 258/258 259/259
f 257/257 259/259 260/260
f 261/261 262/262 263/263
f 261/261 263/263 264/264
usemtl Leaf
f 265/265 266/266 267/267
f 265/265 267/267 268/268
usemtl Wood
f 269/269 270/270 271/271
f 269/269 271/271 272/272
f 273/273 274/274 275/275
f 273/273 275/275 276/276
f 277/277 278/278 279/279
f 277/277 279/279 280/280
f 281/281 282/282 283/283
f 281/281 283/283 284/284
f 285/285 286/286 287/287
f 285/285 287/287 288/288
f 289/289 290/290 291/291
f 292/292 293/293 294/294
f 295/295 296/296 297/297
f 298/298 299/299 300/300
f 301/301 302/302 303/303
f 304/304 305/305 306/306
f 307/307 308/308 309/309
f 310/310 311/311 312/312
f 313/313 314/314 315/315
f 316/316 317/317 318/318
usemtl Leaf
f 319/319 320/320 321/321
f 319/319 321/321 322/322
usemtl Wood
f 323/323 324/324 325/325
f 323/323 325/325 326/326
f 327/327 328/328 329/329
f 327/327 329/329 330/330
f 331/331 332/332 333/333
f 331/331 333/333 334/334
f 335/335 336/336 337/337
f 335/335 337/337 338/338
f 339/339 340/340 341/341
f 339/339 341/341 342/342
f 343/343 344/344 345/345
f 346/346 347/347 348/348
f 349/349 350/350 351/351
f 352/352 353/353 354/354
f 355/355 356/356 357/357
f 358/358 359/359 360/360
f 361/361 362/362 363/363
f 364/364 365/365 366/366
f 367/367 368/368 369/369
f 370/370 371/371 372/372
usemtl Leaf
f 373/373 374/374 375/375
f 373/373 375/375 376/376
usemtl Wood
f 377/377 378/378 379/379
f 377/377 379/379 380/380
f 381/381 382/382 383/383
f 381/381 383/383 384/384
f 385/385 386/386 387/387
f 385/385 387/387 388/388
f 389/389 390/390 391/391
f 389/389 391/391 392/392
f 393/393 394/394 395/395
f 393/393 395/395 396/396
f 397/397 398/398 399/399
f 400/400 401/401 402/402
f 403/403 404/404 405/405
f 406/406 407/407 408/408
f 409/409 410/410 411/411
f 412/412 413/413 414/414
f 415/415 416/416 417/417
f 418/418 419/419 420/420
f 421/421 422/422 423/423
f 424/424 425/425 426/426
usemtl Leaf
f 427/427 428/428 429/429
f 427/427 429/429 430/430
usemtl Wood
f 431/431 432/432 433/433
f 431/431 433/433 434/434
f 435/435 436/436 437/437
f 435/435 437/437 438/438
f 439/439 440/440 441/441
f 439/439 441/441 442/442
f 443/443 444/444 445/445
f 443/443 445/445 446/446
f 447/447 448/448 449/449
f 447/447 449/449 450/450
f 451/451 452/452 453/453
f 454/454 455/455 456/456
f 457/457 458/458 459/459
f 460/460 461/461 462/462
f 463/463 464/464 465/465
f 466/466 467/467 468/468
f 469/469 470/470 471/471
f 472/472 473/473 474/474
f 475/475 476/476 477/477
f 478/478 479/479 480/480
usemtl Leaf
f 481/481 482/482 483/483
f 481/481 483/483 484/484
usemtl Wood
f 485/485 486/486 487/487
f 485/485 487/487 488/488
f 489/489 490/490 491/491
f 489/489 491/491 492/492
f 493/493 494/494 495/495
f 493/493 495/495 496/496
f 497/497 498/498 499/499
f 497/497 499/499 500/500
f 501/501 502/502 503/503
f 501/501 503/503 504/504
f 505/505 506/506 507/507
f 508/508 509/509 510/510
f 511/511 512/512 513/513
f 514/514 515/515 516/516
f 517/517 518/518 519/519
f 520/520 521/521 522/522
f 523/523 524/524 525/525
f 526/526 527/527 528/528
f 529/529 530/530 531/531
f 532/532 533/533 534/534
usemtl Leaf
f 535/535 536/536 537/537
f 535/535 537/537 538/538
usemtl Wood
f 539/539 540/540 541/541
f 539/539 541/541 542/542
f 543/543 544/544 545/545
f 543/543 545/545 546/546
f 547/547 548/548 549/549
f 547/547 549/549 550/550
f 551/551 552/552 553/553
f 551/551 553/553 554/554
f 555/555 556/556 557/557
f 555/555 557/557 558/558
f 559/559 560/560 561/561
f 562/562 563/563 564/564
f 565/565 566/566 567/567
f 568/568 569/569 570/570
f 571/571 572/572 573/573
f 574/574 575/575 576/576
f 577/577 578/578 579/579
f 580/580 581/581 582/582
f 583/583 584/584 585/585
f 586/586 587/587 588/588
