mtllib ../../Materials/project_oen.mtl
o en-016_camp_mat_groundsheet__worn
v -0.740000 0.025000 -0.440000
v -0.528571 0.042549 -0.440000
v -0.528571 0.041857 -0.314286
v -0.740000 0.041277 -0.314286
v -0.528571 0.042549 -0.440000
v -0.317143 0.017190 -0.440000
v -0.317143 0.007029 -0.314286
v -0.528571 0.041857 -0.314286
v -0.317143 0.017190 -0.440000
v -0.105714 0.010927 -0.440000
v -0.105714 0.004352 -0.314286
v -0.317143 0.007029 -0.314286
v -0.105714 0.010927 -0.440000
v 0.105714 0.039073 -0.440000
v 0.105714 0.031573 -0.314286
v -0.105714 0.004352 -0.314286
v 0.105714 0.039073 -0.440000
v 0.317143 0.032810 -0.440000
v 0.317143 0.022135 -0.314286
v 0.105714 0.031573 -0.314286
v 0.317143 0.032810 -0.440000
v 0.528571 0.007451 -0.440000
v 0.528571 0.007913 -0.314286
v 0.317143 0.022135 -0.314286
v 0.528571 0.007451 -0.440000
v 0.740000 0.025000 -0.440000
v 0.740000 0.041277 -0.314286
v 0.528571 0.007913 -0.314286
v -0.740000 0.041277 -0.314286
v -0.528571 0.041857 -0.314286
v -0.528571 0.025522 -0.188571
v -0.740000 0.039061 -0.188571
v -0.528571 0.041857 -0.314286
v -0.317143 0.007029 -0.314286
v -0.317143 -0.014558 -0.188571
v -0.528571 0.025522 -0.188571
v -0.317143 0.007029 -0.314286
v -0.105714 0.004352 -0.314286
v -0.105714 -0.012510 -0.188571
v -0.317143 -0.014558 -0.188571
v -0.105714 0.004352 -0.314286
v 0.105714 0.031573 -0.314286
v 0.105714 0.011995 -0.188571
v -0.105714 -0.012510 -0.188571
v 0.105714 0.031573 -0.314286
v 0.317143 0.022135 -0.314286
v 0.317143 -0.000959 -0.188571
v 0.105714 0.011995 -0.188571
v 0.317143 0.022135 -0.314286
v 0.528571 0.007913 -0.314286
v 0.528571 -0.005035 -0.188571
v 0.317143 -0.000959 -0.188571
v 0.528571 0.007913 -0.314286
v 0.740000 0.041277 -0.314286
v 0.740000 0.039061 -0.188571
v 0.528571 -0.005035 -0.188571
v -0.740000 0.039061 -0.188571
v -0.528571 0.025522 -0.188571
v -0.528571 0.003816 -0.062857
v -0.740000 0.028167 -0.062857
v -0.528571 0.025522 -0.188571
v -0.317143 -0.014558 -0.188571
v -0.317143 -0.037272 -0.062857
v -0.528571 0.003816 -0.062857
v -0.317143 -0.014558 -0.188571
v -0.105714 -0.012510 -0.188571
v -0.105714 -0.038204 -0.062857
v -0.317143 -0.037272 -0.062857
v -0.105714 -0.012510 -0.188571
v 0.105714 0.011995 -0.188571
v 0.105714 -0.018026 -0.062857
v -0.105714 -0.038204 -0.062857
v 0.105714 0.011995 -0.188571
v 0.317143 -0.000959 -0.188571
v 0.317143 -0.026074 -0.062857
v 0.105714 -0.018026 -0.062857
v 0.317143 -0.000959 -0.188571
v 0.528571 -0.005035 -0.188571
v 0.528571 -0.021346 -0.062857
v 0.317143 -0.026074 -0.062857
v 0.528571 -0.005035 -0.188571
v 0.740000 0.039061 -0.188571
v 0.740000 0.028167 -0.062857
v 0.528571 -0.021346 -0.062857
v -0.740000 0.028167 -0.062857
v -0.528571 0.003816 -0.062857
v -0.528571 -0.000348 0.062857
v -0.740000 0.031036 0.062857
v -0.528571 0.003816 -0.062857
v -0.317143 -0.037272 -0.062857
v -0.317143 -0.038288 0.062857
v -0.528571 -0.000348 0.062857
v -0.317143 -0.037272 -0.062857
v -0.105714 -0.038204 -0.062857
v -0.105714 -0.033589 0.062857
v -0.317143 -0.038288 0.062857
v 0.317143 -0.026074 -0.062857
v 0.528571 -0.021346 -0.062857
v 0.528571 -0.018460 0.062857
v 0.317143 -0.030228 0.062857
v 0.528571 -0.021346 -0.062857
v 0.740000 0.028167 -0.062857
v 0.740000 0.031036 0.062857
v 0.528571 -0.018460 0.062857
v -0.740000 0.031036 0.062857
v -0.528571 -0.000348 0.062857
v -0.528571 0.013306 0.188571
v -0.740000 0.047480 0.188571
v -0.528571 -0.000348 0.062857
v -0.317143 -0.038288 0.062857
v -0.317143 -0.017540 0.188571
v -0.528571 0.013306 0.188571
v -0.317143 -0.038288 0.062857
v -0.105714 -0.033589 0.062857
v -0.105714 0.001034 0.188571
v -0.317143 -0.017540 0.188571
v 0.317143 -0.030228 0.062857
v 0.528571 -0.018460 0.062857
v 0.528571 0.003435 0.188571
v 0.317143 -0.013147 0.188571
v 0.528571 -0.018460 0.062857
v 0.740000 0.031036 0.062857
v 0.740000 0.047480 0.188571
v 0.528571 0.003435 0.188571
v -0.740000 0.047480 0.188571
v -0.528571 0.013306 0.188571
v -0.528571 0.022390 0.314286
v -0.740000 0.054692 0.314286
v -0.528571 0.013306 0.188571
v -0.317143 -0.017540 0.188571
v -0.317143 0.002277 0.314286
v -0.528571 0.022390 0.314286
v -0.317143 -0.017540 0.188571
v -0.105714 0.001034 0.188571
v -0.105714 0.025933 0.314286
v -0.317143 0.002277 0.314286
v -0.105714 0.001034 0.188571
v 0.105714 0.008949 0.188571
v 0.105714 0.026720 0.314286
v -0.105714 0.025933 0.314286
v 0.105714 0.008949 0.188571
v 0.317143 -0.013147 0.188571
v 0.317143 0.002714 0.314286
v 0.105714 0.026720 0.314286
v 0.317143 -0.013147 0.188571
v 0.528571 0.003435 0.188571
v 0.528571 0.021410 0.314286
v 0.317143 0.002714 0.314286
v 0.528571 0.003435 0.188571
v 0.740000 0.047480 0.188571
v 0.740000 0.054692 0.314286
v 0.528571 0.021410 0.314286
v -0.740000 0.054692 0.314286
v -0.528571 0.022390 0.314286
v -0.528571 0.017112 0.440000
v -0.740000 0.042529 0.440000
v -0.528571 0.022390 0.314286
v -0.317143 0.002277 0.314286
v -0.317143 0.010981 0.440000
v -0.528571 0.017112 0.440000
v -0.317143 0.002277 0.314286
v -0.105714 0.025933 0.314286
v -0.105714 0.039127 0.440000
v -0.317143 0.010981 0.440000
v -0.105714 0.025933 0.314286
v 0.105714 0.026720 0.314286
v 0.105714 0.032732 0.440000
v -0.105714 0.039127 0.440000
v 0.105714 0.026720 0.314286
v 0.317143 0.002714 0.314286
v 0.317143 0.007432 0.440000
v 0.105714 0.032732 0.440000
v 0.317143 0.002714 0.314286
v 0.528571 0.021410 0.314286
v 0.528571 0.025086 0.440000
v 0.317143 0.007432 0.440000
v 0.528571 0.021410 0.314286
v 0.740000 0.054692 0.314286
v 0.740000 0.042529 0.440000
v 0.528571 0.025086 0.440000
v -0.740000 0.020000 -0.457500
v 0.740000 0.020000 -0.457500
v 0.740000 0.046000 -0.457500
v -0.740000 0.046000 -0.457500
v 0.740000 0.020000 -0.422500
v -0.740000 0.020000 -0.422500
v -0.740000 0.046000 -0.422500
v 0.740000 0.046000 -0.422500
v -0.740000 0.020000 -0.422500
v -0.740000 0.020000 -0.457500
v -0.740000 0.046000 -0.457500
v -0.740000 0.046000 -0.422500
v 0.740000 0.020000 -0.457500
v 0.740000 0.020000 -0.422500
v 0.740000 0.046000 -0.422500
v 0.740000 0.046000 -0.457500
v -0.740000 0.046000 -0.457500
v 0.740000 0.046000 -0.457500
v 0.740000 0.046000 -0.422500
v -0.740000 0.046000 -0.422500
v -0.740000 0.020000 -0.422500
v 0.740000 0.020000 -0.422500
v 0.740000 0.020000 -0.457500
v -0.740000 0.020000 -0.457500
v -0.740000 0.020000 0.422500
v 0.740000 0.020000 0.422500
v 0.740000 0.046000 0.422500
v -0.740000 0.046000 0.422500
v 0.740000 0.020000 0.457500
v -0.740000 0.020000 0.457500
v -0.740000 0.046000 0.457500
v 0.740000 0.046000 0.457500
v -0.740000 0.020000 0.457500
v -0.740000 0.020000 0.422500
v -0.740000 0.046000 0.422500
v -0.740000 0.046000 0.457500
v 0.740000 0.020000 0.422500
v 0.740000 0.020000 0.457500
v 0.740000 0.046000 0.457500
v 0.740000 0.046000 0.422500
v -0.740000 0.046000 0.422500
v 0.740000 0.046000 0.422500
v 0.740000 0.046000 0.457500
v -0.740000 0.046000 0.457500
v -0.740000 0.020000 0.457500
v 0.740000 0.020000 0.457500
v 0.740000 0.020000 0.422500
v -0.740000 0.020000 0.422500
v -0.757500 0.020000 -0.440000
v -0.722500 0.020000 -0.440000
v -0.722500 0.046000 -0.440000
v -0.757500 0.046000 -0.440000
v -0.722500 0.020000 0.440000
v -0.757500 0.020000 0.440000
v -0.757500 0.046000 0.440000
v -0.722500 0.046000 0.440000
v -0.757500 0.020000 0.440000
v -0.757500 0.020000 -0.440000
v -0.757500 0.046000 -0.440000
v -0.757500 0.046000 0.440000
v -0.722500 0.020000 -0.440000
v -0.722500 0.020000 0.440000
v -0.722500 0.046000 0.440000
v -0.722500 0.046000 -0.440000
v -0.757500 0.046000 -0.440000
v -0.722500 0.046000 -0.440000
v -0.722500 0.046000 0.440000
v -0.757500 0.046000 0.440000
v -0.757500 0.020000 0.440000
v -0.722500 0.020000 0.440000
v -0.722500 0.020000 -0.440000
v -0.757500 0.020000 -0.440000
v 0.722500 0.020000 -0.440000
v 0.757500 0.020000 -0.440000
v 0.757500 0.046000 -0.440000
v 0.722500 0.046000 -0.440000
v 0.757500 0.020000 0.440000
v 0.722500 0.020000 0.440000
v 0.722500 0.046000 0.440000
v 0.757500 0.046000 0.440000
v 0.722500 0.020000 0.440000
v 0.722500 0.020000 -0.440000
v 0.722500 0.046000 -0.440000
v 0.722500 0.046000 0.440000
v 0.757500 0.020000 -0.440000
v 0.757500 0.020000 0.440000
v 0.757500 0.046000 0.440000
v 0.757500 0.046000 -0.440000
v 0.722500 0.046000 -0.440000
v 0.757500 0.046000 -0.440000
v 0.757500 0.046000 0.440000
v 0.722500 0.046000 0.440000
v 0.722500 0.020000 0.440000
v 0.757500 0.020000 0.440000
v 0.757500 0.020000 -0.440000
v 0.722500 0.020000 -0.440000
v -0.668000 -0.045000 -0.380000
v -0.674000 -0.045000 -0.369608
v -0.674000 0.115000 -0.369608
v -0.668000 0.115000 -0.380000
v -0.674000 -0.045000 -0.369608
v -0.686000 -0.045000 -0.369608
v -0.686000 0.115000 -0.369608
v -0.674000 0.115000 -0.369608
v -0.686000 -0.045000 -0.369608
v -0.692000 -0.045000 -0.380000
v -0.692000 0.115000 -0.380000
v -0.686000 0.115000 -0.369608
v -0.692000 -0.045000 -0.380000
v -0.686000 -0.045000 -0.390392
v -0.686000 0.115000 -0.390392
v -0.692000 0.115000 -0.380000
v -0.686000 -0.045000 -0.390392
v -0.674000 -0.045000 -0.390392
v -0.674000 0.115000 -0.390392
v -0.686000 0.115000 -0.390392
v -0.674000 -0.045000 -0.390392
v -0.668000 -0.045000 -0.380000
v -0.668000 0.115000 -0.380000
v -0.674000 0.115000 -0.390392
v -0.680000 -0.045000 -0.380000
v -0.674000 -0.045000 -0.369608
v -0.668000 -0.045000 -0.380000
v -0.680000 0.115000 -0.380000
v -0.668000 0.115000 -0.380000
v -0.674000 0.115000 -0.369608
v -0.680000 -0.045000 -0.380000
v -0.686000 -0.045000 -0.369608
v -0.674000 -0.045000 -0.369608
v -0.680000 0.115000 -0.380000
v -0.674000 0.115000 -0.369608
v -0.686000 0.115000 -0.369608
v -0.680000 -0.045000 -0.380000
v -0.692000 -0.045000 -0.380000
v -0.686000 -0.045000 -0.369608
v -0.680000 0.115000 -0.380000
v -0.686000 0.115000 -0.369608
v -0.692000 0.115000 -0.380000
v -0.680000 -0.045000 -0.380000
v -0.686000 -0.045000 -0.390392
v -0.692000 -0.045000 -0.380000
v -0.680000 0.115000 -0.380000
v -0.692000 0.115000 -0.380000
v -0.686000 0.115000 -0.390392
v -0.680000 -0.045000 -0.380000
v -0.674000 -0.045000 -0.390392
v -0.686000 -0.045000 -0.390392
v -0.680000 0.115000 -0.380000
v -0.686000 0.115000 -0.390392
v -0.674000 0.115000 -0.390392
v -0.680000 -0.045000 -0.380000
v -0.668000 -0.045000 -0.380000
v -0.674000 -0.045000 -0.390392
v -0.680000 0.115000 -0.380000
v -0.674000 0.115000 -0.390392
v -0.668000 0.115000 -0.380000
v -0.656185 0.033889 -0.391969
v -0.664356 0.034864 -0.391969
v -0.664356 0.034864 -0.345231
v -0.656185 0.033889 -0.345231
v -0.664356 0.034864 -0.391969
v -0.665954 0.042936 -0.391969
v -0.665954 0.042936 -0.345231
v -0.664356 0.034864 -0.345231
v -0.665954 0.042936 -0.391969
v -0.658771 0.046951 -0.391969
v -0.658771 0.046951 -0.345231
v -0.665954 0.042936 -0.345231
v -0.658771 0.046951 -0.391969
v -0.652733 0.041359 -0.391969
v -0.652733 0.041359 -0.345231
v -0.658771 0.046951 -0.345231
v -0.652733 0.041359 -0.391969
v -0.656185 0.033889 -0.391969
v -0.656185 0.033889 -0.345231
v -0.652733 0.041359 -0.345231
v -0.659600 0.040000 -0.391969
v -0.664356 0.034864 -0.391969
v -0.656185 0.033889 -0.391969
v -0.659600 0.040000 -0.345231
v -0.656185 0.033889 -0.345231
v -0.664356 0.034864 -0.345231
v -0.659600 0.040000 -0.391969
v -0.665954 0.042936 -0.391969
v -0.664356 0.034864 -0.391969
v -0.659600 0.040000 -0.345231
v -0.664356 0.034864 -0.345231
v -0.665954 0.042936 -0.345231
v -0.659600 0.040000 -0.391969
v -0.658771 0.046951 -0.391969
v -0.665954 0.042936 -0.391969
v -0.659600 0.040000 -0.345231
v -0.665954 0.042936 -0.345231
v -0.658771 0.046951 -0.345231
v -0.659600 0.040000 -0.391969
v -0.652733 0.041359 -0.391969
v -0.658771 0.046951 -0.391969
v -0.659600 0.040000 -0.345231
v -0.658771 0.046951 -0.345231
v -0.652733 0.041359 -0.345231
v -0.659600 0.040000 -0.391969
v -0.656185 0.033889 -0.391969
v -0.652733 0.041359 -0.391969
v -0.659600 0.040000 -0.345231
v -0.652733 0.041359 -0.345231
v -0.656185 0.033889 -0.345231
v 0.692000 -0.045000 -0.380000
v 0.686000 -0.045000 -0.369608
v 0.686000 0.115000 -0.369608
v 0.692000 0.115000 -0.380000
v 0.686000 -0.045000 -0.369608
v 0.674000 -0.045000 -0.369608
v 0.674000 0.115000 -0.369608
v 0.686000 0.115000 -0.369608
v 0.674000 -0.045000 -0.369608
v 0.668000 -0.045000 -0.380000
v 0.668000 0.115000 -0.380000
v 0.674000 0.115000 -0.369608
v 0.668000 -0.045000 -0.380000
v 0.674000 -0.045000 -0.390392
v 0.674000 0.115000 -0.390392
v 0.668000 0.115000 -0.380000
v 0.674000 -0.045000 -0.390392
v 0.686000 -0.045000 -0.390392
v 0.686000 0.115000 -0.390392
v 0.674000 0.115000 -0.390392
v 0.686000 -0.045000 -0.390392
v 0.692000 -0.045000 -0.380000
v 0.692000 0.115000 -0.380000
v 0.686000 0.115000 -0.390392
v 0.680000 -0.045000 -0.380000
v 0.686000 -0.045000 -0.369608
v 0.692000 -0.045000 -0.380000
v 0.680000 0.115000 -0.380000
v 0.692000 0.115000 -0.380000
v 0.686000 0.115000 -0.369608
v 0.680000 -0.045000 -0.380000
v 0.674000 -0.045000 -0.369608
v 0.686000 -0.045000 -0.369608
v 0.680000 0.115000 -0.380000
v 0.686000 0.115000 -0.369608
v 0.674000 0.115000 -0.369608
v 0.680000 -0.045000 -0.380000
v 0.668000 -0.045000 -0.380000
v 0.674000 -0.045000 -0.369608
v 0.680000 0.115000 -0.380000
v 0.674000 0.115000 -0.369608
v 0.668000 0.115000 -0.380000
v 0.680000 -0.045000 -0.380000
v 0.674000 -0.045000 -0.390392
v 0.668000 -0.045000 -0.380000
v 0.680000 0.115000 -0.380000
v 0.668000 0.115000 -0.380000
v 0.674000 0.115000 -0.390392
v 0.680000 -0.045000 -0.380000
v 0.686000 -0.045000 -0.390392
v 0.674000 -0.045000 -0.390392
v 0.680000 0.115000 -0.380000
v 0.674000 0.115000 -0.390392
v 0.686000 0.115000 -0.390392
v 0.680000 -0.045000 -0.380000
v 0.692000 -0.045000 -0.380000
v 0.686000 -0.045000 -0.390392
v 0.680000 0.115000 -0.380000
v 0.686000 0.115000 -0.390392
v 0.692000 0.115000 -0.380000
v 0.663015 0.046111 -0.391969
v 0.666467 0.038641 -0.391969
v 0.666467 0.038641 -0.345231
v 0.663015 0.046111 -0.345231
v 0.666467 0.038641 -0.391969
v 0.660429 0.033049 -0.391969
v 0.660429 0.033049 -0.345231
v 0.666467 0.038641 -0.345231
v 0.660429 0.033049 -0.391969
v 0.653246 0.037064 -0.391969
v 0.653246 0.037064 -0.345231
v 0.660429 0.033049 -0.345231
v 0.653246 0.037064 -0.391969
v 0.654844 0.045136 -0.391969
v 0.654844 0.045136 -0.345231
v 0.653246 0.037064 -0.345231
v 0.654844 0.045136 -0.391969
v 0.663015 0.046111 -0.391969
v 0.663015 0.046111 -0.345231
v 0.654844 0.045136 -0.345231
v 0.659600 0.040000 -0.391969
v 0.666467 0.038641 -0.391969
v 0.663015 0.046111 -0.391969
v 0.659600 0.040000 -0.345231
v 0.663015 0.046111 -0.345231
v 0.666467 0.038641 -0.345231
v 0.659600 0.040000 -0.391969
v 0.660429 0.033049 -0.391969
v 0.666467 0.038641 -0.391969
v 0.659600 0.040000 -0.345231
v 0.666467 0.038641 -0.345231
v 0.660429 0.033049 -0.345231
v 0.659600 0.040000 -0.391969
v 0.653246 0.037064 -0.391969
v 0.660429 0.033049 -0.391969
v 0.659600 0.040000 -0.345231
v 0.660429 0.033049 -0.345231
v 0.653246 0.037064 -0.345231
v 0.659600 0.040000 -0.391969
v 0.654844 0.045136 -0.391969
v 0.653246 0.037064 -0.391969
v 0.659600 0.040000 -0.345231
v 0.653246 0.037064 -0.345231
v 0.654844 0.045136 -0.345231
v 0.659600 0.040000 -0.391969
v 0.663015 0.046111 -0.391969
v 0.654844 0.045136 -0.391969
v 0.659600 0.040000 -0.345231
v 0.654844 0.045136 -0.345231
v 0.663015 0.046111 -0.345231
v -0.668000 -0.045000 0.380000
v -0.674000 -0.045000 0.390392
v -0.674000 0.115000 0.390392
v -0.668000 0.115000 0.380000
v -0.674000 -0.045000 0.390392
v -0.686000 -0.045000 0.390392
v -0.686000 0.115000 0.390392
v -0.674000 0.115000 0.390392
v -0.686000 -0.045000 0.390392
v -0.692000 -0.045000 0.380000
v -0.692000 0.115000 0.380000
v -0.686000 0.115000 0.390392
v -0.692000 -0.045000 0.380000
v -0.686000 -0.045000 0.369608
v -0.686000 0.115000 0.369608
v -0.692000 0.115000 0.380000
v -0.686000 -0.045000 0.369608
v -0.674000 -0.045000 0.369608
v -0.674000 0.115000 0.369608
v -0.686000 0.115000 0.369608
v -0.674000 -0.045000 0.369608
v -0.668000 -0.045000 0.380000
v -0.668000 0.115000 0.380000
v -0.674000 0.115000 0.369608
v -0.680000 -0.045000 0.380000
v -0.674000 -0.045000 0.390392
v -0.668000 -0.045000 0.380000
v -0.680000 0.115000 0.380000
v -0.668000 0.115000 0.380000
v -0.674000 0.115000 0.390392
v -0.680000 -0.045000 0.380000
v -0.686000 -0.045000 0.390392
v -0.674000 -0.045000 0.390392
v -0.680000 0.115000 0.380000
v -0.674000 0.115000 0.390392
v -0.686000 0.115000 0.390392
v -0.680000 -0.045000 0.380000
v -0.692000 -0.045000 0.380000
v -0.686000 -0.045000 0.390392
v -0.680000 0.115000 0.380000
v -0.686000 0.115000 0.390392
v -0.692000 0.115000 0.380000
v -0.680000 -0.045000 0.380000
v -0.686000 -0.045000 0.369608
v -0.692000 -0.045000 0.380000
v -0.680000 0.115000 0.380000
v -0.692000 0.115000 0.380000
v -0.686000 0.115000 0.369608
v -0.680000 -0.045000 0.380000
v -0.674000 -0.045000 0.369608
v -0.686000 -0.045000 0.369608
v -0.680000 0.115000 0.380000
v -0.686000 0.115000 0.369608
v -0.674000 0.115000 0.369608
v -0.680000 -0.045000 0.380000
v -0.668000 -0.045000 0.380000
v -0.674000 -0.045000 0.369608
v -0.680000 0.115000 0.380000
v -0.674000 0.115000 0.369608
v -0.668000 0.115000 0.380000
v -0.663015 0.033889 0.345231
v -0.666467 0.041359 0.345231
v -0.666467 0.041359 0.391969
v -0.663015 0.033889 0.391969
v -0.666467 0.041359 0.345231
v -0.660429 0.046951 0.345231
v -0.660429 0.046951 0.391969
v -0.666467 0.041359 0.391969
v -0.660429 0.046951 0.345231
v -0.653246 0.042936 0.345231
v -0.653246 0.042936 0.391969
v -0.660429 0.046951 0.391969
v -0.653246 0.042936 0.345231
v -0.654844 0.034864 0.345231
v -0.654844 0.034864 0.391969
v -0.653246 0.042936 0.391969
v -0.654844 0.034864 0.345231
v -0.663015 0.033889 0.345231
v -0.663015 0.033889 0.391969
v -0.654844 0.034864 0.391969
v -0.659600 0.040000 0.345231
v -0.666467 0.041359 0.345231
v -0.663015 0.033889 0.345231
v -0.659600 0.040000 0.391969
v -0.663015 0.033889 0.391969
v -0.666467 0.041359 0.391969
v -0.659600 0.040000 0.345231
v -0.660429 0.046951 0.345231
v -0.666467 0.041359 0.345231
v -0.659600 0.040000 0.391969
v -0.666467 0.041359 0.391969
v -0.660429 0.046951 0.391969
v -0.659600 0.040000 0.345231
v -0.653246 0.042936 0.345231
v -0.660429 0.046951 0.345231
v -0.659600 0.040000 0.391969
v -0.660429 0.046951 0.391969
v -0.653246 0.042936 0.391969
v -0.659600 0.040000 0.345231
v -0.654844 0.034864 0.345231
v -0.653246 0.042936 0.345231
v -0.659600 0.040000 0.391969
v -0.653246 0.042936 0.391969
v -0.654844 0.034864 0.391969
v -0.659600 0.040000 0.345231
v -0.663015 0.033889 0.345231
v -0.654844 0.034864 0.345231
v -0.659600 0.040000 0.391969
v -0.654844 0.034864 0.391969
v -0.663015 0.033889 0.391969
v 0.692000 -0.045000 0.380000
v 0.686000 -0.045000 0.390392
v 0.686000 0.115000 0.390392
v 0.692000 0.115000 0.380000
v 0.686000 -0.045000 0.390392
v 0.674000 -0.045000 0.390392
v 0.674000 0.115000 0.390392
v 0.686000 0.115000 0.390392
v 0.674000 -0.045000 0.390392
v 0.668000 -0.045000 0.380000
v 0.668000 0.115000 0.380000
v 0.674000 0.115000 0.390392
v 0.668000 -0.045000 0.380000
v 0.674000 -0.045000 0.369608
v 0.674000 0.115000 0.369608
v 0.668000 0.115000 0.380000
v 0.674000 -0.045000 0.369608
v 0.686000 -0.045000 0.369608
v 0.686000 0.115000 0.369608
v 0.674000 0.115000 0.369608
v 0.686000 -0.045000 0.369608
v 0.692000 -0.045000 0.380000
v 0.692000 0.115000 0.380000
v 0.686000 0.115000 0.369608
v 0.680000 -0.045000 0.380000
v 0.686000 -0.045000 0.390392
v 0.692000 -0.045000 0.380000
v 0.680000 0.115000 0.380000
v 0.692000 0.115000 0.380000
v 0.686000 0.115000 0.390392
v 0.680000 -0.045000 0.380000
v 0.674000 -0.045000 0.390392
v 0.686000 -0.045000 0.390392
v 0.680000 0.115000 0.380000
v 0.686000 0.115000 0.390392
v 0.674000 0.115000 0.390392
v 0.680000 -0.045000 0.380000
v 0.668000 -0.045000 0.380000
v 0.674000 -0.045000 0.390392
v 0.680000 0.115000 0.380000
v 0.674000 0.115000 0.390392
v 0.668000 0.115000 0.380000
v 0.680000 -0.045000 0.380000
v 0.674000 -0.045000 0.369608
v 0.668000 -0.045000 0.380000
v 0.680000 0.115000 0.380000
v 0.668000 0.115000 0.380000
v 0.674000 0.115000 0.369608
v 0.680000 -0.045000 0.380000
v 0.686000 -0.045000 0.369608
v 0.674000 -0.045000 0.369608
v 0.680000 0.115000 0.380000
v 0.674000 0.115000 0.369608
v 0.686000 0.115000 0.369608
v 0.680000 -0.045000 0.380000
v 0.692000 -0.045000 0.380000
v 0.686000 -0.045000 0.369608
v 0.680000 0.115000 0.380000
v 0.686000 0.115000 0.369608
v 0.692000 0.115000 0.380000
v 0.656185 0.046111 0.345231
v 0.664356 0.045136 0.345231
v 0.664356 0.045136 0.391969
v 0.656185 0.046111 0.391969
v 0.664356 0.045136 0.345231
v 0.665954 0.037064 0.345231
v 0.665954 0.037064 0.391969
v 0.664356 0.045136 0.391969
v 0.665954 0.037064 0.345231
v 0.658771 0.033049 0.345231
v 0.658771 0.033049 0.391969
v 0.665954 0.037064 0.391969
v 0.658771 0.033049 0.345231
v 0.652733 0.038641 0.345231
v 0.652733 0.038641 0.391969
v 0.658771 0.033049 0.391969
v 0.652733 0.038641 0.345231
v 0.656185 0.046111 0.345231
v 0.656185 0.046111 0.391969
v 0.652733 0.038641 0.391969
v 0.659600 0.040000 0.345231
v 0.664356 0.045136 0.345231
v 0.656185 0.046111 0.345231
v 0.659600 0.040000 0.391969
v 0.656185 0.046111 0.391969
v 0.664356 0.045136 0.391969
v 0.659600 0.040000 0.345231
v 0.665954 0.037064 0.345231
v 0.664356 0.045136 0.345231
v 0.659600 0.040000 0.391969
v 0.664356 0.045136 0.391969
v 0.665954 0.037064 0.391969
v 0.659600 0.040000 0.345231
v 0.658771 0.033049 0.345231
v 0.665954 0.037064 0.345231
v 0.659600 0.040000 0.391969
v 0.665954 0.037064 0.391969
v 0.658771 0.033049 0.391969
v 0.659600 0.040000 0.345231
v 0.652733 0.038641 0.345231
v 0.658771 0.033049 0.345231
v 0.659600 0.040000 0.391969
v 0.658771 0.033049 0.391969
v 0.652733 0.038641 0.391969
v 0.659600 0.040000 0.345231
v 0.656185 0.046111 0.345231
v 0.652733 0.038641 0.345231
v 0.659600 0.040000 0.391969
v 0.652733 0.038641 0.391969
v 0.656185 0.046111 0.391969
v 0.161725 0.036880 -0.055759
v 0.427007 0.060089 -0.142284
v 0.425961 0.072043 -0.142284
v 0.160679 0.048834 -0.055759
v 0.439321 0.061166 -0.104241
v 0.174039 0.037957 -0.017716
v 0.172993 0.049911 -0.017716
v 0.438275 0.073120 -0.104241
v 0.174039 0.037957 -0.017716
v 0.161725 0.036880 -0.055759
v 0.160679 0.048834 -0.055759
v 0.172993 0.049911 -0.017716
v 0.427007 0.060089 -0.142284
v 0.439321 0.061166 -0.104241
v 0.438275 0.073120 -0.104241
v 0.425961 0.072043 -0.142284
v 0.160679 0.048834 -0.055759
v 0.425961 0.072043 -0.142284
v 0.438275 0.073120 -0.104241
v 0.172993 0.049911 -0.017716
v 0.174039 0.037957 -0.017716
v 0.439321 0.061166 -0.104241
v 0.427007 0.060089 -0.142284
v 0.161725 0.036880 -0.055759
v -0.001424 0.036478 -0.880076
v -0.006231 0.039860 -0.880065
v -0.003231 0.039906 0.440087
v 0.001576 0.036523 0.440076
v -0.006231 0.039860 -0.880065
v -0.004500 0.045477 -0.880069
v -0.001500 0.045523 0.440082
v -0.003231 0.039906 0.440087
v -0.004500 0.045477 -0.880069
v 0.001377 0.045566 -0.880082
v 0.004377 0.045612 0.440069
v -0.001500 0.045523 0.440082
v 0.001377 0.045566 -0.880082
v 0.003278 0.040004 -0.880087
v 0.006278 0.040050 0.440065
v 0.004377 0.045612 0.440069
v 0.003278 0.040004 -0.880087
v -0.001424 0.036478 -0.880076
v 0.001576 0.036523 0.440076
v 0.006278 0.040050 0.440065
v -0.001500 0.041477 -0.880076
v -0.006231 0.039860 -0.880065
v -0.001424 0.036478 -0.880076
v 0.001500 0.041523 0.440076
v 0.001576 0.036523 0.440076
v -0.003231 0.039906 0.440087
v -0.001500 0.041477 -0.880076
v -0.004500 0.045477 -0.880069
v -0.006231 0.039860 -0.880065
v 0.001500 0.041523 0.440076
v -0.003231 0.039906 0.440087
v -0.001500 0.045523 0.440082
v -0.001500 0.041477 -0.880076
v 0.001377 0.045566 -0.880082
v -0.004500 0.045477 -0.880069
v 0.001500 0.041523 0.440076
v -0.001500 0.045523 0.440082
v 0.004377 0.045612 0.440069
v -0.001500 0.041477 -0.880076
v 0.003278 0.040004 -0.880087
v 0.001377 0.045566 -0.880082
v 0.001500 0.041523 0.440076
v 0.004377 0.045612 0.440069
v 0.006278 0.040050 0.440065
v -0.001500 0.041477 -0.880076
v -0.001424 0.036478 -0.880076
v 0.003278 0.040004 -0.880087
v 0.001500 0.041523 0.440076
v 0.006278 0.040050 0.440065
v 0.001576 0.036523 0.440076
v -0.001424 0.036478 -0.650076
v -0.006231 0.039860 -0.650065
v -0.003231 0.039906 0.670087
v 0.001576 0.036523 0.670076
v -0.006231 0.039860 -0.650065
v -0.004500 0.045477 -0.650069
v -0.001500 0.045523 0.670082
v -0.003231 0.039906 0.670087
v -0.004500 0.045477 -0.650069
v 0.001377 0.045566 -0.650082
v 0.004377 0.045612 0.670069
v -0.001500 0.045523 0.670082
v 0.001377 0.045566 -0.650082
v 0.003278 0.040004 -0.650087
v 0.006278 0.040050 0.670065
v 0.004377 0.045612 0.670069
v 0.003278 0.040004 -0.650087
v -0.001424 0.036478 -0.650076
v 0.001576 0.036523 0.670076
v 0.006278 0.040050 0.670065
v -0.001500 0.041477 -0.650076
v -0.006231 0.039860 -0.650065
v -0.001424 0.036478 -0.650076
v 0.001500 0.041523 0.670076
v 0.001576 0.036523 0.670076
v -0.003231 0.039906 0.670087
v -0.001500 0.041477 -0.650076
v -0.004500 0.045477 -0.650069
v -0.006231 0.039860 -0.650065
v 0.001500 0.041523 0.670076
v -0.003231 0.039906 0.670087
v -0.001500 0.045523 0.670082
v -0.001500 0.041477 -0.650076
v 0.001377 0.045566 -0.650082
v -0.004500 0.045477 -0.650069
v 0.001500 0.041523 0.670076
v -0.001500 0.045523 0.670082
v 0.004377 0.045612 0.670069
v -0.001500 0.041477 -0.650076
v 0.003278 0.040004 -0.650087
v 0.001377 0.045566 -0.650082
v 0.001500 0.041523 0.670076
v 0.004377 0.045612 0.670069
v 0.006278 0.040050 0.670065
v -0.001500 0.041477 -0.650076
v -0.001424 0.036478 -0.650076
v 0.003278 0.040004 -0.650087
v 0.001500 0.041523 0.670076
v 0.006278 0.040050 0.670065
v 0.001576 0.036523 0.670076
v -0.001424 0.036478 -0.420076
v -0.006231 0.039860 -0.420065
v -0.003231 0.039906 0.900087
v 0.001576 0.036523 0.900076
v -0.006231 0.039860 -0.420065
v -0.004500 0.045477 -0.420069
v -0.001500 0.045523 0.900082
v -0.003231 0.039906 0.900087
v -0.004500 0.045477 -0.420069
v 0.001377 0.045566 -0.420082
v 0.004377 0.045612 0.900069
v -0.001500 0.045523 0.900082
v 0.001377 0.045566 -0.420082
v 0.003278 0.040004 -0.420087
v 0.006278 0.040050 0.900065
v 0.004377 0.045612 0.900069
v 0.003278 0.040004 -0.420087
v -0.001424 0.036478 -0.420076
v 0.001576 0.036523 0.900076
v 0.006278 0.040050 0.900065
v -0.001500 0.041477 -0.420076
v -0.006231 0.039860 -0.420065
v -0.001424 0.036478 -0.420076
v 0.001500 0.041523 0.900076
v 0.001576 0.036523 0.900076
v -0.003231 0.039906 0.900087
v -0.001500 0.041477 -0.420076
v -0.004500 0.045477 -0.420069
v -0.006231 0.039860 -0.420065
v 0.001500 0.041523 0.900076
v -0.003231 0.039906 0.900087
v -0.001500 0.045523 0.900082
v -0.001500 0.041477 -0.420076
v 0.001377 0.045566 -0.420082
v -0.004500 0.045477 -0.420069
v 0.001500 0.041523 0.900076
v -0.001500 0.045523 0.900082
v 0.004377 0.045612 0.900069
v -0.001500 0.041477 -0.420076
v 0.003278 0.040004 -0.420087
v 0.001377 0.045566 -0.420082
v 0.001500 0.041523 0.900076
v 0.004377 0.045612 0.900069
v 0.006278 0.040050 0.900065
v -0.001500 0.041477 -0.420076
v -0.001424 0.036478 -0.420076
v 0.003278 0.040004 -0.420087
v 0.001500 0.041523 0.900076
v 0.006278 0.040050 0.900065
v 0.001576 0.036523 0.900076
v -0.696798 0.041064 0.214141
v -0.324158 0.093435 0.267027
v -0.326664 0.111260 0.267027
v -0.699303 0.058889 0.214141
v -0.340697 0.091111 0.385859
v -0.713336 0.038740 0.332973
v -0.715842 0.056565 0.332973
v -0.343202 0.108936 0.385859
v -0.713336 0.038740 0.332973
v -0.696798 0.041064 0.214141
v -0.699303 0.058889 0.214141
v -0.715842 0.056565 0.332973
v -0.324158 0.093435 0.267027
v -0.340697 0.091111 0.385859
v -0.343202 0.108936 0.385859
v -0.326664 0.111260 0.267027
v -0.699303 0.058889 0.214141
v -0.326664 0.111260 0.267027
v -0.343202 0.108936 0.385859
v -0.715842 0.056565 0.332973
v -0.713336 0.038740 0.332973
v -0.340697 0.091111 0.385859
v -0.324158 0.093435 0.267027
v -0.696798 0.041064 0.214141
v 0.099657 0.062394 -0.225135
v 0.367055 0.048380 -0.306999
v 0.367788 0.062361 -0.306999
v 0.100390 0.076374 -0.225135
v 0.419610 0.045626 -0.134865
v 0.152212 0.059639 -0.053001
v 0.152945 0.073620 -0.053001
v 0.420343 0.059606 -0.134865
v 0.152212 0.059639 -0.053001
v 0.099657 0.062394 -0.225135
v 0.100390 0.076374 -0.225135
v 0.152945 0.073620 -0.053001
v 0.367055 0.048380 -0.306999
v 0.419610 0.045626 -0.134865
v 0.420343 0.059606 -0.134865
v 0.367788 0.062361 -0.306999
v 0.100390 0.076374 -0.225135
v 0.367788 0.062361 -0.306999
v 0.420343 0.059606 -0.134865
v 0.152945 0.073620 -0.053001
v 0.152212 0.059639 -0.053001
v 0.419610 0.045626 -0.134865
v 0.367055 0.048380 -0.306999
v 0.099657 0.062394 -0.225135
vt 0.000000 0.000000
vt 1.000000 0.000000
vt 1.000000 1.000000
vt 0.000000 1.000000
vt 0.000000 0.000000
vt 1.000000 0.000000
vt 1.000000 1.000000
vt 0.000000 1.000000
vt 0.000000 0.000000
vt 1.000000 0.000000
vt 1.000000 1.000000
vt 0.000000 1.000000
vt 0.000000 0.000000
vt 1.000000 0.000000
vt 1.000000 1.000000
vt 0.000000 1.000000
vt 0.000000 0.000000
vt 1.000000 0.000000
vt 1.000000 1.000000
vt 0.000000 1.000000
vt 0.000000 0.000000
vt 1.000000 0.000000
vt 1.000000 1.000000
vt 0.000000 1.000000
vt 0.000000 0.000000
vt 1.000000 0.000000
vt 1.000000 1.000000
vt 0.000000 1.000000
vt 0.000000 0.000000
vt 1.000000 0.000000
vt 1.000000 1.000000
vt 0.000000 1.000000
vt 0.000000 0.000000
vt 1.000000 0.000000
vt 1.000000 1.000000
vt 0.000000 1.000000
vt 0.000000 0.000000
vt 1.000000 0.000000
vt 1.000000 1.000000
vt 0.000000 1.000000
vt 0.000000 0.000000
vt 1.000000 0.000000
vt 1.000000 1.000000
vt 0.000000 1.000000
vt 0.000000 0.000000
vt 1.000000 0.000000
vt 1.000000 1.000000
vt 0.000000 1.000000
vt 0.000000 0.000000
vt 1.000000 0.000000
vt 1.000000 1.000000
vt 0.000000 1.000000
vt 0.000000 0.000000
vt 1.000000 0.000000
vt 1.000000 1.000000
vt 0.000000 1.000000
vt 0.000000 0.000000
vt 1.000000 0.000000
vt 1.000000 1.000000
vt 0.000000 1.000000
vt 0.000000 0.000000
vt 1.000000 0.000000
vt 1.000000 1.000000
vt 0.000000 1.000000
vt 0.000000 0.000000
vt 1.000000 0.000000
vt 1.000000 1.000000
vt 0.000000 1.000000
vt 0.000000 0.000000
vt 1.000000 0.000000
vt 1.000000 1.000000
vt 0.000000 1.000000
vt 0.000000 0.000000
vt 1.000000 0.000000
vt 1.000000 1.000000
vt 0.000000 1.000000
vt 0.000000 0.000000
vt 1.000000 0.000000
vt 1.000000 1.000000
vt 0.000000 1.000000
vt 0.000000 0.000000
vt 1.000000 0.000000
vt 1.000000 1.000000
vt 0.000000 1.000000
vt 0.000000 0.000000
vt 1.000000 0.000000
vt 1.000000 1.000000
vt 0.000000 1.000000
vt 0.000000 0.000000
vt 1.000000 0.000000
vt 1.000000 1.000000
vt 0.000000 1.000000
vt 0.000000 0.000000
vt 1.000000 0.000000
vt 1.000000 1.000000
vt 0.000000 1.000000
vt 0.000000 0.000000
vt 1.000000 0.000000
vt 1.000000 1.000000
vt 0.000000 1.000000
vt 0.000000 0.000000
vt 1.000000 0.000000
vt 1.000000 1.000000
vt 0.000000 1.000000
vt 0.000000 0.000000
vt 1.000000 0.000000
vt 1.000000 1.000000
vt 0.000000 1.000000
vt 0.000000 0.000000
vt 1.000000 0.000000
vt 1.000000 1.000000
vt 0.000000 1.000000
vt 0.000000 0.000000
vt 1.000000 0.000000
vt 1.000000 1.000000
vt 0.000000 1.000000
vt 0.000000 0.000000
vt 1.000000 0.000000
vt 1.000000 1.000000
vt 0.000000 1.000000
vt 0.000000 0.000000
vt 1.000000 0.000000
vt 1.000000 1.000000
vt 0.000000 1.000000
vt 0.000000 0.000000
vt 1.000000 0.000000
vt 1.000000 1.000000
vt 0.000000 1.000000
vt 0.000000 0.000000
vt 1.000000 0.000000
vt 1.000000 1.000000
vt 0.000000 1.000000
vt 0.000000 0.000000
vt 1.000000 0.000000
vt 1.000000 1.000000
vt 0.000000 1.000000
vt 0.000000 0.000000
vt 1.000000 0.000000
vt 1.000000 1.000000
vt 0.000000 1.000000
vt 0.000000 0.000000
vt 1.000000 0.000000
vt 1.000000 1.000000
vt 0.000000 1.000000
vt 0.000000 0.000000
vt 1.000000 0.000000
vt 1.000000 1.000000
vt 0.000000 1.000000
vt 0.000000 0.000000
vt 1.000000 0.000000
vt 1.000000 1.000000
vt 0.000000 1.000000
vt 0.000000 0.000000
vt 1.000000 0.000000
vt 1.000000 1.000000
vt 0.000000 1.000000
vt 0.000000 0.000000
vt 1.000000 0.000000
vt 1.000000 1.000000
vt 0.000000 1.000000
vt 0.000000 0.000000
vt 1.000000 0.000000
vt 1.000000 1.000000
vt 0.000000 1.000000
vt 0.000000 0.000000
vt 1.000000 0.000000
vt 1.000000 1.000000
vt 0.000000 1.000000
vt 0.000000 0.000000
vt 1.000000 0.000000
vt 1.000000 1.000000
vt 0.000000 1.000000
vt 0.000000 0.000000
vt 1.000000 0.000000
vt 1.000000 1.000000
vt 0.000000 1.000000
vt 0.000000 0.000000
vt 1.000000 0.000000
vt 1.000000 1.000000
vt 0.000000 1.000000
vt 0.000000 0.000000
vt 1.000000 0.000000
vt 1.000000 1.000000
vt 0.000000 1.000000
vt 0.000000 0.000000
vt 1.000000 0.000000
vt 1.000000 1.000000
vt 0.000000 1.000000
vt 0.000000 0.000000
vt 1.000000 0.000000
vt 1.000000 1.000000
vt 0.000000 1.000000
vt 0.000000 0.000000
vt 1.000000 0.000000
vt 1.000000 1.000000
vt 0.000000 1.000000
vt 0.000000 0.000000
vt 1.000000 0.000000
vt 1.000000 1.000000
vt 0.000000 1.000000
vt 0.000000 0.000000
vt 1.000000 0.000000
vt 1.000000 1.000000
vt 0.000000 1.000000
vt 0.000000 0.000000
vt 1.000000 0.000000
vt 1.000000 1.000000
vt 0.000000 1.000000
vt 0.000000 0.000000
vt 1.000000 0.000000
vt 1.000000 1.000000
vt 0.000000 1.000000
vt 0.000000 0.000000
vt 1.000000 0.000000
vt 1.000000 1.000000
vt 0.000000 1.000000
vt 0.000000 0.000000
vt 1.000000 0.000000
vt 1.000000 1.000000
vt 0.000000 1.000000
vt 0.000000 0.000000
vt 1.000000 0.000000
vt 1.000000 1.000000
vt 0.000000 1.000000
vt 0.000000 0.000000
vt 1.000000 0.000000
vt 1.000000 1.000000
vt 0.000000 1.000000
vt 0.000000 0.000000
vt 1.000000 0.000000
vt 1.000000 1.000000
vt 0.000000 1.000000
vt 0.000000 0.000000
vt 1.000000 0.000000
vt 1.000000 1.000000
vt 0.000000 1.000000
vt 0.000000 0.000000
vt 1.000000 0.000000
vt 1.000000 1.000000
vt 0.000000 1.000000
vt 0.000000 0.000000
vt 1.000000 0.000000
vt 1.000000 1.000000
vt 0.000000 1.000000
vt 0.000000 0.000000
vt 1.000000 0.000000
vt 1.000000 1.000000
vt 0.000000 1.000000
vt 0.000000 0.000000
vt 1.000000 0.000000
vt 1.000000 1.000000
vt 0.000000 1.000000
vt 0.000000 0.000000
vt 1.000000 0.000000
vt 1.000000 1.000000
vt 0.000000 1.000000
vt 0.000000 0.000000
vt 1.000000 0.000000
vt 1.000000 1.000000
vt 0.000000 1.000000
vt 0.000000 0.000000
vt 1.000000 0.000000
vt 1.000000 1.000000
vt 0.000000 1.000000
vt 0.000000 0.000000
vt 1.000000 0.000000
vt 1.000000 1.000000
vt 0.000000 1.000000
vt 0.000000 0.000000
vt 1.000000 0.000000
vt 1.000000 1.000000
vt 0.000000 1.000000
vt 0.000000 0.000000
vt 1.000000 0.000000
vt 1.000000 1.000000
vt 0.000000 1.000000
vt 0.000000 0.000000
vt 1.000000 0.000000
vt 1.000000 1.000000
vt 0.000000 1.000000
vt 0.000000 0.000000
vt 1.000000 0.000000
vt 1.000000 1.000000
vt 0.000000 1.000000
vt 0.000000 0.000000
vt 1.000000 0.000000
vt 1.000000 1.000000
vt 0.000000 1.000000
vt 0.000000 0.000000
vt 1.000000 0.000000
vt 1.000000 1.000000
vt 0.000000 1.000000
vt 0.000000 0.000000
vt 1.000000 0.000000
vt 1.000000 1.000000
vt 0.000000 1.000000
vt 0.000000 0.000000
vt 1.000000 0.000000
vt 1.000000 1.000000
vt 0.000000 1.000000
vt 0.500000 0.500000
vt 0.000000 0.000000
vt 1.000000 0.000000
vt 0.500000 0.500000
vt 0.000000 1.000000
vt 1.000000 1.000000
vt 0.500000 0.500000
vt 0.000000 0.000000
vt 1.000000 0.000000
vt 0.500000 0.500000
vt 0.000000 1.000000
vt 1.000000 1.000000
vt 0.500000 0.500000
vt 0.000000 0.000000
vt 1.000000 0.000000
vt 0.500000 0.500000
vt 0.000000 1.000000
vt 1.000000 1.000000
vt 0.500000 0.500000
vt 0.000000 0.000000
vt 1.000000 0.000000
vt 0.500000 0.500000
vt 0.000000 1.000000
vt 1.000000 1.000000
vt 0.500000 0.500000
vt 0.000000 0.000000
vt 1.000000 0.000000
vt 0.500000 0.500000
vt 0.000000 1.000000
vt 1.000000 1.000000
vt 0.500000 0.500000
vt 0.000000 0.000000
vt 1.000000 0.000000
vt 0.500000 0.500000
vt 0.000000 1.000000
vt 1.000000 1.000000
vt 0.000000 0.000000
vt 1.000000 0.000000
vt 1.000000 1.000000
vt 0.000000 1.000000
vt 0.000000 0.000000
vt 1.000000 0.000000
vt 1.000000 1.000000
vt 0.000000 1.000000
vt 0.000000 0.000000
vt 1.000000 0.000000
vt 1.000000 1.000000
vt 0.000000 1.000000
vt 0.000000 0.000000
vt 1.000000 0.000000
vt 1.000000 1.000000
vt 0.000000 1.000000
vt 0.000000 0.000000
vt 1.000000 0.000000
vt 1.000000 1.000000
vt 0.000000 1.000000
vt 0.500000 0.500000
vt 0.000000 0.000000
vt 1.000000 0.000000
vt 0.500000 0.500000
vt 0.000000 1.000000
vt 1.000000 1.000000
vt 0.500000 0.500000
vt 0.000000 0.000000
vt 1.000000 0.000000
vt 0.500000 0.500000
vt 0.000000 1.000000
vt 1.000000 1.000000
vt 0.500000 0.500000
vt 0.000000 0.000000
vt 1.000000 0.000000
vt 0.500000 0.500000
vt 0.000000 1.000000
vt 1.000000 1.000000
vt 0.500000 0.500000
vt 0.000000 0.000000
vt 1.000000 0.000000
vt 0.500000 0.500000
vt 0.000000 1.000000
vt 1.000000 1.000000
vt 0.500000 0.500000
vt 0.000000 0.000000
vt 1.000000 0.000000
vt 0.500000 0.500000
vt 0.000000 1.000000
vt 1.000000 1.000000
vt 0.000000 0.000000
vt 1.000000 0.000000
vt 1.000000 1.000000
vt 0.000000 1.000000
vt 0.000000 0.000000
vt 1.000000 0.000000
vt 1.000000 1.000000
vt 0.000000 1.000000
vt 0.000000 0.000000
vt 1.000000 0.000000
vt 1.000000 1.000000
vt 0.000000 1.000000
vt 0.000000 0.000000
vt 1.000000 0.000000
vt 1.000000 1.000000
vt 0.000000 1.000000
vt 0.000000 0.000000
vt 1.000000 0.000000
vt 1.000000 1.000000
vt 0.000000 1.000000
vt 0.000000 0.000000
vt 1.000000 0.000000
vt 1.000000 1.000000
vt 0.000000 1.000000
vt 0.500000 0.500000
vt 0.000000 0.000000
vt 1.000000 0.000000
vt 0.500000 0.500000
vt 0.000000 1.000000
vt 1.000000 1.000000
vt 0.500000 0.500000
vt 0.000000 0.000000
vt 1.000000 0.000000
vt 0.500000 0.500000
vt 0.000000 1.000000
vt 1.000000 1.000000
vt 0.500000 0.500000
vt 0.000000 0.000000
vt 1.000000 0.000000
vt 0.500000 0.500000
vt 0.000000 1.000000
vt 1.000000 1.000000
vt 0.500000 0.500000
vt 0.000000 0.000000
vt 1.000000 0.000000
vt 0.500000 0.500000
vt 0.000000 1.000000
vt 1.000000 1.000000
vt 0.500000 0.500000
vt 0.000000 0.000000
vt 1.000000 0.000000
vt 0.500000 0.500000
vt 0.000000 1.000000
vt 1.000000 1.000000
vt 0.500000 0.500000
vt 0.000000 0.000000
vt 1.000000 0.000000
vt 0.500000 0.500000
vt 0.000000 1.000000
vt 1.000000 1.000000
vt 0.000000 0.000000
vt 1.000000 0.000000
vt 1.000000 1.000000
vt 0.000000 1.000000
vt 0.000000 0.000000
vt 1.000000 0.000000
vt 1.000000 1.000000
vt 0.000000 1.000000
vt 0.000000 0.000000
vt 1.000000 0.000000
vt 1.000000 1.000000
vt 0.000000 1.000000
vt 0.000000 0.000000
vt 1.000000 0.000000
vt 1.000000 1.000000
vt 0.000000 1.000000
vt 0.000000 0.000000
vt 1.000000 0.000000
vt 1.000000 1.000000
vt 0.000000 1.000000
vt 0.500000 0.500000
vt 0.000000 0.000000
vt 1.000000 0.000000
vt 0.500000 0.500000
vt 0.000000 1.000000
vt 1.000000 1.000000
vt 0.500000 0.500000
vt 0.000000 0.000000
vt 1.000000 0.000000
vt 0.500000 0.500000
vt 0.000000 1.000000
vt 1.000000 1.000000
vt 0.500000 0.500000
vt 0.000000 0.000000
vt 1.000000 0.000000
vt 0.500000 0.500000
vt 0.000000 1.000000
vt 1.000000 1.000000
vt 0.500000 0.500000
vt 0.000000 0.000000
vt 1.000000 0.000000
vt 0.500000 0.500000
vt 0.000000 1.000000
vt 1.000000 1.000000
vt 0.500000 0.500000
vt 0.000000 0.000000
vt 1.000000 0.000000
vt 0.500000 0.500000
vt 0.000000 1.000000
vt 1.000000 1.000000
vt 0.000000 0.000000
vt 1.000000 0.000000
vt 1.000000 1.000000
vt 0.000000 1.000000
vt 0.000000 0.000000
vt 1.000000 0.000000
vt 1.000000 1.000000
vt 0.000000 1.000000
vt 0.000000 0.000000
vt 1.000000 0.000000
vt 1.000000 1.000000
vt 0.000000 1.000000
vt 0.000000 0.000000
vt 1.000000 0.000000
vt 1.000000 1.000000
vt 0.000000 1.000000
vt 0.000000 0.000000
vt 1.000000 0.000000
vt 1.000000 1.000000
vt 0.000000 1.000000
vt 0.000000 0.000000
vt 1.000000 0.000000
vt 1.000000 1.000000
vt 0.000000 1.000000
vt 0.500000 0.500000
vt 0.000000 0.000000
vt 1.000000 0.000000
vt 0.500000 0.500000
vt 0.000000 1.000000
vt 1.000000 1.000000
vt 0.500000 0.500000
vt 0.000000 0.000000
vt 1.000000 0.000000
vt 0.500000 0.500000
vt 0.000000 1.000000
vt 1.000000 1.000000
vt 0.500000 0.500000
vt 0.000000 0.000000
vt 1.000000 0.000000
vt 0.500000 0.500000
vt 0.000000 1.000000
vt 1.000000 1.000000
vt 0.500000 0.500000
vt 0.000000 0.000000
vt 1.000000 0.000000
vt 0.500000 0.500000
vt 0.000000 1.000000
vt 1.000000 1.000000
vt 0.500000 0.500000
vt 0.000000 0.000000
vt 1.000000 0.000000
vt 0.500000 0.500000
vt 0.000000 1.000000
vt 1.000000 1.000000
vt 0.500000 0.500000
vt 0.000000 0.000000
vt 1.000000 0.000000
vt 0.500000 0.500000
vt 0.000000 1.000000
vt 1.000000 1.000000
vt 0.000000 0.000000
vt 1.000000 0.000000
vt 1.000000 1.000000
vt 0.000000 1.000000
vt 0.000000 0.000000
vt 1.000000 0.000000
vt 1.000000 1.000000
vt 0.000000 1.000000
vt 0.000000 0.000000
vt 1.000000 0.000000
vt 1.000000 1.000000
vt 0.000000 1.000000
vt 0.000000 0.000000
vt 1.000000 0.000000
vt 1.000000 1.000000
vt 0.000000 1.000000
vt 0.000000 0.000000
vt 1.000000 0.000000
vt 1.000000 1.000000
vt 0.000000 1.000000
vt 0.500000 0.500000
vt 0.000000 0.000000
vt 1.000000 0.000000
vt 0.500000 0.500000
vt 0.000000 1.000000
vt 1.000000 1.000000
vt 0.500000 0.500000
vt 0.000000 0.000000
vt 1.000000 0.000000
vt 0.500000 0.500000
vt 0.000000 1.000000
vt 1.000000 1.000000
vt 0.500000 0.500000
vt 0.000000 0.000000
vt 1.000000 0.000000
vt 0.500000 0.500000
vt 0.000000 1.000000
vt 1.000000 1.000000
vt 0.500000 0.500000
vt 0.000000 0.000000
vt 1.000000 0.000000
vt 0.500000 0.500000
vt 0.000000 1.000000
vt 1.000000 1.000000
vt 0.500000 0.500000
vt 0.000000 0.000000
vt 1.000000 0.000000
vt 0.500000 0.500000
vt 0.000000 1.000000
vt 1.000000 1.000000
vt 0.000000 0.000000
vt 1.000000 0.000000
vt 1.000000 1.000000
vt 0.000000 1.000000
vt 0.000000 0.000000
vt 1.000000 0.000000
vt 1.000000 1.000000
vt 0.000000 1.000000
vt 0.000000 0.000000
vt 1.000000 0.000000
vt 1.000000 1.000000
vt 0.000000 1.000000
vt 0.000000 0.000000
vt 1.000000 0.000000
vt 1.000000 1.000000
vt 0.000000 1.000000
vt 0.000000 0.000000
vt 1.000000 0.000000
vt 1.000000 1.000000
vt 0.000000 1.000000
vt 0.000000 0.000000
vt 1.000000 0.000000
vt 1.000000 1.000000
vt 0.000000 1.000000
vt 0.500000 0.500000
vt 0.000000 0.000000
vt 1.000000 0.000000
vt 0.500000 0.500000
vt 0.000000 1.000000
vt 1.000000 1.000000
vt 0.500000 0.500000
vt 0.000000 0.000000
vt 1.000000 0.000000
vt 0.500000 0.500000
vt 0.000000 1.000000
vt 1.000000 1.000000
vt 0.500000 0.500000
vt 0.000000 0.000000
vt 1.000000 0.000000
vt 0.500000 0.500000
vt 0.000000 1.000000
vt 1.000000 1.000000
vt 0.500000 0.500000
vt 0.000000 0.000000
vt 1.000000 0.000000
vt 0.500000 0.500000
vt 0.000000 1.000000
vt 1.000000 1.000000
vt 0.500000 0.500000
vt 0.000000 0.000000
vt 1.000000 0.000000
vt 0.500000 0.500000
vt 0.000000 1.000000
vt 1.000000 1.000000
vt 0.500000 0.500000
vt 0.000000 0.000000
vt 1.000000 0.000000
vt 0.500000 0.500000
vt 0.000000 1.000000
vt 1.000000 1.000000
vt 0.000000 0.000000
vt 1.000000 0.000000
vt 1.000000 1.000000
vt 0.000000 1.000000
vt 0.000000 0.000000
vt 1.000000 0.000000
vt 1.000000 1.000000
vt 0.000000 1.000000
vt 0.000000 0.000000
vt 1.000000 0.000000
vt 1.000000 1.000000
vt 0.000000 1.000000
vt 0.000000 0.000000
vt 1.000000 0.000000
vt 1.000000 1.000000
vt 0.000000 1.000000
vt 0.000000 0.000000
vt 1.000000 0.000000
vt 1.000000 1.000000
vt 0.000000 1.000000
vt 0.500000 0.500000
vt 0.000000 0.000000
vt 1.000000 0.000000
vt 0.500000 0.500000
vt 0.000000 1.000000
vt 1.000000 1.000000
vt 0.500000 0.500000
vt 0.000000 0.000000
vt 1.000000 0.000000
vt 0.500000 0.500000
vt 0.000000 1.000000
vt 1.000000 1.000000
vt 0.500000 0.500000
vt 0.000000 0.000000
vt 1.000000 0.000000
vt 0.500000 0.500000
vt 0.000000 1.000000
vt 1.000000 1.000000
vt 0.500000 0.500000
vt 0.000000 0.000000
vt 1.000000 0.000000
vt 0.500000 0.500000
vt 0.000000 1.000000
vt 1.000000 1.000000
vt 0.500000 0.500000
vt 0.000000 0.000000
vt 1.000000 0.000000
vt 0.500000 0.500000
vt 0.000000 1.000000
vt 1.000000 1.000000
vt 0.000000 0.000000
vt 1.000000 0.000000
vt 1.000000 1.000000
vt 0.000000 1.000000
vt 0.000000 0.000000
vt 1.000000 0.000000
vt 1.000000 1.000000
vt 0.000000 1.000000
vt 0.000000 0.000000
vt 1.000000 0.000000
vt 1.000000 1.000000
vt 0.000000 1.000000
vt 0.000000 0.000000
vt 1.000000 0.000000
vt 1.000000 1.000000
vt 0.000000 1.000000
vt 0.000000 0.000000
vt 1.000000 0.000000
vt 1.000000 1.000000
vt 0.000000 1.000000
vt 0.000000 0.000000
vt 1.000000 0.000000
vt 1.000000 1.000000
vt 0.000000 1.000000
vt 0.000000 0.000000
vt 1.000000 0.000000
vt 1.000000 1.000000
vt 0.000000 1.000000
vt 0.000000 0.000000
vt 1.000000 0.000000
vt 1.000000 1.000000
vt 0.000000 1.000000
vt 0.000000 0.000000
vt 1.000000 0.000000
vt 1.000000 1.000000
vt 0.000000 1.000000
vt 0.000000 0.000000
vt 1.000000 0.000000
vt 1.000000 1.000000
vt 0.000000 1.000000
vt 0.000000 0.000000
vt 1.000000 0.000000
vt 1.000000 1.000000
vt 0.000000 1.000000
vt 0.500000 0.500000
vt 0.000000 0.000000
vt 1.000000 0.000000
vt 0.500000 0.500000
vt 0.000000 1.000000
vt 1.000000 1.000000
vt 0.500000 0.500000
vt 0.000000 0.000000
vt 1.000000 0.000000
vt 0.500000 0.500000
vt 0.000000 1.000000
vt 1.000000 1.000000
vt 0.500000 0.500000
vt 0.000000 0.000000
vt 1.000000 0.000000
vt 0.500000 0.500000
vt 0.000000 1.000000
vt 1.000000 1.000000
vt 0.500000 0.500000
vt 0.000000 0.000000
vt 1.000000 0.000000
vt 0.500000 0.500000
vt 0.000000 1.000000
vt 1.000000 1.000000
vt 0.500000 0.500000
vt 0.000000 0.000000
vt 1.000000 0.000000
vt 0.500000 0.500000
vt 0.000000 1.000000
vt 1.000000 1.000000
vt 0.000000 0.000000
vt 1.000000 0.000000
vt 1.000000 1.000000
vt 0.000000 1.000000
vt 0.000000 0.000000
vt 1.000000 0.000000
vt 1.000000 1.000000
vt 0.000000 1.000000
vt 0.000000 0.000000
vt 1.000000 0.000000
vt 1.000000 1.000000
vt 0.000000 1.000000
vt 0.000000 0.000000
vt 1.000000 0.000000
vt 1.000000 1.000000
vt 0.000000 1.000000
vt 0.000000 0.000000
vt 1.000000 0.000000
vt 1.000000 1.000000
vt 0.000000 1.000000
vt 0.500000 0.500000
vt 0.000000 0.000000
vt 1.000000 0.000000
vt 0.500000 0.500000
vt 0.000000 1.000000
vt 1.000000 1.000000
vt 0.500000 0.500000
vt 0.000000 0.000000
vt 1.000000 0.000000
vt 0.500000 0.500000
vt 0.000000 1.000000
vt 1.000000 1.000000
vt 0.500000 0.500000
vt 0.000000 0.000000
vt 1.000000 0.000000
vt 0.500000 0.500000
vt 0.000000 1.000000
vt 1.000000 1.000000
vt 0.500000 0.500000
vt 0.000000 0.000000
vt 1.000000 0.000000
vt 0.500000 0.500000
vt 0.000000 1.000000
vt 1.000000 1.000000
vt 0.500000 0.500000
vt 0.000000 0.000000
vt 1.000000 0.000000
vt 0.500000 0.500000
vt 0.000000 1.000000
vt 1.000000 1.000000
vt 0.000000 0.000000
vt 1.000000 0.000000
vt 1.000000 1.000000
vt 0.000000 1.000000
vt 0.000000 0.000000
vt 1.000000 0.000000
vt 1.000000 1.000000
vt 0.000000 1.000000
vt 0.000000 0.000000
vt 1.000000 0.000000
vt 1.000000 1.000000
vt 0.000000 1.000000
vt 0.000000 0.000000
vt 1.000000 0.000000
vt 1.000000 1.000000
vt 0.000000 1.000000
vt 0.000000 0.000000
vt 1.000000 0.000000
vt 1.000000 1.000000
vt 0.000000 1.000000
vt 0.500000 0.500000
vt 0.000000 0.000000
vt 1.000000 0.000000
vt 0.500000 0.500000
vt 0.000000 1.000000
vt 1.000000 1.000000
vt 0.500000 0.500000
vt 0.000000 0.000000
vt 1.000000 0.000000
vt 0.500000 0.500000
vt 0.000000 1.000000
vt 1.000000 1.000000
vt 0.500000 0.500000
vt 0.000000 0.000000
vt 1.000000 0.000000
vt 0.500000 0.500000
vt 0.000000 1.000000
vt 1.000000 1.000000
vt 0.500000 0.500000
vt 0.000000 0.000000
vt 1.000000 0.000000
vt 0.500000 0.500000
vt 0.000000 1.000000
vt 1.000000 1.000000
vt 0.500000 0.500000
vt 0.000000 0.000000
vt 1.000000 0.000000
vt 0.500000 0.500000
vt 0.000000 1.000000
vt 1.000000 1.000000
vt 0.000000 0.000000
vt 1.000000 0.000000
vt 1.000000 1.000000
vt 0.000000 1.000000
vt 0.000000 0.000000
vt 1.000000 0.000000
vt 1.000000 1.000000
vt 0.000000 1.000000
vt 0.000000 0.000000
vt 1.000000 0.000000
vt 1.000000 1.000000
vt 0.000000 1.000000
vt 0.000000 0.000000
vt 1.000000 0.000000
vt 1.000000 1.000000
vt 0.000000 1.000000
vt 0.000000 0.000000
vt 1.000000 0.000000
vt 1.000000 1.000000
vt 0.000000 1.000000
vt 0.000000 0.000000
vt 1.000000 0.000000
vt 1.000000 1.000000
vt 0.000000 1.000000
vt 0.000000 0.000000
vt 1.000000 0.000000
vt 1.000000 1.000000
vt 0.000000 1.000000
vt 0.000000 0.000000
vt 1.000000 0.000000
vt 1.000000 1.000000
vt 0.000000 1.000000
vt 0.000000 0.000000
vt 1.000000 0.000000
vt 1.000000 1.000000
vt 0.000000 1.000000
vt 0.000000 0.000000
vt 1.000000 0.000000
vt 1.000000 1.000000
vt 0.000000 1.000000
vt 0.000000 0.000000
vt 1.000000 0.000000
vt 1.000000 1.000000
vt 0.000000 1.000000
vt 0.000000 0.000000
vt 1.000000 0.000000
vt 1.000000 1.000000
vt 0.000000 1.000000
usemtl Cloth
f 1/1 2/2 3/3
f 1/1 3/3 4/4
f 5/5 6/6 7/7
f 5/5 7/7 8/8
f 9/9 10/10 11/11
f 9/9 11/11 12/12
f 13/13 14/14 15/15
f 13/13 15/15 16/16
f 17/17 18/18 19/19
f 17/17 19/19 20/20
f 21/21 22/22 23/23
f 21/21 23/23 24/24
f 25/25 26/26 27/27
f 25/25 27/27 28/28
f 29/29 30/30 31/31
f 29/29 31/31 32/32
f 33/33 34/34 35/35
f 33/33 35/35 36/36
f 37/37 38/38 39/39
f 37/37 39/39 40/40
f 41/41 42/42 43/43
f 41/41 43/43 44/44
f 45/45 46/46 47/47
f 45/45 47/47 48/48
f 49/49 50/50 51/51
f 49/49 51/51 52/52
f 53/53 54/54 55/55
f 53/53 55/55 56/56
f 57/57 58/58 59/59
f 57/57 59/59 60/60
f 61/61 62/62 63/63
f 61/61 63/63 64/64
f 65/65 66/66 67/67
f 65/65 67/67 68/68
f 69/69 70/70 71/71
f 69/69 71/71 72/72
f 73/73 74/74 75/75
f 73/73 75/75 76/76
f 77/77 78/78 79/79
f 77/77 79/79 80/80
f 81/81 82/82 83/83
f 81/81 83/83 84/84
f 85/85 86/86 87/87
f 85/85 87/87 88/88
f 89/89 90/90 91/91
f 89/89 91/91 92/92
f 93/93 94/94 95/95
f 93/93 95/95 96/96
f 97/97 98/98 99/99
f 97/97 99/99 100/100
f 101/101 102/102 103/103
f 101/101 103/103 104/104
f 105/105 106/106 107/107
f 105/105 107/107 108/108
f 109/109 110/110 111/111
f 109/109 111/111 112/112
f 113/113 114/114 115/115
f 113/113 115/115 116/116
f 117/117 118/118 119/119
f 117/117 119/119 120/120
f 121/121 122/122 123/123
f 121/121 123/123 124/124
f 125/125 126/126 127/127
f 125/125 127/127 128/128
f 129/129 130/130 131/131
f 129/129 131/131 132/132
f 133/133 134/134 135/135
f 133/133 135/135 136/136
f 137/137 138/138 139/139
f 137/137 139/139 140/140
f 141/141 142/142 143/143
f 141/141 143/143 144/144
f 145/145 146/146 147/147
f 145/145 147/147 148/148
f 149/149 150/150 151/151
f 149/149 151/151 152/152
f 153/153 154/154 155/155
f 153/153 155/155 156/156
f 157/157 158/158 159/159
f 157/157 159/159 160/160
f 161/161 162/162 163/163
f 161/161 163/163 164/164
f 165/165 166/166 167/167
f 165/165 167/167 168/168
f 169/169 170/170 171/171
f 169/169 171/171 172/172
f 173/173 174/174 175/175
f 173/173 175/175 176/176
f 177/177 178/178 179/179
f 177/177 179/179 180/180
f 181/181 182/182 183/183
f 181/181 183/183 184/184
f 185/185 186/186 187/187
f 185/185 187/187 188/188
f 189/189 190/190 191/191
f 189/189 191/191 192/192
f 193/193 194/194 195/195
f 193/193 195/195 196/196
f 197/197 198/198 199/199
f 197/197 199/199 200/200
f 201/201 202/202 203/203
f 201/201 203/203 204/204
f 205/205 206/206 207/207
f 205/205 207/207 208/208
f 209/209 210/210 211/211
f 209/209 211/211 212/212
f 213/213 214/214 215/215
f 213/213 215/215 216/216
f 217/217 218/218 219/219
f 217/217 219/219 220/220
f 221/221 222/222 223/223
f 221/221 223/223 224/224
f 225/225 226/226 227/227
f 225/225 227/227 228/228
f 229/229 230/230 231/231
f 229/229 231/231 232/232
f 233/233 234/234 235/235
f 233/233 235/235 236/236
f 237/237 238/238 239/239
f 237/237 239/239 240/240
f 241/241 242/242 243/243
f 241/241 243/243 244/244
f 245/245 246/246 247/247
f 245/245 247/247 248/248
f 249/249 250/250 251/251
f 249/249 251/251 252/252
f 253/253 254/254 255/255
f 253/253 255/255 256/256
f 257/257 258/258 259/259
f 257/257 259/259 260/260
f 261/261 262/262 263/263
f 261/261 263/263 264/264
f 265/265 266/266 267/267
f 265/265 267/267 268/268
f 269/269 270/270 271/271
f 269/269 271/271 272/272
f 273/273 274/274 275/275
f 273/273 275/275 276/276
usemtl Wood
f 277/277 278/278 279/279
f 277/277 279/279 280/280
f 281/281 282/282 283/283
f 281/281 283/283 284/284
f 285/285 286/286 287/287
f 285/285 287/287 288/288
f 289/289 290/290 291/291
f 289/289 291/291 292/292
f 293/293 294/294 295/295
f 293/293 295/295 296/296
f 297/297 298/298 299/299
f 297/297 299/299 300/300
f 301/301 302/302 303/303
f 304/304 305/305 306/306
f 307/307 308/308 309/309
f 310/310 311/311 312/312
f 313/313 314/314 315/315
f 316/316 317/317 318/318
f 319/319 320/320 321/321
f 322/322 323/323 324/324
f 325/325 326/326 327/327
f 328/328 329/329 330/330
f 331/331 332/332 333/333
f 334/334 335/335 336/336
usemtl Rope
f 337/337 338/338 339/339
f 337/337 339/339 340/340
f 341/341 342/342 343/343
f 341/341 343/343 344/344
f 345/345 346/346 347/347
f 345/345 347/347 348/348
f 349/349 350/350 351/351
f 349/349 351/351 352/352
f 353/353 354/354 355/355
f 353/353 355/355 356/356
f 357/357 358/358 359/359
f 360/360 361/361 362/362
f 363/363 364/364 365/365
f 366/366 367/367 368/368
f 369/369 370/370 371/371
f 372/372 373/373 374/374
f 375/375 376/376 377/377
f 378/378 379/379 380/380
f 381/381 382/382 383/383
f 384/384 385/385 386/386
usemtl Wood
f 387/387 388/388 389/389
f 387/387 389/389 390/390
f 391/391 392/392 393/393
f 391/391 393/393 394/394
f 395/395 396/396 397/397
f 395/395 397/397 398/398
f 399/399 400/400 401/401
f 399/399 401/401 402/402
f 403/403 404/404 405/405
f 403/403 405/405 406/406
f 407/407 408/408 409/409
f 407/407 409/409 410/410
f 411/411 412/412 413/413
f 414/414 415/415 416/416
f 417/417 418/418 419/419
f 420/420 421/421 422/422
f 423/423 424/424 425/425
f 426/426 427/427 428/428
f 429/429 430/430 431/431
f 432/432 433/433 434/434
f 435/435 436/436 437/437
f 438/438 439/439 440/440
f 441/441 442/442 443/443
f 444/444 445/445 446/446
usemtl Rope
f 447/447 448/448 449/449
f 447/447 449/449 450/450
f 451/451 452/452 453/453
f 451/451 453/453 454/454
f 455/455 456/456 457/457
f 455/455 457/457 458/458
f 459/459 460/460 461/461
f 459/459 461/461 462/462
f 463/463 464/464 465/465
f 463/463 465/465 466/466
f 467/467 468/468 469/469
f 470/470 471/471 472/472
f 473/473 474/474 475/475
f 476/476 477/477 478/478
f 479/479 480/480 481/481
f 482/482 483/483 484/484
f 485/485 486/486 487/487
f 488/488 489/489 490/490
f 491/491 492/492 493/493
f 494/494 495/495 496/496
usemtl Wood
f 497/497 498/498 499/499
f 497/497 499/499 500/500
f 501/501 502/502 503/503
f 501/501 503/503 504/504
f 505/505 506/506 507/507
f 505/505 507/507 508/508
f 509/509 510/510 511/511
f 509/509 511/511 512/512
f 513/513 514/514 515/515
f 513/513 515/515 516/516
f 517/517 518/518 519/519
f 517/517 519/519 520/520
f 521/521 522/522 523/523
f 524/524 525/525 526/526
f 527/527 528/528 529/529
f 530/530 531/531 532/532
f 533/533 534/534 535/535
f 536/536 537/537 538/538
f 539/539 540/540 541/541
f 542/542 543/543 544/544
f 545/545 546/546 547/547
f 548/548 549/549 550/550
f 551/551 552/552 553/553
f 554/554 555/555 556/556
usemtl Rope
f 557/557 558/558 559/559
f 557/557 559/559 560/560
f 561/561 562/562 563/563
f 561/561 563/563 564/564
f 565/565 566/566 567/567
f 565/565 567/567 568/568
f 569/569 570/570 571/571
f 569/569 571/571 572/572
f 573/573 574/574 575/575
f 573/573 575/575 576/576
f 577/577 578/578 579/579
f 580/580 581/581 582/582
f 583/583 584/584 585/585
f 586/586 587/587 588/588
f 589/589 590/590 591/591
f 592/592 593/593 594/594
f 595/595 596/596 597/597
f 598/598 599/599 600/600
f 601/601 602/602 603/603
f 604/604 605/605 606/606
usemtl Wood
f 607/607 608/608 609/609
f 607/607 609/609 610/610
f 611/611 612/612 613/613
f 611/611 613/613 614/614
f 615/615 616/616 617/617
f 615/615 617/617 618/618
f 619/619 620/620 621/621
f 619/619 621/621 622/622
f 623/623 624/624 625/625
f 623/623 625/625 626/626
f 627/627 628/628 629/629
f 627/627 629/629 630/630
f 631/631 632/632 633/633
f 634/634 635/635 636/636
f 637/637 638/638 639/639
f 640/640 641/641 642/642
f 643/643 644/644 645/645
f 646/646 647/647 648/648
f 649/649 650/650 651/651
f 652/652 653/653 654/654
f 655/655 656/656 657/657
f 658/658 659/659 660/660
f 661/661 662/662 663/663
f 664/664 665/665 666/666
usemtl Rope
f 667/667 668/668 669/669
f 667/667 669/669 670/670
f 671/671 672/672 673/673
f 671/671 673/673 674/674
f 675/675 676/676 677/677
f 675/675 677/677 678/678
f 679/679 680/680 681/681
f 679/679 681/681 682/682
f 683/683 684/684 685/685
f 683/683 685/685 686/686
f 687/687 688/688 689/689
f 690/690 691/691 692/692
f 693/693 694/694 695/695
f 696/696 697/697 698/698
f 699/699 700/700 701/701
f 702/702 703/703 704/704
f 705/705 706/706 707/707
f 708/708 709/709 710/710
f 711/711 712/712 713/713
f 714/714 715/715 716/716
usemtl Char
f 717/717 718/718 719/719
f 717/717 719/719 720/720
f 721/721 722/722 723/723
f 721/721 723/723 724/724
f 725/725 726/726 727/727
f 725/725 727/727 728/728
f 729/729 730/730 731/731
f 729/729 731/731 732/732
f 733/733 734/734 735/735
f 733/733 735/735 736/736
f 737/737 738/738 739/739
f 737/737 739/739 740/740
usemtl Cloth
f 741/741 742/742 743/743
f 741/741 743/743 744/744
f 745/745 746/746 747/747
f 745/745 747/747 748/748
f 749/749 750/750 751/751
f 749/749 751/751 752/752
f 753/753 754/754 755/755
f 753/753 755/755 756/756
f 757/757 758/758 759/759
f 757/757 759/759 760/760
f 761/761 762/762 763/763
f 764/764 765/765 766/766
f 767/767 768/768 769/769
f 770/770 771/771 772/772
f 773/773 774/774 775/775
f 776/776 777/777 778/778
f 779/779 780/780 781/781
f 782/782 783/783 784/784
f 785/785 786/786 787/787
f 788/788 789/789 790/790
f 791/791 792/792 793/793
f 791/791 793/793 794/794
f 795/795 796/796 797/797
f 795/795 797/797 798/798
f 799/799 800/800 801/801
f 799/799 801/801 802/802
f 803/803 804/804 805/805
f 803/803 805/805 806/806
f 807/807 808/808 809/809
f 807/807 809/809 810/810
f 811/811 812/812 813/813
f 814/814 815/815 816/816
f 817/817 818/818 819/819
f 820/820 821/821 822/822
f 823/823 824/824 825/825
f 826/826 827/827 828/828
f 829/829 830/830 831/831
f 832/832 833/833 834/834
f 835/835 836/836 837/837
f 838/838 839/839 840/840
f 841/841 842/842 843/843
f 841/841 843/843 844/844
f 845/845 846/846 847/847
f 845/845 847/847 848/848
f 849/849 850/850 851/851
f 849/849 851/851 852/852
f 853/853 854/854 855/855
f 853/853 855/855 856/856
f 857/857 858/858 859/859
f 857/857 859/859 860/860
f 861/861 862/862 863/863
f 864/864 865/865 866/866
f 867/867 868/868 869/869
f 870/870 871/871 872/872
f 873/873 874/874 875/875
f 876/876 877/877 878/878
f 879/879 880/880 881/881
f 882/882 883/883 884/884
f 885/885 886/886 887/887
f 888/888 889/889 890/890
f 891/891 892/892 893/893
f 891/891 893/893 894/894
f 895/895 896/896 897/897
f 895/895 897/897 898/898
f 899/899 900/900 901/901
f 899/899 901/901 902/902
f 903/903 904/904 905/905
f 903/903 905/905 906/906
f 907/907 908/908 909/909
f 907/907 909/909 910/910
f 911/911 912/912 913/913
f 911/911 913/913 914/914
usemtl Char
f 915/915 916/916 917/917
f 915/915 917/917 918/918
f 919/919 920/920 921/921
f 919/919 921/921 922/922
f 923/923 924/924 925/925
f 923/923 925/925 926/926
f 927/927 928/928 929/929
f 927/927 929/929 930/930
f 931/931 932/932 933/933
f 931/931 933/933 934/934
f 935/935 936/936 937/937
f 935/935 937/937 938/938
