mtllib ../../Materials/project_oen.mtl
o en-006_driftwood_cluster__medium
v -0.095693 -0.115668 0.000000
v -0.105013 -0.124987 0.031820
v -0.599987 0.369987 0.031820
v -0.590668 0.379307 0.000000
v -0.105013 -0.124987 0.031820
v -0.127513 -0.147487 0.045000
v -0.622487 0.347487 0.045000
v -0.599987 0.369987 0.031820
v -0.127513 -0.147487 0.045000
v -0.150013 -0.169987 0.031820
v -0.644987 0.324987 0.031820
v -0.622487 0.347487 0.045000
v -0.150013 -0.169987 0.031820
v -0.159332 -0.179307 0.000000
v -0.654307 0.315668 0.000000
v -0.644987 0.324987 0.031820
v -0.159332 -0.179307 0.000000
v -0.150013 -0.169987 -0.031820
v -0.644987 0.324987 -0.031820
v -0.654307 0.315668 0.000000
v -0.150013 -0.169987 -0.031820
v -0.127513 -0.147487 -0.045000
v -0.622487 0.347487 -0.045000
v -0.644987 0.324987 -0.031820
v -0.127513 -0.147487 -0.045000
v -0.105013 -0.124987 -0.031820
v -0.599987 0.369987 -0.031820
v -0.622487 0.347487 -0.045000
v -0.105013 -0.124987 -0.031820
v -0.095693 -0.115668 0.000000
v -0.590668 0.379307 0.000000
v -0.599987 0.369987 -0.031820
v -0.127513 -0.147487 0.000000
v -0.105013 -0.124987 0.031820
v -0.095693 -0.115668 0.000000
v -0.622487 0.347487 0.000000
v -0.590668 0.379307 0.000000
v -0.599987 0.369987 0.031820
v -0.127513 -0.147487 0.000000
v -0.127513 -0.147487 0.045000
v -0.105013 -0.124987 0.031820
v -0.622487 0.347487 0.000000
v -0.599987 0.369987 0.031820
v -0.622487 0.347487 0.045000
v -0.127513 -0.147487 0.000000
v -0.150013 -0.169987 0.031820
v -0.127513 -0.147487 0.045000
v -0.622487 0.347487 0.000000
v -0.622487 0.347487 0.045000
v -0.644987 0.324987 0.031820
v -0.127513 -0.147487 0.000000
v -0.159332 -0.179307 0.000000
v -0.150013 -0.169987 0.031820
v -0.622487 0.347487 0.000000
v -0.644987 0.324987 0.031820
v -0.654307 0.315668 0.000000
v -0.127513 -0.147487 0.000000
v -0.150013 -0.169987 -0.031820
v -0.159332 -0.179307 0.000000
v -0.622487 0.347487 0.000000
v -0.654307 0.315668 0.000000
v -0.644987 0.324987 -0.031820
v -0.127513 -0.147487 0.000000
v -0.127513 -0.147487 -0.045000
v -0.150013 -0.169987 -0.031820
v -0.622487 0.347487 0.000000
v -0.644987 0.324987 -0.031820
v -0.622487 0.347487 -0.045000
v -0.127513 -0.147487 0.000000
v -0.105013 -0.124987 -0.031820
v -0.127513 -0.147487 -0.045000
v -0.622487 0.347487 0.000000
v -0.622487 0.347487 -0.045000
v -0.599987 0.369987 -0.031820
v -0.127513 -0.147487 0.000000
v -0.095693 -0.115668 0.000000
v -0.105013 -0.124987 -0.031820
v -0.622487 0.347487 0.000000
v -0.599987 0.369987 -0.031820
v -0.590668 0.379307 0.000000
v -0.157310 0.093985 0.006264
v -0.166421 0.074479 0.013012
v -0.417198 0.213834 0.077254
v -0.408087 0.233340 0.070505
v -0.166421 0.074479 0.013012
v -0.177934 0.059373 0.000835
v -0.428711 0.198728 0.065076
v -0.417198 0.213834 0.077254
v -0.177934 0.059373 0.000835
v -0.183181 0.060042 -0.021098
v -0.433958 0.199398 0.043143
v -0.428711 0.198728 0.065076
v -0.183181 0.060042 -0.021098
v -0.178209 0.075983 -0.036271
v -0.428986 0.215339 0.027970
v -0.433958 0.199398 0.043143
v -0.178209 0.075983 -0.036271
v -0.166764 0.095191 -0.033258
v -0.417541 0.234547 0.030983
v -0.428986 0.215339 0.027970
v -0.166764 0.095191 -0.033258
v -0.157462 0.103203 -0.014328
v -0.408239 0.242558 0.049913
v -0.417541 0.234547 0.030983
v -0.157462 0.103203 -0.014328
v -0.157310 0.093985 0.006264
v -0.408087 0.233340 0.070505
v -0.408239 0.242558 0.049913
v -0.169611 0.080322 -0.012121
v -0.166421 0.074479 0.013012
v -0.157310 0.093985 0.006264
v -0.420389 0.219678 0.052121
v -0.408087 0.233340 0.070505
v -0.417198 0.213834 0.077254
v -0.169611 0.080322 -0.012121
v -0.177934 0.059373 0.000835
v -0.166421 0.074479 0.013012
v -0.420389 0.219678 0.052121
v -0.417198 0.213834 0.077254
v -0.428711 0.198728 0.065076
v -0.169611 0.080322 -0.012121
v -0.183181 0.060042 -0.021098
v -0.177934 0.059373 0.000835
v -0.420389 0.219678 0.052121
v -0.428711 0.198728 0.065076
v -0.433958 0.199398 0.043143
v -0.169611 0.080322 -0.012121
v -0.178209 0.075983 -0.036271
v -0.183181 0.060042 -0.021098
v -0.420389 0.219678 0.052121
v -0.433958 0.199398 0.043143
v -0.428986 0.215339 0.027970
v -0.169611 0.080322 -0.012121
v -0.166764 0.095191 -0.033258
v -0.178209 0.075983 -0.036271
v -0.420389 0.219678 0.052121
v -0.428986 0.215339 0.027970
v -0.417541 0.234547 0.030983
v -0.169611 0.080322 -0.012121
v -0.157462 0.103203 -0.014328
v -0.166764 0.095191 -0.033258
v -0.420389 0.219678 0.052121
v -0.417541 0.234547 0.030983
v -0.408239 0.242558 0.049913
v -0.169611 0.080322 -0.012121
v -0.157310 0.093985 0.006264
v -0.157462 0.103203 -0.014328
v -0.420389 0.219678 0.052121
v -0.408239 0.242558 0.049913
v -0.408087 0.233340 0.070505
v 0.385211 0.348111 0.119000
v 0.389490 0.333189 0.156476
v -0.860150 -0.025139 0.156476
v -0.864429 -0.010217 0.119000
v 0.389490 0.333189 0.156476
v 0.399820 0.297164 0.172000
v -0.849820 -0.061164 0.172000
v -0.860150 -0.025139 0.156476
v 0.399820 0.297164 0.172000
v 0.410150 0.261139 0.156476
v -0.839490 -0.097189 0.156476
v -0.849820 -0.061164 0.172000
v 0.410150 0.261139 0.156476
v 0.414429 0.246217 0.119000
v -0.835211 -0.112111 0.119000
v -0.839490 -0.097189 0.156476
v 0.414429 0.246217 0.119000
v 0.410150 0.261139 0.081523
v -0.839490 -0.097189 0.081523
v -0.835211 -0.112111 0.119000
v 0.410150 0.261139 0.081523
v 0.399820 0.297164 0.066000
v -0.849820 -0.061164 0.066000
v -0.839490 -0.097189 0.081523
v 0.399820 0.297164 0.066000
v 0.389490 0.333189 0.081523
v -0.860150 -0.025139 0.081523
v -0.849820 -0.061164 0.066000
v 0.389490 0.333189 0.081523
v 0.385211 0.348111 0.119000
v -0.864429 -0.010217 0.119000
v -0.860150 -0.025139 0.081523
v 0.399820 0.297164 0.119000
v 0.389490 0.333189 0.156476
v 0.385211 0.348111 0.119000
v -0.849820 -0.061164 0.119000
v -0.864429 -0.010217 0.119000
v -0.860150 -0.025139 0.156476
v 0.399820 0.297164 0.119000
v 0.399820 0.297164 0.172000
v 0.389490 0.333189 0.156476
v -0.849820 -0.061164 0.119000
v -0.860150 -0.025139 0.156476
v -0.849820 -0.061164 0.172000
v 0.399820 0.297164 0.119000
v 0.410150 0.261139 0.156476
v 0.399820 0.297164 0.172000
v -0.849820 -0.061164 0.119000
v -0.849820 -0.061164 0.172000
v -0.839490 -0.097189 0.156476
v 0.399820 0.297164 0.119000
v 0.414429 0.246217 0.119000
v 0.410150 0.261139 0.156476
v -0.849820 -0.061164 0.119000
v -0.839490 -0.097189 0.156476
v -0.835211 -0.112111 0.119000
v 0.399820 0.297164 0.119000
v 0.410150 0.261139 0.081523
v 0.414429 0.246217 0.119000
v -0.849820 -0.061164 0.119000
v -0.835211 -0.112111 0.119000
v -0.839490 -0.097189 0.081523
v 0.399820 0.297164 0.119000
v 0.399820 0.297164 0.066000
v 0.410150 0.261139 0.081523
v -0.849820 -0.061164 0.119000
v -0.839490 -0.097189 0.081523
v -0.849820 -0.061164 0.066000
v 0.399820 0.297164 0.119000
v 0.389490 0.333189 0.081523
v 0.399820 0.297164 0.066000
v -0.849820 -0.061164 0.119000
v -0.849820 -0.061164 0.066000
v -0.860150 -0.025139 0.081523
v 0.399820 0.297164 0.119000
v 0.385211 0.348111 0.119000
v 0.389490 0.333189 0.081523
v -0.849820 -0.061164 0.119000
v -0.860150 -0.025139 0.081523
v -0.864429 -0.010217 0.119000
v 0.455112 -0.022751 -0.030665
v 0.448131 -0.039198 0.012469
v -0.564424 0.390607 0.012469
v -0.557443 0.407053 -0.030665
v 0.448131 -0.039198 0.012469
v 0.431278 -0.078902 0.030335
v -0.581278 0.350902 0.030335
v -0.564424 0.390607 0.012469
v 0.431278 -0.078902 0.030335
v 0.414424 -0.118607 0.012469
v -0.598131 0.311198 0.012469
v -0.581278 0.350902 0.030335
v 0.414424 -0.118607 0.012469
v 0.407443 -0.135053 -0.030665
v -0.605112 0.294751 -0.030665
v -0.598131 0.311198 0.012469
v 0.407443 -0.135053 -0.030665
v 0.414424 -0.118607 -0.073798
v -0.598131 0.311198 -0.073798
v -0.605112 0.294751 -0.030665
v 0.414424 -0.118607 -0.073798
v 0.431278 -0.078902 -0.091665
v -0.581278 0.350902 -0.091665
v -0.598131 0.311198 -0.073798
v 0.431278 -0.078902 -0.091665
v 0.448131 -0.039198 -0.073798
v -0.564424 0.390607 -0.073798
v -0.581278 0.350902 -0.091665
v 0.448131 -0.039198 -0.073798
v 0.455112 -0.022751 -0.030665
v -0.557443 0.407053 -0.030665
v -0.564424 0.390607 -0.073798
v 0.431278 -0.078902 -0.030665
v 0.448131 -0.039198 0.012469
v 0.455112 -0.022751 -0.030665
v -0.581278 0.350902 -0.030665
v -0.557443 0.407053 -0.030665
v -0.564424 0.390607 0.012469
v 0.431278 -0.078902 -0.030665
v 0.431278 -0.078902 0.030335
v 0.448131 -0.039198 0.012469
v -0.581278 0.350902 -0.030665
v -0.564424 0.390607 0.012469
v -0.581278 0.350902 0.030335
v 0.431278 -0.078902 -0.030665
v 0.414424 -0.118607 0.012469
v 0.431278 -0.078902 0.030335
v -0.581278 0.350902 -0.030665
v -0.581278 0.350902 0.030335
v -0.598131 0.311198 0.012469
v 0.431278 -0.078902 -0.030665
v 0.407443 -0.135053 -0.030665
v 0.414424 -0.118607 0.012469
v -0.581278 0.350902 -0.030665
v -0.598131 0.311198 0.012469
v -0.605112 0.294751 -0.030665
v 0.431278 -0.078902 -0.030665
v 0.414424 -0.118607 -0.073798
v 0.407443 -0.135053 -0.030665
v -0.581278 0.350902 -0.030665
v -0.605112 0.294751 -0.030665
v -0.598131 0.311198 -0.073798
v 0.431278 -0.078902 -0.030665
v 0.431278 -0.078902 -0.091665
v 0.414424 -0.118607 -0.073798
v -0.581278 0.350902 -0.030665
v -0.598131 0.311198 -0.073798
v -0.581278 0.350902 -0.091665
v 0.431278 -0.078902 -0.030665
v 0.448131 -0.039198 -0.073798
v 0.431278 -0.078902 -0.091665
v -0.581278 0.350902 -0.030665
v -0.581278 0.350902 -0.091665
v -0.564424 0.390607 -0.073798
v 0.431278 -0.078902 -0.030665
v 0.455112 -0.022751 -0.030665
v 0.448131 -0.039198 -0.073798
v -0.581278 0.350902 -0.030665
v -0.564424 0.390607 -0.073798
v -0.557443 0.407053 -0.030665
v 0.202942 0.041509 -0.066214
v 0.196526 0.024996 -0.052243
v -0.167329 0.277549 0.079173
v -0.160913 0.294062 0.065202
v 0.196526 0.024996 -0.052243
v 0.182882 0.007524 -0.056443
v -0.180973 0.260077 0.074974
v -0.167329 0.277549 0.079173
v 0.182882 0.007524 -0.056443
v 0.172285 0.002251 -0.075650
v -0.191570 0.254804 0.055766
v -0.180973 0.260077 0.074974
v 0.172285 0.002251 -0.075650
v 0.172714 0.013147 -0.095402
v -0.191142 0.265700 0.036014
v -0.191570 0.254804 0.055766
v 0.172714 0.013147 -0.095402
v 0.183846 0.032007 -0.100825
v -0.180009 0.284560 0.030592
v -0.191142 0.265700 0.036014
v 0.183846 0.032007 -0.100825
v 0.197299 0.044630 -0.087835
v -0.166556 0.297183 0.043582
v -0.180009 0.284560 0.030592
v 0.197299 0.044630 -0.087835
v 0.202942 0.041509 -0.066214
v -0.160913 0.294062 0.065202
v -0.166556 0.297183 0.043582
v 0.186928 0.023723 -0.076373
v 0.196526 0.024996 -0.052243
v 0.202942 0.041509 -0.066214
v -0.176928 0.276277 0.055043
v -0.160913 0.294062 0.065202
v -0.167329 0.277549 0.079173
v 0.186928 0.023723 -0.076373
v 0.182882 0.007524 -0.056443
v 0.196526 0.024996 -0.052243
v -0.176928 0.276277 0.055043
v -0.167329 0.277549 0.079173
v -0.180973 0.260077 0.074974
v 0.186928 0.023723 -0.076373
v 0.172285 0.002251 -0.075650
v 0.182882 0.007524 -0.056443
v -0.176928 0.276277 0.055043
v -0.180973 0.260077 0.074974
v -0.191570 0.254804 0.055766
v 0.186928 0.023723 -0.076373
v 0.172714 0.013147 -0.095402
v 0.172285 0.002251 -0.075650
v -0.176928 0.276277 0.055043
v -0.191570 0.254804 0.055766
v -0.191142 0.265700 0.036014
v 0.186928 0.023723 -0.076373
v 0.183846 0.032007 -0.100825
v 0.172714 0.013147 -0.095402
v -0.176928 0.276277 0.055043
v -0.191142 0.265700 0.036014
v -0.180009 0.284560 0.030592
v 0.186928 0.023723 -0.076373
v 0.197299 0.044630 -0.087835
v 0.183846 0.032007 -0.100825
v -0.176928 0.276277 0.055043
v -0.180009 0.284560 0.030592
v -0.166556 0.297183 0.043582
v 0.186928 0.023723 -0.076373
v 0.202942 0.041509 -0.066214
v 0.197299 0.044630 -0.087835
v -0.176928 0.276277 0.055043
v -0.166556 0.297183 0.043582
v -0.160913 0.294062 0.065202
v 0.401900 0.466508 -0.111098
v 0.410015 0.456122 -0.079278
v -0.299195 -0.097973 -0.079278
v -0.307310 -0.087587 -0.111098
v 0.410015 0.456122 -0.079278
v 0.429605 0.431048 -0.066098
v -0.279605 -0.123048 -0.066098
v -0.299195 -0.097973 -0.079278
v 0.429605 0.431048 -0.066098
v 0.449195 0.405973 -0.079278
v -0.260015 -0.148122 -0.079278
v -0.279605 -0.123048 -0.066098
v 0.449195 0.405973 -0.079278
v 0.457310 0.395587 -0.111098
v -0.251900 -0.158508 -0.111098
v -0.260015 -0.148122 -0.079278
v 0.457310 0.395587 -0.111098
v 0.449195 0.405973 -0.142918
v -0.260015 -0.148122 -0.142918
v -0.251900 -0.158508 -0.111098
v 0.449195 0.405973 -0.142918
v 0.429605 0.431048 -0.156098
v -0.279605 -0.123048 -0.156098
v -0.260015 -0.148122 -0.142918
v 0.429605 0.431048 -0.156098
v 0.410015 0.456122 -0.142918
v -0.299195 -0.097973 -0.142918
v -0.279605 -0.123048 -0.156098
v 0.410015 0.456122 -0.142918
v 0.401900 0.466508 -0.111098
v -0.307310 -0.087587 -0.111098
v -0.299195 -0.097973 -0.142918
v 0.429605 0.431048 -0.111098
v 0.410015 0.456122 -0.079278
v 0.401900 0.466508 -0.111098
v -0.279605 -0.123048 -0.111098
v -0.307310 -0.087587 -0.111098
v -0.299195 -0.097973 -0.079278
v 0.429605 0.431048 -0.111098
v 0.429605 0.431048 -0.066098
v 0.410015 0.456122 -0.079278
v -0.279605 -0.123048 -0.111098
v -0.299195 -0.097973 -0.079278
v -0.279605 -0.123048 -0.066098
v 0.429605 0.431048 -0.111098
v 0.449195 0.405973 -0.079278
v 0.429605 0.431048 -0.066098
v -0.279605 -0.123048 -0.111098
v -0.279605 -0.123048 -0.066098
v -0.260015 -0.148122 -0.079278
v 0.429605 0.431048 -0.111098
v 0.457310 0.395587 -0.111098
v 0.449195 0.405973 -0.079278
v -0.279605 -0.123048 -0.111098
v -0.260015 -0.148122 -0.079278
v -0.251900 -0.158508 -0.111098
v 0.429605 0.431048 -0.111098
v 0.449195 0.405973 -0.142918
v 0.457310 0.395587 -0.111098
v -0.279605 -0.123048 -0.111098
v -0.251900 -0.158508 -0.111098
v -0.260015 -0.148122 -0.142918
v 0.429605 0.431048 -0.111098
v 0.429605 0.431048 -0.156098
v 0.449195 0.405973 -0.142918
v -0.279605 -0.123048 -0.111098
v -0.260015 -0.148122 -0.142918
v -0.279605 -0.123048 -0.156098
v 0.429605 0.431048 -0.111098
v 0.410015 0.456122 -0.142918
v 0.429605 0.431048 -0.156098
v -0.279605 -0.123048 -0.111098
v -0.279605 -0.123048 -0.156098
v -0.299195 -0.097973 -0.142918
v 0.429605 0.431048 -0.111098
v 0.401900 0.466508 -0.111098
v 0.410015 0.456122 -0.142918
v -0.279605 -0.123048 -0.111098
v -0.299195 -0.097973 -0.142918
v -0.307310 -0.087587 -0.111098
v 0.575872 0.218884 0.059294
v 0.575601 0.203363 0.096770
v -0.124293 0.215579 0.096770
v -0.124022 0.231100 0.059294
v 0.575601 0.203363 0.096770
v 0.574947 0.165892 0.112294
v -0.124947 0.178108 0.112294
v -0.124293 0.215579 0.096770
v 0.574947 0.165892 0.112294
v 0.574293 0.128421 0.096770
v -0.125601 0.140637 0.096770
v -0.124947 0.178108 0.112294
v 0.574293 0.128421 0.096770
v 0.574022 0.112900 0.059294
v -0.125872 0.125116 0.059294
v -0.125601 0.140637 0.096770
v 0.574022 0.112900 0.059294
v 0.574293 0.128421 0.021817
v -0.125601 0.140637 0.021817
v -0.125872 0.125116 0.059294
v 0.574293 0.128421 0.021817
v 0.574947 0.165892 0.006294
v -0.124947 0.178108 0.006294
v -0.125601 0.140637 0.021817
v 0.574947 0.165892 0.006294
v 0.575601 0.203363 0.021817
v -0.124293 0.215579 0.021817
v -0.124947 0.178108 0.006294
v 0.575601 0.203363 0.021817
v 0.575872 0.218884 0.059294
v -0.124022 0.231100 0.059294
v -0.124293 0.215579 0.021817
v 0.574947 0.165892 0.059294
v 0.575601 0.203363 0.096770
v 0.575872 0.218884 0.059294
v -0.124947 0.178108 0.059294
v -0.124022 0.231100 0.059294
v -0.124293 0.215579 0.096770
v 0.574947 0.165892 0.059294
v 0.574947 0.165892 0.112294
v 0.575601 0.203363 0.096770
v -0.124947 0.178108 0.059294
v -0.124293 0.215579 0.096770
v -0.124947 0.178108 0.112294
v 0.574947 0.165892 0.059294
v 0.574293 0.128421 0.096770
v 0.574947 0.165892 0.112294
v -0.124947 0.178108 0.059294
v -0.124947 0.178108 0.112294
v -0.125601 0.140637 0.096770
v 0.574947 0.165892 0.059294
v 0.574022 0.112900 0.059294
v 0.574293 0.128421 0.096770
v -0.124947 0.178108 0.059294
v -0.125601 0.140637 0.096770
v -0.125872 0.125116 0.059294
v 0.574947 0.165892 0.059294
v 0.574293 0.128421 0.021817
v 0.574022 0.112900 0.059294
v -0.124947 0.178108 0.059294
v -0.125872 0.125116 0.059294
v -0.125601 0.140637 0.021817
v 0.574947 0.165892 0.059294
v 0.574947 0.165892 0.006294
v 0.574293 0.128421 0.021817
v -0.124947 0.178108 0.059294
v -0.125601 0.140637 0.021817
v -0.124947 0.178108 0.006294
v 0.574947 0.165892 0.059294
v 0.575601 0.203363 0.021817
v 0.574947 0.165892 0.006294
v -0.124947 0.178108 0.059294
v -0.124947 0.178108 0.006294
v -0.124293 0.215579 0.021817
v 0.574947 0.165892 0.059294
v 0.575872 0.218884 0.059294
v 0.575601 0.203363 0.021817
v -0.124947 0.178108 0.059294
v -0.124293 0.215579 0.021817
v -0.124022 0.231100 0.059294
v 0.426821 0.076360 0.034329
v 0.424714 0.064632 0.053488
v 0.215862 0.250550 0.144325
v 0.217969 0.262278 0.125166
v 0.424714 0.064632 0.053488
v 0.411095 0.047188 0.057878
v 0.202243 0.233106 0.148715
v 0.215862 0.250550 0.144325
v 0.411095 0.047188 0.057878
v 0.396219 0.037164 0.044193
v 0.187367 0.223081 0.135031
v 0.202243 0.233106 0.148715
v 0.396219 0.037164 0.044193
v 0.391289 0.042107 0.022739
v 0.182436 0.228025 0.113576
v 0.187367 0.223081 0.135031
v 0.391289 0.042107 0.022739
v 0.400016 0.058296 0.009670
v 0.191164 0.244214 0.100507
v 0.182436 0.228025 0.113576
v 0.400016 0.058296 0.009670
v 0.415829 0.073540 0.014828
v 0.206977 0.259458 0.105665
v 0.191164 0.244214 0.100507
v 0.415829 0.073540 0.014828
v 0.426821 0.076360 0.034329
v 0.217969 0.262278 0.125166
v 0.206977 0.259458 0.105665
v 0.409426 0.057041 0.033875
v 0.424714 0.064632 0.053488
v 0.426821 0.076360 0.034329
v 0.200574 0.242959 0.124712
v 0.217969 0.262278 0.125166
v 0.215862 0.250550 0.144325
v 0.409426 0.057041 0.033875
v 0.411095 0.047188 0.057878
v 0.424714 0.064632 0.053488
v 0.200574 0.242959 0.124712
v 0.215862 0.250550 0.144325
v 0.202243 0.233106 0.148715
v 0.409426 0.057041 0.033875
v 0.396219 0.037164 0.044193
v 0.411095 0.047188 0.057878
v 0.200574 0.242959 0.124712
v 0.202243 0.233106 0.148715
v 0.187367 0.223081 0.135031
v 0.409426 0.057041 0.033875
v 0.391289 0.042107 0.022739
v 0.396219 0.037164 0.044193
v 0.200574 0.242959 0.124712
v 0.187367 0.223081 0.135031
v 0.182436 0.228025 0.113576
v 0.409426 0.057041 0.033875
v 0.400016 0.058296 0.009670
v 0.391289 0.042107 0.022739
v 0.200574 0.242959 0.124712
v 0.182436 0.228025 0.113576
v 0.191164 0.244214 0.100507
v 0.409426 0.057041 0.033875
v 0.415829 0.073540 0.014828
v 0.400016 0.058296 0.009670
v 0.200574 0.242959 0.124712
v 0.191164 0.244214 0.100507
v 0.206977 0.259458 0.105665
v 0.409426 0.057041 0.033875
v 0.426821 0.076360 0.034329
v 0.415829 0.073540 0.014828
v 0.200574 0.242959 0.124712
v 0.206977 0.259458 0.105665
v 0.217969 0.262278 0.125166
vt 0.000000 0.000000
vt 1.000000 0.000000
vt 1.000000 1.000000
vt 0.000000 1.000000
vt 0.000000 0.000000
vt 1.000000 0.000000
vt 1.000000 1.000000
vt 0.000000 1.000000
vt 0.000000 0.000000
vt 1.000000 0.000000
vt 1.000000 1.000000
vt 0.000000 1.000000
vt 0.000000 0.000000
vt 1.000000 0.000000
vt 1.000000 1.000000
vt 0.000000 1.000000
vt 0.000000 0.000000
vt 1.000000 0.000000
vt 1.000000 1.000000
vt 0.000000 1.000000
vt 0.000000 0.000000
vt 1.000000 0.000000
vt 1.000000 1.000000
vt 0.000000 1.000000
vt 0.000000 0.000000
vt 1.000000 0.000000
vt 1.000000 1.000000
vt 0.000000 1.000000
vt 0.000000 0.000000
vt 1.000000 0.000000
vt 1.000000 1.000000
vt 0.000000 1.000000
vt 0.500000 0.500000
vt 0.000000 0.000000
vt 1.000000 0.000000
vt 0.500000 0.500000
vt 0.000000 1.000000
vt 1.000000 1.000000
vt 0.500000 0.500000
vt 0.000000 0.000000
vt 1.000000 0.000000
vt 0.500000 0.500000
vt 0.000000 1.000000
vt 1.000000 1.000000
vt 0.500000 0.500000
vt 0.000000 0.000000
vt 1.000000 0.000000
vt 0.500000 0.500000
vt 0.000000 1.000000
vt 1.000000 1.000000
vt 0.500000 0.500000
vt 0.000000 0.000000
vt 1.000000 0.000000
vt 0.500000 0.500000
vt 0.000000 1.000000
vt 1.000000 1.000000
vt 0.500000 0.500000
vt 0.000000 0.000000
vt 1.000000 0.000000
vt 0.500000 0.500000
vt 0.000000 1.000000
vt 1.000000 1.000000
vt 0.500000 0.500000
vt 0.000000 0.000000
vt 1.000000 0.000000
vt 0.500000 0.500000
vt 0.000000 1.000000
vt 1.000000 1.000000
vt 0.500000 0.500000
vt 0.000000 0.000000
vt 1.000000 0.000000
vt 0.500000 0.500000
vt 0.000000 1.000000
vt 1.000000 1.000000
vt 0.500000 0.500000
vt 0.000000 0.000000
vt 1.000000 0.000000
vt 0.500000 0.500000
vt 0.000000 1.000000
vt 1.000000 1.000000
vt 0.000000 0.000000
vt 1.000000 0.000000
vt 1.000000 1.000000
vt 0.000000 1.000000
vt 0.000000 0.000000
vt 1.000000 0.000000
vt 1.000000 1.000000
vt 0.000000 1.000000
vt 0.000000 0.000000
vt 1.000000 0.000000
vt 1.000000 1.000000
vt 0.000000 1.000000
vt 0.000000 0.000000
vt 1.000000 0.000000
vt 1.000000 1.000000
vt 0.000000 1.000000
vt 0.000000 0.000000
vt 1.000000 0.000000
vt 1.000000 1.000000
vt 0.000000 1.000000
vt 0.000000 0.000000
vt 1.000000 0.000000
vt 1.000000 1.000000
vt 0.000000 1.000000
vt 0.000000 0.000000
vt 1.000000 0.000000
vt 1.000000 1.000000
vt 0.000000 1.000000
vt 0.500000 0.500000
vt 0.000000 0.000000
vt 1.000000 0.000000
vt 0.500000 0.500000
vt 0.000000 1.000000
vt 1.000000 1.000000
vt 0.500000 0.500000
vt 0.000000 0.000000
vt 1.000000 0.000000
vt 0.500000 0.500000
vt 0.000000 1.000000
vt 1.000000 1.000000
vt 0.500000 0.500000
vt 0.000000 0.000000
vt 1.000000 0.000000
vt 0.500000 0.500000
vt 0.000000 1.000000
vt 1.000000 1.000000
vt 0.500000 0.500000
vt 0.000000 0.000000
vt 1.000000 0.000000
vt 0.500000 0.500000
vt 0.000000 1.000000
vt 1.000000 1.000000
vt 0.500000 0.500000
vt 0.000000 0.000000
vt 1.000000 0.000000
vt 0.500000 0.500000
vt 0.000000 1.000000
vt 1.000000 1.000000
vt 0.500000 0.500000
vt 0.000000 0.000000
vt 1.000000 0.000000
vt 0.500000 0.500000
vt 0.000000 1.000000
vt 1.000000 1.000000
vt 0.500000 0.500000
vt 0.000000 0.000000
vt 1.000000 0.000000
vt 0.500000 0.500000
vt 0.000000 1.000000
vt 1.000000 1.000000
vt 0.000000 0.000000
vt 1.000000 0.000000
vt 1.000000 1.000000
vt 0.000000 1.000000
vt 0.000000 0.000000
vt 1.000000 0.000000
vt 1.000000 1.000000
vt 0.000000 1.000000
vt 0.000000 0.000000
vt 1.000000 0.000000
vt 1.000000 1.000000
vt 0.000000 1.000000
vt 0.000000 0.000000
vt 1.000000 0.000000
vt 1.000000 1.000000
vt 0.000000 1.000000
vt 0.000000 0.000000
vt 1.000000 0.000000
vt 1.000000 1.000000
vt 0.000000 1.000000
vt 0.000000 0.000000
vt 1.000000 0.000000
vt 1.000000 1.000000
vt 0.000000 1.000000
vt 0.000000 0.000000
vt 1.000000 0.000000
vt 1.000000 1.000000
vt 0.000000 1.000000
vt 0.000000 0.000000
vt 1.000000 0.000000
vt 1.000000 1.000000
vt 0.000000 1.000000
vt 0.500000 0.500000
vt 0.000000 0.000000
vt 1.000000 0.000000
vt 0.500000 0.500000
vt 0.000000 1.000000
vt 1.000000 1.000000
vt 0.500000 0.500000
vt 0.000000 0.000000
vt 1.000000 0.000000
vt 0.500000 0.500000
vt 0.000000 1.000000
vt 1.000000 1.000000
vt 0.500000 0.500000
vt 0.000000 0.000000
vt 1.000000 0.000000
vt 0.500000 0.500000
vt 0.000000 1.000000
vt 1.000000 1.000000
vt 0.500000 0.500000
vt 0.000000 0.000000
vt 1.000000 0.000000
vt 0.500000 0.500000
vt 0.000000 1.000000
vt 1.000000 1.000000
vt 0.500000 0.500000
vt 0.000000 0.000000
vt 1.000000 0.000000
vt 0.500000 0.500000
vt 0.000000 1.000000
vt 1.000000 1.000000
vt 0.500000 0.500000
vt 0.000000 0.000000
vt 1.000000 0.000000
vt 0.500000 0.500000
vt 0.000000 1.000000
vt 1.000000 1.000000
vt 0.500000 0.500000
vt 0.000000 0.000000
vt 1.000000 0.000000
vt 0.500000 0.500000
vt 0.000000 1.000000
vt 1.000000 1.000000
vt 0.500000 0.500000
vt 0.000000 0.000000
vt 1.000000 0.000000
vt 0.500000 0.500000
vt 0.000000 1.000000
vt 1.000000 1.000000
vt 0.000000 0.000000
vt 1.000000 0.000000
vt 1.000000 1.000000
vt 0.000000 1.000000
vt 0.000000 0.000000
vt 1.000000 0.000000
vt 1.000000 1.000000
vt 0.000000 1.000000
vt 0.000000 0.000000
vt 1.000000 0.000000
vt 1.000000 1.000000
vt 0.000000 1.000000
vt 0.000000 0.000000
vt 1.000000 0.000000
vt 1.000000 1.000000
vt 0.000000 1.000000
vt 0.000000 0.000000
vt 1.000000 0.000000
vt 1.000000 1.000000
vt 0.000000 1.000000
vt 0.000000 0.000000
vt 1.000000 0.000000
vt 1.000000 1.000000
vt 0.000000 1.000000
vt 0.000000 0.000000
vt 1.000000 0.000000
vt 1.000000 1.000000
vt 0.000000 1.000000
vt 0.000000 0.000000
vt 1.000000 0.000000
vt 1.000000 1.000000
vt 0.000000 1.000000
vt 0.500000 0.500000
vt 0.000000 0.000000
vt 1.000000 0.000000
vt 0.500000 0.500000
vt 0.000000 1.000000
vt 1.000000 1.000000
vt 0.500000 0.500000
vt 0.000000 0.000000
vt 1.000000 0.000000
vt 0.500000 0.500000
vt 0.000000 1.000000
vt 1.000000 1.000000
vt 0.500000 0.500000
vt 0.000000 0.000000
vt 1.000000 0.000000
vt 0.500000 0.500000
vt 0.000000 1.000000
vt 1.000000 1.000000
vt 0.500000 0.500000
vt 0.000000 0.000000
vt 1.000000 0.000000
vt 0.500000 0.500000
vt 0.000000 1.000000
vt 1.000000 1.000000
vt 0.500000 0.500000
vt 0.000000 0.000000
vt 1.000000 0.000000
vt 0.500000 0.500000
vt 0.000000 1.000000
vt 1.000000 1.000000
vt 0.500000 0.500000
vt 0.000000 0.000000
vt 1.000000 0.000000
vt 0.500000 0.500000
vt 0.000000 1.000000
vt 1.000000 1.000000
vt 0.500000 0.500000
vt 0.000000 0.000000
vt 1.000000 0.000000
vt 0.500000 0.500000
vt 0.000000 1.000000
vt 1.000000 1.000000
vt 0.500000 0.500000
vt 0.000000 0.000000
vt 1.000000 0.000000
vt 0.500000 0.500000
vt 0.000000 1.000000
vt 1.000000 1.000000
vt 0.000000 0.000000
vt 1.000000 0.000000
vt 1.000000 1.000000
vt 0.000000 1.000000
vt 0.000000 0.000000
vt 1.000000 0.000000
vt 1.000000 1.000000
vt 0.000000 1.000000
vt 0.000000 0.000000
vt 1.000000 0.000000
vt 1.000000 1.000000
vt 0.000000 1.000000
vt 0.000000 0.000000
vt 1.000000 0.000000
vt 1.000000 1.000000
vt 0.000000 1.000000
vt 0.000000 0.000000
vt 1.000000 0.000000
vt 1.000000 1.000000
vt 0.000000 1.000000
vt 0.000000 0.000000
vt 1.000000 0.000000
vt 1.000000 1.000000
vt 0.000000 1.000000
vt 0.000000 0.000000
vt 1.000000 0.000000
vt 1.000000 1.000000
vt 0.000000 1.000000
vt 0.500000 0.500000
vt 0.000000 0.000000
vt 1.000000 0.000000
vt 0.500000 0.500000
vt 0.000000 1.000000
vt 1.000000 1.000000
vt 0.500000 0.500000
vt 0.000000 0.000000
vt 1.000000 0.000000
vt 0.500000 0.500000
vt 0.000000 1.000000
vt 1.000000 1.000000
vt 0.500000 0.500000
vt 0.000000 0.000000
vt 1.000000 0.000000
vt 0.500000 0.500000
vt 0.000000 1.000000
vt 1.000000 1.000000
vt 0.500000 0.500000
vt 0.000000 0.000000
vt 1.000000 0.000000
vt 0.500000 0.500000
vt 0.000000 1.000000
vt 1.000000 1.000000
vt 0.500000 0.500000
vt 0.000000 0.000000
vt 1.000000 0.000000
vt 0.500000 0.500000
vt 0.000000 1.000000
vt 1.000000 1.000000
vt 0.500000 0.500000
vt 0.000000 0.000000
vt 1.000000 0.000000
vt 0.500000 0.500000
vt 0.000000 1.000000
vt 1.000000 1.000000
vt 0.500000 0.500000
vt 0.000000 0.000000
vt 1.000000 0.000000
vt 0.500000 0.500000
vt 0.000000 1.000000
vt 1.000000 1.000000
vt 0.000000 0.000000
vt 1.000000 0.000000
vt 1.000000 1.000000
vt 0.000000 1.000000
vt 0.000000 0.000000
vt 1.000000 0.000000
vt 1.000000 1.000000
vt 0.000000 1.000000
vt 0.000000 0.000000
vt 1.000000 0.000000
vt 1.000000 1.000000
vt 0.000000 1.000000
vt 0.000000 0.000000
vt 1.000000 0.000000
vt 1.000000 1.000000
vt 0.000000 1.000000
vt 0.000000 0.000000
vt 1.000000 0.000000
vt 1.000000 1.000000
vt 0.000000 1.000000
vt 0.000000 0.000000
vt 1.000000 0.000000
vt 1.000000 1.000000
vt 0.000000 1.000000
vt 0.000000 0.000000
vt 1.000000 0.000000
vt 1.000000 1.000000
vt 0.000000 1.000000
vt 0.000000 0.000000
vt 1.000000 0.000000
vt 1.000000 1.000000
vt 0.000000 1.000000
vt 0.500000 0.500000
vt 0.000000 0.000000
vt 1.000000 0.000000
vt 0.500000 0.500000
vt 0.000000 1.000000
vt 1.000000 1.000000
vt 0.500000 0.500000
vt 0.000000 0.000000
vt 1.000000 0.000000
vt 0.500000 0.500000
vt 0.000000 1.000000
vt 1.000000 1.000000
vt 0.500000 0.500000
vt 0.000000 0.000000
vt 1.000000 0.000000
vt 0.500000 0.500000
vt 0.000000 1.000000
vt 1.000000 1.000000
vt 0.500000 0.500000
vt 0.000000 0.000000
vt 1.000000 0.000000
vt 0.500000 0.500000
vt 0.000000 1.000000
vt 1.000000 1.000000
vt 0.500000 0.500000
vt 0.000000 0.000000
vt 1.000000 0.000000
vt 0.500000 0.500000
vt 0.000000 1.000000
vt 1.000000 1.000000
vt 0.500000 0.500000
vt 0.000000 0.000000
vt 1.000000 0.000000
vt 0.500000 0.500000
vt 0.000000 1.000000
vt 1.000000 1.000000
vt 0.500000 0.500000
vt 0.000000 0.000000
vt 1.000000 0.000000
vt 0.500000 0.500000
vt 0.000000 1.000000
vt 1.000000 1.000000
vt 0.500000 0.500000
vt 0.000000 0.000000
vt 1.000000 0.000000
vt 0.500000 0.500000
vt 0.000000 1.000000
vt 1.000000 1.000000
vt 0.000000 0.000000
vt 1.000000 0.000000
vt 1.000000 1.000000
vt 0.000000 1.000000
vt 0.000000 0.000000
vt 1.000000 0.000000
vt 1.000000 1.000000
vt 0.000000 1.000000
vt 0.000000 0.000000
vt 1.000000 0.000000
vt 1.000000 1.000000
vt 0.000000 1.000000
vt 0.000000 0.000000
vt 1.000000 0.000000
vt 1.000000 1.000000
vt 0.000000 1.000000
vt 0.000000 0.000000
vt 1.000000 0.000000
vt 1.000000 1.000000
vt 0.000000 1.000000
vt 0.000000 0.000000
vt 1.000000 0.000000
vt 1.000000 1.000000
vt 0.000000 1.000000
vt 0.000000 0.000000
vt 1.000000 0.000000
vt 1.000000 1.000000
vt 0.000000 1.000000
vt 0.000000 0.000000
vt 1.000000 0.000000
vt 1.000000 1.000000
vt 0.000000 1.000000
vt 0.500000 0.500000
vt 0.000000 0.000000
vt 1.000000 0.000000
vt 0.500000 0.500000
vt 0.000000 1.000000
vt 1.000000 1.000000
vt 0.500000 0.500000
vt 0.000000 0.000000
vt 1.000000 0.000000
vt 0.500000 0.500000
vt 0.000000 1.000000
vt 1.000000 1.000000
vt 0.500000 0.500000
vt 0.000000 0.000000
vt 1.000000 0.000000
vt 0.500000 0.500000
vt 0.000000 1.000000
vt 1.000000 1.000000
vt 0.500000 0.500000
vt 0.000000 0.000000
vt 1.000000 0.000000
vt 0.500000 0.500000
vt 0.000000 1.000000
vt 1.000000 1.000000
vt 0.500000 0.500000
vt 0.000000 0.000000
vt 1.000000 0.000000
vt 0.500000 0.500000
vt 0.000000 1.000000
vt 1.000000 1.000000
vt 0.500000 0.500000
vt 0.000000 0.000000
vt 1.000000 0.000000
vt 0.500000 0.500000
vt 0.000000 1.000000
vt 1.000000 1.000000
vt 0.500000 0.500000
vt 0.000000 0.000000
vt 1.000000 0.000000
vt 0.500000 0.500000
vt 0.000000 1.000000
vt 1.000000 1.000000
vt 0.500000 0.500000
vt 0.000000 0.000000
vt 1.000000 0.000000
vt 0.500000 0.500000
vt 0.000000 1.000000
vt 1.000000 1.000000
vt 0.000000 0.000000
vt 1.000000 0.000000
vt 1.000000 1.000000
vt 0.000000 1.000000
vt 0.000000 0.000000
vt 1.000000 0.000000
vt 1.000000 1.000000
vt 0.000000 1.000000
vt 0.000000 0.000000
vt 1.000000 0.000000
vt 1.000000 1.000000
vt 0.000000 1.000000
vt 0.000000 0.000000
vt 1.000000 0.000000
vt 1.000000 1.000000
vt 0.000000 1.000000
vt 0.000000 0.000000
vt 1.000000 0.000000
vt 1.000000 1.000000
vt 0.000000 1.000000
vt 0.000000 0.000000
vt 1.000000 0.000000
vt 1.000000 1.000000
vt 0.000000 1.000000
vt 0.000000 0.000000
vt 1.000000 0.000000
vt 1.000000 1.000000
vt 0.000000 1.000000
vt 0.500000 0.500000
vt 0.000000 0.000000
vt 1.000000 0.000000
vt 0.500000 0.500000
vt 0.000000 1.000000
vt 1.000000 1.000000
vt 0.500000 0.500000
vt 0.000000 0.000000
vt 1.000000 0.000000
vt 0.500000 0.500000
vt 0.000000 1.000000
vt 1.000000 1.000000
vt 0.500000 0.500000
vt 0.000000 0.000000
vt 1.000000 0.000000
vt 0.500000 0.500000
vt 0.000000 1.000000
vt 1.000000 1.000000
vt 0.500000 0.500000
vt 0.000000 0.000000
vt 1.000000 0.000000
vt 0.500000 0.500000
vt 0.000000 1.000000
vt 1.000000 1.000000
vt 0.500000 0.500000
vt 0.000000 0.000000
vt 1.000000 0.000000
vt 0.500000 0.500000
vt 0.000000 1.000000
vt 1.000000 1.000000
vt 0.500000 0.500000
vt 0.000000 0.000000
vt 1.000000 0.000000
vt 0.500000 0.500000
vt 0.000000 1.000000
vt 1.000000 1.000000
vt 0.500000 0.500000
vt 0.000000 0.000000
vt 1.000000 0.000000
vt 0.500000 0.500000
vt 0.000000 1.000000
vt 1.000000 1.000000
usemtl Wood
f 1/1 2/2 3/3
f 1/1 3/3 4/4
f 5/5 6/6 7/7
f 5/5 7/7 8/8
f 9/9 10/10 11/11
f 9/9 11/11 12/12
f 13/13 14/14 15/15
f 13/13 15/15 16/16
f 17/17 18/18 19/19
f 17/17 19/19 20/20
f 21/21 22/22 23/23
f 21/21 23/23 24/24
f 25/25 26/26 27/27
f 25/25 27/27 28/28
f 29/29 30/30 31/31
f 29/29 31/31 32/32
f 33/33 34/34 35/35
f 36/36 37/37 38/38
f 39/39 40/40 41/41
f 42/42 43/43 44/44
f 45/45 46/46 47/47
f 48/48 49/49 50/50
f 51/51 52/52 53/53
f 54/54 55/55 56/56
f 57/57 58/58 59/59
f 60/60 61/61 62/62
f 63/63 64/64 65/65
f 66/66 67/67 68/68
f 69/69 70/70 71/71
f 72/72 73/73 74/74
f 75/75 76/76 77/77
f 78/78 79/79 80/80
f 81/81 82/82 83/83
f 81/81 83/83 84/84
f 85/85 86/86 87/87
f 85/85 87/87 88/88
f 89/89 90/90 91/91
f 89/89 91/91 92/92
f 93/93 94/94 95/95
f 93/93 95/95 96/96
f 97/97 98/98 99/99
f 97/97 99/99 100/100
f 101/101 102/102 103/103
f 101/101 103/103 104/104
f 105/105 106/106 107/107
f 105/105 107/107 108/108
f 109/109 110/110 111/111
f 112/112 113/113 114/114
f 115/115 116/116 117/117
f 118/118 119/119 120/120
f 121/121 122/122 123/123
f 124/124 125/125 126/126
f 127/127 128/128 129/129
f 130/130 131/131 132/132
f 133/133 134/134 135/135
f 136/136 137/137 138/138
f 139/139 140/140 141/141
f 142/142 143/143 144/144
f 145/145 146/146 147/147
f 148/148 149/149 150/150
f 151/151 152/152 153/153
f 151/151 153/153 154/154
f 155/155 156/156 157/157
f 155/155 157/157 158/158
f 159/159 160/160 161/161
f 159/159 161/161 162/162
f 163/163 164/164 165/165
f 163/163 165/165 166/166
f 167/167 168/168 169/169
f 167/167 169/169 170/170
f 171/171 172/172 173/173
f 171/171 173/173 174/174
f 175/175 176/176 177/177
f 175/175 177/177 178/178
f 179/179 180/180 181/181
f 179/179 181/181 182/182
f 183/183 184/184 185/185
f 186/186 187/187 188/188
f 189/189 190/190 191/191
f 192/192 193/193 194/194
f 195/195 196/196 197/197
f 198/198 199/199 200/200
f 201/201 202/202 203/203
f 204/204 205/205 206/206
f 207/207 208/208 209/209
f 210/210 211/211 212/212
f 213/213 214/214 215/215
f 216/216 217/217 218/218
f 219/219 220/220 221/221
f 222/222 223/223 224/224
f 225/225 226/226 227/227
f 228/228 229/229 230/230
f 231/231 232/232 233/233
f 231/231 233/233 234/234
f 235/235 236/236 237/237
f 235/235 237/237 238/238
f 239/239 240/240 241/241
f 239/239 241/241 242/242
f 243/243 244/244 245/245
f 243/243 245/245 246/246
f 247/247 248/248 249/249
f 247/247 249/249 250/250
f 251/251 252/252 253/253
f 251/251 253/253 254/254
f 255/255 256/256 257/257
f 255/255 257/257 258/258
f 259/259 260/260 261/261
f 259/259 261/261 262/262
f 263/263 264/264 265/265
f 266/266 267/267 268/268
f 269/269 270/270 271/271
f 272/272 273/273 274/274
f 275/275 276/276 277/277
f 278/278 279/279 280/280
f 281/281 282/282 283/283
f 284/284 285/285 286/286
f 287/287 288/288 289/289
f 290/290 291/291 292/292
f 293/293 294/294 295/295
f 296/296 297/297 298/298
f 299/299 300/300 301/301
f 302/302 303/303 304/304
f 305/305 306/306 307/307
f 308/308 309/309 310/310
f 311/311 312/312 313/313
f 311/311 313/313 314/314
f 315/315 316/316 317/317
f 315/315 317/317 318/318
f 319/319 320/320 321/321
f 319/319 321/321 322/322
f 323/323 324/324 325/325
f 323/323 325/325 326/326
f 327/327 328/328 329/329
f 327/327 329/329 330/330
f 331/331 332/332 333/333
f 331/331 333/333 334/334
f 335/335 336/336 337/337
f 335/335 337/337 338/338
f 339/339 340/340 341/341
f 342/342 343/343 344/344
f 345/345 346/346 347/347
f 348/348 349/349 350/350
f 351/351 352/352 353/353
f 354/354 355/355 356/356
f 357/357 358/358 359/359
f 360/360 361/361 362/362
f 363/363 364/364 365/365
f 366/366 367/367 368/368
f 369/369 370/370 371/371
f 372/372 373/373 374/374
f 375/375 376/376 377/377
f 378/378 379/379 380/380
f 381/381 382/382 383/383
f 381/381 383/383 384/384
f 385/385 386/386 387/387
f 385/385 387/387 388/388
f 389/389 390/390 391/391
f 389/389 391/391 392/392
f 393/393 394/394 395/395
f 393/393 395/395 396/396
f 397/397 398/398 399/399
f 397/397 399/399 400/400
f 401/401 402/402 403/403
f 401/401 403/403 404/404
f 405/405 406/406 407/407
f 405/405 407/407 408/408
f 409/409 410/410 411/411
f 409/409 411/411 412/412
f 413/413 414/414 415/415
f 416/416 417/417 418/418
f 419/419 420/420 421/421
f 422/422 423/423 424/424
f 425/425 426/426 427/427
f 428/428 429/429 430/430
f 431/431 432/432 433/433
f 434/434 435/435 436/436
f 437/437 438/438 439/439
f 440/440 441/441 442/442
f 443/443 444/444 445/445
f 446/446 447/447 448/448
f 449/449 450/450 451/451
f 452/452 453/453 454/454
f 455/455 456/456 457/457
f 458/458 459/459 460/460
f 461/461 462/462 463/463
f 461/461 463/463 464/464
f 465/465 466/466 467/467
f 465/465 467/467 468/468
f 469/469 470/470 471/471
f 469/469 471/471 472/472
f 473/473 474/474 475/475
f 473/473 475/475 476/476
f 477/477 478/478 479/479
f 477/477 479/479 480/480
f 481/481 482/482 483/483
f 481/481 483/483 484/484
f 485/485 486/486 487/487
f 485/485 487/487 488/488
f 489/489 490/490 491/491
f 489/489 491/491 492/492
f 493/493 494/494 495/495
f 496/496 497/497 498/498
f 499/499 500/500 501/501
f 502/502 503/503 504/504
f 505/505 506/506 507/507
f 508/508 509/509 510/510
f 511/511 512/512 513/513
f 514/514 515/515 516/516
f 517/517 518/518 519/519
f 520/520 521/521 522/522
f 523/523 524/524 525/525
f 526/526 527/527 528/528
f 529/529 530/530 531/531
f 532/532 533/533 534/534
f 535/535 536/536 537/537
f 538/538 539/539 540/540
f 541/541 542/542 543/543
f 541/541 543/543 544/544
f 545/545 546/546 547/547
f 545/545 547/547 548/548
f 549/549 550/550 551/551
f 549/549 551/551 552/552
f 553/553 554/554 555/555
f 553/553 555/555 556/556
f 557/557 558/558 559/559
f 557/557 559/559 560/560
f 561/561 562/562 563/563
f 561/561 563/563 564/564
f 565/565 566/566 567/567
f 565/565 567/567 568/568
f 569/569 570/570 571/571
f 572/572 573/573 574/574
f 575/575 576/576 577/577
f 578/578 579/579 580/580
f 581/581 582/582 583/583
f 584/584 585/585 586/586
f 587/587 588/588 589/589
f 590/590 591/591 592/592
f 593/593 594/594 595/595
f 596/596 597/597 598/598
f 599/599 600/600 601/601
f 602/602 603/603 604/604
f 605/605 606/606 607/607
f 608/608 609/609 610/610
