mtllib ../../Materials/project_oen.mtl
o en-020_rain_catcher_placement_set__basin
v 0.310000 0.030000 0.000000
v 0.279300 0.030000 0.134504
v 0.279300 0.290000 0.134504
v 0.310000 0.290000 0.000000
v 0.279300 0.030000 0.134504
v 0.193282 0.030000 0.242368
v 0.193282 0.290000 0.242368
v 0.279300 0.290000 0.134504
v 0.193282 0.030000 0.242368
v 0.068981 0.030000 0.302228
v 0.068981 0.290000 0.302228
v 0.193282 0.290000 0.242368
v 0.068981 0.030000 0.302228
v -0.068981 0.030000 0.302228
v -0.068981 0.290000 0.302228
v 0.068981 0.290000 0.302228
v -0.068981 0.030000 0.302228
v -0.193282 0.030000 0.242368
v -0.193282 0.290000 0.242368
v -0.068981 0.290000 0.302228
v -0.193282 0.030000 0.242368
v -0.279300 0.030000 0.134504
v -0.279300 0.290000 0.134504
v -0.193282 0.290000 0.242368
v -0.279300 0.030000 0.134504
v -0.310000 0.030000 0.000000
v -0.310000 0.290000 0.000000
v -0.279300 0.290000 0.134504
v -0.310000 0.030000 0.000000
v -0.279300 0.030000 -0.134504
v -0.279300 0.290000 -0.134504
v -0.310000 0.290000 0.000000
v -0.279300 0.030000 -0.134504
v -0.193282 0.030000 -0.242368
v -0.193282 0.290000 -0.242368
v -0.279300 0.290000 -0.134504
v -0.193282 0.030000 -0.242368
v -0.068981 0.030000 -0.302228
v -0.068981 0.290000 -0.302228
v -0.193282 0.290000 -0.242368
v -0.068981 0.030000 -0.302228
v 0.068981 0.030000 -0.302228
v 0.068981 0.290000 -0.302228
v -0.068981 0.290000 -0.302228
v 0.068981 0.030000 -0.302228
v 0.193282 0.030000 -0.242368
v 0.193282 0.290000 -0.242368
v 0.068981 0.290000 -0.302228
v 0.193282 0.030000 -0.242368
v 0.279300 0.030000 -0.134504
v 0.279300 0.290000 -0.134504
v 0.193282 0.290000 -0.242368
v 0.279300 0.030000 -0.134504
v 0.310000 0.030000 0.000000
v 0.310000 0.290000 0.000000
v 0.279300 0.290000 -0.134504
v 0.000000 0.030000 0.000000
v 0.279300 0.030000 0.134504
v 0.310000 0.030000 0.000000
v 0.000000 0.290000 0.000000
v 0.310000 0.290000 0.000000
v 0.279300 0.290000 0.134504
v 0.000000 0.030000 0.000000
v 0.193282 0.030000 0.242368
v 0.279300 0.030000 0.134504
v 0.000000 0.290000 0.000000
v 0.279300 0.290000 0.134504
v 0.193282 0.290000 0.242368
v 0.000000 0.030000 0.000000
v 0.068981 0.030000 0.302228
v 0.193282 0.030000 0.242368
v 0.000000 0.290000 0.000000
v 0.193282 0.290000 0.242368
v 0.068981 0.290000 0.302228
v 0.000000 0.030000 0.000000
v -0.068981 0.030000 0.302228
v 0.068981 0.030000 0.302228
v 0.000000 0.290000 0.000000
v 0.068981 0.290000 0.302228
v -0.068981 0.290000 0.302228
v 0.000000 0.030000 0.000000
v -0.193282 0.030000 0.242368
v -0.068981 0.030000 0.302228
v 0.000000 0.290000 0.000000
v -0.068981 0.290000 0.302228
v -0.193282 0.290000 0.242368
v 0.000000 0.030000 0.000000
v -0.279300 0.030000 0.134504
v -0.193282 0.030000 0.242368
v 0.000000 0.290000 0.000000
v -0.193282 0.290000 0.242368
v -0.279300 0.290000 0.134504
v 0.000000 0.030000 0.000000
v -0.310000 0.030000 0.000000
v -0.279300 0.030000 0.134504
v 0.000000 0.290000 0.000000
v -0.279300 0.290000 0.134504
v -0.310000 0.290000 0.000000
v 0.000000 0.030000 0.000000
v -0.279300 0.030000 -0.134504
v -0.310000 0.030000 0.000000
v 0.000000 0.290000 0.000000
v -0.310000 0.290000 0.000000
v -0.279300 0.290000 -0.134504
v 0.000000 0.030000 0.000000
v -0.193282 0.030000 -0.242368
v -0.279300 0.030000 -0.134504
v 0.000000 0.290000 0.000000
v -0.279300 0.290000 -0.134504
v -0.193282 0.290000 -0.242368
v 0.000000 0.030000 0.000000
v -0.068981 0.030000 -0.302228
v -0.193282 0.030000 -0.242368
v 0.000000 0.290000 0.000000
v -0.193282 0.290000 -0.242368
v -0.068981 0.290000 -0.302228
v 0.000000 0.030000 0.000000
v 0.068981 0.030000 -0.302228
v -0.068981 0.030000 -0.302228
v 0.000000 0.290000 0.000000
v -0.068981 0.290000 -0.302228
v 0.068981 0.290000 -0.302228
v 0.000000 0.030000 0.000000
v 0.193282 0.030000 -0.242368
v 0.068981 0.030000 -0.302228
v 0.000000 0.290000 0.000000
v 0.068981 0.290000 -0.302228
v 0.193282 0.290000 -0.242368
v 0.000000 0.030000 0.000000
v 0.279300 0.030000 -0.134504
v 0.193282 0.030000 -0.242368
v 0.000000 0.290000 0.000000
v 0.193282 0.290000 -0.242368
v 0.279300 0.290000 -0.134504
v 0.000000 0.030000 0.000000
v 0.310000 0.030000 0.000000
v 0.279300 0.030000 -0.134504
v 0.000000 0.290000 0.000000
v 0.279300 0.290000 -0.134504
v 0.310000 0.290000 0.000000
v 0.250000 0.292500 0.000000
v 0.225242 0.292500 0.108471
v 0.225242 0.307500 0.108471
v 0.250000 0.307500 0.000000
v 0.225242 0.292500 0.108471
v 0.155872 0.292500 0.195458
v 0.155872 0.307500 0.195458
v 0.225242 0.307500 0.108471
v 0.155872 0.292500 0.195458
v 0.055630 0.292500 0.243732
v 0.055630 0.307500 0.243732
v 0.155872 0.307500 0.195458
v 0.055630 0.292500 0.243732
v -0.055630 0.292500 0.243732
v -0.055630 0.307500 0.243732
v 0.055630 0.307500 0.243732
v -0.055630 0.292500 0.243732
v -0.155872 0.292500 0.195458
v -0.155872 0.307500 0.195458
v -0.055630 0.307500 0.243732
v -0.155872 0.292500 0.195458
v -0.225242 0.292500 0.108471
v -0.225242 0.307500 0.108471
v -0.155872 0.307500 0.195458
v -0.225242 0.292500 0.108471
v -0.250000 0.292500 0.000000
v -0.250000 0.307500 0.000000
v -0.225242 0.307500 0.108471
v -0.250000 0.292500 0.000000
v -0.225242 0.292500 -0.108471
v -0.225242 0.307500 -0.108471
v -0.250000 0.307500 0.000000
v -0.225242 0.292500 -0.108471
v -0.155872 0.292500 -0.195458
v -0.155872 0.307500 -0.195458
v -0.225242 0.307500 -0.108471
v -0.155872 0.292500 -0.195458
v -0.055630 0.292500 -0.243732
v -0.055630 0.307500 -0.243732
v -0.155872 0.307500 -0.195458
v -0.055630 0.292500 -0.243732
v 0.055630 0.292500 -0.243732
v 0.055630 0.307500 -0.243732
v -0.055630 0.307500 -0.243732
v 0.055630 0.292500 -0.243732
v 0.155872 0.292500 -0.195458
v 0.155872 0.307500 -0.195458
v 0.055630 0.307500 -0.243732
v 0.155872 0.292500 -0.195458
v 0.225242 0.292500 -0.108471
v 0.225242 0.307500 -0.108471
v 0.155872 0.307500 -0.195458
v 0.225242 0.292500 -0.108471
v 0.250000 0.292500 0.000000
v 0.250000 0.307500 0.000000
v 0.225242 0.307500 -0.108471
v 0.000000 0.292500 0.000000
v 0.225242 0.292500 0.108471
v 0.250000 0.292500 0.000000
v 0.000000 0.307500 0.000000
v 0.250000 0.307500 0.000000
v 0.225242 0.307500 0.108471
v 0.000000 0.292500 0.000000
v 0.155872 0.292500 0.195458
v 0.225242 0.292500 0.108471
v 0.000000 0.307500 0.000000
v 0.225242 0.307500 0.108471
v 0.155872 0.307500 0.195458
v 0.000000 0.292500 0.000000
v 0.055630 0.292500 0.243732
v 0.155872 0.292500 0.195458
v 0.000000 0.307500 0.000000
v 0.155872 0.307500 0.195458
v 0.055630 0.307500 0.243732
v 0.000000 0.292500 0.000000
v -0.055630 0.292500 0.243732
v 0.055630 0.292500 0.243732
v 0.000000 0.307500 0.000000
v 0.055630 0.307500 0.243732
v -0.055630 0.307500 0.243732
v 0.000000 0.292500 0.000000
v -0.155872 0.292500 0.195458
v -0.055630 0.292500 0.243732
v 0.000000 0.307500 0.000000
v -0.055630 0.307500 0.243732
v -0.155872 0.307500 0.195458
v 0.000000 0.292500 0.000000
v -0.225242 0.292500 0.108471
v -0.155872 0.292500 0.195458
v 0.000000 0.307500 0.000000
v -0.155872 0.307500 0.195458
v -0.225242 0.307500 0.108471
v 0.000000 0.292500 0.000000
v -0.250000 0.292500 0.000000
v -0.225242 0.292500 0.108471
v 0.000000 0.307500 0.000000
v -0.225242 0.307500 0.108471
v -0.250000 0.307500 0.000000
v 0.000000 0.292500 0.000000
v -0.225242 0.292500 -0.108471
v -0.250000 0.292500 0.000000
v 0.000000 0.307500 0.000000
v -0.250000 0.307500 0.000000
v -0.225242 0.307500 -0.108471
v 0.000000 0.292500 0.000000
v -0.155872 0.292500 -0.195458
v -0.225242 0.292500 -0.108471
v 0.000000 0.307500 0.000000
v -0.225242 0.307500 -0.108471
v -0.155872 0.307500 -0.195458
v 0.000000 0.292500 0.000000
v -0.055630 0.292500 -0.243732
v -0.155872 0.292500 -0.195458
v 0.000000 0.307500 0.000000
v -0.155872 0.307500 -0.195458
v -0.055630 0.307500 -0.243732
v 0.000000 0.292500 0.000000
v 0.055630 0.292500 -0.243732
v -0.055630 0.292500 -0.243732
v 0.000000 0.307500 0.000000
v -0.055630 0.307500 -0.243732
v 0.055630 0.307500 -0.243732
v 0.000000 0.292500 0.000000
v 0.155872 0.292500 -0.195458
v 0.055630 0.292500 -0.243732
v 0.000000 0.307500 0.000000
v 0.055630 0.307500 -0.243732
v 0.155872 0.307500 -0.195458
v 0.000000 0.292500 0.000000
v 0.225242 0.292500 -0.108471
v 0.155872 0.292500 -0.195458
v 0.000000 0.307500 0.000000
v 0.155872 0.307500 -0.195458
v 0.225242 0.307500 -0.108471
v 0.000000 0.292500 0.000000
v 0.250000 0.292500 0.000000
v 0.225242 0.292500 -0.108471
v 0.000000 0.307500 0.000000
v 0.225242 0.307500 -0.108471
v 0.250000 0.307500 0.000000
vt 0.000000 0.000000
vt 1.000000 0.000000
vt 1.000000 1.000000
vt 0.000000 1.000000
vt 0.000000 0.000000
vt 1.000000 0.000000
vt 1.000000 1.000000
vt 0.000000 1.000000
vt 0.000000 0.000000
vt 1.000000 0.000000
vt 1.000000 1.000000
vt 0.000000 1.000000
vt 0.000000 0.000000
vt 1.000000 0.000000
vt 1.000000 1.000000
vt 0.000000 1.000000
vt 0.000000 0.000000
vt 1.000000 0.000000
vt 1.000000 1.000000
vt 0.000000 1.000000
vt 0.000000 0.000000
vt 1.000000 0.000000
vt 1.000000 1.000000
vt 0.000000 1.000000
vt 0.000000 0.000000
vt 1.000000 0.000000
vt 1.000000 1.000000
vt 0.000000 1.000000
vt 0.000000 0.000000
vt 1.000000 0.000000
vt 1.000000 1.000000
vt 0.000000 1.000000
vt 0.000000 0.000000
vt 1.000000 0.000000
vt 1.000000 1.000000
vt 0.000000 1.000000
vt 0.000000 0.000000
vt 1.000000 0.000000
vt 1.000000 1.000000
vt 0.000000 1.000000
vt 0.000000 0.000000
vt 1.000000 0.000000
vt 1.000000 1.000000
vt 0.000000 1.000000
vt 0.000000 0.000000
vt 1.000000 0.000000
vt 1.000000 1.000000
vt 0.000000 1.000000
vt 0.000000 0.000000
vt 1.000000 0.000000
vt 1.000000 1.000000
vt 0.000000 1.000000
vt 0.000000 0.000000
vt 1.000000 0.000000
vt 1.000000 1.000000
vt 0.000000 1.000000
vt 0.500000 0.500000
vt 0.000000 0.000000
vt 1.000000 0.000000
vt 0.500000 0.500000
vt 0.000000 1.000000
vt 1.000000 1.000000
vt 0.500000 0.500000
vt 0.000000 0.000000
vt 1.000000 0.000000
vt 0.500000 0.500000
vt 0.000000 1.000000
vt 1.000000 1.000000
vt 0.500000 0.500000
vt 0.000000 0.000000
vt 1.000000 0.000000
vt 0.500000 0.500000
vt 0.000000 1.000000
vt 1.000000 1.000000
vt 0.500000 0.500000
vt 0.000000 0.000000
vt 1.000000 0.000000
vt 0.500000 0.500000
vt 0.000000 1.000000
vt 1.000000 1.000000
vt 0.500000 0.500000
vt 0.000000 0.000000
vt 1.000000 0.000000
vt 0.500000 0.500000
vt 0.000000 1.000000
vt 1.000000 1.000000
vt 0.500000 0.500000
vt 0.000000 0.000000
vt 1.000000 0.000000
vt 0.500000 0.500000
vt 0.000000 1.000000
vt 1.000000 1.000000
vt 0.500000 0.500000
vt 0.000000 0.000000
vt 1.000000 0.000000
vt 0.500000 0.500000
vt 0.000000 1.000000
vt 1.000000 1.000000
vt 0.500000 0.500000
vt 0.000000 0.000000
vt 1.000000 0.000000
vt 0.500000 0.500000
vt 0.000000 1.000000
vt 1.000000 1.000000
vt 0.500000 0.500000
vt 0.000000 0.000000
vt 1.000000 0.000000
vt 0.500000 0.500000
vt 0.000000 1.000000
vt 1.000000 1.000000
vt 0.500000 0.500000
vt 0.000000 0.000000
vt 1.000000 0.000000
vt 0.500000 0.500000
vt 0.000000 1.000000
vt 1.000000 1.000000
vt 0.500000 0.500000
vt 0.000000 0.000000
vt 1.000000 0.000000
vt 0.500000 0.500000
vt 0.000000 1.000000
vt 1.000000 1.000000
vt 0.500000 0.500000
vt 0.000000 0.000000
vt 1.000000 0.000000
vt 0.500000 0.500000
vt 0.000000 1.000000
vt 1.000000 1.000000
vt 0.500000 0.500000
vt 0.000000 0.000000
vt 1.000000 0.000000
vt 0.500000 0.500000
vt 0.000000 1.000000
vt 1.000000 1.000000
vt 0.500000 0.500000
vt 0.000000 0.000000
vt 1.000000 0.000000
vt 0.500000 0.500000
vt 0.000000 1.000000
vt 1.000000 1.000000
vt 0.000000 0.000000
vt 1.000000 0.000000
vt 1.000000 1.000000
vt 0.000000 1.000000
vt 0.000000 0.000000
vt 1.000000 0.000000
vt 1.000000 1.000000
vt 0.000000 1.000000
vt 0.000000 0.000000
vt 1.000000 0.000000
vt 1.000000 1.000000
vt 0.000000 1.000000
vt 0.000000 0.000000
vt 1.000000 0.000000
vt 1.000000 1.000000
vt 0.000000 1.000000
vt 0.000000 0.000000
vt 1.000000 0.000000
vt 1.000000 1.000000
vt 0.000000 1.000000
vt 0.000000 0.000000
vt 1.000000 0.000000
vt 1.000000 1.000000
vt 0.000000 1.000000
vt 0.000000 0.000000
vt 1.000000 0.000000
vt 1.000000 1.000000
vt 0.000000 1.000000
vt 0.000000 0.000000
vt 1.000000 0.000000
vt 1.000000 1.000000
vt 0.000000 1.000000
vt 0.000000 0.000000
vt 1.000000 0.000000
vt 1.000000 1.000000
vt 0.000000 1.000000
vt 0.000000 0.000000
vt 1.000000 0.000000
vt 1.000000 1.000000
vt 0.000000 1.000000
vt 0.000000 0.000000
vt 1.000000 0.000000
vt 1.000000 1.000000
vt 0.000000 1.000000
vt 0.000000 0.000000
vt 1.000000 0.000000
vt 1.000000 1.000000
vt 0.000000 1.000000
vt 0.000000 0.000000
vt 1.000000 0.000000
vt 1.000000 1.000000
vt 0.000000 1.000000
vt 0.000000 0.000000
vt 1.000000 0.000000
vt 1.000000 1.000000
vt 0.000000 1.000000
vt 0.500000 0.500000
vt 0.000000 0.000000
vt 1.000000 0.000000
vt 0.500000 0.500000
vt 0.000000 1.000000
vt 1.000000 1.000000
vt 0.500000 0.500000
vt 0.000000 0.000000
vt 1.000000 0.000000
vt 0.500000 0.500000
vt 0.000000 1.000000
vt 1.000000 1.000000
vt 0.500000 0.500000
vt 0.000000 0.000000
vt 1.000000 0.000000
vt 0.500000 0.500000
vt 0.000000 1.000000
vt 1.000000 1.000000
vt 0.500000 0.500000
vt 0.000000 0.000000
vt 1.000000 0.000000
vt 0.500000 0.500000
vt 0.000000 1.000000
vt 1.000000 1.000000
vt 0.500000 0.500000
vt 0.000000 0.000000
vt 1.000000 0.000000
vt 0.500000 0.500000
vt 0.000000 1.000000
vt 1.000000 1.000000
vt 0.500000 0.500000
vt 0.000000 0.000000
vt 1.000000 0.000000
vt 0.500000 0.500000
vt 0.000000 1.000000
vt 1.000000 1.000000
vt 0.500000 0.500000
vt 0.000000 0.000000
vt 1.000000 0.000000
vt 0.500000 0.500000
vt 0.000000 1.000000
vt 1.000000 1.000000
vt 0.500000 0.500000
vt 0.000000 0.000000
vt 1.000000 0.000000
vt 0.500000 0.500000
vt 0.000000 1.000000
vt 1.000000 1.000000
vt 0.500000 0.500000
vt 0.000000 0.000000
vt 1.000000 0.000000
vt 0.500000 0.500000
vt 0.000000 1.000000
vt 1.000000 1.000000
vt 0.500000 0.500000
vt 0.000000 0.000000
vt 1.000000 0.000000
vt 0.500000 0.500000
vt 0.000000 1.000000
vt 1.000000 1.000000
vt 0.500000 0.500000
vt 0.000000 0.000000
vt 1.000000 0.000000
vt 0.500000 0.500000
vt 0.000000 1.000000
vt 1.000000 1.000000
vt 0.500000 0.500000
vt 0.000000 0.000000
vt 1.000000 0.000000
vt 0.500000 0.500000
vt 0.000000 1.000000
vt 1.000000 1.000000
vt 0.500000 0.500000
vt 0.000000 0.000000
vt 1.000000 0.000000
vt 0.500000 0.500000
vt 0.000000 1.000000
vt 1.000000 1.000000
vt 0.500000 0.500000
vt 0.000000 0.000000
vt 1.000000 0.000000
vt 0.500000 0.500000
vt 0.000000 1.000000
vt 1.000000 1.000000
usemtl Metal
f 1/1 2/2 3/3
f 1/1 3/3 4/4
f 5/5 6/6 7/7
f 5/5 7/7 8/8
f 9/9 10/10 11/11
f 9/9 11/11 12/12
f 13/13 14/14 15/15
f 13/13 15/15 16/16
f 17/17 18/18 19/19
f 17/17 19/19 20/20
f 21/21 22/22 23/23
f 21/21 23/23 24/24
f 25/25 26/26 27/27
f 25/25 27/27 28/28
f 29/29 30/30 31/31
f 29/29 31/31 32/32
f 33/33 34/34 35/35
f 33/33 35/35 36/36
f 37/37 38/38 39/39
f 37/37 39/39 40/40
f 41/41 42/42 43/43
f 41/41 43/43 44/44
f 45/45 46/46 47/47
f 45/45 47/47 48/48
f 49/49 50/50 51/51
f 49/49 51/51 52/52
f 53/53 54/54 55/55
f 53/53 55/55 56/56
f 57/57 58/58 59/59
f 60/60 61/61 62/62
f 63/63 64/64 65/65
f 66/66 67/67 68/68
f 69/69 70/70 71/71
f 72/72 73/73 74/74
f 75/75 76/76 77/77
f 78/78 79/79 80/80
f 81/81 82/82 83/83
f 84/84 85/85 86/86
f 87/87 88/88 89/89
f 90/90 91/91 92/92
f 93/93 94/94 95/95
f 96/96 97/97 98/98
f 99/99 100/100 101/101
f 102/102 103/103 104/104
f 105/105 106/106 107/107
f 108/108 109/109 110/110
f 111/111 112/112 113/113
f 114/114 115/115 116/116
f 117/117 118/118 119/119
f 120/120 121/121 122/122
f 123/123 124/124 125/125
f 126/126 127/127 128/128
f 129/129 130/130 131/131
f 132/132 133/133 134/134
f 135/135 136/136 137/137
f 138/138 139/139 140/140
usemtl Water
f 141/141 142/142 143/143
f 141/141 143/143 144/144
f 145/145 146/146 147/147
f 145/145 147/147 148/148
f 149/149 150/150 151/151
f 149/149 151/151 152/152
f 153/153 154/154 155/155
f 153/153 155/155 156/156
f 157/157 158/158 159/159
f 157/157 159/159 160/160
f 161/161 162/162 163/163
f 161/161 163/163 164/164
f 165/165 166/166 167/167
f 165/165 167/167 168/168
f 169/169 170/170 171/171
f 169/169 171/171 172/172
f 173/173 174/174 175/175
f 173/173 175/175 176/176
f 177/177 178/178 179/179
f 177/177 179/179 180/180
f 181/181 182/182 183/183
f 181/181 183/183 184/184
f 185/185 186/186 187/187
f 185/185 187/187 188/188
f 189/189 190/190 191/191
f 189/189 191/191 192/192
f 193/193 194/194 195/195
f 193/193 195/195 196/196
f 197/197 198/198 199/199
f 200/200 201/201 202/202
f 203/203 204/204 205/205
f 206/206 207/207 208/208
f 209/209 210/210 211/211
f 212/212 213/213 214/214
f 215/215 216/216 217/217
f 218/218 219/219 220/220
f 221/221 222/222 223/223
f 224/224 225/225 226/226
f 227/227 228/228 229/229
f 230/230 231/231 232/232
f 233/233 234/234 235/235
f 236/236 237/237 238/238
f 239/239 240/240 241/241
f 242/242 243/243 244/244
f 245/245 246/246 247/247
f 248/248 249/249 250/250
f 251/251 252/252 253/253
f 254/254 255/255 256/256
f 257/257 258/258 259/259
f 260/260 261/261 262/262
f 263/263 264/264 265/265
f 266/266 267/267 268/268
f 269/269 270/270 271/271
f 272/272 273/273 274/274
f 275/275 276/276 277/277
f 278/278 279/279 280/280
