mtllib ../../Materials/project_oen.mtl
o en-008_palm_frond_ground_clutter__medium
v -0.085956 0.034916 0.068950
v -0.076033 0.031491 0.383964
v 0.117196 0.047632 0.632452
v 0.107273 0.051057 0.317437
v 0.107273 0.051057 0.317437
v 0.117196 0.047632 0.632452
v -0.076033 0.031491 0.383964
v -0.085956 0.034916 0.068950
v -0.054947 0.279990 -0.074417
v 0.074713 0.316838 0.252803
v 0.350255 0.359756 0.470696
v 0.220594 0.322908 0.143476
v 0.220594 0.322908 0.143476
v 0.350255 0.359756 0.470696
v 0.074713 0.316838 0.252803
v -0.054947 0.279990 -0.074417
v 0.273836 0.168905 -0.246155
v 0.459005 0.149531 0.134760
v 0.730101 0.070254 0.450957
v 0.544932 0.089629 0.070043
v 0.544932 0.089629 0.070043
v 0.730101 0.070254 0.450957
v 0.459005 0.149531 0.134760
v 0.273836 0.168905 -0.246155
v 0.200859 0.363894 -0.193788
v 0.510556 0.308971 -0.316370
v 0.674338 0.227366 -0.600045
v 0.364641 0.282289 -0.477463
v 0.364641 0.282289 -0.477463
v 0.674338 0.227366 -0.600045
v 0.510556 0.308971 -0.316370
v 0.200859 0.363894 -0.193788
v 0.514886 0.158331 -0.124176
v 0.193671 0.250274 0.159139
v -0.006907 0.279962 0.547452
v 0.314307 0.188018 0.264137
v 0.314307 0.188018 0.264137
v -0.006907 0.279962 0.547452
v 0.193671 0.250274 0.159139
v 0.514886 0.158331 -0.124176
v -0.381119 0.027398 0.096850
v -0.128747 0.015095 0.276460
v 0.161697 0.117153 0.312922
v -0.090675 0.129456 0.133312
v -0.090675 0.129456 0.133312
v 0.161697 0.117153 0.312922
v -0.128747 0.015095 0.276460
v -0.381119 0.027398 0.096850
v 0.140438 -0.007068 0.026729
v 0.414257 0.029410 -0.360299
v 0.545947 0.072091 -0.815200
v 0.272128 0.035613 -0.428171
v 0.272128 0.035613 -0.428171
v 0.545947 0.072091 -0.815200
v 0.414257 0.029410 -0.360299
v 0.140438 -0.007068 0.026729
v -0.349448 0.212688 0.164513
v -0.405384 0.251160 -0.250582
v -0.660166 0.299119 -0.581791
v -0.604230 0.260646 -0.166696
v -0.604230 0.260646 -0.166696
v -0.660166 0.299119 -0.581791
v -0.405384 0.251160 -0.250582
v -0.349448 0.212688 0.164513
v 0.379371 0.136041 0.595672
v 0.179633 0.168151 0.250130
v -0.116789 0.102301 -0.010876
v 0.082949 0.070192 0.334667
v 0.082949 0.070192 0.334667
v -0.116789 0.102301 -0.010876
v 0.179633 0.168151 0.250130
v 0.379371 0.136041 0.595672
vt 0.000000 0.000000
vt 1.000000 0.000000
vt 1.000000 1.000000
vt 0.000000 1.000000
vt 0.000000 0.000000
vt 1.000000 0.000000
vt 1.000000 1.000000
vt 0.000000 1.000000
vt 0.000000 0.000000
vt 1.000000 0.000000
vt 1.000000 1.000000
vt 0.000000 1.000000
vt 0.000000 0.000000
vt 1.000000 0.000000
vt 1.000000 1.000000
vt 0.000000 1.000000
vt 0.000000 0.000000
vt 1.000000 0.000000
vt 1.000000 1.000000
vt 0.000000 1.000000
vt 0.000000 0.000000
vt 1.000000 0.000000
vt 1.000000 1.000000
vt 0.000000 1.000000
vt 0.000000 0.000000
vt 1.000000 0.000000
vt 1.000000 1.000000
vt 0.000000 1.000000
vt 0.000000 0.000000
vt 1.000000 0.000000
vt 1.000000 1.000000
vt 0.000000 1.000000
vt 0.000000 0.000000
vt 1.000000 0.000000
vt 1.000000 1.000000
vt 0.000000 1.000000
vt 0.000000 0.000000
vt 1.000000 0.000000
vt 1.000000 1.000000
vt 0.000000 1.000000
vt 0.000000 0.000000
vt 1.000000 0.000000
vt 1.000000 1.000000
vt 0.000000 1.000000
vt 0.000000 0.000000
vt 1.000000 0.000000
vt 1.000000 1.000000
vt 0.000000 1.000000
vt 0.000000 0.000000
vt 1.000000 0.000000
vt 1.000000 1.000000
vt 0.000000 1.000000
vt 0.000000 0.000000
vt 1.000000 0.000000
vt 1.000000 1.000000
vt 0.000000 1.000000
vt 0.000000 0.000000
vt 1.000000 0.000000
vt 1.000000 1.000000
vt 0.000000 1.000000
vt 0.000000 0.000000
vt 1.000000 0.000000
vt 1.000000 1.000000
vt 0.000000 1.000000
vt 0.000000 0.000000
vt 1.000000 0.000000
vt 1.000000 1.000000
vt 0.000000 1.000000
vt 0.000000 0.000000
vt 1.000000 0.000000
vt 1.000000 1.000000
vt 0.000000 1.000000
usemtl Leaf
f 1/1 2/2 3/3
f 1/1 3/3 4/4
f 5/5 6/6 7/7
f 5/5 7/7 8/8
f 9/9 10/10 11/11
f 9/9 11/11 12/12
f 13/13 14/14 15/15
f 13/13 15/15 16/16
f 17/17 18/18 19/19
f 17/17 19/19 20/20
f 21/21 22/22 23/23
f 21/21 23/23 24/24
f 25/25 26/26 27/27
f 25/25 27/27 28/28
f 29/29 30/30 31/31
f 29/29 31/31 32/32
f 33/33 34/34 35/35
f 33/33 35/35 36/36
f 37/37 38/38 39/39
f 37/37 39/39 40/40
f 41/41 42/42 43/43
f 41/41 43/43 44/44
f 45/45 46/46 47/47
f 45/45 47/47 48/48
f 49/49 50/50 51/51
f 49/49 51/51 52/52
f 53/53 54/54 55/55
f 53/53 55/55 56/56
f 57/57 58/58 59/59
f 57/57 59/59 60/60
f 61/61 62/62 63/63
f 61/61 63/63 64/64
f 65/65 66/66 67/67
f 65/65 67/67 68/68
f 69/69 70/70 71/71
f 69/69 71/71 72/72
