mtllib ../../Materials/project_oen.mtl
o en-018_storage_corner_set__poles
v 0.314378 -0.074245 0.000000
v 0.309520 -0.086899 0.028146
v -0.773433 0.328808 0.028146
v -0.768575 0.341462 0.000000
v 0.309520 -0.086899 0.028146
v 0.298606 -0.115332 0.035097
v -0.784347 0.300375 0.035097
v -0.773433 0.328808 0.028146
v 0.298606 -0.115332 0.035097
v 0.289853 -0.138134 0.015620
v -0.793100 0.277573 0.015620
v -0.784347 0.300375 0.035097
v 0.289853 -0.138134 0.015620
v 0.289853 -0.138134 -0.015620
v -0.793100 0.277573 -0.015620
v -0.793100 0.277573 0.015620
v 0.289853 -0.138134 -0.015620
v 0.298606 -0.115332 -0.035097
v -0.784347 0.300375 -0.035097
v -0.793100 0.277573 -0.015620
v 0.298606 -0.115332 -0.035097
v 0.309520 -0.086899 -0.028146
v -0.773433 0.328808 -0.028146
v -0.784347 0.300375 -0.035097
v 0.309520 -0.086899 -0.028146
v 0.314378 -0.074245 0.000000
v -0.768575 0.341462 0.000000
v -0.773433 0.328808 -0.028146
v 0.301477 -0.107853 0.000000
v 0.309520 -0.086899 0.028146
v 0.314378 -0.074245 0.000000
v -0.781477 0.307853 0.000000
v -0.768575 0.341462 0.000000
v -0.773433 0.328808 0.028146
v 0.301477 -0.107853 0.000000
v 0.298606 -0.115332 0.035097
v 0.309520 -0.086899 0.028146
v -0.781477 0.307853 0.000000
v -0.773433 0.328808 0.028146
v -0.784347 0.300375 0.035097
v 0.301477 -0.107853 0.000000
v 0.289853 -0.138134 0.015620
v 0.298606 -0.115332 0.035097
v -0.781477 0.307853 0.000000
v -0.784347 0.300375 0.035097
v -0.793100 0.277573 0.015620
v 0.301477 -0.107853 0.000000
v 0.289853 -0.138134 -0.015620
v 0.289853 -0.138134 0.015620
v -0.781477 0.307853 0.000000
v -0.793100 0.277573 0.015620
v -0.793100 0.277573 -0.015620
v 0.301477 -0.107853 0.000000
v 0.298606 -0.115332 -0.035097
v 0.289853 -0.138134 -0.015620
v -0.781477 0.307853 0.000000
v -0.793100 0.277573 -0.015620
v -0.784347 0.300375 -0.035097
v 0.301477 -0.107853 0.000000
v 0.309520 -0.086899 -0.028146
v 0.298606 -0.115332 -0.035097
v -0.781477 0.307853 0.000000
v -0.784347 0.300375 -0.035097
v -0.773433 0.328808 -0.028146
v 0.301477 -0.107853 0.000000
v 0.314378 -0.074245 0.000000
v 0.309520 -0.086899 -0.028146
v -0.781477 0.307853 0.000000
v -0.773433 0.328808 -0.028146
v -0.768575 0.341462 0.000000
v 0.402737 -0.044992 0.025244
v 0.398549 -0.057883 0.053390
v -0.704677 0.300577 0.053390
v -0.700488 0.313468 0.025244
v 0.398549 -0.057883 0.053390
v 0.389137 -0.086849 0.060342
v -0.714088 0.271611 0.060342
v -0.704677 0.300577 0.053390
v 0.389137 -0.086849 0.060342
v 0.381590 -0.110077 0.040864
v -0.721636 0.248382 0.040864
v -0.714088 0.271611 0.060342
v 0.381590 -0.110077 0.040864
v 0.381590 -0.110077 0.009624
v -0.721636 0.248382 0.009624
v -0.721636 0.248382 0.040864
v 0.381590 -0.110077 0.009624
v 0.389137 -0.086849 -0.009853
v -0.714088 0.271611 -0.009853
v -0.721636 0.248382 0.009624
v 0.389137 -0.086849 -0.009853
v 0.398549 -0.057883 -0.002902
v -0.704677 0.300577 -0.002902
v -0.714088 0.271611 -0.009853
v 0.398549 -0.057883 -0.002902
v 0.402737 -0.044992 0.025244
v -0.700488 0.313468 0.025244
v -0.704677 0.300577 -0.002902
v 0.391613 -0.079230 0.025244
v 0.398549 -0.057883 0.053390
v 0.402737 -0.044992 0.025244
v -0.711613 0.279230 0.025244
v -0.700488 0.313468 0.025244
v -0.704677 0.300577 0.053390
v 0.391613 -0.079230 0.025244
v 0.389137 -0.086849 0.060342
v 0.398549 -0.057883 0.053390
v -0.711613 0.279230 0.025244
v -0.704677 0.300577 0.053390
v -0.714088 0.271611 0.060342
v 0.391613 -0.079230 0.025244
v 0.381590 -0.110077 0.040864
v 0.389137 -0.086849 0.060342
v -0.711613 0.279230 0.025244
v -0.714088 0.271611 0.060342
v -0.721636 0.248382 0.040864
v 0.391613 -0.079230 0.025244
v 0.381590 -0.110077 0.009624
v 0.381590 -0.110077 0.040864
v -0.711613 0.279230 0.025244
v -0.721636 0.248382 0.040864
v -0.721636 0.248382 0.009624
v 0.391613 -0.079230 0.025244
v 0.389137 -0.086849 -0.009853
v 0.381590 -0.110077 0.009624
v -0.711613 0.279230 0.025244
v -0.721636 0.248382 0.009624
v -0.714088 0.271611 -0.009853
v 0.391613 -0.079230 0.025244
v 0.398549 -0.057883 -0.002902
v 0.389137 -0.086849 -0.009853
v -0.711613 0.279230 0.025244
v -0.714088 0.271611 -0.009853
v -0.704677 0.300577 -0.002902
v 0.391613 -0.079230 0.025244
v 0.402737 -0.044992 0.025244
v 0.398549 -0.057883 -0.002902
v -0.711613 0.279230 0.025244
v -0.704677 0.300577 -0.002902
v -0.700488 0.313468 0.025244
v 0.489554 -0.015342 0.027279
v 0.486046 -0.028434 0.055425
v -0.634428 0.271796 0.055425
v -0.630919 0.284888 0.027279
v 0.486046 -0.028434 0.055425
v 0.478164 -0.057853 0.062376
v -0.642310 0.242377 0.062376
v -0.634428 0.271796 0.055425
v 0.478164 -0.057853 0.062376
v 0.471842 -0.081445 0.042899
v -0.648632 0.218785 0.042899
v -0.642310 0.242377 0.062376
v 0.471842 -0.081445 0.042899
v 0.471842 -0.081445 0.011659
v -0.648632 0.218785 0.011659
v -0.648632 0.218785 0.042899
v 0.471842 -0.081445 0.011659
v 0.478164 -0.057853 -0.007818
v -0.642310 0.242377 -0.007818
v -0.648632 0.218785 0.011659
v 0.478164 -0.057853 -0.007818
v 0.486046 -0.028434 -0.000867
v -0.634428 0.271796 -0.000867
v -0.642310 0.242377 -0.007818
v 0.486046 -0.028434 -0.000867
v 0.489554 -0.015342 0.027279
v -0.630919 0.284888 0.027279
v -0.634428 0.271796 -0.000867
v 0.480237 -0.050115 0.027279
v 0.486046 -0.028434 0.055425
v 0.489554 -0.015342 0.027279
v -0.640237 0.250115 0.027279
v -0.630919 0.284888 0.027279
v -0.634428 0.271796 0.055425
v 0.480237 -0.050115 0.027279
v 0.478164 -0.057853 0.062376
v 0.486046 -0.028434 0.055425
v -0.640237 0.250115 0.027279
v -0.634428 0.271796 0.055425
v -0.642310 0.242377 0.062376
v 0.480237 -0.050115 0.027279
v 0.471842 -0.081445 0.042899
v 0.478164 -0.057853 0.062376
v -0.640237 0.250115 0.027279
v -0.642310 0.242377 0.062376
v -0.648632 0.218785 0.042899
v 0.480237 -0.050115 0.027279
v 0.471842 -0.081445 0.011659
v 0.471842 -0.081445 0.042899
v -0.640237 0.250115 0.027279
v -0.648632 0.218785 0.042899
v -0.648632 0.218785 0.011659
v 0.480237 -0.050115 0.027279
v 0.478164 -0.057853 -0.007818
v 0.471842 -0.081445 0.011659
v -0.640237 0.250115 0.027279
v -0.648632 0.218785 0.011659
v -0.642310 0.242377 -0.007818
v 0.480237 -0.050115 0.027279
v 0.486046 -0.028434 -0.000867
v 0.478164 -0.057853 -0.007818
v -0.640237 0.250115 0.027279
v -0.642310 0.242377 -0.007818
v -0.634428 0.271796 -0.000867
v 0.480237 -0.050115 0.027279
v 0.489554 -0.015342 0.027279
v 0.486046 -0.028434 -0.000867
v -0.640237 0.250115 0.027279
v -0.634428 0.271796 -0.000867
v -0.630919 0.284888 0.027279
v 0.574810 0.014625 0.004234
v 0.571992 0.001366 0.032380
v -0.562659 0.242544 0.032380
v -0.559841 0.255802 0.004234
v 0.571992 0.001366 0.032380
v 0.565660 -0.028424 0.039331
v -0.568991 0.212753 0.039331
v -0.562659 0.242544 0.032380
v 0.565660 -0.028424 0.039331
v 0.560582 -0.052315 0.019853
v -0.574069 0.188863 0.019853
v -0.568991 0.212753 0.039331
v 0.560582 -0.052315 0.019853
v 0.560582 -0.052315 -0.011386
v -0.574069 0.188863 -0.011386
v -0.574069 0.188863 0.019853
v 0.560582 -0.052315 -0.011386
v 0.565660 -0.028424 -0.030864
v -0.568991 0.212753 -0.030864
v -0.574069 0.188863 -0.011386
v 0.565660 -0.028424 -0.030864
v 0.571992 0.001366 -0.023912
v -0.562659 0.242544 -0.023912
v -0.568991 0.212753 -0.030864
v 0.571992 0.001366 -0.023912
v 0.574810 0.014625 0.004234
v -0.559841 0.255802 0.004234
v -0.562659 0.242544 -0.023912
v 0.567326 -0.020589 0.004234
v 0.571992 0.001366 0.032380
v 0.574810 0.014625 0.004234
v -0.567326 0.220589 0.004234
v -0.559841 0.255802 0.004234
v -0.562659 0.242544 0.032380
v 0.567326 -0.020589 0.004234
v 0.565660 -0.028424 0.039331
v 0.571992 0.001366 0.032380
v -0.567326 0.220589 0.004234
v -0.562659 0.242544 0.032380
v -0.568991 0.212753 0.039331
v 0.567326 -0.020589 0.004234
v 0.560582 -0.052315 0.019853
v 0.565660 -0.028424 0.039331
v -0.567326 0.220589 0.004234
v -0.568991 0.212753 0.039331
v -0.574069 0.188863 0.019853
v 0.567326 -0.020589 0.004234
v 0.560582 -0.052315 -0.011386
v 0.560582 -0.052315 0.019853
v -0.567326 0.220589 0.004234
v -0.574069 0.188863 0.019853
v -0.574069 0.188863 -0.011386
v 0.567326 -0.020589 0.004234
v 0.565660 -0.028424 -0.030864
v 0.560582 -0.052315 -0.011386
v -0.567326 0.220589 0.004234
v -0.574069 0.188863 -0.011386
v -0.568991 0.212753 -0.030864
v 0.567326 -0.020589 0.004234
v 0.571992 0.001366 -0.023912
v 0.565660 -0.028424 -0.030864
v -0.567326 0.220589 0.004234
v -0.568991 0.212753 -0.030864
v -0.562659 0.242544 -0.023912
v 0.567326 -0.020589 0.004234
v 0.574810 0.014625 0.004234
v 0.571992 0.001366 -0.023912
v -0.567326 0.220589 0.004234
v -0.562659 0.242544 -0.023912
v -0.559841 0.255802 0.004234
v 0.658491 0.044825 -0.022704
v 0.656371 0.031437 0.005442
v -0.489348 0.212901 0.005442
v -0.487228 0.226289 -0.022704
v 0.656371 0.031437 0.005442
v 0.651606 0.001356 0.012393
v -0.494112 0.182820 0.012393
v -0.489348 0.212901 0.005442
v 0.651606 0.001356 0.012393
v 0.647785 -0.022768 -0.007084
v -0.497933 0.158696 -0.007084
v -0.494112 0.182820 0.012393
v 0.647785 -0.022768 -0.007084
v 0.647785 -0.022768 -0.038324
v -0.497933 0.158696 -0.038324
v -0.497933 0.158696 -0.007084
v 0.647785 -0.022768 -0.038324
v 0.651606 0.001356 -0.057801
v -0.494112 0.182820 -0.057801
v -0.497933 0.158696 -0.038324
v 0.651606 0.001356 -0.057801
v 0.656371 0.031437 -0.050850
v -0.489348 0.212901 -0.050850
v -0.494112 0.182820 -0.057801
v 0.656371 0.031437 -0.050850
v 0.658491 0.044825 -0.022704
v -0.487228 0.226289 -0.022704
v -0.489348 0.212901 -0.050850
v 0.652859 0.009268 -0.022704
v 0.656371 0.031437 0.005442
v 0.658491 0.044825 -0.022704
v -0.492859 0.190732 -0.022704
v -0.487228 0.226289 -0.022704
v -0.489348 0.212901 0.005442
v 0.652859 0.009268 -0.022704
v 0.651606 0.001356 0.012393
v 0.656371 0.031437 0.005442
v -0.492859 0.190732 -0.022704
v -0.489348 0.212901 0.005442
v -0.494112 0.182820 0.012393
v 0.652859 0.009268 -0.022704
v 0.647785 -0.022768 -0.007084
v 0.651606 0.001356 0.012393
v -0.492859 0.190732 -0.022704
v -0.494112 0.182820 0.012393
v -0.497933 0.158696 -0.007084
v 0.652859 0.009268 -0.022704
v 0.647785 -0.022768 -0.038324
v 0.647785 -0.022768 -0.007084
v -0.492859 0.190732 -0.022704
v -0.497933 0.158696 -0.007084
v -0.497933 0.158696 -0.038324
v 0.652859 0.009268 -0.022704
v 0.651606 0.001356 -0.057801
v 0.647785 -0.022768 -0.038324
v -0.492859 0.190732 -0.022704
v -0.497933 0.158696 -0.038324
v -0.494112 0.182820 -0.057801
v 0.652859 0.009268 -0.022704
v 0.656371 0.031437 -0.050850
v 0.651606 0.001356 -0.057801
v -0.492859 0.190732 -0.022704
v -0.494112 0.182820 -0.057801
v -0.489348 0.212901 -0.050850
v 0.652859 0.009268 -0.022704
v 0.658491 0.044825 -0.022704
v 0.656371 0.031437 -0.050850
v -0.492859 0.190732 -0.022704
v -0.489348 0.212901 -0.050850
v -0.487228 0.226289 -0.022704
v 0.740586 0.075176 -0.028768
v 0.739169 0.061696 -0.000622
v -0.414476 0.182949 -0.000622
v -0.413060 0.196429 -0.028768
v 0.739169 0.061696 -0.000622
v 0.735985 0.031407 0.006330
v -0.417660 0.152660 0.006330
v -0.414476 0.182949 -0.000622
v 0.735985 0.031407 0.006330
v 0.733432 0.007116 -0.013148
v -0.420213 0.128369 -0.013148
v -0.417660 0.152660 0.006330
v 0.733432 0.007116 -0.013148
v 0.733432 0.007116 -0.044388
v -0.420213 0.128369 -0.044388
v -0.420213 0.128369 -0.013148
v 0.733432 0.007116 -0.044388
v 0.735985 0.031407 -0.063865
v -0.417660 0.152660 -0.063865
v -0.420213 0.128369 -0.044388
v 0.735985 0.031407 -0.063865
v 0.739169 0.061696 -0.056914
v -0.414476 0.182949 -0.056914
v -0.417660 0.152660 -0.063865
v 0.739169 0.061696 -0.056914
v 0.740586 0.075176 -0.028768
v -0.413060 0.196429 -0.028768
v -0.414476 0.182949 -0.056914
v 0.736823 0.039373 -0.028768
v 0.739169 0.061696 -0.000622
v 0.740586 0.075176 -0.028768
v -0.416823 0.160627 -0.028768
v -0.413060 0.196429 -0.028768
v -0.414476 0.182949 -0.000622
v 0.736823 0.039373 -0.028768
v 0.735985 0.031407 0.006330
v 0.739169 0.061696 -0.000622
v -0.416823 0.160627 -0.028768
v -0.414476 0.182949 -0.000622
v -0.417660 0.152660 0.006330
v 0.736823 0.039373 -0.028768
v 0.733432 0.007116 -0.013148
v 0.735985 0.031407 0.006330
v -0.416823 0.160627 -0.028768
v -0.417660 0.152660 0.006330
v -0.420213 0.128369 -0.013148
v 0.736823 0.039373 -0.028768
v 0.733432 0.007116 -0.044388
v 0.733432 0.007116 -0.013148
v -0.416823 0.160627 -0.028768
v -0.420213 0.128369 -0.013148
v -0.420213 0.128369 -0.044388
v 0.736823 0.039373 -0.028768
v 0.735985 0.031407 -0.063865
v 0.733432 0.007116 -0.044388
v -0.416823 0.160627 -0.028768
v -0.420213 0.128369 -0.044388
v -0.417660 0.152660 -0.063865
v 0.736823 0.039373 -0.028768
v 0.739169 0.061696 -0.056914
v 0.735985 0.031407 -0.063865
v -0.416823 0.160627 -0.028768
v -0.417660 0.152660 -0.063865
v -0.414476 0.182949 -0.056914
v 0.736823 0.039373 -0.028768
v 0.740586 0.075176 -0.028768
v 0.739169 0.061696 -0.056914
v -0.416823 0.160627 -0.028768
v -0.414476 0.182949 -0.056914
v -0.413060 0.196429 -0.028768
v 0.821089 0.105596 -0.008382
v 0.820380 0.092060 0.019763
v -0.338030 0.152770 0.019763
v -0.337321 0.166306 -0.008382
v 0.820380 0.092060 0.019763
v 0.818786 0.061645 0.026715
v -0.339624 0.122355 0.026715
v -0.338030 0.152770 0.019763
v 0.818786 0.061645 0.026715
v 0.817508 0.037255 0.007237
v -0.340903 0.097964 0.007237
v -0.339624 0.122355 0.026715
v 0.817508 0.037255 0.007237
v 0.817508 0.037255 -0.024002
v -0.340903 0.097964 -0.024002
v -0.340903 0.097964 0.007237
v 0.817508 0.037255 -0.024002
v 0.818786 0.061645 -0.043480
v -0.339624 0.122355 -0.043480
v -0.340903 0.097964 -0.024002
v 0.818786 0.061645 -0.043480
v 0.820380 0.092060 -0.036528
v -0.338030 0.152770 -0.036528
v -0.339624 0.122355 -0.043480
v 0.820380 0.092060 -0.036528
v 0.821089 0.105596 -0.008382
v -0.337321 0.166306 -0.008382
v -0.338030 0.152770 -0.036528
v 0.819205 0.069645 -0.008382
v 0.820380 0.092060 0.019763
v 0.821089 0.105596 -0.008382
v -0.339205 0.130355 -0.008382
v -0.337321 0.166306 -0.008382
v -0.338030 0.152770 0.019763
v 0.819205 0.069645 -0.008382
v 0.818786 0.061645 0.026715
v 0.820380 0.092060 0.019763
v -0.339205 0.130355 -0.008382
v -0.338030 0.152770 0.019763
v -0.339624 0.122355 0.026715
v 0.819205 0.069645 -0.008382
v 0.817508 0.037255 0.007237
v 0.818786 0.061645 0.026715
v -0.339205 0.130355 -0.008382
v -0.339624 0.122355 0.026715
v -0.340903 0.097964 0.007237
v 0.819205 0.069645 -0.008382
v 0.817508 0.037255 -0.024002
v 0.817508 0.037255 0.007237
v -0.339205 0.130355 -0.008382
v -0.340903 0.097964 0.007237
v -0.340903 0.097964 -0.024002
v 0.819205 0.069645 -0.008382
v 0.818786 0.061645 -0.043480
v 0.817508 0.037255 -0.024002
v -0.339205 0.130355 -0.008382
v -0.340903 0.097964 -0.024002
v -0.339624 0.122355 -0.043480
v 0.819205 0.069645 -0.008382
v 0.820380 0.092060 -0.036528
v 0.818786 0.061645 -0.043480
v -0.339205 0.130355 -0.008382
v -0.339624 0.122355 -0.043480
v -0.338030 0.152770 -0.036528
v 0.819205 0.069645 -0.008382
v 0.821089 0.105596 -0.008382
v 0.820380 0.092060 -0.036528
v -0.339205 0.130355 -0.008382
v -0.338030 0.152770 -0.036528
v -0.337321 0.166306 -0.008382
v 0.134000 0.180000 0.000000
v 0.120730 0.121860 0.000000
v 0.112014 0.126057 0.013315
v 0.124326 0.180000 0.013315
v 0.124326 0.180000 0.013315
v 0.112014 0.126057 0.013315
v 0.097912 0.132848 0.008229
v 0.108674 0.180000 0.008229
v 0.108674 0.180000 0.008229
v 0.097912 0.132848 0.008229
v 0.097912 0.132848 -0.008229
v 0.108674 0.180000 -0.008229
v 0.108674 0.180000 -0.008229
v 0.097912 0.132848 -0.008229
v 0.112014 0.126057 -0.013315
v 0.124326 0.180000 -0.013315
v 0.124326 0.180000 -0.013315
v 0.112014 0.126057 -0.013315
v 0.120730 0.121860 0.000000
v 0.134000 0.180000 0.000000
v 0.120730 0.121860 0.000000
v 0.083548 0.075235 0.000000
v 0.077516 0.082798 0.013315
v 0.112014 0.126057 0.013315
v 0.112014 0.126057 0.013315
v 0.077516 0.082798 0.013315
v 0.067757 0.095035 0.008229
v 0.097912 0.132848 0.008229
v 0.097912 0.132848 0.008229
v 0.067757 0.095035 0.008229
v 0.067757 0.095035 -0.008229
v 0.097912 0.132848 -0.008229
v 0.097912 0.132848 -0.008229
v 0.067757 0.095035 -0.008229
v 0.077516 0.082798 -0.013315
v 0.112014 0.126057 -0.013315
v 0.112014 0.126057 -0.013315
v 0.077516 0.082798 -0.013315
v 0.083548 0.075235 0.000000
v 0.120730 0.121860 0.000000
v 0.083548 0.075235 0.000000
v 0.029818 0.049360 0.000000
v 0.027665 0.058791 0.013315
v 0.077516 0.082798 0.013315
v 0.077516 0.082798 0.013315
v 0.027665 0.058791 0.013315
v 0.024182 0.074051 0.008229
v 0.067757 0.095035 0.008229
v 0.067757 0.095035 0.008229
v 0.024182 0.074051 0.008229
v 0.024182 0.074051 -0.008229
v 0.067757 0.095035 -0.008229
v 0.067757 0.095035 -0.008229
v 0.024182 0.074051 -0.008229
v 0.027665 0.058791 -0.013315
v 0.077516 0.082798 -0.013315
v 0.077516 0.082798 -0.013315
v 0.027665 0.058791 -0.013315
v 0.029818 0.049360 0.000000
v 0.083548 0.075235 0.000000
v 0.029818 0.049360 0.000000
v -0.029818 0.049360 0.000000
v -0.027665 0.058791 0.013315
v 0.027665 0.058791 0.013315
v 0.027665 0.058791 0.013315
v -0.027665 0.058791 0.013315
v -0.024182 0.074051 0.008229
v 0.024182 0.074051 0.008229
v 0.024182 0.074051 0.008229
v -0.024182 0.074051 0.008229
v -0.024182 0.074051 -0.008229
v 0.024182 0.074051 -0.008229
v 0.024182 0.074051 -0.008229
v -0.024182 0.074051 -0.008229
v -0.027665 0.058791 -0.013315
v 0.027665 0.058791 -0.013315
v 0.027665 0.058791 -0.013315
v -0.027665 0.058791 -0.013315
v -0.029818 0.049360 0.000000
v 0.029818 0.049360 0.000000
v -0.029818 0.049360 0.000000
v -0.083548 0.075235 0.000000
v -0.077516 0.082798 0.013315
v -0.027665 0.058791 0.013315
v -0.027665 0.058791 0.013315
v -0.077516 0.082798 0.013315
v -0.067757 0.095035 0.008229
v -0.024182 0.074051 0.008229
v -0.024182 0.074051 0.008229
v -0.067757 0.095035 0.008229
v -0.067757 0.095035 -0.008229
v -0.024182 0.074051 -0.008229
v -0.024182 0.074051 -0.008229
v -0.067757 0.095035 -0.008229
v -0.077516 0.082798 -0.013315
v -0.027665 0.058791 -0.013315
v -0.027665 0.058791 -0.013315
v -0.077516 0.082798 -0.013315
v -0.083548 0.075235 0.000000
v -0.029818 0.049360 0.000000
v -0.083548 0.075235 0.000000
v -0.120730 0.121860 0.000000
v -0.112014 0.126057 0.013315
v -0.077516 0.082798 0.013315
v -0.077516 0.082798 0.013315
v -0.112014 0.126057 0.013315
v -0.097912 0.132848 0.008229
v -0.067757 0.095035 0.008229
v -0.067757 0.095035 0.008229
v -0.097912 0.132848 0.008229
v -0.097912 0.132848 -0.008229
v -0.067757 0.095035 -0.008229
v -0.067757 0.095035 -0.008229
v -0.097912 0.132848 -0.008229
v -0.112014 0.126057 -0.013315
v -0.077516 0.082798 -0.013315
v -0.077516 0.082798 -0.013315
v -0.112014 0.126057 -0.013315
v -0.120730 0.121860 0.000000
v -0.083548 0.075235 0.000000
v -0.120730 0.121860 0.000000
v -0.134000 0.180000 0.000000
v -0.124326 0.180000 0.013315
v -0.112014 0.126057 0.013315
v -0.112014 0.126057 0.013315
v -0.124326 0.180000 0.013315
v -0.108674 0.180000 0.008229
v -0.097912 0.132848 0.008229
v -0.097912 0.132848 0.008229
v -0.108674 0.180000 0.008229
v -0.108674 0.180000 -0.008229
v -0.097912 0.132848 -0.008229
v -0.097912 0.132848 -0.008229
v -0.108674 0.180000 -0.008229
v -0.124326 0.180000 -0.013315
v -0.112014 0.126057 -0.013315
v -0.112014 0.126057 -0.013315
v -0.124326 0.180000 -0.013315
v -0.134000 0.180000 0.000000
v -0.120730 0.121860 0.000000
v -0.134000 0.180000 0.000000
v -0.120730 0.238140 -0.000000
v -0.112014 0.233943 0.013315
v -0.124326 0.180000 0.013315
v -0.124326 0.180000 0.013315
v -0.112014 0.233943 0.013315
v -0.097912 0.227152 0.008229
v -0.108674 0.180000 0.008229
v -0.108674 0.180000 0.008229
v -0.097912 0.227152 0.008229
v -0.097912 0.227152 -0.008229
v -0.108674 0.180000 -0.008229
v -0.108674 0.180000 -0.008229
v -0.097912 0.227152 -0.008229
v -0.112014 0.233943 -0.013315
v -0.124326 0.180000 -0.013315
v -0.124326 0.180000 -0.013315
v -0.112014 0.233943 -0.013315
v -0.120730 0.238140 -0.000000
v -0.134000 0.180000 0.000000
v -0.120730 0.238140 -0.000000
v -0.083548 0.284765 -0.000000
v -0.077516 0.277202 0.013315
v -0.112014 0.233943 0.013315
v -0.112014 0.233943 0.013315
v -0.077516 0.277202 0.013315
v -0.067757 0.264965 0.008229
v -0.097912 0.227152 0.008229
v -0.097912 0.227152 0.008229
v -0.067757 0.264965 0.008229
v -0.067757 0.264965 -0.008229
v -0.097912 0.227152 -0.008229
v -0.097912 0.227152 -0.008229
v -0.067757 0.264965 -0.008229
v -0.077516 0.277202 -0.013315
v -0.112014 0.233943 -0.013315
v -0.112014 0.233943 -0.013315
v -0.077516 0.277202 -0.013315
v -0.083548 0.284765 -0.000000
v -0.120730 0.238140 -0.000000
v -0.083548 0.284765 -0.000000
v -0.029818 0.310640 -0.000000
v -0.027665 0.301209 0.013315
v -0.077516 0.277202 0.013315
v -0.077516 0.277202 0.013315
v -0.027665 0.301209 0.013315
v -0.024182 0.285949 0.008229
v -0.067757 0.264965 0.008229
v -0.067757 0.264965 0.008229
v -0.024182 0.285949 0.008229
v -0.024182 0.285949 -0.008229
v -0.067757 0.264965 -0.008229
v -0.067757 0.264965 -0.008229
v -0.024182 0.285949 -0.008229
v -0.027665 0.301209 -0.013315
v -0.077516 0.277202 -0.013315
v -0.077516 0.277202 -0.013315
v -0.027665 0.301209 -0.013315
v -0.029818 0.310640 -0.000000
v -0.083548 0.284765 -0.000000
v -0.029818 0.310640 -0.000000
v 0.029818 0.310640 -0.000000
v 0.027665 0.301209 0.013315
v -0.027665 0.301209 0.013315
v -0.027665 0.301209 0.013315
v 0.027665 0.301209 0.013315
v 0.024182 0.285949 0.008229
v -0.024182 0.285949 0.008229
v -0.024182 0.285949 0.008229
v 0.024182 0.285949 0.008229
v 0.024182 0.285949 -0.008229
v -0.024182 0.285949 -0.008229
v -0.024182 0.285949 -0.008229
v 0.024182 0.285949 -0.008229
v 0.027665 0.301209 -0.013315
v -0.027665 0.301209 -0.013315
v -0.027665 0.301209 -0.013315
v 0.027665 0.301209 -0.013315
v 0.029818 0.310640 -0.000000
v -0.029818 0.310640 -0.000000
v 0.029818 0.310640 -0.000000
v 0.083548 0.284765 -0.000000
v 0.077516 0.277202 0.013315
v 0.027665 0.301209 0.013315
v 0.027665 0.301209 0.013315
v 0.077516 0.277202 0.013315
v 0.067757 0.264965 0.008229
v 0.024182 0.285949 0.008229
v 0.024182 0.285949 0.008229
v 0.067757 0.264965 0.008229
v 0.067757 0.264965 -0.008229
v 0.024182 0.285949 -0.008229
v 0.024182 0.285949 -0.008229
v 0.067757 0.264965 -0.008229
v 0.077516 0.277202 -0.013315
v 0.027665 0.301209 -0.013315
v 0.027665 0.301209 -0.013315
v 0.077516 0.277202 -0.013315
v 0.083548 0.284765 -0.000000
v 0.029818 0.310640 -0.000000
v 0.083548 0.284765 -0.000000
v 0.120730 0.238140 -0.000000
v 0.112014 0.233943 0.013315
v 0.077516 0.277202 0.013315
v 0.077516 0.277202 0.013315
v 0.112014 0.233943 0.013315
v 0.097912 0.227152 0.008229
v 0.067757 0.264965 0.008229
v 0.067757 0.264965 0.008229
v 0.097912 0.227152 0.008229
v 0.097912 0.227152 -0.008229
v 0.067757 0.264965 -0.008229
v 0.067757 0.264965 -0.008229
v 0.097912 0.227152 -0.008229
v 0.112014 0.233943 -0.013315
v 0.077516 0.277202 -0.013315
v 0.077516 0.277202 -0.013315
v 0.112014 0.233943 -0.013315
v 0.120730 0.238140 -0.000000
v 0.083548 0.284765 -0.000000
v 0.120730 0.238140 -0.000000
v 0.134000 0.180000 0.000000
v 0.124326 0.180000 0.013315
v 0.112014 0.233943 0.013315
v 0.112014 0.233943 0.013315
v 0.124326 0.180000 0.013315
v 0.108674 0.180000 0.008229
v 0.097912 0.227152 0.008229
v 0.097912 0.227152 0.008229
v 0.108674 0.180000 0.008229
v 0.108674 0.180000 -0.008229
v 0.097912 0.227152 -0.008229
v 0.097912 0.227152 -0.008229
v 0.108674 0.180000 -0.008229
v 0.124326 0.180000 -0.013315
v 0.112014 0.233943 -0.013315
v 0.112014 0.233943 -0.013315
v 0.124326 0.180000 -0.013315
v 0.134000 0.180000 0.000000
v 0.120730 0.238140 -0.000000
vt 0.000000 0.000000
vt 1.000000 0.000000
vt 1.000000 1.000000
vt 0.000000 1.000000
vt 0.000000 0.000000
vt 1.000000 0.000000
vt 1.000000 1.000000
vt 0.000000 1.000000
vt 0.000000 0.000000
vt 1.000000 0.000000
vt 1.000000 1.000000
vt 0.000000 1.000000
vt 0.000000 0.000000
vt 1.000000 0.000000
vt 1.000000 1.000000
vt 0.000000 1.000000
vt 0.000000 0.000000
vt 1.000000 0.000000
vt 1.000000 1.000000
vt 0.000000 1.000000
vt 0.000000 0.000000
vt 1.000000 0.000000
vt 1.000000 1.000000
vt 0.000000 1.000000
vt 0.000000 0.000000
vt 1.000000 0.000000
vt 1.000000 1.000000
vt 0.000000 1.000000
vt 0.500000 0.500000
vt 0.000000 0.000000
vt 1.000000 0.000000
vt 0.500000 0.500000
vt 0.000000 1.000000
vt 1.000000 1.000000
vt 0.500000 0.500000
vt 0.000000 0.000000
vt 1.000000 0.000000
vt 0.500000 0.500000
vt 0.000000 1.000000
vt 1.000000 1.000000
vt 0.500000 0.500000
vt 0.000000 0.000000
vt 1.000000 0.000000
vt 0.500000 0.500000
vt 0.000000 1.000000
vt 1.000000 1.000000
vt 0.500000 0.500000
vt 0.000000 0.000000
vt 1.000000 0.000000
vt 0.500000 0.500000
vt 0.000000 1.000000
vt 1.000000 1.000000
vt 0.500000 0.500000
vt 0.000000 0.000000
vt 1.000000 0.000000
vt 0.500000 0.500000
vt 0.000000 1.000000
vt 1.000000 1.000000
vt 0.500000 0.500000
vt 0.000000 0.000000
vt 1.000000 0.000000
vt 0.500000 0.500000
vt 0.000000 1.000000
vt 1.000000 1.000000
vt 0.500000 0.500000
vt 0.000000 0.000000
vt 1.000000 0.000000
vt 0.500000 0.500000
vt 0.000000 1.000000
vt 1.000000 1.000000
vt 0.000000 0.000000
vt 1.000000 0.000000
vt 1.000000 1.000000
vt 0.000000 1.000000
vt 0.000000 0.000000
vt 1.000000 0.000000
vt 1.000000 1.000000
vt 0.000000 1.000000
vt 0.000000 0.000000
vt 1.000000 0.000000
vt 1.000000 1.000000
vt 0.000000 1.000000
vt 0.000000 0.000000
vt 1.000000 0.000000
vt 1.000000 1.000000
vt 0.000000 1.000000
vt 0.000000 0.000000
vt 1.000000 0.000000
vt 1.000000 1.000000
vt 0.000000 1.000000
vt 0.000000 0.000000
vt 1.000000 0.000000
vt 1.000000 1.000000
vt 0.000000 1.000000
vt 0.000000 0.000000
vt 1.000000 0.000000
vt 1.000000 1.000000
vt 0.000000 1.000000
vt 0.500000 0.500000
vt 0.000000 0.000000
vt 1.000000 0.000000
vt 0.500000 0.500000
vt 0.000000 1.000000
vt 1.000000 1.000000
vt 0.500000 0.500000
vt 0.000000 0.000000
vt 1.000000 0.000000
vt 0.500000 0.500000
vt 0.000000 1.000000
vt 1.000000 1.000000
vt 0.500000 0.500000
vt 0.000000 0.000000
vt 1.000000 0.000000
vt 0.500000 0.500000
vt 0.000000 1.000000
vt 1.000000 1.000000
vt 0.500000 0.500000
vt 0.000000 0.000000
vt 1.000000 0.000000
vt 0.500000 0.500000
vt 0.000000 1.000000
vt 1.000000 1.000000
vt 0.500000 0.500000
vt 0.000000 0.000000
vt 1.000000 0.000000
vt 0.500000 0.500000
vt 0.000000 1.000000
vt 1.000000 1.000000
vt 0.500000 0.500000
vt 0.000000 0.000000
vt 1.000000 0.000000
vt 0.500000 0.500000
vt 0.000000 1.000000
vt 1.000000 1.000000
vt 0.500000 0.500000
vt 0.000000 0.000000
vt 1.000000 0.000000
vt 0.500000 0.500000
vt 0.000000 1.000000
vt 1.000000 1.000000
vt 0.000000 0.000000
vt 1.000000 0.000000
vt 1.000000 1.000000
vt 0.000000 1.000000
vt 0.000000 0.000000
vt 1.000000 0.000000
vt 1.000000 1.000000
vt 0.000000 1.000000
vt 0.000000 0.000000
vt 1.000000 0.000000
vt 1.000000 1.000000
vt 0.000000 1.000000
vt 0.000000 0.000000
vt 1.000000 0.000000
vt 1.000000 1.000000
vt 0.000000 1.000000
vt 0.000000 0.000000
vt 1.000000 0.000000
vt 1.000000 1.000000
vt 0.000000 1.000000
vt 0.000000 0.000000
vt 1.000000 0.000000
vt 1.000000 1.000000
vt 0.000000 1.000000
vt 0.000000 0.000000
vt 1.000000 0.000000
vt 1.000000 1.000000
vt 0.000000 1.000000
vt 0.500000 0.500000
vt 0.000000 0.000000
vt 1.000000 0.000000
vt 0.500000 0.500000
vt 0.000000 1.000000
vt 1.000000 1.000000
vt 0.500000 0.500000
vt 0.000000 0.000000
vt 1.000000 0.000000
vt 0.500000 0.500000
vt 0.000000 1.000000
vt 1.000000 1.000000
vt 0.500000 0.500000
vt 0.000000 0.000000
vt 1.000000 0.000000
vt 0.500000 0.500000
vt 0.000000 1.000000
vt 1.000000 1.000000
vt 0.500000 0.500000
vt 0.000000 0.000000
vt 1.000000 0.000000
vt 0.500000 0.500000
vt 0.000000 1.000000
vt 1.000000 1.000000
vt 0.500000 0.500000
vt 0.000000 0.000000
vt 1.000000 0.000000
vt 0.500000 0.500000
vt 0.000000 1.000000
vt 1.000000 1.000000
vt 0.500000 0.500000
vt 0.000000 0.000000
vt 1.000000 0.000000
vt 0.500000 0.500000
vt 0.000000 1.000000
vt 1.000000 1.000000
vt 0.500000 0.500000
vt 0.000000 0.000000
vt 1.000000 0.000000
vt 0.500000 0.500000
vt 0.000000 1.000000
vt 1.000000 1.000000
vt 0.000000 0.000000
vt 1.000000 0.000000
vt 1.000000 1.000000
vt 0.000000 1.000000
vt 0.000000 0.000000
vt 1.000000 0.000000
vt 1.000000 1.000000
vt 0.000000 1.000000
vt 0.000000 0.000000
vt 1.000000 0.000000
vt 1.000000 1.000000
vt 0.000000 1.000000
vt 0.000000 0.000000
vt 1.000000 0.000000
vt 1.000000 1.000000
vt 0.000000 1.000000
vt 0.000000 0.000000
vt 1.000000 0.000000
vt 1.000000 1.000000
vt 0.000000 1.000000
vt 0.000000 0.000000
vt 1.000000 0.000000
vt 1.000000 1.000000
vt 0.000000 1.000000
vt 0.000000 0.000000
vt 1.000000 0.000000
vt 1.000000 1.000000
vt 0.000000 1.000000
vt 0.500000 0.500000
vt 0.000000 0.000000
vt 1.000000 0.000000
vt 0.500000 0.500000
vt 0.000000 1.000000
vt 1.000000 1.000000
vt 0.500000 0.500000
vt 0.000000 0.000000
vt 1.000000 0.000000
vt 0.500000 0.500000
vt 0.000000 1.000000
vt 1.000000 1.000000
vt 0.500000 0.500000
vt 0.000000 0.000000
vt 1.000000 0.000000
vt 0.500000 0.500000
vt 0.000000 1.000000
vt 1.000000 1.000000
vt 0.500000 0.500000
vt 0.000000 0.000000
vt 1.000000 0.000000
vt 0.500000 0.500000
vt 0.000000 1.000000
vt 1.000000 1.000000
vt 0.500000 0.500000
vt 0.000000 0.000000
vt 1.000000 0.000000
vt 0.500000 0.500000
vt 0.000000 1.000000
vt 1.000000 1.000000
vt 0.500000 0.500000
vt 0.000000 0.000000
vt 1.000000 0.000000
vt 0.500000 0.500000
vt 0.000000 1.000000
vt 1.000000 1.000000
vt 0.500000 0.500000
vt 0.000000 0.000000
vt 1.000000 0.000000
vt 0.500000 0.500000
vt 0.000000 1.000000
vt 1.000000 1.000000
vt 0.000000 0.000000
vt 1.000000 0.000000
vt 1.000000 1.000000
vt 0.000000 1.000000
vt 0.000000 0.000000
vt 1.000000 0.000000
vt 1.000000 1.000000
vt 0.000000 1.000000
vt 0.000000 0.000000
vt 1.000000 0.000000
vt 1.000000 1.000000
vt 0.000000 1.000000
vt 0.000000 0.000000
vt 1.000000 0.000000
vt 1.000000 1.000000
vt 0.000000 1.000000
vt 0.000000 0.000000
vt 1.000000 0.000000
vt 1.000000 1.000000
vt 0.000000 1.000000
vt 0.000000 0.000000
vt 1.000000 0.000000
vt 1.000000 1.000000
vt 0.000000 1.000000
vt 0.000000 0.000000
vt 1.000000 0.000000
vt 1.000000 1.000000
vt 0.000000 1.000000
vt 0.500000 0.500000
vt 0.000000 0.000000
vt 1.000000 0.000000
vt 0.500000 0.500000
vt 0.000000 1.000000
vt 1.000000 1.000000
vt 0.500000 0.500000
vt 0.000000 0.000000
vt 1.000000 0.000000
vt 0.500000 0.500000
vt 0.000000 1.000000
vt 1.000000 1.000000
vt 0.500000 0.500000
vt 0.000000 0.000000
vt 1.000000 0.000000
vt 0.500000 0.500000
vt 0.000000 1.000000
vt 1.000000 1.000000
vt 0.500000 0.500000
vt 0.000000 0.000000
vt 1.000000 0.000000
vt 0.500000 0.500000
vt 0.000000 1.000000
vt 1.000000 1.000000
vt 0.500000 0.500000
vt 0.000000 0.000000
vt 1.000000 0.000000
vt 0.500000 0.500000
vt 0.000000 1.000000
vt 1.000000 1.000000
vt 0.500000 0.500000
vt 0.000000 0.000000
vt 1.000000 0.000000
vt 0.500000 0.500000
vt 0.000000 1.000000
vt 1.000000 1.000000
vt 0.500000 0.500000
vt 0.000000 0.000000
vt 1.000000 0.000000
vt 0.500000 0.500000
vt 0.000000 1.000000
vt 1.000000 1.000000
vt 0.000000 0.000000
vt 1.000000 0.000000
vt 1.000000 1.000000
vt 0.000000 1.000000
vt 0.000000 0.000000
vt 1.000000 0.000000
vt 1.000000 1.000000
vt 0.000000 1.000000
vt 0.000000 0.000000
vt 1.000000 0.000000
vt 1.000000 1.000000
vt 0.000000 1.000000
vt 0.000000 0.000000
vt 1.000000 0.000000
vt 1.000000 1.000000
vt 0.000000 1.000000
vt 0.000000 0.000000
vt 1.000000 0.000000
vt 1.000000 1.000000
vt 0.000000 1.000000
vt 0.000000 0.000000
vt 1.000000 0.000000
vt 1.000000 1.000000
vt 0.000000 1.000000
vt 0.000000 0.000000
vt 1.000000 0.000000
vt 1.000000 1.000000
vt 0.000000 1.000000
vt 0.500000 0.500000
vt 0.000000 0.000000
vt 1.000000 0.000000
vt 0.500000 0.500000
vt 0.000000 1.000000
vt 1.000000 1.000000
vt 0.500000 0.500000
vt 0.000000 0.000000
vt 1.000000 0.000000
vt 0.500000 0.500000
vt 0.000000 1.000000
vt 1.000000 1.000000
vt 0.500000 0.500000
vt 0.000000 0.000000
vt 1.000000 0.000000
vt 0.500000 0.500000
vt 0.000000 1.000000
vt 1.000000 1.000000
vt 0.500000 0.500000
vt 0.000000 0.000000
vt 1.000000 0.000000
vt 0.500000 0.500000
vt 0.000000 1.000000
vt 1.000000 1.000000
vt 0.500000 0.500000
vt 0.000000 0.000000
vt 1.000000 0.000000
vt 0.500000 0.500000
vt 0.000000 1.000000
vt 1.000000 1.000000
vt 0.500000 0.500000
vt 0.000000 0.000000
vt 1.000000 0.000000
vt 0.500000 0.500000
vt 0.000000 1.000000
vt 1.000000 1.000000
vt 0.500000 0.500000
vt 0.000000 0.000000
vt 1.000000 0.000000
vt 0.500000 0.500000
vt 0.000000 1.000000
vt 1.000000 1.000000
vt 0.000000 0.000000
vt 1.000000 0.000000
vt 1.000000 1.000000
vt 0.000000 1.000000
vt 0.000000 0.000000
vt 1.000000 0.000000
vt 1.000000 1.000000
vt 0.000000 1.000000
vt 0.000000 0.000000
vt 1.000000 0.000000
vt 1.000000 1.000000
vt 0.000000 1.000000
vt 0.000000 0.000000
vt 1.000000 0.000000
vt 1.000000 1.000000
vt 0.000000 1.000000
vt 0.000000 0.000000
vt 1.000000 0.000000
vt 1.000000 1.000000
vt 0.000000 1.000000
vt 0.000000 0.000000
vt 1.000000 0.000000
vt 1.000000 1.000000
vt 0.000000 1.000000
vt 0.000000 0.000000
vt 1.000000 0.000000
vt 1.000000 1.000000
vt 0.000000 1.000000
vt 0.500000 0.500000
vt 0.000000 0.000000
vt 1.000000 0.000000
vt 0.500000 0.500000
vt 0.000000 1.000000
vt 1.000000 1.000000
vt 0.500000 0.500000
vt 0.000000 0.000000
vt 1.000000 0.000000
vt 0.500000 0.500000
vt 0.000000 1.000000
vt 1.000000 1.000000
vt 0.500000 0.500000
vt 0.000000 0.000000
vt 1.000000 0.000000
vt 0.500000 0.500000
vt 0.000000 1.000000
vt 1.000000 1.000000
vt 0.500000 0.500000
vt 0.000000 0.000000
vt 1.000000 0.000000
vt 0.500000 0.500000
vt 0.000000 1.000000
vt 1.000000 1.000000
vt 0.500000 0.500000
vt 0.000000 0.000000
vt 1.000000 0.000000
vt 0.500000 0.500000
vt 0.000000 1.000000
vt 1.000000 1.000000
vt 0.500000 0.500000
vt 0.000000 0.000000
vt 1.000000 0.000000
vt 0.500000 0.500000
vt 0.000000 1.000000
vt 1.000000 1.000000
vt 0.500000 0.500000
vt 0.000000 0.000000
vt 1.000000 0.000000
vt 0.500000 0.500000
vt 0.000000 1.000000
vt 1.000000 1.000000
vt 0.000000 0.000000
vt 1.000000 0.000000
vt 1.000000 1.000000
vt 0.000000 1.000000
vt 0.000000 0.000000
vt 1.000000 0.000000
vt 1.000000 1.000000
vt 0.000000 1.000000
vt 0.000000 0.000000
vt 1.000000 0.000000
vt 1.000000 1.000000
vt 0.000000 1.000000
vt 0.000000 0.000000
vt 1.000000 0.000000
vt 1.000000 1.000000
vt 0.000000 1.000000
vt 0.000000 0.000000
vt 1.000000 0.000000
vt 1.000000 1.000000
vt 0.000000 1.000000
vt 0.000000 0.000000
vt 1.000000 0.000000
vt 1.000000 1.000000
vt 0.000000 1.000000
vt 0.000000 0.000000
vt 1.000000 0.000000
vt 1.000000 1.000000
vt 0.000000 1.000000
vt 0.000000 0.000000
vt 1.000000 0.000000
vt 1.000000 1.000000
vt 0.000000 1.000000
vt 0.000000 0.000000
vt 1.000000 0.000000
vt 1.000000 1.000000
vt 0.000000 1.000000
vt 0.000000 0.000000
vt 1.000000 0.000000
vt 1.000000 1.000000
vt 0.000000 1.000000
vt 0.000000 0.000000
vt 1.000000 0.000000
vt 1.000000 1.000000
vt 0.000000 1.000000
vt 0.000000 0.000000
vt 1.000000 0.000000
vt 1.000000 1.000000
vt 0.000000 1.000000
vt 0.000000 0.000000
vt 1.000000 0.000000
vt 1.000000 1.000000
vt 0.000000 1.000000
vt 0.000000 0.000000
vt 1.000000 0.000000
vt 1.000000 1.000000
vt 0.000000 1.000000
vt 0.000000 0.000000
vt 1.000000 0.000000
vt 1.000000 1.000000
vt 0.000000 1.000000
vt 0.000000 0.000000
vt 1.000000 0.000000
vt 1.000000 1.000000
vt 0.000000 1.000000
vt 0.000000 0.000000
vt 1.000000 0.000000
vt 1.000000 1.000000
vt 0.000000 1.000000
vt 0.000000 0.000000
vt 1.000000 0.000000
vt 1.000000 1.000000
vt 0.000000 1.000000
vt 0.000000 0.000000
vt 1.000000 0.000000
vt 1.000000 1.000000
vt 0.000000 1.000000
vt 0.000000 0.000000
vt 1.000000 0.000000
vt 1.000000 1.000000
vt 0.000000 1.000000
vt 0.000000 0.000000
vt 1.000000 0.000000
vt 1.000000 1.000000
vt 0.000000 1.000000
vt 0.000000 0.000000
vt 1.000000 0.000000
vt 1.000000 1.000000
vt 0.000000 1.000000
vt 0.000000 0.000000
vt 1.000000 0.000000
vt 1.000000 1.000000
vt 0.000000 1.000000
vt 0.000000 0.000000
vt 1.000000 0.000000
vt 1.000000 1.000000
vt 0.000000 1.000000
vt 0.000000 0.000000
vt 1.000000 0.000000
vt 1.000000 1.000000
vt 0.000000 1.000000
vt 0.000000 0.000000
vt 1.000000 0.000000
vt 1.000000 1.000000
vt 0.000000 1.000000
vt 0.000000 0.000000
vt 1.000000 0.000000
vt 1.000000 1.000000
vt 0.000000 1.000000
vt 0.000000 0.000000
vt 1.000000 0.000000
vt 1.000000 1.000000
vt 0.000000 1.000000
vt 0.000000 0.000000
vt 1.000000 0.000000
vt 1.000000 1.000000
vt 0.000000 1.000000
vt 0.000000 0.000000
vt 1.000000 0.000000
vt 1.000000 1.000000
vt 0.000000 1.000000
vt 0.000000 0.000000
vt 1.000000 0.000000
vt 1.000000 1.000000
vt 0.000000 1.000000
vt 0.000000 0.000000
vt 1.000000 0.000000
vt 1.000000 1.000000
vt 0.000000 1.000000
vt 0.000000 0.000000
vt 1.000000 0.000000
vt 1.000000 1.000000
vt 0.000000 1.000000
vt 0.000000 0.000000
vt 1.000000 0.000000
vt 1.000000 1.000000
vt 0.000000 1.000000
vt 0.000000 0.000000
vt 1.000000 0.000000
vt 1.000000 1.000000
vt 0.000000 1.000000
vt 0.000000 0.000000
vt 1.000000 0.000000
vt 1.000000 1.000000
vt 0.000000 1.000000
vt 0.000000 0.000000
vt 1.000000 0.000000
vt 1.000000 1.000000
vt 0.000000 1.000000
vt 0.000000 0.000000
vt 1.000000 0.000000
vt 1.000000 1.000000
vt 0.000000 1.000000
vt 0.000000 0.000000
vt 1.000000 0.000000
vt 1.000000 1.000000
vt 0.000000 1.000000
vt 0.000000 0.000000
vt 1.000000 0.000000
vt 1.000000 1.000000
vt 0.000000 1.000000
vt 0.000000 0.000000
vt 1.000000 0.000000
vt 1.000000 1.000000
vt 0.000000 1.000000
vt 0.000000 0.000000
vt 1.000000 0.000000
vt 1.000000 1.000000
vt 0.000000 1.000000
vt 0.000000 0.000000
vt 1.000000 0.000000
vt 1.000000 1.000000
vt 0.000000 1.000000
vt 0.000000 0.000000
vt 1.000000 0.000000
vt 1.000000 1.000000
vt 0.000000 1.000000
vt 0.000000 0.000000
vt 1.000000 0.000000
vt 1.000000 1.000000
vt 0.000000 1.000000
vt 0.000000 0.000000
vt 1.000000 0.000000
vt 1.000000 1.000000
vt 0.000000 1.000000
vt 0.000000 0.000000
vt 1.000000 0.000000
vt 1.000000 1.000000
vt 0.000000 1.000000
vt 0.000000 0.000000
vt 1.000000 0.000000
vt 1.000000 1.000000
vt 0.000000 1.000000
vt 0.000000 0.000000
vt 1.000000 0.000000
vt 1.000000 1.000000
vt 0.000000 1.000000
vt 0.000000 0.000000
vt 1.000000 0.000000
vt 1.000000 1.000000
vt 0.000000 1.000000
vt 0.000000 0.000000
vt 1.000000 0.000000
vt 1.000000 1.000000
vt 0.000000 1.000000
vt 0.000000 0.000000
vt 1.000000 0.000000
vt 1.000000 1.000000
vt 0.000000 1.000000
vt 0.000000 0.000000
vt 1.000000 0.000000
vt 1.000000 1.000000
vt 0.000000 1.000000
vt 0.000000 0.000000
vt 1.000000 0.000000
vt 1.000000 1.000000
vt 0.000000 1.000000
vt 0.000000 0.000000
vt 1.000000 0.000000
vt 1.000000 1.000000
vt 0.000000 1.000000
vt 0.000000 0.000000
vt 1.000000 0.000000
vt 1.000000 1.000000
vt 0.000000 1.000000
vt 0.000000 0.000000
vt 1.000000 0.000000
vt 1.000000 1.000000
vt 0.000000 1.000000
vt 0.000000 0.000000
vt 1.000000 0.000000
vt 1.000000 1.000000
vt 0.000000 1.000000
vt 0.000000 0.000000
vt 1.000000 0.000000
vt 1.000000 1.000000
vt 0.000000 1.000000
vt 0.000000 0.000000
vt 1.000000 0.000000
vt 1.000000 1.000000
vt 0.000000 1.000000
vt 0.000000 0.000000
vt 1.000000 0.000000
vt 1.000000 1.000000
vt 0.000000 1.000000
vt 0.000000 0.000000
vt 1.000000 0.000000
vt 1.000000 1.000000
vt 0.000000 1.000000
vt 0.000000 0.000000
vt 1.000000 0.000000
vt 1.000000 1.000000
vt 0.000000 1.000000
vt 0.000000 0.000000
vt 1.000000 0.000000
vt 1.000000 1.000000
vt 0.000000 1.000000
vt 0.000000 0.000000
vt 1.000000 0.000000
vt 1.000000 1.000000
vt 0.000000 1.000000
vt 0.000000 0.000000
vt 1.000000 0.000000
vt 1.000000 1.000000
vt 0.000000 1.000000
vt 0.000000 0.000000
vt 1.000000 0.000000
vt 1.000000 1.000000
vt 0.000000 1.000000
vt 0.000000 0.000000
vt 1.000000 0.000000
vt 1.000000 1.000000
vt 0.000000 1.000000
vt 0.000000 0.000000
vt 1.000000 0.000000
vt 1.000000 1.000000
vt 0.000000 1.000000
vt 0.000000 0.000000
vt 1.000000 0.000000
vt 1.000000 1.000000
vt 0.000000 1.000000
usemtl Wood
f 1/1 2/2 3/3
f 1/1 3/3 4/4
f 5/5 6/6 7/7
f 5/5 7/7 8/8
f 9/9 10/10 11/11
f 9/9 11/11 12/12
f 13/13 14/14 15/15
f 13/13 15/15 16/16
f 17/17 18/18 19/19
f 17/17 19/19 20/20
f 21/21 22/22 23/23
f 21/21 23/23 24/24
f 25/25 26/26 27/27
f 25/25 27/27 28/28
f 29/29 30/30 31/31
f 32/32 33/33 34/34
f 35/35 36/36 37/37
f 38/38 39/39 40/40
f 41/41 42/42 43/43
f 44/44 45/45 46/46
f 47/47 48/48 49/49
f 50/50 51/51 52/52
f 53/53 54/54 55/55
f 56/56 57/57 58/58
f 59/59 60/60 61/61
f 62/62 63/63 64/64
f 65/65 66/66 67/67
f 68/68 69/69 70/70
f 71/71 72/72 73/73
f 71/71 73/73 74/74
f 75/75 76/76 77/77
f 75/75 77/77 78/78
f 79/79 80/80 81/81
f 79/79 81/81 82/82
f 83/83 84/84 85/85
f 83/83 85/85 86/86
f 87/87 88/88 89/89
f 87/87 89/89 90/90
f 91/91 92/92 93/93
f 91/91 93/93 94/94
f 95/95 96/96 97/97
f 95/95 97/97 98/98
f 99/99 100/100 101/101
f 102/102 103/103 104/104
f 105/105 106/106 107/107
f 108/108 109/109 110/110
f 111/111 112/112 113/113
f 114/114 115/115 116/116
f 117/117 118/118 119/119
f 120/120 121/121 122/122
f 123/123 124/124 125/125
f 126/126 127/127 128/128
f 129/129 130/130 131/131
f 132/132 133/133 134/134
f 135/135 136/136 137/137
f 138/138 139/139 140/140
f 141/141 142/142 143/143
f 141/141 143/143 144/144
f 145/145 146/146 147/147
f 145/145 147/147 148/148
f 149/149 150/150 151/151
f 149/149 151/151 152/152
f 153/153 154/154 155/155
f 153/153 155/155 156/156
f 157/157 158/158 159/159
f 157/157 159/159 160/160
f 161/161 162/162 163/163
f 161/161 163/163 164/164
f 165/165 166/166 167/167
f 165/165 167/167 168/168
f 169/169 170/170 171/171
f 172/172 173/173 174/174
f 175/175 176/176 177/177
f 178/178 179/179 180/180
f 181/181 182/182 183/183
f 184/184 185/185 186/186
f 187/187 188/188 189/189
f 190/190 191/191 192/192
f 193/193 194/194 195/195
f 196/196 197/197 198/198
f 199/199 200/200 201/201
f 202/202 203/203 204/204
f 205/205 206/206 207/207
f 208/208 209/209 210/210
f 211/211 212/212 213/213
f 211/211 213/213 214/214
f 215/215 216/216 217/217
f 215/215 217/217 218/218
f 219/219 220/220 221/221
f 219/219 221/221 222/222
f 223/223 224/224 225/225
f 223/223 225/225 226/226
f 227/227 228/228 229/229
f 227/227 229/229 230/230
f 231/231 232/232 233/233
f 231/231 233/233 234/234
f 235/235 236/236 237/237
f 235/235 237/237 238/238
f 239/239 240/240 241/241
f 242/242 243/243 244/244
f 245/245 246/246 247/247
f 248/248 249/249 250/250
f 251/251 252/252 253/253
f 254/254 255/255 256/256
f 257/257 258/258 259/259
f 260/260 261/261 262/262
f 263/263 264/264 265/265
f 266/266 267/267 268/268
f 269/269 270/270 271/271
f 272/272 273/273 274/274
f 275/275 276/276 277/277
f 278/278 279/279 280/280
f 281/281 282/282 283/283
f 281/281 283/283 284/284
f 285/285 286/286 287/287
f 285/285 287/287 288/288
f 289/289 290/290 291/291
f 289/289 291/291 292/292
f 293/293 294/294 295/295
f 293/293 295/295 296/296
f 297/297 298/298 299/299
f 297/297 299/299 300/300
f 301/301 302/302 303/303
f 301/301 303/303 304/304
f 305/305 306/306 307/307
f 305/305 307/307 308/308
f 309/309 310/310 311/311
f 312/312 313/313 314/314
f 315/315 316/316 317/317
f 318/318 319/319 320/320
f 321/321 322/322 323/323
f 324/324 325/325 326/326
f 327/327 328/328 329/329
f 330/330 331/331 332/332
f 333/333 334/334 335/335
f 336/336 337/337 338/338
f 339/339 340/340 341/341
f 342/342 343/343 344/344
f 345/345 346/346 347/347
f 348/348 349/349 350/350
f 351/351 352/352 353/353
f 351/351 353/353 354/354
f 355/355 356/356 357/357
f 355/355 357/357 358/358
f 359/359 360/360 361/361
f 359/359 361/361 362/362
f 363/363 364/364 365/365
f 363/363 365/365 366/366
f 367/367 368/368 369/369
f 367/367 369/369 370/370
f 371/371 372/372 373/373
f 371/371 373/373 374/374
f 375/375 376/376 377/377
f 375/375 377/377 378/378
f 379/379 380/380 381/381
f 382/382 383/383 384/384
f 385/385 386/386 387/387
f 388/388 389/389 390/390
f 391/391 392/392 393/393
f 394/394 395/395 396/396
f 397/397 398/398 399/399
f 400/400 401/401 402/402
f 403/403 404/404 405/405
f 406/406 407/407 408/408
f 409/409 410/410 411/411
f 412/412 413/413 414/414
f 415/415 416/416 417/417
f 418/418 419/419 420/420
f 421/421 422/422 423/423
f 421/421 423/423 424/424
f 425/425 426/426 427/427
f 425/425 427/427 428/428
f 429/429 430/430 431/431
f 429/429 431/431 432/432
f 433/433 434/434 435/435
f 433/433 435/435 436/436
f 437/437 438/438 439/439
f 437/437 439/439 440/440
f 441/441 442/442 443/443
f 441/441 443/443 444/444
f 445/445 446/446 447/447
f 445/445 447/447 448/448
f 449/449 450/450 451/451
f 452/452 453/453 454/454
f 455/455 456/456 457/457
f 458/458 459/459 460/460
f 461/461 462/462 463/463
f 464/464 465/465 466/466
f 467/467 468/468 469/469
f 470/470 471/471 472/472
f 473/473 474/474 475/475
f 476/476 477/477 478/478
f 479/479 480/480 481/481
f 482/482 483/483 484/484
f 485/485 486/486 487/487
f 488/488 489/489 490/490
usemtl Rope
f 491/491 492/492 493/493
f 491/491 493/493 494/494
f 495/495 496/496 497/497
f 495/495 497/497 498/498
f 499/499 500/500 501/501
f 499/499 501/501 502/502
f 503/503 504/504 505/505
f 503/503 505/505 506/506
f 507/507 508/508 509/509
f 507/507 509/509 510/510
f 511/511 512/512 513/513
f 511/511 513/513 514/514
f 515/515 516/516 517/517
f 515/515 517/517 518/518
f 519/519 520/520 521/521
f 519/519 521/521 522/522
f 523/523 524/524 525/525
f 523/523 525/525 526/526
f 527/527 528/528 529/529
f 527/527 529/529 530/530
f 531/531 532/532 533/533
f 531/531 533/533 534/534
f 535/535 536/536 537/537
f 535/535 537/537 538/538
f 539/539 540/540 541/541
f 539/539 541/541 542/542
f 543/543 544/544 545/545
f 543/543 545/545 546/546
f 547/547 548/548 549/549
f 547/547 549/549 550/550
f 551/551 552/552 553/553
f 551/551 553/553 554/554
f 555/555 556/556 557/557
f 555/555 557/557 558/558
f 559/559 560/560 561/561
f 559/559 561/561 562/562
f 563/563 564/564 565/565
f 563/563 565/565 566/566
f 567/567 568/568 569/569
f 567/567 569/569 570/570
f 571/571 572/572 573/573
f 571/571 573/573 574/574
f 575/575 576/576 577/577
f 575/575 577/577 578/578
f 579/579 580/580 581/581
f 579/579 581/581 582/582
f 583/583 584/584 585/585
f 583/583 585/585 586/586
f 587/587 588/588 589/589
f 587/587 589/589 590/590
f 591/591 592/592 593/593
f 591/591 593/593 594/594
f 595/595 596/596 597/597
f 595/595 597/597 598/598
f 599/599 600/600 601/601
f 599/599 601/601 602/602
f 603/603 604/604 605/605
f 603/603 605/605 606/606
f 607/607 608/608 609/609
f 607/607 609/609 610/610
f 611/611 612/612 613/613
f 611/611 613/613 614/614
f 615/615 616/616 617/617
f 615/615 617/617 618/618
f 619/619 620/620 621/621
f 619/619 621/621 622/622
f 623/623 624/624 625/625
f 623/623 625/625 626/626
f 627/627 628/628 629/629
f 627/627 629/629 630/630
f 631/631 632/632 633/633
f 631/631 633/633 634/634
f 635/635 636/636 637/637
f 635/635 637/637 638/638
f 639/639 640/640 641/641
f 639/639 641/641 642/642
f 643/643 644/644 645/645
f 643/643 645/645 646/646
f 647/647 648/648 649/649
f 647/647 649/649 650/650
f 651/651 652/652 653/653
f 651/651 653/653 654/654
f 655/655 656/656 657/657
f 655/655 657/657 658/658
f 659/659 660/660 661/661
f 659/659 661/661 662/662
f 663/663 664/664 665/665
f 663/663 665/665 666/666
f 667/667 668/668 669/669
f 667/667 669/669 670/670
f 671/671 672/672 673/673
f 671/671 673/673 674/674
f 675/675 676/676 677/677
f 675/675 677/677 678/678
f 679/679 680/680 681/681
f 679/679 681/681 682/682
f 683/683 684/684 685/685
f 683/683 685/685 686/686
f 687/687 688/688 689/689
f 687/687 689/689 690/690
f 691/691 692/692 693/693
f 691/691 693/693 694/694
f 695/695 696/696 697/697
f 695/695 697/697 698/698
f 699/699 700/700 701/701
f 699/699 701/701 702/702
f 703/703 704/704 705/705
f 703/703 705/705 706/706
f 707/707 708/708 709/709
f 707/707 709/709 710/710
f 711/711 712/712 713/713
f 711/711 713/713 714/714
f 715/715 716/716 717/717
f 715/715 717/717 718/718
f 719/719 720/720 721/721
f 719/719 721/721 722/722
f 723/723 724/724 725/725
f 723/723 725/725 726/726
f 727/727 728/728 729/729
f 727/727 729/729 730/730
f 731/731 732/732 733/733
f 731/731 733/733 734/734
f 735/735 736/736 737/737
f 735/735 737/737 738/738
f 739/739 740/740 741/741
f 739/739 741/741 742/742
f 743/743 744/744 745/745
f 743/743 745/745 746/746
f 747/747 748/748 749/749
f 747/747 749/749 750/750
f 751/751 752/752 753/753
f 751/751 753/753 754/754
f 755/755 756/756 757/757
f 755/755 757/757 758/758
f 759/759 760/760 761/761
f 759/759 761/761 762/762
f 763/763 764/764 765/765
f 763/763 765/765 766/766
f 767/767 768/768 769/769
f 767/767 769/769 770/770
