mtllib ../../Materials/project_oen.mtl
o en-023_storm_damage_debris_set__broken_shelter_parts
v -0.611024 0.054208 -0.383736
v -0.143292 -0.028266 0.014792
v -0.132004 0.035747 0.014792
v -0.599736 0.118220 -0.383736
v -0.200264 -0.018220 0.083736
v -0.667996 0.064253 -0.314792
v -0.656708 0.128266 -0.314792
v -0.188976 0.045792 0.083736
v -0.667996 0.064253 -0.314792
v -0.611024 0.054208 -0.383736
v -0.599736 0.118220 -0.383736
v -0.656708 0.128266 -0.314792
v -0.143292 -0.028266 0.014792
v -0.200264 -0.018220 0.083736
v -0.188976 0.045792 0.083736
v -0.132004 0.035747 0.014792
v -0.599736 0.118220 -0.383736
v -0.132004 0.035747 0.014792
v -0.188976 0.045792 0.083736
v -0.656708 0.128266 -0.314792
v -0.667996 0.064253 -0.314792
v -0.200264 -0.018220 0.083736
v -0.143292 -0.028266 0.014792
v -0.611024 0.054208 -0.383736
v -0.547165 0.035500 -0.213256
v 0.151875 0.035500 -0.176621
v 0.151875 0.100500 -0.176621
v -0.547165 0.100500 -0.213256
v 0.147165 0.035500 -0.086744
v -0.551875 0.035500 -0.123379
v -0.551875 0.100500 -0.123379
v 0.147165 0.100500 -0.086744
v -0.551875 0.035500 -0.123379
v -0.547165 0.035500 -0.213256
v -0.547165 0.100500 -0.213256
v -0.551875 0.100500 -0.123379
v 0.151875 0.035500 -0.176621
v 0.147165 0.035500 -0.086744
v 0.147165 0.100500 -0.086744
v 0.151875 0.100500 -0.176621
v -0.547165 0.100500 -0.213256
v 0.151875 0.100500 -0.176621
v 0.147165 0.100500 -0.086744
v -0.551875 0.100500 -0.123379
v -0.551875 0.035500 -0.123379
v 0.147165 0.035500 -0.086744
v 0.151875 0.035500 -0.176621
v -0.547165 0.035500 -0.213256
v -0.337550 -0.006521 0.030779
v 0.299275 0.105769 -0.405392
v 0.287988 0.169781 -0.405392
v -0.348838 0.057492 0.030779
v 0.348838 0.114508 -0.330779
v -0.287988 0.002219 0.105392
v -0.299275 0.066231 0.105392
v 0.337550 0.178521 -0.330779
v -0.287988 0.002219 0.105392
v -0.337550 -0.006521 0.030779
v -0.348838 0.057492 0.030779
v -0.299275 0.066231 0.105392
v 0.299275 0.105769 -0.405392
v 0.348838 0.114508 -0.330779
v 0.337550 0.178521 -0.330779
v 0.287988 0.169781 -0.405392
v -0.348838 0.057492 0.030779
v 0.287988 0.169781 -0.405392
v 0.337550 0.178521 -0.330779
v -0.299275 0.066231 0.105392
v -0.287988 0.002219 0.105392
v 0.348838 0.114508 -0.330779
v 0.299275 0.105769 -0.405392
v -0.337550 -0.006521 0.030779
v -0.084637 0.121188 -0.283669
v 0.499264 0.018230 -0.102398
v 0.510551 0.082243 -0.102398
v -0.073350 0.185200 -0.283669
v 0.473350 0.022800 -0.016331
v -0.110551 0.125757 -0.197602
v -0.099264 0.189770 -0.197602
v 0.484637 0.086812 -0.016331
v -0.110551 0.125757 -0.197602
v -0.084637 0.121188 -0.283669
v -0.073350 0.185200 -0.283669
v -0.099264 0.189770 -0.197602
v 0.499264 0.018230 -0.102398
v 0.473350 0.022800 -0.016331
v 0.484637 0.086812 -0.016331
v 0.510551 0.082243 -0.102398
v -0.073350 0.185200 -0.283669
v 0.510551 0.082243 -0.102398
v 0.484637 0.086812 -0.016331
v -0.099264 0.189770 -0.197602
v -0.110551 0.125757 -0.197602
v 0.473350 0.022800 -0.016331
v 0.499264 0.018230 -0.102398
v -0.084637 0.121188 -0.283669
v 0.055717 0.089500 -0.072579
v 0.713502 0.089500 -0.311993
v 0.713502 0.154500 -0.311993
v 0.055717 0.154500 -0.072579
v 0.744283 0.089500 -0.227421
v 0.086498 0.089500 0.011993
v 0.086498 0.154500 0.011993
v 0.744283 0.154500 -0.227421
v 0.086498 0.089500 0.011993
v 0.055717 0.089500 -0.072579
v 0.055717 0.154500 -0.072579
v 0.086498 0.154500 0.011993
v 0.713502 0.089500 -0.311993
v 0.744283 0.089500 -0.227421
v 0.744283 0.154500 -0.227421
v 0.713502 0.154500 -0.311993
v 0.055717 0.154500 -0.072579
v 0.713502 0.154500 -0.311993
v 0.744283 0.154500 -0.227421
v 0.086498 0.154500 0.011993
v 0.086498 0.089500 0.011993
v 0.744283 0.089500 -0.227421
v 0.713502 0.089500 -0.311993
v 0.055717 0.089500 -0.072579
v -0.700748 0.053969 -0.089437
v -0.042315 0.170068 0.312292
v -0.053602 0.234081 0.312292
v -0.712036 0.117981 -0.089437
v -0.087964 0.162019 0.389437
v -0.746398 0.045919 -0.012292
v -0.757685 0.109932 -0.012292
v -0.099252 0.226031 0.389437
v -0.746398 0.045919 -0.012292
v -0.700748 0.053969 -0.089437
v -0.712036 0.117981 -0.089437
v -0.757685 0.109932 -0.012292
v -0.042315 0.170068 0.312292
v -0.087964 0.162019 0.389437
v -0.099252 0.226031 0.389437
v -0.053602 0.234081 0.312292
v -0.712036 0.117981 -0.089437
v -0.053602 0.234081 0.312292
v -0.099252 0.226031 0.389437
v -0.757685 0.109932 -0.012292
v -0.746398 0.045919 -0.012292
v -0.087964 0.162019 0.389437
v -0.042315 0.170068 0.312292
v -0.700748 0.053969 -0.089437
v -0.513894 0.180347 0.137650
v 0.093342 0.073275 0.072843
v 0.104629 0.137287 0.072843
v -0.502607 0.244359 0.137650
v 0.102607 0.071641 0.162350
v -0.504629 0.178713 0.227157
v -0.493342 0.242725 0.227157
v 0.113894 0.135653 0.162350
v -0.504629 0.178713 0.227157
v -0.513894 0.180347 0.137650
v -0.502607 0.244359 0.137650
v -0.493342 0.242725 0.227157
v 0.093342 0.073275 0.072843
v 0.102607 0.071641 0.162350
v 0.113894 0.135653 0.162350
v 0.104629 0.137287 0.072843
v -0.502607 0.244359 0.137650
v 0.104629 0.137287 0.072843
v 0.113894 0.135653 0.162350
v -0.493342 0.242725 0.227157
v -0.504629 0.178713 0.227157
v 0.102607 0.071641 0.162350
v 0.093342 0.073275 0.072843
v -0.513894 0.180347 0.137650
v -0.286664 0.143500 0.355789
v 0.225284 0.143500 -0.121610
v 0.225284 0.208500 -0.121610
v -0.286664 0.208500 0.355789
v 0.286664 0.143500 -0.055789
v -0.225284 0.143500 0.421610
v -0.225284 0.208500 0.421610
v 0.286664 0.208500 -0.055789
v -0.225284 0.143500 0.421610
v -0.286664 0.143500 0.355789
v -0.286664 0.208500 0.355789
v -0.225284 0.208500 0.421610
v 0.225284 0.143500 -0.121610
v 0.286664 0.143500 -0.055789
v 0.286664 0.208500 -0.055789
v 0.225284 0.208500 -0.121610
v -0.286664 0.208500 0.355789
v 0.225284 0.208500 -0.121610
v 0.286664 0.208500 -0.055789
v -0.225284 0.208500 0.421610
v -0.225284 0.143500 0.421610
v 0.286664 0.143500 -0.055789
v 0.225284 0.143500 -0.121610
v -0.286664 0.143500 0.355789
v -0.168526 0.096018 0.051160
v 0.592148 0.230145 0.159715
v 0.580861 0.294157 0.159715
v -0.179813 0.160030 0.051160
v 0.579813 0.227970 0.248840
v -0.180861 0.093843 0.140285
v -0.192148 0.157855 0.140285
v 0.568526 0.291982 0.248840
v -0.180861 0.093843 0.140285
v -0.168526 0.096018 0.051160
v -0.179813 0.160030 0.051160
v -0.192148 0.157855 0.140285
v 0.592148 0.230145 0.159715
v 0.579813 0.227970 0.248840
v 0.568526 0.291982 0.248840
v 0.580861 0.294157 0.159715
v -0.179813 0.160030 0.051160
v 0.580861 0.294157 0.159715
v 0.568526 0.291982 0.248840
v -0.192148 0.157855 0.140285
v -0.180861 0.093843 0.140285
v 0.579813 0.227970 0.248840
v 0.592148 0.230145 0.159715
v -0.168526 0.096018 0.051160
v 0.105858 0.230864 0.260933
v 0.639884 0.136701 -0.039649
v 0.651172 0.200713 -0.039649
v 0.117146 0.294876 0.260933
v 0.682854 0.129124 0.039067
v 0.148828 0.223287 0.339649
v 0.160116 0.287299 0.339649
v 0.694142 0.193136 0.039067
v 0.148828 0.223287 0.339649
v 0.105858 0.230864 0.260933
v 0.117146 0.294876 0.260933
v 0.160116 0.287299 0.339649
v 0.639884 0.136701 -0.039649
v 0.682854 0.129124 0.039067
v 0.694142 0.193136 0.039067
v 0.651172 0.200713 -0.039649
v 0.117146 0.294876 0.260933
v 0.651172 0.200713 -0.039649
v 0.694142 0.193136 0.039067
v 0.160116 0.287299 0.339649
v 0.148828 0.223287 0.339649
v 0.682854 0.129124 0.039067
v 0.639884 0.136701 -0.039649
v 0.105858 0.230864 0.260933
v 0.068187 0.098818 -0.469800
v 0.056378 0.100927 -0.470112
v 0.028167 0.090722 0.529488
v 0.039976 0.088613 0.529800
v 0.056378 0.100927 -0.470112
v 0.052297 0.112211 -0.470112
v 0.024085 0.102007 0.529488
v 0.028167 0.090722 0.529488
v 0.052297 0.112211 -0.470112
v 0.060024 0.121387 -0.469800
v 0.031813 0.111182 0.529800
v 0.024085 0.102007 0.529488
v 0.060024 0.121387 -0.469800
v 0.071833 0.119278 -0.469488
v 0.043622 0.109073 0.530112
v 0.031813 0.111182 0.529800
v 0.071833 0.119278 -0.469488
v 0.075915 0.107993 -0.469488
v 0.047703 0.097789 0.530112
v 0.043622 0.109073 0.530112
v 0.075915 0.107993 -0.469488
v 0.068187 0.098818 -0.469800
v 0.039976 0.088613 0.529800
v 0.047703 0.097789 0.530112
v 0.064106 0.110102 -0.469800
v 0.056378 0.100927 -0.470112
v 0.068187 0.098818 -0.469800
v 0.035894 0.099898 0.529800
v 0.039976 0.088613 0.529800
v 0.028167 0.090722 0.529488
v 0.064106 0.110102 -0.469800
v 0.052297 0.112211 -0.470112
v 0.056378 0.100927 -0.470112
v 0.035894 0.099898 0.529800
v 0.028167 0.090722 0.529488
v 0.024085 0.102007 0.529488
v 0.064106 0.110102 -0.469800
v 0.060024 0.121387 -0.469800
v 0.052297 0.112211 -0.470112
v 0.035894 0.099898 0.529800
v 0.024085 0.102007 0.529488
v 0.031813 0.111182 0.529800
v 0.064106 0.110102 -0.469800
v 0.071833 0.119278 -0.469488
v 0.060024 0.121387 -0.469800
v 0.035894 0.099898 0.529800
v 0.031813 0.111182 0.529800
v 0.043622 0.109073 0.530112
v 0.064106 0.110102 -0.469800
v 0.075915 0.107993 -0.469488
v 0.071833 0.119278 -0.469488
v 0.035894 0.099898 0.529800
v 0.043622 0.109073 0.530112
v 0.047703 0.097789 0.530112
v 0.064106 0.110102 -0.469800
v 0.068187 0.098818 -0.469800
v 0.075915 0.107993 -0.469488
v 0.035894 0.099898 0.529800
v 0.047703 0.097789 0.530112
v 0.039976 0.088613 0.529800
v -0.099979 0.044758 -0.179600
v -0.097002 0.042351 -0.150345
v -0.731776 0.369585 -0.058804
v -0.734754 0.371992 -0.088058
v -0.097002 0.042351 -0.150345
v -0.105779 0.020390 -0.132706
v -0.740554 0.347623 -0.041165
v -0.731776 0.369585 -0.058804
v -0.105779 0.020390 -0.132706
v -0.119703 -0.004589 -0.139966
v -0.754477 0.322645 -0.048424
v -0.740554 0.347623 -0.041165
v -0.119703 -0.004589 -0.139966
v -0.128288 -0.013775 -0.166657
v -0.763062 0.313459 -0.075115
v -0.754477 0.322645 -0.048424
v -0.128288 -0.013775 -0.166657
v -0.125069 -0.000251 -0.192681
v -0.759843 0.326982 -0.101139
v -0.763062 0.313459 -0.075115
v -0.125069 -0.000251 -0.192681
v -0.112471 0.025798 -0.198441
v -0.747245 0.353032 -0.106899
v -0.759843 0.326982 -0.101139
v -0.112471 0.025798 -0.198441
v -0.099979 0.044758 -0.179600
v -0.734754 0.371992 -0.088058
v -0.747245 0.353032 -0.106899
v -0.112613 0.016383 -0.165771
v -0.097002 0.042351 -0.150345
v -0.099979 0.044758 -0.179600
v -0.747387 0.343617 -0.074229
v -0.734754 0.371992 -0.088058
v -0.731776 0.369585 -0.058804
v -0.112613 0.016383 -0.165771
v -0.105779 0.020390 -0.132706
v -0.097002 0.042351 -0.150345
v -0.747387 0.343617 -0.074229
v -0.731776 0.369585 -0.058804
v -0.740554 0.347623 -0.041165
v -0.112613 0.016383 -0.165771
v -0.119703 -0.004589 -0.139966
v -0.105779 0.020390 -0.132706
v -0.747387 0.343617 -0.074229
v -0.740554 0.347623 -0.041165
v -0.754477 0.322645 -0.048424
v -0.112613 0.016383 -0.165771
v -0.128288 -0.013775 -0.166657
v -0.119703 -0.004589 -0.139966
v -0.747387 0.343617 -0.074229
v -0.754477 0.322645 -0.048424
v -0.763062 0.313459 -0.075115
v -0.112613 0.016383 -0.165771
v -0.125069 -0.000251 -0.192681
v -0.128288 -0.013775 -0.166657
v -0.747387 0.343617 -0.074229
v -0.763062 0.313459 -0.075115
v -0.759843 0.326982 -0.101139
v -0.112613 0.016383 -0.165771
v -0.112471 0.025798 -0.198441
v -0.125069 -0.000251 -0.192681
v -0.747387 0.343617 -0.074229
v -0.759843 0.326982 -0.101139
v -0.747245 0.353032 -0.106899
v -0.112613 0.016383 -0.165771
v -0.099979 0.044758 -0.179600
v -0.112471 0.025798 -0.198441
v -0.747387 0.343617 -0.074229
v -0.747245 0.353032 -0.106899
v -0.734754 0.371992 -0.088058
v 0.329347 0.071485 0.224112
v 0.318102 0.050937 0.239026
v -0.263639 0.300140 0.143765
v -0.252395 0.320689 0.128851
v 0.318102 0.050937 0.239026
v 0.308942 0.026218 0.230299
v -0.272799 0.275422 0.135037
v -0.263639 0.300140 0.143765
v 0.308942 0.026218 0.230299
v 0.308765 0.015942 0.204502
v -0.272977 0.265146 0.109241
v -0.272799 0.275422 0.135037
v 0.308765 0.015942 0.204502
v 0.317703 0.027847 0.181061
v -0.264038 0.277051 0.085800
v -0.272977 0.265146 0.109241
v 0.317703 0.027847 0.181061
v 0.329027 0.052969 0.177628
v -0.252715 0.302172 0.082367
v -0.264038 0.277051 0.085800
v 0.329027 0.052969 0.177628
v 0.334209 0.072389 0.196787
v -0.247533 0.321593 0.101526
v -0.252715 0.302172 0.082367
v 0.334209 0.072389 0.196787
v 0.329347 0.071485 0.224112
v -0.252395 0.320689 0.128851
v -0.247533 0.321593 0.101526
v 0.320871 0.045398 0.207631
v 0.318102 0.050937 0.239026
v 0.329347 0.071485 0.224112
v -0.260871 0.294602 0.112369
v -0.252395 0.320689 0.128851
v -0.263639 0.300140 0.143765
v 0.320871 0.045398 0.207631
v 0.308942 0.026218 0.230299
v 0.318102 0.050937 0.239026
v -0.260871 0.294602 0.112369
v -0.263639 0.300140 0.143765
v -0.272799 0.275422 0.135037
v 0.320871 0.045398 0.207631
v 0.308765 0.015942 0.204502
v 0.308942 0.026218 0.230299
v -0.260871 0.294602 0.112369
v -0.272799 0.275422 0.135037
v -0.272977 0.265146 0.109241
v 0.320871 0.045398 0.207631
v 0.317703 0.027847 0.181061
v 0.308765 0.015942 0.204502
v -0.260871 0.294602 0.112369
v -0.272977 0.265146 0.109241
v -0.264038 0.277051 0.085800
v 0.320871 0.045398 0.207631
v 0.329027 0.052969 0.177628
v 0.317703 0.027847 0.181061
v -0.260871 0.294602 0.112369
v -0.264038 0.277051 0.085800
v -0.252715 0.302172 0.082367
v 0.320871 0.045398 0.207631
v 0.334209 0.072389 0.196787
v 0.329027 0.052969 0.177628
v -0.260871 0.294602 0.112369
v -0.252715 0.302172 0.082367
v -0.247533 0.321593 0.101526
v 0.320871 0.045398 0.207631
v 0.329347 0.071485 0.224112
v 0.334209 0.072389 0.196787
v -0.260871 0.294602 0.112369
v -0.247533 0.321593 0.101526
v -0.252395 0.320689 0.128851
v 0.687903 0.090701 -0.103336
v 0.693808 0.096810 -0.078729
v 0.164977 0.259447 0.007796
v 0.159072 0.253338 -0.016812
v 0.693808 0.096810 -0.078729
v 0.692640 0.081738 -0.057535
v 0.163809 0.244375 0.028990
v 0.164977 0.259447 0.007796
v 0.692640 0.081738 -0.057535
v 0.685279 0.056833 -0.055715
v 0.156448 0.219470 0.030810
v 0.163809 0.244375 0.028990
v 0.685279 0.056833 -0.055715
v 0.677268 0.040851 -0.074638
v 0.148436 0.203488 0.011887
v 0.156448 0.219470 0.030810
v 0.677268 0.040851 -0.074638
v 0.674639 0.045826 -0.100056
v 0.145808 0.208463 -0.013531
v 0.148436 0.203488 0.011887
v 0.674639 0.045826 -0.100056
v 0.679372 0.068011 -0.112828
v 0.150541 0.230648 -0.026303
v 0.145808 0.208463 -0.013531
v 0.679372 0.068011 -0.112828
v 0.687903 0.090701 -0.103336
v 0.159072 0.253338 -0.016812
v 0.150541 0.230648 -0.026303
v 0.684416 0.068681 -0.083262
v 0.693808 0.096810 -0.078729
v 0.687903 0.090701 -0.103336
v 0.155584 0.231319 0.003262
v 0.159072 0.253338 -0.016812
v 0.164977 0.259447 0.007796
v 0.684416 0.068681 -0.083262
v 0.692640 0.081738 -0.057535
v 0.693808 0.096810 -0.078729
v 0.155584 0.231319 0.003262
v 0.164977 0.259447 0.007796
v 0.163809 0.244375 0.028990
v 0.684416 0.068681 -0.083262
v 0.685279 0.056833 -0.055715
v 0.692640 0.081738 -0.057535
v 0.155584 0.231319 0.003262
v 0.163809 0.244375 0.028990
v 0.156448 0.219470 0.030810
v 0.684416 0.068681 -0.083262
v 0.677268 0.040851 -0.074638
v 0.685279 0.056833 -0.055715
v 0.155584 0.231319 0.003262
v 0.156448 0.219470 0.030810
v 0.148436 0.203488 0.011887
v 0.684416 0.068681 -0.083262
v 0.674639 0.045826 -0.100056
v 0.677268 0.040851 -0.074638
v 0.155584 0.231319 0.003262
v 0.148436 0.203488 0.011887
v 0.145808 0.208463 -0.013531
v 0.684416 0.068681 -0.083262
v 0.679372 0.068011 -0.112828
v 0.674639 0.045826 -0.100056
v 0.155584 0.231319 0.003262
v 0.145808 0.208463 -0.013531
v 0.150541 0.230648 -0.026303
v 0.684416 0.068681 -0.083262
v 0.687903 0.090701 -0.103336
v 0.679372 0.068011 -0.112828
v 0.155584 0.231319 0.003262
v 0.150541 0.230648 -0.026303
v 0.159072 0.253338 -0.016812
v -0.641311 0.044296 -0.201856
v -0.594403 0.023412 -0.221567
v -0.510498 0.215088 -0.148243
v -0.632956 0.025354 -0.161902
v -0.586048 0.004470 -0.181612
v -0.502143 0.196146 -0.108288
v -0.310635 0.045091 0.132238
v -0.273950 0.067133 0.146144
v -0.373061 0.212987 0.103598
v -0.325282 0.045992 0.169449
v -0.288597 0.068035 0.183355
v -0.387708 0.213888 0.140809
v -0.064988 -0.003276 -0.097593
v -0.026035 0.009381 -0.126271
v -0.100733 0.235005 -0.084571
v -0.038744 -0.001333 -0.061090
v 0.000209 0.011323 -0.089768
v -0.074489 0.236947 -0.048068
v 0.115772 0.056134 0.163292
v 0.158917 0.040430 0.187705
v 0.218709 0.228883 0.147874
v 0.099719 0.068969 0.199920
v 0.142863 0.053265 0.224332
v 0.202655 0.241718 0.184501
v 0.399113 0.031620 -0.184269
v 0.439369 0.052131 -0.197224
v 0.346834 0.211890 -0.146562
v 0.413039 0.027855 -0.146961
v 0.453294 0.048366 -0.159916
v 0.360759 0.208125 -0.109254
v 0.519247 0.038019 0.127064
v 0.550113 0.022965 0.101186
v 0.580970 0.189730 0.076702
v 0.543597 0.037797 0.156237
v 0.574463 0.022743 0.130359
v 0.605320 0.189508 0.105875
v -0.221624 0.163785 -0.129357
v -0.223588 0.114806 -0.125424
v -0.229662 0.118627 -0.113237
v -0.227904 0.162450 -0.116756
v -0.227904 0.162450 -0.116756
v -0.229662 0.118627 -0.113237
v -0.241780 0.121163 -0.120071
v -0.240229 0.159830 -0.123176
v -0.240229 0.159830 -0.123176
v -0.241780 0.121163 -0.120071
v -0.235707 0.117342 -0.132258
v -0.233949 0.161165 -0.135777
v -0.233949 0.161165 -0.135777
v -0.235707 0.117342 -0.132258
v -0.223588 0.114806 -0.125424
v -0.221624 0.163785 -0.129357
v -0.223588 0.114806 -0.125424
v -0.248707 0.073918 -0.114678
v -0.252136 0.082043 -0.103623
v -0.229662 0.118627 -0.113237
v -0.229662 0.118627 -0.113237
v -0.252136 0.082043 -0.103623
v -0.261610 0.088883 -0.111588
v -0.241780 0.121163 -0.120071
v -0.241780 0.121163 -0.120071
v -0.261610 0.088883 -0.111588
v -0.258181 0.080758 -0.122644
v -0.235707 0.117342 -0.132258
v -0.235707 0.117342 -0.132258
v -0.258181 0.080758 -0.122644
v -0.248707 0.073918 -0.114678
v -0.223588 0.114806 -0.125424
v -0.248707 0.073918 -0.114678
v -0.290248 0.052076 -0.100000
v -0.289305 0.062500 -0.090489
v -0.252136 0.082043 -0.103623
v -0.252136 0.082043 -0.103623
v -0.289305 0.062500 -0.090489
v -0.294407 0.071639 -0.100000
v -0.261610 0.088883 -0.111588
v -0.261610 0.088883 -0.111588
v -0.294407 0.071639 -0.100000
v -0.295350 0.061215 -0.109511
v -0.258181 0.080758 -0.122644
v -0.258181 0.080758 -0.122644
v -0.295350 0.061215 -0.109511
v -0.290248 0.052076 -0.100000
v -0.248707 0.073918 -0.114678
v -0.290248 0.052076 -0.100000
v -0.337083 0.055133 -0.085322
v -0.331209 0.065235 -0.077356
v -0.289305 0.062500 -0.090489
v -0.289305 0.062500 -0.090489
v -0.331209 0.065235 -0.077356
v -0.331381 0.074052 -0.088412
v -0.294407 0.071639 -0.100000
v -0.294407 0.071639 -0.100000
v -0.331381 0.074052 -0.088412
v -0.337254 0.063950 -0.096377
v -0.295350 0.061215 -0.109511
v -0.295350 0.061215 -0.109511
v -0.337254 0.063950 -0.096377
v -0.337083 0.055133 -0.085322
v -0.290248 0.052076 -0.100000
v -0.337083 0.055133 -0.085322
v -0.376660 0.082270 -0.074576
v -0.366621 0.089515 -0.067742
v -0.331209 0.065235 -0.077356
v -0.331209 0.065235 -0.077356
v -0.366621 0.089515 -0.067742
v -0.362626 0.095476 -0.079929
v -0.331381 0.074052 -0.088412
v -0.331381 0.074052 -0.088412
v -0.362626 0.095476 -0.079929
v -0.372666 0.088230 -0.086763
v -0.337254 0.063950 -0.096377
v -0.337254 0.063950 -0.096377
v -0.372666 0.088230 -0.086763
v -0.376660 0.082270 -0.074576
v -0.337083 0.055133 -0.085322
v -0.376660 0.082270 -0.074576
v -0.398376 0.126215 -0.070643
v -0.386051 0.128835 -0.064223
v -0.366621 0.089515 -0.067742
v -0.366621 0.089515 -0.067742
v -0.386051 0.128835 -0.064223
v -0.379771 0.130170 -0.076824
v -0.362626 0.095476 -0.079929
v -0.362626 0.095476 -0.079929
v -0.379771 0.130170 -0.076824
v -0.392096 0.127550 -0.083244
v -0.372666 0.088230 -0.086763
v -0.372666 0.088230 -0.086763
v -0.392096 0.127550 -0.083244
v -0.398376 0.126215 -0.070643
v -0.376660 0.082270 -0.074576
v -0.398376 0.126215 -0.070643
v -0.396412 0.175194 -0.074576
v -0.384293 0.172658 -0.067742
v -0.386051 0.128835 -0.064223
v -0.386051 0.128835 -0.064223
v -0.384293 0.172658 -0.067742
v -0.378220 0.168837 -0.079929
v -0.379771 0.130170 -0.076824
v -0.379771 0.130170 -0.076824
v -0.378220 0.168837 -0.079929
v -0.390338 0.171373 -0.086763
v -0.392096 0.127550 -0.083244
v -0.392096 0.127550 -0.083244
v -0.390338 0.171373 -0.086763
v -0.396412 0.175194 -0.074576
v -0.398376 0.126215 -0.070643
v -0.396412 0.175194 -0.074576
v -0.371293 0.216082 -0.085322
v -0.361819 0.209242 -0.077356
v -0.384293 0.172658 -0.067742
v -0.384293 0.172658 -0.067742
v -0.361819 0.209242 -0.077356
v -0.358390 0.201117 -0.088412
v -0.378220 0.168837 -0.079929
v -0.378220 0.168837 -0.079929
v -0.358390 0.201117 -0.088412
v -0.367864 0.207957 -0.096377
v -0.390338 0.171373 -0.086763
v -0.390338 0.171373 -0.086763
v -0.367864 0.207957 -0.096377
v -0.371293 0.216082 -0.085322
v -0.396412 0.175194 -0.074576
v -0.371293 0.216082 -0.085322
v -0.329752 0.237924 -0.100000
v -0.324650 0.228785 -0.090489
v -0.361819 0.209242 -0.077356
v -0.361819 0.209242 -0.077356
v -0.324650 0.228785 -0.090489
v -0.325593 0.218361 -0.100000
v -0.358390 0.201117 -0.088412
v -0.358390 0.201117 -0.088412
v -0.325593 0.218361 -0.100000
v -0.330695 0.227500 -0.109511
v -0.367864 0.207957 -0.096377
v -0.367864 0.207957 -0.096377
v -0.330695 0.227500 -0.109511
v -0.329752 0.237924 -0.100000
v -0.371293 0.216082 -0.085322
v -0.329752 0.237924 -0.100000
v -0.282917 0.234867 -0.114678
v -0.282746 0.226050 -0.103623
v -0.324650 0.228785 -0.090489
v -0.324650 0.228785 -0.090489
v -0.282746 0.226050 -0.103623
v -0.288619 0.215948 -0.111588
v -0.325593 0.218361 -0.100000
v -0.325593 0.218361 -0.100000
v -0.288619 0.215948 -0.111588
v -0.288791 0.224765 -0.122644
v -0.330695 0.227500 -0.109511
v -0.330695 0.227500 -0.109511
v -0.288791 0.224765 -0.122644
v -0.282917 0.234867 -0.114678
v -0.329752 0.237924 -0.100000
v -0.282917 0.234867 -0.114678
v -0.243340 0.207730 -0.125424
v -0.247334 0.201770 -0.113237
v -0.282746 0.226050 -0.103623
v -0.282746 0.226050 -0.103623
v -0.247334 0.201770 -0.113237
v -0.257374 0.194524 -0.120071
v -0.288619 0.215948 -0.111588
v -0.288619 0.215948 -0.111588
v -0.257374 0.194524 -0.120071
v -0.253379 0.200485 -0.132258
v -0.288791 0.224765 -0.122644
v -0.288791 0.224765 -0.122644
v -0.253379 0.200485 -0.132258
v -0.243340 0.207730 -0.125424
v -0.282917 0.234867 -0.114678
v -0.243340 0.207730 -0.125424
v -0.221624 0.163785 -0.129357
v -0.227904 0.162450 -0.116756
v -0.247334 0.201770 -0.113237
v -0.247334 0.201770 -0.113237
v -0.227904 0.162450 -0.116756
v -0.240229 0.159830 -0.123176
v -0.257374 0.194524 -0.120071
v -0.257374 0.194524 -0.120071
v -0.240229 0.159830 -0.123176
v -0.233949 0.161165 -0.135777
v -0.253379 0.200485 -0.132258
v -0.253379 0.200485 -0.132258
v -0.233949 0.161165 -0.135777
v -0.221624 0.163785 -0.129357
v -0.243340 0.207730 -0.125424
v 0.397840 0.122671 0.151842
v 0.380763 0.082346 0.147576
v 0.369915 0.089127 0.153603
v 0.384983 0.124708 0.157367
v 0.384983 0.124708 0.157367
v 0.369915 0.089127 0.153603
v 0.366466 0.094735 0.141087
v 0.379525 0.125572 0.144349
v 0.379525 0.125572 0.144349
v 0.366466 0.094735 0.141087
v 0.377315 0.087955 0.135060
v 0.392383 0.123536 0.138824
v 0.392383 0.123536 0.138824
v 0.377315 0.087955 0.135060
v 0.380763 0.082346 0.147576
v 0.397840 0.122671 0.151842
v 0.380763 0.082346 0.147576
v 0.347405 0.056130 0.135921
v 0.340481 0.065995 0.143320
v 0.369915 0.089127 0.153603
v 0.369915 0.089127 0.153603
v 0.340481 0.065995 0.143320
v 0.340957 0.074687 0.132175
v 0.366466 0.094735 0.141087
v 0.366466 0.094735 0.141087
v 0.340957 0.074687 0.132175
v 0.347881 0.064823 0.124776
v 0.377315 0.087955 0.135060
v 0.377315 0.087955 0.135060
v 0.347881 0.064823 0.124776
v 0.347405 0.056130 0.135921
v 0.380763 0.082346 0.147576
v 0.347405 0.056130 0.135921
v 0.306703 0.051046 0.120000
v 0.304567 0.061509 0.129272
v 0.340481 0.065995 0.143320
v 0.340481 0.065995 0.143320
v 0.304567 0.061509 0.129272
v 0.309832 0.070800 0.120000
v 0.340957 0.074687 0.132175
v 0.340957 0.074687 0.132175
v 0.309832 0.070800 0.120000
v 0.311967 0.060337 0.110728
v 0.347881 0.064823 0.124776
v 0.347881 0.064823 0.124776
v 0.311967 0.060337 0.110728
v 0.306703 0.051046 0.120000
v 0.347405 0.056130 0.135921
v 0.306703 0.051046 0.120000
v 0.269564 0.068458 0.104079
v 0.271798 0.076873 0.115224
v 0.304567 0.061509 0.129272
v 0.304567 0.061509 0.129272
v 0.271798 0.076873 0.115224
v 0.281432 0.084115 0.107825
v 0.309832 0.070800 0.120000
v 0.309832 0.070800 0.120000
v 0.281432 0.084115 0.107825
v 0.279198 0.075701 0.096680
v 0.311967 0.060337 0.110728
v 0.311967 0.060337 0.110728
v 0.279198 0.075701 0.096680
v 0.269564 0.068458 0.104079
v 0.306703 0.051046 0.120000
v 0.269564 0.068458 0.104079
v 0.245940 0.103700 0.092424
v 0.250953 0.107969 0.104940
v 0.271798 0.076873 0.115224
v 0.271798 0.076873 0.115224
v 0.250953 0.107969 0.104940
v 0.263366 0.111065 0.098913
v 0.281432 0.084115 0.107825
v 0.281432 0.084115 0.107825
v 0.263366 0.111065 0.098913
v 0.258353 0.106797 0.086397
v 0.279198 0.075701 0.096680
v 0.279198 0.075701 0.096680
v 0.258353 0.106797 0.086397
v 0.245940 0.103700 0.092424
v 0.269564 0.068458 0.104079
v 0.245940 0.103700 0.092424
v 0.242160 0.147329 0.088158
v 0.247617 0.146464 0.101176
v 0.250953 0.107969 0.104940
v 0.250953 0.107969 0.104940
v 0.247617 0.146464 0.101176
v 0.260475 0.144428 0.095651
v 0.263366 0.111065 0.098913
v 0.263366 0.111065 0.098913
v 0.260475 0.144428 0.095651
v 0.255017 0.145292 0.082633
v 0.258353 0.106797 0.086397
v 0.258353 0.106797 0.086397
v 0.255017 0.145292 0.082633
v 0.242160 0.147329 0.088158
v 0.245940 0.103700 0.092424
v 0.242160 0.147329 0.088158
v 0.259237 0.187654 0.092424
v 0.262685 0.182045 0.104940
v 0.247617 0.146464 0.101176
v 0.247617 0.146464 0.101176
v 0.262685 0.182045 0.104940
v 0.273534 0.175265 0.098913
v 0.260475 0.144428 0.095651
v 0.260475 0.144428 0.095651
v 0.273534 0.175265 0.098913
v 0.270085 0.180873 0.086397
v 0.255017 0.145292 0.082633
v 0.255017 0.145292 0.082633
v 0.270085 0.180873 0.086397
v 0.259237 0.187654 0.092424
v 0.242160 0.147329 0.088158
v 0.259237 0.187654 0.092424
v 0.292595 0.213870 0.104079
v 0.292119 0.205177 0.115224
v 0.262685 0.182045 0.104940
v 0.262685 0.182045 0.104940
v 0.292119 0.205177 0.115224
v 0.299043 0.195313 0.107825
v 0.273534 0.175265 0.098913
v 0.273534 0.175265 0.098913
v 0.299043 0.195313 0.107825
v 0.299519 0.204005 0.096680
v 0.270085 0.180873 0.086397
v 0.270085 0.180873 0.086397
v 0.299519 0.204005 0.096680
v 0.292595 0.213870 0.104079
v 0.259237 0.187654 0.092424
v 0.292595 0.213870 0.104079
v 0.333297 0.218954 0.120000
v 0.328033 0.209663 0.129272
v 0.292119 0.205177 0.115224
v 0.292119 0.205177 0.115224
v 0.328033 0.209663 0.129272
v 0.330168 0.199200 0.120000
v 0.299043 0.195313 0.107825
v 0.299043 0.195313 0.107825
v 0.330168 0.199200 0.120000
v 0.335433 0.208491 0.110728
v 0.299519 0.204005 0.096680
v 0.299519 0.204005 0.096680
v 0.335433 0.208491 0.110728
v 0.333297 0.218954 0.120000
v 0.292595 0.213870 0.104079
v 0.333297 0.218954 0.120000
v 0.370436 0.201542 0.135921
v 0.360802 0.194299 0.143320
v 0.328033 0.209663 0.129272
v 0.328033 0.209663 0.129272
v 0.360802 0.194299 0.143320
v 0.358568 0.185885 0.132175
v 0.330168 0.199200 0.120000
v 0.330168 0.199200 0.120000
v 0.358568 0.185885 0.132175
v 0.368202 0.193127 0.124776
v 0.335433 0.208491 0.110728
v 0.335433 0.208491 0.110728
v 0.368202 0.193127 0.124776
v 0.370436 0.201542 0.135921
v 0.333297 0.218954 0.120000
v 0.370436 0.201542 0.135921
v 0.394060 0.166300 0.147576
v 0.381647 0.163203 0.153603
v 0.360802 0.194299 0.143320
v 0.360802 0.194299 0.143320
v 0.381647 0.163203 0.153603
v 0.376634 0.158935 0.141087
v 0.358568 0.185885 0.132175
v 0.358568 0.185885 0.132175
v 0.376634 0.158935 0.141087
v 0.389047 0.162031 0.135060
v 0.368202 0.193127 0.124776
v 0.368202 0.193127 0.124776
v 0.389047 0.162031 0.135060
v 0.394060 0.166300 0.147576
v 0.370436 0.201542 0.135921
v 0.394060 0.166300 0.147576
v 0.397840 0.122671 0.151842
v 0.384983 0.124708 0.157367
v 0.381647 0.163203 0.153603
v 0.381647 0.163203 0.153603
v 0.384983 0.124708 0.157367
v 0.379525 0.125572 0.144349
v 0.376634 0.158935 0.141087
v 0.376634 0.158935 0.141087
v 0.379525 0.125572 0.144349
v 0.392383 0.123536 0.138824
v 0.389047 0.162031 0.135060
v 0.389047 0.162031 0.135060
v 0.392383 0.123536 0.138824
v 0.397840 0.122671 0.151842
v 0.394060 0.166300 0.147576
v -0.550522 0.056132 -0.361208
v -0.540277 0.057337 -0.363560
v -0.471688 0.123068 -0.031144
v -0.481933 0.121863 -0.028792
v -0.540277 0.057337 -0.363560
v -0.535584 0.047897 -0.362661
v -0.466995 0.113628 -0.030246
v -0.471688 0.123068 -0.031144
v -0.535584 0.047897 -0.362661
v -0.542929 0.040858 -0.359754
v -0.474340 0.106589 -0.027339
v -0.466995 0.113628 -0.030246
v -0.542929 0.040858 -0.359754
v -0.552161 0.045948 -0.358856
v -0.483572 0.111679 -0.026440
v -0.474340 0.106589 -0.027339
v -0.552161 0.045948 -0.358856
v -0.550522 0.056132 -0.361208
v -0.481933 0.121863 -0.028792
v -0.483572 0.111679 -0.026440
v -0.544294 0.049634 -0.361208
v -0.540277 0.057337 -0.363560
v -0.550522 0.056132 -0.361208
v -0.475706 0.115366 -0.028792
v -0.481933 0.121863 -0.028792
v -0.471688 0.123068 -0.031144
v -0.544294 0.049634 -0.361208
v -0.535584 0.047897 -0.362661
v -0.540277 0.057337 -0.363560
v -0.475706 0.115366 -0.028792
v -0.471688 0.123068 -0.031144
v -0.466995 0.113628 -0.030246
v -0.544294 0.049634 -0.361208
v -0.542929 0.040858 -0.359754
v -0.535584 0.047897 -0.362661
v -0.475706 0.115366 -0.028792
v -0.466995 0.113628 -0.030246
v -0.474340 0.106589 -0.027339
v -0.544294 0.049634 -0.361208
v -0.552161 0.045948 -0.358856
v -0.542929 0.040858 -0.359754
v -0.475706 0.115366 -0.028792
v -0.474340 0.106589 -0.027339
v -0.483572 0.111679 -0.026440
v -0.544294 0.049634 -0.361208
v -0.550522 0.056132 -0.361208
v -0.552161 0.045948 -0.358856
v -0.475706 0.115366 -0.028792
v -0.483572 0.111679 -0.026440
v -0.481933 0.121863 -0.028792
v -0.153677 0.026965 -0.396525
v -0.151958 0.035889 -0.398944
v -0.198916 0.129804 -0.085895
v -0.200634 0.120880 -0.083475
v -0.151958 0.035889 -0.398944
v -0.142726 0.037425 -0.398020
v -0.189684 0.131339 -0.084971
v -0.198916 0.129804 -0.085895
v -0.142726 0.037425 -0.398020
v -0.138739 0.029449 -0.395029
v -0.185696 0.123364 -0.081980
v -0.189684 0.131339 -0.084971
v -0.138739 0.029449 -0.395029
v -0.145506 0.022985 -0.394105
v -0.192464 0.116900 -0.081056
v -0.185696 0.123364 -0.081980
v -0.145506 0.022985 -0.394105
v -0.153677 0.026965 -0.396525
v -0.200634 0.120880 -0.083475
v -0.192464 0.116900 -0.081056
v -0.146521 0.030543 -0.396525
v -0.151958 0.035889 -0.398944
v -0.153677 0.026965 -0.396525
v -0.193479 0.124457 -0.083475
v -0.200634 0.120880 -0.083475
v -0.198916 0.129804 -0.085895
v -0.146521 0.030543 -0.396525
v -0.142726 0.037425 -0.398020
v -0.151958 0.035889 -0.398944
v -0.193479 0.124457 -0.083475
v -0.198916 0.129804 -0.085895
v -0.189684 0.131339 -0.084971
v -0.146521 0.030543 -0.396525
v -0.138739 0.029449 -0.395029
v -0.142726 0.037425 -0.398020
v -0.193479 0.124457 -0.083475
v -0.189684 0.131339 -0.084971
v -0.185696 0.123364 -0.081980
v -0.146521 0.030543 -0.396525
v -0.145506 0.022985 -0.394105
v -0.138739 0.029449 -0.395029
v -0.193479 0.124457 -0.083475
v -0.185696 0.123364 -0.081980
v -0.192464 0.116900 -0.081056
v -0.146521 0.030543 -0.396525
v -0.153677 0.026965 -0.396525
v -0.145506 0.022985 -0.394105
v -0.193479 0.124457 -0.083475
v -0.192464 0.116900 -0.081056
v -0.200634 0.120880 -0.083475
v 0.405321 0.104536 0.087873
v 0.396458 0.102434 0.085530
v 0.338201 0.031230 0.369784
v 0.347063 0.033332 0.372127
v 0.396458 0.102434 0.085530
v 0.391287 0.110238 0.086425
v 0.333029 0.039034 0.370679
v 0.338201 0.031230 0.369784
v 0.391287 0.110238 0.086425
v 0.396953 0.117163 0.089321
v 0.338695 0.045959 0.373575
v 0.333029 0.039034 0.370679
v 0.396953 0.117163 0.089321
v 0.405626 0.113639 0.090216
v 0.347368 0.042435 0.374470
v 0.338695 0.045959 0.373575
v 0.405626 0.113639 0.090216
v 0.405321 0.104536 0.087873
v 0.347063 0.033332 0.372127
v 0.347368 0.042435 0.374470
v 0.399129 0.109602 0.087873
v 0.396458 0.102434 0.085530
v 0.405321 0.104536 0.087873
v 0.340871 0.038398 0.372127
v 0.347063 0.033332 0.372127
v 0.338201 0.031230 0.369784
v 0.399129 0.109602 0.087873
v 0.391287 0.110238 0.086425
v 0.396458 0.102434 0.085530
v 0.340871 0.038398 0.372127
v 0.338201 0.031230 0.369784
v 0.333029 0.039034 0.370679
v 0.399129 0.109602 0.087873
v 0.396953 0.117163 0.089321
v 0.391287 0.110238 0.086425
v 0.340871 0.038398 0.372127
v 0.333029 0.039034 0.370679
v 0.338695 0.045959 0.373575
v 0.399129 0.109602 0.087873
v 0.405626 0.113639 0.090216
v 0.396953 0.117163 0.089321
v 0.340871 0.038398 0.372127
v 0.338695 0.045959 0.373575
v 0.347368 0.042435 0.374470
v 0.399129 0.109602 0.087873
v 0.405321 0.104536 0.087873
v 0.405626 0.113639 0.090216
v 0.340871 0.038398 0.372127
v 0.347368 0.042435 0.374470
v 0.347063 0.033332 0.372127
v 0.564566 0.085950 -0.001706
v 0.554415 0.088061 -0.003818
v 0.472924 0.049862 0.349594
v 0.483074 0.047751 0.351706
v 0.554415 0.088061 -0.003818
v 0.553013 0.098516 -0.003011
v 0.471522 0.060317 0.350400
v 0.472924 0.049862 0.349594
v 0.553013 0.098516 -0.003011
v 0.562297 0.102868 -0.000400
v 0.480806 0.064669 0.353011
v 0.471522 0.060317 0.350400
v 0.562297 0.102868 -0.000400
v 0.569437 0.095102 0.000406
v 0.487945 0.056903 0.353818
v 0.480806 0.064669 0.353011
v 0.569437 0.095102 0.000406
v 0.564566 0.085950 -0.001706
v 0.483074 0.047751 0.351706
v 0.487945 0.056903 0.353818
v 0.560746 0.094100 -0.001706
v 0.554415 0.088061 -0.003818
v 0.564566 0.085950 -0.001706
v 0.479254 0.055900 0.351706
v 0.483074 0.047751 0.351706
v 0.472924 0.049862 0.349594
v 0.560746 0.094100 -0.001706
v 0.553013 0.098516 -0.003011
v 0.554415 0.088061 -0.003818
v 0.479254 0.055900 0.351706
v 0.472924 0.049862 0.349594
v 0.471522 0.060317 0.350400
v 0.560746 0.094100 -0.001706
v 0.562297 0.102868 -0.000400
v 0.553013 0.098516 -0.003011
v 0.479254 0.055900 0.351706
v 0.471522 0.060317 0.350400
v 0.480806 0.064669 0.353011
v 0.560746 0.094100 -0.001706
v 0.569437 0.095102 0.000406
v 0.562297 0.102868 -0.000400
v 0.479254 0.055900 0.351706
v 0.480806 0.064669 0.353011
v 0.487945 0.056903 0.353818
v 0.560746 0.094100 -0.001706
v 0.564566 0.085950 -0.001706
v 0.569437 0.095102 0.000406
v 0.479254 0.055900 0.351706
v 0.487945 0.056903 0.353818
v 0.483074 0.047751 0.351706
vt 0.000000 0.000000
vt 1.000000 0.000000
vt 1.000000 1.000000
vt 0.000000 1.000000
vt 0.000000 0.000000
vt 1.000000 0.000000
vt 1.000000 1.000000
vt 0.000000 1.000000
vt 0.000000 0.000000
vt 1.000000 0.000000
vt 1.000000 1.000000
vt 0.000000 1.000000
vt 0.000000 0.000000
vt 1.000000 0.000000
vt 1.000000 1.000000
vt 0.000000 1.000000
vt 0.000000 0.000000
vt 1.000000 0.000000
vt 1.000000 1.000000
vt 0.000000 1.000000
vt 0.000000 0.000000
vt 1.000000 0.000000
vt 1.000000 1.000000
vt 0.000000 1.000000
vt 0.000000 0.000000
vt 1.000000 0.000000
vt 1.000000 1.000000
vt 0.000000 1.000000
vt 0.000000 0.000000
vt 1.000000 0.000000
vt 1.000000 1.000000
vt 0.000000 1.000000
vt 0.000000 0.000000
vt 1.000000 0.000000
vt 1.000000 1.000000
vt 0.000000 1.000000
vt 0.000000 0.000000
vt 1.000000 0.000000
vt 1.000000 1.000000
vt 0.000000 1.000000
vt 0.000000 0.000000
vt 1.000000 0.000000
vt 1.000000 1.000000
vt 0.000000 1.000000
vt 0.000000 0.000000
vt 1.000000 0.000000
vt 1.000000 1.000000
vt 0.000000 1.000000
vt 0.000000 0.000000
vt 1.000000 0.000000
vt 1.000000 1.000000
vt 0.000000 1.000000
vt 0.000000 0.000000
vt 1.000000 0.000000
vt 1.000000 1.000000
vt 0.000000 1.000000
vt 0.000000 0.000000
vt 1.000000 0.000000
vt 1.000000 1.000000
vt 0.000000 1.000000
vt 0.000000 0.000000
vt 1.000000 0.000000
vt 1.000000 1.000000
vt 0.000000 1.000000
vt 0.000000 0.000000
vt 1.000000 0.000000
vt 1.000000 1.000000
vt 0.000000 1.000000
vt 0.000000 0.000000
vt 1.000000 0.000000
vt 1.000000 1.000000
vt 0.000000 1.000000
vt 0.000000 0.000000
vt 1.000000 0.000000
vt 1.000000 1.000000
vt 0.000000 1.000000
vt 0.000000 0.000000
vt 1.000000 0.000000
vt 1.000000 1.000000
vt 0.000000 1.000000
vt 0.000000 0.000000
vt 1.000000 0.000000
vt 1.000000 1.000000
vt 0.000000 1.000000
vt 0.000000 0.000000
vt 1.000000 0.000000
vt 1.000000 1.000000
vt 0.000000 1.000000
vt 0.000000 0.000000
vt 1.000000 0.000000
vt 1.000000 1.000000
vt 0.000000 1.000000
vt 0.000000 0.000000
vt 1.000000 0.000000
vt 1.000000 1.000000
vt 0.000000 1.000000
vt 0.000000 0.000000
vt 1.000000 0.000000
vt 1.000000 1.000000
vt 0.000000 1.000000
vt 0.000000 0.000000
vt 1.000000 0.000000
vt 1.000000 1.000000
vt 0.000000 1.000000
vt 0.000000 0.000000
vt 1.000000 0.000000
vt 1.000000 1.000000
vt 0.000000 1.000000
vt 0.000000 0.000000
vt 1.000000 0.000000
vt 1.000000 1.000000
vt 0.000000 1.000000
vt 0.000000 0.000000
vt 1.000000 0.000000
vt 1.000000 1.000000
vt 0.000000 1.000000
vt 0.000000 0.000000
vt 1.000000 0.000000
vt 1.000000 1.000000
vt 0.000000 1.000000
vt 0.000000 0.000000
vt 1.000000 0.000000
vt 1.000000 1.000000
vt 0.000000 1.000000
vt 0.000000 0.000000
vt 1.000000 0.000000
vt 1.000000 1.000000
vt 0.000000 1.000000
vt 0.000000 0.000000
vt 1.000000 0.000000
vt 1.000000 1.000000
vt 0.000000 1.000000
vt 0.000000 0.000000
vt 1.000000 0.000000
vt 1.000000 1.000000
vt 0.000000 1.000000
vt 0.000000 0.000000
vt 1.000000 0.000000
vt 1.000000 1.000000
vt 0.000000 1.000000
vt 0.000000 0.000000
vt 1.000000 0.000000
vt 1.000000 1.000000
vt 0.000000 1.000000
vt 0.000000 0.000000
vt 1.000000 0.000000
vt 1.000000 1.000000
vt 0.000000 1.000000
vt 0.000000 0.000000
vt 1.000000 0.000000
vt 1.000000 1.000000
vt 0.000000 1.000000
vt 0.000000 0.000000
vt 1.000000 0.000000
vt 1.000000 1.000000
vt 0.000000 1.000000
vt 0.000000 0.000000
vt 1.000000 0.000000
vt 1.000000 1.000000
vt 0.000000 1.000000
vt 0.000000 0.000000
vt 1.000000 0.000000
vt 1.000000 1.000000
vt 0.000000 1.000000
vt 0.000000 0.000000
vt 1.000000 0.000000
vt 1.000000 1.000000
vt 0.000000 1.000000
vt 0.000000 0.000000
vt 1.000000 0.000000
vt 1.000000 1.000000
vt 0.000000 1.000000
vt 0.000000 0.000000
vt 1.000000 0.000000
vt 1.000000 1.000000
vt 0.000000 1.000000
vt 0.000000 0.000000
vt 1.000000 0.000000
vt 1.000000 1.000000
vt 0.000000 1.000000
vt 0.000000 0.000000
vt 1.000000 0.000000
vt 1.000000 1.000000
vt 0.000000 1.000000
vt 0.000000 0.000000
vt 1.000000 0.000000
vt 1.000000 1.000000
vt 0.000000 1.000000
vt 0.000000 0.000000
vt 1.000000 0.000000
vt 1.000000 1.000000
vt 0.000000 1.000000
vt 0.000000 0.000000
vt 1.000000 0.000000
vt 1.000000 1.000000
vt 0.000000 1.000000
vt 0.000000 0.000000
vt 1.000000 0.000000
vt 1.000000 1.000000
vt 0.000000 1.000000
vt 0.000000 0.000000
vt 1.000000 0.000000
vt 1.000000 1.000000
vt 0.000000 1.000000
vt 0.000000 0.000000
vt 1.000000 0.000000
vt 1.000000 1.000000
vt 0.000000 1.000000
vt 0.000000 0.000000
vt 1.000000 0.000000
vt 1.000000 1.000000
vt 0.000000 1.000000
vt 0.000000 0.000000
vt 1.000000 0.000000
vt 1.000000 1.000000
vt 0.000000 1.000000
vt 0.000000 0.000000
vt 1.000000 0.000000
vt 1.000000 1.000000
vt 0.000000 1.000000
vt 0.000000 0.000000
vt 1.000000 0.000000
vt 1.000000 1.000000
vt 0.000000 1.000000
vt 0.000000 0.000000
vt 1.000000 0.000000
vt 1.000000 1.000000
vt 0.000000 1.000000
vt 0.000000 0.000000
vt 1.000000 0.000000
vt 1.000000 1.000000
vt 0.000000 1.000000
vt 0.000000 0.000000
vt 1.000000 0.000000
vt 1.000000 1.000000
vt 0.000000 1.000000
vt 0.000000 0.000000
vt 1.000000 0.000000
vt 1.000000 1.000000
vt 0.000000 1.000000
vt 0.000000 0.000000
vt 1.000000 0.000000
vt 1.000000 1.000000
vt 0.000000 1.000000
vt 0.000000 0.000000
vt 1.000000 0.000000
vt 1.000000 1.000000
vt 0.000000 1.000000
vt 0.000000 0.000000
vt 1.000000 0.000000
vt 1.000000 1.000000
vt 0.000000 1.000000
vt 0.000000 0.000000
vt 1.000000 0.000000
vt 1.000000 1.000000
vt 0.000000 1.000000
vt 0.000000 0.000000
vt 1.000000 0.000000
vt 1.000000 1.000000
vt 0.000000 1.000000
vt 0.000000 0.000000
vt 1.000000 0.000000
vt 1.000000 1.000000
vt 0.000000 1.000000
vt 0.500000 0.500000
vt 0.000000 0.000000
vt 1.000000 0.000000
vt 0.500000 0.500000
vt 0.000000 1.000000
vt 1.000000 1.000000
vt 0.500000 0.500000
vt 0.000000 0.000000
vt 1.000000 0.000000
vt 0.500000 0.500000
vt 0.000000 1.000000
vt 1.000000 1.000000
vt 0.500000 0.500000
vt 0.000000 0.000000
vt 1.000000 0.000000
vt 0.500000 0.500000
vt 0.000000 1.000000
vt 1.000000 1.000000
vt 0.500000 0.500000
vt 0.000000 0.000000
vt 1.000000 0.000000
vt 0.500000 0.500000
vt 0.000000 1.000000
vt 1.000000 1.000000
vt 0.500000 0.500000
vt 0.000000 0.000000
vt 1.000000 0.000000
vt 0.500000 0.500000
vt 0.000000 1.000000
vt 1.000000 1.000000
vt 0.500000 0.500000
vt 0.000000 0.000000
vt 1.000000 0.000000
vt 0.500000 0.500000
vt 0.000000 1.000000
vt 1.000000 1.000000
vt 0.000000 0.000000
vt 1.000000 0.000000
vt 1.000000 1.000000
vt 0.000000 1.000000
vt 0.000000 0.000000
vt 1.000000 0.000000
vt 1.000000 1.000000
vt 0.000000 1.000000
vt 0.000000 0.000000
vt 1.000000 0.000000
vt 1.000000 1.000000
vt 0.000000 1.000000
vt 0.000000 0.000000
vt 1.000000 0.000000
vt 1.000000 1.000000
vt 0.000000 1.000000
vt 0.000000 0.000000
vt 1.000000 0.000000
vt 1.000000 1.000000
vt 0.000000 1.000000
vt 0.000000 0.000000
vt 1.000000 0.000000
vt 1.000000 1.000000
vt 0.000000 1.000000
vt 0.000000 0.000000
vt 1.000000 0.000000
vt 1.000000 1.000000
vt 0.000000 1.000000
vt 0.500000 0.500000
vt 0.000000 0.000000
vt 1.000000 0.000000
vt 0.500000 0.500000
vt 0.000000 1.000000
vt 1.000000 1.000000
vt 0.500000 0.500000
vt 0.000000 0.000000
vt 1.000000 0.000000
vt 0.500000 0.500000
vt 0.000000 1.000000
vt 1.000000 1.000000
vt 0.500000 0.500000
vt 0.000000 0.000000
vt 1.000000 0.000000
vt 0.500000 0.500000
vt 0.000000 1.000000
vt 1.000000 1.000000
vt 0.500000 0.500000
vt 0.000000 0.000000
vt 1.000000 0.000000
vt 0.500000 0.500000
vt 0.000000 1.000000
vt 1.000000 1.000000
vt 0.500000 0.500000
vt 0.000000 0.000000
vt 1.000000 0.000000
vt 0.500000 0.500000
vt 0.000000 1.000000
vt 1.000000 1.000000
vt 0.500000 0.500000
vt 0.000000 0.000000
vt 1.000000 0.000000
vt 0.500000 0.500000
vt 0.000000 1.000000
vt 1.000000 1.000000
vt 0.500000 0.500000
vt 0.000000 0.000000
vt 1.000000 0.000000
vt 0.500000 0.500000
vt 0.000000 1.000000
vt 1.000000 1.000000
vt 0.000000 0.000000
vt 1.000000 0.000000
vt 1.000000 1.000000
vt 0.000000 1.000000
vt 0.000000 0.000000
vt 1.000000 0.000000
vt 1.000000 1.000000
vt 0.000000 1.000000
vt 0.000000 0.000000
vt 1.000000 0.000000
vt 1.000000 1.000000
vt 0.000000 1.000000
vt 0.000000 0.000000
vt 1.000000 0.000000
vt 1.000000 1.000000
vt 0.000000 1.000000
vt 0.000000 0.000000
vt 1.000000 0.000000
vt 1.000000 1.000000
vt 0.000000 1.000000
vt 0.000000 0.000000
vt 1.000000 0.000000
vt 1.000000 1.000000
vt 0.000000 1.000000
vt 0.000000 0.000000
vt 1.000000 0.000000
vt 1.000000 1.000000
vt 0.000000 1.000000
vt 0.500000 0.500000
vt 0.000000 0.000000
vt 1.000000 0.000000
vt 0.500000 0.500000
vt 0.000000 1.000000
vt 1.000000 1.000000
vt 0.500000 0.500000
vt 0.000000 0.000000
vt 1.000000 0.000000
vt 0.500000 0.500000
vt 0.000000 1.000000
vt 1.000000 1.000000
vt 0.500000 0.500000
vt 0.000000 0.000000
vt 1.000000 0.000000
vt 0.500000 0.500000
vt 0.000000 1.000000
vt 1.000000 1.000000
vt 0.500000 0.500000
vt 0.000000 0.000000
vt 1.000000 0.000000
vt 0.500000 0.500000
vt 0.000000 1.000000
vt 1.000000 1.000000
vt 0.500000 0.500000
vt 0.000000 0.000000
vt 1.000000 0.000000
vt 0.500000 0.500000
vt 0.000000 1.000000
vt 1.000000 1.000000
vt 0.500000 0.500000
vt 0.000000 0.000000
vt 1.000000 0.000000
vt 0.500000 0.500000
vt 0.000000 1.000000
vt 1.000000 1.000000
vt 0.500000 0.500000
vt 0.000000 0.000000
vt 1.000000 0.000000
vt 0.500000 0.500000
vt 0.000000 1.000000
vt 1.000000 1.000000
vt 0.000000 0.000000
vt 1.000000 0.000000
vt 1.000000 1.000000
vt 0.000000 1.000000
vt 0.000000 0.000000
vt 1.000000 0.000000
vt 1.000000 1.000000
vt 0.000000 1.000000
vt 0.000000 0.000000
vt 1.000000 0.000000
vt 1.000000 1.000000
vt 0.000000 1.000000
vt 0.000000 0.000000
vt 1.000000 0.000000
vt 1.000000 1.000000
vt 0.000000 1.000000
vt 0.000000 0.000000
vt 1.000000 0.000000
vt 1.000000 1.000000
vt 0.000000 1.000000
vt 0.000000 0.000000
vt 1.000000 0.000000
vt 1.000000 1.000000
vt 0.000000 1.000000
vt 0.000000 0.000000
vt 1.000000 0.000000
vt 1.000000 1.000000
vt 0.000000 1.000000
vt 0.500000 0.500000
vt 0.000000 0.000000
vt 1.000000 0.000000
vt 0.500000 0.500000
vt 0.000000 1.000000
vt 1.000000 1.000000
vt 0.500000 0.500000
vt 0.000000 0.000000
vt 1.000000 0.000000
vt 0.500000 0.500000
vt 0.000000 1.000000
vt 1.000000 1.000000
vt 0.500000 0.500000
vt 0.000000 0.000000
vt 1.000000 0.000000
vt 0.500000 0.500000
vt 0.000000 1.000000
vt 1.000000 1.000000
vt 0.500000 0.500000
vt 0.000000 0.000000
vt 1.000000 0.000000
vt 0.500000 0.500000
vt 0.000000 1.000000
vt 1.000000 1.000000
vt 0.500000 0.500000
vt 0.000000 0.000000
vt 1.000000 0.000000
vt 0.500000 0.500000
vt 0.000000 1.000000
vt 1.000000 1.000000
vt 0.500000 0.500000
vt 0.000000 0.000000
vt 1.000000 0.000000
vt 0.500000 0.500000
vt 0.000000 1.000000
vt 1.000000 1.000000
vt 0.500000 0.500000
vt 0.000000 0.000000
vt 1.000000 0.000000
vt 0.500000 0.500000
vt 0.000000 1.000000
vt 1.000000 1.000000
vt 0.000000 0.000000
vt 0.000000 0.000000
vt 0.000000 0.000000
vt 0.000000 0.000000
vt 0.000000 0.000000
vt 0.000000 0.000000
vt 0.000000 0.000000
vt 0.000000 0.000000
vt 0.000000 0.000000
vt 0.000000 0.000000
vt 0.000000 0.000000
vt 0.000000 0.000000
vt 0.000000 0.000000
vt 0.000000 0.000000
vt 0.000000 0.000000
vt 0.000000 0.000000
vt 0.000000 0.000000
vt 0.000000 0.000000
vt 0.000000 0.000000
vt 0.000000 0.000000
vt 0.000000 0.000000
vt 0.000000 0.000000
vt 0.000000 0.000000
vt 0.000000 0.000000
vt 0.000000 0.000000
vt 0.000000 0.000000
vt 0.000000 0.000000
vt 0.000000 0.000000
vt 0.000000 0.000000
vt 0.000000 0.000000
vt 0.000000 0.000000
vt 0.000000 0.000000
vt 0.000000 0.000000
vt 0.000000 0.000000
vt 0.000000 0.000000
vt 0.000000 0.000000
vt 0.000000 0.000000
vt 1.000000 0.000000
vt 1.000000 1.000000
vt 0.000000 1.000000
vt 0.000000 0.000000
vt 1.000000 0.000000
vt 1.000000 1.000000
vt 0.000000 1.000000
vt 0.000000 0.000000
vt 1.000000 0.000000
vt 1.000000 1.000000
vt 0.000000 1.000000
vt 0.000000 0.000000
vt 1.000000 0.000000
vt 1.000000 1.000000
vt 0.000000 1.000000
vt 0.000000 0.000000
vt 1.000000 0.000000
vt 1.000000 1.000000
vt 0.000000 1.000000
vt 0.000000 0.000000
vt 1.000000 0.000000
vt 1.000000 1.000000
vt 0.000000 1.000000
vt 0.000000 0.000000
vt 1.000000 0.000000
vt 1.000000 1.000000
vt 0.000000 1.000000
vt 0.000000 0.000000
vt 1.000000 0.000000
vt 1.000000 1.000000
vt 0.000000 1.000000
vt 0.000000 0.000000
vt 1.000000 0.000000
vt 1.000000 1.000000
vt 0.000000 1.000000
vt 0.000000 0.000000
vt 1.000000 0.000000
vt 1.000000 1.000000
vt 0.000000 1.000000
vt 0.000000 0.000000
vt 1.000000 0.000000
vt 1.000000 1.000000
vt 0.000000 1.000000
vt 0.000000 0.000000
vt 1.000000 0.000000
vt 1.000000 1.000000
vt 0.000000 1.000000
vt 0.000000 0.000000
vt 1.000000 0.000000
vt 1.000000 1.000000
vt 0.000000 1.000000
vt 0.000000 0.000000
vt 1.000000 0.000000
vt 1.000000 1.000000
vt 0.000000 1.000000
vt 0.000000 0.000000
vt 1.000000 0.000000
vt 1.000000 1.000000
vt 0.000000 1.000000
vt 0.000000 0.000000
vt 1.000000 0.000000
vt 1.000000 1.000000
vt 0.000000 1.000000
vt 0.000000 0.000000
vt 1.000000 0.000000
vt 1.000000 1.000000
vt 0.000000 1.000000
vt 0.000000 0.000000
vt 1.000000 0.000000
vt 1.000000 1.000000
vt 0.000000 1.000000
vt 0.000000 0.000000
vt 1.000000 0.000000
vt 1.000000 1.000000
vt 0.000000 1.000000
vt 0.000000 0.000000
vt 1.000000 0.000000
vt 1.000000 1.000000
vt 0.000000 1.000000
vt 0.000000 0.000000
vt 1.000000 0.000000
vt 1.000000 1.000000
vt 0.000000 1.000000
vt 0.000000 0.000000
vt 1.000000 0.000000
vt 1.000000 1.000000
vt 0.000000 1.000000
vt 0.000000 0.000000
vt 1.000000 0.000000
vt 1.000000 1.000000
vt 0.000000 1.000000
vt 0.000000 0.000000
vt 1.000000 0.000000
vt 1.000000 1.000000
vt 0.000000 1.000000
vt 0.000000 0.000000
vt 1.000000 0.000000
vt 1.000000 1.000000
vt 0.000000 1.000000
vt 0.000000 0.000000
vt 1.000000 0.000000
vt 1.000000 1.000000
vt 0.000000 1.000000
vt 0.000000 0.000000
vt 1.000000 0.000000
vt 1.000000 1.000000
vt 0.000000 1.000000
vt 0.000000 0.000000
vt 1.000000 0.000000
vt 1.000000 1.000000
vt 0.000000 1.000000
vt 0.000000 0.000000
vt 1.000000 0.000000
vt 1.000000 1.000000
vt 0.000000 1.000000
vt 0.000000 0.000000
vt 1.000000 0.000000
vt 1.000000 1.000000
vt 0.000000 1.000000
vt 0.000000 0.000000
vt 1.000000 0.000000
vt 1.000000 1.000000
vt 0.000000 1.000000
vt 0.000000 0.000000
vt 1.000000 0.000000
vt 1.000000 1.000000
vt 0.000000 1.000000
vt 0.000000 0.000000
vt 1.000000 0.000000
vt 1.000000 1.000000
vt 0.000000 1.000000
vt 0.000000 0.000000
vt 1.000000 0.000000
vt 1.000000 1.000000
vt 0.000000 1.000000
vt 0.000000 0.000000
vt 1.000000 0.000000
vt 1.000000 1.000000
vt 0.000000 1.000000
vt 0.000000 0.000000
vt 1.000000 0.000000
vt 1.000000 1.000000
vt 0.000000 1.000000
vt 0.000000 0.000000
vt 1.000000 0.000000
vt 1.000000 1.000000
vt 0.000000 1.000000
vt 0.000000 0.000000
vt 1.000000 0.000000
vt 1.000000 1.000000
vt 0.000000 1.000000
vt 0.000000 0.000000
vt 1.000000 0.000000
vt 1.000000 1.000000
vt 0.000000 1.000000
vt 0.000000 0.000000
vt 1.000000 0.000000
vt 1.000000 1.000000
vt 0.000000 1.000000
vt 0.000000 0.000000
vt 1.000000 0.000000
vt 1.000000 1.000000
vt 0.000000 1.000000
vt 0.000000 0.000000
vt 1.000000 0.000000
vt 1.000000 1.000000
vt 0.000000 1.000000
vt 0.000000 0.000000
vt 1.000000 0.000000
vt 1.000000 1.000000
vt 0.000000 1.000000
vt 0.000000 0.000000
vt 1.000000 0.000000
vt 1.000000 1.000000
vt 0.000000 1.000000
vt 0.000000 0.000000
vt 1.000000 0.000000
vt 1.000000 1.000000
vt 0.000000 1.000000
vt 0.000000 0.000000
vt 1.000000 0.000000
vt 1.000000 1.000000
vt 0.000000 1.000000
vt 0.000000 0.000000
vt 1.000000 0.000000
vt 1.000000 1.000000
vt 0.000000 1.000000
vt 0.000000 0.000000
vt 1.000000 0.000000
vt 1.000000 1.000000
vt 0.000000 1.000000
vt 0.000000 0.000000
vt 1.000000 0.000000
vt 1.000000 1.000000
vt 0.000000 1.000000
vt 0.000000 0.000000
vt 1.000000 0.000000
vt 1.000000 1.000000
vt 0.000000 1.000000
vt 0.000000 0.000000
vt 1.000000 0.000000
vt 1.000000 1.000000
vt 0.000000 1.000000
vt 0.000000 0.000000
vt 1.000000 0.000000
vt 1.000000 1.000000
vt 0.000000 1.000000
vt 0.000000 0.000000
vt 1.000000 0.000000
vt 1.000000 1.000000
vt 0.000000 1.000000
vt 0.000000 0.000000
vt 1.000000 0.000000
vt 1.000000 1.000000
vt 0.000000 1.000000
vt 0.000000 0.000000
vt 1.000000 0.000000
vt 1.000000 1.000000
vt 0.000000 1.000000
vt 0.000000 0.000000
vt 1.000000 0.000000
vt 1.000000 1.000000
vt 0.000000 1.000000
vt 0.000000 0.000000
vt 1.000000 0.000000
vt 1.000000 1.000000
vt 0.000000 1.000000
vt 0.000000 0.000000
vt 1.000000 0.000000
vt 1.000000 1.000000
vt 0.000000 1.000000
vt 0.000000 0.000000
vt 1.000000 0.000000
vt 1.000000 1.000000
vt 0.000000 1.000000
vt 0.000000 0.000000
vt 1.000000 0.000000
vt 1.000000 1.000000
vt 0.000000 1.000000
vt 0.000000 0.000000
vt 1.000000 0.000000
vt 1.000000 1.000000
vt 0.000000 1.000000
vt 0.000000 0.000000
vt 1.000000 0.000000
vt 1.000000 1.000000
vt 0.000000 1.000000
vt 0.000000 0.000000
vt 1.000000 0.000000
vt 1.000000 1.000000
vt 0.000000 1.000000
vt 0.000000 0.000000
vt 1.000000 0.000000
vt 1.000000 1.000000
vt 0.000000 1.000000
vt 0.000000 0.000000
vt 1.000000 0.000000
vt 1.000000 1.000000
vt 0.000000 1.000000
vt 0.000000 0.000000
vt 1.000000 0.000000
vt 1.000000 1.000000
vt 0.000000 1.000000
vt 0.000000 0.000000
vt 1.000000 0.000000
vt 1.000000 1.000000
vt 0.000000 1.000000
vt 0.000000 0.000000
vt 1.000000 0.000000
vt 1.000000 1.000000
vt 0.000000 1.000000
vt 0.000000 0.000000
vt 1.000000 0.000000
vt 1.000000 1.000000
vt 0.000000 1.000000
vt 0.000000 0.000000
vt 1.000000 0.000000
vt 1.000000 1.000000
vt 0.000000 1.000000
vt 0.000000 0.000000
vt 1.000000 0.000000
vt 1.000000 1.000000
vt 0.000000 1.000000
vt 0.000000 0.000000
vt 1.000000 0.000000
vt 1.000000 1.000000
vt 0.000000 1.000000
vt 0.000000 0.000000
vt 1.000000 0.000000
vt 1.000000 1.000000
vt 0.000000 1.000000
vt 0.000000 0.000000
vt 1.000000 0.000000
vt 1.000000 1.000000
vt 0.000000 1.000000
vt 0.000000 0.000000
vt 1.000000 0.000000
vt 1.000000 1.000000
vt 0.000000 1.000000
vt 0.000000 0.000000
vt 1.000000 0.000000
vt 1.000000 1.000000
vt 0.000000 1.000000
vt 0.000000 0.000000
vt 1.000000 0.000000
vt 1.000000 1.000000
vt 0.000000 1.000000
vt 0.000000 0.000000
vt 1.000000 0.000000
vt 1.000000 1.000000
vt 0.000000 1.000000
vt 0.000000 0.000000
vt 1.000000 0.000000
vt 1.000000 1.000000
vt 0.000000 1.000000
vt 0.000000 0.000000
vt 1.000000 0.000000
vt 1.000000 1.000000
vt 0.000000 1.000000
vt 0.000000 0.000000
vt 1.000000 0.000000
vt 1.000000 1.000000
vt 0.000000 1.000000
vt 0.000000 0.000000
vt 1.000000 0.000000
vt 1.000000 1.000000
vt 0.000000 1.000000
vt 0.000000 0.000000
vt 1.000000 0.000000
vt 1.000000 1.000000
vt 0.000000 1.000000
vt 0.000000 0.000000
vt 1.000000 0.000000
vt 1.000000 1.000000
vt 0.000000 1.000000
vt 0.000000 0.000000
vt 1.000000 0.000000
vt 1.000000 1.000000
vt 0.000000 1.000000
vt 0.000000 0.000000
vt 1.000000 0.000000
vt 1.000000 1.000000
vt 0.000000 1.000000
vt 0.000000 0.000000
vt 1.000000 0.000000
vt 1.000000 1.000000
vt 0.000000 1.000000
vt 0.000000 0.000000
vt 1.000000 0.000000
vt 1.000000 1.000000
vt 0.000000 1.000000
vt 0.000000 0.000000
vt 1.000000 0.000000
vt 1.000000 1.000000
vt 0.000000 1.000000
vt 0.000000 0.000000
vt 1.000000 0.000000
vt 1.000000 1.000000
vt 0.000000 1.000000
vt 0.000000 0.000000
vt 1.000000 0.000000
vt 1.000000 1.000000
vt 0.000000 1.000000
vt 0.000000 0.000000
vt 1.000000 0.000000
vt 1.000000 1.000000
vt 0.000000 1.000000
vt 0.000000 0.000000
vt 1.000000 0.000000
vt 1.000000 1.000000
vt 0.000000 1.000000
vt 0.000000 0.000000
vt 1.000000 0.000000
vt 1.000000 1.000000
vt 0.000000 1.000000
vt 0.000000 0.000000
vt 1.000000 0.000000
vt 1.000000 1.000000
vt 0.000000 1.000000
vt 0.000000 0.000000
vt 1.000000 0.000000
vt 1.000000 1.000000
vt 0.000000 1.000000
vt 0.000000 0.000000
vt 1.000000 0.000000
vt 1.000000 1.000000
vt 0.000000 1.000000
vt 0.000000 0.000000
vt 1.000000 0.000000
vt 1.000000 1.000000
vt 0.000000 1.000000
vt 0.000000 0.000000
vt 1.000000 0.000000
vt 1.000000 1.000000
vt 0.000000 1.000000
vt 0.000000 0.000000
vt 1.000000 0.000000
vt 1.000000 1.000000
vt 0.000000 1.000000
vt 0.000000 0.000000
vt 1.000000 0.000000
vt 1.000000 1.000000
vt 0.000000 1.000000
vt 0.500000 0.500000
vt 0.000000 0.000000
vt 1.000000 0.000000
vt 0.500000 0.500000
vt 0.000000 1.000000
vt 1.000000 1.000000
vt 0.500000 0.500000
vt 0.000000 0.000000
vt 1.000000 0.000000
vt 0.500000 0.500000
vt 0.000000 1.000000
vt 1.000000 1.000000
vt 0.500000 0.500000
vt 0.000000 0.000000
vt 1.000000 0.000000
vt 0.500000 0.500000
vt 0.000000 1.000000
vt 1.000000 1.000000
vt 0.500000 0.500000
vt 0.000000 0.000000
vt 1.000000 0.000000
vt 0.500000 0.500000
vt 0.000000 1.000000
vt 1.000000 1.000000
vt 0.500000 0.500000
vt 0.000000 0.000000
vt 1.000000 0.000000
vt 0.500000 0.500000
vt 0.000000 1.000000
vt 1.000000 1.000000
vt 0.000000 0.000000
vt 1.000000 0.000000
vt 1.000000 1.000000
vt 0.000000 1.000000
vt 0.000000 0.000000
vt 1.000000 0.000000
vt 1.000000 1.000000
vt 0.000000 1.000000
vt 0.000000 0.000000
vt 1.000000 0.000000
vt 1.000000 1.000000
vt 0.000000 1.000000
vt 0.000000 0.000000
vt 1.000000 0.000000
vt 1.000000 1.000000
vt 0.000000 1.000000
vt 0.000000 0.000000
vt 1.000000 0.000000
vt 1.000000 1.000000
vt 0.000000 1.000000
vt 0.500000 0.500000
vt 0.000000 0.000000
vt 1.000000 0.000000
vt 0.500000 0.500000
vt 0.000000 1.000000
vt 1.000000 1.000000
vt 0.500000 0.500000
vt 0.000000 0.000000
vt 1.000000 0.000000
vt 0.500000 0.500000
vt 0.000000 1.000000
vt 1.000000 1.000000
vt 0.500000 0.500000
vt 0.000000 0.000000
vt 1.000000 0.000000
vt 0.500000 0.500000
vt 0.000000 1.000000
vt 1.000000 1.000000
vt 0.500000 0.500000
vt 0.000000 0.000000
vt 1.000000 0.000000
vt 0.500000 0.500000
vt 0.000000 1.000000
vt 1.000000 1.000000
vt 0.500000 0.500000
vt 0.000000 0.000000
vt 1.000000 0.000000
vt 0.500000 0.500000
vt 0.000000 1.000000
vt 1.000000 1.000000
vt 0.000000 0.000000
vt 1.000000 0.000000
vt 1.000000 1.000000
vt 0.000000 1.000000
vt 0.000000 0.000000
vt 1.000000 0.000000
vt 1.000000 1.000000
vt 0.000000 1.000000
vt 0.000000 0.000000
vt 1.000000 0.000000
vt 1.000000 1.000000
vt 0.000000 1.000000
vt 0.000000 0.000000
vt 1.000000 0.000000
vt 1.000000 1.000000
vt 0.000000 1.000000
vt 0.000000 0.000000
vt 1.000000 0.000000
vt 1.000000 1.000000
vt 0.000000 1.000000
vt 0.500000 0.500000
vt 0.000000 0.000000
vt 1.000000 0.000000
vt 0.500000 0.500000
vt 0.000000 1.000000
vt 1.000000 1.000000
vt 0.500000 0.500000
vt 0.000000 0.000000
vt 1.000000 0.000000
vt 0.500000 0.500000
vt 0.000000 1.000000
vt 1.000000 1.000000
vt 0.500000 0.500000
vt 0.000000 0.000000
vt 1.000000 0.000000
vt 0.500000 0.500000
vt 0.000000 1.000000
vt 1.000000 1.000000
vt 0.500000 0.500000
vt 0.000000 0.000000
vt 1.000000 0.000000
vt 0.500000 0.500000
vt 0.000000 1.000000
vt 1.000000 1.000000
vt 0.500000 0.500000
vt 0.000000 0.000000
vt 1.000000 0.000000
vt 0.500000 0.500000
vt 0.000000 1.000000
vt 1.000000 1.000000
vt 0.000000 0.000000
vt 1.000000 0.000000
vt 1.000000 1.000000
vt 0.000000 1.000000
vt 0.000000 0.000000
vt 1.000000 0.000000
vt 1.000000 1.000000
vt 0.000000 1.000000
vt 0.000000 0.000000
vt 1.000000 0.000000
vt 1.000000 1.000000
vt 0.000000 1.000000
vt 0.000000 0.000000
vt 1.000000 0.000000
vt 1.000000 1.000000
vt 0.000000 1.000000
vt 0.000000 0.000000
vt 1.000000 0.000000
vt 1.000000 1.000000
vt 0.000000 1.000000
vt 0.500000 0.500000
vt 0.000000 0.000000
vt 1.000000 0.000000
vt 0.500000 0.500000
vt 0.000000 1.000000
vt 1.000000 1.000000
vt 0.500000 0.500000
vt 0.000000 0.000000
vt 1.000000 0.000000
vt 0.500000 0.500000
vt 0.000000 1.000000
vt 1.000000 1.000000
vt 0.500000 0.500000
vt 0.000000 0.000000
vt 1.000000 0.000000
vt 0.500000 0.500000
vt 0.000000 1.000000
vt 1.000000 1.000000
vt 0.500000 0.500000
vt 0.000000 0.000000
vt 1.000000 0.000000
vt 0.500000 0.500000
vt 0.000000 1.000000
vt 1.000000 1.000000
vt 0.500000 0.500000
vt 0.000000 0.000000
vt 1.000000 0.000000
vt 0.500000 0.500000
vt 0.000000 1.000000
vt 1.000000 1.000000
usemtl Wood
f 1/1 2/2 3/3
f 1/1 3/3 4/4
f 5/5 6/6 7/7
f 5/5 7/7 8/8
f 9/9 10/10 11/11
f 9/9 11/11 12/12
f 13/13 14/14 15/15
f 13/13 15/15 16/16
f 17/17 18/18 19/19
f 17/17 19/19 20/20
f 21/21 22/22 23/23
f 21/21 23/23 24/24
f 25/25 26/26 27/27
f 25/25 27/27 28/28
f 29/29 30/30 31/31
f 29/29 31/31 32/32
f 33/33 34/34 35/35
f 33/33 35/35 36/36
f 37/37 38/38 39/39
f 37/37 39/39 40/40
f 41/41 42/42 43/43
f 41/41 43/43 44/44
f 45/45 46/46 47/47
f 45/45 47/47 48/48
f 49/49 50/50 51/51
f 49/49 51/51 52/52
f 53/53 54/54 55/55
f 53/53 55/55 56/56
f 57/57 58/58 59/59
f 57/57 59/59 60/60
f 61/61 62/62 63/63
f 61/61 63/63 64/64
f 65/65 66/66 67/67
f 65/65 67/67 68/68
f 69/69 70/70 71/71
f 69/69 71/71 72/72
f 73/73 74/74 75/75
f 73/73 75/75 76/76
f 77/77 78/78 79/79
f 77/77 79/79 80/80
f 81/81 82/82 83/83
f 81/81 83/83 84/84
f 85/85 86/86 87/87
f 85/85 87/87 88/88
f 89/89 90/90 91/91
f 89/89 91/91 92/92
f 93/93 94/94 95/95
f 93/93 95/95 96/96
f 97/97 98/98 99/99
f 97/97 99/99 100/100
f 101/101 102/102 103/103
f 101/101 103/103 104/104
f 105/105 106/106 107/107
f 105/105 107/107 108/108
f 109/109 110/110 111/111
f 109/109 111/111 112/112
f 113/113 114/114 115/115
f 113/113 115/115 116/116
f 117/117 118/118 119/119
f 117/117 119/119 120/120
f 121/121 122/122 123/123
f 121/121 123/123 124/124
f 125/125 126/126 127/127
f 125/125 127/127 128/128
f 129/129 130/130 131/131
f 129/129 131/131 132/132
f 133/133 134/134 135/135
f 133/133 135/135 136/136
f 137/137 138/138 139/139
f 137/137 139/139 140/140
f 141/141 142/142 143/143
f 141/141 143/143 144/144
f 145/145 146/146 147/147
f 145/145 147/147 148/148
f 149/149 150/150 151/151
f 149/149 151/151 152/152
f 153/153 154/154 155/155
f 153/153 155/155 156/156
f 157/157 158/158 159/159
f 157/157 159/159 160/160
f 161/161 162/162 163/163
f 161/161 163/163 164/164
f 165/165 166/166 167/167
f 165/165 167/167 168/168
f 169/169 170/170 171/171
f 169/169 171/171 172/172
f 173/173 174/174 175/175
f 173/173 175/175 176/176
f 177/177 178/178 179/179
f 177/177 179/179 180/180
f 181/181 182/182 183/183
f 181/181 183/183 184/184
f 185/185 186/186 187/187
f 185/185 187/187 188/188
f 189/189 190/190 191/191
f 189/189 191/191 192/192
f 193/193 194/194 195/195
f 193/193 195/195 196/196
f 197/197 198/198 199/199
f 197/197 199/199 200/200
f 201/201 202/202 203/203
f 201/201 203/203 204/204
f 205/205 206/206 207/207
f 205/205 207/207 208/208
f 209/209 210/210 211/211
f 209/209 211/211 212/212
f 213/213 214/214 215/215
f 213/213 215/215 216/216
f 217/217 218/218 219/219
f 217/217 219/219 220/220
f 221/221 222/222 223/223
f 221/221 223/223 224/224
f 225/225 226/226 227/227
f 225/225 227/227 228/228
f 229/229 230/230 231/231
f 229/229 231/231 232/232
f 233/233 234/234 235/235
f 233/233 235/235 236/236
f 237/237 238/238 239/239
f 237/237 239/239 240/240
usemtl Rope
f 241/241 242/242 243/243
f 241/241 243/243 244/244
f 245/245 246/246 247/247
f 245/245 247/247 248/248
f 249/249 250/250 251/251
f 249/249 251/251 252/252
f 253/253 254/254 255/255
f 253/253 255/255 256/256
f 257/257 258/258 259/259
f 257/257 259/259 260/260
f 261/261 262/262 263/263
f 261/261 263/263 264/264
f 265/265 266/266 267/267
f 268/268 269/269 270/270
f 271/271 272/272 273/273
f 274/274 275/275 276/276
f 277/277 278/278 279/279
f 280/280 281/281 282/282
f 283/283 284/284 285/285
f 286/286 287/287 288/288
f 289/289 290/290 291/291
f 292/292 293/293 294/294
f 295/295 296/296 297/297
f 298/298 299/299 300/300
usemtl Wood
f 301/301 302/302 303/303
f 301/301 303/303 304/304
f 305/305 306/306 307/307
f 305/305 307/307 308/308
f 309/309 310/310 311/311
f 309/309 311/311 312/312
f 313/313 314/314 315/315
f 313/313 315/315 316/316
f 317/317 318/318 319/319
f 317/317 319/319 320/320
f 321/321 322/322 323/323
f 321/321 323/323 324/324
f 325/325 326/326 327/327
f 325/325 327/327 328/328
f 329/329 330/330 331/331
f 332/332 333/333 334/334
f 335/335 336/336 337/337
f 338/338 339/339 340/340
f 341/341 342/342 343/343
f 344/344 345/345 346/346
f 347/347 348/348 349/349
f 350/350 351/351 352/352
f 353/353 354/354 355/355
f 356/356 357/357 358/358
f 359/359 360/360 361/361
f 362/362 363/363 364/364
f 365/365 366/366 367/367
f 368/368 369/369 370/370
f 371/371 372/372 373/373
f 371/371 373/373 374/374
f 375/375 376/376 377/377
f 375/375 377/377 378/378
f 379/379 380/380 381/381
f 379/379 381/381 382/382
f 383/383 384/384 385/385
f 383/383 385/385 386/386
f 387/387 388/388 389/389
f 387/387 389/389 390/390
f 391/391 392/392 393/393
f 391/391 393/393 394/394
f 395/395 396/396 397/397
f 395/395 397/397 398/398
f 399/399 400/400 401/401
f 402/402 403/403 404/404
f 405/405 406/406 407/407
f 408/408 409/409 410/410
f 411/411 412/412 413/413
f 414/414 415/415 416/416
f 417/417 418/418 419/419
f 420/420 421/421 422/422
f 423/423 424/424 425/425
f 426/426 427/427 428/428
f 429/429 430/430 431/431
f 432/432 433/433 434/434
f 435/435 436/436 437/437
f 438/438 439/439 440/440
f 441/441 442/442 443/443
f 441/441 443/443 444/444
f 445/445 446/446 447/447
f 445/445 447/447 448/448
f 449/449 450/450 451/451
f 449/449 451/451 452/452
f 453/453 454/454 455/455
f 453/453 455/455 456/456
f 457/457 458/458 459/459
f 457/457 459/459 460/460
f 461/461 462/462 463/463
f 461/461 463/463 464/464
f 465/465 466/466 467/467
f 465/465 467/467 468/468
f 469/469 470/470 471/471
f 472/472 473/473 474/474
f 475/475 476/476 477/477
f 478/478 479/479 480/480
f 481/481 482/482 483/483
f 484/484 485/485 486/486
f 487/487 488/488 489/489
f 490/490 491/491 492/492
f 493/493 494/494 495/495
f 496/496 497/497 498/498
f 499/499 500/500 501/501
f 502/502 503/503 504/504
f 505/505 506/506 507/507
f 508/508 509/509 510/510
f 511/511 512/512 513/513
f 516/516 515/515 514/514
f 511/511 514/514 515/515
f 511/511 515/515 512/512
f 512/512 515/515 516/516
f 512/512 516/516 513/513
f 513/513 516/516 514/514
f 513/513 514/514 511/511
f 517/517 518/518 519/519
f 522/522 521/521 520/520
f 517/517 520/520 521/521
f 517/517 521/521 518/518
f 518/518 521/521 522/522
f 518/518 522/522 519/519
f 519/519 522/522 520/520
f 519/519 520/520 517/517
f 523/523 524/524 525/525
f 528/528 527/527 526/526
f 523/523 526/526 527/527
f 523/523 527/527 524/524
f 524/524 527/527 528/528
f 524/524 528/528 525/525
f 525/525 528/528 526/526
f 525/525 526/526 523/523
f 529/529 530/530 531/531
f 534/534 533/533 532/532
f 529/529 532/532 533/533
f 529/529 533/533 530/530
f 530/530 533/533 534/534
f 530/530 534/534 531/531
f 531/531 534/534 532/532
f 531/531 532/532 529/529
f 535/535 536/536 537/537
f 540/540 539/539 538/538
f 535/535 538/538 539/539
f 535/535 539/539 536/536
f 536/536 539/539 540/540
f 536/536 540/540 537/537
f 537/537 540/540 538/538
f 537/537 538/538 535/535
f 541/541 542/542 543/543
f 546/546 545/545 544/544
f 541/541 544/544 545/545
f 541/541 545/545 542/542
f 542/542 545/545 546/546
f 542/542 546/546 543/543
f 543/543 546/546 544/544
f 543/543 544/544 541/541
usemtl Rope
f 547/547 548/548 549/549
f 547/547 549/549 550/550
f 551/551 552/552 553/553
f 551/551 553/553 554/554
f 555/555 556/556 557/557
f 555/555 557/557 558/558
f 559/559 560/560 561/561
f 559/559 561/561 562/562
f 563/563 564/564 565/565
f 563/563 565/565 566/566
f 567/567 568/568 569/569
f 567/567 569/569 570/570
f 571/571 572/572 573/573
f 571/571 573/573 574/574
f 575/575 576/576 577/577
f 575/575 577/577 578/578
f 579/579 580/580 581/581
f 579/579 581/581 582/582
f 583/583 584/584 585/585
f 583/583 585/585 586/586
f 587/587 588/588 589/589
f 587/587 589/589 590/590
f 591/591 592/592 593/593
f 591/591 593/593 594/594
f 595/595 596/596 597/597
f 595/595 597/597 598/598
f 599/599 600/600 601/601
f 599/599 601/601 602/602
f 603/603 604/604 605/605
f 603/603 605/605 606/606
f 607/607 608/608 609/609
f 607/607 609/609 610/610
f 611/611 612/612 613/613
f 611/611 613/613 614/614
f 615/615 616/616 617/617
f 615/615 617/617 618/618
f 619/619 620/620 621/621
f 619/619 621/621 622/622
f 623/623 624/624 625/625
f 623/623 625/625 626/626
f 627/627 628/628 629/629
f 627/627 629/629 630/630
f 631/631 632/632 633/633
f 631/631 633/633 634/634
f 635/635 636/636 637/637
f 635/635 637/637 638/638
f 639/639 640/640 641/641
f 639/639 641/641 642/642
f 643/643 644/644 645/645
f 643/643 645/645 646/646
f 647/647 648/648 649/649
f 647/647 649/649 650/650
f 651/651 652/652 653/653
f 651/651 653/653 654/654
f 655/655 656/656 657/657
f 655/655 657/657 658/658
f 659/659 660/660 661/661
f 659/659 661/661 662/662
f 663/663 664/664 665/665
f 663/663 665/665 666/666
f 667/667 668/668 669/669
f 667/667 669/669 670/670
f 671/671 672/672 673/673
f 671/671 673/673 674/674
f 675/675 676/676 677/677
f 675/675 677/677 678/678
f 679/679 680/680 681/681
f 679/679 681/681 682/682
f 683/683 684/684 685/685
f 683/683 685/685 686/686
f 687/687 688/688 689/689
f 687/687 689/689 690/690
f 691/691 692/692 693/693
f 691/691 693/693 694/694
f 695/695 696/696 697/697
f 695/695 697/697 698/698
f 699/699 700/700 701/701
f 699/699 701/701 702/702
f 703/703 704/704 705/705
f 703/703 705/705 706/706
f 707/707 708/708 709/709
f 707/707 709/709 710/710
f 711/711 712/712 713/713
f 711/711 713/713 714/714
f 715/715 716/716 717/717
f 715/715 717/717 718/718
f 719/719 720/720 721/721
f 719/719 721/721 722/722
f 723/723 724/724 725/725
f 723/723 725/725 726/726
f 727/727 728/728 729/729
f 727/727 729/729 730/730
f 731/731 732/732 733/733
f 731/731 733/733 734/734
f 735/735 736/736 737/737
f 735/735 737/737 738/738
f 739/739 740/740 741/741
f 739/739 741/741 742/742
f 743/743 744/744 745/745
f 743/743 745/745 746/746
f 747/747 748/748 749/749
f 747/747 749/749 750/750
f 751/751 752/752 753/753
f 751/751 753/753 754/754
f 755/755 756/756 757/757
f 755/755 757/757 758/758
f 759/759 760/760 761/761
f 759/759 761/761 762/762
f 763/763 764/764 765/765
f 763/763 765/765 766/766
f 767/767 768/768 769/769
f 767/767 769/769 770/770
f 771/771 772/772 773/773
f 771/771 773/773 774/774
f 775/775 776/776 777/777
f 775/775 777/777 778/778
f 779/779 780/780 781/781
f 779/779 781/781 782/782
f 783/783 784/784 785/785
f 783/783 785/785 786/786
f 787/787 788/788 789/789
f 787/787 789/789 790/790
f 791/791 792/792 793/793
f 791/791 793/793 794/794
f 795/795 796/796 797/797
f 795/795 797/797 798/798
f 799/799 800/800 801/801
f 799/799 801/801 802/802
f 803/803 804/804 805/805
f 803/803 805/805 806/806
f 807/807 808/808 809/809
f 807/807 809/809 810/810
f 811/811 812/812 813/813
f 811/811 813/813 814/814
f 815/815 816/816 817/817
f 815/815 817/817 818/818
f 819/819 820/820 821/821
f 819/819 821/821 822/822
f 823/823 824/824 825/825
f 823/823 825/825 826/826
f 827/827 828/828 829/829
f 827/827 829/829 830/830
f 831/831 832/832 833/833
f 831/831 833/833 834/834
f 835/835 836/836 837/837
f 835/835 837/837 838/838
f 839/839 840/840 841/841
f 839/839 841/841 842/842
f 843/843 844/844 845/845
f 843/843 845/845 846/846
f 847/847 848/848 849/849
f 847/847 849/849 850/850
f 851/851 852/852 853/853
f 851/851 853/853 854/854
f 855/855 856/856 857/857
f 855/855 857/857 858/858
f 859/859 860/860 861/861
f 859/859 861/861 862/862
f 863/863 864/864 865/865
f 863/863 865/865 866/866
f 867/867 868/868 869/869
f 867/867 869/869 870/870
f 871/871 872/872 873/873
f 871/871 873/873 874/874
f 875/875 876/876 877/877
f 875/875 877/877 878/878
f 879/879 880/880 881/881
f 879/879 881/881 882/882
f 883/883 884/884 885/885
f 883/883 885/885 886/886
f 887/887 888/888 889/889
f 887/887 889/889 890/890
f 891/891 892/892 893/893
f 891/891 893/893 894/894
f 895/895 896/896 897/897
f 895/895 897/897 898/898
f 899/899 900/900 901/901
f 899/899 901/901 902/902
f 903/903 904/904 905/905
f 903/903 905/905 906/906
f 907/907 908/908 909/909
f 907/907 909/909 910/910
f 911/911 912/912 913/913
f 911/911 913/913 914/914
f 915/915 916/916 917/917
f 915/915 917/917 918/918
f 919/919 920/920 921/921
f 919/919 921/921 922/922
f 923/923 924/924 925/925
f 923/923 925/925 926/926
f 927/927 928/928 929/929
f 927/927 929/929 930/930
f 931/931 932/932 933/933
f 931/931 933/933 934/934
f 935/935 936/936 937/937
f 935/935 937/937 938/938
f 939/939 940/940 941/941
f 939/939 941/941 942/942
f 943/943 944/944 945/945
f 943/943 945/945 946/946
f 947/947 948/948 949/949
f 947/947 949/949 950/950
f 951/951 952/952 953/953
f 954/954 955/955 956/956
f 957/957 958/958 959/959
f 960/960 961/961 962/962
f 963/963 964/964 965/965
f 966/966 967/967 968/968
f 969/969 970/970 971/971
f 972/972 973/973 974/974
f 975/975 976/976 977/977
f 978/978 979/979 980/980
f 981/981 982/982 983/983
f 981/981 983/983 984/984
f 985/985 986/986 987/987
f 985/985 987/987 988/988
f 989/989 990/990 991/991
f 989/989 991/991 992/992
f 993/993 994/994 995/995
f 993/993 995/995 996/996
f 997/997 998/998 999/999
f 997/997 999/999 1000/1000
f 1001/1001 1002/1002 1003/1003
f 1004/1004 1005/1005 1006/1006
f 1007/1007 1008/1008 1009/1009
f 1010/1010 1011/1011 1012/1012
f 1013/1013 1014/1014 1015/1015
f 1016/1016 1017/1017 1018/1018
f 1019/1019 1020/1020 1021/1021
f 1022/1022 1023/1023 1024/1024
f 1025/1025 1026/1026 1027/1027
f 1028/1028 1029/1029 1030/1030
f 1031/1031 1032/1032 1033/1033
f 1031/1031 1033/1033 1034/1034
f 1035/1035 1036/1036 1037/1037
f 1035/1035 1037/1037 1038/1038
f 1039/1039 1040/1040 1041/1041
f 1039/1039 1041/1041 1042/1042
f 1043/1043 1044/1044 1045/1045
f 1043/1043 1045/1045 1046/1046
f 1047/1047 1048/1048 1049/1049
f 1047/1047 1049/1049 1050/1050
f 1051/1051 1052/1052 1053/1053
f 1054/1054 1055/1055 1056/1056
f 1057/1057 1058/1058 1059/1059
f 1060/1060 1061/1061 1062/1062
f 1063/1063 1064/1064 1065/1065
f 1066/1066 1067/1067 1068/1068
f 1069/1069 1070/1070 1071/1071
f 1072/1072 1073/1073 1074/1074
f 1075/1075 1076/1076 1077/1077
f 1078/1078 1079/1079 1080/1080
f 1081/1081 1082/1082 1083/1083
f 1081/1081 1083/1083 1084/1084
f 1085/1085 1086/1086 1087/1087
f 1085/1085 1087/1087 1088/1088
f 1089/1089 1090/1090 1091/1091
f 1089/1089 1091/1091 1092/1092
f 1093/1093 1094/1094 1095/1095
f 1093/1093 1095/1095 1096/1096
f 1097/1097 1098/1098 1099/1099
f 1097/1097 1099/1099 1100/1100
f 1101/1101 1102/1102 1103/1103
f 1104/1104 1105/1105 1106/1106
f 1107/1107 1108/1108 1109/1109
f 1110/1110 1111/1111 1112/1112
f 1113/1113 1114/1114 1115/1115
f 1116/1116 1117/1117 1118/1118
f 1119/1119 1120/1120 1121/1121
f 1122/1122 1123/1123 1124/1124
f 1125/1125 1126/1126 1127/1127
f 1128/1128 1129/1129 1130/1130
