mtllib ../../Materials/project_oen.mtl
o en-022_path_marker_stakes__cloth_marked
v 0.035000 0.000000 0.000000
v 0.021822 0.000000 0.027364
v 0.021822 1.100000 0.027364
v 0.035000 1.100000 0.000000
v 0.021822 0.000000 0.027364
v -0.007788 0.000000 0.034122
v -0.007788 1.100000 0.034122
v 0.021822 1.100000 0.027364
v -0.007788 0.000000 0.034122
v -0.031534 0.000000 0.015186
v -0.031534 1.100000 0.015186
v -0.007788 1.100000 0.034122
v -0.031534 0.000000 0.015186
v -0.031534 0.000000 -0.015186
v -0.031534 1.100000 -0.015186
v -0.031534 1.100000 0.015186
v -0.031534 0.000000 -0.015186
v -0.007788 0.000000 -0.034122
v -0.007788 1.100000 -0.034122
v -0.031534 1.100000 -0.015186
v -0.007788 0.000000 -0.034122
v 0.021822 0.000000 -0.027364
v 0.021822 1.100000 -0.027364
v -0.007788 1.100000 -0.034122
v 0.021822 0.000000 -0.027364
v 0.035000 0.000000 0.000000
v 0.035000 1.100000 0.000000
v 0.021822 1.100000 -0.027364
v 0.000000 0.000000 0.000000
v 0.021822 0.000000 0.027364
v 0.035000 0.000000 0.000000
v 0.000000 1.100000 0.000000
v 0.035000 1.100000 0.000000
v 0.021822 1.100000 0.027364
v 0.000000 0.000000 0.000000
v -0.007788 0.000000 0.034122
v 0.021822 0.000000 0.027364
v 0.000000 1.100000 0.000000
v 0.021822 1.100000 0.027364
v -0.007788 1.100000 0.034122
v 0.000000 0.000000 0.000000
v -0.031534 0.000000 0.015186
v -0.007788 0.000000 0.034122
v 0.000000 1.100000 0.000000
v -0.007788 1.100000 0.034122
v -0.031534 1.100000 0.015186
v 0.000000 0.000000 0.000000
v -0.031534 0.000000 -0.015186
v -0.031534 0.000000 0.015186
v 0.000000 1.100000 0.000000
v -0.031534 1.100000 0.015186
v -0.031534 1.100000 -0.015186
v 0.000000 0.000000 0.000000
v -0.007788 0.000000 -0.034122
v -0.031534 0.000000 -0.015186
v 0.000000 1.100000 0.000000
v -0.031534 1.100000 -0.015186
v -0.007788 1.100000 -0.034122
v 0.000000 0.000000 0.000000
v 0.021822 0.000000 -0.027364
v -0.007788 0.000000 -0.034122
v 0.000000 1.100000 0.000000
v -0.007788 1.100000 -0.034122
v 0.021822 1.100000 -0.027364
v 0.000000 0.000000 0.000000
v 0.035000 0.000000 0.000000
v 0.021822 0.000000 -0.027364
v 0.000000 1.100000 0.000000
v 0.021822 1.100000 -0.027364
v 0.035000 1.100000 0.000000
v -0.130000 1.012500 -0.035000
v 0.130000 1.012500 -0.035000
v 0.130000 1.067500 -0.035000
v -0.130000 1.067500 -0.035000
v 0.130000 1.012500 0.035000
v -0.130000 1.012500 0.035000
v -0.130000 1.067500 0.035000
v 0.130000 1.067500 0.035000
v -0.130000 1.012500 0.035000
v -0.130000 1.012500 -0.035000
v -0.130000 1.067500 -0.035000
v -0.130000 1.067500 0.035000
v 0.130000 1.012500 -0.035000
v 0.130000 1.012500 0.035000
v 0.130000 1.067500 0.035000
v 0.130000 1.067500 -0.035000
v -0.130000 1.067500 -0.035000
v 0.130000 1.067500 -0.035000
v 0.130000 1.067500 0.035000
v -0.130000 1.067500 0.035000
v -0.130000 1.012500 0.035000
v 0.130000 1.012500 0.035000
v 0.130000 1.012500 -0.035000
v -0.130000 1.012500 -0.035000
v 0.040000 0.910000 -0.010000
v 0.370000 0.870000 -0.010000
v 0.310000 0.620000 -0.010000
v 0.040000 0.670000 -0.010000
v 0.048000 0.880000 -0.000000
v 0.042472 0.880000 -0.007608
v 0.042472 0.650000 -0.007608
v 0.048000 0.650000 0.000000
v 0.042472 0.880000 -0.007608
v 0.033528 0.880000 -0.004702
v 0.033528 0.650000 -0.004702
v 0.042472 0.650000 -0.007608
v 0.033528 0.880000 -0.004702
v 0.033528 0.880000 0.004702
v 0.033528 0.650000 0.004702
v 0.033528 0.650000 -0.004702
v 0.033528 0.880000 0.004702
v 0.042472 0.880000 0.007608
v 0.042472 0.650000 0.007608
v 0.033528 0.650000 0.004702
v 0.042472 0.880000 0.007608
v 0.048000 0.880000 -0.000000
v 0.048000 0.650000 0.000000
v 0.042472 0.650000 0.007608
v 0.040000 0.880000 -0.000000
v 0.042472 0.880000 -0.007608
v 0.048000 0.880000 -0.000000
v 0.040000 0.650000 0.000000
v 0.048000 0.650000 0.000000
v 0.042472 0.650000 -0.007608
v 0.040000 0.880000 -0.000000
v 0.033528 0.880000 -0.004702
v 0.042472 0.880000 -0.007608
v 0.040000 0.650000 0.000000
v 0.042472 0.650000 -0.007608
v 0.033528 0.650000 -0.004702
v 0.040000 0.880000 -0.000000
v 0.033528 0.880000 0.004702
v 0.033528 0.880000 -0.004702
v 0.040000 0.650000 0.000000
v 0.033528 0.650000 -0.004702
v 0.033528 0.650000 0.004702
v 0.040000 0.880000 -0.000000
v 0.042472 0.880000 0.007608
v 0.033528 0.880000 0.004702
v 0.040000 0.650000 0.000000
v 0.033528 0.650000 0.004702
v 0.042472 0.650000 0.007608
v 0.040000 0.880000 -0.000000
v 0.048000 0.880000 -0.000000
v 0.042472 0.880000 0.007608
v 0.040000 0.650000 0.000000
v 0.042472 0.650000 0.007608
v 0.048000 0.650000 0.000000
vt 0.000000 0.000000
vt 1.000000 0.000000
vt 1.000000 1.000000
vt 0.000000 1.000000
vt 0.000000 0.000000
vt 1.000000 0.000000
vt 1.000000 1.000000
vt 0.000000 1.000000
vt 0.000000 0.000000
vt 1.000000 0.000000
vt 1.000000 1.000000
vt 0.000000 1.000000
vt 0.000000 0.000000
vt 1.000000 0.000000
vt 1.000000 1.000000
vt 0.000000 1.000000
vt 0.000000 0.000000
vt 1.000000 0.000000
vt 1.000000 1.000000
vt 0.000000 1.000000
vt 0.000000 0.000000
vt 1.000000 0.000000
vt 1.000000 1.000000
vt 0.000000 1.000000
vt 0.000000 0.000000
vt 1.000000 0.000000
vt 1.000000 1.000000
vt 0.000000 1.000000
vt 0.500000 0.500000
vt 0.000000 0.000000
vt 1.000000 0.000000
vt 0.500000 0.500000
vt 0.000000 1.000000
vt 1.000000 1.000000
vt 0.500000 0.500000
vt 0.000000 0.000000
vt 1.000000 0.000000
vt 0.500000 0.500000
vt 0.000000 1.000000
vt 1.000000 1.000000
vt 0.500000 0.500000
vt 0.000000 0.000000
vt 1.000000 0.000000
vt 0.500000 0.500000
vt 0.000000 1.000000
vt 1.000000 1.000000
vt 0.500000 0.500000
vt 0.000000 0.000000
vt 1.000000 0.000000
vt 0.500000 0.500000
vt 0.000000 1.000000
vt 1.000000 1.000000
vt 0.500000 0.500000
vt 0.000000 0.000000
vt 1.000000 0.000000
vt 0.500000 0.500000
vt 0.000000 1.000000
vt 1.000000 1.000000
vt 0.500000 0.500000
vt 0.000000 0.000000
vt 1.000000 0.000000
vt 0.500000 0.500000
vt 0.000000 1.000000
vt 1.000000 1.000000
vt 0.500000 0.500000
vt 0.000000 0.000000
vt 1.000000 0.000000
vt 0.500000 0.500000
vt 0.000000 1.000000
vt 1.000000 1.000000
vt 0.000000 0.000000
vt 1.000000 0.000000
vt 1.000000 1.000000
vt 0.000000 1.000000
vt 0.000000 0.000000
vt 1.000000 0.000000
vt 1.000000 1.000000
vt 0.000000 1.000000
vt 0.000000 0.000000
vt 1.000000 0.000000
vt 1.000000 1.000000
vt 0.000000 1.000000
vt 0.000000 0.000000
vt 1.000000 0.000000
vt 1.000000 1.000000
vt 0.000000 1.000000
vt 0.000000 0.000000
vt 1.000000 0.000000
vt 1.000000 1.000000
vt 0.000000 1.000000
vt 0.000000 0.000000
vt 1.000000 0.000000
vt 1.000000 1.000000
vt 0.000000 1.000000
vt 0.000000 0.000000
vt 1.000000 0.000000
vt 1.000000 1.000000
vt 0.000000 1.000000
vt 0.000000 0.000000
vt 1.000000 0.000000
vt 1.000000 1.000000
vt 0.000000 1.000000
vt 0.000000 0.000000
vt 1.000000 0.000000
vt 1.000000 1.000000
vt 0.000000 1.000000
vt 0.000000 0.000000
vt 1.000000 0.000000
vt 1.000000 1.000000
vt 0.000000 1.000000
vt 0.000000 0.000000
vt 1.000000 0.000000
vt 1.000000 1.000000
vt 0.000000 1.000000
vt 0.000000 0.000000
vt 1.000000 0.000000
vt 1.000000 1.000000
vt 0.000000 1.000000
vt 0.500000 0.500000
vt 0.000000 0.000000
vt 1.000000 0.000000
vt 0.500000 0.500000
vt 0.000000 1.000000
vt 1.000000 1.000000
vt 0.500000 0.500000
vt 0.000000 0.000000
vt 1.000000 0.000000
vt 0.500000 0.500000
vt 0.000000 1.000000
vt 1.000000 1.000000
vt 0.500000 0.500000
vt 0.000000 0.000000
vt 1.000000 0.000000
vt 0.500000 0.500000
vt 0.000000 1.000000
vt 1.000000 1.000000
vt 0.500000 0.500000
vt 0.000000 0.000000
vt 1.000000 0.000000
vt 0.500000 0.500000
vt 0.000000 1.000000
vt 1.000000 1.000000
vt 0.500000 0.500000
vt 0.000000 0.000000
vt 1.000000 0.000000
vt 0.500000 0.500000
vt 0.000000 1.000000
vt 1.000000 1.000000
usemtl Wood
f 1/1 2/2 3/3
f 1/1 3/3 4/4
f 5/5 6/6 7/7
f 5/5 7/7 8/8
f 9/9 10/10 11/11
f 9/9 11/11 12/12
f 13/13 14/14 15/15
f 13/13 15/15 16/16
f 17/17 18/18 19/19
f 17/17 19/19 20/20
f 21/21 22/22 23/23
f 21/21 23/23 24/24
f 25/25 26/26 27/27
f 25/25 27/27 28/28
f 29/29 30/30 31/31
f 32/32 33/33 34/34
f 35/35 36/36 37/37
f 38/38 39/39 40/40
f 41/41 42/42 43/43
f 44/44 45/45 46/46
f 47/47 48/48 49/49
f 50/50 51/51 52/52
f 53/53 54/54 55/55
f 56/56 57/57 58/58
f 59/59 60/60 61/61
f 62/62 63/63 64/64
f 65/65 66/66 67/67
f 68/68 69/69 70/70
f 71/71 72/72 73/73
f 71/71 73/73 74/74
f 75/75 76/76 77/77
f 75/75 77/77 78/78
f 79/79 80/80 81/81
f 79/79 81/81 82/82
f 83/83 84/84 85/85
f 83/83 85/85 86/86
f 87/87 88/88 89/89
f 87/87 89/89 90/90
f 91/91 92/92 93/93
f 91/91 93/93 94/94
usemtl Cloth
f 95/95 96/96 97/97
f 95/95 97/97 98/98
usemtl Rope
f 99/99 100/100 101/101
f 99/99 101/101 102/102
f 103/103 104/104 105/105
f 103/103 105/105 106/106
f 107/107 108/108 109/109
f 107/107 109/109 110/110
f 111/111 112/112 113/113
f 111/111 113/113 114/114
f 115/115 116/116 117/117
f 115/115 117/117 118/118
f 119/119 120/120 121/121
f 122/122 123/123 124/124
f 125/125 126/126 127/127
f 128/128 129/129 130/130
f 131/131 132/132 133/133
f 134/134 135/135 136/136
f 137/137 138/138 139/139
f 140/140 141/141 142/142
f 143/143 144/144 145/145
f 146/146 147/147 148/148
