mtllib ../../Materials/project_oen.mtl
o en-009_broadleaf_bush_set__dense
v -0.700526 0.236729 -0.068449
v -0.226432 0.400741 0.198358
v 0.331199 0.479615 0.273708
v -0.142895 0.315603 0.006901
v -0.142895 0.315603 0.006901
v 0.331199 0.479615 0.273708
v -0.226432 0.400741 0.198358
v -0.700526 0.236729 -0.068449
v -0.460063 0.110016 0.305127
v -0.299657 0.160861 -0.271525
v -0.292019 0.116743 -0.870557
v -0.452424 0.065898 -0.293904
v -0.452424 0.065898 -0.293904
v -0.292019 0.116743 -0.870557
v -0.299657 0.160861 -0.271525
v -0.460063 0.110016 0.305127
v 0.733195 0.115012 -0.826027
v 0.505007 0.102999 -0.279908
v 0.503998 0.044070 0.309147
v 0.732185 0.056084 -0.236972
v 0.732185 0.056084 -0.236972
v 0.503998 0.044070 0.309147
v 0.505007 0.102999 -0.279908
v 0.733195 0.115012 -0.826027
v -0.797162 0.322932 -0.279755
v -0.417524 0.146869 0.128929
v 0.127993 0.000915 0.281424
v -0.251645 0.176977 -0.127260
v -0.251645 0.176977 -0.127260
v 0.127993 0.000915 0.281424
v -0.417524 0.146869 0.128929
v -0.797162 0.322932 -0.279755
v -0.294222 0.339178 0.180170
v -0.358863 0.290736 -0.277078
v -0.586510 0.255738 -0.680257
v -0.521870 0.304181 -0.223009
v -0.521870 0.304181 -0.223009
v -0.586510 0.255738 -0.680257
v -0.358863 0.290736 -0.277078
v -0.294222 0.339178 0.180170
v -0.127820 0.157240 0.471495
v 0.263433 0.142744 0.273722
v 0.551331 0.125778 -0.056779
v 0.160078 0.140274 0.140995
v 0.160078 0.140274 0.140995
v 0.551331 0.125778 -0.056779
v 0.263433 0.142744 0.273722
v -0.127820 0.157240 0.471495
v -0.300716 0.277962 0.203729
v -0.487049 0.315424 -0.186471
v -0.870887 0.306247 -0.388866
v -0.684554 0.268785 0.001334
v -0.684554 0.268785 0.001334
v -0.870887 0.306247 -0.388866
v -0.487049 0.315424 -0.186471
v -0.300716 0.277962 0.203729
v 0.315365 0.113153 -0.792226
v -0.125171 0.179059 -0.490252
v -0.378967 0.304231 -0.032514
v 0.061568 0.238325 -0.334489
v 0.061568 0.238325 -0.334489
v -0.378967 0.304231 -0.032514
v -0.125171 0.179059 -0.490252
v 0.315365 0.113153 -0.792226
v -0.342844 0.426645 -0.296705
v 0.126978 0.359031 -0.125246
v 0.626706 0.305628 -0.171310
v 0.156885 0.373242 -0.342769
v 0.156885 0.373242 -0.342769
v 0.626706 0.305628 -0.171310
v 0.126978 0.359031 -0.125246
v -0.342844 0.426645 -0.296705
v 0.144970 0.530223 -0.498213
v 0.170183 0.505324 0.108237
v 0.453176 0.478285 0.645099
v 0.427962 0.503184 0.038649
v 0.427962 0.503184 0.038649
v 0.453176 0.478285 0.645099
v 0.170183 0.505324 0.108237
v 0.144970 0.530223 -0.498213
v 0.364941 0.448711 -0.076927
v -0.160424 0.531686 -0.360890
v -0.752249 0.589664 -0.460438
v -0.226884 0.506690 -0.176474
v -0.226884 0.506690 -0.176474
v -0.752249 0.589664 -0.460438
v -0.160424 0.531686 -0.360890
v 0.364941 0.448711 -0.076927
v -0.358425 0.242812 -0.520297
v 0.024257 0.099651 -0.376379
v 0.451158 0.094056 -0.449715
v 0.068475 0.237216 -0.593633
v 0.068475 0.237216 -0.593633
v 0.451158 0.094056 -0.449715
v 0.024257 0.099651 -0.376379
v -0.358425 0.242812 -0.520297
v 0.951444 0.371444 -0.131598
v 0.543540 0.366482 0.065907
v 0.236824 0.279493 0.388051
v 0.644728 0.284456 0.190546
v 0.644728 0.284456 0.190546
v 0.236824 0.279493 0.388051
v 0.543540 0.366482 0.065907
v 0.951444 0.371444 -0.131598
v 0.937519 0.311079 -0.611199
v 0.599607 0.397636 -0.094706
v 0.405286 0.419678 0.497066
v 0.743198 0.333120 -0.019426
v 0.743198 0.333120 -0.019426
v 0.405286 0.419678 0.497066
v 0.599607 0.397636 -0.094706
v 0.937519 0.311079 -0.611199
v 0.408594 0.305192 0.102956
v 0.422415 0.315458 -0.330680
v 0.281690 0.272600 -0.738966
v 0.267870 0.262334 -0.305329
v 0.267870 0.262334 -0.305329
v 0.281690 0.272600 -0.738966
v 0.422415 0.315458 -0.330680
v 0.408594 0.305192 0.102956
vt 0.000000 0.000000
vt 1.000000 0.000000
vt 1.000000 1.000000
vt 0.000000 1.000000
vt 0.000000 0.000000
vt 1.000000 0.000000
vt 1.000000 1.000000
vt 0.000000 1.000000
vt 0.000000 0.000000
vt 1.000000 0.000000
vt 1.000000 1.000000
vt 0.000000 1.000000
vt 0.000000 0.000000
vt 1.000000 0.000000
vt 1.000000 1.000000
vt 0.000000 1.000000
vt 0.000000 0.000000
vt 1.000000 0.000000
vt 1.000000 1.000000
vt 0.000000 1.000000
vt 0.000000 0.000000
vt 1.000000 0.000000
vt 1.000000 1.000000
vt 0.000000 1.000000
vt 0.000000 0.000000
vt 1.000000 0.000000
vt 1.000000 1.000000
vt 0.000000 1.000000
vt 0.000000 0.000000
vt 1.000000 0.000000
vt 1.000000 1.000000
vt 0.000000 1.000000
vt 0.000000 0.000000
vt 1.000000 0.000000
vt 1.000000 1.000000
vt 0.000000 1.000000
vt 0.000000 0.000000
vt 1.000000 0.000000
vt 1.000000 1.000000
vt 0.000000 1.000000
vt 0.000000 0.000000
vt 1.000000 0.000000
vt 1.000000 1.000000
vt 0.000000 1.000000
vt 0.000000 0.000000
vt 1.000000 0.000000
vt 1.000000 1.000000
vt 0.000000 1.000000
vt 0.000000 0.000000
vt 1.000000 0.000000
vt 1.000000 1.000000
vt 0.000000 1.000000
vt 0.000000 0.000000
vt 1.000000 0.000000
vt 1.000000 1.000000
vt 0.000000 1.000000
vt 0.000000 0.000000
vt 1.000000 0.000000
vt 1.000000 1.000000
vt 0.000000 1.000000
vt 0.000000 0.000000
vt 1.000000 0.000000
vt 1.000000 1.000000
vt 0.000000 1.000000
vt 0.000000 0.000000
vt 1.000000 0.000000
vt 1.000000 1.000000
vt 0.000000 1.000000
vt 0.000000 0.000000
vt 1.000000 0.000000
vt 1.000000 1.000000
vt 0.000000 1.000000
vt 0.000000 0.000000
vt 1.000000 0.000000
vt 1.000000 1.000000
vt 0.000000 1.000000
vt 0.000000 0.000000
vt 1.000000 0.000000
vt 1.000000 1.000000
vt 0.000000 1.000000
vt 0.000000 0.000000
vt 1.000000 0.000000
vt 1.000000 1.000000
vt 0.000000 1.000000
vt 0.000000 0.000000
vt 1.000000 0.000000
vt 1.000000 1.000000
vt 0.000000 1.000000
vt 0.000000 0.000000
vt 1.000000 0.000000
vt 1.000000 1.000000
vt 0.000000 1.000000
vt 0.000000 0.000000
vt 1.000000 0.000000
vt 1.000000 1.000000
vt 0.000000 1.000000
vt 0.000000 0.000000
vt 1.000000 0.000000
vt 1.000000 1.000000
vt 0.000000 1.000000
vt 0.000000 0.000000
vt 1.000000 0.000000
vt 1.000000 1.000000
vt 0.000000 1.000000
vt 0.000000 0.000000
vt 1.000000 0.000000
vt 1.000000 1.000000
vt 0.000000 1.000000
vt 0.000000 0.000000
vt 1.000000 0.000000
vt 1.000000 1.000000
vt 0.000000 1.000000
vt 0.000000 0.000000
vt 1.000000 0.000000
vt 1.000000 1.000000
vt 0.000000 1.000000
vt 0.000000 0.000000
vt 1.000000 0.000000
vt 1.000000 1.000000
vt 0.000000 1.000000
usemtl Leaf
f 1/1 2/2 3/3
f 1/1 3/3 4/4
f 5/5 6/6 7/7
f 5/5 7/7 8/8
f 9/9 10/10 11/11
f 9/9 11/11 12/12
f 13/13 14/14 15/15
f 13/13 15/15 16/16
f 17/17 18/18 19/19
f 17/17 19/19 20/20
f 21/21 22/22 23/23
f 21/21 23/23 24/24
f 25/25 26/26 27/27
f 25/25 27/27 28/28
f 29/29 30/30 31/31
f 29/29 31/31 32/32
f 33/33 34/34 35/35
f 33/33 35/35 36/36
f 37/37 38/38 39/39
f 37/37 39/39 40/40
f 41/41 42/42 43/43
f 41/41 43/43 44/44
f 45/45 46/46 47/47
f 45/45 47/47 48/48
f 49/49 50/50 51/51
f 49/49 51/51 52/52
f 53/53 54/54 55/55
f 53/53 55/55 56/56
f 57/57 58/58 59/59
f 57/57 59/59 60/60
f 61/61 62/62 63/63
f 61/61 63/63 64/64
f 65/65 66/66 67/67
f 65/65 67/67 68/68
f 69/69 70/70 71/71
f 69/69 71/71 72/72
f 73/73 74/74 75/75
f 73/73 75/75 76/76
f 77/77 78/78 79/79
f 77/77 79/79 80/80
f 81/81 82/82 83/83
f 81/81 83/83 84/84
f 85/85 86/86 87/87
f 85/85 87/87 88/88
f 89/89 90/90 91/91
f 89/89 91/91 92/92
f 93/93 94/94 95/95
f 93/93 95/95 96/96
f 97/97 98/98 99/99
f 97/97 99/99 100/100
f 101/101 102/102 103/103
f 101/101 103/103 104/104
f 105/105 106/106 107/107
f 105/105 107/107 108/108
f 109/109 110/110 111/111
f 109/109 111/111 112/112
f 113/113 114/114 115/115
f 113/113 115/115 116/116
f 117/117 118/118 119/119
f 117/117 119/119 120/120
