mtllib ../../Materials/project_oen.mtl
o en-024_camp_boundary_rope_set__slack
v -0.665000 0.000000 0.000000
v -0.678178 0.000000 0.027364
v -0.678178 0.800000 0.027364
v -0.665000 0.800000 0.000000
v -0.678178 0.000000 0.027364
v -0.707788 0.000000 0.034122
v -0.707788 0.800000 0.034122
v -0.678178 0.800000 0.027364
v -0.707788 0.000000 0.034122
v -0.731534 0.000000 0.015186
v -0.731534 0.800000 0.015186
v -0.707788 0.800000 0.034122
v -0.731534 0.000000 0.015186
v -0.731534 0.000000 -0.015186
v -0.731534 0.800000 -0.015186
v -0.731534 0.800000 0.015186
v -0.731534 0.000000 -0.015186
v -0.707788 0.000000 -0.034122
v -0.707788 0.800000 -0.034122
v -0.731534 0.800000 -0.015186
v -0.707788 0.000000 -0.034122
v -0.678178 0.000000 -0.027364
v -0.678178 0.800000 -0.027364
v -0.707788 0.800000 -0.034122
v -0.678178 0.000000 -0.027364
v -0.665000 0.000000 0.000000
v -0.665000 0.800000 0.000000
v -0.678178 0.800000 -0.027364
v -0.700000 0.000000 0.000000
v -0.678178 0.000000 0.027364
v -0.665000 0.000000 0.000000
v -0.700000 0.800000 0.000000
v -0.665000 0.800000 0.000000
v -0.678178 0.800000 0.027364
v -0.700000 0.000000 0.000000
v -0.707788 0.000000 0.034122
v -0.678178 0.000000 0.027364
v -0.700000 0.800000 0.000000
v -0.678178 0.800000 0.027364
v -0.707788 0.800000 0.034122
v -0.700000 0.000000 0.000000
v -0.731534 0.000000 0.015186
v -0.707788 0.000000 0.034122
v -0.700000 0.800000 0.000000
v -0.707788 0.800000 0.034122
v -0.731534 0.800000 0.015186
v -0.700000 0.000000 0.000000
v -0.731534 0.000000 -0.015186
v -0.731534 0.000000 0.015186
v -0.700000 0.800000 0.000000
v -0.731534 0.800000 0.015186
v -0.731534 0.800000 -0.015186
v -0.700000 0.000000 0.000000
v -0.707788 0.000000 -0.034122
v -0.731534 0.000000 -0.015186
v -0.700000 0.800000 0.000000
v -0.731534 0.800000 -0.015186
v -0.707788 0.800000 -0.034122
v -0.700000 0.000000 0.000000
v -0.678178 0.000000 -0.027364
v -0.707788 0.000000 -0.034122
v -0.700000 0.800000 0.000000
v -0.707788 0.800000 -0.034122
v -0.678178 0.800000 -0.027364
v -0.700000 0.000000 0.000000
v -0.665000 0.000000 0.000000
v -0.678178 0.000000 -0.027364
v -0.700000 0.800000 0.000000
v -0.678178 0.800000 -0.027364
v -0.665000 0.800000 0.000000
v 0.735000 0.000000 0.000000
v 0.721822 0.000000 0.027364
v 0.721822 0.800000 0.027364
v 0.735000 0.800000 0.000000
v 0.721822 0.000000 0.027364
v 0.692212 0.000000 0.034122
v 0.692212 0.800000 0.034122
v 0.721822 0.800000 0.027364
v 0.692212 0.000000 0.034122
v 0.668466 0.000000 0.015186
v 0.668466 0.800000 0.015186
v 0.692212 0.800000 0.034122
v 0.668466 0.000000 0.015186
v 0.668466 0.000000 -0.015186
v 0.668466 0.800000 -0.015186
v 0.668466 0.800000 0.015186
v 0.668466 0.000000 -0.015186
v 0.692212 0.000000 -0.034122
v 0.692212 0.800000 -0.034122
v 0.668466 0.800000 -0.015186
v 0.692212 0.000000 -0.034122
v 0.721822 0.000000 -0.027364
v 0.721822 0.800000 -0.027364
v 0.692212 0.800000 -0.034122
v 0.721822 0.000000 -0.027364
v 0.735000 0.000000 0.000000
v 0.735000 0.800000 0.000000
v 0.721822 0.800000 -0.027364
v 0.700000 0.000000 0.000000
v 0.721822 0.000000 0.027364
v 0.735000 0.000000 0.000000
v 0.700000 0.800000 0.000000
v 0.735000 0.800000 0.000000
v 0.721822 0.800000 0.027364
v 0.700000 0.000000 0.000000
v 0.692212 0.000000 0.034122
v 0.721822 0.000000 0.027364
v 0.700000 0.800000 0.000000
v 0.721822 0.800000 0.027364
v 0.692212 0.800000 0.034122
v 0.700000 0.000000 0.000000
v 0.668466 0.000000 0.015186
v 0.692212 0.000000 0.034122
v 0.700000 0.800000 0.000000
v 0.692212 0.800000 0.034122
v 0.668466 0.800000 0.015186
v 0.700000 0.000000 0.000000
v 0.668466 0.000000 -0.015186
v 0.668466 0.000000 0.015186
v 0.700000 0.800000 0.000000
v 0.668466 0.800000 0.015186
v 0.668466 0.800000 -0.015186
v 0.700000 0.000000 0.000000
v 0.692212 0.000000 -0.034122
v 0.668466 0.000000 -0.015186
v 0.700000 0.800000 0.000000
v 0.668466 0.800000 -0.015186
v 0.692212 0.800000 -0.034122
v 0.700000 0.000000 0.000000
v 0.721822 0.000000 -0.027364
v 0.692212 0.000000 -0.034122
v 0.700000 0.800000 0.000000
v 0.692212 0.800000 -0.034122
v 0.721822 0.800000 -0.027364
v 0.700000 0.000000 0.000000
v 0.735000 0.000000 0.000000
v 0.721822 0.000000 -0.027364
v 0.700000 0.800000 0.000000
v 0.721822 0.800000 -0.027364
v 0.735000 0.800000 0.000000
v -0.454315 0.560016 -0.165285
v -0.464765 0.564699 -0.169345
v -0.604537 0.556712 0.181226
v -0.594087 0.552029 0.185285
v -0.464765 0.564699 -0.169345
v -0.467947 0.576381 -0.170347
v -0.607719 0.568394 0.180223
v -0.604537 0.556712 0.181226
v -0.467947 0.576381 -0.170347
v -0.461466 0.586265 -0.167538
v -0.601238 0.578278 0.183033
v -0.607719 0.568394 0.180223
v -0.461466 0.586265 -0.167538
v -0.450202 0.586908 -0.163033
v -0.589974 0.578921 0.187538
v -0.601238 0.578278 0.183033
v -0.450202 0.586908 -0.163033
v -0.442637 0.577827 -0.160223
v -0.582409 0.569840 0.190347
v -0.589974 0.578921 0.187538
v -0.442637 0.577827 -0.160223
v -0.444468 0.565859 -0.161226
v -0.584240 0.557872 0.189345
v -0.582409 0.569840 0.190347
v -0.444468 0.565859 -0.161226
v -0.454315 0.560016 -0.165285
v -0.594087 0.552029 0.185285
v -0.584240 0.557872 0.189345
v -0.455114 0.573993 -0.165285
v -0.464765 0.564699 -0.169345
v -0.454315 0.560016 -0.165285
v -0.594886 0.566007 0.185285
v -0.594087 0.552029 0.185285
v -0.604537 0.556712 0.181226
v -0.455114 0.573993 -0.165285
v -0.467947 0.576381 -0.170347
v -0.464765 0.564699 -0.169345
v -0.594886 0.566007 0.185285
v -0.604537 0.556712 0.181226
v -0.607719 0.568394 0.180223
v -0.455114 0.573993 -0.165285
v -0.461466 0.586265 -0.167538
v -0.467947 0.576381 -0.170347
v -0.594886 0.566007 0.185285
v -0.607719 0.568394 0.180223
v -0.601238 0.578278 0.183033
v -0.455114 0.573993 -0.165285
v -0.450202 0.586908 -0.163033
v -0.461466 0.586265 -0.167538
v -0.594886 0.566007 0.185285
v -0.601238 0.578278 0.183033
v -0.589974 0.578921 0.187538
v -0.455114 0.573993 -0.165285
v -0.442637 0.577827 -0.160223
v -0.450202 0.586908 -0.163033
v -0.594886 0.566007 0.185285
v -0.589974 0.578921 0.187538
v -0.582409 0.569840 0.190347
v -0.455114 0.573993 -0.165285
v -0.444468 0.565859 -0.161226
v -0.442637 0.577827 -0.160223
v -0.594886 0.566007 0.185285
v -0.582409 0.569840 0.190347
v -0.584240 0.557872 0.189345
v -0.455114 0.573993 -0.165285
v -0.454315 0.560016 -0.165285
v -0.444468 0.565859 -0.161226
v -0.594886 0.566007 0.185285
v -0.584240 0.557872 0.189345
v -0.594087 0.552029 0.185285
v -0.145848 0.454311 -0.165285
v -0.156318 0.460189 -0.167132
v -0.216220 0.463612 0.183439
v -0.205750 0.457734 0.185285
v -0.156318 0.460189 -0.167132
v -0.158303 0.472166 -0.167588
v -0.218205 0.475589 0.182983
v -0.216220 0.463612 0.183439
v -0.158303 0.472166 -0.167588
v -0.150307 0.481223 -0.166310
v -0.210209 0.484646 0.184261
v -0.218205 0.475589 0.182983
v -0.150307 0.481223 -0.166310
v -0.138352 0.480540 -0.164261
v -0.198254 0.483963 0.186310
v -0.210209 0.484646 0.184261
v -0.138352 0.480540 -0.164261
v -0.131440 0.470631 -0.162983
v -0.191342 0.474054 0.187588
v -0.198254 0.483963 0.186310
v -0.131440 0.470631 -0.162983
v -0.134776 0.458958 -0.163439
v -0.194678 0.462381 0.187132
v -0.191342 0.474054 0.187588
v -0.134776 0.458958 -0.163439
v -0.145848 0.454311 -0.165285
v -0.205750 0.457734 0.185285
v -0.194678 0.462381 0.187132
v -0.145049 0.468289 -0.165285
v -0.156318 0.460189 -0.167132
v -0.145848 0.454311 -0.165285
v -0.204951 0.471711 0.185285
v -0.205750 0.457734 0.185285
v -0.216220 0.463612 0.183439
v -0.145049 0.468289 -0.165285
v -0.158303 0.472166 -0.167588
v -0.156318 0.460189 -0.167132
v -0.204951 0.471711 0.185285
v -0.216220 0.463612 0.183439
v -0.218205 0.475589 0.182983
v -0.145049 0.468289 -0.165285
v -0.150307 0.481223 -0.166310
v -0.158303 0.472166 -0.167588
v -0.204951 0.471711 0.185285
v -0.218205 0.475589 0.182983
v -0.210209 0.484646 0.184261
v -0.145049 0.468289 -0.165285
v -0.138352 0.480540 -0.164261
v -0.150307 0.481223 -0.166310
v -0.204951 0.471711 0.185285
v -0.210209 0.484646 0.184261
v -0.198254 0.483963 0.186310
v -0.145049 0.468289 -0.165285
v -0.131440 0.470631 -0.162983
v -0.138352 0.480540 -0.164261
v -0.204951 0.471711 0.185285
v -0.198254 0.483963 0.186310
v -0.191342 0.474054 0.187588
v -0.145049 0.468289 -0.165285
v -0.134776 0.458958 -0.163439
v -0.131440 0.470631 -0.162983
v -0.204951 0.471711 0.185285
v -0.191342 0.474054 0.187588
v -0.194678 0.462381 0.187132
v -0.145049 0.468289 -0.165285
v -0.145848 0.454311 -0.165285
v -0.134776 0.458958 -0.163439
v -0.204951 0.471711 0.185285
v -0.194678 0.462381 0.187132
v -0.205750 0.457734 0.185285
v 0.144250 0.457734 -0.185285
v 0.133780 0.463612 -0.183439
v 0.193682 0.460189 0.167132
v 0.204152 0.454311 0.165285
v 0.133780 0.463612 -0.183439
v 0.131795 0.475589 -0.182983
v 0.191697 0.472166 0.167588
v 0.193682 0.460189 0.167132
v 0.131795 0.475589 -0.182983
v 0.139791 0.484646 -0.184261
v 0.199693 0.481223 0.166310
v 0.191697 0.472166 0.167588
v 0.139791 0.484646 -0.184261
v 0.151746 0.483963 -0.186310
v 0.211648 0.480540 0.164261
v 0.199693 0.481223 0.166310
v 0.151746 0.483963 -0.186310
v 0.158658 0.474054 -0.187588
v 0.218560 0.470631 0.162983
v 0.211648 0.480540 0.164261
v 0.158658 0.474054 -0.187588
v 0.155322 0.462381 -0.187132
v 0.215224 0.458958 0.163439
v 0.218560 0.470631 0.162983
v 0.155322 0.462381 -0.187132
v 0.144250 0.457734 -0.185285
v 0.204152 0.454311 0.165285
v 0.215224 0.458958 0.163439
v 0.145049 0.471711 -0.185285
v 0.133780 0.463612 -0.183439
v 0.144250 0.457734 -0.185285
v 0.204951 0.468289 0.165285
v 0.204152 0.454311 0.165285
v 0.193682 0.460189 0.167132
v 0.145049 0.471711 -0.185285
v 0.131795 0.475589 -0.182983
v 0.133780 0.463612 -0.183439
v 0.204951 0.468289 0.165285
v 0.193682 0.460189 0.167132
v 0.191697 0.472166 0.167588
v 0.145049 0.471711 -0.185285
v 0.139791 0.484646 -0.184261
v 0.131795 0.475589 -0.182983
v 0.204951 0.468289 0.165285
v 0.191697 0.472166 0.167588
v 0.199693 0.481223 0.166310
v 0.145049 0.471711 -0.185285
v 0.151746 0.483963 -0.186310
v 0.139791 0.484646 -0.184261
v 0.204951 0.468289 0.165285
v 0.199693 0.481223 0.166310
v 0.211648 0.480540 0.164261
v 0.145049 0.471711 -0.185285
v 0.158658 0.474054 -0.187588
v 0.151746 0.483963 -0.186310
v 0.204951 0.468289 0.165285
v 0.211648 0.480540 0.164261
v 0.218560 0.470631 0.162983
v 0.145049 0.471711 -0.185285
v 0.155322 0.462381 -0.187132
v 0.158658 0.474054 -0.187588
v 0.204951 0.468289 0.165285
v 0.218560 0.470631 0.162983
v 0.215224 0.458958 0.163439
v 0.145049 0.471711 -0.185285
v 0.144250 0.457734 -0.185285
v 0.155322 0.462381 -0.187132
v 0.204951 0.468289 0.165285
v 0.215224 0.458958 0.163439
v 0.204152 0.454311 0.165285
v 0.455913 0.552029 -0.185285
v 0.445463 0.556712 -0.181226
v 0.585235 0.564699 0.169345
v 0.595685 0.560016 0.165285
v 0.445463 0.556712 -0.181226
v 0.442281 0.568394 -0.180223
v 0.582053 0.576381 0.170347
v 0.585235 0.564699 0.169345
v 0.442281 0.568394 -0.180223
v 0.448762 0.578278 -0.183033
v 0.588534 0.586265 0.167538
v 0.582053 0.576381 0.170347
v 0.448762 0.578278 -0.183033
v 0.460026 0.578921 -0.187538
v 0.599798 0.586908 0.163033
v 0.588534 0.586265 0.167538
v 0.460026 0.578921 -0.187538
v 0.467591 0.569840 -0.190347
v 0.607363 0.577827 0.160223
v 0.599798 0.586908 0.163033
v 0.467591 0.569840 -0.190347
v 0.465760 0.557872 -0.189345
v 0.605532 0.565859 0.161226
v 0.607363 0.577827 0.160223
v 0.465760 0.557872 -0.189345
v 0.455913 0.552029 -0.185285
v 0.595685 0.560016 0.165285
v 0.605532 0.565859 0.161226
v 0.455114 0.566007 -0.185285
v 0.445463 0.556712 -0.181226
v 0.455913 0.552029 -0.185285
v 0.594886 0.573993 0.165285
v 0.595685 0.560016 0.165285
v 0.585235 0.564699 0.169345
v 0.455114 0.566007 -0.185285
v 0.442281 0.568394 -0.180223
v 0.445463 0.556712 -0.181226
v 0.594886 0.573993 0.165285
v 0.585235 0.564699 0.169345
v 0.582053 0.576381 0.170347
v 0.455114 0.566007 -0.185285
v 0.448762 0.578278 -0.183033
v 0.442281 0.568394 -0.180223
v 0.594886 0.573993 0.165285
v 0.582053 0.576381 0.170347
v 0.588534 0.586265 0.167538
v 0.455114 0.566007 -0.185285
v 0.460026 0.578921 -0.187538
v 0.448762 0.578278 -0.183033
v 0.594886 0.573993 0.165285
v 0.588534 0.586265 0.167538
v 0.599798 0.586908 0.163033
v 0.455114 0.566007 -0.185285
v 0.467591 0.569840 -0.190347
v 0.460026 0.578921 -0.187538
v 0.594886 0.573993 0.165285
v 0.599798 0.586908 0.163033
v 0.607363 0.577827 0.160223
v 0.455114 0.566007 -0.185285
v 0.465760 0.557872 -0.189345
v 0.467591 0.569840 -0.190347
v 0.594886 0.573993 0.165285
v 0.607363 0.577827 0.160223
v 0.605532 0.565859 0.161226
v 0.455114 0.566007 -0.185285
v 0.455913 0.552029 -0.185285
v 0.465760 0.557872 -0.189345
v 0.594886 0.573993 0.165285
v 0.605532 0.565859 0.161226
v 0.595685 0.560016 0.165285
vt 0.000000 0.000000
vt 1.000000 0.000000
vt 1.000000 1.000000
vt 0.000000 1.000000
vt 0.000000 0.000000
vt 1.000000 0.000000
vt 1.000000 1.000000
vt 0.000000 1.000000
vt 0.000000 0.000000
vt 1.000000 0.000000
vt 1.000000 1.000000
vt 0.000000 1.000000
vt 0.000000 0.000000
vt 1.000000 0.000000
vt 1.000000 1.000000
vt 0.000000 1.000000
vt 0.000000 0.000000
vt 1.000000 0.000000
vt 1.000000 1.000000
vt 0.000000 1.000000
vt 0.000000 0.000000
vt 1.000000 0.000000
vt 1.000000 1.000000
vt 0.000000 1.000000
vt 0.000000 0.000000
vt 1.000000 0.000000
vt 1.000000 1.000000
vt 0.000000 1.000000
vt 0.500000 0.500000
vt 0.000000 0.000000
vt 1.000000 0.000000
vt 0.500000 0.500000
vt 0.000000 1.000000
vt 1.000000 1.000000
vt 0.500000 0.500000
vt 0.000000 0.000000
vt 1.000000 0.000000
vt 0.500000 0.500000
vt 0.000000 1.000000
vt 1.000000 1.000000
vt 0.500000 0.500000
vt 0.000000 0.000000
vt 1.000000 0.000000
vt 0.500000 0.500000
vt 0.000000 1.000000
vt 1.000000 1.000000
vt 0.500000 0.500000
vt 0.000000 0.000000
vt 1.000000 0.000000
vt 0.500000 0.500000
vt 0.000000 1.000000
vt 1.000000 1.000000
vt 0.500000 0.500000
vt 0.000000 0.000000
vt 1.000000 0.000000
vt 0.500000 0.500000
vt 0.000000 1.000000
vt 1.000000 1.000000
vt 0.500000 0.500000
vt 0.000000 0.000000
vt 1.000000 0.000000
vt 0.500000 0.500000
vt 0.000000 1.000000
vt 1.000000 1.000000
vt 0.500000 0.500000
vt 0.000000 0.000000
vt 1.000000 0.000000
vt 0.500000 0.500000
vt 0.000000 1.000000
vt 1.000000 1.000000
vt 0.000000 0.000000
vt 1.000000 0.000000
vt 1.000000 1.000000
vt 0.000000 1.000000
vt 0.000000 0.000000
vt 1.000000 0.000000
vt 1.000000 1.000000
vt 0.000000 1.000000
vt 0.000000 0.000000
vt 1.000000 0.000000
vt 1.000000 1.000000
vt 0.000000 1.000000
vt 0.000000 0.000000
vt 1.000000 0.000000
vt 1.000000 1.000000
vt 0.000000 1.000000
vt 0.000000 0.000000
vt 1.000000 0.000000
vt 1.000000 1.000000
vt 0.000000 1.000000
vt 0.000000 0.000000
vt 1.000000 0.000000
vt 1.000000 1.000000
vt 0.000000 1.000000
vt 0.000000 0.000000
vt 1.000000 0.000000
vt 1.000000 1.000000
vt 0.000000 1.000000
vt 0.500000 0.500000
vt 0.000000 0.000000
vt 1.000000 0.000000
vt 0.500000 0.500000
vt 0.000000 1.000000
vt 1.000000 1.000000
vt 0.500000 0.500000
vt 0.000000 0.000000
vt 1.000000 0.000000
vt 0.500000 0.500000
vt 0.000000 1.000000
vt 1.000000 1.000000
vt 0.500000 0.500000
vt 0.000000 0.000000
vt 1.000000 0.000000
vt 0.500000 0.500000
vt 0.000000 1.000000
vt 1.000000 1.000000
vt 0.500000 0.500000
vt 0.000000 0.000000
vt 1.000000 0.000000
vt 0.500000 0.500000
vt 0.000000 1.000000
vt 1.000000 1.000000
vt 0.500000 0.500000
vt 0.000000 0.000000
vt 1.000000 0.000000
vt 0.500000 0.500000
vt 0.000000 1.000000
vt 1.000000 1.000000
vt 0.500000 0.500000
vt 0.000000 0.000000
vt 1.000000 0.000000
vt 0.500000 0.500000
vt 0.000000 1.000000
vt 1.000000 1.000000
vt 0.500000 0.500000
vt 0.000000 0.000000
vt 1.000000 0.000000
vt 0.500000 0.500000
vt 0.000000 1.000000
vt 1.000000 1.000000
vt 0.000000 0.000000
vt 1.000000 0.000000
vt 1.000000 1.000000
vt 0.000000 1.000000
vt 0.000000 0.000000
vt 1.000000 0.000000
vt 1.000000 1.000000
vt 0.000000 1.000000
vt 0.000000 0.000000
vt 1.000000 0.000000
vt 1.000000 1.000000
vt 0.000000 1.000000
vt 0.000000 0.000000
vt 1.000000 0.000000
vt 1.000000 1.000000
vt 0.000000 1.000000
vt 0.000000 0.000000
vt 1.000000 0.000000
vt 1.000000 1.000000
vt 0.000000 1.000000
vt 0.000000 0.000000
vt 1.000000 0.000000
vt 1.000000 1.000000
vt 0.000000 1.000000
vt 0.000000 0.000000
vt 1.000000 0.000000
vt 1.000000 1.000000
vt 0.000000 1.000000
vt 0.500000 0.500000
vt 0.000000 0.000000
vt 1.000000 0.000000
vt 0.500000 0.500000
vt 0.000000 1.000000
vt 1.000000 1.000000
vt 0.500000 0.500000
vt 0.000000 0.000000
vt 1.000000 0.000000
vt 0.500000 0.500000
vt 0.000000 1.000000
vt 1.000000 1.000000
vt 0.500000 0.500000
vt 0.000000 0.000000
vt 1.000000 0.000000
vt 0.500000 0.500000
vt 0.000000 1.000000
vt 1.000000 1.000000
vt 0.500000 0.500000
vt 0.000000 0.000000
vt 1.000000 0.000000
vt 0.500000 0.500000
vt 0.000000 1.000000
vt 1.000000 1.000000
vt 0.500000 0.500000
vt 0.000000 0.000000
vt 1.000000 0.000000
vt 0.500000 0.500000
vt 0.000000 1.000000
vt 1.000000 1.000000
vt 0.500000 0.500000
vt 0.000000 0.000000
vt 1.000000 0.000000
vt 0.500000 0.500000
vt 0.000000 1.000000
vt 1.000000 1.000000
vt 0.500000 0.500000
vt 0.000000 0.000000
vt 1.000000 0.000000
vt 0.500000 0.500000
vt 0.000000 1.000000
vt 1.000000 1.000000
vt 0.000000 0.000000
vt 1.000000 0.000000
vt 1.000000 1.000000
vt 0.000000 1.000000
vt 0.000000 0.000000
vt 1.000000 0.000000
vt 1.000000 1.000000
vt 0.000000 1.000000
vt 0.000000 0.000000
vt 1.000000 0.000000
vt 1.000000 1.000000
vt 0.000000 1.000000
vt 0.000000 0.000000
vt 1.000000 0.000000
vt 1.000000 1.000000
vt 0.000000 1.000000
vt 0.000000 0.000000
vt 1.000000 0.000000
vt 1.000000 1.000000
vt 0.000000 1.000000
vt 0.000000 0.000000
vt 1.000000 0.000000
vt 1.000000 1.000000
vt 0.000000 1.000000
vt 0.000000 0.000000
vt 1.000000 0.000000
vt 1.000000 1.000000
vt 0.000000 1.000000
vt 0.500000 0.500000
vt 0.000000 0.000000
vt 1.000000 0.000000
vt 0.500000 0.500000
vt 0.000000 1.000000
vt 1.000000 1.000000
vt 0.500000 0.500000
vt 0.000000 0.000000
vt 1.000000 0.000000
vt 0.500000 0.500000
vt 0.000000 1.000000
vt 1.000000 1.000000
vt 0.500000 0.500000
vt 0.000000 0.000000
vt 1.000000 0.000000
vt 0.500000 0.500000
vt 0.000000 1.000000
vt 1.000000 1.000000
vt 0.500000 0.500000
vt 0.000000 0.000000
vt 1.000000 0.000000
vt 0.500000 0.500000
vt 0.000000 1.000000
vt 1.000000 1.000000
vt 0.500000 0.500000
vt 0.000000 0.000000
vt 1.000000 0.000000
vt 0.500000 0.500000
vt 0.000000 1.000000
vt 1.000000 1.000000
vt 0.500000 0.500000
vt 0.000000 0.000000
vt 1.000000 0.000000
vt 0.500000 0.500000
vt 0.000000 1.000000
vt 1.000000 1.000000
vt 0.500000 0.500000
vt 0.000000 0.000000
vt 1.000000 0.000000
vt 0.500000 0.500000
vt 0.000000 1.000000
vt 1.000000 1.000000
vt 0.000000 0.000000
vt 1.000000 0.000000
vt 1.000000 1.000000
vt 0.000000 1.000000
vt 0.000000 0.000000
vt 1.000000 0.000000
vt 1.000000 1.000000
vt 0.000000 1.000000
vt 0.000000 0.000000
vt 1.000000 0.000000
vt 1.000000 1.000000
vt 0.000000 1.000000
vt 0.000000 0.000000
vt 1.000000 0.000000
vt 1.000000 1.000000
vt 0.000000 1.000000
vt 0.000000 0.000000
vt 1.000000 0.000000
vt 1.000000 1.000000
vt 0.000000 1.000000
vt 0.000000 0.000000
vt 1.000000 0.000000
vt 1.000000 1.000000
vt 0.000000 1.000000
vt 0.000000 0.000000
vt 1.000000 0.000000
vt 1.000000 1.000000
vt 0.000000 1.000000
vt 0.500000 0.500000
vt 0.000000 0.000000
vt 1.000000 0.000000
vt 0.500000 0.500000
vt 0.000000 1.000000
vt 1.000000 1.000000
vt 0.500000 0.500000
vt 0.000000 0.000000
vt 1.000000 0.000000
vt 0.500000 0.500000
vt 0.000000 1.000000
vt 1.000000 1.000000
vt 0.500000 0.500000
vt 0.000000 0.000000
vt 1.000000 0.000000
vt 0.500000 0.500000
vt 0.000000 1.000000
vt 1.000000 1.000000
vt 0.500000 0.500000
vt 0.000000 0.000000
vt 1.000000 0.000000
vt 0.500000 0.500000
vt 0.000000 1.000000
vt 1.000000 1.000000
vt 0.500000 0.500000
vt 0.000000 0.000000
vt 1.000000 0.000000
vt 0.500000 0.500000
vt 0.000000 1.000000
vt 1.000000 1.000000
vt 0.500000 0.500000
vt 0.000000 0.000000
vt 1.000000 0.000000
vt 0.500000 0.500000
vt 0.000000 1.000000
vt 1.000000 1.000000
vt 0.500000 0.500000
vt 0.000000 0.000000
vt 1.000000 0.000000
vt 0.500000 0.500000
vt 0.000000 1.000000
vt 1.000000 1.000000
vt 0.000000 0.000000
vt 1.000000 0.000000
vt 1.000000 1.000000
vt 0.000000 1.000000
vt 0.000000 0.000000
vt 1.000000 0.000000
vt 1.000000 1.000000
vt 0.000000 1.000000
vt 0.000000 0.000000
vt 1.000000 0.000000
vt 1.000000 1.000000
vt 0.000000 1.000000
vt 0.000000 0.000000
vt 1.000000 0.000000
vt 1.000000 1.000000
vt 0.000000 1.000000
vt 0.000000 0.000000
vt 1.000000 0.000000
vt 1.000000 1.000000
vt 0.000000 1.000000
vt 0.000000 0.000000
vt 1.000000 0.000000
vt 1.000000 1.000000
vt 0.000000 1.000000
vt 0.000000 0.000000
vt 1.000000 0.000000
vt 1.000000 1.000000
vt 0.000000 1.000000
vt 0.500000 0.500000
vt 0.000000 0.000000
vt 1.000000 0.000000
vt 0.500000 0.500000
vt 0.000000 1.000000
vt 1.000000 1.000000
vt 0.500000 0.500000
vt 0.000000 0.000000
vt 1.000000 0.000000
vt 0.500000 0.500000
vt 0.000000 1.000000
vt 1.000000 1.000000
vt 0.500000 0.500000
vt 0.000000 0.000000
vt 1.000000 0.000000
vt 0.500000 0.500000
vt 0.000000 1.000000
vt 1.000000 1.000000
vt 0.500000 0.500000
vt 0.000000 0.000000
vt 1.000000 0.000000
vt 0.500000 0.500000
vt 0.000000 1.000000
vt 1.000000 1.000000
vt 0.500000 0.500000
vt 0.000000 0.000000
vt 1.000000 0.000000
vt 0.500000 0.500000
vt 0.000000 1.000000
vt 1.000000 1.000000
vt 0.500000 0.500000
vt 0.000000 0.000000
vt 1.000000 0.000000
vt 0.500000 0.500000
vt 0.000000 1.000000
vt 1.000000 1.000000
vt 0.500000 0.500000
vt 0.000000 0.000000
vt 1.000000 0.000000
vt 0.500000 0.500000
vt 0.000000 1.000000
vt 1.000000 1.000000
usemtl Wood
f 1/1 2/2 3/3
f 1/1 3/3 4/4
f 5/5 6/6 7/7
f 5/5 7/7 8/8
f 9/9 10/10 11/11
f 9/9 11/11 12/12
f 13/13 14/14 15/15
f 13/13 15/15 16/16
f 17/17 18/18 19/19
f 17/17 19/19 20/20
f 21/21 22/22 23/23
f 21/21 23/23 24/24
f 25/25 26/26 27/27
f 25/25 27/27 28/28
f 29/29 30/30 31/31
f 32/32 33/33 34/34
f 35/35 36/36 37/37
f 38/38 39/39 40/40
f 41/41 42/42 43/43
f 44/44 45/45 46/46
f 47/47 48/48 49/49
f 50/50 51/51 52/52
f 53/53 54/54 55/55
f 56/56 57/57 58/58
f 59/59 60/60 61/61
f 62/62 63/63 64/64
f 65/65 66/66 67/67
f 68/68 69/69 70/70
f 71/71 72/72 73/73
f 71/71 73/73 74/74
f 75/75 76/76 77/77
f 75/75 77/77 78/78
f 79/79 80/80 81/81
f 79/79 81/81 82/82
f 83/83 84/84 85/85
f 83/83 85/85 86/86
f 87/87 88/88 89/89
f 87/87 89/89 90/90
f 91/91 92/92 93/93
f 91/91 93/93 94/94
f 95/95 96/96 97/97
f 95/95 97/97 98/98
f 99/99 100/100 101/101
f 102/102 103/103 104/104
f 105/105 106/106 107/107
f 108/108 109/109 110/110
f 111/111 112/112 113/113
f 114/114 115/115 116/116
f 117/117 118/118 119/119
f 120/120 121/121 122/122
f 123/123 124/124 125/125
f 126/126 127/127 128/128
f 129/129 130/130 131/131
f 132/132 133/133 134/134
f 135/135 136/136 137/137
f 138/138 139/139 140/140
usemtl Rope
f 141/141 142/142 143/143
f 141/141 143/143 144/144
f 145/145 146/146 147/147
f 145/145 147/147 148/148
f 149/149 150/150 151/151
f 149/149 151/151 152/152
f 153/153 154/154 155/155
f 153/153 155/155 156/156
f 157/157 158/158 159/159
f 157/157 159/159 160/160
f 161/161 162/162 163/163
f 161/161 163/163 164/164
f 165/165 166/166 167/167
f 165/165 167/167 168/168
f 169/169 170/170 171/171
f 172/172 173/173 174/174
f 175/175 176/176 177/177
f 178/178 179/179 180/180
f 181/181 182/182 183/183
f 184/184 185/185 186/186
f 187/187 188/188 189/189
f 190/190 191/191 192/192
f 193/193 194/194 195/195
f 196/196 197/197 198/198
f 199/199 200/200 201/201
f 202/202 203/203 204/204
f 205/205 206/206 207/207
f 208/208 209/209 210/210
f 211/211 212/212 213/213
f 211/211 213/213 214/214
f 215/215 216/216 217/217
f 215/215 217/217 218/218
f 219/219 220/220 221/221
f 219/219 221/221 222/222
f 223/223 224/224 225/225
f 223/223 225/225 226/226
f 227/227 228/228 229/229
f 227/227 229/229 230/230
f 231/231 232/232 233/233
f 231/231 233/233 234/234
f 235/235 236/236 237/237
f 235/235 237/237 238/238
f 239/239 240/240 241/241
f 242/242 243/243 244/244
f 245/245 246/246 247/247
f 248/248 249/249 250/250
f 251/251 252/252 253/253
f 254/254 255/255 256/256
f 257/257 258/258 259/259
f 260/260 261/261 262/262
f 263/263 264/264 265/265
f 266/266 267/267 268/268
f 269/269 270/270 271/271
f 272/272 273/273 274/274
f 275/275 276/276 277/277
f 278/278 279/279 280/280
f 281/281 282/282 283/283
f 281/281 283/283 284/284
f 285/285 286/286 287/287
f 285/285 287/287 288/288
f 289/289 290/290 291/291
f 289/289 291/291 292/292
f 293/293 294/294 295/295
f 293/293 295/295 296/296
f 297/297 298/298 299/299
f 297/297 299/299 300/300
f 301/301 302/302 303/303
f 301/301 303/303 304/304
f 305/305 306/306 307/307
f 305/305 307/307 308/308
f 309/309 310/310 311/311
f 312/312 313/313 314/314
f 315/315 316/316 317/317
f 318/318 319/319 320/320
f 321/321 322/322 323/323
f 324/324 325/325 326/326
f 327/327 328/328 329/329
f 330/330 331/331 332/332
f 333/333 334/334 335/335
f 336/336 337/337 338/338
f 339/339 340/340 341/341
f 342/342 343/343 344/344
f 345/345 346/346 347/347
f 348/348 349/349 350/350
f 351/351 352/352 353/353
f 351/351 353/353 354/354
f 355/355 356/356 357/357
f 355/355 357/357 358/358
f 359/359 360/360 361/361
f 359/359 361/361 362/362
f 363/363 364/364 365/365
f 363/363 365/365 366/366
f 367/367 368/368 369/369
f 367/367 369/369 370/370
f 371/371 372/372 373/373
f 371/371 373/373 374/374
f 375/375 376/376 377/377
f 375/375 377/377 378/378
f 379/379 380/380 381/381
f 382/382 383/383 384/384
f 385/385 386/386 387/387
f 388/388 389/389 390/390
f 391/391 392/392 393/393
f 394/394 395/395 396/396
f 397/397 398/398 399/399
f 400/400 401/401 402/402
f 403/403 404/404 405/405
f 406/406 407/407 408/408
f 409/409 410/410 411/411
f 412/412 413/413 414/414
f 415/415 416/416 417/417
f 418/418 419/419 420/420
