mtllib ../../Materials/project_oen.mtl
o en-022_path_marker_stakes__plain
v 0.035000 0.000000 0.000000
v 0.021822 0.000000 0.027364
v 0.021822 1.100000 0.027364
v 0.035000 1.100000 0.000000
v 0.021822 0.000000 0.027364
v -0.007788 0.000000 0.034122
v -0.007788 1.100000 0.034122
v 0.021822 1.100000 0.027364
v -0.007788 0.000000 0.034122
v -0.031534 0.000000 0.015186
v -0.031534 1.100000 0.015186
v -0.007788 1.100000 0.034122
v -0.031534 0.000000 0.015186
v -0.031534 0.000000 -0.015186
v -0.031534 1.100000 -0.015186
v -0.031534 1.100000 0.015186
v -0.031534 0.000000 -0.015186
v -0.007788 0.000000 -0.034122
v -0.007788 1.100000 -0.034122
v -0.031534 1.100000 -0.015186
v -0.007788 0.000000 -0.034122
v 0.021822 0.000000 -0.027364
v 0.021822 1.100000 -0.027364
v -0.007788 1.100000 -0.034122
v 0.021822 0.000000 -0.027364
v 0.035000 0.000000 0.000000
v 0.035000 1.100000 0.000000
v 0.021822 1.100000 -0.027364
v 0.000000 0.000000 0.000000
v 0.021822 0.000000 0.027364
v 0.035000 0.000000 0.000000
v 0.000000 1.100000 0.000000
v 0.035000 1.100000 0.000000
v 0.021822 1.100000 0.027364
v 0.000000 0.000000 0.000000
v -0.007788 0.000000 0.034122
v 0.021822 0.000000 0.027364
v 0.000000 1.100000 0.000000
v 0.021822 1.100000 0.027364
v -0.007788 1.100000 0.034122
v 0.000000 0.000000 0.000000
v -0.031534 0.000000 0.015186
v -0.007788 0.000000 0.034122
v 0.000000 1.100000 0.000000
v -0.007788 1.100000 0.034122
v -0.031534 1.100000 0.015186
v 0.000000 0.000000 0.000000
v -0.031534 0.000000 -0.015186
v -0.031534 0.000000 0.015186
v 0.000000 1.100000 0.000000
v -0.031534 1.100000 0.015186
v -0.031534 1.100000 -0.015186
v 0.000000 0.000000 0.000000
v -0.007788 0.000000 -0.034122
v -0.031534 0.000000 -0.015186
v 0.000000 1.100000 0.000000
v -0.031534 1.100000 -0.015186
v -0.007788 1.100000 -0.034122
v 0.000000 0.000000 0.000000
v 0.021822 0.000000 -0.027364
v -0.007788 0.000000 -0.034122
v 0.000000 1.100000 0.000000
v -0.007788 1.100000 -0.034122
v 0.021822 1.100000 -0.027364
v 0.000000 0.000000 0.000000
v 0.035000 0.000000 0.000000
v 0.021822 0.000000 -0.027364
v 0.000000 1.100000 0.000000
v 0.021822 1.100000 -0.027364
v 0.035000 1.100000 0.000000
v -0.130000 1.012500 -0.035000
v 0.130000 1.012500 -0.035000
v 0.130000 1.067500 -0.035000
v -0.130000 1.067500 -0.035000
v 0.130000 1.012500 0.035000
v -0.130000 1.012500 0.035000
v -0.130000 1.067500 0.035000
v 0.130000 1.067500 0.035000
v -0.130000 1.012500 0.035000
v -0.130000 1.012500 -0.035000
v -0.130000 1.067500 -0.035000
v -0.130000 1.067500 0.035000
v 0.130000 1.012500 -0.035000
v 0.130000 1.012500 0.035000
v 0.130000 1.067500 0.035000
v 0.130000 1.067500 -0.035000
v -0.130000 1.067500 -0.035000
v 0.130000 1.067500 -0.035000
v 0.130000 1.067500 0.035000
v -0.130000 1.067500 0.035000
v -0.130000 1.012500 0.035000
v 0.130000 1.012500 0.035000
v 0.130000 1.012500 -0.035000
v -0.130000 1.012500 -0.035000
v 0.083680 0.637321 0.000000
v 0.076130 0.594500 0.000000
v 0.067973 0.598304 0.009000
v 0.074715 0.636537 0.009000
v 0.074715 0.636537 0.009000
v 0.067973 0.598304 0.009000
v 0.059816 0.602107 0.000000
v 0.065749 0.635752 0.000000
v 0.065749 0.635752 0.000000
v 0.059816 0.602107 0.000000
v 0.067973 0.598304 -0.009000
v 0.074715 0.636537 -0.009000
v 0.074715 0.636537 -0.009000
v 0.067973 0.598304 -0.009000
v 0.076130 0.594500 0.000000
v 0.083680 0.637321 0.000000
v 0.076130 0.594500 0.000000
v 0.048180 0.561191 0.000000
v 0.043018 0.568564 0.009000
v 0.067973 0.598304 0.009000
v 0.067973 0.598304 0.009000
v 0.043018 0.568564 0.009000
v 0.037856 0.575936 0.000000
v 0.059816 0.602107 0.000000
v 0.059816 0.602107 0.000000
v 0.037856 0.575936 0.000000
v 0.043018 0.568564 -0.009000
v 0.067973 0.598304 -0.009000
v 0.067973 0.598304 -0.009000
v 0.043018 0.568564 -0.009000
v 0.048180 0.561191 0.000000
v 0.076130 0.594500 0.000000
v 0.048180 0.561191 0.000000
v 0.007321 0.546320 0.000000
v 0.006537 0.555285 0.009000
v 0.043018 0.568564 0.009000
v 0.043018 0.568564 0.009000
v 0.006537 0.555285 0.009000
v 0.005752 0.564251 0.000000
v 0.037856 0.575936 0.000000
v 0.037856 0.575936 0.000000
v 0.005752 0.564251 0.000000
v 0.006537 0.555285 -0.009000
v 0.043018 0.568564 -0.009000
v 0.043018 0.568564 -0.009000
v 0.006537 0.555285 -0.009000
v 0.007321 0.546320 0.000000
v 0.048180 0.561191 0.000000
v 0.007321 0.546320 0.000000
v -0.035500 0.553870 0.000000
v -0.031696 0.562027 0.009000
v 0.006537 0.555285 0.009000
v 0.006537 0.555285 0.009000
v -0.031696 0.562027 0.009000
v -0.027893 0.570184 0.000000
v 0.005752 0.564251 0.000000
v 0.005752 0.564251 0.000000
v -0.027893 0.570184 0.000000
v -0.031696 0.562027 -0.009000
v 0.006537 0.555285 -0.009000
v 0.006537 0.555285 -0.009000
v -0.031696 0.562027 -0.009000
v -0.035500 0.553870 0.000000
v 0.007321 0.546320 0.000000
v -0.035500 0.553870 0.000000
v -0.068809 0.581820 0.000000
v -0.061436 0.586982 0.009000
v -0.031696 0.562027 0.009000
v -0.031696 0.562027 0.009000
v -0.061436 0.586982 0.009000
v -0.054064 0.592144 0.000000
v -0.027893 0.570184 0.000000
v -0.027893 0.570184 0.000000
v -0.054064 0.592144 0.000000
v -0.061436 0.586982 -0.009000
v -0.031696 0.562027 -0.009000
v -0.031696 0.562027 -0.009000
v -0.061436 0.586982 -0.009000
v -0.068809 0.581820 0.000000
v -0.035500 0.553870 0.000000
v -0.068809 0.581820 0.000000
v -0.083680 0.622679 0.000000
v -0.074715 0.623463 0.009000
v -0.061436 0.586982 0.009000
v -0.061436 0.586982 0.009000
v -0.074715 0.623463 0.009000
v -0.065749 0.624248 0.000000
v -0.054064 0.592144 0.000000
v -0.054064 0.592144 0.000000
v -0.065749 0.624248 0.000000
v -0.074715 0.623463 -0.009000
v -0.061436 0.586982 -0.009000
v -0.061436 0.586982 -0.009000
v -0.074715 0.623463 -0.009000
v -0.083680 0.622679 0.000000
v -0.068809 0.581820 0.000000
v -0.083680 0.622679 0.000000
v -0.076130 0.665500 -0.000000
v -0.067973 0.661696 0.009000
v -0.074715 0.623463 0.009000
v -0.074715 0.623463 0.009000
v -0.067973 0.661696 0.009000
v -0.059816 0.657893 -0.000000
v -0.065749 0.624248 0.000000
v -0.065749 0.624248 0.000000
v -0.059816 0.657893 -0.000000
v -0.067973 0.661696 -0.009000
v -0.074715 0.623463 -0.009000
v -0.074715 0.623463 -0.009000
v -0.067973 0.661696 -0.009000
v -0.076130 0.665500 -0.000000
v -0.083680 0.622679 0.000000
v -0.076130 0.665500 -0.000000
v -0.048180 0.698809 -0.000000
v -0.043018 0.691436 0.009000
v -0.067973 0.661696 0.009000
v -0.067973 0.661696 0.009000
v -0.043018 0.691436 0.009000
v -0.037856 0.684064 -0.000000
v -0.059816 0.657893 -0.000000
v -0.059816 0.657893 -0.000000
v -0.037856 0.684064 -0.000000
v -0.043018 0.691436 -0.009000
v -0.067973 0.661696 -0.009000
v -0.067973 0.661696 -0.009000
v -0.043018 0.691436 -0.009000
v -0.048180 0.698809 -0.000000
v -0.076130 0.665500 -0.000000
v -0.048180 0.698809 -0.000000
v -0.007321 0.713680 -0.000000
v -0.006537 0.704715 0.009000
v -0.043018 0.691436 0.009000
v -0.043018 0.691436 0.009000
v -0.006537 0.704715 0.009000
v -0.005752 0.695749 -0.000000
v -0.037856 0.684064 -0.000000
v -0.037856 0.684064 -0.000000
v -0.005752 0.695749 -0.000000
v -0.006537 0.704715 -0.009000
v -0.043018 0.691436 -0.009000
v -0.043018 0.691436 -0.009000
v -0.006537 0.704715 -0.009000
v -0.007321 0.713680 -0.000000
v -0.048180 0.698809 -0.000000
v -0.007321 0.713680 -0.000000
v 0.035500 0.706130 -0.000000
v 0.031696 0.697973 0.009000
v -0.006537 0.704715 0.009000
v -0.006537 0.704715 0.009000
v 0.031696 0.697973 0.009000
v 0.027893 0.689816 -0.000000
v -0.005752 0.695749 -0.000000
v -0.005752 0.695749 -0.000000
v 0.027893 0.689816 -0.000000
v 0.031696 0.697973 -0.009000
v -0.006537 0.704715 -0.009000
v -0.006537 0.704715 -0.009000
v 0.031696 0.697973 -0.009000
v 0.035500 0.706130 -0.000000
v -0.007321 0.713680 -0.000000
v 0.035500 0.706130 -0.000000
v 0.068809 0.678180 -0.000000
v 0.061436 0.673018 0.009000
v 0.031696 0.697973 0.009000
v 0.031696 0.697973 0.009000
v 0.061436 0.673018 0.009000
v 0.054064 0.667856 -0.000000
v 0.027893 0.689816 -0.000000
v 0.027893 0.689816 -0.000000
v 0.054064 0.667856 -0.000000
v 0.061436 0.673018 -0.009000
v 0.031696 0.697973 -0.009000
v 0.031696 0.697973 -0.009000
v 0.061436 0.673018 -0.009000
v 0.068809 0.678180 -0.000000
v 0.035500 0.706130 -0.000000
v 0.068809 0.678180 -0.000000
v 0.083680 0.637321 0.000000
v 0.074715 0.636537 0.009000
v 0.061436 0.673018 0.009000
v 0.061436 0.673018 0.009000
v 0.074715 0.636537 0.009000
v 0.065749 0.635752 0.000000
v 0.054064 0.667856 -0.000000
v 0.054064 0.667856 -0.000000
v 0.065749 0.635752 0.000000
v 0.074715 0.636537 -0.009000
v 0.061436 0.673018 -0.009000
v 0.061436 0.673018 -0.009000
v 0.074715 0.636537 -0.009000
v 0.083680 0.637321 0.000000
v 0.068809 0.678180 -0.000000
v 0.120000 0.000000 0.000000
v 0.158973 0.001999 0.050054
v 0.192000 0.000000 0.000000
v 0.192000 0.000000 0.000000
v 0.158973 0.001999 0.050054
v 0.160219 0.024184 0.065140
v 0.211239 0.022185 0.000000
v 0.211239 0.022185 0.000000
v 0.160219 0.024184 0.065140
v 0.145929 0.043759 0.047999
v 0.180470 0.041760 0.000000
v 0.120000 0.059400 0.004200
v 0.180470 0.041760 0.000000
v 0.145929 0.043759 0.047999
v 0.120000 0.000000 0.000000
v 0.087353 -0.000634 0.059642
v 0.158973 0.001999 0.050054
v 0.158973 0.001999 0.050054
v 0.087353 -0.000634 0.059642
v 0.080862 0.021551 0.066777
v 0.160219 0.024184 0.065140
v 0.160219 0.024184 0.065140
v 0.080862 0.021551 0.066777
v 0.089396 0.041126 0.040914
v 0.145929 0.043759 0.047999
v 0.120000 0.059400 0.004200
v 0.145929 0.043759 0.047999
v 0.089396 0.041126 0.040914
v 0.120000 0.000000 0.000000
v 0.046381 -0.001798 0.000000
v 0.087353 -0.000634 0.059642
v 0.087353 -0.000634 0.059642
v 0.046381 -0.001798 0.000000
v 0.028485 0.020387 0.000000
v 0.080862 0.021551 0.066777
v 0.080862 0.021551 0.066777
v 0.028485 0.020387 0.000000
v 0.060727 0.039962 0.000000
v 0.089396 0.041126 0.040914
v 0.120000 0.059400 0.004200
v 0.089396 0.041126 0.040914
v 0.060727 0.039962 0.000000
v 0.120000 0.000000 0.000000
v 0.081560 0.001204 -0.050862
v 0.046381 -0.001798 0.000000
v 0.046381 -0.001798 0.000000
v 0.081560 0.001204 -0.050862
v 0.080628 0.023389 -0.066423
v 0.028485 0.020387 0.000000
v 0.028485 0.020387 0.000000
v 0.080628 0.023389 -0.066423
v 0.093948 0.042964 -0.047812
v 0.060727 0.039962 0.000000
v 0.120000 0.059400 0.004200
v 0.060727 0.039962 0.000000
v 0.093948 0.042964 -0.047812
v 0.120000 0.000000 0.000000
v 0.152438 0.001417 -0.059958
v 0.081560 0.001204 -0.050862
v 0.081560 0.001204 -0.050862
v 0.152438 0.001417 -0.059958
v 0.159956 0.023602 -0.065539
v 0.080628 0.023389 -0.066423
v 0.080628 0.023389 -0.066423
v 0.159956 0.023602 -0.065539
v 0.151062 0.043177 -0.040219
v 0.093948 0.042964 -0.047812
v 0.120000 0.059400 0.004200
v 0.093948 0.042964 -0.047812
v 0.151062 0.043177 -0.040219
v 0.120000 0.000000 0.000000
v 0.192000 0.000000 0.000000
v 0.152438 0.001417 -0.059958
v 0.152438 0.001417 -0.059958
v 0.192000 0.000000 0.000000
v 0.211239 0.022185 0.000000
v 0.159956 0.023602 -0.065539
v 0.159956 0.023602 -0.065539
v 0.211239 0.022185 0.000000
v 0.180470 0.041760 0.000000
v 0.151062 0.043177 -0.040219
v 0.120000 0.059400 0.004200
v 0.151062 0.043177 -0.040219
v 0.180470 0.041760 0.000000
v -0.060582 0.000000 0.103585
v -0.051906 0.001717 0.167520
v 0.011916 0.000789 0.125832
v 0.011916 0.000789 0.125832
v -0.051906 0.001717 0.167520
v -0.051349 0.023902 0.183050
v 0.020575 0.022974 0.130261
v 0.020575 0.022974 0.130261
v -0.051349 0.023902 0.183050
v -0.053686 0.043477 0.155046
v -0.010858 0.042549 0.124443
v -0.058089 0.059400 0.107454
v -0.010858 0.042549 0.124443
v -0.053686 0.043477 0.155046
v -0.060582 0.000000 0.103585
v -0.114135 -0.001333 0.144141
v -0.051906 0.001717 0.167520
v -0.051906 0.001717 0.167520
v -0.114135 -0.001333 0.144141
v -0.130521 0.020852 0.145123
v -0.051349 0.023902 0.183050
v -0.051349 0.023902 0.183050
v -0.130521 0.020852 0.145123
v -0.110915 0.040427 0.131076
v -0.053686 0.043477 0.155046
v -0.058089 0.059400 0.107454
v -0.053686 0.043477 0.155046
v -0.110915 0.040427 0.131076
v -0.060582 0.000000 0.103585
v -0.133461 -0.001294 0.081480
v -0.114135 -0.001333 0.144141
v -0.114135 -0.001333 0.144141
v -0.133461 -0.001294 0.081480
v -0.140232 0.020891 0.076352
v -0.130521 0.020852 0.145123
v -0.130521 0.020852 0.145123
v -0.140232 0.020891 0.076352
v -0.109462 0.040466 0.082415
v -0.110915 0.040427 0.131076
v -0.058089 0.059400 0.107454
v -0.110915 0.040427 0.131076
v -0.109462 0.040466 0.082415
v -0.060582 0.000000 0.103585
v -0.069068 0.001743 0.038317
v -0.133461 -0.001294 0.081480
v -0.133461 -0.001294 0.081480
v -0.069068 0.001743 0.038317
v -0.069832 0.023928 0.024252
v -0.140232 0.020891 0.076352
v -0.140232 0.020891 0.076352
v -0.069832 0.023928 0.024252
v -0.067636 0.043503 0.053238
v -0.109462 0.040466 0.082415
v -0.058089 0.059400 0.107454
v -0.109462 0.040466 0.082415
v -0.067636 0.043503 0.053238
v -0.060582 0.000000 0.103585
v -0.005978 0.000741 0.063724
v -0.069068 0.001743 0.038317
v -0.069068 0.001743 0.038317
v -0.005978 0.000741 0.063724
v 0.010525 0.022926 0.062819
v -0.069832 0.023928 0.024252
v -0.069832 0.023928 0.024252
v 0.010525 0.022926 0.062819
v -0.010671 0.042501 0.075814
v -0.067636 0.043503 0.053238
v -0.058089 0.059400 0.107454
v -0.067636 0.043503 0.053238
v -0.010671 0.042501 0.075814
v -0.060582 0.000000 0.103585
v 0.011916 0.000789 0.125832
v -0.005978 0.000741 0.063724
v -0.005978 0.000741 0.063724
v 0.011916 0.000789 0.125832
v 0.020575 0.022974 0.130261
v 0.010525 0.022926 0.062819
v 0.010525 0.022926 0.062819
v 0.020575 0.022974 0.130261
v -0.010858 0.042549 0.124443
v -0.010671 0.042501 0.075814
v -0.058089 0.059400 0.107454
v -0.010671 0.042501 0.075814
v -0.010858 0.042549 0.124443
v -0.058831 0.000000 -0.104589
v -0.076535 0.001163 -0.037981
v -0.005280 0.001453 -0.062448
v -0.005280 0.001453 -0.062448
v -0.076535 0.001163 -0.037981
v -0.080645 0.023348 -0.031804
v -0.003986 0.023638 -0.049554
v -0.003986 0.023638 -0.049554
v -0.080645 0.023348 -0.031804
v -0.075788 0.042923 -0.059921
v -0.022526 0.043213 -0.064989
v -0.054240 0.059400 -0.101663
v -0.022526 0.043213 -0.064989
v -0.075788 0.042923 -0.059921
v -0.058831 0.000000 -0.104589
v -0.131722 -0.001821 -0.089854
v -0.076535 0.001163 -0.037981
v -0.076535 0.001163 -0.037981
v -0.131722 -0.001821 -0.089854
v -0.147415 0.020364 -0.088523
v -0.080645 0.023348 -0.031804
v -0.080645 0.023348 -0.031804
v -0.147415 0.020364 -0.088523
v -0.115042 0.039939 -0.092337
v -0.075788 0.042923 -0.059921
v -0.054240 0.059400 -0.101663
v -0.075788 0.042923 -0.059921
v -0.115042 0.039939 -0.092337
v -0.058831 0.000000 -0.104589
v -0.111464 -0.000585 -0.147557
v -0.131722 -0.001821 -0.089854
v -0.131722 -0.001821 -0.089854
v -0.111464 -0.000585 -0.147557
v -0.112658 0.021600 -0.160541
v -0.147415 0.020364 -0.088523
v -0.147415 0.020364 -0.088523
v -0.112658 0.021600 -0.160541
v -0.095508 0.041175 -0.143855
v -0.115042 0.039939 -0.092337
v -0.054240 0.059400 -0.101663
v -0.115042 0.039939 -0.092337
v -0.095508 0.041175 -0.143855
v -0.058831 0.000000 -0.104589
v -0.041141 0.002007 -0.171237
v -0.111464 -0.000585 -0.147557
v -0.111464 -0.000585 -0.147557
v -0.041141 0.002007 -0.171237
v -0.036525 0.024192 -0.175855
v -0.112658 0.021600 -0.160541
v -0.112658 0.021600 -0.160541
v -0.036525 0.024192 -0.175855
v -0.041688 0.043767 -0.148683
v -0.095508 0.041175 -0.143855
v -0.054240 0.059400 -0.101663
v -0.095508 0.041175 -0.143855
v -0.041688 0.043767 -0.148683
v -0.058831 0.000000 -0.104589
v 0.015389 -0.000051 -0.119031
v -0.041141 0.002007 -0.171237
v -0.041141 0.002007 -0.171237
v 0.015389 -0.000051 -0.119031
v 0.029196 0.022134 -0.120778
v -0.036525 0.024192 -0.175855
v -0.036525 0.024192 -0.175855
v 0.029196 0.022134 -0.120778
v -0.003883 0.041709 -0.117120
v -0.041688 0.043767 -0.148683
v -0.054240 0.059400 -0.101663
v -0.041688 0.043767 -0.148683
v -0.003883 0.041709 -0.117120
v -0.058831 0.000000 -0.104589
v -0.005280 0.001453 -0.062448
v 0.015389 -0.000051 -0.119031
v 0.015389 -0.000051 -0.119031
v -0.005280 0.001453 -0.062448
v -0.003986 0.023638 -0.049554
v 0.029196 0.022134 -0.120778
v 0.029196 0.022134 -0.120778
v -0.003986 0.023638 -0.049554
v -0.022526 0.043213 -0.064989
v -0.003883 0.041709 -0.117120
v -0.054240 0.059400 -0.101663
v -0.003883 0.041709 -0.117120
v -0.022526 0.043213 -0.064989
vt 0.000000 0.000000
vt 1.000000 0.000000
vt 1.000000 1.000000
vt 0.000000 1.000000
vt 0.000000 0.000000
vt 1.000000 0.000000
vt 1.000000 1.000000
vt 0.000000 1.000000
vt 0.000000 0.000000
vt 1.000000 0.000000
vt 1.000000 1.000000
vt 0.000000 1.000000
vt 0.000000 0.000000
vt 1.000000 0.000000
vt 1.000000 1.000000
vt 0.000000 1.000000
vt 0.000000 0.000000
vt 1.000000 0.000000
vt 1.000000 1.000000
vt 0.000000 1.000000
vt 0.000000 0.000000
vt 1.000000 0.000000
vt 1.000000 1.000000
vt 0.000000 1.000000
vt 0.000000 0.000000
vt 1.000000 0.000000
vt 1.000000 1.000000
vt 0.000000 1.000000
vt 0.500000 0.500000
vt 0.000000 0.000000
vt 1.000000 0.000000
vt 0.500000 0.500000
vt 0.000000 1.000000
vt 1.000000 1.000000
vt 0.500000 0.500000
vt 0.000000 0.000000
vt 1.000000 0.000000
vt 0.500000 0.500000
vt 0.000000 1.000000
vt 1.000000 1.000000
vt 0.500000 0.500000
vt 0.000000 0.000000
vt 1.000000 0.000000
vt 0.500000 0.500000
vt 0.000000 1.000000
vt 1.000000 1.000000
vt 0.500000 0.500000
vt 0.000000 0.000000
vt 1.000000 0.000000
vt 0.500000 0.500000
vt 0.000000 1.000000
vt 1.000000 1.000000
vt 0.500000 0.500000
vt 0.000000 0.000000
vt 1.000000 0.000000
vt 0.500000 0.500000
vt 0.000000 1.000000
vt 1.000000 1.000000
vt 0.500000 0.500000
vt 0.000000 0.000000
vt 1.000000 0.000000
vt 0.500000 0.500000
vt 0.000000 1.000000
vt 1.000000 1.000000
vt 0.500000 0.500000
vt 0.000000 0.000000
vt 1.000000 0.000000
vt 0.500000 0.500000
vt 0.000000 1.000000
vt 1.000000 1.000000
vt 0.000000 0.000000
vt 1.000000 0.000000
vt 1.000000 1.000000
vt 0.000000 1.000000
vt 0.000000 0.000000
vt 1.000000 0.000000
vt 1.000000 1.000000
vt 0.000000 1.000000
vt 0.000000 0.000000
vt 1.000000 0.000000
vt 1.000000 1.000000
vt 0.000000 1.000000
vt 0.000000 0.000000
vt 1.000000 0.000000
vt 1.000000 1.000000
vt 0.000000 1.000000
vt 0.000000 0.000000
vt 1.000000 0.000000
vt 1.000000 1.000000
vt 0.000000 1.000000
vt 0.000000 0.000000
vt 1.000000 0.000000
vt 1.000000 1.000000
vt 0.000000 1.000000
vt 0.000000 0.000000
vt 1.000000 0.000000
vt 1.000000 1.000000
vt 0.000000 1.000000
vt 0.000000 0.000000
vt 1.000000 0.000000
vt 1.000000 1.000000
vt 0.000000 1.000000
vt 0.000000 0.000000
vt 1.000000 0.000000
vt 1.000000 1.000000
vt 0.000000 1.000000
vt 0.000000 0.000000
vt 1.000000 0.000000
vt 1.000000 1.000000
vt 0.000000 1.000000
vt 0.000000 0.000000
vt 1.000000 0.000000
vt 1.000000 1.000000
vt 0.000000 1.000000
vt 0.000000 0.000000
vt 1.000000 0.000000
vt 1.000000 1.000000
vt 0.000000 1.000000
vt 0.000000 0.000000
vt 1.000000 0.000000
vt 1.000000 1.000000
vt 0.000000 1.000000
vt 0.000000 0.000000
vt 1.000000 0.000000
vt 1.000000 1.000000
vt 0.000000 1.000000
vt 0.000000 0.000000
vt 1.000000 0.000000
vt 1.000000 1.000000
vt 0.000000 1.000000
vt 0.000000 0.000000
vt 1.000000 0.000000
vt 1.000000 1.000000
vt 0.000000 1.000000
vt 0.000000 0.000000
vt 1.000000 0.000000
vt 1.000000 1.000000
vt 0.000000 1.000000
vt 0.000000 0.000000
vt 1.000000 0.000000
vt 1.000000 1.000000
vt 0.000000 1.000000
vt 0.000000 0.000000
vt 1.000000 0.000000
vt 1.000000 1.000000
vt 0.000000 1.000000
vt 0.000000 0.000000
vt 1.000000 0.000000
vt 1.000000 1.000000
vt 0.000000 1.000000
vt 0.000000 0.000000
vt 1.000000 0.000000
vt 1.000000 1.000000
vt 0.000000 1.000000
vt 0.000000 0.000000
vt 1.000000 0.000000
vt 1.000000 1.000000
vt 0.000000 1.000000
vt 0.000000 0.000000
vt 1.000000 0.000000
vt 1.000000 1.000000
vt 0.000000 1.000000
vt 0.000000 0.000000
vt 1.000000 0.000000
vt 1.000000 1.000000
vt 0.000000 1.000000
vt 0.000000 0.000000
vt 1.000000 0.000000
vt 1.000000 1.000000
vt 0.000000 1.000000
vt 0.000000 0.000000
vt 1.000000 0.000000
vt 1.000000 1.000000
vt 0.000000 1.000000
vt 0.000000 0.000000
vt 1.000000 0.000000
vt 1.000000 1.000000
vt 0.000000 1.000000
vt 0.000000 0.000000
vt 1.000000 0.000000
vt 1.000000 1.000000
vt 0.000000 1.000000
vt 0.000000 0.000000
vt 1.000000 0.000000
vt 1.000000 1.000000
vt 0.000000 1.000000
vt 0.000000 0.000000
vt 1.000000 0.000000
vt 1.000000 1.000000
vt 0.000000 1.000000
vt 0.000000 0.000000
vt 1.000000 0.000000
vt 1.000000 1.000000
vt 0.000000 1.000000
vt 0.000000 0.000000
vt 1.000000 0.000000
vt 1.000000 1.000000
vt 0.000000 1.000000
vt 0.000000 0.000000
vt 1.000000 0.000000
vt 1.000000 1.000000
vt 0.000000 1.000000
vt 0.000000 0.000000
vt 1.000000 0.000000
vt 1.000000 1.000000
vt 0.000000 1.000000
vt 0.000000 0.000000
vt 1.000000 0.000000
vt 1.000000 1.000000
vt 0.000000 1.000000
vt 0.000000 0.000000
vt 1.000000 0.000000
vt 1.000000 1.000000
vt 0.000000 1.000000
vt 0.000000 0.000000
vt 1.000000 0.000000
vt 1.000000 1.000000
vt 0.000000 1.000000
vt 0.000000 0.000000
vt 1.000000 0.000000
vt 1.000000 1.000000
vt 0.000000 1.000000
vt 0.000000 0.000000
vt 1.000000 0.000000
vt 1.000000 1.000000
vt 0.000000 1.000000
vt 0.000000 0.000000
vt 1.000000 0.000000
vt 1.000000 1.000000
vt 0.000000 1.000000
vt 0.000000 0.000000
vt 1.000000 0.000000
vt 1.000000 1.000000
vt 0.000000 1.000000
vt 0.000000 0.000000
vt 1.000000 0.000000
vt 1.000000 1.000000
vt 0.000000 1.000000
vt 0.000000 0.000000
vt 1.000000 0.000000
vt 1.000000 1.000000
vt 0.000000 1.000000
vt 0.000000 0.000000
vt 1.000000 0.000000
vt 1.000000 1.000000
vt 0.000000 1.000000
vt 0.000000 0.000000
vt 1.000000 0.000000
vt 1.000000 1.000000
vt 0.000000 1.000000
vt 0.000000 0.000000
vt 1.000000 0.000000
vt 1.000000 1.000000
vt 0.000000 1.000000
vt 0.000000 0.000000
vt 1.000000 0.000000
vt 1.000000 1.000000
vt 0.000000 1.000000
vt 0.000000 0.000000
vt 1.000000 0.000000
vt 1.000000 1.000000
vt 0.000000 1.000000
vt 0.000000 0.000000
vt 1.000000 0.000000
vt 1.000000 1.000000
vt 0.000000 1.000000
vt 0.000000 0.000000
vt 1.000000 0.000000
vt 1.000000 1.000000
vt 0.000000 1.000000
vt 0.000000 0.000000
vt 1.000000 0.000000
vt 1.000000 1.000000
vt 0.000000 1.000000
vt 0.000000 0.000000
vt 1.000000 0.000000
vt 1.000000 1.000000
vt 0.000000 1.000000
vt 0.000000 0.000000
vt 1.000000 0.000000
vt 1.000000 1.000000
vt 0.000000 1.000000
vt 0.000000 0.000000
vt 1.000000 0.000000
vt 1.000000 1.000000
vt 0.000000 1.000000
vt 0.000000 0.000000
vt 0.000000 0.000000
vt 0.000000 0.000000
vt 0.000000 0.000000
vt 1.000000 0.000000
vt 1.000000 1.000000
vt 0.000000 1.000000
vt 0.000000 0.000000
vt 1.000000 0.000000
vt 1.000000 1.000000
vt 0.000000 1.000000
vt 0.000000 0.000000
vt 0.000000 0.000000
vt 0.000000 0.000000
vt 0.000000 0.000000
vt 0.000000 0.000000
vt 0.000000 0.000000
vt 0.000000 0.000000
vt 1.000000 0.000000
vt 1.000000 1.000000
vt 0.000000 1.000000
vt 0.000000 0.000000
vt 1.000000 0.000000
vt 1.000000 1.000000
vt 0.000000 1.000000
vt 0.000000 0.000000
vt 0.000000 0.000000
vt 0.000000 0.000000
vt 0.000000 0.000000
vt 0.000000 0.000000
vt 0.000000 0.000000
vt 0.000000 0.000000
vt 1.000000 0.000000
vt 1.000000 1.000000
vt 0.000000 1.000000
vt 0.000000 0.000000
vt 1.000000 0.000000
vt 1.000000 1.000000
vt 0.000000 1.000000
vt 0.000000 0.000000
vt 0.000000 0.000000
vt 0.000000 0.000000
vt 0.000000 0.000000
vt 0.000000 0.000000
vt 0.000000 0.000000
vt 0.000000 0.000000
vt 1.000000 0.000000
vt 1.000000 1.000000
vt 0.000000 1.000000
vt 0.000000 0.000000
vt 1.000000 0.000000
vt 1.000000 1.000000
vt 0.000000 1.000000
vt 0.000000 0.000000
vt 0.000000 0.000000
vt 0.000000 0.000000
vt 0.000000 0.000000
vt 0.000000 0.000000
vt 0.000000 0.000000
vt 0.000000 0.000000
vt 1.000000 0.000000
vt 1.000000 1.000000
vt 0.000000 1.000000
vt 0.000000 0.000000
vt 1.000000 0.000000
vt 1.000000 1.000000
vt 0.000000 1.000000
vt 0.000000 0.000000
vt 0.000000 0.000000
vt 0.000000 0.000000
vt 0.000000 0.000000
vt 0.000000 0.000000
vt 0.000000 0.000000
vt 0.000000 0.000000
vt 1.000000 0.000000
vt 1.000000 1.000000
vt 0.000000 1.000000
vt 0.000000 0.000000
vt 1.000000 0.000000
vt 1.000000 1.000000
vt 0.000000 1.000000
vt 0.000000 0.000000
vt 0.000000 0.000000
vt 0.000000 0.000000
vt 0.000000 0.000000
vt 0.000000 0.000000
vt 0.000000 0.000000
vt 0.000000 0.000000
vt 1.000000 0.000000
vt 1.000000 1.000000
vt 0.000000 1.000000
vt 0.000000 0.000000
vt 1.000000 0.000000
vt 1.000000 1.000000
vt 0.000000 1.000000
vt 0.000000 0.000000
vt 0.000000 0.000000
vt 0.000000 0.000000
vt 0.000000 0.000000
vt 0.000000 0.000000
vt 0.000000 0.000000
vt 0.000000 0.000000
vt 1.000000 0.000000
vt 1.000000 1.000000
vt 0.000000 1.000000
vt 0.000000 0.000000
vt 1.000000 0.000000
vt 1.000000 1.000000
vt 0.000000 1.000000
vt 0.000000 0.000000
vt 0.000000 0.000000
vt 0.000000 0.000000
vt 0.000000 0.000000
vt 0.000000 0.000000
vt 0.000000 0.000000
vt 0.000000 0.000000
vt 1.000000 0.000000
vt 1.000000 1.000000
vt 0.000000 1.000000
vt 0.000000 0.000000
vt 1.000000 0.000000
vt 1.000000 1.000000
vt 0.000000 1.000000
vt 0.000000 0.000000
vt 0.000000 0.000000
vt 0.000000 0.000000
vt 0.000000 0.000000
vt 0.000000 0.000000
vt 0.000000 0.000000
vt 0.000000 0.000000
vt 1.000000 0.000000
vt 1.000000 1.000000
vt 0.000000 1.000000
vt 0.000000 0.000000
vt 1.000000 0.000000
vt 1.000000 1.000000
vt 0.000000 1.000000
vt 0.000000 0.000000
vt 0.000000 0.000000
vt 0.000000 0.000000
vt 0.000000 0.000000
vt 0.000000 0.000000
vt 0.000000 0.000000
vt 0.000000 0.000000
vt 1.000000 0.000000
vt 1.000000 1.000000
vt 0.000000 1.000000
vt 0.000000 0.000000
vt 1.000000 0.000000
vt 1.000000 1.000000
vt 0.000000 1.000000
vt 0.000000 0.000000
vt 0.000000 0.000000
vt 0.000000 0.000000
vt 0.000000 0.000000
vt 0.000000 0.000000
vt 0.000000 0.000000
vt 0.000000 0.000000
vt 1.000000 0.000000
vt 1.000000 1.000000
vt 0.000000 1.000000
vt 0.000000 0.000000
vt 1.000000 0.000000
vt 1.000000 1.000000
vt 0.000000 1.000000
vt 0.000000 0.000000
vt 0.000000 0.000000
vt 0.000000 0.000000
vt 0.000000 0.000000
vt 0.000000 0.000000
vt 0.000000 0.000000
vt 0.000000 0.000000
vt 1.000000 0.000000
vt 1.000000 1.000000
vt 0.000000 1.000000
vt 0.000000 0.000000
vt 1.000000 0.000000
vt 1.000000 1.000000
vt 0.000000 1.000000
vt 0.000000 0.000000
vt 0.000000 0.000000
vt 0.000000 0.000000
vt 0.000000 0.000000
vt 0.000000 0.000000
vt 0.000000 0.000000
vt 0.000000 0.000000
vt 1.000000 0.000000
vt 1.000000 1.000000
vt 0.000000 1.000000
vt 0.000000 0.000000
vt 1.000000 0.000000
vt 1.000000 1.000000
vt 0.000000 1.000000
vt 0.000000 0.000000
vt 0.000000 0.000000
vt 0.000000 0.000000
vt 0.000000 0.000000
vt 0.000000 0.000000
vt 0.000000 0.000000
vt 0.000000 0.000000
vt 1.000000 0.000000
vt 1.000000 1.000000
vt 0.000000 1.000000
vt 0.000000 0.000000
vt 1.000000 0.000000
vt 1.000000 1.000000
vt 0.000000 1.000000
vt 0.000000 0.000000
vt 0.000000 0.000000
vt 0.000000 0.000000
vt 0.000000 0.000000
vt 0.000000 0.000000
vt 0.000000 0.000000
vt 0.000000 0.000000
vt 1.000000 0.000000
vt 1.000000 1.000000
vt 0.000000 1.000000
vt 0.000000 0.000000
vt 1.000000 0.000000
vt 1.000000 1.000000
vt 0.000000 1.000000
vt 0.000000 0.000000
vt 0.000000 0.000000
vt 0.000000 0.000000
vt 0.000000 0.000000
vt 0.000000 0.000000
vt 0.000000 0.000000
vt 0.000000 0.000000
vt 1.000000 0.000000
vt 1.000000 1.000000
vt 0.000000 1.000000
vt 0.000000 0.000000
vt 1.000000 0.000000
vt 1.000000 1.000000
vt 0.000000 1.000000
vt 0.000000 0.000000
vt 0.000000 0.000000
vt 0.000000 0.000000
vt 0.000000 0.000000
vt 0.000000 0.000000
vt 0.000000 0.000000
vt 0.000000 0.000000
vt 1.000000 0.000000
vt 1.000000 1.000000
vt 0.000000 1.000000
vt 0.000000 0.000000
vt 1.000000 0.000000
vt 1.000000 1.000000
vt 0.000000 1.000000
vt 0.000000 0.000000
vt 0.000000 0.000000
vt 0.000000 0.000000
usemtl Wood
f 1/1 2/2 3/3
f 1/1 3/3 4/4
f 5/5 6/6 7/7
f 5/5 7/7 8/8
f 9/9 10/10 11/11
f 9/9 11/11 12/12
f 13/13 14/14 15/15
f 13/13 15/15 16/16
f 17/17 18/18 19/19
f 17/17 19/19 20/20
f 21/21 22/22 23/23
f 21/21 23/23 24/24
f 25/25 26/26 27/27
f 25/25 27/27 28/28
f 29/29 30/30 31/31
f 32/32 33/33 34/34
f 35/35 36/36 37/37
f 38/38 39/39 40/40
f 41/41 42/42 43/43
f 44/44 45/45 46/46
f 47/47 48/48 49/49
f 50/50 51/51 52/52
f 53/53 54/54 55/55
f 56/56 57/57 58/58
f 59/59 60/60 61/61
f 62/62 63/63 64/64
f 65/65 66/66 67/67
f 68/68 69/69 70/70
f 71/71 72/72 73/73
f 71/71 73/73 74/74
f 75/75 76/76 77/77
f 75/75 77/77 78/78
f 79/79 80/80 81/81
f 79/79 81/81 82/82
f 83/83 84/84 85/85
f 83/83 85/85 86/86
f 87/87 88/88 89/89
f 87/87 89/89 90/90
f 91/91 92/92 93/93
f 91/91 93/93 94/94
usemtl Rope
f 95/95 96/96 97/97
f 95/95 97/97 98/98
f 99/99 100/100 101/101
f 99/99 101/101 102/102
f 103/103 104/104 105/105
f 103/103 105/105 106/106
f 107/107 108/108 109/109
f 107/107 109/109 110/110
f 111/111 112/112 113/113
f 111/111 113/113 114/114
f 115/115 116/116 117/117
f 115/115 117/117 118/118
f 119/119 120/120 121/121
f 119/119 121/121 122/122
f 123/123 124/124 125/125
f 123/123 125/125 126/126
f 127/127 128/128 129/129
f 127/127 129/129 130/130
f 131/131 132/132 133/133
f 131/131 133/133 134/134
f 135/135 136/136 137/137
f 135/135 137/137 138/138
f 139/139 140/140 141/141
f 139/139 141/141 142/142
f 143/143 144/144 145/145
f 143/143 145/145 146/146
f 147/147 148/148 149/149
f 147/147 149/149 150/150
f 151/151 152/152 153/153
f 151/151 153/153 154/154
f 155/155 156/156 157/157
f 155/155 157/157 158/158
f 159/159 160/160 161/161
f 159/159 161/161 162/162
f 163/163 164/164 165/165
f 163/163 165/165 166/166
f 167/167 168/168 169/169
f 167/167 169/169 170/170
f 171/171 172/172 173/173
f 171/171 173/173 174/174
f 175/175 176/176 177/177
f 175/175 177/177 178/178
f 179/179 180/180 181/181
f 179/179 181/181 182/182
f 183/183 184/184 185/185
f 183/183 185/185 186/186
f 187/187 188/188 189/189
f 187/187 189/189 190/190
f 191/191 192/192 193/193
f 191/191 193/193 194/194
f 195/195 196/196 197/197
f 195/195 197/197 198/198
f 199/199 200/200 201/201
f 199/199 201/201 202/202
f 203/203 204/204 205/205
f 203/203 205/205 206/206
f 207/207 208/208 209/209
f 207/207 209/209 210/210
f 211/211 212/212 213/213
f 211/211 213/213 214/214
f 215/215 216/216 217/217
f 215/215 217/217 218/218
f 219/219 220/220 221/221
f 219/219 221/221 222/222
f 223/223 224/224 225/225
f 223/223 225/225 226/226
f 227/227 228/228 229/229
f 227/227 229/229 230/230
f 231/231 232/232 233/233
f 231/231 233/233 234/234
f 235/235 236/236 237/237
f 235/235 237/237 238/238
f 239/239 240/240 241/241
f 239/239 241/241 242/242
f 243/243 244/244 245/245
f 243/243 245/245 246/246
f 247/247 248/248 249/249
f 247/247 249/249 250/250
f 251/251 252/252 253/253
f 251/251 253/253 254/254
f 255/255 256/256 257/257
f 255/255 257/257 258/258
f 259/259 260/260 261/261
f 259/259 261/261 262/262
f 263/263 264/264 265/265
f 263/263 265/265 266/266
f 267/267 268/268 269/269
f 267/267 269/269 270/270
f 271/271 272/272 273/273
f 271/271 273/273 274/274
f 275/275 276/276 277/277
f 275/275 277/277 278/278
f 279/279 280/280 281/281
f 279/279 281/281 282/282
f 283/283 284/284 285/285
f 283/283 285/285 286/286
usemtl Stone
f 287/287 288/288 289/289
f 290/290 291/291 292/292
f 290/290 292/292 293/293
f 294/294 295/295 296/296
f 294/294 296/296 297/297
f 298/298 299/299 300/300
f 301/301 302/302 303/303
f 304/304 305/305 306/306
f 304/304 306/306 307/307
f 308/308 309/309 310/310
f 308/308 310/310 311/311
f 312/312 313/313 314/314
f 315/315 316/316 317/317
f 318/318 319/319 320/320
f 318/318 320/320 321/321
f 322/322 323/323 324/324
f 322/322 324/324 325/325
f 326/326 327/327 328/328
f 329/329 330/330 331/331
f 332/332 333/333 334/334
f 332/332 334/334 335/335
f 336/336 337/337 338/338
f 336/336 338/338 339/339
f 340/340 341/341 342/342
f 343/343 344/344 345/345
f 346/346 347/347 348/348
f 346/346 348/348 349/349
f 350/350 351/351 352/352
f 350/350 352/352 353/353
f 354/354 355/355 356/356
f 357/357 358/358 359/359
f 360/360 361/361 362/362
f 360/360 362/362 363/363
f 364/364 365/365 366/366
f 364/364 366/366 367/367
f 368/368 369/369 370/370
f 371/371 372/372 373/373
f 374/374 375/375 376/376
f 374/374 376/376 377/377
f 378/378 379/379 380/380
f 378/378 380/380 381/381
f 382/382 383/383 384/384
f 385/385 386/386 387/387
f 388/388 389/389 390/390
f 388/388 390/390 391/391
f 392/392 393/393 394/394
f 392/392 394/394 395/395
f 396/396 397/397 398/398
f 399/399 400/400 401/401
f 402/402 403/403 404/404
f 402/402 404/404 405/405
f 406/406 407/407 408/408
f 406/406 408/408 409/409
f 410/410 411/411 412/412
f 413/413 414/414 415/415
f 416/416 417/417 418/418
f 416/416 418/418 419/419
f 420/420 421/421 422/422
f 420/420 422/422 423/423
f 424/424 425/425 426/426
f 427/427 428/428 429/429
f 430/430 431/431 432/432
f 430/430 432/432 433/433
f 434/434 435/435 436/436
f 434/434 436/436 437/437
f 438/438 439/439 440/440
f 441/441 442/442 443/443
f 444/444 445/445 446/446
f 444/444 446/446 447/447
f 448/448 449/449 450/450
f 448/448 450/450 451/451
f 452/452 453/453 454/454
f 455/455 456/456 457/457
f 458/458 459/459 460/460
f 458/458 460/460 461/461
f 462/462 463/463 464/464
f 462/462 464/464 465/465
f 466/466 467/467 468/468
f 469/469 470/470 471/471
f 472/472 473/473 474/474
f 472/472 474/474 475/475
f 476/476 477/477 478/478
f 476/476 478/478 479/479
f 480/480 481/481 482/482
f 483/483 484/484 485/485
f 486/486 487/487 488/488
f 486/486 488/488 489/489
f 490/490 491/491 492/492
f 490/490 492/492 493/493
f 494/494 495/495 496/496
f 497/497 498/498 499/499
f 500/500 501/501 502/502
f 500/500 502/502 503/503
f 504/504 505/505 506/506
f 504/504 506/506 507/507
f 508/508 509/509 510/510
f 511/511 512/512 513/513
f 514/514 515/515 516/516
f 514/514 516/516 517/517
f 518/518 519/519 520/520
f 518/518 520/520 521/521
f 522/522 523/523 524/524
f 525/525 526/526 527/527
f 528/528 529/529 530/530
f 528/528 530/530 531/531
f 532/532 533/533 534/534
f 532/532 534/534 535/535
f 536/536 537/537 538/538
