mtllib ../../Materials/project_oen.mtl
o en-005_beach_stone_cluster__small
v 0.130000 0.000000 0.000000
v 0.273365 0.006931 0.129108
v 0.342400 0.000000 0.000000
v 0.342400 0.000000 0.000000
v 0.273365 0.006931 0.129108
v 0.277949 0.083839 0.168020
v 0.399154 0.076908 0.000000
v 0.399154 0.076908 0.000000
v 0.277949 0.083839 0.168020
v 0.225381 0.151699 0.123808
v 0.308386 0.144768 0.000000
v 0.130000 0.205920 0.012000
v 0.308386 0.144768 0.000000
v 0.225381 0.151699 0.123808
v 0.130000 0.000000 0.000000
v 0.087139 -0.002198 0.191833
v 0.273365 0.006931 0.129108
v 0.273365 0.006931 0.129108
v 0.087139 -0.002198 0.191833
v 0.078616 0.074710 0.214784
v 0.277949 0.083839 0.168020
v 0.277949 0.083839 0.168020
v 0.078616 0.074710 0.214784
v 0.089821 0.142570 0.131597
v 0.225381 0.151699 0.123808
v 0.130000 0.205920 0.012000
v 0.225381 0.151699 0.123808
v 0.089821 0.142570 0.131597
v 0.130000 0.000000 0.000000
v -0.065669 -0.006234 0.076343
v 0.087139 -0.002198 0.191833
v 0.087139 -0.002198 0.191833
v -0.065669 -0.006234 0.076343
v -0.113234 0.070674 0.081228
v 0.078616 0.074710 0.214784
v 0.078616 0.074710 0.214784
v -0.113234 0.070674 0.081228
v -0.027540 0.138534 0.060664
v 0.089821 0.142570 0.131597
v 0.130000 0.205920 0.012000
v 0.089821 0.142570 0.131597
v -0.027540 0.138534 0.060664
v 0.130000 0.000000 0.000000
v -0.074337 0.004174 -0.072805
v -0.065669 -0.006234 0.076343
v -0.065669 -0.006234 0.076343
v -0.074337 0.004174 -0.072805
v -0.079290 0.081082 -0.095082
v -0.113234 0.070674 0.081228
v -0.113234 0.070674 0.081228
v -0.079290 0.081082 -0.095082
v -0.008487 0.148942 -0.068440
v -0.027540 0.138534 0.060664
v 0.130000 0.205920 0.012000
v -0.027540 0.138534 0.060664
v -0.008487 0.148942 -0.068440
v 0.130000 0.000000 0.000000
v 0.087413 0.004911 -0.192850
v -0.074337 0.004174 -0.072805
v -0.074337 0.004174 -0.072805
v 0.087413 0.004911 -0.192850
v 0.077543 0.081819 -0.210801
v -0.079290 0.081082 -0.095082
v -0.079290 0.081082 -0.095082
v 0.077543 0.081819 -0.210801
v 0.089219 0.149679 -0.129361
v -0.008487 0.148942 -0.068440
v 0.130000 0.205920 0.012000
v -0.008487 0.148942 -0.068440
v 0.089219 0.149679 -0.129361
v 0.130000 0.000000 0.000000
v 0.268233 -0.005731 -0.134562
v 0.087413 0.004911 -0.192850
v 0.087413 0.004911 -0.192850
v 0.268233 -0.005731 -0.134562
v 0.298049 0.071177 -0.146660
v 0.077543 0.081819 -0.210801
v 0.077543 0.081819 -0.210801
v 0.298049 0.071177 -0.146660
v 0.236663 0.139037 -0.111819
v 0.089219 0.149679 -0.129361
v 0.130000 0.205920 0.012000
v 0.089219 0.149679 -0.129361
v 0.236663 0.139037 -0.111819
v 0.130000 0.000000 0.000000
v 0.342400 0.000000 0.000000
v 0.268233 -0.005731 -0.134562
v 0.268233 -0.005731 -0.134562
v 0.342400 0.000000 0.000000
v 0.399154 0.076908 0.000000
v 0.298049 0.071177 -0.146660
v 0.298049 0.071177 -0.146660
v 0.399154 0.076908 0.000000
v 0.308386 0.144768 0.000000
v 0.236663 0.139037 -0.111819
v 0.130000 0.205920 0.012000
v 0.236663 0.139037 -0.111819
v 0.308386 0.144768 0.000000
v -0.213837 0.000000 0.195892
v -0.106058 0.007726 0.408772
v 0.061262 0.003237 0.271450
v 0.061262 0.003237 0.271450
v -0.106058 0.007726 0.408772
v -0.100084 0.105784 0.462622
v 0.097195 0.101294 0.285458
v 0.097195 0.101294 0.285458
v -0.100084 0.105784 0.462622
v -0.129676 0.192305 0.370159
v -0.023061 0.187816 0.265970
v -0.205132 0.262548 0.210157
v -0.023061 0.187816 0.265970
v -0.129676 0.192305 0.370159
v -0.213837 0.000000 0.195892
v -0.304518 -0.005686 0.425697
v -0.106058 0.007726 0.408772
v -0.106058 0.007726 0.408772
v -0.304518 -0.005686 0.425697
v -0.332193 0.092371 0.431798
v -0.100084 0.105784 0.462622
v -0.100084 0.105784 0.462622
v -0.332193 0.092371 0.431798
v -0.299832 0.178893 0.350348
v -0.129676 0.192305 0.370159
v -0.205132 0.262548 0.210157
v -0.129676 0.192305 0.370159
v -0.299832 0.178893 0.350348
v -0.213837 0.000000 0.195892
v -0.485719 -0.005923 0.279499
v -0.304518 -0.005686 0.425697
v -0.304518 -0.005686 0.425697
v -0.485719 -0.005923 0.279499
v -0.513755 0.092134 0.297833
v -0.332193 0.092371 0.431798
v -0.332193 0.092371 0.431798
v -0.513755 0.092134 0.297833
v -0.397632 0.178656 0.275378
v -0.299832 0.178893 0.350348
v -0.205132 0.262548 0.210157
v -0.299832 0.178893 0.350348
v -0.397632 0.178656 0.275378
v -0.213837 0.000000 0.195892
v -0.457303 0.007564 0.109937
v -0.485719 -0.005923 0.279499
v -0.485719 -0.005923 0.279499
v -0.457303 0.007564 0.109937
v -0.476579 0.105622 0.090454
v -0.513755 0.092134 0.297833
v -0.513755 0.092134 0.297833
v -0.476579 0.105622 0.090454
v -0.412678 0.192144 0.128466
v -0.397632 0.178656 0.275378
v -0.205132 0.262548 0.210157
v -0.397632 0.178656 0.275378
v -0.412678 0.192144 0.128466
v -0.213837 0.000000 0.195892
v -0.316895 0.003525 -0.026057
v -0.457303 0.007564 0.109937
v -0.457303 0.007564 0.109937
v -0.316895 0.003525 -0.026057
v -0.348294 0.101583 -0.031055
v -0.476579 0.105622 0.090454
v -0.476579 0.105622 0.090454
v -0.348294 0.101583 -0.031055
v -0.309166 0.188104 0.043085
v -0.412678 0.192144 0.128466
v -0.205132 0.262548 0.210157
v -0.412678 0.192144 0.128466
v -0.309166 0.188104 0.043085
v -0.213837 0.000000 0.195892
v -0.106115 -0.008682 0.003319
v -0.316895 0.003525 -0.026057
v -0.316895 0.003525 -0.026057
v -0.106115 -0.008682 0.003319
v -0.097678 0.089376 -0.044815
v -0.348294 0.101583 -0.031055
v -0.348294 0.101583 -0.031055
v -0.097678 0.089376 -0.044815
v -0.142258 0.175897 0.009937
v -0.309166 0.188104 0.043085
v -0.205132 0.262548 0.210157
v -0.309166 0.188104 0.043085
v -0.142258 0.175897 0.009937
v -0.213837 0.000000 0.195892
v 0.020115 -0.000772 0.098108
v -0.106115 -0.008682 0.003319
v -0.106115 -0.008682 0.003319
v 0.020115 -0.000772 0.098108
v 0.045410 0.097286 0.078749
v -0.097678 0.089376 -0.044815
v -0.097678 0.089376 -0.044815
v 0.045410 0.097286 0.078749
v -0.014218 0.183807 0.122321
v -0.142258 0.175897 0.009937
v -0.205132 0.262548 0.210157
v -0.142258 0.175897 0.009937
v -0.014218 0.183807 0.122321
v -0.213837 0.000000 0.195892
v 0.061262 0.003237 0.271450
v 0.020115 -0.000772 0.098108
v 0.020115 -0.000772 0.098108
v 0.061262 0.003237 0.271450
v 0.097195 0.101294 0.285458
v 0.045410 0.097286 0.078749
v 0.045410 0.097286 0.078749
v 0.097195 0.101294 0.285458
v -0.023061 0.187816 0.265970
v -0.014218 0.183807 0.122321
v -0.205132 0.262548 0.210157
v -0.014218 0.183807 0.122321
v -0.023061 0.187816 0.265970
v 0.031147 0.000000 -0.354910
v 0.070565 0.006771 -0.052132
v 0.293632 0.007337 -0.181769
v 0.293632 0.007337 -0.181769
v 0.070565 0.006771 -0.052132
v 0.078698 0.125978 -0.017745
v 0.301445 0.126544 -0.129287
v 0.301445 0.126544 -0.129287
v 0.078698 0.125978 -0.017745
v 0.068301 0.231161 -0.148372
v 0.206351 0.231727 -0.189481
v 0.050880 0.319176 -0.341175
v 0.206351 0.231727 -0.189481
v 0.068301 0.231161 -0.148372
v 0.031147 0.000000 -0.354910
v -0.150073 -0.009484 -0.125778
v 0.070565 0.006771 -0.052132
v 0.070565 0.006771 -0.052132
v -0.150073 -0.009484 -0.125778
v -0.193073 0.109724 -0.109913
v 0.078698 0.125978 -0.017745
v 0.078698 0.125978 -0.017745
v -0.193073 0.109724 -0.109913
v -0.113392 0.214907 -0.171021
v 0.068301 0.231161 -0.148372
v 0.050880 0.319176 -0.341175
v 0.068301 0.231161 -0.148372
v -0.113392 0.214907 -0.171021
v 0.031147 0.000000 -0.354910
v -0.302751 -0.003764 -0.275945
v -0.150073 -0.009484 -0.125778
v -0.150073 -0.009484 -0.125778
v -0.302751 -0.003764 -0.275945
v -0.310546 0.115444 -0.251793
v -0.193073 0.109724 -0.109913
v -0.193073 0.109724 -0.109913
v -0.310546 0.115444 -0.251793
v -0.196354 0.220627 -0.281087
v -0.113392 0.214907 -0.171021
v 0.050880 0.319176 -0.341175
v -0.113392 0.214907 -0.171021
v -0.196354 0.220627 -0.281087
v 0.031147 0.000000 -0.354910
v -0.242935 0.010677 -0.471806
v -0.302751 -0.003764 -0.275945
v -0.302751 -0.003764 -0.275945
v -0.242935 0.010677 -0.471806
v -0.308311 0.129884 -0.482047
v -0.310546 0.115444 -0.251793
v -0.310546 0.115444 -0.251793
v -0.308311 0.129884 -0.482047
v -0.232216 0.235067 -0.433025
v -0.196354 0.220627 -0.281087
v 0.050880 0.319176 -0.341175
v -0.196354 0.220627 -0.281087
v -0.232216 0.235067 -0.433025
v 0.031147 0.000000 -0.354910
v -0.128746 0.000378 -0.590226
v -0.242935 0.010677 -0.471806
v -0.242935 0.010677 -0.471806
v -0.128746 0.000378 -0.590226
v -0.162221 0.119586 -0.612886
v -0.308311 0.129884 -0.482047
v -0.308311 0.129884 -0.482047
v -0.162221 0.119586 -0.612886
v -0.091097 0.224769 -0.552353
v -0.232216 0.235067 -0.433025
v 0.050880 0.319176 -0.341175
v -0.232216 0.235067 -0.433025
v -0.091097 0.224769 -0.552353
v 0.031147 0.000000 -0.354910
v 0.105025 -0.010797 -0.615111
v -0.128746 0.000378 -0.590226
v -0.128746 0.000378 -0.590226
v 0.105025 -0.010797 -0.615111
v 0.106739 0.108411 -0.693281
v -0.162221 0.119586 -0.612886
v -0.162221 0.119586 -0.612886
v 0.106739 0.108411 -0.693281
v 0.082972 0.213594 -0.591124
v -0.091097 0.224769 -0.552353
v 0.050880 0.319176 -0.341175
v -0.091097 0.224769 -0.552353
v 0.082972 0.213594 -0.591124
v 0.031147 0.000000 -0.354910
v 0.266122 0.003045 -0.542022
v 0.105025 -0.010797 -0.615111
v 0.105025 -0.010797 -0.615111
v 0.266122 0.003045 -0.542022
v 0.328661 0.122252 -0.554167
v 0.106739 0.108411 -0.693281
v 0.106739 0.108411 -0.693281
v 0.328661 0.122252 -0.554167
v 0.259111 0.227435 -0.478504
v 0.082972 0.213594 -0.591124
v 0.050880 0.319176 -0.341175
v 0.082972 0.213594 -0.591124
v 0.259111 0.227435 -0.478504
v 0.031147 0.000000 -0.354910
v 0.382025 0.009831 -0.344011
v 0.266122 0.003045 -0.542022
v 0.266122 0.003045 -0.542022
v 0.382025 0.009831 -0.344011
v 0.445140 0.129039 -0.342619
v 0.328661 0.122252 -0.554167
v 0.328661 0.122252 -0.554167
v 0.445140 0.129039 -0.342619
v 0.288837 0.234222 -0.345374
v 0.259111 0.227435 -0.478504
v 0.050880 0.319176 -0.341175
v 0.259111 0.227435 -0.478504
v 0.288837 0.234222 -0.345374
v 0.031147 0.000000 -0.354910
v 0.293632 0.007337 -0.181769
v 0.382025 0.009831 -0.344011
v 0.382025 0.009831 -0.344011
v 0.293632 0.007337 -0.181769
v 0.301445 0.126544 -0.129287
v 0.445140 0.129039 -0.342619
v 0.445140 0.129039 -0.342619
v 0.301445 0.126544 -0.129287
v 0.206351 0.231727 -0.189481
v 0.288837 0.234222 -0.345374
v 0.050880 0.319176 -0.341175
v 0.288837 0.234222 -0.345374
v 0.206351 0.231727 -0.189481
v 0.247713 0.000000 0.323097
v 0.095298 0.003806 0.641755
v 0.416849 0.011475 0.622845
v 0.416849 0.011475 0.622845
v 0.095298 0.003806 0.641755
v 0.048692 0.144163 0.649762
v 0.427024 0.151832 0.697016
v 0.427024 0.151832 0.697016
v 0.048692 0.144163 0.649762
v 0.103868 0.268007 0.538248
v 0.381094 0.275677 0.566185
v 0.278575 0.375804 0.332835
v 0.381094 0.275677 0.566185
v 0.103868 0.268007 0.538248
v 0.247713 0.000000 0.323097
v -0.166185 -0.012682 0.392468
v 0.095298 0.003806 0.641755
v 0.095298 0.003806 0.641755
v -0.166185 -0.012682 0.392468
v -0.206494 0.127675 0.408175
v 0.048692 0.144163 0.649762
v 0.048692 0.144163 0.649762
v -0.206494 0.127675 0.408175
v -0.030817 0.251520 0.389330
v 0.103868 0.268007 0.538248
v 0.278575 0.375804 0.332835
v 0.103868 0.268007 0.538248
v -0.030817 0.251520 0.389330
v 0.247713 0.000000 0.323097
v -0.045885 0.000215 0.113239
v -0.166185 -0.012682 0.392468
v -0.166185 -0.012682 0.392468
v -0.045885 0.000215 0.113239
v -0.070884 0.140573 0.066965
v -0.206494 0.127675 0.408175
v -0.206494 0.127675 0.408175
v -0.070884 0.140573 0.066965
v 0.005560 0.264417 0.160007
v -0.030817 0.251520 0.389330
v 0.278575 0.375804 0.332835
v -0.030817 0.251520 0.389330
v 0.005560 0.264417 0.160007
v 0.247713 0.000000 0.323097
v 0.243308 0.012614 -0.022726
v -0.045885 0.000215 0.113239
v -0.045885 0.000215 0.113239
v 0.243308 0.012614 -0.022726
v 0.241971 0.152971 -0.030502
v -0.070884 0.140573 0.066965
v -0.070884 0.140573 0.066965
v 0.241971 0.152971 -0.030502
v 0.243665 0.276815 0.083467
v 0.005560 0.264417 0.160007
v 0.278575 0.375804 0.332835
v 0.005560 0.264417 0.160007
v 0.243665 0.276815 0.083467
v 0.247713 0.000000 0.323097
v 0.577839 -0.004215 0.135983
v 0.243308 0.012614 -0.022726
v 0.243308 0.012614 -0.022726
v 0.577839 -0.004215 0.135983
v 0.602041 0.136142 0.088071
v 0.241971 0.152971 -0.030502
v 0.241971 0.152971 -0.030502
v 0.602041 0.136142 0.088071
v 0.466513 0.259987 0.142030
v 0.243665 0.276815 0.083467
v 0.278575 0.375804 0.332835
v 0.243665 0.276815 0.083467
v 0.466513 0.259987 0.142030
v 0.247713 0.000000 0.323097
v 0.603941 -0.011277 0.396495
v 0.577839 -0.004215 0.135983
v 0.577839 -0.004215 0.135983
v 0.603941 -0.011277 0.396495
v 0.644932 0.129080 0.410548
v 0.602041 0.136142 0.088071
v 0.602041 0.136142 0.088071
v 0.644932 0.129080 0.410548
v 0.554490 0.252924 0.377832
v 0.466513 0.259987 0.142030
v 0.278575 0.375804 0.332835
v 0.466513 0.259987 0.142030
v 0.554490 0.252924 0.377832
v 0.247713 0.000000 0.323097
v 0.416849 0.011475 0.622845
v 0.603941 -0.011277 0.396495
v 0.603941 -0.011277 0.396495
v 0.416849 0.011475 0.622845
v 0.427024 0.151832 0.697016
v 0.644932 0.129080 0.410548
v 0.644932 0.129080 0.410548
v 0.427024 0.151832 0.697016
v 0.381094 0.275677 0.566185
v 0.554490 0.252924 0.377832
v 0.278575 0.375804 0.332835
v 0.554490 0.252924 0.377832
v 0.381094 0.275677 0.566185
v 0.235000 0.025000 0.000000
v 0.302412 0.011097 0.087672
v 0.286094 -0.167298 0.204927
v 0.216638 0.011097 0.109058
v 0.280379 -0.020541 0.001087
v 0.274264 -0.025074 -0.002038
v 0.248184 -0.129677 0.200715
v 0.254299 -0.125144 0.203840
v 0.274264 -0.025074 -0.002038
v 0.267214 -0.021002 -0.000844
v 0.241133 -0.125605 0.201909
v 0.248184 -0.129677 0.200715
v 0.267214 -0.021002 -0.000844
v 0.268971 -0.013952 0.003019
v 0.242891 -0.118555 0.205772
v 0.241133 -0.125605 0.201909
v 0.268971 -0.013952 0.003019
v 0.277108 -0.013667 0.004213
v 0.251028 -0.118270 0.206966
v 0.242891 -0.118555 0.205772
v 0.277108 -0.013667 0.004213
v 0.280379 -0.020541 0.001087
v 0.254299 -0.125144 0.203840
v 0.251028 -0.118270 0.206966
v 0.273587 -0.018847 0.001087
v 0.274264 -0.025074 -0.002038
v 0.280379 -0.020541 0.001087
v 0.247507 -0.123451 0.203840
v 0.254299 -0.125144 0.203840
v 0.248184 -0.129677 0.200715
v 0.273587 -0.018847 0.001087
v 0.267214 -0.021002 -0.000844
v 0.274264 -0.025074 -0.002038
v 0.247507 -0.123451 0.203840
v 0.248184 -0.129677 0.200715
v 0.241133 -0.125605 0.201909
v 0.273587 -0.018847 0.001087
v 0.268971 -0.013952 0.003019
v 0.267214 -0.021002 -0.000844
v 0.247507 -0.123451 0.203840
v 0.241133 -0.125605 0.201909
v 0.242891 -0.118555 0.205772
v 0.273587 -0.018847 0.001087
v 0.277108 -0.013667 0.004213
v 0.268971 -0.013952 0.003019
v 0.247507 -0.123451 0.203840
v 0.242891 -0.118555 0.205772
v 0.251028 -0.118270 0.206966
v 0.273587 -0.018847 0.001087
v 0.280379 -0.020541 0.001087
v 0.277108 -0.013667 0.004213
v 0.247507 -0.123451 0.203840
v 0.251028 -0.118270 0.206966
v 0.254299 -0.125144 0.203840
v 0.270000 0.028000 -0.025000
v 0.252703 0.017753 -0.106087
v 0.307545 -0.136681 -0.175586
v 0.323340 0.017753 -0.088475
v 0.294136 -0.104788 -0.174787
v 0.297494 -0.098263 -0.178510
v 0.273183 -0.000754 -0.029522
v 0.269825 -0.007280 -0.025799
v 0.297494 -0.098263 -0.178510
v 0.305598 -0.098415 -0.177088
v 0.281287 -0.000906 -0.028100
v 0.273183 -0.000754 -0.029522
v 0.305598 -0.098415 -0.177088
v 0.307249 -0.105034 -0.172486
v 0.282937 -0.007526 -0.023498
v 0.281287 -0.000906 -0.028100
v 0.307249 -0.105034 -0.172486
v 0.300165 -0.108973 -0.171064
v 0.275853 -0.011465 -0.022076
v 0.282937 -0.007526 -0.023498
v 0.300165 -0.108973 -0.171064
v 0.294136 -0.104788 -0.174787
v 0.269825 -0.007280 -0.025799
v 0.275853 -0.011465 -0.022076
v 0.300928 -0.103095 -0.174787
v 0.297494 -0.098263 -0.178510
v 0.294136 -0.104788 -0.174787
v 0.276617 -0.005586 -0.025799
v 0.269825 -0.007280 -0.025799
v 0.273183 -0.000754 -0.029522
v 0.300928 -0.103095 -0.174787
v 0.305598 -0.098415 -0.177088
v 0.297494 -0.098263 -0.178510
v 0.276617 -0.005586 -0.025799
v 0.273183 -0.000754 -0.029522
v 0.281287 -0.000906 -0.028100
v 0.300928 -0.103095 -0.174787
v 0.307249 -0.105034 -0.172486
v 0.305598 -0.098415 -0.177088
v 0.276617 -0.005586 -0.025799
v 0.281287 -0.000906 -0.028100
v 0.282937 -0.007526 -0.023498
v 0.300928 -0.103095 -0.174787
v 0.300165 -0.108973 -0.171064
v 0.307249 -0.105034 -0.172486
v 0.276617 -0.005586 -0.025799
v 0.282937 -0.007526 -0.023498
v 0.275853 -0.011465 -0.022076
v 0.300928 -0.103095 -0.174787
v 0.294136 -0.104788 -0.174787
v 0.300165 -0.108973 -0.171064
v 0.276617 -0.005586 -0.025799
v 0.275853 -0.011465 -0.022076
v 0.269825 -0.007280 -0.025799
v -0.190080 0.025000 0.174129
v -0.068100 0.004878 0.155775
v 0.037463 -0.180255 0.235099
v -0.093619 0.004878 0.251015
v -0.016423 -0.068828 0.091540
v -0.023353 -0.065677 0.088415
v -0.139500 -0.096799 0.314563
v -0.132570 -0.099950 0.317688
v -0.023353 -0.065677 0.088415
v -0.023209 -0.057537 0.089609
v -0.139357 -0.088658 0.315756
v -0.139500 -0.096799 0.314563
v -0.023209 -0.057537 0.089609
v -0.016191 -0.055656 0.093472
v -0.132339 -0.086778 0.319620
v -0.139357 -0.088658 0.315756
v -0.016191 -0.055656 0.093472
v -0.011997 -0.062635 0.094666
v -0.128145 -0.093756 0.320813
v -0.132339 -0.086778 0.319620
v -0.011997 -0.062635 0.094666
v -0.016423 -0.068828 0.091540
v -0.132570 -0.099950 0.317688
v -0.128145 -0.093756 0.320813
v -0.018235 -0.062067 0.091540
v -0.023353 -0.065677 0.088415
v -0.016423 -0.068828 0.091540
v -0.134382 -0.093188 0.317688
v -0.132570 -0.099950 0.317688
v -0.139500 -0.096799 0.314563
v -0.018235 -0.062067 0.091540
v -0.023209 -0.057537 0.089609
v -0.023353 -0.065677 0.088415
v -0.134382 -0.093188 0.317688
v -0.139500 -0.096799 0.314563
v -0.139357 -0.088658 0.315756
v -0.018235 -0.062067 0.091540
v -0.016191 -0.055656 0.093472
v -0.023209 -0.057537 0.089609
v -0.134382 -0.093188 0.317688
v -0.139357 -0.088658 0.315756
v -0.132339 -0.086778 0.319620
v -0.018235 -0.062067 0.091540
v -0.011997 -0.062635 0.094666
v -0.016191 -0.055656 0.093472
v -0.134382 -0.093188 0.317688
v -0.132339 -0.086778 0.319620
v -0.128145 -0.093756 0.320813
v -0.018235 -0.062067 0.091540
v -0.016423 -0.068828 0.091540
v -0.011997 -0.062635 0.094666
v -0.134382 -0.093188 0.317688
v -0.128145 -0.093756 0.320813
v -0.132570 -0.099950 0.317688
v -0.155080 0.028000 0.149129
v -0.243537 0.011955 0.122155
v -0.281680 -0.148759 0.031073
v -0.188159 0.011955 0.062769
v -0.264142 -0.093483 0.007012
v -0.256807 -0.093256 0.003289
v -0.174830 -0.016811 0.169468
v -0.182166 -0.017038 0.173191
v -0.256807 -0.093256 0.003289
v -0.253011 -0.100417 0.004711
v -0.171035 -0.023973 0.170890
v -0.174830 -0.016811 0.169468
v -0.253011 -0.100417 0.004711
v -0.258001 -0.105070 0.009312
v -0.176024 -0.028626 0.175491
v -0.171035 -0.023973 0.170890
v -0.258001 -0.105070 0.009312
v -0.264880 -0.100784 0.010734
v -0.182903 -0.024340 0.176913
v -0.176024 -0.028626 0.175491
v -0.264880 -0.100784 0.010734
v -0.264142 -0.093483 0.007012
v -0.182166 -0.017038 0.173191
v -0.182903 -0.024340 0.176913
v -0.259368 -0.098602 0.007012
v -0.256807 -0.093256 0.003289
v -0.264142 -0.093483 0.007012
v -0.177392 -0.022157 0.173191
v -0.182166 -0.017038 0.173191
v -0.174830 -0.016811 0.169468
v -0.259368 -0.098602 0.007012
v -0.253011 -0.100417 0.004711
v -0.256807 -0.093256 0.003289
v -0.177392 -0.022157 0.173191
v -0.174830 -0.016811 0.169468
v -0.171035 -0.023973 0.170890
v -0.259368 -0.098602 0.007012
v -0.258001 -0.105070 0.009312
v -0.253011 -0.100417 0.004711
v -0.177392 -0.022157 0.173191
v -0.171035 -0.023973 0.170890
v -0.176024 -0.028626 0.175491
v -0.259368 -0.098602 0.007012
v -0.264880 -0.100784 0.010734
v -0.258001 -0.105070 0.009312
v -0.177392 -0.022157 0.173191
v -0.176024 -0.028626 0.175491
v -0.182903 -0.024340 0.176913
v -0.259368 -0.098602 0.007012
v -0.264142 -0.093483 0.007012
v -0.264880 -0.100784 0.010734
v -0.177392 -0.022157 0.173191
v -0.182903 -0.024340 0.176913
v -0.182166 -0.017038 0.173191
v 0.024065 0.025000 -0.274209
v 0.071606 -0.001342 -0.401751
v 0.204634 -0.193212 -0.461194
v 0.149870 -0.001342 -0.326172
v 0.155399 -0.136691 -0.492472
v 0.154795 -0.129103 -0.495598
v 0.062625 -0.033658 -0.246056
v 0.063229 -0.041246 -0.242930
v 0.154795 -0.129103 -0.495598
v 0.161985 -0.125281 -0.494404
v 0.069815 -0.029837 -0.244862
v 0.062625 -0.033658 -0.246056
v 0.161985 -0.125281 -0.494404
v 0.167032 -0.130508 -0.490541
v 0.074862 -0.035063 -0.240999
v 0.069815 -0.029837 -0.244862
v 0.167032 -0.130508 -0.490541
v 0.162962 -0.137560 -0.489347
v 0.070792 -0.042115 -0.239805
v 0.074862 -0.035063 -0.240999
v 0.162962 -0.137560 -0.489347
v 0.155399 -0.136691 -0.492472
v 0.063229 -0.041246 -0.242930
v 0.070792 -0.042115 -0.239805
v 0.160435 -0.131829 -0.492472
v 0.154795 -0.129103 -0.495598
v 0.155399 -0.136691 -0.492472
v 0.068265 -0.036384 -0.242930
v 0.063229 -0.041246 -0.242930
v 0.062625 -0.033658 -0.246056
v 0.160435 -0.131829 -0.492472
v 0.161985 -0.125281 -0.494404
v 0.154795 -0.129103 -0.495598
v 0.068265 -0.036384 -0.242930
v 0.062625 -0.033658 -0.246056
v 0.069815 -0.029837 -0.244862
v 0.160435 -0.131829 -0.492472
v 0.167032 -0.130508 -0.490541
v 0.161985 -0.125281 -0.494404
v 0.068265 -0.036384 -0.242930
v 0.069815 -0.029837 -0.244862
v 0.074862 -0.035063 -0.240999
v 0.160435 -0.131829 -0.492472
v 0.162962 -0.137560 -0.489347
v 0.167032 -0.130508 -0.490541
v 0.068265 -0.036384 -0.242930
v 0.074862 -0.035063 -0.240999
v 0.070792 -0.042115 -0.239805
v 0.160435 -0.131829 -0.492472
v 0.155399 -0.136691 -0.492472
v 0.162962 -0.137560 -0.489347
v 0.068265 -0.036384 -0.242930
v 0.070792 -0.042115 -0.239805
v 0.063229 -0.041246 -0.242930
v 0.059065 0.028000 -0.299209
v -0.014289 0.006158 -0.228269
v -0.122597 -0.160838 -0.240183
v -0.041977 0.006158 -0.313484
v -0.088418 -0.040651 -0.361381
v -0.084664 -0.046957 -0.365104
v 0.032967 -0.085178 -0.181734
v 0.029213 -0.078872 -0.178011
v -0.084664 -0.046957 -0.365104
v -0.089087 -0.053749 -0.363682
v 0.028544 -0.091969 -0.180312
v 0.032967 -0.085178 -0.181734
v -0.089087 -0.053749 -0.363682
v -0.095575 -0.051641 -0.359080
v 0.022056 -0.089861 -0.175710
v 0.028544 -0.091969 -0.180312
v -0.095575 -0.051641 -0.359080
v -0.095162 -0.043546 -0.357658
v 0.022469 -0.081767 -0.174288
v 0.022056 -0.089861 -0.175710
v -0.095162 -0.043546 -0.357658
v -0.088418 -0.040651 -0.361381
v 0.029213 -0.078872 -0.178011
v 0.022469 -0.081767 -0.174288
v -0.090581 -0.047309 -0.361381
v -0.084664 -0.046957 -0.365104
v -0.088418 -0.040651 -0.361381
v 0.027050 -0.085529 -0.178011
v 0.029213 -0.078872 -0.178011
v 0.032967 -0.085178 -0.181734
v -0.090581 -0.047309 -0.361381
v -0.089087 -0.053749 -0.363682
v -0.084664 -0.046957 -0.365104
v 0.027050 -0.085529 -0.178011
v 0.032967 -0.085178 -0.181734
v 0.028544 -0.091969 -0.180312
v -0.090581 -0.047309 -0.361381
v -0.095575 -0.051641 -0.359080
v -0.089087 -0.053749 -0.363682
v 0.027050 -0.085529 -0.178011
v 0.028544 -0.091969 -0.180312
v 0.022056 -0.089861 -0.175710
v -0.090581 -0.047309 -0.361381
v -0.095162 -0.043546 -0.357658
v -0.095575 -0.051641 -0.359080
v 0.027050 -0.085529 -0.178011
v 0.022056 -0.089861 -0.175710
v 0.022469 -0.081767 -0.174288
v -0.090581 -0.047309 -0.361381
v -0.088418 -0.040651 -0.361381
v -0.095162 -0.043546 -0.357658
v 0.027050 -0.085529 -0.178011
v 0.022469 -0.081767 -0.174288
v 0.029213 -0.078872 -0.178011
v 0.211844 0.005000 0.089566
v 0.248381 0.006688 0.139620
v 0.279344 0.005000 0.089566
v 0.279344 0.005000 0.089566
v 0.248381 0.006688 0.139620
v 0.249549 0.025422 0.154706
v 0.297380 0.023734 0.089566
v 0.297380 0.023734 0.089566
v 0.249549 0.025422 0.154706
v 0.236152 0.041952 0.137566
v 0.268535 0.040264 0.089566
v 0.211844 0.055160 0.093766
v 0.268535 0.040264 0.089566
v 0.236152 0.041952 0.137566
v 0.211844 0.005000 0.089566
v 0.181238 0.004465 0.149208
v 0.248381 0.006688 0.139620
v 0.248381 0.006688 0.139620
v 0.181238 0.004465 0.149208
v 0.175152 0.023199 0.156343
v 0.249549 0.025422 0.154706
v 0.249549 0.025422 0.154706
v 0.175152 0.023199 0.156343
v 0.183153 0.039729 0.130480
v 0.236152 0.041952 0.137566
v 0.211844 0.055160 0.093766
v 0.236152 0.041952 0.137566
v 0.183153 0.039729 0.130480
v 0.211844 0.005000 0.089566
v 0.142826 0.003481 0.089566
v 0.181238 0.004465 0.149208
v 0.181238 0.004465 0.149208
v 0.142826 0.003481 0.089566
v 0.126049 0.022215 0.089566
v 0.175152 0.023199 0.156343
v 0.175152 0.023199 0.156343
v 0.126049 0.022215 0.089566
v 0.156275 0.038745 0.089566
v 0.183153 0.039729 0.130480
v 0.211844 0.055160 0.093766
v 0.183153 0.039729 0.130480
v 0.156275 0.038745 0.089566
v 0.211844 0.005000 0.089566
v 0.175806 0.006017 0.038705
v 0.142826 0.003481 0.089566
v 0.142826 0.003481 0.089566
v 0.175806 0.006017 0.038705
v 0.174933 0.024751 0.023143
v 0.126049 0.022215 0.089566
v 0.126049 0.022215 0.089566
v 0.174933 0.024751 0.023143
v 0.187420 0.041281 0.041754
v 0.156275 0.038745 0.089566
v 0.211844 0.055160 0.093766
v 0.156275 0.038745 0.089566
v 0.187420 0.041281 0.041754
v 0.211844 0.005000 0.089566
v 0.242255 0.006196 0.029608
v 0.175806 0.006017 0.038705
v 0.175806 0.006017 0.038705
v 0.242255 0.006196 0.029608
v 0.249302 0.024930 0.024027
v 0.174933 0.024751 0.023143
v 0.174933 0.024751 0.023143
v 0.249302 0.024930 0.024027
v 0.240965 0.041460 0.049347
v 0.187420 0.041281 0.041754
v 0.211844 0.055160 0.093766
v 0.187420 0.041281 0.041754
v 0.240965 0.041460 0.049347
v 0.211844 0.005000 0.089566
v 0.279344 0.005000 0.089566
v 0.242255 0.006196 0.029608
v 0.242255 0.006196 0.029608
v 0.279344 0.005000 0.089566
v 0.297380 0.023734 0.089566
v 0.249302 0.024930 0.024027
v 0.249302 0.024930 0.024027
v 0.297380 0.023734 0.089566
v 0.268535 0.040264 0.089566
v 0.240965 0.041460 0.049347
v 0.211844 0.055160 0.093766
v 0.240965 0.041460 0.049347
v 0.268535 0.040264 0.089566
v -0.229801 0.005000 0.009564
v -0.228932 0.006341 0.075895
v -0.165005 0.005835 0.037246
v -0.165005 0.005835 0.037246
v -0.228932 0.006341 0.075895
v -0.228842 0.025075 0.089316
v -0.159705 0.024569 0.044047
v -0.159705 0.024569 0.044047
v -0.228842 0.025075 0.089316
v -0.229064 0.041605 0.059773
v -0.186660 0.041099 0.036249
v -0.226872 0.055160 0.013229
v -0.186660 0.041099 0.036249
v -0.229064 0.041605 0.059773
v -0.229801 0.005000 0.009564
v -0.285465 0.003740 0.043097
v -0.228932 0.006341 0.075895
v -0.228932 0.006341 0.075895
v -0.285465 0.003740 0.043097
v -0.302051 0.022474 0.043907
v -0.228842 0.025075 0.089316
v -0.228842 0.025075 0.089316
v -0.302051 0.022474 0.043907
v -0.279927 0.039004 0.033280
v -0.229064 0.041605 0.059773
v -0.226872 0.055160 0.013229
v -0.229064 0.041605 0.059773
v -0.279927 0.039004 0.033280
v -0.229801 0.005000 0.009564
v -0.294501 0.004058 -0.018169
v -0.285465 0.003740 0.043097
v -0.285465 0.003740 0.043097
v -0.294501 0.004058 -0.018169
v -0.298384 0.022792 -0.025710
v -0.302051 0.022474 0.043907
v -0.302051 0.022474 0.043907
v -0.298384 0.022792 -0.025710
v -0.272479 0.039322 -0.017364
v -0.279927 0.039004 0.033280
v -0.226872 0.055160 0.013229
v -0.279927 0.039004 0.033280
v -0.272479 0.039322 -0.017364
v -0.229801 0.005000 0.009564
v -0.230654 0.006559 -0.057884
v -0.294501 0.004058 -0.018169
v -0.294501 0.004058 -0.018169
v -0.230654 0.006559 -0.057884
v -0.230770 0.025293 -0.069531
v -0.298384 0.022792 -0.025710
v -0.298384 0.022792 -0.025710
v -0.230770 0.025293 -0.069531
v -0.230555 0.041823 -0.039519
v -0.272479 0.039322 -0.017364
v -0.226872 0.055160 0.013229
v -0.272479 0.039322 -0.017364
v -0.230555 0.041823 -0.039519
v -0.229801 0.005000 0.009564
v -0.172883 0.005447 -0.023273
v -0.230654 0.006559 -0.057884
v -0.230654 0.006559 -0.057884
v -0.172883 0.005447 -0.023273
v -0.156745 0.024181 -0.024331
v -0.230770 0.025293 -0.069531
v -0.230770 0.025293 -0.069531
v -0.156745 0.024181 -0.024331
v -0.180390 0.040711 -0.014550
v -0.230555 0.041823 -0.039519
v -0.226872 0.055160 0.013229
v -0.230555 0.041823 -0.039519
v -0.180390 0.040711 -0.014550
v -0.229801 0.005000 0.009564
v -0.165005 0.005835 0.037246
v -0.172883 0.005447 -0.023273
v -0.172883 0.005447 -0.023273
v -0.165005 0.005835 0.037246
v -0.159705 0.024569 0.044047
v -0.156745 0.024181 -0.024331
v -0.156745 0.024181 -0.024331
v -0.159705 0.024569 0.044047
v -0.186660 0.041099 0.036249
v -0.180390 0.040711 -0.014550
v -0.226872 0.055160 0.013229
v -0.180390 0.040711 -0.014550
v -0.186660 0.041099 0.036249
vt 0.000000 0.000000
vt 0.000000 0.000000
vt 0.000000 0.000000
vt 0.000000 0.000000
vt 1.000000 0.000000
vt 1.000000 1.000000
vt 0.000000 1.000000
vt 0.000000 0.000000
vt 1.000000 0.000000
vt 1.000000 1.000000
vt 0.000000 1.000000
vt 0.000000 0.000000
vt 0.000000 0.000000
vt 0.000000 0.000000
vt 0.000000 0.000000
vt 0.000000 0.000000
vt 0.000000 0.000000
vt 0.000000 0.000000
vt 1.000000 0.000000
vt 1.000000 1.000000
vt 0.000000 1.000000
vt 0.000000 0.000000
vt 1.000000 0.000000
vt 1.000000 1.000000
vt 0.000000 1.000000
vt 0.000000 0.000000
vt 0.000000 0.000000
vt 0.000000 0.000000
vt 0.000000 0.000000
vt 0.000000 0.000000
vt 0.000000 0.000000
vt 0.000000 0.000000
vt 1.000000 0.000000
vt 1.000000 1.000000
vt 0.000000 1.000000
vt 0.000000 0.000000
vt 1.000000 0.000000
vt 1.000000 1.000000
vt 0.000000 1.000000
vt 0.000000 0.000000
vt 0.000000 0.000000
vt 0.000000 0.000000
vt 0.000000 0.000000
vt 0.000000 0.000000
vt 0.000000 0.000000
vt 0.000000 0.000000
vt 1.000000 0.000000
vt 1.000000 1.000000
vt 0.000000 1.000000
vt 0.000000 0.000000
vt 1.000000 0.000000
vt 1.000000 1.000000
vt 0.000000 1.000000
vt 0.000000 0.000000
vt 0.000000 0.000000
vt 0.000000 0.000000
vt 0.000000 0.000000
vt 0.000000 0.000000
vt 0.000000 0.000000
vt 0.000000 0.000000
vt 1.000000 0.000000
vt 1.000000 1.000000
vt 0.000000 1.000000
vt 0.000000 0.000000
vt 1.000000 0.000000
vt 1.000000 1.000000
vt 0.000000 1.000000
vt 0.000000 0.000000
vt 0.000000 0.000000
vt 0.000000 0.000000
vt 0.000000 0.000000
vt 0.000000 0.000000
vt 0.000000 0.000000
vt 0.000000 0.000000
vt 1.000000 0.000000
vt 1.000000 1.000000
vt 0.000000 1.000000
vt 0.000000 0.000000
vt 1.000000 0.000000
vt 1.000000 1.000000
vt 0.000000 1.000000
vt 0.000000 0.000000
vt 0.000000 0.000000
vt 0.000000 0.000000
vt 0.000000 0.000000
vt 0.000000 0.000000
vt 0.000000 0.000000
vt 0.000000 0.000000
vt 1.000000 0.000000
vt 1.000000 1.000000
vt 0.000000 1.000000
vt 0.000000 0.000000
vt 1.000000 0.000000
vt 1.000000 1.000000
vt 0.000000 1.000000
vt 0.000000 0.000000
vt 0.000000 0.000000
vt 0.000000 0.000000
vt 0.000000 0.000000
vt 0.000000 0.000000
vt 0.000000 0.000000
vt 0.000000 0.000000
vt 1.000000 0.000000
vt 1.000000 1.000000
vt 0.000000 1.000000
vt 0.000000 0.000000
vt 1.000000 0.000000
vt 1.000000 1.000000
vt 0.000000 1.000000
vt 0.000000 0.000000
vt 0.000000 0.000000
vt 0.000000 0.000000
vt 0.000000 0.000000
vt 0.000000 0.000000
vt 0.000000 0.000000
vt 0.000000 0.000000
vt 1.000000 0.000000
vt 1.000000 1.000000
vt 0.000000 1.000000
vt 0.000000 0.000000
vt 1.000000 0.000000
vt 1.000000 1.000000
vt 0.000000 1.000000
vt 0.000000 0.000000
vt 0.000000 0.000000
vt 0.000000 0.000000
vt 0.000000 0.000000
vt 0.000000 0.000000
vt 0.000000 0.000000
vt 0.000000 0.000000
vt 1.000000 0.000000
vt 1.000000 1.000000
vt 0.000000 1.000000
vt 0.000000 0.000000
vt 1.000000 0.000000
vt 1.000000 1.000000
vt 0.000000 1.000000
vt 0.000000 0.000000
vt 0.000000 0.000000
vt 0.000000 0.000000
vt 0.000000 0.000000
vt 0.000000 0.000000
vt 0.000000 0.000000
vt 0.000000 0.000000
vt 1.000000 0.000000
vt 1.000000 1.000000
vt 0.000000 1.000000
vt 0.000000 0.000000
vt 1.000000 0.000000
vt 1.000000 1.000000
vt 0.000000 1.000000
vt 0.000000 0.000000
vt 0.000000 0.000000
vt 0.000000 0.000000
vt 0.000000 0.000000
vt 0.000000 0.000000
vt 0.000000 0.000000
vt 0.000000 0.000000
vt 1.000000 0.000000
vt 1.000000 1.000000
vt 0.000000 1.000000
vt 0.000000 0.000000
vt 1.000000 0.000000
vt 1.000000 1.000000
vt 0.000000 1.000000
vt 0.000000 0.000000
vt 0.000000 0.000000
vt 0.000000 0.000000
vt 0.000000 0.000000
vt 0.000000 0.000000
vt 0.000000 0.000000
vt 0.000000 0.000000
vt 1.000000 0.000000
vt 1.000000 1.000000
vt 0.000000 1.000000
vt 0.000000 0.000000
vt 1.000000 0.000000
vt 1.000000 1.000000
vt 0.000000 1.000000
vt 0.000000 0.000000
vt 0.000000 0.000000
vt 0.000000 0.000000
vt 0.000000 0.000000
vt 0.000000 0.000000
vt 0.000000 0.000000
vt 0.000000 0.000000
vt 1.000000 0.000000
vt 1.000000 1.000000
vt 0.000000 1.000000
vt 0.000000 0.000000
vt 1.000000 0.000000
vt 1.000000 1.000000
vt 0.000000 1.000000
vt 0.000000 0.000000
vt 0.000000 0.000000
vt 0.000000 0.000000
vt 0.000000 0.000000
vt 0.000000 0.000000
vt 0.000000 0.000000
vt 0.000000 0.000000
vt 1.000000 0.000000
vt 1.000000 1.000000
vt 0.000000 1.000000
vt 0.000000 0.000000
vt 1.000000 0.000000
vt 1.000000 1.000000
vt 0.000000 1.000000
vt 0.000000 0.000000
vt 0.000000 0.000000
vt 0.000000 0.000000
vt 0.000000 0.000000
vt 0.000000 0.000000
vt 0.000000 0.000000
vt 0.000000 0.000000
vt 1.000000 0.000000
vt 1.000000 1.000000
vt 0.000000 1.000000
vt 0.000000 0.000000
vt 1.000000 0.000000
vt 1.000000 1.000000
vt 0.000000 1.000000
vt 0.000000 0.000000
vt 0.000000 0.000000
vt 0.000000 0.000000
vt 0.000000 0.000000
vt 0.000000 0.000000
vt 0.000000 0.000000
vt 0.000000 0.000000
vt 1.000000 0.000000
vt 1.000000 1.000000
vt 0.000000 1.000000
vt 0.000000 0.000000
vt 1.000000 0.000000
vt 1.000000 1.000000
vt 0.000000 1.000000
vt 0.000000 0.000000
vt 0.000000 0.000000
vt 0.000000 0.000000
vt 0.000000 0.000000
vt 0.000000 0.000000
vt 0.000000 0.000000
vt 0.000000 0.000000
vt 1.000000 0.000000
vt 1.000000 1.000000
vt 0.000000 1.000000
vt 0.000000 0.000000
vt 1.000000 0.000000
vt 1.000000 1.000000
vt 0.000000 1.000000
vt 0.000000 0.000000
vt 0.000000 0.000000
vt 0.000000 0.000000
vt 0.000000 0.000000
vt 0.000000 0.000000
vt 0.000000 0.000000
vt 0.000000 0.000000
vt 1.000000 0.000000
vt 1.000000 1.000000
vt 0.000000 1.000000
vt 0.000000 0.000000
vt 1.000000 0.000000
vt 1.000000 1.000000
vt 0.000000 1.000000
vt 0.000000 0.000000
vt 0.000000 0.000000
vt 0.000000 0.000000
vt 0.000000 0.000000
vt 0.000000 0.000000
vt 0.000000 0.000000
vt 0.000000 0.000000
vt 1.000000 0.000000
vt 1.000000 1.000000
vt 0.000000 1.000000
vt 0.000000 0.000000
vt 1.000000 0.000000
vt 1.000000 1.000000
vt 0.000000 1.000000
vt 0.000000 0.000000
vt 0.000000 0.000000
vt 0.000000 0.000000
vt 0.000000 0.000000
vt 0.000000 0.000000
vt 0.000000 0.000000
vt 0.000000 0.000000
vt 1.000000 0.000000
vt 1.000000 1.000000
vt 0.000000 1.000000
vt 0.000000 0.000000
vt 1.000000 0.000000
vt 1.000000 1.000000
vt 0.000000 1.000000
vt 0.000000 0.000000
vt 0.000000 0.000000
vt 0.000000 0.000000
vt 0.000000 0.000000
vt 0.000000 0.000000
vt 0.000000 0.000000
vt 0.000000 0.000000
vt 1.000000 0.000000
vt 1.000000 1.000000
vt 0.000000 1.000000
vt 0.000000 0.000000
vt 1.000000 0.000000
vt 1.000000 1.000000
vt 0.000000 1.000000
vt 0.000000 0.000000
vt 0.000000 0.000000
vt 0.000000 0.000000
vt 0.000000 0.000000
vt 0.000000 0.000000
vt 0.000000 0.000000
vt 0.000000 0.000000
vt 1.000000 0.000000
vt 1.000000 1.000000
vt 0.000000 1.000000
vt 0.000000 0.000000
vt 1.000000 0.000000
vt 1.000000 1.000000
vt 0.000000 1.000000
vt 0.000000 0.000000
vt 0.000000 0.000000
vt 0.000000 0.000000
vt 0.000000 0.000000
vt 0.000000 0.000000
vt 0.000000 0.000000
vt 0.000000 0.000000
vt 1.000000 0.000000
vt 1.000000 1.000000
vt 0.000000 1.000000
vt 0.000000 0.000000
vt 1.000000 0.000000
vt 1.000000 1.000000
vt 0.000000 1.000000
vt 0.000000 0.000000
vt 0.000000 0.000000
vt 0.000000 0.000000
vt 0.000000 0.000000
vt 0.000000 0.000000
vt 0.000000 0.000000
vt 0.000000 0.000000
vt 1.000000 0.000000
vt 1.000000 1.000000
vt 0.000000 1.000000
vt 0.000000 0.000000
vt 1.000000 0.000000
vt 1.000000 1.000000
vt 0.000000 1.000000
vt 0.000000 0.000000
vt 0.000000 0.000000
vt 0.000000 0.000000
vt 0.000000 0.000000
vt 0.000000 0.000000
vt 0.000000 0.000000
vt 0.000000 0.000000
vt 1.000000 0.000000
vt 1.000000 1.000000
vt 0.000000 1.000000
vt 0.000000 0.000000
vt 1.000000 0.000000
vt 1.000000 1.000000
vt 0.000000 1.000000
vt 0.000000 0.000000
vt 0.000000 0.000000
vt 0.000000 0.000000
vt 0.000000 0.000000
vt 0.000000 0.000000
vt 0.000000 0.000000
vt 0.000000 0.000000
vt 1.000000 0.000000
vt 1.000000 1.000000
vt 0.000000 1.000000
vt 0.000000 0.000000
vt 1.000000 0.000000
vt 1.000000 1.000000
vt 0.000000 1.000000
vt 0.000000 0.000000
vt 0.000000 0.000000
vt 0.000000 0.000000
vt 0.000000 0.000000
vt 0.000000 0.000000
vt 0.000000 0.000000
vt 0.000000 0.000000
vt 1.000000 0.000000
vt 1.000000 1.000000
vt 0.000000 1.000000
vt 0.000000 0.000000
vt 1.000000 0.000000
vt 1.000000 1.000000
vt 0.000000 1.000000
vt 0.000000 0.000000
vt 0.000000 0.000000
vt 0.000000 0.000000
vt 0.000000 0.000000
vt 0.000000 0.000000
vt 0.000000 0.000000
vt 0.000000 0.000000
vt 1.000000 0.000000
vt 1.000000 1.000000
vt 0.000000 1.000000
vt 0.000000 0.000000
vt 1.000000 0.000000
vt 1.000000 1.000000
vt 0.000000 1.000000
vt 0.000000 0.000000
vt 0.000000 0.000000
vt 0.000000 0.000000
vt 0.000000 0.000000
vt 0.000000 0.000000
vt 0.000000 0.000000
vt 0.000000 0.000000
vt 1.000000 0.000000
vt 1.000000 1.000000
vt 0.000000 1.000000
vt 0.000000 0.000000
vt 1.000000 0.000000
vt 1.000000 1.000000
vt 0.000000 1.000000
vt 0.000000 0.000000
vt 0.000000 0.000000
vt 0.000000 0.000000
vt 0.000000 0.000000
vt 0.000000 0.000000
vt 0.000000 0.000000
vt 0.000000 0.000000
vt 1.000000 0.000000
vt 1.000000 1.000000
vt 0.000000 1.000000
vt 0.000000 0.000000
vt 1.000000 0.000000
vt 1.000000 1.000000
vt 0.000000 1.000000
vt 0.000000 0.000000
vt 0.000000 0.000000
vt 0.000000 0.000000
vt 0.000000 0.500000
vt 0.480000 1.000000
vt 1.000000 0.500000
vt 0.480000 0.000000
vt 0.000000 0.000000
vt 1.000000 0.000000
vt 1.000000 1.000000
vt 0.000000 1.000000
vt 0.000000 0.000000
vt 1.000000 0.000000
vt 1.000000 1.000000
vt 0.000000 1.000000
vt 0.000000 0.000000
vt 1.000000 0.000000
vt 1.000000 1.000000
vt 0.000000 1.000000
vt 0.000000 0.000000
vt 1.000000 0.000000
vt 1.000000 1.000000
vt 0.000000 1.000000
vt 0.000000 0.000000
vt 1.000000 0.000000
vt 1.000000 1.000000
vt 0.000000 1.000000
vt 0.500000 0.500000
vt 0.000000 0.000000
vt 1.000000 0.000000
vt 0.500000 0.500000
vt 0.000000 1.000000
vt 1.000000 1.000000
vt 0.500000 0.500000
vt 0.000000 0.000000
vt 1.000000 0.000000
vt 0.500000 0.500000
vt 0.000000 1.000000
vt 1.000000 1.000000
vt 0.500000 0.500000
vt 0.000000 0.000000
vt 1.000000 0.000000
vt 0.500000 0.500000
vt 0.000000 1.000000
vt 1.000000 1.000000
vt 0.500000 0.500000
vt 0.000000 0.000000
vt 1.000000 0.000000
vt 0.500000 0.500000
vt 0.000000 1.000000
vt 1.000000 1.000000
vt 0.500000 0.500000
vt 0.000000 0.000000
vt 1.000000 0.000000
vt 0.500000 0.500000
vt 0.000000 1.000000
vt 1.000000 1.000000
vt 0.000000 0.500000
vt 0.480000 1.000000
vt 1.000000 0.500000
vt 0.480000 0.000000
vt 0.000000 0.000000
vt 1.000000 0.000000
vt 1.000000 1.000000
vt 0.000000 1.000000
vt 0.000000 0.000000
vt 1.000000 0.000000
vt 1.000000 1.000000
vt 0.000000 1.000000
vt 0.000000 0.000000
vt 1.000000 0.000000
vt 1.000000 1.000000
vt 0.000000 1.000000
vt 0.000000 0.000000
vt 1.000000 0.000000
vt 1.000000 1.000000
vt 0.000000 1.000000
vt 0.000000 0.000000
vt 1.000000 0.000000
vt 1.000000 1.000000
vt 0.000000 1.000000
vt 0.500000 0.500000
vt 0.000000 0.000000
vt 1.000000 0.000000
vt 0.500000 0.500000
vt 0.000000 1.000000
vt 1.000000 1.000000
vt 0.500000 0.500000
vt 0.000000 0.000000
vt 1.000000 0.000000
vt 0.500000 0.500000
vt 0.000000 1.000000
vt 1.000000 1.000000
vt 0.500000 0.500000
vt 0.000000 0.000000
vt 1.000000 0.000000
vt 0.500000 0.500000
vt 0.000000 1.000000
vt 1.000000 1.000000
vt 0.500000 0.500000
vt 0.000000 0.000000
vt 1.000000 0.000000
vt 0.500000 0.500000
vt 0.000000 1.000000
vt 1.000000 1.000000
vt 0.500000 0.500000
vt 0.000000 0.000000
vt 1.000000 0.000000
vt 0.500000 0.500000
vt 0.000000 1.000000
vt 1.000000 1.000000
vt 0.000000 0.500000
vt 0.480000 1.000000
vt 1.000000 0.500000
vt 0.480000 0.000000
vt 0.000000 0.000000
vt 1.000000 0.000000
vt 1.000000 1.000000
vt 0.000000 1.000000
vt 0.000000 0.000000
vt 1.000000 0.000000
vt 1.000000 1.000000
vt 0.000000 1.000000
vt 0.000000 0.000000
vt 1.000000 0.000000
vt 1.000000 1.000000
vt 0.000000 1.000000
vt 0.000000 0.000000
vt 1.000000 0.000000
vt 1.000000 1.000000
vt 0.000000 1.000000
vt 0.000000 0.000000
vt 1.000000 0.000000
vt 1.000000 1.000000
vt 0.000000 1.000000
vt 0.500000 0.500000
vt 0.000000 0.000000
vt 1.000000 0.000000
vt 0.500000 0.500000
vt 0.000000 1.000000
vt 1.000000 1.000000
vt 0.500000 0.500000
vt 0.000000 0.000000
vt 1.000000 0.000000
vt 0.500000 0.500000
vt 0.000000 1.000000
vt 1.000000 1.000000
vt 0.500000 0.500000
vt 0.000000 0.000000
vt 1.000000 0.000000
vt 0.500000 0.500000
vt 0.000000 1.000000
vt 1.000000 1.000000
vt 0.500000 0.500000
vt 0.000000 0.000000
vt 1.000000 0.000000
vt 0.500000 0.500000
vt 0.000000 1.000000
vt 1.000000 1.000000
vt 0.500000 0.500000
vt 0.000000 0.000000
vt 1.000000 0.000000
vt 0.500000 0.500000
vt 0.000000 1.000000
vt 1.000000 1.000000
vt 0.000000 0.500000
vt 0.480000 1.000000
vt 1.000000 0.500000
vt 0.480000 0.000000
vt 0.000000 0.000000
vt 1.000000 0.000000
vt 1.000000 1.000000
vt 0.000000 1.000000
vt 0.000000 0.000000
vt 1.000000 0.000000
vt 1.000000 1.000000
vt 0.000000 1.000000
vt 0.000000 0.000000
vt 1.000000 0.000000
vt 1.000000 1.000000
vt 0.000000 1.000000
vt 0.000000 0.000000
vt 1.000000 0.000000
vt 1.000000 1.000000
vt 0.000000 1.000000
vt 0.000000 0.000000
vt 1.000000 0.000000
vt 1.000000 1.000000
vt 0.000000 1.000000
vt 0.500000 0.500000
vt 0.000000 0.000000
vt 1.000000 0.000000
vt 0.500000 0.500000
vt 0.000000 1.000000
vt 1.000000 1.000000
vt 0.500000 0.500000
vt 0.000000 0.000000
vt 1.000000 0.000000
vt 0.500000 0.500000
vt 0.000000 1.000000
vt 1.000000 1.000000
vt 0.500000 0.500000
vt 0.000000 0.000000
vt 1.000000 0.000000
vt 0.500000 0.500000
vt 0.000000 1.000000
vt 1.000000 1.000000
vt 0.500000 0.500000
vt 0.000000 0.000000
vt 1.000000 0.000000
vt 0.500000 0.500000
vt 0.000000 1.000000
vt 1.000000 1.000000
vt 0.500000 0.500000
vt 0.000000 0.000000
vt 1.000000 0.000000
vt 0.500000 0.500000
vt 0.000000 1.000000
vt 1.000000 1.000000
vt 0.000000 0.500000
vt 0.480000 1.000000
vt 1.000000 0.500000
vt 0.480000 0.000000
vt 0.000000 0.000000
vt 1.000000 0.000000
vt 1.000000 1.000000
vt 0.000000 1.000000
vt 0.000000 0.000000
vt 1.000000 0.000000
vt 1.000000 1.000000
vt 0.000000 1.000000
vt 0.000000 0.000000
vt 1.000000 0.000000
vt 1.000000 1.000000
vt 0.000000 1.000000
vt 0.000000 0.000000
vt 1.000000 0.000000
vt 1.000000 1.000000
vt 0.000000 1.000000
vt 0.000000 0.000000
vt 1.000000 0.000000
vt 1.000000 1.000000
vt 0.000000 1.000000
vt 0.500000 0.500000
vt 0.000000 0.000000
vt 1.000000 0.000000
vt 0.500000 0.500000
vt 0.000000 1.000000
vt 1.000000 1.000000
vt 0.500000 0.500000
vt 0.000000 0.000000
vt 1.000000 0.000000
vt 0.500000 0.500000
vt 0.000000 1.000000
vt 1.000000 1.000000
vt 0.500000 0.500000
vt 0.000000 0.000000
vt 1.000000 0.000000
vt 0.500000 0.500000
vt 0.000000 1.000000
vt 1.000000 1.000000
vt 0.500000 0.500000
vt 0.000000 0.000000
vt 1.000000 0.000000
vt 0.500000 0.500000
vt 0.000000 1.000000
vt 1.000000 1.000000
vt 0.500000 0.500000
vt 0.000000 0.000000
vt 1.000000 0.000000
vt 0.500000 0.500000
vt 0.000000 1.000000
vt 1.000000 1.000000
vt 0.000000 0.500000
vt 0.480000 1.000000
vt 1.000000 0.500000
vt 0.480000 0.000000
vt 0.000000 0.000000
vt 1.000000 0.000000
vt 1.000000 1.000000
vt 0.000000 1.000000
vt 0.000000 0.000000
vt 1.000000 0.000000
vt 1.000000 1.000000
vt 0.000000 1.000000
vt 0.000000 0.000000
vt 1.000000 0.000000
vt 1.000000 1.000000
vt 0.000000 1.000000
vt 0.000000 0.000000
vt 1.000000 0.000000
vt 1.000000 1.000000
vt 0.000000 1.000000
vt 0.000000 0.000000
vt 1.000000 0.000000
vt 1.000000 1.000000
vt 0.000000 1.000000
vt 0.500000 0.500000
vt 0.000000 0.000000
vt 1.000000 0.000000
vt 0.500000 0.500000
vt 0.000000 1.000000
vt 1.000000 1.000000
vt 0.500000 0.500000
vt 0.000000 0.000000
vt 1.000000 0.000000
vt 0.500000 0.500000
vt 0.000000 1.000000
vt 1.000000 1.000000
vt 0.500000 0.500000
vt 0.000000 0.000000
vt 1.000000 0.000000
vt 0.500000 0.500000
vt 0.000000 1.000000
vt 1.000000 1.000000
vt 0.500000 0.500000
vt 0.000000 0.000000
vt 1.000000 0.000000
vt 0.500000 0.500000
vt 0.000000 1.000000
vt 1.000000 1.000000
vt 0.500000 0.500000
vt 0.000000 0.000000
vt 1.000000 0.000000
vt 0.500000 0.500000
vt 0.000000 1.000000
vt 1.000000 1.000000
vt 0.000000 0.000000
vt 0.000000 0.000000
vt 0.000000 0.000000
vt 0.000000 0.000000
vt 1.000000 0.000000
vt 1.000000 1.000000
vt 0.000000 1.000000
vt 0.000000 0.000000
vt 1.000000 0.000000
vt 1.000000 1.000000
vt 0.000000 1.000000
vt 0.000000 0.000000
vt 0.000000 0.000000
vt 0.000000 0.000000
vt 0.000000 0.000000
vt 0.000000 0.000000
vt 0.000000 0.000000
vt 0.000000 0.000000
vt 1.000000 0.000000
vt 1.000000 1.000000
vt 0.000000 1.000000
vt 0.000000 0.000000
vt 1.000000 0.000000
vt 1.000000 1.000000
vt 0.000000 1.000000
vt 0.000000 0.000000
vt 0.000000 0.000000
vt 0.000000 0.000000
vt 0.000000 0.000000
vt 0.000000 0.000000
vt 0.000000 0.000000
vt 0.000000 0.000000
vt 1.000000 0.000000
vt 1.000000 1.000000
vt 0.000000 1.000000
vt 0.000000 0.000000
vt 1.000000 0.000000
vt 1.000000 1.000000
vt 0.000000 1.000000
vt 0.000000 0.000000
vt 0.000000 0.000000
vt 0.000000 0.000000
vt 0.000000 0.000000
vt 0.000000 0.000000
vt 0.000000 0.000000
vt 0.000000 0.000000
vt 1.000000 0.000000
vt 1.000000 1.000000
vt 0.000000 1.000000
vt 0.000000 0.000000
vt 1.000000 0.000000
vt 1.000000 1.000000
vt 0.000000 1.000000
vt 0.000000 0.000000
vt 0.000000 0.000000
vt 0.000000 0.000000
vt 0.000000 0.000000
vt 0.000000 0.000000
vt 0.000000 0.000000
vt 0.000000 0.000000
vt 1.000000 0.000000
vt 1.000000 1.000000
vt 0.000000 1.000000
vt 0.000000 0.000000
vt 1.000000 0.000000
vt 1.000000 1.000000
vt 0.000000 1.000000
vt 0.000000 0.000000
vt 0.000000 0.000000
vt 0.000000 0.000000
vt 0.000000 0.000000
vt 0.000000 0.000000
vt 0.000000 0.000000
vt 0.000000 0.000000
vt 1.000000 0.000000
vt 1.000000 1.000000
vt 0.000000 1.000000
vt 0.000000 0.000000
vt 1.000000 0.000000
vt 1.000000 1.000000
vt 0.000000 1.000000
vt 0.000000 0.000000
vt 0.000000 0.000000
vt 0.000000 0.000000
vt 0.000000 0.000000
vt 0.000000 0.000000
vt 0.000000 0.000000
vt 0.000000 0.000000
vt 1.000000 0.000000
vt 1.000000 1.000000
vt 0.000000 1.000000
vt 0.000000 0.000000
vt 1.000000 0.000000
vt 1.000000 1.000000
vt 0.000000 1.000000
vt 0.000000 0.000000
vt 0.000000 0.000000
vt 0.000000 0.000000
vt 0.000000 0.000000
vt 0.000000 0.000000
vt 0.000000 0.000000
vt 0.000000 0.000000
vt 1.000000 0.000000
vt 1.000000 1.000000
vt 0.000000 1.000000
vt 0.000000 0.000000
vt 1.000000 0.000000
vt 1.000000 1.000000
vt 0.000000 1.000000
vt 0.000000 0.000000
vt 0.000000 0.000000
vt 0.000000 0.000000
vt 0.000000 0.000000
vt 0.000000 0.000000
vt 0.000000 0.000000
vt 0.000000 0.000000
vt 1.000000 0.000000
vt 1.000000 1.000000
vt 0.000000 1.000000
vt 0.000000 0.000000
vt 1.000000 0.000000
vt 1.000000 1.000000
vt 0.000000 1.000000
vt 0.000000 0.000000
vt 0.000000 0.000000
vt 0.000000 0.000000
vt 0.000000 0.000000
vt 0.000000 0.000000
vt 0.000000 0.000000
vt 0.000000 0.000000
vt 1.000000 0.000000
vt 1.000000 1.000000
vt 0.000000 1.000000
vt 0.000000 0.000000
vt 1.000000 0.000000
vt 1.000000 1.000000
vt 0.000000 1.000000
vt 0.000000 0.000000
vt 0.000000 0.000000
vt 0.000000 0.000000
vt 0.000000 0.000000
vt 0.000000 0.000000
vt 0.000000 0.000000
vt 0.000000 0.000000
vt 1.000000 0.000000
vt 1.000000 1.000000
vt 0.000000 1.000000
vt 0.000000 0.000000
vt 1.000000 0.000000
vt 1.000000 1.000000
vt 0.000000 1.000000
vt 0.000000 0.000000
vt 0.000000 0.000000
vt 0.000000 0.000000
vt 0.000000 0.000000
vt 0.000000 0.000000
vt 0.000000 0.000000
vt 0.000000 0.000000
vt 1.000000 0.000000
vt 1.000000 1.000000
vt 0.000000 1.000000
vt 0.000000 0.000000
vt 1.000000 0.000000
vt 1.000000 1.000000
vt 0.000000 1.000000
vt 0.000000 0.000000
vt 0.000000 0.000000
vt 0.000000 0.000000
usemtl Stone
f 1/1 2/2 3/3
f 4/4 5/5 6/6
f 4/4 6/6 7/7
f 8/8 9/9 10/10
f 8/8 10/10 11/11
f 12/12 13/13 14/14
f 15/15 16/16 17/17
f 18/18 19/19 20/20
f 18/18 20/20 21/21
f 22/22 23/23 24/24
f 22/22 24/24 25/25
f 26/26 27/27 28/28
f 29/29 30/30 31/31
f 32/32 33/33 34/34
f 32/32 34/34 35/35
f 36/36 37/37 38/38
f 36/36 38/38 39/39
f 40/40 41/41 42/42
f 43/43 44/44 45/45
f 46/46 47/47 48/48
f 46/46 48/48 49/49
f 50/50 51/51 52/52
f 50/50 52/52 53/53
f 54/54 55/55 56/56
f 57/57 58/58 59/59
f 60/60 61/61 62/62
f 60/60 62/62 63/63
f 64/64 65/65 66/66
f 64/64 66/66 67/67
f 68/68 69/69 70/70
f 71/71 72/72 73/73
f 74/74 75/75 76/76
f 74/74 76/76 77/77
f 78/78 79/79 80/80
f 78/78 80/80 81/81
f 82/82 83/83 84/84
f 85/85 86/86 87/87
f 88/88 89/89 90/90
f 88/88 90/90 91/91
f 92/92 93/93 94/94
f 92/92 94/94 95/95
f 96/96 97/97 98/98
f 99/99 100/100 101/101
f 102/102 103/103 104/104
f 102/102 104/104 105/105
f 106/106 107/107 108/108
f 106/106 108/108 109/109
f 110/110 111/111 112/112
f 113/113 114/114 115/115
f 116/116 117/117 118/118
f 116/116 118/118 119/119
f 120/120 121/121 122/122
f 120/120 122/122 123/123
f 124/124 125/125 126/126
f 127/127 128/128 129/129
f 130/130 131/131 132/132
f 130/130 132/132 133/133
f 134/134 135/135 136/136
f 134/134 136/136 137/137
f 138/138 139/139 140/140
f 141/141 142/142 143/143
f 144/144 145/145 146/146
f 144/144 146/146 147/147
f 148/148 149/149 150/150
f 148/148 150/150 151/151
f 152/152 153/153 154/154
f 155/155 156/156 157/157
f 158/158 159/159 160/160
f 158/158 160/160 161/161
f 162/162 163/163 164/164
f 162/162 164/164 165/165
f 166/166 167/167 168/168
f 169/169 170/170 171/171
f 172/172 173/173 174/174
f 172/172 174/174 175/175
f 176/176 177/177 178/178
f 176/176 178/178 179/179
f 180/180 181/181 182/182
f 183/183 184/184 185/185
f 186/186 187/187 188/188
f 186/186 188/188 189/189
f 190/190 191/191 192/192
f 190/190 192/192 193/193
f 194/194 195/195 196/196
f 197/197 198/198 199/199
f 200/200 201/201 202/202
f 200/200 202/202 203/203
f 204/204 205/205 206/206
f 204/204 206/206 207/207
f 208/208 209/209 210/210
f 211/211 212/212 213/213
f 214/214 215/215 216/216
f 214/214 216/216 217/217
f 218/218 219/219 220/220
f 218/218 220/220 221/221
f 222/222 223/223 224/224
f 225/225 226/226 227/227
f 228/228 229/229 230/230
f 228/228 230/230 231/231
f 232/232 233/233 234/234
f 232/232 234/234 235/235
f 236/236 237/237 238/238
f 239/239 240/240 241/241
f 242/242 243/243 244/244
f 242/242 244/244 245/245
f 246/246 247/247 248/248
f 246/246 248/248 249/249
f 250/250 251/251 252/252
f 253/253 254/254 255/255
f 256/256 257/257 258/258
f 256/256 258/258 259/259
f 260/260 261/261 262/262
f 260/260 262/262 263/263
f 264/264 265/265 266/266
f 267/267 268/268 269/269
f 270/270 271/271 272/272
f 270/270 272/272 273/273
f 274/274 275/275 276/276
f 274/274 276/276 277/277
f 278/278 279/279 280/280
f 281/281 282/282 283/283
f 284/284 285/285 286/286
f 284/284 286/286 287/287
f 288/288 289/289 290/290
f 288/288 290/290 291/291
f 292/292 293/293 294/294
f 295/295 296/296 297/297
f 298/298 299/299 300/300
f 298/298 300/300 301/301
f 302/302 303/303 304/304
f 302/302 304/304 305/305
f 306/306 307/307 308/308
f 309/309 310/310 311/311
f 312/312 313/313 314/314
f 312/312 314/314 315/315
f 316/316 317/317 318/318
f 316/316 318/318 319/319
f 320/320 321/321 322/322
f 323/323 324/324 325/325
f 326/326 327/327 328/328
f 326/326 328/328 329/329
f 330/330 331/331 332/332
f 330/330 332/332 333/333
f 334/334 335/335 336/336
f 337/337 338/338 339/339
f 340/340 341/341 342/342
f 340/340 342/342 343/343
f 344/344 345/345 346/346
f 344/344 346/346 347/347
f 348/348 349/349 350/350
f 351/351 352/352 353/353
f 354/354 355/355 356/356
f 354/354 356/356 357/357
f 358/358 359/359 360/360
f 358/358 360/360 361/361
f 362/362 363/363 364/364
f 365/365 366/366 367/367
f 368/368 369/369 370/370
f 368/368 370/370 371/371
f 372/372 373/373 374/374
f 372/372 374/374 375/375
f 376/376 377/377 378/378
f 379/379 380/380 381/381
f 382/382 383/383 384/384
f 382/382 384/384 385/385
f 386/386 387/387 388/388
f 386/386 388/388 389/389
f 390/390 391/391 392/392
f 393/393 394/394 395/395
f 396/396 397/397 398/398
f 396/396 398/398 399/399
f 400/400 401/401 402/402
f 400/400 402/402 403/403
f 404/404 405/405 406/406
f 407/407 408/408 409/409
f 410/410 411/411 412/412
f 410/410 412/412 413/413
f 414/414 415/415 416/416
f 414/414 416/416 417/417
f 418/418 419/419 420/420
f 421/421 422/422 423/423
f 424/424 425/425 426/426
f 424/424 426/426 427/427
f 428/428 429/429 430/430
f 428/428 430/430 431/431
f 432/432 433/433 434/434
usemtl Leaf
f 435/435 436/436 437/437
f 435/435 437/437 438/438
usemtl Wood
f 439/439 440/440 441/441
f 439/439 441/441 442/442
f 443/443 444/444 445/445
f 443/443 445/445 446/446
f 447/447 448/448 449/449
f 447/447 449/449 450/450
f 451/451 452/452 453/453
f 451/451 453/453 454/454
f 455/455 456/456 457/457
f 455/455 457/457 458/458
f 459/459 460/460 461/461
f 462/462 463/463 464/464
f 465/465 466/466 467/467
f 468/468 469/469 470/470
f 471/471 472/472 473/473
f 474/474 475/475 476/476
f 477/477 478/478 479/479
f 480/480 481/481 482/482
f 483/483 484/484 485/485
f 486/486 487/487 488/488
usemtl Leaf
f 489/489 490/490 491/491
f 489/489 491/491 492/492
usemtl Wood
f 493/493 494/494 495/495
f 493/493 495/495 496/496
f 497/497 498/498 499/499
f 497/497 499/499 500/500
f 501/501 502/502 503/503
f 501/501 503/503 504/504
f 505/505 506/506 507/507
f 505/505 507/507 508/508
f 509/509 510/510 511/511
f 509/509 511/511 512/512
f 513/513 514/514 515/515
f 516/516 517/517 518/518
f 519/519 520/520 521/521
f 522/522 523/523 524/524
f 525/525 526/526 527/527
f 528/528 529/529 530/530
f 531/531 532/532 533/533
f 534/534 535/535 536/536
f 537/537 538/538 539/539
f 540/540 541/541 542/542
usemtl Leaf
f 543/543 544/544 545/545
f 543/543 545/545 546/546
usemtl Wood
f 547/547 548/548 549/549
f 547/547 549/549 550/550
f 551/551 552/552 553/553
f 551/551 553/553 554/554
f 555/555 556/556 557/557
f 555/555 557/557 558/558
f 559/559 560/560 561/561
f 559/559 561/561 562/562
f 563/563 564/564 565/565
f 563/563 565/565 566/566
f 567/567 568/568 569/569
f 570/570 571/571 572/572
f 573/573 574/574 575/575
f 576/576 577/577 578/578
f 579/579 580/580 581/581
f 582/582 583/583 584/584
f 585/585 586/586 587/587
f 588/588 589/589 590/590
f 591/591 592/592 593/593
f 594/594 595/595 596/596
usemtl Leaf
f 597/597 598/598 599/599
f 597/597 599/599 600/600
usemtl Wood
f 601/601 602/602 603/603
f 601/601 603/603 604/604
f 605/605 606/606 607/607
f 605/605 607/607 608/608
f 609/609 610/610 611/611
f 609/609 611/611 612/612
f 613/613 614/614 615/615
f 613/613 615/615 616/616
f 617/617 618/618 619/619
f 617/617 619/619 620/620
f 621/621 622/622 623/623
f 624/624 625/625 626/626
f 627/627 628/628 629/629
f 630/630 631/631 632/632
f 633/633 634/634 635/635
f 636/636 637/637 638/638
f 639/639 640/640 641/641
f 642/642 643/643 644/644
f 645/645 646/646 647/647
f 648/648 649/649 650/650
usemtl Leaf
f 651/651 652/652 653/653
f 651/651 653/653 654/654
usemtl Wood
f 655/655 656/656 657/657
f 655/655 657/657 658/658
f 659/659 660/660 661/661
f 659/659 661/661 662/662
f 663/663 664/664 665/665
f 663/663 665/665 666/666
f 667/667 668/668 669/669
f 667/667 669/669 670/670
f 671/671 672/672 673/673
f 671/671 673/673 674/674
f 675/675 676/676 677/677
f 678/678 679/679 680/680
f 681/681 682/682 683/683
f 684/684 685/685 686/686
f 687/687 688/688 689/689
f 690/690 691/691 692/692
f 693/693 694/694 695/695
f 696/696 697/697 698/698
f 699/699 700/700 701/701
f 702/702 703/703 704/704
usemtl Leaf
f 705/705 706/706 707/707
f 705/705 707/707 708/708
usemtl Wood
f 709/709 710/710 711/711
f 709/709 711/711 712/712
f 713/713 714/714 715/715
f 713/713 715/715 716/716
f 717/717 718/718 719/719
f 717/717 719/719 720/720
f 721/721 722/722 723/723
f 721/721 723/723 724/724
f 725/725 726/726 727/727
f 725/725 727/727 728/728
f 729/729 730/730 731/731
f 732/732 733/733 734/734
f 735/735 736/736 737/737
f 738/738 739/739 740/740
f 741/741 742/742 743/743
f 744/744 745/745 746/746
f 747/747 748/748 749/749
f 750/750 751/751 752/752
f 753/753 754/754 755/755
f 756/756 757/757 758/758
usemtl Char
f 759/759 760/760 761/761
f 762/762 763/763 764/764
f 762/762 764/764 765/765
f 766/766 767/767 768/768
f 766/766 768/768 769/769
f 770/770 771/771 772/772
f 773/773 774/774 775/775
f 776/776 777/777 778/778
f 776/776 778/778 779/779
f 780/780 781/781 782/782
f 780/780 782/782 783/783
f 784/784 785/785 786/786
f 787/787 788/788 789/789
f 790/790 791/791 792/792
f 790/790 792/792 793/793
f 794/794 795/795 796/796
f 794/794 796/796 797/797
f 798/798 799/799 800/800
f 801/801 802/802 803/803
f 804/804 805/805 806/806
f 804/804 806/806 807/807
f 808/808 809/809 810/810
f 808/808 810/810 811/811
f 812/812 813/813 814/814
f 815/815 816/816 817/817
f 818/818 819/819 820/820
f 818/818 820/820 821/821
f 822/822 823/823 824/824
f 822/822 824/824 825/825
f 826/826 827/827 828/828
f 829/829 830/830 831/831
f 832/832 833/833 834/834
f 832/832 834/834 835/835
f 836/836 837/837 838/838
f 836/836 838/838 839/839
f 840/840 841/841 842/842
f 843/843 844/844 845/845
f 846/846 847/847 848/848
f 846/846 848/848 849/849
f 850/850 851/851 852/852
f 850/850 852/852 853/853
f 854/854 855/855 856/856
f 857/857 858/858 859/859
f 860/860 861/861 862/862
f 860/860 862/862 863/863
f 864/864 865/865 866/866
f 864/864 866/866 867/867
f 868/868 869/869 870/870
f 871/871 872/872 873/873
f 874/874 875/875 876/876
f 874/874 876/876 877/877
f 878/878 879/879 880/880
f 878/878 880/880 881/881
f 882/882 883/883 884/884
f 885/885 886/886 887/887
f 888/888 889/889 890/890
f 888/888 890/890 891/891
f 892/892 893/893 894/894
f 892/892 894/894 895/895
f 896/896 897/897 898/898
f 899/899 900/900 901/901
f 902/902 903/903 904/904
f 902/902 904/904 905/905
f 906/906 907/907 908/908
f 906/906 908/908 909/909
f 910/910 911/911 912/912
f 913/913 914/914 915/915
f 916/916 917/917 918/918
f 916/916 918/918 919/919
f 920/920 921/921 922/922
f 920/920 922/922 923/923
f 924/924 925/925 926/926
