mtllib ../../Materials/project_oen.mtl
o en-015_cave_floor_debris_set__branches
v 0.861777 0.060052 -0.511789
v 0.861777 0.090047 -0.516557
v 0.200486 0.090047 -0.516557
v 0.200486 0.060052 -0.511789
v 0.861777 0.090047 -0.516557
v 0.861777 0.112477 -0.496079
v 0.200486 0.112477 -0.496079
v 0.200486 0.090047 -0.516557
v 0.861777 0.112477 -0.496079
v 0.861777 0.110451 -0.465775
v 0.200486 0.110451 -0.465775
v 0.200486 0.112477 -0.496079
v 0.861777 0.110451 -0.465775
v 0.861777 0.085495 -0.448464
v 0.200486 0.085495 -0.448464
v 0.200486 0.110451 -0.465775
v 0.861777 0.085495 -0.448464
v 0.861777 0.056401 -0.457183
v 0.200486 0.056401 -0.457183
v 0.200486 0.085495 -0.448464
v 0.861777 0.056401 -0.457183
v 0.861777 0.045078 -0.485365
v 0.200486 0.045078 -0.485365
v 0.200486 0.056401 -0.457183
v 0.861777 0.045078 -0.485365
v 0.861777 0.060052 -0.511789
v 0.200486 0.060052 -0.511789
v 0.200486 0.045078 -0.485365
v 0.861777 0.080000 -0.483030
v 0.861777 0.090047 -0.516557
v 0.861777 0.060052 -0.511789
v 0.200486 0.080000 -0.483030
v 0.200486 0.060052 -0.511789
v 0.200486 0.090047 -0.516557
v 0.861777 0.080000 -0.483030
v 0.861777 0.112477 -0.496079
v 0.861777 0.090047 -0.516557
v 0.200486 0.080000 -0.483030
v 0.200486 0.090047 -0.516557
v 0.200486 0.112477 -0.496079
v 0.861777 0.080000 -0.483030
v 0.861777 0.110451 -0.465775
v 0.861777 0.112477 -0.496079
v 0.200486 0.080000 -0.483030
v 0.200486 0.112477 -0.496079
v 0.200486 0.110451 -0.465775
v 0.861777 0.080000 -0.483030
v 0.861777 0.085495 -0.448464
v 0.861777 0.110451 -0.465775
v 0.200486 0.080000 -0.483030
v 0.200486 0.110451 -0.465775
v 0.200486 0.085495 -0.448464
v 0.861777 0.080000 -0.483030
v 0.861777 0.056401 -0.457183
v 0.861777 0.085495 -0.448464
v 0.200486 0.080000 -0.483030
v 0.200486 0.085495 -0.448464
v 0.200486 0.056401 -0.457183
v 0.861777 0.080000 -0.483030
v 0.861777 0.045078 -0.485365
v 0.861777 0.056401 -0.457183
v 0.200486 0.080000 -0.483030
v 0.200486 0.056401 -0.457183
v 0.200486 0.045078 -0.485365
v 0.861777 0.080000 -0.483030
v 0.861777 0.060052 -0.511789
v 0.861777 0.045078 -0.485365
v 0.200486 0.080000 -0.483030
v 0.200486 0.045078 -0.485365
v 0.200486 0.060052 -0.511789
v 0.210238 0.046643 0.598203
v 0.018848 0.046643 0.411848
v 0.047747 0.137684 0.382168
v 0.239137 0.137684 0.568523
v 0.117471 -0.017684 0.310560
v 0.308861 -0.017684 0.496915
v 0.337760 0.073357 0.467235
v 0.146371 0.073357 0.280880
v 0.308861 -0.017684 0.496915
v 0.210238 0.046643 0.598203
v 0.239137 0.137684 0.568523
v 0.337760 0.073357 0.467235
v 0.018848 0.046643 0.411848
v 0.117471 -0.017684 0.310560
v 0.146371 0.073357 0.280880
v 0.047747 0.137684 0.382168
v 0.239137 0.137684 0.568523
v 0.047747 0.137684 0.382168
v 0.146371 0.073357 0.280880
v 0.337760 0.073357 0.467235
v 0.308861 -0.017684 0.496915
v 0.117471 -0.017684 0.310560
v 0.018848 0.046643 0.411848
v 0.210238 0.046643 0.598203
v -0.224267 0.111120 -0.298089
v -0.224267 0.111925 -0.267728
v -0.734397 0.111925 -0.267728
v -0.734397 0.111120 -0.298089
v -0.224267 0.111925 -0.267728
v -0.224267 0.088690 -0.248169
v -0.734397 0.088690 -0.248169
v -0.734397 0.111925 -0.267728
v -0.224267 0.088690 -0.248169
v -0.224267 0.058911 -0.254140
v -0.734397 0.058911 -0.254140
v -0.734397 0.088690 -0.248169
v -0.224267 0.058911 -0.254140
v -0.224267 0.045012 -0.281145
v -0.734397 0.045012 -0.281145
v -0.734397 0.058911 -0.254140
v -0.224267 0.045012 -0.281145
v -0.224267 0.057460 -0.308849
v -0.734397 0.057460 -0.308849
v -0.734397 0.045012 -0.281145
v -0.224267 0.057460 -0.308849
v -0.224267 0.086881 -0.316390
v -0.734397 0.086881 -0.316390
v -0.734397 0.057460 -0.308849
v -0.224267 0.086881 -0.316390
v -0.224267 0.111120 -0.298089
v -0.734397 0.111120 -0.298089
v -0.734397 0.086881 -0.316390
v -0.224267 0.080000 -0.282073
v -0.224267 0.111925 -0.267728
v -0.224267 0.111120 -0.298089
v -0.734397 0.080000 -0.282073
v -0.734397 0.111120 -0.298089
v -0.734397 0.111925 -0.267728
v -0.224267 0.080000 -0.282073
v -0.224267 0.088690 -0.248169
v -0.224267 0.111925 -0.267728
v -0.734397 0.080000 -0.282073
v -0.734397 0.111925 -0.267728
v -0.734397 0.088690 -0.248169
v -0.224267 0.080000 -0.282073
v -0.224267 0.058911 -0.254140
v -0.224267 0.088690 -0.248169
v -0.734397 0.080000 -0.282073
v -0.734397 0.088690 -0.248169
v -0.734397 0.058911 -0.254140
v -0.224267 0.080000 -0.282073
v -0.224267 0.045012 -0.281145
v -0.224267 0.058911 -0.254140
v -0.734397 0.080000 -0.282073
v -0.734397 0.058911 -0.254140
v -0.734397 0.045012 -0.281145
v -0.224267 0.080000 -0.282073
v -0.224267 0.057460 -0.308849
v -0.224267 0.045012 -0.281145
v -0.734397 0.080000 -0.282073
v -0.734397 0.045012 -0.281145
v -0.734397 0.057460 -0.308849
v -0.224267 0.080000 -0.282073
v -0.224267 0.086881 -0.316390
v -0.224267 0.057460 -0.308849
v -0.734397 0.080000 -0.282073
v -0.734397 0.057460 -0.308849
v -0.734397 0.086881 -0.316390
v -0.224267 0.080000 -0.282073
v -0.224267 0.111120 -0.298089
v -0.224267 0.086881 -0.316390
v -0.734397 0.080000 -0.282073
v -0.734397 0.086881 -0.316390
v -0.734397 0.111120 -0.298089
v -0.366965 0.020499 0.503375
v -0.627054 0.020499 0.435645
v -0.613466 0.154911 0.383466
v -0.353377 0.154911 0.451196
v -0.592244 -0.034911 0.301973
v -0.332155 -0.034911 0.369703
v -0.318567 0.099501 0.317524
v -0.578656 0.099501 0.249794
v -0.332155 -0.034911 0.369703
v -0.366965 0.020499 0.503375
v -0.353377 0.154911 0.451196
v -0.318567 0.099501 0.317524
v -0.627054 0.020499 0.435645
v -0.592244 -0.034911 0.301973
v -0.578656 0.099501 0.249794
v -0.613466 0.154911 0.383466
v -0.353377 0.154911 0.451196
v -0.613466 0.154911 0.383466
v -0.578656 0.099501 0.249794
v -0.318567 0.099501 0.317524
v -0.332155 -0.034911 0.369703
v -0.592244 -0.034911 0.301973
v -0.627054 0.020499 0.435645
v -0.366965 0.020499 0.503375
v 0.504351 0.085596 -0.377604
v 0.504351 0.110501 -0.360221
v 0.080032 0.110501 -0.360221
v 0.080032 0.085596 -0.377604
v 0.504351 0.110501 -0.360221
v 0.504351 0.112438 -0.329911
v 0.080032 0.112438 -0.329911
v 0.080032 0.110501 -0.360221
v 0.504351 0.112438 -0.329911
v 0.504351 0.089949 -0.309498
v 0.080032 0.089949 -0.309498
v 0.080032 0.112438 -0.329911
v 0.504351 0.089949 -0.309498
v 0.504351 0.059968 -0.314354
v 0.080032 0.059968 -0.314354
v 0.080032 0.089949 -0.309498
v 0.504351 0.059968 -0.314354
v 0.504351 0.045071 -0.340821
v 0.080032 0.045071 -0.340821
v 0.080032 0.059968 -0.314354
v 0.504351 0.045071 -0.340821
v 0.504351 0.056477 -0.368970
v 0.080032 0.056477 -0.368970
v 0.080032 0.045071 -0.340821
v 0.504351 0.056477 -0.368970
v 0.504351 0.085596 -0.377604
v 0.080032 0.085596 -0.377604
v 0.080032 0.056477 -0.368970
v 0.504351 0.080000 -0.343054
v 0.504351 0.110501 -0.360221
v 0.504351 0.085596 -0.377604
v 0.080032 0.080000 -0.343054
v 0.080032 0.085596 -0.377604
v 0.080032 0.110501 -0.360221
v 0.504351 0.080000 -0.343054
v 0.504351 0.112438 -0.329911
v 0.504351 0.110501 -0.360221
v 0.080032 0.080000 -0.343054
v 0.080032 0.110501 -0.360221
v 0.080032 0.112438 -0.329911
v 0.504351 0.080000 -0.343054
v 0.504351 0.089949 -0.309498
v 0.504351 0.112438 -0.329911
v 0.080032 0.080000 -0.343054
v 0.080032 0.112438 -0.329911
v 0.080032 0.089949 -0.309498
v 0.504351 0.080000 -0.343054
v 0.504351 0.059968 -0.314354
v 0.504351 0.089949 -0.309498
v 0.080032 0.080000 -0.343054
v 0.080032 0.089949 -0.309498
v 0.080032 0.059968 -0.314354
v 0.504351 0.080000 -0.343054
v 0.504351 0.045071 -0.340821
v 0.504351 0.059968 -0.314354
v 0.080032 0.080000 -0.343054
v 0.080032 0.059968 -0.314354
v 0.080032 0.045071 -0.340821
v 0.504351 0.080000 -0.343054
v 0.504351 0.056477 -0.368970
v 0.504351 0.045071 -0.340821
v 0.080032 0.080000 -0.343054
v 0.080032 0.045071 -0.340821
v 0.080032 0.056477 -0.368970
v 0.504351 0.080000 -0.343054
v 0.504351 0.085596 -0.377604
v 0.504351 0.056477 -0.368970
v 0.080032 0.080000 -0.343054
v 0.080032 0.056477 -0.368970
v 0.080032 0.085596 -0.377604
v 0.348885 0.033002 0.624779
v 0.231700 0.033002 0.386339
v 0.246069 0.115414 0.379277
v 0.363254 0.115414 0.617718
v 0.362969 0.004586 0.321825
v 0.480154 0.004586 0.560265
v 0.494523 0.086998 0.553203
v 0.377338 0.086998 0.314763
v 0.480154 0.004586 0.560265
v 0.348885 0.033002 0.624779
v 0.363254 0.115414 0.617718
v 0.494523 0.086998 0.553203
v 0.231700 0.033002 0.386339
v 0.362969 0.004586 0.321825
v 0.377338 0.086998 0.314763
v 0.246069 0.115414 0.379277
v 0.363254 0.115414 0.617718
v 0.246069 0.115414 0.379277
v 0.377338 0.086998 0.314763
v 0.494523 0.086998 0.553203
v 0.480154 0.004586 0.560265
v 0.362969 0.004586 0.321825
v 0.231700 0.033002 0.386339
v 0.348885 0.033002 0.624779
v 0.814728 0.098778 0.207517
v 0.814728 0.114800 0.233319
v 0.297001 0.114800 0.233319
v 0.297001 0.098778 0.207517
v 0.814728 0.114800 0.233319
v 0.814728 0.104617 0.261933
v 0.297001 0.104617 0.261933
v 0.297001 0.114800 0.233319
v 0.814728 0.104617 0.261933
v 0.814728 0.075897 0.271813
v 0.297001 0.075897 0.271813
v 0.297001 0.104617 0.261933
v 0.814728 0.075897 0.271813
v 0.814728 0.050267 0.255518
v 0.297001 0.050267 0.255518
v 0.297001 0.075897 0.271813
v 0.814728 0.050267 0.255518
v 0.814728 0.047026 0.225319
v 0.297001 0.047026 0.225319
v 0.297001 0.050267 0.255518
v 0.814728 0.047026 0.225319
v 0.814728 0.068615 0.203957
v 0.297001 0.068615 0.203957
v 0.297001 0.047026 0.225319
v 0.814728 0.068615 0.203957
v 0.814728 0.098778 0.207517
v 0.297001 0.098778 0.207517
v 0.297001 0.068615 0.203957
v 0.814728 0.080000 0.237054
v 0.814728 0.114800 0.233319
v 0.814728 0.098778 0.207517
v 0.297001 0.080000 0.237054
v 0.297001 0.098778 0.207517
v 0.297001 0.114800 0.233319
v 0.814728 0.080000 0.237054
v 0.814728 0.104617 0.261933
v 0.814728 0.114800 0.233319
v 0.297001 0.080000 0.237054
v 0.297001 0.114800 0.233319
v 0.297001 0.104617 0.261933
v 0.814728 0.080000 0.237054
v 0.814728 0.075897 0.271813
v 0.814728 0.104617 0.261933
v 0.297001 0.080000 0.237054
v 0.297001 0.104617 0.261933
v 0.297001 0.075897 0.271813
v 0.814728 0.080000 0.237054
v 0.814728 0.050267 0.255518
v 0.814728 0.075897 0.271813
v 0.297001 0.080000 0.237054
v 0.297001 0.075897 0.271813
v 0.297001 0.050267 0.255518
v 0.814728 0.080000 0.237054
v 0.814728 0.047026 0.225319
v 0.814728 0.050267 0.255518
v 0.297001 0.080000 0.237054
v 0.297001 0.050267 0.255518
v 0.297001 0.047026 0.225319
v 0.814728 0.080000 0.237054
v 0.814728 0.068615 0.203957
v 0.814728 0.047026 0.225319
v 0.297001 0.080000 0.237054
v 0.297001 0.047026 0.225319
v 0.297001 0.068615 0.203957
v 0.814728 0.080000 0.237054
v 0.814728 0.098778 0.207517
v 0.814728 0.068615 0.203957
v 0.297001 0.080000 0.237054
v 0.297001 0.068615 0.203957
v 0.297001 0.098778 0.207517
v -0.590666 0.004027 -0.189757
v -0.409583 0.004027 -0.232470
v -0.409106 0.118376 -0.230449
v -0.590189 0.118376 -0.187737
v -0.379190 0.001624 -0.103617
v -0.560273 0.001624 -0.060905
v -0.559797 0.115973 -0.058884
v -0.378714 0.115973 -0.101596
v -0.560273 0.001624 -0.060905
v -0.590666 0.004027 -0.189757
v -0.590189 0.118376 -0.187737
v -0.559797 0.115973 -0.058884
v -0.409583 0.004027 -0.232470
v -0.379190 0.001624 -0.103617
v -0.378714 0.115973 -0.101596
v -0.409106 0.118376 -0.230449
v -0.590189 0.118376 -0.187737
v -0.409106 0.118376 -0.230449
v -0.378714 0.115973 -0.101596
v -0.559797 0.115973 -0.058884
v -0.560273 0.001624 -0.060905
v -0.379190 0.001624 -0.103617
v -0.409583 0.004027 -0.232470
v -0.590666 0.004027 -0.189757
v 0.842555 0.065987 -0.337026
v 0.842555 0.096338 -0.335907
v 0.189518 0.096338 -0.335907
v 0.189518 0.065987 -0.337026
v 0.842555 0.096338 -0.335907
v 0.842555 0.114386 -0.311479
v 0.189518 0.114386 -0.311479
v 0.189518 0.096338 -0.335907
v 0.842555 0.114386 -0.311479
v 0.842555 0.106541 -0.282138
v 0.189518 0.106541 -0.282138
v 0.189518 0.114386 -0.311479
v 0.842555 0.106541 -0.282138
v 0.842555 0.078710 -0.269978
v 0.189518 0.078710 -0.269978
v 0.189518 0.106541 -0.282138
v 0.842555 0.078710 -0.269978
v 0.842555 0.051850 -0.284155
v 0.189518 0.051850 -0.284155
v 0.189518 0.078710 -0.269978
v 0.842555 0.051850 -0.284155
v 0.842555 0.046188 -0.313995
v 0.189518 0.046188 -0.313995
v 0.189518 0.051850 -0.284155
v 0.842555 0.046188 -0.313995
v 0.842555 0.065987 -0.337026
v 0.189518 0.065987 -0.337026
v 0.189518 0.046188 -0.313995
v 0.842555 0.080000 -0.304954
v 0.842555 0.096338 -0.335907
v 0.842555 0.065987 -0.337026
v 0.189518 0.080000 -0.304954
v 0.189518 0.065987 -0.337026
v 0.189518 0.096338 -0.335907
v 0.842555 0.080000 -0.304954
v 0.842555 0.114386 -0.311479
v 0.842555 0.096338 -0.335907
v 0.189518 0.080000 -0.304954
v 0.189518 0.096338 -0.335907
v 0.189518 0.114386 -0.311479
v 0.842555 0.080000 -0.304954
v 0.842555 0.106541 -0.282138
v 0.842555 0.114386 -0.311479
v 0.189518 0.080000 -0.304954
v 0.189518 0.114386 -0.311479
v 0.189518 0.106541 -0.282138
v 0.842555 0.080000 -0.304954
v 0.842555 0.078710 -0.269978
v 0.842555 0.106541 -0.282138
v 0.189518 0.080000 -0.304954
v 0.189518 0.106541 -0.282138
v 0.189518 0.078710 -0.269978
v 0.842555 0.080000 -0.304954
v 0.842555 0.051850 -0.284155
v 0.842555 0.078710 -0.269978
v 0.189518 0.080000 -0.304954
v 0.189518 0.078710 -0.269978
v 0.189518 0.051850 -0.284155
v 0.842555 0.080000 -0.304954
v 0.842555 0.046188 -0.313995
v 0.842555 0.051850 -0.284155
v 0.189518 0.080000 -0.304954
v 0.189518 0.051850 -0.284155
v 0.189518 0.046188 -0.313995
v 0.842555 0.080000 -0.304954
v 0.842555 0.065987 -0.337026
v 0.842555 0.046188 -0.313995
v 0.189518 0.080000 -0.304954
v 0.189518 0.046188 -0.313995
v 0.189518 0.065987 -0.337026
v 0.590407 0.034348 0.045887
v 0.295240 0.034348 -0.136436
v 0.307527 0.127881 -0.156328
v 0.602694 0.127881 0.025995
v 0.384020 -0.007881 -0.280165
v 0.679188 -0.007881 -0.097842
v 0.691474 0.085652 -0.117734
v 0.396307 0.085652 -0.300057
v 0.679188 -0.007881 -0.097842
v 0.590407 0.034348 0.045887
v 0.602694 0.127881 0.025995
v 0.691474 0.085652 -0.117734
v 0.295240 0.034348 -0.136436
v 0.384020 -0.007881 -0.280165
v 0.396307 0.085652 -0.300057
v 0.307527 0.127881 -0.156328
v 0.602694 0.127881 0.025995
v 0.307527 0.127881 -0.156328
v 0.396307 0.085652 -0.300057
v 0.691474 0.085652 -0.117734
v 0.679188 -0.007881 -0.097842
v 0.384020 -0.007881 -0.280165
v 0.295240 0.034348 -0.136436
v 0.590407 0.034348 0.045887
v 0.415694 0.050160 0.148846
v 0.415694 0.075697 0.132404
v -0.320809 0.075697 0.132404
v -0.320809 0.050160 0.148846
v 0.415694 0.075697 0.132404
v 0.415694 0.104473 0.142117
v -0.320809 0.104473 0.142117
v -0.320809 0.075697 0.132404
v 0.415694 0.104473 0.142117
v 0.415694 0.114821 0.170672
v -0.320809 0.114821 0.170672
v -0.320809 0.104473 0.142117
v 0.415694 0.114821 0.170672
v 0.415694 0.098948 0.196565
v -0.320809 0.098948 0.196565
v -0.320809 0.114821 0.170672
v 0.415694 0.098948 0.196565
v 0.415694 0.068806 0.200300
v -0.320809 0.068806 0.200300
v -0.320809 0.098948 0.196565
v 0.415694 0.068806 0.200300
v 0.415694 0.047094 0.179063
v -0.320809 0.047094 0.179063
v -0.320809 0.068806 0.200300
v 0.415694 0.047094 0.179063
v 0.415694 0.050160 0.148846
v -0.320809 0.050160 0.148846
v -0.320809 0.047094 0.179063
v 0.415694 0.080000 0.167138
v 0.415694 0.075697 0.132404
v 0.415694 0.050160 0.148846
v -0.320809 0.080000 0.167138
v -0.320809 0.050160 0.148846
v -0.320809 0.075697 0.132404
v 0.415694 0.080000 0.167138
v 0.415694 0.104473 0.142117
v 0.415694 0.075697 0.132404
v -0.320809 0.080000 0.167138
v -0.320809 0.075697 0.132404
v -0.320809 0.104473 0.142117
v 0.415694 0.080000 0.167138
v 0.415694 0.114821 0.170672
v 0.415694 0.104473 0.142117
v -0.320809 0.080000 0.167138
v -0.320809 0.104473 0.142117
v -0.320809 0.114821 0.170672
v 0.415694 0.080000 0.167138
v 0.415694 0.098948 0.196565
v 0.415694 0.114821 0.170672
v -0.320809 0.080000 0.167138
v -0.320809 0.114821 0.170672
v -0.320809 0.098948 0.196565
v 0.415694 0.080000 0.167138
v 0.415694 0.068806 0.200300
v 0.415694 0.098948 0.196565
v -0.320809 0.080000 0.167138
v -0.320809 0.098948 0.196565
v -0.320809 0.068806 0.200300
v 0.415694 0.080000 0.167138
v 0.415694 0.047094 0.179063
v 0.415694 0.068806 0.200300
v -0.320809 0.080000 0.167138
v -0.320809 0.068806 0.200300
v -0.320809 0.047094 0.179063
v 0.415694 0.080000 0.167138
v 0.415694 0.050160 0.148846
v 0.415694 0.047094 0.179063
v -0.320809 0.080000 0.167138
v -0.320809 0.047094 0.179063
v -0.320809 0.050160 0.148846
v 0.038352 0.064172 0.530824
v 0.188864 0.064172 0.292631
v 0.222304 0.139950 0.313762
v 0.071792 0.139950 0.551954
v 0.325095 -0.019950 0.378715
v 0.174583 -0.019950 0.616907
v 0.208023 0.055828 0.638038
v 0.358535 0.055828 0.399845
v 0.174583 -0.019950 0.616907
v 0.038352 0.064172 0.530824
v 0.071792 0.139950 0.551954
v 0.208023 0.055828 0.638038
v 0.188864 0.064172 0.292631
v 0.325095 -0.019950 0.378715
v 0.358535 0.055828 0.399845
v 0.222304 0.139950 0.313762
v 0.071792 0.139950 0.551954
v 0.222304 0.139950 0.313762
v 0.358535 0.055828 0.399845
v 0.208023 0.055828 0.638038
v 0.174583 -0.019950 0.616907
v 0.325095 -0.019950 0.378715
v 0.188864 0.064172 0.292631
v 0.038352 0.064172 0.530824
vt 0.000000 0.000000
vt 1.000000 0.000000
vt 1.000000 1.000000
vt 0.000000 1.000000
vt 0.000000 0.000000
vt 1.000000 0.000000
vt 1.000000 1.000000
vt 0.000000 1.000000
vt 0.000000 0.000000
vt 1.000000 0.000000
vt 1.000000 1.000000
vt 0.000000 1.000000
vt 0.000000 0.000000
vt 1.000000 0.000000
vt 1.000000 1.000000
vt 0.000000 1.000000
vt 0.000000 0.000000
vt 1.000000 0.000000
vt 1.000000 1.000000
vt 0.000000 1.000000
vt 0.000000 0.000000
vt 1.000000 0.000000
vt 1.000000 1.000000
vt 0.000000 1.000000
vt 0.000000 0.000000
vt 1.000000 0.000000
vt 1.000000 1.000000
vt 0.000000 1.000000
vt 0.500000 0.500000
vt 0.000000 0.000000
vt 1.000000 0.000000
vt 0.500000 0.500000
vt 0.000000 1.000000
vt 1.000000 1.000000
vt 0.500000 0.500000
vt 0.000000 0.000000
vt 1.000000 0.000000
vt 0.500000 0.500000
vt 0.000000 1.000000
vt 1.000000 1.000000
vt 0.500000 0.500000
vt 0.000000 0.000000
vt 1.000000 0.000000
vt 0.500000 0.500000
vt 0.000000 1.000000
vt 1.000000 1.000000
vt 0.500000 0.500000
vt 0.000000 0.000000
vt 1.000000 0.000000
vt 0.500000 0.500000
vt 0.000000 1.000000
vt 1.000000 1.000000
vt 0.500000 0.500000
vt 0.000000 0.000000
vt 1.000000 0.000000
vt 0.500000 0.500000
vt 0.000000 1.000000
vt 1.000000 1.000000
vt 0.500000 0.500000
vt 0.000000 0.000000
vt 1.000000 0.000000
vt 0.500000 0.500000
vt 0.000000 1.000000
vt 1.000000 1.000000
vt 0.500000 0.500000
vt 0.000000 0.000000
vt 1.000000 0.000000
vt 0.500000 0.500000
vt 0.000000 1.000000
vt 1.000000 1.000000
vt 0.000000 0.000000
vt 1.000000 0.000000
vt 1.000000 1.000000
vt 0.000000 1.000000
vt 0.000000 0.000000
vt 1.000000 0.000000
vt 1.000000 1.000000
vt 0.000000 1.000000
vt 0.000000 0.000000
vt 1.000000 0.000000
vt 1.000000 1.000000
vt 0.000000 1.000000
vt 0.000000 0.000000
vt 1.000000 0.000000
vt 1.000000 1.000000
vt 0.000000 1.000000
vt 0.000000 0.000000
vt 1.000000 0.000000
vt 1.000000 1.000000
vt 0.000000 1.000000
vt 0.000000 0.000000
vt 1.000000 0.000000
vt 1.000000 1.000000
vt 0.000000 1.000000
vt 0.000000 0.000000
vt 1.000000 0.000000
vt 1.000000 1.000000
vt 0.000000 1.000000
vt 0.000000 0.000000
vt 1.000000 0.000000
vt 1.000000 1.000000
vt 0.000000 1.000000
vt 0.000000 0.000000
vt 1.000000 0.000000
vt 1.000000 1.000000
vt 0.000000 1.000000
vt 0.000000 0.000000
vt 1.000000 0.000000
vt 1.000000 1.000000
vt 0.000000 1.000000
vt 0.000000 0.000000
vt 1.000000 0.000000
vt 1.000000 1.000000
vt 0.000000 1.000000
vt 0.000000 0.000000
vt 1.000000 0.000000
vt 1.000000 1.000000
vt 0.000000 1.000000
vt 0.000000 0.000000
vt 1.000000 0.000000
vt 1.000000 1.000000
vt 0.000000 1.000000
vt 0.500000 0.500000
vt 0.000000 0.000000
vt 1.000000 0.000000
vt 0.500000 0.500000
vt 0.000000 1.000000
vt 1.000000 1.000000
vt 0.500000 0.500000
vt 0.000000 0.000000
vt 1.000000 0.000000
vt 0.500000 0.500000
vt 0.000000 1.000000
vt 1.000000 1.000000
vt 0.500000 0.500000
vt 0.000000 0.000000
vt 1.000000 0.000000
vt 0.500000 0.500000
vt 0.000000 1.000000
vt 1.000000 1.000000
vt 0.500000 0.500000
vt 0.000000 0.000000
vt 1.000000 0.000000
vt 0.500000 0.500000
vt 0.000000 1.000000
vt 1.000000 1.000000
vt 0.500000 0.500000
vt 0.000000 0.000000
vt 1.000000 0.000000
vt 0.500000 0.500000
vt 0.000000 1.000000
vt 1.000000 1.000000
vt 0.500000 0.500000
vt 0.000000 0.000000
vt 1.000000 0.000000
vt 0.500000 0.500000
vt 0.000000 1.000000
vt 1.000000 1.000000
vt 0.500000 0.500000
vt 0.000000 0.000000
vt 1.000000 0.000000
vt 0.500000 0.500000
vt 0.000000 1.000000
vt 1.000000 1.000000
vt 0.000000 0.000000
vt 1.000000 0.000000
vt 1.000000 1.000000
vt 0.000000 1.000000
vt 0.000000 0.000000
vt 1.000000 0.000000
vt 1.000000 1.000000
vt 0.000000 1.000000
vt 0.000000 0.000000
vt 1.000000 0.000000
vt 1.000000 1.000000
vt 0.000000 1.000000
vt 0.000000 0.000000
vt 1.000000 0.000000
vt 1.000000 1.000000
vt 0.000000 1.000000
vt 0.000000 0.000000
vt 1.000000 0.000000
vt 1.000000 1.000000
vt 0.000000 1.000000
vt 0.000000 0.000000
vt 1.000000 0.000000
vt 1.000000 1.000000
vt 0.000000 1.000000
vt 0.000000 0.000000
vt 1.000000 0.000000
vt 1.000000 1.000000
vt 0.000000 1.000000
vt 0.000000 0.000000
vt 1.000000 0.000000
vt 1.000000 1.000000
vt 0.000000 1.000000
vt 0.000000 0.000000
vt 1.000000 0.000000
vt 1.000000 1.000000
vt 0.000000 1.000000
vt 0.000000 0.000000
vt 1.000000 0.000000
vt 1.000000 1.000000
vt 0.000000 1.000000
vt 0.000000 0.000000
vt 1.000000 0.000000
vt 1.000000 1.000000
vt 0.000000 1.000000
vt 0.000000 0.000000
vt 1.000000 0.000000
vt 1.000000 1.000000
vt 0.000000 1.000000
vt 0.000000 0.000000
vt 1.000000 0.000000
vt 1.000000 1.000000
vt 0.000000 1.000000
vt 0.500000 0.500000
vt 0.000000 0.000000
vt 1.000000 0.000000
vt 0.500000 0.500000
vt 0.000000 1.000000
vt 1.000000 1.000000
vt 0.500000 0.500000
vt 0.000000 0.000000
vt 1.000000 0.000000
vt 0.500000 0.500000
vt 0.000000 1.000000
vt 1.000000 1.000000
vt 0.500000 0.500000
vt 0.000000 0.000000
vt 1.000000 0.000000
vt 0.500000 0.500000
vt 0.000000 1.000000
vt 1.000000 1.000000
vt 0.500000 0.500000
vt 0.000000 0.000000
vt 1.000000 0.000000
vt 0.500000 0.500000
vt 0.000000 1.000000
vt 1.000000 1.000000
vt 0.500000 0.500000
vt 0.000000 0.000000
vt 1.000000 0.000000
vt 0.500000 0.500000
vt 0.000000 1.000000
vt 1.000000 1.000000
vt 0.500000 0.500000
vt 0.000000 0.000000
vt 1.000000 0.000000
vt 0.500000 0.500000
vt 0.000000 1.000000
vt 1.000000 1.000000
vt 0.500000 0.500000
vt 0.000000 0.000000
vt 1.000000 0.000000
vt 0.500000 0.500000
vt 0.000000 1.000000
vt 1.000000 1.000000
vt 0.000000 0.000000
vt 1.000000 0.000000
vt 1.000000 1.000000
vt 0.000000 1.000000
vt 0.000000 0.000000
vt 1.000000 0.000000
vt 1.000000 1.000000
vt 0.000000 1.000000
vt 0.000000 0.000000
vt 1.000000 0.000000
vt 1.000000 1.000000
vt 0.000000 1.000000
vt 0.000000 0.000000
vt 1.000000 0.000000
vt 1.000000 1.000000
vt 0.000000 1.000000
vt 0.000000 0.000000
vt 1.000000 0.000000
vt 1.000000 1.000000
vt 0.000000 1.000000
vt 0.000000 0.000000
vt 1.000000 0.000000
vt 1.000000 1.000000
vt 0.000000 1.000000
vt 0.000000 0.000000
vt 1.000000 0.000000
vt 1.000000 1.000000
vt 0.000000 1.000000
vt 0.000000 0.000000
vt 1.000000 0.000000
vt 1.000000 1.000000
vt 0.000000 1.000000
vt 0.000000 0.000000
vt 1.000000 0.000000
vt 1.000000 1.000000
vt 0.000000 1.000000
vt 0.000000 0.000000
vt 1.000000 0.000000
vt 1.000000 1.000000
vt 0.000000 1.000000
vt 0.000000 0.000000
vt 1.000000 0.000000
vt 1.000000 1.000000
vt 0.000000 1.000000
vt 0.000000 0.000000
vt 1.000000 0.000000
vt 1.000000 1.000000
vt 0.000000 1.000000
vt 0.000000 0.000000
vt 1.000000 0.000000
vt 1.000000 1.000000
vt 0.000000 1.000000
vt 0.500000 0.500000
vt 0.000000 0.000000
vt 1.000000 0.000000
vt 0.500000 0.500000
vt 0.000000 1.000000
vt 1.000000 1.000000
vt 0.500000 0.500000
vt 0.000000 0.000000
vt 1.000000 0.000000
vt 0.500000 0.500000
vt 0.000000 1.000000
vt 1.000000 1.000000
vt 0.500000 0.500000
vt 0.000000 0.000000
vt 1.000000 0.000000
vt 0.500000 0.500000
vt 0.000000 1.000000
vt 1.000000 1.000000
vt 0.500000 0.500000
vt 0.000000 0.000000
vt 1.000000 0.000000
vt 0.500000 0.500000
vt 0.000000 1.000000
vt 1.000000 1.000000
vt 0.500000 0.500000
vt 0.000000 0.000000
vt 1.000000 0.000000
vt 0.500000 0.500000
vt 0.000000 1.000000
vt 1.000000 1.000000
vt 0.500000 0.500000
vt 0.000000 0.000000
vt 1.000000 0.000000
vt 0.500000 0.500000
vt 0.000000 1.000000
vt 1.000000 1.000000
vt 0.500000 0.500000
vt 0.000000 0.000000
vt 1.000000 0.000000
vt 0.500000 0.500000
vt 0.000000 1.000000
vt 1.000000 1.000000
vt 0.000000 0.000000
vt 1.000000 0.000000
vt 1.000000 1.000000
vt 0.000000 1.000000
vt 0.000000 0.000000
vt 1.000000 0.000000
vt 1.000000 1.000000
vt 0.000000 1.000000
vt 0.000000 0.000000
vt 1.000000 0.000000
vt 1.000000 1.000000
vt 0.000000 1.000000
vt 0.000000 0.000000
vt 1.000000 0.000000
vt 1.000000 1.000000
vt 0.000000 1.000000
vt 0.000000 0.000000
vt 1.000000 0.000000
vt 1.000000 1.000000
vt 0.000000 1.000000
vt 0.000000 0.000000
vt 1.000000 0.000000
vt 1.000000 1.000000
vt 0.000000 1.000000
vt 0.000000 0.000000
vt 1.000000 0.000000
vt 1.000000 1.000000
vt 0.000000 1.000000
vt 0.000000 0.000000
vt 1.000000 0.000000
vt 1.000000 1.000000
vt 0.000000 1.000000
vt 0.000000 0.000000
vt 1.000000 0.000000
vt 1.000000 1.000000
vt 0.000000 1.000000
vt 0.000000 0.000000
vt 1.000000 0.000000
vt 1.000000 1.000000
vt 0.000000 1.000000
vt 0.000000 0.000000
vt 1.000000 0.000000
vt 1.000000 1.000000
vt 0.000000 1.000000
vt 0.000000 0.000000
vt 1.000000 0.000000
vt 1.000000 1.000000
vt 0.000000 1.000000
vt 0.000000 0.000000
vt 1.000000 0.000000
vt 1.000000 1.000000
vt 0.000000 1.000000
vt 0.500000 0.500000
vt 0.000000 0.000000
vt 1.000000 0.000000
vt 0.500000 0.500000
vt 0.000000 1.000000
vt 1.000000 1.000000
vt 0.500000 0.500000
vt 0.000000 0.000000
vt 1.000000 0.000000
vt 0.500000 0.500000
vt 0.000000 1.000000
vt 1.000000 1.000000
vt 0.500000 0.500000
vt 0.000000 0.000000
vt 1.000000 0.000000
vt 0.500000 0.500000
vt 0.000000 1.000000
vt 1.000000 1.000000
vt 0.500000 0.500000
vt 0.000000 0.000000
vt 1.000000 0.000000
vt 0.500000 0.500000
vt 0.000000 1.000000
vt 1.000000 1.000000
vt 0.500000 0.500000
vt 0.000000 0.000000
vt 1.000000 0.000000
vt 0.500000 0.500000
vt 0.000000 1.000000
vt 1.000000 1.000000
vt 0.500000 0.500000
vt 0.000000 0.000000
vt 1.000000 0.000000
vt 0.500000 0.500000
vt 0.000000 1.000000
vt 1.000000 1.000000
vt 0.500000 0.500000
vt 0.000000 0.000000
vt 1.000000 0.000000
vt 0.500000 0.500000
vt 0.000000 1.000000
vt 1.000000 1.000000
vt 0.000000 0.000000
vt 1.000000 0.000000
vt 1.000000 1.000000
vt 0.000000 1.000000
vt 0.000000 0.000000
vt 1.000000 0.000000
vt 1.000000 1.000000
vt 0.000000 1.000000
vt 0.000000 0.000000
vt 1.000000 0.000000
vt 1.000000 1.000000
vt 0.000000 1.000000
vt 0.000000 0.000000
vt 1.000000 0.000000
vt 1.000000 1.000000
vt 0.000000 1.000000
vt 0.000000 0.000000
vt 1.000000 0.000000
vt 1.000000 1.000000
vt 0.000000 1.000000
vt 0.000000 0.000000
vt 1.000000 0.000000
vt 1.000000 1.000000
vt 0.000000 1.000000
vt 0.000000 0.000000
vt 1.000000 0.000000
vt 1.000000 1.000000
vt 0.000000 1.000000
vt 0.000000 0.000000
vt 1.000000 0.000000
vt 1.000000 1.000000
vt 0.000000 1.000000
vt 0.000000 0.000000
vt 1.000000 0.000000
vt 1.000000 1.000000
vt 0.000000 1.000000
vt 0.000000 0.000000
vt 1.000000 0.000000
vt 1.000000 1.000000
vt 0.000000 1.000000
vt 0.000000 0.000000
vt 1.000000 0.000000
vt 1.000000 1.000000
vt 0.000000 1.000000
vt 0.000000 0.000000
vt 1.000000 0.000000
vt 1.000000 1.000000
vt 0.000000 1.000000
vt 0.000000 0.000000
vt 1.000000 0.000000
vt 1.000000 1.000000
vt 0.000000 1.000000
vt 0.500000 0.500000
vt 0.000000 0.000000
vt 1.000000 0.000000
vt 0.500000 0.500000
vt 0.000000 1.000000
vt 1.000000 1.000000
vt 0.500000 0.500000
vt 0.000000 0.000000
vt 1.000000 0.000000
vt 0.500000 0.500000
vt 0.000000 1.000000
vt 1.000000 1.000000
vt 0.500000 0.500000
vt 0.000000 0.000000
vt 1.000000 0.000000
vt 0.500000 0.500000
vt 0.000000 1.000000
vt 1.000000 1.000000
vt 0.500000 0.500000
vt 0.000000 0.000000
vt 1.000000 0.000000
vt 0.500000 0.500000
vt 0.000000 1.000000
vt 1.000000 1.000000
vt 0.500000 0.500000
vt 0.000000 0.000000
vt 1.000000 0.000000
vt 0.500000 0.500000
vt 0.000000 1.000000
vt 1.000000 1.000000
vt 0.500000 0.500000
vt 0.000000 0.000000
vt 1.000000 0.000000
vt 0.500000 0.500000
vt 0.000000 1.000000
vt 1.000000 1.000000
vt 0.500000 0.500000
vt 0.000000 0.000000
vt 1.000000 0.000000
vt 0.500000 0.500000
vt 0.000000 1.000000
vt 1.000000 1.000000
vt 0.000000 0.000000
vt 1.000000 0.000000
vt 1.000000 1.000000
vt 0.000000 1.000000
vt 0.000000 0.000000
vt 1.000000 0.000000
vt 1.000000 1.000000
vt 0.000000 1.000000
vt 0.000000 0.000000
vt 1.000000 0.000000
vt 1.000000 1.000000
vt 0.000000 1.000000
vt 0.000000 0.000000
vt 1.000000 0.000000
vt 1.000000 1.000000
vt 0.000000 1.000000
vt 0.000000 0.000000
vt 1.000000 0.000000
vt 1.000000 1.000000
vt 0.000000 1.000000
vt 0.000000 0.000000
vt 1.000000 0.000000
vt 1.000000 1.000000
vt 0.000000 1.000000
usemtl Wood
f 1/1 2/2 3/3
f 1/1 3/3 4/4
f 5/5 6/6 7/7
f 5/5 7/7 8/8
f 9/9 10/10 11/11
f 9/9 11/11 12/12
f 13/13 14/14 15/15
f 13/13 15/15 16/16
f 17/17 18/18 19/19
f 17/17 19/19 20/20
f 21/21 22/22 23/23
f 21/21 23/23 24/24
f 25/25 26/26 27/27
f 25/25 27/27 28/28
f 29/29 30/30 31/31
f 32/32 33/33 34/34
f 35/35 36/36 37/37
f 38/38 39/39 40/40
f 41/41 42/42 43/43
f 44/44 45/45 46/46
f 47/47 48/48 49/49
f 50/50 51/51 52/52
f 53/53 54/54 55/55
f 56/56 57/57 58/58
f 59/59 60/60 61/61
f 62/62 63/63 64/64
f 65/65 66/66 67/67
f 68/68 69/69 70/70
usemtl Stone
f 71/71 72/72 73/73
f 71/71 73/73 74/74
f 75/75 76/76 77/77
f 75/75 77/77 78/78
f 79/79 80/80 81/81
f 79/79 81/81 82/82
f 83/83 84/84 85/85
f 83/83 85/85 86/86
f 87/87 88/88 89/89
f 87/87 89/89 90/90
f 91/91 92/92 93/93
f 91/91 93/93 94/94
usemtl Wood
f 95/95 96/96 97/97
f 95/95 97/97 98/98
f 99/99 100/100 101/101
f 99/99 101/101 102/102
f 103/103 104/104 105/105
f 103/103 105/105 106/106
f 107/107 108/108 109/109
f 107/107 109/109 110/110
f 111/111 112/112 113/113
f 111/111 113/113 114/114
f 115/115 116/116 117/117
f 115/115 117/117 118/118
f 119/119 120/120 121/121
f 119/119 121/121 122/122
f 123/123 124/124 125/125
f 126/126 127/127 128/128
f 129/129 130/130 131/131
f 132/132 133/133 134/134
f 135/135 136/136 137/137
f 138/138 139/139 140/140
f 141/141 142/142 143/143
f 144/144 145/145 146/146
f 147/147 148/148 149/149
f 150/150 151/151 152/152
f 153/153 154/154 155/155
f 156/156 157/157 158/158
f 159/159 160/160 161/161
f 162/162 163/163 164/164
usemtl Stone
f 165/165 166/166 167/167
f 165/165 167/167 168/168
f 169/169 170/170 171/171
f 169/169 171/171 172/172
f 173/173 174/174 175/175
f 173/173 175/175 176/176
f 177/177 178/178 179/179
f 177/177 179/179 180/180
f 181/181 182/182 183/183
f 181/181 183/183 184/184
f 185/185 186/186 187/187
f 185/185 187/187 188/188
usemtl Wood
f 189/189 190/190 191/191
f 189/189 191/191 192/192
f 193/193 194/194 195/195
f 193/193 195/195 196/196
f 197/197 198/198 199/199
f 197/197 199/199 200/200
f 201/201 202/202 203/203
f 201/201 203/203 204/204
f 205/205 206/206 207/207
f 205/205 207/207 208/208
f 209/209 210/210 211/211
f 209/209 211/211 212/212
f 213/213 214/214 215/215
f 213/213 215/215 216/216
f 217/217 218/218 219/219
f 220/220 221/221 222/222
f 223/223 224/224 225/225
f 226/226 227/227 228/228
f 229/229 230/230 231/231
f 232/232 233/233 234/234
f 235/235 236/236 237/237
f 238/238 239/239 240/240
f 241/241 242/242 243/243
f 244/244 245/245 246/246
f 247/247 248/248 249/249
f 250/250 251/251 252/252
f 253/253 254/254 255/255
f 256/256 257/257 258/258
usemtl Stone
f 259/259 260/260 261/261
f 259/259 261/261 262/262
f 263/263 264/264 265/265
f 263/263 265/265 266/266
f 267/267 268/268 269/269
f 267/267 269/269 270/270
f 271/271 272/272 273/273
f 271/271 273/273 274/274
f 275/275 276/276 277/277
f 275/275 277/277 278/278
f 279/279 280/280 281/281
f 279/279 281/281 282/282
usemtl Wood
f 283/283 284/284 285/285
f 283/283 285/285 286/286
f 287/287 288/288 289/289
f 287/287 289/289 290/290
f 291/291 292/292 293/293
f 291/291 293/293 294/294
f 295/295 296/296 297/297
f 295/295 297/297 298/298
f 299/299 300/300 301/301
f 299/299 301/301 302/302
f 303/303 304/304 305/305
f 303/303 305/305 306/306
f 307/307 308/308 309/309
f 307/307 309/309 310/310
f 311/311 312/312 313/313
f 314/314 315/315 316/316
f 317/317 318/318 319/319
f 320/320 321/321 322/322
f 323/323 324/324 325/325
f 326/326 327/327 328/328
f 329/329 330/330 331/331
f 332/332 333/333 334/334
f 335/335 336/336 337/337
f 338/338 339/339 340/340
f 341/341 342/342 343/343
f 344/344 345/345 346/346
f 347/347 348/348 349/349
f 350/350 351/351 352/352
usemtl Stone
f 353/353 354/354 355/355
f 353/353 355/355 356/356
f 357/357 358/358 359/359
f 357/357 359/359 360/360
f 361/361 362/362 363/363
f 361/361 363/363 364/364
f 365/365 366/366 367/367
f 365/365 367/367 368/368
f 369/369 370/370 371/371
f 369/369 371/371 372/372
f 373/373 374/374 375/375
f 373/373 375/375 376/376
usemtl Wood
f 377/377 378/378 379/379
f 377/377 379/379 380/380
f 381/381 382/382 383/383
f 381/381 383/383 384/384
f 385/385 386/386 387/387
f 385/385 387/387 388/388
f 389/389 390/390 391/391
f 389/389 391/391 392/392
f 393/393 394/394 395/395
f 393/393 395/395 396/396
f 397/397 398/398 399/399
f 397/397 399/399 400/400
f 401/401 402/402 403/403
f 401/401 403/403 404/404
f 405/405 406/406 407/407
f 408/408 409/409 410/410
f 411/411 412/412 413/413
f 414/414 415/415 416/416
f 417/417 418/418 419/419
f 420/420 421/421 422/422
f 423/423 424/424 425/425
f 426/426 427/427 428/428
f 429/429 430/430 431/431
f 432/432 433/433 434/434
f 435/435 436/436 437/437
f 438/438 439/439 440/440
f 441/441 442/442 443/443
f 444/444 445/445 446/446
usemtl Stone
f 447/447 448/448 449/449
f 447/447 449/449 450/450
f 451/451 452/452 453/453
f 451/451 453/453 454/454
f 455/455 456/456 457/457
f 455/455 457/457 458/458
f 459/459 460/460 461/461
f 459/459 461/461 462/462
f 463/463 464/464 465/465
f 463/463 465/465 466/466
f 467/467 468/468 469/469
f 467/467 469/469 470/470
usemtl Wood
f 471/471 472/472 473/473
f 471/471 473/473 474/474
f 475/475 476/476 477/477
f 475/475 477/477 478/478
f 479/479 480/480 481/481
f 479/479 481/481 482/482
f 483/483 484/484 485/485
f 483/483 485/485 486/486
f 487/487 488/488 489/489
f 487/487 489/489 490/490
f 491/491 492/492 493/493
f 491/491 493/493 494/494
f 495/495 496/496 497/497
f 495/495 497/497 498/498
f 499/499 500/500 501/501
f 502/502 503/503 504/504
f 505/505 506/506 507/507
f 508/508 509/509 510/510
f 511/511 512/512 513/513
f 514/514 515/515 516/516
f 517/517 518/518 519/519
f 520/520 521/521 522/522
f 523/523 524/524 525/525
f 526/526 527/527 528/528
f 529/529 530/530 531/531
f 532/532 533/533 534/534
f 535/535 536/536 537/537
f 538/538 539/539 540/540
usemtl Stone
f 541/541 542/542 543/543
f 541/541 543/543 544/544
f 545/545 546/546 547/547
f 545/545 547/547 548/548
f 549/549 550/550 551/551
f 549/549 551/551 552/552
f 553/553 554/554 555/555
f 553/553 555/555 556/556
f 557/557 558/558 559/559
f 557/557 559/559 560/560
f 561/561 562/562 563/563
f 561/561 563/563 564/564
