mtllib ../../Materials/project_oen.mtl
o en-024_camp_boundary_rope_set__taut
v -0.665000 0.000000 0.000000
v -0.678178 0.000000 0.027364
v -0.678178 0.800000 0.027364
v -0.665000 0.800000 0.000000
v -0.678178 0.000000 0.027364
v -0.707788 0.000000 0.034122
v -0.707788 0.800000 0.034122
v -0.678178 0.800000 0.027364
v -0.707788 0.000000 0.034122
v -0.731534 0.000000 0.015186
v -0.731534 0.800000 0.015186
v -0.707788 0.800000 0.034122
v -0.731534 0.000000 0.015186
v -0.731534 0.000000 -0.015186
v -0.731534 0.800000 -0.015186
v -0.731534 0.800000 0.015186
v -0.731534 0.000000 -0.015186
v -0.707788 0.000000 -0.034122
v -0.707788 0.800000 -0.034122
v -0.731534 0.800000 -0.015186
v -0.707788 0.000000 -0.034122
v -0.678178 0.000000 -0.027364
v -0.678178 0.800000 -0.027364
v -0.707788 0.800000 -0.034122
v -0.678178 0.000000 -0.027364
v -0.665000 0.000000 0.000000
v -0.665000 0.800000 0.000000
v -0.678178 0.800000 -0.027364
v -0.700000 0.000000 0.000000
v -0.678178 0.000000 0.027364
v -0.665000 0.000000 0.000000
v -0.700000 0.800000 0.000000
v -0.665000 0.800000 0.000000
v -0.678178 0.800000 0.027364
v -0.700000 0.000000 0.000000
v -0.707788 0.000000 0.034122
v -0.678178 0.000000 0.027364
v -0.700000 0.800000 0.000000
v -0.678178 0.800000 0.027364
v -0.707788 0.800000 0.034122
v -0.700000 0.000000 0.000000
v -0.731534 0.000000 0.015186
v -0.707788 0.000000 0.034122
v -0.700000 0.800000 0.000000
v -0.707788 0.800000 0.034122
v -0.731534 0.800000 0.015186
v -0.700000 0.000000 0.000000
v -0.731534 0.000000 -0.015186
v -0.731534 0.000000 0.015186
v -0.700000 0.800000 0.000000
v -0.731534 0.800000 0.015186
v -0.731534 0.800000 -0.015186
v -0.700000 0.000000 0.000000
v -0.707788 0.000000 -0.034122
v -0.731534 0.000000 -0.015186
v -0.700000 0.800000 0.000000
v -0.731534 0.800000 -0.015186
v -0.707788 0.800000 -0.034122
v -0.700000 0.000000 0.000000
v -0.678178 0.000000 -0.027364
v -0.707788 0.000000 -0.034122
v -0.700000 0.800000 0.000000
v -0.707788 0.800000 -0.034122
v -0.678178 0.800000 -0.027364
v -0.700000 0.000000 0.000000
v -0.665000 0.000000 0.000000
v -0.678178 0.000000 -0.027364
v -0.700000 0.800000 0.000000
v -0.678178 0.800000 -0.027364
v -0.665000 0.800000 0.000000
v 0.735000 0.000000 0.000000
v 0.721822 0.000000 0.027364
v 0.721822 0.800000 0.027364
v 0.735000 0.800000 0.000000
v 0.721822 0.000000 0.027364
v 0.692212 0.000000 0.034122
v 0.692212 0.800000 0.034122
v 0.721822 0.800000 0.027364
v 0.692212 0.000000 0.034122
v 0.668466 0.000000 0.015186
v 0.668466 0.800000 0.015186
v 0.692212 0.800000 0.034122
v 0.668466 0.000000 0.015186
v 0.668466 0.000000 -0.015186
v 0.668466 0.800000 -0.015186
v 0.668466 0.800000 0.015186
v 0.668466 0.000000 -0.015186
v 0.692212 0.000000 -0.034122
v 0.692212 0.800000 -0.034122
v 0.668466 0.800000 -0.015186
v 0.692212 0.000000 -0.034122
v 0.721822 0.000000 -0.027364
v 0.721822 0.800000 -0.027364
v 0.692212 0.800000 -0.034122
v 0.721822 0.000000 -0.027364
v 0.735000 0.000000 0.000000
v 0.735000 0.800000 0.000000
v 0.721822 0.800000 -0.027364
v 0.700000 0.000000 0.000000
v 0.721822 0.000000 0.027364
v 0.735000 0.000000 0.000000
v 0.700000 0.800000 0.000000
v 0.735000 0.800000 0.000000
v 0.721822 0.800000 0.027364
v 0.700000 0.000000 0.000000
v 0.692212 0.000000 0.034122
v 0.721822 0.000000 0.027364
v 0.700000 0.800000 0.000000
v 0.721822 0.800000 0.027364
v 0.692212 0.800000 0.034122
v 0.700000 0.000000 0.000000
v 0.668466 0.000000 0.015186
v 0.692212 0.000000 0.034122
v 0.700000 0.800000 0.000000
v 0.692212 0.800000 0.034122
v 0.668466 0.800000 0.015186
v 0.700000 0.000000 0.000000
v 0.668466 0.000000 -0.015186
v 0.668466 0.000000 0.015186
v 0.700000 0.800000 0.000000
v 0.668466 0.800000 0.015186
v 0.668466 0.800000 -0.015186
v 0.700000 0.000000 0.000000
v 0.692212 0.000000 -0.034122
v 0.668466 0.000000 -0.015186
v 0.700000 0.800000 0.000000
v 0.668466 0.800000 -0.015186
v 0.692212 0.800000 -0.034122
v 0.700000 0.000000 0.000000
v 0.721822 0.000000 -0.027364
v 0.692212 0.000000 -0.034122
v 0.700000 0.800000 0.000000
v 0.692212 0.800000 -0.034122
v 0.721822 0.800000 -0.027364
v 0.700000 0.000000 0.000000
v 0.735000 0.000000 0.000000
v 0.721822 0.000000 -0.027364
v 0.700000 0.800000 0.000000
v 0.721822 0.800000 -0.027364
v 0.735000 0.800000 0.000000
v -0.520000 0.621000 -0.175000
v -0.530941 0.626271 -0.175313
v -0.540941 0.626271 0.174687
v -0.530000 0.621000 0.175000
v -0.530941 0.626271 -0.175313
v -0.533643 0.638115 -0.175390
v -0.543643 0.638115 0.174610
v -0.540941 0.626271 0.174687
v -0.533643 0.638115 -0.175390
v -0.526072 0.647614 -0.175173
v -0.536072 0.647614 0.174827
v -0.543643 0.638115 0.174610
v -0.526072 0.647614 -0.175173
v -0.513928 0.647614 -0.174827
v -0.523928 0.647614 0.175173
v -0.536072 0.647614 0.174827
v -0.513928 0.647614 -0.174827
v -0.506357 0.638115 -0.174610
v -0.516357 0.638115 0.175390
v -0.523928 0.647614 0.175173
v -0.506357 0.638115 -0.174610
v -0.509059 0.626271 -0.174687
v -0.519059 0.626271 0.175313
v -0.516357 0.638115 0.175390
v -0.509059 0.626271 -0.174687
v -0.520000 0.621000 -0.175000
v -0.530000 0.621000 0.175000
v -0.519059 0.626271 0.175313
v -0.520000 0.635000 -0.175000
v -0.530941 0.626271 -0.175313
v -0.520000 0.621000 -0.175000
v -0.530000 0.635000 0.175000
v -0.530000 0.621000 0.175000
v -0.540941 0.626271 0.174687
v -0.520000 0.635000 -0.175000
v -0.533643 0.638115 -0.175390
v -0.530941 0.626271 -0.175313
v -0.530000 0.635000 0.175000
v -0.540941 0.626271 0.174687
v -0.543643 0.638115 0.174610
v -0.520000 0.635000 -0.175000
v -0.526072 0.647614 -0.175173
v -0.533643 0.638115 -0.175390
v -0.530000 0.635000 0.175000
v -0.543643 0.638115 0.174610
v -0.536072 0.647614 0.174827
v -0.520000 0.635000 -0.175000
v -0.513928 0.647614 -0.174827
v -0.526072 0.647614 -0.175173
v -0.530000 0.635000 0.175000
v -0.536072 0.647614 0.174827
v -0.523928 0.647614 0.175173
v -0.520000 0.635000 -0.175000
v -0.506357 0.638115 -0.174610
v -0.513928 0.647614 -0.174827
v -0.530000 0.635000 0.175000
v -0.523928 0.647614 0.175173
v -0.516357 0.638115 0.175390
v -0.520000 0.635000 -0.175000
v -0.509059 0.626271 -0.174687
v -0.506357 0.638115 -0.174610
v -0.530000 0.635000 0.175000
v -0.516357 0.638115 0.175390
v -0.519059 0.626271 0.175313
v -0.520000 0.635000 -0.175000
v -0.520000 0.621000 -0.175000
v -0.509059 0.626271 -0.174687
v -0.530000 0.635000 0.175000
v -0.519059 0.626271 0.175313
v -0.530000 0.621000 0.175000
v -0.170000 0.611000 -0.175000
v -0.180941 0.616271 -0.175313
v -0.190941 0.616271 0.174687
v -0.180000 0.611000 0.175000
v -0.180941 0.616271 -0.175313
v -0.183643 0.628115 -0.175390
v -0.193643 0.628115 0.174610
v -0.190941 0.616271 0.174687
v -0.183643 0.628115 -0.175390
v -0.176072 0.637614 -0.175173
v -0.186072 0.637614 0.174827
v -0.193643 0.628115 0.174610
v -0.176072 0.637614 -0.175173
v -0.163928 0.637614 -0.174827
v -0.173928 0.637614 0.175173
v -0.186072 0.637614 0.174827
v -0.163928 0.637614 -0.174827
v -0.156357 0.628115 -0.174610
v -0.166357 0.628115 0.175390
v -0.173928 0.637614 0.175173
v -0.156357 0.628115 -0.174610
v -0.159059 0.616271 -0.174687
v -0.169059 0.616271 0.175313
v -0.166357 0.628115 0.175390
v -0.159059 0.616271 -0.174687
v -0.170000 0.611000 -0.175000
v -0.180000 0.611000 0.175000
v -0.169059 0.616271 0.175313
v -0.170000 0.625000 -0.175000
v -0.180941 0.616271 -0.175313
v -0.170000 0.611000 -0.175000
v -0.180000 0.625000 0.175000
v -0.180000 0.611000 0.175000
v -0.190941 0.616271 0.174687
v -0.170000 0.625000 -0.175000
v -0.183643 0.628115 -0.175390
v -0.180941 0.616271 -0.175313
v -0.180000 0.625000 0.175000
v -0.190941 0.616271 0.174687
v -0.193643 0.628115 0.174610
v -0.170000 0.625000 -0.175000
v -0.176072 0.637614 -0.175173
v -0.183643 0.628115 -0.175390
v -0.180000 0.625000 0.175000
v -0.193643 0.628115 0.174610
v -0.186072 0.637614 0.174827
v -0.170000 0.625000 -0.175000
v -0.163928 0.637614 -0.174827
v -0.176072 0.637614 -0.175173
v -0.180000 0.625000 0.175000
v -0.186072 0.637614 0.174827
v -0.173928 0.637614 0.175173
v -0.170000 0.625000 -0.175000
v -0.156357 0.628115 -0.174610
v -0.163928 0.637614 -0.174827
v -0.180000 0.625000 0.175000
v -0.173928 0.637614 0.175173
v -0.166357 0.628115 0.175390
v -0.170000 0.625000 -0.175000
v -0.159059 0.616271 -0.174687
v -0.156357 0.628115 -0.174610
v -0.180000 0.625000 0.175000
v -0.166357 0.628115 0.175390
v -0.169059 0.616271 0.175313
v -0.170000 0.625000 -0.175000
v -0.170000 0.611000 -0.175000
v -0.159059 0.616271 -0.174687
v -0.180000 0.625000 0.175000
v -0.169059 0.616271 0.175313
v -0.180000 0.611000 0.175000
v 0.170000 0.611000 -0.175000
v 0.159059 0.616271 -0.174687
v 0.169059 0.616271 0.175313
v 0.180000 0.611000 0.175000
v 0.159059 0.616271 -0.174687
v 0.156357 0.628115 -0.174610
v 0.166357 0.628115 0.175390
v 0.169059 0.616271 0.175313
v 0.156357 0.628115 -0.174610
v 0.163928 0.637614 -0.174827
v 0.173928 0.637614 0.175173
v 0.166357 0.628115 0.175390
v 0.163928 0.637614 -0.174827
v 0.176072 0.637614 -0.175173
v 0.186072 0.637614 0.174827
v 0.173928 0.637614 0.175173
v 0.176072 0.637614 -0.175173
v 0.183643 0.628115 -0.175390
v 0.193643 0.628115 0.174610
v 0.186072 0.637614 0.174827
v 0.183643 0.628115 -0.175390
v 0.180941 0.616271 -0.175313
v 0.190941 0.616271 0.174687
v 0.193643 0.628115 0.174610
v 0.180941 0.616271 -0.175313
v 0.170000 0.611000 -0.175000
v 0.180000 0.611000 0.175000
v 0.190941 0.616271 0.174687
v 0.170000 0.625000 -0.175000
v 0.159059 0.616271 -0.174687
v 0.170000 0.611000 -0.175000
v 0.180000 0.625000 0.175000
v 0.180000 0.611000 0.175000
v 0.169059 0.616271 0.175313
v 0.170000 0.625000 -0.175000
v 0.156357 0.628115 -0.174610
v 0.159059 0.616271 -0.174687
v 0.180000 0.625000 0.175000
v 0.169059 0.616271 0.175313
v 0.166357 0.628115 0.175390
v 0.170000 0.625000 -0.175000
v 0.163928 0.637614 -0.174827
v 0.156357 0.628115 -0.174610
v 0.180000 0.625000 0.175000
v 0.166357 0.628115 0.175390
v 0.173928 0.637614 0.175173
v 0.170000 0.625000 -0.175000
v 0.176072 0.637614 -0.175173
v 0.163928 0.637614 -0.174827
v 0.180000 0.625000 0.175000
v 0.173928 0.637614 0.175173
v 0.186072 0.637614 0.174827
v 0.170000 0.625000 -0.175000
v 0.183643 0.628115 -0.175390
v 0.176072 0.637614 -0.175173
v 0.180000 0.625000 0.175000
v 0.186072 0.637614 0.174827
v 0.193643 0.628115 0.174610
v 0.170000 0.625000 -0.175000
v 0.180941 0.616271 -0.175313
v 0.183643 0.628115 -0.175390
v 0.180000 0.625000 0.175000
v 0.193643 0.628115 0.174610
v 0.190941 0.616271 0.174687
v 0.170000 0.625000 -0.175000
v 0.170000 0.611000 -0.175000
v 0.180941 0.616271 -0.175313
v 0.180000 0.625000 0.175000
v 0.190941 0.616271 0.174687
v 0.180000 0.611000 0.175000
v 0.520000 0.621000 -0.175000
v 0.509059 0.626271 -0.174687
v 0.519059 0.626271 0.175313
v 0.530000 0.621000 0.175000
v 0.509059 0.626271 -0.174687
v 0.506357 0.638115 -0.174610
v 0.516357 0.638115 0.175390
v 0.519059 0.626271 0.175313
v 0.506357 0.638115 -0.174610
v 0.513928 0.647614 -0.174827
v 0.523928 0.647614 0.175173
v 0.516357 0.638115 0.175390
v 0.513928 0.647614 -0.174827
v 0.526072 0.647614 -0.175173
v 0.536072 0.647614 0.174827
v 0.523928 0.647614 0.175173
v 0.526072 0.647614 -0.175173
v 0.533643 0.638115 -0.175390
v 0.543643 0.638115 0.174610
v 0.536072 0.647614 0.174827
v 0.533643 0.638115 -0.175390
v 0.530941 0.626271 -0.175313
v 0.540941 0.626271 0.174687
v 0.543643 0.638115 0.174610
v 0.530941 0.626271 -0.175313
v 0.520000 0.621000 -0.175000
v 0.530000 0.621000 0.175000
v 0.540941 0.626271 0.174687
v 0.520000 0.635000 -0.175000
v 0.509059 0.626271 -0.174687
v 0.520000 0.621000 -0.175000
v 0.530000 0.635000 0.175000
v 0.530000 0.621000 0.175000
v 0.519059 0.626271 0.175313
v 0.520000 0.635000 -0.175000
v 0.506357 0.638115 -0.174610
v 0.509059 0.626271 -0.174687
v 0.530000 0.635000 0.175000
v 0.519059 0.626271 0.175313
v 0.516357 0.638115 0.175390
v 0.520000 0.635000 -0.175000
v 0.513928 0.647614 -0.174827
v 0.506357 0.638115 -0.174610
v 0.530000 0.635000 0.175000
v 0.516357 0.638115 0.175390
v 0.523928 0.647614 0.175173
v 0.520000 0.635000 -0.175000
v 0.526072 0.647614 -0.175173
v 0.513928 0.647614 -0.174827
v 0.530000 0.635000 0.175000
v 0.523928 0.647614 0.175173
v 0.536072 0.647614 0.174827
v 0.520000 0.635000 -0.175000
v 0.533643 0.638115 -0.175390
v 0.526072 0.647614 -0.175173
v 0.530000 0.635000 0.175000
v 0.536072 0.647614 0.174827
v 0.543643 0.638115 0.174610
v 0.520000 0.635000 -0.175000
v 0.530941 0.626271 -0.175313
v 0.533643 0.638115 -0.175390
v 0.530000 0.635000 0.175000
v 0.543643 0.638115 0.174610
v 0.540941 0.626271 0.174687
v 0.520000 0.635000 -0.175000
v 0.520000 0.621000 -0.175000
v 0.530941 0.626271 -0.175313
v 0.530000 0.635000 0.175000
v 0.540941 0.626271 0.174687
v 0.530000 0.621000 0.175000
v -0.616000 0.640000 0.000000
v -0.627254 0.598000 0.000000
v -0.635914 0.603000 0.010000
v -0.626000 0.640000 0.010000
v -0.626000 0.640000 0.010000
v -0.635914 0.603000 0.010000
v -0.644574 0.608000 0.000000
v -0.636000 0.640000 0.000000
v -0.636000 0.640000 0.000000
v -0.644574 0.608000 0.000000
v -0.635914 0.603000 -0.010000
v -0.626000 0.640000 -0.010000
v -0.626000 0.640000 -0.010000
v -0.635914 0.603000 -0.010000
v -0.627254 0.598000 0.000000
v -0.616000 0.640000 0.000000
v -0.627254 0.598000 0.000000
v -0.658000 0.567254 0.000000
v -0.663000 0.575914 0.010000
v -0.635914 0.603000 0.010000
v -0.635914 0.603000 0.010000
v -0.663000 0.575914 0.010000
v -0.668000 0.584574 0.000000
v -0.644574 0.608000 0.000000
v -0.644574 0.608000 0.000000
v -0.668000 0.584574 0.000000
v -0.663000 0.575914 -0.010000
v -0.635914 0.603000 -0.010000
v -0.635914 0.603000 -0.010000
v -0.663000 0.575914 -0.010000
v -0.658000 0.567254 0.000000
v -0.627254 0.598000 0.000000
v -0.658000 0.567254 0.000000
v -0.700000 0.556000 0.000000
v -0.700000 0.566000 0.010000
v -0.663000 0.575914 0.010000
v -0.663000 0.575914 0.010000
v -0.700000 0.566000 0.010000
v -0.700000 0.576000 0.000000
v -0.668000 0.584574 0.000000
v -0.668000 0.584574 0.000000
v -0.700000 0.576000 0.000000
v -0.700000 0.566000 -0.010000
v -0.663000 0.575914 -0.010000
v -0.663000 0.575914 -0.010000
v -0.700000 0.566000 -0.010000
v -0.700000 0.556000 0.000000
v -0.658000 0.567254 0.000000
v -0.700000 0.556000 0.000000
v -0.742000 0.567254 0.000000
v -0.737000 0.575914 0.010000
v -0.700000 0.566000 0.010000
v -0.700000 0.566000 0.010000
v -0.737000 0.575914 0.010000
v -0.732000 0.584574 0.000000
v -0.700000 0.576000 0.000000
v -0.700000 0.576000 0.000000
v -0.732000 0.584574 0.000000
v -0.737000 0.575914 -0.010000
v -0.700000 0.566000 -0.010000
v -0.700000 0.566000 -0.010000
v -0.737000 0.575914 -0.010000
v -0.742000 0.567254 0.000000
v -0.700000 0.556000 0.000000
v -0.742000 0.567254 0.000000
v -0.772746 0.598000 0.000000
v -0.764086 0.603000 0.010000
v -0.737000 0.575914 0.010000
v -0.737000 0.575914 0.010000
v -0.764086 0.603000 0.010000
v -0.755426 0.608000 0.000000
v -0.732000 0.584574 0.000000
v -0.732000 0.584574 0.000000
v -0.755426 0.608000 0.000000
v -0.764086 0.603000 -0.010000
v -0.737000 0.575914 -0.010000
v -0.737000 0.575914 -0.010000
v -0.764086 0.603000 -0.010000
v -0.772746 0.598000 0.000000
v -0.742000 0.567254 0.000000
v -0.772746 0.598000 0.000000
v -0.784000 0.640000 0.000000
v -0.774000 0.640000 0.010000
v -0.764086 0.603000 0.010000
v -0.764086 0.603000 0.010000
v -0.774000 0.640000 0.010000
v -0.764000 0.640000 0.000000
v -0.755426 0.608000 0.000000
v -0.755426 0.608000 0.000000
v -0.764000 0.640000 0.000000
v -0.774000 0.640000 -0.010000
v -0.764086 0.603000 -0.010000
v -0.764086 0.603000 -0.010000
v -0.774000 0.640000 -0.010000
v -0.784000 0.640000 0.000000
v -0.772746 0.598000 0.000000
v -0.784000 0.640000 0.000000
v -0.772746 0.682000 -0.000000
v -0.764086 0.677000 0.010000
v -0.774000 0.640000 0.010000
v -0.774000 0.640000 0.010000
v -0.764086 0.677000 0.010000
v -0.755426 0.672000 -0.000000
v -0.764000 0.640000 0.000000
v -0.764000 0.640000 0.000000
v -0.755426 0.672000 -0.000000
v -0.764086 0.677000 -0.010000
v -0.774000 0.640000 -0.010000
v -0.774000 0.640000 -0.010000
v -0.764086 0.677000 -0.010000
v -0.772746 0.682000 -0.000000
v -0.784000 0.640000 0.000000
v -0.772746 0.682000 -0.000000
v -0.742000 0.712746 -0.000000
v -0.737000 0.704086 0.010000
v -0.764086 0.677000 0.010000
v -0.764086 0.677000 0.010000
v -0.737000 0.704086 0.010000
v -0.732000 0.695426 -0.000000
v -0.755426 0.672000 -0.000000
v -0.755426 0.672000 -0.000000
v -0.732000 0.695426 -0.000000
v -0.737000 0.704086 -0.010000
v -0.764086 0.677000 -0.010000
v -0.764086 0.677000 -0.010000
v -0.737000 0.704086 -0.010000
v -0.742000 0.712746 -0.000000
v -0.772746 0.682000 -0.000000
v -0.742000 0.712746 -0.000000
v -0.700000 0.724000 -0.000000
v -0.700000 0.714000 0.010000
v -0.737000 0.704086 0.010000
v -0.737000 0.704086 0.010000
v -0.700000 0.714000 0.010000
v -0.700000 0.704000 -0.000000
v -0.732000 0.695426 -0.000000
v -0.732000 0.695426 -0.000000
v -0.700000 0.704000 -0.000000
v -0.700000 0.714000 -0.010000
v -0.737000 0.704086 -0.010000
v -0.737000 0.704086 -0.010000
v -0.700000 0.714000 -0.010000
v -0.700000 0.724000 -0.000000
v -0.742000 0.712746 -0.000000
v -0.700000 0.724000 -0.000000
v -0.658000 0.712746 -0.000000
v -0.663000 0.704086 0.010000
v -0.700000 0.714000 0.010000
v -0.700000 0.714000 0.010000
v -0.663000 0.704086 0.010000
v -0.668000 0.695426 -0.000000
v -0.700000 0.704000 -0.000000
v -0.700000 0.704000 -0.000000
v -0.668000 0.695426 -0.000000
v -0.663000 0.704086 -0.010000
v -0.700000 0.714000 -0.010000
v -0.700000 0.714000 -0.010000
v -0.663000 0.704086 -0.010000
v -0.658000 0.712746 -0.000000
v -0.700000 0.724000 -0.000000
v -0.658000 0.712746 -0.000000
v -0.627254 0.682000 -0.000000
v -0.635914 0.677000 0.010000
v -0.663000 0.704086 0.010000
v -0.663000 0.704086 0.010000
v -0.635914 0.677000 0.010000
v -0.644574 0.672000 -0.000000
v -0.668000 0.695426 -0.000000
v -0.668000 0.695426 -0.000000
v -0.644574 0.672000 -0.000000
v -0.635914 0.677000 -0.010000
v -0.663000 0.704086 -0.010000
v -0.663000 0.704086 -0.010000
v -0.635914 0.677000 -0.010000
v -0.627254 0.682000 -0.000000
v -0.658000 0.712746 -0.000000
v -0.627254 0.682000 -0.000000
v -0.616000 0.640000 0.000000
v -0.626000 0.640000 0.010000
v -0.635914 0.677000 0.010000
v -0.635914 0.677000 0.010000
v -0.626000 0.640000 0.010000
v -0.636000 0.640000 0.000000
v -0.644574 0.672000 -0.000000
v -0.644574 0.672000 -0.000000
v -0.636000 0.640000 0.000000
v -0.626000 0.640000 -0.010000
v -0.635914 0.677000 -0.010000
v -0.635914 0.677000 -0.010000
v -0.626000 0.640000 -0.010000
v -0.616000 0.640000 0.000000
v -0.627254 0.682000 -0.000000
v 0.784000 0.640000 0.000000
v 0.772746 0.598000 0.000000
v 0.764086 0.603000 0.010000
v 0.774000 0.640000 0.010000
v 0.774000 0.640000 0.010000
v 0.764086 0.603000 0.010000
v 0.755426 0.608000 0.000000
v 0.764000 0.640000 0.000000
v 0.764000 0.640000 0.000000
v 0.755426 0.608000 0.000000
v 0.764086 0.603000 -0.010000
v 0.774000 0.640000 -0.010000
v 0.774000 0.640000 -0.010000
v 0.764086 0.603000 -0.010000
v 0.772746 0.598000 0.000000
v 0.784000 0.640000 0.000000
v 0.772746 0.598000 0.000000
v 0.742000 0.567254 0.000000
v 0.737000 0.575914 0.010000
v 0.764086 0.603000 0.010000
v 0.764086 0.603000 0.010000
v 0.737000 0.575914 0.010000
v 0.732000 0.584574 0.000000
v 0.755426 0.608000 0.000000
v 0.755426 0.608000 0.000000
v 0.732000 0.584574 0.000000
v 0.737000 0.575914 -0.010000
v 0.764086 0.603000 -0.010000
v 0.764086 0.603000 -0.010000
v 0.737000 0.575914 -0.010000
v 0.742000 0.567254 0.000000
v 0.772746 0.598000 0.000000
v 0.742000 0.567254 0.000000
v 0.700000 0.556000 0.000000
v 0.700000 0.566000 0.010000
v 0.737000 0.575914 0.010000
v 0.737000 0.575914 0.010000
v 0.700000 0.566000 0.010000
v 0.700000 0.576000 0.000000
v 0.732000 0.584574 0.000000
v 0.732000 0.584574 0.000000
v 0.700000 0.576000 0.000000
v 0.700000 0.566000 -0.010000
v 0.737000 0.575914 -0.010000
v 0.737000 0.575914 -0.010000
v 0.700000 0.566000 -0.010000
v 0.700000 0.556000 0.000000
v 0.742000 0.567254 0.000000
v 0.700000 0.556000 0.000000
v 0.658000 0.567254 0.000000
v 0.663000 0.575914 0.010000
v 0.700000 0.566000 0.010000
v 0.700000 0.566000 0.010000
v 0.663000 0.575914 0.010000
v 0.668000 0.584574 0.000000
v 0.700000 0.576000 0.000000
v 0.700000 0.576000 0.000000
v 0.668000 0.584574 0.000000
v 0.663000 0.575914 -0.010000
v 0.700000 0.566000 -0.010000
v 0.700000 0.566000 -0.010000
v 0.663000 0.575914 -0.010000
v 0.658000 0.567254 0.000000
v 0.700000 0.556000 0.000000
v 0.658000 0.567254 0.000000
v 0.627254 0.598000 0.000000
v 0.635914 0.603000 0.010000
v 0.663000 0.575914 0.010000
v 0.663000 0.575914 0.010000
v 0.635914 0.603000 0.010000
v 0.644574 0.608000 0.000000
v 0.668000 0.584574 0.000000
v 0.668000 0.584574 0.000000
v 0.644574 0.608000 0.000000
v 0.635914 0.603000 -0.010000
v 0.663000 0.575914 -0.010000
v 0.663000 0.575914 -0.010000
v 0.635914 0.603000 -0.010000
v 0.627254 0.598000 0.000000
v 0.658000 0.567254 0.000000
v 0.627254 0.598000 0.000000
v 0.616000 0.640000 0.000000
v 0.626000 0.640000 0.010000
v 0.635914 0.603000 0.010000
v 0.635914 0.603000 0.010000
v 0.626000 0.640000 0.010000
v 0.636000 0.640000 0.000000
v 0.644574 0.608000 0.000000
v 0.644574 0.608000 0.000000
v 0.636000 0.640000 0.000000
v 0.626000 0.640000 -0.010000
v 0.635914 0.603000 -0.010000
v 0.635914 0.603000 -0.010000
v 0.626000 0.640000 -0.010000
v 0.616000 0.640000 0.000000
v 0.627254 0.598000 0.000000
v 0.616000 0.640000 0.000000
v 0.627254 0.682000 -0.000000
v 0.635914 0.677000 0.010000
v 0.626000 0.640000 0.010000
v 0.626000 0.640000 0.010000
v 0.635914 0.677000 0.010000
v 0.644574 0.672000 -0.000000
v 0.636000 0.640000 0.000000
v 0.636000 0.640000 0.000000
v 0.644574 0.672000 -0.000000
v 0.635914 0.677000 -0.010000
v 0.626000 0.640000 -0.010000
v 0.626000 0.640000 -0.010000
v 0.635914 0.677000 -0.010000
v 0.627254 0.682000 -0.000000
v 0.616000 0.640000 0.000000
v 0.627254 0.682000 -0.000000
v 0.658000 0.712746 -0.000000
v 0.663000 0.704086 0.010000
v 0.635914 0.677000 0.010000
v 0.635914 0.677000 0.010000
v 0.663000 0.704086 0.010000
v 0.668000 0.695426 -0.000000
v 0.644574 0.672000 -0.000000
v 0.644574 0.672000 -0.000000
v 0.668000 0.695426 -0.000000
v 0.663000 0.704086 -0.010000
v 0.635914 0.677000 -0.010000
v 0.635914 0.677000 -0.010000
v 0.663000 0.704086 -0.010000
v 0.658000 0.712746 -0.000000
v 0.627254 0.682000 -0.000000
v 0.658000 0.712746 -0.000000
v 0.700000 0.724000 -0.000000
v 0.700000 0.714000 0.010000
v 0.663000 0.704086 0.010000
v 0.663000 0.704086 0.010000
v 0.700000 0.714000 0.010000
v 0.700000 0.704000 -0.000000
v 0.668000 0.695426 -0.000000
v 0.668000 0.695426 -0.000000
v 0.700000 0.704000 -0.000000
v 0.700000 0.714000 -0.010000
v 0.663000 0.704086 -0.010000
v 0.663000 0.704086 -0.010000
v 0.700000 0.714000 -0.010000
v 0.700000 0.724000 -0.000000
v 0.658000 0.712746 -0.000000
v 0.700000 0.724000 -0.000000
v 0.742000 0.712746 -0.000000
v 0.737000 0.704086 0.010000
v 0.700000 0.714000 0.010000
v 0.700000 0.714000 0.010000
v 0.737000 0.704086 0.010000
v 0.732000 0.695426 -0.000000
v 0.700000 0.704000 -0.000000
v 0.700000 0.704000 -0.000000
v 0.732000 0.695426 -0.000000
v 0.737000 0.704086 -0.010000
v 0.700000 0.714000 -0.010000
v 0.700000 0.714000 -0.010000
v 0.737000 0.704086 -0.010000
v 0.742000 0.712746 -0.000000
v 0.700000 0.724000 -0.000000
v 0.742000 0.712746 -0.000000
v 0.772746 0.682000 -0.000000
v 0.764086 0.677000 0.010000
v 0.737000 0.704086 0.010000
v 0.737000 0.704086 0.010000
v 0.764086 0.677000 0.010000
v 0.755426 0.672000 -0.000000
v 0.732000 0.695426 -0.000000
v 0.732000 0.695426 -0.000000
v 0.755426 0.672000 -0.000000
v 0.764086 0.677000 -0.010000
v 0.737000 0.704086 -0.010000
v 0.737000 0.704086 -0.010000
v 0.764086 0.677000 -0.010000
v 0.772746 0.682000 -0.000000
v 0.742000 0.712746 -0.000000
v 0.772746 0.682000 -0.000000
v 0.784000 0.640000 0.000000
v 0.774000 0.640000 0.010000
v 0.764086 0.677000 0.010000
v 0.764086 0.677000 0.010000
v 0.774000 0.640000 0.010000
v 0.764000 0.640000 0.000000
v 0.755426 0.672000 -0.000000
v 0.755426 0.672000 -0.000000
v 0.764000 0.640000 0.000000
v 0.774000 0.640000 -0.010000
v 0.764086 0.677000 -0.010000
v 0.764086 0.677000 -0.010000
v 0.774000 0.640000 -0.010000
v 0.784000 0.640000 0.000000
v 0.772746 0.682000 -0.000000
v -1.027182 0.464655 -0.049706
v -1.027825 0.477545 -0.034481
v -0.645988 0.095708 0.304930
v -0.645345 0.082818 0.289706
v -1.027825 0.477545 -0.034481
v -1.015738 0.492975 -0.030721
v -0.633900 0.111138 0.308690
v -0.645988 0.095708 0.304930
v -1.015738 0.492975 -0.030721
v -1.000021 0.499327 -0.041257
v -0.618183 0.117489 0.298155
v -0.633900 0.111138 0.308690
v -1.000021 0.499327 -0.041257
v -0.992511 0.491817 -0.058155
v -0.610673 0.109979 0.281257
v -0.618183 0.117489 0.298155
v -0.992511 0.491817 -0.058155
v -0.998862 0.476100 -0.068690
v -0.617025 0.094262 0.270721
v -0.610673 0.109979 0.281257
v -0.998862 0.476100 -0.068690
v -1.014292 0.464012 -0.064930
v -0.632455 0.082175 0.274481
v -0.617025 0.094262 0.270721
v -1.014292 0.464012 -0.064930
v -1.027182 0.464655 -0.049706
v -0.645345 0.082818 0.289706
v -0.632455 0.082175 0.274481
v -1.010919 0.480919 -0.049706
v -1.027825 0.477545 -0.034481
v -1.027182 0.464655 -0.049706
v -0.629081 0.099081 0.289706
v -0.645345 0.082818 0.289706
v -0.645988 0.095708 0.304930
v -1.010919 0.480919 -0.049706
v -1.015738 0.492975 -0.030721
v -1.027825 0.477545 -0.034481
v -0.629081 0.099081 0.289706
v -0.645988 0.095708 0.304930
v -0.633900 0.111138 0.308690
v -1.010919 0.480919 -0.049706
v -1.000021 0.499327 -0.041257
v -1.015738 0.492975 -0.030721
v -0.629081 0.099081 0.289706
v -0.633900 0.111138 0.308690
v -0.618183 0.117489 0.298155
v -1.010919 0.480919 -0.049706
v -0.992511 0.491817 -0.058155
v -1.000021 0.499327 -0.041257
v -0.629081 0.099081 0.289706
v -0.618183 0.117489 0.298155
v -0.610673 0.109979 0.281257
v -1.010919 0.480919 -0.049706
v -0.998862 0.476100 -0.068690
v -0.992511 0.491817 -0.058155
v -0.629081 0.099081 0.289706
v -0.610673 0.109979 0.281257
v -0.617025 0.094262 0.270721
v -1.010919 0.480919 -0.049706
v -1.014292 0.464012 -0.064930
v -0.998862 0.476100 -0.068690
v -0.629081 0.099081 0.289706
v -0.617025 0.094262 0.270721
v -0.632455 0.082175 0.274481
v -1.010919 0.480919 -0.049706
v -1.027182 0.464655 -0.049706
v -1.014292 0.464012 -0.064930
v -0.629081 0.099081 0.289706
v -0.632455 0.082175 0.274481
v -0.645345 0.082818 0.289706
v 1.027182 0.115345 -0.289706
v 1.027825 0.102455 -0.274481
v 0.645988 0.484292 0.064930
v 0.645345 0.497182 0.049706
v 1.027825 0.102455 -0.274481
v 1.015738 0.087025 -0.270721
v 0.633900 0.468862 0.068690
v 0.645988 0.484292 0.064930
v 1.015738 0.087025 -0.270721
v 1.000021 0.080673 -0.281257
v 0.618183 0.462511 0.058155
v 0.633900 0.468862 0.068690
v 1.000021 0.080673 -0.281257
v 0.992511 0.088183 -0.298155
v 0.610673 0.470021 0.041257
v 0.618183 0.462511 0.058155
v 0.992511 0.088183 -0.298155
v 0.998862 0.103900 -0.308690
v 0.617025 0.485738 0.030721
v 0.610673 0.470021 0.041257
v 0.998862 0.103900 -0.308690
v 1.014292 0.115988 -0.304930
v 0.632455 0.497825 0.034481
v 0.617025 0.485738 0.030721
v 1.014292 0.115988 -0.304930
v 1.027182 0.115345 -0.289706
v 0.645345 0.497182 0.049706
v 0.632455 0.497825 0.034481
v 1.010919 0.099081 -0.289706
v 1.027825 0.102455 -0.274481
v 1.027182 0.115345 -0.289706
v 0.629081 0.480919 0.049706
v 0.645345 0.497182 0.049706
v 0.645988 0.484292 0.064930
v 1.010919 0.099081 -0.289706
v 1.015738 0.087025 -0.270721
v 1.027825 0.102455 -0.274481
v 0.629081 0.480919 0.049706
v 0.645988 0.484292 0.064930
v 0.633900 0.468862 0.068690
v 1.010919 0.099081 -0.289706
v 1.000021 0.080673 -0.281257
v 1.015738 0.087025 -0.270721
v 0.629081 0.480919 0.049706
v 0.633900 0.468862 0.068690
v 0.618183 0.462511 0.058155
v 1.010919 0.099081 -0.289706
v 0.992511 0.088183 -0.298155
v 1.000021 0.080673 -0.281257
v 0.629081 0.480919 0.049706
v 0.618183 0.462511 0.058155
v 0.610673 0.470021 0.041257
v 1.010919 0.099081 -0.289706
v 0.998862 0.103900 -0.308690
v 0.992511 0.088183 -0.298155
v 0.629081 0.480919 0.049706
v 0.610673 0.470021 0.041257
v 0.617025 0.485738 0.030721
v 1.010919 0.099081 -0.289706
v 1.014292 0.115988 -0.304930
v 0.998862 0.103900 -0.308690
v 0.629081 0.480919 0.049706
v 0.617025 0.485738 0.030721
v 0.632455 0.497825 0.034481
v 1.010919 0.099081 -0.289706
v 1.027182 0.115345 -0.289706
v 1.014292 0.115988 -0.304930
v 0.629081 0.480919 0.049706
v 0.632455 0.497825 0.034481
v 0.645345 0.497182 0.049706
v -0.522557 0.572486 -0.146003
v -0.531188 0.577535 -0.146127
v -0.536188 0.577564 0.203879
v -0.527557 0.572514 0.204003
v -0.531188 0.577535 -0.146127
v -0.531131 0.587535 -0.146127
v -0.536131 0.587564 0.203879
v -0.536188 0.577564 0.203879
v -0.531131 0.587535 -0.146127
v -0.522443 0.592486 -0.146003
v -0.527443 0.592514 0.204003
v -0.536131 0.587564 0.203879
v -0.522443 0.592486 -0.146003
v -0.513812 0.587436 -0.145879
v -0.518812 0.587465 0.204127
v -0.527443 0.592514 0.204003
v -0.513812 0.587436 -0.145879
v -0.513869 0.577436 -0.145879
v -0.518869 0.577465 0.204127
v -0.518812 0.587465 0.204127
v -0.513869 0.577436 -0.145879
v -0.522557 0.572486 -0.146003
v -0.527557 0.572514 0.204003
v -0.518869 0.577465 0.204127
v -0.522500 0.582486 -0.146003
v -0.531188 0.577535 -0.146127
v -0.522557 0.572486 -0.146003
v -0.527500 0.582514 0.204003
v -0.527557 0.572514 0.204003
v -0.536188 0.577564 0.203879
v -0.522500 0.582486 -0.146003
v -0.531131 0.587535 -0.146127
v -0.531188 0.577535 -0.146127
v -0.527500 0.582514 0.204003
v -0.536188 0.577564 0.203879
v -0.536131 0.587564 0.203879
v -0.522500 0.582486 -0.146003
v -0.522443 0.592486 -0.146003
v -0.531131 0.587535 -0.146127
v -0.527500 0.582514 0.204003
v -0.536131 0.587564 0.203879
v -0.527443 0.592514 0.204003
v -0.522500 0.582486 -0.146003
v -0.513812 0.587436 -0.145879
v -0.522443 0.592486 -0.146003
v -0.527500 0.582514 0.204003
v -0.527443 0.592514 0.204003
v -0.518812 0.587465 0.204127
v -0.522500 0.582486 -0.146003
v -0.513869 0.577436 -0.145879
v -0.513812 0.587436 -0.145879
v -0.527500 0.582514 0.204003
v -0.518812 0.587465 0.204127
v -0.518869 0.577465 0.204127
v -0.522500 0.582486 -0.146003
v -0.522557 0.572486 -0.146003
v -0.513869 0.577436 -0.145879
v -0.527500 0.582514 0.204003
v -0.518869 0.577465 0.204127
v -0.527557 0.572514 0.204003
v -0.172443 0.567514 -0.146003
v -0.181131 0.572465 -0.146127
v -0.186131 0.572436 0.203879
v -0.177443 0.567486 0.204003
v -0.181131 0.572465 -0.146127
v -0.181188 0.582465 -0.146127
v -0.186188 0.582436 0.203879
v -0.186131 0.572436 0.203879
v -0.181188 0.582465 -0.146127
v -0.172557 0.587514 -0.146003
v -0.177557 0.587486 0.204003
v -0.186188 0.582436 0.203879
v -0.172557 0.587514 -0.146003
v -0.163869 0.582564 -0.145879
v -0.168869 0.582535 0.204127
v -0.177557 0.587486 0.204003
v -0.163869 0.582564 -0.145879
v -0.163812 0.572564 -0.145879
v -0.168812 0.572535 0.204127
v -0.168869 0.582535 0.204127
v -0.163812 0.572564 -0.145879
v -0.172443 0.567514 -0.146003
v -0.177443 0.567486 0.204003
v -0.168812 0.572535 0.204127
v -0.172500 0.577514 -0.146003
v -0.181131 0.572465 -0.146127
v -0.172443 0.567514 -0.146003
v -0.177500 0.577486 0.204003
v -0.177443 0.567486 0.204003
v -0.186131 0.572436 0.203879
v -0.172500 0.577514 -0.146003
v -0.181188 0.582465 -0.146127
v -0.181131 0.572465 -0.146127
v -0.177500 0.577486 0.204003
v -0.186131 0.572436 0.203879
v -0.186188 0.582436 0.203879
v -0.172500 0.577514 -0.146003
v -0.172557 0.587514 -0.146003
v -0.181188 0.582465 -0.146127
v -0.177500 0.577486 0.204003
v -0.186188 0.582436 0.203879
v -0.177557 0.587486 0.204003
v -0.172500 0.577514 -0.146003
v -0.163869 0.582564 -0.145879
v -0.172557 0.587514 -0.146003
v -0.177500 0.577486 0.204003
v -0.177557 0.587486 0.204003
v -0.168869 0.582535 0.204127
v -0.172500 0.577514 -0.146003
v -0.163812 0.572564 -0.145879
v -0.163869 0.582564 -0.145879
v -0.177500 0.577486 0.204003
v -0.168869 0.582535 0.204127
v -0.168812 0.572535 0.204127
v -0.172500 0.577514 -0.146003
v -0.172443 0.567514 -0.146003
v -0.163812 0.572564 -0.145879
v -0.177500 0.577486 0.204003
v -0.168812 0.572535 0.204127
v -0.177443 0.567486 0.204003
v 0.172443 0.567514 -0.146003
v 0.163812 0.572564 -0.145879
v 0.168812 0.572535 0.204127
v 0.177443 0.567486 0.204003
v 0.163812 0.572564 -0.145879
v 0.163869 0.582564 -0.145879
v 0.168869 0.582535 0.204127
v 0.168812 0.572535 0.204127
v 0.163869 0.582564 -0.145879
v 0.172557 0.587514 -0.146003
v 0.177557 0.587486 0.204003
v 0.168869 0.582535 0.204127
v 0.172557 0.587514 -0.146003
v 0.181188 0.582465 -0.146127
v 0.186188 0.582436 0.203879
v 0.177557 0.587486 0.204003
v 0.181188 0.582465 -0.146127
v 0.181131 0.572465 -0.146127
v 0.186131 0.572436 0.203879
v 0.186188 0.582436 0.203879
v 0.181131 0.572465 -0.146127
v 0.172443 0.567514 -0.146003
v 0.177443 0.567486 0.204003
v 0.186131 0.572436 0.203879
v 0.172500 0.577514 -0.146003
v 0.163812 0.572564 -0.145879
v 0.172443 0.567514 -0.146003
v 0.177500 0.577486 0.204003
v 0.177443 0.567486 0.204003
v 0.168812 0.572535 0.204127
v 0.172500 0.577514 -0.146003
v 0.163869 0.582564 -0.145879
v 0.163812 0.572564 -0.145879
v 0.177500 0.577486 0.204003
v 0.168812 0.572535 0.204127
v 0.168869 0.582535 0.204127
v 0.172500 0.577514 -0.146003
v 0.172557 0.587514 -0.146003
v 0.163869 0.582564 -0.145879
v 0.177500 0.577486 0.204003
v 0.168869 0.582535 0.204127
v 0.177557 0.587486 0.204003
v 0.172500 0.577514 -0.146003
v 0.181188 0.582465 -0.146127
v 0.172557 0.587514 -0.146003
v 0.177500 0.577486 0.204003
v 0.177557 0.587486 0.204003
v 0.186188 0.582436 0.203879
v 0.172500 0.577514 -0.146003
v 0.181131 0.572465 -0.146127
v 0.181188 0.582465 -0.146127
v 0.177500 0.577486 0.204003
v 0.186188 0.582436 0.203879
v 0.186131 0.572436 0.203879
v 0.172500 0.577514 -0.146003
v 0.172443 0.567514 -0.146003
v 0.181131 0.572465 -0.146127
v 0.177500 0.577486 0.204003
v 0.186131 0.572436 0.203879
v 0.177443 0.567486 0.204003
v 0.522557 0.572486 -0.146003
v 0.513869 0.577436 -0.145879
v 0.518869 0.577465 0.204127
v 0.527557 0.572514 0.204003
v 0.513869 0.577436 -0.145879
v 0.513812 0.587436 -0.145879
v 0.518812 0.587465 0.204127
v 0.518869 0.577465 0.204127
v 0.513812 0.587436 -0.145879
v 0.522443 0.592486 -0.146003
v 0.527443 0.592514 0.204003
v 0.518812 0.587465 0.204127
v 0.522443 0.592486 -0.146003
v 0.531131 0.587535 -0.146127
v 0.536131 0.587564 0.203879
v 0.527443 0.592514 0.204003
v 0.531131 0.587535 -0.146127
v 0.531188 0.577535 -0.146127
v 0.536188 0.577564 0.203879
v 0.536131 0.587564 0.203879
v 0.531188 0.577535 -0.146127
v 0.522557 0.572486 -0.146003
v 0.527557 0.572514 0.204003
v 0.536188 0.577564 0.203879
v 0.522500 0.582486 -0.146003
v 0.513869 0.577436 -0.145879
v 0.522557 0.572486 -0.146003
v 0.527500 0.582514 0.204003
v 0.527557 0.572514 0.204003
v 0.518869 0.577465 0.204127
v 0.522500 0.582486 -0.146003
v 0.513812 0.587436 -0.145879
v 0.513869 0.577436 -0.145879
v 0.527500 0.582514 0.204003
v 0.518869 0.577465 0.204127
v 0.518812 0.587465 0.204127
v 0.522500 0.582486 -0.146003
v 0.522443 0.592486 -0.146003
v 0.513812 0.587436 -0.145879
v 0.527500 0.582514 0.204003
v 0.518812 0.587465 0.204127
v 0.527443 0.592514 0.204003
v 0.522500 0.582486 -0.146003
v 0.531131 0.587535 -0.146127
v 0.522443 0.592486 -0.146003
v 0.527500 0.582514 0.204003
v 0.527443 0.592514 0.204003
v 0.536131 0.587564 0.203879
v 0.522500 0.582486 -0.146003
v 0.531188 0.577535 -0.146127
v 0.531131 0.587535 -0.146127
v 0.527500 0.582514 0.204003
v 0.536131 0.587564 0.203879
v 0.536188 0.577564 0.203879
v 0.522500 0.582486 -0.146003
v 0.522557 0.572486 -0.146003
v 0.531188 0.577535 -0.146127
v 0.527500 0.582514 0.204003
v 0.536188 0.577564 0.203879
v 0.527557 0.572514 0.204003
vt 0.000000 0.000000
vt 1.000000 0.000000
vt 1.000000 1.000000
vt 0.000000 1.000000
vt 0.000000 0.000000
vt 1.000000 0.000000
vt 1.000000 1.000000
vt 0.000000 1.000000
vt 0.000000 0.000000
vt 1.000000 0.000000
vt 1.000000 1.000000
vt 0.000000 1.000000
vt 0.000000 0.000000
vt 1.000000 0.000000
vt 1.000000 1.000000
vt 0.000000 1.000000
vt 0.000000 0.000000
vt 1.000000 0.000000
vt 1.000000 1.000000
vt 0.000000 1.000000
vt 0.000000 0.000000
vt 1.000000 0.000000
vt 1.000000 1.000000
vt 0.000000 1.000000
vt 0.000000 0.000000
vt 1.000000 0.000000
vt 1.000000 1.000000
vt 0.000000 1.000000
vt 0.500000 0.500000
vt 0.000000 0.000000
vt 1.000000 0.000000
vt 0.500000 0.500000
vt 0.000000 1.000000
vt 1.000000 1.000000
vt 0.500000 0.500000
vt 0.000000 0.000000
vt 1.000000 0.000000
vt 0.500000 0.500000
vt 0.000000 1.000000
vt 1.000000 1.000000
vt 0.500000 0.500000
vt 0.000000 0.000000
vt 1.000000 0.000000
vt 0.500000 0.500000
vt 0.000000 1.000000
vt 1.000000 1.000000
vt 0.500000 0.500000
vt 0.000000 0.000000
vt 1.000000 0.000000
vt 0.500000 0.500000
vt 0.000000 1.000000
vt 1.000000 1.000000
vt 0.500000 0.500000
vt 0.000000 0.000000
vt 1.000000 0.000000
vt 0.500000 0.500000
vt 0.000000 1.000000
vt 1.000000 1.000000
vt 0.500000 0.500000
vt 0.000000 0.000000
vt 1.000000 0.000000
vt 0.500000 0.500000
vt 0.000000 1.000000
vt 1.000000 1.000000
vt 0.500000 0.500000
vt 0.000000 0.000000
vt 1.000000 0.000000
vt 0.500000 0.500000
vt 0.000000 1.000000
vt 1.000000 1.000000
vt 0.000000 0.000000
vt 1.000000 0.000000
vt 1.000000 1.000000
vt 0.000000 1.000000
vt 0.000000 0.000000
vt 1.000000 0.000000
vt 1.000000 1.000000
vt 0.000000 1.000000
vt 0.000000 0.000000
vt 1.000000 0.000000
vt 1.000000 1.000000
vt 0.000000 1.000000
vt 0.000000 0.000000
vt 1.000000 0.000000
vt 1.000000 1.000000
vt 0.000000 1.000000
vt 0.000000 0.000000
vt 1.000000 0.000000
vt 1.000000 1.000000
vt 0.000000 1.000000
vt 0.000000 0.000000
vt 1.000000 0.000000
vt 1.000000 1.000000
vt 0.000000 1.000000
vt 0.000000 0.000000
vt 1.000000 0.000000
vt 1.000000 1.000000
vt 0.000000 1.000000
vt 0.500000 0.500000
vt 0.000000 0.000000
vt 1.000000 0.000000
vt 0.500000 0.500000
vt 0.000000 1.000000
vt 1.000000 1.000000
vt 0.500000 0.500000
vt 0.000000 0.000000
vt 1.000000 0.000000
vt 0.500000 0.500000
vt 0.000000 1.000000
vt 1.000000 1.000000
vt 0.500000 0.500000
vt 0.000000 0.000000
vt 1.000000 0.000000
vt 0.500000 0.500000
vt 0.000000 1.000000
vt 1.000000 1.000000
vt 0.500000 0.500000
vt 0.000000 0.000000
vt 1.000000 0.000000
vt 0.500000 0.500000
vt 0.000000 1.000000
vt 1.000000 1.000000
vt 0.500000 0.500000
vt 0.000000 0.000000
vt 1.000000 0.000000
vt 0.500000 0.500000
vt 0.000000 1.000000
vt 1.000000 1.000000
vt 0.500000 0.500000
vt 0.000000 0.000000
vt 1.000000 0.000000
vt 0.500000 0.500000
vt 0.000000 1.000000
vt 1.000000 1.000000
vt 0.500000 0.500000
vt 0.000000 0.000000
vt 1.000000 0.000000
vt 0.500000 0.500000
vt 0.000000 1.000000
vt 1.000000 1.000000
vt 0.000000 0.000000
vt 1.000000 0.000000
vt 1.000000 1.000000
vt 0.000000 1.000000
vt 0.000000 0.000000
vt 1.000000 0.000000
vt 1.000000 1.000000
vt 0.000000 1.000000
vt 0.000000 0.000000
vt 1.000000 0.000000
vt 1.000000 1.000000
vt 0.000000 1.000000
vt 0.000000 0.000000
vt 1.000000 0.000000
vt 1.000000 1.000000
vt 0.000000 1.000000
vt 0.000000 0.000000
vt 1.000000 0.000000
vt 1.000000 1.000000
vt 0.000000 1.000000
vt 0.000000 0.000000
vt 1.000000 0.000000
vt 1.000000 1.000000
vt 0.000000 1.000000
vt 0.000000 0.000000
vt 1.000000 0.000000
vt 1.000000 1.000000
vt 0.000000 1.000000
vt 0.500000 0.500000
vt 0.000000 0.000000
vt 1.000000 0.000000
vt 0.500000 0.500000
vt 0.000000 1.000000
vt 1.000000 1.000000
vt 0.500000 0.500000
vt 0.000000 0.000000
vt 1.000000 0.000000
vt 0.500000 0.500000
vt 0.000000 1.000000
vt 1.000000 1.000000
vt 0.500000 0.500000
vt 0.000000 0.000000
vt 1.000000 0.000000
vt 0.500000 0.500000
vt 0.000000 1.000000
vt 1.000000 1.000000
vt 0.500000 0.500000
vt 0.000000 0.000000
vt 1.000000 0.000000
vt 0.500000 0.500000
vt 0.000000 1.000000
vt 1.000000 1.000000
vt 0.500000 0.500000
vt 0.000000 0.000000
vt 1.000000 0.000000
vt 0.500000 0.500000
vt 0.000000 1.000000
vt 1.000000 1.000000
vt 0.500000 0.500000
vt 0.000000 0.000000
vt 1.000000 0.000000
vt 0.500000 0.500000
vt 0.000000 1.000000
vt 1.000000 1.000000
vt 0.500000 0.500000
vt 0.000000 0.000000
vt 1.000000 0.000000
vt 0.500000 0.500000
vt 0.000000 1.000000
vt 1.000000 1.000000
vt 0.000000 0.000000
vt 1.000000 0.000000
vt 1.000000 1.000000
vt 0.000000 1.000000
vt 0.000000 0.000000
vt 1.000000 0.000000
vt 1.000000 1.000000
vt 0.000000 1.000000
vt 0.000000 0.000000
vt 1.000000 0.000000
vt 1.000000 1.000000
vt 0.000000 1.000000
vt 0.000000 0.000000
vt 1.000000 0.000000
vt 1.000000 1.000000
vt 0.000000 1.000000
vt 0.000000 0.000000
vt 1.000000 0.000000
vt 1.000000 1.000000
vt 0.000000 1.000000
vt 0.000000 0.000000
vt 1.000000 0.000000
vt 1.000000 1.000000
vt 0.000000 1.000000
vt 0.000000 0.000000
vt 1.000000 0.000000
vt 1.000000 1.000000
vt 0.000000 1.000000
vt 0.500000 0.500000
vt 0.000000 0.000000
vt 1.000000 0.000000
vt 0.500000 0.500000
vt 0.000000 1.000000
vt 1.000000 1.000000
vt 0.500000 0.500000
vt 0.000000 0.000000
vt 1.000000 0.000000
vt 0.500000 0.500000
vt 0.000000 1.000000
vt 1.000000 1.000000
vt 0.500000 0.500000
vt 0.000000 0.000000
vt 1.000000 0.000000
vt 0.500000 0.500000
vt 0.000000 1.000000
vt 1.000000 1.000000
vt 0.500000 0.500000
vt 0.000000 0.000000
vt 1.000000 0.000000
vt 0.500000 0.500000
vt 0.000000 1.000000
vt 1.000000 1.000000
vt 0.500000 0.500000
vt 0.000000 0.000000
vt 1.000000 0.000000
vt 0.500000 0.500000
vt 0.000000 1.000000
vt 1.000000 1.000000
vt 0.500000 0.500000
vt 0.000000 0.000000
vt 1.000000 0.000000
vt 0.500000 0.500000
vt 0.000000 1.000000
vt 1.000000 1.000000
vt 0.500000 0.500000
vt 0.000000 0.000000
vt 1.000000 0.000000
vt 0.500000 0.500000
vt 0.000000 1.000000
vt 1.000000 1.000000
vt 0.000000 0.000000
vt 1.000000 0.000000
vt 1.000000 1.000000
vt 0.000000 1.000000
vt 0.000000 0.000000
vt 1.000000 0.000000
vt 1.000000 1.000000
vt 0.000000 1.000000
vt 0.000000 0.000000
vt 1.000000 0.000000
vt 1.000000 1.000000
vt 0.000000 1.000000
vt 0.000000 0.000000
vt 1.000000 0.000000
vt 1.000000 1.000000
vt 0.000000 1.000000
vt 0.000000 0.000000
vt 1.000000 0.000000
vt 1.000000 1.000000
vt 0.000000 1.000000
vt 0.000000 0.000000
vt 1.000000 0.000000
vt 1.000000 1.000000
vt 0.000000 1.000000
vt 0.000000 0.000000
vt 1.000000 0.000000
vt 1.000000 1.000000
vt 0.000000 1.000000
vt 0.500000 0.500000
vt 0.000000 0.000000
vt 1.000000 0.000000
vt 0.500000 0.500000
vt 0.000000 1.000000
vt 1.000000 1.000000
vt 0.500000 0.500000
vt 0.000000 0.000000
vt 1.000000 0.000000
vt 0.500000 0.500000
vt 0.000000 1.000000
vt 1.000000 1.000000
vt 0.500000 0.500000
vt 0.000000 0.000000
vt 1.000000 0.000000
vt 0.500000 0.500000
vt 0.000000 1.000000
vt 1.000000 1.000000
vt 0.500000 0.500000
vt 0.000000 0.000000
vt 1.000000 0.000000
vt 0.500000 0.500000
vt 0.000000 1.000000
vt 1.000000 1.000000
vt 0.500000 0.500000
vt 0.000000 0.000000
vt 1.000000 0.000000
vt 0.500000 0.500000
vt 0.000000 1.000000
vt 1.000000 1.000000
vt 0.500000 0.500000
vt 0.000000 0.000000
vt 1.000000 0.000000
vt 0.500000 0.500000
vt 0.000000 1.000000
vt 1.000000 1.000000
vt 0.500000 0.500000
vt 0.000000 0.000000
vt 1.000000 0.000000
vt 0.500000 0.500000
vt 0.000000 1.000000
vt 1.000000 1.000000
vt 0.000000 0.000000
vt 1.000000 0.000000
vt 1.000000 1.000000
vt 0.000000 1.000000
vt 0.000000 0.000000
vt 1.000000 0.000000
vt 1.000000 1.000000
vt 0.000000 1.000000
vt 0.000000 0.000000
vt 1.000000 0.000000
vt 1.000000 1.000000
vt 0.000000 1.000000
vt 0.000000 0.000000
vt 1.000000 0.000000
vt 1.000000 1.000000
vt 0.000000 1.000000
vt 0.000000 0.000000
vt 1.000000 0.000000
vt 1.000000 1.000000
vt 0.000000 1.000000
vt 0.000000 0.000000
vt 1.000000 0.000000
vt 1.000000 1.000000
vt 0.000000 1.000000
vt 0.000000 0.000000
vt 1.000000 0.000000
vt 1.000000 1.000000
vt 0.000000 1.000000
vt 0.500000 0.500000
vt 0.000000 0.000000
vt 1.000000 0.000000
vt 0.500000 0.500000
vt 0.000000 1.000000
vt 1.000000 1.000000
vt 0.500000 0.500000
vt 0.000000 0.000000
vt 1.000000 0.000000
vt 0.500000 0.500000
vt 0.000000 1.000000
vt 1.000000 1.000000
vt 0.500000 0.500000
vt 0.000000 0.000000
vt 1.000000 0.000000
vt 0.500000 0.500000
vt 0.000000 1.000000
vt 1.000000 1.000000
vt 0.500000 0.500000
vt 0.000000 0.000000
vt 1.000000 0.000000
vt 0.500000 0.500000
vt 0.000000 1.000000
vt 1.000000 1.000000
vt 0.500000 0.500000
vt 0.000000 0.000000
vt 1.000000 0.000000
vt 0.500000 0.500000
vt 0.000000 1.000000
vt 1.000000 1.000000
vt 0.500000 0.500000
vt 0.000000 0.000000
vt 1.000000 0.000000
vt 0.500000 0.500000
vt 0.000000 1.000000
vt 1.000000 1.000000
vt 0.500000 0.500000
vt 0.000000 0.000000
vt 1.000000 0.000000
vt 0.500000 0.500000
vt 0.000000 1.000000
vt 1.000000 1.000000
vt 0.000000 0.000000
vt 1.000000 0.000000
vt 1.000000 1.000000
vt 0.000000 1.000000
vt 0.000000 0.000000
vt 1.000000 0.000000
vt 1.000000 1.000000
vt 0.000000 1.000000
vt 0.000000 0.000000
vt 1.000000 0.000000
vt 1.000000 1.000000
vt 0.000000 1.000000
vt 0.000000 0.000000
vt 1.000000 0.000000
vt 1.000000 1.000000
vt 0.000000 1.000000
vt 0.000000 0.000000
vt 1.000000 0.000000
vt 1.000000 1.000000
vt 0.000000 1.000000
vt 0.000000 0.000000
vt 1.000000 0.000000
vt 1.000000 1.000000
vt 0.000000 1.000000
vt 0.000000 0.000000
vt 1.000000 0.000000
vt 1.000000 1.000000
vt 0.000000 1.000000
vt 0.000000 0.000000
vt 1.000000 0.000000
vt 1.000000 1.000000
vt 0.000000 1.000000
vt 0.000000 0.000000
vt 1.000000 0.000000
vt 1.000000 1.000000
vt 0.000000 1.000000
vt 0.000000 0.000000
vt 1.000000 0.000000
vt 1.000000 1.000000
vt 0.000000 1.000000
vt 0.000000 0.000000
vt 1.000000 0.000000
vt 1.000000 1.000000
vt 0.000000 1.000000
vt 0.000000 0.000000
vt 1.000000 0.000000
vt 1.000000 1.000000
vt 0.000000 1.000000
vt 0.000000 0.000000
vt 1.000000 0.000000
vt 1.000000 1.000000
vt 0.000000 1.000000
vt 0.000000 0.000000
vt 1.000000 0.000000
vt 1.000000 1.000000
vt 0.000000 1.000000
vt 0.000000 0.000000
vt 1.000000 0.000000
vt 1.000000 1.000000
vt 0.000000 1.000000
vt 0.000000 0.000000
vt 1.000000 0.000000
vt 1.000000 1.000000
vt 0.000000 1.000000
vt 0.000000 0.000000
vt 1.000000 0.000000
vt 1.000000 1.000000
vt 0.000000 1.000000
vt 0.000000 0.000000
vt 1.000000 0.000000
vt 1.000000 1.000000
vt 0.000000 1.000000
vt 0.000000 0.000000
vt 1.000000 0.000000
vt 1.000000 1.000000
vt 0.000000 1.000000
vt 0.000000 0.000000
vt 1.000000 0.000000
vt 1.000000 1.000000
vt 0.000000 1.000000
vt 0.000000 0.000000
vt 1.000000 0.000000
vt 1.000000 1.000000
vt 0.000000 1.000000
vt 0.000000 0.000000
vt 1.000000 0.000000
vt 1.000000 1.000000
vt 0.000000 1.000000
vt 0.000000 0.000000
vt 1.000000 0.000000
vt 1.000000 1.000000
vt 0.000000 1.000000
vt 0.000000 0.000000
vt 1.000000 0.000000
vt 1.000000 1.000000
vt 0.000000 1.000000
vt 0.000000 0.000000
vt 1.000000 0.000000
vt 1.000000 1.000000
vt 0.000000 1.000000
vt 0.000000 0.000000
vt 1.000000 0.000000
vt 1.000000 1.000000
vt 0.000000 1.000000
vt 0.000000 0.000000
vt 1.000000 0.000000
vt 1.000000 1.000000
vt 0.000000 1.000000
vt 0.000000 0.000000
vt 1.000000 0.000000
vt 1.000000 1.000000
vt 0.000000 1.000000
vt 0.000000 0.000000
vt 1.000000 0.000000
vt 1.000000 1.000000
vt 0.000000 1.000000
vt 0.000000 0.000000
vt 1.000000 0.000000
vt 1.000000 1.000000
vt 0.000000 1.000000
vt 0.000000 0.000000
vt 1.000000 0.000000
vt 1.000000 1.000000
vt 0.000000 1.000000
vt 0.000000 0.000000
vt 1.000000 0.000000
vt 1.000000 1.000000
vt 0.000000 1.000000
vt 0.000000 0.000000
vt 1.000000 0.000000
vt 1.000000 1.000000
vt 0.000000 1.000000
vt 0.000000 0.000000
vt 1.000000 0.000000
vt 1.000000 1.000000
vt 0.000000 1.000000
vt 0.000000 0.000000
vt 1.000000 0.000000
vt 1.000000 1.000000
vt 0.000000 1.000000
vt 0.000000 0.000000
vt 1.000000 0.000000
vt 1.000000 1.000000
vt 0.000000 1.000000
vt 0.000000 0.000000
vt 1.000000 0.000000
vt 1.000000 1.000000
vt 0.000000 1.000000
vt 0.000000 0.000000
vt 1.000000 0.000000
vt 1.000000 1.000000
vt 0.000000 1.000000
vt 0.000000 0.000000
vt 1.000000 0.000000
vt 1.000000 1.000000
vt 0.000000 1.000000
vt 0.000000 0.000000
vt 1.000000 0.000000
vt 1.000000 1.000000
vt 0.000000 1.000000
vt 0.000000 0.000000
vt 1.000000 0.000000
vt 1.000000 1.000000
vt 0.000000 1.000000
vt 0.000000 0.000000
vt 1.000000 0.000000
vt 1.000000 1.000000
vt 0.000000 1.000000
vt 0.000000 0.000000
vt 1.000000 0.000000
vt 1.000000 1.000000
vt 0.000000 1.000000
vt 0.000000 0.000000
vt 1.000000 0.000000
vt 1.000000 1.000000
vt 0.000000 1.000000
vt 0.000000 0.000000
vt 1.000000 0.000000
vt 1.000000 1.000000
vt 0.000000 1.000000
vt 0.000000 0.000000
vt 1.000000 0.000000
vt 1.000000 1.000000
vt 0.000000 1.000000
vt 0.000000 0.000000
vt 1.000000 0.000000
vt 1.000000 1.000000
vt 0.000000 1.000000
vt 0.000000 0.000000
vt 1.000000 0.000000
vt 1.000000 1.000000
vt 0.000000 1.000000
vt 0.000000 0.000000
vt 1.000000 0.000000
vt 1.000000 1.000000
vt 0.000000 1.000000
vt 0.000000 0.000000
vt 1.000000 0.000000
vt 1.000000 1.000000
vt 0.000000 1.000000
vt 0.000000 0.000000
vt 1.000000 0.000000
vt 1.000000 1.000000
vt 0.000000 1.000000
vt 0.000000 0.000000
vt 1.000000 0.000000
vt 1.000000 1.000000
vt 0.000000 1.000000
vt 0.000000 0.000000
vt 1.000000 0.000000
vt 1.000000 1.000000
vt 0.000000 1.000000
vt 0.000000 0.000000
vt 1.000000 0.000000
vt 1.000000 1.000000
vt 0.000000 1.000000
vt 0.000000 0.000000
vt 1.000000 0.000000
vt 1.000000 1.000000
vt 0.000000 1.000000
vt 0.000000 0.000000
vt 1.000000 0.000000
vt 1.000000 1.000000
vt 0.000000 1.000000
vt 0.000000 0.000000
vt 1.000000 0.000000
vt 1.000000 1.000000
vt 0.000000 1.000000
vt 0.000000 0.000000
vt 1.000000 0.000000
vt 1.000000 1.000000
vt 0.000000 1.000000
vt 0.000000 0.000000
vt 1.000000 0.000000
vt 1.000000 1.000000
vt 0.000000 1.000000
vt 0.000000 0.000000
vt 1.000000 0.000000
vt 1.000000 1.000000
vt 0.000000 1.000000
vt 0.000000 0.000000
vt 1.000000 0.000000
vt 1.000000 1.000000
vt 0.000000 1.000000
vt 0.000000 0.000000
vt 1.000000 0.000000
vt 1.000000 1.000000
vt 0.000000 1.000000
vt 0.000000 0.000000
vt 1.000000 0.000000
vt 1.000000 1.000000
vt 0.000000 1.000000
vt 0.000000 0.000000
vt 1.000000 0.000000
vt 1.000000 1.000000
vt 0.000000 1.000000
vt 0.000000 0.000000
vt 1.000000 0.000000
vt 1.000000 1.000000
vt 0.000000 1.000000
vt 0.000000 0.000000
vt 1.000000 0.000000
vt 1.000000 1.000000
vt 0.000000 1.000000
vt 0.000000 0.000000
vt 1.000000 0.000000
vt 1.000000 1.000000
vt 0.000000 1.000000
vt 0.000000 0.000000
vt 1.000000 0.000000
vt 1.000000 1.000000
vt 0.000000 1.000000
vt 0.000000 0.000000
vt 1.000000 0.000000
vt 1.000000 1.000000
vt 0.000000 1.000000
vt 0.000000 0.000000
vt 1.000000 0.000000
vt 1.000000 1.000000
vt 0.000000 1.000000
vt 0.000000 0.000000
vt 1.000000 0.000000
vt 1.000000 1.000000
vt 0.000000 1.000000
vt 0.000000 0.000000
vt 1.000000 0.000000
vt 1.000000 1.000000
vt 0.000000 1.000000
vt 0.000000 0.000000
vt 1.000000 0.000000
vt 1.000000 1.000000
vt 0.000000 1.000000
vt 0.000000 0.000000
vt 1.000000 0.000000
vt 1.000000 1.000000
vt 0.000000 1.000000
vt 0.000000 0.000000
vt 1.000000 0.000000
vt 1.000000 1.000000
vt 0.000000 1.000000
vt 0.000000 0.000000
vt 1.000000 0.000000
vt 1.000000 1.000000
vt 0.000000 1.000000
vt 0.000000 0.000000
vt 1.000000 0.000000
vt 1.000000 1.000000
vt 0.000000 1.000000
vt 0.000000 0.000000
vt 1.000000 0.000000
vt 1.000000 1.000000
vt 0.000000 1.000000
vt 0.000000 0.000000
vt 1.000000 0.000000
vt 1.000000 1.000000
vt 0.000000 1.000000
vt 0.000000 0.000000
vt 1.000000 0.000000
vt 1.000000 1.000000
vt 0.000000 1.000000
vt 0.000000 0.000000
vt 1.000000 0.000000
vt 1.000000 1.000000
vt 0.000000 1.000000
vt 0.000000 0.000000
vt 1.000000 0.000000
vt 1.000000 1.000000
vt 0.000000 1.000000
vt 0.000000 0.000000
vt 1.000000 0.000000
vt 1.000000 1.000000
vt 0.000000 1.000000
vt 0.000000 0.000000
vt 1.000000 0.000000
vt 1.000000 1.000000
vt 0.000000 1.000000
vt 0.000000 0.000000
vt 1.000000 0.000000
vt 1.000000 1.000000
vt 0.000000 1.000000
vt 0.000000 0.000000
vt 1.000000 0.000000
vt 1.000000 1.000000
vt 0.000000 1.000000
vt 0.000000 0.000000
vt 1.000000 0.000000
vt 1.000000 1.000000
vt 0.000000 1.000000
vt 0.000000 0.000000
vt 1.000000 0.000000
vt 1.000000 1.000000
vt 0.000000 1.000000
vt 0.000000 0.000000
vt 1.000000 0.000000
vt 1.000000 1.000000
vt 0.000000 1.000000
vt 0.000000 0.000000
vt 1.000000 0.000000
vt 1.000000 1.000000
vt 0.000000 1.000000
vt 0.000000 0.000000
vt 1.000000 0.000000
vt 1.000000 1.000000
vt 0.000000 1.000000
vt 0.000000 0.000000
vt 1.000000 0.000000
vt 1.000000 1.000000
vt 0.000000 1.000000
vt 0.000000 0.000000
vt 1.000000 0.000000
vt 1.000000 1.000000
vt 0.000000 1.000000
vt 0.000000 0.000000
vt 1.000000 0.000000
vt 1.000000 1.000000
vt 0.000000 1.000000
vt 0.000000 0.000000
vt 1.000000 0.000000
vt 1.000000 1.000000
vt 0.000000 1.000000
vt 0.000000 0.000000
vt 1.000000 0.000000
vt 1.000000 1.000000
vt 0.000000 1.000000
vt 0.000000 0.000000
vt 1.000000 0.000000
vt 1.000000 1.000000
vt 0.000000 1.000000
vt 0.000000 0.000000
vt 1.000000 0.000000
vt 1.000000 1.000000
vt 0.000000 1.000000
vt 0.000000 0.000000
vt 1.000000 0.000000
vt 1.000000 1.000000
vt 0.000000 1.000000
vt 0.000000 0.000000
vt 1.000000 0.000000
vt 1.000000 1.000000
vt 0.000000 1.000000
vt 0.000000 0.000000
vt 1.000000 0.000000
vt 1.000000 1.000000
vt 0.000000 1.000000
vt 0.000000 0.000000
vt 1.000000 0.000000
vt 1.000000 1.000000
vt 0.000000 1.000000
vt 0.000000 0.000000
vt 1.000000 0.000000
vt 1.000000 1.000000
vt 0.000000 1.000000
vt 0.500000 0.500000
vt 0.000000 0.000000
vt 1.000000 0.000000
vt 0.500000 0.500000
vt 0.000000 1.000000
vt 1.000000 1.000000
vt 0.500000 0.500000
vt 0.000000 0.000000
vt 1.000000 0.000000
vt 0.500000 0.500000
vt 0.000000 1.000000
vt 1.000000 1.000000
vt 0.500000 0.500000
vt 0.000000 0.000000
vt 1.000000 0.000000
vt 0.500000 0.500000
vt 0.000000 1.000000
vt 1.000000 1.000000
vt 0.500000 0.500000
vt 0.000000 0.000000
vt 1.000000 0.000000
vt 0.500000 0.500000
vt 0.000000 1.000000
vt 1.000000 1.000000
vt 0.500000 0.500000
vt 0.000000 0.000000
vt 1.000000 0.000000
vt 0.500000 0.500000
vt 0.000000 1.000000
vt 1.000000 1.000000
vt 0.500000 0.500000
vt 0.000000 0.000000
vt 1.000000 0.000000
vt 0.500000 0.500000
vt 0.000000 1.000000
vt 1.000000 1.000000
vt 0.500000 0.500000
vt 0.000000 0.000000
vt 1.000000 0.000000
vt 0.500000 0.500000
vt 0.000000 1.000000
vt 1.000000 1.000000
vt 0.000000 0.000000
vt 1.000000 0.000000
vt 1.000000 1.000000
vt 0.000000 1.000000
vt 0.000000 0.000000
vt 1.000000 0.000000
vt 1.000000 1.000000
vt 0.000000 1.000000
vt 0.000000 0.000000
vt 1.000000 0.000000
vt 1.000000 1.000000
vt 0.000000 1.000000
vt 0.000000 0.000000
vt 1.000000 0.000000
vt 1.000000 1.000000
vt 0.000000 1.000000
vt 0.000000 0.000000
vt 1.000000 0.000000
vt 1.000000 1.000000
vt 0.000000 1.000000
vt 0.000000 0.000000
vt 1.000000 0.000000
vt 1.000000 1.000000
vt 0.000000 1.000000
vt 0.000000 0.000000
vt 1.000000 0.000000
vt 1.000000 1.000000
vt 0.000000 1.000000
vt 0.500000 0.500000
vt 0.000000 0.000000
vt 1.000000 0.000000
vt 0.500000 0.500000
vt 0.000000 1.000000
vt 1.000000 1.000000
vt 0.500000 0.500000
vt 0.000000 0.000000
vt 1.000000 0.000000
vt 0.500000 0.500000
vt 0.000000 1.000000
vt 1.000000 1.000000
vt 0.500000 0.500000
vt 0.000000 0.000000
vt 1.000000 0.000000
vt 0.500000 0.500000
vt 0.000000 1.000000
vt 1.000000 1.000000
vt 0.500000 0.500000
vt 0.000000 0.000000
vt 1.000000 0.000000
vt 0.500000 0.500000
vt 0.000000 1.000000
vt 1.000000 1.000000
vt 0.500000 0.500000
vt 0.000000 0.000000
vt 1.000000 0.000000
vt 0.500000 0.500000
vt 0.000000 1.000000
vt 1.000000 1.000000
vt 0.500000 0.500000
vt 0.000000 0.000000
vt 1.000000 0.000000
vt 0.500000 0.500000
vt 0.000000 1.000000
vt 1.000000 1.000000
vt 0.500000 0.500000
vt 0.000000 0.000000
vt 1.000000 0.000000
vt 0.500000 0.500000
vt 0.000000 1.000000
vt 1.000000 1.000000
vt 0.000000 0.000000
vt 1.000000 0.000000
vt 1.000000 1.000000
vt 0.000000 1.000000
vt 0.000000 0.000000
vt 1.000000 0.000000
vt 1.000000 1.000000
vt 0.000000 1.000000
vt 0.000000 0.000000
vt 1.000000 0.000000
vt 1.000000 1.000000
vt 0.000000 1.000000
vt 0.000000 0.000000
vt 1.000000 0.000000
vt 1.000000 1.000000
vt 0.000000 1.000000
vt 0.000000 0.000000
vt 1.000000 0.000000
vt 1.000000 1.000000
vt 0.000000 1.000000
vt 0.000000 0.000000
vt 1.000000 0.000000
vt 1.000000 1.000000
vt 0.000000 1.000000
vt 0.500000 0.500000
vt 0.000000 0.000000
vt 1.000000 0.000000
vt 0.500000 0.500000
vt 0.000000 1.000000
vt 1.000000 1.000000
vt 0.500000 0.500000
vt 0.000000 0.000000
vt 1.000000 0.000000
vt 0.500000 0.500000
vt 0.000000 1.000000
vt 1.000000 1.000000
vt 0.500000 0.500000
vt 0.000000 0.000000
vt 1.000000 0.000000
vt 0.500000 0.500000
vt 0.000000 1.000000
vt 1.000000 1.000000
vt 0.500000 0.500000
vt 0.000000 0.000000
vt 1.000000 0.000000
vt 0.500000 0.500000
vt 0.000000 1.000000
vt 1.000000 1.000000
vt 0.500000 0.500000
vt 0.000000 0.000000
vt 1.000000 0.000000
vt 0.500000 0.500000
vt 0.000000 1.000000
vt 1.000000 1.000000
vt 0.500000 0.500000
vt 0.000000 0.000000
vt 1.000000 0.000000
vt 0.500000 0.500000
vt 0.000000 1.000000
vt 1.000000 1.000000
vt 0.000000 0.000000
vt 1.000000 0.000000
vt 1.000000 1.000000
vt 0.000000 1.000000
vt 0.000000 0.000000
vt 1.000000 0.000000
vt 1.000000 1.000000
vt 0.000000 1.000000
vt 0.000000 0.000000
vt 1.000000 0.000000
vt 1.000000 1.000000
vt 0.000000 1.000000
vt 0.000000 0.000000
vt 1.000000 0.000000
vt 1.000000 1.000000
vt 0.000000 1.000000
vt 0.000000 0.000000
vt 1.000000 0.000000
vt 1.000000 1.000000
vt 0.000000 1.000000
vt 0.000000 0.000000
vt 1.000000 0.000000
vt 1.000000 1.000000
vt 0.000000 1.000000
vt 0.500000 0.500000
vt 0.000000 0.000000
vt 1.000000 0.000000
vt 0.500000 0.500000
vt 0.000000 1.000000
vt 1.000000 1.000000
vt 0.500000 0.500000
vt 0.000000 0.000000
vt 1.000000 0.000000
vt 0.500000 0.500000
vt 0.000000 1.000000
vt 1.000000 1.000000
vt 0.500000 0.500000
vt 0.000000 0.000000
vt 1.000000 0.000000
vt 0.500000 0.500000
vt 0.000000 1.000000
vt 1.000000 1.000000
vt 0.500000 0.500000
vt 0.000000 0.000000
vt 1.000000 0.000000
vt 0.500000 0.500000
vt 0.000000 1.000000
vt 1.000000 1.000000
vt 0.500000 0.500000
vt 0.000000 0.000000
vt 1.000000 0.000000
vt 0.500000 0.500000
vt 0.000000 1.000000
vt 1.000000 1.000000
vt 0.500000 0.500000
vt 0.000000 0.000000
vt 1.000000 0.000000
vt 0.500000 0.500000
vt 0.000000 1.000000
vt 1.000000 1.000000
vt 0.000000 0.000000
vt 1.000000 0.000000
vt 1.000000 1.000000
vt 0.000000 1.000000
vt 0.000000 0.000000
vt 1.000000 0.000000
vt 1.000000 1.000000
vt 0.000000 1.000000
vt 0.000000 0.000000
vt 1.000000 0.000000
vt 1.000000 1.000000
vt 0.000000 1.000000
vt 0.000000 0.000000
vt 1.000000 0.000000
vt 1.000000 1.000000
vt 0.000000 1.000000
vt 0.000000 0.000000
vt 1.000000 0.000000
vt 1.000000 1.000000
vt 0.000000 1.000000
vt 0.000000 0.000000
vt 1.000000 0.000000
vt 1.000000 1.000000
vt 0.000000 1.000000
vt 0.500000 0.500000
vt 0.000000 0.000000
vt 1.000000 0.000000
vt 0.500000 0.500000
vt 0.000000 1.000000
vt 1.000000 1.000000
vt 0.500000 0.500000
vt 0.000000 0.000000
vt 1.000000 0.000000
vt 0.500000 0.500000
vt 0.000000 1.000000
vt 1.000000 1.000000
vt 0.500000 0.500000
vt 0.000000 0.000000
vt 1.000000 0.000000
vt 0.500000 0.500000
vt 0.000000 1.000000
vt 1.000000 1.000000
vt 0.500000 0.500000
vt 0.000000 0.000000
vt 1.000000 0.000000
vt 0.500000 0.500000
vt 0.000000 1.000000
vt 1.000000 1.000000
vt 0.500000 0.500000
vt 0.000000 0.000000
vt 1.000000 0.000000
vt 0.500000 0.500000
vt 0.000000 1.000000
vt 1.000000 1.000000
vt 0.500000 0.500000
vt 0.000000 0.000000
vt 1.000000 0.000000
vt 0.500000 0.500000
vt 0.000000 1.000000
vt 1.000000 1.000000
vt 0.000000 0.000000
vt 1.000000 0.000000
vt 1.000000 1.000000
vt 0.000000 1.000000
vt 0.000000 0.000000
vt 1.000000 0.000000
vt 1.000000 1.000000
vt 0.000000 1.000000
vt 0.000000 0.000000
vt 1.000000 0.000000
vt 1.000000 1.000000
vt 0.000000 1.000000
vt 0.000000 0.000000
vt 1.000000 0.000000
vt 1.000000 1.000000
vt 0.000000 1.000000
vt 0.000000 0.000000
vt 1.000000 0.000000
vt 1.000000 1.000000
vt 0.000000 1.000000
vt 0.000000 0.000000
vt 1.000000 0.000000
vt 1.000000 1.000000
vt 0.000000 1.000000
vt 0.500000 0.500000
vt 0.000000 0.000000
vt 1.000000 0.000000
vt 0.500000 0.500000
vt 0.000000 1.000000
vt 1.000000 1.000000
vt 0.500000 0.500000
vt 0.000000 0.000000
vt 1.000000 0.000000
vt 0.500000 0.500000
vt 0.000000 1.000000
vt 1.000000 1.000000
vt 0.500000 0.500000
vt 0.000000 0.000000
vt 1.000000 0.000000
vt 0.500000 0.500000
vt 0.000000 1.000000
vt 1.000000 1.000000
vt 0.500000 0.500000
vt 0.000000 0.000000
vt 1.000000 0.000000
vt 0.500000 0.500000
vt 0.000000 1.000000
vt 1.000000 1.000000
vt 0.500000 0.500000
vt 0.000000 0.000000
vt 1.000000 0.000000
vt 0.500000 0.500000
vt 0.000000 1.000000
vt 1.000000 1.000000
vt 0.500000 0.500000
vt 0.000000 0.000000
vt 1.000000 0.000000
vt 0.500000 0.500000
vt 0.000000 1.000000
vt 1.000000 1.000000
usemtl Wood
f 1/1 2/2 3/3
f 1/1 3/3 4/4
f 5/5 6/6 7/7
f 5/5 7/7 8/8
f 9/9 10/10 11/11
f 9/9 11/11 12/12
f 13/13 14/14 15/15
f 13/13 15/15 16/16
f 17/17 18/18 19/19
f 17/17 19/19 20/20
f 21/21 22/22 23/23
f 21/21 23/23 24/24
f 25/25 26/26 27/27
f 25/25 27/27 28/28
f 29/29 30/30 31/31
f 32/32 33/33 34/34
f 35/35 36/36 37/37
f 38/38 39/39 40/40
f 41/41 42/42 43/43
f 44/44 45/45 46/46
f 47/47 48/48 49/49
f 50/50 51/51 52/52
f 53/53 54/54 55/55
f 56/56 57/57 58/58
f 59/59 60/60 61/61
f 62/62 63/63 64/64
f 65/65 66/66 67/67
f 68/68 69/69 70/70
f 71/71 72/72 73/73
f 71/71 73/73 74/74
f 75/75 76/76 77/77
f 75/75 77/77 78/78
f 79/79 80/80 81/81
f 79/79 81/81 82/82
f 83/83 84/84 85/85
f 83/83 85/85 86/86
f 87/87 88/88 89/89
f 87/87 89/89 90/90
f 91/91 92/92 93/93
f 91/91 93/93 94/94
f 95/95 96/96 97/97
f 95/95 97/97 98/98
f 99/99 100/100 101/101
f 102/102 103/103 104/104
f 105/105 106/106 107/107
f 108/108 109/109 110/110
f 111/111 112/112 113/113
f 114/114 115/115 116/116
f 117/117 118/118 119/119
f 120/120 121/121 122/122
f 123/123 124/124 125/125
f 126/126 127/127 128/128
f 129/129 130/130 131/131
f 132/132 133/133 134/134
f 135/135 136/136 137/137
f 138/138 139/139 140/140
usemtl Rope
f 141/141 142/142 143/143
f 141/141 143/143 144/144
f 145/145 146/146 147/147
f 145/145 147/147 148/148
f 149/149 150/150 151/151
f 149/149 151/151 152/152
f 153/153 154/154 155/155
f 153/153 155/155 156/156
f 157/157 158/158 159/159
f 157/157 159/159 160/160
f 161/161 162/162 163/163
f 161/161 163/163 164/164
f 165/165 166/166 167/167
f 165/165 167/167 168/168
f 169/169 170/170 171/171
f 172/172 173/173 174/174
f 175/175 176/176 177/177
f 178/178 179/179 180/180
f 181/181 182/182 183/183
f 184/184 185/185 186/186
f 187/187 188/188 189/189
f 190/190 191/191 192/192
f 193/193 194/194 195/195
f 196/196 197/197 198/198
f 199/199 200/200 201/201
f 202/202 203/203 204/204
f 205/205 206/206 207/207
f 208/208 209/209 210/210
f 211/211 212/212 213/213
f 211/211 213/213 214/214
f 215/215 216/216 217/217
f 215/215 217/217 218/218
f 219/219 220/220 221/221
f 219/219 221/221 222/222
f 223/223 224/224 225/225
f 223/223 225/225 226/226
f 227/227 228/228 229/229
f 227/227 229/229 230/230
f 231/231 232/232 233/233
f 231/231 233/233 234/234
f 235/235 236/236 237/237
f 235/235 237/237 238/238
f 239/239 240/240 241/241
f 242/242 243/243 244/244
f 245/245 246/246 247/247
f 248/248 249/249 250/250
f 251/251 252/252 253/253
f 254/254 255/255 256/256
f 257/257 258/258 259/259
f 260/260 261/261 262/262
f 263/263 264/264 265/265
f 266/266 267/267 268/268
f 269/269 270/270 271/271
f 272/272 273/273 274/274
f 275/275 276/276 277/277
f 278/278 279/279 280/280
f 281/281 282/282 283/283
f 281/281 283/283 284/284
f 285/285 286/286 287/287
f 285/285 287/287 288/288
f 289/289 290/290 291/291
f 289/289 291/291 292/292
f 293/293 294/294 295/295
f 293/293 295/295 296/296
f 297/297 298/298 299/299
f 297/297 299/299 300/300
f 301/301 302/302 303/303
f 301/301 303/303 304/304
f 305/305 306/306 307/307
f 305/305 307/307 308/308
f 309/309 310/310 311/311
f 312/312 313/313 314/314
f 315/315 316/316 317/317
f 318/318 319/319 320/320
f 321/321 322/322 323/323
f 324/324 325/325 326/326
f 327/327 328/328 329/329
f 330/330 331/331 332/332
f 333/333 334/334 335/335
f 336/336 337/337 338/338
f 339/339 340/340 341/341
f 342/342 343/343 344/344
f 345/345 346/346 347/347
f 348/348 349/349 350/350
f 351/351 352/352 353/353
f 351/351 353/353 354/354
f 355/355 356/356 357/357
f 355/355 357/357 358/358
f 359/359 360/360 361/361
f 359/359 361/361 362/362
f 363/363 364/364 365/365
f 363/363 365/365 366/366
f 367/367 368/368 369/369
f 367/367 369/369 370/370
f 371/371 372/372 373/373
f 371/371 373/373 374/374
f 375/375 376/376 377/377
f 375/375 377/377 378/378
f 379/379 380/380 381/381
f 382/382 383/383 384/384
f 385/385 386/386 387/387
f 388/388 389/389 390/390
f 391/391 392/392 393/393
f 394/394 395/395 396/396
f 397/397 398/398 399/399
f 400/400 401/401 402/402
f 403/403 404/404 405/405
f 406/406 407/407 408/408
f 409/409 410/410 411/411
f 412/412 413/413 414/414
f 415/415 416/416 417/417
f 418/418 419/419 420/420
f 421/421 422/422 423/423
f 421/421 423/423 424/424
f 425/425 426/426 427/427
f 425/425 427/427 428/428
f 429/429 430/430 431/431
f 429/429 431/431 432/432
f 433/433 434/434 435/435
f 433/433 435/435 436/436
f 437/437 438/438 439/439
f 437/437 439/439 440/440
f 441/441 442/442 443/443
f 441/441 443/443 444/444
f 445/445 446/446 447/447
f 445/445 447/447 448/448
f 449/449 450/450 451/451
f 449/449 451/451 452/452
f 453/453 454/454 455/455
f 453/453 455/455 456/456
f 457/457 458/458 459/459
f 457/457 459/459 460/460
f 461/461 462/462 463/463
f 461/461 463/463 464/464
f 465/465 466/466 467/467
f 465/465 467/467 468/468
f 469/469 470/470 471/471
f 469/469 471/471 472/472
f 473/473 474/474 475/475
f 473/473 475/475 476/476
f 477/477 478/478 479/479
f 477/477 479/479 480/480
f 481/481 482/482 483/483
f 481/481 483/483 484/484
f 485/485 486/486 487/487
f 485/485 487/487 488/488
f 489/489 490/490 491/491
f 489/489 491/491 492/492
f 493/493 494/494 495/495
f 493/493 495/495 496/496
f 497/497 498/498 499/499
f 497/497 499/499 500/500
f 501/501 502/502 503/503
f 501/501 503/503 504/504
f 505/505 506/506 507/507
f 505/505 507/507 508/508
f 509/509 510/510 511/511
f 509/509 511/511 512/512
f 513/513 514/514 515/515
f 513/513 515/515 516/516
f 517/517 518/518 519/519
f 517/517 519/519 520/520
f 521/521 522/522 523/523
f 521/521 523/523 524/524
f 525/525 526/526 527/527
f 525/525 527/527 528/528
f 529/529 530/530 531/531
f 529/529 531/531 532/532
f 533/533 534/534 535/535
f 533/533 535/535 536/536
f 537/537 538/538 539/539
f 537/537 539/539 540/540
f 541/541 542/542 543/543
f 541/541 543/543 544/544
f 545/545 546/546 547/547
f 545/545 547/547 548/548
f 549/549 550/550 551/551
f 549/549 551/551 552/552
f 553/553 554/554 555/555
f 553/553 555/555 556/556
f 557/557 558/558 559/559
f 557/557 559/559 560/560
f 561/561 562/562 563/563
f 561/561 563/563 564/564
f 565/565 566/566 567/567
f 565/565 567/567 568/568
f 569/569 570/570 571/571
f 569/569 571/571 572/572
f 573/573 574/574 575/575
f 573/573 575/575 576/576
f 577/577 578/578 579/579
f 577/577 579/579 580/580
f 581/581 582/582 583/583
f 581/581 583/583 584/584
f 585/585 586/586 587/587
f 585/585 587/587 588/588
f 589/589 590/590 591/591
f 589/589 591/591 592/592
f 593/593 594/594 595/595
f 593/593 595/595 596/596
f 597/597 598/598 599/599
f 597/597 599/599 600/600
f 601/601 602/602 603/603
f 601/601 603/603 604/604
f 605/605 606/606 607/607
f 605/605 607/607 608/608
f 609/609 610/610 611/611
f 609/609 611/611 612/612
f 613/613 614/614 615/615
f 613/613 615/615 616/616
f 617/617 618/618 619/619
f 617/617 619/619 620/620
f 621/621 622/622 623/623
f 621/621 623/623 624/624
f 625/625 626/626 627/627
f 625/625 627/627 628/628
f 629/629 630/630 631/631
f 629/629 631/631 632/632
f 633/633 634/634 635/635
f 633/633 635/635 636/636
f 637/637 638/638 639/639
f 637/637 639/639 640/640
f 641/641 642/642 643/643
f 641/641 643/643 644/644
f 645/645 646/646 647/647
f 645/645 647/647 648/648
f 649/649 650/650 651/651
f 649/649 651/651 652/652
f 653/653 654/654 655/655
f 653/653 655/655 656/656
f 657/657 658/658 659/659
f 657/657 659/659 660/660
f 661/661 662/662 663/663
f 661/661 663/663 664/664
f 665/665 666/666 667/667
f 665/665 667/667 668/668
f 669/669 670/670 671/671
f 669/669 671/671 672/672
f 673/673 674/674 675/675
f 673/673 675/675 676/676
f 677/677 678/678 679/679
f 677/677 679/679 680/680
f 681/681 682/682 683/683
f 681/681 683/683 684/684
f 685/685 686/686 687/687
f 685/685 687/687 688/688
f 689/689 690/690 691/691
f 689/689 691/691 692/692
f 693/693 694/694 695/695
f 693/693 695/695 696/696
f 697/697 698/698 699/699
f 697/697 699/699 700/700
f 701/701 702/702 703/703
f 701/701 703/703 704/704
f 705/705 706/706 707/707
f 705/705 707/707 708/708
f 709/709 710/710 711/711
f 709/709 711/711 712/712
f 713/713 714/714 715/715
f 713/713 715/715 716/716
f 717/717 718/718 719/719
f 717/717 719/719 720/720
f 721/721 722/722 723/723
f 721/721 723/723 724/724
f 725/725 726/726 727/727
f 725/725 727/727 728/728
f 729/729 730/730 731/731
f 729/729 731/731 732/732
f 733/733 734/734 735/735
f 733/733 735/735 736/736
f 737/737 738/738 739/739
f 737/737 739/739 740/740
f 741/741 742/742 743/743
f 741/741 743/743 744/744
f 745/745 746/746 747/747
f 745/745 747/747 748/748
f 749/749 750/750 751/751
f 749/749 751/751 752/752
f 753/753 754/754 755/755
f 753/753 755/755 756/756
f 757/757 758/758 759/759
f 757/757 759/759 760/760
f 761/761 762/762 763/763
f 761/761 763/763 764/764
f 765/765 766/766 767/767
f 765/765 767/767 768/768
f 769/769 770/770 771/771
f 769/769 771/771 772/772
f 773/773 774/774 775/775
f 773/773 775/775 776/776
f 777/777 778/778 779/779
f 777/777 779/779 780/780
f 781/781 782/782 783/783
f 781/781 783/783 784/784
f 785/785 786/786 787/787
f 785/785 787/787 788/788
f 789/789 790/790 791/791
f 789/789 791/791 792/792
f 793/793 794/794 795/795
f 793/793 795/795 796/796
f 797/797 798/798 799/799
f 797/797 799/799 800/800
f 801/801 802/802 803/803
f 801/801 803/803 804/804
usemtl Wood
f 805/805 806/806 807/807
f 805/805 807/807 808/808
f 809/809 810/810 811/811
f 809/809 811/811 812/812
f 813/813 814/814 815/815
f 813/813 815/815 816/816
f 817/817 818/818 819/819
f 817/817 819/819 820/820
f 821/821 822/822 823/823
f 821/821 823/823 824/824
f 825/825 826/826 827/827
f 825/825 827/827 828/828
f 829/829 830/830 831/831
f 829/829 831/831 832/832
f 833/833 834/834 835/835
f 836/836 837/837 838/838
f 839/839 840/840 841/841
f 842/842 843/843 844/844
f 845/845 846/846 847/847
f 848/848 849/849 850/850
f 851/851 852/852 853/853
f 854/854 855/855 856/856
f 857/857 858/858 859/859
f 860/860 861/861 862/862
f 863/863 864/864 865/865
f 866/866 867/867 868/868
f 869/869 870/870 871/871
f 872/872 873/873 874/874
f 875/875 876/876 877/877
f 875/875 877/877 878/878
f 879/879 880/880 881/881
f 879/879 881/881 882/882
f 883/883 884/884 885/885
f 883/883 885/885 886/886
f 887/887 888/888 889/889
f 887/887 889/889 890/890
f 891/891 892/892 893/893
f 891/891 893/893 894/894
f 895/895 896/896 897/897
f 895/895 897/897 898/898
f 899/899 900/900 901/901
f 899/899 901/901 902/902
f 903/903 904/904 905/905
f 906/906 907/907 908/908
f 909/909 910/910 911/911
f 912/912 913/913 914/914
f 915/915 916/916 917/917
f 918/918 919/919 920/920
f 921/921 922/922 923/923
f 924/924 925/925 926/926
f 927/927 928/928 929/929
f 930/930 931/931 932/932
f 933/933 934/934 935/935
f 936/936 937/937 938/938
f 939/939 940/940 941/941
f 942/942 943/943 944/944
usemtl Rope
f 945/945 946/946 947/947
f 945/945 947/947 948/948
f 949/949 950/950 951/951
f 949/949 951/951 952/952
f 953/953 954/954 955/955
f 953/953 955/955 956/956
f 957/957 958/958 959/959
f 957/957 959/959 960/960
f 961/961 962/962 963/963
f 961/961 963/963 964/964
f 965/965 966/966 967/967
f 965/965 967/967 968/968
f 969/969 970/970 971/971
f 972/972 973/973 974/974
f 975/975 976/976 977/977
f 978/978 979/979 980/980
f 981/981 982/982 983/983
f 984/984 985/985 986/986
f 987/987 988/988 989/989
f 990/990 991/991 992/992
f 993/993 994/994 995/995
f 996/996 997/997 998/998
f 999/999 1000/1000 1001/1001
f 1002/1002 1003/1003 1004/1004
f 1005/1005 1006/1006 1007/1007
f 1005/1005 1007/1007 1008/1008
f 1009/1009 1010/1010 1011/1011
f 1009/1009 1011/1011 1012/1012
f 1013/1013 1014/1014 1015/1015
f 1013/1013 1015/1015 1016/1016
f 1017/1017 1018/1018 1019/1019
f 1017/1017 1019/1019 1020/1020
f 1021/1021 1022/1022 1023/1023
f 1021/1021 1023/1023 1024/1024
f 1025/1025 1026/1026 1027/1027
f 1025/1025 1027/1027 1028/1028
f 1029/1029 1030/1030 1031/1031
f 1032/1032 1033/1033 1034/1034
f 1035/1035 1036/1036 1037/1037
f 1038/1038 1039/1039 1040/1040
f 1041/1041 1042/1042 1043/1043
f 1044/1044 1045/1045 1046/1046
f 1047/1047 1048/1048 1049/1049
f 1050/1050 1051/1051 1052/1052
f 1053/1053 1054/1054 1055/1055
f 1056/1056 1057/1057 1058/1058
f 1059/1059 1060/1060 1061/1061
f 1062/1062 1063/1063 1064/1064
f 1065/1065 1066/1066 1067/1067
f 1065/1065 1067/1067 1068/1068
f 1069/1069 1070/1070 1071/1071
f 1069/1069 1071/1071 1072/1072
f 1073/1073 1074/1074 1075/1075
f 1073/1073 1075/1075 1076/1076
f 1077/1077 1078/1078 1079/1079
f 1077/1077 1079/1079 1080/1080
f 1081/1081 1082/1082 1083/1083
f 1081/1081 1083/1083 1084/1084
f 1085/1085 1086/1086 1087/1087
f 1085/1085 1087/1087 1088/1088
f 1089/1089 1090/1090 1091/1091
f 1092/1092 1093/1093 1094/1094
f 1095/1095 1096/1096 1097/1097
f 1098/1098 1099/1099 1100/1100
f 1101/1101 1102/1102 1103/1103
f 1104/1104 1105/1105 1106/1106
f 1107/1107 1108/1108 1109/1109
f 1110/1110 1111/1111 1112/1112
f 1113/1113 1114/1114 1115/1115
f 1116/1116 1117/1117 1118/1118
f 1119/1119 1120/1120 1121/1121
f 1122/1122 1123/1123 1124/1124
f 1125/1125 1126/1126 1127/1127
f 1125/1125 1127/1127 1128/1128
f 1129/1129 1130/1130 1131/1131
f 1129/1129 1131/1131 1132/1132
f 1133/1133 1134/1134 1135/1135
f 1133/1133 1135/1135 1136/1136
f 1137/1137 1138/1138 1139/1139
f 1137/1137 1139/1139 1140/1140
f 1141/1141 1142/1142 1143/1143
f 1141/1141 1143/1143 1144/1144
f 1145/1145 1146/1146 1147/1147
f 1145/1145 1147/1147 1148/1148
f 1149/1149 1150/1150 1151/1151
f 1152/1152 1153/1153 1154/1154
f 1155/1155 1156/1156 1157/1157
f 1158/1158 1159/1159 1160/1160
f 1161/1161 1162/1162 1163/1163
f 1164/1164 1165/1165 1166/1166
f 1167/1167 1168/1168 1169/1169
f 1170/1170 1171/1171 1172/1172
f 1173/1173 1174/1174 1175/1175
f 1176/1176 1177/1177 1178/1178
f 1179/1179 1180/1180 1181/1181
f 1182/1182 1183/1183 1184/1184
