mtllib ../../Materials/project_oen.mtl
o en-009_broadleaf_bush_set__medium
v 0.394451 0.104844 -0.225570
v 0.189046 0.138882 -0.436850
v -0.077826 0.250241 -0.502936
v 0.127579 0.216203 -0.291656
v 0.127579 0.216203 -0.291656
v -0.077826 0.250241 -0.502936
v 0.189046 0.138882 -0.436850
v 0.394451 0.104844 -0.225570
v -0.070222 0.196584 -0.190027
v -0.210040 0.245265 0.183954
v -0.202127 0.213387 0.584830
v -0.062310 0.164707 0.210850
v -0.062310 0.164707 0.210850
v -0.202127 0.213387 0.584830
v -0.210040 0.245265 0.183954
v -0.070222 0.196584 -0.190027
v -0.007436 0.167278 0.232998
v 0.264877 0.248738 0.381437
v 0.585213 0.234522 0.384113
v 0.312900 0.153062 0.235674
v 0.312900 0.153062 0.235674
v 0.585213 0.234522 0.384113
v 0.264877 0.248738 0.381437
v -0.007436 0.167278 0.232998
v -0.800786 0.111623 0.756227
v -0.470942 0.032770 0.450935
v -0.281567 0.013282 0.036236
v -0.611411 0.092135 0.341528
v -0.611411 0.092135 0.341528
v -0.281567 0.013282 0.036236
v -0.470942 0.032770 0.450935
v -0.800786 0.111623 0.756227
v -0.294077 0.193678 -0.484229
v -0.191473 0.239481 -0.206571
v 0.030742 0.293938 -0.013248
v -0.071862 0.248135 -0.290905
v -0.071862 0.248135 -0.290905
v 0.030742 0.293938 -0.013248
v -0.191473 0.239481 -0.206571
v -0.294077 0.193678 -0.484229
v 0.403563 0.387403 0.374411
v 0.449490 0.358187 0.091757
v 0.337544 0.380057 -0.172527
v 0.291618 0.409273 0.110127
v 0.291618 0.409273 0.110127
v 0.337544 0.380057 -0.172527
v 0.449490 0.358187 0.091757
v 0.403563 0.387403 0.374411
v -0.132636 0.238805 0.408406
v 0.166864 0.171613 0.195847
v 0.275627 0.125442 -0.158322
v -0.023873 0.192634 0.054237
v -0.023873 0.192634 0.054237
v 0.275627 0.125442 -0.158322
v 0.166864 0.171613 0.195847
v -0.132636 0.238805 0.408406
v -0.177910 0.129037 -0.149951
v -0.450029 -0.002424 -0.344523
v -0.801520 -0.054833 -0.398346
v -0.529401 0.076628 -0.203774
v -0.529401 0.076628 -0.203774
v -0.801520 -0.054833 -0.398346
v -0.450029 -0.002424 -0.344523
v -0.177910 0.129037 -0.149951
v 0.266386 0.202121 0.512892
v 0.530085 0.261128 0.363598
v 0.727829 0.246017 0.127004
v 0.464130 0.187010 0.276298
v 0.464130 0.187010 0.276298
v 0.727829 0.246017 0.127004
v 0.530085 0.261128 0.363598
v 0.266386 0.202121 0.512892
vt 0.000000 0.000000
vt 1.000000 0.000000
vt 1.000000 1.000000
vt 0.000000 1.000000
vt 0.000000 0.000000
vt 1.000000 0.000000
vt 1.000000 1.000000
vt 0.000000 1.000000
vt 0.000000 0.000000
vt 1.000000 0.000000
vt 1.000000 1.000000
vt 0.000000 1.000000
vt 0.000000 0.000000
vt 1.000000 0.000000
vt 1.000000 1.000000
vt 0.000000 1.000000
vt 0.000000 0.000000
vt 1.000000 0.000000
vt 1.000000 1.000000
vt 0.000000 1.000000
vt 0.000000 0.000000
vt 1.000000 0.000000
vt 1.000000 1.000000
vt 0.000000 1.000000
vt 0.000000 0.000000
vt 1.000000 0.000000
vt 1.000000 1.000000
vt 0.000000 1.000000
vt 0.000000 0.000000
vt 1.000000 0.000000
vt 1.000000 1.000000
vt 0.000000 1.000000
vt 0.000000 0.000000
vt 1.000000 0.000000
vt 1.000000 1.000000
vt 0.000000 1.000000
vt 0.000000 0.000000
vt 1.000000 0.000000
vt 1.000000 1.000000
vt 0.000000 1.000000
vt 0.000000 0.000000
vt 1.000000 0.000000
vt 1.000000 1.000000
vt 0.000000 1.000000
vt 0.000000 0.000000
vt 1.000000 0.000000
vt 1.000000 1.000000
vt 0.000000 1.000000
vt 0.000000 0.000000
vt 1.000000 0.000000
vt 1.000000 1.000000
vt 0.000000 1.000000
vt 0.000000 0.000000
vt 1.000000 0.000000
vt 1.000000 1.000000
vt 0.000000 1.000000
vt 0.000000 0.000000
vt 1.000000 0.000000
vt 1.000000 1.000000
vt 0.000000 1.000000
vt 0.000000 0.000000
vt 1.000000 0.000000
vt 1.000000 1.000000
vt 0.000000 1.000000
vt 0.000000 0.000000
vt 1.000000 0.000000
vt 1.000000 1.000000
vt 0.000000 1.000000
vt 0.000000 0.000000
vt 1.000000 0.000000
vt 1.000000 1.000000
vt 0.000000 1.000000
usemtl Leaf
f 1/1 2/2 3/3
f 1/1 3/3 4/4
f 5/5 6/6 7/7
f 5/5 7/7 8/8
f 9/9 10/10 11/11
f 9/9 11/11 12/12
f 13/13 14/14 15/15
f 13/13 15/15 16/16
f 17/17 18/18 19/19
f 17/17 19/19 20/20
f 21/21 22/22 23/23
f 21/21 23/23 24/24
f 25/25 26/26 27/27
f 25/25 27/27 28/28
f 29/29 30/30 31/31
f 29/29 31/31 32/32
f 33/33 34/34 35/35
f 33/33 35/35 36/36
f 37/37 38/38 39/39
f 37/37 39/39 40/40
f 41/41 42/42 43/43
f 41/41 43/43 44/44
f 45/45 46/46 47/47
f 45/45 47/47 48/48
f 49/49 50/50 51/51
f 49/49 51/51 52/52
f 53/53 54/54 55/55
f 53/53 55/55 56/56
f 57/57 58/58 59/59
f 57/57 59/59 60/60
f 61/61 62/62 63/63
f 61/61 63/63 64/64
f 65/65 66/66 67/67
f 65/65 67/67 68/68
f 69/69 70/70 71/71
f 69/69 71/71 72/72
