mtllib ../../Materials/project_oen.mtl
o en-009_broadleaf_bush_set__small
v -0.382134 0.213937 -0.013926
v -0.413663 0.239165 0.223521
v -0.347367 0.207488 0.452897
v -0.315837 0.182260 0.215450
v -0.315837 0.182260 0.215450
v -0.347367 0.207488 0.452897
v -0.413663 0.239165 0.223521
v -0.382134 0.213937 -0.013926
v -0.476220 0.351990 -0.292296
v -0.288224 0.320542 -0.054185
v -0.056260 0.230177 0.122040
v -0.244256 0.261624 -0.116071
v -0.244256 0.261624 -0.116071
v -0.056260 0.230177 0.122040
v -0.288224 0.320542 -0.054185
v -0.476220 0.351990 -0.292296
v 0.282827 0.062563 0.178156
v 0.203406 0.027450 -0.077680
v 0.017151 0.082115 -0.265598
v 0.096573 0.117228 -0.009763
v 0.096573 0.117228 -0.009763
v 0.017151 0.082115 -0.265598
v 0.203406 0.027450 -0.077680
v 0.282827 0.062563 0.178156
v 0.119082 0.159996 -0.463063
v 0.161762 0.164156 -0.138159
v 0.286972 0.190668 0.163538
v 0.244292 0.186508 -0.161366
v 0.244292 0.186508 -0.161366
v 0.286972 0.190668 0.163538
v 0.161762 0.164156 -0.138159
v 0.119082 0.159996 -0.463063
v 0.077090 0.154040 0.394282
v 0.247558 0.152738 0.156186
v 0.298233 0.101448 -0.127632
v 0.127766 0.102750 0.110465
v 0.127766 0.102750 0.110465
v 0.298233 0.101448 -0.127632
v 0.247558 0.152738 0.156186
v 0.077090 0.154040 0.394282
vt 0.000000 0.000000
vt 1.000000 0.000000
vt 1.000000 1.000000
vt 0.000000 1.000000
vt 0.000000 0.000000
vt 1.000000 0.000000
vt 1.000000 1.000000
vt 0.000000 1.000000
vt 0.000000 0.000000
vt 1.000000 0.000000
vt 1.000000 1.000000
vt 0.000000 1.000000
vt 0.000000 0.000000
vt 1.000000 0.000000
vt 1.000000 1.000000
vt 0.000000 1.000000
vt 0.000000 0.000000
vt 1.000000 0.000000
vt 1.000000 1.000000
vt 0.000000 1.000000
vt 0.000000 0.000000
vt 1.000000 0.000000
vt 1.000000 1.000000
vt 0.000000 1.000000
vt 0.000000 0.000000
vt 1.000000 0.000000
vt 1.000000 1.000000
vt 0.000000 1.000000
vt 0.000000 0.000000
vt 1.000000 0.000000
vt 1.000000 1.000000
vt 0.000000 1.000000
vt 0.000000 0.000000
vt 1.000000 0.000000
vt 1.000000 1.000000
vt 0.000000 1.000000
vt 0.000000 0.000000
vt 1.000000 0.000000
vt 1.000000 1.000000
vt 0.000000 1.000000
usemtl Leaf
f 1/1 2/2 3/3
f 1/1 3/3 4/4
f 5/5 6/6 7/7
f 5/5 7/7 8/8
f 9/9 10/10 11/11
f 9/9 11/11 12/12
f 13/13 14/14 15/15
f 13/13 15/15 16/16
f 17/17 18/18 19/19
f 17/17 19/19 20/20
f 21/21 22/22 23/23
f 21/21 23/23 24/24
f 25/25 26/26 27/27
f 25/25 27/27 28/28
f 29/29 30/30 31/31
f 29/29 31/31 32/32
f 33/33 34/34 35/35
f 33/33 35/35 36/36
f 37/37 38/38 39/39
f 37/37 39/39 40/40
