mtllib ../../Materials/project_oen.mtl
o en-013_cliff_edge_grass_set__short
v 0.047000 0.010000 0.000000
v 0.042163 0.008859 0.006559
v 0.042163 0.238859 0.046559
v 0.047000 0.240000 0.040000
v 0.042163 0.008859 0.006559
v 0.034337 0.009295 0.004054
v 0.034337 0.239295 0.044054
v 0.042163 0.238859 0.046559
v 0.034337 0.009295 0.004054
v 0.034337 0.010705 -0.004054
v 0.034337 0.240705 0.035946
v 0.034337 0.239295 0.044054
v 0.034337 0.010705 -0.004054
v 0.042163 0.011141 -0.006559
v 0.042163 0.241141 0.033441
v 0.034337 0.240705 0.035946
v 0.042163 0.011141 -0.006559
v 0.047000 0.010000 0.000000
v 0.047000 0.240000 0.040000
v 0.042163 0.241141 0.033441
v 0.040000 0.010000 0.000000
v 0.042163 0.008859 0.006559
v 0.047000 0.010000 0.000000
v 0.040000 0.240000 0.040000
v 0.047000 0.240000 0.040000
v 0.042163 0.238859 0.046559
v 0.040000 0.010000 0.000000
v 0.034337 0.009295 0.004054
v 0.042163 0.008859 0.006559
v 0.040000 0.240000 0.040000
v 0.042163 0.238859 0.046559
v 0.034337 0.239295 0.044054
v 0.040000 0.010000 0.000000
v 0.034337 0.010705 -0.004054
v 0.034337 0.009295 0.004054
v 0.040000 0.240000 0.040000
v 0.034337 0.239295 0.044054
v 0.034337 0.240705 0.035946
v 0.040000 0.010000 0.000000
v 0.042163 0.011141 -0.006559
v 0.034337 0.010705 -0.004054
v 0.040000 0.240000 0.040000
v 0.034337 0.240705 0.035946
v 0.042163 0.241141 0.033441
v 0.040000 0.010000 0.000000
v 0.047000 0.010000 0.000000
v 0.042163 0.011141 -0.006559
v 0.040000 0.240000 0.040000
v 0.042163 0.241141 0.033441
v 0.047000 0.240000 0.040000
v 0.040000 0.072000 0.000000
v 0.086715 0.079550 0.047943
v 0.083486 -0.025604 0.119477
v 0.035032 0.079550 0.066754
v 0.079419 0.051297 -0.001291
v 0.072864 0.047427 -0.004416
v 0.050667 -0.013558 0.117642
v 0.057222 -0.009689 0.120768
v 0.072864 0.047427 -0.004416
v 0.066277 0.052214 -0.003223
v 0.044080 -0.008772 0.118836
v 0.050667 -0.013558 0.117642
v 0.066277 0.052214 -0.003223
v 0.068762 0.059042 0.000641
v 0.046565 -0.001944 0.122699
v 0.044080 -0.008772 0.118836
v 0.068762 0.059042 0.000641
v 0.076885 0.058475 0.001834
v 0.054688 -0.002511 0.123893
v 0.046565 -0.001944 0.122699
v 0.076885 0.058475 0.001834
v 0.079419 0.051297 -0.001291
v 0.057222 -0.009689 0.120768
v 0.054688 -0.002511 0.123893
v 0.072841 0.053691 -0.001291
v 0.072864 0.047427 -0.004416
v 0.079419 0.051297 -0.001291
v 0.050644 -0.007295 0.120768
v 0.057222 -0.009689 0.120768
v 0.050667 -0.013558 0.117642
v 0.072841 0.053691 -0.001291
v 0.066277 0.052214 -0.003223
v 0.072864 0.047427 -0.004416
v 0.050644 -0.007295 0.120768
v 0.050667 -0.013558 0.117642
v 0.044080 -0.008772 0.118836
v 0.072841 0.053691 -0.001291
v 0.068762 0.059042 0.000641
v 0.066277 0.052214 -0.003223
v 0.050644 -0.007295 0.120768
v 0.044080 -0.008772 0.118836
v 0.046565 -0.001944 0.122699
v 0.072841 0.053691 -0.001291
v 0.076885 0.058475 0.001834
v 0.068762 0.059042 0.000641
v 0.050644 -0.007295 0.120768
v 0.046565 -0.001944 0.122699
v 0.054688 -0.002511 0.123893
v 0.072841 0.053691 -0.001291
v 0.079419 0.051297 -0.001291
v 0.076885 0.058475 0.001834
v 0.050644 -0.007295 0.120768
v 0.054688 -0.002511 0.123893
v 0.057222 -0.009689 0.120768
v -0.177836 0.093382 0.037818
v -0.180887 0.097253 0.044408
v 0.112651 0.248036 0.091708
v 0.115702 0.244165 0.085118
v -0.180887 0.097253 0.044408
v -0.184142 0.104379 0.041891
v 0.109396 0.255162 0.089191
v 0.112651 0.248036 0.091708
v -0.184142 0.104379 0.041891
v -0.183103 0.104913 0.033745
v 0.110435 0.255696 0.081045
v 0.109396 0.255162 0.089191
v -0.183103 0.104913 0.033745
v -0.179206 0.098116 0.031228
v 0.114332 0.248899 0.078528
v 0.110435 0.255696 0.081045
v -0.179206 0.098116 0.031228
v -0.177836 0.093382 0.037818
v 0.115702 0.244165 0.085118
v 0.114332 0.248899 0.078528
v -0.181035 0.099609 0.037818
v -0.180887 0.097253 0.044408
v -0.177836 0.093382 0.037818
v 0.112503 0.250391 0.085118
v 0.115702 0.244165 0.085118
v 0.112651 0.248036 0.091708
v -0.181035 0.099609 0.037818
v -0.184142 0.104379 0.041891
v -0.180887 0.097253 0.044408
v 0.112503 0.250391 0.085118
v 0.112651 0.248036 0.091708
v 0.109396 0.255162 0.089191
v -0.181035 0.099609 0.037818
v -0.183103 0.104913 0.033745
v -0.184142 0.104379 0.041891
v 0.112503 0.250391 0.085118
v 0.109396 0.255162 0.089191
v 0.110435 0.255696 0.081045
v -0.181035 0.099609 0.037818
v -0.179206 0.098116 0.031228
v -0.183103 0.104913 0.033745
v 0.112503 0.250391 0.085118
v 0.110435 0.255696 0.081045
v 0.114332 0.248899 0.078528
v -0.181035 0.099609 0.037818
v -0.177836 0.093382 0.037818
v -0.179206 0.098116 0.031228
v 0.112503 0.250391 0.085118
v 0.114332 0.248899 0.078528
v 0.115702 0.244165 0.085118
v -0.055303 0.102000 0.050662
v 0.032185 0.096029 0.074687
v 0.095760 -0.023772 0.148763
v 0.002230 0.096029 0.120814
v 0.062595 0.058281 0.013254
v 0.055031 0.059136 0.010129
v -0.022077 0.009061 0.183045
v -0.014513 0.008206 0.186171
v 0.055031 0.059136 0.010129
v 0.052652 0.066922 0.011322
v -0.024457 0.016847 0.184239
v -0.022077 0.009061 0.183045
v 0.052652 0.066922 0.011322
v 0.058745 0.070879 0.015186
v -0.018363 0.020805 0.188102
v -0.024457 0.016847 0.184239
v 0.058745 0.070879 0.015186
v 0.064891 0.065539 0.016380
v -0.012218 0.015464 0.189296
v -0.018363 0.020805 0.188102
v 0.064891 0.065539 0.016380
v 0.062595 0.058281 0.013254
v -0.014513 0.008206 0.186171
v -0.012218 0.015464 0.189296
v 0.058783 0.064151 0.013254
v 0.055031 0.059136 0.010129
v 0.062595 0.058281 0.013254
v -0.018326 0.014076 0.186171
v -0.014513 0.008206 0.186171
v -0.022077 0.009061 0.183045
v 0.058783 0.064151 0.013254
v 0.052652 0.066922 0.011322
v 0.055031 0.059136 0.010129
v -0.018326 0.014076 0.186171
v -0.022077 0.009061 0.183045
v -0.024457 0.016847 0.184239
v 0.058783 0.064151 0.013254
v 0.058745 0.070879 0.015186
v 0.052652 0.066922 0.011322
v -0.018326 0.014076 0.186171
v -0.024457 0.016847 0.184239
v -0.018363 0.020805 0.188102
v 0.058783 0.064151 0.013254
v 0.064891 0.065539 0.016380
v 0.058745 0.070879 0.015186
v -0.018326 0.014076 0.186171
v -0.018363 0.020805 0.188102
v -0.012218 0.015464 0.189296
v 0.058783 0.064151 0.013254
v 0.062595 0.058281 0.013254
v 0.064891 0.065539 0.016380
v -0.018326 0.014076 0.186171
v -0.012218 0.015464 0.189296
v -0.014513 0.008206 0.186171
v -0.173744 0.292345 -0.121686
v -0.172780 0.297143 -0.115070
v 0.231007 0.149306 -0.066654
v 0.230044 0.144508 -0.073270
v -0.172780 0.297143 -0.115070
v -0.169822 0.304395 -0.117597
v 0.233965 0.156558 -0.069181
v 0.231007 0.149306 -0.066654
v -0.169822 0.304395 -0.117597
v -0.168958 0.304078 -0.125775
v 0.234830 0.156241 -0.077358
v 0.233965 0.156558 -0.069181
v -0.168958 0.304078 -0.125775
v -0.171381 0.296631 -0.128301
v 0.232406 0.148794 -0.079885
v 0.234830 0.156241 -0.077358
v -0.171381 0.296631 -0.128301
v -0.173744 0.292345 -0.121686
v 0.230044 0.144508 -0.073270
v 0.232406 0.148794 -0.079885
v -0.171337 0.298919 -0.121686
v -0.172780 0.297143 -0.115070
v -0.173744 0.292345 -0.121686
v 0.232450 0.151081 -0.073270
v 0.230044 0.144508 -0.073270
v 0.231007 0.149306 -0.066654
v -0.171337 0.298919 -0.121686
v -0.169822 0.304395 -0.117597
v -0.172780 0.297143 -0.115070
v 0.232450 0.151081 -0.073270
v 0.231007 0.149306 -0.066654
v 0.233965 0.156558 -0.069181
v -0.171337 0.298919 -0.121686
v -0.168958 0.304078 -0.125775
v -0.169822 0.304395 -0.117597
v 0.232450 0.151081 -0.073270
v 0.233965 0.156558 -0.069181
v 0.234830 0.156241 -0.077358
v -0.171337 0.298919 -0.121686
v -0.171381 0.296631 -0.128301
v -0.168958 0.304078 -0.125775
v 0.232450 0.151081 -0.073270
v 0.234830 0.156241 -0.077358
v 0.232406 0.148794 -0.079885
v -0.171337 0.298919 -0.121686
v -0.173744 0.292345 -0.121686
v -0.171381 0.296631 -0.128301
v 0.232450 0.151081 -0.073270
v 0.232406 0.148794 -0.079885
v 0.230044 0.144508 -0.073270
v 0.007824 0.132000 -0.089155
v 0.117521 0.112509 -0.124393
v 0.240355 -0.021940 -0.105415
v 0.121357 0.112509 -0.069527
v 0.182948 0.043897 -0.209172
v 0.177421 0.049132 -0.212297
v 0.058728 0.057432 0.011477
v 0.064255 0.052197 0.014602
v 0.177421 0.049132 -0.212297
v 0.180207 0.056783 -0.211104
v 0.061514 0.065082 0.012671
v 0.058728 0.057432 0.011477
v 0.180207 0.056783 -0.211104
v 0.187455 0.056276 -0.207240
v 0.068762 0.064576 0.016534
v 0.061514 0.065082 0.012671
v 0.187455 0.056276 -0.207240
v 0.189149 0.048312 -0.206047
v 0.070456 0.056612 0.017728
v 0.068762 0.064576 0.016534
v 0.189149 0.048312 -0.206047
v 0.182948 0.043897 -0.209172
v 0.064255 0.052197 0.014602
v 0.070456 0.056612 0.017728
v 0.183436 0.050880 -0.209172
v 0.177421 0.049132 -0.212297
v 0.182948 0.043897 -0.209172
v 0.064743 0.059180 0.014602
v 0.064255 0.052197 0.014602
v 0.058728 0.057432 0.011477
v 0.183436 0.050880 -0.209172
v 0.180207 0.056783 -0.211104
v 0.177421 0.049132 -0.212297
v 0.064743 0.059180 0.014602
v 0.058728 0.057432 0.011477
v 0.061514 0.065082 0.012671
v 0.183436 0.050880 -0.209172
v 0.187455 0.056276 -0.207240
v 0.180207 0.056783 -0.211104
v 0.064743 0.059180 0.014602
v 0.061514 0.065082 0.012671
v 0.068762 0.064576 0.016534
v 0.183436 0.050880 -0.209172
v 0.189149 0.048312 -0.206047
v 0.187455 0.056276 -0.207240
v 0.064743 0.059180 0.014602
v 0.068762 0.064576 0.016534
v 0.070456 0.056612 0.017728
v 0.183436 0.050880 -0.209172
v 0.182948 0.043897 -0.209172
v 0.189149 0.048312 -0.206047
v 0.064743 0.059180 0.014602
v 0.070456 0.056612 0.017728
v 0.064255 0.052197 0.014602
v 0.011372 0.534663 0.039942
v 0.016046 0.536007 0.046580
v 0.109019 0.014226 0.086804
v 0.104345 0.012881 0.080165
v 0.016046 0.536007 0.046580
v 0.023785 0.537191 0.044045
v 0.116757 0.015409 0.084268
v 0.109019 0.014226 0.086804
v 0.023785 0.537191 0.044045
v 0.023894 0.536578 0.035839
v 0.116867 0.014796 0.076063
v 0.116757 0.015409 0.084268
v 0.023894 0.536578 0.035839
v 0.016223 0.535015 0.033304
v 0.109195 0.013234 0.073527
v 0.116867 0.014796 0.076063
v 0.016223 0.535015 0.033304
v 0.011372 0.534663 0.039942
v 0.104345 0.012881 0.080165
v 0.109195 0.013234 0.073527
v 0.018264 0.535891 0.039942
v 0.016046 0.536007 0.046580
v 0.011372 0.534663 0.039942
v 0.111237 0.014109 0.080165
v 0.104345 0.012881 0.080165
v 0.109019 0.014226 0.086804
v 0.018264 0.535891 0.039942
v 0.023785 0.537191 0.044045
v 0.016046 0.536007 0.046580
v 0.111237 0.014109 0.080165
v 0.109019 0.014226 0.086804
v 0.116757 0.015409 0.084268
v 0.018264 0.535891 0.039942
v 0.023894 0.536578 0.035839
v 0.023785 0.537191 0.044045
v 0.111237 0.014109 0.080165
v 0.116757 0.015409 0.084268
v 0.116867 0.014796 0.076063
v 0.018264 0.535891 0.039942
v 0.016223 0.535015 0.033304
v 0.023894 0.536578 0.035839
v 0.111237 0.014109 0.080165
v 0.116867 0.014796 0.076063
v 0.109195 0.013234 0.073527
v 0.018264 0.535891 0.039942
v 0.011372 0.534663 0.039942
v 0.016223 0.535015 0.033304
v 0.111237 0.014109 0.080165
v 0.109195 0.013234 0.073527
v 0.104345 0.012881 0.080165
v 0.061222 0.162000 0.079853
v 0.146814 0.128988 -0.030988
v 0.277126 -0.020109 -0.107829
v 0.182898 0.128988 0.010521
v 0.219685 0.017762 -0.151304
v 0.218422 0.025269 -0.154429
v 0.108216 0.121070 0.120203
v 0.109479 0.113563 0.123328
v 0.218422 0.025269 -0.154429
v 0.225251 0.029703 -0.153235
v 0.115045 0.125503 0.121397
v 0.108216 0.121070 0.120203
v 0.225251 0.029703 -0.153235
v 0.230734 0.024936 -0.149372
v 0.120528 0.120737 0.125260
v 0.115045 0.125503 0.121397
v 0.230734 0.024936 -0.149372
v 0.227294 0.017556 -0.148178
v 0.117088 0.113357 0.126454
v 0.120528 0.120737 0.125260
v 0.227294 0.017556 -0.148178
v 0.219685 0.017762 -0.151304
v 0.109479 0.113563 0.123328
v 0.117088 0.113357 0.126454
v 0.224277 0.023045 -0.151304
v 0.218422 0.025269 -0.154429
v 0.219685 0.017762 -0.151304
v 0.114071 0.118846 0.123328
v 0.109479 0.113563 0.123328
v 0.108216 0.121070 0.120203
v 0.224277 0.023045 -0.151304
v 0.225251 0.029703 -0.153235
v 0.218422 0.025269 -0.154429
v 0.114071 0.118846 0.123328
v 0.108216 0.121070 0.120203
v 0.115045 0.125503 0.121397
v 0.224277 0.023045 -0.151304
v 0.230734 0.024936 -0.149372
v 0.225251 0.029703 -0.153235
v 0.114071 0.118846 0.123328
v 0.115045 0.125503 0.121397
v 0.120528 0.120737 0.125260
v 0.224277 0.023045 -0.151304
v 0.227294 0.017556 -0.148178
v 0.230734 0.024936 -0.149372
v 0.114071 0.118846 0.123328
v 0.120528 0.120737 0.125260
v 0.117088 0.113357 0.126454
v 0.224277 0.023045 -0.151304
v 0.219685 0.017762 -0.151304
v 0.227294 0.017556 -0.148178
v 0.114071 0.118846 0.123328
v 0.117088 0.113357 0.126454
v 0.109479 0.113563 0.123328
v -0.036606 0.196131 -0.055230
v -0.032782 0.192894 -0.048702
v -0.222006 0.062149 -0.002707
v -0.225830 0.065387 -0.009236
v -0.032782 0.192894 -0.048702
v -0.028743 0.186172 -0.051195
v -0.217968 0.055427 -0.005201
v -0.222006 0.062149 -0.002707
v -0.028743 0.186172 -0.051195
v -0.030071 0.185255 -0.059265
v -0.219295 0.054510 -0.013270
v -0.217968 0.055427 -0.005201
v -0.030071 0.185255 -0.059265
v -0.034930 0.191410 -0.061758
v -0.224154 0.060665 -0.015764
v -0.219295 0.054510 -0.013270
v -0.034930 0.191410 -0.061758
v -0.036606 0.196131 -0.055230
v -0.225830 0.065387 -0.009236
v -0.224154 0.060665 -0.015764
v -0.032627 0.190372 -0.055230
v -0.032782 0.192894 -0.048702
v -0.036606 0.196131 -0.055230
v -0.221851 0.059628 -0.009236
v -0.225830 0.065387 -0.009236
v -0.222006 0.062149 -0.002707
v -0.032627 0.190372 -0.055230
v -0.028743 0.186172 -0.051195
v -0.032782 0.192894 -0.048702
v -0.221851 0.059628 -0.009236
v -0.222006 0.062149 -0.002707
v -0.217968 0.055427 -0.005201
v -0.032627 0.190372 -0.055230
v -0.030071 0.185255 -0.059265
v -0.028743 0.186172 -0.051195
v -0.221851 0.059628 -0.009236
v -0.217968 0.055427 -0.005201
v -0.219295 0.054510 -0.013270
v -0.032627 0.190372 -0.055230
v -0.034930 0.191410 -0.061758
v -0.030071 0.185255 -0.059265
v -0.221851 0.059628 -0.009236
v -0.219295 0.054510 -0.013270
v -0.224154 0.060665 -0.015764
v -0.032627 0.190372 -0.055230
v -0.036606 0.196131 -0.055230
v -0.034930 0.191410 -0.061758
v -0.221851 0.059628 -0.009236
v -0.224154 0.060665 -0.015764
v -0.225830 0.065387 -0.009236
v -0.108319 0.072000 -0.019160
v -0.122529 0.079550 -0.084573
v -0.081884 -0.025604 -0.143526
v -0.068731 0.079550 -0.073138
v -0.095201 -0.009998 -0.142372
v -0.091692 -0.003243 -0.145498
v -0.105186 0.060239 -0.023439
v -0.108695 0.053483 -0.020314
v -0.091692 -0.003243 -0.145498
v -0.083570 -0.003812 -0.144304
v -0.097064 0.059670 -0.022245
v -0.105186 0.060239 -0.023439
v -0.083570 -0.003812 -0.144304
v -0.082060 -0.010919 -0.140441
v -0.095553 0.052563 -0.018382
v -0.097064 0.059670 -0.022245
v -0.082060 -0.010919 -0.140441
v -0.089248 -0.014742 -0.139247
v -0.102742 0.048739 -0.017188
v -0.095553 0.052563 -0.018382
v -0.089248 -0.014742 -0.139247
v -0.095201 -0.009998 -0.142372
v -0.108695 0.053483 -0.020314
v -0.102742 0.048739 -0.017188
v -0.088354 -0.008543 -0.142372
v -0.091692 -0.003243 -0.145498
v -0.095201 -0.009998 -0.142372
v -0.101848 0.054939 -0.020314
v -0.108695 0.053483 -0.020314
v -0.105186 0.060239 -0.023439
v -0.088354 -0.008543 -0.142372
v -0.083570 -0.003812 -0.144304
v -0.091692 -0.003243 -0.145498
v -0.101848 0.054939 -0.020314
v -0.105186 0.060239 -0.023439
v -0.097064 0.059670 -0.022245
v -0.088354 -0.008543 -0.142372
v -0.082060 -0.010919 -0.140441
v -0.083570 -0.003812 -0.144304
v -0.101848 0.054939 -0.020314
v -0.097064 0.059670 -0.022245
v -0.095553 0.052563 -0.018382
v -0.088354 -0.008543 -0.142372
v -0.089248 -0.014742 -0.139247
v -0.082060 -0.010919 -0.140441
v -0.101848 0.054939 -0.020314
v -0.095553 0.052563 -0.018382
v -0.102742 0.048739 -0.017188
v -0.088354 -0.008543 -0.142372
v -0.095201 -0.009998 -0.142372
v -0.089248 -0.014742 -0.139247
v -0.101848 0.054939 -0.020314
v -0.102742 0.048739 -0.017188
v -0.108695 0.053483 -0.020314
v 0.237989 0.143814 -0.082437
v 0.237831 0.138881 -0.075852
v -0.083299 0.214876 -0.026582
v -0.083142 0.219810 -0.033166
v 0.237831 0.138881 -0.075852
v 0.235664 0.131351 -0.078367
v -0.085467 0.207347 -0.029097
v -0.083299 0.214876 -0.026582
v 0.235664 0.131351 -0.078367
v 0.234481 0.131631 -0.086506
v -0.086649 0.207627 -0.037236
v -0.085467 0.207347 -0.029097
v 0.234481 0.131631 -0.086506
v 0.235918 0.139334 -0.089021
v -0.085212 0.215329 -0.039751
v -0.086649 0.207627 -0.037236
v 0.235918 0.139334 -0.089021
v 0.237989 0.143814 -0.082437
v -0.083142 0.219810 -0.033166
v -0.085212 0.215329 -0.039751
v 0.236376 0.137002 -0.082437
v 0.237831 0.138881 -0.075852
v 0.237989 0.143814 -0.082437
v -0.084754 0.212998 -0.033166
v -0.083142 0.219810 -0.033166
v -0.083299 0.214876 -0.026582
v 0.236376 0.137002 -0.082437
v 0.235664 0.131351 -0.078367
v 0.237831 0.138881 -0.075852
v -0.084754 0.212998 -0.033166
v -0.083299 0.214876 -0.026582
v -0.085467 0.207347 -0.029097
v 0.236376 0.137002 -0.082437
v 0.234481 0.131631 -0.086506
v 0.235664 0.131351 -0.078367
v -0.084754 0.212998 -0.033166
v -0.085467 0.207347 -0.029097
v -0.086649 0.207627 -0.037236
v 0.236376 0.137002 -0.082437
v 0.235918 0.139334 -0.089021
v 0.234481 0.131631 -0.086506
v -0.084754 0.212998 -0.033166
v -0.086649 0.207627 -0.037236
v -0.085212 0.215329 -0.039751
v 0.236376 0.137002 -0.082437
v 0.237989 0.143814 -0.082437
v 0.235918 0.139334 -0.089021
v -0.084754 0.212998 -0.033166
v -0.085212 0.215329 -0.039751
v -0.083142 0.219810 -0.033166
v 0.099784 0.102000 -0.063475
v 0.038322 0.096029 -0.130211
v 0.023662 -0.023772 -0.226720
v 0.088169 0.096029 -0.153455
v 0.035951 0.000409 -0.231556
v 0.042819 0.003692 -0.234681
v 0.081675 0.087019 -0.061765
v 0.074807 0.083736 -0.058639
v 0.042819 0.003692 -0.234681
v 0.048963 -0.001650 -0.233487
v 0.087819 0.081677 -0.060571
v 0.081675 0.087019 -0.061765
v 0.048963 -0.001650 -0.233487
v 0.045892 -0.008236 -0.229624
v 0.084748 0.075092 -0.056708
v 0.087819 0.081677 -0.060571
v 0.045892 -0.008236 -0.229624
v 0.037850 -0.006963 -0.228430
v 0.076707 0.076364 -0.055514
v 0.084748 0.075092 -0.056708
v 0.037850 -0.006963 -0.228430
v 0.035951 0.000409 -0.231556
v 0.074807 0.083736 -0.058639
v 0.076707 0.076364 -0.055514
v 0.042295 -0.002550 -0.231556
v 0.042819 0.003692 -0.234681
v 0.035951 0.000409 -0.231556
v 0.081151 0.080777 -0.058639
v 0.074807 0.083736 -0.058639
v 0.081675 0.087019 -0.061765
v 0.042295 -0.002550 -0.231556
v 0.048963 -0.001650 -0.233487
v 0.042819 0.003692 -0.234681
v 0.081151 0.080777 -0.058639
v 0.081675 0.087019 -0.061765
v 0.087819 0.081677 -0.060571
v 0.042295 -0.002550 -0.231556
v 0.045892 -0.008236 -0.229624
v 0.048963 -0.001650 -0.233487
v 0.081151 0.080777 -0.058639
v 0.087819 0.081677 -0.060571
v 0.084748 0.075092 -0.056708
v 0.042295 -0.002550 -0.231556
v 0.037850 -0.006963 -0.228430
v 0.045892 -0.008236 -0.229624
v 0.081151 0.080777 -0.058639
v 0.084748 0.075092 -0.056708
v 0.076707 0.076364 -0.055514
v 0.042295 -0.002550 -0.231556
v 0.035951 0.000409 -0.231556
v 0.037850 -0.006963 -0.228430
v 0.081151 0.080777 -0.058639
v 0.076707 0.076364 -0.055514
v 0.074807 0.083736 -0.058639
v 0.040449 0.025345 0.120190
v 0.036119 0.023100 0.126818
v -0.110874 0.427195 0.167687
v -0.106544 0.429441 0.161059
v 0.036119 0.023100 0.126818
v 0.028682 0.020651 0.124286
v -0.118311 0.424746 0.165155
v -0.110874 0.427195 0.167687
v 0.028682 0.020651 0.124286
v 0.028416 0.021382 0.116094
v -0.118577 0.425478 0.156963
v -0.118311 0.424746 0.165155
v 0.028416 0.021382 0.116094
v 0.035688 0.024284 0.113563
v -0.111305 0.428379 0.154432
v -0.118577 0.425478 0.156963
v 0.035688 0.024284 0.113563
v 0.040449 0.025345 0.120190
v -0.106544 0.429441 0.161059
v -0.111305 0.428379 0.154432
v 0.033871 0.022952 0.120190
v 0.036119 0.023100 0.126818
v 0.040449 0.025345 0.120190
v -0.113122 0.427048 0.161059
v -0.106544 0.429441 0.161059
v -0.110874 0.427195 0.167687
v 0.033871 0.022952 0.120190
v 0.028682 0.020651 0.124286
v 0.036119 0.023100 0.126818
v -0.113122 0.427048 0.161059
v -0.110874 0.427195 0.167687
v -0.118311 0.424746 0.165155
v 0.033871 0.022952 0.120190
v 0.028416 0.021382 0.116094
v 0.028682 0.020651 0.124286
v -0.113122 0.427048 0.161059
v -0.118311 0.424746 0.165155
v -0.118577 0.425478 0.156963
v 0.033871 0.022952 0.120190
v 0.035688 0.024284 0.113563
v 0.028416 0.021382 0.116094
v -0.113122 0.427048 0.161059
v -0.118577 0.425478 0.156963
v -0.111305 0.428379 0.154432
v 0.033871 0.022952 0.120190
v 0.040449 0.025345 0.120190
v 0.035688 0.024284 0.113563
v -0.113122 0.427048 0.161059
v -0.111305 0.428379 0.154432
v -0.106544 0.429441 0.161059
v -0.032640 0.132000 0.121421
v -0.144341 0.112509 0.093175
v -0.238454 -0.021940 0.011989
v -0.118520 0.112509 0.044613
v -0.191361 0.033281 -0.045182
v -0.183900 0.031770 -0.048308
v -0.078845 0.087629 0.175467
v -0.086306 0.089140 0.178592
v -0.183900 0.031770 -0.048308
v -0.182209 0.023806 -0.047114
v -0.077153 0.079665 0.176660
v -0.078845 0.087629 0.175467
v -0.182209 0.023806 -0.047114
v -0.188624 0.020394 -0.043250
v -0.083568 0.076254 0.180524
v -0.077153 0.079665 0.176660
v -0.188624 0.020394 -0.043250
v -0.194281 0.026251 -0.042057
v -0.089225 0.082110 0.181718
v -0.083568 0.076254 0.180524
v -0.194281 0.026251 -0.042057
v -0.191361 0.033281 -0.045182
v -0.086306 0.089140 0.178592
v -0.089225 0.082110 0.181718
v -0.188075 0.027100 -0.045182
v -0.183900 0.031770 -0.048308
v -0.191361 0.033281 -0.045182
v -0.083019 0.082959 0.178592
v -0.086306 0.089140 0.178592
v -0.078845 0.087629 0.175467
v -0.188075 0.027100 -0.045182
v -0.182209 0.023806 -0.047114
v -0.183900 0.031770 -0.048308
v -0.083019 0.082959 0.178592
v -0.078845 0.087629 0.175467
v -0.077153 0.079665 0.176660
v -0.188075 0.027100 -0.045182
v -0.188624 0.020394 -0.043250
v -0.182209 0.023806 -0.047114
v -0.083019 0.082959 0.178592
v -0.077153 0.079665 0.176660
v -0.083568 0.076254 0.180524
v -0.188075 0.027100 -0.045182
v -0.194281 0.026251 -0.042057
v -0.188624 0.020394 -0.043250
v -0.083019 0.082959 0.178592
v -0.083568 0.076254 0.180524
v -0.089225 0.082110 0.181718
v -0.188075 0.027100 -0.045182
v -0.191361 0.033281 -0.045182
v -0.194281 0.026251 -0.042057
v -0.083019 0.082959 0.178592
v -0.089225 0.082110 0.181718
v -0.086306 0.089140 0.178592
v -0.235173 0.090634 -0.124895
v -0.238856 0.093819 -0.118261
v 0.151574 0.452239 -0.073669
v 0.155256 0.449053 -0.080303
v -0.238856 0.093819 -0.118261
v -0.243991 0.099729 -0.120795
v 0.146439 0.458148 -0.076203
v 0.151574 0.452239 -0.073669
v -0.243991 0.099729 -0.120795
v -0.243483 0.100195 -0.128995
v 0.146947 0.458615 -0.084403
v 0.146439 0.458148 -0.076203
v -0.243483 0.100195 -0.128995
v -0.238033 0.094574 -0.131529
v 0.152397 0.452994 -0.086937
v 0.146947 0.458615 -0.084403
v -0.238033 0.094574 -0.131529
v -0.235173 0.090634 -0.124895
v 0.155256 0.449053 -0.080303
v 0.152397 0.452994 -0.086937
v -0.239907 0.095790 -0.124895
v -0.238856 0.093819 -0.118261
v -0.235173 0.090634 -0.124895
v 0.150523 0.454210 -0.080303
v 0.155256 0.449053 -0.080303
v 0.151574 0.452239 -0.073669
v -0.239907 0.095790 -0.124895
v -0.243991 0.099729 -0.120795
v -0.238856 0.093819 -0.118261
v 0.150523 0.454210 -0.080303
v 0.151574 0.452239 -0.073669
v 0.146439 0.458148 -0.076203
v -0.239907 0.095790 -0.124895
v -0.243483 0.100195 -0.128995
v -0.243991 0.099729 -0.120795
v 0.150523 0.454210 -0.080303
v 0.146439 0.458148 -0.076203
v 0.146947 0.458615 -0.084403
v -0.239907 0.095790 -0.124895
v -0.238033 0.094574 -0.131529
v -0.243483 0.100195 -0.128995
v 0.150523 0.454210 -0.080303
v 0.146947 0.458615 -0.084403
v 0.152397 0.452994 -0.086937
v -0.239907 0.095790 -0.124895
v -0.235173 0.090634 -0.124895
v -0.238033 0.094574 -0.131529
v 0.150523 0.454210 -0.080303
v 0.152397 0.452994 -0.086937
v 0.155256 0.449053 -0.080303
v -0.061117 0.162000 -0.117677
v -0.192441 0.128988 -0.069034
v -0.343670 -0.020109 -0.072925
v -0.201044 0.128988 -0.123357
v -0.273412 0.089281 -0.232617
v -0.268363 0.083584 -0.235742
v -0.124136 0.060741 0.038890
v -0.129185 0.066438 0.042015
v -0.268363 0.083584 -0.235742
v -0.271805 0.076206 -0.234548
v -0.127578 0.053362 0.040084
v -0.124136 0.060741 0.038890
v -0.271805 0.076206 -0.234548
v -0.278981 0.077342 -0.230685
v -0.134754 0.054499 0.043947
v -0.127578 0.053362 0.040084
v -0.278981 0.077342 -0.230685
v -0.279974 0.085423 -0.229491
v -0.135748 0.062580 0.045141
v -0.134754 0.054499 0.043947
v -0.279974 0.085423 -0.229491
v -0.273412 0.089281 -0.232617
v -0.129185 0.066438 0.042015
v -0.135748 0.062580 0.045141
v -0.274507 0.082367 -0.232617
v -0.268363 0.083584 -0.235742
v -0.273412 0.089281 -0.232617
v -0.130280 0.059524 0.042015
v -0.129185 0.066438 0.042015
v -0.124136 0.060741 0.038890
v -0.274507 0.082367 -0.232617
v -0.271805 0.076206 -0.234548
v -0.268363 0.083584 -0.235742
v -0.130280 0.059524 0.042015
v -0.124136 0.060741 0.038890
v -0.127578 0.053362 0.040084
v -0.274507 0.082367 -0.232617
v -0.278981 0.077342 -0.230685
v -0.271805 0.076206 -0.234548
v -0.130280 0.059524 0.042015
v -0.127578 0.053362 0.040084
v -0.134754 0.054499 0.043947
v -0.274507 0.082367 -0.232617
v -0.279974 0.085423 -0.229491
v -0.278981 0.077342 -0.230685
v -0.130280 0.059524 0.042015
v -0.134754 0.054499 0.043947
v -0.135748 0.062580 0.045141
v -0.274507 0.082367 -0.232617
v -0.273412 0.089281 -0.232617
v -0.279974 0.085423 -0.229491
v -0.130280 0.059524 0.042015
v -0.135748 0.062580 0.045141
v -0.129185 0.066438 0.042015
v 0.040265 0.131485 0.019866
v 0.039431 0.136454 0.026372
v 0.267855 0.109579 0.076182
v 0.268689 0.104611 0.069675
v 0.039431 0.136454 0.026372
v 0.040880 0.144163 0.023887
v 0.269304 0.117289 0.073696
v 0.267855 0.109579 0.076182
v 0.040880 0.144163 0.023887
v 0.042609 0.143960 0.015845
v 0.271034 0.117085 0.065654
v 0.269304 0.117289 0.073696
v 0.042609 0.143960 0.015845
v 0.042229 0.136124 0.013359
v 0.270654 0.109250 0.063168
v 0.271034 0.117085 0.065654
v 0.042229 0.136124 0.013359
v 0.040265 0.131485 0.019866
v 0.268689 0.104611 0.069675
v 0.270654 0.109250 0.063168
v 0.041083 0.138437 0.019866
v 0.039431 0.136454 0.026372
v 0.040265 0.131485 0.019866
v 0.269507 0.111563 0.069675
v 0.268689 0.104611 0.069675
v 0.267855 0.109579 0.076182
v 0.041083 0.138437 0.019866
v 0.040880 0.144163 0.023887
v 0.039431 0.136454 0.026372
v 0.269507 0.111563 0.069675
v 0.267855 0.109579 0.076182
v 0.269304 0.117289 0.073696
v 0.041083 0.138437 0.019866
v 0.042609 0.143960 0.015845
v 0.040880 0.144163 0.023887
v 0.269507 0.111563 0.069675
v 0.269304 0.117289 0.073696
v 0.271034 0.117085 0.065654
v 0.041083 0.138437 0.019866
v 0.042229 0.136124 0.013359
v 0.042609 0.143960 0.015845
v 0.269507 0.111563 0.069675
v 0.271034 0.117085 0.065654
v 0.270654 0.109250 0.063168
v 0.041083 0.138437 0.019866
v 0.040265 0.131485 0.019866
v 0.042229 0.136124 0.013359
v 0.269507 0.111563 0.069675
v 0.270654 0.109250 0.063168
v 0.268689 0.104611 0.069675
v 0.130561 0.072000 0.047680
v 0.107948 0.079550 0.110684
v 0.042239 -0.025604 0.139140
v 0.068385 0.079550 0.072478
v 0.068894 0.051403 0.032381
v 0.069498 0.043815 0.029256
v 0.114581 -0.002870 0.151314
v 0.113977 0.004718 0.154440
v 0.069498 0.043815 0.029256
v 0.062308 0.039993 0.030449
v 0.107392 -0.006692 0.152508
v 0.114581 -0.002870 0.151314
v 0.062308 0.039993 0.030449
v 0.057261 0.045220 0.034313
v 0.102344 -0.001465 0.156371
v 0.107392 -0.006692 0.152508
v 0.057261 0.045220 0.034313
v 0.061331 0.052272 0.035507
v 0.106414 0.005587 0.157565
v 0.102344 -0.001465 0.156371
v 0.061331 0.052272 0.035507
v 0.068894 0.051403 0.032381
v 0.113977 0.004718 0.154440
v 0.106414 0.005587 0.157565
v 0.063858 0.046541 0.032381
v 0.069498 0.043815 0.029256
v 0.068894 0.051403 0.032381
v 0.108942 -0.000144 0.154440
v 0.113977 0.004718 0.154440
v 0.114581 -0.002870 0.151314
v 0.063858 0.046541 0.032381
v 0.062308 0.039993 0.030449
v 0.069498 0.043815 0.029256
v 0.108942 -0.000144 0.154440
v 0.114581 -0.002870 0.151314
v 0.107392 -0.006692 0.152508
v 0.063858 0.046541 0.032381
v 0.057261 0.045220 0.034313
v 0.062308 0.039993 0.030449
v 0.108942 -0.000144 0.154440
v 0.107392 -0.006692 0.152508
v 0.102344 -0.001465 0.156371
v 0.063858 0.046541 0.032381
v 0.061331 0.052272 0.035507
v 0.057261 0.045220 0.034313
v 0.108942 -0.000144 0.154440
v 0.102344 -0.001465 0.156371
v 0.106414 0.005587 0.157565
v 0.063858 0.046541 0.032381
v 0.068894 0.051403 0.032381
v 0.061331 0.052272 0.035507
v 0.108942 -0.000144 0.154440
v 0.106414 0.005587 0.157565
v 0.113977 0.004718 0.154440
v -0.211029 0.315187 0.016170
v -0.207231 0.318297 0.022774
v -0.044814 0.031033 0.064641
v -0.048612 0.027923 0.058037
v -0.207231 0.318297 0.022774
v -0.200261 0.321870 0.020252
v -0.037843 0.034606 0.062119
v -0.044814 0.031033 0.064641
v -0.200261 0.321870 0.020252
v -0.199751 0.320968 0.012088
v -0.037334 0.033704 0.053955
v -0.037843 0.034606 0.062119
v -0.199751 0.320968 0.012088
v -0.206406 0.316838 0.009565
v -0.043989 0.029574 0.051432
v -0.037334 0.033704 0.053955
v -0.206406 0.316838 0.009565
v -0.211029 0.315187 0.016170
v -0.048612 0.027923 0.058037
v -0.043989 0.029574 0.051432
v -0.204936 0.318632 0.016170
v -0.207231 0.318297 0.022774
v -0.211029 0.315187 0.016170
v -0.042518 0.031368 0.058037
v -0.048612 0.027923 0.058037
v -0.044814 0.031033 0.064641
v -0.204936 0.318632 0.016170
v -0.200261 0.321870 0.020252
v -0.207231 0.318297 0.022774
v -0.042518 0.031368 0.058037
v -0.044814 0.031033 0.064641
v -0.037843 0.034606 0.062119
v -0.204936 0.318632 0.016170
v -0.199751 0.320968 0.012088
v -0.200261 0.321870 0.020252
v -0.042518 0.031368 0.058037
v -0.037843 0.034606 0.062119
v -0.037334 0.033704 0.053955
v -0.204936 0.318632 0.016170
v -0.206406 0.316838 0.009565
v -0.199751 0.320968 0.012088
v -0.042518 0.031368 0.058037
v -0.037334 0.033704 0.053955
v -0.043989 0.029574 0.051432
v -0.204936 0.318632 0.016170
v -0.211029 0.315187 0.016170
v -0.206406 0.316838 0.009565
v -0.042518 0.031368 0.058037
v -0.043989 0.029574 0.051432
v -0.048612 0.027923 0.058037
v -0.134030 0.102000 0.055326
v -0.117272 0.096029 0.144491
v -0.155981 -0.023772 0.234105
v -0.171862 0.096029 0.137788
v -0.143660 0.085595 0.058257
v -0.147745 0.079171 0.055132
v -0.136540 -0.012085 0.228048
v -0.132455 -0.005661 0.231174
v -0.147745 0.079171 0.055132
v -0.155786 0.080446 0.056325
v -0.144581 -0.010810 0.229242
v -0.136540 -0.012085 0.228048
v -0.155786 0.080446 0.056325
v -0.156672 0.087658 0.060189
v -0.145467 -0.003598 0.233105
v -0.144581 -0.010810 0.229242
v -0.156672 0.087658 0.060189
v -0.149177 0.090840 0.061383
v -0.137973 -0.000416 0.234299
v -0.145467 -0.003598 0.233105
v -0.149177 0.090840 0.061383
v -0.143660 0.085595 0.058257
v -0.132455 -0.005661 0.231174
v -0.137973 -0.000416 0.234299
v -0.150608 0.084742 0.058257
v -0.147745 0.079171 0.055132
v -0.143660 0.085595 0.058257
v -0.139403 -0.006514 0.231174
v -0.132455 -0.005661 0.231174
v -0.136540 -0.012085 0.228048
v -0.150608 0.084742 0.058257
v -0.155786 0.080446 0.056325
v -0.147745 0.079171 0.055132
v -0.139403 -0.006514 0.231174
v -0.136540 -0.012085 0.228048
v -0.144581 -0.010810 0.229242
v -0.150608 0.084742 0.058257
v -0.156672 0.087658 0.060189
v -0.155786 0.080446 0.056325
v -0.139403 -0.006514 0.231174
v -0.144581 -0.010810 0.229242
v -0.145467 -0.003598 0.233105
v -0.150608 0.084742 0.058257
v -0.149177 0.090840 0.061383
v -0.156672 0.087658 0.060189
v -0.139403 -0.006514 0.231174
v -0.145467 -0.003598 0.233105
v -0.137973 -0.000416 0.234299
v -0.150608 0.084742 0.058257
v -0.143660 0.085595 0.058257
v -0.149177 0.090840 0.061383
v -0.139403 -0.006514 0.231174
v -0.137973 -0.000416 0.234299
v -0.132455 -0.005661 0.231174
v 0.180197 0.396439 -0.174858
v 0.184374 0.393911 -0.168234
v -0.086368 0.059847 -0.125033
v -0.090545 0.062376 -0.131657
v 0.184374 0.393911 -0.168234
v 0.190294 0.388786 -0.170764
v -0.080448 0.054722 -0.127563
v -0.086368 0.059847 -0.125033
v 0.190294 0.388786 -0.170764
v 0.189776 0.388147 -0.178952
v -0.080966 0.054083 -0.135751
v -0.080448 0.054722 -0.127563
v 0.189776 0.388147 -0.178952
v 0.183536 0.392877 -0.181482
v -0.087207 0.058813 -0.138281
v -0.080966 0.054083 -0.135751
v 0.183536 0.392877 -0.181482
v 0.180197 0.396439 -0.174858
v -0.090545 0.062376 -0.131657
v -0.087207 0.058813 -0.138281
v 0.185635 0.392032 -0.174858
v 0.184374 0.393911 -0.168234
v 0.180197 0.396439 -0.174858
v -0.085107 0.057968 -0.131657
v -0.090545 0.062376 -0.131657
v -0.086368 0.059847 -0.125033
v 0.185635 0.392032 -0.174858
v 0.190294 0.388786 -0.170764
v 0.184374 0.393911 -0.168234
v -0.085107 0.057968 -0.131657
v -0.086368 0.059847 -0.125033
v -0.080448 0.054722 -0.127563
v 0.185635 0.392032 -0.174858
v 0.189776 0.388147 -0.178952
v 0.190294 0.388786 -0.170764
v -0.085107 0.057968 -0.131657
v -0.080448 0.054722 -0.127563
v -0.080966 0.054083 -0.135751
v 0.185635 0.392032 -0.174858
v 0.183536 0.392877 -0.181482
v 0.189776 0.388147 -0.178952
v -0.085107 0.057968 -0.131657
v -0.080966 0.054083 -0.135751
v -0.087207 0.058813 -0.138281
v 0.185635 0.392032 -0.174858
v 0.180197 0.396439 -0.174858
v 0.183536 0.392877 -0.181482
v -0.085107 0.057968 -0.131657
v -0.087207 0.058813 -0.138281
v -0.090545 0.062376 -0.131657
v 0.063865 0.132000 -0.136476
v 0.143624 0.112509 -0.053329
v 0.180414 -0.021940 0.065393
v 0.095993 0.112509 -0.025829
v 0.157947 0.103051 -0.147429
v 0.150819 0.100379 -0.150554
v 0.091328 -0.002664 0.073220
v 0.098456 0.000009 0.076346
v 0.150819 0.100379 -0.150554
v 0.145164 0.106236 -0.149360
v 0.085673 0.003194 0.074414
v 0.091328 -0.002664 0.073220
v 0.145164 0.106236 -0.149360
v 0.148797 0.112529 -0.145497
v 0.089306 0.009486 0.078277
v 0.085673 0.003194 0.074414
v 0.148797 0.112529 -0.145497
v 0.156697 0.110560 -0.144303
v 0.097206 0.007518 0.079471
v 0.089306 0.009486 0.078277
v 0.156697 0.110560 -0.144303
v 0.157947 0.103051 -0.147429
v 0.098456 0.000009 0.076346
v 0.097206 0.007518 0.079471
v 0.151885 0.106551 -0.147429
v 0.150819 0.100379 -0.150554
v 0.157947 0.103051 -0.147429
v 0.092394 0.003509 0.076346
v 0.098456 0.000009 0.076346
v 0.091328 -0.002664 0.073220
v 0.151885 0.106551 -0.147429
v 0.145164 0.106236 -0.149360
v 0.150819 0.100379 -0.150554
v 0.092394 0.003509 0.076346
v 0.091328 -0.002664 0.073220
v 0.085673 0.003194 0.074414
v 0.151885 0.106551 -0.147429
v 0.148797 0.112529 -0.145497
v 0.145164 0.106236 -0.149360
v 0.092394 0.003509 0.076346
v 0.085673 0.003194 0.074414
v 0.089306 0.009486 0.078277
v 0.151885 0.106551 -0.147429
v 0.156697 0.110560 -0.144303
v 0.148797 0.112529 -0.145497
v 0.092394 0.003509 0.076346
v 0.089306 0.009486 0.078277
v 0.097206 0.007518 0.079471
v 0.151885 0.106551 -0.147429
v 0.157947 0.103051 -0.147429
v 0.156697 0.110560 -0.144303
v 0.092394 0.003509 0.076346
v 0.097206 0.007518 0.079471
v 0.098456 0.000009 0.076346
v 0.286737 0.281062 0.124016
v 0.287345 0.276223 0.130644
v -0.242652 0.278099 0.180644
v -0.243260 0.282938 0.174016
v 0.287345 0.276223 0.130644
v 0.287078 0.268397 0.128113
v -0.242919 0.270274 0.178112
v -0.242652 0.278099 0.180644
v 0.287078 0.268397 0.128113
v 0.286305 0.268400 0.119920
v -0.243691 0.270277 0.169920
v -0.242919 0.270274 0.178112
v 0.286305 0.268400 0.119920
v 0.286094 0.276227 0.117388
v -0.243903 0.278104 0.167388
v -0.243691 0.270277 0.169920
v 0.286094 0.276227 0.117388
v 0.286737 0.281062 0.124016
v -0.243260 0.282938 0.174016
v -0.243903 0.278104 0.167388
v 0.286712 0.274062 0.124016
v 0.287345 0.276223 0.130644
v 0.286737 0.281062 0.124016
v -0.243285 0.275938 0.174016
v -0.243260 0.282938 0.174016
v -0.242652 0.278099 0.180644
v 0.286712 0.274062 0.124016
v 0.287078 0.268397 0.128113
v 0.287345 0.276223 0.130644
v -0.243285 0.275938 0.174016
v -0.242652 0.278099 0.180644
v -0.242919 0.270274 0.178112
v 0.286712 0.274062 0.124016
v 0.286305 0.268400 0.119920
v 0.287078 0.268397 0.128113
v -0.243285 0.275938 0.174016
v -0.242919 0.270274 0.178112
v -0.243691 0.270277 0.169920
v 0.286712 0.274062 0.124016
v 0.286094 0.276227 0.117388
v 0.286305 0.268400 0.119920
v -0.243285 0.275938 0.174016
v -0.243691 0.270277 0.169920
v -0.243903 0.278104 0.167388
v 0.286712 0.274062 0.124016
v 0.286737 0.281062 0.124016
v 0.286094 0.276227 0.117388
v -0.243285 0.275938 0.174016
v -0.243903 0.278104 0.167388
v -0.243260 0.282938 0.174016
v 0.046713 0.162000 0.148928
v 0.183858 0.128988 0.177267
v 0.310047 -0.020109 0.260706
v 0.162368 0.128988 0.227895
v 0.248323 0.093030 0.067501
v 0.241022 0.095186 0.064375
v 0.106606 0.038130 0.339007
v 0.113907 0.035974 0.342133
v 0.241022 0.095186 0.064375
v 0.240031 0.103267 0.065569
v 0.105615 0.046211 0.340201
v 0.106606 0.038130 0.339007
v 0.240031 0.103267 0.065569
v 0.246719 0.106106 0.069432
v 0.112303 0.049050 0.344064
v 0.105615 0.046211 0.340201
v 0.246719 0.106106 0.069432
v 0.251844 0.099779 0.070626
v 0.117428 0.042723 0.345258
v 0.112303 0.049050 0.344064
v 0.251844 0.099779 0.070626
v 0.248323 0.093030 0.067501
v 0.113907 0.035974 0.342133
v 0.117428 0.042723 0.345258
v 0.245588 0.099474 0.067501
v 0.241022 0.095186 0.064375
v 0.248323 0.093030 0.067501
v 0.111172 0.042417 0.342133
v 0.113907 0.035974 0.342133
v 0.106606 0.038130 0.339007
v 0.245588 0.099474 0.067501
v 0.240031 0.103267 0.065569
v 0.241022 0.095186 0.064375
v 0.111172 0.042417 0.342133
v 0.106606 0.038130 0.339007
v 0.105615 0.046211 0.340201
v 0.245588 0.099474 0.067501
v 0.246719 0.106106 0.069432
v 0.240031 0.103267 0.065569
v 0.111172 0.042417 0.342133
v 0.105615 0.046211 0.340201
v 0.112303 0.049050 0.344064
v 0.245588 0.099474 0.067501
v 0.251844 0.099779 0.070626
v 0.246719 0.106106 0.069432
v 0.111172 0.042417 0.342133
v 0.112303 0.049050 0.344064
v 0.117428 0.042723 0.345258
v 0.245588 0.099474 0.067501
v 0.248323 0.093030 0.067501
v 0.251844 0.099779 0.070626
v 0.111172 0.042417 0.342133
v 0.117428 0.042723 0.345258
v 0.113907 0.035974 0.342133
v -0.075889 0.039329 -0.085530
v -0.078912 0.035359 -0.078987
v -0.222023 0.215412 -0.035869
v -0.219000 0.219382 -0.042413
v -0.078912 0.035359 -0.078987
v -0.085330 0.030856 -0.081486
v -0.228441 0.210910 -0.038368
v -0.222023 0.215412 -0.035869
v -0.085330 0.030856 -0.081486
v -0.086274 0.032043 -0.089574
v -0.229385 0.212097 -0.046457
v -0.228441 0.210910 -0.038368
v -0.086274 0.032043 -0.089574
v -0.080439 0.037280 -0.092073
v -0.223550 0.217333 -0.048956
v -0.229385 0.212097 -0.046457
v -0.080439 0.037280 -0.092073
v -0.075889 0.039329 -0.085530
v -0.219000 0.219382 -0.042413
v -0.223550 0.217333 -0.048956
v -0.081369 0.034973 -0.085530
v -0.078912 0.035359 -0.078987
v -0.075889 0.039329 -0.085530
v -0.224480 0.215027 -0.042413
v -0.219000 0.219382 -0.042413
v -0.222023 0.215412 -0.035869
v -0.081369 0.034973 -0.085530
v -0.085330 0.030856 -0.081486
v -0.078912 0.035359 -0.078987
v -0.224480 0.215027 -0.042413
v -0.222023 0.215412 -0.035869
v -0.228441 0.210910 -0.038368
v -0.081369 0.034973 -0.085530
v -0.086274 0.032043 -0.089574
v -0.085330 0.030856 -0.081486
v -0.224480 0.215027 -0.042413
v -0.228441 0.210910 -0.038368
v -0.229385 0.212097 -0.046457
v -0.081369 0.034973 -0.085530
v -0.080439 0.037280 -0.092073
v -0.086274 0.032043 -0.089574
v -0.224480 0.215027 -0.042413
v -0.229385 0.212097 -0.046457
v -0.223550 0.217333 -0.048956
v -0.081369 0.034973 -0.085530
v -0.075889 0.039329 -0.085530
v -0.080439 0.037280 -0.092073
v -0.224480 0.215027 -0.042413
v -0.223550 0.217333 -0.048956
v -0.219000 0.219382 -0.042413
v -0.139510 0.072000 -0.080848
v -0.086946 0.079550 -0.122296
v -0.016142 -0.025604 -0.111607
v -0.073641 0.079550 -0.068930
v -0.048034 0.008556 -0.157257
v -0.052567 0.014671 -0.160383
v -0.115539 0.030372 -0.038324
v -0.111006 0.024256 -0.035199
v -0.052567 0.014671 -0.160383
v -0.048495 0.021721 -0.159189
v -0.111467 0.037422 -0.037130
v -0.115539 0.030372 -0.038324
v -0.048495 0.021721 -0.159189
v -0.041445 0.019964 -0.155326
v -0.104417 0.035664 -0.033267
v -0.111467 0.037422 -0.037130
v -0.041445 0.019964 -0.155326
v -0.041160 0.011827 -0.154132
v -0.104132 0.027527 -0.032073
v -0.104417 0.035664 -0.033267
v -0.041160 0.011827 -0.154132
v -0.048034 0.008556 -0.157257
v -0.111006 0.024256 -0.035199
v -0.104132 0.027527 -0.032073
v -0.046340 0.015348 -0.157257
v -0.052567 0.014671 -0.160383
v -0.048034 0.008556 -0.157257
v -0.109312 0.031048 -0.035199
v -0.111006 0.024256 -0.035199
v -0.115539 0.030372 -0.038324
v -0.046340 0.015348 -0.157257
v -0.048495 0.021721 -0.159189
v -0.052567 0.014671 -0.160383
v -0.109312 0.031048 -0.035199
v -0.115539 0.030372 -0.038324
v -0.111467 0.037422 -0.037130
v -0.046340 0.015348 -0.157257
v -0.041445 0.019964 -0.155326
v -0.048495 0.021721 -0.159189
v -0.109312 0.031048 -0.035199
v -0.111467 0.037422 -0.037130
v -0.104417 0.035664 -0.033267
v -0.046340 0.015348 -0.157257
v -0.041160 0.011827 -0.154132
v -0.041445 0.019964 -0.155326
v -0.109312 0.031048 -0.035199
v -0.104417 0.035664 -0.033267
v -0.104132 0.027527 -0.032073
v -0.046340 0.015348 -0.157257
v -0.048034 0.008556 -0.157257
v -0.041160 0.011827 -0.154132
v -0.109312 0.031048 -0.035199
v -0.104132 0.027527 -0.032073
v -0.111006 0.024256 -0.035199
v 0.096228 0.028688 -0.038506
v 0.091621 0.030384 -0.031902
v 0.256926 0.315996 0.010037
v 0.261533 0.314299 0.003433
v 0.091621 0.030384 -0.031902
v 0.085008 0.034582 -0.034425
v 0.250313 0.320194 0.007515
v 0.256926 0.315996 0.010037
v 0.085008 0.034582 -0.034425
v 0.085528 0.035480 -0.042588
v 0.250833 0.321092 -0.000649
v 0.250313 0.320194 0.007515
v 0.085528 0.035480 -0.042588
v 0.092462 0.031837 -0.045111
v 0.257767 0.317449 -0.003171
v 0.250833 0.321092 -0.000649
v 0.092462 0.031837 -0.045111
v 0.096228 0.028688 -0.038506
v 0.261533 0.314299 0.003433
v 0.257767 0.317449 -0.003171
v 0.090169 0.032194 -0.038506
v 0.091621 0.030384 -0.031902
v 0.096228 0.028688 -0.038506
v 0.255475 0.317806 0.003433
v 0.261533 0.314299 0.003433
v 0.256926 0.315996 0.010037
v 0.090169 0.032194 -0.038506
v 0.085008 0.034582 -0.034425
v 0.091621 0.030384 -0.031902
v 0.255475 0.317806 0.003433
v 0.256926 0.315996 0.010037
v 0.250313 0.320194 0.007515
v 0.090169 0.032194 -0.038506
v 0.085528 0.035480 -0.042588
v 0.085008 0.034582 -0.034425
v 0.255475 0.317806 0.003433
v 0.250313 0.320194 0.007515
v 0.250833 0.321092 -0.000649
v 0.090169 0.032194 -0.038506
v 0.092462 0.031837 -0.045111
v 0.085528 0.035480 -0.042588
v 0.255475 0.317806 0.003433
v 0.250833 0.321092 -0.000649
v 0.257767 0.317449 -0.003171
v 0.090169 0.032194 -0.038506
v 0.096228 0.028688 -0.038506
v 0.092462 0.031837 -0.045111
v 0.255475 0.317806 0.003433
v 0.257767 0.317449 -0.003171
v 0.261533 0.314299 0.003433
v 0.162318 0.102000 -0.035686
v 0.195356 0.096029 -0.120183
v 0.275672 -0.023772 -0.175666
v 0.238099 0.096029 -0.085570
v 0.242485 -0.001017 -0.192134
v 0.242545 0.006595 -0.195260
v 0.184684 0.078047 -0.022343
v 0.184625 0.070435 -0.019218
v 0.242545 0.006595 -0.195260
v 0.250040 0.009775 -0.194066
v 0.192179 0.081227 -0.021149
v 0.184684 0.078047 -0.022343
v 0.250040 0.009775 -0.194066
v 0.254612 0.004129 -0.190202
v 0.196752 0.075580 -0.017286
v 0.192179 0.081227 -0.021149
v 0.254612 0.004129 -0.190202
v 0.249943 -0.002541 -0.189009
v 0.192083 0.068910 -0.016092
v 0.196752 0.075580 -0.017286
v 0.249943 -0.002541 -0.189009
v 0.242485 -0.001017 -0.192134
v 0.184625 0.070435 -0.019218
v 0.192083 0.068910 -0.016092
v 0.247925 0.003388 -0.192134
v 0.242545 0.006595 -0.195260
v 0.242485 -0.001017 -0.192134
v 0.190065 0.074840 -0.019218
v 0.184625 0.070435 -0.019218
v 0.184684 0.078047 -0.022343
v 0.247925 0.003388 -0.192134
v 0.250040 0.009775 -0.194066
v 0.242545 0.006595 -0.195260
v 0.190065 0.074840 -0.019218
v 0.184684 0.078047 -0.022343
v 0.192179 0.081227 -0.021149
v 0.247925 0.003388 -0.192134
v 0.254612 0.004129 -0.190202
v 0.250040 0.009775 -0.194066
v 0.190065 0.074840 -0.019218
v 0.192179 0.081227 -0.021149
v 0.196752 0.075580 -0.017286
v 0.247925 0.003388 -0.192134
v 0.249943 -0.002541 -0.189009
v 0.254612 0.004129 -0.190202
v 0.190065 0.074840 -0.019218
v 0.196752 0.075580 -0.017286
v 0.192083 0.068910 -0.016092
v 0.247925 0.003388 -0.192134
v 0.242485 -0.001017 -0.192134
v 0.249943 -0.002541 -0.189009
v 0.190065 0.074840 -0.019218
v 0.192083 0.068910 -0.016092
v 0.184625 0.070435 -0.019218
vt 0.000000 0.000000
vt 1.000000 0.000000
vt 1.000000 1.000000
vt 0.000000 1.000000
vt 0.000000 0.000000
vt 1.000000 0.000000
vt 1.000000 1.000000
vt 0.000000 1.000000
vt 0.000000 0.000000
vt 1.000000 0.000000
vt 1.000000 1.000000
vt 0.000000 1.000000
vt 0.000000 0.000000
vt 1.000000 0.000000
vt 1.000000 1.000000
vt 0.000000 1.000000
vt 0.000000 0.000000
vt 1.000000 0.000000
vt 1.000000 1.000000
vt 0.000000 1.000000
vt 0.500000 0.500000
vt 0.000000 0.000000
vt 1.000000 0.000000
vt 0.500000 0.500000
vt 0.000000 1.000000
vt 1.000000 1.000000
vt 0.500000 0.500000
vt 0.000000 0.000000
vt 1.000000 0.000000
vt 0.500000 0.500000
vt 0.000000 1.000000
vt 1.000000 1.000000
vt 0.500000 0.500000
vt 0.000000 0.000000
vt 1.000000 0.000000
vt 0.500000 0.500000
vt 0.000000 1.000000
vt 1.000000 1.000000
vt 0.500000 0.500000
vt 0.000000 0.000000
vt 1.000000 0.000000
vt 0.500000 0.500000
vt 0.000000 1.000000
vt 1.000000 1.000000
vt 0.500000 0.500000
vt 0.000000 0.000000
vt 1.000000 0.000000
vt 0.500000 0.500000
vt 0.000000 1.000000
vt 1.000000 1.000000
vt 0.000000 0.500000
vt 0.480000 1.000000
vt 1.000000 0.500000
vt 0.480000 0.000000
vt 0.000000 0.000000
vt 1.000000 0.000000
vt 1.000000 1.000000
vt 0.000000 1.000000
vt 0.000000 0.000000
vt 1.000000 0.000000
vt 1.000000 1.000000
vt 0.000000 1.000000
vt 0.000000 0.000000
vt 1.000000 0.000000
vt 1.000000 1.000000
vt 0.000000 1.000000
vt 0.000000 0.000000
vt 1.000000 0.000000
vt 1.000000 1.000000
vt 0.000000 1.000000
vt 0.000000 0.000000
vt 1.000000 0.000000
vt 1.000000 1.000000
vt 0.000000 1.000000
vt 0.500000 0.500000
vt 0.000000 0.000000
vt 1.000000 0.000000
vt 0.500000 0.500000
vt 0.000000 1.000000
vt 1.000000 1.000000
vt 0.500000 0.500000
vt 0.000000 0.000000
vt 1.000000 0.000000
vt 0.500000 0.500000
vt 0.000000 1.000000
vt 1.000000 1.000000
vt 0.500000 0.500000
vt 0.000000 0.000000
vt 1.000000 0.000000
vt 0.500000 0.500000
vt 0.000000 1.000000
vt 1.000000 1.000000
vt 0.500000 0.500000
vt 0.000000 0.000000
vt 1.000000 0.000000
vt 0.500000 0.500000
vt 0.000000 1.000000
vt 1.000000 1.000000
vt 0.500000 0.500000
vt 0.000000 0.000000
vt 1.000000 0.000000
vt 0.500000 0.500000
vt 0.000000 1.000000
vt 1.000000 1.000000
vt 0.000000 0.000000
vt 1.000000 0.000000
vt 1.000000 1.000000
vt 0.000000 1.000000
vt 0.000000 0.000000
vt 1.000000 0.000000
vt 1.000000 1.000000
vt 0.000000 1.000000
vt 0.000000 0.000000
vt 1.000000 0.000000
vt 1.000000 1.000000
vt 0.000000 1.000000
vt 0.000000 0.000000
vt 1.000000 0.000000
vt 1.000000 1.000000
vt 0.000000 1.000000
vt 0.000000 0.000000
vt 1.000000 0.000000
vt 1.000000 1.000000
vt 0.000000 1.000000
vt 0.500000 0.500000
vt 0.000000 0.000000
vt 1.000000 0.000000
vt 0.500000 0.500000
vt 0.000000 1.000000
vt 1.000000 1.000000
vt 0.500000 0.500000
vt 0.000000 0.000000
vt 1.000000 0.000000
vt 0.500000 0.500000
vt 0.000000 1.000000
vt 1.000000 1.000000
vt 0.500000 0.500000
vt 0.000000 0.000000
vt 1.000000 0.000000
vt 0.500000 0.500000
vt 0.000000 1.000000
vt 1.000000 1.000000
vt 0.500000 0.500000
vt 0.000000 0.000000
vt 1.000000 0.000000
vt 0.500000 0.500000
vt 0.000000 1.000000
vt 1.000000 1.000000
vt 0.500000 0.500000
vt 0.000000 0.000000
vt 1.000000 0.000000
vt 0.500000 0.500000
vt 0.000000 1.000000
vt 1.000000 1.000000
vt 0.000000 0.500000
vt 0.480000 1.000000
vt 1.000000 0.500000
vt 0.480000 0.000000
vt 0.000000 0.000000
vt 1.000000 0.000000
vt 1.000000 1.000000
vt 0.000000 1.000000
vt 0.000000 0.000000
vt 1.000000 0.000000
vt 1.000000 1.000000
vt 0.000000 1.000000
vt 0.000000 0.000000
vt 1.000000 0.000000
vt 1.000000 1.000000
vt 0.000000 1.000000
vt 0.000000 0.000000
vt 1.000000 0.000000
vt 1.000000 1.000000
vt 0.000000 1.000000
vt 0.000000 0.000000
vt 1.000000 0.000000
vt 1.000000 1.000000
vt 0.000000 1.000000
vt 0.500000 0.500000
vt 0.000000 0.000000
vt 1.000000 0.000000
vt 0.500000 0.500000
vt 0.000000 1.000000
vt 1.000000 1.000000
vt 0.500000 0.500000
vt 0.000000 0.000000
vt 1.000000 0.000000
vt 0.500000 0.500000
vt 0.000000 1.000000
vt 1.000000 1.000000
vt 0.500000 0.500000
vt 0.000000 0.000000
vt 1.000000 0.000000
vt 0.500000 0.500000
vt 0.000000 1.000000
vt 1.000000 1.000000
vt 0.500000 0.500000
vt 0.000000 0.000000
vt 1.000000 0.000000
vt 0.500000 0.500000
vt 0.000000 1.000000
vt 1.000000 1.000000
vt 0.500000 0.500000
vt 0.000000 0.000000
vt 1.000000 0.000000
vt 0.500000 0.500000
vt 0.000000 1.000000
vt 1.000000 1.000000
vt 0.000000 0.000000
vt 1.000000 0.000000
vt 1.000000 1.000000
vt 0.000000 1.000000
vt 0.000000 0.000000
vt 1.000000 0.000000
vt 1.000000 1.000000
vt 0.000000 1.000000
vt 0.000000 0.000000
vt 1.000000 0.000000
vt 1.000000 1.000000
vt 0.000000 1.000000
vt 0.000000 0.000000
vt 1.000000 0.000000
vt 1.000000 1.000000
vt 0.000000 1.000000
vt 0.000000 0.000000
vt 1.000000 0.000000
vt 1.000000 1.000000
vt 0.000000 1.000000
vt 0.500000 0.500000
vt 0.000000 0.000000
vt 1.000000 0.000000
vt 0.500000 0.500000
vt 0.000000 1.000000
vt 1.000000 1.000000
vt 0.500000 0.500000
vt 0.000000 0.000000
vt 1.000000 0.000000
vt 0.500000 0.500000
vt 0.000000 1.000000
vt 1.000000 1.000000
vt 0.500000 0.500000
vt 0.000000 0.000000
vt 1.000000 0.000000
vt 0.500000 0.500000
vt 0.000000 1.000000
vt 1.000000 1.000000
vt 0.500000 0.500000
vt 0.000000 0.000000
vt 1.000000 0.000000
vt 0.500000 0.500000
vt 0.000000 1.000000
vt 1.000000 1.000000
vt 0.500000 0.500000
vt 0.000000 0.000000
vt 1.000000 0.000000
vt 0.500000 0.500000
vt 0.000000 1.000000
vt 1.000000 1.000000
vt 0.000000 0.500000
vt 0.480000 1.000000
vt 1.000000 0.500000
vt 0.480000 0.000000
vt 0.000000 0.000000
vt 1.000000 0.000000
vt 1.000000 1.000000
vt 0.000000 1.000000
vt 0.000000 0.000000
vt 1.000000 0.000000
vt 1.000000 1.000000
vt 0.000000 1.000000
vt 0.000000 0.000000
vt 1.000000 0.000000
vt 1.000000 1.000000
vt 0.000000 1.000000
vt 0.000000 0.000000
vt 1.000000 0.000000
vt 1.000000 1.000000
vt 0.000000 1.000000
vt 0.000000 0.000000
vt 1.000000 0.000000
vt 1.000000 1.000000
vt 0.000000 1.000000
vt 0.500000 0.500000
vt 0.000000 0.000000
vt 1.000000 0.000000
vt 0.500000 0.500000
vt 0.000000 1.000000
vt 1.000000 1.000000
vt 0.500000 0.500000
vt 0.000000 0.000000
vt 1.000000 0.000000
vt 0.500000 0.500000
vt 0.000000 1.000000
vt 1.000000 1.000000
vt 0.500000 0.500000
vt 0.000000 0.000000
vt 1.000000 0.000000
vt 0.500000 0.500000
vt 0.000000 1.000000
vt 1.000000 1.000000
vt 0.500000 0.500000
vt 0.000000 0.000000
vt 1.000000 0.000000
vt 0.500000 0.500000
vt 0.000000 1.000000
vt 1.000000 1.000000
vt 0.500000 0.500000
vt 0.000000 0.000000
vt 1.000000 0.000000
vt 0.500000 0.500000
vt 0.000000 1.000000
vt 1.000000 1.000000
vt 0.000000 0.000000
vt 1.000000 0.000000
vt 1.000000 1.000000
vt 0.000000 1.000000
vt 0.000000 0.000000
vt 1.000000 0.000000
vt 1.000000 1.000000
vt 0.000000 1.000000
vt 0.000000 0.000000
vt 1.000000 0.000000
vt 1.000000 1.000000
vt 0.000000 1.000000
vt 0.000000 0.000000
vt 1.000000 0.000000
vt 1.000000 1.000000
vt 0.000000 1.000000
vt 0.000000 0.000000
vt 1.000000 0.000000
vt 1.000000 1.000000
vt 0.000000 1.000000
vt 0.500000 0.500000
vt 0.000000 0.000000
vt 1.000000 0.000000
vt 0.500000 0.500000
vt 0.000000 1.000000
vt 1.000000 1.000000
vt 0.500000 0.500000
vt 0.000000 0.000000
vt 1.000000 0.000000
vt 0.500000 0.500000
vt 0.000000 1.000000
vt 1.000000 1.000000
vt 0.500000 0.500000
vt 0.000000 0.000000
vt 1.000000 0.000000
vt 0.500000 0.500000
vt 0.000000 1.000000
vt 1.000000 1.000000
vt 0.500000 0.500000
vt 0.000000 0.000000
vt 1.000000 0.000000
vt 0.500000 0.500000
vt 0.000000 1.000000
vt 1.000000 1.000000
vt 0.500000 0.500000
vt 0.000000 0.000000
vt 1.000000 0.000000
vt 0.500000 0.500000
vt 0.000000 1.000000
vt 1.000000 1.000000
vt 0.000000 0.500000
vt 0.480000 1.000000
vt 1.000000 0.500000
vt 0.480000 0.000000
vt 0.000000 0.000000
vt 1.000000 0.000000
vt 1.000000 1.000000
vt 0.000000 1.000000
vt 0.000000 0.000000
vt 1.000000 0.000000
vt 1.000000 1.000000
vt 0.000000 1.000000
vt 0.000000 0.000000
vt 1.000000 0.000000
vt 1.000000 1.000000
vt 0.000000 1.000000
vt 0.000000 0.000000
vt 1.000000 0.000000
vt 1.000000 1.000000
vt 0.000000 1.000000
vt 0.000000 0.000000
vt 1.000000 0.000000
vt 1.000000 1.000000
vt 0.000000 1.000000
vt 0.500000 0.500000
vt 0.000000 0.000000
vt 1.000000 0.000000
vt 0.500000 0.500000
vt 0.000000 1.000000
vt 1.000000 1.000000
vt 0.500000 0.500000
vt 0.000000 0.000000
vt 1.000000 0.000000
vt 0.500000 0.500000
vt 0.000000 1.000000
vt 1.000000 1.000000
vt 0.500000 0.500000
vt 0.000000 0.000000
vt 1.000000 0.000000
vt 0.500000 0.500000
vt 0.000000 1.000000
vt 1.000000 1.000000
vt 0.500000 0.500000
vt 0.000000 0.000000
vt 1.000000 0.000000
vt 0.500000 0.500000
vt 0.000000 1.000000
vt 1.000000 1.000000
vt 0.500000 0.500000
vt 0.000000 0.000000
vt 1.000000 0.000000
vt 0.500000 0.500000
vt 0.000000 1.000000
vt 1.000000 1.000000
vt 0.000000 0.000000
vt 1.000000 0.000000
vt 1.000000 1.000000
vt 0.000000 1.000000
vt 0.000000 0.000000
vt 1.000000 0.000000
vt 1.000000 1.000000
vt 0.000000 1.000000
vt 0.000000 0.000000
vt 1.000000 0.000000
vt 1.000000 1.000000
vt 0.000000 1.000000
vt 0.000000 0.000000
vt 1.000000 0.000000
vt 1.000000 1.000000
vt 0.000000 1.000000
vt 0.000000 0.000000
vt 1.000000 0.000000
vt 1.000000 1.000000
vt 0.000000 1.000000
vt 0.500000 0.500000
vt 0.000000 0.000000
vt 1.000000 0.000000
vt 0.500000 0.500000
vt 0.000000 1.000000
vt 1.000000 1.000000
vt 0.500000 0.500000
vt 0.000000 0.000000
vt 1.000000 0.000000
vt 0.500000 0.500000
vt 0.000000 1.000000
vt 1.000000 1.000000
vt 0.500000 0.500000
vt 0.000000 0.000000
vt 1.000000 0.000000
vt 0.500000 0.500000
vt 0.000000 1.000000
vt 1.000000 1.000000
vt 0.500000 0.500000
vt 0.000000 0.000000
vt 1.000000 0.000000
vt 0.500000 0.500000
vt 0.000000 1.000000
vt 1.000000 1.000000
vt 0.500000 0.500000
vt 0.000000 0.000000
vt 1.000000 0.000000
vt 0.500000 0.500000
vt 0.000000 1.000000
vt 1.000000 1.000000
vt 0.000000 0.500000
vt 0.480000 1.000000
vt 1.000000 0.500000
vt 0.480000 0.000000
vt 0.000000 0.000000
vt 1.000000 0.000000
vt 1.000000 1.000000
vt 0.000000 1.000000
vt 0.000000 0.000000
vt 1.000000 0.000000
vt 1.000000 1.000000
vt 0.000000 1.000000
vt 0.000000 0.000000
vt 1.000000 0.000000
vt 1.000000 1.000000
vt 0.000000 1.000000
vt 0.000000 0.000000
vt 1.000000 0.000000
vt 1.000000 1.000000
vt 0.000000 1.000000
vt 0.000000 0.000000
vt 1.000000 0.000000
vt 1.000000 1.000000
vt 0.000000 1.000000
vt 0.500000 0.500000
vt 0.000000 0.000000
vt 1.000000 0.000000
vt 0.500000 0.500000
vt 0.000000 1.000000
vt 1.000000 1.000000
vt 0.500000 0.500000
vt 0.000000 0.000000
vt 1.000000 0.000000
vt 0.500000 0.500000
vt 0.000000 1.000000
vt 1.000000 1.000000
vt 0.500000 0.500000
vt 0.000000 0.000000
vt 1.000000 0.000000
vt 0.500000 0.500000
vt 0.000000 1.000000
vt 1.000000 1.000000
vt 0.500000 0.500000
vt 0.000000 0.000000
vt 1.000000 0.000000
vt 0.500000 0.500000
vt 0.000000 1.000000
vt 1.000000 1.000000
vt 0.500000 0.500000
vt 0.000000 0.000000
vt 1.000000 0.000000
vt 0.500000 0.500000
vt 0.000000 1.000000
vt 1.000000 1.000000
vt 0.000000 0.000000
vt 1.000000 0.000000
vt 1.000000 1.000000
vt 0.000000 1.000000
vt 0.000000 0.000000
vt 1.000000 0.000000
vt 1.000000 1.000000
vt 0.000000 1.000000
vt 0.000000 0.000000
vt 1.000000 0.000000
vt 1.000000 1.000000
vt 0.000000 1.000000
vt 0.000000 0.000000
vt 1.000000 0.000000
vt 1.000000 1.000000
vt 0.000000 1.000000
vt 0.000000 0.000000
vt 1.000000 0.000000
vt 1.000000 1.000000
vt 0.000000 1.000000
vt 0.500000 0.500000
vt 0.000000 0.000000
vt 1.000000 0.000000
vt 0.500000 0.500000
vt 0.000000 1.000000
vt 1.000000 1.000000
vt 0.500000 0.500000
vt 0.000000 0.000000
vt 1.000000 0.000000
vt 0.500000 0.500000
vt 0.000000 1.000000
vt 1.000000 1.000000
vt 0.500000 0.500000
vt 0.000000 0.000000
vt 1.000000 0.000000
vt 0.500000 0.500000
vt 0.000000 1.000000
vt 1.000000 1.000000
vt 0.500000 0.500000
vt 0.000000 0.000000
vt 1.000000 0.000000
vt 0.500000 0.500000
vt 0.000000 1.000000
vt 1.000000 1.000000
vt 0.500000 0.500000
vt 0.000000 0.000000
vt 1.000000 0.000000
vt 0.500000 0.500000
vt 0.000000 1.000000
vt 1.000000 1.000000
vt 0.000000 0.500000
vt 0.480000 1.000000
vt 1.000000 0.500000
vt 0.480000 0.000000
vt 0.000000 0.000000
vt 1.000000 0.000000
vt 1.000000 1.000000
vt 0.000000 1.000000
vt 0.000000 0.000000
vt 1.000000 0.000000
vt 1.000000 1.000000
vt 0.000000 1.000000
vt 0.000000 0.000000
vt 1.000000 0.000000
vt 1.000000 1.000000
vt 0.000000 1.000000
vt 0.000000 0.000000
vt 1.000000 0.000000
vt 1.000000 1.000000
vt 0.000000 1.000000
vt 0.000000 0.000000
vt 1.000000 0.000000
vt 1.000000 1.000000
vt 0.000000 1.000000
vt 0.500000 0.500000
vt 0.000000 0.000000
vt 1.000000 0.000000
vt 0.500000 0.500000
vt 0.000000 1.000000
vt 1.000000 1.000000
vt 0.500000 0.500000
vt 0.000000 0.000000
vt 1.000000 0.000000
vt 0.500000 0.500000
vt 0.000000 1.000000
vt 1.000000 1.000000
vt 0.500000 0.500000
vt 0.000000 0.000000
vt 1.000000 0.000000
vt 0.500000 0.500000
vt 0.000000 1.000000
vt 1.000000 1.000000
vt 0.500000 0.500000
vt 0.000000 0.000000
vt 1.000000 0.000000
vt 0.500000 0.500000
vt 0.000000 1.000000
vt 1.000000 1.000000
vt 0.500000 0.500000
vt 0.000000 0.000000
vt 1.000000 0.000000
vt 0.500000 0.500000
vt 0.000000 1.000000
vt 1.000000 1.000000
vt 0.000000 0.000000
vt 1.000000 0.000000
vt 1.000000 1.000000
vt 0.000000 1.000000
vt 0.000000 0.000000
vt 1.000000 0.000000
vt 1.000000 1.000000
vt 0.000000 1.000000
vt 0.000000 0.000000
vt 1.000000 0.000000
vt 1.000000 1.000000
vt 0.000000 1.000000
vt 0.000000 0.000000
vt 1.000000 0.000000
vt 1.000000 1.000000
vt 0.000000 1.000000
vt 0.000000 0.000000
vt 1.000000 0.000000
vt 1.000000 1.000000
vt 0.000000 1.000000
vt 0.500000 0.500000
vt 0.000000 0.000000
vt 1.000000 0.000000
vt 0.500000 0.500000
vt 0.000000 1.000000
vt 1.000000 1.000000
vt 0.500000 0.500000
vt 0.000000 0.000000
vt 1.000000 0.000000
vt 0.500000 0.500000
vt 0.000000 1.000000
vt 1.000000 1.000000
vt 0.500000 0.500000
vt 0.000000 0.000000
vt 1.000000 0.000000
vt 0.500000 0.500000
vt 0.000000 1.000000
vt 1.000000 1.000000
vt 0.500000 0.500000
vt 0.000000 0.000000
vt 1.000000 0.000000
vt 0.500000 0.500000
vt 0.000000 1.000000
vt 1.000000 1.000000
vt 0.500000 0.500000
vt 0.000000 0.000000
vt 1.000000 0.000000
vt 0.500000 0.500000
vt 0.000000 1.000000
vt 1.000000 1.000000
vt 0.000000 0.500000
vt 0.480000 1.000000
vt 1.000000 0.500000
vt 0.480000 0.000000
vt 0.000000 0.000000
vt 1.000000 0.000000
vt 1.000000 1.000000
vt 0.000000 1.000000
vt 0.000000 0.000000
vt 1.000000 0.000000
vt 1.000000 1.000000
vt 0.000000 1.000000
vt 0.000000 0.000000
vt 1.000000 0.000000
vt 1.000000 1.000000
vt 0.000000 1.000000
vt 0.000000 0.000000
vt 1.000000 0.000000
vt 1.000000 1.000000
vt 0.000000 1.000000
vt 0.000000 0.000000
vt 1.000000 0.000000
vt 1.000000 1.000000
vt 0.000000 1.000000
vt 0.500000 0.500000
vt 0.000000 0.000000
vt 1.000000 0.000000
vt 0.500000 0.500000
vt 0.000000 1.000000
vt 1.000000 1.000000
vt 0.500000 0.500000
vt 0.000000 0.000000
vt 1.000000 0.000000
vt 0.500000 0.500000
vt 0.000000 1.000000
vt 1.000000 1.000000
vt 0.500000 0.500000
vt 0.000000 0.000000
vt 1.000000 0.000000
vt 0.500000 0.500000
vt 0.000000 1.000000
vt 1.000000 1.000000
vt 0.500000 0.500000
vt 0.000000 0.000000
vt 1.000000 0.000000
vt 0.500000 0.500000
vt 0.000000 1.000000
vt 1.000000 1.000000
vt 0.500000 0.500000
vt 0.000000 0.000000
vt 1.000000 0.000000
vt 0.500000 0.500000
vt 0.000000 1.000000
vt 1.000000 1.000000
vt 0.000000 0.000000
vt 1.000000 0.000000
vt 1.000000 1.000000
vt 0.000000 1.000000
vt 0.000000 0.000000
vt 1.000000 0.000000
vt 1.000000 1.000000
vt 0.000000 1.000000
vt 0.000000 0.000000
vt 1.000000 0.000000
vt 1.000000 1.000000
vt 0.000000 1.000000
vt 0.000000 0.000000
vt 1.000000 0.000000
vt 1.000000 1.000000
vt 0.000000 1.000000
vt 0.000000 0.000000
vt 1.000000 0.000000
vt 1.000000 1.000000
vt 0.000000 1.000000
vt 0.500000 0.500000
vt 0.000000 0.000000
vt 1.000000 0.000000
vt 0.500000 0.500000
vt 0.000000 1.000000
vt 1.000000 1.000000
vt 0.500000 0.500000
vt 0.000000 0.000000
vt 1.000000 0.000000
vt 0.500000 0.500000
vt 0.000000 1.000000
vt 1.000000 1.000000
vt 0.500000 0.500000
vt 0.000000 0.000000
vt 1.000000 0.000000
vt 0.500000 0.500000
vt 0.000000 1.000000
vt 1.000000 1.000000
vt 0.500000 0.500000
vt 0.000000 0.000000
vt 1.000000 0.000000
vt 0.500000 0.500000
vt 0.000000 1.000000
vt 1.000000 1.000000
vt 0.500000 0.500000
vt 0.000000 0.000000
vt 1.000000 0.000000
vt 0.500000 0.500000
vt 0.000000 1.000000
vt 1.000000 1.000000
vt 0.000000 0.500000
vt 0.480000 1.000000
vt 1.000000 0.500000
vt 0.480000 0.000000
vt 0.000000 0.000000
vt 1.000000 0.000000
vt 1.000000 1.000000
vt 0.000000 1.000000
vt 0.000000 0.000000
vt 1.000000 0.000000
vt 1.000000 1.000000
vt 0.000000 1.000000
vt 0.000000 0.000000
vt 1.000000 0.000000
vt 1.000000 1.000000
vt 0.000000 1.000000
vt 0.000000 0.000000
vt 1.000000 0.000000
vt 1.000000 1.000000
vt 0.000000 1.000000
vt 0.000000 0.000000
vt 1.000000 0.000000
vt 1.000000 1.000000
vt 0.000000 1.000000
vt 0.500000 0.500000
vt 0.000000 0.000000
vt 1.000000 0.000000
vt 0.500000 0.500000
vt 0.000000 1.000000
vt 1.000000 1.000000
vt 0.500000 0.500000
vt 0.000000 0.000000
vt 1.000000 0.000000
vt 0.500000 0.500000
vt 0.000000 1.000000
vt 1.000000 1.000000
vt 0.500000 0.500000
vt 0.000000 0.000000
vt 1.000000 0.000000
vt 0.500000 0.500000
vt 0.000000 1.000000
vt 1.000000 1.000000
vt 0.500000 0.500000
vt 0.000000 0.000000
vt 1.000000 0.000000
vt 0.500000 0.500000
vt 0.000000 1.000000
vt 1.000000 1.000000
vt 0.500000 0.500000
vt 0.000000 0.000000
vt 1.000000 0.000000
vt 0.500000 0.500000
vt 0.000000 1.000000
vt 1.000000 1.000000
vt 0.000000 0.000000
vt 1.000000 0.000000
vt 1.000000 1.000000
vt 0.000000 1.000000
vt 0.000000 0.000000
vt 1.000000 0.000000
vt 1.000000 1.000000
vt 0.000000 1.000000
vt 0.000000 0.000000
vt 1.000000 0.000000
vt 1.000000 1.000000
vt 0.000000 1.000000
vt 0.000000 0.000000
vt 1.000000 0.000000
vt 1.000000 1.000000
vt 0.000000 1.000000
vt 0.000000 0.000000
vt 1.000000 0.000000
vt 1.000000 1.000000
vt 0.000000 1.000000
vt 0.500000 0.500000
vt 0.000000 0.000000
vt 1.000000 0.000000
vt 0.500000 0.500000
vt 0.000000 1.000000
vt 1.000000 1.000000
vt 0.500000 0.500000
vt 0.000000 0.000000
vt 1.000000 0.000000
vt 0.500000 0.500000
vt 0.000000 1.000000
vt 1.000000 1.000000
vt 0.500000 0.500000
vt 0.000000 0.000000
vt 1.000000 0.000000
vt 0.500000 0.500000
vt 0.000000 1.000000
vt 1.000000 1.000000
vt 0.500000 0.500000
vt 0.000000 0.000000
vt 1.000000 0.000000
vt 0.500000 0.500000
vt 0.000000 1.000000
vt 1.000000 1.000000
vt 0.500000 0.500000
vt 0.000000 0.000000
vt 1.000000 0.000000
vt 0.500000 0.500000
vt 0.000000 1.000000
vt 1.000000 1.000000
vt 0.000000 0.500000
vt 0.480000 1.000000
vt 1.000000 0.500000
vt 0.480000 0.000000
vt 0.000000 0.000000
vt 1.000000 0.000000
vt 1.000000 1.000000
vt 0.000000 1.000000
vt 0.000000 0.000000
vt 1.000000 0.000000
vt 1.000000 1.000000
vt 0.000000 1.000000
vt 0.000000 0.000000
vt 1.000000 0.000000
vt 1.000000 1.000000
vt 0.000000 1.000000
vt 0.000000 0.000000
vt 1.000000 0.000000
vt 1.000000 1.000000
vt 0.000000 1.000000
vt 0.000000 0.000000
vt 1.000000 0.000000
vt 1.000000 1.000000
vt 0.000000 1.000000
vt 0.500000 0.500000
vt 0.000000 0.000000
vt 1.000000 0.000000
vt 0.500000 0.500000
vt 0.000000 1.000000
vt 1.000000 1.000000
vt 0.500000 0.500000
vt 0.000000 0.000000
vt 1.000000 0.000000
vt 0.500000 0.500000
vt 0.000000 1.000000
vt 1.000000 1.000000
vt 0.500000 0.500000
vt 0.000000 0.000000
vt 1.000000 0.000000
vt 0.500000 0.500000
vt 0.000000 1.000000
vt 1.000000 1.000000
vt 0.500000 0.500000
vt 0.000000 0.000000
vt 1.000000 0.000000
vt 0.500000 0.500000
vt 0.000000 1.000000
vt 1.000000 1.000000
vt 0.500000 0.500000
vt 0.000000 0.000000
vt 1.000000 0.000000
vt 0.500000 0.500000
vt 0.000000 1.000000
vt 1.000000 1.000000
vt 0.000000 0.000000
vt 1.000000 0.000000
vt 1.000000 1.000000
vt 0.000000 1.000000
vt 0.000000 0.000000
vt 1.000000 0.000000
vt 1.000000 1.000000
vt 0.000000 1.000000
vt 0.000000 0.000000
vt 1.000000 0.000000
vt 1.000000 1.000000
vt 0.000000 1.000000
vt 0.000000 0.000000
vt 1.000000 0.000000
vt 1.000000 1.000000
vt 0.000000 1.000000
vt 0.000000 0.000000
vt 1.000000 0.000000
vt 1.000000 1.000000
vt 0.000000 1.000000
vt 0.500000 0.500000
vt 0.000000 0.000000
vt 1.000000 0.000000
vt 0.500000 0.500000
vt 0.000000 1.000000
vt 1.000000 1.000000
vt 0.500000 0.500000
vt 0.000000 0.000000
vt 1.000000 0.000000
vt 0.500000 0.500000
vt 0.000000 1.000000
vt 1.000000 1.000000
vt 0.500000 0.500000
vt 0.000000 0.000000
vt 1.000000 0.000000
vt 0.500000 0.500000
vt 0.000000 1.000000
vt 1.000000 1.000000
vt 0.500000 0.500000
vt 0.000000 0.000000
vt 1.000000 0.000000
vt 0.500000 0.500000
vt 0.000000 1.000000
vt 1.000000 1.000000
vt 0.500000 0.500000
vt 0.000000 0.000000
vt 1.000000 0.000000
vt 0.500000 0.500000
vt 0.000000 1.000000
vt 1.000000 1.000000
vt 0.000000 0.500000
vt 0.480000 1.000000
vt 1.000000 0.500000
vt 0.480000 0.000000
vt 0.000000 0.000000
vt 1.000000 0.000000
vt 1.000000 1.000000
vt 0.000000 1.000000
vt 0.000000 0.000000
vt 1.000000 0.000000
vt 1.000000 1.000000
vt 0.000000 1.000000
vt 0.000000 0.000000
vt 1.000000 0.000000
vt 1.000000 1.000000
vt 0.000000 1.000000
vt 0.000000 0.000000
vt 1.000000 0.000000
vt 1.000000 1.000000
vt 0.000000 1.000000
vt 0.000000 0.000000
vt 1.000000 0.000000
vt 1.000000 1.000000
vt 0.000000 1.000000
vt 0.500000 0.500000
vt 0.000000 0.000000
vt 1.000000 0.000000
vt 0.500000 0.500000
vt 0.000000 1.000000
vt 1.000000 1.000000
vt 0.500000 0.500000
vt 0.000000 0.000000
vt 1.000000 0.000000
vt 0.500000 0.500000
vt 0.000000 1.000000
vt 1.000000 1.000000
vt 0.500000 0.500000
vt 0.000000 0.000000
vt 1.000000 0.000000
vt 0.500000 0.500000
vt 0.000000 1.000000
vt 1.000000 1.000000
vt 0.500000 0.500000
vt 0.000000 0.000000
vt 1.000000 0.000000
vt 0.500000 0.500000
vt 0.000000 1.000000
vt 1.000000 1.000000
vt 0.500000 0.500000
vt 0.000000 0.000000
vt 1.000000 0.000000
vt 0.500000 0.500000
vt 0.000000 1.000000
vt 1.000000 1.000000
vt 0.000000 0.000000
vt 1.000000 0.000000
vt 1.000000 1.000000
vt 0.000000 1.000000
vt 0.000000 0.000000
vt 1.000000 0.000000
vt 1.000000 1.000000
vt 0.000000 1.000000
vt 0.000000 0.000000
vt 1.000000 0.000000
vt 1.000000 1.000000
vt 0.000000 1.000000
vt 0.000000 0.000000
vt 1.000000 0.000000
vt 1.000000 1.000000
vt 0.000000 1.000000
vt 0.000000 0.000000
vt 1.000000 0.000000
vt 1.000000 1.000000
vt 0.000000 1.000000
vt 0.500000 0.500000
vt 0.000000 0.000000
vt 1.000000 0.000000
vt 0.500000 0.500000
vt 0.000000 1.000000
vt 1.000000 1.000000
vt 0.500000 0.500000
vt 0.000000 0.000000
vt 1.000000 0.000000
vt 0.500000 0.500000
vt 0.000000 1.000000
vt 1.000000 1.000000
vt 0.500000 0.500000
vt 0.000000 0.000000
vt 1.000000 0.000000
vt 0.500000 0.500000
vt 0.000000 1.000000
vt 1.000000 1.000000
vt 0.500000 0.500000
vt 0.000000 0.000000
vt 1.000000 0.000000
vt 0.500000 0.500000
vt 0.000000 1.000000
vt 1.000000 1.000000
vt 0.500000 0.500000
vt 0.000000 0.000000
vt 1.000000 0.000000
vt 0.500000 0.500000
vt 0.000000 1.000000
vt 1.000000 1.000000
vt 0.000000 0.500000
vt 0.480000 1.000000
vt 1.000000 0.500000
vt 0.480000 0.000000
vt 0.000000 0.000000
vt 1.000000 0.000000
vt 1.000000 1.000000
vt 0.000000 1.000000
vt 0.000000 0.000000
vt 1.000000 0.000000
vt 1.000000 1.000000
vt 0.000000 1.000000
vt 0.000000 0.000000
vt 1.000000 0.000000
vt 1.000000 1.000000
vt 0.000000 1.000000
vt 0.000000 0.000000
vt 1.000000 0.000000
vt 1.000000 1.000000
vt 0.000000 1.000000
vt 0.000000 0.000000
vt 1.000000 0.000000
vt 1.000000 1.000000
vt 0.000000 1.000000
vt 0.500000 0.500000
vt 0.000000 0.000000
vt 1.000000 0.000000
vt 0.500000 0.500000
vt 0.000000 1.000000
vt 1.000000 1.000000
vt 0.500000 0.500000
vt 0.000000 0.000000
vt 1.000000 0.000000
vt 0.500000 0.500000
vt 0.000000 1.000000
vt 1.000000 1.000000
vt 0.500000 0.500000
vt 0.000000 0.000000
vt 1.000000 0.000000
vt 0.500000 0.500000
vt 0.000000 1.000000
vt 1.000000 1.000000
vt 0.500000 0.500000
vt 0.000000 0.000000
vt 1.000000 0.000000
vt 0.500000 0.500000
vt 0.000000 1.000000
vt 1.000000 1.000000
vt 0.500000 0.500000
vt 0.000000 0.000000
vt 1.000000 0.000000
vt 0.500000 0.500000
vt 0.000000 1.000000
vt 1.000000 1.000000
vt 0.000000 0.000000
vt 1.000000 0.000000
vt 1.000000 1.000000
vt 0.000000 1.000000
vt 0.000000 0.000000
vt 1.000000 0.000000
vt 1.000000 1.000000
vt 0.000000 1.000000
vt 0.000000 0.000000
vt 1.000000 0.000000
vt 1.000000 1.000000
vt 0.000000 1.000000
vt 0.000000 0.000000
vt 1.000000 0.000000
vt 1.000000 1.000000
vt 0.000000 1.000000
vt 0.000000 0.000000
vt 1.000000 0.000000
vt 1.000000 1.000000
vt 0.000000 1.000000
vt 0.500000 0.500000
vt 0.000000 0.000000
vt 1.000000 0.000000
vt 0.500000 0.500000
vt 0.000000 1.000000
vt 1.000000 1.000000
vt 0.500000 0.500000
vt 0.000000 0.000000
vt 1.000000 0.000000
vt 0.500000 0.500000
vt 0.000000 1.000000
vt 1.000000 1.000000
vt 0.500000 0.500000
vt 0.000000 0.000000
vt 1.000000 0.000000
vt 0.500000 0.500000
vt 0.000000 1.000000
vt 1.000000 1.000000
vt 0.500000 0.500000
vt 0.000000 0.000000
vt 1.000000 0.000000
vt 0.500000 0.500000
vt 0.000000 1.000000
vt 1.000000 1.000000
vt 0.500000 0.500000
vt 0.000000 0.000000
vt 1.000000 0.000000
vt 0.500000 0.500000
vt 0.000000 1.000000
vt 1.000000 1.000000
vt 0.000000 0.500000
vt 0.480000 1.000000
vt 1.000000 0.500000
vt 0.480000 0.000000
vt 0.000000 0.000000
vt 1.000000 0.000000
vt 1.000000 1.000000
vt 0.000000 1.000000
vt 0.000000 0.000000
vt 1.000000 0.000000
vt 1.000000 1.000000
vt 0.000000 1.000000
vt 0.000000 0.000000
vt 1.000000 0.000000
vt 1.000000 1.000000
vt 0.000000 1.000000
vt 0.000000 0.000000
vt 1.000000 0.000000
vt 1.000000 1.000000
vt 0.000000 1.000000
vt 0.000000 0.000000
vt 1.000000 0.000000
vt 1.000000 1.000000
vt 0.000000 1.000000
vt 0.500000 0.500000
vt 0.000000 0.000000
vt 1.000000 0.000000
vt 0.500000 0.500000
vt 0.000000 1.000000
vt 1.000000 1.000000
vt 0.500000 0.500000
vt 0.000000 0.000000
vt 1.000000 0.000000
vt 0.500000 0.500000
vt 0.000000 1.000000
vt 1.000000 1.000000
vt 0.500000 0.500000
vt 0.000000 0.000000
vt 1.000000 0.000000
vt 0.500000 0.500000
vt 0.000000 1.000000
vt 1.000000 1.000000
vt 0.500000 0.500000
vt 0.000000 0.000000
vt 1.000000 0.000000
vt 0.500000 0.500000
vt 0.000000 1.000000
vt 1.000000 1.000000
vt 0.500000 0.500000
vt 0.000000 0.000000
vt 1.000000 0.000000
vt 0.500000 0.500000
vt 0.000000 1.000000
vt 1.000000 1.000000
vt 0.000000 0.000000
vt 1.000000 0.000000
vt 1.000000 1.000000
vt 0.000000 1.000000
vt 0.000000 0.000000
vt 1.000000 0.000000
vt 1.000000 1.000000
vt 0.000000 1.000000
vt 0.000000 0.000000
vt 1.000000 0.000000
vt 1.000000 1.000000
vt 0.000000 1.000000
vt 0.000000 0.000000
vt 1.000000 0.000000
vt 1.000000 1.000000
vt 0.000000 1.000000
vt 0.000000 0.000000
vt 1.000000 0.000000
vt 1.000000 1.000000
vt 0.000000 1.000000
vt 0.500000 0.500000
vt 0.000000 0.000000
vt 1.000000 0.000000
vt 0.500000 0.500000
vt 0.000000 1.000000
vt 1.000000 1.000000
vt 0.500000 0.500000
vt 0.000000 0.000000
vt 1.000000 0.000000
vt 0.500000 0.500000
vt 0.000000 1.000000
vt 1.000000 1.000000
vt 0.500000 0.500000
vt 0.000000 0.000000
vt 1.000000 0.000000
vt 0.500000 0.500000
vt 0.000000 1.000000
vt 1.000000 1.000000
vt 0.500000 0.500000
vt 0.000000 0.000000
vt 1.000000 0.000000
vt 0.500000 0.500000
vt 0.000000 1.000000
vt 1.000000 1.000000
vt 0.500000 0.500000
vt 0.000000 0.000000
vt 1.000000 0.000000
vt 0.500000 0.500000
vt 0.000000 1.000000
vt 1.000000 1.000000
vt 0.000000 0.500000
vt 0.480000 1.000000
vt 1.000000 0.500000
vt 0.480000 0.000000
vt 0.000000 0.000000
vt 1.000000 0.000000
vt 1.000000 1.000000
vt 0.000000 1.000000
vt 0.000000 0.000000
vt 1.000000 0.000000
vt 1.000000 1.000000
vt 0.000000 1.000000
vt 0.000000 0.000000
vt 1.000000 0.000000
vt 1.000000 1.000000
vt 0.000000 1.000000
vt 0.000000 0.000000
vt 1.000000 0.000000
vt 1.000000 1.000000
vt 0.000000 1.000000
vt 0.000000 0.000000
vt 1.000000 0.000000
vt 1.000000 1.000000
vt 0.000000 1.000000
vt 0.500000 0.500000
vt 0.000000 0.000000
vt 1.000000 0.000000
vt 0.500000 0.500000
vt 0.000000 1.000000
vt 1.000000 1.000000
vt 0.500000 0.500000
vt 0.000000 0.000000
vt 1.000000 0.000000
vt 0.500000 0.500000
vt 0.000000 1.000000
vt 1.000000 1.000000
vt 0.500000 0.500000
vt 0.000000 0.000000
vt 1.000000 0.000000
vt 0.500000 0.500000
vt 0.000000 1.000000
vt 1.000000 1.000000
vt 0.500000 0.500000
vt 0.000000 0.000000
vt 1.000000 0.000000
vt 0.500000 0.500000
vt 0.000000 1.000000
vt 1.000000 1.000000
vt 0.500000 0.500000
vt 0.000000 0.000000
vt 1.000000 0.000000
vt 0.500000 0.500000
vt 0.000000 1.000000
vt 1.000000 1.000000
vt 0.000000 0.000000
vt 1.000000 0.000000
vt 1.000000 1.000000
vt 0.000000 1.000000
vt 0.000000 0.000000
vt 1.000000 0.000000
vt 1.000000 1.000000
vt 0.000000 1.000000
vt 0.000000 0.000000
vt 1.000000 0.000000
vt 1.000000 1.000000
vt 0.000000 1.000000
vt 0.000000 0.000000
vt 1.000000 0.000000
vt 1.000000 1.000000
vt 0.000000 1.000000
vt 0.000000 0.000000
vt 1.000000 0.000000
vt 1.000000 1.000000
vt 0.000000 1.000000
vt 0.500000 0.500000
vt 0.000000 0.000000
vt 1.000000 0.000000
vt 0.500000 0.500000
vt 0.000000 1.000000
vt 1.000000 1.000000
vt 0.500000 0.500000
vt 0.000000 0.000000
vt 1.000000 0.000000
vt 0.500000 0.500000
vt 0.000000 1.000000
vt 1.000000 1.000000
vt 0.500000 0.500000
vt 0.000000 0.000000
vt 1.000000 0.000000
vt 0.500000 0.500000
vt 0.000000 1.000000
vt 1.000000 1.000000
vt 0.500000 0.500000
vt 0.000000 0.000000
vt 1.000000 0.000000
vt 0.500000 0.500000
vt 0.000000 1.000000
vt 1.000000 1.000000
vt 0.500000 0.500000
vt 0.000000 0.000000
vt 1.000000 0.000000
vt 0.500000 0.500000
vt 0.000000 1.000000
vt 1.000000 1.000000
vt 0.000000 0.500000
vt 0.480000 1.000000
vt 1.000000 0.500000
vt 0.480000 0.000000
vt 0.000000 0.000000
vt 1.000000 0.000000
vt 1.000000 1.000000
vt 0.000000 1.000000
vt 0.000000 0.000000
vt 1.000000 0.000000
vt 1.000000 1.000000
vt 0.000000 1.000000
vt 0.000000 0.000000
vt 1.000000 0.000000
vt 1.000000 1.000000
vt 0.000000 1.000000
vt 0.000000 0.000000
vt 1.000000 0.000000
vt 1.000000 1.000000
vt 0.000000 1.000000
vt 0.000000 0.000000
vt 1.000000 0.000000
vt 1.000000 1.000000
vt 0.000000 1.000000
vt 0.500000 0.500000
vt 0.000000 0.000000
vt 1.000000 0.000000
vt 0.500000 0.500000
vt 0.000000 1.000000
vt 1.000000 1.000000
vt 0.500000 0.500000
vt 0.000000 0.000000
vt 1.000000 0.000000
vt 0.500000 0.500000
vt 0.000000 1.000000
vt 1.000000 1.000000
vt 0.500000 0.500000
vt 0.000000 0.000000
vt 1.000000 0.000000
vt 0.500000 0.500000
vt 0.000000 1.000000
vt 1.000000 1.000000
vt 0.500000 0.500000
vt 0.000000 0.000000
vt 1.000000 0.000000
vt 0.500000 0.500000
vt 0.000000 1.000000
vt 1.000000 1.000000
vt 0.500000 0.500000
vt 0.000000 0.000000
vt 1.000000 0.000000
vt 0.500000 0.500000
vt 0.000000 1.000000
vt 1.000000 1.000000
usemtl Wood
f 1/1 2/2 3/3
f 1/1 3/3 4/4
f 5/5 6/6 7/7
f 5/5 7/7 8/8
f 9/9 10/10 11/11
f 9/9 11/11 12/12
f 13/13 14/14 15/15
f 13/13 15/15 16/16
f 17/17 18/18 19/19
f 17/17 19/19 20/20
f 21/21 22/22 23/23
f 24/24 25/25 26/26
f 27/27 28/28 29/29
f 30/30 31/31 32/32
f 33/33 34/34 35/35
f 36/36 37/37 38/38
f 39/39 40/40 41/41
f 42/42 43/43 44/44
f 45/45 46/46 47/47
f 48/48 49/49 50/50
usemtl Leaf
f 51/51 52/52 53/53
f 51/51 53/53 54/54
usemtl Wood
f 55/55 56/56 57/57
f 55/55 57/57 58/58
f 59/59 60/60 61/61
f 59/59 61/61 62/62
f 63/63 64/64 65/65
f 63/63 65/65 66/66
f 67/67 68/68 69/69
f 67/67 69/69 70/70
f 71/71 72/72 73/73
f 71/71 73/73 74/74
f 75/75 76/76 77/77
f 78/78 79/79 80/80
f 81/81 82/82 83/83
f 84/84 85/85 86/86
f 87/87 88/88 89/89
f 90/90 91/91 92/92
f 93/93 94/94 95/95
f 96/96 97/97 98/98
f 99/99 100/100 101/101
f 102/102 103/103 104/104
f 105/105 106/106 107/107
f 105/105 107/107 108/108
f 109/109 110/110 111/111
f 109/109 111/111 112/112
f 113/113 114/114 115/115
f 113/113 115/115 116/116
f 117/117 118/118 119/119
f 117/117 119/119 120/120
f 121/121 122/122 123/123
f 121/121 123/123 124/124
f 125/125 126/126 127/127
f 128/128 129/129 130/130
f 131/131 132/132 133/133
f 134/134 135/135 136/136
f 137/137 138/138 139/139
f 140/140 141/141 142/142
f 143/143 144/144 145/145
f 146/146 147/147 148/148
f 149/149 150/150 151/151
f 152/152 153/153 154/154
usemtl Leaf
f 155/155 156/156 157/157
f 155/155 157/157 158/158
usemtl Wood
f 159/159 160/160 161/161
f 159/159 161/161 162/162
f 163/163 164/164 165/165
f 163/163 165/165 166/166
f 167/167 168/168 169/169
f 167/167 169/169 170/170
f 171/171 172/172 173/173
f 171/171 173/173 174/174
f 175/175 176/176 177/177
f 175/175 177/177 178/178
f 179/179 180/180 181/181
f 182/182 183/183 184/184
f 185/185 186/186 187/187
f 188/188 189/189 190/190
f 191/191 192/192 193/193
f 194/194 195/195 196/196
f 197/197 198/198 199/199
f 200/200 201/201 202/202
f 203/203 204/204 205/205
f 206/206 207/207 208/208
f 209/209 210/210 211/211
f 209/209 211/211 212/212
f 213/213 214/214 215/215
f 213/213 215/215 216/216
f 217/217 218/218 219/219
f 217/217 219/219 220/220
f 221/221 222/222 223/223
f 221/221 223/223 224/224
f 225/225 226/226 227/227
f 225/225 227/227 228/228
f 229/229 230/230 231/231
f 232/232 233/233 234/234
f 235/235 236/236 237/237
f 238/238 239/239 240/240
f 241/241 242/242 243/243
f 244/244 245/245 246/246
f 247/247 248/248 249/249
f 250/250 251/251 252/252
f 253/253 254/254 255/255
f 256/256 257/257 258/258
usemtl Leaf
f 259/259 260/260 261/261
f 259/259 261/261 262/262
usemtl Wood
f 263/263 264/264 265/265
f 263/263 265/265 266/266
f 267/267 268/268 269/269
f 267/267 269/269 270/270
f 271/271 272/272 273/273
f 271/271 273/273 274/274
f 275/275 276/276 277/277
f 275/275 277/277 278/278
f 279/279 280/280 281/281
f 279/279 281/281 282/282
f 283/283 284/284 285/285
f 286/286 287/287 288/288
f 289/289 290/290 291/291
f 292/292 293/293 294/294
f 295/295 296/296 297/297
f 298/298 299/299 300/300
f 301/301 302/302 303/303
f 304/304 305/305 306/306
f 307/307 308/308 309/309
f 310/310 311/311 312/312
f 313/313 314/314 315/315
f 313/313 315/315 316/316
f 317/317 318/318 319/319
f 317/317 319/319 320/320
f 321/321 322/322 323/323
f 321/321 323/323 324/324
f 325/325 326/326 327/327
f 325/325 327/327 328/328
f 329/329 330/330 331/331
f 329/329 331/331 332/332
f 333/333 334/334 335/335
f 336/336 337/337 338/338
f 339/339 340/340 341/341
f 342/342 343/343 344/344
f 345/345 346/346 347/347
f 348/348 349/349 350/350
f 351/351 352/352 353/353
f 354/354 355/355 356/356
f 357/357 358/358 359/359
f 360/360 361/361 362/362
usemtl Leaf
f 363/363 364/364 365/365
f 363/363 365/365 366/366
usemtl Wood
f 367/367 368/368 369/369
f 367/367 369/369 370/370
f 371/371 372/372 373/373
f 371/371 373/373 374/374
f 375/375 376/376 377/377
f 375/375 377/377 378/378
f 379/379 380/380 381/381
f 379/379 381/381 382/382
f 383/383 384/384 385/385
f 383/383 385/385 386/386
f 387/387 388/388 389/389
f 390/390 391/391 392/392
f 393/393 394/394 395/395
f 396/396 397/397 398/398
f 399/399 400/400 401/401
f 402/402 403/403 404/404
f 405/405 406/406 407/407
f 408/408 409/409 410/410
f 411/411 412/412 413/413
f 414/414 415/415 416/416
f 417/417 418/418 419/419
f 417/417 419/419 420/420
f 421/421 422/422 423/423
f 421/421 423/423 424/424
f 425/425 426/426 427/427
f 425/425 427/427 428/428
f 429/429 430/430 431/431
f 429/429 431/431 432/432
f 433/433 434/434 435/435
f 433/433 435/435 436/436
f 437/437 438/438 439/439
f 440/440 441/441 442/442
f 443/443 444/444 445/445
f 446/446 447/447 448/448
f 449/449 450/450 451/451
f 452/452 453/453 454/454
f 455/455 456/456 457/457
f 458/458 459/459 460/460
f 461/461 462/462 463/463
f 464/464 465/465 466/466
usemtl Leaf
f 467/467 468/468 469/469
f 467/467 469/469 470/470
usemtl Wood
f 471/471 472/472 473/473
f 471/471 473/473 474/474
f 475/475 476/476 477/477
f 475/475 477/477 478/478
f 479/479 480/480 481/481
f 479/479 481/481 482/482
f 483/483 484/484 485/485
f 483/483 485/485 486/486
f 487/487 488/488 489/489
f 487/487 489/489 490/490
f 491/491 492/492 493/493
f 494/494 495/495 496/496
f 497/497 498/498 499/499
f 500/500 501/501 502/502
f 503/503 504/504 505/505
f 506/506 507/507 508/508
f 509/509 510/510 511/511
f 512/512 513/513 514/514
f 515/515 516/516 517/517
f 518/518 519/519 520/520
f 521/521 522/522 523/523
f 521/521 523/523 524/524
f 525/525 526/526 527/527
f 525/525 527/527 528/528
f 529/529 530/530 531/531
f 529/529 531/531 532/532
f 533/533 534/534 535/535
f 533/533 535/535 536/536
f 537/537 538/538 539/539
f 537/537 539/539 540/540
f 541/541 542/542 543/543
f 544/544 545/545 546/546
f 547/547 548/548 549/549
f 550/550 551/551 552/552
f 553/553 554/554 555/555
f 556/556 557/557 558/558
f 559/559 560/560 561/561
f 562/562 563/563 564/564
f 565/565 566/566 567/567
f 568/568 569/569 570/570
usemtl Leaf
f 571/571 572/572 573/573
f 571/571 573/573 574/574
usemtl Wood
f 575/575 576/576 577/577
f 575/575 577/577 578/578
f 579/579 580/580 581/581
f 579/579 581/581 582/582
f 583/583 584/584 585/585
f 583/583 585/585 586/586
f 587/587 588/588 589/589
f 587/587 589/589 590/590
f 591/591 592/592 593/593
f 591/591 593/593 594/594
f 595/595 596/596 597/597
f 598/598 599/599 600/600
f 601/601 602/602 603/603
f 604/604 605/605 606/606
f 607/607 608/608 609/609
f 610/610 611/611 612/612
f 613/613 614/614 615/615
f 616/616 617/617 618/618
f 619/619 620/620 621/621
f 622/622 623/623 624/624
f 625/625 626/626 627/627
f 625/625 627/627 628/628
f 629/629 630/630 631/631
f 629/629 631/631 632/632
f 633/633 634/634 635/635
f 633/633 635/635 636/636
f 637/637 638/638 639/639
f 637/637 639/639 640/640
f 641/641 642/642 643/643
f 641/641 643/643 644/644
f 645/645 646/646 647/647
f 648/648 649/649 650/650
f 651/651 652/652 653/653
f 654/654 655/655 656/656
f 657/657 658/658 659/659
f 660/660 661/661 662/662
f 663/663 664/664 665/665
f 666/666 667/667 668/668
f 669/669 670/670 671/671
f 672/672 673/673 674/674
usemtl Leaf
f 675/675 676/676 677/677
f 675/675 677/677 678/678
usemtl Wood
f 679/679 680/680 681/681
f 679/679 681/681 682/682
f 683/683 684/684 685/685
f 683/683 685/685 686/686
f 687/687 688/688 689/689
f 687/687 689/689 690/690
f 691/691 692/692 693/693
f 691/691 693/693 694/694
f 695/695 696/696 697/697
f 695/695 697/697 698/698
f 699/699 700/700 701/701
f 702/702 703/703 704/704
f 705/705 706/706 707/707
f 708/708 709/709 710/710
f 711/711 712/712 713/713
f 714/714 715/715 716/716
f 717/717 718/718 719/719
f 720/720 721/721 722/722
f 723/723 724/724 725/725
f 726/726 727/727 728/728
f 729/729 730/730 731/731
f 729/729 731/731 732/732
f 733/733 734/734 735/735
f 733/733 735/735 736/736
f 737/737 738/738 739/739
f 737/737 739/739 740/740
f 741/741 742/742 743/743
f 741/741 743/743 744/744
f 745/745 746/746 747/747
f 745/745 747/747 748/748
f 749/749 750/750 751/751
f 752/752 753/753 754/754
f 755/755 756/756 757/757
f 758/758 759/759 760/760
f 761/761 762/762 763/763
f 764/764 765/765 766/766
f 767/767 768/768 769/769
f 770/770 771/771 772/772
f 773/773 774/774 775/775
f 776/776 777/777 778/778
usemtl Leaf
f 779/779 780/780 781/781
f 779/779 781/781 782/782
usemtl Wood
f 783/783 784/784 785/785
f 783/783 785/785 786/786
f 787/787 788/788 789/789
f 787/787 789/789 790/790
f 791/791 792/792 793/793
f 791/791 793/793 794/794
f 795/795 796/796 797/797
f 795/795 797/797 798/798
f 799/799 800/800 801/801
f 799/799 801/801 802/802
f 803/803 804/804 805/805
f 806/806 807/807 808/808
f 809/809 810/810 811/811
f 812/812 813/813 814/814
f 815/815 816/816 817/817
f 818/818 819/819 820/820
f 821/821 822/822 823/823
f 824/824 825/825 826/826
f 827/827 828/828 829/829
f 830/830 831/831 832/832
f 833/833 834/834 835/835
f 833/833 835/835 836/836
f 837/837 838/838 839/839
f 837/837 839/839 840/840
f 841/841 842/842 843/843
f 841/841 843/843 844/844
f 845/845 846/846 847/847
f 845/845 847/847 848/848
f 849/849 850/850 851/851
f 849/849 851/851 852/852
f 853/853 854/854 855/855
f 856/856 857/857 858/858
f 859/859 860/860 861/861
f 862/862 863/863 864/864
f 865/865 866/866 867/867
f 868/868 869/869 870/870
f 871/871 872/872 873/873
f 874/874 875/875 876/876
f 877/877 878/878 879/879
f 880/880 881/881 882/882
usemtl Leaf
f 883/883 884/884 885/885
f 883/883 885/885 886/886
usemtl Wood
f 887/887 888/888 889/889
f 887/887 889/889 890/890
f 891/891 892/892 893/893
f 891/891 893/893 894/894
f 895/895 896/896 897/897
f 895/895 897/897 898/898
f 899/899 900/900 901/901
f 899/899 901/901 902/902
f 903/903 904/904 905/905
f 903/903 905/905 906/906
f 907/907 908/908 909/909
f 910/910 911/911 912/912
f 913/913 914/914 915/915
f 916/916 917/917 918/918
f 919/919 920/920 921/921
f 922/922 923/923 924/924
f 925/925 926/926 927/927
f 928/928 929/929 930/930
f 931/931 932/932 933/933
f 934/934 935/935 936/936
f 937/937 938/938 939/939
f 937/937 939/939 940/940
f 941/941 942/942 943/943
f 941/941 943/943 944/944
f 945/945 946/946 947/947
f 945/945 947/947 948/948
f 949/949 950/950 951/951
f 949/949 951/951 952/952
f 953/953 954/954 955/955
f 953/953 955/955 956/956
f 957/957 958/958 959/959
f 960/960 961/961 962/962
f 963/963 964/964 965/965
f 966/966 967/967 968/968
f 969/969 970/970 971/971
f 972/972 973/973 974/974
f 975/975 976/976 977/977
f 978/978 979/979 980/980
f 981/981 982/982 983/983
f 984/984 985/985 986/986
usemtl Leaf
f 987/987 988/988 989/989
f 987/987 989/989 990/990
usemtl Wood
f 991/991 992/992 993/993
f 991/991 993/993 994/994
f 995/995 996/996 997/997
f 995/995 997/997 998/998
f 999/999 1000/1000 1001/1001
f 999/999 1001/1001 1002/1002
f 1003/1003 1004/1004 1005/1005
f 1003/1003 1005/1005 1006/1006
f 1007/1007 1008/1008 1009/1009
f 1007/1007 1009/1009 1010/1010
f 1011/1011 1012/1012 1013/1013
f 1014/1014 1015/1015 1016/1016
f 1017/1017 1018/1018 1019/1019
f 1020/1020 1021/1021 1022/1022
f 1023/1023 1024/1024 1025/1025
f 1026/1026 1027/1027 1028/1028
f 1029/1029 1030/1030 1031/1031
f 1032/1032 1033/1033 1034/1034
f 1035/1035 1036/1036 1037/1037
f 1038/1038 1039/1039 1040/1040
f 1041/1041 1042/1042 1043/1043
f 1041/1041 1043/1043 1044/1044
f 1045/1045 1046/1046 1047/1047
f 1045/1045 1047/1047 1048/1048
f 1049/1049 1050/1050 1051/1051
f 1049/1049 1051/1051 1052/1052
f 1053/1053 1054/1054 1055/1055
f 1053/1053 1055/1055 1056/1056
f 1057/1057 1058/1058 1059/1059
f 1057/1057 1059/1059 1060/1060
f 1061/1061 1062/1062 1063/1063
f 1064/1064 1065/1065 1066/1066
f 1067/1067 1068/1068 1069/1069
f 1070/1070 1071/1071 1072/1072
f 1073/1073 1074/1074 1075/1075
f 1076/1076 1077/1077 1078/1078
f 1079/1079 1080/1080 1081/1081
f 1082/1082 1083/1083 1084/1084
f 1085/1085 1086/1086 1087/1087
f 1088/1088 1089/1089 1090/1090
usemtl Leaf
f 1091/1091 1092/1092 1093/1093
f 1091/1091 1093/1093 1094/1094
usemtl Wood
f 1095/1095 1096/1096 1097/1097
f 1095/1095 1097/1097 1098/1098
f 1099/1099 1100/1100 1101/1101
f 1099/1099 1101/1101 1102/1102
f 1103/1103 1104/1104 1105/1105
f 1103/1103 1105/1105 1106/1106
f 1107/1107 1108/1108 1109/1109
f 1107/1107 1109/1109 1110/1110
f 1111/1111 1112/1112 1113/1113
f 1111/1111 1113/1113 1114/1114
f 1115/1115 1116/1116 1117/1117
f 1118/1118 1119/1119 1120/1120
f 1121/1121 1122/1122 1123/1123
f 1124/1124 1125/1125 1126/1126
f 1127/1127 1128/1128 1129/1129
f 1130/1130 1131/1131 1132/1132
f 1133/1133 1134/1134 1135/1135
f 1136/1136 1137/1137 1138/1138
f 1139/1139 1140/1140 1141/1141
f 1142/1142 1143/1143 1144/1144
f 1145/1145 1146/1146 1147/1147
f 1145/1145 1147/1147 1148/1148
f 1149/1149 1150/1150 1151/1151
f 1149/1149 1151/1151 1152/1152
f 1153/1153 1154/1154 1155/1155
f 1153/1153 1155/1155 1156/1156
f 1157/1157 1158/1158 1159/1159
f 1157/1157 1159/1159 1160/1160
f 1161/1161 1162/1162 1163/1163
f 1161/1161 1163/1163 1164/1164
f 1165/1165 1166/1166 1167/1167
f 1168/1168 1169/1169 1170/1170
f 1171/1171 1172/1172 1173/1173
f 1174/1174 1175/1175 1176/1176
f 1177/1177 1178/1178 1179/1179
f 1180/1180 1181/1181 1182/1182
f 1183/1183 1184/1184 1185/1185
f 1186/1186 1187/1187 1188/1188
f 1189/1189 1190/1190 1191/1191
f 1192/1192 1193/1193 1194/1194
usemtl Leaf
f 1195/1195 1196/1196 1197/1197
f 1195/1195 1197/1197 1198/1198
usemtl Wood
f 1199/1199 1200/1200 1201/1201
f 1199/1199 1201/1201 1202/1202
f 1203/1203 1204/1204 1205/1205
f 1203/1203 1205/1205 1206/1206
f 1207/1207 1208/1208 1209/1209
f 1207/1207 1209/1209 1210/1210
f 1211/1211 1212/1212 1213/1213
f 1211/1211 1213/1213 1214/1214
f 1215/1215 1216/1216 1217/1217
f 1215/1215 1217/1217 1218/1218
f 1219/1219 1220/1220 1221/1221
f 1222/1222 1223/1223 1224/1224
f 1225/1225 1226/1226 1227/1227
f 1228/1228 1229/1229 1230/1230
f 1231/1231 1232/1232 1233/1233
f 1234/1234 1235/1235 1236/1236
f 1237/1237 1238/1238 1239/1239
f 1240/1240 1241/1241 1242/1242
f 1243/1243 1244/1244 1245/1245
f 1246/1246 1247/1247 1248/1248
f 1249/1249 1250/1250 1251/1251
f 1249/1249 1251/1251 1252/1252
f 1253/1253 1254/1254 1255/1255
f 1253/1253 1255/1255 1256/1256
f 1257/1257 1258/1258 1259/1259
f 1257/1257 1259/1259 1260/1260
f 1261/1261 1262/1262 1263/1263
f 1261/1261 1263/1263 1264/1264
f 1265/1265 1266/1266 1267/1267
f 1265/1265 1267/1267 1268/1268
f 1269/1269 1270/1270 1271/1271
f 1272/1272 1273/1273 1274/1274
f 1275/1275 1276/1276 1277/1277
f 1278/1278 1279/1279 1280/1280
f 1281/1281 1282/1282 1283/1283
f 1284/1284 1285/1285 1286/1286
f 1287/1287 1288/1288 1289/1289
f 1290/1290 1291/1291 1292/1292
f 1293/1293 1294/1294 1295/1295
f 1296/1296 1297/1297 1298/1298
usemtl Leaf
f 1299/1299 1300/1300 1301/1301
f 1299/1299 1301/1301 1302/1302
usemtl Wood
f 1303/1303 1304/1304 1305/1305
f 1303/1303 1305/1305 1306/1306
f 1307/1307 1308/1308 1309/1309
f 1307/1307 1309/1309 1310/1310
f 1311/1311 1312/1312 1313/1313
f 1311/1311 1313/1313 1314/1314
f 1315/1315 1316/1316 1317/1317
f 1315/1315 1317/1317 1318/1318
f 1319/1319 1320/1320 1321/1321
f 1319/1319 1321/1321 1322/1322
f 1323/1323 1324/1324 1325/1325
f 1326/1326 1327/1327 1328/1328
f 1329/1329 1330/1330 1331/1331
f 1332/1332 1333/1333 1334/1334
f 1335/1335 1336/1336 1337/1337
f 1338/1338 1339/1339 1340/1340
f 1341/1341 1342/1342 1343/1343
f 1344/1344 1345/1345 1346/1346
f 1347/1347 1348/1348 1349/1349
f 1350/1350 1351/1351 1352/1352
f 1353/1353 1354/1354 1355/1355
f 1353/1353 1355/1355 1356/1356
f 1357/1357 1358/1358 1359/1359
f 1357/1357 1359/1359 1360/1360
f 1361/1361 1362/1362 1363/1363
f 1361/1361 1363/1363 1364/1364
f 1365/1365 1366/1366 1367/1367
f 1365/1365 1367/1367 1368/1368
f 1369/1369 1370/1370 1371/1371
f 1369/1369 1371/1371 1372/1372
f 1373/1373 1374/1374 1375/1375
f 1376/1376 1377/1377 1378/1378
f 1379/1379 1380/1380 1381/1381
f 1382/1382 1383/1383 1384/1384
f 1385/1385 1386/1386 1387/1387
f 1388/1388 1389/1389 1390/1390
f 1391/1391 1392/1392 1393/1393
f 1394/1394 1395/1395 1396/1396
f 1397/1397 1398/1398 1399/1399
f 1400/1400 1401/1401 1402/1402
usemtl Leaf
f 1403/1403 1404/1404 1405/1405
f 1403/1403 1405/1405 1406/1406
usemtl Wood
f 1407/1407 1408/1408 1409/1409
f 1407/1407 1409/1409 1410/1410
f 1411/1411 1412/1412 1413/1413
f 1411/1411 1413/1413 1414/1414
f 1415/1415 1416/1416 1417/1417
f 1415/1415 1417/1417 1418/1418
f 1419/1419 1420/1420 1421/1421
f 1419/1419 1421/1421 1422/1422
f 1423/1423 1424/1424 1425/1425
f 1423/1423 1425/1425 1426/1426
f 1427/1427 1428/1428 1429/1429
f 1430/1430 1431/1431 1432/1432
f 1433/1433 1434/1434 1435/1435
f 1436/1436 1437/1437 1438/1438
f 1439/1439 1440/1440 1441/1441
f 1442/1442 1443/1443 1444/1444
f 1445/1445 1446/1446 1447/1447
f 1448/1448 1449/1449 1450/1450
f 1451/1451 1452/1452 1453/1453
f 1454/1454 1455/1455 1456/1456
