mtllib ../../Materials/project_oen.mtl
o en-002_broken_plank_pile__medium
v -0.696869 0.045977 -0.433569
v 0.030907 -0.004914 0.058520
v 0.035441 0.059927 0.058520
v -0.692335 0.110818 -0.433569
v -0.027665 -0.000818 0.145569
v -0.755441 0.050073 -0.346520
v -0.750907 0.114914 -0.346520
v -0.023131 0.064023 0.145569
v -0.755441 0.050073 -0.346520
v -0.696869 0.045977 -0.433569
v -0.692335 0.110818 -0.433569
v -0.750907 0.114914 -0.346520
v 0.030907 -0.004914 0.058520
v -0.027665 -0.000818 0.145569
v -0.023131 0.064023 0.145569
v 0.035441 0.059927 0.058520
v -0.692335 0.110818 -0.433569
v 0.035441 0.059927 0.058520
v -0.023131 0.064023 0.145569
v -0.750907 0.114914 -0.346520
v -0.755441 0.050073 -0.346520
v -0.027665 -0.000818 0.145569
v 0.030907 -0.004914 0.058520
v -0.696869 0.045977 -0.433569
v -0.219171 0.063663 -0.174000
v -0.223538 0.062574 -0.166206
v -0.247730 0.159603 -0.166206
v -0.243363 0.160692 -0.174000
v -0.223538 0.062574 -0.166206
v -0.232270 0.060397 -0.166206
v -0.256462 0.157426 -0.166206
v -0.247730 0.159603 -0.166206
v -0.232270 0.060397 -0.166206
v -0.236637 0.059308 -0.174000
v -0.260829 0.156337 -0.174000
v -0.256462 0.157426 -0.166206
v -0.236637 0.059308 -0.174000
v -0.232270 0.060397 -0.181794
v -0.256462 0.157426 -0.181794
v -0.260829 0.156337 -0.174000
v -0.232270 0.060397 -0.181794
v -0.223538 0.062574 -0.181794
v -0.247730 0.159603 -0.181794
v -0.256462 0.157426 -0.181794
v -0.223538 0.062574 -0.181794
v -0.219171 0.063663 -0.174000
v -0.243363 0.160692 -0.174000
v -0.247730 0.159603 -0.181794
v -0.227904 0.061485 -0.174000
v -0.223538 0.062574 -0.166206
v -0.219171 0.063663 -0.174000
v -0.252096 0.158515 -0.174000
v -0.243363 0.160692 -0.174000
v -0.247730 0.159603 -0.166206
v -0.227904 0.061485 -0.174000
v -0.232270 0.060397 -0.166206
v -0.223538 0.062574 -0.166206
v -0.252096 0.158515 -0.174000
v -0.247730 0.159603 -0.166206
v -0.256462 0.157426 -0.166206
v -0.227904 0.061485 -0.174000
v -0.236637 0.059308 -0.174000
v -0.232270 0.060397 -0.166206
v -0.252096 0.158515 -0.174000
v -0.256462 0.157426 -0.166206
v -0.260829 0.156337 -0.174000
v -0.227904 0.061485 -0.174000
v -0.232270 0.060397 -0.181794
v -0.236637 0.059308 -0.174000
v -0.252096 0.158515 -0.174000
v -0.260829 0.156337 -0.174000
v -0.256462 0.157426 -0.181794
v -0.227904 0.061485 -0.174000
v -0.223538 0.062574 -0.181794
v -0.232270 0.060397 -0.181794
v -0.252096 0.158515 -0.174000
v -0.256462 0.157426 -0.181794
v -0.247730 0.159603 -0.181794
v -0.227904 0.061485 -0.174000
v -0.219171 0.063663 -0.174000
v -0.223538 0.062574 -0.181794
v -0.252096 0.158515 -0.174000
v -0.247730 0.159603 -0.181794
v -0.243363 0.160692 -0.174000
v -0.710110 0.022500 -0.052311
v 0.527340 0.022500 -0.337998
v 0.527340 0.087500 -0.337998
v -0.710110 0.087500 -0.052311
v 0.550960 0.022500 -0.235689
v -0.686490 0.022500 0.049998
v -0.686490 0.087500 0.049998
v 0.550960 0.087500 -0.235689
v -0.686490 0.022500 0.049998
v -0.710110 0.022500 -0.052311
v -0.710110 0.087500 -0.052311
v -0.686490 0.087500 0.049998
v 0.527340 0.022500 -0.337998
v 0.550960 0.022500 -0.235689
v 0.550960 0.087500 -0.235689
v 0.527340 0.087500 -0.337998
v -0.710110 0.087500 -0.052311
v 0.527340 0.087500 -0.337998
v 0.550960 0.087500 -0.235689
v -0.686490 0.087500 0.049998
v -0.686490 0.022500 0.049998
v 0.550960 0.022500 -0.235689
v 0.527340 0.022500 -0.337998
v -0.710110 0.022500 -0.052311
v -0.404390 -0.010921 -0.308755
v 0.577326 0.057727 -0.081554
v 0.572792 0.122569 -0.081554
v -0.408924 0.053920 -0.308755
v 0.553764 0.056080 0.020755
v -0.427952 -0.012569 -0.206446
v -0.432487 0.052273 -0.206446
v 0.549230 0.120921 0.020755
v -0.427952 -0.012569 -0.206446
v -0.404390 -0.010921 -0.308755
v -0.408924 0.053920 -0.308755
v -0.432487 0.052273 -0.206446
v 0.577326 0.057727 -0.081554
v 0.553764 0.056080 0.020755
v 0.549230 0.120921 0.020755
v 0.572792 0.122569 -0.081554
v -0.408924 0.053920 -0.308755
v 0.572792 0.122569 -0.081554
v 0.549230 0.120921 0.020755
v -0.432487 0.052273 -0.206446
v -0.427952 -0.012569 -0.206446
v 0.553764 0.056080 0.020755
v 0.577326 0.057727 -0.081554
v -0.404390 -0.010921 -0.308755
v -0.234889 0.065109 0.203911
v 0.922937 -0.015854 -0.578960
v 0.927471 0.048987 -0.578960
v -0.230355 0.129950 0.203911
v 0.981509 -0.019950 -0.491911
v -0.176317 0.061013 0.290960
v -0.171782 0.125854 0.290960
v 0.986043 0.044891 -0.491911
v -0.176317 0.061013 0.290960
v -0.234889 0.065109 0.203911
v -0.230355 0.129950 0.203911
v -0.171782 0.125854 0.290960
v 0.922937 -0.015854 -0.578960
v 0.981509 -0.019950 -0.491911
v 0.986043 0.044891 -0.491911
v 0.927471 0.048987 -0.578960
v -0.230355 0.129950 0.203911
v 0.927471 0.048987 -0.578960
v 0.986043 0.044891 -0.491911
v -0.171782 0.125854 0.290960
v -0.176317 0.061013 0.290960
v 0.981509 -0.019950 -0.491911
v 0.922937 -0.015854 -0.578960
v -0.234889 0.065109 0.203911
v 0.527689 0.070632 -0.174000
v 0.523753 0.068451 -0.166206
v 0.475272 0.155913 -0.166206
v 0.479208 0.158094 -0.174000
v 0.523753 0.068451 -0.166206
v 0.515882 0.064087 -0.166206
v 0.467401 0.151549 -0.166206
v 0.475272 0.155913 -0.166206
v 0.515882 0.064087 -0.166206
v 0.511946 0.061906 -0.174000
v 0.463465 0.149368 -0.174000
v 0.467401 0.151549 -0.166206
v 0.511946 0.061906 -0.174000
v 0.515882 0.064087 -0.181794
v 0.467401 0.151549 -0.181794
v 0.463465 0.149368 -0.174000
v 0.515882 0.064087 -0.181794
v 0.523753 0.068451 -0.181794
v 0.475272 0.155913 -0.181794
v 0.467401 0.151549 -0.181794
v 0.523753 0.068451 -0.181794
v 0.527689 0.070632 -0.174000
v 0.479208 0.158094 -0.174000
v 0.475272 0.155913 -0.181794
v 0.519818 0.066269 -0.174000
v 0.523753 0.068451 -0.166206
v 0.527689 0.070632 -0.174000
v 0.471337 0.153731 -0.174000
v 0.479208 0.158094 -0.174000
v 0.475272 0.155913 -0.166206
v 0.519818 0.066269 -0.174000
v 0.515882 0.064087 -0.166206
v 0.523753 0.068451 -0.166206
v 0.471337 0.153731 -0.174000
v 0.475272 0.155913 -0.166206
v 0.467401 0.151549 -0.166206
v 0.519818 0.066269 -0.174000
v 0.511946 0.061906 -0.174000
v 0.515882 0.064087 -0.166206
v 0.471337 0.153731 -0.174000
v 0.467401 0.151549 -0.166206
v 0.463465 0.149368 -0.174000
v 0.519818 0.066269 -0.174000
v 0.515882 0.064087 -0.181794
v 0.511946 0.061906 -0.174000
v 0.471337 0.153731 -0.174000
v 0.463465 0.149368 -0.174000
v 0.467401 0.151549 -0.181794
v 0.519818 0.066269 -0.174000
v 0.523753 0.068451 -0.181794
v 0.515882 0.064087 -0.181794
v 0.471337 0.153731 -0.174000
v 0.467401 0.151549 -0.181794
v 0.475272 0.155913 -0.181794
v 0.519818 0.066269 -0.174000
v 0.527689 0.070632 -0.174000
v 0.523753 0.068451 -0.181794
v 0.471337 0.153731 -0.174000
v 0.475272 0.155913 -0.181794
v 0.479208 0.158094 -0.174000
v -0.902514 0.107500 0.063340
v 0.226392 0.107500 -0.095318
v 0.226392 0.172500 -0.095318
v -0.902514 0.172500 0.063340
v 0.241005 0.107500 0.008660
v -0.887900 0.107500 0.167318
v -0.887900 0.172500 0.167318
v 0.241005 0.172500 0.008660
v -0.887900 0.107500 0.167318
v -0.902514 0.107500 0.063340
v -0.902514 0.172500 0.063340
v -0.887900 0.172500 0.167318
v 0.226392 0.107500 -0.095318
v 0.241005 0.107500 0.008660
v 0.241005 0.172500 0.008660
v 0.226392 0.172500 -0.095318
v -0.902514 0.172500 0.063340
v 0.226392 0.172500 -0.095318
v 0.241005 0.172500 0.008660
v -0.887900 0.172500 0.167318
v -0.887900 0.107500 0.167318
v 0.241005 0.107500 0.008660
v 0.226392 0.107500 -0.095318
v -0.902514 0.107500 0.063340
v -0.568994 0.079520 -0.149898
v 0.265897 0.137901 0.122037
v 0.261363 0.202743 0.122037
v -0.573528 0.144362 -0.149898
v 0.233529 0.135638 0.221898
v -0.601362 0.077257 -0.050037
v -0.605896 0.142099 -0.050037
v 0.228995 0.200480 0.221898
v -0.601362 0.077257 -0.050037
v -0.568994 0.079520 -0.149898
v -0.573528 0.144362 -0.149898
v -0.605896 0.142099 -0.050037
v 0.265897 0.137901 0.122037
v 0.233529 0.135638 0.221898
v 0.228995 0.200480 0.221898
v 0.261363 0.202743 0.122037
v -0.573528 0.144362 -0.149898
v 0.261363 0.202743 0.122037
v 0.228995 0.200480 0.221898
v -0.605896 0.142099 -0.050037
v -0.601362 0.077257 -0.050037
v 0.233529 0.135638 0.221898
v 0.265897 0.137901 0.122037
v -0.568994 0.079520 -0.149898
v -0.432085 0.148096 0.297937
v 0.675977 0.070613 -0.317772
v 0.680511 0.135455 -0.317772
v -0.427550 0.212938 0.297937
v 0.726758 0.067062 -0.225937
v -0.381304 0.144545 0.389772
v -0.376769 0.209387 0.389772
v 0.731292 0.131904 -0.225937
v -0.381304 0.144545 0.389772
v -0.432085 0.148096 0.297937
v -0.427550 0.212938 0.297937
v -0.376769 0.209387 0.389772
v 0.675977 0.070613 -0.317772
v 0.726758 0.067062 -0.225937
v 0.731292 0.131904 -0.225937
v 0.680511 0.135455 -0.317772
v -0.427550 0.212938 0.297937
v 0.680511 0.135455 -0.317772
v 0.731292 0.131904 -0.225937
v -0.376769 0.209387 0.389772
v -0.381304 0.144545 0.389772
v 0.726758 0.067062 -0.225937
v 0.675977 0.070613 -0.317772
v -0.432085 0.148096 0.297937
v 0.310811 0.165285 0.006000
v 0.307574 0.162159 0.013794
v 0.238108 0.234093 0.013794
v 0.241345 0.237219 0.006000
v 0.307574 0.162159 0.013794
v 0.301100 0.155907 0.013794
v 0.231634 0.227841 0.013794
v 0.238108 0.234093 0.013794
v 0.301100 0.155907 0.013794
v 0.297863 0.152781 0.006000
v 0.228397 0.224715 0.006000
v 0.231634 0.227841 0.013794
v 0.297863 0.152781 0.006000
v 0.301100 0.155907 -0.001794
v 0.231634 0.227841 -0.001794
v 0.228397 0.224715 0.006000
v 0.301100 0.155907 -0.001794
v 0.307574 0.162159 -0.001794
v 0.238108 0.234093 -0.001794
v 0.231634 0.227841 -0.001794
v 0.307574 0.162159 -0.001794
v 0.310811 0.165285 0.006000
v 0.241345 0.237219 0.006000
v 0.238108 0.234093 -0.001794
v 0.304337 0.159033 0.006000
v 0.307574 0.162159 0.013794
v 0.310811 0.165285 0.006000
v 0.234871 0.230967 0.006000
v 0.241345 0.237219 0.006000
v 0.238108 0.234093 0.013794
v 0.304337 0.159033 0.006000
v 0.301100 0.155907 0.013794
v 0.307574 0.162159 0.013794
v 0.234871 0.230967 0.006000
v 0.238108 0.234093 0.013794
v 0.231634 0.227841 0.013794
v 0.304337 0.159033 0.006000
v 0.297863 0.152781 0.006000
v 0.301100 0.155907 0.013794
v 0.234871 0.230967 0.006000
v 0.231634 0.227841 0.013794
v 0.228397 0.224715 0.006000
v 0.304337 0.159033 0.006000
v 0.301100 0.155907 -0.001794
v 0.297863 0.152781 0.006000
v 0.234871 0.230967 0.006000
v 0.228397 0.224715 0.006000
v 0.231634 0.227841 -0.001794
v 0.304337 0.159033 0.006000
v 0.307574 0.162159 -0.001794
v 0.301100 0.155907 -0.001794
v 0.234871 0.230967 0.006000
v 0.231634 0.227841 -0.001794
v 0.238108 0.234093 -0.001794
v 0.304337 0.159033 0.006000
v 0.310811 0.165285 0.006000
v 0.307574 0.162159 -0.001794
v 0.234871 0.230967 0.006000
v 0.238108 0.234093 -0.001794
v 0.241345 0.237219 0.006000
v -0.131900 0.107500 0.010002
v 0.876716 0.107500 -0.042858
v 0.876716 0.172500 -0.042858
v -0.131900 0.172500 0.010002
v 0.882211 0.107500 0.061998
v -0.126404 0.107500 0.114858
v -0.126404 0.172500 0.114858
v 0.882211 0.172500 0.061998
v -0.126404 0.107500 0.114858
v -0.131900 0.107500 0.010002
v -0.131900 0.172500 0.010002
v -0.126404 0.172500 0.114858
v 0.876716 0.107500 -0.042858
v 0.882211 0.107500 0.061998
v 0.882211 0.172500 0.061998
v 0.876716 0.172500 -0.042858
v -0.131900 0.172500 0.010002
v 0.876716 0.172500 -0.042858
v 0.882211 0.172500 0.061998
v -0.126404 0.172500 0.114858
v -0.126404 0.107500 0.114858
v 0.882211 0.107500 0.061998
v 0.876716 0.107500 -0.042858
v -0.131900 0.107500 0.010002
v -1.027496 0.149062 -0.105838
v 0.258072 0.238958 0.441185
v 0.253538 0.303800 0.441185
v -1.032030 0.213904 -0.105838
v 0.217145 0.236096 0.537838
v -1.068422 0.146200 -0.009185
v -1.072957 0.211042 -0.009185
v 0.212611 0.300938 0.537838
v -1.068422 0.146200 -0.009185
v -1.027496 0.149062 -0.105838
v -1.032030 0.213904 -0.105838
v -1.072957 0.211042 -0.009185
v 0.258072 0.238958 0.441185
v 0.217145 0.236096 0.537838
v 0.212611 0.300938 0.537838
v 0.253538 0.303800 0.441185
v -1.032030 0.213904 -0.105838
v 0.253538 0.303800 0.441185
v 0.212611 0.300938 0.537838
v -1.072957 0.211042 -0.009185
v -1.068422 0.146200 -0.009185
v 0.217145 0.236096 0.537838
v 0.258072 0.238958 0.441185
v -1.027496 0.149062 -0.105838
vt 0.000000 0.000000
vt 1.000000 0.000000
vt 1.000000 1.000000
vt 0.000000 1.000000
vt 0.000000 0.000000
vt 1.000000 0.000000
vt 1.000000 1.000000
vt 0.000000 1.000000
vt 0.000000 0.000000
vt 1.000000 0.000000
vt 1.000000 1.000000
vt 0.000000 1.000000
vt 0.000000 0.000000
vt 1.000000 0.000000
vt 1.000000 1.000000
vt 0.000000 1.000000
vt 0.000000 0.000000
vt 1.000000 0.000000
vt 1.000000 1.000000
vt 0.000000 1.000000
vt 0.000000 0.000000
vt 1.000000 0.000000
vt 1.000000 1.000000
vt 0.000000 1.000000
vt 0.000000 0.000000
vt 1.000000 0.000000
vt 1.000000 1.000000
vt 0.000000 1.000000
vt 0.000000 0.000000
vt 1.000000 0.000000
vt 1.000000 1.000000
vt 0.000000 1.000000
vt 0.000000 0.000000
vt 1.000000 0.000000
vt 1.000000 1.000000
vt 0.000000 1.000000
vt 0.000000 0.000000
vt 1.000000 0.000000
vt 1.000000 1.000000
vt 0.000000 1.000000
vt 0.000000 0.000000
vt 1.000000 0.000000
vt 1.000000 1.000000
vt 0.000000 1.000000
vt 0.000000 0.000000
vt 1.000000 0.000000
vt 1.000000 1.000000
vt 0.000000 1.000000
vt 0.500000 0.500000
vt 0.000000 0.000000
vt 1.000000 0.000000
vt 0.500000 0.500000
vt 0.000000 1.000000
vt 1.000000 1.000000
vt 0.500000 0.500000
vt 0.000000 0.000000
vt 1.000000 0.000000
vt 0.500000 0.500000
vt 0.000000 1.000000
vt 1.000000 1.000000
vt 0.500000 0.500000
vt 0.000000 0.000000
vt 1.000000 0.000000
vt 0.500000 0.500000
vt 0.000000 1.000000
vt 1.000000 1.000000
vt 0.500000 0.500000
vt 0.000000 0.000000
vt 1.000000 0.000000
vt 0.500000 0.500000
vt 0.000000 1.000000
vt 1.000000 1.000000
vt 0.500000 0.500000
vt 0.000000 0.000000
vt 1.000000 0.000000
vt 0.500000 0.500000
vt 0.000000 1.000000
vt 1.000000 1.000000
vt 0.500000 0.500000
vt 0.000000 0.000000
vt 1.000000 0.000000
vt 0.500000 0.500000
vt 0.000000 1.000000
vt 1.000000 1.000000
vt 0.000000 0.000000
vt 1.000000 0.000000
vt 1.000000 1.000000
vt 0.000000 1.000000
vt 0.000000 0.000000
vt 1.000000 0.000000
vt 1.000000 1.000000
vt 0.000000 1.000000
vt 0.000000 0.000000
vt 1.000000 0.000000
vt 1.000000 1.000000
vt 0.000000 1.000000
vt 0.000000 0.000000
vt 1.000000 0.000000
vt 1.000000 1.000000
vt 0.000000 1.000000
vt 0.000000 0.000000
vt 1.000000 0.000000
vt 1.000000 1.000000
vt 0.000000 1.000000
vt 0.000000 0.000000
vt 1.000000 0.000000
vt 1.000000 1.000000
vt 0.000000 1.000000
vt 0.000000 0.000000
vt 1.000000 0.000000
vt 1.000000 1.000000
vt 0.000000 1.000000
vt 0.000000 0.000000
vt 1.000000 0.000000
vt 1.000000 1.000000
vt 0.000000 1.000000
vt 0.000000 0.000000
vt 1.000000 0.000000
vt 1.000000 1.000000
vt 0.000000 1.000000
vt 0.000000 0.000000
vt 1.000000 0.000000
vt 1.000000 1.000000
vt 0.000000 1.000000
vt 0.000000 0.000000
vt 1.000000 0.000000
vt 1.000000 1.000000
vt 0.000000 1.000000
vt 0.000000 0.000000
vt 1.000000 0.000000
vt 1.000000 1.000000
vt 0.000000 1.000000
vt 0.000000 0.000000
vt 1.000000 0.000000
vt 1.000000 1.000000
vt 0.000000 1.000000
vt 0.000000 0.000000
vt 1.000000 0.000000
vt 1.000000 1.000000
vt 0.000000 1.000000
vt 0.000000 0.000000
vt 1.000000 0.000000
vt 1.000000 1.000000
vt 0.000000 1.000000
vt 0.000000 0.000000
vt 1.000000 0.000000
vt 1.000000 1.000000
vt 0.000000 1.000000
vt 0.000000 0.000000
vt 1.000000 0.000000
vt 1.000000 1.000000
vt 0.000000 1.000000
vt 0.000000 0.000000
vt 1.000000 0.000000
vt 1.000000 1.000000
vt 0.000000 1.000000
vt 0.000000 0.000000
vt 1.000000 0.000000
vt 1.000000 1.000000
vt 0.000000 1.000000
vt 0.000000 0.000000
vt 1.000000 0.000000
vt 1.000000 1.000000
vt 0.000000 1.000000
vt 0.000000 0.000000
vt 1.000000 0.000000
vt 1.000000 1.000000
vt 0.000000 1.000000
vt 0.000000 0.000000
vt 1.000000 0.000000
vt 1.000000 1.000000
vt 0.000000 1.000000
vt 0.000000 0.000000
vt 1.000000 0.000000
vt 1.000000 1.000000
vt 0.000000 1.000000
vt 0.000000 0.000000
vt 1.000000 0.000000
vt 1.000000 1.000000
vt 0.000000 1.000000
vt 0.500000 0.500000
vt 0.000000 0.000000
vt 1.000000 0.000000
vt 0.500000 0.500000
vt 0.000000 1.000000
vt 1.000000 1.000000
vt 0.500000 0.500000
vt 0.000000 0.000000
vt 1.000000 0.000000
vt 0.500000 0.500000
vt 0.000000 1.000000
vt 1.000000 1.000000
vt 0.500000 0.500000
vt 0.000000 0.000000
vt 1.000000 0.000000
vt 0.500000 0.500000
vt 0.000000 1.000000
vt 1.000000 1.000000
vt 0.500000 0.500000
vt 0.000000 0.000000
vt 1.000000 0.000000
vt 0.500000 0.500000
vt 0.000000 1.000000
vt 1.000000 1.000000
vt 0.500000 0.500000
vt 0.000000 0.000000
vt 1.000000 0.000000
vt 0.500000 0.500000
vt 0.000000 1.000000
vt 1.000000 1.000000
vt 0.500000 0.500000
vt 0.000000 0.000000
vt 1.000000 0.000000
vt 0.500000 0.500000
vt 0.000000 1.000000
vt 1.000000 1.000000
vt 0.000000 0.000000
vt 1.000000 0.000000
vt 1.000000 1.000000
vt 0.000000 1.000000
vt 0.000000 0.000000
vt 1.000000 0.000000
vt 1.000000 1.000000
vt 0.000000 1.000000
vt 0.000000 0.000000
vt 1.000000 0.000000
vt 1.000000 1.000000
vt 0.000000 1.000000
vt 0.000000 0.000000
vt 1.000000 0.000000
vt 1.000000 1.000000
vt 0.000000 1.000000
vt 0.000000 0.000000
vt 1.000000 0.000000
vt 1.000000 1.000000
vt 0.000000 1.000000
vt 0.000000 0.000000
vt 1.000000 0.000000
vt 1.000000 1.000000
vt 0.000000 1.000000
vt 0.000000 0.000000
vt 1.000000 0.000000
vt 1.000000 1.000000
vt 0.000000 1.000000
vt 0.000000 0.000000
vt 1.000000 0.000000
vt 1.000000 1.000000
vt 0.000000 1.000000
vt 0.000000 0.000000
vt 1.000000 0.000000
vt 1.000000 1.000000
vt 0.000000 1.000000
vt 0.000000 0.000000
vt 1.000000 0.000000
vt 1.000000 1.000000
vt 0.000000 1.000000
vt 0.000000 0.000000
vt 1.000000 0.000000
vt 1.000000 1.000000
vt 0.000000 1.000000
vt 0.000000 0.000000
vt 1.000000 0.000000
vt 1.000000 1.000000
vt 0.000000 1.000000
vt 0.000000 0.000000
vt 1.000000 0.000000
vt 1.000000 1.000000
vt 0.000000 1.000000
vt 0.000000 0.000000
vt 1.000000 0.000000
vt 1.000000 1.000000
vt 0.000000 1.000000
vt 0.000000 0.000000
vt 1.000000 0.000000
vt 1.000000 1.000000
vt 0.000000 1.000000
vt 0.000000 0.000000
vt 1.000000 0.000000
vt 1.000000 1.000000
vt 0.000000 1.000000
vt 0.000000 0.000000
vt 1.000000 0.000000
vt 1.000000 1.000000
vt 0.000000 1.000000
vt 0.000000 0.000000
vt 1.000000 0.000000
vt 1.000000 1.000000
vt 0.000000 1.000000
vt 0.000000 0.000000
vt 1.000000 0.000000
vt 1.000000 1.000000
vt 0.000000 1.000000
vt 0.000000 0.000000
vt 1.000000 0.000000
vt 1.000000 1.000000
vt 0.000000 1.000000
vt 0.000000 0.000000
vt 1.000000 0.000000
vt 1.000000 1.000000
vt 0.000000 1.000000
vt 0.000000 0.000000
vt 1.000000 0.000000
vt 1.000000 1.000000
vt 0.000000 1.000000
vt 0.000000 0.000000
vt 1.000000 0.000000
vt 1.000000 1.000000
vt 0.000000 1.000000
vt 0.000000 0.000000
vt 1.000000 0.000000
vt 1.000000 1.000000
vt 0.000000 1.000000
vt 0.500000 0.500000
vt 0.000000 0.000000
vt 1.000000 0.000000
vt 0.500000 0.500000
vt 0.000000 1.000000
vt 1.000000 1.000000
vt 0.500000 0.500000
vt 0.000000 0.000000
vt 1.000000 0.000000
vt 0.500000 0.500000
vt 0.000000 1.000000
vt 1.000000 1.000000
vt 0.500000 0.500000
vt 0.000000 0.000000
vt 1.000000 0.000000
vt 0.500000 0.500000
vt 0.000000 1.000000
vt 1.000000 1.000000
vt 0.500000 0.500000
vt 0.000000 0.000000
vt 1.000000 0.000000
vt 0.500000 0.500000
vt 0.000000 1.000000
vt 1.000000 1.000000
vt 0.500000 0.500000
vt 0.000000 0.000000
vt 1.000000 0.000000
vt 0.500000 0.500000
vt 0.000000 1.000000
vt 1.000000 1.000000
vt 0.500000 0.500000
vt 0.000000 0.000000
vt 1.000000 0.000000
vt 0.500000 0.500000
vt 0.000000 1.000000
vt 1.000000 1.000000
vt 0.000000 0.000000
vt 1.000000 0.000000
vt 1.000000 1.000000
vt 0.000000 1.000000
vt 0.000000 0.000000
vt 1.000000 0.000000
vt 1.000000 1.000000
vt 0.000000 1.000000
vt 0.000000 0.000000
vt 1.000000 0.000000
vt 1.000000 1.000000
vt 0.000000 1.000000
vt 0.000000 0.000000
vt 1.000000 0.000000
vt 1.000000 1.000000
vt 0.000000 1.000000
vt 0.000000 0.000000
vt 1.000000 0.000000
vt 1.000000 1.000000
vt 0.000000 1.000000
vt 0.000000 0.000000
vt 1.000000 0.000000
vt 1.000000 1.000000
vt 0.000000 1.000000
vt 0.000000 0.000000
vt 1.000000 0.000000
vt 1.000000 1.000000
vt 0.000000 1.000000
vt 0.000000 0.000000
vt 1.000000 0.000000
vt 1.000000 1.000000
vt 0.000000 1.000000
vt 0.000000 0.000000
vt 1.000000 0.000000
vt 1.000000 1.000000
vt 0.000000 1.000000
vt 0.000000 0.000000
vt 1.000000 0.000000
vt 1.000000 1.000000
vt 0.000000 1.000000
vt 0.000000 0.000000
vt 1.000000 0.000000
vt 1.000000 1.000000
vt 0.000000 1.000000
vt 0.000000 0.000000
vt 1.000000 0.000000
vt 1.000000 1.000000
vt 0.000000 1.000000
usemtl Wood
f 1/1 2/2 3/3
f 1/1 3/3 4/4
f 5/5 6/6 7/7
f 5/5 7/7 8/8
f 9/9 10/10 11/11
f 9/9 11/11 12/12
f 13/13 14/14 15/15
f 13/13 15/15 16/16
f 17/17 18/18 19/19
f 17/17 19/19 20/20
f 21/21 22/22 23/23
f 21/21 23/23 24/24
usemtl Metal
f 25/25 26/26 27/27
f 25/25 27/27 28/28
f 29/29 30/30 31/31
f 29/29 31/31 32/32
f 33/33 34/34 35/35
f 33/33 35/35 36/36
f 37/37 38/38 39/39
f 37/37 39/39 40/40
f 41/41 42/42 43/43
f 41/41 43/43 44/44
f 45/45 46/46 47/47
f 45/45 47/47 48/48
f 49/49 50/50 51/51
f 52/52 53/53 54/54
f 55/55 56/56 57/57
f 58/58 59/59 60/60
f 61/61 62/62 63/63
f 64/64 65/65 66/66
f 67/67 68/68 69/69
f 70/70 71/71 72/72
f 73/73 74/74 75/75
f 76/76 77/77 78/78
f 79/79 80/80 81/81
f 82/82 83/83 84/84
usemtl Wood
f 85/85 86/86 87/87
f 85/85 87/87 88/88
f 89/89 90/90 91/91
f 89/89 91/91 92/92
f 93/93 94/94 95/95
f 93/93 95/95 96/96
f 97/97 98/98 99/99
f 97/97 99/99 100/100
f 101/101 102/102 103/103
f 101/101 103/103 104/104
f 105/105 106/106 107/107
f 105/105 107/107 108/108
f 109/109 110/110 111/111
f 109/109 111/111 112/112
f 113/113 114/114 115/115
f 113/113 115/115 116/116
f 117/117 118/118 119/119
f 117/117 119/119 120/120
f 121/121 122/122 123/123
f 121/121 123/123 124/124
f 125/125 126/126 127/127
f 125/125 127/127 128/128
f 129/129 130/130 131/131
f 129/129 131/131 132/132
f 133/133 134/134 135/135
f 133/133 135/135 136/136
f 137/137 138/138 139/139
f 137/137 139/139 140/140
f 141/141 142/142 143/143
f 141/141 143/143 144/144
f 145/145 146/146 147/147
f 145/145 147/147 148/148
f 149/149 150/150 151/151
f 149/149 151/151 152/152
f 153/153 154/154 155/155
f 153/153 155/155 156/156
usemtl Metal
f 157/157 158/158 159/159
f 157/157 159/159 160/160
f 161/161 162/162 163/163
f 161/161 163/163 164/164
f 165/165 166/166 167/167
f 165/165 167/167 168/168
f 169/169 170/170 171/171
f 169/169 171/171 172/172
f 173/173 174/174 175/175
f 173/173 175/175 176/176
f 177/177 178/178 179/179
f 177/177 179/179 180/180
f 181/181 182/182 183/183
f 184/184 185/185 186/186
f 187/187 188/188 189/189
f 190/190 191/191 192/192
f 193/193 194/194 195/195
f 196/196 197/197 198/198
f 199/199 200/200 201/201
f 202/202 203/203 204/204
f 205/205 206/206 207/207
f 208/208 209/209 210/210
f 211/211 212/212 213/213
f 214/214 215/215 216/216
usemtl Wood
f 217/217 218/218 219/219
f 217/217 219/219 220/220
f 221/221 222/222 223/223
f 221/221 223/223 224/224
f 225/225 226/226 227/227
f 225/225 227/227 228/228
f 229/229 230/230 231/231
f 229/229 231/231 232/232
f 233/233 234/234 235/235
f 233/233 235/235 236/236
f 237/237 238/238 239/239
f 237/237 239/239 240/240
f 241/241 242/242 243/243
f 241/241 243/243 244/244
f 245/245 246/246 247/247
f 245/245 247/247 248/248
f 249/249 250/250 251/251
f 249/249 251/251 252/252
f 253/253 254/254 255/255
f 253/253 255/255 256/256
f 257/257 258/258 259/259
f 257/257 259/259 260/260
f 261/261 262/262 263/263
f 261/261 263/263 264/264
f 265/265 266/266 267/267
f 265/265 267/267 268/268
f 269/269 270/270 271/271
f 269/269 271/271 272/272
f 273/273 274/274 275/275
f 273/273 275/275 276/276
f 277/277 278/278 279/279
f 277/277 279/279 280/280
f 281/281 282/282 283/283
f 281/281 283/283 284/284
f 285/285 286/286 287/287
f 285/285 287/287 288/288
usemtl Metal
f 289/289 290/290 291/291
f 289/289 291/291 292/292
f 293/293 294/294 295/295
f 293/293 295/295 296/296
f 297/297 298/298 299/299
f 297/297 299/299 300/300
f 301/301 302/302 303/303
f 301/301 303/303 304/304
f 305/305 306/306 307/307
f 305/305 307/307 308/308
f 309/309 310/310 311/311
f 309/309 311/311 312/312
f 313/313 314/314 315/315
f 316/316 317/317 318/318
f 319/319 320/320 321/321
f 322/322 323/323 324/324
f 325/325 326/326 327/327
f 328/328 329/329 330/330
f 331/331 332/332 333/333
f 334/334 335/335 336/336
f 337/337 338/338 339/339
f 340/340 341/341 342/342
f 343/343 344/344 345/345
f 346/346 347/347 348/348
usemtl Wood
f 349/349 350/350 351/351
f 349/349 351/351 352/352
f 353/353 354/354 355/355
f 353/353 355/355 356/356
f 357/357 358/358 359/359
f 357/357 359/359 360/360
f 361/361 362/362 363/363
f 361/361 363/363 364/364
f 365/365 366/366 367/367
f 365/365 367/367 368/368
f 369/369 370/370 371/371
f 369/369 371/371 372/372
f 373/373 374/374 375/375
f 373/373 375/375 376/376
f 377/377 378/378 379/379
f 377/377 379/379 380/380
f 381/381 382/382 383/383
f 381/381 383/383 384/384
f 385/385 386/386 387/387
f 385/385 387/387 388/388
f 389/389 390/390 391/391
f 389/389 391/391 392/392
f 393/393 394/394 395/395
f 393/393 395/395 396/396
