mtllib ../../Materials/project_oen.mtl
o en-020_rain_catcher_placement_set__frame
v -0.505077 -0.028156 -0.300000
v -0.517684 -0.025933 -0.273418
v -0.340563 0.978571 -0.273418
v -0.327956 0.976348 -0.300000
v -0.517684 -0.025933 -0.273418
v -0.546011 -0.020938 -0.266852
v -0.368890 0.983566 -0.266852
v -0.340563 0.978571 -0.273418
v -0.546011 -0.020938 -0.266852
v -0.568728 -0.016933 -0.285248
v -0.391607 0.987571 -0.285248
v -0.368890 0.983566 -0.266852
v -0.568728 -0.016933 -0.285248
v -0.568728 -0.016933 -0.314752
v -0.391607 0.987571 -0.314752
v -0.391607 0.987571 -0.285248
v -0.568728 -0.016933 -0.314752
v -0.546011 -0.020938 -0.333148
v -0.368890 0.983566 -0.333148
v -0.391607 0.987571 -0.314752
v -0.546011 -0.020938 -0.333148
v -0.517684 -0.025933 -0.326582
v -0.340563 0.978571 -0.326582
v -0.368890 0.983566 -0.333148
v -0.517684 -0.025933 -0.326582
v -0.505077 -0.028156 -0.300000
v -0.327956 0.976348 -0.300000
v -0.340563 0.978571 -0.326582
v -0.538561 -0.022252 -0.300000
v -0.517684 -0.025933 -0.273418
v -0.505077 -0.028156 -0.300000
v -0.361439 0.982252 -0.300000
v -0.327956 0.976348 -0.300000
v -0.340563 0.978571 -0.273418
v -0.538561 -0.022252 -0.300000
v -0.546011 -0.020938 -0.266852
v -0.517684 -0.025933 -0.273418
v -0.361439 0.982252 -0.300000
v -0.340563 0.978571 -0.273418
v -0.368890 0.983566 -0.266852
v -0.538561 -0.022252 -0.300000
v -0.568728 -0.016933 -0.285248
v -0.546011 -0.020938 -0.266852
v -0.361439 0.982252 -0.300000
v -0.368890 0.983566 -0.266852
v -0.391607 0.987571 -0.285248
v -0.538561 -0.022252 -0.300000
v -0.568728 -0.016933 -0.314752
v -0.568728 -0.016933 -0.285248
v -0.361439 0.982252 -0.300000
v -0.391607 0.987571 -0.285248
v -0.391607 0.987571 -0.314752
v -0.538561 -0.022252 -0.300000
v -0.546011 -0.020938 -0.333148
v -0.568728 -0.016933 -0.314752
v -0.361439 0.982252 -0.300000
v -0.391607 0.987571 -0.314752
v -0.368890 0.983566 -0.333148
v -0.538561 -0.022252 -0.300000
v -0.517684 -0.025933 -0.326582
v -0.546011 -0.020938 -0.333148
v -0.361439 0.982252 -0.300000
v -0.368890 0.983566 -0.333148
v -0.340563 0.978571 -0.326582
v -0.538561 -0.022252 -0.300000
v -0.505077 -0.028156 -0.300000
v -0.517684 -0.025933 -0.326582
v -0.361439 0.982252 -0.300000
v -0.340563 0.978571 -0.326582
v -0.327956 0.976348 -0.300000
v 0.572044 -0.016348 -0.300000
v 0.559437 -0.018571 -0.273418
v 0.382316 0.985933 -0.273418
v 0.394923 0.988156 -0.300000
v 0.559437 -0.018571 -0.273418
v 0.531110 -0.023566 -0.266852
v 0.353989 0.980938 -0.266852
v 0.382316 0.985933 -0.273418
v 0.531110 -0.023566 -0.266852
v 0.508393 -0.027571 -0.285248
v 0.331272 0.976933 -0.285248
v 0.353989 0.980938 -0.266852
v 0.508393 -0.027571 -0.285248
v 0.508393 -0.027571 -0.314752
v 0.331272 0.976933 -0.314752
v 0.331272 0.976933 -0.285248
v 0.508393 -0.027571 -0.314752
v 0.531110 -0.023566 -0.333148
v 0.353989 0.980938 -0.333148
v 0.331272 0.976933 -0.314752
v 0.531110 -0.023566 -0.333148
v 0.559437 -0.018571 -0.326582
v 0.382316 0.985933 -0.326582
v 0.353989 0.980938 -0.333148
v 0.559437 -0.018571 -0.326582
v 0.572044 -0.016348 -0.300000
v 0.394923 0.988156 -0.300000
v 0.382316 0.985933 -0.326582
v 0.538561 -0.022252 -0.300000
v 0.559437 -0.018571 -0.273418
v 0.572044 -0.016348 -0.300000
v 0.361439 0.982252 -0.300000
v 0.394923 0.988156 -0.300000
v 0.382316 0.985933 -0.273418
v 0.538561 -0.022252 -0.300000
v 0.531110 -0.023566 -0.266852
v 0.559437 -0.018571 -0.273418
v 0.361439 0.982252 -0.300000
v 0.382316 0.985933 -0.273418
v 0.353989 0.980938 -0.266852
v 0.538561 -0.022252 -0.300000
v 0.508393 -0.027571 -0.285248
v 0.531110 -0.023566 -0.266852
v 0.361439 0.982252 -0.300000
v 0.353989 0.980938 -0.266852
v 0.331272 0.976933 -0.285248
v 0.538561 -0.022252 -0.300000
v 0.508393 -0.027571 -0.314752
v 0.508393 -0.027571 -0.285248
v 0.361439 0.982252 -0.300000
v 0.331272 0.976933 -0.285248
v 0.331272 0.976933 -0.314752
v 0.538561 -0.022252 -0.300000
v 0.531110 -0.023566 -0.333148
v 0.508393 -0.027571 -0.314752
v 0.361439 0.982252 -0.300000
v 0.331272 0.976933 -0.314752
v 0.353989 0.980938 -0.333148
v 0.538561 -0.022252 -0.300000
v 0.559437 -0.018571 -0.326582
v 0.531110 -0.023566 -0.333148
v 0.361439 0.982252 -0.300000
v 0.353989 0.980938 -0.333148
v 0.382316 0.985933 -0.326582
v 0.538561 -0.022252 -0.300000
v 0.572044 -0.016348 -0.300000
v 0.559437 -0.018571 -0.326582
v 0.361439 0.982252 -0.300000
v 0.382316 0.985933 -0.326582
v 0.394923 0.988156 -0.300000
v -0.505077 -0.028156 0.300000
v -0.517684 -0.025933 0.326582
v -0.340563 0.978571 0.326582
v -0.327956 0.976348 0.300000
v -0.517684 -0.025933 0.326582
v -0.546011 -0.020938 0.333148
v -0.368890 0.983566 0.333148
v -0.340563 0.978571 0.326582
v -0.546011 -0.020938 0.333148
v -0.568728 -0.016933 0.314752
v -0.391607 0.987571 0.314752
v -0.368890 0.983566 0.333148
v -0.568728 -0.016933 0.314752
v -0.568728 -0.016933 0.285248
v -0.391607 0.987571 0.285248
v -0.391607 0.987571 0.314752
v -0.568728 -0.016933 0.285248
v -0.546011 -0.020938 0.266852
v -0.368890 0.983566 0.266852
v -0.391607 0.987571 0.285248
v -0.546011 -0.020938 0.266852
v -0.517684 -0.025933 0.273418
v -0.340563 0.978571 0.273418
v -0.368890 0.983566 0.266852
v -0.517684 -0.025933 0.273418
v -0.505077 -0.028156 0.300000
v -0.327956 0.976348 0.300000
v -0.340563 0.978571 0.273418
v -0.538561 -0.022252 0.300000
v -0.517684 -0.025933 0.326582
v -0.505077 -0.028156 0.300000
v -0.361439 0.982252 0.300000
v -0.327956 0.976348 0.300000
v -0.340563 0.978571 0.326582
v -0.538561 -0.022252 0.300000
v -0.546011 -0.020938 0.333148
v -0.517684 -0.025933 0.326582
v -0.361439 0.982252 0.300000
v -0.340563 0.978571 0.326582
v -0.368890 0.983566 0.333148
v -0.538561 -0.022252 0.300000
v -0.568728 -0.016933 0.314752
v -0.546011 -0.020938 0.333148
v -0.361439 0.982252 0.300000
v -0.368890 0.983566 0.333148
v -0.391607 0.987571 0.314752
v -0.538561 -0.022252 0.300000
v -0.568728 -0.016933 0.285248
v -0.568728 -0.016933 0.314752
v -0.361439 0.982252 0.300000
v -0.391607 0.987571 0.314752
v -0.391607 0.987571 0.285248
v -0.538561 -0.022252 0.300000
v -0.546011 -0.020938 0.266852
v -0.568728 -0.016933 0.285248
v -0.361439 0.982252 0.300000
v -0.391607 0.987571 0.285248
v -0.368890 0.983566 0.266852
v -0.538561 -0.022252 0.300000
v -0.517684 -0.025933 0.273418
v -0.546011 -0.020938 0.266852
v -0.361439 0.982252 0.300000
v -0.368890 0.983566 0.266852
v -0.340563 0.978571 0.273418
v -0.538561 -0.022252 0.300000
v -0.505077 -0.028156 0.300000
v -0.517684 -0.025933 0.273418
v -0.361439 0.982252 0.300000
v -0.340563 0.978571 0.273418
v -0.327956 0.976348 0.300000
v 0.572044 -0.016348 0.300000
v 0.559437 -0.018571 0.326582
v 0.382316 0.985933 0.326582
v 0.394923 0.988156 0.300000
v 0.559437 -0.018571 0.326582
v 0.531110 -0.023566 0.333148
v 0.353989 0.980938 0.333148
v 0.382316 0.985933 0.326582
v 0.531110 -0.023566 0.333148
v 0.508393 -0.027571 0.314752
v 0.331272 0.976933 0.314752
v 0.353989 0.980938 0.333148
v 0.508393 -0.027571 0.314752
v 0.508393 -0.027571 0.285248
v 0.331272 0.976933 0.285248
v 0.331272 0.976933 0.314752
v 0.508393 -0.027571 0.285248
v 0.531110 -0.023566 0.266852
v 0.353989 0.980938 0.266852
v 0.331272 0.976933 0.285248
v 0.531110 -0.023566 0.266852
v 0.559437 -0.018571 0.273418
v 0.382316 0.985933 0.273418
v 0.353989 0.980938 0.266852
v 0.559437 -0.018571 0.273418
v 0.572044 -0.016348 0.300000
v 0.394923 0.988156 0.300000
v 0.382316 0.985933 0.273418
v 0.538561 -0.022252 0.300000
v 0.559437 -0.018571 0.326582
v 0.572044 -0.016348 0.300000
v 0.361439 0.982252 0.300000
v 0.394923 0.988156 0.300000
v 0.382316 0.985933 0.326582
v 0.538561 -0.022252 0.300000
v 0.531110 -0.023566 0.333148
v 0.559437 -0.018571 0.326582
v 0.361439 0.982252 0.300000
v 0.382316 0.985933 0.326582
v 0.353989 0.980938 0.333148
v 0.538561 -0.022252 0.300000
v 0.508393 -0.027571 0.314752
v 0.531110 -0.023566 0.333148
v 0.361439 0.982252 0.300000
v 0.353989 0.980938 0.333148
v 0.331272 0.976933 0.314752
v 0.538561 -0.022252 0.300000
v 0.508393 -0.027571 0.285248
v 0.508393 -0.027571 0.314752
v 0.361439 0.982252 0.300000
v 0.331272 0.976933 0.314752
v 0.331272 0.976933 0.285248
v 0.538561 -0.022252 0.300000
v 0.531110 -0.023566 0.266852
v 0.508393 -0.027571 0.285248
v 0.361439 0.982252 0.300000
v 0.331272 0.976933 0.285248
v 0.353989 0.980938 0.266852
v 0.538561 -0.022252 0.300000
v 0.559437 -0.018571 0.273418
v 0.531110 -0.023566 0.266852
v 0.361439 0.982252 0.300000
v 0.353989 0.980938 0.266852
v 0.382316 0.985933 0.273418
v 0.538561 -0.022252 0.300000
v 0.572044 -0.016348 0.300000
v 0.559437 -0.018571 0.273418
v 0.361439 0.982252 0.300000
v 0.382316 0.985933 0.273418
v 0.394923 0.988156 0.300000
v -0.000000 0.918000 -0.730000
v -0.010392 0.924000 -0.730000
v -0.010392 0.924000 0.150000
v 0.000000 0.918000 0.150000
v -0.010392 0.924000 -0.730000
v -0.010392 0.936000 -0.730000
v -0.010392 0.936000 0.150000
v -0.010392 0.924000 0.150000
v -0.010392 0.936000 -0.730000
v -0.000000 0.942000 -0.730000
v 0.000000 0.942000 0.150000
v -0.010392 0.936000 0.150000
v -0.000000 0.942000 -0.730000
v 0.010392 0.936000 -0.730000
v 0.010392 0.936000 0.150000
v 0.000000 0.942000 0.150000
v 0.010392 0.936000 -0.730000
v 0.010392 0.924000 -0.730000
v 0.010392 0.924000 0.150000
v 0.010392 0.936000 0.150000
v 0.010392 0.924000 -0.730000
v -0.000000 0.918000 -0.730000
v 0.000000 0.918000 0.150000
v 0.010392 0.924000 0.150000
v -0.000000 0.930000 -0.730000
v -0.010392 0.924000 -0.730000
v -0.000000 0.918000 -0.730000
v 0.000000 0.930000 0.150000
v 0.000000 0.918000 0.150000
v -0.010392 0.924000 0.150000
v -0.000000 0.930000 -0.730000
v -0.010392 0.936000 -0.730000
v -0.010392 0.924000 -0.730000
v 0.000000 0.930000 0.150000
v -0.010392 0.924000 0.150000
v -0.010392 0.936000 0.150000
v -0.000000 0.930000 -0.730000
v -0.000000 0.942000 -0.730000
v -0.010392 0.936000 -0.730000
v 0.000000 0.930000 0.150000
v -0.010392 0.936000 0.150000
v 0.000000 0.942000 0.150000
v -0.000000 0.930000 -0.730000
v 0.010392 0.936000 -0.730000
v -0.000000 0.942000 -0.730000
v 0.000000 0.930000 0.150000
v 0.000000 0.942000 0.150000
v 0.010392 0.936000 0.150000
v -0.000000 0.930000 -0.730000
v 0.010392 0.924000 -0.730000
v 0.010392 0.936000 -0.730000
v 0.000000 0.930000 0.150000
v 0.010392 0.936000 0.150000
v 0.010392 0.924000 0.150000
v -0.000000 0.930000 -0.730000
v -0.000000 0.918000 -0.730000
v 0.010392 0.924000 -0.730000
v 0.000000 0.930000 0.150000
v 0.010392 0.924000 0.150000
v 0.000000 0.918000 0.150000
v -0.000000 0.918000 -0.150000
v -0.010392 0.924000 -0.150000
v -0.010392 0.924000 0.730000
v 0.000000 0.918000 0.730000
v -0.010392 0.924000 -0.150000
v -0.010392 0.936000 -0.150000
v -0.010392 0.936000 0.730000
v -0.010392 0.924000 0.730000
v -0.010392 0.936000 -0.150000
v -0.000000 0.942000 -0.150000
v 0.000000 0.942000 0.730000
v -0.010392 0.936000 0.730000
v -0.000000 0.942000 -0.150000
v 0.010392 0.936000 -0.150000
v 0.010392 0.936000 0.730000
v 0.000000 0.942000 0.730000
v 0.010392 0.936000 -0.150000
v 0.010392 0.924000 -0.150000
v 0.010392 0.924000 0.730000
v 0.010392 0.936000 0.730000
v 0.010392 0.924000 -0.150000
v -0.000000 0.918000 -0.150000
v 0.000000 0.918000 0.730000
v 0.010392 0.924000 0.730000
v -0.000000 0.930000 -0.150000
v -0.010392 0.924000 -0.150000
v -0.000000 0.918000 -0.150000
v 0.000000 0.930000 0.730000
v 0.000000 0.918000 0.730000
v -0.010392 0.924000 0.730000
v -0.000000 0.930000 -0.150000
v -0.010392 0.936000 -0.150000
v -0.010392 0.924000 -0.150000
v 0.000000 0.930000 0.730000
v -0.010392 0.924000 0.730000
v -0.010392 0.936000 0.730000
v -0.000000 0.930000 -0.150000
v -0.000000 0.942000 -0.150000
v -0.010392 0.936000 -0.150000
v 0.000000 0.930000 0.730000
v -0.010392 0.936000 0.730000
v 0.000000 0.942000 0.730000
v -0.000000 0.930000 -0.150000
v 0.010392 0.936000 -0.150000
v -0.000000 0.942000 -0.150000
v 0.000000 0.930000 0.730000
v 0.000000 0.942000 0.730000
v 0.010392 0.936000 0.730000
v -0.000000 0.930000 -0.150000
v 0.010392 0.924000 -0.150000
v 0.010392 0.936000 -0.150000
v 0.000000 0.930000 0.730000
v 0.010392 0.936000 0.730000
v 0.010392 0.924000 0.730000
v -0.000000 0.930000 -0.150000
v -0.000000 0.918000 -0.150000
v 0.010392 0.924000 -0.150000
v 0.000000 0.930000 0.730000
v 0.010392 0.924000 0.730000
v 0.000000 0.918000 0.730000
vt 0.000000 0.000000
vt 1.000000 0.000000
vt 1.000000 1.000000
vt 0.000000 1.000000
vt 0.000000 0.000000
vt 1.000000 0.000000
vt 1.000000 1.000000
vt 0.000000 1.000000
vt 0.000000 0.000000
vt 1.000000 0.000000
vt 1.000000 1.000000
vt 0.000000 1.000000
vt 0.000000 0.000000
vt 1.000000 0.000000
vt 1.000000 1.000000
vt 0.000000 1.000000
vt 0.000000 0.000000
vt 1.000000 0.000000
vt 1.000000 1.000000
vt 0.000000 1.000000
vt 0.000000 0.000000
vt 1.000000 0.000000
vt 1.000000 1.000000
vt 0.000000 1.000000
vt 0.000000 0.000000
vt 1.000000 0.000000
vt 1.000000 1.000000
vt 0.000000 1.000000
vt 0.500000 0.500000
vt 0.000000 0.000000
vt 1.000000 0.000000
vt 0.500000 0.500000
vt 0.000000 1.000000
vt 1.000000 1.000000
vt 0.500000 0.500000
vt 0.000000 0.000000
vt 1.000000 0.000000
vt 0.500000 0.500000
vt 0.000000 1.000000
vt 1.000000 1.000000
vt 0.500000 0.500000
vt 0.000000 0.000000
vt 1.000000 0.000000
vt 0.500000 0.500000
vt 0.000000 1.000000
vt 1.000000 1.000000
vt 0.500000 0.500000
vt 0.000000 0.000000
vt 1.000000 0.000000
vt 0.500000 0.500000
vt 0.000000 1.000000
vt 1.000000 1.000000
vt 0.500000 0.500000
vt 0.000000 0.000000
vt 1.000000 0.000000
vt 0.500000 0.500000
vt 0.000000 1.000000
vt 1.000000 1.000000
vt 0.500000 0.500000
vt 0.000000 0.000000
vt 1.000000 0.000000
vt 0.500000 0.500000
vt 0.000000 1.000000
vt 1.000000 1.000000
vt 0.500000 0.500000
vt 0.000000 0.000000
vt 1.000000 0.000000
vt 0.500000 0.500000
vt 0.000000 1.000000
vt 1.000000 1.000000
vt 0.000000 0.000000
vt 1.000000 0.000000
vt 1.000000 1.000000
vt 0.000000 1.000000
vt 0.000000 0.000000
vt 1.000000 0.000000
vt 1.000000 1.000000
vt 0.000000 1.000000
vt 0.000000 0.000000
vt 1.000000 0.000000
vt 1.000000 1.000000
vt 0.000000 1.000000
vt 0.000000 0.000000
vt 1.000000 0.000000
vt 1.000000 1.000000
vt 0.000000 1.000000
vt 0.000000 0.000000
vt 1.000000 0.000000
vt 1.000000 1.000000
vt 0.000000 1.000000
vt 0.000000 0.000000
vt 1.000000 0.000000
vt 1.000000 1.000000
vt 0.000000 1.000000
vt 0.000000 0.000000
vt 1.000000 0.000000
vt 1.000000 1.000000
vt 0.000000 1.000000
vt 0.500000 0.500000
vt 0.000000 0.000000
vt 1.000000 0.000000
vt 0.500000 0.500000
vt 0.000000 1.000000
vt 1.000000 1.000000
vt 0.500000 0.500000
vt 0.000000 0.000000
vt 1.000000 0.000000
vt 0.500000 0.500000
vt 0.000000 1.000000
vt 1.000000 1.000000
vt 0.500000 0.500000
vt 0.000000 0.000000
vt 1.000000 0.000000
vt 0.500000 0.500000
vt 0.000000 1.000000
vt 1.000000 1.000000
vt 0.500000 0.500000
vt 0.000000 0.000000
vt 1.000000 0.000000
vt 0.500000 0.500000
vt 0.000000 1.000000
vt 1.000000 1.000000
vt 0.500000 0.500000
vt 0.000000 0.000000
vt 1.000000 0.000000
vt 0.500000 0.500000
vt 0.000000 1.000000
vt 1.000000 1.000000
vt 0.500000 0.500000
vt 0.000000 0.000000
vt 1.000000 0.000000
vt 0.500000 0.500000
vt 0.000000 1.000000
vt 1.000000 1.000000
vt 0.500000 0.500000
vt 0.000000 0.000000
vt 1.000000 0.000000
vt 0.500000 0.500000
vt 0.000000 1.000000
vt 1.000000 1.000000
vt 0.000000 0.000000
vt 1.000000 0.000000
vt 1.000000 1.000000
vt 0.000000 1.000000
vt 0.000000 0.000000
vt 1.000000 0.000000
vt 1.000000 1.000000
vt 0.000000 1.000000
vt 0.000000 0.000000
vt 1.000000 0.000000
vt 1.000000 1.000000
vt 0.000000 1.000000
vt 0.000000 0.000000
vt 1.000000 0.000000
vt 1.000000 1.000000
vt 0.000000 1.000000
vt 0.000000 0.000000
vt 1.000000 0.000000
vt 1.000000 1.000000
vt 0.000000 1.000000
vt 0.000000 0.000000
vt 1.000000 0.000000
vt 1.000000 1.000000
vt 0.000000 1.000000
vt 0.000000 0.000000
vt 1.000000 0.000000
vt 1.000000 1.000000
vt 0.000000 1.000000
vt 0.500000 0.500000
vt 0.000000 0.000000
vt 1.000000 0.000000
vt 0.500000 0.500000
vt 0.000000 1.000000
vt 1.000000 1.000000
vt 0.500000 0.500000
vt 0.000000 0.000000
vt 1.000000 0.000000
vt 0.500000 0.500000
vt 0.000000 1.000000
vt 1.000000 1.000000
vt 0.500000 0.500000
vt 0.000000 0.000000
vt 1.000000 0.000000
vt 0.500000 0.500000
vt 0.000000 1.000000
vt 1.000000 1.000000
vt 0.500000 0.500000
vt 0.000000 0.000000
vt 1.000000 0.000000
vt 0.500000 0.500000
vt 0.000000 1.000000
vt 1.000000 1.000000
vt 0.500000 0.500000
vt 0.000000 0.000000
vt 1.000000 0.000000
vt 0.500000 0.500000
vt 0.000000 1.000000
vt 1.000000 1.000000
vt 0.500000 0.500000
vt 0.000000 0.000000
vt 1.000000 0.000000
vt 0.500000 0.500000
vt 0.000000 1.000000
vt 1.000000 1.000000
vt 0.500000 0.500000
vt 0.000000 0.000000
vt 1.000000 0.000000
vt 0.500000 0.500000
vt 0.000000 1.000000
vt 1.000000 1.000000
vt 0.000000 0.000000
vt 1.000000 0.000000
vt 1.000000 1.000000
vt 0.000000 1.000000
vt 0.000000 0.000000
vt 1.000000 0.000000
vt 1.000000 1.000000
vt 0.000000 1.000000
vt 0.000000 0.000000
vt 1.000000 0.000000
vt 1.000000 1.000000
vt 0.000000 1.000000
vt 0.000000 0.000000
vt 1.000000 0.000000
vt 1.000000 1.000000
vt 0.000000 1.000000
vt 0.000000 0.000000
vt 1.000000 0.000000
vt 1.000000 1.000000
vt 0.000000 1.000000
vt 0.000000 0.000000
vt 1.000000 0.000000
vt 1.000000 1.000000
vt 0.000000 1.000000
vt 0.000000 0.000000
vt 1.000000 0.000000
vt 1.000000 1.000000
vt 0.000000 1.000000
vt 0.500000 0.500000
vt 0.000000 0.000000
vt 1.000000 0.000000
vt 0.500000 0.500000
vt 0.000000 1.000000
vt 1.000000 1.000000
vt 0.500000 0.500000
vt 0.000000 0.000000
vt 1.000000 0.000000
vt 0.500000 0.500000
vt 0.000000 1.000000
vt 1.000000 1.000000
vt 0.500000 0.500000
vt 0.000000 0.000000
vt 1.000000 0.000000
vt 0.500000 0.500000
vt 0.000000 1.000000
vt 1.000000 1.000000
vt 0.500000 0.500000
vt 0.000000 0.000000
vt 1.000000 0.000000
vt 0.500000 0.500000
vt 0.000000 1.000000
vt 1.000000 1.000000
vt 0.500000 0.500000
vt 0.000000 0.000000
vt 1.000000 0.000000
vt 0.500000 0.500000
vt 0.000000 1.000000
vt 1.000000 1.000000
vt 0.500000 0.500000
vt 0.000000 0.000000
vt 1.000000 0.000000
vt 0.500000 0.500000
vt 0.000000 1.000000
vt 1.000000 1.000000
vt 0.500000 0.500000
vt 0.000000 0.000000
vt 1.000000 0.000000
vt 0.500000 0.500000
vt 0.000000 1.000000
vt 1.000000 1.000000
vt 0.000000 0.000000
vt 1.000000 0.000000
vt 1.000000 1.000000
vt 0.000000 1.000000
vt 0.000000 0.000000
vt 1.000000 0.000000
vt 1.000000 1.000000
vt 0.000000 1.000000
vt 0.000000 0.000000
vt 1.000000 0.000000
vt 1.000000 1.000000
vt 0.000000 1.000000
vt 0.000000 0.000000
vt 1.000000 0.000000
vt 1.000000 1.000000
vt 0.000000 1.000000
vt 0.000000 0.000000
vt 1.000000 0.000000
vt 1.000000 1.000000
vt 0.000000 1.000000
vt 0.000000 0.000000
vt 1.000000 0.000000
vt 1.000000 1.000000
vt 0.000000 1.000000
vt 0.500000 0.500000
vt 0.000000 0.000000
vt 1.000000 0.000000
vt 0.500000 0.500000
vt 0.000000 1.000000
vt 1.000000 1.000000
vt 0.500000 0.500000
vt 0.000000 0.000000
vt 1.000000 0.000000
vt 0.500000 0.500000
vt 0.000000 1.000000
vt 1.000000 1.000000
vt 0.500000 0.500000
vt 0.000000 0.000000
vt 1.000000 0.000000
vt 0.500000 0.500000
vt 0.000000 1.000000
vt 1.000000 1.000000
vt 0.500000 0.500000
vt 0.000000 0.000000
vt 1.000000 0.000000
vt 0.500000 0.500000
vt 0.000000 1.000000
vt 1.000000 1.000000
vt 0.500000 0.500000
vt 0.000000 0.000000
vt 1.000000 0.000000
vt 0.500000 0.500000
vt 0.000000 1.000000
vt 1.000000 1.000000
vt 0.500000 0.500000
vt 0.000000 0.000000
vt 1.000000 0.000000
vt 0.500000 0.500000
vt 0.000000 1.000000
vt 1.000000 1.000000
vt 0.000000 0.000000
vt 1.000000 0.000000
vt 1.000000 1.000000
vt 0.000000 1.000000
vt 0.000000 0.000000
vt 1.000000 0.000000
vt 1.000000 1.000000
vt 0.000000 1.000000
vt 0.000000 0.000000
vt 1.000000 0.000000
vt 1.000000 1.000000
vt 0.000000 1.000000
vt 0.000000 0.000000
vt 1.000000 0.000000
vt 1.000000 1.000000
vt 0.000000 1.000000
vt 0.000000 0.000000
vt 1.000000 0.000000
vt 1.000000 1.000000
vt 0.000000 1.000000
vt 0.000000 0.000000
vt 1.000000 0.000000
vt 1.000000 1.000000
vt 0.000000 1.000000
vt 0.500000 0.500000
vt 0.000000 0.000000
vt 1.000000 0.000000
vt 0.500000 0.500000
vt 0.000000 1.000000
vt 1.000000 1.000000
vt 0.500000 0.500000
vt 0.000000 0.000000
vt 1.000000 0.000000
vt 0.500000 0.500000
vt 0.000000 1.000000
vt 1.000000 1.000000
vt 0.500000 0.500000
vt 0.000000 0.000000
vt 1.000000 0.000000
vt 0.500000 0.500000
vt 0.000000 1.000000
vt 1.000000 1.000000
vt 0.500000 0.500000
vt 0.000000 0.000000
vt 1.000000 0.000000
vt 0.500000 0.500000
vt 0.000000 1.000000
vt 1.000000 1.000000
vt 0.500000 0.500000
vt 0.000000 0.000000
vt 1.000000 0.000000
vt 0.500000 0.500000
vt 0.000000 1.000000
vt 1.000000 1.000000
vt 0.500000 0.500000
vt 0.000000 0.000000
vt 1.000000 0.000000
vt 0.500000 0.500000
vt 0.000000 1.000000
vt 1.000000 1.000000
usemtl Wood
f 1/1 2/2 3/3
f 1/1 3/3 4/4
f 5/5 6/6 7/7
f 5/5 7/7 8/8
f 9/9 10/10 11/11
f 9/9 11/11 12/12
f 13/13 14/14 15/15
f 13/13 15/15 16/16
f 17/17 18/18 19/19
f 17/17 19/19 20/20
f 21/21 22/22 23/23
f 21/21 23/23 24/24
f 25/25 26/26 27/27
f 25/25 27/27 28/28
f 29/29 30/30 31/31
f 32/32 33/33 34/34
f 35/35 36/36 37/37
f 38/38 39/39 40/40
f 41/41 42/42 43/43
f 44/44 45/45 46/46
f 47/47 48/48 49/49
f 50/50 51/51 52/52
f 53/53 54/54 55/55
f 56/56 57/57 58/58
f 59/59 60/60 61/61
f 62/62 63/63 64/64
f 65/65 66/66 67/67
f 68/68 69/69 70/70
f 71/71 72/72 73/73
f 71/71 73/73 74/74
f 75/75 76/76 77/77
f 75/75 77/77 78/78
f 79/79 80/80 81/81
f 79/79 81/81 82/82
f 83/83 84/84 85/85
f 83/83 85/85 86/86
f 87/87 88/88 89/89
f 87/87 89/89 90/90
f 91/91 92/92 93/93
f 91/91 93/93 94/94
f 95/95 96/96 97/97
f 95/95 97/97 98/98
f 99/99 100/100 101/101
f 102/102 103/103 104/104
f 105/105 106/106 107/107
f 108/108 109/109 110/110
f 111/111 112/112 113/113
f 114/114 115/115 116/116
f 117/117 118/118 119/119
f 120/120 121/121 122/122
f 123/123 124/124 125/125
f 126/126 127/127 128/128
f 129/129 130/130 131/131
f 132/132 133/133 134/134
f 135/135 136/136 137/137
f 138/138 139/139 140/140
f 141/141 142/142 143/143
f 141/141 143/143 144/144
f 145/145 146/146 147/147
f 145/145 147/147 148/148
f 149/149 150/150 151/151
f 149/149 151/151 152/152
f 153/153 154/154 155/155
f 153/153 155/155 156/156
f 157/157 158/158 159/159
f 157/157 159/159 160/160
f 161/161 162/162 163/163
f 161/161 163/163 164/164
f 165/165 166/166 167/167
f 165/165 167/167 168/168
f 169/169 170/170 171/171
f 172/172 173/173 174/174
f 175/175 176/176 177/177
f 178/178 179/179 180/180
f 181/181 182/182 183/183
f 184/184 185/185 186/186
f 187/187 188/188 189/189
f 190/190 191/191 192/192
f 193/193 194/194 195/195
f 196/196 197/197 198/198
f 199/199 200/200 201/201
f 202/202 203/203 204/204
f 205/205 206/206 207/207
f 208/208 209/209 210/210
f 211/211 212/212 213/213
f 211/211 213/213 214/214
f 215/215 216/216 217/217
f 215/215 217/217 218/218
f 219/219 220/220 221/221
f 219/219 221/221 222/222
f 223/223 224/224 225/225
f 223/223 225/225 226/226
f 227/227 228/228 229/229
f 227/227 229/229 230/230
f 231/231 232/232 233/233
f 231/231 233/233 234/234
f 235/235 236/236 237/237
f 235/235 237/237 238/238
f 239/239 240/240 241/241
f 242/242 243/243 244/244
f 245/245 246/246 247/247
f 248/248 249/249 250/250
f 251/251 252/252 253/253
f 254/254 255/255 256/256
f 257/257 258/258 259/259
f 260/260 261/261 262/262
f 263/263 264/264 265/265
f 266/266 267/267 268/268
f 269/269 270/270 271/271
f 272/272 273/273 274/274
f 275/275 276/276 277/277
f 278/278 279/279 280/280
usemtl Rope
f 281/281 282/282 283/283
f 281/281 283/283 284/284
f 285/285 286/286 287/287
f 285/285 287/287 288/288
f 289/289 290/290 291/291
f 289/289 291/291 292/292
f 293/293 294/294 295/295
f 293/293 295/295 296/296
f 297/297 298/298 299/299
f 297/297 299/299 300/300
f 301/301 302/302 303/303
f 301/301 303/303 304/304
f 305/305 306/306 307/307
f 308/308 309/309 310/310
f 311/311 312/312 313/313
f 314/314 315/315 316/316
f 317/317 318/318 319/319
f 320/320 321/321 322/322
f 323/323 324/324 325/325
f 326/326 327/327 328/328
f 329/329 330/330 331/331
f 332/332 333/333 334/334
f 335/335 336/336 337/337
f 338/338 339/339 340/340
f 341/341 342/342 343/343
f 341/341 343/343 344/344
f 345/345 346/346 347/347
f 345/345 347/347 348/348
f 349/349 350/350 351/351
f 349/349 351/351 352/352
f 353/353 354/354 355/355
f 353/353 355/355 356/356
f 357/357 358/358 359/359
f 357/357 359/359 360/360
f 361/361 362/362 363/363
f 361/361 363/363 364/364
f 365/365 366/366 367/367
f 368/368 369/369 370/370
f 371/371 372/372 373/373
f 374/374 375/375 376/376
f 377/377 378/378 379/379
f 380/380 381/381 382/382
f 383/383 384/384 385/385
f 386/386 387/387 388/388
f 389/389 390/390 391/391
f 392/392 393/393 394/394
f 395/395 396/396 397/397
f 398/398 399/399 400/400
