mtllib ../../Materials/project_oen.mtl
o pr-005_portable_radio__repaired
v -0.460000 0.070000 -0.190000
v 0.460000 0.070000 -0.190000
v 0.460000 0.650000 -0.190000
v -0.460000 0.650000 -0.190000
v 0.460000 0.070000 0.190000
v -0.460000 0.070000 0.190000
v -0.460000 0.650000 0.190000
v 0.460000 0.650000 0.190000
v -0.460000 0.070000 0.190000
v -0.460000 0.070000 -0.190000
v -0.460000 0.650000 -0.190000
v -0.460000 0.650000 0.190000
v 0.460000 0.070000 -0.190000
v 0.460000 0.070000 0.190000
v 0.460000 0.650000 0.190000
v 0.460000 0.650000 -0.190000
v -0.460000 0.650000 -0.190000
v 0.460000 0.650000 -0.190000
v 0.460000 0.650000 0.190000
v -0.460000 0.650000 0.190000
v -0.460000 0.070000 0.190000
v 0.460000 0.070000 0.190000
v 0.460000 0.070000 -0.190000
v -0.460000 0.070000 -0.190000
v -0.350000 0.225000 -0.222500
v 0.350000 0.225000 -0.222500
v 0.350000 0.535000 -0.222500
v -0.350000 0.535000 -0.222500
v 0.350000 0.225000 -0.187500
v -0.350000 0.225000 -0.187500
v -0.350000 0.535000 -0.187500
v 0.350000 0.535000 -0.187500
v -0.350000 0.225000 -0.187500
v -0.350000 0.225000 -0.222500
v -0.350000 0.535000 -0.222500
v -0.350000 0.535000 -0.187500
v 0.350000 0.225000 -0.222500
v 0.350000 0.225000 -0.187500
v 0.350000 0.535000 -0.187500
v 0.350000 0.535000 -0.222500
v -0.350000 0.535000 -0.222500
v 0.350000 0.535000 -0.222500
v 0.350000 0.535000 -0.187500
v -0.350000 0.535000 -0.187500
v -0.350000 0.225000 -0.187500
v 0.350000 0.225000 -0.187500
v 0.350000 0.225000 -0.222500
v -0.350000 0.225000 -0.222500
v -0.475000 0.055000 -0.210000
v -0.385000 0.055000 -0.210000
v -0.385000 0.165000 -0.210000
v -0.475000 0.165000 -0.210000
v -0.385000 0.055000 0.210000
v -0.475000 0.055000 0.210000
v -0.475000 0.165000 0.210000
v -0.385000 0.165000 0.210000
v -0.475000 0.055000 0.210000
v -0.475000 0.055000 -0.210000
v -0.475000 0.165000 -0.210000
v -0.475000 0.165000 0.210000
v -0.385000 0.055000 -0.210000
v -0.385000 0.055000 0.210000
v -0.385000 0.165000 0.210000
v -0.385000 0.165000 -0.210000
v -0.475000 0.165000 -0.210000
v -0.385000 0.165000 -0.210000
v -0.385000 0.165000 0.210000
v -0.475000 0.165000 0.210000
v -0.475000 0.055000 0.210000
v -0.385000 0.055000 0.210000
v -0.385000 0.055000 -0.210000
v -0.475000 0.055000 -0.210000
v -0.475000 0.555000 -0.210000
v -0.385000 0.555000 -0.210000
v -0.385000 0.665000 -0.210000
v -0.475000 0.665000 -0.210000
v -0.385000 0.555000 0.210000
v -0.475000 0.555000 0.210000
v -0.475000 0.665000 0.210000
v -0.385000 0.665000 0.210000
v -0.475000 0.555000 0.210000
v -0.475000 0.555000 -0.210000
v -0.475000 0.665000 -0.210000
v -0.475000 0.665000 0.210000
v -0.385000 0.555000 -0.210000
v -0.385000 0.555000 0.210000
v -0.385000 0.665000 0.210000
v -0.385000 0.665000 -0.210000
v -0.475000 0.665000 -0.210000
v -0.385000 0.665000 -0.210000
v -0.385000 0.665000 0.210000
v -0.475000 0.665000 0.210000
v -0.475000 0.555000 0.210000
v -0.385000 0.555000 0.210000
v -0.385000 0.555000 -0.210000
v -0.475000 0.555000 -0.210000
v 0.385000 0.055000 -0.210000
v 0.475000 0.055000 -0.210000
v 0.475000 0.165000 -0.210000
v 0.385000 0.165000 -0.210000
v 0.475000 0.055000 0.210000
v 0.385000 0.055000 0.210000
v 0.385000 0.165000 0.210000
v 0.475000 0.165000 0.210000
v 0.385000 0.055000 0.210000
v 0.385000 0.055000 -0.210000
v 0.385000 0.165000 -0.210000
v 0.385000 0.165000 0.210000
v 0.475000 0.055000 -0.210000
v 0.475000 0.055000 0.210000
v 0.475000 0.165000 0.210000
v 0.475000 0.165000 -0.210000
v 0.385000 0.165000 -0.210000
v 0.475000 0.165000 -0.210000
v 0.475000 0.165000 0.210000
v 0.385000 0.165000 0.210000
v 0.385000 0.055000 0.210000
v 0.475000 0.055000 0.210000
v 0.475000 0.055000 -0.210000
v 0.385000 0.055000 -0.210000
v 0.385000 0.555000 -0.210000
v 0.475000 0.555000 -0.210000
v 0.475000 0.665000 -0.210000
v 0.385000 0.665000 -0.210000
v 0.475000 0.555000 0.210000
v 0.385000 0.555000 0.210000
v 0.385000 0.665000 0.210000
v 0.475000 0.665000 0.210000
v 0.385000 0.555000 0.210000
v 0.385000 0.555000 -0.210000
v 0.385000 0.665000 -0.210000
v 0.385000 0.665000 0.210000
v 0.475000 0.555000 -0.210000
v 0.475000 0.555000 0.210000
v 0.475000 0.665000 0.210000
v 0.475000 0.665000 -0.210000
v 0.385000 0.665000 -0.210000
v 0.475000 0.665000 -0.210000
v 0.475000 0.665000 0.210000
v 0.385000 0.665000 0.210000
v 0.385000 0.555000 0.210000
v 0.475000 0.555000 0.210000
v 0.475000 0.555000 -0.210000
v 0.385000 0.555000 -0.210000
v -0.470000 0.755000 0.000000
v -0.470000 0.762322 0.017678
v -0.090000 0.762322 0.017678
v -0.090000 0.755000 0.000000
v -0.470000 0.762322 0.017678
v -0.470000 0.780000 0.025000
v -0.090000 0.780000 0.025000
v -0.090000 0.762322 0.017678
v -0.470000 0.780000 0.025000
v -0.470000 0.797678 0.017678
v -0.090000 0.797678 0.017678
v -0.090000 0.780000 0.025000
v -0.470000 0.797678 0.017678
v -0.470000 0.805000 0.000000
v -0.090000 0.805000 0.000000
v -0.090000 0.797678 0.017678
v -0.470000 0.805000 0.000000
v -0.470000 0.797678 -0.017678
v -0.090000 0.797678 -0.017678
v -0.090000 0.805000 0.000000
v -0.470000 0.797678 -0.017678
v -0.470000 0.780000 -0.025000
v -0.090000 0.780000 -0.025000
v -0.090000 0.797678 -0.017678
v -0.470000 0.780000 -0.025000
v -0.470000 0.762322 -0.017678
v -0.090000 0.762322 -0.017678
v -0.090000 0.780000 -0.025000
v -0.470000 0.762322 -0.017678
v -0.470000 0.755000 0.000000
v -0.090000 0.755000 0.000000
v -0.090000 0.762322 -0.017678
v -0.470000 0.780000 0.000000
v -0.470000 0.762322 0.017678
v -0.470000 0.755000 0.000000
v -0.090000 0.780000 0.000000
v -0.090000 0.755000 0.000000
v -0.090000 0.762322 0.017678
v -0.470000 0.780000 0.000000
v -0.470000 0.780000 0.025000
v -0.470000 0.762322 0.017678
v -0.090000 0.780000 0.000000
v -0.090000 0.762322 0.017678
v -0.090000 0.780000 0.025000
v -0.470000 0.780000 0.000000
v -0.470000 0.797678 0.017678
v -0.470000 0.780000 0.025000
v -0.090000 0.780000 0.000000
v -0.090000 0.780000 0.025000
v -0.090000 0.797678 0.017678
v -0.470000 0.780000 0.000000
v -0.470000 0.805000 0.000000
v -0.470000 0.797678 0.017678
v -0.090000 0.780000 0.000000
v -0.090000 0.797678 0.017678
v -0.090000 0.805000 0.000000
v -0.470000 0.780000 0.000000
v -0.470000 0.797678 -0.017678
v -0.470000 0.805000 0.000000
v -0.090000 0.780000 0.000000
v -0.090000 0.805000 0.000000
v -0.090000 0.797678 -0.017678
v -0.470000 0.780000 0.000000
v -0.470000 0.780000 -0.025000
v -0.470000 0.797678 -0.017678
v -0.090000 0.780000 0.000000
v -0.090000 0.797678 -0.017678
v -0.090000 0.780000 -0.025000
v -0.470000 0.780000 0.000000
v -0.470000 0.762322 -0.017678
v -0.470000 0.780000 -0.025000
v -0.090000 0.780000 0.000000
v -0.090000 0.780000 -0.025000
v -0.090000 0.762322 -0.017678
v -0.470000 0.780000 0.000000
v -0.470000 0.755000 0.000000
v -0.470000 0.762322 -0.017678
v -0.090000 0.780000 0.000000
v -0.090000 0.762322 -0.017678
v -0.090000 0.755000 0.000000
v 0.090000 0.755000 0.000000
v 0.090000 0.762322 0.017678
v 0.470000 0.762322 0.017678
v 0.470000 0.755000 0.000000
v 0.090000 0.762322 0.017678
v 0.090000 0.780000 0.025000
v 0.470000 0.780000 0.025000
v 0.470000 0.762322 0.017678
v 0.090000 0.780000 0.025000
v 0.090000 0.797678 0.017678
v 0.470000 0.797678 0.017678
v 0.470000 0.780000 0.025000
v 0.090000 0.797678 0.017678
v 0.090000 0.805000 0.000000
v 0.470000 0.805000 0.000000
v 0.470000 0.797678 0.017678
v 0.090000 0.805000 0.000000
v 0.090000 0.797678 -0.017678
v 0.470000 0.797678 -0.017678
v 0.470000 0.805000 0.000000
v 0.090000 0.797678 -0.017678
v 0.090000 0.780000 -0.025000
v 0.470000 0.780000 -0.025000
v 0.470000 0.797678 -0.017678
v 0.090000 0.780000 -0.025000
v 0.090000 0.762322 -0.017678
v 0.470000 0.762322 -0.017678
v 0.470000 0.780000 -0.025000
v 0.090000 0.762322 -0.017678
v 0.090000 0.755000 0.000000
v 0.470000 0.755000 0.000000
v 0.470000 0.762322 -0.017678
v 0.090000 0.780000 0.000000
v 0.090000 0.762322 0.017678
v 0.090000 0.755000 0.000000
v 0.470000 0.780000 0.000000
v 0.470000 0.755000 0.000000
v 0.470000 0.762322 0.017678
v 0.090000 0.780000 0.000000
v 0.090000 0.780000 0.025000
v 0.090000 0.762322 0.017678
v 0.470000 0.780000 0.000000
v 0.470000 0.762322 0.017678
v 0.470000 0.780000 0.025000
v 0.090000 0.780000 0.000000
v 0.090000 0.797678 0.017678
v 0.090000 0.780000 0.025000
v 0.470000 0.780000 0.000000
v 0.470000 0.780000 0.025000
v 0.470000 0.797678 0.017678
v 0.090000 0.780000 0.000000
v 0.090000 0.805000 0.000000
v 0.090000 0.797678 0.017678
v 0.470000 0.780000 0.000000
v 0.470000 0.797678 0.017678
v 0.470000 0.805000 0.000000
v 0.090000 0.780000 0.000000
v 0.090000 0.797678 -0.017678
v 0.090000 0.805000 0.000000
v 0.470000 0.780000 0.000000
v 0.470000 0.805000 0.000000
v 0.470000 0.797678 -0.017678
v 0.090000 0.780000 0.000000
v 0.090000 0.780000 -0.025000
v 0.090000 0.797678 -0.017678
v 0.470000 0.780000 0.000000
v 0.470000 0.797678 -0.017678
v 0.470000 0.780000 -0.025000
v 0.090000 0.780000 0.000000
v 0.090000 0.762322 -0.017678
v 0.090000 0.780000 -0.025000
v 0.470000 0.780000 0.000000
v 0.470000 0.780000 -0.025000
v 0.470000 0.762322 -0.017678
v 0.090000 0.780000 0.000000
v 0.090000 0.755000 0.000000
v 0.090000 0.762322 -0.017678
v 0.470000 0.780000 0.000000
v 0.470000 0.762322 -0.017678
v 0.470000 0.755000 0.000000
v 0.280000 0.985000 0.000000
v 0.280000 0.977678 0.017678
v -0.280000 0.977678 0.017678
v -0.280000 0.985000 0.000000
v 0.280000 0.977678 0.017678
v 0.280000 0.960000 0.025000
v -0.280000 0.960000 0.025000
v -0.280000 0.977678 0.017678
v 0.280000 0.960000 0.025000
v 0.280000 0.942322 0.017678
v -0.280000 0.942322 0.017678
v -0.280000 0.960000 0.025000
v 0.280000 0.942322 0.017678
v 0.280000 0.935000 0.000000
v -0.280000 0.935000 0.000000
v -0.280000 0.942322 0.017678
v 0.280000 0.935000 0.000000
v 0.280000 0.942322 -0.017678
v -0.280000 0.942322 -0.017678
v -0.280000 0.935000 0.000000
v 0.280000 0.942322 -0.017678
v 0.280000 0.960000 -0.025000
v -0.280000 0.960000 -0.025000
v -0.280000 0.942322 -0.017678
v 0.280000 0.960000 -0.025000
v 0.280000 0.977678 -0.017678
v -0.280000 0.977678 -0.017678
v -0.280000 0.960000 -0.025000
v 0.280000 0.977678 -0.017678
v 0.280000 0.985000 0.000000
v -0.280000 0.985000 0.000000
v -0.280000 0.977678 -0.017678
v 0.280000 0.960000 0.000000
v 0.280000 0.977678 0.017678
v 0.280000 0.985000 0.000000
v -0.280000 0.960000 0.000000
v -0.280000 0.985000 0.000000
v -0.280000 0.977678 0.017678
v 0.280000 0.960000 0.000000
v 0.280000 0.960000 0.025000
v 0.280000 0.977678 0.017678
v -0.280000 0.960000 0.000000
v -0.280000 0.977678 0.017678
v -0.280000 0.960000 0.025000
v 0.280000 0.960000 0.000000
v 0.280000 0.942322 0.017678
v 0.280000 0.960000 0.025000
v -0.280000 0.960000 0.000000
v -0.280000 0.960000 0.025000
v -0.280000 0.942322 0.017678
v 0.280000 0.960000 0.000000
v 0.280000 0.935000 0.000000
v 0.280000 0.942322 0.017678
v -0.280000 0.960000 0.000000
v -0.280000 0.942322 0.017678
v -0.280000 0.935000 0.000000
v 0.280000 0.960000 0.000000
v 0.280000 0.942322 -0.017678
v 0.280000 0.935000 0.000000
v -0.280000 0.960000 0.000000
v -0.280000 0.935000 0.000000
v -0.280000 0.942322 -0.017678
v 0.280000 0.960000 0.000000
v 0.280000 0.960000 -0.025000
v 0.280000 0.942322 -0.017678
v -0.280000 0.960000 0.000000
v -0.280000 0.942322 -0.017678
v -0.280000 0.960000 -0.025000
v 0.280000 0.960000 0.000000
v 0.280000 0.977678 -0.017678
v 0.280000 0.960000 -0.025000
v -0.280000 0.960000 0.000000
v -0.280000 0.960000 -0.025000
v -0.280000 0.977678 -0.017678
v 0.280000 0.960000 0.000000
v 0.280000 0.985000 0.000000
v 0.280000 0.977678 -0.017678
v -0.280000 0.960000 0.000000
v -0.280000 0.977678 -0.017678
v -0.280000 0.985000 0.000000
v -0.191000 0.230000 -0.235000
v -0.169000 0.230000 -0.235000
v -0.169000 0.450000 -0.235000
v -0.191000 0.450000 -0.235000
v -0.169000 0.230000 -0.217000
v -0.191000 0.230000 -0.217000
v -0.191000 0.450000 -0.217000
v -0.169000 0.450000 -0.217000
v -0.191000 0.230000 -0.217000
v -0.191000 0.230000 -0.235000
v -0.191000 0.450000 -0.235000
v -0.191000 0.450000 -0.217000
v -0.169000 0.230000 -0.235000
v -0.169000 0.230000 -0.217000
v -0.169000 0.450000 -0.217000
v -0.169000 0.450000 -0.235000
v -0.191000 0.450000 -0.235000
v -0.169000 0.450000 -0.235000
v -0.169000 0.450000 -0.217000
v -0.191000 0.450000 -0.217000
v -0.191000 0.230000 -0.217000
v -0.169000 0.230000 -0.217000
v -0.169000 0.230000 -0.235000
v -0.191000 0.230000 -0.235000
v -0.131000 0.230000 -0.235000
v -0.109000 0.230000 -0.235000
v -0.109000 0.450000 -0.235000
v -0.131000 0.450000 -0.235000
v -0.109000 0.230000 -0.217000
v -0.131000 0.230000 -0.217000
v -0.131000 0.450000 -0.217000
v -0.109000 0.450000 -0.217000
v -0.131000 0.230000 -0.217000
v -0.131000 0.230000 -0.235000
v -0.131000 0.450000 -0.235000
v -0.131000 0.450000 -0.217000
v -0.109000 0.230000 -0.235000
v -0.109000 0.230000 -0.217000
v -0.109000 0.450000 -0.217000
v -0.109000 0.450000 -0.235000
v -0.131000 0.450000 -0.235000
v -0.109000 0.450000 -0.235000
v -0.109000 0.450000 -0.217000
v -0.131000 0.450000 -0.217000
v -0.131000 0.230000 -0.217000
v -0.109000 0.230000 -0.217000
v -0.109000 0.230000 -0.235000
v -0.131000 0.230000 -0.235000
v -0.071000 0.230000 -0.235000
v -0.049000 0.230000 -0.235000
v -0.049000 0.450000 -0.235000
v -0.071000 0.450000 -0.235000
v -0.049000 0.230000 -0.217000
v -0.071000 0.230000 -0.217000
v -0.071000 0.450000 -0.217000
v -0.049000 0.450000 -0.217000
v -0.071000 0.230000 -0.217000
v -0.071000 0.230000 -0.235000
v -0.071000 0.450000 -0.235000
v -0.071000 0.450000 -0.217000
v -0.049000 0.230000 -0.235000
v -0.049000 0.230000 -0.217000
v -0.049000 0.450000 -0.217000
v -0.049000 0.450000 -0.235000
v -0.071000 0.450000 -0.235000
v -0.049000 0.450000 -0.235000
v -0.049000 0.450000 -0.217000
v -0.071000 0.450000 -0.217000
v -0.071000 0.230000 -0.217000
v -0.049000 0.230000 -0.217000
v -0.049000 0.230000 -0.235000
v -0.071000 0.230000 -0.235000
v -0.011000 0.230000 -0.235000
v 0.011000 0.230000 -0.235000
v 0.011000 0.450000 -0.235000
v -0.011000 0.450000 -0.235000
v 0.011000 0.230000 -0.217000
v -0.011000 0.230000 -0.217000
v -0.011000 0.450000 -0.217000
v 0.011000 0.450000 -0.217000
v -0.011000 0.230000 -0.217000
v -0.011000 0.230000 -0.235000
v -0.011000 0.450000 -0.235000
v -0.011000 0.450000 -0.217000
v 0.011000 0.230000 -0.235000
v 0.011000 0.230000 -0.217000
v 0.011000 0.450000 -0.217000
v 0.011000 0.450000 -0.235000
v -0.011000 0.450000 -0.235000
v 0.011000 0.450000 -0.235000
v 0.011000 0.450000 -0.217000
v -0.011000 0.450000 -0.217000
v -0.011000 0.230000 -0.217000
v 0.011000 0.230000 -0.217000
v 0.011000 0.230000 -0.235000
v -0.011000 0.230000 -0.235000
v 0.049000 0.230000 -0.235000
v 0.071000 0.230000 -0.235000
v 0.071000 0.450000 -0.235000
v 0.049000 0.450000 -0.235000
v 0.071000 0.230000 -0.217000
v 0.049000 0.230000 -0.217000
v 0.049000 0.450000 -0.217000
v 0.071000 0.450000 -0.217000
v 0.049000 0.230000 -0.217000
v 0.049000 0.230000 -0.235000
v 0.049000 0.450000 -0.235000
v 0.049000 0.450000 -0.217000
v 0.071000 0.230000 -0.235000
v 0.071000 0.230000 -0.217000
v 0.071000 0.450000 -0.217000
v 0.071000 0.450000 -0.235000
v 0.049000 0.450000 -0.235000
v 0.071000 0.450000 -0.235000
v 0.071000 0.450000 -0.217000
v 0.049000 0.450000 -0.217000
v 0.049000 0.230000 -0.217000
v 0.071000 0.230000 -0.217000
v 0.071000 0.230000 -0.235000
v 0.049000 0.230000 -0.235000
v 0.109000 0.230000 -0.235000
v 0.131000 0.230000 -0.235000
v 0.131000 0.450000 -0.235000
v 0.109000 0.450000 -0.235000
v 0.131000 0.230000 -0.217000
v 0.109000 0.230000 -0.217000
v 0.109000 0.450000 -0.217000
v 0.131000 0.450000 -0.217000
v 0.109000 0.230000 -0.217000
v 0.109000 0.230000 -0.235000
v 0.109000 0.450000 -0.235000
v 0.109000 0.450000 -0.217000
v 0.131000 0.230000 -0.235000
v 0.131000 0.230000 -0.217000
v 0.131000 0.450000 -0.217000
v 0.131000 0.450000 -0.235000
v 0.109000 0.450000 -0.235000
v 0.131000 0.450000 -0.235000
v 0.131000 0.450000 -0.217000
v 0.109000 0.450000 -0.217000
v 0.109000 0.230000 -0.217000
v 0.131000 0.230000 -0.217000
v 0.131000 0.230000 -0.235000
v 0.109000 0.230000 -0.235000
v 0.169000 0.230000 -0.235000
v 0.191000 0.230000 -0.235000
v 0.191000 0.450000 -0.235000
v 0.169000 0.450000 -0.235000
v 0.191000 0.230000 -0.217000
v 0.169000 0.230000 -0.217000
v 0.169000 0.450000 -0.217000
v 0.191000 0.450000 -0.217000
v 0.169000 0.230000 -0.217000
v 0.169000 0.230000 -0.235000
v 0.169000 0.450000 -0.235000
v 0.169000 0.450000 -0.217000
v 0.191000 0.230000 -0.235000
v 0.191000 0.230000 -0.217000
v 0.191000 0.450000 -0.217000
v 0.191000 0.450000 -0.235000
v 0.169000 0.450000 -0.235000
v 0.191000 0.450000 -0.235000
v 0.191000 0.450000 -0.217000
v 0.169000 0.450000 -0.217000
v 0.169000 0.230000 -0.217000
v 0.191000 0.230000 -0.217000
v 0.191000 0.230000 -0.235000
v 0.169000 0.230000 -0.235000
v 0.035000 0.515000 -0.236000
v 0.325000 0.515000 -0.236000
v 0.325000 0.585000 -0.236000
v 0.035000 0.585000 -0.236000
v 0.325000 0.515000 -0.218000
v 0.035000 0.515000 -0.218000
v 0.035000 0.585000 -0.218000
v 0.325000 0.585000 -0.218000
v 0.035000 0.515000 -0.218000
v 0.035000 0.515000 -0.236000
v 0.035000 0.585000 -0.236000
v 0.035000 0.585000 -0.218000
v 0.325000 0.515000 -0.236000
v 0.325000 0.515000 -0.218000
v 0.325000 0.585000 -0.218000
v 0.325000 0.585000 -0.236000
v 0.035000 0.585000 -0.236000
v 0.325000 0.585000 -0.236000
v 0.325000 0.585000 -0.218000
v 0.035000 0.585000 -0.218000
v 0.035000 0.515000 -0.218000
v 0.325000 0.515000 -0.218000
v 0.325000 0.515000 -0.236000
v 0.035000 0.515000 -0.236000
v 0.382000 0.310000 -0.257500
v 0.370159 0.273557 -0.257500
v 0.370159 0.273557 -0.212500
v 0.382000 0.310000 -0.212500
v 0.370159 0.273557 -0.257500
v 0.339159 0.251034 -0.257500
v 0.339159 0.251034 -0.212500
v 0.370159 0.273557 -0.212500
v 0.339159 0.251034 -0.257500
v 0.300841 0.251034 -0.257500
v 0.300841 0.251034 -0.212500
v 0.339159 0.251034 -0.212500
v 0.300841 0.251034 -0.257500
v 0.269841 0.273557 -0.257500
v 0.269841 0.273557 -0.212500
v 0.300841 0.251034 -0.212500
v 0.269841 0.273557 -0.257500
v 0.258000 0.310000 -0.257500
v 0.258000 0.310000 -0.212500
v 0.269841 0.273557 -0.212500
v 0.258000 0.310000 -0.257500
v 0.269841 0.346443 -0.257500
v 0.269841 0.346443 -0.212500
v 0.258000 0.310000 -0.212500
v 0.269841 0.346443 -0.257500
v 0.300841 0.368966 -0.257500
v 0.300841 0.368966 -0.212500
v 0.269841 0.346443 -0.212500
v 0.300841 0.368966 -0.257500
v 0.339159 0.368966 -0.257500
v 0.339159 0.368966 -0.212500
v 0.300841 0.368966 -0.212500
v 0.339159 0.368966 -0.257500
v 0.370159 0.346443 -0.257500
v 0.370159 0.346443 -0.212500
v 0.339159 0.368966 -0.212500
v 0.370159 0.346443 -0.257500
v 0.382000 0.310000 -0.257500
v 0.382000 0.310000 -0.212500
v 0.370159 0.346443 -0.212500
v 0.320000 0.310000 -0.257500
v 0.370159 0.273557 -0.257500
v 0.382000 0.310000 -0.257500
v 0.320000 0.310000 -0.212500
v 0.382000 0.310000 -0.212500
v 0.370159 0.273557 -0.212500
v 0.320000 0.310000 -0.257500
v 0.339159 0.251034 -0.257500
v 0.370159 0.273557 -0.257500
v 0.320000 0.310000 -0.212500
v 0.370159 0.273557 -0.212500
v 0.339159 0.251034 -0.212500
v 0.320000 0.310000 -0.257500
v 0.300841 0.251034 -0.257500
v 0.339159 0.251034 -0.257500
v 0.320000 0.310000 -0.212500
v 0.339159 0.251034 -0.212500
v 0.300841 0.251034 -0.212500
v 0.320000 0.310000 -0.257500
v 0.269841 0.273557 -0.257500
v 0.300841 0.251034 -0.257500
v 0.320000 0.310000 -0.212500
v 0.300841 0.251034 -0.212500
v 0.269841 0.273557 -0.212500
v 0.320000 0.310000 -0.257500
v 0.258000 0.310000 -0.257500
v 0.269841 0.273557 -0.257500
v 0.320000 0.310000 -0.212500
v 0.269841 0.273557 -0.212500
v 0.258000 0.310000 -0.212500
v 0.320000 0.310000 -0.257500
v 0.269841 0.346443 -0.257500
v 0.258000 0.310000 -0.257500
v 0.320000 0.310000 -0.212500
v 0.258000 0.310000 -0.212500
v 0.269841 0.346443 -0.212500
v 0.320000 0.310000 -0.257500
v 0.300841 0.368966 -0.257500
v 0.269841 0.346443 -0.257500
v 0.320000 0.310000 -0.212500
v 0.269841 0.346443 -0.212500
v 0.300841 0.368966 -0.212500
v 0.320000 0.310000 -0.257500
v 0.339159 0.368966 -0.257500
v 0.300841 0.368966 -0.257500
v 0.320000 0.310000 -0.212500
v 0.300841 0.368966 -0.212500
v 0.339159 0.368966 -0.212500
v 0.320000 0.310000 -0.257500
v 0.370159 0.346443 -0.257500
v 0.339159 0.368966 -0.257500
v 0.320000 0.310000 -0.212500
v 0.339159 0.368966 -0.212500
v 0.370159 0.346443 -0.212500
v 0.320000 0.310000 -0.257500
v 0.382000 0.310000 -0.257500
v 0.370159 0.346443 -0.257500
v 0.320000 0.310000 -0.212500
v 0.370159 0.346443 -0.212500
v 0.382000 0.310000 -0.212500
v 0.247000 0.310000 -0.257500
v 0.238024 0.282374 -0.257500
v 0.238024 0.282374 -0.212500
v 0.247000 0.310000 -0.212500
v 0.238024 0.282374 -0.257500
v 0.214524 0.265300 -0.257500
v 0.214524 0.265300 -0.212500
v 0.238024 0.282374 -0.212500
v 0.214524 0.265300 -0.257500
v 0.185476 0.265300 -0.257500
v 0.185476 0.265300 -0.212500
v 0.214524 0.265300 -0.212500
v 0.185476 0.265300 -0.257500
v 0.161976 0.282374 -0.257500
v 0.161976 0.282374 -0.212500
v 0.185476 0.265300 -0.212500
v 0.161976 0.282374 -0.257500
v 0.153000 0.310000 -0.257500
v 0.153000 0.310000 -0.212500
v 0.161976 0.282374 -0.212500
v 0.153000 0.310000 -0.257500
v 0.161976 0.337626 -0.257500
v 0.161976 0.337626 -0.212500
v 0.153000 0.310000 -0.212500
v 0.161976 0.337626 -0.257500
v 0.185476 0.354700 -0.257500
v 0.185476 0.354700 -0.212500
v 0.161976 0.337626 -0.212500
v 0.185476 0.354700 -0.257500
v 0.214524 0.354700 -0.257500
v 0.214524 0.354700 -0.212500
v 0.185476 0.354700 -0.212500
v 0.214524 0.354700 -0.257500
v 0.238024 0.337626 -0.257500
v 0.238024 0.337626 -0.212500
v 0.214524 0.354700 -0.212500
v 0.238024 0.337626 -0.257500
v 0.247000 0.310000 -0.257500
v 0.247000 0.310000 -0.212500
v 0.238024 0.337626 -0.212500
v 0.200000 0.310000 -0.257500
v 0.238024 0.282374 -0.257500
v 0.247000 0.310000 -0.257500
v 0.200000 0.310000 -0.212500
v 0.247000 0.310000 -0.212500
v 0.238024 0.282374 -0.212500
v 0.200000 0.310000 -0.257500
v 0.214524 0.265300 -0.257500
v 0.238024 0.282374 -0.257500
v 0.200000 0.310000 -0.212500
v 0.238024 0.282374 -0.212500
v 0.214524 0.265300 -0.212500
v 0.200000 0.310000 -0.257500
v 0.185476 0.265300 -0.257500
v 0.214524 0.265300 -0.257500
v 0.200000 0.310000 -0.212500
v 0.214524 0.265300 -0.212500
v 0.185476 0.265300 -0.212500
v 0.200000 0.310000 -0.257500
v 0.161976 0.282374 -0.257500
v 0.185476 0.265300 -0.257500
v 0.200000 0.310000 -0.212500
v 0.185476 0.265300 -0.212500
v 0.161976 0.282374 -0.212500
v 0.200000 0.310000 -0.257500
v 0.153000 0.310000 -0.257500
v 0.161976 0.282374 -0.257500
v 0.200000 0.310000 -0.212500
v 0.161976 0.282374 -0.212500
v 0.153000 0.310000 -0.212500
v 0.200000 0.310000 -0.257500
v 0.161976 0.337626 -0.257500
v 0.153000 0.310000 -0.257500
v 0.200000 0.310000 -0.212500
v 0.153000 0.310000 -0.212500
v 0.161976 0.337626 -0.212500
v 0.200000 0.310000 -0.257500
v 0.185476 0.354700 -0.257500
v 0.161976 0.337626 -0.257500
v 0.200000 0.310000 -0.212500
v 0.161976 0.337626 -0.212500
v 0.185476 0.354700 -0.212500
v 0.200000 0.310000 -0.257500
v 0.214524 0.354700 -0.257500
v 0.185476 0.354700 -0.257500
v 0.200000 0.310000 -0.212500
v 0.185476 0.354700 -0.212500
v 0.214524 0.354700 -0.212500
v 0.200000 0.310000 -0.257500
v 0.238024 0.337626 -0.257500
v 0.214524 0.354700 -0.257500
v 0.200000 0.310000 -0.212500
v 0.214524 0.354700 -0.212500
v 0.238024 0.337626 -0.212500
v 0.200000 0.310000 -0.257500
v 0.247000 0.310000 -0.257500
v 0.238024 0.337626 -0.257500
v 0.200000 0.310000 -0.212500
v 0.238024 0.337626 -0.212500
v 0.247000 0.310000 -0.212500
v -0.282168 0.565250 0.020000
v -0.287401 0.564607 0.032728
v -0.387333 1.378495 0.032728
v -0.382101 1.379138 0.020000
v -0.287401 0.564607 0.032728
v -0.300034 0.563056 0.038000
v -0.399966 1.376944 0.038000
v -0.387333 1.378495 0.032728
v -0.300034 0.563056 0.038000
v -0.312667 0.561505 0.032728
v -0.412599 1.375393 0.032728
v -0.399966 1.376944 0.038000
v -0.312667 0.561505 0.032728
v -0.317899 0.560862 0.020000
v -0.417832 1.374750 0.020000
v -0.412599 1.375393 0.032728
v -0.317899 0.560862 0.020000
v -0.312667 0.561505 0.007272
v -0.412599 1.375393 0.007272
v -0.417832 1.374750 0.020000
v -0.312667 0.561505 0.007272
v -0.300034 0.563056 0.002000
v -0.399966 1.376944 0.002000
v -0.412599 1.375393 0.007272
v -0.300034 0.563056 0.002000
v -0.287401 0.564607 0.007272
v -0.387333 1.378495 0.007272
v -0.399966 1.376944 0.002000
v -0.287401 0.564607 0.007272
v -0.282168 0.565250 0.020000
v -0.382101 1.379138 0.020000
v -0.387333 1.378495 0.007272
v -0.300034 0.563056 0.020000
v -0.287401 0.564607 0.032728
v -0.282168 0.565250 0.020000
v -0.399966 1.376944 0.020000
v -0.382101 1.379138 0.020000
v -0.387333 1.378495 0.032728
v -0.300034 0.563056 0.020000
v -0.300034 0.563056 0.038000
v -0.287401 0.564607 0.032728
v -0.399966 1.376944 0.020000
v -0.387333 1.378495 0.032728
v -0.399966 1.376944 0.038000
v -0.300034 0.563056 0.020000
v -0.312667 0.561505 0.032728
v -0.300034 0.563056 0.038000
v -0.399966 1.376944 0.020000
v -0.399966 1.376944 0.038000
v -0.412599 1.375393 0.032728
v -0.300034 0.563056 0.020000
v -0.317899 0.560862 0.020000
v -0.312667 0.561505 0.032728
v -0.399966 1.376944 0.020000
v -0.412599 1.375393 0.032728
v -0.417832 1.374750 0.020000
v -0.300034 0.563056 0.020000
v -0.312667 0.561505 0.007272
v -0.317899 0.560862 0.020000
v -0.399966 1.376944 0.020000
v -0.417832 1.374750 0.020000
v -0.412599 1.375393 0.007272
v -0.300034 0.563056 0.020000
v -0.300034 0.563056 0.002000
v -0.312667 0.561505 0.007272
v -0.399966 1.376944 0.020000
v -0.412599 1.375393 0.007272
v -0.399966 1.376944 0.002000
v -0.300034 0.563056 0.020000
v -0.287401 0.564607 0.007272
v -0.300034 0.563056 0.002000
v -0.399966 1.376944 0.020000
v -0.399966 1.376944 0.002000
v -0.387333 1.378495 0.007272
v -0.300034 0.563056 0.020000
v -0.282168 0.565250 0.020000
v -0.287401 0.564607 0.007272
v -0.399966 1.376944 0.020000
v -0.387333 1.378495 0.007272
v -0.382101 1.379138 0.020000
v -0.323380 1.141349 0.020000
v -0.326887 1.141103 0.028485
v -0.356184 1.560080 0.028485
v -0.352678 1.560326 0.020000
v -0.326887 1.141103 0.028485
v -0.335351 1.140512 0.032000
v -0.364649 1.559488 0.032000
v -0.356184 1.560080 0.028485
v -0.335351 1.140512 0.032000
v -0.343816 1.139920 0.028485
v -0.373113 1.558897 0.028485
v -0.364649 1.559488 0.032000
v -0.343816 1.139920 0.028485
v -0.347322 1.139674 0.020000
v -0.376620 1.558651 0.020000
v -0.373113 1.558897 0.028485
v -0.347322 1.139674 0.020000
v -0.343816 1.139920 0.011515
v -0.373113 1.558897 0.011515
v -0.376620 1.558651 0.020000
v -0.343816 1.139920 0.011515
v -0.335351 1.140512 0.008000
v -0.364649 1.559488 0.008000
v -0.373113 1.558897 0.011515
v -0.335351 1.140512 0.008000
v -0.326887 1.141103 0.011515
v -0.356184 1.560080 0.011515
v -0.364649 1.559488 0.008000
v -0.326887 1.141103 0.011515
v -0.323380 1.141349 0.020000
v -0.352678 1.560326 0.020000
v -0.356184 1.560080 0.011515
v -0.335351 1.140512 0.020000
v -0.326887 1.141103 0.028485
v -0.323380 1.141349 0.020000
v -0.364649 1.559488 0.020000
v -0.352678 1.560326 0.020000
v -0.356184 1.560080 0.028485
v -0.335351 1.140512 0.020000
v -0.335351 1.140512 0.032000
v -0.326887 1.141103 0.028485
v -0.364649 1.559488 0.020000
v -0.356184 1.560080 0.028485
v -0.364649 1.559488 0.032000
v -0.335351 1.140512 0.020000
v -0.343816 1.139920 0.028485
v -0.335351 1.140512 0.032000
v -0.364649 1.559488 0.020000
v -0.364649 1.559488 0.032000
v -0.373113 1.558897 0.028485
v -0.335351 1.140512 0.020000
v -0.347322 1.139674 0.020000
v -0.343816 1.139920 0.028485
v -0.364649 1.559488 0.020000
v -0.373113 1.558897 0.028485
v -0.376620 1.558651 0.020000
v -0.335351 1.140512 0.020000
v -0.343816 1.139920 0.011515
v -0.347322 1.139674 0.020000
v -0.364649 1.559488 0.020000
v -0.376620 1.558651 0.020000
v -0.373113 1.558897 0.011515
v -0.335351 1.140512 0.020000
v -0.335351 1.140512 0.008000
v -0.343816 1.139920 0.011515
v -0.364649 1.559488 0.020000
v -0.373113 1.558897 0.011515
v -0.364649 1.559488 0.008000
v -0.335351 1.140512 0.020000
v -0.326887 1.141103 0.011515
v -0.335351 1.140512 0.008000
v -0.364649 1.559488 0.020000
v -0.364649 1.559488 0.008000
v -0.356184 1.560080 0.011515
v -0.335351 1.140512 0.020000
v -0.323380 1.141349 0.020000
v -0.326887 1.141103 0.011515
v -0.364649 1.559488 0.020000
v -0.356184 1.560080 0.011515
v -0.352678 1.560326 0.020000
v 0.167500 0.527500 -0.254000
v 0.192500 0.527500 -0.254000
v 0.192500 0.572500 -0.254000
v 0.167500 0.572500 -0.254000
v 0.192500 0.527500 -0.242000
v 0.167500 0.527500 -0.242000
v 0.167500 0.572500 -0.242000
v 0.192500 0.572500 -0.242000
v 0.167500 0.527500 -0.242000
v 0.167500 0.527500 -0.254000
v 0.167500 0.572500 -0.254000
v 0.167500 0.572500 -0.242000
v 0.192500 0.527500 -0.254000
v 0.192500 0.527500 -0.242000
v 0.192500 0.572500 -0.242000
v 0.192500 0.572500 -0.254000
v 0.167500 0.572500 -0.254000
v 0.192500 0.572500 -0.254000
v 0.192500 0.572500 -0.242000
v 0.167500 0.572500 -0.242000
v 0.167500 0.527500 -0.242000
v 0.192500 0.527500 -0.242000
v 0.192500 0.527500 -0.254000
v 0.167500 0.527500 -0.254000
v -0.230000 0.102500 -0.245000
v 0.190000 0.102500 -0.245000
v 0.190000 0.137500 -0.245000
v -0.230000 0.137500 -0.245000
v 0.190000 0.102500 -0.225000
v -0.230000 0.102500 -0.225000
v -0.230000 0.137500 -0.225000
v 0.190000 0.137500 -0.225000
v -0.230000 0.102500 -0.225000
v -0.230000 0.102500 -0.245000
v -0.230000 0.137500 -0.245000
v -0.230000 0.137500 -0.225000
v 0.190000 0.102500 -0.245000
v 0.190000 0.102500 -0.225000
v 0.190000 0.137500 -0.225000
v 0.190000 0.137500 -0.245000
v -0.230000 0.137500 -0.245000
v 0.190000 0.137500 -0.245000
v 0.190000 0.137500 -0.225000
v -0.230000 0.137500 -0.225000
v -0.230000 0.102500 -0.225000
v 0.190000 0.102500 -0.225000
v 0.190000 0.102500 -0.245000
v -0.230000 0.102500 -0.245000
vt 0.000000 0.000000
vt 1.000000 0.000000
vt 1.000000 1.000000
vt 0.000000 1.000000
vt 0.000000 0.000000
vt 1.000000 0.000000
vt 1.000000 1.000000
vt 0.000000 1.000000
vt 0.000000 0.000000
vt 1.000000 0.000000
vt 1.000000 1.000000
vt 0.000000 1.000000
vt 0.000000 0.000000
vt 1.000000 0.000000
vt 1.000000 1.000000
vt 0.000000 1.000000
vt 0.000000 0.000000
vt 1.000000 0.000000
vt 1.000000 1.000000
vt 0.000000 1.000000
vt 0.000000 0.000000
vt 1.000000 0.000000
vt 1.000000 1.000000
vt 0.000000 1.000000
vt 0.000000 0.000000
vt 1.000000 0.000000
vt 1.000000 1.000000
vt 0.000000 1.000000
vt 0.000000 0.000000
vt 1.000000 0.000000
vt 1.000000 1.000000
vt 0.000000 1.000000
vt 0.000000 0.000000
vt 1.000000 0.000000
vt 1.000000 1.000000
vt 0.000000 1.000000
vt 0.000000 0.000000
vt 1.000000 0.000000
vt 1.000000 1.000000
vt 0.000000 1.000000
vt 0.000000 0.000000
vt 1.000000 0.000000
vt 1.000000 1.000000
vt 0.000000 1.000000
vt 0.000000 0.000000
vt 1.000000 0.000000
vt 1.000000 1.000000
vt 0.000000 1.000000
vt 0.000000 0.000000
vt 1.000000 0.000000
vt 1.000000 1.000000
vt 0.000000 1.000000
vt 0.000000 0.000000
vt 1.000000 0.000000
vt 1.000000 1.000000
vt 0.000000 1.000000
vt 0.000000 0.000000
vt 1.000000 0.000000
vt 1.000000 1.000000
vt 0.000000 1.000000
vt 0.000000 0.000000
vt 1.000000 0.000000
vt 1.000000 1.000000
vt 0.000000 1.000000
vt 0.000000 0.000000
vt 1.000000 0.000000
vt 1.000000 1.000000
vt 0.000000 1.000000
vt 0.000000 0.000000
vt 1.000000 0.000000
vt 1.000000 1.000000
vt 0.000000 1.000000
vt 0.000000 0.000000
vt 1.000000 0.000000
vt 1.000000 1.000000
vt 0.000000 1.000000
vt 0.000000 0.000000
vt 1.000000 0.000000
vt 1.000000 1.000000
vt 0.000000 1.000000
vt 0.000000 0.000000
vt 1.000000 0.000000
vt 1.000000 1.000000
vt 0.000000 1.000000
vt 0.000000 0.000000
vt 1.000000 0.000000
vt 1.000000 1.000000
vt 0.000000 1.000000
vt 0.000000 0.000000
vt 1.000000 0.000000
vt 1.000000 1.000000
vt 0.000000 1.000000
vt 0.000000 0.000000
vt 1.000000 0.000000
vt 1.000000 1.000000
vt 0.000000 1.000000
vt 0.000000 0.000000
vt 1.000000 0.000000
vt 1.000000 1.000000
vt 0.000000 1.000000
vt 0.000000 0.000000
vt 1.000000 0.000000
vt 1.000000 1.000000
vt 0.000000 1.000000
vt 0.000000 0.000000
vt 1.000000 0.000000
vt 1.000000 1.000000
vt 0.000000 1.000000
vt 0.000000 0.000000
vt 1.000000 0.000000
vt 1.000000 1.000000
vt 0.000000 1.000000
vt 0.000000 0.000000
vt 1.000000 0.000000
vt 1.000000 1.000000
vt 0.000000 1.000000
vt 0.000000 0.000000
vt 1.000000 0.000000
vt 1.000000 1.000000
vt 0.000000 1.000000
vt 0.000000 0.000000
vt 1.000000 0.000000
vt 1.000000 1.000000
vt 0.000000 1.000000
vt 0.000000 0.000000
vt 1.000000 0.000000
vt 1.000000 1.000000
vt 0.000000 1.000000
vt 0.000000 0.000000
vt 1.000000 0.000000
vt 1.000000 1.000000
vt 0.000000 1.000000
vt 0.000000 0.000000
vt 1.000000 0.000000
vt 1.000000 1.000000
vt 0.000000 1.000000
vt 0.000000 0.000000
vt 1.000000 0.000000
vt 1.000000 1.000000
vt 0.000000 1.000000
vt 0.000000 0.000000
vt 1.000000 0.000000
vt 1.000000 1.000000
vt 0.000000 1.000000
vt 0.000000 0.000000
vt 1.000000 0.000000
vt 1.000000 1.000000
vt 0.000000 1.000000
vt 0.000000 0.000000
vt 1.000000 0.000000
vt 1.000000 1.000000
vt 0.000000 1.000000
vt 0.000000 0.000000
vt 1.000000 0.000000
vt 1.000000 1.000000
vt 0.000000 1.000000
vt 0.000000 0.000000
vt 1.000000 0.000000
vt 1.000000 1.000000
vt 0.000000 1.000000
vt 0.000000 0.000000
vt 1.000000 0.000000
vt 1.000000 1.000000
vt 0.000000 1.000000
vt 0.000000 0.000000
vt 1.000000 0.000000
vt 1.000000 1.000000
vt 0.000000 1.000000
vt 0.000000 0.000000
vt 1.000000 0.000000
vt 1.000000 1.000000
vt 0.000000 1.000000
vt 0.000000 0.000000
vt 1.000000 0.000000
vt 1.000000 1.000000
vt 0.000000 1.000000
vt 0.500000 0.500000
vt 0.000000 0.000000
vt 1.000000 0.000000
vt 0.500000 0.500000
vt 0.000000 1.000000
vt 1.000000 1.000000
vt 0.500000 0.500000
vt 0.000000 0.000000
vt 1.000000 0.000000
vt 0.500000 0.500000
vt 0.000000 1.000000
vt 1.000000 1.000000
vt 0.500000 0.500000
vt 0.000000 0.000000
vt 1.000000 0.000000
vt 0.500000 0.500000
vt 0.000000 1.000000
vt 1.000000 1.000000
vt 0.500000 0.500000
vt 0.000000 0.000000
vt 1.000000 0.000000
vt 0.500000 0.500000
vt 0.000000 1.000000
vt 1.000000 1.000000
vt 0.500000 0.500000
vt 0.000000 0.000000
vt 1.000000 0.000000
vt 0.500000 0.500000
vt 0.000000 1.000000
vt 1.000000 1.000000
vt 0.500000 0.500000
vt 0.000000 0.000000
vt 1.000000 0.000000
vt 0.500000 0.500000
vt 0.000000 1.000000
vt 1.000000 1.000000
vt 0.500000 0.500000
vt 0.000000 0.000000
vt 1.000000 0.000000
vt 0.500000 0.500000
vt 0.000000 1.000000
vt 1.000000 1.000000
vt 0.500000 0.500000
vt 0.000000 0.000000
vt 1.000000 0.000000
vt 0.500000 0.500000
vt 0.000000 1.000000
vt 1.000000 1.000000
vt 0.000000 0.000000
vt 1.000000 0.000000
vt 1.000000 1.000000
vt 0.000000 1.000000
vt 0.000000 0.000000
vt 1.000000 0.000000
vt 1.000000 1.000000
vt 0.000000 1.000000
vt 0.000000 0.000000
vt 1.000000 0.000000
vt 1.000000 1.000000
vt 0.000000 1.000000
vt 0.000000 0.000000
vt 1.000000 0.000000
vt 1.000000 1.000000
vt 0.000000 1.000000
vt 0.000000 0.000000
vt 1.000000 0.000000
vt 1.000000 1.000000
vt 0.000000 1.000000
vt 0.000000 0.000000
vt 1.000000 0.000000
vt 1.000000 1.000000
vt 0.000000 1.000000
vt 0.000000 0.000000
vt 1.000000 0.000000
vt 1.000000 1.000000
vt 0.000000 1.000000
vt 0.000000 0.000000
vt 1.000000 0.000000
vt 1.000000 1.000000
vt 0.000000 1.000000
vt 0.500000 0.500000
vt 0.000000 0.000000
vt 1.000000 0.000000
vt 0.500000 0.500000
vt 0.000000 1.000000
vt 1.000000 1.000000
vt 0.500000 0.500000
vt 0.000000 0.000000
vt 1.000000 0.000000
vt 0.500000 0.500000
vt 0.000000 1.000000
vt 1.000000 1.000000
vt 0.500000 0.500000
vt 0.000000 0.000000
vt 1.000000 0.000000
vt 0.500000 0.500000
vt 0.000000 1.000000
vt 1.000000 1.000000
vt 0.500000 0.500000
vt 0.000000 0.000000
vt 1.000000 0.000000
vt 0.500000 0.500000
vt 0.000000 1.000000
vt 1.000000 1.000000
vt 0.500000 0.500000
vt 0.000000 0.000000
vt 1.000000 0.000000
vt 0.500000 0.500000
vt 0.000000 1.000000
vt 1.000000 1.000000
vt 0.500000 0.500000
vt 0.000000 0.000000
vt 1.000000 0.000000
vt 0.500000 0.500000
vt 0.000000 1.000000
vt 1.000000 1.000000
vt 0.500000 0.500000
vt 0.000000 0.000000
vt 1.000000 0.000000
vt 0.500000 0.500000
vt 0.000000 1.000000
vt 1.000000 1.000000
vt 0.500000 0.500000
vt 0.000000 0.000000
vt 1.000000 0.000000
vt 0.500000 0.500000
vt 0.000000 1.000000
vt 1.000000 1.000000
vt 0.000000 0.000000
vt 1.000000 0.000000
vt 1.000000 1.000000
vt 0.000000 1.000000
vt 0.000000 0.000000
vt 1.000000 0.000000
vt 1.000000 1.000000
vt 0.000000 1.000000
vt 0.000000 0.000000
vt 1.000000 0.000000
vt 1.000000 1.000000
vt 0.000000 1.000000
vt 0.000000 0.000000
vt 1.000000 0.000000
vt 1.000000 1.000000
vt 0.000000 1.000000
vt 0.000000 0.000000
vt 1.000000 0.000000
vt 1.000000 1.000000
vt 0.000000 1.000000
vt 0.000000 0.000000
vt 1.000000 0.000000
vt 1.000000 1.000000
vt 0.000000 1.000000
vt 0.000000 0.000000
vt 1.000000 0.000000
vt 1.000000 1.000000
vt 0.000000 1.000000
vt 0.000000 0.000000
vt 1.000000 0.000000
vt 1.000000 1.000000
vt 0.000000 1.000000
vt 0.500000 0.500000
vt 0.000000 0.000000
vt 1.000000 0.000000
vt 0.500000 0.500000
vt 0.000000 1.000000
vt 1.000000 1.000000
vt 0.500000 0.500000
vt 0.000000 0.000000
vt 1.000000 0.000000
vt 0.500000 0.500000
vt 0.000000 1.000000
vt 1.000000 1.000000
vt 0.500000 0.500000
vt 0.000000 0.000000
vt 1.000000 0.000000
vt 0.500000 0.500000
vt 0.000000 1.000000
vt 1.000000 1.000000
vt 0.500000 0.500000
vt 0.000000 0.000000
vt 1.000000 0.000000
vt 0.500000 0.500000
vt 0.000000 1.000000
vt 1.000000 1.000000
vt 0.500000 0.500000
vt 0.000000 0.000000
vt 1.000000 0.000000
vt 0.500000 0.500000
vt 0.000000 1.000000
vt 1.000000 1.000000
vt 0.500000 0.500000
vt 0.000000 0.000000
vt 1.000000 0.000000
vt 0.500000 0.500000
vt 0.000000 1.000000
vt 1.000000 1.000000
vt 0.500000 0.500000
vt 0.000000 0.000000
vt 1.000000 0.000000
vt 0.500000 0.500000
vt 0.000000 1.000000
vt 1.000000 1.000000
vt 0.500000 0.500000
vt 0.000000 0.000000
vt 1.000000 0.000000
vt 0.500000 0.500000
vt 0.000000 1.000000
vt 1.000000 1.000000
vt 0.000000 0.000000
vt 1.000000 0.000000
vt 1.000000 1.000000
vt 0.000000 1.000000
vt 0.000000 0.000000
vt 1.000000 0.000000
vt 1.000000 1.000000
vt 0.000000 1.000000
vt 0.000000 0.000000
vt 1.000000 0.000000
vt 1.000000 1.000000
vt 0.000000 1.000000
vt 0.000000 0.000000
vt 1.000000 0.000000
vt 1.000000 1.000000
vt 0.000000 1.000000
vt 0.000000 0.000000
vt 1.000000 0.000000
vt 1.000000 1.000000
vt 0.000000 1.000000
vt 0.000000 0.000000
vt 1.000000 0.000000
vt 1.000000 1.000000
vt 0.000000 1.000000
vt 0.000000 0.000000
vt 1.000000 0.000000
vt 1.000000 1.000000
vt 0.000000 1.000000
vt 0.000000 0.000000
vt 1.000000 0.000000
vt 1.000000 1.000000
vt 0.000000 1.000000
vt 0.000000 0.000000
vt 1.000000 0.000000
vt 1.000000 1.000000
vt 0.000000 1.000000
vt 0.000000 0.000000
vt 1.000000 0.000000
vt 1.000000 1.000000
vt 0.000000 1.000000
vt 0.000000 0.000000
vt 1.000000 0.000000
vt 1.000000 1.000000
vt 0.000000 1.000000
vt 0.000000 0.000000
vt 1.000000 0.000000
vt 1.000000 1.000000
vt 0.000000 1.000000
vt 0.000000 0.000000
vt 1.000000 0.000000
vt 1.000000 1.000000
vt 0.000000 1.000000
vt 0.000000 0.000000
vt 1.000000 0.000000
vt 1.000000 1.000000
vt 0.000000 1.000000
vt 0.000000 0.000000
vt 1.000000 0.000000
vt 1.000000 1.000000
vt 0.000000 1.000000
vt 0.000000 0.000000
vt 1.000000 0.000000
vt 1.000000 1.000000
vt 0.000000 1.000000
vt 0.000000 0.000000
vt 1.000000 0.000000
vt 1.000000 1.000000
vt 0.000000 1.000000
vt 0.000000 0.000000
vt 1.000000 0.000000
vt 1.000000 1.000000
vt 0.000000 1.000000
vt 0.000000 0.000000
vt 1.000000 0.000000
vt 1.000000 1.000000
vt 0.000000 1.000000
vt 0.000000 0.000000
vt 1.000000 0.000000
vt 1.000000 1.000000
vt 0.000000 1.000000
vt 0.000000 0.000000
vt 1.000000 0.000000
vt 1.000000 1.000000
vt 0.000000 1.000000
vt 0.000000 0.000000
vt 1.000000 0.000000
vt 1.000000 1.000000
vt 0.000000 1.000000
vt 0.000000 0.000000
vt 1.000000 0.000000
vt 1.000000 1.000000
vt 0.000000 1.000000
vt 0.000000 0.000000
vt 1.000000 0.000000
vt 1.000000 1.000000
vt 0.000000 1.000000
vt 0.000000 0.000000
vt 1.000000 0.000000
vt 1.000000 1.000000
vt 0.000000 1.000000
vt 0.000000 0.000000
vt 1.000000 0.000000
vt 1.000000 1.000000
vt 0.000000 1.000000
vt 0.000000 0.000000
vt 1.000000 0.000000
vt 1.000000 1.000000
vt 0.000000 1.000000
vt 0.000000 0.000000
vt 1.000000 0.000000
vt 1.000000 1.000000
vt 0.000000 1.000000
vt 0.000000 0.000000
vt 1.000000 0.000000
vt 1.000000 1.000000
vt 0.000000 1.000000
vt 0.000000 0.000000
vt 1.000000 0.000000
vt 1.000000 1.000000
vt 0.000000 1.000000
vt 0.000000 0.000000
vt 1.000000 0.000000
vt 1.000000 1.000000
vt 0.000000 1.000000
vt 0.000000 0.000000
vt 1.000000 0.000000
vt 1.000000 1.000000
vt 0.000000 1.000000
vt 0.000000 0.000000
vt 1.000000 0.000000
vt 1.000000 1.000000
vt 0.000000 1.000000
vt 0.000000 0.000000
vt 1.000000 0.000000
vt 1.000000 1.000000
vt 0.000000 1.000000
vt 0.000000 0.000000
vt 1.000000 0.000000
vt 1.000000 1.000000
vt 0.000000 1.000000
vt 0.000000 0.000000
vt 1.000000 0.000000
vt 1.000000 1.000000
vt 0.000000 1.000000
vt 0.000000 0.000000
vt 1.000000 0.000000
vt 1.000000 1.000000
vt 0.000000 1.000000
vt 0.000000 0.000000
vt 1.000000 0.000000
vt 1.000000 1.000000
vt 0.000000 1.000000
vt 0.000000 0.000000
vt 1.000000 0.000000
vt 1.000000 1.000000
vt 0.000000 1.000000
vt 0.000000 0.000000
vt 1.000000 0.000000
vt 1.000000 1.000000
vt 0.000000 1.000000
vt 0.000000 0.000000
vt 1.000000 0.000000
vt 1.000000 1.000000
vt 0.000000 1.000000
vt 0.000000 0.000000
vt 1.000000 0.000000
vt 1.000000 1.000000
vt 0.000000 1.000000
vt 0.000000 0.000000
vt 1.000000 0.000000
vt 1.000000 1.000000
vt 0.000000 1.000000
vt 0.000000 0.000000
vt 1.000000 0.000000
vt 1.000000 1.000000
vt 0.000000 1.000000
vt 0.000000 0.000000
vt 1.000000 0.000000
vt 1.000000 1.000000
vt 0.000000 1.000000
vt 0.000000 0.000000
vt 1.000000 0.000000
vt 1.000000 1.000000
vt 0.000000 1.000000
vt 0.000000 0.000000
vt 1.000000 0.000000
vt 1.000000 1.000000
vt 0.000000 1.000000
vt 0.000000 0.000000
vt 1.000000 0.000000
vt 1.000000 1.000000
vt 0.000000 1.000000
vt 0.000000 0.000000
vt 1.000000 0.000000
vt 1.000000 1.000000
vt 0.000000 1.000000
vt 0.000000 0.000000
vt 1.000000 0.000000
vt 1.000000 1.000000
vt 0.000000 1.000000
vt 0.000000 0.000000
vt 1.000000 0.000000
vt 1.000000 1.000000
vt 0.000000 1.000000
vt 0.000000 0.000000
vt 1.000000 0.000000
vt 1.000000 1.000000
vt 0.000000 1.000000
vt 0.000000 0.000000
vt 1.000000 0.000000
vt 1.000000 1.000000
vt 0.000000 1.000000
vt 0.000000 0.000000
vt 1.000000 0.000000
vt 1.000000 1.000000
vt 0.000000 1.000000
vt 0.000000 0.000000
vt 1.000000 0.000000
vt 1.000000 1.000000
vt 0.000000 1.000000
vt 0.000000 0.000000
vt 1.000000 0.000000
vt 1.000000 1.000000
vt 0.000000 1.000000
vt 0.000000 0.000000
vt 1.000000 0.000000
vt 1.000000 1.000000
vt 0.000000 1.000000
vt 0.000000 0.000000
vt 1.000000 0.000000
vt 1.000000 1.000000
vt 0.000000 1.000000
vt 0.500000 0.500000
vt 0.000000 0.000000
vt 1.000000 0.000000
vt 0.500000 0.500000
vt 0.000000 1.000000
vt 1.000000 1.000000
vt 0.500000 0.500000
vt 0.000000 0.000000
vt 1.000000 0.000000
vt 0.500000 0.500000
vt 0.000000 1.000000
vt 1.000000 1.000000
vt 0.500000 0.500000
vt 0.000000 0.000000
vt 1.000000 0.000000
vt 0.500000 0.500000
vt 0.000000 1.000000
vt 1.000000 1.000000
vt 0.500000 0.500000
vt 0.000000 0.000000
vt 1.000000 0.000000
vt 0.500000 0.500000
vt 0.000000 1.000000
vt 1.000000 1.000000
vt 0.500000 0.500000
vt 0.000000 0.000000
vt 1.000000 0.000000
vt 0.500000 0.500000
vt 0.000000 1.000000
vt 1.000000 1.000000
vt 0.500000 0.500000
vt 0.000000 0.000000
vt 1.000000 0.000000
vt 0.500000 0.500000
vt 0.000000 1.000000
vt 1.000000 1.000000
vt 0.500000 0.500000
vt 0.000000 0.000000
vt 1.000000 0.000000
vt 0.500000 0.500000
vt 0.000000 1.000000
vt 1.000000 1.000000
vt 0.500000 0.500000
vt 0.000000 0.000000
vt 1.000000 0.000000
vt 0.500000 0.500000
vt 0.000000 1.000000
vt 1.000000 1.000000
vt 0.500000 0.500000
vt 0.000000 0.000000
vt 1.000000 0.000000
vt 0.500000 0.500000
vt 0.000000 1.000000
vt 1.000000 1.000000
vt 0.500000 0.500000
vt 0.000000 0.000000
vt 1.000000 0.000000
vt 0.500000 0.500000
vt 0.000000 1.000000
vt 1.000000 1.000000
vt 0.000000 0.000000
vt 1.000000 0.000000
vt 1.000000 1.000000
vt 0.000000 1.000000
vt 0.000000 0.000000
vt 1.000000 0.000000
vt 1.000000 1.000000
vt 0.000000 1.000000
vt 0.000000 0.000000
vt 1.000000 0.000000
vt 1.000000 1.000000
vt 0.000000 1.000000
vt 0.000000 0.000000
vt 1.000000 0.000000
vt 1.000000 1.000000
vt 0.000000 1.000000
vt 0.000000 0.000000
vt 1.000000 0.000000
vt 1.000000 1.000000
vt 0.000000 1.000000
vt 0.000000 0.000000
vt 1.000000 0.000000
vt 1.000000 1.000000
vt 0.000000 1.000000
vt 0.000000 0.000000
vt 1.000000 0.000000
vt 1.000000 1.000000
vt 0.000000 1.000000
vt 0.000000 0.000000
vt 1.000000 0.000000
vt 1.000000 1.000000
vt 0.000000 1.000000
vt 0.000000 0.000000
vt 1.000000 0.000000
vt 1.000000 1.000000
vt 0.000000 1.000000
vt 0.000000 0.000000
vt 1.000000 0.000000
vt 1.000000 1.000000
vt 0.000000 1.000000
vt 0.500000 0.500000
vt 0.000000 0.000000
vt 1.000000 0.000000
vt 0.500000 0.500000
vt 0.000000 1.000000
vt 1.000000 1.000000
vt 0.500000 0.500000
vt 0.000000 0.000000
vt 1.000000 0.000000
vt 0.500000 0.500000
vt 0.000000 1.000000
vt 1.000000 1.000000
vt 0.500000 0.500000
vt 0.000000 0.000000
vt 1.000000 0.000000
vt 0.500000 0.500000
vt 0.000000 1.000000
vt 1.000000 1.000000
vt 0.500000 0.500000
vt 0.000000 0.000000
vt 1.000000 0.000000
vt 0.500000 0.500000
vt 0.000000 1.000000
vt 1.000000 1.000000
vt 0.500000 0.500000
vt 0.000000 0.000000
vt 1.000000 0.000000
vt 0.500000 0.500000
vt 0.000000 1.000000
vt 1.000000 1.000000
vt 0.500000 0.500000
vt 0.000000 0.000000
vt 1.000000 0.000000
vt 0.500000 0.500000
vt 0.000000 1.000000
vt 1.000000 1.000000
vt 0.500000 0.500000
vt 0.000000 0.000000
vt 1.000000 0.000000
vt 0.500000 0.500000
vt 0.000000 1.000000
vt 1.000000 1.000000
vt 0.500000 0.500000
vt 0.000000 0.000000
vt 1.000000 0.000000
vt 0.500000 0.500000
vt 0.000000 1.000000
vt 1.000000 1.000000
vt 0.500000 0.500000
vt 0.000000 0.000000
vt 1.000000 0.000000
vt 0.500000 0.500000
vt 0.000000 1.000000
vt 1.000000 1.000000
vt 0.500000 0.500000
vt 0.000000 0.000000
vt 1.000000 0.000000
vt 0.500000 0.500000
vt 0.000000 1.000000
vt 1.000000 1.000000
vt 0.000000 0.000000
vt 1.000000 0.000000
vt 1.000000 1.000000
vt 0.000000 1.000000
vt 0.000000 0.000000
vt 1.000000 0.000000
vt 1.000000 1.000000
vt 0.000000 1.000000
vt 0.000000 0.000000
vt 1.000000 0.000000
vt 1.000000 1.000000
vt 0.000000 1.000000
vt 0.000000 0.000000
vt 1.000000 0.000000
vt 1.000000 1.000000
vt 0.000000 1.000000
vt 0.000000 0.000000
vt 1.000000 0.000000
vt 1.000000 1.000000
vt 0.000000 1.000000
vt 0.000000 0.000000
vt 1.000000 0.000000
vt 1.000000 1.000000
vt 0.000000 1.000000
vt 0.000000 0.000000
vt 1.000000 0.000000
vt 1.000000 1.000000
vt 0.000000 1.000000
vt 0.000000 0.000000
vt 1.000000 0.000000
vt 1.000000 1.000000
vt 0.000000 1.000000
vt 0.500000 0.500000
vt 0.000000 0.000000
vt 1.000000 0.000000
vt 0.500000 0.500000
vt 0.000000 1.000000
vt 1.000000 1.000000
vt 0.500000 0.500000
vt 0.000000 0.000000
vt 1.000000 0.000000
vt 0.500000 0.500000
vt 0.000000 1.000000
vt 1.000000 1.000000
vt 0.500000 0.500000
vt 0.000000 0.000000
vt 1.000000 0.000000
vt 0.500000 0.500000
vt 0.000000 1.000000
vt 1.000000 1.000000
vt 0.500000 0.500000
vt 0.000000 0.000000
vt 1.000000 0.000000
vt 0.500000 0.500000
vt 0.000000 1.000000
vt 1.000000 1.000000
vt 0.500000 0.500000
vt 0.000000 0.000000
vt 1.000000 0.000000
vt 0.500000 0.500000
vt 0.000000 1.000000
vt 1.000000 1.000000
vt 0.500000 0.500000
vt 0.000000 0.000000
vt 1.000000 0.000000
vt 0.500000 0.500000
vt 0.000000 1.000000
vt 1.000000 1.000000
vt 0.500000 0.500000
vt 0.000000 0.000000
vt 1.000000 0.000000
vt 0.500000 0.500000
vt 0.000000 1.000000
vt 1.000000 1.000000
vt 0.500000 0.500000
vt 0.000000 0.000000
vt 1.000000 0.000000
vt 0.500000 0.500000
vt 0.000000 1.000000
vt 1.000000 1.000000
vt 0.000000 0.000000
vt 1.000000 0.000000
vt 1.000000 1.000000
vt 0.000000 1.000000
vt 0.000000 0.000000
vt 1.000000 0.000000
vt 1.000000 1.000000
vt 0.000000 1.000000
vt 0.000000 0.000000
vt 1.000000 0.000000
vt 1.000000 1.000000
vt 0.000000 1.000000
vt 0.000000 0.000000
vt 1.000000 0.000000
vt 1.000000 1.000000
vt 0.000000 1.000000
vt 0.000000 0.000000
vt 1.000000 0.000000
vt 1.000000 1.000000
vt 0.000000 1.000000
vt 0.000000 0.000000
vt 1.000000 0.000000
vt 1.000000 1.000000
vt 0.000000 1.000000
vt 0.000000 0.000000
vt 1.000000 0.000000
vt 1.000000 1.000000
vt 0.000000 1.000000
vt 0.000000 0.000000
vt 1.000000 0.000000
vt 1.000000 1.000000
vt 0.000000 1.000000
vt 0.500000 0.500000
vt 0.000000 0.000000
vt 1.000000 0.000000
vt 0.500000 0.500000
vt 0.000000 1.000000
vt 1.000000 1.000000
vt 0.500000 0.500000
vt 0.000000 0.000000
vt 1.000000 0.000000
vt 0.500000 0.500000
vt 0.000000 1.000000
vt 1.000000 1.000000
vt 0.500000 0.500000
vt 0.000000 0.000000
vt 1.000000 0.000000
vt 0.500000 0.500000
vt 0.000000 1.000000
vt 1.000000 1.000000
vt 0.500000 0.500000
vt 0.000000 0.000000
vt 1.000000 0.000000
vt 0.500000 0.500000
vt 0.000000 1.000000
vt 1.000000 1.000000
vt 0.500000 0.500000
vt 0.000000 0.000000
vt 1.000000 0.000000
vt 0.500000 0.500000
vt 0.000000 1.000000
vt 1.000000 1.000000
vt 0.500000 0.500000
vt 0.000000 0.000000
vt 1.000000 0.000000
vt 0.500000 0.500000
vt 0.000000 1.000000
vt 1.000000 1.000000
vt 0.500000 0.500000
vt 0.000000 0.000000
vt 1.000000 0.000000
vt 0.500000 0.500000
vt 0.000000 1.000000
vt 1.000000 1.000000
vt 0.500000 0.500000
vt 0.000000 0.000000
vt 1.000000 0.000000
vt 0.500000 0.500000
vt 0.000000 1.000000
vt 1.000000 1.000000
vt 0.000000 0.000000
vt 1.000000 0.000000
vt 1.000000 1.000000
vt 0.000000 1.000000
vt 0.000000 0.000000
vt 1.000000 0.000000
vt 1.000000 1.000000
vt 0.000000 1.000000
vt 0.000000 0.000000
vt 1.000000 0.000000
vt 1.000000 1.000000
vt 0.000000 1.000000
vt 0.000000 0.000000
vt 1.000000 0.000000
vt 1.000000 1.000000
vt 0.000000 1.000000
vt 0.000000 0.000000
vt 1.000000 0.000000
vt 1.000000 1.000000
vt 0.000000 1.000000
vt 0.000000 0.000000
vt 1.000000 0.000000
vt 1.000000 1.000000
vt 0.000000 1.000000
vt 0.000000 0.000000
vt 1.000000 0.000000
vt 1.000000 1.000000
vt 0.000000 1.000000
vt 0.000000 0.000000
vt 1.000000 0.000000
vt 1.000000 1.000000
vt 0.000000 1.000000
vt 0.000000 0.000000
vt 1.000000 0.000000
vt 1.000000 1.000000
vt 0.000000 1.000000
vt 0.000000 0.000000
vt 1.000000 0.000000
vt 1.000000 1.000000
vt 0.000000 1.000000
vt 0.000000 0.000000
vt 1.000000 0.000000
vt 1.000000 1.000000
vt 0.000000 1.000000
vt 0.000000 0.000000
vt 1.000000 0.000000
vt 1.000000 1.000000
vt 0.000000 1.000000
usemtl Metal
f 1/1 2/2 3/3
f 1/1 3/3 4/4
f 5/5 6/6 7/7
f 5/5 7/7 8/8
f 9/9 10/10 11/11
f 9/9 11/11 12/12
f 13/13 14/14 15/15
f 13/13 15/15 16/16
f 17/17 18/18 19/19
f 17/17 19/19 20/20
f 21/21 22/22 23/23
f 21/21 23/23 24/24
usemtl Char
f 25/25 26/26 27/27
f 25/25 27/27 28/28
f 29/29 30/30 31/31
f 29/29 31/31 32/32
f 33/33 34/34 35/35
f 33/33 35/35 36/36
f 37/37 38/38 39/39
f 37/37 39/39 40/40
f 41/41 42/42 43/43
f 41/41 43/43 44/44
f 45/45 46/46 47/47
f 45/45 47/47 48/48
usemtl Rope
f 49/49 50/50 51/51
f 49/49 51/51 52/52
f 53/53 54/54 55/55
f 53/53 55/55 56/56
f 57/57 58/58 59/59
f 57/57 59/59 60/60
f 61/61 62/62 63/63
f 61/61 63/63 64/64
f 65/65 66/66 67/67
f 65/65 67/67 68/68
f 69/69 70/70 71/71
f 69/69 71/71 72/72
f 73/73 74/74 75/75
f 73/73 75/75 76/76
f 77/77 78/78 79/79
f 77/77 79/79 80/80
f 81/81 82/82 83/83
f 81/81 83/83 84/84
f 85/85 86/86 87/87
f 85/85 87/87 88/88
f 89/89 90/90 91/91
f 89/89 91/91 92/92
f 93/93 94/94 95/95
f 93/93 95/95 96/96
f 97/97 98/98 99/99
f 97/97 99/99 100/100
f 101/101 102/102 103/103
f 101/101 103/103 104/104
f 105/105 106/106 107/107
f 105/105 107/107 108/108
f 109/109 110/110 111/111
f 109/109 111/111 112/112
f 113/113 114/114 115/115
f 113/113 115/115 116/116
f 117/117 118/118 119/119
f 117/117 119/119 120/120
f 121/121 122/122 123/123
f 121/121 123/123 124/124
f 125/125 126/126 127/127
f 125/125 127/127 128/128
f 129/129 130/130 131/131
f 129/129 131/131 132/132
f 133/133 134/134 135/135
f 133/133 135/135 136/136
f 137/137 138/138 139/139
f 137/137 139/139 140/140
f 141/141 142/142 143/143
f 141/141 143/143 144/144
usemtl Metal
f 145/145 146/146 147/147
f 145/145 147/147 148/148
f 149/149 150/150 151/151
f 149/149 151/151 152/152
f 153/153 154/154 155/155
f 153/153 155/155 156/156
f 157/157 158/158 159/159
f 157/157 159/159 160/160
f 161/161 162/162 163/163
f 161/161 163/163 164/164
f 165/165 166/166 167/167
f 165/165 167/167 168/168
f 169/169 170/170 171/171
f 169/169 171/171 172/172
f 173/173 174/174 175/175
f 173/173 175/175 176/176
f 177/177 178/178 179/179
f 180/180 181/181 182/182
f 183/183 184/184 185/185
f 186/186 187/187 188/188
f 189/189 190/190 191/191
f 192/192 193/193 194/194
f 195/195 196/196 197/197
f 198/198 199/199 200/200
f 201/201 202/202 203/203
f 204/204 205/205 206/206
f 207/207 208/208 209/209
f 210/210 211/211 212/212
f 213/213 214/214 215/215
f 216/216 217/217 218/218
f 219/219 220/220 221/221
f 222/222 223/223 224/224
f 225/225 226/226 227/227
f 225/225 227/227 228/228
f 229/229 230/230 231/231
f 229/229 231/231 232/232
f 233/233 234/234 235/235
f 233/233 235/235 236/236
f 237/237 238/238 239/239
f 237/237 239/239 240/240
f 241/241 242/242 243/243
f 241/241 243/243 244/244
f 245/245 246/246 247/247
f 245/245 247/247 248/248
f 249/249 250/250 251/251
f 249/249 251/251 252/252
f 253/253 254/254 255/255
f 253/253 255/255 256/256
f 257/257 258/258 259/259
f 260/260 261/261 262/262
f 263/263 264/264 265/265
f 266/266 267/267 268/268
f 269/269 270/270 271/271
f 272/272 273/273 274/274
f 275/275 276/276 277/277
f 278/278 279/279 280/280
f 281/281 282/282 283/283
f 284/284 285/285 286/286
f 287/287 288/288 289/289
f 290/290 291/291 292/292
f 293/293 294/294 295/295
f 296/296 297/297 298/298
f 299/299 300/300 301/301
f 302/302 303/303 304/304
f 305/305 306/306 307/307
f 305/305 307/307 308/308
f 309/309 310/310 311/311
f 309/309 311/311 312/312
f 313/313 314/314 315/315
f 313/313 315/315 316/316
f 317/317 318/318 319/319
f 317/317 319/319 320/320
f 321/321 322/322 323/323
f 321/321 323/323 324/324
f 325/325 326/326 327/327
f 325/325 327/327 328/328
f 329/329 330/330 331/331
f 329/329 331/331 332/332
f 333/333 334/334 335/335
f 333/333 335/335 336/336
f 337/337 338/338 339/339
f 340/340 341/341 342/342
f 343/343 344/344 345/345
f 346/346 347/347 348/348
f 349/349 350/350 351/351
f 352/352 353/353 354/354
f 355/355 356/356 357/357
f 358/358 359/359 360/360
f 361/361 362/362 363/363
f 364/364 365/365 366/366
f 367/367 368/368 369/369
f 370/370 371/371 372/372
f 373/373 374/374 375/375
f 376/376 377/377 378/378
f 379/379 380/380 381/381
f 382/382 383/383 384/384
f 385/385 386/386 387/387
f 385/385 387/387 388/388
f 389/389 390/390 391/391
f 389/389 391/391 392/392
f 393/393 394/394 395/395
f 393/393 395/395 396/396
f 397/397 398/398 399/399
f 397/397 399/399 400/400
f 401/401 402/402 403/403
f 401/401 403/403 404/404
f 405/405 406/406 407/407
f 405/405 407/407 408/408
f 409/409 410/410 411/411
f 409/409 411/411 412/412
f 413/413 414/414 415/415
f 413/413 415/415 416/416
f 417/417 418/418 419/419
f 417/417 419/419 420/420
f 421/421 422/422 423/423
f 421/421 423/423 424/424
f 425/425 426/426 427/427
f 425/425 427/427 428/428
f 429/429 430/430 431/431
f 429/429 431/431 432/432
f 433/433 434/434 435/435
f 433/433 435/435 436/436
f 437/437 438/438 439/439
f 437/437 439/439 440/440
f 441/441 442/442 443/443
f 441/441 443/443 444/444
f 445/445 446/446 447/447
f 445/445 447/447 448/448
f 449/449 450/450 451/451
f 449/449 451/451 452/452
f 453/453 454/454 455/455
f 453/453 455/455 456/456
f 457/457 458/458 459/459
f 457/457 459/459 460/460
f 461/461 462/462 463/463
f 461/461 463/463 464/464
f 465/465 466/466 467/467
f 465/465 467/467 468/468
f 469/469 470/470 471/471
f 469/469 471/471 472/472
f 473/473 474/474 475/475
f 473/473 475/475 476/476
f 477/477 478/478 479/479
f 477/477 479/479 480/480
f 481/481 482/482 483/483
f 481/481 483/483 484/484
f 485/485 486/486 487/487
f 485/485 487/487 488/488
f 489/489 490/490 491/491
f 489/489 491/491 492/492
f 493/493 494/494 495/495
f 493/493 495/495 496/496
f 497/497 498/498 499/499
f 497/497 499/499 500/500
f 501/501 502/502 503/503
f 501/501 503/503 504/504
f 505/505 506/506 507/507
f 505/505 507/507 508/508
f 509/509 510/510 511/511
f 509/509 511/511 512/512
f 513/513 514/514 515/515
f 513/513 515/515 516/516
f 517/517 518/518 519/519
f 517/517 519/519 520/520
f 521/521 522/522 523/523
f 521/521 523/523 524/524
f 525/525 526/526 527/527
f 525/525 527/527 528/528
f 529/529 530/530 531/531
f 529/529 531/531 532/532
f 533/533 534/534 535/535
f 533/533 535/535 536/536
f 537/537 538/538 539/539
f 537/537 539/539 540/540
f 541/541 542/542 543/543
f 541/541 543/543 544/544
f 545/545 546/546 547/547
f 545/545 547/547 548/548
f 549/549 550/550 551/551
f 549/549 551/551 552/552
usemtl Cloth
f 553/553 554/554 555/555
f 553/553 555/555 556/556
f 557/557 558/558 559/559
f 557/557 559/559 560/560
f 561/561 562/562 563/563
f 561/561 563/563 564/564
f 565/565 566/566 567/567
f 565/565 567/567 568/568
f 569/569 570/570 571/571
f 569/569 571/571 572/572
f 573/573 574/574 575/575
f 573/573 575/575 576/576
usemtl Metal
f 577/577 578/578 579/579
f 577/577 579/579 580/580
f 581/581 582/582 583/583
f 581/581 583/583 584/584
f 585/585 586/586 587/587
f 585/585 587/587 588/588
f 589/589 590/590 591/591
f 589/589 591/591 592/592
f 593/593 594/594 595/595
f 593/593 595/595 596/596
f 597/597 598/598 599/599
f 597/597 599/599 600/600
f 601/601 602/602 603/603
f 601/601 603/603 604/604
f 605/605 606/606 607/607
f 605/605 607/607 608/608
f 609/609 610/610 611/611
f 609/609 611/611 612/612
f 613/613 614/614 615/615
f 613/613 615/615 616/616
f 617/617 618/618 619/619
f 620/620 621/621 622/622
f 623/623 624/624 625/625
f 626/626 627/627 628/628
f 629/629 630/630 631/631
f 632/632 633/633 634/634
f 635/635 636/636 637/637
f 638/638 639/639 640/640
f 641/641 642/642 643/643
f 644/644 645/645 646/646
f 647/647 648/648 649/649
f 650/650 651/651 652/652
f 653/653 654/654 655/655
f 656/656 657/657 658/658
f 659/659 660/660 661/661
f 662/662 663/663 664/664
f 665/665 666/666 667/667
f 668/668 669/669 670/670
f 671/671 672/672 673/673
f 674/674 675/675 676/676
f 677/677 678/678 679/679
f 677/677 679/679 680/680
f 681/681 682/682 683/683
f 681/681 683/683 684/684
f 685/685 686/686 687/687
f 685/685 687/687 688/688
f 689/689 690/690 691/691
f 689/689 691/691 692/692
f 693/693 694/694 695/695
f 693/693 695/695 696/696
f 697/697 698/698 699/699
f 697/697 699/699 700/700
f 701/701 702/702 703/703
f 701/701 703/703 704/704
f 705/705 706/706 707/707
f 705/705 707/707 708/708
f 709/709 710/710 711/711
f 709/709 711/711 712/712
f 713/713 714/714 715/715
f 713/713 715/715 716/716
f 717/717 718/718 719/719
f 720/720 721/721 722/722
f 723/723 724/724 725/725
f 726/726 727/727 728/728
f 729/729 730/730 731/731
f 732/732 733/733 734/734
f 735/735 736/736 737/737
f 738/738 739/739 740/740
f 741/741 742/742 743/743
f 744/744 745/745 746/746
f 747/747 748/748 749/749
f 750/750 751/751 752/752
f 753/753 754/754 755/755
f 756/756 757/757 758/758
f 759/759 760/760 761/761
f 762/762 763/763 764/764
f 765/765 766/766 767/767
f 768/768 769/769 770/770
f 771/771 772/772 773/773
f 774/774 775/775 776/776
f 777/777 778/778 779/779
f 777/777 779/779 780/780
f 781/781 782/782 783/783
f 781/781 783/783 784/784
f 785/785 786/786 787/787
f 785/785 787/787 788/788
f 789/789 790/790 791/791
f 789/789 791/791 792/792
f 793/793 794/794 795/795
f 793/793 795/795 796/796
f 797/797 798/798 799/799
f 797/797 799/799 800/800
f 801/801 802/802 803/803
f 801/801 803/803 804/804
f 805/805 806/806 807/807
f 805/805 807/807 808/808
f 809/809 810/810 811/811
f 812/812 813/813 814/814
f 815/815 816/816 817/817
f 818/818 819/819 820/820
f 821/821 822/822 823/823
f 824/824 825/825 826/826
f 827/827 828/828 829/829
f 830/830 831/831 832/832
f 833/833 834/834 835/835
f 836/836 837/837 838/838
f 839/839 840/840 841/841
f 842/842 843/843 844/844
f 845/845 846/846 847/847
f 848/848 849/849 850/850
f 851/851 852/852 853/853
f 854/854 855/855 856/856
f 857/857 858/858 859/859
f 857/857 859/859 860/860
f 861/861 862/862 863/863
f 861/861 863/863 864/864
f 865/865 866/866 867/867
f 865/865 867/867 868/868
f 869/869 870/870 871/871
f 869/869 871/871 872/872
f 873/873 874/874 875/875
f 873/873 875/875 876/876
f 877/877 878/878 879/879
f 877/877 879/879 880/880
f 881/881 882/882 883/883
f 881/881 883/883 884/884
f 885/885 886/886 887/887
f 885/885 887/887 888/888
f 889/889 890/890 891/891
f 892/892 893/893 894/894
f 895/895 896/896 897/897
f 898/898 899/899 900/900
f 901/901 902/902 903/903
f 904/904 905/905 906/906
f 907/907 908/908 909/909
f 910/910 911/911 912/912
f 913/913 914/914 915/915
f 916/916 917/917 918/918
f 919/919 920/920 921/921
f 922/922 923/923 924/924
f 925/925 926/926 927/927
f 928/928 929/929 930/930
f 931/931 932/932 933/933
f 934/934 935/935 936/936
usemtl Fire
f 937/937 938/938 939/939
f 937/937 939/939 940/940
f 941/941 942/942 943/943
f 941/941 943/943 944/944
f 945/945 946/946 947/947
f 945/945 947/947 948/948
f 949/949 950/950 951/951
f 949/949 951/951 952/952
f 953/953 954/954 955/955
f 953/953 955/955 956/956
f 957/957 958/958 959/959
f 957/957 959/959 960/960
usemtl Cloth
f 961/961 962/962 963/963
f 961/961 963/963 964/964
f 965/965 966/966 967/967
f 965/965 967/967 968/968
f 969/969 970/970 971/971
f 969/969 971/971 972/972
f 973/973 974/974 975/975
f 973/973 975/975 976/976
f 977/977 978/978 979/979
f 977/977 979/979 980/980
f 981/981 982/982 983/983
f 981/981 983/983 984/984
