mtllib ../../Materials/project_oen.mtl
o pr-019_anchor_point_peg__active
v 0.055000 -0.020000 0.000000
v 0.042132 -0.020000 0.035353
v 0.042132 0.700000 0.035353
v 0.055000 0.700000 0.000000
v 0.042132 -0.020000 0.035353
v 0.009551 -0.020000 0.054164
v 0.009551 0.700000 0.054164
v 0.042132 0.700000 0.035353
v 0.009551 -0.020000 0.054164
v -0.027500 -0.020000 0.047631
v -0.027500 0.700000 0.047631
v 0.009551 0.700000 0.054164
v -0.027500 -0.020000 0.047631
v -0.051683 -0.020000 0.018811
v -0.051683 0.700000 0.018811
v -0.027500 0.700000 0.047631
v -0.051683 -0.020000 0.018811
v -0.051683 -0.020000 -0.018811
v -0.051683 0.700000 -0.018811
v -0.051683 0.700000 0.018811
v -0.051683 -0.020000 -0.018811
v -0.027500 -0.020000 -0.047631
v -0.027500 0.700000 -0.047631
v -0.051683 0.700000 -0.018811
v -0.027500 -0.020000 -0.047631
v 0.009551 -0.020000 -0.054164
v 0.009551 0.700000 -0.054164
v -0.027500 0.700000 -0.047631
v 0.009551 -0.020000 -0.054164
v 0.042132 -0.020000 -0.035353
v 0.042132 0.700000 -0.035353
v 0.009551 0.700000 -0.054164
v 0.042132 -0.020000 -0.035353
v 0.055000 -0.020000 0.000000
v 0.055000 0.700000 0.000000
v 0.042132 0.700000 -0.035353
v 0.000000 -0.020000 0.000000
v 0.042132 -0.020000 0.035353
v 0.055000 -0.020000 0.000000
v 0.000000 0.700000 0.000000
v 0.055000 0.700000 0.000000
v 0.042132 0.700000 0.035353
v 0.000000 -0.020000 0.000000
v 0.009551 -0.020000 0.054164
v 0.042132 -0.020000 0.035353
v 0.000000 0.700000 0.000000
v 0.042132 0.700000 0.035353
v 0.009551 0.700000 0.054164
v 0.000000 -0.020000 0.000000
v -0.027500 -0.020000 0.047631
v 0.009551 -0.020000 0.054164
v 0.000000 0.700000 0.000000
v 0.009551 0.700000 0.054164
v -0.027500 0.700000 0.047631
v 0.000000 -0.020000 0.000000
v -0.051683 -0.020000 0.018811
v -0.027500 -0.020000 0.047631
v 0.000000 0.700000 0.000000
v -0.027500 0.700000 0.047631
v -0.051683 0.700000 0.018811
v 0.000000 -0.020000 0.000000
v -0.051683 -0.020000 -0.018811
v -0.051683 -0.020000 0.018811
v 0.000000 0.700000 0.000000
v -0.051683 0.700000 0.018811
v -0.051683 0.700000 -0.018811
v 0.000000 -0.020000 0.000000
v -0.027500 -0.020000 -0.047631
v -0.051683 -0.020000 -0.018811
v 0.000000 0.700000 0.000000
v -0.051683 0.700000 -0.018811
v -0.027500 0.700000 -0.047631
v 0.000000 -0.020000 0.000000
v 0.009551 -0.020000 -0.054164
v -0.027500 -0.020000 -0.047631
v 0.000000 0.700000 0.000000
v -0.027500 0.700000 -0.047631
v 0.009551 0.700000 -0.054164
v 0.000000 -0.020000 0.000000
v 0.042132 -0.020000 -0.035353
v 0.009551 -0.020000 -0.054164
v 0.000000 0.700000 0.000000
v 0.009551 0.700000 -0.054164
v 0.042132 0.700000 -0.035353
v 0.000000 -0.020000 0.000000
v 0.055000 -0.020000 0.000000
v 0.042132 -0.020000 -0.035353
v 0.000000 0.700000 0.000000
v 0.042132 0.700000 -0.035353
v 0.055000 0.700000 0.000000
v -0.170000 0.660000 -0.040000
v 0.170000 0.660000 -0.040000
v 0.170000 0.740000 -0.040000
v -0.170000 0.740000 -0.040000
v 0.170000 0.660000 0.040000
v -0.170000 0.660000 0.040000
v -0.170000 0.740000 0.040000
v 0.170000 0.740000 0.040000
v -0.170000 0.660000 0.040000
v -0.170000 0.660000 -0.040000
v -0.170000 0.740000 -0.040000
v -0.170000 0.740000 0.040000
v 0.170000 0.660000 -0.040000
v 0.170000 0.660000 0.040000
v 0.170000 0.740000 0.040000
v 0.170000 0.740000 -0.040000
v -0.170000 0.740000 -0.040000
v 0.170000 0.740000 -0.040000
v 0.170000 0.740000 0.040000
v -0.170000 0.740000 0.040000
v -0.170000 0.660000 0.040000
v 0.170000 0.660000 0.040000
v 0.170000 0.660000 -0.040000
v -0.170000 0.660000 -0.040000
v 0.148000 0.590000 0.000000
v 0.136734 0.533363 0.000000
v 0.125243 0.538123 0.017119
v 0.135562 0.590000 0.017119
v 0.135562 0.590000 0.017119
v 0.125243 0.538123 0.017119
v 0.106651 0.545824 0.010580
v 0.115438 0.590000 0.010580
v 0.115438 0.590000 0.010580
v 0.106651 0.545824 0.010580
v 0.106651 0.545824 -0.010580
v 0.115438 0.590000 -0.010580
v 0.115438 0.590000 -0.010580
v 0.106651 0.545824 -0.010580
v 0.125243 0.538123 -0.017119
v 0.135562 0.590000 -0.017119
v 0.135562 0.590000 -0.017119
v 0.125243 0.538123 -0.017119
v 0.136734 0.533363 0.000000
v 0.148000 0.590000 0.000000
v 0.136734 0.533363 0.000000
v 0.104652 0.485348 0.000000
v 0.095857 0.494143 0.017119
v 0.125243 0.538123 0.017119
v 0.125243 0.538123 0.017119
v 0.095857 0.494143 0.017119
v 0.081627 0.508373 0.010580
v 0.106651 0.545824 0.010580
v 0.106651 0.545824 0.010580
v 0.081627 0.508373 0.010580
v 0.081627 0.508373 -0.010580
v 0.106651 0.545824 -0.010580
v 0.106651 0.545824 -0.010580
v 0.081627 0.508373 -0.010580
v 0.095857 0.494143 -0.017119
v 0.125243 0.538123 -0.017119
v 0.125243 0.538123 -0.017119
v 0.095857 0.494143 -0.017119
v 0.104652 0.485348 0.000000
v 0.136734 0.533363 0.000000
v 0.104652 0.485348 0.000000
v 0.056637 0.453266 0.000000
v 0.051877 0.464757 0.017119
v 0.095857 0.494143 0.017119
v 0.095857 0.494143 0.017119
v 0.051877 0.464757 0.017119
v 0.044176 0.483349 0.010580
v 0.081627 0.508373 0.010580
v 0.081627 0.508373 0.010580
v 0.044176 0.483349 0.010580
v 0.044176 0.483349 -0.010580
v 0.081627 0.508373 -0.010580
v 0.081627 0.508373 -0.010580
v 0.044176 0.483349 -0.010580
v 0.051877 0.464757 -0.017119
v 0.095857 0.494143 -0.017119
v 0.095857 0.494143 -0.017119
v 0.051877 0.464757 -0.017119
v 0.056637 0.453266 0.000000
v 0.104652 0.485348 0.000000
v 0.056637 0.453266 0.000000
v 0.000000 0.442000 0.000000
v 0.000000 0.454438 0.017119
v 0.051877 0.464757 0.017119
v 0.051877 0.464757 0.017119
v 0.000000 0.454438 0.017119
v 0.000000 0.474562 0.010580
v 0.044176 0.483349 0.010580
v 0.044176 0.483349 0.010580
v 0.000000 0.474562 0.010580
v 0.000000 0.474562 -0.010580
v 0.044176 0.483349 -0.010580
v 0.044176 0.483349 -0.010580
v 0.000000 0.474562 -0.010580
v 0.000000 0.454438 -0.017119
v 0.051877 0.464757 -0.017119
v 0.051877 0.464757 -0.017119
v 0.000000 0.454438 -0.017119
v 0.000000 0.442000 0.000000
v 0.056637 0.453266 0.000000
v 0.000000 0.442000 0.000000
v -0.056637 0.453266 0.000000
v -0.051877 0.464757 0.017119
v 0.000000 0.454438 0.017119
v 0.000000 0.454438 0.017119
v -0.051877 0.464757 0.017119
v -0.044176 0.483349 0.010580
v 0.000000 0.474562 0.010580
v 0.000000 0.474562 0.010580
v -0.044176 0.483349 0.010580
v -0.044176 0.483349 -0.010580
v 0.000000 0.474562 -0.010580
v 0.000000 0.474562 -0.010580
v -0.044176 0.483349 -0.010580
v -0.051877 0.464757 -0.017119
v 0.000000 0.454438 -0.017119
v 0.000000 0.454438 -0.017119
v -0.051877 0.464757 -0.017119
v -0.056637 0.453266 0.000000
v 0.000000 0.442000 0.000000
v -0.056637 0.453266 0.000000
v -0.104652 0.485348 0.000000
v -0.095857 0.494143 0.017119
v -0.051877 0.464757 0.017119
v -0.051877 0.464757 0.017119
v -0.095857 0.494143 0.017119
v -0.081627 0.508373 0.010580
v -0.044176 0.483349 0.010580
v -0.044176 0.483349 0.010580
v -0.081627 0.508373 0.010580
v -0.081627 0.508373 -0.010580
v -0.044176 0.483349 -0.010580
v -0.044176 0.483349 -0.010580
v -0.081627 0.508373 -0.010580
v -0.095857 0.494143 -0.017119
v -0.051877 0.464757 -0.017119
v -0.051877 0.464757 -0.017119
v -0.095857 0.494143 -0.017119
v -0.104652 0.485348 0.000000
v -0.056637 0.453266 0.000000
v -0.104652 0.485348 0.000000
v -0.136734 0.533363 0.000000
v -0.125243 0.538123 0.017119
v -0.095857 0.494143 0.017119
v -0.095857 0.494143 0.017119
v -0.125243 0.538123 0.017119
v -0.106651 0.545824 0.010580
v -0.081627 0.508373 0.010580
v -0.081627 0.508373 0.010580
v -0.106651 0.545824 0.010580
v -0.106651 0.545824 -0.010580
v -0.081627 0.508373 -0.010580
v -0.081627 0.508373 -0.010580
v -0.106651 0.545824 -0.010580
v -0.125243 0.538123 -0.017119
v -0.095857 0.494143 -0.017119
v -0.095857 0.494143 -0.017119
v -0.125243 0.538123 -0.017119
v -0.136734 0.533363 0.000000
v -0.104652 0.485348 0.000000
v -0.136734 0.533363 0.000000
v -0.148000 0.590000 0.000000
v -0.135562 0.590000 0.017119
v -0.125243 0.538123 0.017119
v -0.125243 0.538123 0.017119
v -0.135562 0.590000 0.017119
v -0.115438 0.590000 0.010580
v -0.106651 0.545824 0.010580
v -0.106651 0.545824 0.010580
v -0.115438 0.590000 0.010580
v -0.115438 0.590000 -0.010580
v -0.106651 0.545824 -0.010580
v -0.106651 0.545824 -0.010580
v -0.115438 0.590000 -0.010580
v -0.135562 0.590000 -0.017119
v -0.125243 0.538123 -0.017119
v -0.125243 0.538123 -0.017119
v -0.135562 0.590000 -0.017119
v -0.148000 0.590000 0.000000
v -0.136734 0.533363 0.000000
v -0.148000 0.590000 0.000000
v -0.136734 0.646637 -0.000000
v -0.125243 0.641877 0.017119
v -0.135562 0.590000 0.017119
v -0.135562 0.590000 0.017119
v -0.125243 0.641877 0.017119
v -0.106651 0.634176 0.010580
v -0.115438 0.590000 0.010580
v -0.115438 0.590000 0.010580
v -0.106651 0.634176 0.010580
v -0.106651 0.634176 -0.010580
v -0.115438 0.590000 -0.010580
v -0.115438 0.590000 -0.010580
v -0.106651 0.634176 -0.010580
v -0.125243 0.641877 -0.017119
v -0.135562 0.590000 -0.017119
v -0.135562 0.590000 -0.017119
v -0.125243 0.641877 -0.017119
v -0.136734 0.646637 -0.000000
v -0.148000 0.590000 0.000000
v -0.136734 0.646637 -0.000000
v -0.104652 0.694652 -0.000000
v -0.095857 0.685857 0.017119
v -0.125243 0.641877 0.017119
v -0.125243 0.641877 0.017119
v -0.095857 0.685857 0.017119
v -0.081627 0.671627 0.010580
v -0.106651 0.634176 0.010580
v -0.106651 0.634176 0.010580
v -0.081627 0.671627 0.010580
v -0.081627 0.671627 -0.010580
v -0.106651 0.634176 -0.010580
v -0.106651 0.634176 -0.010580
v -0.081627 0.671627 -0.010580
v -0.095857 0.685857 -0.017119
v -0.125243 0.641877 -0.017119
v -0.125243 0.641877 -0.017119
v -0.095857 0.685857 -0.017119
v -0.104652 0.694652 -0.000000
v -0.136734 0.646637 -0.000000
v -0.104652 0.694652 -0.000000
v -0.056637 0.726734 -0.000000
v -0.051877 0.715243 0.017119
v -0.095857 0.685857 0.017119
v -0.095857 0.685857 0.017119
v -0.051877 0.715243 0.017119
v -0.044176 0.696651 0.010580
v -0.081627 0.671627 0.010580
v -0.081627 0.671627 0.010580
v -0.044176 0.696651 0.010580
v -0.044176 0.696651 -0.010580
v -0.081627 0.671627 -0.010580
v -0.081627 0.671627 -0.010580
v -0.044176 0.696651 -0.010580
v -0.051877 0.715243 -0.017119
v -0.095857 0.685857 -0.017119
v -0.095857 0.685857 -0.017119
v -0.051877 0.715243 -0.017119
v -0.056637 0.726734 -0.000000
v -0.104652 0.694652 -0.000000
v -0.056637 0.726734 -0.000000
v -0.000000 0.738000 -0.000000
v -0.000000 0.725562 0.017119
v -0.051877 0.715243 0.017119
v -0.051877 0.715243 0.017119
v -0.000000 0.725562 0.017119
v -0.000000 0.705438 0.010580
v -0.044176 0.696651 0.010580
v -0.044176 0.696651 0.010580
v -0.000000 0.705438 0.010580
v -0.000000 0.705438 -0.010580
v -0.044176 0.696651 -0.010580
v -0.044176 0.696651 -0.010580
v -0.000000 0.705438 -0.010580
v -0.000000 0.725562 -0.017119
v -0.051877 0.715243 -0.017119
v -0.051877 0.715243 -0.017119
v -0.000000 0.725562 -0.017119
v -0.000000 0.738000 -0.000000
v -0.056637 0.726734 -0.000000
v -0.000000 0.738000 -0.000000
v 0.056637 0.726734 -0.000000
v 0.051877 0.715243 0.017119
v -0.000000 0.725562 0.017119
v -0.000000 0.725562 0.017119
v 0.051877 0.715243 0.017119
v 0.044176 0.696651 0.010580
v -0.000000 0.705438 0.010580
v -0.000000 0.705438 0.010580
v 0.044176 0.696651 0.010580
v 0.044176 0.696651 -0.010580
v -0.000000 0.705438 -0.010580
v -0.000000 0.705438 -0.010580
v 0.044176 0.696651 -0.010580
v 0.051877 0.715243 -0.017119
v -0.000000 0.725562 -0.017119
v -0.000000 0.725562 -0.017119
v 0.051877 0.715243 -0.017119
v 0.056637 0.726734 -0.000000
v -0.000000 0.738000 -0.000000
v 0.056637 0.726734 -0.000000
v 0.104652 0.694652 -0.000000
v 0.095857 0.685857 0.017119
v 0.051877 0.715243 0.017119
v 0.051877 0.715243 0.017119
v 0.095857 0.685857 0.017119
v 0.081627 0.671627 0.010580
v 0.044176 0.696651 0.010580
v 0.044176 0.696651 0.010580
v 0.081627 0.671627 0.010580
v 0.081627 0.671627 -0.010580
v 0.044176 0.696651 -0.010580
v 0.044176 0.696651 -0.010580
v 0.081627 0.671627 -0.010580
v 0.095857 0.685857 -0.017119
v 0.051877 0.715243 -0.017119
v 0.051877 0.715243 -0.017119
v 0.095857 0.685857 -0.017119
v 0.104652 0.694652 -0.000000
v 0.056637 0.726734 -0.000000
v 0.104652 0.694652 -0.000000
v 0.136734 0.646637 -0.000000
v 0.125243 0.641877 0.017119
v 0.095857 0.685857 0.017119
v 0.095857 0.685857 0.017119
v 0.125243 0.641877 0.017119
v 0.106651 0.634176 0.010580
v 0.081627 0.671627 0.010580
v 0.081627 0.671627 0.010580
v 0.106651 0.634176 0.010580
v 0.106651 0.634176 -0.010580
v 0.081627 0.671627 -0.010580
v 0.081627 0.671627 -0.010580
v 0.106651 0.634176 -0.010580
v 0.125243 0.641877 -0.017119
v 0.095857 0.685857 -0.017119
v 0.095857 0.685857 -0.017119
v 0.125243 0.641877 -0.017119
v 0.136734 0.646637 -0.000000
v 0.104652 0.694652 -0.000000
v 0.136734 0.646637 -0.000000
v 0.148000 0.590000 0.000000
v 0.135562 0.590000 0.017119
v 0.125243 0.641877 0.017119
v 0.125243 0.641877 0.017119
v 0.135562 0.590000 0.017119
v 0.115438 0.590000 0.010580
v 0.106651 0.634176 0.010580
v 0.106651 0.634176 0.010580
v 0.115438 0.590000 0.010580
v 0.115438 0.590000 -0.010580
v 0.106651 0.634176 -0.010580
v 0.106651 0.634176 -0.010580
v 0.115438 0.590000 -0.010580
v 0.135562 0.590000 -0.017119
v 0.125243 0.641877 -0.017119
v 0.125243 0.641877 -0.017119
v 0.135562 0.590000 -0.017119
v 0.148000 0.590000 0.000000
v 0.136734 0.646637 -0.000000
v 0.564889 0.451086 -0.163130
v 0.551857 0.452756 -0.171578
v 0.176578 0.287633 0.374682
v 0.189610 0.285963 0.383130
v 0.551857 0.452756 -0.171578
v 0.543180 0.465575 -0.173664
v 0.167901 0.300452 0.372596
v 0.176578 0.287633 0.374682
v 0.543180 0.465575 -0.173664
v 0.545391 0.479890 -0.167818
v 0.170112 0.314767 0.378442
v 0.167901 0.300452 0.372596
v 0.545391 0.479890 -0.167818
v 0.556825 0.484921 -0.158442
v 0.181546 0.319798 0.387818
v 0.170112 0.314767 0.378442
v 0.556825 0.484921 -0.158442
v 0.568873 0.476880 -0.152596
v 0.193594 0.311757 0.393664
v 0.181546 0.319798 0.387818
v 0.568873 0.476880 -0.152596
v 0.572462 0.461822 -0.154682
v 0.197182 0.296699 0.391578
v 0.193594 0.311757 0.393664
v 0.572462 0.461822 -0.154682
v 0.564889 0.451086 -0.163130
v 0.189610 0.285963 0.383130
v 0.197182 0.296699 0.391578
v 0.557640 0.467561 -0.163130
v 0.551857 0.452756 -0.171578
v 0.564889 0.451086 -0.163130
v 0.182360 0.302439 0.383130
v 0.189610 0.285963 0.383130
v 0.176578 0.287633 0.374682
v 0.557640 0.467561 -0.163130
v 0.543180 0.465575 -0.173664
v 0.551857 0.452756 -0.171578
v 0.182360 0.302439 0.383130
v 0.176578 0.287633 0.374682
v 0.167901 0.300452 0.372596
v 0.557640 0.467561 -0.163130
v 0.545391 0.479890 -0.167818
v 0.543180 0.465575 -0.173664
v 0.182360 0.302439 0.383130
v 0.167901 0.300452 0.372596
v 0.170112 0.314767 0.378442
v 0.557640 0.467561 -0.163130
v 0.556825 0.484921 -0.158442
v 0.545391 0.479890 -0.167818
v 0.182360 0.302439 0.383130
v 0.170112 0.314767 0.378442
v 0.181546 0.319798 0.387818
v 0.557640 0.467561 -0.163130
v 0.568873 0.476880 -0.152596
v 0.556825 0.484921 -0.158442
v 0.182360 0.302439 0.383130
v 0.181546 0.319798 0.387818
v 0.193594 0.311757 0.393664
v 0.557640 0.467561 -0.163130
v 0.572462 0.461822 -0.154682
v 0.568873 0.476880 -0.152596
v 0.182360 0.302439 0.383130
v 0.193594 0.311757 0.393664
v 0.197182 0.296699 0.391578
v 0.557640 0.467561 -0.163130
v 0.564889 0.451086 -0.163130
v 0.572462 0.461822 -0.154682
v 0.182360 0.302439 0.383130
v 0.197182 0.296699 0.391578
v 0.189610 0.285963 0.383130
v 0.050000 0.000000 0.020000
v 0.122706 0.006051 0.186411
v 0.253974 0.001995 0.069027
v 0.253974 0.001995 0.069027
v 0.122706 0.006051 0.186411
v 0.125534 0.080001 0.231991
v 0.286124 0.075945 0.076535
v 0.286124 0.075945 0.076535
v 0.125534 0.080001 0.231991
v 0.104524 0.145251 0.161583
v 0.195735 0.141195 0.064127
v 0.055201 0.198000 0.031464
v 0.195735 0.141195 0.064127
v 0.104524 0.145251 0.161583
v 0.050000 0.000000 0.020000
v -0.040572 -0.003913 0.189275
v 0.122706 0.006051 0.186411
v 0.122706 0.006051 0.186411
v -0.040572 -0.003913 0.189275
v -0.067579 0.070037 0.195303
v 0.125534 0.080001 0.231991
v 0.125534 0.080001 0.231991
v -0.067579 0.070037 0.195303
v -0.037241 0.135287 0.132185
v 0.104524 0.145251 0.161583
v 0.055201 0.198000 0.031464
v 0.104524 0.145251 0.161583
v -0.037241 0.135287 0.132185
v 0.050000 0.000000 0.020000
v -0.163495 -0.004810 0.044275
v -0.040572 -0.003913 0.189275
v -0.040572 -0.003913 0.189275
v -0.163495 -0.004810 0.044275
v -0.190931 0.069140 0.048838
v -0.067579 0.070037 0.195303
v -0.067579 0.070037 0.195303
v -0.190931 0.069140 0.048838
v -0.097737 0.134390 0.042563
v -0.037241 0.135287 0.132185
v 0.055201 0.198000 0.031464
v -0.037241 0.135287 0.132185
v -0.097737 0.134390 0.042563
v 0.050000 0.000000 0.020000
v -0.092794 0.005438 -0.104431
v -0.163495 -0.004810 0.044275
v -0.163495 -0.004810 0.044275
v -0.092794 0.005438 -0.104431
v -0.100931 0.079388 -0.135679
v -0.190931 0.069140 0.048838
v -0.190931 0.069140 0.048838
v -0.100931 0.079388 -0.135679
v -0.061873 0.144638 -0.081541
v -0.097737 0.134390 0.042563
v 0.055201 0.198000 0.031464
v -0.097737 0.134390 0.042563
v -0.061873 0.144638 -0.081541
v 0.050000 0.000000 0.020000
v 0.063865 0.003086 -0.172564
v -0.092794 0.005438 -0.104431
v -0.092794 0.005438 -0.104431
v 0.063865 0.003086 -0.172564
v 0.068100 0.077036 -0.177578
v -0.100931 0.079388 -0.135679
v -0.100931 0.079388 -0.135679
v 0.068100 0.077036 -0.177578
v 0.063128 0.142286 -0.109617
v -0.061873 0.144638 -0.081541
v 0.055201 0.198000 0.031464
v -0.061873 0.144638 -0.081541
v 0.063128 0.142286 -0.109617
v 0.050000 0.000000 0.020000
v 0.229669 -0.006417 -0.071389
v 0.063865 0.003086 -0.172564
v 0.063865 0.003086 -0.172564
v 0.229669 -0.006417 -0.071389
v 0.247847 0.067533 -0.091650
v 0.068100 0.077036 -0.177578
v 0.068100 0.077036 -0.177578
v 0.247847 0.067533 -0.091650
v 0.171267 0.132783 -0.067013
v 0.063128 0.142286 -0.109617
v 0.055201 0.198000 0.031464
v 0.063128 0.142286 -0.109617
v 0.171267 0.132783 -0.067013
v 0.050000 0.000000 0.020000
v 0.253974 0.001995 0.069027
v 0.229669 -0.006417 -0.071389
v 0.229669 -0.006417 -0.071389
v 0.253974 0.001995 0.069027
v 0.286124 0.075945 0.076535
v 0.247847 0.067533 -0.091650
v 0.247847 0.067533 -0.091650
v 0.286124 0.075945 0.076535
v 0.195735 0.141195 0.064127
v 0.171267 0.132783 -0.067013
v 0.055201 0.198000 0.031464
v 0.171267 0.132783 -0.067013
v 0.195735 0.141195 0.064127
v 0.145000 0.480000 0.000000
v 0.130640 0.480000 0.062913
v 0.118189 0.499021 0.056917
v 0.131180 0.499021 0.000000
v 0.131180 0.499021 0.000000
v 0.118189 0.499021 0.056917
v 0.098043 0.491756 0.047215
v 0.108820 0.491756 0.000000
v 0.108820 0.491756 0.000000
v 0.098043 0.491756 0.047215
v 0.098043 0.468244 0.047215
v 0.108820 0.468244 0.000000
v 0.108820 0.468244 0.000000
v 0.098043 0.468244 0.047215
v 0.118189 0.460979 0.056917
v 0.131180 0.460979 0.000000
v 0.131180 0.460979 0.000000
v 0.118189 0.460979 0.056917
v 0.130640 0.480000 0.062913
v 0.145000 0.480000 0.000000
v 0.130640 0.480000 0.062913
v 0.090406 0.480000 0.113366
v 0.081790 0.499021 0.102561
v 0.118189 0.499021 0.056917
v 0.118189 0.499021 0.056917
v 0.081790 0.499021 0.102561
v 0.067848 0.491756 0.085079
v 0.098043 0.491756 0.047215
v 0.098043 0.491756 0.047215
v 0.067848 0.491756 0.085079
v 0.067848 0.468244 0.085079
v 0.098043 0.468244 0.047215
v 0.098043 0.468244 0.047215
v 0.067848 0.468244 0.085079
v 0.081790 0.460979 0.102561
v 0.118189 0.460979 0.056917
v 0.118189 0.460979 0.056917
v 0.081790 0.460979 0.102561
v 0.090406 0.480000 0.113366
v 0.130640 0.480000 0.062913
v 0.090406 0.480000 0.113366
v 0.032266 0.480000 0.141365
v 0.029190 0.499021 0.127891
v 0.081790 0.499021 0.102561
v 0.081790 0.499021 0.102561
v 0.029190 0.499021 0.127891
v 0.024215 0.491756 0.106091
v 0.067848 0.491756 0.085079
v 0.067848 0.491756 0.085079
v 0.024215 0.491756 0.106091
v 0.024215 0.468244 0.106091
v 0.067848 0.468244 0.085079
v 0.067848 0.468244 0.085079
v 0.024215 0.468244 0.106091
v 0.029190 0.460979 0.127891
v 0.081790 0.460979 0.102561
v 0.081790 0.460979 0.102561
v 0.029190 0.460979 0.127891
v 0.032266 0.480000 0.141365
v 0.090406 0.480000 0.113366
v 0.032266 0.480000 0.141365
v -0.032266 0.480000 0.141365
v -0.029190 0.499021 0.127891
v 0.029190 0.499021 0.127891
v 0.029190 0.499021 0.127891
v -0.029190 0.499021 0.127891
v -0.024215 0.491756 0.106091
v 0.024215 0.491756 0.106091
v 0.024215 0.491756 0.106091
v -0.024215 0.491756 0.106091
v -0.024215 0.468244 0.106091
v 0.024215 0.468244 0.106091
v 0.024215 0.468244 0.106091
v -0.024215 0.468244 0.106091
v -0.029190 0.460979 0.127891
v 0.029190 0.460979 0.127891
v 0.029190 0.460979 0.127891
v -0.029190 0.460979 0.127891
v -0.032266 0.480000 0.141365
v 0.032266 0.480000 0.141365
v -0.032266 0.480000 0.141365
v -0.090406 0.480000 0.113366
v -0.081790 0.499021 0.102561
v -0.029190 0.499021 0.127891
v -0.029190 0.499021 0.127891
v -0.081790 0.499021 0.102561
v -0.067848 0.491756 0.085079
v -0.024215 0.491756 0.106091
v -0.024215 0.491756 0.106091
v -0.067848 0.491756 0.085079
v -0.067848 0.468244 0.085079
v -0.024215 0.468244 0.106091
v -0.024215 0.468244 0.106091
v -0.067848 0.468244 0.085079
v -0.081790 0.460979 0.102561
v -0.029190 0.460979 0.127891
v -0.029190 0.460979 0.127891
v -0.081790 0.460979 0.102561
v -0.090406 0.480000 0.113366
v -0.032266 0.480000 0.141365
v -0.090406 0.480000 0.113366
v -0.130640 0.480000 0.062913
v -0.118189 0.499021 0.056917
v -0.081790 0.499021 0.102561
v -0.081790 0.499021 0.102561
v -0.118189 0.499021 0.056917
v -0.098043 0.491756 0.047215
v -0.067848 0.491756 0.085079
v -0.067848 0.491756 0.085079
v -0.098043 0.491756 0.047215
v -0.098043 0.468244 0.047215
v -0.067848 0.468244 0.085079
v -0.067848 0.468244 0.085079
v -0.098043 0.468244 0.047215
v -0.118189 0.460979 0.056917
v -0.081790 0.460979 0.102561
v -0.081790 0.460979 0.102561
v -0.118189 0.460979 0.056917
v -0.130640 0.480000 0.062913
v -0.090406 0.480000 0.113366
v -0.130640 0.480000 0.062913
v -0.145000 0.480000 0.000000
v -0.131180 0.499021 0.000000
v -0.118189 0.499021 0.056917
v -0.118189 0.499021 0.056917
v -0.131180 0.499021 0.000000
v -0.108820 0.491756 0.000000
v -0.098043 0.491756 0.047215
v -0.098043 0.491756 0.047215
v -0.108820 0.491756 0.000000
v -0.108820 0.468244 0.000000
v -0.098043 0.468244 0.047215
v -0.098043 0.468244 0.047215
v -0.108820 0.468244 0.000000
v -0.131180 0.460979 0.000000
v -0.118189 0.460979 0.056917
v -0.118189 0.460979 0.056917
v -0.131180 0.460979 0.000000
v -0.145000 0.480000 0.000000
v -0.130640 0.480000 0.062913
v -0.145000 0.480000 0.000000
v -0.130640 0.480000 -0.062913
v -0.118189 0.499021 -0.056917
v -0.131180 0.499021 0.000000
v -0.131180 0.499021 0.000000
v -0.118189 0.499021 -0.056917
v -0.098043 0.491756 -0.047215
v -0.108820 0.491756 0.000000
v -0.108820 0.491756 0.000000
v -0.098043 0.491756 -0.047215
v -0.098043 0.468244 -0.047215
v -0.108820 0.468244 0.000000
v -0.108820 0.468244 0.000000
v -0.098043 0.468244 -0.047215
v -0.118189 0.460979 -0.056917
v -0.131180 0.460979 0.000000
v -0.131180 0.460979 0.000000
v -0.118189 0.460979 -0.056917
v -0.130640 0.480000 -0.062913
v -0.145000 0.480000 0.000000
v -0.130640 0.480000 -0.062913
v -0.090406 0.480000 -0.113366
v -0.081790 0.499021 -0.102561
v -0.118189 0.499021 -0.056917
v -0.118189 0.499021 -0.056917
v -0.081790 0.499021 -0.102561
v -0.067848 0.491756 -0.085079
v -0.098043 0.491756 -0.047215
v -0.098043 0.491756 -0.047215
v -0.067848 0.491756 -0.085079
v -0.067848 0.468244 -0.085079
v -0.098043 0.468244 -0.047215
v -0.098043 0.468244 -0.047215
v -0.067848 0.468244 -0.085079
v -0.081790 0.460979 -0.102561
v -0.118189 0.460979 -0.056917
v -0.118189 0.460979 -0.056917
v -0.081790 0.460979 -0.102561
v -0.090406 0.480000 -0.113366
v -0.130640 0.480000 -0.062913
v -0.090406 0.480000 -0.113366
v -0.032266 0.480000 -0.141365
v -0.029190 0.499021 -0.127891
v -0.081790 0.499021 -0.102561
v -0.081790 0.499021 -0.102561
v -0.029190 0.499021 -0.127891
v -0.024215 0.491756 -0.106091
v -0.067848 0.491756 -0.085079
v -0.067848 0.491756 -0.085079
v -0.024215 0.491756 -0.106091
v -0.024215 0.468244 -0.106091
v -0.067848 0.468244 -0.085079
v -0.067848 0.468244 -0.085079
v -0.024215 0.468244 -0.106091
v -0.029190 0.460979 -0.127891
v -0.081790 0.460979 -0.102561
v -0.081790 0.460979 -0.102561
v -0.029190 0.460979 -0.127891
v -0.032266 0.480000 -0.141365
v -0.090406 0.480000 -0.113366
v -0.032266 0.480000 -0.141365
v 0.032266 0.480000 -0.141365
v 0.029190 0.499021 -0.127891
v -0.029190 0.499021 -0.127891
v -0.029190 0.499021 -0.127891
v 0.029190 0.499021 -0.127891
v 0.024215 0.491756 -0.106091
v -0.024215 0.491756 -0.106091
v -0.024215 0.491756 -0.106091
v 0.024215 0.491756 -0.106091
v 0.024215 0.468244 -0.106091
v -0.024215 0.468244 -0.106091
v -0.024215 0.468244 -0.106091
v 0.024215 0.468244 -0.106091
v 0.029190 0.460979 -0.127891
v -0.029190 0.460979 -0.127891
v -0.029190 0.460979 -0.127891
v 0.029190 0.460979 -0.127891
v 0.032266 0.480000 -0.141365
v -0.032266 0.480000 -0.141365
v 0.032266 0.480000 -0.141365
v 0.090406 0.480000 -0.113366
v 0.081790 0.499021 -0.102561
v 0.029190 0.499021 -0.127891
v 0.029190 0.499021 -0.127891
v 0.081790 0.499021 -0.102561
v 0.067848 0.491756 -0.085079
v 0.024215 0.491756 -0.106091
v 0.024215 0.491756 -0.106091
v 0.067848 0.491756 -0.085079
v 0.067848 0.468244 -0.085079
v 0.024215 0.468244 -0.106091
v 0.024215 0.468244 -0.106091
v 0.067848 0.468244 -0.085079
v 0.081790 0.460979 -0.102561
v 0.029190 0.460979 -0.127891
v 0.029190 0.460979 -0.127891
v 0.081790 0.460979 -0.102561
v 0.090406 0.480000 -0.113366
v 0.032266 0.480000 -0.141365
v 0.090406 0.480000 -0.113366
v 0.130640 0.480000 -0.062913
v 0.118189 0.499021 -0.056917
v 0.081790 0.499021 -0.102561
v 0.081790 0.499021 -0.102561
v 0.118189 0.499021 -0.056917
v 0.098043 0.491756 -0.047215
v 0.067848 0.491756 -0.085079
v 0.067848 0.491756 -0.085079
v 0.098043 0.491756 -0.047215
v 0.098043 0.468244 -0.047215
v 0.067848 0.468244 -0.085079
v 0.067848 0.468244 -0.085079
v 0.098043 0.468244 -0.047215
v 0.118189 0.460979 -0.056917
v 0.081790 0.460979 -0.102561
v 0.081790 0.460979 -0.102561
v 0.118189 0.460979 -0.056917
v 0.130640 0.480000 -0.062913
v 0.090406 0.480000 -0.113366
v 0.130640 0.480000 -0.062913
v 0.145000 0.480000 0.000000
v 0.131180 0.499021 0.000000
v 0.118189 0.499021 -0.056917
v 0.118189 0.499021 -0.056917
v 0.131180 0.499021 0.000000
v 0.108820 0.491756 0.000000
v 0.098043 0.491756 -0.047215
v 0.098043 0.491756 -0.047215
v 0.108820 0.491756 0.000000
v 0.108820 0.468244 0.000000
v 0.098043 0.468244 -0.047215
v 0.098043 0.468244 -0.047215
v 0.108820 0.468244 0.000000
v 0.131180 0.460979 0.000000
v 0.118189 0.460979 -0.056917
v 0.118189 0.460979 -0.056917
v 0.131180 0.460979 0.000000
v 0.145000 0.480000 0.000000
v 0.130640 0.480000 -0.062913
v 0.112000 0.570000 0.000000
v 0.096995 0.570000 0.056000
v 0.082272 0.587000 0.047500
v 0.095000 0.587000 0.000000
v 0.095000 0.587000 0.000000
v 0.082272 0.587000 0.047500
v 0.067550 0.570000 0.039000
v 0.078000 0.570000 0.000000
v 0.078000 0.570000 0.000000
v 0.067550 0.570000 0.039000
v 0.082272 0.553000 0.047500
v 0.095000 0.553000 0.000000
v 0.095000 0.553000 0.000000
v 0.082272 0.553000 0.047500
v 0.096995 0.570000 0.056000
v 0.112000 0.570000 0.000000
v 0.096995 0.570000 0.056000
v 0.056000 0.570000 0.096995
v 0.047500 0.587000 0.082272
v 0.082272 0.587000 0.047500
v 0.082272 0.587000 0.047500
v 0.047500 0.587000 0.082272
v 0.039000 0.570000 0.067550
v 0.067550 0.570000 0.039000
v 0.067550 0.570000 0.039000
v 0.039000 0.570000 0.067550
v 0.047500 0.553000 0.082272
v 0.082272 0.553000 0.047500
v 0.082272 0.553000 0.047500
v 0.047500 0.553000 0.082272
v 0.056000 0.570000 0.096995
v 0.096995 0.570000 0.056000
v 0.056000 0.570000 0.096995
v 0.000000 0.570000 0.112000
v 0.000000 0.587000 0.095000
v 0.047500 0.587000 0.082272
v 0.047500 0.587000 0.082272
v 0.000000 0.587000 0.095000
v 0.000000 0.570000 0.078000
v 0.039000 0.570000 0.067550
v 0.039000 0.570000 0.067550
v 0.000000 0.570000 0.078000
v 0.000000 0.553000 0.095000
v 0.047500 0.553000 0.082272
v 0.047500 0.553000 0.082272
v 0.000000 0.553000 0.095000
v 0.000000 0.570000 0.112000
v 0.056000 0.570000 0.096995
v 0.000000 0.570000 0.112000
v -0.056000 0.570000 0.096995
v -0.047500 0.587000 0.082272
v 0.000000 0.587000 0.095000
v 0.000000 0.587000 0.095000
v -0.047500 0.587000 0.082272
v -0.039000 0.570000 0.067550
v 0.000000 0.570000 0.078000
v 0.000000 0.570000 0.078000
v -0.039000 0.570000 0.067550
v -0.047500 0.553000 0.082272
v 0.000000 0.553000 0.095000
v 0.000000 0.553000 0.095000
v -0.047500 0.553000 0.082272
v -0.056000 0.570000 0.096995
v 0.000000 0.570000 0.112000
v -0.056000 0.570000 0.096995
v -0.096995 0.570000 0.056000
v -0.082272 0.587000 0.047500
v -0.047500 0.587000 0.082272
v -0.047500 0.587000 0.082272
v -0.082272 0.587000 0.047500
v -0.067550 0.570000 0.039000
v -0.039000 0.570000 0.067550
v -0.039000 0.570000 0.067550
v -0.067550 0.570000 0.039000
v -0.082272 0.553000 0.047500
v -0.047500 0.553000 0.082272
v -0.047500 0.553000 0.082272
v -0.082272 0.553000 0.047500
v -0.096995 0.570000 0.056000
v -0.056000 0.570000 0.096995
v -0.096995 0.570000 0.056000
v -0.112000 0.570000 0.000000
v -0.095000 0.587000 0.000000
v -0.082272 0.587000 0.047500
v -0.082272 0.587000 0.047500
v -0.095000 0.587000 0.000000
v -0.078000 0.570000 0.000000
v -0.067550 0.570000 0.039000
v -0.067550 0.570000 0.039000
v -0.078000 0.570000 0.000000
v -0.095000 0.553000 0.000000
v -0.082272 0.553000 0.047500
v -0.082272 0.553000 0.047500
v -0.095000 0.553000 0.000000
v -0.112000 0.570000 0.000000
v -0.096995 0.570000 0.056000
v -0.112000 0.570000 0.000000
v -0.096995 0.570000 -0.056000
v -0.082272 0.587000 -0.047500
v -0.095000 0.587000 0.000000
v -0.095000 0.587000 0.000000
v -0.082272 0.587000 -0.047500
v -0.067550 0.570000 -0.039000
v -0.078000 0.570000 0.000000
v -0.078000 0.570000 0.000000
v -0.067550 0.570000 -0.039000
v -0.082272 0.553000 -0.047500
v -0.095000 0.553000 0.000000
v -0.095000 0.553000 0.000000
v -0.082272 0.553000 -0.047500
v -0.096995 0.570000 -0.056000
v -0.112000 0.570000 0.000000
v -0.096995 0.570000 -0.056000
v -0.056000 0.570000 -0.096995
v -0.047500 0.587000 -0.082272
v -0.082272 0.587000 -0.047500
v -0.082272 0.587000 -0.047500
v -0.047500 0.587000 -0.082272
v -0.039000 0.570000 -0.067550
v -0.067550 0.570000 -0.039000
v -0.067550 0.570000 -0.039000
v -0.039000 0.570000 -0.067550
v -0.047500 0.553000 -0.082272
v -0.082272 0.553000 -0.047500
v -0.082272 0.553000 -0.047500
v -0.047500 0.553000 -0.082272
v -0.056000 0.570000 -0.096995
v -0.096995 0.570000 -0.056000
v -0.056000 0.570000 -0.096995
v -0.000000 0.570000 -0.112000
v -0.000000 0.587000 -0.095000
v -0.047500 0.587000 -0.082272
v -0.047500 0.587000 -0.082272
v -0.000000 0.587000 -0.095000
v -0.000000 0.570000 -0.078000
v -0.039000 0.570000 -0.067550
v -0.039000 0.570000 -0.067550
v -0.000000 0.570000 -0.078000
v -0.000000 0.553000 -0.095000
v -0.047500 0.553000 -0.082272
v -0.047500 0.553000 -0.082272
v -0.000000 0.553000 -0.095000
v -0.000000 0.570000 -0.112000
v -0.056000 0.570000 -0.096995
v -0.000000 0.570000 -0.112000
v 0.056000 0.570000 -0.096995
v 0.047500 0.587000 -0.082272
v -0.000000 0.587000 -0.095000
v -0.000000 0.587000 -0.095000
v 0.047500 0.587000 -0.082272
v 0.039000 0.570000 -0.067550
v -0.000000 0.570000 -0.078000
v -0.000000 0.570000 -0.078000
v 0.039000 0.570000 -0.067550
v 0.047500 0.553000 -0.082272
v -0.000000 0.553000 -0.095000
v -0.000000 0.553000 -0.095000
v 0.047500 0.553000 -0.082272
v 0.056000 0.570000 -0.096995
v -0.000000 0.570000 -0.112000
v 0.056000 0.570000 -0.096995
v 0.096995 0.570000 -0.056000
v 0.082272 0.587000 -0.047500
v 0.047500 0.587000 -0.082272
v 0.047500 0.587000 -0.082272
v 0.082272 0.587000 -0.047500
v 0.067550 0.570000 -0.039000
v 0.039000 0.570000 -0.067550
v 0.039000 0.570000 -0.067550
v 0.067550 0.570000 -0.039000
v 0.082272 0.553000 -0.047500
v 0.047500 0.553000 -0.082272
v 0.047500 0.553000 -0.082272
v 0.082272 0.553000 -0.047500
v 0.096995 0.570000 -0.056000
v 0.056000 0.570000 -0.096995
v 0.096995 0.570000 -0.056000
v 0.112000 0.570000 0.000000
v 0.095000 0.587000 0.000000
v 0.082272 0.587000 -0.047500
v 0.082272 0.587000 -0.047500
v 0.095000 0.587000 0.000000
v 0.078000 0.570000 0.000000
v 0.067550 0.570000 -0.039000
v 0.067550 0.570000 -0.039000
v 0.078000 0.570000 0.000000
v 0.095000 0.553000 0.000000
v 0.082272 0.553000 -0.047500
v 0.082272 0.553000 -0.047500
v 0.095000 0.553000 0.000000
v 0.112000 0.570000 0.000000
v 0.096995 0.570000 -0.056000
v -0.090000 0.152500 -0.090000
v 0.090000 0.152500 -0.090000
v 0.090000 0.227500 -0.090000
v -0.090000 0.227500 -0.090000
v 0.090000 0.152500 0.090000
v -0.090000 0.152500 0.090000
v -0.090000 0.227500 0.090000
v 0.090000 0.227500 0.090000
v -0.090000 0.152500 0.090000
v -0.090000 0.152500 -0.090000
v -0.090000 0.227500 -0.090000
v -0.090000 0.227500 0.090000
v 0.090000 0.152500 -0.090000
v 0.090000 0.152500 0.090000
v 0.090000 0.227500 0.090000
v 0.090000 0.227500 -0.090000
v -0.090000 0.227500 -0.090000
v 0.090000 0.227500 -0.090000
v 0.090000 0.227500 0.090000
v -0.090000 0.227500 0.090000
v -0.090000 0.152500 0.090000
v 0.090000 0.152500 0.090000
v 0.090000 0.152500 -0.090000
v -0.090000 0.152500 -0.090000
v 0.075840 0.100383 0.094537
v 0.291753 0.146277 -0.022831
v 0.278239 0.209856 -0.022831
v 0.062326 0.163962 0.094537
v 0.337674 0.156038 0.065463
v 0.121761 0.110144 0.182831
v 0.108247 0.173723 0.182831
v 0.324160 0.219617 0.065463
v 0.121761 0.110144 0.182831
v 0.075840 0.100383 0.094537
v 0.062326 0.163962 0.094537
v 0.108247 0.173723 0.182831
v 0.291753 0.146277 -0.022831
v 0.337674 0.156038 0.065463
v 0.324160 0.219617 0.065463
v 0.278239 0.209856 -0.022831
v 0.062326 0.163962 0.094537
v 0.278239 0.209856 -0.022831
v 0.324160 0.219617 0.065463
v 0.108247 0.173723 0.182831
v 0.121761 0.110144 0.182831
v 0.337674 0.156038 0.065463
v 0.291753 0.146277 -0.022831
v 0.075840 0.100383 0.094537
vt 0.000000 0.000000
vt 1.000000 0.000000
vt 1.000000 1.000000
vt 0.000000 1.000000
vt 0.000000 0.000000
vt 1.000000 0.000000
vt 1.000000 1.000000
vt 0.000000 1.000000
vt 0.000000 0.000000
vt 1.000000 0.000000
vt 1.000000 1.000000
vt 0.000000 1.000000
vt 0.000000 0.000000
vt 1.000000 0.000000
vt 1.000000 1.000000
vt 0.000000 1.000000
vt 0.000000 0.000000
vt 1.000000 0.000000
vt 1.000000 1.000000
vt 0.000000 1.000000
vt 0.000000 0.000000
vt 1.000000 0.000000
vt 1.000000 1.000000
vt 0.000000 1.000000
vt 0.000000 0.000000
vt 1.000000 0.000000
vt 1.000000 1.000000
vt 0.000000 1.000000
vt 0.000000 0.000000
vt 1.000000 0.000000
vt 1.000000 1.000000
vt 0.000000 1.000000
vt 0.000000 0.000000
vt 1.000000 0.000000
vt 1.000000 1.000000
vt 0.000000 1.000000
vt 0.500000 0.500000
vt 0.000000 0.000000
vt 1.000000 0.000000
vt 0.500000 0.500000
vt 0.000000 1.000000
vt 1.000000 1.000000
vt 0.500000 0.500000
vt 0.000000 0.000000
vt 1.000000 0.000000
vt 0.500000 0.500000
vt 0.000000 1.000000
vt 1.000000 1.000000
vt 0.500000 0.500000
vt 0.000000 0.000000
vt 1.000000 0.000000
vt 0.500000 0.500000
vt 0.000000 1.000000
vt 1.000000 1.000000
vt 0.500000 0.500000
vt 0.000000 0.000000
vt 1.000000 0.000000
vt 0.500000 0.500000
vt 0.000000 1.000000
vt 1.000000 1.000000
vt 0.500000 0.500000
vt 0.000000 0.000000
vt 1.000000 0.000000
vt 0.500000 0.500000
vt 0.000000 1.000000
vt 1.000000 1.000000
vt 0.500000 0.500000
vt 0.000000 0.000000
vt 1.000000 0.000000
vt 0.500000 0.500000
vt 0.000000 1.000000
vt 1.000000 1.000000
vt 0.500000 0.500000
vt 0.000000 0.000000
vt 1.000000 0.000000
vt 0.500000 0.500000
vt 0.000000 1.000000
vt 1.000000 1.000000
vt 0.500000 0.500000
vt 0.000000 0.000000
vt 1.000000 0.000000
vt 0.500000 0.500000
vt 0.000000 1.000000
vt 1.000000 1.000000
vt 0.500000 0.500000
vt 0.000000 0.000000
vt 1.000000 0.000000
vt 0.500000 0.500000
vt 0.000000 1.000000
vt 1.000000 1.000000
vt 0.000000 0.000000
vt 1.000000 0.000000
vt 1.000000 1.000000
vt 0.000000 1.000000
vt 0.000000 0.000000
vt 1.000000 0.000000
vt 1.000000 1.000000
vt 0.000000 1.000000
vt 0.000000 0.000000
vt 1.000000 0.000000
vt 1.000000 1.000000
vt 0.000000 1.000000
vt 0.000000 0.000000
vt 1.000000 0.000000
vt 1.000000 1.000000
vt 0.000000 1.000000
vt 0.000000 0.000000
vt 1.000000 0.000000
vt 1.000000 1.000000
vt 0.000000 1.000000
vt 0.000000 0.000000
vt 1.000000 0.000000
vt 1.000000 1.000000
vt 0.000000 1.000000
vt 0.000000 0.000000
vt 1.000000 0.000000
vt 1.000000 1.000000
vt 0.000000 1.000000
vt 0.000000 0.000000
vt 1.000000 0.000000
vt 1.000000 1.000000
vt 0.000000 1.000000
vt 0.000000 0.000000
vt 1.000000 0.000000
vt 1.000000 1.000000
vt 0.000000 1.000000
vt 0.000000 0.000000
vt 1.000000 0.000000
vt 1.000000 1.000000
vt 0.000000 1.000000
vt 0.000000 0.000000
vt 1.000000 0.000000
vt 1.000000 1.000000
vt 0.000000 1.000000
vt 0.000000 0.000000
vt 1.000000 0.000000
vt 1.000000 1.000000
vt 0.000000 1.000000
vt 0.000000 0.000000
vt 1.000000 0.000000
vt 1.000000 1.000000
vt 0.000000 1.000000
vt 0.000000 0.000000
vt 1.000000 0.000000
vt 1.000000 1.000000
vt 0.000000 1.000000
vt 0.000000 0.000000
vt 1.000000 0.000000
vt 1.000000 1.000000
vt 0.000000 1.000000
vt 0.000000 0.000000
vt 1.000000 0.000000
vt 1.000000 1.000000
vt 0.000000 1.000000
vt 0.000000 0.000000
vt 1.000000 0.000000
vt 1.000000 1.000000
vt 0.000000 1.000000
vt 0.000000 0.000000
vt 1.000000 0.000000
vt 1.000000 1.000000
vt 0.000000 1.000000
vt 0.000000 0.000000
vt 1.000000 0.000000
vt 1.000000 1.000000
vt 0.000000 1.000000
vt 0.000000 0.000000
vt 1.000000 0.000000
vt 1.000000 1.000000
vt 0.000000 1.000000
vt 0.000000 0.000000
vt 1.000000 0.000000
vt 1.000000 1.000000
vt 0.000000 1.000000
vt 0.000000 0.000000
vt 1.000000 0.000000
vt 1.000000 1.000000
vt 0.000000 1.000000
vt 0.000000 0.000000
vt 1.000000 0.000000
vt 1.000000 1.000000
vt 0.000000 1.000000
vt 0.000000 0.000000
vt 1.000000 0.000000
vt 1.000000 1.000000
vt 0.000000 1.000000
vt 0.000000 0.000000
vt 1.000000 0.000000
vt 1.000000 1.000000
vt 0.000000 1.000000
vt 0.000000 0.000000
vt 1.000000 0.000000
vt 1.000000 1.000000
vt 0.000000 1.000000
vt 0.000000 0.000000
vt 1.000000 0.000000
vt 1.000000 1.000000
vt 0.000000 1.000000
vt 0.000000 0.000000
vt 1.000000 0.000000
vt 1.000000 1.000000
vt 0.000000 1.000000
vt 0.000000 0.000000
vt 1.000000 0.000000
vt 1.000000 1.000000
vt 0.000000 1.000000
vt 0.000000 0.000000
vt 1.000000 0.000000
vt 1.000000 1.000000
vt 0.000000 1.000000
vt 0.000000 0.000000
vt 1.000000 0.000000
vt 1.000000 1.000000
vt 0.000000 1.000000
vt 0.000000 0.000000
vt 1.000000 0.000000
vt 1.000000 1.000000
vt 0.000000 1.000000
vt 0.000000 0.000000
vt 1.000000 0.000000
vt 1.000000 1.000000
vt 0.000000 1.000000
vt 0.000000 0.000000
vt 1.000000 0.000000
vt 1.000000 1.000000
vt 0.000000 1.000000
vt 0.000000 0.000000
vt 1.000000 0.000000
vt 1.000000 1.000000
vt 0.000000 1.000000
vt 0.000000 0.000000
vt 1.000000 0.000000
vt 1.000000 1.000000
vt 0.000000 1.000000
vt 0.000000 0.000000
vt 1.000000 0.000000
vt 1.000000 1.000000
vt 0.000000 1.000000
vt 0.000000 0.000000
vt 1.000000 0.000000
vt 1.000000 1.000000
vt 0.000000 1.000000
vt 0.000000 0.000000
vt 1.000000 0.000000
vt 1.000000 1.000000
vt 0.000000 1.000000
vt 0.000000 0.000000
vt 1.000000 0.000000
vt 1.000000 1.000000
vt 0.000000 1.000000
vt 0.000000 0.000000
vt 1.000000 0.000000
vt 1.000000 1.000000
vt 0.000000 1.000000
vt 0.000000 0.000000
vt 1.000000 0.000000
vt 1.000000 1.000000
vt 0.000000 1.000000
vt 0.000000 0.000000
vt 1.000000 0.000000
vt 1.000000 1.000000
vt 0.000000 1.000000
vt 0.000000 0.000000
vt 1.000000 0.000000
vt 1.000000 1.000000
vt 0.000000 1.000000
vt 0.000000 0.000000
vt 1.000000 0.000000
vt 1.000000 1.000000
vt 0.000000 1.000000
vt 0.000000 0.000000
vt 1.000000 0.000000
vt 1.000000 1.000000
vt 0.000000 1.000000
vt 0.000000 0.000000
vt 1.000000 0.000000
vt 1.000000 1.000000
vt 0.000000 1.000000
vt 0.000000 0.000000
vt 1.000000 0.000000
vt 1.000000 1.000000
vt 0.000000 1.000000
vt 0.000000 0.000000
vt 1.000000 0.000000
vt 1.000000 1.000000
vt 0.000000 1.000000
vt 0.000000 0.000000
vt 1.000000 0.000000
vt 1.000000 1.000000
vt 0.000000 1.000000
vt 0.000000 0.000000
vt 1.000000 0.000000
vt 1.000000 1.000000
vt 0.000000 1.000000
vt 0.000000 0.000000
vt 1.000000 0.000000
vt 1.000000 1.000000
vt 0.000000 1.000000
vt 0.000000 0.000000
vt 1.000000 0.000000
vt 1.000000 1.000000
vt 0.000000 1.000000
vt 0.000000 0.000000
vt 1.000000 0.000000
vt 1.000000 1.000000
vt 0.000000 1.000000
vt 0.000000 0.000000
vt 1.000000 0.000000
vt 1.000000 1.000000
vt 0.000000 1.000000
vt 0.000000 0.000000
vt 1.000000 0.000000
vt 1.000000 1.000000
vt 0.000000 1.000000
vt 0.000000 0.000000
vt 1.000000 0.000000
vt 1.000000 1.000000
vt 0.000000 1.000000
vt 0.000000 0.000000
vt 1.000000 0.000000
vt 1.000000 1.000000
vt 0.000000 1.000000
vt 0.000000 0.000000
vt 1.000000 0.000000
vt 1.000000 1.000000
vt 0.000000 1.000000
vt 0.000000 0.000000
vt 1.000000 0.000000
vt 1.000000 1.000000
vt 0.000000 1.000000
vt 0.000000 0.000000
vt 1.000000 0.000000
vt 1.000000 1.000000
vt 0.000000 1.000000
vt 0.000000 0.000000
vt 1.000000 0.000000
vt 1.000000 1.000000
vt 0.000000 1.000000
vt 0.000000 0.000000
vt 1.000000 0.000000
vt 1.000000 1.000000
vt 0.000000 1.000000
vt 0.000000 0.000000
vt 1.000000 0.000000
vt 1.000000 1.000000
vt 0.000000 1.000000
vt 0.000000 0.000000
vt 1.000000 0.000000
vt 1.000000 1.000000
vt 0.000000 1.000000
vt 0.000000 0.000000
vt 1.000000 0.000000
vt 1.000000 1.000000
vt 0.000000 1.000000
vt 0.000000 0.000000
vt 1.000000 0.000000
vt 1.000000 1.000000
vt 0.000000 1.000000
vt 0.000000 0.000000
vt 1.000000 0.000000
vt 1.000000 1.000000
vt 0.000000 1.000000
vt 0.000000 0.000000
vt 1.000000 0.000000
vt 1.000000 1.000000
vt 0.000000 1.000000
vt 0.000000 0.000000
vt 1.000000 0.000000
vt 1.000000 1.000000
vt 0.000000 1.000000
vt 0.000000 0.000000
vt 1.000000 0.000000
vt 1.000000 1.000000
vt 0.000000 1.000000
vt 0.000000 0.000000
vt 1.000000 0.000000
vt 1.000000 1.000000
vt 0.000000 1.000000
vt 0.000000 0.000000
vt 1.000000 0.000000
vt 1.000000 1.000000
vt 0.000000 1.000000
vt 0.000000 0.000000
vt 1.000000 0.000000
vt 1.000000 1.000000
vt 0.000000 1.000000
vt 0.000000 0.000000
vt 1.000000 0.000000
vt 1.000000 1.000000
vt 0.000000 1.000000
vt 0.000000 0.000000
vt 1.000000 0.000000
vt 1.000000 1.000000
vt 0.000000 1.000000
vt 0.000000 0.000000
vt 1.000000 0.000000
vt 1.000000 1.000000
vt 0.000000 1.000000
vt 0.000000 0.000000
vt 1.000000 0.000000
vt 1.000000 1.000000
vt 0.000000 1.000000
vt 0.000000 0.000000
vt 1.000000 0.000000
vt 1.000000 1.000000
vt 0.000000 1.000000
vt 0.000000 0.000000
vt 1.000000 0.000000
vt 1.000000 1.000000
vt 0.000000 1.000000
vt 0.000000 0.000000
vt 1.000000 0.000000
vt 1.000000 1.000000
vt 0.000000 1.000000
vt 0.000000 0.000000
vt 1.000000 0.000000
vt 1.000000 1.000000
vt 0.000000 1.000000
vt 0.000000 0.000000
vt 1.000000 0.000000
vt 1.000000 1.000000
vt 0.000000 1.000000
vt 0.000000 0.000000
vt 1.000000 0.000000
vt 1.000000 1.000000
vt 0.000000 1.000000
vt 0.000000 0.000000
vt 1.000000 0.000000
vt 1.000000 1.000000
vt 0.000000 1.000000
vt 0.000000 0.000000
vt 1.000000 0.000000
vt 1.000000 1.000000
vt 0.000000 1.000000
vt 0.000000 0.000000
vt 1.000000 0.000000
vt 1.000000 1.000000
vt 0.000000 1.000000
vt 0.000000 0.000000
vt 1.000000 0.000000
vt 1.000000 1.000000
vt 0.000000 1.000000
vt 0.000000 0.000000
vt 1.000000 0.000000
vt 1.000000 1.000000
vt 0.000000 1.000000
vt 0.000000 0.000000
vt 1.000000 0.000000
vt 1.000000 1.000000
vt 0.000000 1.000000
vt 0.000000 0.000000
vt 1.000000 0.000000
vt 1.000000 1.000000
vt 0.000000 1.000000
vt 0.000000 0.000000
vt 1.000000 0.000000
vt 1.000000 1.000000
vt 0.000000 1.000000
vt 0.000000 0.000000
vt 1.000000 0.000000
vt 1.000000 1.000000
vt 0.000000 1.000000
vt 0.500000 0.500000
vt 0.000000 0.000000
vt 1.000000 0.000000
vt 0.500000 0.500000
vt 0.000000 1.000000
vt 1.000000 1.000000
vt 0.500000 0.500000
vt 0.000000 0.000000
vt 1.000000 0.000000
vt 0.500000 0.500000
vt 0.000000 1.000000
vt 1.000000 1.000000
vt 0.500000 0.500000
vt 0.000000 0.000000
vt 1.000000 0.000000
vt 0.500000 0.500000
vt 0.000000 1.000000
vt 1.000000 1.000000
vt 0.500000 0.500000
vt 0.000000 0.000000
vt 1.000000 0.000000
vt 0.500000 0.500000
vt 0.000000 1.000000
vt 1.000000 1.000000
vt 0.500000 0.500000
vt 0.000000 0.000000
vt 1.000000 0.000000
vt 0.500000 0.500000
vt 0.000000 1.000000
vt 1.000000 1.000000
vt 0.500000 0.500000
vt 0.000000 0.000000
vt 1.000000 0.000000
vt 0.500000 0.500000
vt 0.000000 1.000000
vt 1.000000 1.000000
vt 0.500000 0.500000
vt 0.000000 0.000000
vt 1.000000 0.000000
vt 0.500000 0.500000
vt 0.000000 1.000000
vt 1.000000 1.000000
vt 0.000000 0.000000
vt 0.000000 0.000000
vt 0.000000 0.000000
vt 0.000000 0.000000
vt 1.000000 0.000000
vt 1.000000 1.000000
vt 0.000000 1.000000
vt 0.000000 0.000000
vt 1.000000 0.000000
vt 1.000000 1.000000
vt 0.000000 1.000000
vt 0.000000 0.000000
vt 0.000000 0.000000
vt 0.000000 0.000000
vt 0.000000 0.000000
vt 0.000000 0.000000
vt 0.000000 0.000000
vt 0.000000 0.000000
vt 1.000000 0.000000
vt 1.000000 1.000000
vt 0.000000 1.000000
vt 0.000000 0.000000
vt 1.000000 0.000000
vt 1.000000 1.000000
vt 0.000000 1.000000
vt 0.000000 0.000000
vt 0.000000 0.000000
vt 0.000000 0.000000
vt 0.000000 0.000000
vt 0.000000 0.000000
vt 0.000000 0.000000
vt 0.000000 0.000000
vt 1.000000 0.000000
vt 1.000000 1.000000
vt 0.000000 1.000000
vt 0.000000 0.000000
vt 1.000000 0.000000
vt 1.000000 1.000000
vt 0.000000 1.000000
vt 0.000000 0.000000
vt 0.000000 0.000000
vt 0.000000 0.000000
vt 0.000000 0.000000
vt 0.000000 0.000000
vt 0.000000 0.000000
vt 0.000000 0.000000
vt 1.000000 0.000000
vt 1.000000 1.000000
vt 0.000000 1.000000
vt 0.000000 0.000000
vt 1.000000 0.000000
vt 1.000000 1.000000
vt 0.000000 1.000000
vt 0.000000 0.000000
vt 0.000000 0.000000
vt 0.000000 0.000000
vt 0.000000 0.000000
vt 0.000000 0.000000
vt 0.000000 0.000000
vt 0.000000 0.000000
vt 1.000000 0.000000
vt 1.000000 1.000000
vt 0.000000 1.000000
vt 0.000000 0.000000
vt 1.000000 0.000000
vt 1.000000 1.000000
vt 0.000000 1.000000
vt 0.000000 0.000000
vt 0.000000 0.000000
vt 0.000000 0.000000
vt 0.000000 0.000000
vt 0.000000 0.000000
vt 0.000000 0.000000
vt 0.000000 0.000000
vt 1.000000 0.000000
vt 1.000000 1.000000
vt 0.000000 1.000000
vt 0.000000 0.000000
vt 1.000000 0.000000
vt 1.000000 1.000000
vt 0.000000 1.000000
vt 0.000000 0.000000
vt 0.000000 0.000000
vt 0.000000 0.000000
vt 0.000000 0.000000
vt 0.000000 0.000000
vt 0.000000 0.000000
vt 0.000000 0.000000
vt 1.000000 0.000000
vt 1.000000 1.000000
vt 0.000000 1.000000
vt 0.000000 0.000000
vt 1.000000 0.000000
vt 1.000000 1.000000
vt 0.000000 1.000000
vt 0.000000 0.000000
vt 0.000000 0.000000
vt 0.000000 0.000000
vt 0.000000 0.000000
vt 1.000000 0.000000
vt 1.000000 1.000000
vt 0.000000 1.000000
vt 0.000000 0.000000
vt 1.000000 0.000000
vt 1.000000 1.000000
vt 0.000000 1.000000
vt 0.000000 0.000000
vt 1.000000 0.000000
vt 1.000000 1.000000
vt 0.000000 1.000000
vt 0.000000 0.000000
vt 1.000000 0.000000
vt 1.000000 1.000000
vt 0.000000 1.000000
vt 0.000000 0.000000
vt 1.000000 0.000000
vt 1.000000 1.000000
vt 0.000000 1.000000
vt 0.000000 0.000000
vt 1.000000 0.000000
vt 1.000000 1.000000
vt 0.000000 1.000000
vt 0.000000 0.000000
vt 1.000000 0.000000
vt 1.000000 1.000000
vt 0.000000 1.000000
vt 0.000000 0.000000
vt 1.000000 0.000000
vt 1.000000 1.000000
vt 0.000000 1.000000
vt 0.000000 0.000000
vt 1.000000 0.000000
vt 1.000000 1.000000
vt 0.000000 1.000000
vt 0.000000 0.000000
vt 1.000000 0.000000
vt 1.000000 1.000000
vt 0.000000 1.000000
vt 0.000000 0.000000
vt 1.000000 0.000000
vt 1.000000 1.000000
vt 0.000000 1.000000
vt 0.000000 0.000000
vt 1.000000 0.000000
vt 1.000000 1.000000
vt 0.000000 1.000000
vt 0.000000 0.000000
vt 1.000000 0.000000
vt 1.000000 1.000000
vt 0.000000 1.000000
vt 0.000000 0.000000
vt 1.000000 0.000000
vt 1.000000 1.000000
vt 0.000000 1.000000
vt 0.000000 0.000000
vt 1.000000 0.000000
vt 1.000000 1.000000
vt 0.000000 1.000000
vt 0.000000 0.000000
vt 1.000000 0.000000
vt 1.000000 1.000000
vt 0.000000 1.000000
vt 0.000000 0.000000
vt 1.000000 0.000000
vt 1.000000 1.000000
vt 0.000000 1.000000
vt 0.000000 0.000000
vt 1.000000 0.000000
vt 1.000000 1.000000
vt 0.000000 1.000000
vt 0.000000 0.000000
vt 1.000000 0.000000
vt 1.000000 1.000000
vt 0.000000 1.000000
vt 0.000000 0.000000
vt 1.000000 0.000000
vt 1.000000 1.000000
vt 0.000000 1.000000
vt 0.000000 0.000000
vt 1.000000 0.000000
vt 1.000000 1.000000
vt 0.000000 1.000000
vt 0.000000 0.000000
vt 1.000000 0.000000
vt 1.000000 1.000000
vt 0.000000 1.000000
vt 0.000000 0.000000
vt 1.000000 0.000000
vt 1.000000 1.000000
vt 0.000000 1.000000
vt 0.000000 0.000000
vt 1.000000 0.000000
vt 1.000000 1.000000
vt 0.000000 1.000000
vt 0.000000 0.000000
vt 1.000000 0.000000
vt 1.000000 1.000000
vt 0.000000 1.000000
vt 0.000000 0.000000
vt 1.000000 0.000000
vt 1.000000 1.000000
vt 0.000000 1.000000
vt 0.000000 0.000000
vt 1.000000 0.000000
vt 1.000000 1.000000
vt 0.000000 1.000000
vt 0.000000 0.000000
vt 1.000000 0.000000
vt 1.000000 1.000000
vt 0.000000 1.000000
vt 0.000000 0.000000
vt 1.000000 0.000000
vt 1.000000 1.000000
vt 0.000000 1.000000
vt 0.000000 0.000000
vt 1.000000 0.000000
vt 1.000000 1.000000
vt 0.000000 1.000000
vt 0.000000 0.000000
vt 1.000000 0.000000
vt 1.000000 1.000000
vt 0.000000 1.000000
vt 0.000000 0.000000
vt 1.000000 0.000000
vt 1.000000 1.000000
vt 0.000000 1.000000
vt 0.000000 0.000000
vt 1.000000 0.000000
vt 1.000000 1.000000
vt 0.000000 1.000000
vt 0.000000 0.000000
vt 1.000000 0.000000
vt 1.000000 1.000000
vt 0.000000 1.000000
vt 0.000000 0.000000
vt 1.000000 0.000000
vt 1.000000 1.000000
vt 0.000000 1.000000
vt 0.000000 0.000000
vt 1.000000 0.000000
vt 1.000000 1.000000
vt 0.000000 1.000000
vt 0.000000 0.000000
vt 1.000000 0.000000
vt 1.000000 1.000000
vt 0.000000 1.000000
vt 0.000000 0.000000
vt 1.000000 0.000000
vt 1.000000 1.000000
vt 0.000000 1.000000
vt 0.000000 0.000000
vt 1.000000 0.000000
vt 1.000000 1.000000
vt 0.000000 1.000000
vt 0.000000 0.000000
vt 1.000000 0.000000
vt 1.000000 1.000000
vt 0.000000 1.000000
vt 0.000000 0.000000
vt 1.000000 0.000000
vt 1.000000 1.000000
vt 0.000000 1.000000
vt 0.000000 0.000000
vt 1.000000 0.000000
vt 1.000000 1.000000
vt 0.000000 1.000000
vt 0.000000 0.000000
vt 1.000000 0.000000
vt 1.000000 1.000000
vt 0.000000 1.000000
vt 0.000000 0.000000
vt 1.000000 0.000000
vt 1.000000 1.000000
vt 0.000000 1.000000
vt 0.000000 0.000000
vt 1.000000 0.000000
vt 1.000000 1.000000
vt 0.000000 1.000000
vt 0.000000 0.000000
vt 1.000000 0.000000
vt 1.000000 1.000000
vt 0.000000 1.000000
vt 0.000000 0.000000
vt 1.000000 0.000000
vt 1.000000 1.000000
vt 0.000000 1.000000
vt 0.000000 0.000000
vt 1.000000 0.000000
vt 1.000000 1.000000
vt 0.000000 1.000000
vt 0.000000 0.000000
vt 1.000000 0.000000
vt 1.000000 1.000000
vt 0.000000 1.000000
vt 0.000000 0.000000
vt 1.000000 0.000000
vt 1.000000 1.000000
vt 0.000000 1.000000
vt 0.000000 0.000000
vt 1.000000 0.000000
vt 1.000000 1.000000
vt 0.000000 1.000000
vt 0.000000 0.000000
vt 1.000000 0.000000
vt 1.000000 1.000000
vt 0.000000 1.000000
vt 0.000000 0.000000
vt 1.000000 0.000000
vt 1.000000 1.000000
vt 0.000000 1.000000
vt 0.000000 0.000000
vt 1.000000 0.000000
vt 1.000000 1.000000
vt 0.000000 1.000000
vt 0.000000 0.000000
vt 1.000000 0.000000
vt 1.000000 1.000000
vt 0.000000 1.000000
vt 0.000000 0.000000
vt 1.000000 0.000000
vt 1.000000 1.000000
vt 0.000000 1.000000
vt 0.000000 0.000000
vt 1.000000 0.000000
vt 1.000000 1.000000
vt 0.000000 1.000000
vt 0.000000 0.000000
vt 1.000000 0.000000
vt 1.000000 1.000000
vt 0.000000 1.000000
vt 0.000000 0.000000
vt 1.000000 0.000000
vt 1.000000 1.000000
vt 0.000000 1.000000
vt 0.000000 0.000000
vt 1.000000 0.000000
vt 1.000000 1.000000
vt 0.000000 1.000000
vt 0.000000 0.000000
vt 1.000000 0.000000
vt 1.000000 1.000000
vt 0.000000 1.000000
vt 0.000000 0.000000
vt 1.000000 0.000000
vt 1.000000 1.000000
vt 0.000000 1.000000
vt 0.000000 0.000000
vt 1.000000 0.000000
vt 1.000000 1.000000
vt 0.000000 1.000000
vt 0.000000 0.000000
vt 1.000000 0.000000
vt 1.000000 1.000000
vt 0.000000 1.000000
vt 0.000000 0.000000
vt 1.000000 0.000000
vt 1.000000 1.000000
vt 0.000000 1.000000
vt 0.000000 0.000000
vt 1.000000 0.000000
vt 1.000000 1.000000
vt 0.000000 1.000000
vt 0.000000 0.000000
vt 1.000000 0.000000
vt 1.000000 1.000000
vt 0.000000 1.000000
vt 0.000000 0.000000
vt 1.000000 0.000000
vt 1.000000 1.000000
vt 0.000000 1.000000
vt 0.000000 0.000000
vt 1.000000 0.000000
vt 1.000000 1.000000
vt 0.000000 1.000000
vt 0.000000 0.000000
vt 1.000000 0.000000
vt 1.000000 1.000000
vt 0.000000 1.000000
vt 0.000000 0.000000
vt 1.000000 0.000000
vt 1.000000 1.000000
vt 0.000000 1.000000
vt 0.000000 0.000000
vt 1.000000 0.000000
vt 1.000000 1.000000
vt 0.000000 1.000000
vt 0.000000 0.000000
vt 1.000000 0.000000
vt 1.000000 1.000000
vt 0.000000 1.000000
vt 0.000000 0.000000
vt 1.000000 0.000000
vt 1.000000 1.000000
vt 0.000000 1.000000
vt 0.000000 0.000000
vt 1.000000 0.000000
vt 1.000000 1.000000
vt 0.000000 1.000000
vt 0.000000 0.000000
vt 1.000000 0.000000
vt 1.000000 1.000000
vt 0.000000 1.000000
vt 0.000000 0.000000
vt 1.000000 0.000000
vt 1.000000 1.000000
vt 0.000000 1.000000
vt 0.000000 0.000000
vt 1.000000 0.000000
vt 1.000000 1.000000
vt 0.000000 1.000000
vt 0.000000 0.000000
vt 1.000000 0.000000
vt 1.000000 1.000000
vt 0.000000 1.000000
vt 0.000000 0.000000
vt 1.000000 0.000000
vt 1.000000 1.000000
vt 0.000000 1.000000
vt 0.000000 0.000000
vt 1.000000 0.000000
vt 1.000000 1.000000
vt 0.000000 1.000000
vt 0.000000 0.000000
vt 1.000000 0.000000
vt 1.000000 1.000000
vt 0.000000 1.000000
vt 0.000000 0.000000
vt 1.000000 0.000000
vt 1.000000 1.000000
vt 0.000000 1.000000
vt 0.000000 0.000000
vt 1.000000 0.000000
vt 1.000000 1.000000
vt 0.000000 1.000000
vt 0.000000 0.000000
vt 1.000000 0.000000
vt 1.000000 1.000000
vt 0.000000 1.000000
vt 0.000000 0.000000
vt 1.000000 0.000000
vt 1.000000 1.000000
vt 0.000000 1.000000
vt 0.000000 0.000000
vt 1.000000 0.000000
vt 1.000000 1.000000
vt 0.000000 1.000000
vt 0.000000 0.000000
vt 1.000000 0.000000
vt 1.000000 1.000000
vt 0.000000 1.000000
vt 0.000000 0.000000
vt 1.000000 0.000000
vt 1.000000 1.000000
vt 0.000000 1.000000
vt 0.000000 0.000000
vt 1.000000 0.000000
vt 1.000000 1.000000
vt 0.000000 1.000000
vt 0.000000 0.000000
vt 1.000000 0.000000
vt 1.000000 1.000000
vt 0.000000 1.000000
vt 0.000000 0.000000
vt 1.000000 0.000000
vt 1.000000 1.000000
vt 0.000000 1.000000
vt 0.000000 0.000000
vt 1.000000 0.000000
vt 1.000000 1.000000
vt 0.000000 1.000000
vt 0.000000 0.000000
vt 1.000000 0.000000
vt 1.000000 1.000000
vt 0.000000 1.000000
vt 0.000000 0.000000
vt 1.000000 0.000000
vt 1.000000 1.000000
vt 0.000000 1.000000
vt 0.000000 0.000000
vt 1.000000 0.000000
vt 1.000000 1.000000
vt 0.000000 1.000000
vt 0.000000 0.000000
vt 1.000000 0.000000
vt 1.000000 1.000000
vt 0.000000 1.000000
vt 0.000000 0.000000
vt 1.000000 0.000000
vt 1.000000 1.000000
vt 0.000000 1.000000
vt 0.000000 0.000000
vt 1.000000 0.000000
vt 1.000000 1.000000
vt 0.000000 1.000000
vt 0.000000 0.000000
vt 1.000000 0.000000
vt 1.000000 1.000000
vt 0.000000 1.000000
vt 0.000000 0.000000
vt 1.000000 0.000000
vt 1.000000 1.000000
vt 0.000000 1.000000
vt 0.000000 0.000000
vt 1.000000 0.000000
vt 1.000000 1.000000
vt 0.000000 1.000000
vt 0.000000 0.000000
vt 1.000000 0.000000
vt 1.000000 1.000000
vt 0.000000 1.000000
vt 0.000000 0.000000
vt 1.000000 0.000000
vt 1.000000 1.000000
vt 0.000000 1.000000
vt 0.000000 0.000000
vt 1.000000 0.000000
vt 1.000000 1.000000
vt 0.000000 1.000000
vt 0.000000 0.000000
vt 1.000000 0.000000
vt 1.000000 1.000000
vt 0.000000 1.000000
vt 0.000000 0.000000
vt 1.000000 0.000000
vt 1.000000 1.000000
vt 0.000000 1.000000
vt 0.000000 0.000000
vt 1.000000 0.000000
vt 1.000000 1.000000
vt 0.000000 1.000000
vt 0.000000 0.000000
vt 1.000000 0.000000
vt 1.000000 1.000000
vt 0.000000 1.000000
vt 0.000000 0.000000
vt 1.000000 0.000000
vt 1.000000 1.000000
vt 0.000000 1.000000
vt 0.000000 0.000000
vt 1.000000 0.000000
vt 1.000000 1.000000
vt 0.000000 1.000000
vt 0.000000 0.000000
vt 1.000000 0.000000
vt 1.000000 1.000000
vt 0.000000 1.000000
vt 0.000000 0.000000
vt 1.000000 0.000000
vt 1.000000 1.000000
vt 0.000000 1.000000
vt 0.000000 0.000000
vt 1.000000 0.000000
vt 1.000000 1.000000
vt 0.000000 1.000000
vt 0.000000 0.000000
vt 1.000000 0.000000
vt 1.000000 1.000000
vt 0.000000 1.000000
vt 0.000000 0.000000
vt 1.000000 0.000000
vt 1.000000 1.000000
vt 0.000000 1.000000
vt 0.000000 0.000000
vt 1.000000 0.000000
vt 1.000000 1.000000
vt 0.000000 1.000000
vt 0.000000 0.000000
vt 1.000000 0.000000
vt 1.000000 1.000000
vt 0.000000 1.000000
vt 0.000000 0.000000
vt 1.000000 0.000000
vt 1.000000 1.000000
vt 0.000000 1.000000
vt 0.000000 0.000000
vt 1.000000 0.000000
vt 1.000000 1.000000
vt 0.000000 1.000000
vt 0.000000 0.000000
vt 1.000000 0.000000
vt 1.000000 1.000000
vt 0.000000 1.000000
vt 0.000000 0.000000
vt 1.000000 0.000000
vt 1.000000 1.000000
vt 0.000000 1.000000
vt 0.000000 0.000000
vt 1.000000 0.000000
vt 1.000000 1.000000
vt 0.000000 1.000000
vt 0.000000 0.000000
vt 1.000000 0.000000
vt 1.000000 1.000000
vt 0.000000 1.000000
vt 0.000000 0.000000
vt 1.000000 0.000000
vt 1.000000 1.000000
vt 0.000000 1.000000
vt 0.000000 0.000000
vt 1.000000 0.000000
vt 1.000000 1.000000
vt 0.000000 1.000000
vt 0.000000 0.000000
vt 1.000000 0.000000
vt 1.000000 1.000000
vt 0.000000 1.000000
vt 0.000000 0.000000
vt 1.000000 0.000000
vt 1.000000 1.000000
vt 0.000000 1.000000
vt 0.000000 0.000000
vt 1.000000 0.000000
vt 1.000000 1.000000
vt 0.000000 1.000000
vt 0.000000 0.000000
vt 1.000000 0.000000
vt 1.000000 1.000000
vt 0.000000 1.000000
usemtl Metal
f 1/1 2/2 3/3
f 1/1 3/3 4/4
f 5/5 6/6 7/7
f 5/5 7/7 8/8
f 9/9 10/10 11/11
f 9/9 11/11 12/12
f 13/13 14/14 15/15
f 13/13 15/15 16/16
f 17/17 18/18 19/19
f 17/17 19/19 20/20
f 21/21 22/22 23/23
f 21/21 23/23 24/24
f 25/25 26/26 27/27
f 25/25 27/27 28/28
f 29/29 30/30 31/31
f 29/29 31/31 32/32
f 33/33 34/34 35/35
f 33/33 35/35 36/36
f 37/37 38/38 39/39
f 40/40 41/41 42/42
f 43/43 44/44 45/45
f 46/46 47/47 48/48
f 49/49 50/50 51/51
f 52/52 53/53 54/54
f 55/55 56/56 57/57
f 58/58 59/59 60/60
f 61/61 62/62 63/63
f 64/64 65/65 66/66
f 67/67 68/68 69/69
f 70/70 71/71 72/72
f 73/73 74/74 75/75
f 76/76 77/77 78/78
f 79/79 80/80 81/81
f 82/82 83/83 84/84
f 85/85 86/86 87/87
f 88/88 89/89 90/90
f 91/91 92/92 93/93
f 91/91 93/93 94/94
f 95/95 96/96 97/97
f 95/95 97/97 98/98
f 99/99 100/100 101/101
f 99/99 101/101 102/102
f 103/103 104/104 105/105
f 103/103 105/105 106/106
f 107/107 108/108 109/109
f 107/107 109/109 110/110
f 111/111 112/112 113/113
f 111/111 113/113 114/114
usemtl Rope
f 115/115 116/116 117/117
f 115/115 117/117 118/118
f 119/119 120/120 121/121
f 119/119 121/121 122/122
f 123/123 124/124 125/125
f 123/123 125/125 126/126
f 127/127 128/128 129/129
f 127/127 129/129 130/130
f 131/131 132/132 133/133
f 131/131 133/133 134/134
f 135/135 136/136 137/137
f 135/135 137/137 138/138
f 139/139 140/140 141/141
f 139/139 141/141 142/142
f 143/143 144/144 145/145
f 143/143 145/145 146/146
f 147/147 148/148 149/149
f 147/147 149/149 150/150
f 151/151 152/152 153/153
f 151/151 153/153 154/154
f 155/155 156/156 157/157
f 155/155 157/157 158/158
f 159/159 160/160 161/161
f 159/159 161/161 162/162
f 163/163 164/164 165/165
f 163/163 165/165 166/166
f 167/167 168/168 169/169
f 167/167 169/169 170/170
f 171/171 172/172 173/173
f 171/171 173/173 174/174
f 175/175 176/176 177/177
f 175/175 177/177 178/178
f 179/179 180/180 181/181
f 179/179 181/181 182/182
f 183/183 184/184 185/185
f 183/183 185/185 186/186
f 187/187 188/188 189/189
f 187/187 189/189 190/190
f 191/191 192/192 193/193
f 191/191 193/193 194/194
f 195/195 196/196 197/197
f 195/195 197/197 198/198
f 199/199 200/200 201/201
f 199/199 201/201 202/202
f 203/203 204/204 205/205
f 203/203 205/205 206/206
f 207/207 208/208 209/209
f 207/207 209/209 210/210
f 211/211 212/212 213/213
f 211/211 213/213 214/214
f 215/215 216/216 217/217
f 215/215 217/217 218/218
f 219/219 220/220 221/221
f 219/219 221/221 222/222
f 223/223 224/224 225/225
f 223/223 225/225 226/226
f 227/227 228/228 229/229
f 227/227 229/229 230/230
f 231/231 232/232 233/233
f 231/231 233/233 234/234
f 235/235 236/236 237/237
f 235/235 237/237 238/238
f 239/239 240/240 241/241
f 239/239 241/241 242/242
f 243/243 244/244 245/245
f 243/243 245/245 246/246
f 247/247 248/248 249/249
f 247/247 249/249 250/250
f 251/251 252/252 253/253
f 251/251 253/253 254/254
f 255/255 256/256 257/257
f 255/255 257/257 258/258
f 259/259 260/260 261/261
f 259/259 261/261 262/262
f 263/263 264/264 265/265
f 263/263 265/265 266/266
f 267/267 268/268 269/269
f 267/267 269/269 270/270
f 271/271 272/272 273/273
f 271/271 273/273 274/274
f 275/275 276/276 277/277
f 275/275 277/277 278/278
f 279/279 280/280 281/281
f 279/279 281/281 282/282
f 283/283 284/284 285/285
f 283/283 285/285 286/286
f 287/287 288/288 289/289
f 287/287 289/289 290/290
f 291/291 292/292 293/293
f 291/291 293/293 294/294
f 295/295 296/296 297/297
f 295/295 297/297 298/298
f 299/299 300/300 301/301
f 299/299 301/301 302/302
f 303/303 304/304 305/305
f 303/303 305/305 306/306
f 307/307 308/308 309/309
f 307/307 309/309 310/310
f 311/311 312/312 313/313
f 311/311 313/313 314/314
f 315/315 316/316 317/317
f 315/315 317/317 318/318
f 319/319 320/320 321/321
f 319/319 321/321 322/322
f 323/323 324/324 325/325
f 323/323 325/325 326/326
f 327/327 328/328 329/329
f 327/327 329/329 330/330
f 331/331 332/332 333/333
f 331/331 333/333 334/334
f 335/335 336/336 337/337
f 335/335 337/337 338/338
f 339/339 340/340 341/341
f 339/339 341/341 342/342
f 343/343 344/344 345/345
f 343/343 345/345 346/346
f 347/347 348/348 349/349
f 347/347 349/349 350/350
f 351/351 352/352 353/353
f 351/351 353/353 354/354
f 355/355 356/356 357/357
f 355/355 357/357 358/358
f 359/359 360/360 361/361
f 359/359 361/361 362/362
f 363/363 364/364 365/365
f 363/363 365/365 366/366
f 367/367 368/368 369/369
f 367/367 369/369 370/370
f 371/371 372/372 373/373
f 371/371 373/373 374/374
f 375/375 376/376 377/377
f 375/375 377/377 378/378
f 379/379 380/380 381/381
f 379/379 381/381 382/382
f 383/383 384/384 385/385
f 383/383 385/385 386/386
f 387/387 388/388 389/389
f 387/387 389/389 390/390
f 391/391 392/392 393/393
f 391/391 393/393 394/394
f 395/395 396/396 397/397
f 395/395 397/397 398/398
f 399/399 400/400 401/401
f 399/399 401/401 402/402
f 403/403 404/404 405/405
f 403/403 405/405 406/406
f 407/407 408/408 409/409
f 407/407 409/409 410/410
f 411/411 412/412 413/413
f 411/411 413/413 414/414
f 415/415 416/416 417/417
f 415/415 417/417 418/418
f 419/419 420/420 421/421
f 419/419 421/421 422/422
f 423/423 424/424 425/425
f 423/423 425/425 426/426
f 427/427 428/428 429/429
f 427/427 429/429 430/430
f 431/431 432/432 433/433
f 431/431 433/433 434/434
f 435/435 436/436 437/437
f 435/435 437/437 438/438
f 439/439 440/440 441/441
f 439/439 441/441 442/442
f 443/443 444/444 445/445
f 443/443 445/445 446/446
f 447/447 448/448 449/449
f 447/447 449/449 450/450
f 451/451 452/452 453/453
f 451/451 453/453 454/454
f 455/455 456/456 457/457
f 455/455 457/457 458/458
f 459/459 460/460 461/461
f 459/459 461/461 462/462
f 463/463 464/464 465/465
f 466/466 467/467 468/468
f 469/469 470/470 471/471
f 472/472 473/473 474/474
f 475/475 476/476 477/477
f 478/478 479/479 480/480
f 481/481 482/482 483/483
f 484/484 485/485 486/486
f 487/487 488/488 489/489
f 490/490 491/491 492/492
f 493/493 494/494 495/495
f 496/496 497/497 498/498
f 499/499 500/500 501/501
f 502/502 503/503 504/504
usemtl Stone
f 505/505 506/506 507/507
f 508/508 509/509 510/510
f 508/508 510/510 511/511
f 512/512 513/513 514/514
f 512/512 514/514 515/515
f 516/516 517/517 518/518
f 519/519 520/520 521/521
f 522/522 523/523 524/524
f 522/522 524/524 525/525
f 526/526 527/527 528/528
f 526/526 528/528 529/529
f 530/530 531/531 532/532
f 533/533 534/534 535/535
f 536/536 537/537 538/538
f 536/536 538/538 539/539
f 540/540 541/541 542/542
f 540/540 542/542 543/543
f 544/544 545/545 546/546
f 547/547 548/548 549/549
f 550/550 551/551 552/552
f 550/550 552/552 553/553
f 554/554 555/555 556/556
f 554/554 556/556 557/557
f 558/558 559/559 560/560
f 561/561 562/562 563/563
f 564/564 565/565 566/566
f 564/564 566/566 567/567
f 568/568 569/569 570/570
f 568/568 570/570 571/571
f 572/572 573/573 574/574
f 575/575 576/576 577/577
f 578/578 579/579 580/580
f 578/578 580/580 581/581
f 582/582 583/583 584/584
f 582/582 584/584 585/585
f 586/586 587/587 588/588
f 589/589 590/590 591/591
f 592/592 593/593 594/594
f 592/592 594/594 595/595
f 596/596 597/597 598/598
f 596/596 598/598 599/599
f 600/600 601/601 602/602
usemtl Metal
f 603/603 604/604 605/605
f 603/603 605/605 606/606
f 607/607 608/608 609/609
f 607/607 609/609 610/610
f 611/611 612/612 613/613
f 611/611 613/613 614/614
f 615/615 616/616 617/617
f 615/615 617/617 618/618
f 619/619 620/620 621/621
f 619/619 621/621 622/622
f 623/623 624/624 625/625
f 623/623 625/625 626/626
f 627/627 628/628 629/629
f 627/627 629/629 630/630
f 631/631 632/632 633/633
f 631/631 633/633 634/634
f 635/635 636/636 637/637
f 635/635 637/637 638/638
f 639/639 640/640 641/641
f 639/639 641/641 642/642
f 643/643 644/644 645/645
f 643/643 645/645 646/646
f 647/647 648/648 649/649
f 647/647 649/649 650/650
f 651/651 652/652 653/653
f 651/651 653/653 654/654
f 655/655 656/656 657/657
f 655/655 657/657 658/658
f 659/659 660/660 661/661
f 659/659 661/661 662/662
f 663/663 664/664 665/665
f 663/663 665/665 666/666
f 667/667 668/668 669/669
f 667/667 669/669 670/670
f 671/671 672/672 673/673
f 671/671 673/673 674/674
f 675/675 676/676 677/677
f 675/675 677/677 678/678
f 679/679 680/680 681/681
f 679/679 681/681 682/682
f 683/683 684/684 685/685
f 683/683 685/685 686/686
f 687/687 688/688 689/689
f 687/687 689/689 690/690
f 691/691 692/692 693/693
f 691/691 693/693 694/694
f 695/695 696/696 697/697
f 695/695 697/697 698/698
f 699/699 700/700 701/701
f 699/699 701/701 702/702
f 703/703 704/704 705/705
f 703/703 705/705 706/706
f 707/707 708/708 709/709
f 707/707 709/709 710/710
f 711/711 712/712 713/713
f 711/711 713/713 714/714
f 715/715 716/716 717/717
f 715/715 717/717 718/718
f 719/719 720/720 721/721
f 719/719 721/721 722/722
f 723/723 724/724 725/725
f 723/723 725/725 726/726
f 727/727 728/728 729/729
f 727/727 729/729 730/730
f 731/731 732/732 733/733
f 731/731 733/733 734/734
f 735/735 736/736 737/737
f 735/735 737/737 738/738
f 739/739 740/740 741/741
f 739/739 741/741 742/742
f 743/743 744/744 745/745
f 743/743 745/745 746/746
f 747/747 748/748 749/749
f 747/747 749/749 750/750
f 751/751 752/752 753/753
f 751/751 753/753 754/754
f 755/755 756/756 757/757
f 755/755 757/757 758/758
f 759/759 760/760 761/761
f 759/759 761/761 762/762
f 763/763 764/764 765/765
f 763/763 765/765 766/766
f 767/767 768/768 769/769
f 767/767 769/769 770/770
f 771/771 772/772 773/773
f 771/771 773/773 774/774
f 775/775 776/776 777/777
f 775/775 777/777 778/778
f 779/779 780/780 781/781
f 779/779 781/781 782/782
f 783/783 784/784 785/785
f 783/783 785/785 786/786
f 787/787 788/788 789/789
f 787/787 789/789 790/790
f 791/791 792/792 793/793
f 791/791 793/793 794/794
f 795/795 796/796 797/797
f 795/795 797/797 798/798
f 799/799 800/800 801/801
f 799/799 801/801 802/802
f 803/803 804/804 805/805
f 803/803 805/805 806/806
f 807/807 808/808 809/809
f 807/807 809/809 810/810
f 811/811 812/812 813/813
f 811/811 813/813 814/814
f 815/815 816/816 817/817
f 815/815 817/817 818/818
f 819/819 820/820 821/821
f 819/819 821/821 822/822
f 823/823 824/824 825/825
f 823/823 825/825 826/826
f 827/827 828/828 829/829
f 827/827 829/829 830/830
f 831/831 832/832 833/833
f 831/831 833/833 834/834
f 835/835 836/836 837/837
f 835/835 837/837 838/838
f 839/839 840/840 841/841
f 839/839 841/841 842/842
f 843/843 844/844 845/845
f 843/843 845/845 846/846
f 847/847 848/848 849/849
f 847/847 849/849 850/850
f 851/851 852/852 853/853
f 851/851 853/853 854/854
f 855/855 856/856 857/857
f 855/855 857/857 858/858
f 859/859 860/860 861/861
f 859/859 861/861 862/862
f 863/863 864/864 865/865
f 863/863 865/865 866/866
f 867/867 868/868 869/869
f 867/867 869/869 870/870
f 871/871 872/872 873/873
f 871/871 873/873 874/874
f 875/875 876/876 877/877
f 875/875 877/877 878/878
f 879/879 880/880 881/881
f 879/879 881/881 882/882
usemtl Rope
f 883/883 884/884 885/885
f 883/883 885/885 886/886
f 887/887 888/888 889/889
f 887/887 889/889 890/890
f 891/891 892/892 893/893
f 891/891 893/893 894/894
f 895/895 896/896 897/897
f 895/895 897/897 898/898
f 899/899 900/900 901/901
f 899/899 901/901 902/902
f 903/903 904/904 905/905
f 903/903 905/905 906/906
f 907/907 908/908 909/909
f 907/907 909/909 910/910
f 911/911 912/912 913/913
f 911/911 913/913 914/914
f 915/915 916/916 917/917
f 915/915 917/917 918/918
f 919/919 920/920 921/921
f 919/919 921/921 922/922
f 923/923 924/924 925/925
f 923/923 925/925 926/926
f 927/927 928/928 929/929
f 927/927 929/929 930/930
f 931/931 932/932 933/933
f 931/931 933/933 934/934
f 935/935 936/936 937/937
f 935/935 937/937 938/938
f 939/939 940/940 941/941
f 939/939 941/941 942/942
f 943/943 944/944 945/945
f 943/943 945/945 946/946
f 947/947 948/948 949/949
f 947/947 949/949 950/950
f 951/951 952/952 953/953
f 951/951 953/953 954/954
f 955/955 956/956 957/957
f 955/955 957/957 958/958
f 959/959 960/960 961/961
f 959/959 961/961 962/962
f 963/963 964/964 965/965
f 963/963 965/965 966/966
f 967/967 968/968 969/969
f 967/967 969/969 970/970
f 971/971 972/972 973/973
f 971/971 973/973 974/974
f 975/975 976/976 977/977
f 975/975 977/977 978/978
f 979/979 980/980 981/981
f 979/979 981/981 982/982
f 983/983 984/984 985/985
f 983/983 985/985 986/986
f 987/987 988/988 989/989
f 987/987 989/989 990/990
f 991/991 992/992 993/993
f 991/991 993/993 994/994
f 995/995 996/996 997/997
f 995/995 997/997 998/998
f 999/999 1000/1000 1001/1001
f 999/999 1001/1001 1002/1002
f 1003/1003 1004/1004 1005/1005
f 1003/1003 1005/1005 1006/1006
f 1007/1007 1008/1008 1009/1009
f 1007/1007 1009/1009 1010/1010
f 1011/1011 1012/1012 1013/1013
f 1011/1011 1013/1013 1014/1014
f 1015/1015 1016/1016 1017/1017
f 1015/1015 1017/1017 1018/1018
f 1019/1019 1020/1020 1021/1021
f 1019/1019 1021/1021 1022/1022
f 1023/1023 1024/1024 1025/1025
f 1023/1023 1025/1025 1026/1026
f 1027/1027 1028/1028 1029/1029
f 1027/1027 1029/1029 1030/1030
f 1031/1031 1032/1032 1033/1033
f 1031/1031 1033/1033 1034/1034
f 1035/1035 1036/1036 1037/1037
f 1035/1035 1037/1037 1038/1038
f 1039/1039 1040/1040 1041/1041
f 1039/1039 1041/1041 1042/1042
f 1043/1043 1044/1044 1045/1045
f 1043/1043 1045/1045 1046/1046
f 1047/1047 1048/1048 1049/1049
f 1047/1047 1049/1049 1050/1050
f 1051/1051 1052/1052 1053/1053
f 1051/1051 1053/1053 1054/1054
f 1055/1055 1056/1056 1057/1057
f 1055/1055 1057/1057 1058/1058
f 1059/1059 1060/1060 1061/1061
f 1059/1059 1061/1061 1062/1062
f 1063/1063 1064/1064 1065/1065
f 1063/1063 1065/1065 1066/1066
f 1067/1067 1068/1068 1069/1069
f 1067/1067 1069/1069 1070/1070
f 1071/1071 1072/1072 1073/1073
f 1071/1071 1073/1073 1074/1074
usemtl Metal
f 1075/1075 1076/1076 1077/1077
f 1075/1075 1077/1077 1078/1078
f 1079/1079 1080/1080 1081/1081
f 1079/1079 1081/1081 1082/1082
f 1083/1083 1084/1084 1085/1085
f 1083/1083 1085/1085 1086/1086
f 1087/1087 1088/1088 1089/1089
f 1087/1087 1089/1089 1090/1090
f 1091/1091 1092/1092 1093/1093
f 1091/1091 1093/1093 1094/1094
f 1095/1095 1096/1096 1097/1097
f 1095/1095 1097/1097 1098/1098
usemtl Stone
f 1099/1099 1100/1100 1101/1101
f 1099/1099 1101/1101 1102/1102
f 1103/1103 1104/1104 1105/1105
f 1103/1103 1105/1105 1106/1106
f 1107/1107 1108/1108 1109/1109
f 1107/1107 1109/1109 1110/1110
f 1111/1111 1112/1112 1113/1113
f 1111/1111 1113/1113 1114/1114
f 1115/1115 1116/1116 1117/1117
f 1115/1115 1117/1117 1118/1118
f 1119/1119 1120/1120 1121/1121
f 1119/1119 1121/1121 1122/1122
