mtllib ../../Materials/project_oen.mtl
o pr-011_palm_leaf_pile__small
v -0.508742 0.054509 0.036049
v -0.048233 0.005410 0.025054
v 0.360004 0.005491 -0.193905
v -0.100505 0.054590 -0.182910
v -0.100505 0.054590 -0.182910
v 0.360004 0.005491 -0.193905
v -0.048233 0.005410 0.025054
v -0.508742 0.054509 0.036049
v 0.095817 0.022869 0.256430
v 0.055967 0.043731 -0.204630
v -0.192144 0.053131 -0.595722
v -0.152295 0.032269 -0.134661
v -0.152295 0.032269 -0.134661
v -0.192144 0.053131 -0.595722
v 0.055967 0.043731 -0.204630
v 0.095817 0.022869 0.256430
v -0.594874 0.036798 0.035032
v -0.146247 0.021271 -0.079390
v 0.201859 0.055202 -0.383151
v -0.246768 0.070729 -0.268729
v -0.246768 0.070729 -0.268729
v 0.201859 0.055202 -0.383151
v -0.146247 0.021271 -0.079390
v -0.594874 0.036798 0.035032
v -0.593826 0.061305 0.455250
v -0.242513 0.049086 0.153538
v -0.069773 0.046695 -0.276293
v -0.421086 0.058914 0.025418
v -0.421086 0.058914 0.025418
v -0.069773 0.046695 -0.276293
v -0.242513 0.049086 0.153538
v -0.593826 0.061305 0.455250
v 0.196585 0.030751 -0.032154
v -0.152846 0.054351 -0.335372
v -0.601747 0.093249 -0.442957
v -0.252316 0.069649 -0.139740
v -0.252316 0.069649 -0.139740
v -0.601747 0.093249 -0.442957
v -0.152846 0.054351 -0.335372
v 0.196585 0.030751 -0.032154
v -0.226138 0.039616 0.128888
v 0.225048 0.057249 0.025348
v 0.576931 0.100384 -0.272843
v 0.125746 0.082751 -0.169303
v 0.125746 0.082751 -0.169303
v 0.576931 0.100384 -0.272843
v 0.225048 0.057249 0.025348
v -0.226138 0.039616 0.128888
vt 0.000000 0.000000
vt 1.000000 0.000000
vt 1.000000 1.000000
vt 0.000000 1.000000
vt 0.000000 0.000000
vt 1.000000 0.000000
vt 1.000000 1.000000
vt 0.000000 1.000000
vt 0.000000 0.000000
vt 1.000000 0.000000
vt 1.000000 1.000000
vt 0.000000 1.000000
vt 0.000000 0.000000
vt 1.000000 0.000000
vt 1.000000 1.000000
vt 0.000000 1.000000
vt 0.000000 0.000000
vt 1.000000 0.000000
vt 1.000000 1.000000
vt 0.000000 1.000000
vt 0.000000 0.000000
vt 1.000000 0.000000
vt 1.000000 1.000000
vt 0.000000 1.000000
vt 0.000000 0.000000
vt 1.000000 0.000000
vt 1.000000 1.000000
vt 0.000000 1.000000
vt 0.000000 0.000000
vt 1.000000 0.000000
vt 1.000000 1.000000
vt 0.000000 1.000000
vt 0.000000 0.000000
vt 1.000000 0.000000
vt 1.000000 1.000000
vt 0.000000 1.000000
vt 0.000000 0.000000
vt 1.000000 0.000000
vt 1.000000 1.000000
vt 0.000000 1.000000
vt 0.000000 0.000000
vt 1.000000 0.000000
vt 1.000000 1.000000
vt 0.000000 1.000000
vt 0.000000 0.000000
vt 1.000000 0.000000
vt 1.000000 1.000000
vt 0.000000 1.000000
usemtl Leaf
f 1/1 2/2 3/3
f 1/1 3/3 4/4
f 5/5 6/6 7/7
f 5/5 7/7 8/8
f 9/9 10/10 11/11
f 9/9 11/11 12/12
f 13/13 14/14 15/15
f 13/13 15/15 16/16
f 17/17 18/18 19/19
f 17/17 19/19 20/20
f 21/21 22/22 23/23
f 21/21 23/23 24/24
f 25/25 26/26 27/27
f 25/25 27/27 28/28
f 29/29 30/30 31/31
f 29/29 31/31 32/32
f 33/33 34/34 35/35
f 33/33 35/35 36/36
f 37/37 38/38 39/39
f 37/37 39/39 40/40
f 41/41 42/42 43/43
f 41/41 43/43 44/44
f 45/45 46/46 47/47
f 45/45 47/47 48/48
