mtllib ../../Materials/project_oen.mtl
o pr-012_scrap_metal_bundle__medium
v -0.484502 0.061772 -0.174880
v -0.031012 -0.001962 0.111276
v -0.026141 0.032697 0.111276
v -0.479631 0.096431 -0.174880
v -0.070369 0.003569 0.174880
v -0.523859 0.067303 -0.111276
v -0.518988 0.101962 -0.111276
v -0.065498 0.038228 0.174880
v -0.523859 0.067303 -0.111276
v -0.484502 0.061772 -0.174880
v -0.479631 0.096431 -0.174880
v -0.518988 0.101962 -0.111276
v -0.031012 -0.001962 0.111276
v -0.070369 0.003569 0.174880
v -0.065498 0.038228 0.174880
v -0.026141 0.032697 0.111276
v -0.479631 0.096431 -0.174880
v -0.026141 0.032697 0.111276
v -0.065498 0.038228 0.174880
v -0.518988 0.101962 -0.111276
v -0.523859 0.067303 -0.111276
v -0.070369 0.003569 0.174880
v -0.031012 -0.001962 0.111276
v -0.484502 0.061772 -0.174880
v 0.080390 0.016324 0.039667
v 0.078296 0.009878 0.053740
v -0.511359 0.201469 0.053740
v -0.509265 0.207914 0.039667
v 0.078296 0.009878 0.053740
v 0.073590 -0.004605 0.057215
v -0.516065 0.186986 0.057215
v -0.511359 0.201469 0.053740
v 0.073590 -0.004605 0.057215
v 0.069816 -0.016219 0.047476
v -0.519839 0.175372 0.047476
v -0.516065 0.186986 0.057215
v 0.069816 -0.016219 0.047476
v 0.069816 -0.016219 0.031857
v -0.519839 0.175372 0.031857
v -0.519839 0.175372 0.047476
v 0.069816 -0.016219 0.031857
v 0.073590 -0.004605 0.022118
v -0.516065 0.186986 0.022118
v -0.519839 0.175372 0.031857
v 0.073590 -0.004605 0.022118
v 0.078296 0.009878 0.025594
v -0.511359 0.201469 0.025594
v -0.516065 0.186986 0.022118
v 0.078296 0.009878 0.025594
v 0.080390 0.016324 0.039667
v -0.509265 0.207914 0.039667
v -0.511359 0.201469 0.025594
v 0.074828 -0.000795 0.039667
v 0.078296 0.009878 0.053740
v 0.080390 0.016324 0.039667
v -0.514828 0.190795 0.039667
v -0.509265 0.207914 0.039667
v -0.511359 0.201469 0.053740
v 0.074828 -0.000795 0.039667
v 0.073590 -0.004605 0.057215
v 0.078296 0.009878 0.053740
v -0.514828 0.190795 0.039667
v -0.511359 0.201469 0.053740
v -0.516065 0.186986 0.057215
v 0.074828 -0.000795 0.039667
v 0.069816 -0.016219 0.047476
v 0.073590 -0.004605 0.057215
v -0.514828 0.190795 0.039667
v -0.516065 0.186986 0.057215
v -0.519839 0.175372 0.047476
v 0.074828 -0.000795 0.039667
v 0.069816 -0.016219 0.031857
v 0.069816 -0.016219 0.047476
v -0.514828 0.190795 0.039667
v -0.519839 0.175372 0.047476
v -0.519839 0.175372 0.031857
v 0.074828 -0.000795 0.039667
v 0.073590 -0.004605 0.022118
v 0.069816 -0.016219 0.031857
v -0.514828 0.190795 0.039667
v -0.519839 0.175372 0.031857
v -0.516065 0.186986 0.022118
v 0.074828 -0.000795 0.039667
v 0.078296 0.009878 0.025594
v 0.073590 -0.004605 0.022118
v -0.514828 0.190795 0.039667
v -0.516065 0.186986 0.022118
v -0.511359 0.201469 0.025594
v 0.074828 -0.000795 0.039667
v 0.080390 0.016324 0.039667
v 0.078296 0.009878 0.025594
v -0.514828 0.190795 0.039667
v -0.511359 0.201469 0.025594
v -0.509265 0.207914 0.039667
v -0.419156 0.086609 0.074434
v 0.061469 0.154156 -0.162287
v 0.056598 0.188816 -0.162287
v -0.424027 0.121268 0.074434
v 0.094027 0.158732 -0.094877
v -0.386598 0.091184 0.141843
v -0.391469 0.125844 0.141843
v 0.089156 0.193391 -0.094877
v -0.386598 0.091184 0.141843
v -0.419156 0.086609 0.074434
v -0.424027 0.121268 0.074434
v -0.391469 0.125844 0.141843
v 0.061469 0.154156 -0.162287
v 0.094027 0.158732 -0.094877
v 0.089156 0.193391 -0.094877
v 0.056598 0.188816 -0.162287
v -0.424027 0.121268 0.074434
v 0.056598 0.188816 -0.162287
v 0.089156 0.193391 -0.094877
v -0.391469 0.125844 0.141843
v -0.386598 0.091184 0.141843
v 0.094027 0.158732 -0.094877
v 0.061469 0.154156 -0.162287
v -0.419156 0.086609 0.074434
v 0.183030 0.152750 -0.037033
v 0.184898 0.146236 -0.022960
v -0.411085 -0.024660 -0.022960
v -0.412953 -0.018145 -0.037033
v 0.184898 0.146236 -0.022960
v 0.189095 0.131597 -0.019484
v -0.406887 -0.039298 -0.019484
v -0.411085 -0.024660 -0.022960
v 0.189095 0.131597 -0.019484
v 0.192461 0.119858 -0.029223
v -0.403521 -0.051037 -0.029223
v -0.406887 -0.039298 -0.019484
v 0.192461 0.119858 -0.029223
v 0.192461 0.119858 -0.044842
v -0.403521 -0.051037 -0.044842
v -0.403521 -0.051037 -0.029223
v 0.192461 0.119858 -0.044842
v 0.189095 0.131597 -0.054581
v -0.406887 -0.039298 -0.054581
v -0.403521 -0.051037 -0.044842
v 0.189095 0.131597 -0.054581
v 0.184898 0.146236 -0.051106
v -0.411085 -0.024660 -0.051106
v -0.406887 -0.039298 -0.054581
v 0.184898 0.146236 -0.051106
v 0.183030 0.152750 -0.037033
v -0.412953 -0.018145 -0.037033
v -0.411085 -0.024660 -0.051106
v 0.187991 0.135448 -0.037033
v 0.184898 0.146236 -0.022960
v 0.183030 0.152750 -0.037033
v -0.407991 -0.035448 -0.037033
v -0.412953 -0.018145 -0.037033
v -0.411085 -0.024660 -0.022960
v 0.187991 0.135448 -0.037033
v 0.189095 0.131597 -0.019484
v 0.184898 0.146236 -0.022960
v -0.407991 -0.035448 -0.037033
v -0.411085 -0.024660 -0.022960
v -0.406887 -0.039298 -0.019484
v 0.187991 0.135448 -0.037033
v 0.192461 0.119858 -0.029223
v 0.189095 0.131597 -0.019484
v -0.407991 -0.035448 -0.037033
v -0.406887 -0.039298 -0.019484
v -0.403521 -0.051037 -0.029223
v 0.187991 0.135448 -0.037033
v 0.192461 0.119858 -0.044842
v 0.192461 0.119858 -0.029223
v -0.407991 -0.035448 -0.037033
v -0.403521 -0.051037 -0.029223
v -0.403521 -0.051037 -0.044842
v 0.187991 0.135448 -0.037033
v 0.189095 0.131597 -0.054581
v 0.192461 0.119858 -0.044842
v -0.407991 -0.035448 -0.037033
v -0.403521 -0.051037 -0.044842
v -0.406887 -0.039298 -0.054581
v 0.187991 0.135448 -0.037033
v 0.184898 0.146236 -0.051106
v 0.189095 0.131597 -0.054581
v -0.407991 -0.035448 -0.037033
v -0.406887 -0.039298 -0.054581
v -0.411085 -0.024660 -0.051106
v 0.187991 0.135448 -0.037033
v 0.183030 0.152750 -0.037033
v 0.184898 0.146236 -0.051106
v -0.407991 -0.035448 -0.037033
v -0.411085 -0.024660 -0.051106
v -0.412953 -0.018145 -0.037033
v -0.321543 0.077500 0.076871
v 0.185891 0.077500 -0.107819
v 0.185891 0.112500 -0.107819
v -0.321543 0.112500 0.076871
v 0.211543 0.077500 -0.037342
v -0.295891 0.077500 0.147348
v -0.295891 0.112500 0.147348
v 0.211543 0.112500 -0.037342
v -0.295891 0.077500 0.147348
v -0.321543 0.077500 0.076871
v -0.321543 0.112500 0.076871
v -0.295891 0.112500 0.147348
v 0.185891 0.077500 -0.107819
v 0.211543 0.077500 -0.037342
v 0.211543 0.112500 -0.037342
v 0.185891 0.112500 -0.107819
v -0.321543 0.112500 0.076871
v 0.185891 0.112500 -0.107819
v 0.211543 0.112500 -0.037342
v -0.295891 0.112500 0.147348
v -0.295891 0.077500 0.147348
v 0.211543 0.077500 -0.037342
v 0.185891 0.077500 -0.107819
v -0.321543 0.077500 0.076871
v 0.297461 0.050888 0.031939
v 0.295143 0.044520 0.046012
v -0.287466 0.256572 0.046012
v -0.285148 0.262941 0.031939
v 0.295143 0.044520 0.046012
v 0.289935 0.030210 0.049488
v -0.292675 0.242262 0.049488
v -0.287466 0.256572 0.046012
v 0.289935 0.030210 0.049488
v 0.285758 0.018734 0.039749
v -0.296851 0.230787 0.039749
v -0.292675 0.242262 0.049488
v 0.285758 0.018734 0.039749
v 0.285758 0.018734 0.024130
v -0.296851 0.230787 0.024130
v -0.296851 0.230787 0.039749
v 0.285758 0.018734 0.024130
v 0.289935 0.030210 0.014391
v -0.292675 0.242262 0.014391
v -0.296851 0.230787 0.024130
v 0.289935 0.030210 0.014391
v 0.295143 0.044520 0.017867
v -0.287466 0.256572 0.017867
v -0.292675 0.242262 0.014391
v 0.295143 0.044520 0.017867
v 0.297461 0.050888 0.031939
v -0.285148 0.262941 0.031939
v -0.287466 0.256572 0.017867
v 0.291305 0.033974 0.031939
v 0.295143 0.044520 0.046012
v 0.297461 0.050888 0.031939
v -0.291305 0.246026 0.031939
v -0.285148 0.262941 0.031939
v -0.287466 0.256572 0.046012
v 0.291305 0.033974 0.031939
v 0.289935 0.030210 0.049488
v 0.295143 0.044520 0.046012
v -0.291305 0.246026 0.031939
v -0.287466 0.256572 0.046012
v -0.292675 0.242262 0.049488
v 0.291305 0.033974 0.031939
v 0.285758 0.018734 0.039749
v 0.289935 0.030210 0.049488
v -0.291305 0.246026 0.031939
v -0.292675 0.242262 0.049488
v -0.296851 0.230787 0.039749
v 0.291305 0.033974 0.031939
v 0.285758 0.018734 0.024130
v 0.285758 0.018734 0.039749
v -0.291305 0.246026 0.031939
v -0.296851 0.230787 0.039749
v -0.296851 0.230787 0.024130
v 0.291305 0.033974 0.031939
v 0.289935 0.030210 0.014391
v 0.285758 0.018734 0.024130
v -0.291305 0.246026 0.031939
v -0.296851 0.230787 0.024130
v -0.292675 0.242262 0.014391
v 0.291305 0.033974 0.031939
v 0.295143 0.044520 0.017867
v 0.289935 0.030210 0.014391
v -0.291305 0.246026 0.031939
v -0.292675 0.242262 0.014391
v -0.287466 0.256572 0.017867
v 0.291305 0.033974 0.031939
v 0.297461 0.050888 0.031939
v 0.295143 0.044520 0.017867
v -0.291305 0.246026 0.031939
v -0.287466 0.256572 0.017867
v -0.285148 0.262941 0.031939
v -0.215850 0.070393 0.000938
v 0.303011 -0.002528 -0.129700
v 0.307882 0.032132 -0.129700
v -0.210979 0.105053 0.000938
v 0.320979 -0.005053 -0.056928
v -0.197882 0.067868 0.073710
v -0.193011 0.102528 0.073710
v 0.325850 0.029607 -0.056928
v -0.197882 0.067868 0.073710
v -0.215850 0.070393 0.000938
v -0.210979 0.105053 0.000938
v -0.193011 0.102528 0.073710
v 0.303011 -0.002528 -0.129700
v 0.320979 -0.005053 -0.056928
v 0.325850 0.029607 -0.056928
v 0.307882 0.032132 -0.129700
v -0.210979 0.105053 0.000938
v 0.307882 0.032132 -0.129700
v 0.325850 0.029607 -0.056928
v -0.193011 0.102528 0.073710
v -0.197882 0.067868 0.073710
v 0.320979 -0.005053 -0.056928
v 0.303011 -0.002528 -0.129700
v -0.215850 0.070393 0.000938
v 0.406437 0.187461 -0.024725
v 0.408077 0.180885 -0.010653
v -0.193507 0.030894 -0.010653
v -0.195146 0.037470 -0.024725
v 0.408077 0.180885 -0.010653
v 0.411761 0.166109 -0.007177
v -0.189823 0.016118 -0.007177
v -0.193507 0.030894 -0.010653
v 0.411761 0.166109 -0.007177
v 0.414715 0.154260 -0.016916
v -0.186868 0.004269 -0.016916
v -0.189823 0.016118 -0.007177
v 0.414715 0.154260 -0.016916
v 0.414715 0.154260 -0.032535
v -0.186868 0.004269 -0.032535
v -0.186868 0.004269 -0.016916
v 0.414715 0.154260 -0.032535
v 0.411761 0.166109 -0.042274
v -0.189823 0.016118 -0.042274
v -0.186868 0.004269 -0.032535
v 0.411761 0.166109 -0.042274
v 0.408077 0.180885 -0.038798
v -0.193507 0.030894 -0.038798
v -0.189823 0.016118 -0.042274
v 0.408077 0.180885 -0.038798
v 0.406437 0.187461 -0.024725
v -0.195146 0.037470 -0.024725
v -0.193507 0.030894 -0.038798
v 0.410792 0.169996 -0.024725
v 0.408077 0.180885 -0.010653
v 0.406437 0.187461 -0.024725
v -0.190792 0.020004 -0.024725
v -0.195146 0.037470 -0.024725
v -0.193507 0.030894 -0.010653
v 0.410792 0.169996 -0.024725
v 0.411761 0.166109 -0.007177
v 0.408077 0.180885 -0.010653
v -0.190792 0.020004 -0.024725
v -0.193507 0.030894 -0.010653
v -0.189823 0.016118 -0.007177
v 0.410792 0.169996 -0.024725
v 0.414715 0.154260 -0.016916
v 0.411761 0.166109 -0.007177
v -0.190792 0.020004 -0.024725
v -0.189823 0.016118 -0.007177
v -0.186868 0.004269 -0.016916
v 0.410792 0.169996 -0.024725
v 0.414715 0.154260 -0.032535
v 0.414715 0.154260 -0.016916
v -0.190792 0.020004 -0.024725
v -0.186868 0.004269 -0.016916
v -0.186868 0.004269 -0.032535
v 0.410792 0.169996 -0.024725
v 0.411761 0.166109 -0.042274
v 0.414715 0.154260 -0.032535
v -0.190792 0.020004 -0.024725
v -0.186868 0.004269 -0.032535
v -0.189823 0.016118 -0.042274
v 0.410792 0.169996 -0.024725
v 0.408077 0.180885 -0.038798
v 0.411761 0.166109 -0.042274
v -0.190792 0.020004 -0.024725
v -0.189823 0.016118 -0.042274
v -0.193507 0.030894 -0.038798
v 0.410792 0.169996 -0.024725
v 0.406437 0.187461 -0.024725
v 0.408077 0.180885 -0.038798
v -0.190792 0.020004 -0.024725
v -0.193507 0.030894 -0.038798
v -0.195146 0.037470 -0.024725
v -0.102503 0.084733 0.034808
v 0.427038 0.159155 -0.040345
v 0.422167 0.193814 -0.040345
v -0.107374 0.119392 0.034808
v 0.437374 0.160608 0.033925
v -0.092167 0.086186 0.109078
v -0.097038 0.120845 0.109078
v 0.432503 0.195267 0.033925
v -0.092167 0.086186 0.109078
v -0.102503 0.084733 0.034808
v -0.107374 0.119392 0.034808
v -0.097038 0.120845 0.109078
v 0.427038 0.159155 -0.040345
v 0.437374 0.160608 0.033925
v 0.432503 0.195267 0.033925
v 0.422167 0.193814 -0.040345
v -0.107374 0.119392 0.034808
v 0.422167 0.193814 -0.040345
v 0.432503 0.195267 0.033925
v -0.097038 0.120845 0.109078
v -0.092167 0.086186 0.109078
v 0.437374 0.160608 0.033925
v 0.427038 0.159155 -0.040345
v -0.102503 0.084733 0.034808
v 0.514170 -0.049439 0.015870
v 0.511631 -0.055722 0.029943
v -0.063223 0.176534 0.029943
v -0.060684 0.182817 0.015870
v 0.511631 -0.055722 0.029943
v 0.505927 -0.069842 0.033418
v -0.068927 0.162414 0.033418
v -0.063223 0.176534 0.029943
v 0.505927 -0.069842 0.033418
v 0.501352 -0.081165 0.023680
v -0.073502 0.151091 0.023680
v -0.068927 0.162414 0.033418
v 0.501352 -0.081165 0.023680
v 0.501352 -0.081165 0.008060
v -0.073502 0.151091 0.008060
v -0.073502 0.151091 0.023680
v 0.501352 -0.081165 0.008060
v 0.505927 -0.069842 -0.001679
v -0.068927 0.162414 -0.001679
v -0.073502 0.151091 0.008060
v 0.505927 -0.069842 -0.001679
v 0.511631 -0.055722 0.001797
v -0.063223 0.176534 0.001797
v -0.068927 0.162414 -0.001679
v 0.511631 -0.055722 0.001797
v 0.514170 -0.049439 0.015870
v -0.060684 0.182817 0.015870
v -0.063223 0.176534 0.001797
v 0.507427 -0.066128 0.015870
v 0.511631 -0.055722 0.029943
v 0.514170 -0.049439 0.015870
v -0.067427 0.166128 0.015870
v -0.060684 0.182817 0.015870
v -0.063223 0.176534 0.029943
v 0.507427 -0.066128 0.015870
v 0.505927 -0.069842 0.033418
v 0.511631 -0.055722 0.029943
v -0.067427 0.166128 0.015870
v -0.063223 0.176534 0.029943
v -0.068927 0.162414 0.033418
v 0.507427 -0.066128 0.015870
v 0.501352 -0.081165 0.023680
v 0.505927 -0.069842 0.033418
v -0.067427 0.166128 0.015870
v -0.068927 0.162414 0.033418
v -0.073502 0.151091 0.023680
v 0.507427 -0.066128 0.015870
v 0.501352 -0.081165 0.008060
v 0.501352 -0.081165 0.023680
v -0.067427 0.166128 0.015870
v -0.073502 0.151091 0.023680
v -0.073502 0.151091 0.008060
v 0.507427 -0.066128 0.015870
v 0.505927 -0.069842 -0.001679
v 0.501352 -0.081165 0.008060
v -0.067427 0.166128 0.015870
v -0.073502 0.151091 0.008060
v -0.068927 0.162414 -0.001679
v 0.507427 -0.066128 0.015870
v 0.511631 -0.055722 0.001797
v 0.505927 -0.069842 -0.001679
v -0.067427 0.166128 0.015870
v -0.068927 0.162414 -0.001679
v -0.063223 0.176534 0.001797
v 0.507427 -0.066128 0.015870
v 0.514170 -0.049439 0.015870
v 0.511631 -0.055722 0.001797
v -0.067427 0.166128 0.015870
v -0.063223 0.176534 0.001797
v -0.060684 0.182817 0.015870
v 0.194000 0.110000 0.000000
v 0.174788 0.025827 0.000000
v 0.166072 0.030024 0.013315
v 0.184326 0.110000 0.013315
v 0.184326 0.110000 0.013315
v 0.166072 0.030024 0.013315
v 0.151970 0.036815 0.008229
v 0.168674 0.110000 0.008229
v 0.168674 0.110000 0.008229
v 0.151970 0.036815 0.008229
v 0.151970 0.036815 -0.008229
v 0.168674 0.110000 -0.008229
v 0.168674 0.110000 -0.008229
v 0.151970 0.036815 -0.008229
v 0.166072 0.030024 -0.013315
v 0.184326 0.110000 -0.013315
v 0.184326 0.110000 -0.013315
v 0.166072 0.030024 -0.013315
v 0.174788 0.025827 0.000000
v 0.194000 0.110000 0.000000
v 0.174788 0.025827 0.000000
v 0.120957 -0.041675 0.000000
v 0.114926 -0.034112 0.013315
v 0.166072 0.030024 0.013315
v 0.166072 0.030024 0.013315
v 0.114926 -0.034112 0.013315
v 0.105166 -0.021874 0.008229
v 0.151970 0.036815 0.008229
v 0.151970 0.036815 0.008229
v 0.105166 -0.021874 0.008229
v 0.105166 -0.021874 -0.008229
v 0.151970 0.036815 -0.008229
v 0.151970 0.036815 -0.008229
v 0.105166 -0.021874 -0.008229
v 0.114926 -0.034112 -0.013315
v 0.166072 0.030024 -0.013315
v 0.166072 0.030024 -0.013315
v 0.114926 -0.034112 -0.013315
v 0.120957 -0.041675 0.000000
v 0.174788 0.025827 0.000000
v 0.120957 -0.041675 0.000000
v 0.043169 -0.079136 0.000000
v 0.041016 -0.069705 0.013315
v 0.114926 -0.034112 0.013315
v 0.114926 -0.034112 0.013315
v 0.041016 -0.069705 0.013315
v 0.037533 -0.054445 0.008229
v 0.105166 -0.021874 0.008229
v 0.105166 -0.021874 0.008229
v 0.037533 -0.054445 0.008229
v 0.037533 -0.054445 -0.008229
v 0.105166 -0.021874 -0.008229
v 0.105166 -0.021874 -0.008229
v 0.037533 -0.054445 -0.008229
v 0.041016 -0.069705 -0.013315
v 0.114926 -0.034112 -0.013315
v 0.114926 -0.034112 -0.013315
v 0.041016 -0.069705 -0.013315
v 0.043169 -0.079136 0.000000
v 0.120957 -0.041675 0.000000
v 0.043169 -0.079136 0.000000
v -0.043169 -0.079136 0.000000
v -0.041016 -0.069705 0.013315
v 0.041016 -0.069705 0.013315
v 0.041016 -0.069705 0.013315
v -0.041016 -0.069705 0.013315
v -0.037533 -0.054445 0.008229
v 0.037533 -0.054445 0.008229
v 0.037533 -0.054445 0.008229
v -0.037533 -0.054445 0.008229
v -0.037533 -0.054445 -0.008229
v 0.037533 -0.054445 -0.008229
v 0.037533 -0.054445 -0.008229
v -0.037533 -0.054445 -0.008229
v -0.041016 -0.069705 -0.013315
v 0.041016 -0.069705 -0.013315
v 0.041016 -0.069705 -0.013315
v -0.041016 -0.069705 -0.013315
v -0.043169 -0.079136 0.000000
v 0.043169 -0.079136 0.000000
v -0.043169 -0.079136 0.000000
v -0.120957 -0.041675 0.000000
v -0.114926 -0.034112 0.013315
v -0.041016 -0.069705 0.013315
v -0.041016 -0.069705 0.013315
v -0.114926 -0.034112 0.013315
v -0.105166 -0.021874 0.008229
v -0.037533 -0.054445 0.008229
v -0.037533 -0.054445 0.008229
v -0.105166 -0.021874 0.008229
v -0.105166 -0.021874 -0.008229
v -0.037533 -0.054445 -0.008229
v -0.037533 -0.054445 -0.008229
v -0.105166 -0.021874 -0.008229
v -0.114926 -0.034112 -0.013315
v -0.041016 -0.069705 -0.013315
v -0.041016 -0.069705 -0.013315
v -0.114926 -0.034112 -0.013315
v -0.120957 -0.041675 0.000000
v -0.043169 -0.079136 0.000000
v -0.120957 -0.041675 0.000000
v -0.174788 0.025827 0.000000
v -0.166072 0.030024 0.013315
v -0.114926 -0.034112 0.013315
v -0.114926 -0.034112 0.013315
v -0.166072 0.030024 0.013315
v -0.151970 0.036815 0.008229
v -0.105166 -0.021874 0.008229
v -0.105166 -0.021874 0.008229
v -0.151970 0.036815 0.008229
v -0.151970 0.036815 -0.008229
v -0.105166 -0.021874 -0.008229
v -0.105166 -0.021874 -0.008229
v -0.151970 0.036815 -0.008229
v -0.166072 0.030024 -0.013315
v -0.114926 -0.034112 -0.013315
v -0.114926 -0.034112 -0.013315
v -0.166072 0.030024 -0.013315
v -0.174788 0.025827 0.000000
v -0.120957 -0.041675 0.000000
v -0.174788 0.025827 0.000000
v -0.194000 0.110000 0.000000
v -0.184326 0.110000 0.013315
v -0.166072 0.030024 0.013315
v -0.166072 0.030024 0.013315
v -0.184326 0.110000 0.013315
v -0.168674 0.110000 0.008229
v -0.151970 0.036815 0.008229
v -0.151970 0.036815 0.008229
v -0.168674 0.110000 0.008229
v -0.168674 0.110000 -0.008229
v -0.151970 0.036815 -0.008229
v -0.151970 0.036815 -0.008229
v -0.168674 0.110000 -0.008229
v -0.184326 0.110000 -0.013315
v -0.166072 0.030024 -0.013315
v -0.166072 0.030024 -0.013315
v -0.184326 0.110000 -0.013315
v -0.194000 0.110000 0.000000
v -0.174788 0.025827 0.000000
v -0.194000 0.110000 0.000000
v -0.174788 0.194173 -0.000000
v -0.166072 0.189976 0.013315
v -0.184326 0.110000 0.013315
v -0.184326 0.110000 0.013315
v -0.166072 0.189976 0.013315
v -0.151970 0.183185 0.008229
v -0.168674 0.110000 0.008229
v -0.168674 0.110000 0.008229
v -0.151970 0.183185 0.008229
v -0.151970 0.183185 -0.008229
v -0.168674 0.110000 -0.008229
v -0.168674 0.110000 -0.008229
v -0.151970 0.183185 -0.008229
v -0.166072 0.189976 -0.013315
v -0.184326 0.110000 -0.013315
v -0.184326 0.110000 -0.013315
v -0.166072 0.189976 -0.013315
v -0.174788 0.194173 -0.000000
v -0.194000 0.110000 0.000000
v -0.174788 0.194173 -0.000000
v -0.120957 0.261675 -0.000000
v -0.114926 0.254112 0.013315
v -0.166072 0.189976 0.013315
v -0.166072 0.189976 0.013315
v -0.114926 0.254112 0.013315
v -0.105166 0.241874 0.008229
v -0.151970 0.183185 0.008229
v -0.151970 0.183185 0.008229
v -0.105166 0.241874 0.008229
v -0.105166 0.241874 -0.008229
v -0.151970 0.183185 -0.008229
v -0.151970 0.183185 -0.008229
v -0.105166 0.241874 -0.008229
v -0.114926 0.254112 -0.013315
v -0.166072 0.189976 -0.013315
v -0.166072 0.189976 -0.013315
v -0.114926 0.254112 -0.013315
v -0.120957 0.261675 -0.000000
v -0.174788 0.194173 -0.000000
v -0.120957 0.261675 -0.000000
v -0.043169 0.299136 -0.000000
v -0.041016 0.289705 0.013315
v -0.114926 0.254112 0.013315
v -0.114926 0.254112 0.013315
v -0.041016 0.289705 0.013315
v -0.037533 0.274445 0.008229
v -0.105166 0.241874 0.008229
v -0.105166 0.241874 0.008229
v -0.037533 0.274445 0.008229
v -0.037533 0.274445 -0.008229
v -0.105166 0.241874 -0.008229
v -0.105166 0.241874 -0.008229
v -0.037533 0.274445 -0.008229
v -0.041016 0.289705 -0.013315
v -0.114926 0.254112 -0.013315
v -0.114926 0.254112 -0.013315
v -0.041016 0.289705 -0.013315
v -0.043169 0.299136 -0.000000
v -0.120957 0.261675 -0.000000
v -0.043169 0.299136 -0.000000
v 0.043169 0.299136 -0.000000
v 0.041016 0.289705 0.013315
v -0.041016 0.289705 0.013315
v -0.041016 0.289705 0.013315
v 0.041016 0.289705 0.013315
v 0.037533 0.274445 0.008229
v -0.037533 0.274445 0.008229
v -0.037533 0.274445 0.008229
v 0.037533 0.274445 0.008229
v 0.037533 0.274445 -0.008229
v -0.037533 0.274445 -0.008229
v -0.037533 0.274445 -0.008229
v 0.037533 0.274445 -0.008229
v 0.041016 0.289705 -0.013315
v -0.041016 0.289705 -0.013315
v -0.041016 0.289705 -0.013315
v 0.041016 0.289705 -0.013315
v 0.043169 0.299136 -0.000000
v -0.043169 0.299136 -0.000000
v 0.043169 0.299136 -0.000000
v 0.120957 0.261675 -0.000000
v 0.114926 0.254112 0.013315
v 0.041016 0.289705 0.013315
v 0.041016 0.289705 0.013315
v 0.114926 0.254112 0.013315
v 0.105166 0.241874 0.008229
v 0.037533 0.274445 0.008229
v 0.037533 0.274445 0.008229
v 0.105166 0.241874 0.008229
v 0.105166 0.241874 -0.008229
v 0.037533 0.274445 -0.008229
v 0.037533 0.274445 -0.008229
v 0.105166 0.241874 -0.008229
v 0.114926 0.254112 -0.013315
v 0.041016 0.289705 -0.013315
v 0.041016 0.289705 -0.013315
v 0.114926 0.254112 -0.013315
v 0.120957 0.261675 -0.000000
v 0.043169 0.299136 -0.000000
v 0.120957 0.261675 -0.000000
v 0.174788 0.194173 -0.000000
v 0.166072 0.189976 0.013315
v 0.114926 0.254112 0.013315
v 0.114926 0.254112 0.013315
v 0.166072 0.189976 0.013315
v 0.151970 0.183185 0.008229
v 0.105166 0.241874 0.008229
v 0.105166 0.241874 0.008229
v 0.151970 0.183185 0.008229
v 0.151970 0.183185 -0.008229
v 0.105166 0.241874 -0.008229
v 0.105166 0.241874 -0.008229
v 0.151970 0.183185 -0.008229
v 0.166072 0.189976 -0.013315
v 0.114926 0.254112 -0.013315
v 0.114926 0.254112 -0.013315
v 0.166072 0.189976 -0.013315
v 0.174788 0.194173 -0.000000
v 0.120957 0.261675 -0.000000
v 0.174788 0.194173 -0.000000
v 0.194000 0.110000 0.000000
v 0.184326 0.110000 0.013315
v 0.166072 0.189976 0.013315
v 0.166072 0.189976 0.013315
v 0.184326 0.110000 0.013315
v 0.168674 0.110000 0.008229
v 0.151970 0.183185 0.008229
v 0.151970 0.183185 0.008229
v 0.168674 0.110000 0.008229
v 0.168674 0.110000 -0.008229
v 0.151970 0.183185 -0.008229
v 0.151970 0.183185 -0.008229
v 0.168674 0.110000 -0.008229
v 0.184326 0.110000 -0.013315
v 0.166072 0.189976 -0.013315
v 0.166072 0.189976 -0.013315
v 0.184326 0.110000 -0.013315
v 0.194000 0.110000 0.000000
v 0.174788 0.194173 -0.000000
vt 0.000000 0.000000
vt 1.000000 0.000000
vt 1.000000 1.000000
vt 0.000000 1.000000
vt 0.000000 0.000000
vt 1.000000 0.000000
vt 1.000000 1.000000
vt 0.000000 1.000000
vt 0.000000 0.000000
vt 1.000000 0.000000
vt 1.000000 1.000000
vt 0.000000 1.000000
vt 0.000000 0.000000
vt 1.000000 0.000000
vt 1.000000 1.000000
vt 0.000000 1.000000
vt 0.000000 0.000000
vt 1.000000 0.000000
vt 1.000000 1.000000
vt 0.000000 1.000000
vt 0.000000 0.000000
vt 1.000000 0.000000
vt 1.000000 1.000000
vt 0.000000 1.000000
vt 0.000000 0.000000
vt 1.000000 0.000000
vt 1.000000 1.000000
vt 0.000000 1.000000
vt 0.000000 0.000000
vt 1.000000 0.000000
vt 1.000000 1.000000
vt 0.000000 1.000000
vt 0.000000 0.000000
vt 1.000000 0.000000
vt 1.000000 1.000000
vt 0.000000 1.000000
vt 0.000000 0.000000
vt 1.000000 0.000000
vt 1.000000 1.000000
vt 0.000000 1.000000
vt 0.000000 0.000000
vt 1.000000 0.000000
vt 1.000000 1.000000
vt 0.000000 1.000000
vt 0.000000 0.000000
vt 1.000000 0.000000
vt 1.000000 1.000000
vt 0.000000 1.000000
vt 0.000000 0.000000
vt 1.000000 0.000000
vt 1.000000 1.000000
vt 0.000000 1.000000
vt 0.500000 0.500000
vt 0.000000 0.000000
vt 1.000000 0.000000
vt 0.500000 0.500000
vt 0.000000 1.000000
vt 1.000000 1.000000
vt 0.500000 0.500000
vt 0.000000 0.000000
vt 1.000000 0.000000
vt 0.500000 0.500000
vt 0.000000 1.000000
vt 1.000000 1.000000
vt 0.500000 0.500000
vt 0.000000 0.000000
vt 1.000000 0.000000
vt 0.500000 0.500000
vt 0.000000 1.000000
vt 1.000000 1.000000
vt 0.500000 0.500000
vt 0.000000 0.000000
vt 1.000000 0.000000
vt 0.500000 0.500000
vt 0.000000 1.000000
vt 1.000000 1.000000
vt 0.500000 0.500000
vt 0.000000 0.000000
vt 1.000000 0.000000
vt 0.500000 0.500000
vt 0.000000 1.000000
vt 1.000000 1.000000
vt 0.500000 0.500000
vt 0.000000 0.000000
vt 1.000000 0.000000
vt 0.500000 0.500000
vt 0.000000 1.000000
vt 1.000000 1.000000
vt 0.500000 0.500000
vt 0.000000 0.000000
vt 1.000000 0.000000
vt 0.500000 0.500000
vt 0.000000 1.000000
vt 1.000000 1.000000
vt 0.000000 0.000000
vt 1.000000 0.000000
vt 1.000000 1.000000
vt 0.000000 1.000000
vt 0.000000 0.000000
vt 1.000000 0.000000
vt 1.000000 1.000000
vt 0.000000 1.000000
vt 0.000000 0.000000
vt 1.000000 0.000000
vt 1.000000 1.000000
vt 0.000000 1.000000
vt 0.000000 0.000000
vt 1.000000 0.000000
vt 1.000000 1.000000
vt 0.000000 1.000000
vt 0.000000 0.000000
vt 1.000000 0.000000
vt 1.000000 1.000000
vt 0.000000 1.000000
vt 0.000000 0.000000
vt 1.000000 0.000000
vt 1.000000 1.000000
vt 0.000000 1.000000
vt 0.000000 0.000000
vt 1.000000 0.000000
vt 1.000000 1.000000
vt 0.000000 1.000000
vt 0.000000 0.000000
vt 1.000000 0.000000
vt 1.000000 1.000000
vt 0.000000 1.000000
vt 0.000000 0.000000
vt 1.000000 0.000000
vt 1.000000 1.000000
vt 0.000000 1.000000
vt 0.000000 0.000000
vt 1.000000 0.000000
vt 1.000000 1.000000
vt 0.000000 1.000000
vt 0.000000 0.000000
vt 1.000000 0.000000
vt 1.000000 1.000000
vt 0.000000 1.000000
vt 0.000000 0.000000
vt 1.000000 0.000000
vt 1.000000 1.000000
vt 0.000000 1.000000
vt 0.000000 0.000000
vt 1.000000 0.000000
vt 1.000000 1.000000
vt 0.000000 1.000000
vt 0.500000 0.500000
vt 0.000000 0.000000
vt 1.000000 0.000000
vt 0.500000 0.500000
vt 0.000000 1.000000
vt 1.000000 1.000000
vt 0.500000 0.500000
vt 0.000000 0.000000
vt 1.000000 0.000000
vt 0.500000 0.500000
vt 0.000000 1.000000
vt 1.000000 1.000000
vt 0.500000 0.500000
vt 0.000000 0.000000
vt 1.000000 0.000000
vt 0.500000 0.500000
vt 0.000000 1.000000
vt 1.000000 1.000000
vt 0.500000 0.500000
vt 0.000000 0.000000
vt 1.000000 0.000000
vt 0.500000 0.500000
vt 0.000000 1.000000
vt 1.000000 1.000000
vt 0.500000 0.500000
vt 0.000000 0.000000
vt 1.000000 0.000000
vt 0.500000 0.500000
vt 0.000000 1.000000
vt 1.000000 1.000000
vt 0.500000 0.500000
vt 0.000000 0.000000
vt 1.000000 0.000000
vt 0.500000 0.500000
vt 0.000000 1.000000
vt 1.000000 1.000000
vt 0.500000 0.500000
vt 0.000000 0.000000
vt 1.000000 0.000000
vt 0.500000 0.500000
vt 0.000000 1.000000
vt 1.000000 1.000000
vt 0.000000 0.000000
vt 1.000000 0.000000
vt 1.000000 1.000000
vt 0.000000 1.000000
vt 0.000000 0.000000
vt 1.000000 0.000000
vt 1.000000 1.000000
vt 0.000000 1.000000
vt 0.000000 0.000000
vt 1.000000 0.000000
vt 1.000000 1.000000
vt 0.000000 1.000000
vt 0.000000 0.000000
vt 1.000000 0.000000
vt 1.000000 1.000000
vt 0.000000 1.000000
vt 0.000000 0.000000
vt 1.000000 0.000000
vt 1.000000 1.000000
vt 0.000000 1.000000
vt 0.000000 0.000000
vt 1.000000 0.000000
vt 1.000000 1.000000
vt 0.000000 1.000000
vt 0.000000 0.000000
vt 1.000000 0.000000
vt 1.000000 1.000000
vt 0.000000 1.000000
vt 0.000000 0.000000
vt 1.000000 0.000000
vt 1.000000 1.000000
vt 0.000000 1.000000
vt 0.000000 0.000000
vt 1.000000 0.000000
vt 1.000000 1.000000
vt 0.000000 1.000000
vt 0.000000 0.000000
vt 1.000000 0.000000
vt 1.000000 1.000000
vt 0.000000 1.000000
vt 0.000000 0.000000
vt 1.000000 0.000000
vt 1.000000 1.000000
vt 0.000000 1.000000
vt 0.000000 0.000000
vt 1.000000 0.000000
vt 1.000000 1.000000
vt 0.000000 1.000000
vt 0.000000 0.000000
vt 1.000000 0.000000
vt 1.000000 1.000000
vt 0.000000 1.000000
vt 0.500000 0.500000
vt 0.000000 0.000000
vt 1.000000 0.000000
vt 0.500000 0.500000
vt 0.000000 1.000000
vt 1.000000 1.000000
vt 0.500000 0.500000
vt 0.000000 0.000000
vt 1.000000 0.000000
vt 0.500000 0.500000
vt 0.000000 1.000000
vt 1.000000 1.000000
vt 0.500000 0.500000
vt 0.000000 0.000000
vt 1.000000 0.000000
vt 0.500000 0.500000
vt 0.000000 1.000000
vt 1.000000 1.000000
vt 0.500000 0.500000
vt 0.000000 0.000000
vt 1.000000 0.000000
vt 0.500000 0.500000
vt 0.000000 1.000000
vt 1.000000 1.000000
vt 0.500000 0.500000
vt 0.000000 0.000000
vt 1.000000 0.000000
vt 0.500000 0.500000
vt 0.000000 1.000000
vt 1.000000 1.000000
vt 0.500000 0.500000
vt 0.000000 0.000000
vt 1.000000 0.000000
vt 0.500000 0.500000
vt 0.000000 1.000000
vt 1.000000 1.000000
vt 0.500000 0.500000
vt 0.000000 0.000000
vt 1.000000 0.000000
vt 0.500000 0.500000
vt 0.000000 1.000000
vt 1.000000 1.000000
vt 0.000000 0.000000
vt 1.000000 0.000000
vt 1.000000 1.000000
vt 0.000000 1.000000
vt 0.000000 0.000000
vt 1.000000 0.000000
vt 1.000000 1.000000
vt 0.000000 1.000000
vt 0.000000 0.000000
vt 1.000000 0.000000
vt 1.000000 1.000000
vt 0.000000 1.000000
vt 0.000000 0.000000
vt 1.000000 0.000000
vt 1.000000 1.000000
vt 0.000000 1.000000
vt 0.000000 0.000000
vt 1.000000 0.000000
vt 1.000000 1.000000
vt 0.000000 1.000000
vt 0.000000 0.000000
vt 1.000000 0.000000
vt 1.000000 1.000000
vt 0.000000 1.000000
vt 0.000000 0.000000
vt 1.000000 0.000000
vt 1.000000 1.000000
vt 0.000000 1.000000
vt 0.000000 0.000000
vt 1.000000 0.000000
vt 1.000000 1.000000
vt 0.000000 1.000000
vt 0.000000 0.000000
vt 1.000000 0.000000
vt 1.000000 1.000000
vt 0.000000 1.000000
vt 0.000000 0.000000
vt 1.000000 0.000000
vt 1.000000 1.000000
vt 0.000000 1.000000
vt 0.000000 0.000000
vt 1.000000 0.000000
vt 1.000000 1.000000
vt 0.000000 1.000000
vt 0.000000 0.000000
vt 1.000000 0.000000
vt 1.000000 1.000000
vt 0.000000 1.000000
vt 0.000000 0.000000
vt 1.000000 0.000000
vt 1.000000 1.000000
vt 0.000000 1.000000
vt 0.500000 0.500000
vt 0.000000 0.000000
vt 1.000000 0.000000
vt 0.500000 0.500000
vt 0.000000 1.000000
vt 1.000000 1.000000
vt 0.500000 0.500000
vt 0.000000 0.000000
vt 1.000000 0.000000
vt 0.500000 0.500000
vt 0.000000 1.000000
vt 1.000000 1.000000
vt 0.500000 0.500000
vt 0.000000 0.000000
vt 1.000000 0.000000
vt 0.500000 0.500000
vt 0.000000 1.000000
vt 1.000000 1.000000
vt 0.500000 0.500000
vt 0.000000 0.000000
vt 1.000000 0.000000
vt 0.500000 0.500000
vt 0.000000 1.000000
vt 1.000000 1.000000
vt 0.500000 0.500000
vt 0.000000 0.000000
vt 1.000000 0.000000
vt 0.500000 0.500000
vt 0.000000 1.000000
vt 1.000000 1.000000
vt 0.500000 0.500000
vt 0.000000 0.000000
vt 1.000000 0.000000
vt 0.500000 0.500000
vt 0.000000 1.000000
vt 1.000000 1.000000
vt 0.500000 0.500000
vt 0.000000 0.000000
vt 1.000000 0.000000
vt 0.500000 0.500000
vt 0.000000 1.000000
vt 1.000000 1.000000
vt 0.000000 0.000000
vt 1.000000 0.000000
vt 1.000000 1.000000
vt 0.000000 1.000000
vt 0.000000 0.000000
vt 1.000000 0.000000
vt 1.000000 1.000000
vt 0.000000 1.000000
vt 0.000000 0.000000
vt 1.000000 0.000000
vt 1.000000 1.000000
vt 0.000000 1.000000
vt 0.000000 0.000000
vt 1.000000 0.000000
vt 1.000000 1.000000
vt 0.000000 1.000000
vt 0.000000 0.000000
vt 1.000000 0.000000
vt 1.000000 1.000000
vt 0.000000 1.000000
vt 0.000000 0.000000
vt 1.000000 0.000000
vt 1.000000 1.000000
vt 0.000000 1.000000
vt 0.000000 0.000000
vt 1.000000 0.000000
vt 1.000000 1.000000
vt 0.000000 1.000000
vt 0.000000 0.000000
vt 1.000000 0.000000
vt 1.000000 1.000000
vt 0.000000 1.000000
vt 0.000000 0.000000
vt 1.000000 0.000000
vt 1.000000 1.000000
vt 0.000000 1.000000
vt 0.000000 0.000000
vt 1.000000 0.000000
vt 1.000000 1.000000
vt 0.000000 1.000000
vt 0.000000 0.000000
vt 1.000000 0.000000
vt 1.000000 1.000000
vt 0.000000 1.000000
vt 0.000000 0.000000
vt 1.000000 0.000000
vt 1.000000 1.000000
vt 0.000000 1.000000
vt 0.000000 0.000000
vt 1.000000 0.000000
vt 1.000000 1.000000
vt 0.000000 1.000000
vt 0.500000 0.500000
vt 0.000000 0.000000
vt 1.000000 0.000000
vt 0.500000 0.500000
vt 0.000000 1.000000
vt 1.000000 1.000000
vt 0.500000 0.500000
vt 0.000000 0.000000
vt 1.000000 0.000000
vt 0.500000 0.500000
vt 0.000000 1.000000
vt 1.000000 1.000000
vt 0.500000 0.500000
vt 0.000000 0.000000
vt 1.000000 0.000000
vt 0.500000 0.500000
vt 0.000000 1.000000
vt 1.000000 1.000000
vt 0.500000 0.500000
vt 0.000000 0.000000
vt 1.000000 0.000000
vt 0.500000 0.500000
vt 0.000000 1.000000
vt 1.000000 1.000000
vt 0.500000 0.500000
vt 0.000000 0.000000
vt 1.000000 0.000000
vt 0.500000 0.500000
vt 0.000000 1.000000
vt 1.000000 1.000000
vt 0.500000 0.500000
vt 0.000000 0.000000
vt 1.000000 0.000000
vt 0.500000 0.500000
vt 0.000000 1.000000
vt 1.000000 1.000000
vt 0.500000 0.500000
vt 0.000000 0.000000
vt 1.000000 0.000000
vt 0.500000 0.500000
vt 0.000000 1.000000
vt 1.000000 1.000000
vt 0.000000 0.000000
vt 1.000000 0.000000
vt 1.000000 1.000000
vt 0.000000 1.000000
vt 0.000000 0.000000
vt 1.000000 0.000000
vt 1.000000 1.000000
vt 0.000000 1.000000
vt 0.000000 0.000000
vt 1.000000 0.000000
vt 1.000000 1.000000
vt 0.000000 1.000000
vt 0.000000 0.000000
vt 1.000000 0.000000
vt 1.000000 1.000000
vt 0.000000 1.000000
vt 0.000000 0.000000
vt 1.000000 0.000000
vt 1.000000 1.000000
vt 0.000000 1.000000
vt 0.000000 0.000000
vt 1.000000 0.000000
vt 1.000000 1.000000
vt 0.000000 1.000000
vt 0.000000 0.000000
vt 1.000000 0.000000
vt 1.000000 1.000000
vt 0.000000 1.000000
vt 0.000000 0.000000
vt 1.000000 0.000000
vt 1.000000 1.000000
vt 0.000000 1.000000
vt 0.000000 0.000000
vt 1.000000 0.000000
vt 1.000000 1.000000
vt 0.000000 1.000000
vt 0.000000 0.000000
vt 1.000000 0.000000
vt 1.000000 1.000000
vt 0.000000 1.000000
vt 0.000000 0.000000
vt 1.000000 0.000000
vt 1.000000 1.000000
vt 0.000000 1.000000
vt 0.000000 0.000000
vt 1.000000 0.000000
vt 1.000000 1.000000
vt 0.000000 1.000000
vt 0.000000 0.000000
vt 1.000000 0.000000
vt 1.000000 1.000000
vt 0.000000 1.000000
vt 0.000000 0.000000
vt 1.000000 0.000000
vt 1.000000 1.000000
vt 0.000000 1.000000
vt 0.000000 0.000000
vt 1.000000 0.000000
vt 1.000000 1.000000
vt 0.000000 1.000000
vt 0.000000 0.000000
vt 1.000000 0.000000
vt 1.000000 1.000000
vt 0.000000 1.000000
vt 0.000000 0.000000
vt 1.000000 0.000000
vt 1.000000 1.000000
vt 0.000000 1.000000
vt 0.000000 0.000000
vt 1.000000 0.000000
vt 1.000000 1.000000
vt 0.000000 1.000000
vt 0.000000 0.000000
vt 1.000000 0.000000
vt 1.000000 1.000000
vt 0.000000 1.000000
vt 0.000000 0.000000
vt 1.000000 0.000000
vt 1.000000 1.000000
vt 0.000000 1.000000
vt 0.000000 0.000000
vt 1.000000 0.000000
vt 1.000000 1.000000
vt 0.000000 1.000000
vt 0.000000 0.000000
vt 1.000000 0.000000
vt 1.000000 1.000000
vt 0.000000 1.000000
vt 0.000000 0.000000
vt 1.000000 0.000000
vt 1.000000 1.000000
vt 0.000000 1.000000
vt 0.000000 0.000000
vt 1.000000 0.000000
vt 1.000000 1.000000
vt 0.000000 1.000000
vt 0.000000 0.000000
vt 1.000000 0.000000
vt 1.000000 1.000000
vt 0.000000 1.000000
vt 0.000000 0.000000
vt 1.000000 0.000000
vt 1.000000 1.000000
vt 0.000000 1.000000
vt 0.000000 0.000000
vt 1.000000 0.000000
vt 1.000000 1.000000
vt 0.000000 1.000000
vt 0.000000 0.000000
vt 1.000000 0.000000
vt 1.000000 1.000000
vt 0.000000 1.000000
vt 0.000000 0.000000
vt 1.000000 0.000000
vt 1.000000 1.000000
vt 0.000000 1.000000
vt 0.000000 0.000000
vt 1.000000 0.000000
vt 1.000000 1.000000
vt 0.000000 1.000000
vt 0.000000 0.000000
vt 1.000000 0.000000
vt 1.000000 1.000000
vt 0.000000 1.000000
vt 0.000000 0.000000
vt 1.000000 0.000000
vt 1.000000 1.000000
vt 0.000000 1.000000
vt 0.000000 0.000000
vt 1.000000 0.000000
vt 1.000000 1.000000
vt 0.000000 1.000000
vt 0.000000 0.000000
vt 1.000000 0.000000
vt 1.000000 1.000000
vt 0.000000 1.000000
vt 0.000000 0.000000
vt 1.000000 0.000000
vt 1.000000 1.000000
vt 0.000000 1.000000
vt 0.000000 0.000000
vt 1.000000 0.000000
vt 1.000000 1.000000
vt 0.000000 1.000000
vt 0.000000 0.000000
vt 1.000000 0.000000
vt 1.000000 1.000000
vt 0.000000 1.000000
vt 0.000000 0.000000
vt 1.000000 0.000000
vt 1.000000 1.000000
vt 0.000000 1.000000
vt 0.000000 0.000000
vt 1.000000 0.000000
vt 1.000000 1.000000
vt 0.000000 1.000000
vt 0.000000 0.000000
vt 1.000000 0.000000
vt 1.000000 1.000000
vt 0.000000 1.000000
vt 0.000000 0.000000
vt 1.000000 0.000000
vt 1.000000 1.000000
vt 0.000000 1.000000
vt 0.000000 0.000000
vt 1.000000 0.000000
vt 1.000000 1.000000
vt 0.000000 1.000000
vt 0.000000 0.000000
vt 1.000000 0.000000
vt 1.000000 1.000000
vt 0.000000 1.000000
vt 0.000000 0.000000
vt 1.000000 0.000000
vt 1.000000 1.000000
vt 0.000000 1.000000
vt 0.000000 0.000000
vt 1.000000 0.000000
vt 1.000000 1.000000
vt 0.000000 1.000000
vt 0.000000 0.000000
vt 1.000000 0.000000
vt 1.000000 1.000000
vt 0.000000 1.000000
vt 0.000000 0.000000
vt 1.000000 0.000000
vt 1.000000 1.000000
vt 0.000000 1.000000
vt 0.000000 0.000000
vt 1.000000 0.000000
vt 1.000000 1.000000
vt 0.000000 1.000000
vt 0.000000 0.000000
vt 1.000000 0.000000
vt 1.000000 1.000000
vt 0.000000 1.000000
vt 0.000000 0.000000
vt 1.000000 0.000000
vt 1.000000 1.000000
vt 0.000000 1.000000
vt 0.000000 0.000000
vt 1.000000 0.000000
vt 1.000000 1.000000
vt 0.000000 1.000000
vt 0.000000 0.000000
vt 1.000000 0.000000
vt 1.000000 1.000000
vt 0.000000 1.000000
vt 0.000000 0.000000
vt 1.000000 0.000000
vt 1.000000 1.000000
vt 0.000000 1.000000
vt 0.000000 0.000000
vt 1.000000 0.000000
vt 1.000000 1.000000
vt 0.000000 1.000000
vt 0.000000 0.000000
vt 1.000000 0.000000
vt 1.000000 1.000000
vt 0.000000 1.000000
vt 0.000000 0.000000
vt 1.000000 0.000000
vt 1.000000 1.000000
vt 0.000000 1.000000
vt 0.000000 0.000000
vt 1.000000 0.000000
vt 1.000000 1.000000
vt 0.000000 1.000000
vt 0.000000 0.000000
vt 1.000000 0.000000
vt 1.000000 1.000000
vt 0.000000 1.000000
vt 0.000000 0.000000
vt 1.000000 0.000000
vt 1.000000 1.000000
vt 0.000000 1.000000
vt 0.000000 0.000000
vt 1.000000 0.000000
vt 1.000000 1.000000
vt 0.000000 1.000000
vt 0.000000 0.000000
vt 1.000000 0.000000
vt 1.000000 1.000000
vt 0.000000 1.000000
vt 0.000000 0.000000
vt 1.000000 0.000000
vt 1.000000 1.000000
vt 0.000000 1.000000
vt 0.000000 0.000000
vt 1.000000 0.000000
vt 1.000000 1.000000
vt 0.000000 1.000000
vt 0.000000 0.000000
vt 1.000000 0.000000
vt 1.000000 1.000000
vt 0.000000 1.000000
vt 0.000000 0.000000
vt 1.000000 0.000000
vt 1.000000 1.000000
vt 0.000000 1.000000
vt 0.000000 0.000000
vt 1.000000 0.000000
vt 1.000000 1.000000
vt 0.000000 1.000000
vt 0.000000 0.000000
vt 1.000000 0.000000
vt 1.000000 1.000000
vt 0.000000 1.000000
vt 0.000000 0.000000
vt 1.000000 0.000000
vt 1.000000 1.000000
vt 0.000000 1.000000
vt 0.000000 0.000000
vt 1.000000 0.000000
vt 1.000000 1.000000
vt 0.000000 1.000000
vt 0.000000 0.000000
vt 1.000000 0.000000
vt 1.000000 1.000000
vt 0.000000 1.000000
usemtl Metal
f 1/1 2/2 3/3
f 1/1 3/3 4/4
f 5/5 6/6 7/7
f 5/5 7/7 8/8
f 9/9 10/10 11/11
f 9/9 11/11 12/12
f 13/13 14/14 15/15
f 13/13 15/15 16/16
f 17/17 18/18 19/19
f 17/17 19/19 20/20
f 21/21 22/22 23/23
f 21/21 23/23 24/24
f 25/25 26/26 27/27
f 25/25 27/27 28/28
f 29/29 30/30 31/31
f 29/29 31/31 32/32
f 33/33 34/34 35/35
f 33/33 35/35 36/36
f 37/37 38/38 39/39
f 37/37 39/39 40/40
f 41/41 42/42 43/43
f 41/41 43/43 44/44
f 45/45 46/46 47/47
f 45/45 47/47 48/48
f 49/49 50/50 51/51
f 49/49 51/51 52/52
f 53/53 54/54 55/55
f 56/56 57/57 58/58
f 59/59 60/60 61/61
f 62/62 63/63 64/64
f 65/65 66/66 67/67
f 68/68 69/69 70/70
f 71/71 72/72 73/73
f 74/74 75/75 76/76
f 77/77 78/78 79/79
f 80/80 81/81 82/82
f 83/83 84/84 85/85
f 86/86 87/87 88/88
f 89/89 90/90 91/91
f 92/92 93/93 94/94
f 95/95 96/96 97/97
f 95/95 97/97 98/98
f 99/99 100/100 101/101
f 99/99 101/101 102/102
f 103/103 104/104 105/105
f 103/103 105/105 106/106
f 107/107 108/108 109/109
f 107/107 109/109 110/110
f 111/111 112/112 113/113
f 111/111 113/113 114/114
f 115/115 116/116 117/117
f 115/115 117/117 118/118
f 119/119 120/120 121/121
f 119/119 121/121 122/122
f 123/123 124/124 125/125
f 123/123 125/125 126/126
f 127/127 128/128 129/129
f 127/127 129/129 130/130
f 131/131 132/132 133/133
f 131/131 133/133 134/134
f 135/135 136/136 137/137
f 135/135 137/137 138/138
f 139/139 140/140 141/141
f 139/139 141/141 142/142
f 143/143 144/144 145/145
f 143/143 145/145 146/146
f 147/147 148/148 149/149
f 150/150 151/151 152/152
f 153/153 154/154 155/155
f 156/156 157/157 158/158
f 159/159 160/160 161/161
f 162/162 163/163 164/164
f 165/165 166/166 167/167
f 168/168 169/169 170/170
f 171/171 172/172 173/173
f 174/174 175/175 176/176
f 177/177 178/178 179/179
f 180/180 181/181 182/182
f 183/183 184/184 185/185
f 186/186 187/187 188/188
f 189/189 190/190 191/191
f 189/189 191/191 192/192
f 193/193 194/194 195/195
f 193/193 195/195 196/196
f 197/197 198/198 199/199
f 197/197 199/199 200/200
f 201/201 202/202 203/203
f 201/201 203/203 204/204
f 205/205 206/206 207/207
f 205/205 207/207 208/208
f 209/209 210/210 211/211
f 209/209 211/211 212/212
f 213/213 214/214 215/215
f 213/213 215/215 216/216
f 217/217 218/218 219/219
f 217/217 219/219 220/220
f 221/221 222/222 223/223
f 221/221 223/223 224/224
f 225/225 226/226 227/227
f 225/225 227/227 228/228
f 229/229 230/230 231/231
f 229/229 231/231 232/232
f 233/233 234/234 235/235
f 233/233 235/235 236/236
f 237/237 238/238 239/239
f 237/237 239/239 240/240
f 241/241 242/242 243/243
f 244/244 245/245 246/246
f 247/247 248/248 249/249
f 250/250 251/251 252/252
f 253/253 254/254 255/255
f 256/256 257/257 258/258
f 259/259 260/260 261/261
f 262/262 263/263 264/264
f 265/265 266/266 267/267
f 268/268 269/269 270/270
f 271/271 272/272 273/273
f 274/274 275/275 276/276
f 277/277 278/278 279/279
f 280/280 281/281 282/282
f 283/283 284/284 285/285
f 283/283 285/285 286/286
f 287/287 288/288 289/289
f 287/287 289/289 290/290
f 291/291 292/292 293/293
f 291/291 293/293 294/294
f 295/295 296/296 297/297
f 295/295 297/297 298/298
f 299/299 300/300 301/301
f 299/299 301/301 302/302
f 303/303 304/304 305/305
f 303/303 305/305 306/306
f 307/307 308/308 309/309
f 307/307 309/309 310/310
f 311/311 312/312 313/313
f 311/311 313/313 314/314
f 315/315 316/316 317/317
f 315/315 317/317 318/318
f 319/319 320/320 321/321
f 319/319 321/321 322/322
f 323/323 324/324 325/325
f 323/323 325/325 326/326
f 327/327 328/328 329/329
f 327/327 329/329 330/330
f 331/331 332/332 333/333
f 331/331 333/333 334/334
f 335/335 336/336 337/337
f 338/338 339/339 340/340
f 341/341 342/342 343/343
f 344/344 345/345 346/346
f 347/347 348/348 349/349
f 350/350 351/351 352/352
f 353/353 354/354 355/355
f 356/356 357/357 358/358
f 359/359 360/360 361/361
f 362/362 363/363 364/364
f 365/365 366/366 367/367
f 368/368 369/369 370/370
f 371/371 372/372 373/373
f 374/374 375/375 376/376
f 377/377 378/378 379/379
f 377/377 379/379 380/380
f 381/381 382/382 383/383
f 381/381 383/383 384/384
f 385/385 386/386 387/387
f 385/385 387/387 388/388
f 389/389 390/390 391/391
f 389/389 391/391 392/392
f 393/393 394/394 395/395
f 393/393 395/395 396/396
f 397/397 398/398 399/399
f 397/397 399/399 400/400
f 401/401 402/402 403/403
f 401/401 403/403 404/404
f 405/405 406/406 407/407
f 405/405 407/407 408/408
f 409/409 410/410 411/411
f 409/409 411/411 412/412
f 413/413 414/414 415/415
f 413/413 415/415 416/416
f 417/417 418/418 419/419
f 417/417 419/419 420/420
f 421/421 422/422 423/423
f 421/421 423/423 424/424
f 425/425 426/426 427/427
f 425/425 427/427 428/428
f 429/429 430/430 431/431
f 432/432 433/433 434/434
f 435/435 436/436 437/437
f 438/438 439/439 440/440
f 441/441 442/442 443/443
f 444/444 445/445 446/446
f 447/447 448/448 449/449
f 450/450 451/451 452/452
f 453/453 454/454 455/455
f 456/456 457/457 458/458
f 459/459 460/460 461/461
f 462/462 463/463 464/464
f 465/465 466/466 467/467
f 468/468 469/469 470/470
usemtl Rope
f 471/471 472/472 473/473
f 471/471 473/473 474/474
f 475/475 476/476 477/477
f 475/475 477/477 478/478
f 479/479 480/480 481/481
f 479/479 481/481 482/482
f 483/483 484/484 485/485
f 483/483 485/485 486/486
f 487/487 488/488 489/489
f 487/487 489/489 490/490
f 491/491 492/492 493/493
f 491/491 493/493 494/494
f 495/495 496/496 497/497
f 495/495 497/497 498/498
f 499/499 500/500 501/501
f 499/499 501/501 502/502
f 503/503 504/504 505/505
f 503/503 505/505 506/506
f 507/507 508/508 509/509
f 507/507 509/509 510/510
f 511/511 512/512 513/513
f 511/511 513/513 514/514
f 515/515 516/516 517/517
f 515/515 517/517 518/518
f 519/519 520/520 521/521
f 519/519 521/521 522/522
f 523/523 524/524 525/525
f 523/523 525/525 526/526
f 527/527 528/528 529/529
f 527/527 529/529 530/530
f 531/531 532/532 533/533
f 531/531 533/533 534/534
f 535/535 536/536 537/537
f 535/535 537/537 538/538
f 539/539 540/540 541/541
f 539/539 541/541 542/542
f 543/543 544/544 545/545
f 543/543 545/545 546/546
f 547/547 548/548 549/549
f 547/547 549/549 550/550
f 551/551 552/552 553/553
f 551/551 553/553 554/554
f 555/555 556/556 557/557
f 555/555 557/557 558/558
f 559/559 560/560 561/561
f 559/559 561/561 562/562
f 563/563 564/564 565/565
f 563/563 565/565 566/566
f 567/567 568/568 569/569
f 567/567 569/569 570/570
f 571/571 572/572 573/573
f 571/571 573/573 574/574
f 575/575 576/576 577/577
f 575/575 577/577 578/578
f 579/579 580/580 581/581
f 579/579 581/581 582/582
f 583/583 584/584 585/585
f 583/583 585/585 586/586
f 587/587 588/588 589/589
f 587/587 589/589 590/590
f 591/591 592/592 593/593
f 591/591 593/593 594/594
f 595/595 596/596 597/597
f 595/595 597/597 598/598
f 599/599 600/600 601/601
f 599/599 601/601 602/602
f 603/603 604/604 605/605
f 603/603 605/605 606/606
f 607/607 608/608 609/609
f 607/607 609/609 610/610
f 611/611 612/612 613/613
f 611/611 613/613 614/614
f 615/615 616/616 617/617
f 615/615 617/617 618/618
f 619/619 620/620 621/621
f 619/619 621/621 622/622
f 623/623 624/624 625/625
f 623/623 625/625 626/626
f 627/627 628/628 629/629
f 627/627 629/629 630/630
f 631/631 632/632 633/633
f 631/631 633/633 634/634
f 635/635 636/636 637/637
f 635/635 637/637 638/638
f 639/639 640/640 641/641
f 639/639 641/641 642/642
f 643/643 644/644 645/645
f 643/643 645/645 646/646
f 647/647 648/648 649/649
f 647/647 649/649 650/650
f 651/651 652/652 653/653
f 651/651 653/653 654/654
f 655/655 656/656 657/657
f 655/655 657/657 658/658
f 659/659 660/660 661/661
f 659/659 661/661 662/662
f 663/663 664/664 665/665
f 663/663 665/665 666/666
f 667/667 668/668 669/669
f 667/667 669/669 670/670
f 671/671 672/672 673/673
f 671/671 673/673 674/674
f 675/675 676/676 677/677
f 675/675 677/677 678/678
f 679/679 680/680 681/681
f 679/679 681/681 682/682
f 683/683 684/684 685/685
f 683/683 685/685 686/686
f 687/687 688/688 689/689
f 687/687 689/689 690/690
f 691/691 692/692 693/693
f 691/691 693/693 694/694
f 695/695 696/696 697/697
f 695/695 697/697 698/698
f 699/699 700/700 701/701
f 699/699 701/701 702/702
f 703/703 704/704 705/705
f 703/703 705/705 706/706
f 707/707 708/708 709/709
f 707/707 709/709 710/710
f 711/711 712/712 713/713
f 711/711 713/713 714/714
f 715/715 716/716 717/717
f 715/715 717/717 718/718
f 719/719 720/720 721/721
f 719/719 721/721 722/722
f 723/723 724/724 725/725
f 723/723 725/725 726/726
f 727/727 728/728 729/729
f 727/727 729/729 730/730
f 731/731 732/732 733/733
f 731/731 733/733 734/734
f 735/735 736/736 737/737
f 735/735 737/737 738/738
f 739/739 740/740 741/741
f 739/739 741/741 742/742
f 743/743 744/744 745/745
f 743/743 745/745 746/746
f 747/747 748/748 749/749
f 747/747 749/749 750/750
