mtllib ../../Materials/project_oen.mtl
o pr-014_signal_flag_cloth_strip__worn
v 0.350000 0.425000 -0.310000
v 0.350000 0.637500 -0.310000
v 0.395000 0.637500 -0.155000
v 0.350000 0.425000 -0.155000
v 0.350000 0.637500 -0.310000
v 0.350000 0.850000 -0.310000
v 0.410000 0.850000 -0.155000
v 0.395000 0.637500 -0.155000
v 0.350000 0.850000 -0.310000
v 0.350000 1.062500 -0.310000
v 0.395000 1.062500 -0.155000
v 0.410000 0.850000 -0.155000
v 0.350000 1.062500 -0.310000
v 0.350000 1.275000 -0.310000
v 0.350000 1.275000 -0.155000
v 0.395000 1.062500 -0.155000
v 0.350000 0.425000 -0.155000
v 0.395000 0.637500 -0.155000
v 0.410000 0.637500 0.000000
v 0.350000 0.425000 0.000000
v 0.395000 0.637500 -0.155000
v 0.410000 0.850000 -0.155000
v 0.430000 0.850000 0.000000
v 0.410000 0.637500 0.000000
v 0.410000 0.850000 -0.155000
v 0.395000 1.062500 -0.155000
v 0.410000 1.062500 0.000000
v 0.430000 0.850000 0.000000
v 0.395000 1.062500 -0.155000
v 0.350000 1.275000 -0.155000
v 0.350000 1.275000 0.000000
v 0.410000 1.062500 0.000000
v 0.350000 0.425000 0.000000
v 0.410000 0.637500 0.000000
v 0.395000 0.637500 0.155000
v 0.350000 0.425000 0.155000
v 0.410000 0.637500 0.000000
v 0.430000 0.850000 0.000000
v 0.410000 0.850000 0.155000
v 0.395000 0.637500 0.155000
v 0.430000 0.850000 0.000000
v 0.410000 1.062500 0.000000
v 0.395000 1.062500 0.155000
v 0.410000 0.850000 0.155000
v 0.410000 1.062500 0.000000
v 0.350000 1.275000 0.000000
v 0.350000 1.275000 0.155000
v 0.395000 1.062500 0.155000
v 0.350000 0.425000 0.155000
v 0.395000 0.637500 0.155000
v 0.350000 0.637500 0.310000
v 0.350000 0.425000 0.310000
v 0.395000 0.637500 0.155000
v 0.410000 0.850000 0.155000
v 0.350000 0.850000 0.310000
v 0.350000 0.637500 0.310000
v 0.410000 0.850000 0.155000
v 0.395000 1.062500 0.155000
v 0.350000 1.062500 0.310000
v 0.350000 0.850000 0.310000
v 0.395000 1.062500 0.155000
v 0.350000 1.275000 0.155000
v 0.350000 1.275000 0.310000
v 0.350000 1.062500 0.310000
v 0.035000 0.000000 0.000000
v 0.024749 0.000000 0.024749
v 0.024749 1.500000 0.024749
v 0.035000 1.500000 0.000000
v 0.024749 0.000000 0.024749
v 0.000000 0.000000 0.035000
v 0.000000 1.500000 0.035000
v 0.024749 1.500000 0.024749
v 0.000000 0.000000 0.035000
v -0.024749 0.000000 0.024749
v -0.024749 1.500000 0.024749
v 0.000000 1.500000 0.035000
v -0.024749 0.000000 0.024749
v -0.035000 0.000000 0.000000
v -0.035000 1.500000 0.000000
v -0.024749 1.500000 0.024749
v -0.035000 0.000000 0.000000
v -0.024749 0.000000 -0.024749
v -0.024749 1.500000 -0.024749
v -0.035000 1.500000 0.000000
v -0.024749 0.000000 -0.024749
v -0.000000 0.000000 -0.035000
v -0.000000 1.500000 -0.035000
v -0.024749 1.500000 -0.024749
v -0.000000 0.000000 -0.035000
v 0.024749 0.000000 -0.024749
v 0.024749 1.500000 -0.024749
v -0.000000 1.500000 -0.035000
v 0.024749 0.000000 -0.024749
v 0.035000 0.000000 0.000000
v 0.035000 1.500000 0.000000
v 0.024749 1.500000 -0.024749
v 0.000000 0.000000 0.000000
v 0.024749 0.000000 0.024749
v 0.035000 0.000000 0.000000
v 0.000000 1.500000 0.000000
v 0.035000 1.500000 0.000000
v 0.024749 1.500000 0.024749
v 0.000000 0.000000 0.000000
v 0.000000 0.000000 0.035000
v 0.024749 0.000000 0.024749
v 0.000000 1.500000 0.000000
v 0.024749 1.500000 0.024749
v 0.000000 1.500000 0.035000
v 0.000000 0.000000 0.000000
v -0.024749 0.000000 0.024749
v 0.000000 0.000000 0.035000
v 0.000000 1.500000 0.000000
v 0.000000 1.500000 0.035000
v -0.024749 1.500000 0.024749
v 0.000000 0.000000 0.000000
v -0.035000 0.000000 0.000000
v -0.024749 0.000000 0.024749
v 0.000000 1.500000 0.000000
v -0.024749 1.500000 0.024749
v -0.035000 1.500000 0.000000
v 0.000000 0.000000 0.000000
v -0.024749 0.000000 -0.024749
v -0.035000 0.000000 0.000000
v 0.000000 1.500000 0.000000
v -0.035000 1.500000 0.000000
v -0.024749 1.500000 -0.024749
v 0.000000 0.000000 0.000000
v -0.000000 0.000000 -0.035000
v -0.024749 0.000000 -0.024749
v 0.000000 1.500000 0.000000
v -0.024749 1.500000 -0.024749
v -0.000000 1.500000 -0.035000
v 0.000000 0.000000 0.000000
v 0.024749 0.000000 -0.024749
v -0.000000 0.000000 -0.035000
v 0.000000 1.500000 0.000000
v -0.000000 1.500000 -0.035000
v 0.024749 1.500000 -0.024749
v 0.000000 0.000000 0.000000
v 0.035000 0.000000 0.000000
v 0.024749 0.000000 -0.024749
v 0.000000 1.500000 0.000000
v 0.024749 1.500000 -0.024749
v 0.035000 1.500000 0.000000
vt 0.000000 0.000000
vt 1.000000 0.000000
vt 1.000000 1.000000
vt 0.000000 1.000000
vt 0.000000 0.000000
vt 1.000000 0.000000
vt 1.000000 1.000000
vt 0.000000 1.000000
vt 0.000000 0.000000
vt 1.000000 0.000000
vt 1.000000 1.000000
vt 0.000000 1.000000
vt 0.000000 0.000000
vt 1.000000 0.000000
vt 1.000000 1.000000
vt 0.000000 1.000000
vt 0.000000 0.000000
vt 1.000000 0.000000
vt 1.000000 1.000000
vt 0.000000 1.000000
vt 0.000000 0.000000
vt 1.000000 0.000000
vt 1.000000 1.000000
vt 0.000000 1.000000
vt 0.000000 0.000000
vt 1.000000 0.000000
vt 1.000000 1.000000
vt 0.000000 1.000000
vt 0.000000 0.000000
vt 1.000000 0.000000
vt 1.000000 1.000000
vt 0.000000 1.000000
vt 0.000000 0.000000
vt 1.000000 0.000000
vt 1.000000 1.000000
vt 0.000000 1.000000
vt 0.000000 0.000000
vt 1.000000 0.000000
vt 1.000000 1.000000
vt 0.000000 1.000000
vt 0.000000 0.000000
vt 1.000000 0.000000
vt 1.000000 1.000000
vt 0.000000 1.000000
vt 0.000000 0.000000
vt 1.000000 0.000000
vt 1.000000 1.000000
vt 0.000000 1.000000
vt 0.000000 0.000000
vt 1.000000 0.000000
vt 1.000000 1.000000
vt 0.000000 1.000000
vt 0.000000 0.000000
vt 1.000000 0.000000
vt 1.000000 1.000000
vt 0.000000 1.000000
vt 0.000000 0.000000
vt 1.000000 0.000000
vt 1.000000 1.000000
vt 0.000000 1.000000
vt 0.000000 0.000000
vt 1.000000 0.000000
vt 1.000000 1.000000
vt 0.000000 1.000000
vt 0.000000 0.000000
vt 1.000000 0.000000
vt 1.000000 1.000000
vt 0.000000 1.000000
vt 0.000000 0.000000
vt 1.000000 0.000000
vt 1.000000 1.000000
vt 0.000000 1.000000
vt 0.000000 0.000000
vt 1.000000 0.000000
vt 1.000000 1.000000
vt 0.000000 1.000000
vt 0.000000 0.000000
vt 1.000000 0.000000
vt 1.000000 1.000000
vt 0.000000 1.000000
vt 0.000000 0.000000
vt 1.000000 0.000000
vt 1.000000 1.000000
vt 0.000000 1.000000
vt 0.000000 0.000000
vt 1.000000 0.000000
vt 1.000000 1.000000
vt 0.000000 1.000000
vt 0.000000 0.000000
vt 1.000000 0.000000
vt 1.000000 1.000000
vt 0.000000 1.000000
vt 0.000000 0.000000
vt 1.000000 0.000000
vt 1.000000 1.000000
vt 0.000000 1.000000
vt 0.500000 0.500000
vt 0.000000 0.000000
vt 1.000000 0.000000
vt 0.500000 0.500000
vt 0.000000 1.000000
vt 1.000000 1.000000
vt 0.500000 0.500000
vt 0.000000 0.000000
vt 1.000000 0.000000
vt 0.500000 0.500000
vt 0.000000 1.000000
vt 1.000000 1.000000
vt 0.500000 0.500000
vt 0.000000 0.000000
vt 1.000000 0.000000
vt 0.500000 0.500000
vt 0.000000 1.000000
vt 1.000000 1.000000
vt 0.500000 0.500000
vt 0.000000 0.000000
vt 1.000000 0.000000
vt 0.500000 0.500000
vt 0.000000 1.000000
vt 1.000000 1.000000
vt 0.500000 0.500000
vt 0.000000 0.000000
vt 1.000000 0.000000
vt 0.500000 0.500000
vt 0.000000 1.000000
vt 1.000000 1.000000
vt 0.500000 0.500000
vt 0.000000 0.000000
vt 1.000000 0.000000
vt 0.500000 0.500000
vt 0.000000 1.000000
vt 1.000000 1.000000
vt 0.500000 0.500000
vt 0.000000 0.000000
vt 1.000000 0.000000
vt 0.500000 0.500000
vt 0.000000 1.000000
vt 1.000000 1.000000
vt 0.500000 0.500000
vt 0.000000 0.000000
vt 1.000000 0.000000
vt 0.500000 0.500000
vt 0.000000 1.000000
vt 1.000000 1.000000
usemtl Cloth
f 1/1 2/2 3/3
f 1/1 3/3 4/4
f 5/5 6/6 7/7
f 5/5 7/7 8/8
f 9/9 10/10 11/11
f 9/9 11/11 12/12
f 13/13 14/14 15/15
f 13/13 15/15 16/16
f 17/17 18/18 19/19
f 17/17 19/19 20/20
f 21/21 22/22 23/23
f 21/21 23/23 24/24
f 25/25 26/26 27/27
f 25/25 27/27 28/28
f 29/29 30/30 31/31
f 29/29 31/31 32/32
f 33/33 34/34 35/35
f 33/33 35/35 36/36
f 37/37 38/38 39/39
f 37/37 39/39 40/40
f 41/41 42/42 43/43
f 41/41 43/43 44/44
f 45/45 46/46 47/47
f 45/45 47/47 48/48
f 49/49 50/50 51/51
f 49/49 51/51 52/52
f 53/53 54/54 55/55
f 53/53 55/55 56/56
f 57/57 58/58 59/59
f 57/57 59/59 60/60
f 61/61 62/62 63/63
f 61/61 63/63 64/64
usemtl Wood
f 65/65 66/66 67/67
f 65/65 67/67 68/68
f 69/69 70/70 71/71
f 69/69 71/71 72/72
f 73/73 74/74 75/75
f 73/73 75/75 76/76
f 77/77 78/78 79/79
f 77/77 79/79 80/80
f 81/81 82/82 83/83
f 81/81 83/83 84/84
f 85/85 86/86 87/87
f 85/85 87/87 88/88
f 89/89 90/90 91/91
f 89/89 91/91 92/92
f 93/93 94/94 95/95
f 93/93 95/95 96/96
f 97/97 98/98 99/99
f 100/100 101/101 102/102
f 103/103 104/104 105/105
f 106/106 107/107 108/108
f 109/109 110/110 111/111
f 112/112 113/113 114/114
f 115/115 116/116 117/117
f 118/118 119/119 120/120
f 121/121 122/122 123/123
f 124/124 125/125 126/126
f 127/127 128/128 129/129
f 130/130 131/131 132/132
f 133/133 134/134 135/135
f 136/136 137/137 138/138
f 139/139 140/140 141/141
f 142/142 143/143 144/144
