mtllib ../../Materials/project_oen.mtl
o pr-001_tarp_presenning__folded
v -0.486253 0.034434 -0.141195
v 0.392873 0.080507 -0.328316
v 0.386593 0.200343 -0.328316
v -0.492534 0.154270 -0.141195
v 0.492534 0.085730 0.141195
v -0.386593 0.039657 0.328316
v -0.392873 0.159493 0.328316
v 0.486253 0.205566 0.141195
v -0.386593 0.039657 0.328316
v -0.486253 0.034434 -0.141195
v -0.492534 0.154270 -0.141195
v -0.392873 0.159493 0.328316
v 0.392873 0.080507 -0.328316
v 0.492534 0.085730 0.141195
v 0.486253 0.205566 0.141195
v 0.386593 0.200343 -0.328316
v -0.492534 0.154270 -0.141195
v 0.386593 0.200343 -0.328316
v 0.486253 0.205566 0.141195
v -0.392873 0.159493 0.328316
v -0.386593 0.039657 0.328316
v 0.492534 0.085730 0.141195
v 0.392873 0.080507 -0.328316
v -0.486253 0.034434 -0.141195
vt 0.000000 0.000000
vt 1.000000 0.000000
vt 1.000000 1.000000
vt 0.000000 1.000000
vt 0.000000 0.000000
vt 1.000000 0.000000
vt 1.000000 1.000000
vt 0.000000 1.000000
vt 0.000000 0.000000
vt 1.000000 0.000000
vt 1.000000 1.000000
vt 0.000000 1.000000
vt 0.000000 0.000000
vt 1.000000 0.000000
vt 1.000000 1.000000
vt 0.000000 1.000000
vt 0.000000 0.000000
vt 1.000000 0.000000
vt 1.000000 1.000000
vt 0.000000 1.000000
vt 0.000000 0.000000
vt 1.000000 0.000000
vt 1.000000 1.000000
vt 0.000000 1.000000
usemtl Tarp
f 1/1 2/2 3/3
f 1/1 3/3 4/4
f 5/5 6/6 7/7
f 5/5 7/7 8/8
f 9/9 10/10 11/11
f 9/9 11/11 12/12
f 13/13 14/14 15/15
f 13/13 15/15 16/16
f 17/17 18/18 19/19
f 17/17 19/19 20/20
f 21/21 22/22 23/23
f 21/21 23/23 24/24
