mtllib ../../Materials/project_oen.mtl
o pr-016_water_collector__collecting
v -0.515000 0.000000 0.000000
v -0.525251 0.000000 0.024749
v -0.525251 1.100000 0.024749
v -0.515000 1.100000 0.000000
v -0.525251 0.000000 0.024749
v -0.550000 0.000000 0.035000
v -0.550000 1.100000 0.035000
v -0.525251 1.100000 0.024749
v -0.550000 0.000000 0.035000
v -0.574749 0.000000 0.024749
v -0.574749 1.100000 0.024749
v -0.550000 1.100000 0.035000
v -0.574749 0.000000 0.024749
v -0.585000 0.000000 0.000000
v -0.585000 1.100000 0.000000
v -0.574749 1.100000 0.024749
v -0.585000 0.000000 0.000000
v -0.574749 0.000000 -0.024749
v -0.574749 1.100000 -0.024749
v -0.585000 1.100000 0.000000
v -0.574749 0.000000 -0.024749
v -0.550000 0.000000 -0.035000
v -0.550000 1.100000 -0.035000
v -0.574749 1.100000 -0.024749
v -0.550000 0.000000 -0.035000
v -0.525251 0.000000 -0.024749
v -0.525251 1.100000 -0.024749
v -0.550000 1.100000 -0.035000
v -0.525251 0.000000 -0.024749
v -0.515000 0.000000 0.000000
v -0.515000 1.100000 0.000000
v -0.525251 1.100000 -0.024749
v -0.550000 0.000000 0.000000
v -0.525251 0.000000 0.024749
v -0.515000 0.000000 0.000000
v -0.550000 1.100000 0.000000
v -0.515000 1.100000 0.000000
v -0.525251 1.100000 0.024749
v -0.550000 0.000000 0.000000
v -0.550000 0.000000 0.035000
v -0.525251 0.000000 0.024749
v -0.550000 1.100000 0.000000
v -0.525251 1.100000 0.024749
v -0.550000 1.100000 0.035000
v -0.550000 0.000000 0.000000
v -0.574749 0.000000 0.024749
v -0.550000 0.000000 0.035000
v -0.550000 1.100000 0.000000
v -0.550000 1.100000 0.035000
v -0.574749 1.100000 0.024749
v -0.550000 0.000000 0.000000
v -0.585000 0.000000 0.000000
v -0.574749 0.000000 0.024749
v -0.550000 1.100000 0.000000
v -0.574749 1.100000 0.024749
v -0.585000 1.100000 0.000000
v -0.550000 0.000000 0.000000
v -0.574749 0.000000 -0.024749
v -0.585000 0.000000 0.000000
v -0.550000 1.100000 0.000000
v -0.585000 1.100000 0.000000
v -0.574749 1.100000 -0.024749
v -0.550000 0.000000 0.000000
v -0.550000 0.000000 -0.035000
v -0.574749 0.000000 -0.024749
v -0.550000 1.100000 0.000000
v -0.574749 1.100000 -0.024749
v -0.550000 1.100000 -0.035000
v -0.550000 0.000000 0.000000
v -0.525251 0.000000 -0.024749
v -0.550000 0.000000 -0.035000
v -0.550000 1.100000 0.000000
v -0.550000 1.100000 -0.035000
v -0.525251 1.100000 -0.024749
v -0.550000 0.000000 0.000000
v -0.515000 0.000000 0.000000
v -0.525251 0.000000 -0.024749
v -0.550000 1.100000 0.000000
v -0.525251 1.100000 -0.024749
v -0.515000 1.100000 0.000000
v 0.585000 0.000000 0.000000
v 0.574749 0.000000 0.024749
v 0.574749 1.100000 0.024749
v 0.585000 1.100000 0.000000
v 0.574749 0.000000 0.024749
v 0.550000 0.000000 0.035000
v 0.550000 1.100000 0.035000
v 0.574749 1.100000 0.024749
v 0.550000 0.000000 0.035000
v 0.525251 0.000000 0.024749
v 0.525251 1.100000 0.024749
v 0.550000 1.100000 0.035000
v 0.525251 0.000000 0.024749
v 0.515000 0.000000 0.000000
v 0.515000 1.100000 0.000000
v 0.525251 1.100000 0.024749
v 0.515000 0.000000 0.000000
v 0.525251 0.000000 -0.024749
v 0.525251 1.100000 -0.024749
v 0.515000 1.100000 0.000000
v 0.525251 0.000000 -0.024749
v 0.550000 0.000000 -0.035000
v 0.550000 1.100000 -0.035000
v 0.525251 1.100000 -0.024749
v 0.550000 0.000000 -0.035000
v 0.574749 0.000000 -0.024749
v 0.574749 1.100000 -0.024749
v 0.550000 1.100000 -0.035000
v 0.574749 0.000000 -0.024749
v 0.585000 0.000000 0.000000
v 0.585000 1.100000 0.000000
v 0.574749 1.100000 -0.024749
v 0.550000 0.000000 0.000000
v 0.574749 0.000000 0.024749
v 0.585000 0.000000 0.000000
v 0.550000 1.100000 0.000000
v 0.585000 1.100000 0.000000
v 0.574749 1.100000 0.024749
v 0.550000 0.000000 0.000000
v 0.550000 0.000000 0.035000
v 0.574749 0.000000 0.024749
v 0.550000 1.100000 0.000000
v 0.574749 1.100000 0.024749
v 0.550000 1.100000 0.035000
v 0.550000 0.000000 0.000000
v 0.525251 0.000000 0.024749
v 0.550000 0.000000 0.035000
v 0.550000 1.100000 0.000000
v 0.550000 1.100000 0.035000
v 0.525251 1.100000 0.024749
v 0.550000 0.000000 0.000000
v 0.515000 0.000000 0.000000
v 0.525251 0.000000 0.024749
v 0.550000 1.100000 0.000000
v 0.525251 1.100000 0.024749
v 0.515000 1.100000 0.000000
v 0.550000 0.000000 0.000000
v 0.525251 0.000000 -0.024749
v 0.515000 0.000000 0.000000
v 0.550000 1.100000 0.000000
v 0.515000 1.100000 0.000000
v 0.525251 1.100000 -0.024749
v 0.550000 0.000000 0.000000
v 0.550000 0.000000 -0.035000
v 0.525251 0.000000 -0.024749
v 0.550000 1.100000 0.000000
v 0.525251 1.100000 -0.024749
v 0.550000 1.100000 -0.035000
v 0.550000 0.000000 0.000000
v 0.574749 0.000000 -0.024749
v 0.550000 0.000000 -0.035000
v 0.550000 1.100000 0.000000
v 0.550000 1.100000 -0.035000
v 0.574749 1.100000 -0.024749
v 0.550000 0.000000 0.000000
v 0.585000 0.000000 0.000000
v 0.574749 0.000000 -0.024749
v 0.550000 1.100000 0.000000
v 0.574749 1.100000 -0.024749
v 0.585000 1.100000 0.000000
v -0.625000 1.000000 -0.475000
v -0.312500 1.000000 -0.475000
v -0.312500 0.898750 -0.237500
v -0.625000 1.000000 -0.237500
v -0.312500 1.000000 -0.475000
v 0.000000 1.000000 -0.475000
v 0.000000 0.865000 -0.237500
v -0.312500 0.898750 -0.237500
v 0.000000 1.000000 -0.475000
v 0.312500 1.000000 -0.475000
v 0.312500 0.898750 -0.237500
v 0.000000 0.865000 -0.237500
v 0.312500 1.000000 -0.475000
v 0.625000 1.000000 -0.475000
v 0.625000 1.000000 -0.237500
v 0.312500 0.898750 -0.237500
v -0.625000 1.000000 -0.237500
v -0.312500 0.898750 -0.237500
v -0.312500 0.865000 0.000000
v -0.625000 1.000000 0.000000
v -0.312500 0.898750 -0.237500
v 0.000000 0.865000 -0.237500
v 0.000000 0.820000 0.000000
v -0.312500 0.865000 0.000000
v 0.000000 0.865000 -0.237500
v 0.312500 0.898750 -0.237500
v 0.312500 0.865000 0.000000
v 0.000000 0.820000 0.000000
v 0.312500 0.898750 -0.237500
v 0.625000 1.000000 -0.237500
v 0.625000 1.000000 0.000000
v 0.312500 0.865000 0.000000
v -0.625000 1.000000 0.000000
v -0.312500 0.865000 0.000000
v -0.312500 0.898750 0.237500
v -0.625000 1.000000 0.237500
v -0.312500 0.865000 0.000000
v 0.000000 0.820000 0.000000
v 0.000000 0.865000 0.237500
v -0.312500 0.898750 0.237500
v 0.000000 0.820000 0.000000
v 0.312500 0.865000 0.000000
v 0.312500 0.898750 0.237500
v 0.000000 0.865000 0.237500
v 0.312500 0.865000 0.000000
v 0.625000 1.000000 0.000000
v 0.625000 1.000000 0.237500
v 0.312500 0.898750 0.237500
v -0.625000 1.000000 0.237500
v -0.312500 0.898750 0.237500
v -0.312500 1.000000 0.475000
v -0.625000 1.000000 0.475000
v -0.312500 0.898750 0.237500
v 0.000000 0.865000 0.237500
v 0.000000 1.000000 0.475000
v -0.312500 1.000000 0.475000
v 0.000000 0.865000 0.237500
v 0.312500 0.898750 0.237500
v 0.312500 1.000000 0.475000
v 0.000000 1.000000 0.475000
v 0.312500 0.898750 0.237500
v 0.625000 1.000000 0.237500
v 0.625000 1.000000 0.475000
v 0.312500 1.000000 0.475000
v 0.350000 0.010000 0.000000
v 0.303109 0.010000 0.175000
v 0.303109 0.430000 0.175000
v 0.350000 0.430000 0.000000
v 0.303109 0.010000 0.175000
v 0.175000 0.010000 0.303109
v 0.175000 0.430000 0.303109
v 0.303109 0.430000 0.175000
v 0.175000 0.010000 0.303109
v 0.000000 0.010000 0.350000
v 0.000000 0.430000 0.350000
v 0.175000 0.430000 0.303109
v 0.000000 0.010000 0.350000
v -0.175000 0.010000 0.303109
v -0.175000 0.430000 0.303109
v 0.000000 0.430000 0.350000
v -0.175000 0.010000 0.303109
v -0.303109 0.010000 0.175000
v -0.303109 0.430000 0.175000
v -0.175000 0.430000 0.303109
v -0.303109 0.010000 0.175000
v -0.350000 0.010000 0.000000
v -0.350000 0.430000 0.000000
v -0.303109 0.430000 0.175000
v -0.350000 0.010000 0.000000
v -0.303109 0.010000 -0.175000
v -0.303109 0.430000 -0.175000
v -0.350000 0.430000 0.000000
v -0.303109 0.010000 -0.175000
v -0.175000 0.010000 -0.303109
v -0.175000 0.430000 -0.303109
v -0.303109 0.430000 -0.175000
v -0.175000 0.010000 -0.303109
v -0.000000 0.010000 -0.350000
v -0.000000 0.430000 -0.350000
v -0.175000 0.430000 -0.303109
v -0.000000 0.010000 -0.350000
v 0.175000 0.010000 -0.303109
v 0.175000 0.430000 -0.303109
v -0.000000 0.430000 -0.350000
v 0.175000 0.010000 -0.303109
v 0.303109 0.010000 -0.175000
v 0.303109 0.430000 -0.175000
v 0.175000 0.430000 -0.303109
v 0.303109 0.010000 -0.175000
v 0.350000 0.010000 0.000000
v 0.350000 0.430000 0.000000
v 0.303109 0.430000 -0.175000
v 0.000000 0.010000 0.000000
v 0.303109 0.010000 0.175000
v 0.350000 0.010000 0.000000
v 0.000000 0.430000 0.000000
v 0.350000 0.430000 0.000000
v 0.303109 0.430000 0.175000
v 0.000000 0.010000 0.000000
v 0.175000 0.010000 0.303109
v 0.303109 0.010000 0.175000
v 0.000000 0.430000 0.000000
v 0.303109 0.430000 0.175000
v 0.175000 0.430000 0.303109
v 0.000000 0.010000 0.000000
v 0.000000 0.010000 0.350000
v 0.175000 0.010000 0.303109
v 0.000000 0.430000 0.000000
v 0.175000 0.430000 0.303109
v 0.000000 0.430000 0.350000
v 0.000000 0.010000 0.000000
v -0.175000 0.010000 0.303109
v 0.000000 0.010000 0.350000
v 0.000000 0.430000 0.000000
v 0.000000 0.430000 0.350000
v -0.175000 0.430000 0.303109
v 0.000000 0.010000 0.000000
v -0.303109 0.010000 0.175000
v -0.175000 0.010000 0.303109
v 0.000000 0.430000 0.000000
v -0.175000 0.430000 0.303109
v -0.303109 0.430000 0.175000
v 0.000000 0.010000 0.000000
v -0.350000 0.010000 0.000000
v -0.303109 0.010000 0.175000
v 0.000000 0.430000 0.000000
v -0.303109 0.430000 0.175000
v -0.350000 0.430000 0.000000
v 0.000000 0.010000 0.000000
v -0.303109 0.010000 -0.175000
v -0.350000 0.010000 0.000000
v 0.000000 0.430000 0.000000
v -0.350000 0.430000 0.000000
v -0.303109 0.430000 -0.175000
v 0.000000 0.010000 0.000000
v -0.175000 0.010000 -0.303109
v -0.303109 0.010000 -0.175000
v 0.000000 0.430000 0.000000
v -0.303109 0.430000 -0.175000
v -0.175000 0.430000 -0.303109
v 0.000000 0.010000 0.000000
v -0.000000 0.010000 -0.350000
v -0.175000 0.010000 -0.303109
v 0.000000 0.430000 0.000000
v -0.175000 0.430000 -0.303109
v -0.000000 0.430000 -0.350000
v 0.000000 0.010000 0.000000
v 0.175000 0.010000 -0.303109
v -0.000000 0.010000 -0.350000
v 0.000000 0.430000 0.000000
v -0.000000 0.430000 -0.350000
v 0.175000 0.430000 -0.303109
v 0.000000 0.010000 0.000000
v 0.303109 0.010000 -0.175000
v 0.175000 0.010000 -0.303109
v 0.000000 0.430000 0.000000
v 0.175000 0.430000 -0.303109
v 0.303109 0.430000 -0.175000
v 0.000000 0.010000 0.000000
v 0.350000 0.010000 0.000000
v 0.303109 0.010000 -0.175000
v 0.000000 0.430000 0.000000
v 0.303109 0.430000 -0.175000
v 0.350000 0.430000 0.000000
vt 0.000000 0.000000
vt 1.000000 0.000000
vt 1.000000 1.000000
vt 0.000000 1.000000
vt 0.000000 0.000000
vt 1.000000 0.000000
vt 1.000000 1.000000
vt 0.000000 1.000000
vt 0.000000 0.000000
vt 1.000000 0.000000
vt 1.000000 1.000000
vt 0.000000 1.000000
vt 0.000000 0.000000
vt 1.000000 0.000000
vt 1.000000 1.000000
vt 0.000000 1.000000
vt 0.000000 0.000000
vt 1.000000 0.000000
vt 1.000000 1.000000
vt 0.000000 1.000000
vt 0.000000 0.000000
vt 1.000000 0.000000
vt 1.000000 1.000000
vt 0.000000 1.000000
vt 0.000000 0.000000
vt 1.000000 0.000000
vt 1.000000 1.000000
vt 0.000000 1.000000
vt 0.000000 0.000000
vt 1.000000 0.000000
vt 1.000000 1.000000
vt 0.000000 1.000000
vt 0.500000 0.500000
vt 0.000000 0.000000
vt 1.000000 0.000000
vt 0.500000 0.500000
vt 0.000000 1.000000
vt 1.000000 1.000000
vt 0.500000 0.500000
vt 0.000000 0.000000
vt 1.000000 0.000000
vt 0.500000 0.500000
vt 0.000000 1.000000
vt 1.000000 1.000000
vt 0.500000 0.500000
vt 0.000000 0.000000
vt 1.000000 0.000000
vt 0.500000 0.500000
vt 0.000000 1.000000
vt 1.000000 1.000000
vt 0.500000 0.500000
vt 0.000000 0.000000
vt 1.000000 0.000000
vt 0.500000 0.500000
vt 0.000000 1.000000
vt 1.000000 1.000000
vt 0.500000 0.500000
vt 0.000000 0.000000
vt 1.000000 0.000000
vt 0.500000 0.500000
vt 0.000000 1.000000
vt 1.000000 1.000000
vt 0.500000 0.500000
vt 0.000000 0.000000
vt 1.000000 0.000000
vt 0.500000 0.500000
vt 0.000000 1.000000
vt 1.000000 1.000000
vt 0.500000 0.500000
vt 0.000000 0.000000
vt 1.000000 0.000000
vt 0.500000 0.500000
vt 0.000000 1.000000
vt 1.000000 1.000000
vt 0.500000 0.500000
vt 0.000000 0.000000
vt 1.000000 0.000000
vt 0.500000 0.500000
vt 0.000000 1.000000
vt 1.000000 1.000000
vt 0.000000 0.000000
vt 1.000000 0.000000
vt 1.000000 1.000000
vt 0.000000 1.000000
vt 0.000000 0.000000
vt 1.000000 0.000000
vt 1.000000 1.000000
vt 0.000000 1.000000
vt 0.000000 0.000000
vt 1.000000 0.000000
vt 1.000000 1.000000
vt 0.000000 1.000000
vt 0.000000 0.000000
vt 1.000000 0.000000
vt 1.000000 1.000000
vt 0.000000 1.000000
vt 0.000000 0.000000
vt 1.000000 0.000000
vt 1.000000 1.000000
vt 0.000000 1.000000
vt 0.000000 0.000000
vt 1.000000 0.000000
vt 1.000000 1.000000
vt 0.000000 1.000000
vt 0.000000 0.000000
vt 1.000000 0.000000
vt 1.000000 1.000000
vt 0.000000 1.000000
vt 0.000000 0.000000
vt 1.000000 0.000000
vt 1.000000 1.000000
vt 0.000000 1.000000
vt 0.500000 0.500000
vt 0.000000 0.000000
vt 1.000000 0.000000
vt 0.500000 0.500000
vt 0.000000 1.000000
vt 1.000000 1.000000
vt 0.500000 0.500000
vt 0.000000 0.000000
vt 1.000000 0.000000
vt 0.500000 0.500000
vt 0.000000 1.000000
vt 1.000000 1.000000
vt 0.500000 0.500000
vt 0.000000 0.000000
vt 1.000000 0.000000
vt 0.500000 0.500000
vt 0.000000 1.000000
vt 1.000000 1.000000
vt 0.500000 0.500000
vt 0.000000 0.000000
vt 1.000000 0.000000
vt 0.500000 0.500000
vt 0.000000 1.000000
vt 1.000000 1.000000
vt 0.500000 0.500000
vt 0.000000 0.000000
vt 1.000000 0.000000
vt 0.500000 0.500000
vt 0.000000 1.000000
vt 1.000000 1.000000
vt 0.500000 0.500000
vt 0.000000 0.000000
vt 1.000000 0.000000
vt 0.500000 0.500000
vt 0.000000 1.000000
vt 1.000000 1.000000
vt 0.500000 0.500000
vt 0.000000 0.000000
vt 1.000000 0.000000
vt 0.500000 0.500000
vt 0.000000 1.000000
vt 1.000000 1.000000
vt 0.500000 0.500000
vt 0.000000 0.000000
vt 1.000000 0.000000
vt 0.500000 0.500000
vt 0.000000 1.000000
vt 1.000000 1.000000
vt 0.000000 0.000000
vt 1.000000 0.000000
vt 1.000000 1.000000
vt 0.000000 1.000000
vt 0.000000 0.000000
vt 1.000000 0.000000
vt 1.000000 1.000000
vt 0.000000 1.000000
vt 0.000000 0.000000
vt 1.000000 0.000000
vt 1.000000 1.000000
vt 0.000000 1.000000
vt 0.000000 0.000000
vt 1.000000 0.000000
vt 1.000000 1.000000
vt 0.000000 1.000000
vt 0.000000 0.000000
vt 1.000000 0.000000
vt 1.000000 1.000000
vt 0.000000 1.000000
vt 0.000000 0.000000
vt 1.000000 0.000000
vt 1.000000 1.000000
vt 0.000000 1.000000
vt 0.000000 0.000000
vt 1.000000 0.000000
vt 1.000000 1.000000
vt 0.000000 1.000000
vt 0.000000 0.000000
vt 1.000000 0.000000
vt 1.000000 1.000000
vt 0.000000 1.000000
vt 0.000000 0.000000
vt 1.000000 0.000000
vt 1.000000 1.000000
vt 0.000000 1.000000
vt 0.000000 0.000000
vt 1.000000 0.000000
vt 1.000000 1.000000
vt 0.000000 1.000000
vt 0.000000 0.000000
vt 1.000000 0.000000
vt 1.000000 1.000000
vt 0.000000 1.000000
vt 0.000000 0.000000
vt 1.000000 0.000000
vt 1.000000 1.000000
vt 0.000000 1.000000
vt 0.000000 0.000000
vt 1.000000 0.000000
vt 1.000000 1.000000
vt 0.000000 1.000000
vt 0.000000 0.000000
vt 1.000000 0.000000
vt 1.000000 1.000000
vt 0.000000 1.000000
vt 0.000000 0.000000
vt 1.000000 0.000000
vt 1.000000 1.000000
vt 0.000000 1.000000
vt 0.000000 0.000000
vt 1.000000 0.000000
vt 1.000000 1.000000
vt 0.000000 1.000000
vt 0.000000 0.000000
vt 1.000000 0.000000
vt 1.000000 1.000000
vt 0.000000 1.000000
vt 0.000000 0.000000
vt 1.000000 0.000000
vt 1.000000 1.000000
vt 0.000000 1.000000
vt 0.000000 0.000000
vt 1.000000 0.000000
vt 1.000000 1.000000
vt 0.000000 1.000000
vt 0.000000 0.000000
vt 1.000000 0.000000
vt 1.000000 1.000000
vt 0.000000 1.000000
vt 0.000000 0.000000
vt 1.000000 0.000000
vt 1.000000 1.000000
vt 0.000000 1.000000
vt 0.000000 0.000000
vt 1.000000 0.000000
vt 1.000000 1.000000
vt 0.000000 1.000000
vt 0.000000 0.000000
vt 1.000000 0.000000
vt 1.000000 1.000000
vt 0.000000 1.000000
vt 0.000000 0.000000
vt 1.000000 0.000000
vt 1.000000 1.000000
vt 0.000000 1.000000
vt 0.000000 0.000000
vt 1.000000 0.000000
vt 1.000000 1.000000
vt 0.000000 1.000000
vt 0.000000 0.000000
vt 1.000000 0.000000
vt 1.000000 1.000000
vt 0.000000 1.000000
vt 0.000000 0.000000
vt 1.000000 0.000000
vt 1.000000 1.000000
vt 0.000000 1.000000
vt 0.000000 0.000000
vt 1.000000 0.000000
vt 1.000000 1.000000
vt 0.000000 1.000000
vt 0.500000 0.500000
vt 0.000000 0.000000
vt 1.000000 0.000000
vt 0.500000 0.500000
vt 0.000000 1.000000
vt 1.000000 1.000000
vt 0.500000 0.500000
vt 0.000000 0.000000
vt 1.000000 0.000000
vt 0.500000 0.500000
vt 0.000000 1.000000
vt 1.000000 1.000000
vt 0.500000 0.500000
vt 0.000000 0.000000
vt 1.000000 0.000000
vt 0.500000 0.500000
vt 0.000000 1.000000
vt 1.000000 1.000000
vt 0.500000 0.500000
vt 0.000000 0.000000
vt 1.000000 0.000000
vt 0.500000 0.500000
vt 0.000000 1.000000
vt 1.000000 1.000000
vt 0.500000 0.500000
vt 0.000000 0.000000
vt 1.000000 0.000000
vt 0.500000 0.500000
vt 0.000000 1.000000
vt 1.000000 1.000000
vt 0.500000 0.500000
vt 0.000000 0.000000
vt 1.000000 0.000000
vt 0.500000 0.500000
vt 0.000000 1.000000
vt 1.000000 1.000000
vt 0.500000 0.500000
vt 0.000000 0.000000
vt 1.000000 0.000000
vt 0.500000 0.500000
vt 0.000000 1.000000
vt 1.000000 1.000000
vt 0.500000 0.500000
vt 0.000000 0.000000
vt 1.000000 0.000000
vt 0.500000 0.500000
vt 0.000000 1.000000
vt 1.000000 1.000000
vt 0.500000 0.500000
vt 0.000000 0.000000
vt 1.000000 0.000000
vt 0.500000 0.500000
vt 0.000000 1.000000
vt 1.000000 1.000000
vt 0.500000 0.500000
vt 0.000000 0.000000
vt 1.000000 0.000000
vt 0.500000 0.500000
vt 0.000000 1.000000
vt 1.000000 1.000000
vt 0.500000 0.500000
vt 0.000000 0.000000
vt 1.000000 0.000000
vt 0.500000 0.500000
vt 0.000000 1.000000
vt 1.000000 1.000000
vt 0.500000 0.500000
vt 0.000000 0.000000
vt 1.000000 0.000000
vt 0.500000 0.500000
vt 0.000000 1.000000
vt 1.000000 1.000000
usemtl Wood
f 1/1 2/2 3/3
f 1/1 3/3 4/4
f 5/5 6/6 7/7
f 5/5 7/7 8/8
f 9/9 10/10 11/11
f 9/9 11/11 12/12
f 13/13 14/14 15/15
f 13/13 15/15 16/16
f 17/17 18/18 19/19
f 17/17 19/19 20/20
f 21/21 22/22 23/23
f 21/21 23/23 24/24
f 25/25 26/26 27/27
f 25/25 27/27 28/28
f 29/29 30/30 31/31
f 29/29 31/31 32/32
f 33/33 34/34 35/35
f 36/36 37/37 38/38
f 39/39 40/40 41/41
f 42/42 43/43 44/44
f 45/45 46/46 47/47
f 48/48 49/49 50/50
f 51/51 52/52 53/53
f 54/54 55/55 56/56
f 57/57 58/58 59/59
f 60/60 61/61 62/62
f 63/63 64/64 65/65
f 66/66 67/67 68/68
f 69/69 70/70 71/71
f 72/72 73/73 74/74
f 75/75 76/76 77/77
f 78/78 79/79 80/80
f 81/81 82/82 83/83
f 81/81 83/83 84/84
f 85/85 86/86 87/87
f 85/85 87/87 88/88
f 89/89 90/90 91/91
f 89/89 91/91 92/92
f 93/93 94/94 95/95
f 93/93 95/95 96/96
f 97/97 98/98 99/99
f 97/97 99/99 100/100
f 101/101 102/102 103/103
f 101/101 103/103 104/104
f 105/105 106/106 107/107
f 105/105 107/107 108/108
f 109/109 110/110 111/111
f 109/109 111/111 112/112
f 113/113 114/114 115/115
f 116/116 117/117 118/118
f 119/119 120/120 121/121
f 122/122 123/123 124/124
f 125/125 126/126 127/127
f 128/128 129/129 130/130
f 131/131 132/132 133/133
f 134/134 135/135 136/136
f 137/137 138/138 139/139
f 140/140 141/141 142/142
f 143/143 144/144 145/145
f 146/146 147/147 148/148
f 149/149 150/150 151/151
f 152/152 153/153 154/154
f 155/155 156/156 157/157
f 158/158 159/159 160/160
usemtl Tarp
f 161/161 162/162 163/163
f 161/161 163/163 164/164
f 165/165 166/166 167/167
f 165/165 167/167 168/168
f 169/169 170/170 171/171
f 169/169 171/171 172/172
f 173/173 174/174 175/175
f 173/173 175/175 176/176
f 177/177 178/178 179/179
f 177/177 179/179 180/180
f 181/181 182/182 183/183
f 181/181 183/183 184/184
f 185/185 186/186 187/187
f 185/185 187/187 188/188
f 189/189 190/190 191/191
f 189/189 191/191 192/192
f 193/193 194/194 195/195
f 193/193 195/195 196/196
f 197/197 198/198 199/199
f 197/197 199/199 200/200
f 201/201 202/202 203/203
f 201/201 203/203 204/204
f 205/205 206/206 207/207
f 205/205 207/207 208/208
f 209/209 210/210 211/211
f 209/209 211/211 212/212
f 213/213 214/214 215/215
f 213/213 215/215 216/216
f 217/217 218/218 219/219
f 217/217 219/219 220/220
f 221/221 222/222 223/223
f 221/221 223/223 224/224
usemtl Metal
f 225/225 226/226 227/227
f 225/225 227/227 228/228
f 229/229 230/230 231/231
f 229/229 231/231 232/232
f 233/233 234/234 235/235
f 233/233 235/235 236/236
f 237/237 238/238 239/239
f 237/237 239/239 240/240
f 241/241 242/242 243/243
f 241/241 243/243 244/244
f 245/245 246/246 247/247
f 245/245 247/247 248/248
f 249/249 250/250 251/251
f 249/249 251/251 252/252
f 253/253 254/254 255/255
f 253/253 255/255 256/256
f 257/257 258/258 259/259
f 257/257 259/259 260/260
f 261/261 262/262 263/263
f 261/261 263/263 264/264
f 265/265 266/266 267/267
f 265/265 267/267 268/268
f 269/269 270/270 271/271
f 269/269 271/271 272/272
f 273/273 274/274 275/275
f 276/276 277/277 278/278
f 279/279 280/280 281/281
f 282/282 283/283 284/284
f 285/285 286/286 287/287
f 288/288 289/289 290/290
f 291/291 292/292 293/293
f 294/294 295/295 296/296
f 297/297 298/298 299/299
f 300/300 301/301 302/302
f 303/303 304/304 305/305
f 306/306 307/307 308/308
f 309/309 310/310 311/311
f 312/312 313/313 314/314
f 315/315 316/316 317/317
f 318/318 319/319 320/320
f 321/321 322/322 323/323
f 324/324 325/325 326/326
f 327/327 328/328 329/329
f 330/330 331/331 332/332
f 333/333 334/334 335/335
f 336/336 337/337 338/338
f 339/339 340/340 341/341
f 342/342 343/343 344/344
