mtllib ../../Materials/project_oen.mtl
o pr-010_stone_pile__medium
v -0.001056 0.035041 0.129721
v 0.391614 0.054515 0.109633
v 0.382644 0.281540 0.154387
v -0.010026 0.262066 0.174474
v 0.410932 -0.007341 0.427285
v 0.018262 -0.026815 0.447373
v 0.009292 0.200210 0.492127
v 0.401962 0.219684 0.472039
v 0.018262 -0.026815 0.447373
v -0.001056 0.035041 0.129721
v -0.010026 0.262066 0.174474
v 0.009292 0.200210 0.492127
v 0.391614 0.054515 0.109633
v 0.410932 -0.007341 0.427285
v 0.401962 0.219684 0.472039
v 0.382644 0.281540 0.154387
v -0.010026 0.262066 0.174474
v 0.382644 0.281540 0.154387
v 0.401962 0.219684 0.472039
v 0.009292 0.200210 0.492127
v 0.018262 -0.026815 0.447373
v 0.410932 -0.007341 0.427285
v 0.391614 0.054515 0.109633
v -0.001056 0.035041 0.129721
v 0.185280 -0.024421 0.490800
v -0.042112 -0.014416 0.318014
v -0.064234 0.147712 0.356515
v 0.163158 0.137706 0.529301
v 0.097016 0.047201 0.138485
v 0.324408 0.037196 0.311272
v 0.302286 0.199323 0.349773
v 0.074894 0.209329 0.176986
v 0.324408 0.037196 0.311272
v 0.185280 -0.024421 0.490800
v 0.163158 0.137706 0.529301
v 0.302286 0.199323 0.349773
v -0.042112 -0.014416 0.318014
v 0.097016 0.047201 0.138485
v 0.074894 0.209329 0.176986
v -0.064234 0.147712 0.356515
v 0.163158 0.137706 0.529301
v -0.064234 0.147712 0.356515
v 0.074894 0.209329 0.176986
v 0.302286 0.199323 0.349773
v 0.324408 0.037196 0.311272
v 0.097016 0.047201 0.138485
v -0.042112 -0.014416 0.318014
v 0.185280 -0.024421 0.490800
v -0.487312 0.036781 0.134333
v -0.150484 0.065223 0.056022
v -0.154223 0.261668 0.111291
v -0.491051 0.233225 0.189603
v -0.082070 -0.008709 0.323426
v -0.418898 -0.037152 0.401738
v -0.422637 0.159293 0.457007
v -0.085809 0.187735 0.378696
v -0.418898 -0.037152 0.401738
v -0.487312 0.036781 0.134333
v -0.491051 0.233225 0.189603
v -0.422637 0.159293 0.457007
v -0.150484 0.065223 0.056022
v -0.082070 -0.008709 0.323426
v -0.085809 0.187735 0.378696
v -0.154223 0.261668 0.111291
v -0.491051 0.233225 0.189603
v -0.154223 0.261668 0.111291
v -0.085809 0.187735 0.378696
v -0.422637 0.159293 0.457007
v -0.418898 -0.037152 0.401738
v -0.082070 -0.008709 0.323426
v -0.150484 0.065223 0.056022
v -0.487312 0.036781 0.134333
v -0.332659 0.097531 -0.431356
v 0.012284 0.036554 -0.643743
v 0.078247 0.264543 -0.602068
v -0.266697 0.325520 -0.389681
v 0.169084 -0.060453 -0.361230
v -0.175859 0.000524 -0.148843
v -0.109897 0.228512 -0.107168
v 0.235046 0.167536 -0.319555
v -0.175859 0.000524 -0.148843
v -0.332659 0.097531 -0.431356
v -0.266697 0.325520 -0.389681
v -0.109897 0.228512 -0.107168
v 0.012284 0.036554 -0.643743
v 0.169084 -0.060453 -0.361230
v 0.235046 0.167536 -0.319555
v 0.078247 0.264543 -0.602068
v -0.266697 0.325520 -0.389681
v 0.078247 0.264543 -0.602068
v 0.235046 0.167536 -0.319555
v -0.109897 0.228512 -0.107168
v -0.175859 0.000524 -0.148843
v 0.169084 -0.060453 -0.361230
v 0.012284 0.036554 -0.643743
v -0.332659 0.097531 -0.431356
v 0.017447 0.030296 0.059627
v -0.356574 -0.089114 -0.084537
v -0.447097 0.134141 -0.034604
v -0.073077 0.253552 0.109559
v -0.268799 0.017081 -0.400223
v 0.105222 0.136492 -0.256060
v 0.014698 0.359747 -0.206127
v -0.359322 0.240336 -0.350291
v 0.105222 0.136492 -0.256060
v 0.017447 0.030296 0.059627
v -0.073077 0.253552 0.109559
v 0.014698 0.359747 -0.206127
v -0.356574 -0.089114 -0.084537
v -0.268799 0.017081 -0.400223
v -0.359322 0.240336 -0.350291
v -0.447097 0.134141 -0.034604
v -0.073077 0.253552 0.109559
v -0.447097 0.134141 -0.034604
v -0.359322 0.240336 -0.350291
v 0.014698 0.359747 -0.206127
v 0.105222 0.136492 -0.256060
v -0.268799 0.017081 -0.400223
v -0.356574 -0.089114 -0.084537
v 0.017447 0.030296 0.059627
v -0.012987 0.074210 0.272341
v 0.088978 0.064012 -0.065576
v 0.161541 0.257977 -0.049533
v 0.059576 0.268174 0.288383
v 0.348193 -0.039689 0.015771
v 0.246229 -0.029492 0.353688
v 0.318792 0.164472 0.369730
v 0.420756 0.154275 0.031813
v 0.246229 -0.029492 0.353688
v -0.012987 0.074210 0.272341
v 0.059576 0.268174 0.288383
v 0.318792 0.164472 0.369730
v 0.088978 0.064012 -0.065576
v 0.348193 -0.039689 0.015771
v 0.420756 0.154275 0.031813
v 0.161541 0.257977 -0.049533
v 0.059576 0.268174 0.288383
v 0.161541 0.257977 -0.049533
v 0.420756 0.154275 0.031813
v 0.318792 0.164472 0.369730
v 0.246229 -0.029492 0.353688
v 0.348193 -0.039689 0.015771
v 0.088978 0.064012 -0.065576
v -0.012987 0.074210 0.272341
v 0.140542 -0.022991 0.317267
v 0.357960 -0.019133 -0.038313
v 0.312848 0.220559 -0.063296
v 0.095430 0.216701 0.292283
v 0.643916 0.052993 0.137317
v 0.426498 0.049135 0.492896
v 0.381385 0.288827 0.467913
v 0.598804 0.292685 0.112334
v 0.426498 0.049135 0.492896
v 0.140542 -0.022991 0.317267
v 0.095430 0.216701 0.292283
v 0.381385 0.288827 0.467913
v 0.357960 -0.019133 -0.038313
v 0.643916 0.052993 0.137317
v 0.598804 0.292685 0.112334
v 0.312848 0.220559 -0.063296
v 0.095430 0.216701 0.292283
v 0.312848 0.220559 -0.063296
v 0.598804 0.292685 0.112334
v 0.381385 0.288827 0.467913
v 0.426498 0.049135 0.492896
v 0.643916 0.052993 0.137317
v 0.357960 -0.019133 -0.038313
v 0.140542 -0.022991 0.317267
v -0.230760 0.071901 -0.168044
v -0.152601 0.057256 -0.414800
v -0.084135 0.192840 -0.401160
v -0.162293 0.207485 -0.154405
v 0.026987 -0.039734 -0.352159
v -0.051171 -0.025088 -0.105404
v 0.017296 0.110495 -0.091764
v 0.095454 0.095850 -0.338520
v -0.051171 -0.025088 -0.105404
v -0.230760 0.071901 -0.168044
v -0.162293 0.207485 -0.154405
v 0.017296 0.110495 -0.091764
v -0.152601 0.057256 -0.414800
v 0.026987 -0.039734 -0.352159
v 0.095454 0.095850 -0.338520
v -0.084135 0.192840 -0.401160
v -0.162293 0.207485 -0.154405
v -0.084135 0.192840 -0.401160
v 0.095454 0.095850 -0.338520
v 0.017296 0.110495 -0.091764
v -0.051171 -0.025088 -0.105404
v 0.026987 -0.039734 -0.352159
v -0.152601 0.057256 -0.414800
v -0.230760 0.071901 -0.168044
v -0.552845 0.112780 0.246561
v -0.617141 0.133546 -0.160322
v -0.486029 0.337429 -0.170634
v -0.421734 0.316662 0.236248
v -0.336288 -0.049780 -0.214059
v -0.271992 -0.070547 0.192824
v -0.140881 0.133336 0.182511
v -0.205177 0.154102 -0.224371
v -0.271992 -0.070547 0.192824
v -0.552845 0.112780 0.246561
v -0.421734 0.316662 0.236248
v -0.140881 0.133336 0.182511
v -0.617141 0.133546 -0.160322
v -0.336288 -0.049780 -0.214059
v -0.205177 0.154102 -0.224371
v -0.486029 0.337429 -0.170634
v -0.421734 0.316662 0.236248
v -0.486029 0.337429 -0.170634
v -0.205177 0.154102 -0.224371
v -0.140881 0.133336 0.182511
v -0.271992 -0.070547 0.192824
v -0.336288 -0.049780 -0.214059
v -0.617141 0.133546 -0.160322
v -0.552845 0.112780 0.246561
vt 0.000000 0.000000
vt 1.000000 0.000000
vt 1.000000 1.000000
vt 0.000000 1.000000
vt 0.000000 0.000000
vt 1.000000 0.000000
vt 1.000000 1.000000
vt 0.000000 1.000000
vt 0.000000 0.000000
vt 1.000000 0.000000
vt 1.000000 1.000000
vt 0.000000 1.000000
vt 0.000000 0.000000
vt 1.000000 0.000000
vt 1.000000 1.000000
vt 0.000000 1.000000
vt 0.000000 0.000000
vt 1.000000 0.000000
vt 1.000000 1.000000
vt 0.000000 1.000000
vt 0.000000 0.000000
vt 1.000000 0.000000
vt 1.000000 1.000000
vt 0.000000 1.000000
vt 0.000000 0.000000
vt 1.000000 0.000000
vt 1.000000 1.000000
vt 0.000000 1.000000
vt 0.000000 0.000000
vt 1.000000 0.000000
vt 1.000000 1.000000
vt 0.000000 1.000000
vt 0.000000 0.000000
vt 1.000000 0.000000
vt 1.000000 1.000000
vt 0.000000 1.000000
vt 0.000000 0.000000
vt 1.000000 0.000000
vt 1.000000 1.000000
vt 0.000000 1.000000
vt 0.000000 0.000000
vt 1.000000 0.000000
vt 1.000000 1.000000
vt 0.000000 1.000000
vt 0.000000 0.000000
vt 1.000000 0.000000
vt 1.000000 1.000000
vt 0.000000 1.000000
vt 0.000000 0.000000
vt 1.000000 0.000000
vt 1.000000 1.000000
vt 0.000000 1.000000
vt 0.000000 0.000000
vt 1.000000 0.000000
vt 1.000000 1.000000
vt 0.000000 1.000000
vt 0.000000 0.000000
vt 1.000000 0.000000
vt 1.000000 1.000000
vt 0.000000 1.000000
vt 0.000000 0.000000
vt 1.000000 0.000000
vt 1.000000 1.000000
vt 0.000000 1.000000
vt 0.000000 0.000000
vt 1.000000 0.000000
vt 1.000000 1.000000
vt 0.000000 1.000000
vt 0.000000 0.000000
vt 1.000000 0.000000
vt 1.000000 1.000000
vt 0.000000 1.000000
vt 0.000000 0.000000
vt 1.000000 0.000000
vt 1.000000 1.000000
vt 0.000000 1.000000
vt 0.000000 0.000000
vt 1.000000 0.000000
vt 1.000000 1.000000
vt 0.000000 1.000000
vt 0.000000 0.000000
vt 1.000000 0.000000
vt 1.000000 1.000000
vt 0.000000 1.000000
vt 0.000000 0.000000
vt 1.000000 0.000000
vt 1.000000 1.000000
vt 0.000000 1.000000
vt 0.000000 0.000000
vt 1.000000 0.000000
vt 1.000000 1.000000
vt 0.000000 1.000000
vt 0.000000 0.000000
vt 1.000000 0.000000
vt 1.000000 1.000000
vt 0.000000 1.000000
vt 0.000000 0.000000
vt 1.000000 0.000000
vt 1.000000 1.000000
vt 0.000000 1.000000
vt 0.000000 0.000000
vt 1.000000 0.000000
vt 1.000000 1.000000
vt 0.000000 1.000000
vt 0.000000 0.000000
vt 1.000000 0.000000
vt 1.000000 1.000000
vt 0.000000 1.000000
vt 0.000000 0.000000
vt 1.000000 0.000000
vt 1.000000 1.000000
vt 0.000000 1.000000
vt 0.000000 0.000000
vt 1.000000 0.000000
vt 1.000000 1.000000
vt 0.000000 1.000000
vt 0.000000 0.000000
vt 1.000000 0.000000
vt 1.000000 1.000000
vt 0.000000 1.000000
vt 0.000000 0.000000
vt 1.000000 0.000000
vt 1.000000 1.000000
vt 0.000000 1.000000
vt 0.000000 0.000000
vt 1.000000 0.000000
vt 1.000000 1.000000
vt 0.000000 1.000000
vt 0.000000 0.000000
vt 1.000000 0.000000
vt 1.000000 1.000000
vt 0.000000 1.000000
vt 0.000000 0.000000
vt 1.000000 0.000000
vt 1.000000 1.000000
vt 0.000000 1.000000
vt 0.000000 0.000000
vt 1.000000 0.000000
vt 1.000000 1.000000
vt 0.000000 1.000000
vt 0.000000 0.000000
vt 1.000000 0.000000
vt 1.000000 1.000000
vt 0.000000 1.000000
vt 0.000000 0.000000
vt 1.000000 0.000000
vt 1.000000 1.000000
vt 0.000000 1.000000
vt 0.000000 0.000000
vt 1.000000 0.000000
vt 1.000000 1.000000
vt 0.000000 1.000000
vt 0.000000 0.000000
vt 1.000000 0.000000
vt 1.000000 1.000000
vt 0.000000 1.000000
vt 0.000000 0.000000
vt 1.000000 0.000000
vt 1.000000 1.000000
vt 0.000000 1.000000
vt 0.000000 0.000000
vt 1.000000 0.000000
vt 1.000000 1.000000
vt 0.000000 1.000000
vt 0.000000 0.000000
vt 1.000000 0.000000
vt 1.000000 1.000000
vt 0.000000 1.000000
vt 0.000000 0.000000
vt 1.000000 0.000000
vt 1.000000 1.000000
vt 0.000000 1.000000
vt 0.000000 0.000000
vt 1.000000 0.000000
vt 1.000000 1.000000
vt 0.000000 1.000000
vt 0.000000 0.000000
vt 1.000000 0.000000
vt 1.000000 1.000000
vt 0.000000 1.000000
vt 0.000000 0.000000
vt 1.000000 0.000000
vt 1.000000 1.000000
vt 0.000000 1.000000
vt 0.000000 0.000000
vt 1.000000 0.000000
vt 1.000000 1.000000
vt 0.000000 1.000000
vt 0.000000 0.000000
vt 1.000000 0.000000
vt 1.000000 1.000000
vt 0.000000 1.000000
vt 0.000000 0.000000
vt 1.000000 0.000000
vt 1.000000 1.000000
vt 0.000000 1.000000
vt 0.000000 0.000000
vt 1.000000 0.000000
vt 1.000000 1.000000
vt 0.000000 1.000000
vt 0.000000 0.000000
vt 1.000000 0.000000
vt 1.000000 1.000000
vt 0.000000 1.000000
vt 0.000000 0.000000
vt 1.000000 0.000000
vt 1.000000 1.000000
vt 0.000000 1.000000
vt 0.000000 0.000000
vt 1.000000 0.000000
vt 1.000000 1.000000
vt 0.000000 1.000000
vt 0.000000 0.000000
vt 1.000000 0.000000
vt 1.000000 1.000000
vt 0.000000 1.000000
usemtl Stone
f 1/1 2/2 3/3
f 1/1 3/3 4/4
f 5/5 6/6 7/7
f 5/5 7/7 8/8
f 9/9 10/10 11/11
f 9/9 11/11 12/12
f 13/13 14/14 15/15
f 13/13 15/15 16/16
f 17/17 18/18 19/19
f 17/17 19/19 20/20
f 21/21 22/22 23/23
f 21/21 23/23 24/24
f 25/25 26/26 27/27
f 25/25 27/27 28/28
f 29/29 30/30 31/31
f 29/29 31/31 32/32
f 33/33 34/34 35/35
f 33/33 35/35 36/36
f 37/37 38/38 39/39
f 37/37 39/39 40/40
f 41/41 42/42 43/43
f 41/41 43/43 44/44
f 45/45 46/46 47/47
f 45/45 47/47 48/48
f 49/49 50/50 51/51
f 49/49 51/51 52/52
f 53/53 54/54 55/55
f 53/53 55/55 56/56
f 57/57 58/58 59/59
f 57/57 59/59 60/60
f 61/61 62/62 63/63
f 61/61 63/63 64/64
f 65/65 66/66 67/67
f 65/65 67/67 68/68
f 69/69 70/70 71/71
f 69/69 71/71 72/72
f 73/73 74/74 75/75
f 73/73 75/75 76/76
f 77/77 78/78 79/79
f 77/77 79/79 80/80
f 81/81 82/82 83/83
f 81/81 83/83 84/84
f 85/85 86/86 87/87
f 85/85 87/87 88/88
f 89/89 90/90 91/91
f 89/89 91/91 92/92
f 93/93 94/94 95/95
f 93/93 95/95 96/96
f 97/97 98/98 99/99
f 97/97 99/99 100/100
f 101/101 102/102 103/103
f 101/101 103/103 104/104
f 105/105 106/106 107/107
f 105/105 107/107 108/108
f 109/109 110/110 111/111
f 109/109 111/111 112/112
f 113/113 114/114 115/115
f 113/113 115/115 116/116
f 117/117 118/118 119/119
f 117/117 119/119 120/120
f 121/121 122/122 123/123
f 121/121 123/123 124/124
f 125/125 126/126 127/127
f 125/125 127/127 128/128
f 129/129 130/130 131/131
f 129/129 131/131 132/132
f 133/133 134/134 135/135
f 133/133 135/135 136/136
f 137/137 138/138 139/139
f 137/137 139/139 140/140
f 141/141 142/142 143/143
f 141/141 143/143 144/144
f 145/145 146/146 147/147
f 145/145 147/147 148/148
f 149/149 150/150 151/151
f 149/149 151/151 152/152
f 153/153 154/154 155/155
f 153/153 155/155 156/156
f 157/157 158/158 159/159
f 157/157 159/159 160/160
f 161/161 162/162 163/163
f 161/161 163/163 164/164
f 165/165 166/166 167/167
f 165/165 167/167 168/168
f 169/169 170/170 171/171
f 169/169 171/171 172/172
f 173/173 174/174 175/175
f 173/173 175/175 176/176
f 177/177 178/178 179/179
f 177/177 179/179 180/180
f 181/181 182/182 183/183
f 181/181 183/183 184/184
f 185/185 186/186 187/187
f 185/185 187/187 188/188
f 189/189 190/190 191/191
f 189/189 191/191 192/192
f 193/193 194/194 195/195
f 193/193 195/195 196/196
f 197/197 198/198 199/199
f 197/197 199/199 200/200
f 201/201 202/202 203/203
f 201/201 203/203 204/204
f 205/205 206/206 207/207
f 205/205 207/207 208/208
f 209/209 210/210 211/211
f 209/209 211/211 212/212
f 213/213 214/214 215/215
f 213/213 215/215 216/216
