mtllib ../../Materials/project_oen.mtl
o pr-012_scrap_metal_bundle__small
v -0.374502 0.061772 -0.174880
v 0.078988 -0.001962 0.111276
v 0.083859 0.032697 0.111276
v -0.369631 0.096431 -0.174880
v 0.039631 0.003569 0.174880
v -0.413859 0.067303 -0.111276
v -0.408988 0.101962 -0.111276
v 0.044502 0.038228 0.174880
v -0.413859 0.067303 -0.111276
v -0.374502 0.061772 -0.174880
v -0.369631 0.096431 -0.174880
v -0.408988 0.101962 -0.111276
v 0.078988 -0.001962 0.111276
v 0.039631 0.003569 0.174880
v 0.044502 0.038228 0.174880
v 0.083859 0.032697 0.111276
v -0.369631 0.096431 -0.174880
v 0.083859 0.032697 0.111276
v 0.044502 0.038228 0.174880
v -0.408988 0.101962 -0.111276
v -0.413859 0.067303 -0.111276
v 0.039631 0.003569 0.174880
v 0.078988 -0.001962 0.111276
v -0.374502 0.061772 -0.174880
v 0.190390 0.016324 0.039667
v 0.188296 0.009878 0.053740
v -0.401359 0.201469 0.053740
v -0.399265 0.207914 0.039667
v 0.188296 0.009878 0.053740
v 0.183590 -0.004605 0.057215
v -0.406065 0.186986 0.057215
v -0.401359 0.201469 0.053740
v 0.183590 -0.004605 0.057215
v 0.179816 -0.016219 0.047476
v -0.409839 0.175372 0.047476
v -0.406065 0.186986 0.057215
v 0.179816 -0.016219 0.047476
v 0.179816 -0.016219 0.031857
v -0.409839 0.175372 0.031857
v -0.409839 0.175372 0.047476
v 0.179816 -0.016219 0.031857
v 0.183590 -0.004605 0.022118
v -0.406065 0.186986 0.022118
v -0.409839 0.175372 0.031857
v 0.183590 -0.004605 0.022118
v 0.188296 0.009878 0.025594
v -0.401359 0.201469 0.025594
v -0.406065 0.186986 0.022118
v 0.188296 0.009878 0.025594
v 0.190390 0.016324 0.039667
v -0.399265 0.207914 0.039667
v -0.401359 0.201469 0.025594
v 0.184828 -0.000795 0.039667
v 0.188296 0.009878 0.053740
v 0.190390 0.016324 0.039667
v -0.404828 0.190795 0.039667
v -0.399265 0.207914 0.039667
v -0.401359 0.201469 0.053740
v 0.184828 -0.000795 0.039667
v 0.183590 -0.004605 0.057215
v 0.188296 0.009878 0.053740
v -0.404828 0.190795 0.039667
v -0.401359 0.201469 0.053740
v -0.406065 0.186986 0.057215
v 0.184828 -0.000795 0.039667
v 0.179816 -0.016219 0.047476
v 0.183590 -0.004605 0.057215
v -0.404828 0.190795 0.039667
v -0.406065 0.186986 0.057215
v -0.409839 0.175372 0.047476
v 0.184828 -0.000795 0.039667
v 0.179816 -0.016219 0.031857
v 0.179816 -0.016219 0.047476
v -0.404828 0.190795 0.039667
v -0.409839 0.175372 0.047476
v -0.409839 0.175372 0.031857
v 0.184828 -0.000795 0.039667
v 0.183590 -0.004605 0.022118
v 0.179816 -0.016219 0.031857
v -0.404828 0.190795 0.039667
v -0.409839 0.175372 0.031857
v -0.406065 0.186986 0.022118
v 0.184828 -0.000795 0.039667
v 0.188296 0.009878 0.025594
v 0.183590 -0.004605 0.022118
v -0.404828 0.190795 0.039667
v -0.406065 0.186986 0.022118
v -0.401359 0.201469 0.025594
v 0.184828 -0.000795 0.039667
v 0.190390 0.016324 0.039667
v 0.188296 0.009878 0.025594
v -0.404828 0.190795 0.039667
v -0.401359 0.201469 0.025594
v -0.399265 0.207914 0.039667
v -0.309156 0.086609 0.074434
v 0.171469 0.154156 -0.162287
v 0.166598 0.188816 -0.162287
v -0.314027 0.121268 0.074434
v 0.204027 0.158732 -0.094877
v -0.276598 0.091184 0.141843
v -0.281469 0.125844 0.141843
v 0.199156 0.193391 -0.094877
v -0.276598 0.091184 0.141843
v -0.309156 0.086609 0.074434
v -0.314027 0.121268 0.074434
v -0.281469 0.125844 0.141843
v 0.171469 0.154156 -0.162287
v 0.204027 0.158732 -0.094877
v 0.199156 0.193391 -0.094877
v 0.166598 0.188816 -0.162287
v -0.314027 0.121268 0.074434
v 0.166598 0.188816 -0.162287
v 0.199156 0.193391 -0.094877
v -0.281469 0.125844 0.141843
v -0.276598 0.091184 0.141843
v 0.204027 0.158732 -0.094877
v 0.171469 0.154156 -0.162287
v -0.309156 0.086609 0.074434
v 0.293030 0.152750 -0.037033
v 0.294898 0.146236 -0.022960
v -0.301085 -0.024660 -0.022960
v -0.302953 -0.018145 -0.037033
v 0.294898 0.146236 -0.022960
v 0.299095 0.131597 -0.019484
v -0.296887 -0.039298 -0.019484
v -0.301085 -0.024660 -0.022960
v 0.299095 0.131597 -0.019484
v 0.302461 0.119858 -0.029223
v -0.293521 -0.051037 -0.029223
v -0.296887 -0.039298 -0.019484
v 0.302461 0.119858 -0.029223
v 0.302461 0.119858 -0.044842
v -0.293521 -0.051037 -0.044842
v -0.293521 -0.051037 -0.029223
v 0.302461 0.119858 -0.044842
v 0.299095 0.131597 -0.054581
v -0.296887 -0.039298 -0.054581
v -0.293521 -0.051037 -0.044842
v 0.299095 0.131597 -0.054581
v 0.294898 0.146236 -0.051106
v -0.301085 -0.024660 -0.051106
v -0.296887 -0.039298 -0.054581
v 0.294898 0.146236 -0.051106
v 0.293030 0.152750 -0.037033
v -0.302953 -0.018145 -0.037033
v -0.301085 -0.024660 -0.051106
v 0.297991 0.135448 -0.037033
v 0.294898 0.146236 -0.022960
v 0.293030 0.152750 -0.037033
v -0.297991 -0.035448 -0.037033
v -0.302953 -0.018145 -0.037033
v -0.301085 -0.024660 -0.022960
v 0.297991 0.135448 -0.037033
v 0.299095 0.131597 -0.019484
v 0.294898 0.146236 -0.022960
v -0.297991 -0.035448 -0.037033
v -0.301085 -0.024660 -0.022960
v -0.296887 -0.039298 -0.019484
v 0.297991 0.135448 -0.037033
v 0.302461 0.119858 -0.029223
v 0.299095 0.131597 -0.019484
v -0.297991 -0.035448 -0.037033
v -0.296887 -0.039298 -0.019484
v -0.293521 -0.051037 -0.029223
v 0.297991 0.135448 -0.037033
v 0.302461 0.119858 -0.044842
v 0.302461 0.119858 -0.029223
v -0.297991 -0.035448 -0.037033
v -0.293521 -0.051037 -0.029223
v -0.293521 -0.051037 -0.044842
v 0.297991 0.135448 -0.037033
v 0.299095 0.131597 -0.054581
v 0.302461 0.119858 -0.044842
v -0.297991 -0.035448 -0.037033
v -0.293521 -0.051037 -0.044842
v -0.296887 -0.039298 -0.054581
v 0.297991 0.135448 -0.037033
v 0.294898 0.146236 -0.051106
v 0.299095 0.131597 -0.054581
v -0.297991 -0.035448 -0.037033
v -0.296887 -0.039298 -0.054581
v -0.301085 -0.024660 -0.051106
v 0.297991 0.135448 -0.037033
v 0.293030 0.152750 -0.037033
v 0.294898 0.146236 -0.051106
v -0.297991 -0.035448 -0.037033
v -0.301085 -0.024660 -0.051106
v -0.302953 -0.018145 -0.037033
v -0.211543 0.077500 0.076871
v 0.295891 0.077500 -0.107819
v 0.295891 0.112500 -0.107819
v -0.211543 0.112500 0.076871
v 0.321543 0.077500 -0.037342
v -0.185891 0.077500 0.147348
v -0.185891 0.112500 0.147348
v 0.321543 0.112500 -0.037342
v -0.185891 0.077500 0.147348
v -0.211543 0.077500 0.076871
v -0.211543 0.112500 0.076871
v -0.185891 0.112500 0.147348
v 0.295891 0.077500 -0.107819
v 0.321543 0.077500 -0.037342
v 0.321543 0.112500 -0.037342
v 0.295891 0.112500 -0.107819
v -0.211543 0.112500 0.076871
v 0.295891 0.112500 -0.107819
v 0.321543 0.112500 -0.037342
v -0.185891 0.112500 0.147348
v -0.185891 0.077500 0.147348
v 0.321543 0.077500 -0.037342
v 0.295891 0.077500 -0.107819
v -0.211543 0.077500 0.076871
v 0.407461 0.050888 0.031939
v 0.405143 0.044520 0.046012
v -0.177466 0.256572 0.046012
v -0.175148 0.262941 0.031939
v 0.405143 0.044520 0.046012
v 0.399935 0.030210 0.049488
v -0.182675 0.242262 0.049488
v -0.177466 0.256572 0.046012
v 0.399935 0.030210 0.049488
v 0.395758 0.018734 0.039749
v -0.186851 0.230787 0.039749
v -0.182675 0.242262 0.049488
v 0.395758 0.018734 0.039749
v 0.395758 0.018734 0.024130
v -0.186851 0.230787 0.024130
v -0.186851 0.230787 0.039749
v 0.395758 0.018734 0.024130
v 0.399935 0.030210 0.014391
v -0.182675 0.242262 0.014391
v -0.186851 0.230787 0.024130
v 0.399935 0.030210 0.014391
v 0.405143 0.044520 0.017867
v -0.177466 0.256572 0.017867
v -0.182675 0.242262 0.014391
v 0.405143 0.044520 0.017867
v 0.407461 0.050888 0.031939
v -0.175148 0.262941 0.031939
v -0.177466 0.256572 0.017867
v 0.401305 0.033974 0.031939
v 0.405143 0.044520 0.046012
v 0.407461 0.050888 0.031939
v -0.181305 0.246026 0.031939
v -0.175148 0.262941 0.031939
v -0.177466 0.256572 0.046012
v 0.401305 0.033974 0.031939
v 0.399935 0.030210 0.049488
v 0.405143 0.044520 0.046012
v -0.181305 0.246026 0.031939
v -0.177466 0.256572 0.046012
v -0.182675 0.242262 0.049488
v 0.401305 0.033974 0.031939
v 0.395758 0.018734 0.039749
v 0.399935 0.030210 0.049488
v -0.181305 0.246026 0.031939
v -0.182675 0.242262 0.049488
v -0.186851 0.230787 0.039749
v 0.401305 0.033974 0.031939
v 0.395758 0.018734 0.024130
v 0.395758 0.018734 0.039749
v -0.181305 0.246026 0.031939
v -0.186851 0.230787 0.039749
v -0.186851 0.230787 0.024130
v 0.401305 0.033974 0.031939
v 0.399935 0.030210 0.014391
v 0.395758 0.018734 0.024130
v -0.181305 0.246026 0.031939
v -0.186851 0.230787 0.024130
v -0.182675 0.242262 0.014391
v 0.401305 0.033974 0.031939
v 0.405143 0.044520 0.017867
v 0.399935 0.030210 0.014391
v -0.181305 0.246026 0.031939
v -0.182675 0.242262 0.014391
v -0.177466 0.256572 0.017867
v 0.401305 0.033974 0.031939
v 0.407461 0.050888 0.031939
v 0.405143 0.044520 0.017867
v -0.181305 0.246026 0.031939
v -0.177466 0.256572 0.017867
v -0.175148 0.262941 0.031939
v 0.194000 0.110000 0.000000
v 0.174788 0.025827 0.000000
v 0.166072 0.030024 0.013315
v 0.184326 0.110000 0.013315
v 0.184326 0.110000 0.013315
v 0.166072 0.030024 0.013315
v 0.151970 0.036815 0.008229
v 0.168674 0.110000 0.008229
v 0.168674 0.110000 0.008229
v 0.151970 0.036815 0.008229
v 0.151970 0.036815 -0.008229
v 0.168674 0.110000 -0.008229
v 0.168674 0.110000 -0.008229
v 0.151970 0.036815 -0.008229
v 0.166072 0.030024 -0.013315
v 0.184326 0.110000 -0.013315
v 0.184326 0.110000 -0.013315
v 0.166072 0.030024 -0.013315
v 0.174788 0.025827 0.000000
v 0.194000 0.110000 0.000000
v 0.174788 0.025827 0.000000
v 0.120957 -0.041675 0.000000
v 0.114926 -0.034112 0.013315
v 0.166072 0.030024 0.013315
v 0.166072 0.030024 0.013315
v 0.114926 -0.034112 0.013315
v 0.105166 -0.021874 0.008229
v 0.151970 0.036815 0.008229
v 0.151970 0.036815 0.008229
v 0.105166 -0.021874 0.008229
v 0.105166 -0.021874 -0.008229
v 0.151970 0.036815 -0.008229
v 0.151970 0.036815 -0.008229
v 0.105166 -0.021874 -0.008229
v 0.114926 -0.034112 -0.013315
v 0.166072 0.030024 -0.013315
v 0.166072 0.030024 -0.013315
v 0.114926 -0.034112 -0.013315
v 0.120957 -0.041675 0.000000
v 0.174788 0.025827 0.000000
v 0.120957 -0.041675 0.000000
v 0.043169 -0.079136 0.000000
v 0.041016 -0.069705 0.013315
v 0.114926 -0.034112 0.013315
v 0.114926 -0.034112 0.013315
v 0.041016 -0.069705 0.013315
v 0.037533 -0.054445 0.008229
v 0.105166 -0.021874 0.008229
v 0.105166 -0.021874 0.008229
v 0.037533 -0.054445 0.008229
v 0.037533 -0.054445 -0.008229
v 0.105166 -0.021874 -0.008229
v 0.105166 -0.021874 -0.008229
v 0.037533 -0.054445 -0.008229
v 0.041016 -0.069705 -0.013315
v 0.114926 -0.034112 -0.013315
v 0.114926 -0.034112 -0.013315
v 0.041016 -0.069705 -0.013315
v 0.043169 -0.079136 0.000000
v 0.120957 -0.041675 0.000000
v 0.043169 -0.079136 0.000000
v -0.043169 -0.079136 0.000000
v -0.041016 -0.069705 0.013315
v 0.041016 -0.069705 0.013315
v 0.041016 -0.069705 0.013315
v -0.041016 -0.069705 0.013315
v -0.037533 -0.054445 0.008229
v 0.037533 -0.054445 0.008229
v 0.037533 -0.054445 0.008229
v -0.037533 -0.054445 0.008229
v -0.037533 -0.054445 -0.008229
v 0.037533 -0.054445 -0.008229
v 0.037533 -0.054445 -0.008229
v -0.037533 -0.054445 -0.008229
v -0.041016 -0.069705 -0.013315
v 0.041016 -0.069705 -0.013315
v 0.041016 -0.069705 -0.013315
v -0.041016 -0.069705 -0.013315
v -0.043169 -0.079136 0.000000
v 0.043169 -0.079136 0.000000
v -0.043169 -0.079136 0.000000
v -0.120957 -0.041675 0.000000
v -0.114926 -0.034112 0.013315
v -0.041016 -0.069705 0.013315
v -0.041016 -0.069705 0.013315
v -0.114926 -0.034112 0.013315
v -0.105166 -0.021874 0.008229
v -0.037533 -0.054445 0.008229
v -0.037533 -0.054445 0.008229
v -0.105166 -0.021874 0.008229
v -0.105166 -0.021874 -0.008229
v -0.037533 -0.054445 -0.008229
v -0.037533 -0.054445 -0.008229
v -0.105166 -0.021874 -0.008229
v -0.114926 -0.034112 -0.013315
v -0.041016 -0.069705 -0.013315
v -0.041016 -0.069705 -0.013315
v -0.114926 -0.034112 -0.013315
v -0.120957 -0.041675 0.000000
v -0.043169 -0.079136 0.000000
v -0.120957 -0.041675 0.000000
v -0.174788 0.025827 0.000000
v -0.166072 0.030024 0.013315
v -0.114926 -0.034112 0.013315
v -0.114926 -0.034112 0.013315
v -0.166072 0.030024 0.013315
v -0.151970 0.036815 0.008229
v -0.105166 -0.021874 0.008229
v -0.105166 -0.021874 0.008229
v -0.151970 0.036815 0.008229
v -0.151970 0.036815 -0.008229
v -0.105166 -0.021874 -0.008229
v -0.105166 -0.021874 -0.008229
v -0.151970 0.036815 -0.008229
v -0.166072 0.030024 -0.013315
v -0.114926 -0.034112 -0.013315
v -0.114926 -0.034112 -0.013315
v -0.166072 0.030024 -0.013315
v -0.174788 0.025827 0.000000
v -0.120957 -0.041675 0.000000
v -0.174788 0.025827 0.000000
v -0.194000 0.110000 0.000000
v -0.184326 0.110000 0.013315
v -0.166072 0.030024 0.013315
v -0.166072 0.030024 0.013315
v -0.184326 0.110000 0.013315
v -0.168674 0.110000 0.008229
v -0.151970 0.036815 0.008229
v -0.151970 0.036815 0.008229
v -0.168674 0.110000 0.008229
v -0.168674 0.110000 -0.008229
v -0.151970 0.036815 -0.008229
v -0.151970 0.036815 -0.008229
v -0.168674 0.110000 -0.008229
v -0.184326 0.110000 -0.013315
v -0.166072 0.030024 -0.013315
v -0.166072 0.030024 -0.013315
v -0.184326 0.110000 -0.013315
v -0.194000 0.110000 0.000000
v -0.174788 0.025827 0.000000
v -0.194000 0.110000 0.000000
v -0.174788 0.194173 -0.000000
v -0.166072 0.189976 0.013315
v -0.184326 0.110000 0.013315
v -0.184326 0.110000 0.013315
v -0.166072 0.189976 0.013315
v -0.151970 0.183185 0.008229
v -0.168674 0.110000 0.008229
v -0.168674 0.110000 0.008229
v -0.151970 0.183185 0.008229
v -0.151970 0.183185 -0.008229
v -0.168674 0.110000 -0.008229
v -0.168674 0.110000 -0.008229
v -0.151970 0.183185 -0.008229
v -0.166072 0.189976 -0.013315
v -0.184326 0.110000 -0.013315
v -0.184326 0.110000 -0.013315
v -0.166072 0.189976 -0.013315
v -0.174788 0.194173 -0.000000
v -0.194000 0.110000 0.000000
v -0.174788 0.194173 -0.000000
v -0.120957 0.261675 -0.000000
v -0.114926 0.254112 0.013315
v -0.166072 0.189976 0.013315
v -0.166072 0.189976 0.013315
v -0.114926 0.254112 0.013315
v -0.105166 0.241874 0.008229
v -0.151970 0.183185 0.008229
v -0.151970 0.183185 0.008229
v -0.105166 0.241874 0.008229
v -0.105166 0.241874 -0.008229
v -0.151970 0.183185 -0.008229
v -0.151970 0.183185 -0.008229
v -0.105166 0.241874 -0.008229
v -0.114926 0.254112 -0.013315
v -0.166072 0.189976 -0.013315
v -0.166072 0.189976 -0.013315
v -0.114926 0.254112 -0.013315
v -0.120957 0.261675 -0.000000
v -0.174788 0.194173 -0.000000
v -0.120957 0.261675 -0.000000
v -0.043169 0.299136 -0.000000
v -0.041016 0.289705 0.013315
v -0.114926 0.254112 0.013315
v -0.114926 0.254112 0.013315
v -0.041016 0.289705 0.013315
v -0.037533 0.274445 0.008229
v -0.105166 0.241874 0.008229
v -0.105166 0.241874 0.008229
v -0.037533 0.274445 0.008229
v -0.037533 0.274445 -0.008229
v -0.105166 0.241874 -0.008229
v -0.105166 0.241874 -0.008229
v -0.037533 0.274445 -0.008229
v -0.041016 0.289705 -0.013315
v -0.114926 0.254112 -0.013315
v -0.114926 0.254112 -0.013315
v -0.041016 0.289705 -0.013315
v -0.043169 0.299136 -0.000000
v -0.120957 0.261675 -0.000000
v -0.043169 0.299136 -0.000000
v 0.043169 0.299136 -0.000000
v 0.041016 0.289705 0.013315
v -0.041016 0.289705 0.013315
v -0.041016 0.289705 0.013315
v 0.041016 0.289705 0.013315
v 0.037533 0.274445 0.008229
v -0.037533 0.274445 0.008229
v -0.037533 0.274445 0.008229
v 0.037533 0.274445 0.008229
v 0.037533 0.274445 -0.008229
v -0.037533 0.274445 -0.008229
v -0.037533 0.274445 -0.008229
v 0.037533 0.274445 -0.008229
v 0.041016 0.289705 -0.013315
v -0.041016 0.289705 -0.013315
v -0.041016 0.289705 -0.013315
v 0.041016 0.289705 -0.013315
v 0.043169 0.299136 -0.000000
v -0.043169 0.299136 -0.000000
v 0.043169 0.299136 -0.000000
v 0.120957 0.261675 -0.000000
v 0.114926 0.254112 0.013315
v 0.041016 0.289705 0.013315
v 0.041016 0.289705 0.013315
v 0.114926 0.254112 0.013315
v 0.105166 0.241874 0.008229
v 0.037533 0.274445 0.008229
v 0.037533 0.274445 0.008229
v 0.105166 0.241874 0.008229
v 0.105166 0.241874 -0.008229
v 0.037533 0.274445 -0.008229
v 0.037533 0.274445 -0.008229
v 0.105166 0.241874 -0.008229
v 0.114926 0.254112 -0.013315
v 0.041016 0.289705 -0.013315
v 0.041016 0.289705 -0.013315
v 0.114926 0.254112 -0.013315
v 0.120957 0.261675 -0.000000
v 0.043169 0.299136 -0.000000
v 0.120957 0.261675 -0.000000
v 0.174788 0.194173 -0.000000
v 0.166072 0.189976 0.013315
v 0.114926 0.254112 0.013315
v 0.114926 0.254112 0.013315
v 0.166072 0.189976 0.013315
v 0.151970 0.183185 0.008229
v 0.105166 0.241874 0.008229
v 0.105166 0.241874 0.008229
v 0.151970 0.183185 0.008229
v 0.151970 0.183185 -0.008229
v 0.105166 0.241874 -0.008229
v 0.105166 0.241874 -0.008229
v 0.151970 0.183185 -0.008229
v 0.166072 0.189976 -0.013315
v 0.114926 0.254112 -0.013315
v 0.114926 0.254112 -0.013315
v 0.166072 0.189976 -0.013315
v 0.174788 0.194173 -0.000000
v 0.120957 0.261675 -0.000000
v 0.174788 0.194173 -0.000000
v 0.194000 0.110000 0.000000
v 0.184326 0.110000 0.013315
v 0.166072 0.189976 0.013315
v 0.166072 0.189976 0.013315
v 0.184326 0.110000 0.013315
v 0.168674 0.110000 0.008229
v 0.151970 0.183185 0.008229
v 0.151970 0.183185 0.008229
v 0.168674 0.110000 0.008229
v 0.168674 0.110000 -0.008229
v 0.151970 0.183185 -0.008229
v 0.151970 0.183185 -0.008229
v 0.168674 0.110000 -0.008229
v 0.184326 0.110000 -0.013315
v 0.166072 0.189976 -0.013315
v 0.166072 0.189976 -0.013315
v 0.184326 0.110000 -0.013315
v 0.194000 0.110000 0.000000
v 0.174788 0.194173 -0.000000
vt 0.000000 0.000000
vt 1.000000 0.000000
vt 1.000000 1.000000
vt 0.000000 1.000000
vt 0.000000 0.000000
vt 1.000000 0.000000
vt 1.000000 1.000000
vt 0.000000 1.000000
vt 0.000000 0.000000
vt 1.000000 0.000000
vt 1.000000 1.000000
vt 0.000000 1.000000
vt 0.000000 0.000000
vt 1.000000 0.000000
vt 1.000000 1.000000
vt 0.000000 1.000000
vt 0.000000 0.000000
vt 1.000000 0.000000
vt 1.000000 1.000000
vt 0.000000 1.000000
vt 0.000000 0.000000
vt 1.000000 0.000000
vt 1.000000 1.000000
vt 0.000000 1.000000
vt 0.000000 0.000000
vt 1.000000 0.000000
vt 1.000000 1.000000
vt 0.000000 1.000000
vt 0.000000 0.000000
vt 1.000000 0.000000
vt 1.000000 1.000000
vt 0.000000 1.000000
vt 0.000000 0.000000
vt 1.000000 0.000000
vt 1.000000 1.000000
vt 0.000000 1.000000
vt 0.000000 0.000000
vt 1.000000 0.000000
vt 1.000000 1.000000
vt 0.000000 1.000000
vt 0.000000 0.000000
vt 1.000000 0.000000
vt 1.000000 1.000000
vt 0.000000 1.000000
vt 0.000000 0.000000
vt 1.000000 0.000000
vt 1.000000 1.000000
vt 0.000000 1.000000
vt 0.000000 0.000000
vt 1.000000 0.000000
vt 1.000000 1.000000
vt 0.000000 1.000000
vt 0.500000 0.500000
vt 0.000000 0.000000
vt 1.000000 0.000000
vt 0.500000 0.500000
vt 0.000000 1.000000
vt 1.000000 1.000000
vt 0.500000 0.500000
vt 0.000000 0.000000
vt 1.000000 0.000000
vt 0.500000 0.500000
vt 0.000000 1.000000
vt 1.000000 1.000000
vt 0.500000 0.500000
vt 0.000000 0.000000
vt 1.000000 0.000000
vt 0.500000 0.500000
vt 0.000000 1.000000
vt 1.000000 1.000000
vt 0.500000 0.500000
vt 0.000000 0.000000
vt 1.000000 0.000000
vt 0.500000 0.500000
vt 0.000000 1.000000
vt 1.000000 1.000000
vt 0.500000 0.500000
vt 0.000000 0.000000
vt 1.000000 0.000000
vt 0.500000 0.500000
vt 0.000000 1.000000
vt 1.000000 1.000000
vt 0.500000 0.500000
vt 0.000000 0.000000
vt 1.000000 0.000000
vt 0.500000 0.500000
vt 0.000000 1.000000
vt 1.000000 1.000000
vt 0.500000 0.500000
vt 0.000000 0.000000
vt 1.000000 0.000000
vt 0.500000 0.500000
vt 0.000000 1.000000
vt 1.000000 1.000000
vt 0.000000 0.000000
vt 1.000000 0.000000
vt 1.000000 1.000000
vt 0.000000 1.000000
vt 0.000000 0.000000
vt 1.000000 0.000000
vt 1.000000 1.000000
vt 0.000000 1.000000
vt 0.000000 0.000000
vt 1.000000 0.000000
vt 1.000000 1.000000
vt 0.000000 1.000000
vt 0.000000 0.000000
vt 1.000000 0.000000
vt 1.000000 1.000000
vt 0.000000 1.000000
vt 0.000000 0.000000
vt 1.000000 0.000000
vt 1.000000 1.000000
vt 0.000000 1.000000
vt 0.000000 0.000000
vt 1.000000 0.000000
vt 1.000000 1.000000
vt 0.000000 1.000000
vt 0.000000 0.000000
vt 1.000000 0.000000
vt 1.000000 1.000000
vt 0.000000 1.000000
vt 0.000000 0.000000
vt 1.000000 0.000000
vt 1.000000 1.000000
vt 0.000000 1.000000
vt 0.000000 0.000000
vt 1.000000 0.000000
vt 1.000000 1.000000
vt 0.000000 1.000000
vt 0.000000 0.000000
vt 1.000000 0.000000
vt 1.000000 1.000000
vt 0.000000 1.000000
vt 0.000000 0.000000
vt 1.000000 0.000000
vt 1.000000 1.000000
vt 0.000000 1.000000
vt 0.000000 0.000000
vt 1.000000 0.000000
vt 1.000000 1.000000
vt 0.000000 1.000000
vt 0.000000 0.000000
vt 1.000000 0.000000
vt 1.000000 1.000000
vt 0.000000 1.000000
vt 0.500000 0.500000
vt 0.000000 0.000000
vt 1.000000 0.000000
vt 0.500000 0.500000
vt 0.000000 1.000000
vt 1.000000 1.000000
vt 0.500000 0.500000
vt 0.000000 0.000000
vt 1.000000 0.000000
vt 0.500000 0.500000
vt 0.000000 1.000000
vt 1.000000 1.000000
vt 0.500000 0.500000
vt 0.000000 0.000000
vt 1.000000 0.000000
vt 0.500000 0.500000
vt 0.000000 1.000000
vt 1.000000 1.000000
vt 0.500000 0.500000
vt 0.000000 0.000000
vt 1.000000 0.000000
vt 0.500000 0.500000
vt 0.000000 1.000000
vt 1.000000 1.000000
vt 0.500000 0.500000
vt 0.000000 0.000000
vt 1.000000 0.000000
vt 0.500000 0.500000
vt 0.000000 1.000000
vt 1.000000 1.000000
vt 0.500000 0.500000
vt 0.000000 0.000000
vt 1.000000 0.000000
vt 0.500000 0.500000
vt 0.000000 1.000000
vt 1.000000 1.000000
vt 0.500000 0.500000
vt 0.000000 0.000000
vt 1.000000 0.000000
vt 0.500000 0.500000
vt 0.000000 1.000000
vt 1.000000 1.000000
vt 0.000000 0.000000
vt 1.000000 0.000000
vt 1.000000 1.000000
vt 0.000000 1.000000
vt 0.000000 0.000000
vt 1.000000 0.000000
vt 1.000000 1.000000
vt 0.000000 1.000000
vt 0.000000 0.000000
vt 1.000000 0.000000
vt 1.000000 1.000000
vt 0.000000 1.000000
vt 0.000000 0.000000
vt 1.000000 0.000000
vt 1.000000 1.000000
vt 0.000000 1.000000
vt 0.000000 0.000000
vt 1.000000 0.000000
vt 1.000000 1.000000
vt 0.000000 1.000000
vt 0.000000 0.000000
vt 1.000000 0.000000
vt 1.000000 1.000000
vt 0.000000 1.000000
vt 0.000000 0.000000
vt 1.000000 0.000000
vt 1.000000 1.000000
vt 0.000000 1.000000
vt 0.000000 0.000000
vt 1.000000 0.000000
vt 1.000000 1.000000
vt 0.000000 1.000000
vt 0.000000 0.000000
vt 1.000000 0.000000
vt 1.000000 1.000000
vt 0.000000 1.000000
vt 0.000000 0.000000
vt 1.000000 0.000000
vt 1.000000 1.000000
vt 0.000000 1.000000
vt 0.000000 0.000000
vt 1.000000 0.000000
vt 1.000000 1.000000
vt 0.000000 1.000000
vt 0.000000 0.000000
vt 1.000000 0.000000
vt 1.000000 1.000000
vt 0.000000 1.000000
vt 0.000000 0.000000
vt 1.000000 0.000000
vt 1.000000 1.000000
vt 0.000000 1.000000
vt 0.500000 0.500000
vt 0.000000 0.000000
vt 1.000000 0.000000
vt 0.500000 0.500000
vt 0.000000 1.000000
vt 1.000000 1.000000
vt 0.500000 0.500000
vt 0.000000 0.000000
vt 1.000000 0.000000
vt 0.500000 0.500000
vt 0.000000 1.000000
vt 1.000000 1.000000
vt 0.500000 0.500000
vt 0.000000 0.000000
vt 1.000000 0.000000
vt 0.500000 0.500000
vt 0.000000 1.000000
vt 1.000000 1.000000
vt 0.500000 0.500000
vt 0.000000 0.000000
vt 1.000000 0.000000
vt 0.500000 0.500000
vt 0.000000 1.000000
vt 1.000000 1.000000
vt 0.500000 0.500000
vt 0.000000 0.000000
vt 1.000000 0.000000
vt 0.500000 0.500000
vt 0.000000 1.000000
vt 1.000000 1.000000
vt 0.500000 0.500000
vt 0.000000 0.000000
vt 1.000000 0.000000
vt 0.500000 0.500000
vt 0.000000 1.000000
vt 1.000000 1.000000
vt 0.500000 0.500000
vt 0.000000 0.000000
vt 1.000000 0.000000
vt 0.500000 0.500000
vt 0.000000 1.000000
vt 1.000000 1.000000
vt 0.000000 0.000000
vt 1.000000 0.000000
vt 1.000000 1.000000
vt 0.000000 1.000000
vt 0.000000 0.000000
vt 1.000000 0.000000
vt 1.000000 1.000000
vt 0.000000 1.000000
vt 0.000000 0.000000
vt 1.000000 0.000000
vt 1.000000 1.000000
vt 0.000000 1.000000
vt 0.000000 0.000000
vt 1.000000 0.000000
vt 1.000000 1.000000
vt 0.000000 1.000000
vt 0.000000 0.000000
vt 1.000000 0.000000
vt 1.000000 1.000000
vt 0.000000 1.000000
vt 0.000000 0.000000
vt 1.000000 0.000000
vt 1.000000 1.000000
vt 0.000000 1.000000
vt 0.000000 0.000000
vt 1.000000 0.000000
vt 1.000000 1.000000
vt 0.000000 1.000000
vt 0.000000 0.000000
vt 1.000000 0.000000
vt 1.000000 1.000000
vt 0.000000 1.000000
vt 0.000000 0.000000
vt 1.000000 0.000000
vt 1.000000 1.000000
vt 0.000000 1.000000
vt 0.000000 0.000000
vt 1.000000 0.000000
vt 1.000000 1.000000
vt 0.000000 1.000000
vt 0.000000 0.000000
vt 1.000000 0.000000
vt 1.000000 1.000000
vt 0.000000 1.000000
vt 0.000000 0.000000
vt 1.000000 0.000000
vt 1.000000 1.000000
vt 0.000000 1.000000
vt 0.000000 0.000000
vt 1.000000 0.000000
vt 1.000000 1.000000
vt 0.000000 1.000000
vt 0.000000 0.000000
vt 1.000000 0.000000
vt 1.000000 1.000000
vt 0.000000 1.000000
vt 0.000000 0.000000
vt 1.000000 0.000000
vt 1.000000 1.000000
vt 0.000000 1.000000
vt 0.000000 0.000000
vt 1.000000 0.000000
vt 1.000000 1.000000
vt 0.000000 1.000000
vt 0.000000 0.000000
vt 1.000000 0.000000
vt 1.000000 1.000000
vt 0.000000 1.000000
vt 0.000000 0.000000
vt 1.000000 0.000000
vt 1.000000 1.000000
vt 0.000000 1.000000
vt 0.000000 0.000000
vt 1.000000 0.000000
vt 1.000000 1.000000
vt 0.000000 1.000000
vt 0.000000 0.000000
vt 1.000000 0.000000
vt 1.000000 1.000000
vt 0.000000 1.000000
vt 0.000000 0.000000
vt 1.000000 0.000000
vt 1.000000 1.000000
vt 0.000000 1.000000
vt 0.000000 0.000000
vt 1.000000 0.000000
vt 1.000000 1.000000
vt 0.000000 1.000000
vt 0.000000 0.000000
vt 1.000000 0.000000
vt 1.000000 1.000000
vt 0.000000 1.000000
vt 0.000000 0.000000
vt 1.000000 0.000000
vt 1.000000 1.000000
vt 0.000000 1.000000
vt 0.000000 0.000000
vt 1.000000 0.000000
vt 1.000000 1.000000
vt 0.000000 1.000000
vt 0.000000 0.000000
vt 1.000000 0.000000
vt 1.000000 1.000000
vt 0.000000 1.000000
vt 0.000000 0.000000
vt 1.000000 0.000000
vt 1.000000 1.000000
vt 0.000000 1.000000
vt 0.000000 0.000000
vt 1.000000 0.000000
vt 1.000000 1.000000
vt 0.000000 1.000000
vt 0.000000 0.000000
vt 1.000000 0.000000
vt 1.000000 1.000000
vt 0.000000 1.000000
vt 0.000000 0.000000
vt 1.000000 0.000000
vt 1.000000 1.000000
vt 0.000000 1.000000
vt 0.000000 0.000000
vt 1.000000 0.000000
vt 1.000000 1.000000
vt 0.000000 1.000000
vt 0.000000 0.000000
vt 1.000000 0.000000
vt 1.000000 1.000000
vt 0.000000 1.000000
vt 0.000000 0.000000
vt 1.000000 0.000000
vt 1.000000 1.000000
vt 0.000000 1.000000
vt 0.000000 0.000000
vt 1.000000 0.000000
vt 1.000000 1.000000
vt 0.000000 1.000000
vt 0.000000 0.000000
vt 1.000000 0.000000
vt 1.000000 1.000000
vt 0.000000 1.000000
vt 0.000000 0.000000
vt 1.000000 0.000000
vt 1.000000 1.000000
vt 0.000000 1.000000
vt 0.000000 0.000000
vt 1.000000 0.000000
vt 1.000000 1.000000
vt 0.000000 1.000000
vt 0.000000 0.000000
vt 1.000000 0.000000
vt 1.000000 1.000000
vt 0.000000 1.000000
vt 0.000000 0.000000
vt 1.000000 0.000000
vt 1.000000 1.000000
vt 0.000000 1.000000
vt 0.000000 0.000000
vt 1.000000 0.000000
vt 1.000000 1.000000
vt 0.000000 1.000000
vt 0.000000 0.000000
vt 1.000000 0.000000
vt 1.000000 1.000000
vt 0.000000 1.000000
vt 0.000000 0.000000
vt 1.000000 0.000000
vt 1.000000 1.000000
vt 0.000000 1.000000
vt 0.000000 0.000000
vt 1.000000 0.000000
vt 1.000000 1.000000
vt 0.000000 1.000000
vt 0.000000 0.000000
vt 1.000000 0.000000
vt 1.000000 1.000000
vt 0.000000 1.000000
vt 0.000000 0.000000
vt 1.000000 0.000000
vt 1.000000 1.000000
vt 0.000000 1.000000
vt 0.000000 0.000000
vt 1.000000 0.000000
vt 1.000000 1.000000
vt 0.000000 1.000000
vt 0.000000 0.000000
vt 1.000000 0.000000
vt 1.000000 1.000000
vt 0.000000 1.000000
vt 0.000000 0.000000
vt 1.000000 0.000000
vt 1.000000 1.000000
vt 0.000000 1.000000
vt 0.000000 0.000000
vt 1.000000 0.000000
vt 1.000000 1.000000
vt 0.000000 1.000000
vt 0.000000 0.000000
vt 1.000000 0.000000
vt 1.000000 1.000000
vt 0.000000 1.000000
vt 0.000000 0.000000
vt 1.000000 0.000000
vt 1.000000 1.000000
vt 0.000000 1.000000
vt 0.000000 0.000000
vt 1.000000 0.000000
vt 1.000000 1.000000
vt 0.000000 1.000000
vt 0.000000 0.000000
vt 1.000000 0.000000
vt 1.000000 1.000000
vt 0.000000 1.000000
vt 0.000000 0.000000
vt 1.000000 0.000000
vt 1.000000 1.000000
vt 0.000000 1.000000
vt 0.000000 0.000000
vt 1.000000 0.000000
vt 1.000000 1.000000
vt 0.000000 1.000000
vt 0.000000 0.000000
vt 1.000000 0.000000
vt 1.000000 1.000000
vt 0.000000 1.000000
vt 0.000000 0.000000
vt 1.000000 0.000000
vt 1.000000 1.000000
vt 0.000000 1.000000
vt 0.000000 0.000000
vt 1.000000 0.000000
vt 1.000000 1.000000
vt 0.000000 1.000000
vt 0.000000 0.000000
vt 1.000000 0.000000
vt 1.000000 1.000000
vt 0.000000 1.000000
vt 0.000000 0.000000
vt 1.000000 0.000000
vt 1.000000 1.000000
vt 0.000000 1.000000
vt 0.000000 0.000000
vt 1.000000 0.000000
vt 1.000000 1.000000
vt 0.000000 1.000000
vt 0.000000 0.000000
vt 1.000000 0.000000
vt 1.000000 1.000000
vt 0.000000 1.000000
vt 0.000000 0.000000
vt 1.000000 0.000000
vt 1.000000 1.000000
vt 0.000000 1.000000
vt 0.000000 0.000000
vt 1.000000 0.000000
vt 1.000000 1.000000
vt 0.000000 1.000000
vt 0.000000 0.000000
vt 1.000000 0.000000
vt 1.000000 1.000000
vt 0.000000 1.000000
vt 0.000000 0.000000
vt 1.000000 0.000000
vt 1.000000 1.000000
vt 0.000000 1.000000
vt 0.000000 0.000000
vt 1.000000 0.000000
vt 1.000000 1.000000
vt 0.000000 1.000000
vt 0.000000 0.000000
vt 1.000000 0.000000
vt 1.000000 1.000000
vt 0.000000 1.000000
vt 0.000000 0.000000
vt 1.000000 0.000000
vt 1.000000 1.000000
vt 0.000000 1.000000
vt 0.000000 0.000000
vt 1.000000 0.000000
vt 1.000000 1.000000
vt 0.000000 1.000000
usemtl Metal
f 1/1 2/2 3/3
f 1/1 3/3 4/4
f 5/5 6/6 7/7
f 5/5 7/7 8/8
f 9/9 10/10 11/11
f 9/9 11/11 12/12
f 13/13 14/14 15/15
f 13/13 15/15 16/16
f 17/17 18/18 19/19
f 17/17 19/19 20/20
f 21/21 22/22 23/23
f 21/21 23/23 24/24
f 25/25 26/26 27/27
f 25/25 27/27 28/28
f 29/29 30/30 31/31
f 29/29 31/31 32/32
f 33/33 34/34 35/35
f 33/33 35/35 36/36
f 37/37 38/38 39/39
f 37/37 39/39 40/40
f 41/41 42/42 43/43
f 41/41 43/43 44/44
f 45/45 46/46 47/47
f 45/45 47/47 48/48
f 49/49 50/50 51/51
f 49/49 51/51 52/52
f 53/53 54/54 55/55
f 56/56 57/57 58/58
f 59/59 60/60 61/61
f 62/62 63/63 64/64
f 65/65 66/66 67/67
f 68/68 69/69 70/70
f 71/71 72/72 73/73
f 74/74 75/75 76/76
f 77/77 78/78 79/79
f 80/80 81/81 82/82
f 83/83 84/84 85/85
f 86/86 87/87 88/88
f 89/89 90/90 91/91
f 92/92 93/93 94/94
f 95/95 96/96 97/97
f 95/95 97/97 98/98
f 99/99 100/100 101/101
f 99/99 101/101 102/102
f 103/103 104/104 105/105
f 103/103 105/105 106/106
f 107/107 108/108 109/109
f 107/107 109/109 110/110
f 111/111 112/112 113/113
f 111/111 113/113 114/114
f 115/115 116/116 117/117
f 115/115 117/117 118/118
f 119/119 120/120 121/121
f 119/119 121/121 122/122
f 123/123 124/124 125/125
f 123/123 125/125 126/126
f 127/127 128/128 129/129
f 127/127 129/129 130/130
f 131/131 132/132 133/133
f 131/131 133/133 134/134
f 135/135 136/136 137/137
f 135/135 137/137 138/138
f 139/139 140/140 141/141
f 139/139 141/141 142/142
f 143/143 144/144 145/145
f 143/143 145/145 146/146
f 147/147 148/148 149/149
f 150/150 151/151 152/152
f 153/153 154/154 155/155
f 156/156 157/157 158/158
f 159/159 160/160 161/161
f 162/162 163/163 164/164
f 165/165 166/166 167/167
f 168/168 169/169 170/170
f 171/171 172/172 173/173
f 174/174 175/175 176/176
f 177/177 178/178 179/179
f 180/180 181/181 182/182
f 183/183 184/184 185/185
f 186/186 187/187 188/188
f 189/189 190/190 191/191
f 189/189 191/191 192/192
f 193/193 194/194 195/195
f 193/193 195/195 196/196
f 197/197 198/198 199/199
f 197/197 199/199 200/200
f 201/201 202/202 203/203
f 201/201 203/203 204/204
f 205/205 206/206 207/207
f 205/205 207/207 208/208
f 209/209 210/210 211/211
f 209/209 211/211 212/212
f 213/213 214/214 215/215
f 213/213 215/215 216/216
f 217/217 218/218 219/219
f 217/217 219/219 220/220
f 221/221 222/222 223/223
f 221/221 223/223 224/224
f 225/225 226/226 227/227
f 225/225 227/227 228/228
f 229/229 230/230 231/231
f 229/229 231/231 232/232
f 233/233 234/234 235/235
f 233/233 235/235 236/236
f 237/237 238/238 239/239
f 237/237 239/239 240/240
f 241/241 242/242 243/243
f 244/244 245/245 246/246
f 247/247 248/248 249/249
f 250/250 251/251 252/252
f 253/253 254/254 255/255
f 256/256 257/257 258/258
f 259/259 260/260 261/261
f 262/262 263/263 264/264
f 265/265 266/266 267/267
f 268/268 269/269 270/270
f 271/271 272/272 273/273
f 274/274 275/275 276/276
f 277/277 278/278 279/279
f 280/280 281/281 282/282
usemtl Rope
f 283/283 284/284 285/285
f 283/283 285/285 286/286
f 287/287 288/288 289/289
f 287/287 289/289 290/290
f 291/291 292/292 293/293
f 291/291 293/293 294/294
f 295/295 296/296 297/297
f 295/295 297/297 298/298
f 299/299 300/300 301/301
f 299/299 301/301 302/302
f 303/303 304/304 305/305
f 303/303 305/305 306/306
f 307/307 308/308 309/309
f 307/307 309/309 310/310
f 311/311 312/312 313/313
f 311/311 313/313 314/314
f 315/315 316/316 317/317
f 315/315 317/317 318/318
f 319/319 320/320 321/321
f 319/319 321/321 322/322
f 323/323 324/324 325/325
f 323/323 325/325 326/326
f 327/327 328/328 329/329
f 327/327 329/329 330/330
f 331/331 332/332 333/333
f 331/331 333/333 334/334
f 335/335 336/336 337/337
f 335/335 337/337 338/338
f 339/339 340/340 341/341
f 339/339 341/341 342/342
f 343/343 344/344 345/345
f 343/343 345/345 346/346
f 347/347 348/348 349/349
f 347/347 349/349 350/350
f 351/351 352/352 353/353
f 351/351 353/353 354/354
f 355/355 356/356 357/357
f 355/355 357/357 358/358
f 359/359 360/360 361/361
f 359/359 361/361 362/362
f 363/363 364/364 365/365
f 363/363 365/365 366/366
f 367/367 368/368 369/369
f 367/367 369/369 370/370
f 371/371 372/372 373/373
f 371/371 373/373 374/374
f 375/375 376/376 377/377
f 375/375 377/377 378/378
f 379/379 380/380 381/381
f 379/379 381/381 382/382
f 383/383 384/384 385/385
f 383/383 385/385 386/386
f 387/387 388/388 389/389
f 387/387 389/389 390/390
f 391/391 392/392 393/393
f 391/391 393/393 394/394
f 395/395 396/396 397/397
f 395/395 397/397 398/398
f 399/399 400/400 401/401
f 399/399 401/401 402/402
f 403/403 404/404 405/405
f 403/403 405/405 406/406
f 407/407 408/408 409/409
f 407/407 409/409 410/410
f 411/411 412/412 413/413
f 411/411 413/413 414/414
f 415/415 416/416 417/417
f 415/415 417/417 418/418
f 419/419 420/420 421/421
f 419/419 421/421 422/422
f 423/423 424/424 425/425
f 423/423 425/425 426/426
f 427/427 428/428 429/429
f 427/427 429/429 430/430
f 431/431 432/432 433/433
f 431/431 433/433 434/434
f 435/435 436/436 437/437
f 435/435 437/437 438/438
f 439/439 440/440 441/441
f 439/439 441/441 442/442
f 443/443 444/444 445/445
f 443/443 445/445 446/446
f 447/447 448/448 449/449
f 447/447 449/449 450/450
f 451/451 452/452 453/453
f 451/451 453/453 454/454
f 455/455 456/456 457/457
f 455/455 457/457 458/458
f 459/459 460/460 461/461
f 459/459 461/461 462/462
f 463/463 464/464 465/465
f 463/463 465/465 466/466
f 467/467 468/468 469/469
f 467/467 469/469 470/470
f 471/471 472/472 473/473
f 471/471 473/473 474/474
f 475/475 476/476 477/477
f 475/475 477/477 478/478
f 479/479 480/480 481/481
f 479/479 481/481 482/482
f 483/483 484/484 485/485
f 483/483 485/485 486/486
f 487/487 488/488 489/489
f 487/487 489/489 490/490
f 491/491 492/492 493/493
f 491/491 493/493 494/494
f 495/495 496/496 497/497
f 495/495 497/497 498/498
f 499/499 500/500 501/501
f 499/499 501/501 502/502
f 503/503 504/504 505/505
f 503/503 505/505 506/506
f 507/507 508/508 509/509
f 507/507 509/509 510/510
f 511/511 512/512 513/513
f 511/511 513/513 514/514
f 515/515 516/516 517/517
f 515/515 517/517 518/518
f 519/519 520/520 521/521
f 519/519 521/521 522/522
f 523/523 524/524 525/525
f 523/523 525/525 526/526
f 527/527 528/528 529/529
f 527/527 529/529 530/530
f 531/531 532/532 533/533
f 531/531 533/533 534/534
f 535/535 536/536 537/537
f 535/535 537/537 538/538
f 539/539 540/540 541/541
f 539/539 541/541 542/542
f 543/543 544/544 545/545
f 543/543 545/545 546/546
f 547/547 548/548 549/549
f 547/547 549/549 550/550
f 551/551 552/552 553/553
f 551/551 553/553 554/554
f 555/555 556/556 557/557
f 555/555 557/557 558/558
f 559/559 560/560 561/561
f 559/559 561/561 562/562
