mtllib ../../Materials/project_oen.mtl
o pr-010_stone_pile__large
v 0.100000 0.000000 0.000000
v 0.197804 0.004665 0.090376
v 0.244900 0.000000 0.000000
v 0.244900 0.000000 0.000000
v 0.197804 0.004665 0.090376
v 0.200931 0.056430 0.117614
v 0.283618 0.051765 0.000000
v 0.283618 0.051765 0.000000
v 0.200931 0.056430 0.117614
v 0.165069 0.102105 0.086666
v 0.221696 0.097440 0.000000
v 0.100000 0.138600 0.008400
v 0.221696 0.097440 0.000000
v 0.165069 0.102105 0.086666
v 0.100000 0.000000 0.000000
v 0.070760 -0.001479 0.134283
v 0.197804 0.004665 0.090376
v 0.197804 0.004665 0.090376
v 0.070760 -0.001479 0.134283
v 0.064946 0.050286 0.150349
v 0.200931 0.056430 0.117614
v 0.200931 0.056430 0.117614
v 0.064946 0.050286 0.150349
v 0.072590 0.095961 0.092118
v 0.165069 0.102105 0.086666
v 0.100000 0.138600 0.008400
v 0.165069 0.102105 0.086666
v 0.072590 0.095961 0.092118
v 0.100000 0.000000 0.000000
v -0.033486 -0.004196 0.053440
v 0.070760 -0.001479 0.134283
v 0.070760 -0.001479 0.134283
v -0.033486 -0.004196 0.053440
v -0.065935 0.047569 0.056860
v 0.064946 0.050286 0.150349
v 0.064946 0.050286 0.150349
v -0.065935 0.047569 0.056860
v -0.007475 0.093244 0.042465
v 0.072590 0.095961 0.092118
v 0.100000 0.138600 0.008400
v 0.072590 0.095961 0.092118
v -0.007475 0.093244 0.042465
v 0.100000 0.000000 0.000000
v -0.039399 0.002810 -0.050964
v -0.033486 -0.004196 0.053440
v -0.033486 -0.004196 0.053440
v -0.039399 0.002810 -0.050964
v -0.042778 0.054575 -0.066557
v -0.065935 0.047569 0.056860
v -0.065935 0.047569 0.056860
v -0.042778 0.054575 -0.066557
v 0.005523 0.100250 -0.047908
v -0.007475 0.093244 0.042465
v 0.100000 0.138600 0.008400
v -0.007475 0.093244 0.042465
v 0.005523 0.100250 -0.047908
v 0.100000 0.000000 0.000000
v 0.070947 0.003305 -0.134995
v -0.039399 0.002810 -0.050964
v -0.039399 0.002810 -0.050964
v 0.070947 0.003305 -0.134995
v 0.064214 0.055070 -0.147560
v -0.042778 0.054575 -0.066557
v -0.042778 0.054575 -0.066557
v 0.064214 0.055070 -0.147560
v 0.072179 0.100745 -0.090553
v 0.005523 0.100250 -0.047908
v 0.100000 0.138600 0.008400
v 0.005523 0.100250 -0.047908
v 0.072179 0.100745 -0.090553
v 0.100000 0.000000 0.000000
v 0.194303 -0.003858 -0.094194
v 0.070947 0.003305 -0.134995
v 0.070947 0.003305 -0.134995
v 0.194303 -0.003858 -0.094194
v 0.214643 0.047907 -0.102662
v 0.064214 0.055070 -0.147560
v 0.064214 0.055070 -0.147560
v 0.214643 0.047907 -0.102662
v 0.172766 0.093582 -0.078273
v 0.072179 0.100745 -0.090553
v 0.100000 0.138600 0.008400
v 0.072179 0.100745 -0.090553
v 0.172766 0.093582 -0.078273
v 0.100000 0.000000 0.000000
v 0.244900 0.000000 0.000000
v 0.194303 -0.003858 -0.094194
v 0.194303 -0.003858 -0.094194
v 0.244900 0.000000 0.000000
v 0.283618 0.051765 0.000000
v 0.214643 0.047907 -0.102662
v 0.214643 0.047907 -0.102662
v 0.283618 0.051765 0.000000
v 0.221696 0.097440 0.000000
v 0.172766 0.093582 -0.078273
v 0.100000 0.138600 0.008400
v 0.172766 0.093582 -0.078273
v 0.221696 0.097440 0.000000
v -0.154847 0.000000 0.141853
v -0.093834 0.004691 0.283542
v 0.016535 0.002220 0.195468
v 0.016535 0.002220 0.195468
v -0.093834 0.004691 0.283542
v -0.089729 0.065699 0.317468
v 0.036380 0.063229 0.206383
v 0.036380 0.063229 0.206383
v -0.089729 0.065699 0.317468
v -0.106060 0.119531 0.255255
v -0.037703 0.117060 0.192289
v -0.148797 0.163350 0.150932
v -0.037703 0.117060 0.192289
v -0.106060 0.119531 0.255255
v -0.154847 0.000000 0.141853
v -0.218466 -0.003707 0.286956
v -0.093834 0.004691 0.283542
v -0.093834 0.004691 0.283542
v -0.218466 -0.003707 0.286956
v -0.237930 0.057302 0.290386
v -0.089729 0.065699 0.317468
v -0.089729 0.065699 0.317468
v -0.237930 0.057302 0.290386
v -0.214447 0.111133 0.240521
v -0.106060 0.119531 0.255255
v -0.148797 0.163350 0.150932
v -0.106060 0.119531 0.255255
v -0.214447 0.111133 0.240521
v -0.154847 0.000000 0.141853
v -0.329515 -0.003515 0.190890
v -0.218466 -0.003707 0.286956
v -0.218466 -0.003707 0.286956
v -0.329515 -0.003515 0.190890
v -0.345166 0.057493 0.202466
v -0.237930 0.057302 0.290386
v -0.237930 0.057302 0.290386
v -0.345166 0.057493 0.202466
v -0.271725 0.111325 0.188915
v -0.214447 0.111133 0.240521
v -0.148797 0.163350 0.150932
v -0.214447 0.111133 0.240521
v -0.271725 0.111325 0.188915
v -0.154847 0.000000 0.141853
v -0.304164 0.004822 0.079899
v -0.329515 -0.003515 0.190890
v -0.329515 -0.003515 0.190890
v -0.304164 0.004822 0.079899
v -0.318187 0.065830 0.066783
v -0.345166 0.057493 0.202466
v -0.345166 0.057493 0.202466
v -0.318187 0.065830 0.066783
v -0.279689 0.119662 0.094326
v -0.271725 0.111325 0.188915
v -0.148797 0.163350 0.150932
v -0.271725 0.111325 0.188915
v -0.279689 0.119662 0.094326
v -0.154847 0.000000 0.141853
v -0.214534 0.001987 -0.002764
v -0.304164 0.004822 0.079899
v -0.304164 0.004822 0.079899
v -0.214534 0.001987 -0.002764
v -0.232509 0.062995 -0.006085
v -0.318187 0.065830 0.066783
v -0.318187 0.065830 0.066783
v -0.232509 0.062995 -0.006085
v -0.209175 0.116827 0.040674
v -0.279689 0.119662 0.094326
v -0.148797 0.163350 0.150932
v -0.279689 0.119662 0.094326
v -0.209175 0.116827 0.040674
v -0.154847 0.000000 0.141853
v -0.080011 -0.005451 0.019193
v -0.214534 0.001987 -0.002764
v -0.214534 0.001987 -0.002764
v -0.080011 -0.005451 0.019193
v -0.075026 0.055557 -0.013205
v -0.232509 0.062995 -0.006085
v -0.232509 0.062995 -0.006085
v -0.075026 0.055557 -0.013205
v -0.105387 0.109389 0.022901
v -0.209175 0.116827 0.040674
v -0.148797 0.163350 0.150932
v -0.209175 0.116827 0.040674
v -0.105387 0.109389 0.022901
v -0.154847 0.000000 0.141853
v -0.006346 -0.000258 0.083849
v -0.080011 -0.005451 0.019193
v -0.080011 -0.005451 0.019193
v -0.006346 -0.000258 0.083849
v 0.012228 0.060751 0.073275
v -0.075026 0.055557 -0.013205
v -0.075026 0.055557 -0.013205
v 0.012228 0.060751 0.073275
v -0.025335 0.114582 0.099120
v -0.105387 0.109389 0.022901
v -0.148797 0.163350 0.150932
v -0.105387 0.109389 0.022901
v -0.025335 0.114582 0.099120
v -0.154847 0.000000 0.141853
v 0.016535 0.002220 0.195468
v -0.006346 -0.000258 0.083849
v -0.006346 -0.000258 0.083849
v 0.016535 0.002220 0.195468
v 0.036380 0.063229 0.206383
v 0.012228 0.060751 0.073275
v 0.012228 0.060751 0.073275
v 0.036380 0.063229 0.206383
v -0.037703 0.117060 0.192289
v -0.025335 0.114582 0.099120
v -0.148797 0.163350 0.150932
v -0.025335 0.114582 0.099120
v -0.037703 0.117060 0.192289
v 0.022343 0.000000 -0.254585
v -0.003556 0.003576 -0.068566
v 0.164954 0.004688 -0.137436
v 0.164954 0.004688 -0.137436
v -0.003556 0.003576 -0.068566
v -0.009778 0.073829 -0.052533
v 0.168257 0.074941 -0.101618
v 0.168257 0.074941 -0.101618
v -0.009778 0.073829 -0.052533
v -0.002563 0.135816 -0.130395
v 0.119654 0.136928 -0.145230
v 0.035123 0.188100 -0.246808
v 0.119654 0.136928 -0.145230
v -0.002563 0.135816 -0.130395
v 0.022343 0.000000 -0.254585
v -0.156087 -0.005822 -0.172916
v -0.003556 0.003576 -0.068566
v -0.003556 0.003576 -0.068566
v -0.156087 -0.005822 -0.172916
v -0.193142 0.064430 -0.164911
v -0.009778 0.073829 -0.052533
v -0.009778 0.073829 -0.052533
v -0.193142 0.064430 -0.164911
v -0.113745 0.126418 -0.185887
v -0.002563 0.135816 -0.130395
v 0.035123 0.188100 -0.246808
v -0.002563 0.135816 -0.130395
v -0.113745 0.126418 -0.185887
v 0.022343 0.000000 -0.254585
v -0.168964 -0.001730 -0.313888
v -0.156087 -0.005822 -0.172916
v -0.156087 -0.005822 -0.172916
v -0.168964 -0.001730 -0.313888
v -0.173438 0.068522 -0.331671
v -0.193142 0.064430 -0.164911
v -0.193142 0.064430 -0.164911
v -0.173438 0.068522 -0.331671
v -0.112117 0.130510 -0.308318
v -0.113745 0.126418 -0.185887
v 0.035123 0.188100 -0.246808
v -0.113745 0.126418 -0.185887
v -0.112117 0.130510 -0.308318
v 0.022343 0.000000 -0.254585
v -0.030358 0.006371 -0.434002
v -0.168964 -0.001730 -0.313888
v -0.168964 -0.001730 -0.313888
v -0.030358 0.006371 -0.434002
v -0.044460 0.076623 -0.445433
v -0.173438 0.068522 -0.331671
v -0.173438 0.068522 -0.331671
v -0.044460 0.076623 -0.445433
v -0.028799 0.138611 -0.373051
v -0.112117 0.130510 -0.308318
v 0.035123 0.188100 -0.246808
v -0.112117 0.130510 -0.308318
v -0.028799 0.138611 -0.373051
v 0.022343 0.000000 -0.254585
v 0.140133 -0.000290 -0.386558
v -0.030358 0.006371 -0.434002
v -0.030358 0.006371 -0.434002
v 0.140133 -0.000290 -0.386558
v 0.161117 0.069963 -0.403673
v -0.044460 0.076623 -0.445433
v -0.044460 0.076623 -0.445433
v 0.161117 0.069963 -0.403673
v 0.108657 0.131950 -0.370323
v -0.028799 0.138611 -0.373051
v 0.035123 0.188100 -0.246808
v -0.028799 0.138611 -0.373051
v 0.108657 0.131950 -0.370323
v 0.022343 0.000000 -0.254585
v 0.222832 -0.006279 -0.267541
v 0.140133 -0.000290 -0.386558
v 0.140133 -0.000290 -0.386558
v 0.222832 -0.006279 -0.267541
v 0.228896 0.063974 -0.271255
v 0.161117 0.069963 -0.403673
v 0.161117 0.069963 -0.403673
v 0.228896 0.063974 -0.271255
v 0.168503 0.125961 -0.265912
v 0.108657 0.131950 -0.370323
v 0.035123 0.188100 -0.246808
v 0.108657 0.131950 -0.370323
v 0.168503 0.125961 -0.265912
v 0.022343 0.000000 -0.254585
v 0.164954 0.004688 -0.137436
v 0.222832 -0.006279 -0.267541
v 0.222832 -0.006279 -0.267541
v 0.164954 0.004688 -0.137436
v 0.168257 0.074941 -0.101618
v 0.228896 0.063974 -0.271255
v 0.228896 0.063974 -0.271255
v 0.168257 0.074941 -0.101618
v 0.119654 0.136928 -0.145230
v 0.168503 0.125961 -0.265912
v 0.035123 0.188100 -0.246808
v 0.168503 0.125961 -0.265912
v 0.119654 0.136928 -0.145230
v 0.176767 0.000000 0.230561
v 0.084990 0.001310 0.412423
v 0.247266 0.006839 0.422440
v 0.247266 0.006839 0.422440
v 0.084990 0.001310 0.412423
v 0.057600 0.080807 0.416778
v 0.254472 0.086335 0.461510
v 0.254472 0.086335 0.461510
v 0.057600 0.080807 0.416778
v 0.093996 0.150950 0.358987
v 0.236428 0.156479 0.376067
v 0.195410 0.212850 0.234873
v 0.236428 0.156479 0.376067
v 0.093996 0.150950 0.358987
v 0.176767 0.000000 0.230561
v -0.053609 -0.007254 0.288869
v 0.084990 0.001310 0.412423
v 0.084990 0.001310 0.412423
v -0.053609 -0.007254 0.288869
v -0.067637 0.072242 0.304664
v 0.057600 0.080807 0.416778
v 0.057600 0.080807 0.416778
v -0.067637 0.072242 0.304664
v 0.024772 0.142386 0.287169
v 0.093996 0.150950 0.358987
v 0.195410 0.212850 0.234873
v 0.093996 0.150950 0.358987
v 0.024772 0.142386 0.287169
v 0.176767 0.000000 0.230561
v -0.010064 0.000990 0.141513
v -0.053609 -0.007254 0.288869
v -0.053609 -0.007254 0.288869
v -0.010064 0.000990 0.141513
v -0.035164 0.080486 0.126019
v -0.067637 0.072242 0.304664
v -0.067637 0.072242 0.304664
v -0.035164 0.080486 0.126019
v 0.012021 0.150630 0.165653
v 0.024772 0.142386 0.287169
v 0.195410 0.212850 0.234873
v 0.024772 0.142386 0.287169
v 0.012021 0.150630 0.165653
v 0.176767 0.000000 0.230561
v 0.103842 0.006941 0.044631
v -0.010064 0.000990 0.141513
v -0.010064 0.000990 0.141513
v 0.103842 0.006941 0.044631
v 0.083109 0.086437 0.038731
v -0.035164 0.080486 0.126019
v -0.035164 0.080486 0.126019
v 0.083109 0.086437 0.038731
v 0.113352 0.156581 0.094262
v 0.012021 0.150630 0.165653
v 0.195410 0.212850 0.234873
v 0.012021 0.150630 0.165653
v 0.113352 0.156581 0.094262
v 0.176767 0.000000 0.230561
v 0.281280 -0.003190 0.071943
v 0.103842 0.006941 0.044631
v 0.103842 0.006941 0.044631
v 0.281280 -0.003190 0.071943
v 0.285797 0.076306 0.025842
v 0.083109 0.086437 0.038731
v 0.083109 0.086437 0.038731
v 0.285797 0.076306 0.025842
v 0.245731 0.146450 0.076934
v 0.113352 0.156581 0.094262
v 0.195410 0.212850 0.234873
v 0.113352 0.156581 0.094262
v 0.245731 0.146450 0.076934
v 0.176767 0.000000 0.230561
v 0.368824 -0.005929 0.160437
v 0.281280 -0.003190 0.071943
v 0.281280 -0.003190 0.071943
v 0.368824 -0.005929 0.160437
v 0.401242 0.073567 0.150313
v 0.285797 0.076306 0.025842
v 0.285797 0.076306 0.025842
v 0.401242 0.073567 0.150313
v 0.352303 0.143711 0.181212
v 0.245731 0.146450 0.076934
v 0.195410 0.212850 0.234873
v 0.245731 0.146450 0.076934
v 0.352303 0.143711 0.181212
v 0.176767 0.000000 0.230561
v 0.378270 0.005070 0.313532
v 0.368824 -0.005929 0.160437
v 0.368824 -0.005929 0.160437
v 0.378270 0.005070 0.313532
v 0.431510 0.084566 0.317368
v 0.401242 0.073567 0.150313
v 0.401242 0.073567 0.150313
v 0.431510 0.084566 0.317368
v 0.345060 0.154710 0.294000
v 0.352303 0.143711 0.181212
v 0.195410 0.212850 0.234873
v 0.352303 0.143711 0.181212
v 0.345060 0.154710 0.294000
v 0.176767 0.000000 0.230561
v 0.247266 0.006839 0.422440
v 0.378270 0.005070 0.313532
v 0.378270 0.005070 0.313532
v 0.247266 0.006839 0.422440
v 0.254472 0.086335 0.461510
v 0.431510 0.084566 0.317368
v 0.431510 0.084566 0.317368
v 0.254472 0.086335 0.461510
v 0.236428 0.156479 0.376067
v 0.345060 0.154710 0.294000
v 0.195410 0.212850 0.234873
v 0.345060 0.154710 0.294000
v 0.236428 0.156479 0.376067
v -0.315108 0.000000 -0.055738
v -0.442984 -0.001070 0.010655
v -0.324148 0.004714 0.082260
v -0.324148 0.004714 0.082260
v -0.442984 -0.001070 0.010655
v -0.464701 0.050695 0.019887
v -0.326625 0.056479 0.090286
v -0.326625 0.056479 0.090286
v -0.464701 0.050695 0.019887
v -0.407834 0.096370 0.003121
v -0.323886 0.102154 0.035257
v -0.302259 0.138600 -0.056319
v -0.323886 0.102154 0.035257
v -0.407834 0.096370 0.003121
v -0.315108 0.000000 -0.055738
v -0.456083 -0.004374 -0.091605
v -0.442984 -0.001070 0.010655
v -0.442984 -0.001070 0.010655
v -0.456083 -0.004374 -0.091605
v -0.460785 0.047391 -0.101713
v -0.464701 0.050695 0.019887
v -0.464701 0.050695 0.019887
v -0.460785 0.047391 -0.101713
v -0.419036 0.093066 -0.086758
v -0.407834 0.096370 0.003121
v -0.302259 0.138600 -0.056319
v -0.407834 0.096370 0.003121
v -0.419036 0.093066 -0.086758
v -0.315108 0.000000 -0.055738
v -0.363930 0.002457 -0.183385
v -0.456083 -0.004374 -0.091605
v -0.456083 -0.004374 -0.091605
v -0.363930 0.002457 -0.183385
v -0.378224 0.054222 -0.188637
v -0.460785 0.047391 -0.101713
v -0.460785 0.047391 -0.101713
v -0.378224 0.054222 -0.188637
v -0.362341 0.099897 -0.140036
v -0.419036 0.093066 -0.086758
v -0.302259 0.138600 -0.056319
v -0.419036 0.093066 -0.086758
v -0.362341 0.099897 -0.140036
v -0.315108 0.000000 -0.055738
v -0.237198 0.003595 -0.155803
v -0.363930 0.002457 -0.183385
v -0.363930 0.002457 -0.183385
v -0.237198 0.003595 -0.155803
v -0.226266 0.055360 -0.173180
v -0.378224 0.054222 -0.188637
v -0.378224 0.054222 -0.188637
v -0.226266 0.055360 -0.173180
v -0.260523 0.101035 -0.147605
v -0.362341 0.099897 -0.140036
v -0.302259 0.138600 -0.056319
v -0.362341 0.099897 -0.140036
v -0.260523 0.101035 -0.147605
v -0.315108 0.000000 -0.055738
v -0.172837 -0.003597 -0.075335
v -0.237198 0.003595 -0.155803
v -0.237198 0.003595 -0.155803
v -0.172837 -0.003597 -0.075335
v -0.165898 0.048168 -0.080450
v -0.226266 0.055360 -0.173180
v -0.226266 0.055360 -0.173180
v -0.165898 0.048168 -0.080450
v -0.205661 0.093843 -0.072010
v -0.260523 0.101035 -0.147605
v -0.302259 0.138600 -0.056319
v -0.260523 0.101035 -0.147605
v -0.205661 0.093843 -0.072010
v -0.315108 0.000000 -0.055738
v -0.216766 -0.002455 0.036169
v -0.172837 -0.003597 -0.075335
v -0.172837 -0.003597 -0.075335
v -0.216766 -0.002455 0.036169
v -0.186921 0.049310 0.038859
v -0.165898 0.048168 -0.080450
v -0.165898 0.048168 -0.080450
v -0.186921 0.049310 0.038859
v -0.221235 0.094985 0.005661
v -0.205661 0.093843 -0.072010
v -0.302259 0.138600 -0.056319
v -0.205661 0.093843 -0.072010
v -0.221235 0.094985 0.005661
v -0.315108 0.000000 -0.055738
v -0.324148 0.004714 0.082260
v -0.216766 -0.002455 0.036169
v -0.216766 -0.002455 0.036169
v -0.324148 0.004714 0.082260
v -0.326625 0.056479 0.090286
v -0.186921 0.049310 0.038859
v -0.186921 0.049310 0.038859
v -0.326625 0.056479 0.090286
v -0.323886 0.102154 0.035257
v -0.221235 0.094985 0.005661
v -0.302259 0.138600 -0.056319
v -0.221235 0.094985 0.005661
v -0.323886 0.102154 0.035257
v 0.291912 0.000000 -0.185691
v 0.114533 -0.003319 -0.144927
v 0.214218 0.004941 -0.052168
v 0.214218 0.004941 -0.052168
v 0.114533 -0.003319 -0.144927
v 0.107585 0.057690 -0.132911
v 0.192522 0.065950 -0.047480
v 0.192522 0.065950 -0.047480
v 0.107585 0.057690 -0.132911
v 0.174653 0.111521 -0.146305
v 0.225084 0.119781 -0.086692
v 0.305382 0.163350 -0.190255
v 0.225084 0.119781 -0.086692
v 0.174653 0.111521 -0.146305
v 0.291912 0.000000 -0.185691
v 0.153630 -0.003889 -0.260150
v 0.114533 -0.003319 -0.144927
v 0.114533 -0.003319 -0.144927
v 0.153630 -0.003889 -0.260150
v 0.128944 0.057119 -0.270298
v 0.107585 0.057690 -0.132911
v 0.107585 0.057690 -0.132911
v 0.128944 0.057119 -0.270298
v 0.164410 0.110951 -0.237633
v 0.174653 0.111521 -0.146305
v 0.305382 0.163350 -0.190255
v 0.174653 0.111521 -0.146305
v 0.164410 0.110951 -0.237633
v 0.291912 0.000000 -0.185691
v 0.239953 0.004552 -0.325960
v 0.153630 -0.003889 -0.260150
v 0.153630 -0.003889 -0.260150
v 0.239953 0.004552 -0.325960
v 0.226561 0.065560 -0.333175
v 0.128944 0.057119 -0.270298
v 0.128944 0.057119 -0.270298
v 0.226561 0.065560 -0.333175
v 0.249021 0.119392 -0.294264
v 0.164410 0.110951 -0.237633
v 0.305382 0.163350 -0.190255
v 0.164410 0.110951 -0.237633
v 0.249021 0.119392 -0.294264
v 0.291912 0.000000 -0.185691
v 0.376710 0.002446 -0.307325
v 0.239953 0.004552 -0.325960
v 0.239953 0.004552 -0.325960
v 0.376710 0.002446 -0.307325
v 0.379090 0.063455 -0.344338
v 0.226561 0.065560 -0.333175
v 0.226561 0.065560 -0.333175
v 0.379090 0.063455 -0.344338
v 0.348696 0.117286 -0.301497
v 0.249021 0.119392 -0.294264
v 0.305382 0.163350 -0.190255
v 0.249021 0.119392 -0.294264
v 0.348696 0.117286 -0.301497
v 0.291912 0.000000 -0.185691
v 0.439089 -0.005327 -0.234757
v 0.376710 0.002446 -0.307325
v 0.376710 0.002446 -0.307325
v 0.439089 -0.005327 -0.234757
v 0.470406 0.055681 -0.240074
v 0.379090 0.063455 -0.344338
v 0.379090 0.063455 -0.344338
v 0.470406 0.055681 -0.240074
v 0.431250 0.109513 -0.219007
v 0.348696 0.117286 -0.301497
v 0.305382 0.163350 -0.190255
v 0.348696 0.117286 -0.301497
v 0.431250 0.109513 -0.219007
v 0.291912 0.000000 -0.185691
v 0.448224 -0.000757 -0.119378
v 0.439089 -0.005327 -0.234757
v 0.439089 -0.005327 -0.234757
v 0.448224 -0.000757 -0.119378
v 0.484504 0.060252 -0.114469
v 0.470406 0.055681 -0.240074
v 0.470406 0.055681 -0.240074
v 0.484504 0.060252 -0.114469
v 0.415565 0.114083 -0.132010
v 0.431250 0.109513 -0.219007
v 0.305382 0.163350 -0.190255
v 0.431250 0.109513 -0.219007
v 0.415565 0.114083 -0.132010
v 0.291912 0.000000 -0.185691
v 0.346509 0.005567 -0.052680
v 0.448224 -0.000757 -0.119378
v 0.448224 -0.000757 -0.119378
v 0.346509 0.005567 -0.052680
v 0.347755 0.066576 -0.012055
v 0.484504 0.060252 -0.114469
v 0.484504 0.060252 -0.114469
v 0.347755 0.066576 -0.012055
v 0.329297 0.120407 -0.061975
v 0.415565 0.114083 -0.132010
v 0.305382 0.163350 -0.190255
v 0.415565 0.114083 -0.132010
v 0.329297 0.120407 -0.061975
v 0.291912 0.000000 -0.185691
v 0.214218 0.004941 -0.052168
v 0.346509 0.005567 -0.052680
v 0.346509 0.005567 -0.052680
v 0.214218 0.004941 -0.052168
v 0.192522 0.065950 -0.047480
v 0.347755 0.066576 -0.012055
v 0.347755 0.066576 -0.012055
v 0.192522 0.065950 -0.047480
v 0.225084 0.119781 -0.086692
v 0.329297 0.120407 -0.061975
v 0.305382 0.163350 -0.190255
v 0.329297 0.120407 -0.061975
v 0.225084 0.119781 -0.086692
v -0.095909 0.000000 0.356778
v -0.285590 -0.005557 0.319670
v -0.262209 0.004040 0.454927
v -0.262209 0.004040 0.454927
v -0.285590 -0.005557 0.319670
v -0.295876 0.064695 0.310230
v -0.284207 0.074293 0.472925
v -0.284207 0.074293 0.472925
v -0.295876 0.064695 0.310230
v -0.243640 0.126683 0.326325
v -0.211432 0.136280 0.447655
v -0.084896 0.188100 0.347925
v -0.211432 0.136280 0.447655
v -0.243640 0.126683 0.326325
v -0.095909 0.000000 0.356778
v -0.176215 -0.002278 0.191850
v -0.285590 -0.005557 0.319670
v -0.285590 -0.005557 0.319670
v -0.176215 -0.002278 0.191850
v -0.200705 0.067974 0.187401
v -0.295876 0.064695 0.310230
v -0.295876 0.064695 0.310230
v -0.200705 0.067974 0.187401
v -0.172157 0.129962 0.246051
v -0.243640 0.126683 0.326325
v -0.084896 0.188100 0.347925
v -0.243640 0.126683 0.326325
v -0.172157 0.129962 0.246051
v -0.095909 0.000000 0.356778
v -0.003947 0.006280 0.217093
v -0.176215 -0.002278 0.191850
v -0.176215 -0.002278 0.191850
v -0.003947 0.006280 0.217093
v 0.005677 0.076532 0.186727
v -0.200705 0.067974 0.187401
v -0.200705 0.067974 0.187401
v 0.005677 0.076532 0.186727
v -0.033663 0.138520 0.224137
v -0.172157 0.129962 0.246051
v -0.084896 0.188100 0.347925
v -0.172157 0.129962 0.246051
v -0.033663 0.138520 0.224137
v -0.095909 0.000000 0.356778
v 0.088839 0.000287 0.315968
v -0.003947 0.006280 0.217093
v -0.003947 0.006280 0.217093
v 0.088839 0.000287 0.315968
v 0.103183 0.070540 0.306652
v 0.005677 0.076532 0.186727
v 0.005677 0.076532 0.186727
v 0.103183 0.070540 0.306652
v 0.054585 0.132527 0.324686
v -0.033663 0.138520 0.224137
v -0.084896 0.188100 0.347925
v -0.033663 0.138520 0.224137
v 0.054585 0.132527 0.324686
v -0.095909 0.000000 0.356778
v 0.049875 -0.006371 0.468394
v 0.088839 0.000287 0.315968
v 0.088839 0.000287 0.315968
v 0.049875 -0.006371 0.468394
v 0.094328 0.063882 0.470914
v 0.103183 0.070540 0.306652
v 0.103183 0.070540 0.306652
v 0.094328 0.063882 0.470914
v 0.039164 0.125869 0.433498
v 0.054585 0.132527 0.324686
v -0.084896 0.188100 0.347925
v 0.054585 0.132527 0.324686
v 0.039164 0.125869 0.433498
v -0.095909 0.000000 0.356778
v -0.094093 0.001733 0.510676
v 0.049875 -0.006371 0.468394
v 0.049875 -0.006371 0.468394
v -0.094093 0.001733 0.510676
v -0.093948 0.071985 0.548888
v 0.094328 0.063882 0.470914
v 0.094328 0.063882 0.470914
v -0.093948 0.071985 0.548888
v -0.094701 0.133973 0.505292
v 0.039164 0.125869 0.433498
v -0.084896 0.188100 0.347925
v 0.039164 0.125869 0.433498
v -0.094701 0.133973 0.505292
v -0.095909 0.000000 0.356778
v -0.262209 0.004040 0.454927
v -0.094093 0.001733 0.510676
v -0.094093 0.001733 0.510676
v -0.262209 0.004040 0.454927
v -0.284207 0.074293 0.472925
v -0.093948 0.071985 0.548888
v -0.093948 0.071985 0.548888
v -0.284207 0.074293 0.472925
v -0.211432 0.136280 0.447655
v -0.094701 0.133973 0.505292
v -0.084896 0.188100 0.347925
v -0.094701 0.133973 0.505292
v -0.211432 0.136280 0.447655
v -0.180230 0.000000 -0.347021
v -0.355092 -0.007210 -0.451416
v -0.410195 0.001947 -0.298888
v -0.410195 0.001947 -0.298888
v -0.355092 -0.007210 -0.451416
v -0.393900 0.072286 -0.461959
v -0.416173 0.081443 -0.284186
v -0.416173 0.081443 -0.284186
v -0.393900 0.072286 -0.461959
v -0.346743 0.142430 -0.417471
v -0.335045 0.151587 -0.301454
v -0.174924 0.212850 -0.359448
v -0.335045 0.151587 -0.301454
v -0.346743 0.142430 -0.417471
v -0.180230 0.000000 -0.347021
v -0.242161 0.000340 -0.526451
v -0.355092 -0.007210 -0.451416
v -0.355092 -0.007210 -0.451416
v -0.242161 0.000340 -0.526451
v -0.256058 0.079836 -0.541047
v -0.393900 0.072286 -0.461959
v -0.393900 0.072286 -0.461959
v -0.256058 0.079836 -0.541047
v -0.228644 0.149980 -0.494096
v -0.346743 0.142430 -0.417471
v -0.174924 0.212850 -0.359448
v -0.346743 0.142430 -0.417471
v -0.228644 0.149980 -0.494096
v -0.180230 0.000000 -0.347021
v -0.064794 0.007103 -0.506189
v -0.242161 0.000340 -0.526451
v -0.242161 0.000340 -0.526451
v -0.064794 0.007103 -0.506189
v -0.062200 0.086599 -0.554620
v -0.256058 0.079836 -0.541047
v -0.256058 0.079836 -0.541047
v -0.062200 0.086599 -0.554620
v -0.100570 0.156743 -0.493906
v -0.228644 0.149980 -0.494096
v -0.174924 0.212850 -0.359448
v -0.228644 0.149980 -0.494096
v -0.100570 0.156743 -0.493906
v -0.180230 0.000000 -0.347021
v 0.012703 -0.002592 -0.404121
v -0.064794 0.007103 -0.506189
v -0.064794 0.007103 -0.506189
v 0.012703 -0.002592 -0.404121
v 0.061366 0.076905 -0.408487
v -0.062200 0.086599 -0.554620
v -0.062200 0.086599 -0.554620
v 0.061366 0.076905 -0.408487
v 0.006229 0.147048 -0.384925
v -0.100570 0.156743 -0.493906
v -0.174924 0.212850 -0.359448
v -0.100570 0.156743 -0.493906
v 0.006229 0.147048 -0.384925
v -0.180230 0.000000 -0.347021
v 0.024671 -0.006281 -0.257368
v 0.012703 -0.002592 -0.404121
v 0.012703 -0.002592 -0.404121
v 0.024671 -0.006281 -0.257368
v 0.064747 0.073215 -0.247448
v 0.061366 0.076905 -0.408487
v 0.061366 0.076905 -0.408487
v 0.064747 0.073215 -0.247448
v -0.026572 0.143359 -0.270262
v 0.006229 0.147048 -0.384925
v -0.174924 0.212850 -0.359448
v 0.006229 0.147048 -0.384925
v -0.026572 0.143359 -0.270262
v -0.180230 0.000000 -0.347021
v -0.118425 0.004583 -0.167200
v 0.024671 -0.006281 -0.257368
v 0.024671 -0.006281 -0.257368
v -0.118425 0.004583 -0.167200
v -0.116855 0.084079 -0.114110
v 0.064747 0.073215 -0.247448
v 0.064747 0.073215 -0.247448
v -0.116855 0.084079 -0.114110
v -0.136163 0.154223 -0.186376
v -0.026572 0.143359 -0.270262
v -0.174924 0.212850 -0.359448
v -0.026572 0.143359 -0.270262
v -0.136163 0.154223 -0.186376
v -0.180230 0.000000 -0.347021
v -0.278972 0.004828 -0.162129
v -0.118425 0.004583 -0.167200
v -0.118425 0.004583 -0.167200
v -0.278972 0.004828 -0.162129
v -0.306326 0.084324 -0.151849
v -0.116855 0.084079 -0.114110
v -0.116855 0.084079 -0.114110
v -0.306326 0.084324 -0.151849
v -0.276126 0.154468 -0.225152
v -0.136163 0.154223 -0.186376
v -0.174924 0.212850 -0.359448
v -0.136163 0.154223 -0.186376
v -0.276126 0.154468 -0.225152
v -0.180230 0.000000 -0.347021
v -0.410195 0.001947 -0.298888
v -0.278972 0.004828 -0.162129
v -0.278972 0.004828 -0.162129
v -0.410195 0.001947 -0.298888
v -0.416173 0.081443 -0.284186
v -0.306326 0.084324 -0.151849
v -0.306326 0.084324 -0.151849
v -0.416173 0.081443 -0.284186
v -0.335045 0.151587 -0.301454
v -0.276126 0.154468 -0.225152
v -0.174924 0.212850 -0.359448
v -0.276126 0.154468 -0.225152
v -0.335045 0.151587 -0.301454
v 0.386181 0.000000 0.141032
v 0.316231 -0.004517 0.026899
v 0.248456 -0.000652 0.122947
v 0.248456 -0.000652 0.122947
v 0.316231 -0.004517 0.026899
v 0.295003 0.047248 0.024333
v 0.236728 0.051113 0.118959
v 0.236728 0.051113 0.118959
v 0.295003 0.047248 0.024333
v 0.321896 0.092923 0.061946
v 0.272588 0.096788 0.126977
v 0.384404 0.138600 0.132712
v 0.272588 0.096788 0.126977
v 0.321896 0.092923 0.061946
v 0.386181 0.000000 0.141032
v 0.442743 0.002084 0.035003
v 0.316231 -0.004517 0.026899
v 0.316231 -0.004517 0.026899
v 0.442743 0.002084 0.035003
v 0.446890 0.053849 0.007853
v 0.295003 0.047248 0.024333
v 0.295003 0.047248 0.024333
v 0.446890 0.053849 0.007853
v 0.423669 0.099524 0.038429
v 0.321896 0.092923 0.061946
v 0.384404 0.138600 0.132712
v 0.321896 0.092923 0.061946
v 0.423669 0.099524 0.038429
v 0.386181 0.000000 0.141032
v 0.515894 0.003856 0.100243
v 0.442743 0.002084 0.035003
v 0.442743 0.002084 0.035003
v 0.515894 0.003856 0.100243
v 0.530820 0.055621 0.092433
v 0.446890 0.053849 0.007853
v 0.446890 0.053849 0.007853
v 0.530820 0.055621 0.092433
v 0.497887 0.101296 0.110614
v 0.423669 0.099524 0.038429
v 0.384404 0.138600 0.132712
v 0.423669 0.099524 0.038429
v 0.497887 0.101296 0.110614
v 0.386181 0.000000 0.141032
v 0.502905 -0.003307 0.213100
v 0.515894 0.003856 0.100243
v 0.515894 0.003856 0.100243
v 0.502905 -0.003307 0.213100
v 0.537153 0.048458 0.214998
v 0.530820 0.055621 0.092433
v 0.530820 0.055621 0.092433
v 0.537153 0.048458 0.214998
v 0.489940 0.094133 0.192679
v 0.497887 0.101296 0.110614
v 0.384404 0.138600 0.132712
v 0.497887 0.101296 0.110614
v 0.489940 0.094133 0.192679
v 0.386181 0.000000 0.141032
v 0.399825 -0.002808 0.254466
v 0.502905 -0.003307 0.213100
v 0.502905 -0.003307 0.213100
v 0.399825 -0.002808 0.254466
v 0.400549 0.048957 0.286222
v 0.537153 0.048458 0.214998
v 0.537153 0.048458 0.214998
v 0.400549 0.048957 0.286222
v 0.395172 0.094632 0.251185
v 0.489940 0.094133 0.192679
v 0.384404 0.138600 0.132712
v 0.489940 0.094133 0.192679
v 0.395172 0.094632 0.251185
v 0.386181 0.000000 0.141032
v 0.289097 0.004197 0.234384
v 0.399825 -0.002808 0.254466
v 0.399825 -0.002808 0.254466
v 0.289097 0.004197 0.234384
v 0.274690 0.055962 0.249479
v 0.400549 0.048957 0.286222
v 0.400549 0.048957 0.286222
v 0.274690 0.055962 0.249479
v 0.299231 0.101637 0.208055
v 0.395172 0.094632 0.251185
v 0.384404 0.138600 0.132712
v 0.395172 0.094632 0.251185
v 0.299231 0.101637 0.208055
v 0.386181 0.000000 0.141032
v 0.248456 -0.000652 0.122947
v 0.289097 0.004197 0.234384
v 0.289097 0.004197 0.234384
v 0.248456 -0.000652 0.122947
v 0.236728 0.051113 0.118959
v 0.274690 0.055962 0.249479
v 0.274690 0.055962 0.249479
v 0.236728 0.051113 0.118959
v 0.272588 0.096788 0.126977
v 0.299231 0.101637 0.208055
v 0.384404 0.138600 0.132712
v 0.299231 0.101637 0.208055
v 0.272588 0.096788 0.126977
v -0.397468 0.000000 0.164070
v -0.440064 -0.004232 0.028726
v -0.528667 -0.002903 0.078932
v -0.528667 -0.002903 0.078932
v -0.440064 -0.004232 0.028726
v -0.448043 0.056777 0.012545
v -0.562749 0.058106 0.072952
v -0.562749 0.058106 0.072952
v -0.448043 0.056777 0.012545
v -0.429058 0.110608 0.046842
v -0.524566 0.111937 0.107721
v -0.405382 0.163350 0.155622
v -0.524566 0.111937 0.107721
v -0.429058 0.110608 0.046842
v -0.397468 0.000000 0.164070
v -0.305825 0.004245 0.041067
v -0.440064 -0.004232 0.028726
v -0.440064 -0.004232 0.028726
v -0.305825 0.004245 0.041067
v -0.303312 0.065254 0.005218
v -0.448043 0.056777 0.012545
v -0.448043 0.056777 0.012545
v -0.303312 0.065254 0.005218
v -0.331450 0.119085 0.055282
v -0.429058 0.110608 0.046842
v -0.405382 0.163350 0.155622
v -0.429058 0.110608 0.046842
v -0.331450 0.119085 0.055282
v -0.397468 0.000000 0.164070
v -0.247319 0.002886 0.125876
v -0.305825 0.004245 0.041067
v -0.305825 0.004245 0.041067
v -0.247319 0.002886 0.125876
v -0.204869 0.063895 0.123945
v -0.303312 0.065254 0.005218
v -0.303312 0.065254 0.005218
v -0.204869 0.063895 0.123945
v -0.251708 0.117726 0.138900
v -0.331450 0.119085 0.055282
v -0.405382 0.163350 0.155622
v -0.331450 0.119085 0.055282
v -0.251708 0.117726 0.138900
v -0.397468 0.000000 0.164070
v -0.240317 -0.005160 0.235421
v -0.247319 0.002886 0.125876
v -0.247319 0.002886 0.125876
v -0.240317 -0.005160 0.235421
v -0.215556 0.055849 0.246353
v -0.204869 0.063895 0.123945
v -0.204869 0.063895 0.123945
v -0.215556 0.055849 0.246353
v -0.285195 0.109680 0.228295
v -0.251708 0.117726 0.138900
v -0.405382 0.163350 0.155622
v -0.251708 0.117726 0.138900
v -0.285195 0.109680 0.228295
v -0.397468 0.000000 0.164070
v -0.357089 -0.001250 0.307393
v -0.240317 -0.005160 0.235421
v -0.240317 -0.005160 0.235421
v -0.357089 -0.001250 0.307393
v -0.355517 0.059759 0.346643
v -0.215556 0.055849 0.246353
v -0.215556 0.055849 0.246353
v -0.355517 0.059759 0.346643
v -0.367185 0.113590 0.286001
v -0.285195 0.109680 0.228295
v -0.405382 0.163350 0.155622
v -0.285195 0.109680 0.228295
v -0.367185 0.113590 0.286001
v -0.397468 0.000000 0.164070
v -0.478808 0.005556 0.301740
v -0.357089 -0.001250 0.307393
v -0.357089 -0.001250 0.307393
v -0.478808 0.005556 0.301740
v -0.503064 0.066565 0.306639
v -0.355517 0.059759 0.346643
v -0.355517 0.059759 0.346643
v -0.503064 0.066565 0.306639
v -0.475814 0.120396 0.255311
v -0.367185 0.113590 0.286001
v -0.405382 0.163350 0.155622
v -0.367185 0.113590 0.286001
v -0.475814 0.120396 0.255311
v -0.397468 0.000000 0.164070
v -0.578464 -0.000512 0.195786
v -0.478808 0.005556 0.301740
v -0.478808 0.005556 0.301740
v -0.578464 -0.000512 0.195786
v -0.601713 0.060497 0.201749
v -0.503064 0.066565 0.306639
v -0.503064 0.066565 0.306639
v -0.601713 0.060497 0.201749
v -0.522709 0.114328 0.193550
v -0.475814 0.120396 0.255311
v -0.405382 0.163350 0.155622
v -0.475814 0.120396 0.255311
v -0.522709 0.114328 0.193550
v -0.397468 0.000000 0.164070
v -0.528667 -0.002903 0.078932
v -0.578464 -0.000512 0.195786
v -0.578464 -0.000512 0.195786
v -0.528667 -0.002903 0.078932
v -0.562749 0.058106 0.072952
v -0.601713 0.060497 0.201749
v -0.601713 0.060497 0.201749
v -0.562749 0.058106 0.072952
v -0.524566 0.111937 0.107721
v -0.522709 0.114328 0.193550
v -0.405382 0.163350 0.155622
v -0.522709 0.114328 0.193550
v -0.524566 0.111937 0.107721
v 0.189819 0.000000 -0.405634
v 0.250377 -0.002808 -0.554217
v 0.079755 -0.005247 -0.549243
v 0.079755 -0.005247 -0.549243
v 0.250377 -0.002808 -0.554217
v 0.253294 0.067445 -0.596616
v 0.047907 0.065005 -0.553352
v 0.047907 0.065005 -0.553352
v 0.253294 0.067445 -0.596616
v 0.229734 0.129432 -0.549802
v 0.092977 0.126993 -0.509639
v 0.175515 0.188100 -0.412187
v 0.092977 0.126993 -0.509639
v 0.229734 0.129432 -0.549802
v 0.189819 0.000000 -0.405634
v 0.357238 0.006137 -0.475522
v 0.250377 -0.002808 -0.554217
v 0.250377 -0.002808 -0.554217
v 0.357238 0.006137 -0.475522
v 0.383697 0.076390 -0.486246
v 0.253294 0.067445 -0.596616
v 0.253294 0.067445 -0.596616
v 0.383697 0.076390 -0.486246
v 0.341256 0.138377 -0.455324
v 0.229734 0.129432 -0.549802
v 0.175515 0.188100 -0.412187
v 0.229734 0.129432 -0.549802
v 0.341256 0.138377 -0.455324
v 0.189819 0.000000 -0.405634
v 0.360803 0.000862 -0.321884
v 0.357238 0.006137 -0.475522
v 0.357238 0.006137 -0.475522
v 0.360803 0.000862 -0.321884
v 0.407133 0.071114 -0.318446
v 0.383697 0.076390 -0.486246
v 0.383697 0.076390 -0.486246
v 0.407133 0.071114 -0.318446
v 0.334457 0.133102 -0.342450
v 0.341256 0.138377 -0.455324
v 0.175515 0.188100 -0.412187
v 0.341256 0.138377 -0.455324
v 0.334457 0.133102 -0.342450
v 0.189819 0.000000 -0.405634
v 0.224559 -0.006411 -0.251215
v 0.360803 0.000862 -0.321884
v 0.360803 0.000862 -0.321884
v 0.224559 -0.006411 -0.251215
v 0.225738 0.063842 -0.204932
v 0.407133 0.071114 -0.318446
v 0.407133 0.071114 -0.318446
v 0.225738 0.063842 -0.204932
v 0.212880 0.125829 -0.257173
v 0.334457 0.133102 -0.342450
v 0.175515 0.188100 -0.412187
v 0.334457 0.133102 -0.342450
v 0.212880 0.125829 -0.257173
v 0.189819 0.000000 -0.405634
v 0.070163 0.001171 -0.267033
v 0.224559 -0.006411 -0.251215
v 0.224559 -0.006411 -0.251215
v 0.070163 0.001171 -0.267033
v 0.047087 0.071423 -0.249774
v 0.225738 0.063842 -0.204932
v 0.225738 0.063842 -0.204932
v 0.047087 0.071423 -0.249774
v 0.078168 0.133411 -0.310104
v 0.212880 0.125829 -0.257173
v 0.175515 0.188100 -0.412187
v 0.212880 0.125829 -0.257173
v 0.078168 0.133411 -0.310104
v 0.189819 0.000000 -0.405634
v -0.010122 0.006039 -0.415833
v 0.070163 0.001171 -0.267033
v 0.070163 0.001171 -0.267033
v -0.010122 0.006039 -0.415833
v -0.059622 0.076292 -0.416445
v 0.047087 0.071423 -0.249774
v 0.047087 0.071423 -0.249774
v -0.059622 0.076292 -0.416445
v 0.027637 0.138279 -0.413675
v 0.078168 0.133411 -0.310104
v 0.175515 0.188100 -0.412187
v 0.078168 0.133411 -0.310104
v 0.027637 0.138279 -0.413675
v 0.189819 0.000000 -0.405634
v 0.079755 -0.005247 -0.549243
v -0.010122 0.006039 -0.415833
v -0.010122 0.006039 -0.415833
v 0.079755 -0.005247 -0.549243
v 0.047907 0.065005 -0.553352
v -0.059622 0.076292 -0.416445
v -0.059622 0.076292 -0.416445
v 0.047907 0.065005 -0.553352
v 0.092977 0.126993 -0.509639
v 0.027637 0.138279 -0.413675
v 0.175515 0.188100 -0.412187
v 0.027637 0.138279 -0.413675
v 0.092977 0.126993 -0.509639
v 0.180000 0.050000 0.000000
v 0.258752 0.033852 0.027735
v 0.276239 -0.106976 0.114694
v 0.193638 0.033852 0.082371
v 0.269573 0.010025 -0.014520
v 0.262496 0.009115 -0.018618
v 0.190313 -0.076909 0.125115
v 0.197391 -0.075999 0.129213
v 0.262496 0.009115 -0.018618
v 0.257789 0.015681 -0.017053
v 0.185606 -0.070343 0.126680
v 0.190313 -0.076909 0.125115
v 0.257789 0.015681 -0.017053
v 0.261957 0.020648 -0.011987
v 0.189774 -0.065376 0.131747
v 0.185606 -0.070343 0.126680
v 0.261957 0.020648 -0.011987
v 0.269240 0.017153 -0.010421
v 0.197057 -0.068872 0.133312
v 0.189774 -0.065376 0.131747
v 0.269240 0.017153 -0.010421
v 0.269573 0.010025 -0.014520
v 0.197391 -0.075999 0.129213
v 0.197057 -0.068872 0.133312
v 0.264211 0.014524 -0.014520
v 0.262496 0.009115 -0.018618
v 0.269573 0.010025 -0.014520
v 0.192028 -0.071500 0.129213
v 0.197391 -0.075999 0.129213
v 0.190313 -0.076909 0.125115
v 0.264211 0.014524 -0.014520
v 0.257789 0.015681 -0.017053
v 0.262496 0.009115 -0.018618
v 0.192028 -0.071500 0.129213
v 0.190313 -0.076909 0.125115
v 0.185606 -0.070343 0.126680
v 0.264211 0.014524 -0.014520
v 0.261957 0.020648 -0.011987
v 0.257789 0.015681 -0.017053
v 0.192028 -0.071500 0.129213
v 0.185606 -0.070343 0.126680
v 0.189774 -0.065376 0.131747
v 0.264211 0.014524 -0.014520
v 0.269240 0.017153 -0.010421
v 0.261957 0.020648 -0.011987
v 0.192028 -0.071500 0.129213
v 0.189774 -0.065376 0.131747
v 0.197057 -0.068872 0.133312
v 0.264211 0.014524 -0.014520
v 0.269573 0.010025 -0.014520
v 0.269240 0.017153 -0.010421
v 0.192028 -0.071500 0.129213
v 0.197057 -0.068872 0.133312
v 0.197391 -0.075999 0.129213
v -0.090872 0.050000 0.155378
v -0.046133 0.033852 0.084883
v 0.042531 -0.106976 0.087405
v -0.007544 0.033852 0.160619
v 0.022680 -0.060216 0.049525
v 0.020202 -0.053524 0.045426
v -0.079856 -0.002543 0.189159
v -0.077377 -0.009234 0.193258
v 0.020202 -0.053524 0.045426
v 0.025540 -0.047461 0.046992
v -0.074517 0.003521 0.190725
v -0.079856 -0.002543 0.189159
v 0.025540 -0.047461 0.046992
v 0.031318 -0.050405 0.052058
v -0.068739 0.000577 0.195791
v -0.074517 0.003521 0.190725
v 0.031318 -0.050405 0.052058
v 0.029550 -0.058288 0.053624
v -0.070507 -0.007306 0.197357
v -0.068739 0.000577 0.195791
v 0.029550 -0.058288 0.053624
v 0.022680 -0.060216 0.049525
v -0.077377 -0.009234 0.193258
v -0.070507 -0.007306 0.197357
v 0.025858 -0.053979 0.049525
v 0.020202 -0.053524 0.045426
v 0.022680 -0.060216 0.049525
v -0.074199 -0.002997 0.193258
v -0.077377 -0.009234 0.193258
v -0.079856 -0.002543 0.189159
v 0.025858 -0.053979 0.049525
v 0.025540 -0.047461 0.046992
v 0.020202 -0.053524 0.045426
v -0.074199 -0.002997 0.193258
v -0.079856 -0.002543 0.189159
v -0.074517 0.003521 0.190725
v 0.025858 -0.053979 0.049525
v 0.031318 -0.050405 0.052058
v 0.025540 -0.047461 0.046992
v -0.074199 -0.002997 0.193258
v -0.074517 0.003521 0.190725
v -0.068739 0.000577 0.195791
v 0.025858 -0.053979 0.049525
v 0.029550 -0.058288 0.053624
v 0.031318 -0.050405 0.052058
v -0.074199 -0.002997 0.193258
v -0.068739 0.000577 0.195791
v -0.070507 -0.007306 0.197357
v 0.025858 -0.053979 0.049525
v 0.022680 -0.060216 0.049525
v 0.029550 -0.058288 0.053624
v -0.074199 -0.002997 0.193258
v -0.070507 -0.007306 0.197357
v -0.077377 -0.009234 0.193258
v -0.088247 0.050000 -0.156884
v -0.146871 0.033852 -0.216334
v -0.124468 -0.106976 -0.302158
v -0.064395 0.033852 -0.236897
v -0.126733 -0.081275 -0.301388
v -0.120771 -0.077355 -0.305486
v -0.093604 0.031606 -0.161753
v -0.099566 0.027686 -0.157654
v -0.120771 -0.077355 -0.305486
v -0.113662 -0.081192 -0.303921
v -0.086495 0.027769 -0.160188
v -0.093604 0.031606 -0.161753
v -0.113662 -0.081192 -0.303921
v -0.115230 -0.087484 -0.298854
v -0.088063 0.021477 -0.155121
v -0.086495 0.027769 -0.160188
v -0.115230 -0.087484 -0.298854
v -0.123309 -0.087535 -0.297289
v -0.096142 0.021426 -0.153556
v -0.088063 0.021477 -0.155121
v -0.123309 -0.087535 -0.297289
v -0.126733 -0.081275 -0.301388
v -0.099566 0.027686 -0.157654
v -0.096142 0.021426 -0.153556
v -0.119941 -0.082968 -0.301388
v -0.120771 -0.077355 -0.305486
v -0.126733 -0.081275 -0.301388
v -0.092774 0.025993 -0.157654
v -0.099566 0.027686 -0.157654
v -0.093604 0.031606 -0.161753
v -0.119941 -0.082968 -0.301388
v -0.113662 -0.081192 -0.303921
v -0.120771 -0.077355 -0.305486
v -0.092774 0.025993 -0.157654
v -0.093604 0.031606 -0.161753
v -0.086495 0.027769 -0.160188
v -0.119941 -0.082968 -0.301388
v -0.115230 -0.087484 -0.298854
v -0.113662 -0.081192 -0.303921
v -0.092774 0.025993 -0.157654
v -0.086495 0.027769 -0.160188
v -0.088063 0.021477 -0.155121
v -0.119941 -0.082968 -0.301388
v -0.123309 -0.087535 -0.297289
v -0.115230 -0.087484 -0.298854
v -0.092774 0.025993 -0.157654
v -0.088063 0.021477 -0.155121
v -0.096142 0.021426 -0.153556
v -0.119941 -0.082968 -0.301388
v -0.126733 -0.081275 -0.301388
v -0.123309 -0.087535 -0.297289
v -0.092774 0.025993 -0.157654
v -0.096142 0.021426 -0.153556
v -0.099566 0.027686 -0.157654
v 0.179975 0.050000 0.003027
v 0.108861 0.033852 0.046774
v 0.030275 -0.106976 0.005640
v 0.107377 0.033852 -0.038213
v 0.049107 -0.020509 -0.067534
v 0.054268 -0.025437 -0.071632
v 0.166548 -0.027397 0.072101
v 0.161387 -0.022469 0.076200
v 0.054268 -0.025437 -0.071632
v 0.052128 -0.033227 -0.070067
v 0.164408 -0.035187 0.073666
v 0.166548 -0.027397 0.072101
v 0.052128 -0.033227 -0.070067
v 0.045645 -0.033114 -0.065000
v 0.157924 -0.035073 0.078733
v 0.164408 -0.035187 0.073666
v 0.045645 -0.033114 -0.065000
v 0.043778 -0.025254 -0.063435
v 0.156057 -0.027213 0.080298
v 0.157924 -0.035073 0.078733
v 0.043778 -0.025254 -0.063435
v 0.049107 -0.020509 -0.067534
v 0.161387 -0.022469 0.076200
v 0.156057 -0.027213 0.080298
v 0.048985 -0.027508 -0.067534
v 0.054268 -0.025437 -0.071632
v 0.049107 -0.020509 -0.067534
v 0.161265 -0.029468 0.076200
v 0.161387 -0.022469 0.076200
v 0.166548 -0.027397 0.072101
v 0.048985 -0.027508 -0.067534
v 0.052128 -0.033227 -0.070067
v 0.054268 -0.025437 -0.071632
v 0.161265 -0.029468 0.076200
v 0.166548 -0.027397 0.072101
v 0.164408 -0.035187 0.073666
v 0.048985 -0.027508 -0.067534
v 0.045645 -0.033114 -0.065000
v 0.052128 -0.033227 -0.070067
v 0.161265 -0.029468 0.076200
v 0.164408 -0.035187 0.073666
v 0.157924 -0.035073 0.078733
v 0.048985 -0.027508 -0.067534
v 0.043778 -0.025254 -0.063435
v 0.045645 -0.033114 -0.065000
v 0.161265 -0.029468 0.076200
v 0.157924 -0.035073 0.078733
v 0.156057 -0.027213 0.080298
v 0.048985 -0.027508 -0.067534
v 0.049107 -0.020509 -0.067534
v 0.043778 -0.025254 -0.063435
v 0.161265 -0.029468 0.076200
v 0.156057 -0.027213 0.080298
v 0.161387 -0.022469 0.076200
v -0.045033 0.026000 -0.156968
v 0.166444 0.026000 -0.217608
v 0.166444 0.044000 -0.217608
v -0.045033 0.044000 -0.156968
v 0.205033 0.026000 -0.083032
v -0.006444 0.026000 -0.022392
v -0.006444 0.044000 -0.022392
v 0.205033 0.044000 -0.083032
v -0.006444 0.026000 -0.022392
v -0.045033 0.026000 -0.156968
v -0.045033 0.044000 -0.156968
v -0.006444 0.044000 -0.022392
v 0.166444 0.026000 -0.217608
v 0.205033 0.026000 -0.083032
v 0.205033 0.044000 -0.083032
v 0.166444 0.044000 -0.217608
v -0.045033 0.044000 -0.156968
v 0.166444 0.044000 -0.217608
v 0.205033 0.044000 -0.083032
v -0.006444 0.044000 -0.022392
v -0.006444 0.026000 -0.022392
v 0.205033 0.026000 -0.083032
v 0.166444 0.026000 -0.217608
v -0.045033 0.026000 -0.156968
vt 0.000000 0.000000
vt 0.000000 0.000000
vt 0.000000 0.000000
vt 0.000000 0.000000
vt 1.000000 0.000000
vt 1.000000 1.000000
vt 0.000000 1.000000
vt 0.000000 0.000000
vt 1.000000 0.000000
vt 1.000000 1.000000
vt 0.000000 1.000000
vt 0.000000 0.000000
vt 0.000000 0.000000
vt 0.000000 0.000000
vt 0.000000 0.000000
vt 0.000000 0.000000
vt 0.000000 0.000000
vt 0.000000 0.000000
vt 1.000000 0.000000
vt 1.000000 1.000000
vt 0.000000 1.000000
vt 0.000000 0.000000
vt 1.000000 0.000000
vt 1.000000 1.000000
vt 0.000000 1.000000
vt 0.000000 0.000000
vt 0.000000 0.000000
vt 0.000000 0.000000
vt 0.000000 0.000000
vt 0.000000 0.000000
vt 0.000000 0.000000
vt 0.000000 0.000000
vt 1.000000 0.000000
vt 1.000000 1.000000
vt 0.000000 1.000000
vt 0.000000 0.000000
vt 1.000000 0.000000
vt 1.000000 1.000000
vt 0.000000 1.000000
vt 0.000000 0.000000
vt 0.000000 0.000000
vt 0.000000 0.000000
vt 0.000000 0.000000
vt 0.000000 0.000000
vt 0.000000 0.000000
vt 0.000000 0.000000
vt 1.000000 0.000000
vt 1.000000 1.000000
vt 0.000000 1.000000
vt 0.000000 0.000000
vt 1.000000 0.000000
vt 1.000000 1.000000
vt 0.000000 1.000000
vt 0.000000 0.000000
vt 0.000000 0.000000
vt 0.000000 0.000000
vt 0.000000 0.000000
vt 0.000000 0.000000
vt 0.000000 0.000000
vt 0.000000 0.000000
vt 1.000000 0.000000
vt 1.000000 1.000000
vt 0.000000 1.000000
vt 0.000000 0.000000
vt 1.000000 0.000000
vt 1.000000 1.000000
vt 0.000000 1.000000
vt 0.000000 0.000000
vt 0.000000 0.000000
vt 0.000000 0.000000
vt 0.000000 0.000000
vt 0.000000 0.000000
vt 0.000000 0.000000
vt 0.000000 0.000000
vt 1.000000 0.000000
vt 1.000000 1.000000
vt 0.000000 1.000000
vt 0.000000 0.000000
vt 1.000000 0.000000
vt 1.000000 1.000000
vt 0.000000 1.000000
vt 0.000000 0.000000
vt 0.000000 0.000000
vt 0.000000 0.000000
vt 0.000000 0.000000
vt 0.000000 0.000000
vt 0.000000 0.000000
vt 0.000000 0.000000
vt 1.000000 0.000000
vt 1.000000 1.000000
vt 0.000000 1.000000
vt 0.000000 0.000000
vt 1.000000 0.000000
vt 1.000000 1.000000
vt 0.000000 1.000000
vt 0.000000 0.000000
vt 0.000000 0.000000
vt 0.000000 0.000000
vt 0.000000 0.000000
vt 0.000000 0.000000
vt 0.000000 0.000000
vt 0.000000 0.000000
vt 1.000000 0.000000
vt 1.000000 1.000000
vt 0.000000 1.000000
vt 0.000000 0.000000
vt 1.000000 0.000000
vt 1.000000 1.000000
vt 0.000000 1.000000
vt 0.000000 0.000000
vt 0.000000 0.000000
vt 0.000000 0.000000
vt 0.000000 0.000000
vt 0.000000 0.000000
vt 0.000000 0.000000
vt 0.000000 0.000000
vt 1.000000 0.000000
vt 1.000000 1.000000
vt 0.000000 1.000000
vt 0.000000 0.000000
vt 1.000000 0.000000
vt 1.000000 1.000000
vt 0.000000 1.000000
vt 0.000000 0.000000
vt 0.000000 0.000000
vt 0.000000 0.000000
vt 0.000000 0.000000
vt 0.000000 0.000000
vt 0.000000 0.000000
vt 0.000000 0.000000
vt 1.000000 0.000000
vt 1.000000 1.000000
vt 0.000000 1.000000
vt 0.000000 0.000000
vt 1.000000 0.000000
vt 1.000000 1.000000
vt 0.000000 1.000000
vt 0.000000 0.000000
vt 0.000000 0.000000
vt 0.000000 0.000000
vt 0.000000 0.000000
vt 0.000000 0.000000
vt 0.000000 0.000000
vt 0.000000 0.000000
vt 1.000000 0.000000
vt 1.000000 1.000000
vt 0.000000 1.000000
vt 0.000000 0.000000
vt 1.000000 0.000000
vt 1.000000 1.000000
vt 0.000000 1.000000
vt 0.000000 0.000000
vt 0.000000 0.000000
vt 0.000000 0.000000
vt 0.000000 0.000000
vt 0.000000 0.000000
vt 0.000000 0.000000
vt 0.000000 0.000000
vt 1.000000 0.000000
vt 1.000000 1.000000
vt 0.000000 1.000000
vt 0.000000 0.000000
vt 1.000000 0.000000
vt 1.000000 1.000000
vt 0.000000 1.000000
vt 0.000000 0.000000
vt 0.000000 0.000000
vt 0.000000 0.000000
vt 0.000000 0.000000
vt 0.000000 0.000000
vt 0.000000 0.000000
vt 0.000000 0.000000
vt 1.000000 0.000000
vt 1.000000 1.000000
vt 0.000000 1.000000
vt 0.000000 0.000000
vt 1.000000 0.000000
vt 1.000000 1.000000
vt 0.000000 1.000000
vt 0.000000 0.000000
vt 0.000000 0.000000
vt 0.000000 0.000000
vt 0.000000 0.000000
vt 0.000000 0.000000
vt 0.000000 0.000000
vt 0.000000 0.000000
vt 1.000000 0.000000
vt 1.000000 1.000000
vt 0.000000 1.000000
vt 0.000000 0.000000
vt 1.000000 0.000000
vt 1.000000 1.000000
vt 0.000000 1.000000
vt 0.000000 0.000000
vt 0.000000 0.000000
vt 0.000000 0.000000
vt 0.000000 0.000000
vt 0.000000 0.000000
vt 0.000000 0.000000
vt 0.000000 0.000000
vt 1.000000 0.000000
vt 1.000000 1.000000
vt 0.000000 1.000000
vt 0.000000 0.000000
vt 1.000000 0.000000
vt 1.000000 1.000000
vt 0.000000 1.000000
vt 0.000000 0.000000
vt 0.000000 0.000000
vt 0.000000 0.000000
vt 0.000000 0.000000
vt 0.000000 0.000000
vt 0.000000 0.000000
vt 0.000000 0.000000
vt 1.000000 0.000000
vt 1.000000 1.000000
vt 0.000000 1.000000
vt 0.000000 0.000000
vt 1.000000 0.000000
vt 1.000000 1.000000
vt 0.000000 1.000000
vt 0.000000 0.000000
vt 0.000000 0.000000
vt 0.000000 0.000000
vt 0.000000 0.000000
vt 0.000000 0.000000
vt 0.000000 0.000000
vt 0.000000 0.000000
vt 1.000000 0.000000
vt 1.000000 1.000000
vt 0.000000 1.000000
vt 0.000000 0.000000
vt 1.000000 0.000000
vt 1.000000 1.000000
vt 0.000000 1.000000
vt 0.000000 0.000000
vt 0.000000 0.000000
vt 0.000000 0.000000
vt 0.000000 0.000000
vt 0.000000 0.000000
vt 0.000000 0.000000
vt 0.000000 0.000000
vt 1.000000 0.000000
vt 1.000000 1.000000
vt 0.000000 1.000000
vt 0.000000 0.000000
vt 1.000000 0.000000
vt 1.000000 1.000000
vt 0.000000 1.000000
vt 0.000000 0.000000
vt 0.000000 0.000000
vt 0.000000 0.000000
vt 0.000000 0.000000
vt 0.000000 0.000000
vt 0.000000 0.000000
vt 0.000000 0.000000
vt 1.000000 0.000000
vt 1.000000 1.000000
vt 0.000000 1.000000
vt 0.000000 0.000000
vt 1.000000 0.000000
vt 1.000000 1.000000
vt 0.000000 1.000000
vt 0.000000 0.000000
vt 0.000000 0.000000
vt 0.000000 0.000000
vt 0.000000 0.000000
vt 0.000000 0.000000
vt 0.000000 0.000000
vt 0.000000 0.000000
vt 1.000000 0.000000
vt 1.000000 1.000000
vt 0.000000 1.000000
vt 0.000000 0.000000
vt 1.000000 0.000000
vt 1.000000 1.000000
vt 0.000000 1.000000
vt 0.000000 0.000000
vt 0.000000 0.000000
vt 0.000000 0.000000
vt 0.000000 0.000000
vt 0.000000 0.000000
vt 0.000000 0.000000
vt 0.000000 0.000000
vt 1.000000 0.000000
vt 1.000000 1.000000
vt 0.000000 1.000000
vt 0.000000 0.000000
vt 1.000000 0.000000
vt 1.000000 1.000000
vt 0.000000 1.000000
vt 0.000000 0.000000
vt 0.000000 0.000000
vt 0.000000 0.000000
vt 0.000000 0.000000
vt 0.000000 0.000000
vt 0.000000 0.000000
vt 0.000000 0.000000
vt 1.000000 0.000000
vt 1.000000 1.000000
vt 0.000000 1.000000
vt 0.000000 0.000000
vt 1.000000 0.000000
vt 1.000000 1.000000
vt 0.000000 1.000000
vt 0.000000 0.000000
vt 0.000000 0.000000
vt 0.000000 0.000000
vt 0.000000 0.000000
vt 0.000000 0.000000
vt 0.000000 0.000000
vt 0.000000 0.000000
vt 1.000000 0.000000
vt 1.000000 1.000000
vt 0.000000 1.000000
vt 0.000000 0.000000
vt 1.000000 0.000000
vt 1.000000 1.000000
vt 0.000000 1.000000
vt 0.000000 0.000000
vt 0.000000 0.000000
vt 0.000000 0.000000
vt 0.000000 0.000000
vt 0.000000 0.000000
vt 0.000000 0.000000
vt 0.000000 0.000000
vt 1.000000 0.000000
vt 1.000000 1.000000
vt 0.000000 1.000000
vt 0.000000 0.000000
vt 1.000000 0.000000
vt 1.000000 1.000000
vt 0.000000 1.000000
vt 0.000000 0.000000
vt 0.000000 0.000000
vt 0.000000 0.000000
vt 0.000000 0.000000
vt 0.000000 0.000000
vt 0.000000 0.000000
vt 0.000000 0.000000
vt 1.000000 0.000000
vt 1.000000 1.000000
vt 0.000000 1.000000
vt 0.000000 0.000000
vt 1.000000 0.000000
vt 1.000000 1.000000
vt 0.000000 1.000000
vt 0.000000 0.000000
vt 0.000000 0.000000
vt 0.000000 0.000000
vt 0.000000 0.000000
vt 0.000000 0.000000
vt 0.000000 0.000000
vt 0.000000 0.000000
vt 1.000000 0.000000
vt 1.000000 1.000000
vt 0.000000 1.000000
vt 0.000000 0.000000
vt 1.000000 0.000000
vt 1.000000 1.000000
vt 0.000000 1.000000
vt 0.000000 0.000000
vt 0.000000 0.000000
vt 0.000000 0.000000
vt 0.000000 0.000000
vt 0.000000 0.000000
vt 0.000000 0.000000
vt 0.000000 0.000000
vt 1.000000 0.000000
vt 1.000000 1.000000
vt 0.000000 1.000000
vt 0.000000 0.000000
vt 1.000000 0.000000
vt 1.000000 1.000000
vt 0.000000 1.000000
vt 0.000000 0.000000
vt 0.000000 0.000000
vt 0.000000 0.000000
vt 0.000000 0.000000
vt 0.000000 0.000000
vt 0.000000 0.000000
vt 0.000000 0.000000
vt 1.000000 0.000000
vt 1.000000 1.000000
vt 0.000000 1.000000
vt 0.000000 0.000000
vt 1.000000 0.000000
vt 1.000000 1.000000
vt 0.000000 1.000000
vt 0.000000 0.000000
vt 0.000000 0.000000
vt 0.000000 0.000000
vt 0.000000 0.000000
vt 0.000000 0.000000
vt 0.000000 0.000000
vt 0.000000 0.000000
vt 1.000000 0.000000
vt 1.000000 1.000000
vt 0.000000 1.000000
vt 0.000000 0.000000
vt 1.000000 0.000000
vt 1.000000 1.000000
vt 0.000000 1.000000
vt 0.000000 0.000000
vt 0.000000 0.000000
vt 0.000000 0.000000
vt 0.000000 0.000000
vt 0.000000 0.000000
vt 0.000000 0.000000
vt 0.000000 0.000000
vt 1.000000 0.000000
vt 1.000000 1.000000
vt 0.000000 1.000000
vt 0.000000 0.000000
vt 1.000000 0.000000
vt 1.000000 1.000000
vt 0.000000 1.000000
vt 0.000000 0.000000
vt 0.000000 0.000000
vt 0.000000 0.000000
vt 0.000000 0.000000
vt 0.000000 0.000000
vt 0.000000 0.000000
vt 0.000000 0.000000
vt 1.000000 0.000000
vt 1.000000 1.000000
vt 0.000000 1.000000
vt 0.000000 0.000000
vt 1.000000 0.000000
vt 1.000000 1.000000
vt 0.000000 1.000000
vt 0.000000 0.000000
vt 0.000000 0.000000
vt 0.000000 0.000000
vt 0.000000 0.000000
vt 0.000000 0.000000
vt 0.000000 0.000000
vt 0.000000 0.000000
vt 1.000000 0.000000
vt 1.000000 1.000000
vt 0.000000 1.000000
vt 0.000000 0.000000
vt 1.000000 0.000000
vt 1.000000 1.000000
vt 0.000000 1.000000
vt 0.000000 0.000000
vt 0.000000 0.000000
vt 0.000000 0.000000
vt 0.000000 0.000000
vt 0.000000 0.000000
vt 0.000000 0.000000
vt 0.000000 0.000000
vt 1.000000 0.000000
vt 1.000000 1.000000
vt 0.000000 1.000000
vt 0.000000 0.000000
vt 1.000000 0.000000
vt 1.000000 1.000000
vt 0.000000 1.000000
vt 0.000000 0.000000
vt 0.000000 0.000000
vt 0.000000 0.000000
vt 0.000000 0.000000
vt 0.000000 0.000000
vt 0.000000 0.000000
vt 0.000000 0.000000
vt 1.000000 0.000000
vt 1.000000 1.000000
vt 0.000000 1.000000
vt 0.000000 0.000000
vt 1.000000 0.000000
vt 1.000000 1.000000
vt 0.000000 1.000000
vt 0.000000 0.000000
vt 0.000000 0.000000
vt 0.000000 0.000000
vt 0.000000 0.000000
vt 0.000000 0.000000
vt 0.000000 0.000000
vt 0.000000 0.000000
vt 1.000000 0.000000
vt 1.000000 1.000000
vt 0.000000 1.000000
vt 0.000000 0.000000
vt 1.000000 0.000000
vt 1.000000 1.000000
vt 0.000000 1.000000
vt 0.000000 0.000000
vt 0.000000 0.000000
vt 0.000000 0.000000
vt 0.000000 0.000000
vt 0.000000 0.000000
vt 0.000000 0.000000
vt 0.000000 0.000000
vt 1.000000 0.000000
vt 1.000000 1.000000
vt 0.000000 1.000000
vt 0.000000 0.000000
vt 1.000000 0.000000
vt 1.000000 1.000000
vt 0.000000 1.000000
vt 0.000000 0.000000
vt 0.000000 0.000000
vt 0.000000 0.000000
vt 0.000000 0.000000
vt 0.000000 0.000000
vt 0.000000 0.000000
vt 0.000000 0.000000
vt 1.000000 0.000000
vt 1.000000 1.000000
vt 0.000000 1.000000
vt 0.000000 0.000000
vt 1.000000 0.000000
vt 1.000000 1.000000
vt 0.000000 1.000000
vt 0.000000 0.000000
vt 0.000000 0.000000
vt 0.000000 0.000000
vt 0.000000 0.000000
vt 0.000000 0.000000
vt 0.000000 0.000000
vt 0.000000 0.000000
vt 1.000000 0.000000
vt 1.000000 1.000000
vt 0.000000 1.000000
vt 0.000000 0.000000
vt 1.000000 0.000000
vt 1.000000 1.000000
vt 0.000000 1.000000
vt 0.000000 0.000000
vt 0.000000 0.000000
vt 0.000000 0.000000
vt 0.000000 0.000000
vt 0.000000 0.000000
vt 0.000000 0.000000
vt 0.000000 0.000000
vt 1.000000 0.000000
vt 1.000000 1.000000
vt 0.000000 1.000000
vt 0.000000 0.000000
vt 1.000000 0.000000
vt 1.000000 1.000000
vt 0.000000 1.000000
vt 0.000000 0.000000
vt 0.000000 0.000000
vt 0.000000 0.000000
vt 0.000000 0.000000
vt 0.000000 0.000000
vt 0.000000 0.000000
vt 0.000000 0.000000
vt 1.000000 0.000000
vt 1.000000 1.000000
vt 0.000000 1.000000
vt 0.000000 0.000000
vt 1.000000 0.000000
vt 1.000000 1.000000
vt 0.000000 1.000000
vt 0.000000 0.000000
vt 0.000000 0.000000
vt 0.000000 0.000000
vt 0.000000 0.000000
vt 0.000000 0.000000
vt 0.000000 0.000000
vt 0.000000 0.000000
vt 1.000000 0.000000
vt 1.000000 1.000000
vt 0.000000 1.000000
vt 0.000000 0.000000
vt 1.000000 0.000000
vt 1.000000 1.000000
vt 0.000000 1.000000
vt 0.000000 0.000000
vt 0.000000 0.000000
vt 0.000000 0.000000
vt 0.000000 0.000000
vt 0.000000 0.000000
vt 0.000000 0.000000
vt 0.000000 0.000000
vt 1.000000 0.000000
vt 1.000000 1.000000
vt 0.000000 1.000000
vt 0.000000 0.000000
vt 1.000000 0.000000
vt 1.000000 1.000000
vt 0.000000 1.000000
vt 0.000000 0.000000
vt 0.000000 0.000000
vt 0.000000 0.000000
vt 0.000000 0.000000
vt 0.000000 0.000000
vt 0.000000 0.000000
vt 0.000000 0.000000
vt 1.000000 0.000000
vt 1.000000 1.000000
vt 0.000000 1.000000
vt 0.000000 0.000000
vt 1.000000 0.000000
vt 1.000000 1.000000
vt 0.000000 1.000000
vt 0.000000 0.000000
vt 0.000000 0.000000
vt 0.000000 0.000000
vt 0.000000 0.000000
vt 0.000000 0.000000
vt 0.000000 0.000000
vt 0.000000 0.000000
vt 1.000000 0.000000
vt 1.000000 1.000000
vt 0.000000 1.000000
vt 0.000000 0.000000
vt 1.000000 0.000000
vt 1.000000 1.000000
vt 0.000000 1.000000
vt 0.000000 0.000000
vt 0.000000 0.000000
vt 0.000000 0.000000
vt 0.000000 0.000000
vt 0.000000 0.000000
vt 0.000000 0.000000
vt 0.000000 0.000000
vt 1.000000 0.000000
vt 1.000000 1.000000
vt 0.000000 1.000000
vt 0.000000 0.000000
vt 1.000000 0.000000
vt 1.000000 1.000000
vt 0.000000 1.000000
vt 0.000000 0.000000
vt 0.000000 0.000000
vt 0.000000 0.000000
vt 0.000000 0.000000
vt 0.000000 0.000000
vt 0.000000 0.000000
vt 0.000000 0.000000
vt 1.000000 0.000000
vt 1.000000 1.000000
vt 0.000000 1.000000
vt 0.000000 0.000000
vt 1.000000 0.000000
vt 1.000000 1.000000
vt 0.000000 1.000000
vt 0.000000 0.000000
vt 0.000000 0.000000
vt 0.000000 0.000000
vt 0.000000 0.000000
vt 0.000000 0.000000
vt 0.000000 0.000000
vt 0.000000 0.000000
vt 1.000000 0.000000
vt 1.000000 1.000000
vt 0.000000 1.000000
vt 0.000000 0.000000
vt 1.000000 0.000000
vt 1.000000 1.000000
vt 0.000000 1.000000
vt 0.000000 0.000000
vt 0.000000 0.000000
vt 0.000000 0.000000
vt 0.000000 0.000000
vt 0.000000 0.000000
vt 0.000000 0.000000
vt 0.000000 0.000000
vt 1.000000 0.000000
vt 1.000000 1.000000
vt 0.000000 1.000000
vt 0.000000 0.000000
vt 1.000000 0.000000
vt 1.000000 1.000000
vt 0.000000 1.000000
vt 0.000000 0.000000
vt 0.000000 0.000000
vt 0.000000 0.000000
vt 0.000000 0.000000
vt 0.000000 0.000000
vt 0.000000 0.000000
vt 0.000000 0.000000
vt 1.000000 0.000000
vt 1.000000 1.000000
vt 0.000000 1.000000
vt 0.000000 0.000000
vt 1.000000 0.000000
vt 1.000000 1.000000
vt 0.000000 1.000000
vt 0.000000 0.000000
vt 0.000000 0.000000
vt 0.000000 0.000000
vt 0.000000 0.000000
vt 0.000000 0.000000
vt 0.000000 0.000000
vt 0.000000 0.000000
vt 1.000000 0.000000
vt 1.000000 1.000000
vt 0.000000 1.000000
vt 0.000000 0.000000
vt 1.000000 0.000000
vt 1.000000 1.000000
vt 0.000000 1.000000
vt 0.000000 0.000000
vt 0.000000 0.000000
vt 0.000000 0.000000
vt 0.000000 0.000000
vt 0.000000 0.000000
vt 0.000000 0.000000
vt 0.000000 0.000000
vt 1.000000 0.000000
vt 1.000000 1.000000
vt 0.000000 1.000000
vt 0.000000 0.000000
vt 1.000000 0.000000
vt 1.000000 1.000000
vt 0.000000 1.000000
vt 0.000000 0.000000
vt 0.000000 0.000000
vt 0.000000 0.000000
vt 0.000000 0.000000
vt 0.000000 0.000000
vt 0.000000 0.000000
vt 0.000000 0.000000
vt 1.000000 0.000000
vt 1.000000 1.000000
vt 0.000000 1.000000
vt 0.000000 0.000000
vt 1.000000 0.000000
vt 1.000000 1.000000
vt 0.000000 1.000000
vt 0.000000 0.000000
vt 0.000000 0.000000
vt 0.000000 0.000000
vt 0.000000 0.000000
vt 0.000000 0.000000
vt 0.000000 0.000000
vt 0.000000 0.000000
vt 1.000000 0.000000
vt 1.000000 1.000000
vt 0.000000 1.000000
vt 0.000000 0.000000
vt 1.000000 0.000000
vt 1.000000 1.000000
vt 0.000000 1.000000
vt 0.000000 0.000000
vt 0.000000 0.000000
vt 0.000000 0.000000
vt 0.000000 0.000000
vt 0.000000 0.000000
vt 0.000000 0.000000
vt 0.000000 0.000000
vt 1.000000 0.000000
vt 1.000000 1.000000
vt 0.000000 1.000000
vt 0.000000 0.000000
vt 1.000000 0.000000
vt 1.000000 1.000000
vt 0.000000 1.000000
vt 0.000000 0.000000
vt 0.000000 0.000000
vt 0.000000 0.000000
vt 0.000000 0.000000
vt 0.000000 0.000000
vt 0.000000 0.000000
vt 0.000000 0.000000
vt 1.000000 0.000000
vt 1.000000 1.000000
vt 0.000000 1.000000
vt 0.000000 0.000000
vt 1.000000 0.000000
vt 1.000000 1.000000
vt 0.000000 1.000000
vt 0.000000 0.000000
vt 0.000000 0.000000
vt 0.000000 0.000000
vt 0.000000 0.000000
vt 0.000000 0.000000
vt 0.000000 0.000000
vt 0.000000 0.000000
vt 1.000000 0.000000
vt 1.000000 1.000000
vt 0.000000 1.000000
vt 0.000000 0.000000
vt 1.000000 0.000000
vt 1.000000 1.000000
vt 0.000000 1.000000
vt 0.000000 0.000000
vt 0.000000 0.000000
vt 0.000000 0.000000
vt 0.000000 0.000000
vt 0.000000 0.000000
vt 0.000000 0.000000
vt 0.000000 0.000000
vt 1.000000 0.000000
vt 1.000000 1.000000
vt 0.000000 1.000000
vt 0.000000 0.000000
vt 1.000000 0.000000
vt 1.000000 1.000000
vt 0.000000 1.000000
vt 0.000000 0.000000
vt 0.000000 0.000000
vt 0.000000 0.000000
vt 0.000000 0.000000
vt 0.000000 0.000000
vt 0.000000 0.000000
vt 0.000000 0.000000
vt 1.000000 0.000000
vt 1.000000 1.000000
vt 0.000000 1.000000
vt 0.000000 0.000000
vt 1.000000 0.000000
vt 1.000000 1.000000
vt 0.000000 1.000000
vt 0.000000 0.000000
vt 0.000000 0.000000
vt 0.000000 0.000000
vt 0.000000 0.000000
vt 0.000000 0.000000
vt 0.000000 0.000000
vt 0.000000 0.000000
vt 1.000000 0.000000
vt 1.000000 1.000000
vt 0.000000 1.000000
vt 0.000000 0.000000
vt 1.000000 0.000000
vt 1.000000 1.000000
vt 0.000000 1.000000
vt 0.000000 0.000000
vt 0.000000 0.000000
vt 0.000000 0.000000
vt 0.000000 0.000000
vt 0.000000 0.000000
vt 0.000000 0.000000
vt 0.000000 0.000000
vt 1.000000 0.000000
vt 1.000000 1.000000
vt 0.000000 1.000000
vt 0.000000 0.000000
vt 1.000000 0.000000
vt 1.000000 1.000000
vt 0.000000 1.000000
vt 0.000000 0.000000
vt 0.000000 0.000000
vt 0.000000 0.000000
vt 0.000000 0.000000
vt 0.000000 0.000000
vt 0.000000 0.000000
vt 0.000000 0.000000
vt 1.000000 0.000000
vt 1.000000 1.000000
vt 0.000000 1.000000
vt 0.000000 0.000000
vt 1.000000 0.000000
vt 1.000000 1.000000
vt 0.000000 1.000000
vt 0.000000 0.000000
vt 0.000000 0.000000
vt 0.000000 0.000000
vt 0.000000 0.000000
vt 0.000000 0.000000
vt 0.000000 0.000000
vt 0.000000 0.000000
vt 1.000000 0.000000
vt 1.000000 1.000000
vt 0.000000 1.000000
vt 0.000000 0.000000
vt 1.000000 0.000000
vt 1.000000 1.000000
vt 0.000000 1.000000
vt 0.000000 0.000000
vt 0.000000 0.000000
vt 0.000000 0.000000
vt 0.000000 0.000000
vt 0.000000 0.000000
vt 0.000000 0.000000
vt 0.000000 0.000000
vt 1.000000 0.000000
vt 1.000000 1.000000
vt 0.000000 1.000000
vt 0.000000 0.000000
vt 1.000000 0.000000
vt 1.000000 1.000000
vt 0.000000 1.000000
vt 0.000000 0.000000
vt 0.000000 0.000000
vt 0.000000 0.000000
vt 0.000000 0.000000
vt 0.000000 0.000000
vt 0.000000 0.000000
vt 0.000000 0.000000
vt 1.000000 0.000000
vt 1.000000 1.000000
vt 0.000000 1.000000
vt 0.000000 0.000000
vt 1.000000 0.000000
vt 1.000000 1.000000
vt 0.000000 1.000000
vt 0.000000 0.000000
vt 0.000000 0.000000
vt 0.000000 0.000000
vt 0.000000 0.000000
vt 0.000000 0.000000
vt 0.000000 0.000000
vt 0.000000 0.000000
vt 1.000000 0.000000
vt 1.000000 1.000000
vt 0.000000 1.000000
vt 0.000000 0.000000
vt 1.000000 0.000000
vt 1.000000 1.000000
vt 0.000000 1.000000
vt 0.000000 0.000000
vt 0.000000 0.000000
vt 0.000000 0.000000
vt 0.000000 0.000000
vt 0.000000 0.000000
vt 0.000000 0.000000
vt 0.000000 0.000000
vt 1.000000 0.000000
vt 1.000000 1.000000
vt 0.000000 1.000000
vt 0.000000 0.000000
vt 1.000000 0.000000
vt 1.000000 1.000000
vt 0.000000 1.000000
vt 0.000000 0.000000
vt 0.000000 0.000000
vt 0.000000 0.000000
vt 0.000000 0.000000
vt 0.000000 0.000000
vt 0.000000 0.000000
vt 0.000000 0.000000
vt 1.000000 0.000000
vt 1.000000 1.000000
vt 0.000000 1.000000
vt 0.000000 0.000000
vt 1.000000 0.000000
vt 1.000000 1.000000
vt 0.000000 1.000000
vt 0.000000 0.000000
vt 0.000000 0.000000
vt 0.000000 0.000000
vt 0.000000 0.000000
vt 0.000000 0.000000
vt 0.000000 0.000000
vt 0.000000 0.000000
vt 1.000000 0.000000
vt 1.000000 1.000000
vt 0.000000 1.000000
vt 0.000000 0.000000
vt 1.000000 0.000000
vt 1.000000 1.000000
vt 0.000000 1.000000
vt 0.000000 0.000000
vt 0.000000 0.000000
vt 0.000000 0.000000
vt 0.000000 0.000000
vt 0.000000 0.000000
vt 0.000000 0.000000
vt 0.000000 0.000000
vt 1.000000 0.000000
vt 1.000000 1.000000
vt 0.000000 1.000000
vt 0.000000 0.000000
vt 1.000000 0.000000
vt 1.000000 1.000000
vt 0.000000 1.000000
vt 0.000000 0.000000
vt 0.000000 0.000000
vt 0.000000 0.000000
vt 0.000000 0.000000
vt 0.000000 0.000000
vt 0.000000 0.000000
vt 0.000000 0.000000
vt 1.000000 0.000000
vt 1.000000 1.000000
vt 0.000000 1.000000
vt 0.000000 0.000000
vt 1.000000 0.000000
vt 1.000000 1.000000
vt 0.000000 1.000000
vt 0.000000 0.000000
vt 0.000000 0.000000
vt 0.000000 0.000000
vt 0.000000 0.000000
vt 0.000000 0.000000
vt 0.000000 0.000000
vt 0.000000 0.000000
vt 1.000000 0.000000
vt 1.000000 1.000000
vt 0.000000 1.000000
vt 0.000000 0.000000
vt 1.000000 0.000000
vt 1.000000 1.000000
vt 0.000000 1.000000
vt 0.000000 0.000000
vt 0.000000 0.000000
vt 0.000000 0.000000
vt 0.000000 0.000000
vt 0.000000 0.000000
vt 0.000000 0.000000
vt 0.000000 0.000000
vt 1.000000 0.000000
vt 1.000000 1.000000
vt 0.000000 1.000000
vt 0.000000 0.000000
vt 1.000000 0.000000
vt 1.000000 1.000000
vt 0.000000 1.000000
vt 0.000000 0.000000
vt 0.000000 0.000000
vt 0.000000 0.000000
vt 0.000000 0.000000
vt 0.000000 0.000000
vt 0.000000 0.000000
vt 0.000000 0.000000
vt 1.000000 0.000000
vt 1.000000 1.000000
vt 0.000000 1.000000
vt 0.000000 0.000000
vt 1.000000 0.000000
vt 1.000000 1.000000
vt 0.000000 1.000000
vt 0.000000 0.000000
vt 0.000000 0.000000
vt 0.000000 0.000000
vt 0.000000 0.000000
vt 0.000000 0.000000
vt 0.000000 0.000000
vt 0.000000 0.000000
vt 1.000000 0.000000
vt 1.000000 1.000000
vt 0.000000 1.000000
vt 0.000000 0.000000
vt 1.000000 0.000000
vt 1.000000 1.000000
vt 0.000000 1.000000
vt 0.000000 0.000000
vt 0.000000 0.000000
vt 0.000000 0.000000
vt 0.000000 0.000000
vt 0.000000 0.000000
vt 0.000000 0.000000
vt 0.000000 0.000000
vt 1.000000 0.000000
vt 1.000000 1.000000
vt 0.000000 1.000000
vt 0.000000 0.000000
vt 1.000000 0.000000
vt 1.000000 1.000000
vt 0.000000 1.000000
vt 0.000000 0.000000
vt 0.000000 0.000000
vt 0.000000 0.000000
vt 0.000000 0.000000
vt 0.000000 0.000000
vt 0.000000 0.000000
vt 0.000000 0.000000
vt 1.000000 0.000000
vt 1.000000 1.000000
vt 0.000000 1.000000
vt 0.000000 0.000000
vt 1.000000 0.000000
vt 1.000000 1.000000
vt 0.000000 1.000000
vt 0.000000 0.000000
vt 0.000000 0.000000
vt 0.000000 0.000000
vt 0.000000 0.000000
vt 0.000000 0.000000
vt 0.000000 0.000000
vt 0.000000 0.000000
vt 1.000000 0.000000
vt 1.000000 1.000000
vt 0.000000 1.000000
vt 0.000000 0.000000
vt 1.000000 0.000000
vt 1.000000 1.000000
vt 0.000000 1.000000
vt 0.000000 0.000000
vt 0.000000 0.000000
vt 0.000000 0.000000
vt 0.000000 0.000000
vt 0.000000 0.000000
vt 0.000000 0.000000
vt 0.000000 0.000000
vt 1.000000 0.000000
vt 1.000000 1.000000
vt 0.000000 1.000000
vt 0.000000 0.000000
vt 1.000000 0.000000
vt 1.000000 1.000000
vt 0.000000 1.000000
vt 0.000000 0.000000
vt 0.000000 0.000000
vt 0.000000 0.000000
vt 0.000000 0.000000
vt 0.000000 0.000000
vt 0.000000 0.000000
vt 0.000000 0.000000
vt 1.000000 0.000000
vt 1.000000 1.000000
vt 0.000000 1.000000
vt 0.000000 0.000000
vt 1.000000 0.000000
vt 1.000000 1.000000
vt 0.000000 1.000000
vt 0.000000 0.000000
vt 0.000000 0.000000
vt 0.000000 0.000000
vt 0.000000 0.000000
vt 0.000000 0.000000
vt 0.000000 0.000000
vt 0.000000 0.000000
vt 1.000000 0.000000
vt 1.000000 1.000000
vt 0.000000 1.000000
vt 0.000000 0.000000
vt 1.000000 0.000000
vt 1.000000 1.000000
vt 0.000000 1.000000
vt 0.000000 0.000000
vt 0.000000 0.000000
vt 0.000000 0.000000
vt 0.000000 0.000000
vt 0.000000 0.000000
vt 0.000000 0.000000
vt 0.000000 0.000000
vt 1.000000 0.000000
vt 1.000000 1.000000
vt 0.000000 1.000000
vt 0.000000 0.000000
vt 1.000000 0.000000
vt 1.000000 1.000000
vt 0.000000 1.000000
vt 0.000000 0.000000
vt 0.000000 0.000000
vt 0.000000 0.000000
vt 0.000000 0.000000
vt 0.000000 0.000000
vt 0.000000 0.000000
vt 0.000000 0.000000
vt 1.000000 0.000000
vt 1.000000 1.000000
vt 0.000000 1.000000
vt 0.000000 0.000000
vt 1.000000 0.000000
vt 1.000000 1.000000
vt 0.000000 1.000000
vt 0.000000 0.000000
vt 0.000000 0.000000
vt 0.000000 0.000000
vt 0.000000 0.500000
vt 0.480000 1.000000
vt 1.000000 0.500000
vt 0.480000 0.000000
vt 0.000000 0.000000
vt 1.000000 0.000000
vt 1.000000 1.000000
vt 0.000000 1.000000
vt 0.000000 0.000000
vt 1.000000 0.000000
vt 1.000000 1.000000
vt 0.000000 1.000000
vt 0.000000 0.000000
vt 1.000000 0.000000
vt 1.000000 1.000000
vt 0.000000 1.000000
vt 0.000000 0.000000
vt 1.000000 0.000000
vt 1.000000 1.000000
vt 0.000000 1.000000
vt 0.000000 0.000000
vt 1.000000 0.000000
vt 1.000000 1.000000
vt 0.000000 1.000000
vt 0.500000 0.500000
vt 0.000000 0.000000
vt 1.000000 0.000000
vt 0.500000 0.500000
vt 0.000000 1.000000
vt 1.000000 1.000000
vt 0.500000 0.500000
vt 0.000000 0.000000
vt 1.000000 0.000000
vt 0.500000 0.500000
vt 0.000000 1.000000
vt 1.000000 1.000000
vt 0.500000 0.500000
vt 0.000000 0.000000
vt 1.000000 0.000000
vt 0.500000 0.500000
vt 0.000000 1.000000
vt 1.000000 1.000000
vt 0.500000 0.500000
vt 0.000000 0.000000
vt 1.000000 0.000000
vt 0.500000 0.500000
vt 0.000000 1.000000
vt 1.000000 1.000000
vt 0.500000 0.500000
vt 0.000000 0.000000
vt 1.000000 0.000000
vt 0.500000 0.500000
vt 0.000000 1.000000
vt 1.000000 1.000000
vt 0.000000 0.500000
vt 0.480000 1.000000
vt 1.000000 0.500000
vt 0.480000 0.000000
vt 0.000000 0.000000
vt 1.000000 0.000000
vt 1.000000 1.000000
vt 0.000000 1.000000
vt 0.000000 0.000000
vt 1.000000 0.000000
vt 1.000000 1.000000
vt 0.000000 1.000000
vt 0.000000 0.000000
vt 1.000000 0.000000
vt 1.000000 1.000000
vt 0.000000 1.000000
vt 0.000000 0.000000
vt 1.000000 0.000000
vt 1.000000 1.000000
vt 0.000000 1.000000
vt 0.000000 0.000000
vt 1.000000 0.000000
vt 1.000000 1.000000
vt 0.000000 1.000000
vt 0.500000 0.500000
vt 0.000000 0.000000
vt 1.000000 0.000000
vt 0.500000 0.500000
vt 0.000000 1.000000
vt 1.000000 1.000000
vt 0.500000 0.500000
vt 0.000000 0.000000
vt 1.000000 0.000000
vt 0.500000 0.500000
vt 0.000000 1.000000
vt 1.000000 1.000000
vt 0.500000 0.500000
vt 0.000000 0.000000
vt 1.000000 0.000000
vt 0.500000 0.500000
vt 0.000000 1.000000
vt 1.000000 1.000000
vt 0.500000 0.500000
vt 0.000000 0.000000
vt 1.000000 0.000000
vt 0.500000 0.500000
vt 0.000000 1.000000
vt 1.000000 1.000000
vt 0.500000 0.500000
vt 0.000000 0.000000
vt 1.000000 0.000000
vt 0.500000 0.500000
vt 0.000000 1.000000
vt 1.000000 1.000000
vt 0.000000 0.500000
vt 0.480000 1.000000
vt 1.000000 0.500000
vt 0.480000 0.000000
vt 0.000000 0.000000
vt 1.000000 0.000000
vt 1.000000 1.000000
vt 0.000000 1.000000
vt 0.000000 0.000000
vt 1.000000 0.000000
vt 1.000000 1.000000
vt 0.000000 1.000000
vt 0.000000 0.000000
vt 1.000000 0.000000
vt 1.000000 1.000000
vt 0.000000 1.000000
vt 0.000000 0.000000
vt 1.000000 0.000000
vt 1.000000 1.000000
vt 0.000000 1.000000
vt 0.000000 0.000000
vt 1.000000 0.000000
vt 1.000000 1.000000
vt 0.000000 1.000000
vt 0.500000 0.500000
vt 0.000000 0.000000
vt 1.000000 0.000000
vt 0.500000 0.500000
vt 0.000000 1.000000
vt 1.000000 1.000000
vt 0.500000 0.500000
vt 0.000000 0.000000
vt 1.000000 0.000000
vt 0.500000 0.500000
vt 0.000000 1.000000
vt 1.000000 1.000000
vt 0.500000 0.500000
vt 0.000000 0.000000
vt 1.000000 0.000000
vt 0.500000 0.500000
vt 0.000000 1.000000
vt 1.000000 1.000000
vt 0.500000 0.500000
vt 0.000000 0.000000
vt 1.000000 0.000000
vt 0.500000 0.500000
vt 0.000000 1.000000
vt 1.000000 1.000000
vt 0.500000 0.500000
vt 0.000000 0.000000
vt 1.000000 0.000000
vt 0.500000 0.500000
vt 0.000000 1.000000
vt 1.000000 1.000000
vt 0.000000 0.500000
vt 0.480000 1.000000
vt 1.000000 0.500000
vt 0.480000 0.000000
vt 0.000000 0.000000
vt 1.000000 0.000000
vt 1.000000 1.000000
vt 0.000000 1.000000
vt 0.000000 0.000000
vt 1.000000 0.000000
vt 1.000000 1.000000
vt 0.000000 1.000000
vt 0.000000 0.000000
vt 1.000000 0.000000
vt 1.000000 1.000000
vt 0.000000 1.000000
vt 0.000000 0.000000
vt 1.000000 0.000000
vt 1.000000 1.000000
vt 0.000000 1.000000
vt 0.000000 0.000000
vt 1.000000 0.000000
vt 1.000000 1.000000
vt 0.000000 1.000000
vt 0.500000 0.500000
vt 0.000000 0.000000
vt 1.000000 0.000000
vt 0.500000 0.500000
vt 0.000000 1.000000
vt 1.000000 1.000000
vt 0.500000 0.500000
vt 0.000000 0.000000
vt 1.000000 0.000000
vt 0.500000 0.500000
vt 0.000000 1.000000
vt 1.000000 1.000000
vt 0.500000 0.500000
vt 0.000000 0.000000
vt 1.000000 0.000000
vt 0.500000 0.500000
vt 0.000000 1.000000
vt 1.000000 1.000000
vt 0.500000 0.500000
vt 0.000000 0.000000
vt 1.000000 0.000000
vt 0.500000 0.500000
vt 0.000000 1.000000
vt 1.000000 1.000000
vt 0.500000 0.500000
vt 0.000000 0.000000
vt 1.000000 0.000000
vt 0.500000 0.500000
vt 0.000000 1.000000
vt 1.000000 1.000000
vt 0.000000 0.000000
vt 1.000000 0.000000
vt 1.000000 1.000000
vt 0.000000 1.000000
vt 0.000000 0.000000
vt 1.000000 0.000000
vt 1.000000 1.000000
vt 0.000000 1.000000
vt 0.000000 0.000000
vt 1.000000 0.000000
vt 1.000000 1.000000
vt 0.000000 1.000000
vt 0.000000 0.000000
vt 1.000000 0.000000
vt 1.000000 1.000000
vt 0.000000 1.000000
vt 0.000000 0.000000
vt 1.000000 0.000000
vt 1.000000 1.000000
vt 0.000000 1.000000
vt 0.000000 0.000000
vt 1.000000 0.000000
vt 1.000000 1.000000
vt 0.000000 1.000000
usemtl Stone
f 1/1 2/2 3/3
f 4/4 5/5 6/6
f 4/4 6/6 7/7
f 8/8 9/9 10/10
f 8/8 10/10 11/11
f 12/12 13/13 14/14
f 15/15 16/16 17/17
f 18/18 19/19 20/20
f 18/18 20/20 21/21
f 22/22 23/23 24/24
f 22/22 24/24 25/25
f 26/26 27/27 28/28
f 29/29 30/30 31/31
f 32/32 33/33 34/34
f 32/32 34/34 35/35
f 36/36 37/37 38/38
f 36/36 38/38 39/39
f 40/40 41/41 42/42
f 43/43 44/44 45/45
f 46/46 47/47 48/48
f 46/46 48/48 49/49
f 50/50 51/51 52/52
f 50/50 52/52 53/53
f 54/54 55/55 56/56
f 57/57 58/58 59/59
f 60/60 61/61 62/62
f 60/60 62/62 63/63
f 64/64 65/65 66/66
f 64/64 66/66 67/67
f 68/68 69/69 70/70
f 71/71 72/72 73/73
f 74/74 75/75 76/76
f 74/74 76/76 77/77
f 78/78 79/79 80/80
f 78/78 80/80 81/81
f 82/82 83/83 84/84
f 85/85 86/86 87/87
f 88/88 89/89 90/90
f 88/88 90/90 91/91
f 92/92 93/93 94/94
f 92/92 94/94 95/95
f 96/96 97/97 98/98
f 99/99 100/100 101/101
f 102/102 103/103 104/104
f 102/102 104/104 105/105
f 106/106 107/107 108/108
f 106/106 108/108 109/109
f 110/110 111/111 112/112
f 113/113 114/114 115/115
f 116/116 117/117 118/118
f 116/116 118/118 119/119
f 120/120 121/121 122/122
f 120/120 122/122 123/123
f 124/124 125/125 126/126
f 127/127 128/128 129/129
f 130/130 131/131 132/132
f 130/130 132/132 133/133
f 134/134 135/135 136/136
f 134/134 136/136 137/137
f 138/138 139/139 140/140
f 141/141 142/142 143/143
f 144/144 145/145 146/146
f 144/144 146/146 147/147
f 148/148 149/149 150/150
f 148/148 150/150 151/151
f 152/152 153/153 154/154
f 155/155 156/156 157/157
f 158/158 159/159 160/160
f 158/158 160/160 161/161
f 162/162 163/163 164/164
f 162/162 164/164 165/165
f 166/166 167/167 168/168
f 169/169 170/170 171/171
f 172/172 173/173 174/174
f 172/172 174/174 175/175
f 176/176 177/177 178/178
f 176/176 178/178 179/179
f 180/180 181/181 182/182
f 183/183 184/184 185/185
f 186/186 187/187 188/188
f 186/186 188/188 189/189
f 190/190 191/191 192/192
f 190/190 192/192 193/193
f 194/194 195/195 196/196
f 197/197 198/198 199/199
f 200/200 201/201 202/202
f 200/200 202/202 203/203
f 204/204 205/205 206/206
f 204/204 206/206 207/207
f 208/208 209/209 210/210
f 211/211 212/212 213/213
f 214/214 215/215 216/216
f 214/214 216/216 217/217
f 218/218 219/219 220/220
f 218/218 220/220 221/221
f 222/222 223/223 224/224
f 225/225 226/226 227/227
f 228/228 229/229 230/230
f 228/228 230/230 231/231
f 232/232 233/233 234/234
f 232/232 234/234 235/235
f 236/236 237/237 238/238
f 239/239 240/240 241/241
f 242/242 243/243 244/244
f 242/242 244/244 245/245
f 246/246 247/247 248/248
f 246/246 248/248 249/249
f 250/250 251/251 252/252
f 253/253 254/254 255/255
f 256/256 257/257 258/258
f 256/256 258/258 259/259
f 260/260 261/261 262/262
f 260/260 262/262 263/263
f 264/264 265/265 266/266
f 267/267 268/268 269/269
f 270/270 271/271 272/272
f 270/270 272/272 273/273
f 274/274 275/275 276/276
f 274/274 276/276 277/277
f 278/278 279/279 280/280
f 281/281 282/282 283/283
f 284/284 285/285 286/286
f 284/284 286/286 287/287
f 288/288 289/289 290/290
f 288/288 290/290 291/291
f 292/292 293/293 294/294
f 295/295 296/296 297/297
f 298/298 299/299 300/300
f 298/298 300/300 301/301
f 302/302 303/303 304/304
f 302/302 304/304 305/305
f 306/306 307/307 308/308
f 309/309 310/310 311/311
f 312/312 313/313 314/314
f 312/312 314/314 315/315
f 316/316 317/317 318/318
f 316/316 318/318 319/319
f 320/320 321/321 322/322
f 323/323 324/324 325/325
f 326/326 327/327 328/328
f 326/326 328/328 329/329
f 330/330 331/331 332/332
f 330/330 332/332 333/333
f 334/334 335/335 336/336
f 337/337 338/338 339/339
f 340/340 341/341 342/342
f 340/340 342/342 343/343
f 344/344 345/345 346/346
f 344/344 346/346 347/347
f 348/348 349/349 350/350
f 351/351 352/352 353/353
f 354/354 355/355 356/356
f 354/354 356/356 357/357
f 358/358 359/359 360/360
f 358/358 360/360 361/361
f 362/362 363/363 364/364
f 365/365 366/366 367/367
f 368/368 369/369 370/370
f 368/368 370/370 371/371
f 372/372 373/373 374/374
f 372/372 374/374 375/375
f 376/376 377/377 378/378
f 379/379 380/380 381/381
f 382/382 383/383 384/384
f 382/382 384/384 385/385
f 386/386 387/387 388/388
f 386/386 388/388 389/389
f 390/390 391/391 392/392
f 393/393 394/394 395/395
f 396/396 397/397 398/398
f 396/396 398/398 399/399
f 400/400 401/401 402/402
f 400/400 402/402 403/403
f 404/404 405/405 406/406
f 407/407 408/408 409/409
f 410/410 411/411 412/412
f 410/410 412/412 413/413
f 414/414 415/415 416/416
f 414/414 416/416 417/417
f 418/418 419/419 420/420
f 421/421 422/422 423/423
f 424/424 425/425 426/426
f 424/424 426/426 427/427
f 428/428 429/429 430/430
f 428/428 430/430 431/431
f 432/432 433/433 434/434
f 435/435 436/436 437/437
f 438/438 439/439 440/440
f 438/438 440/440 441/441
f 442/442 443/443 444/444
f 442/442 444/444 445/445
f 446/446 447/447 448/448
f 449/449 450/450 451/451
f 452/452 453/453 454/454
f 452/452 454/454 455/455
f 456/456 457/457 458/458
f 456/456 458/458 459/459
f 460/460 461/461 462/462
f 463/463 464/464 465/465
f 466/466 467/467 468/468
f 466/466 468/468 469/469
f 470/470 471/471 472/472
f 470/470 472/472 473/473
f 474/474 475/475 476/476
f 477/477 478/478 479/479
f 480/480 481/481 482/482
f 480/480 482/482 483/483
f 484/484 485/485 486/486
f 484/484 486/486 487/487
f 488/488 489/489 490/490
f 491/491 492/492 493/493
f 494/494 495/495 496/496
f 494/494 496/496 497/497
f 498/498 499/499 500/500
f 498/498 500/500 501/501
f 502/502 503/503 504/504
f 505/505 506/506 507/507
f 508/508 509/509 510/510
f 508/508 510/510 511/511
f 512/512 513/513 514/514
f 512/512 514/514 515/515
f 516/516 517/517 518/518
f 519/519 520/520 521/521
f 522/522 523/523 524/524
f 522/522 524/524 525/525
f 526/526 527/527 528/528
f 526/526 528/528 529/529
f 530/530 531/531 532/532
f 533/533 534/534 535/535
f 536/536 537/537 538/538
f 536/536 538/538 539/539
f 540/540 541/541 542/542
f 540/540 542/542 543/543
f 544/544 545/545 546/546
f 547/547 548/548 549/549
f 550/550 551/551 552/552
f 550/550 552/552 553/553
f 554/554 555/555 556/556
f 554/554 556/556 557/557
f 558/558 559/559 560/560
f 561/561 562/562 563/563
f 564/564 565/565 566/566
f 564/564 566/566 567/567
f 568/568 569/569 570/570
f 568/568 570/570 571/571
f 572/572 573/573 574/574
f 575/575 576/576 577/577
f 578/578 579/579 580/580
f 578/578 580/580 581/581
f 582/582 583/583 584/584
f 582/582 584/584 585/585
f 586/586 587/587 588/588
f 589/589 590/590 591/591
f 592/592 593/593 594/594
f 592/592 594/594 595/595
f 596/596 597/597 598/598
f 596/596 598/598 599/599
f 600/600 601/601 602/602
f 603/603 604/604 605/605
f 606/606 607/607 608/608
f 606/606 608/608 609/609
f 610/610 611/611 612/612
f 610/610 612/612 613/613
f 614/614 615/615 616/616
f 617/617 618/618 619/619
f 620/620 621/621 622/622
f 620/620 622/622 623/623
f 624/624 625/625 626/626
f 624/624 626/626 627/627
f 628/628 629/629 630/630
f 631/631 632/632 633/633
f 634/634 635/635 636/636
f 634/634 636/636 637/637
f 638/638 639/639 640/640
f 638/638 640/640 641/641
f 642/642 643/643 644/644
f 645/645 646/646 647/647
f 648/648 649/649 650/650
f 648/648 650/650 651/651
f 652/652 653/653 654/654
f 652/652 654/654 655/655
f 656/656 657/657 658/658
f 659/659 660/660 661/661
f 662/662 663/663 664/664
f 662/662 664/664 665/665
f 666/666 667/667 668/668
f 666/666 668/668 669/669
f 670/670 671/671 672/672
f 673/673 674/674 675/675
f 676/676 677/677 678/678
f 676/676 678/678 679/679
f 680/680 681/681 682/682
f 680/680 682/682 683/683
f 684/684 685/685 686/686
f 687/687 688/688 689/689
f 690/690 691/691 692/692
f 690/690 692/692 693/693
f 694/694 695/695 696/696
f 694/694 696/696 697/697
f 698/698 699/699 700/700
f 701/701 702/702 703/703
f 704/704 705/705 706/706
f 704/704 706/706 707/707
f 708/708 709/709 710/710
f 708/708 710/710 711/711
f 712/712 713/713 714/714
f 715/715 716/716 717/717
f 718/718 719/719 720/720
f 718/718 720/720 721/721
f 722/722 723/723 724/724
f 722/722 724/724 725/725
f 726/726 727/727 728/728
f 729/729 730/730 731/731
f 732/732 733/733 734/734
f 732/732 734/734 735/735
f 736/736 737/737 738/738
f 736/736 738/738 739/739
f 740/740 741/741 742/742
f 743/743 744/744 745/745
f 746/746 747/747 748/748
f 746/746 748/748 749/749
f 750/750 751/751 752/752
f 750/750 752/752 753/753
f 754/754 755/755 756/756
f 757/757 758/758 759/759
f 760/760 761/761 762/762
f 760/760 762/762 763/763
f 764/764 765/765 766/766
f 764/764 766/766 767/767
f 768/768 769/769 770/770
f 771/771 772/772 773/773
f 774/774 775/775 776/776
f 774/774 776/776 777/777
f 778/778 779/779 780/780
f 778/778 780/780 781/781
f 782/782 783/783 784/784
f 785/785 786/786 787/787
f 788/788 789/789 790/790
f 788/788 790/790 791/791
f 792/792 793/793 794/794
f 792/792 794/794 795/795
f 796/796 797/797 798/798
f 799/799 800/800 801/801
f 802/802 803/803 804/804
f 802/802 804/804 805/805
f 806/806 807/807 808/808
f 806/806 808/808 809/809
f 810/810 811/811 812/812
f 813/813 814/814 815/815
f 816/816 817/817 818/818
f 816/816 818/818 819/819
f 820/820 821/821 822/822
f 820/820 822/822 823/823
f 824/824 825/825 826/826
f 827/827 828/828 829/829
f 830/830 831/831 832/832
f 830/830 832/832 833/833
f 834/834 835/835 836/836
f 834/834 836/836 837/837
f 838/838 839/839 840/840
f 841/841 842/842 843/843
f 844/844 845/845 846/846
f 844/844 846/846 847/847
f 848/848 849/849 850/850
f 848/848 850/850 851/851
f 852/852 853/853 854/854
f 855/855 856/856 857/857
f 858/858 859/859 860/860
f 858/858 860/860 861/861
f 862/862 863/863 864/864
f 862/862 864/864 865/865
f 866/866 867/867 868/868
f 869/869 870/870 871/871
f 872/872 873/873 874/874
f 872/872 874/874 875/875
f 876/876 877/877 878/878
f 876/876 878/878 879/879
f 880/880 881/881 882/882
f 883/883 884/884 885/885
f 886/886 887/887 888/888
f 886/886 888/888 889/889
f 890/890 891/891 892/892
f 890/890 892/892 893/893
f 894/894 895/895 896/896
f 897/897 898/898 899/899
f 900/900 901/901 902/902
f 900/900 902/902 903/903
f 904/904 905/905 906/906
f 904/904 906/906 907/907
f 908/908 909/909 910/910
f 911/911 912/912 913/913
f 914/914 915/915 916/916
f 914/914 916/916 917/917
f 918/918 919/919 920/920
f 918/918 920/920 921/921
f 922/922 923/923 924/924
f 925/925 926/926 927/927
f 928/928 929/929 930/930
f 928/928 930/930 931/931
f 932/932 933/933 934/934
f 932/932 934/934 935/935
f 936/936 937/937 938/938
f 939/939 940/940 941/941
f 942/942 943/943 944/944
f 942/942 944/944 945/945
f 946/946 947/947 948/948
f 946/946 948/948 949/949
f 950/950 951/951 952/952
f 953/953 954/954 955/955
f 956/956 957/957 958/958
f 956/956 958/958 959/959
f 960/960 961/961 962/962
f 960/960 962/962 963/963
f 964/964 965/965 966/966
f 967/967 968/968 969/969
f 970/970 971/971 972/972
f 970/970 972/972 973/973
f 974/974 975/975 976/976
f 974/974 976/976 977/977
f 978/978 979/979 980/980
f 981/981 982/982 983/983
f 984/984 985/985 986/986
f 984/984 986/986 987/987
f 988/988 989/989 990/990
f 988/988 990/990 991/991
f 992/992 993/993 994/994
f 995/995 996/996 997/997
f 998/998 999/999 1000/1000
f 998/998 1000/1000 1001/1001
f 1002/1002 1003/1003 1004/1004
f 1002/1002 1004/1004 1005/1005
f 1006/1006 1007/1007 1008/1008
f 1009/1009 1010/1010 1011/1011
f 1012/1012 1013/1013 1014/1014
f 1012/1012 1014/1014 1015/1015
f 1016/1016 1017/1017 1018/1018
f 1016/1016 1018/1018 1019/1019
f 1020/1020 1021/1021 1022/1022
f 1023/1023 1024/1024 1025/1025
f 1026/1026 1027/1027 1028/1028
f 1026/1026 1028/1028 1029/1029
f 1030/1030 1031/1031 1032/1032
f 1030/1030 1032/1032 1033/1033
f 1034/1034 1035/1035 1036/1036
f 1037/1037 1038/1038 1039/1039
f 1040/1040 1041/1041 1042/1042
f 1040/1040 1042/1042 1043/1043
f 1044/1044 1045/1045 1046/1046
f 1044/1044 1046/1046 1047/1047
f 1048/1048 1049/1049 1050/1050
f 1051/1051 1052/1052 1053/1053
f 1054/1054 1055/1055 1056/1056
f 1054/1054 1056/1056 1057/1057
f 1058/1058 1059/1059 1060/1060
f 1058/1058 1060/1060 1061/1061
f 1062/1062 1063/1063 1064/1064
f 1065/1065 1066/1066 1067/1067
f 1068/1068 1069/1069 1070/1070
f 1068/1068 1070/1070 1071/1071
f 1072/1072 1073/1073 1074/1074
f 1072/1072 1074/1074 1075/1075
f 1076/1076 1077/1077 1078/1078
f 1079/1079 1080/1080 1081/1081
f 1082/1082 1083/1083 1084/1084
f 1082/1082 1084/1084 1085/1085
f 1086/1086 1087/1087 1088/1088
f 1086/1086 1088/1088 1089/1089
f 1090/1090 1091/1091 1092/1092
f 1093/1093 1094/1094 1095/1095
f 1096/1096 1097/1097 1098/1098
f 1096/1096 1098/1098 1099/1099
f 1100/1100 1101/1101 1102/1102
f 1100/1100 1102/1102 1103/1103
f 1104/1104 1105/1105 1106/1106
f 1107/1107 1108/1108 1109/1109
f 1110/1110 1111/1111 1112/1112
f 1110/1110 1112/1112 1113/1113
f 1114/1114 1115/1115 1116/1116
f 1114/1114 1116/1116 1117/1117
f 1118/1118 1119/1119 1120/1120
f 1121/1121 1122/1122 1123/1123
f 1124/1124 1125/1125 1126/1126
f 1124/1124 1126/1126 1127/1127
f 1128/1128 1129/1129 1130/1130
f 1128/1128 1130/1130 1131/1131
f 1132/1132 1133/1133 1134/1134
f 1135/1135 1136/1136 1137/1137
f 1138/1138 1139/1139 1140/1140
f 1138/1138 1140/1140 1141/1141
f 1142/1142 1143/1143 1144/1144
f 1142/1142 1144/1144 1145/1145
f 1146/1146 1147/1147 1148/1148
usemtl Leaf
f 1149/1149 1150/1150 1151/1151
f 1149/1149 1151/1151 1152/1152
usemtl Wood
f 1153/1153 1154/1154 1155/1155
f 1153/1153 1155/1155 1156/1156
f 1157/1157 1158/1158 1159/1159
f 1157/1157 1159/1159 1160/1160
f 1161/1161 1162/1162 1163/1163
f 1161/1161 1163/1163 1164/1164
f 1165/1165 1166/1166 1167/1167
f 1165/1165 1167/1167 1168/1168
f 1169/1169 1170/1170 1171/1171
f 1169/1169 1171/1171 1172/1172
f 1173/1173 1174/1174 1175/1175
f 1176/1176 1177/1177 1178/1178
f 1179/1179 1180/1180 1181/1181
f 1182/1182 1183/1183 1184/1184
f 1185/1185 1186/1186 1187/1187
f 1188/1188 1189/1189 1190/1190
f 1191/1191 1192/1192 1193/1193
f 1194/1194 1195/1195 1196/1196
f 1197/1197 1198/1198 1199/1199
f 1200/1200 1201/1201 1202/1202
usemtl Leaf
f 1203/1203 1204/1204 1205/1205
f 1203/1203 1205/1205 1206/1206
usemtl Wood
f 1207/1207 1208/1208 1209/1209
f 1207/1207 1209/1209 1210/1210
f 1211/1211 1212/1212 1213/1213
f 1211/1211 1213/1213 1214/1214
f 1215/1215 1216/1216 1217/1217
f 1215/1215 1217/1217 1218/1218
f 1219/1219 1220/1220 1221/1221
f 1219/1219 1221/1221 1222/1222
f 1223/1223 1224/1224 1225/1225
f 1223/1223 1225/1225 1226/1226
f 1227/1227 1228/1228 1229/1229
f 1230/1230 1231/1231 1232/1232
f 1233/1233 1234/1234 1235/1235
f 1236/1236 1237/1237 1238/1238
f 1239/1239 1240/1240 1241/1241
f 1242/1242 1243/1243 1244/1244
f 1245/1245 1246/1246 1247/1247
f 1248/1248 1249/1249 1250/1250
f 1251/1251 1252/1252 1253/1253
f 1254/1254 1255/1255 1256/1256
usemtl Leaf
f 1257/1257 1258/1258 1259/1259
f 1257/1257 1259/1259 1260/1260
usemtl Wood
f 1261/1261 1262/1262 1263/1263
f 1261/1261 1263/1263 1264/1264
f 1265/1265 1266/1266 1267/1267
f 1265/1265 1267/1267 1268/1268
f 1269/1269 1270/1270 1271/1271
f 1269/1269 1271/1271 1272/1272
f 1273/1273 1274/1274 1275/1275
f 1273/1273 1275/1275 1276/1276
f 1277/1277 1278/1278 1279/1279
f 1277/1277 1279/1279 1280/1280
f 1281/1281 1282/1282 1283/1283
f 1284/1284 1285/1285 1286/1286
f 1287/1287 1288/1288 1289/1289
f 1290/1290 1291/1291 1292/1292
f 1293/1293 1294/1294 1295/1295
f 1296/1296 1297/1297 1298/1298
f 1299/1299 1300/1300 1301/1301
f 1302/1302 1303/1303 1304/1304
f 1305/1305 1306/1306 1307/1307
f 1308/1308 1309/1309 1310/1310
usemtl Leaf
f 1311/1311 1312/1312 1313/1313
f 1311/1311 1313/1313 1314/1314
usemtl Wood
f 1315/1315 1316/1316 1317/1317
f 1315/1315 1317/1317 1318/1318
f 1319/1319 1320/1320 1321/1321
f 1319/1319 1321/1321 1322/1322
f 1323/1323 1324/1324 1325/1325
f 1323/1323 1325/1325 1326/1326
f 1327/1327 1328/1328 1329/1329
f 1327/1327 1329/1329 1330/1330
f 1331/1331 1332/1332 1333/1333
f 1331/1331 1333/1333 1334/1334
f 1335/1335 1336/1336 1337/1337
f 1338/1338 1339/1339 1340/1340
f 1341/1341 1342/1342 1343/1343
f 1344/1344 1345/1345 1346/1346
f 1347/1347 1348/1348 1349/1349
f 1350/1350 1351/1351 1352/1352
f 1353/1353 1354/1354 1355/1355
f 1356/1356 1357/1357 1358/1358
f 1359/1359 1360/1360 1361/1361
f 1362/1362 1363/1363 1364/1364
usemtl Mud
f 1365/1365 1366/1366 1367/1367
f 1365/1365 1367/1367 1368/1368
f 1369/1369 1370/1370 1371/1371
f 1369/1369 1371/1371 1372/1372
f 1373/1373 1374/1374 1375/1375
f 1373/1373 1375/1375 1376/1376
f 1377/1377 1378/1378 1379/1379
f 1377/1377 1379/1379 1380/1380
f 1381/1381 1382/1382 1383/1383
f 1381/1381 1383/1383 1384/1384
f 1385/1385 1386/1386 1387/1387
f 1385/1385 1387/1387 1388/1388
