mtllib ../../Materials/project_oen.mtl
o pr-018_knife_cutting_tool__worn
v -0.080000 0.000000 -0.050000
v 0.080000 0.000000 -0.050000
v 0.080000 0.320000 -0.050000
v -0.080000 0.320000 -0.050000
v 0.080000 0.000000 0.050000
v -0.080000 0.000000 0.050000
v -0.080000 0.320000 0.050000
v 0.080000 0.320000 0.050000
v -0.080000 0.000000 0.050000
v -0.080000 0.000000 -0.050000
v -0.080000 0.320000 -0.050000
v -0.080000 0.320000 0.050000
v 0.080000 0.000000 -0.050000
v 0.080000 0.000000 0.050000
v 0.080000 0.320000 0.050000
v 0.080000 0.320000 -0.050000
v -0.080000 0.320000 -0.050000
v 0.080000 0.320000 -0.050000
v 0.080000 0.320000 0.050000
v -0.080000 0.320000 0.050000
v -0.080000 0.000000 0.050000
v 0.080000 0.000000 0.050000
v 0.080000 0.000000 -0.050000
v -0.080000 0.000000 -0.050000
v 0.090000 0.200000 0.000000
v 0.077942 0.155000 0.000000
v 0.069282 0.160000 0.010000
v 0.080000 0.200000 0.010000
v 0.080000 0.200000 0.010000
v 0.069282 0.160000 0.010000
v 0.060622 0.165000 0.000000
v 0.070000 0.200000 0.000000
v 0.070000 0.200000 0.000000
v 0.060622 0.165000 0.000000
v 0.069282 0.160000 -0.010000
v 0.080000 0.200000 -0.010000
v 0.080000 0.200000 -0.010000
v 0.069282 0.160000 -0.010000
v 0.077942 0.155000 0.000000
v 0.090000 0.200000 0.000000
v 0.077942 0.155000 0.000000
v 0.045000 0.122058 0.000000
v 0.040000 0.130718 0.010000
v 0.069282 0.160000 0.010000
v 0.069282 0.160000 0.010000
v 0.040000 0.130718 0.010000
v 0.035000 0.139378 0.000000
v 0.060622 0.165000 0.000000
v 0.060622 0.165000 0.000000
v 0.035000 0.139378 0.000000
v 0.040000 0.130718 -0.010000
v 0.069282 0.160000 -0.010000
v 0.069282 0.160000 -0.010000
v 0.040000 0.130718 -0.010000
v 0.045000 0.122058 0.000000
v 0.077942 0.155000 0.000000
v 0.045000 0.122058 0.000000
v 0.000000 0.110000 0.000000
v 0.000000 0.120000 0.010000
v 0.040000 0.130718 0.010000
v 0.040000 0.130718 0.010000
v 0.000000 0.120000 0.010000
v 0.000000 0.130000 0.000000
v 0.035000 0.139378 0.000000
v 0.035000 0.139378 0.000000
v 0.000000 0.130000 0.000000
v 0.000000 0.120000 -0.010000
v 0.040000 0.130718 -0.010000
v 0.040000 0.130718 -0.010000
v 0.000000 0.120000 -0.010000
v 0.000000 0.110000 0.000000
v 0.045000 0.122058 0.000000
v 0.000000 0.110000 0.000000
v -0.045000 0.122058 0.000000
v -0.040000 0.130718 0.010000
v 0.000000 0.120000 0.010000
v 0.000000 0.120000 0.010000
v -0.040000 0.130718 0.010000
v -0.035000 0.139378 0.000000
v 0.000000 0.130000 0.000000
v 0.000000 0.130000 0.000000
v -0.035000 0.139378 0.000000
v -0.040000 0.130718 -0.010000
v 0.000000 0.120000 -0.010000
v 0.000000 0.120000 -0.010000
v -0.040000 0.130718 -0.010000
v -0.045000 0.122058 0.000000
v 0.000000 0.110000 0.000000
v -0.045000 0.122058 0.000000
v -0.077942 0.155000 0.000000
v -0.069282 0.160000 0.010000
v -0.040000 0.130718 0.010000
v -0.040000 0.130718 0.010000
v -0.069282 0.160000 0.010000
v -0.060622 0.165000 0.000000
v -0.035000 0.139378 0.000000
v -0.035000 0.139378 0.000000
v -0.060622 0.165000 0.000000
v -0.069282 0.160000 -0.010000
v -0.040000 0.130718 -0.010000
v -0.040000 0.130718 -0.010000
v -0.069282 0.160000 -0.010000
v -0.077942 0.155000 0.000000
v -0.045000 0.122058 0.000000
v -0.077942 0.155000 0.000000
v -0.090000 0.200000 0.000000
v -0.080000 0.200000 0.010000
v -0.069282 0.160000 0.010000
v -0.069282 0.160000 0.010000
v -0.080000 0.200000 0.010000
v -0.070000 0.200000 0.000000
v -0.060622 0.165000 0.000000
v -0.060622 0.165000 0.000000
v -0.070000 0.200000 0.000000
v -0.080000 0.200000 -0.010000
v -0.069282 0.160000 -0.010000
v -0.069282 0.160000 -0.010000
v -0.080000 0.200000 -0.010000
v -0.090000 0.200000 0.000000
v -0.077942 0.155000 0.000000
v -0.090000 0.200000 0.000000
v -0.077942 0.245000 -0.000000
v -0.069282 0.240000 0.010000
v -0.080000 0.200000 0.010000
v -0.080000 0.200000 0.010000
v -0.069282 0.240000 0.010000
v -0.060622 0.235000 -0.000000
v -0.070000 0.200000 0.000000
v -0.070000 0.200000 0.000000
v -0.060622 0.235000 -0.000000
v -0.069282 0.240000 -0.010000
v -0.080000 0.200000 -0.010000
v -0.080000 0.200000 -0.010000
v -0.069282 0.240000 -0.010000
v -0.077942 0.245000 -0.000000
v -0.090000 0.200000 0.000000
v -0.077942 0.245000 -0.000000
v -0.045000 0.277942 -0.000000
v -0.040000 0.269282 0.010000
v -0.069282 0.240000 0.010000
v -0.069282 0.240000 0.010000
v -0.040000 0.269282 0.010000
v -0.035000 0.260622 -0.000000
v -0.060622 0.235000 -0.000000
v -0.060622 0.235000 -0.000000
v -0.035000 0.260622 -0.000000
v -0.040000 0.269282 -0.010000
v -0.069282 0.240000 -0.010000
v -0.069282 0.240000 -0.010000
v -0.040000 0.269282 -0.010000
v -0.045000 0.277942 -0.000000
v -0.077942 0.245000 -0.000000
v -0.045000 0.277942 -0.000000
v -0.000000 0.290000 -0.000000
v -0.000000 0.280000 0.010000
v -0.040000 0.269282 0.010000
v -0.040000 0.269282 0.010000
v -0.000000 0.280000 0.010000
v -0.000000 0.270000 -0.000000
v -0.035000 0.260622 -0.000000
v -0.035000 0.260622 -0.000000
v -0.000000 0.270000 -0.000000
v -0.000000 0.280000 -0.010000
v -0.040000 0.269282 -0.010000
v -0.040000 0.269282 -0.010000
v -0.000000 0.280000 -0.010000
v -0.000000 0.290000 -0.000000
v -0.045000 0.277942 -0.000000
v -0.000000 0.290000 -0.000000
v 0.045000 0.277942 -0.000000
v 0.040000 0.269282 0.010000
v -0.000000 0.280000 0.010000
v -0.000000 0.280000 0.010000
v 0.040000 0.269282 0.010000
v 0.035000 0.260622 -0.000000
v -0.000000 0.270000 -0.000000
v -0.000000 0.270000 -0.000000
v 0.035000 0.260622 -0.000000
v 0.040000 0.269282 -0.010000
v -0.000000 0.280000 -0.010000
v -0.000000 0.280000 -0.010000
v 0.040000 0.269282 -0.010000
v 0.045000 0.277942 -0.000000
v -0.000000 0.290000 -0.000000
v 0.045000 0.277942 -0.000000
v 0.077942 0.245000 -0.000000
v 0.069282 0.240000 0.010000
v 0.040000 0.269282 0.010000
v 0.040000 0.269282 0.010000
v 0.069282 0.240000 0.010000
v 0.060622 0.235000 -0.000000
v 0.035000 0.260622 -0.000000
v 0.035000 0.260622 -0.000000
v 0.060622 0.235000 -0.000000
v 0.069282 0.240000 -0.010000
v 0.040000 0.269282 -0.010000
v 0.040000 0.269282 -0.010000
v 0.069282 0.240000 -0.010000
v 0.077942 0.245000 -0.000000
v 0.045000 0.277942 -0.000000
v 0.077942 0.245000 -0.000000
v 0.090000 0.200000 0.000000
v 0.080000 0.200000 0.010000
v 0.069282 0.240000 0.010000
v 0.069282 0.240000 0.010000
v 0.080000 0.200000 0.010000
v 0.070000 0.200000 0.000000
v 0.060622 0.235000 -0.000000
v 0.060622 0.235000 -0.000000
v 0.070000 0.200000 0.000000
v 0.080000 0.200000 -0.010000
v 0.069282 0.240000 -0.010000
v 0.069282 0.240000 -0.010000
v 0.080000 0.200000 -0.010000
v 0.090000 0.200000 0.000000
v 0.077942 0.245000 -0.000000
v -0.070000 0.310000 0.000000
v 0.070000 0.310000 0.000000
v 0.040000 0.920000 0.000000
v -0.070000 0.310000 0.000000
v 0.040000 0.920000 0.000000
v -0.070000 0.900000 0.000000
v -0.070000 0.900000 0.000000
v 0.040000 0.920000 0.000000
v -0.010000 1.050000 0.000000
v 0.009728 0.547883 -0.021000
v 0.059241 0.554842 -0.021000
v 0.020272 0.832117 -0.021000
v -0.029241 0.825158 -0.021000
v 0.059241 0.554842 -0.003000
v 0.009728 0.547883 -0.003000
v -0.029241 0.825158 -0.003000
v 0.020272 0.832117 -0.003000
v 0.009728 0.547883 -0.003000
v 0.009728 0.547883 -0.021000
v -0.029241 0.825158 -0.021000
v -0.029241 0.825158 -0.003000
v 0.059241 0.554842 -0.021000
v 0.059241 0.554842 -0.003000
v 0.020272 0.832117 -0.003000
v 0.020272 0.832117 -0.021000
v -0.029241 0.825158 -0.021000
v 0.020272 0.832117 -0.021000
v 0.020272 0.832117 -0.003000
v -0.029241 0.825158 -0.003000
v 0.009728 0.547883 -0.003000
v 0.059241 0.554842 -0.003000
v 0.059241 0.554842 -0.021000
v 0.009728 0.547883 -0.021000
v -0.170000 0.282500 -0.065000
v 0.170000 0.282500 -0.065000
v 0.170000 0.327500 -0.065000
v -0.170000 0.327500 -0.065000
v 0.170000 0.282500 0.065000
v -0.170000 0.282500 0.065000
v -0.170000 0.327500 0.065000
v 0.170000 0.327500 0.065000
v -0.170000 0.282500 0.065000
v -0.170000 0.282500 -0.065000
v -0.170000 0.327500 -0.065000
v -0.170000 0.327500 0.065000
v 0.170000 0.282500 -0.065000
v 0.170000 0.282500 0.065000
v 0.170000 0.327500 0.065000
v 0.170000 0.327500 -0.065000
v -0.170000 0.327500 -0.065000
v 0.170000 0.327500 -0.065000
v 0.170000 0.327500 0.065000
v -0.170000 0.327500 0.065000
v -0.170000 0.282500 0.065000
v 0.170000 0.282500 0.065000
v 0.170000 0.282500 -0.065000
v -0.170000 0.282500 -0.065000
v -0.090000 0.007500 -0.060000
v 0.090000 0.007500 -0.060000
v 0.090000 0.062500 -0.060000
v -0.090000 0.062500 -0.060000
v 0.090000 0.007500 0.060000
v -0.090000 0.007500 0.060000
v -0.090000 0.062500 0.060000
v 0.090000 0.062500 0.060000
v -0.090000 0.007500 0.060000
v -0.090000 0.007500 -0.060000
v -0.090000 0.062500 -0.060000
v -0.090000 0.062500 0.060000
v 0.090000 0.007500 -0.060000
v 0.090000 0.007500 0.060000
v 0.090000 0.062500 0.060000
v 0.090000 0.062500 -0.060000
v -0.090000 0.062500 -0.060000
v 0.090000 0.062500 -0.060000
v 0.090000 0.062500 0.060000
v -0.090000 0.062500 0.060000
v -0.090000 0.007500 0.060000
v 0.090000 0.007500 0.060000
v 0.090000 0.007500 -0.060000
v -0.090000 0.007500 -0.060000
v 0.085000 0.005000 0.000000
v 0.073612 -0.037500 0.000000
v 0.063220 -0.031500 0.012000
v 0.073000 0.005000 0.012000
v 0.073000 0.005000 0.012000
v 0.063220 -0.031500 0.012000
v 0.052828 -0.025500 0.000000
v 0.061000 0.005000 0.000000
v 0.061000 0.005000 0.000000
v 0.052828 -0.025500 0.000000
v 0.063220 -0.031500 -0.012000
v 0.073000 0.005000 -0.012000
v 0.073000 0.005000 -0.012000
v 0.063220 -0.031500 -0.012000
v 0.073612 -0.037500 0.000000
v 0.085000 0.005000 0.000000
v 0.073612 -0.037500 0.000000
v 0.042500 -0.068612 0.000000
v 0.036500 -0.058220 0.012000
v 0.063220 -0.031500 0.012000
v 0.063220 -0.031500 0.012000
v 0.036500 -0.058220 0.012000
v 0.030500 -0.047828 0.000000
v 0.052828 -0.025500 0.000000
v 0.052828 -0.025500 0.000000
v 0.030500 -0.047828 0.000000
v 0.036500 -0.058220 -0.012000
v 0.063220 -0.031500 -0.012000
v 0.063220 -0.031500 -0.012000
v 0.036500 -0.058220 -0.012000
v 0.042500 -0.068612 0.000000
v 0.073612 -0.037500 0.000000
v 0.042500 -0.068612 0.000000
v 0.000000 -0.080000 0.000000
v 0.000000 -0.068000 0.012000
v 0.036500 -0.058220 0.012000
v 0.036500 -0.058220 0.012000
v 0.000000 -0.068000 0.012000
v 0.000000 -0.056000 0.000000
v 0.030500 -0.047828 0.000000
v 0.030500 -0.047828 0.000000
v 0.000000 -0.056000 0.000000
v 0.000000 -0.068000 -0.012000
v 0.036500 -0.058220 -0.012000
v 0.036500 -0.058220 -0.012000
v 0.000000 -0.068000 -0.012000
v 0.000000 -0.080000 0.000000
v 0.042500 -0.068612 0.000000
v 0.000000 -0.080000 0.000000
v -0.042500 -0.068612 0.000000
v -0.036500 -0.058220 0.012000
v 0.000000 -0.068000 0.012000
v 0.000000 -0.068000 0.012000
v -0.036500 -0.058220 0.012000
v -0.030500 -0.047828 0.000000
v 0.000000 -0.056000 0.000000
v 0.000000 -0.056000 0.000000
v -0.030500 -0.047828 0.000000
v -0.036500 -0.058220 -0.012000
v 0.000000 -0.068000 -0.012000
v 0.000000 -0.068000 -0.012000
v -0.036500 -0.058220 -0.012000
v -0.042500 -0.068612 0.000000
v 0.000000 -0.080000 0.000000
v -0.042500 -0.068612 0.000000
v -0.073612 -0.037500 0.000000
v -0.063220 -0.031500 0.012000
v -0.036500 -0.058220 0.012000
v -0.036500 -0.058220 0.012000
v -0.063220 -0.031500 0.012000
v -0.052828 -0.025500 0.000000
v -0.030500 -0.047828 0.000000
v -0.030500 -0.047828 0.000000
v -0.052828 -0.025500 0.000000
v -0.063220 -0.031500 -0.012000
v -0.036500 -0.058220 -0.012000
v -0.036500 -0.058220 -0.012000
v -0.063220 -0.031500 -0.012000
v -0.073612 -0.037500 0.000000
v -0.042500 -0.068612 0.000000
v -0.073612 -0.037500 0.000000
v -0.085000 0.005000 0.000000
v -0.073000 0.005000 0.012000
v -0.063220 -0.031500 0.012000
v -0.063220 -0.031500 0.012000
v -0.073000 0.005000 0.012000
v -0.061000 0.005000 0.000000
v -0.052828 -0.025500 0.000000
v -0.052828 -0.025500 0.000000
v -0.061000 0.005000 0.000000
v -0.073000 0.005000 -0.012000
v -0.063220 -0.031500 -0.012000
v -0.063220 -0.031500 -0.012000
v -0.073000 0.005000 -0.012000
v -0.085000 0.005000 0.000000
v -0.073612 -0.037500 0.000000
v -0.085000 0.005000 0.000000
v -0.073612 0.047500 -0.000000
v -0.063220 0.041500 0.012000
v -0.073000 0.005000 0.012000
v -0.073000 0.005000 0.012000
v -0.063220 0.041500 0.012000
v -0.052828 0.035500 -0.000000
v -0.061000 0.005000 0.000000
v -0.061000 0.005000 0.000000
v -0.052828 0.035500 -0.000000
v -0.063220 0.041500 -0.012000
v -0.073000 0.005000 -0.012000
v -0.073000 0.005000 -0.012000
v -0.063220 0.041500 -0.012000
v -0.073612 0.047500 -0.000000
v -0.085000 0.005000 0.000000
v -0.073612 0.047500 -0.000000
v -0.042500 0.078612 -0.000000
v -0.036500 0.068220 0.012000
v -0.063220 0.041500 0.012000
v -0.063220 0.041500 0.012000
v -0.036500 0.068220 0.012000
v -0.030500 0.057828 -0.000000
v -0.052828 0.035500 -0.000000
v -0.052828 0.035500 -0.000000
v -0.030500 0.057828 -0.000000
v -0.036500 0.068220 -0.012000
v -0.063220 0.041500 -0.012000
v -0.063220 0.041500 -0.012000
v -0.036500 0.068220 -0.012000
v -0.042500 0.078612 -0.000000
v -0.073612 0.047500 -0.000000
v -0.042500 0.078612 -0.000000
v -0.000000 0.090000 -0.000000
v -0.000000 0.078000 0.012000
v -0.036500 0.068220 0.012000
v -0.036500 0.068220 0.012000
v -0.000000 0.078000 0.012000
v -0.000000 0.066000 -0.000000
v -0.030500 0.057828 -0.000000
v -0.030500 0.057828 -0.000000
v -0.000000 0.066000 -0.000000
v -0.000000 0.078000 -0.012000
v -0.036500 0.068220 -0.012000
v -0.036500 0.068220 -0.012000
v -0.000000 0.078000 -0.012000
v -0.000000 0.090000 -0.000000
v -0.042500 0.078612 -0.000000
v -0.000000 0.090000 -0.000000
v 0.042500 0.078612 -0.000000
v 0.036500 0.068220 0.012000
v -0.000000 0.078000 0.012000
v -0.000000 0.078000 0.012000
v 0.036500 0.068220 0.012000
v 0.030500 0.057828 -0.000000
v -0.000000 0.066000 -0.000000
v -0.000000 0.066000 -0.000000
v 0.030500 0.057828 -0.000000
v 0.036500 0.068220 -0.012000
v -0.000000 0.078000 -0.012000
v -0.000000 0.078000 -0.012000
v 0.036500 0.068220 -0.012000
v 0.042500 0.078612 -0.000000
v -0.000000 0.090000 -0.000000
v 0.042500 0.078612 -0.000000
v 0.073612 0.047500 -0.000000
v 0.063220 0.041500 0.012000
v 0.036500 0.068220 0.012000
v 0.036500 0.068220 0.012000
v 0.063220 0.041500 0.012000
v 0.052828 0.035500 -0.000000
v 0.030500 0.057828 -0.000000
v 0.030500 0.057828 -0.000000
v 0.052828 0.035500 -0.000000
v 0.063220 0.041500 -0.012000
v 0.036500 0.068220 -0.012000
v 0.036500 0.068220 -0.012000
v 0.063220 0.041500 -0.012000
v 0.073612 0.047500 -0.000000
v 0.042500 0.078612 -0.000000
v 0.073612 0.047500 -0.000000
v 0.085000 0.005000 0.000000
v 0.073000 0.005000 0.012000
v 0.063220 0.041500 0.012000
v 0.063220 0.041500 0.012000
v 0.073000 0.005000 0.012000
v 0.061000 0.005000 0.000000
v 0.052828 0.035500 -0.000000
v 0.052828 0.035500 -0.000000
v 0.061000 0.005000 0.000000
v 0.073000 0.005000 -0.012000
v 0.063220 0.041500 -0.012000
v 0.063220 0.041500 -0.012000
v 0.073000 0.005000 -0.012000
v 0.085000 0.005000 0.000000
v 0.073612 0.047500 -0.000000
v -0.055000 0.065000 -0.070000
v 0.055000 0.065000 -0.070000
v 0.055000 0.295000 -0.070000
v -0.055000 0.295000 -0.070000
v 0.055000 0.065000 -0.052000
v -0.055000 0.065000 -0.052000
v -0.055000 0.295000 -0.052000
v 0.055000 0.295000 -0.052000
v -0.055000 0.065000 -0.052000
v -0.055000 0.065000 -0.070000
v -0.055000 0.295000 -0.070000
v -0.055000 0.295000 -0.052000
v 0.055000 0.065000 -0.070000
v 0.055000 0.065000 -0.052000
v 0.055000 0.295000 -0.052000
v 0.055000 0.295000 -0.070000
v -0.055000 0.295000 -0.070000
v 0.055000 0.295000 -0.070000
v 0.055000 0.295000 -0.052000
v -0.055000 0.295000 -0.052000
v -0.055000 0.065000 -0.052000
v 0.055000 0.065000 -0.052000
v 0.055000 0.065000 -0.070000
v -0.055000 0.065000 -0.070000
v -0.083338 0.372804 -0.030000
v -0.048599 0.368538 -0.030000
v -0.026662 0.547196 -0.030000
v -0.061401 0.551462 -0.030000
v -0.048599 0.368538 -0.010000
v -0.083338 0.372804 -0.010000
v -0.061401 0.551462 -0.010000
v -0.026662 0.547196 -0.010000
v -0.083338 0.372804 -0.010000
v -0.083338 0.372804 -0.030000
v -0.061401 0.551462 -0.030000
v -0.061401 0.551462 -0.010000
v -0.048599 0.368538 -0.030000
v -0.048599 0.368538 -0.010000
v -0.026662 0.547196 -0.010000
v -0.026662 0.547196 -0.030000
v -0.061401 0.551462 -0.030000
v -0.026662 0.547196 -0.030000
v -0.026662 0.547196 -0.010000
v -0.061401 0.551462 -0.010000
v -0.083338 0.372804 -0.010000
v -0.048599 0.368538 -0.010000
v -0.048599 0.368538 -0.030000
v -0.083338 0.372804 -0.030000
vt 0.000000 0.000000
vt 1.000000 0.000000
vt 1.000000 1.000000
vt 0.000000 1.000000
vt 0.000000 0.000000
vt 1.000000 0.000000
vt 1.000000 1.000000
vt 0.000000 1.000000
vt 0.000000 0.000000
vt 1.000000 0.000000
vt 1.000000 1.000000
vt 0.000000 1.000000
vt 0.000000 0.000000
vt 1.000000 0.000000
vt 1.000000 1.000000
vt 0.000000 1.000000
vt 0.000000 0.000000
vt 1.000000 0.000000
vt 1.000000 1.000000
vt 0.000000 1.000000
vt 0.000000 0.000000
vt 1.000000 0.000000
vt 1.000000 1.000000
vt 0.000000 1.000000
vt 0.000000 0.000000
vt 1.000000 0.000000
vt 1.000000 1.000000
vt 0.000000 1.000000
vt 0.000000 0.000000
vt 1.000000 0.000000
vt 1.000000 1.000000
vt 0.000000 1.000000
vt 0.000000 0.000000
vt 1.000000 0.000000
vt 1.000000 1.000000
vt 0.000000 1.000000
vt 0.000000 0.000000
vt 1.000000 0.000000
vt 1.000000 1.000000
vt 0.000000 1.000000
vt 0.000000 0.000000
vt 1.000000 0.000000
vt 1.000000 1.000000
vt 0.000000 1.000000
vt 0.000000 0.000000
vt 1.000000 0.000000
vt 1.000000 1.000000
vt 0.000000 1.000000
vt 0.000000 0.000000
vt 1.000000 0.000000
vt 1.000000 1.000000
vt 0.000000 1.000000
vt 0.000000 0.000000
vt 1.000000 0.000000
vt 1.000000 1.000000
vt 0.000000 1.000000
vt 0.000000 0.000000
vt 1.000000 0.000000
vt 1.000000 1.000000
vt 0.000000 1.000000
vt 0.000000 0.000000
vt 1.000000 0.000000
vt 1.000000 1.000000
vt 0.000000 1.000000
vt 0.000000 0.000000
vt 1.000000 0.000000
vt 1.000000 1.000000
vt 0.000000 1.000000
vt 0.000000 0.000000
vt 1.000000 0.000000
vt 1.000000 1.000000
vt 0.000000 1.000000
vt 0.000000 0.000000
vt 1.000000 0.000000
vt 1.000000 1.000000
vt 0.000000 1.000000
vt 0.000000 0.000000
vt 1.000000 0.000000
vt 1.000000 1.000000
vt 0.000000 1.000000
vt 0.000000 0.000000
vt 1.000000 0.000000
vt 1.000000 1.000000
vt 0.000000 1.000000
vt 0.000000 0.000000
vt 1.000000 0.000000
vt 1.000000 1.000000
vt 0.000000 1.000000
vt 0.000000 0.000000
vt 1.000000 0.000000
vt 1.000000 1.000000
vt 0.000000 1.000000
vt 0.000000 0.000000
vt 1.000000 0.000000
vt 1.000000 1.000000
vt 0.000000 1.000000
vt 0.000000 0.000000
vt 1.000000 0.000000
vt 1.000000 1.000000
vt 0.000000 1.000000
vt 0.000000 0.000000
vt 1.000000 0.000000
vt 1.000000 1.000000
vt 0.000000 1.000000
vt 0.000000 0.000000
vt 1.000000 0.000000
vt 1.000000 1.000000
vt 0.000000 1.000000
vt 0.000000 0.000000
vt 1.000000 0.000000
vt 1.000000 1.000000
vt 0.000000 1.000000
vt 0.000000 0.000000
vt 1.000000 0.000000
vt 1.000000 1.000000
vt 0.000000 1.000000
vt 0.000000 0.000000
vt 1.000000 0.000000
vt 1.000000 1.000000
vt 0.000000 1.000000
vt 0.000000 0.000000
vt 1.000000 0.000000
vt 1.000000 1.000000
vt 0.000000 1.000000
vt 0.000000 0.000000
vt 1.000000 0.000000
vt 1.000000 1.000000
vt 0.000000 1.000000
vt 0.000000 0.000000
vt 1.000000 0.000000
vt 1.000000 1.000000
vt 0.000000 1.000000
vt 0.000000 0.000000
vt 1.000000 0.000000
vt 1.000000 1.000000
vt 0.000000 1.000000
vt 0.000000 0.000000
vt 1.000000 0.000000
vt 1.000000 1.000000
vt 0.000000 1.000000
vt 0.000000 0.000000
vt 1.000000 0.000000
vt 1.000000 1.000000
vt 0.000000 1.000000
vt 0.000000 0.000000
vt 1.000000 0.000000
vt 1.000000 1.000000
vt 0.000000 1.000000
vt 0.000000 0.000000
vt 1.000000 0.000000
vt 1.000000 1.000000
vt 0.000000 1.000000
vt 0.000000 0.000000
vt 1.000000 0.000000
vt 1.000000 1.000000
vt 0.000000 1.000000
vt 0.000000 0.000000
vt 1.000000 0.000000
vt 1.000000 1.000000
vt 0.000000 1.000000
vt 0.000000 0.000000
vt 1.000000 0.000000
vt 1.000000 1.000000
vt 0.000000 1.000000
vt 0.000000 0.000000
vt 1.000000 0.000000
vt 1.000000 1.000000
vt 0.000000 1.000000
vt 0.000000 0.000000
vt 1.000000 0.000000
vt 1.000000 1.000000
vt 0.000000 1.000000
vt 0.000000 0.000000
vt 1.000000 0.000000
vt 1.000000 1.000000
vt 0.000000 1.000000
vt 0.000000 0.000000
vt 1.000000 0.000000
vt 1.000000 1.000000
vt 0.000000 1.000000
vt 0.000000 0.000000
vt 1.000000 0.000000
vt 1.000000 1.000000
vt 0.000000 1.000000
vt 0.000000 0.000000
vt 1.000000 0.000000
vt 1.000000 1.000000
vt 0.000000 1.000000
vt 0.000000 0.000000
vt 1.000000 0.000000
vt 1.000000 1.000000
vt 0.000000 1.000000
vt 0.000000 0.000000
vt 1.000000 0.000000
vt 1.000000 1.000000
vt 0.000000 1.000000
vt 0.000000 0.000000
vt 1.000000 0.000000
vt 1.000000 1.000000
vt 0.000000 1.000000
vt 0.000000 0.000000
vt 1.000000 0.000000
vt 1.000000 1.000000
vt 0.000000 1.000000
vt 0.000000 0.000000
vt 1.000000 0.000000
vt 1.000000 1.000000
vt 0.000000 1.000000
vt 0.000000 0.000000
vt 1.000000 0.000000
vt 1.000000 1.000000
vt 0.000000 1.000000
vt 0.000000 0.000000
vt 1.000000 0.000000
vt 1.000000 1.000000
vt 0.000000 1.000000
vt 0.000000 0.000000
vt 0.000000 0.000000
vt 0.000000 0.000000
vt 0.000000 0.000000
vt 0.000000 0.000000
vt 0.000000 0.000000
vt 0.000000 0.000000
vt 0.000000 0.000000
vt 0.000000 0.000000
vt 0.000000 0.000000
vt 1.000000 0.000000
vt 1.000000 1.000000
vt 0.000000 1.000000
vt 0.000000 0.000000
vt 1.000000 0.000000
vt 1.000000 1.000000
vt 0.000000 1.000000
vt 0.000000 0.000000
vt 1.000000 0.000000
vt 1.000000 1.000000
vt 0.000000 1.000000
vt 0.000000 0.000000
vt 1.000000 0.000000
vt 1.000000 1.000000
vt 0.000000 1.000000
vt 0.000000 0.000000
vt 1.000000 0.000000
vt 1.000000 1.000000
vt 0.000000 1.000000
vt 0.000000 0.000000
vt 1.000000 0.000000
vt 1.000000 1.000000
vt 0.000000 1.000000
vt 0.000000 0.000000
vt 1.000000 0.000000
vt 1.000000 1.000000
vt 0.000000 1.000000
vt 0.000000 0.000000
vt 1.000000 0.000000
vt 1.000000 1.000000
vt 0.000000 1.000000
vt 0.000000 0.000000
vt 1.000000 0.000000
vt 1.000000 1.000000
vt 0.000000 1.000000
vt 0.000000 0.000000
vt 1.000000 0.000000
vt 1.000000 1.000000
vt 0.000000 1.000000
vt 0.000000 0.000000
vt 1.000000 0.000000
vt 1.000000 1.000000
vt 0.000000 1.000000
vt 0.000000 0.000000
vt 1.000000 0.000000
vt 1.000000 1.000000
vt 0.000000 1.000000
vt 0.000000 0.000000
vt 1.000000 0.000000
vt 1.000000 1.000000
vt 0.000000 1.000000
vt 0.000000 0.000000
vt 1.000000 0.000000
vt 1.000000 1.000000
vt 0.000000 1.000000
vt 0.000000 0.000000
vt 1.000000 0.000000
vt 1.000000 1.000000
vt 0.000000 1.000000
vt 0.000000 0.000000
vt 1.000000 0.000000
vt 1.000000 1.000000
vt 0.000000 1.000000
vt 0.000000 0.000000
vt 1.000000 0.000000
vt 1.000000 1.000000
vt 0.000000 1.000000
vt 0.000000 0.000000
vt 1.000000 0.000000
vt 1.000000 1.000000
vt 0.000000 1.000000
vt 0.000000 0.000000
vt 1.000000 0.000000
vt 1.000000 1.000000
vt 0.000000 1.000000
vt 0.000000 0.000000
vt 1.000000 0.000000
vt 1.000000 1.000000
vt 0.000000 1.000000
vt 0.000000 0.000000
vt 1.000000 0.000000
vt 1.000000 1.000000
vt 0.000000 1.000000
vt 0.000000 0.000000
vt 1.000000 0.000000
vt 1.000000 1.000000
vt 0.000000 1.000000
vt 0.000000 0.000000
vt 1.000000 0.000000
vt 1.000000 1.000000
vt 0.000000 1.000000
vt 0.000000 0.000000
vt 1.000000 0.000000
vt 1.000000 1.000000
vt 0.000000 1.000000
vt 0.000000 0.000000
vt 1.000000 0.000000
vt 1.000000 1.000000
vt 0.000000 1.000000
vt 0.000000 0.000000
vt 1.000000 0.000000
vt 1.000000 1.000000
vt 0.000000 1.000000
vt 0.000000 0.000000
vt 1.000000 0.000000
vt 1.000000 1.000000
vt 0.000000 1.000000
vt 0.000000 0.000000
vt 1.000000 0.000000
vt 1.000000 1.000000
vt 0.000000 1.000000
vt 0.000000 0.000000
vt 1.000000 0.000000
vt 1.000000 1.000000
vt 0.000000 1.000000
vt 0.000000 0.000000
vt 1.000000 0.000000
vt 1.000000 1.000000
vt 0.000000 1.000000
vt 0.000000 0.000000
vt 1.000000 0.000000
vt 1.000000 1.000000
vt 0.000000 1.000000
vt 0.000000 0.000000
vt 1.000000 0.000000
vt 1.000000 1.000000
vt 0.000000 1.000000
vt 0.000000 0.000000
vt 1.000000 0.000000
vt 1.000000 1.000000
vt 0.000000 1.000000
vt 0.000000 0.000000
vt 1.000000 0.000000
vt 1.000000 1.000000
vt 0.000000 1.000000
vt 0.000000 0.000000
vt 1.000000 0.000000
vt 1.000000 1.000000
vt 0.000000 1.000000
vt 0.000000 0.000000
vt 1.000000 0.000000
vt 1.000000 1.000000
vt 0.000000 1.000000
vt 0.000000 0.000000
vt 1.000000 0.000000
vt 1.000000 1.000000
vt 0.000000 1.000000
vt 0.000000 0.000000
vt 1.000000 0.000000
vt 1.000000 1.000000
vt 0.000000 1.000000
vt 0.000000 0.000000
vt 1.000000 0.000000
vt 1.000000 1.000000
vt 0.000000 1.000000
vt 0.000000 0.000000
vt 1.000000 0.000000
vt 1.000000 1.000000
vt 0.000000 1.000000
vt 0.000000 0.000000
vt 1.000000 0.000000
vt 1.000000 1.000000
vt 0.000000 1.000000
vt 0.000000 0.000000
vt 1.000000 0.000000
vt 1.000000 1.000000
vt 0.000000 1.000000
vt 0.000000 0.000000
vt 1.000000 0.000000
vt 1.000000 1.000000
vt 0.000000 1.000000
vt 0.000000 0.000000
vt 1.000000 0.000000
vt 1.000000 1.000000
vt 0.000000 1.000000
vt 0.000000 0.000000
vt 1.000000 0.000000
vt 1.000000 1.000000
vt 0.000000 1.000000
vt 0.000000 0.000000
vt 1.000000 0.000000
vt 1.000000 1.000000
vt 0.000000 1.000000
vt 0.000000 0.000000
vt 1.000000 0.000000
vt 1.000000 1.000000
vt 0.000000 1.000000
vt 0.000000 0.000000
vt 1.000000 0.000000
vt 1.000000 1.000000
vt 0.000000 1.000000
vt 0.000000 0.000000
vt 1.000000 0.000000
vt 1.000000 1.000000
vt 0.000000 1.000000
vt 0.000000 0.000000
vt 1.000000 0.000000
vt 1.000000 1.000000
vt 0.000000 1.000000
vt 0.000000 0.000000
vt 1.000000 0.000000
vt 1.000000 1.000000
vt 0.000000 1.000000
vt 0.000000 0.000000
vt 1.000000 0.000000
vt 1.000000 1.000000
vt 0.000000 1.000000
vt 0.000000 0.000000
vt 1.000000 0.000000
vt 1.000000 1.000000
vt 0.000000 1.000000
vt 0.000000 0.000000
vt 1.000000 0.000000
vt 1.000000 1.000000
vt 0.000000 1.000000
vt 0.000000 0.000000
vt 1.000000 0.000000
vt 1.000000 1.000000
vt 0.000000 1.000000
vt 0.000000 0.000000
vt 1.000000 0.000000
vt 1.000000 1.000000
vt 0.000000 1.000000
vt 0.000000 0.000000
vt 1.000000 0.000000
vt 1.000000 1.000000
vt 0.000000 1.000000
vt 0.000000 0.000000
vt 1.000000 0.000000
vt 1.000000 1.000000
vt 0.000000 1.000000
vt 0.000000 0.000000
vt 1.000000 0.000000
vt 1.000000 1.000000
vt 0.000000 1.000000
vt 0.000000 0.000000
vt 1.000000 0.000000
vt 1.000000 1.000000
vt 0.000000 1.000000
vt 0.000000 0.000000
vt 1.000000 0.000000
vt 1.000000 1.000000
vt 0.000000 1.000000
vt 0.000000 0.000000
vt 1.000000 0.000000
vt 1.000000 1.000000
vt 0.000000 1.000000
vt 0.000000 0.000000
vt 1.000000 0.000000
vt 1.000000 1.000000
vt 0.000000 1.000000
vt 0.000000 0.000000
vt 1.000000 0.000000
vt 1.000000 1.000000
vt 0.000000 1.000000
vt 0.000000 0.000000
vt 1.000000 0.000000
vt 1.000000 1.000000
vt 0.000000 1.000000
vt 0.000000 0.000000
vt 1.000000 0.000000
vt 1.000000 1.000000
vt 0.000000 1.000000
vt 0.000000 0.000000
vt 1.000000 0.000000
vt 1.000000 1.000000
vt 0.000000 1.000000
vt 0.000000 0.000000
vt 1.000000 0.000000
vt 1.000000 1.000000
vt 0.000000 1.000000
vt 0.000000 0.000000
vt 1.000000 0.000000
vt 1.000000 1.000000
vt 0.000000 1.000000
vt 0.000000 0.000000
vt 1.000000 0.000000
vt 1.000000 1.000000
vt 0.000000 1.000000
vt 0.000000 0.000000
vt 1.000000 0.000000
vt 1.000000 1.000000
vt 0.000000 1.000000
vt 0.000000 0.000000
vt 1.000000 0.000000
vt 1.000000 1.000000
vt 0.000000 1.000000
vt 0.000000 0.000000
vt 1.000000 0.000000
vt 1.000000 1.000000
vt 0.000000 1.000000
vt 0.000000 0.000000
vt 1.000000 0.000000
vt 1.000000 1.000000
vt 0.000000 1.000000
vt 0.000000 0.000000
vt 1.000000 0.000000
vt 1.000000 1.000000
vt 0.000000 1.000000
vt 0.000000 0.000000
vt 1.000000 0.000000
vt 1.000000 1.000000
vt 0.000000 1.000000
vt 0.000000 0.000000
vt 1.000000 0.000000
vt 1.000000 1.000000
vt 0.000000 1.000000
vt 0.000000 0.000000
vt 1.000000 0.000000
vt 1.000000 1.000000
vt 0.000000 1.000000
usemtl Wood
f 1/1 2/2 3/3
f 1/1 3/3 4/4
f 5/5 6/6 7/7
f 5/5 7/7 8/8
f 9/9 10/10 11/11
f 9/9 11/11 12/12
f 13/13 14/14 15/15
f 13/13 15/15 16/16
f 17/17 18/18 19/19
f 17/17 19/19 20/20
f 21/21 22/22 23/23
f 21/21 23/23 24/24
usemtl Rope
f 25/25 26/26 27/27
f 25/25 27/27 28/28
f 29/29 30/30 31/31
f 29/29 31/31 32/32
f 33/33 34/34 35/35
f 33/33 35/35 36/36
f 37/37 38/38 39/39
f 37/37 39/39 40/40
f 41/41 42/42 43/43
f 41/41 43/43 44/44
f 45/45 46/46 47/47
f 45/45 47/47 48/48
f 49/49 50/50 51/51
f 49/49 51/51 52/52
f 53/53 54/54 55/55
f 53/53 55/55 56/56
f 57/57 58/58 59/59
f 57/57 59/59 60/60
f 61/61 62/62 63/63
f 61/61 63/63 64/64
f 65/65 66/66 67/67
f 65/65 67/67 68/68
f 69/69 70/70 71/71
f 69/69 71/71 72/72
f 73/73 74/74 75/75
f 73/73 75/75 76/76
f 77/77 78/78 79/79
f 77/77 79/79 80/80
f 81/81 82/82 83/83
f 81/81 83/83 84/84
f 85/85 86/86 87/87
f 85/85 87/87 88/88
f 89/89 90/90 91/91
f 89/89 91/91 92/92
f 93/93 94/94 95/95
f 93/93 95/95 96/96
f 97/97 98/98 99/99
f 97/97 99/99 100/100
f 101/101 102/102 103/103
f 101/101 103/103 104/104
f 105/105 106/106 107/107
f 105/105 107/107 108/108
f 109/109 110/110 111/111
f 109/109 111/111 112/112
f 113/113 114/114 115/115
f 113/113 115/115 116/116
f 117/117 118/118 119/119
f 117/117 119/119 120/120
f 121/121 122/122 123/123
f 121/121 123/123 124/124
f 125/125 126/126 127/127
f 125/125 127/127 128/128
f 129/129 130/130 131/131
f 129/129 131/131 132/132
f 133/133 134/134 135/135
f 133/133 135/135 136/136
f 137/137 138/138 139/139
f 137/137 139/139 140/140
f 141/141 142/142 143/143
f 141/141 143/143 144/144
f 145/145 146/146 147/147
f 145/145 147/147 148/148
f 149/149 150/150 151/151
f 149/149 151/151 152/152
f 153/153 154/154 155/155
f 153/153 155/155 156/156
f 157/157 158/158 159/159
f 157/157 159/159 160/160
f 161/161 162/162 163/163
f 161/161 163/163 164/164
f 165/165 166/166 167/167
f 165/165 167/167 168/168
f 169/169 170/170 171/171
f 169/169 171/171 172/172
f 173/173 174/174 175/175
f 173/173 175/175 176/176
f 177/177 178/178 179/179
f 177/177 179/179 180/180
f 181/181 182/182 183/183
f 181/181 183/183 184/184
f 185/185 186/186 187/187
f 185/185 187/187 188/188
f 189/189 190/190 191/191
f 189/189 191/191 192/192
f 193/193 194/194 195/195
f 193/193 195/195 196/196
f 197/197 198/198 199/199
f 197/197 199/199 200/200
f 201/201 202/202 203/203
f 201/201 203/203 204/204
f 205/205 206/206 207/207
f 205/205 207/207 208/208
f 209/209 210/210 211/211
f 209/209 211/211 212/212
f 213/213 214/214 215/215
f 213/213 215/215 216/216
usemtl Metal
f 217/217 218/218 219/219
f 220/220 221/221 222/222
f 223/223 224/224 225/225
usemtl Char
f 226/226 227/227 228/228
f 226/226 228/228 229/229
f 230/230 231/231 232/232
f 230/230 232/232 233/233
f 234/234 235/235 236/236
f 234/234 236/236 237/237
f 238/238 239/239 240/240
f 238/238 240/240 241/241
f 242/242 243/243 244/244
f 242/242 244/244 245/245
f 246/246 247/247 248/248
f 246/246 248/248 249/249
usemtl Metal
f 250/250 251/251 252/252
f 250/250 252/252 253/253
f 254/254 255/255 256/256
f 254/254 256/256 257/257
f 258/258 259/259 260/260
f 258/258 260/260 261/261
f 262/262 263/263 264/264
f 262/262 264/264 265/265
f 266/266 267/267 268/268
f 266/266 268/268 269/269
f 270/270 271/271 272/272
f 270/270 272/272 273/273
f 274/274 275/275 276/276
f 274/274 276/276 277/277
f 278/278 279/279 280/280
f 278/278 280/280 281/281
f 282/282 283/283 284/284
f 282/282 284/284 285/285
f 286/286 287/287 288/288
f 286/286 288/288 289/289
f 290/290 291/291 292/292
f 290/290 292/292 293/293
f 294/294 295/295 296/296
f 294/294 296/296 297/297
usemtl Rope
f 298/298 299/299 300/300
f 298/298 300/300 301/301
f 302/302 303/303 304/304
f 302/302 304/304 305/305
f 306/306 307/307 308/308
f 306/306 308/308 309/309
f 310/310 311/311 312/312
f 310/310 312/312 313/313
f 314/314 315/315 316/316
f 314/314 316/316 317/317
f 318/318 319/319 320/320
f 318/318 320/320 321/321
f 322/322 323/323 324/324
f 322/322 324/324 325/325
f 326/326 327/327 328/328
f 326/326 328/328 329/329
f 330/330 331/331 332/332
f 330/330 332/332 333/333
f 334/334 335/335 336/336
f 334/334 336/336 337/337
f 338/338 339/339 340/340
f 338/338 340/340 341/341
f 342/342 343/343 344/344
f 342/342 344/344 345/345
f 346/346 347/347 348/348
f 346/346 348/348 349/349
f 350/350 351/351 352/352
f 350/350 352/352 353/353
f 354/354 355/355 356/356
f 354/354 356/356 357/357
f 358/358 359/359 360/360
f 358/358 360/360 361/361
f 362/362 363/363 364/364
f 362/362 364/364 365/365
f 366/366 367/367 368/368
f 366/366 368/368 369/369
f 370/370 371/371 372/372
f 370/370 372/372 373/373
f 374/374 375/375 376/376
f 374/374 376/376 377/377
f 378/378 379/379 380/380
f 378/378 380/380 381/381
f 382/382 383/383 384/384
f 382/382 384/384 385/385
f 386/386 387/387 388/388
f 386/386 388/388 389/389
f 390/390 391/391 392/392
f 390/390 392/392 393/393
f 394/394 395/395 396/396
f 394/394 396/396 397/397
f 398/398 399/399 400/400
f 398/398 400/400 401/401
f 402/402 403/403 404/404
f 402/402 404/404 405/405
f 406/406 407/407 408/408
f 406/406 408/408 409/409
f 410/410 411/411 412/412
f 410/410 412/412 413/413
f 414/414 415/415 416/416
f 414/414 416/416 417/417
f 418/418 419/419 420/420
f 418/418 420/420 421/421
f 422/422 423/423 424/424
f 422/422 424/424 425/425
f 426/426 427/427 428/428
f 426/426 428/428 429/429
f 430/430 431/431 432/432
f 430/430 432/432 433/433
f 434/434 435/435 436/436
f 434/434 436/436 437/437
f 438/438 439/439 440/440
f 438/438 440/440 441/441
f 442/442 443/443 444/444
f 442/442 444/444 445/445
f 446/446 447/447 448/448
f 446/446 448/448 449/449
f 450/450 451/451 452/452
f 450/450 452/452 453/453
f 454/454 455/455 456/456
f 454/454 456/456 457/457
f 458/458 459/459 460/460
f 458/458 460/460 461/461
f 462/462 463/463 464/464
f 462/462 464/464 465/465
f 466/466 467/467 468/468
f 466/466 468/468 469/469
f 470/470 471/471 472/472
f 470/470 472/472 473/473
f 474/474 475/475 476/476
f 474/474 476/476 477/477
f 478/478 479/479 480/480
f 478/478 480/480 481/481
f 482/482 483/483 484/484
f 482/482 484/484 485/485
f 486/486 487/487 488/488
f 486/486 488/488 489/489
f 490/490 491/491 492/492
f 490/490 492/492 493/493
f 494/494 495/495 496/496
f 494/494 496/496 497/497
f 498/498 499/499 500/500
f 498/498 500/500 501/501
f 502/502 503/503 504/504
f 502/502 504/504 505/505
f 506/506 507/507 508/508
f 506/506 508/508 509/509
f 510/510 511/511 512/512
f 510/510 512/512 513/513
usemtl Char
f 514/514 515/515 516/516
f 514/514 516/516 517/517
f 518/518 519/519 520/520
f 518/518 520/520 521/521
f 522/522 523/523 524/524
f 522/522 524/524 525/525
f 526/526 527/527 528/528
f 526/526 528/528 529/529
f 530/530 531/531 532/532
f 530/530 532/532 533/533
f 534/534 535/535 536/536
f 534/534 536/536 537/537
