mtllib ../../Materials/project_oen.mtl
o pr-006_first_aid_kit__open
v -0.330000 0.020000 -0.220000
v 0.330000 0.020000 -0.220000
v 0.330000 0.340000 -0.220000
v -0.330000 0.340000 -0.220000
v 0.330000 0.020000 0.220000
v -0.330000 0.020000 0.220000
v -0.330000 0.340000 0.220000
v 0.330000 0.340000 0.220000
v -0.330000 0.020000 0.220000
v -0.330000 0.020000 -0.220000
v -0.330000 0.340000 -0.220000
v -0.330000 0.340000 0.220000
v 0.330000 0.020000 -0.220000
v 0.330000 0.020000 0.220000
v 0.330000 0.340000 0.220000
v 0.330000 0.340000 -0.220000
v -0.330000 0.340000 -0.220000
v 0.330000 0.340000 -0.220000
v 0.330000 0.340000 0.220000
v -0.330000 0.340000 0.220000
v -0.330000 0.020000 0.220000
v 0.330000 0.020000 0.220000
v 0.330000 0.020000 -0.220000
v -0.330000 0.020000 -0.220000
v -0.332500 0.030000 -0.230000
v -0.287500 0.030000 -0.230000
v -0.287500 0.330000 -0.230000
v -0.332500 0.330000 -0.230000
v -0.287500 0.030000 0.230000
v -0.332500 0.030000 0.230000
v -0.332500 0.330000 0.230000
v -0.287500 0.330000 0.230000
v -0.332500 0.030000 0.230000
v -0.332500 0.030000 -0.230000
v -0.332500 0.330000 -0.230000
v -0.332500 0.330000 0.230000
v -0.287500 0.030000 -0.230000
v -0.287500 0.030000 0.230000
v -0.287500 0.330000 0.230000
v -0.287500 0.330000 -0.230000
v -0.332500 0.330000 -0.230000
v -0.287500 0.330000 -0.230000
v -0.287500 0.330000 0.230000
v -0.332500 0.330000 0.230000
v -0.332500 0.030000 0.230000
v -0.287500 0.030000 0.230000
v -0.287500 0.030000 -0.230000
v -0.332500 0.030000 -0.230000
v 0.287500 0.030000 -0.230000
v 0.332500 0.030000 -0.230000
v 0.332500 0.330000 -0.230000
v 0.287500 0.330000 -0.230000
v 0.332500 0.030000 0.230000
v 0.287500 0.030000 0.230000
v 0.287500 0.330000 0.230000
v 0.332500 0.330000 0.230000
v 0.287500 0.030000 0.230000
v 0.287500 0.030000 -0.230000
v 0.287500 0.330000 -0.230000
v 0.287500 0.330000 0.230000
v 0.332500 0.030000 -0.230000
v 0.332500 0.030000 0.230000
v 0.332500 0.330000 0.230000
v 0.332500 0.330000 -0.230000
v 0.287500 0.330000 -0.230000
v 0.332500 0.330000 -0.230000
v 0.332500 0.330000 0.230000
v 0.287500 0.330000 0.230000
v 0.287500 0.030000 0.230000
v 0.332500 0.030000 0.230000
v 0.332500 0.030000 -0.230000
v 0.287500 0.030000 -0.230000
v -0.100000 0.110000 -0.237500
v 0.100000 0.110000 -0.237500
v 0.100000 0.270000 -0.237500
v -0.100000 0.270000 -0.237500
v 0.100000 0.110000 -0.212500
v -0.100000 0.110000 -0.212500
v -0.100000 0.270000 -0.212500
v 0.100000 0.270000 -0.212500
v -0.100000 0.110000 -0.212500
v -0.100000 0.110000 -0.237500
v -0.100000 0.270000 -0.237500
v -0.100000 0.270000 -0.212500
v 0.100000 0.110000 -0.237500
v 0.100000 0.110000 -0.212500
v 0.100000 0.270000 -0.212500
v 0.100000 0.270000 -0.237500
v -0.100000 0.270000 -0.237500
v 0.100000 0.270000 -0.237500
v 0.100000 0.270000 -0.212500
v -0.100000 0.270000 -0.212500
v -0.100000 0.110000 -0.212500
v 0.100000 0.110000 -0.212500
v 0.100000 0.110000 -0.237500
v -0.100000 0.110000 -0.237500
v -0.027500 0.100000 -0.247000
v 0.027500 0.100000 -0.247000
v 0.027500 0.280000 -0.247000
v -0.027500 0.280000 -0.247000
v 0.027500 0.100000 -0.235000
v -0.027500 0.100000 -0.235000
v -0.027500 0.280000 -0.235000
v 0.027500 0.280000 -0.235000
v -0.027500 0.100000 -0.235000
v -0.027500 0.100000 -0.247000
v -0.027500 0.280000 -0.247000
v -0.027500 0.280000 -0.235000
v 0.027500 0.100000 -0.247000
v 0.027500 0.100000 -0.235000
v 0.027500 0.280000 -0.235000
v 0.027500 0.280000 -0.247000
v -0.027500 0.280000 -0.247000
v 0.027500 0.280000 -0.247000
v 0.027500 0.280000 -0.235000
v -0.027500 0.280000 -0.235000
v -0.027500 0.100000 -0.235000
v 0.027500 0.100000 -0.235000
v 0.027500 0.100000 -0.247000
v -0.027500 0.100000 -0.247000
v -0.090000 0.162500 -0.248000
v 0.090000 0.162500 -0.248000
v 0.090000 0.217500 -0.248000
v -0.090000 0.217500 -0.248000
v 0.090000 0.162500 -0.236000
v -0.090000 0.162500 -0.236000
v -0.090000 0.217500 -0.236000
v 0.090000 0.217500 -0.236000
v -0.090000 0.162500 -0.236000
v -0.090000 0.162500 -0.248000
v -0.090000 0.217500 -0.248000
v -0.090000 0.217500 -0.236000
v 0.090000 0.162500 -0.248000
v 0.090000 0.162500 -0.236000
v 0.090000 0.217500 -0.236000
v 0.090000 0.217500 -0.248000
v -0.090000 0.217500 -0.248000
v 0.090000 0.217500 -0.248000
v 0.090000 0.217500 -0.236000
v -0.090000 0.217500 -0.236000
v -0.090000 0.162500 -0.236000
v 0.090000 0.162500 -0.236000
v 0.090000 0.162500 -0.248000
v -0.090000 0.162500 -0.248000
v -0.000000 0.332000 -0.200000
v -0.014073 0.338777 -0.200000
v -0.014073 0.338777 0.200000
v 0.000000 0.332000 0.200000
v -0.014073 0.338777 -0.200000
v -0.017549 0.354005 -0.200000
v -0.017549 0.354005 0.200000
v -0.014073 0.338777 0.200000
v -0.017549 0.354005 -0.200000
v -0.007810 0.366217 -0.200000
v -0.007810 0.366217 0.200000
v -0.017549 0.354005 0.200000
v -0.007810 0.366217 -0.200000
v 0.007810 0.366217 -0.200000
v 0.007810 0.366217 0.200000
v -0.007810 0.366217 0.200000
v 0.007810 0.366217 -0.200000
v 0.017549 0.354005 -0.200000
v 0.017549 0.354005 0.200000
v 0.007810 0.366217 0.200000
v 0.017549 0.354005 -0.200000
v 0.014073 0.338777 -0.200000
v 0.014073 0.338777 0.200000
v 0.017549 0.354005 0.200000
v 0.014073 0.338777 -0.200000
v -0.000000 0.332000 -0.200000
v 0.000000 0.332000 0.200000
v 0.014073 0.338777 0.200000
v -0.000000 0.350000 -0.200000
v -0.014073 0.338777 -0.200000
v -0.000000 0.332000 -0.200000
v 0.000000 0.350000 0.200000
v 0.000000 0.332000 0.200000
v -0.014073 0.338777 0.200000
v -0.000000 0.350000 -0.200000
v -0.017549 0.354005 -0.200000
v -0.014073 0.338777 -0.200000
v 0.000000 0.350000 0.200000
v -0.014073 0.338777 0.200000
v -0.017549 0.354005 0.200000
v -0.000000 0.350000 -0.200000
v -0.007810 0.366217 -0.200000
v -0.017549 0.354005 -0.200000
v 0.000000 0.350000 0.200000
v -0.017549 0.354005 0.200000
v -0.007810 0.366217 0.200000
v -0.000000 0.350000 -0.200000
v 0.007810 0.366217 -0.200000
v -0.007810 0.366217 -0.200000
v 0.000000 0.350000 0.200000
v -0.007810 0.366217 0.200000
v 0.007810 0.366217 0.200000
v -0.000000 0.350000 -0.200000
v 0.017549 0.354005 -0.200000
v 0.007810 0.366217 -0.200000
v 0.000000 0.350000 0.200000
v 0.007810 0.366217 0.200000
v 0.017549 0.354005 0.200000
v -0.000000 0.350000 -0.200000
v 0.014073 0.338777 -0.200000
v 0.017549 0.354005 -0.200000
v 0.000000 0.350000 0.200000
v 0.017549 0.354005 0.200000
v 0.014073 0.338777 0.200000
v -0.000000 0.350000 -0.200000
v -0.000000 0.332000 -0.200000
v 0.014073 0.338777 -0.200000
v 0.000000 0.350000 0.200000
v 0.014073 0.338777 0.200000
v 0.000000 0.332000 0.200000
v -0.320000 0.354783 -0.026923
v 0.320000 0.354783 -0.026923
v 0.320000 0.403345 -0.052744
v -0.320000 0.403345 -0.052744
v 0.320000 0.556655 0.352744
v -0.320000 0.556655 0.352744
v -0.320000 0.605217 0.326923
v 0.320000 0.605217 0.326923
v -0.320000 0.556655 0.352744
v -0.320000 0.354783 -0.026923
v -0.320000 0.403345 -0.052744
v -0.320000 0.605217 0.326923
v 0.320000 0.354783 -0.026923
v 0.320000 0.556655 0.352744
v 0.320000 0.605217 0.326923
v 0.320000 0.403345 -0.052744
v -0.320000 0.403345 -0.052744
v 0.320000 0.403345 -0.052744
v 0.320000 0.605217 0.326923
v -0.320000 0.605217 0.326923
v -0.320000 0.556655 0.352744
v 0.320000 0.556655 0.352744
v 0.320000 0.354783 -0.026923
v -0.320000 0.354783 -0.026923
v -0.245601 0.320000 -0.190266
v -0.116096 0.320000 -0.178935
v -0.116096 0.360000 -0.178935
v -0.245601 0.360000 -0.190266
v -0.134399 0.320000 0.030266
v -0.263904 0.320000 0.018935
v -0.263904 0.360000 0.018935
v -0.134399 0.360000 0.030266
v -0.263904 0.320000 0.018935
v -0.245601 0.320000 -0.190266
v -0.245601 0.360000 -0.190266
v -0.263904 0.360000 0.018935
v -0.116096 0.320000 -0.178935
v -0.134399 0.320000 0.030266
v -0.134399 0.360000 0.030266
v -0.116096 0.360000 -0.178935
v -0.245601 0.360000 -0.190266
v -0.116096 0.360000 -0.178935
v -0.134399 0.360000 0.030266
v -0.263904 0.360000 0.018935
v -0.263904 0.320000 0.018935
v -0.134399 0.320000 0.030266
v -0.116096 0.320000 -0.178935
v -0.245601 0.320000 -0.190266
v -0.065000 0.320000 -0.185000
v 0.065000 0.320000 -0.185000
v 0.065000 0.360000 -0.185000
v -0.065000 0.360000 -0.185000
v 0.065000 0.320000 0.025000
v -0.065000 0.320000 0.025000
v -0.065000 0.360000 0.025000
v 0.065000 0.360000 0.025000
v -0.065000 0.320000 0.025000
v -0.065000 0.320000 -0.185000
v -0.065000 0.360000 -0.185000
v -0.065000 0.360000 0.025000
v 0.065000 0.320000 -0.185000
v 0.065000 0.320000 0.025000
v 0.065000 0.360000 0.025000
v 0.065000 0.360000 -0.185000
v -0.065000 0.360000 -0.185000
v 0.065000 0.360000 -0.185000
v 0.065000 0.360000 0.025000
v -0.065000 0.360000 0.025000
v -0.065000 0.320000 0.025000
v 0.065000 0.320000 0.025000
v 0.065000 0.320000 -0.185000
v -0.065000 0.320000 -0.185000
v 0.116096 0.320000 -0.178935
v 0.245601 0.320000 -0.190266
v 0.245601 0.360000 -0.190266
v 0.116096 0.360000 -0.178935
v 0.263904 0.320000 0.018935
v 0.134399 0.320000 0.030266
v 0.134399 0.360000 0.030266
v 0.263904 0.360000 0.018935
v 0.134399 0.320000 0.030266
v 0.116096 0.320000 -0.178935
v 0.116096 0.360000 -0.178935
v 0.134399 0.360000 0.030266
v 0.245601 0.320000 -0.190266
v 0.263904 0.320000 0.018935
v 0.263904 0.360000 0.018935
v 0.245601 0.360000 -0.190266
v 0.116096 0.360000 -0.178935
v 0.245601 0.360000 -0.190266
v 0.263904 0.360000 0.018935
v 0.134399 0.360000 0.030266
v 0.134399 0.320000 0.030266
v 0.263904 0.320000 0.018935
v 0.245601 0.320000 -0.190266
v 0.116096 0.320000 -0.178935
v 0.310000 0.405000 0.020000
v 0.310000 0.395587 0.039546
v 0.070000 0.395587 0.039546
v 0.070000 0.405000 0.020000
v 0.310000 0.395587 0.039546
v 0.310000 0.374437 0.044373
v 0.070000 0.374437 0.044373
v 0.070000 0.395587 0.039546
v 0.310000 0.374437 0.044373
v 0.310000 0.357476 0.030847
v 0.070000 0.357476 0.030847
v 0.070000 0.374437 0.044373
v 0.310000 0.357476 0.030847
v 0.310000 0.357476 0.009153
v 0.070000 0.357476 0.009153
v 0.070000 0.357476 0.030847
v 0.310000 0.357476 0.009153
v 0.310000 0.374437 -0.004373
v 0.070000 0.374437 -0.004373
v 0.070000 0.357476 0.009153
v 0.310000 0.374437 -0.004373
v 0.310000 0.395587 0.000454
v 0.070000 0.395587 0.000454
v 0.070000 0.374437 -0.004373
v 0.310000 0.395587 0.000454
v 0.310000 0.405000 0.020000
v 0.070000 0.405000 0.020000
v 0.070000 0.395587 0.000454
v 0.310000 0.380000 0.020000
v 0.310000 0.395587 0.039546
v 0.310000 0.405000 0.020000
v 0.070000 0.380000 0.020000
v 0.070000 0.405000 0.020000
v 0.070000 0.395587 0.039546
v 0.310000 0.380000 0.020000
v 0.310000 0.374437 0.044373
v 0.310000 0.395587 0.039546
v 0.070000 0.380000 0.020000
v 0.070000 0.395587 0.039546
v 0.070000 0.374437 0.044373
v 0.310000 0.380000 0.020000
v 0.310000 0.357476 0.030847
v 0.310000 0.374437 0.044373
v 0.070000 0.380000 0.020000
v 0.070000 0.374437 0.044373
v 0.070000 0.357476 0.030847
v 0.310000 0.380000 0.020000
v 0.310000 0.357476 0.009153
v 0.310000 0.357476 0.030847
v 0.070000 0.380000 0.020000
v 0.070000 0.357476 0.030847
v 0.070000 0.357476 0.009153
v 0.310000 0.380000 0.020000
v 0.310000 0.374437 -0.004373
v 0.310000 0.357476 0.009153
v 0.070000 0.380000 0.020000
v 0.070000 0.357476 0.009153
v 0.070000 0.374437 -0.004373
v 0.310000 0.380000 0.020000
v 0.310000 0.395587 0.000454
v 0.310000 0.374437 -0.004373
v 0.070000 0.380000 0.020000
v 0.070000 0.374437 -0.004373
v 0.070000 0.395587 0.000454
v 0.310000 0.380000 0.020000
v 0.310000 0.405000 0.020000
v 0.310000 0.395587 0.000454
v 0.070000 0.380000 0.020000
v 0.070000 0.395587 0.000454
v 0.070000 0.405000 0.020000
vt 0.000000 0.000000
vt 1.000000 0.000000
vt 1.000000 1.000000
vt 0.000000 1.000000
vt 0.000000 0.000000
vt 1.000000 0.000000
vt 1.000000 1.000000
vt 0.000000 1.000000
vt 0.000000 0.000000
vt 1.000000 0.000000
vt 1.000000 1.000000
vt 0.000000 1.000000
vt 0.000000 0.000000
vt 1.000000 0.000000
vt 1.000000 1.000000
vt 0.000000 1.000000
vt 0.000000 0.000000
vt 1.000000 0.000000
vt 1.000000 1.000000
vt 0.000000 1.000000
vt 0.000000 0.000000
vt 1.000000 0.000000
vt 1.000000 1.000000
vt 0.000000 1.000000
vt 0.000000 0.000000
vt 1.000000 0.000000
vt 1.000000 1.000000
vt 0.000000 1.000000
vt 0.000000 0.000000
vt 1.000000 0.000000
vt 1.000000 1.000000
vt 0.000000 1.000000
vt 0.000000 0.000000
vt 1.000000 0.000000
vt 1.000000 1.000000
vt 0.000000 1.000000
vt 0.000000 0.000000
vt 1.000000 0.000000
vt 1.000000 1.000000
vt 0.000000 1.000000
vt 0.000000 0.000000
vt 1.000000 0.000000
vt 1.000000 1.000000
vt 0.000000 1.000000
vt 0.000000 0.000000
vt 1.000000 0.000000
vt 1.000000 1.000000
vt 0.000000 1.000000
vt 0.000000 0.000000
vt 1.000000 0.000000
vt 1.000000 1.000000
vt 0.000000 1.000000
vt 0.000000 0.000000
vt 1.000000 0.000000
vt 1.000000 1.000000
vt 0.000000 1.000000
vt 0.000000 0.000000
vt 1.000000 0.000000
vt 1.000000 1.000000
vt 0.000000 1.000000
vt 0.000000 0.000000
vt 1.000000 0.000000
vt 1.000000 1.000000
vt 0.000000 1.000000
vt 0.000000 0.000000
vt 1.000000 0.000000
vt 1.000000 1.000000
vt 0.000000 1.000000
vt 0.000000 0.000000
vt 1.000000 0.000000
vt 1.000000 1.000000
vt 0.000000 1.000000
vt 0.000000 0.000000
vt 1.000000 0.000000
vt 1.000000 1.000000
vt 0.000000 1.000000
vt 0.000000 0.000000
vt 1.000000 0.000000
vt 1.000000 1.000000
vt 0.000000 1.000000
vt 0.000000 0.000000
vt 1.000000 0.000000
vt 1.000000 1.000000
vt 0.000000 1.000000
vt 0.000000 0.000000
vt 1.000000 0.000000
vt 1.000000 1.000000
vt 0.000000 1.000000
vt 0.000000 0.000000
vt 1.000000 0.000000
vt 1.000000 1.000000
vt 0.000000 1.000000
vt 0.000000 0.000000
vt 1.000000 0.000000
vt 1.000000 1.000000
vt 0.000000 1.000000
vt 0.000000 0.000000
vt 1.000000 0.000000
vt 1.000000 1.000000
vt 0.000000 1.000000
vt 0.000000 0.000000
vt 1.000000 0.000000
vt 1.000000 1.000000
vt 0.000000 1.000000
vt 0.000000 0.000000
vt 1.000000 0.000000
vt 1.000000 1.000000
vt 0.000000 1.000000
vt 0.000000 0.000000
vt 1.000000 0.000000
vt 1.000000 1.000000
vt 0.000000 1.000000
vt 0.000000 0.000000
vt 1.000000 0.000000
vt 1.000000 1.000000
vt 0.000000 1.000000
vt 0.000000 0.000000
vt 1.000000 0.000000
vt 1.000000 1.000000
vt 0.000000 1.000000
vt 0.000000 0.000000
vt 1.000000 0.000000
vt 1.000000 1.000000
vt 0.000000 1.000000
vt 0.000000 0.000000
vt 1.000000 0.000000
vt 1.000000 1.000000
vt 0.000000 1.000000
vt 0.000000 0.000000
vt 1.000000 0.000000
vt 1.000000 1.000000
vt 0.000000 1.000000
vt 0.000000 0.000000
vt 1.000000 0.000000
vt 1.000000 1.000000
vt 0.000000 1.000000
vt 0.000000 0.000000
vt 1.000000 0.000000
vt 1.000000 1.000000
vt 0.000000 1.000000
vt 0.000000 0.000000
vt 1.000000 0.000000
vt 1.000000 1.000000
vt 0.000000 1.000000
vt 0.000000 0.000000
vt 1.000000 0.000000
vt 1.000000 1.000000
vt 0.000000 1.000000
vt 0.000000 0.000000
vt 1.000000 0.000000
vt 1.000000 1.000000
vt 0.000000 1.000000
vt 0.000000 0.000000
vt 1.000000 0.000000
vt 1.000000 1.000000
vt 0.000000 1.000000
vt 0.000000 0.000000
vt 1.000000 0.000000
vt 1.000000 1.000000
vt 0.000000 1.000000
vt 0.000000 0.000000
vt 1.000000 0.000000
vt 1.000000 1.000000
vt 0.000000 1.000000
vt 0.000000 0.000000
vt 1.000000 0.000000
vt 1.000000 1.000000
vt 0.000000 1.000000
vt 0.000000 0.000000
vt 1.000000 0.000000
vt 1.000000 1.000000
vt 0.000000 1.000000
vt 0.500000 0.500000
vt 0.000000 0.000000
vt 1.000000 0.000000
vt 0.500000 0.500000
vt 0.000000 1.000000
vt 1.000000 1.000000
vt 0.500000 0.500000
vt 0.000000 0.000000
vt 1.000000 0.000000
vt 0.500000 0.500000
vt 0.000000 1.000000
vt 1.000000 1.000000
vt 0.500000 0.500000
vt 0.000000 0.000000
vt 1.000000 0.000000
vt 0.500000 0.500000
vt 0.000000 1.000000
vt 1.000000 1.000000
vt 0.500000 0.500000
vt 0.000000 0.000000
vt 1.000000 0.000000
vt 0.500000 0.500000
vt 0.000000 1.000000
vt 1.000000 1.000000
vt 0.500000 0.500000
vt 0.000000 0.000000
vt 1.000000 0.000000
vt 0.500000 0.500000
vt 0.000000 1.000000
vt 1.000000 1.000000
vt 0.500000 0.500000
vt 0.000000 0.000000
vt 1.000000 0.000000
vt 0.500000 0.500000
vt 0.000000 1.000000
vt 1.000000 1.000000
vt 0.500000 0.500000
vt 0.000000 0.000000
vt 1.000000 0.000000
vt 0.500000 0.500000
vt 0.000000 1.000000
vt 1.000000 1.000000
vt 0.000000 0.000000
vt 1.000000 0.000000
vt 1.000000 1.000000
vt 0.000000 1.000000
vt 0.000000 0.000000
vt 1.000000 0.000000
vt 1.000000 1.000000
vt 0.000000 1.000000
vt 0.000000 0.000000
vt 1.000000 0.000000
vt 1.000000 1.000000
vt 0.000000 1.000000
vt 0.000000 0.000000
vt 1.000000 0.000000
vt 1.000000 1.000000
vt 0.000000 1.000000
vt 0.000000 0.000000
vt 1.000000 0.000000
vt 1.000000 1.000000
vt 0.000000 1.000000
vt 0.000000 0.000000
vt 1.000000 0.000000
vt 1.000000 1.000000
vt 0.000000 1.000000
vt 0.000000 0.000000
vt 1.000000 0.000000
vt 1.000000 1.000000
vt 0.000000 1.000000
vt 0.000000 0.000000
vt 1.000000 0.000000
vt 1.000000 1.000000
vt 0.000000 1.000000
vt 0.000000 0.000000
vt 1.000000 0.000000
vt 1.000000 1.000000
vt 0.000000 1.000000
vt 0.000000 0.000000
vt 1.000000 0.000000
vt 1.000000 1.000000
vt 0.000000 1.000000
vt 0.000000 0.000000
vt 1.000000 0.000000
vt 1.000000 1.000000
vt 0.000000 1.000000
vt 0.000000 0.000000
vt 1.000000 0.000000
vt 1.000000 1.000000
vt 0.000000 1.000000
vt 0.000000 0.000000
vt 1.000000 0.000000
vt 1.000000 1.000000
vt 0.000000 1.000000
vt 0.000000 0.000000
vt 1.000000 0.000000
vt 1.000000 1.000000
vt 0.000000 1.000000
vt 0.000000 0.000000
vt 1.000000 0.000000
vt 1.000000 1.000000
vt 0.000000 1.000000
vt 0.000000 0.000000
vt 1.000000 0.000000
vt 1.000000 1.000000
vt 0.000000 1.000000
vt 0.000000 0.000000
vt 1.000000 0.000000
vt 1.000000 1.000000
vt 0.000000 1.000000
vt 0.000000 0.000000
vt 1.000000 0.000000
vt 1.000000 1.000000
vt 0.000000 1.000000
vt 0.000000 0.000000
vt 1.000000 0.000000
vt 1.000000 1.000000
vt 0.000000 1.000000
vt 0.000000 0.000000
vt 1.000000 0.000000
vt 1.000000 1.000000
vt 0.000000 1.000000
vt 0.000000 0.000000
vt 1.000000 0.000000
vt 1.000000 1.000000
vt 0.000000 1.000000
vt 0.000000 0.000000
vt 1.000000 0.000000
vt 1.000000 1.000000
vt 0.000000 1.000000
vt 0.000000 0.000000
vt 1.000000 0.000000
vt 1.000000 1.000000
vt 0.000000 1.000000
vt 0.000000 0.000000
vt 1.000000 0.000000
vt 1.000000 1.000000
vt 0.000000 1.000000
vt 0.000000 0.000000
vt 1.000000 0.000000
vt 1.000000 1.000000
vt 0.000000 1.000000
vt 0.000000 0.000000
vt 1.000000 0.000000
vt 1.000000 1.000000
vt 0.000000 1.000000
vt 0.000000 0.000000
vt 1.000000 0.000000
vt 1.000000 1.000000
vt 0.000000 1.000000
vt 0.000000 0.000000
vt 1.000000 0.000000
vt 1.000000 1.000000
vt 0.000000 1.000000
vt 0.000000 0.000000
vt 1.000000 0.000000
vt 1.000000 1.000000
vt 0.000000 1.000000
vt 0.000000 0.000000
vt 1.000000 0.000000
vt 1.000000 1.000000
vt 0.000000 1.000000
vt 0.000000 0.000000
vt 1.000000 0.000000
vt 1.000000 1.000000
vt 0.000000 1.000000
vt 0.500000 0.500000
vt 0.000000 0.000000
vt 1.000000 0.000000
vt 0.500000 0.500000
vt 0.000000 1.000000
vt 1.000000 1.000000
vt 0.500000 0.500000
vt 0.000000 0.000000
vt 1.000000 0.000000
vt 0.500000 0.500000
vt 0.000000 1.000000
vt 1.000000 1.000000
vt 0.500000 0.500000
vt 0.000000 0.000000
vt 1.000000 0.000000
vt 0.500000 0.500000
vt 0.000000 1.000000
vt 1.000000 1.000000
vt 0.500000 0.500000
vt 0.000000 0.000000
vt 1.000000 0.000000
vt 0.500000 0.500000
vt 0.000000 1.000000
vt 1.000000 1.000000
vt 0.500000 0.500000
vt 0.000000 0.000000
vt 1.000000 0.000000
vt 0.500000 0.500000
vt 0.000000 1.000000
vt 1.000000 1.000000
vt 0.500000 0.500000
vt 0.000000 0.000000
vt 1.000000 0.000000
vt 0.500000 0.500000
vt 0.000000 1.000000
vt 1.000000 1.000000
vt 0.500000 0.500000
vt 0.000000 0.000000
vt 1.000000 0.000000
vt 0.500000 0.500000
vt 0.000000 1.000000
vt 1.000000 1.000000
usemtl Cloth
f 1/1 2/2 3/3
f 1/1 3/3 4/4
f 5/5 6/6 7/7
f 5/5 7/7 8/8
f 9/9 10/10 11/11
f 9/9 11/11 12/12
f 13/13 14/14 15/15
f 13/13 15/15 16/16
f 17/17 18/18 19/19
f 17/17 19/19 20/20
f 21/21 22/22 23/23
f 21/21 23/23 24/24
usemtl Rope
f 25/25 26/26 27/27
f 25/25 27/27 28/28
f 29/29 30/30 31/31
f 29/29 31/31 32/32
f 33/33 34/34 35/35
f 33/33 35/35 36/36
f 37/37 38/38 39/39
f 37/37 39/39 40/40
f 41/41 42/42 43/43
f 41/41 43/43 44/44
f 45/45 46/46 47/47
f 45/45 47/47 48/48
f 49/49 50/50 51/51
f 49/49 51/51 52/52
f 53/53 54/54 55/55
f 53/53 55/55 56/56
f 57/57 58/58 59/59
f 57/57 59/59 60/60
f 61/61 62/62 63/63
f 61/61 63/63 64/64
f 65/65 66/66 67/67
f 65/65 67/67 68/68
f 69/69 70/70 71/71
f 69/69 71/71 72/72
usemtl Cloth
f 73/73 74/74 75/75
f 73/73 75/75 76/76
f 77/77 78/78 79/79
f 77/77 79/79 80/80
f 81/81 82/82 83/83
f 81/81 83/83 84/84
f 85/85 86/86 87/87
f 85/85 87/87 88/88
f 89/89 90/90 91/91
f 89/89 91/91 92/92
f 93/93 94/94 95/95
f 93/93 95/95 96/96
usemtl Fire
f 97/97 98/98 99/99
f 97/97 99/99 100/100
f 101/101 102/102 103/103
f 101/101 103/103 104/104
f 105/105 106/106 107/107
f 105/105 107/107 108/108
f 109/109 110/110 111/111
f 109/109 111/111 112/112
f 113/113 114/114 115/115
f 113/113 115/115 116/116
f 117/117 118/118 119/119
f 117/117 119/119 120/120
f 121/121 122/122 123/123
f 121/121 123/123 124/124
f 125/125 126/126 127/127
f 125/125 127/127 128/128
f 129/129 130/130 131/131
f 129/129 131/131 132/132
f 133/133 134/134 135/135
f 133/133 135/135 136/136
f 137/137 138/138 139/139
f 137/137 139/139 140/140
f 141/141 142/142 143/143
f 141/141 143/143 144/144
usemtl Rope
f 145/145 146/146 147/147
f 145/145 147/147 148/148
f 149/149 150/150 151/151
f 149/149 151/151 152/152
f 153/153 154/154 155/155
f 153/153 155/155 156/156
f 157/157 158/158 159/159
f 157/157 159/159 160/160
f 161/161 162/162 163/163
f 161/161 163/163 164/164
f 165/165 166/166 167/167
f 165/165 167/167 168/168
f 169/169 170/170 171/171
f 169/169 171/171 172/172
f 173/173 174/174 175/175
f 176/176 177/177 178/178
f 179/179 180/180 181/181
f 182/182 183/183 184/184
f 185/185 186/186 187/187
f 188/188 189/189 190/190
f 191/191 192/192 193/193
f 194/194 195/195 196/196
f 197/197 198/198 199/199
f 200/200 201/201 202/202
f 203/203 204/204 205/205
f 206/206 207/207 208/208
f 209/209 210/210 211/211
f 212/212 213/213 214/214
usemtl Cloth
f 215/215 216/216 217/217
f 215/215 217/217 218/218
f 219/219 220/220 221/221
f 219/219 221/221 222/222
f 223/223 224/224 225/225
f 223/223 225/225 226/226
f 227/227 228/228 229/229
f 227/227 229/229 230/230
f 231/231 232/232 233/233
f 231/231 233/233 234/234
f 235/235 236/236 237/237
f 235/235 237/237 238/238
f 239/239 240/240 241/241
f 239/239 241/241 242/242
f 243/243 244/244 245/245
f 243/243 245/245 246/246
f 247/247 248/248 249/249
f 247/247 249/249 250/250
f 251/251 252/252 253/253
f 251/251 253/253 254/254
f 255/255 256/256 257/257
f 255/255 257/257 258/258
f 259/259 260/260 261/261
f 259/259 261/261 262/262
f 263/263 264/264 265/265
f 263/263 265/265 266/266
f 267/267 268/268 269/269
f 267/267 269/269 270/270
f 271/271 272/272 273/273
f 271/271 273/273 274/274
f 275/275 276/276 277/277
f 275/275 277/277 278/278
f 279/279 280/280 281/281
f 279/279 281/281 282/282
f 283/283 284/284 285/285
f 283/283 285/285 286/286
f 287/287 288/288 289/289
f 287/287 289/289 290/290
f 291/291 292/292 293/293
f 291/291 293/293 294/294
f 295/295 296/296 297/297
f 295/295 297/297 298/298
f 299/299 300/300 301/301
f 299/299 301/301 302/302
f 303/303 304/304 305/305
f 303/303 305/305 306/306
f 307/307 308/308 309/309
f 307/307 309/309 310/310
usemtl Metal
f 311/311 312/312 313/313
f 311/311 313/313 314/314
f 315/315 316/316 317/317
f 315/315 317/317 318/318
f 319/319 320/320 321/321
f 319/319 321/321 322/322
f 323/323 324/324 325/325
f 323/323 325/325 326/326
f 327/327 328/328 329/329
f 327/327 329/329 330/330
f 331/331 332/332 333/333
f 331/331 333/333 334/334
f 335/335 336/336 337/337
f 335/335 337/337 338/338
f 339/339 340/340 341/341
f 342/342 343/343 344/344
f 345/345 346/346 347/347
f 348/348 349/349 350/350
f 351/351 352/352 353/353
f 354/354 355/355 356/356
f 357/357 358/358 359/359
f 360/360 361/361 362/362
f 363/363 364/364 365/365
f 366/366 367/367 368/368
f 369/369 370/370 371/371
f 372/372 373/373 374/374
f 375/375 376/376 377/377
f 378/378 379/379 380/380
