mtllib ../../Materials/project_oen.mtl
o pr-011_palm_leaf_pile__medium
v -0.246004 0.058406 0.276706
v 0.185385 0.011790 0.114441
v 0.496652 0.001594 -0.228500
v 0.065263 0.048210 -0.066236
v 0.065263 0.048210 -0.066236
v 0.496652 0.001594 -0.228500
v 0.185385 0.011790 0.114441
v -0.246004 0.058406 0.276706
v 0.409594 0.030355 0.617799
v 0.456054 0.052936 0.157439
v 0.286531 0.045645 -0.273617
v 0.240071 0.023064 0.186743
v 0.240071 0.023064 0.186743
v 0.286531 0.045645 -0.273617
v 0.456054 0.052936 0.157439
v 0.409594 0.030355 0.617799
v 0.019856 0.054604 0.141957
v -0.209730 0.069794 -0.260112
v -0.595425 0.037396 -0.514651
v -0.365839 0.022206 -0.112582
v -0.365839 0.022206 -0.112582
v -0.595425 0.037396 -0.514651
v -0.209730 0.069794 -0.260112
v 0.019856 0.054604 0.141957
v -0.356146 0.032528 0.543569
v -0.060498 0.062285 0.188173
v 0.038378 0.075472 -0.264210
v -0.257270 0.045715 0.091187
v -0.257270 0.045715 0.091187
v 0.038378 0.075472 -0.264210
v -0.060498 0.062285 0.188173
v -0.356146 0.032528 0.543569
v -0.675905 0.054329 0.089528
v -0.213097 0.044765 0.071727
v 0.190098 0.069671 -0.155019
v -0.272710 0.079235 -0.137218
v -0.272710 0.079235 -0.137218
v 0.190098 0.069671 -0.155019
v -0.213097 0.044765 0.071727
v -0.675905 0.054329 0.089528
v 0.080403 0.054268 0.223437
v -0.088512 0.070283 -0.207621
v -0.437336 0.085732 -0.512060
v -0.268421 0.069717 -0.081002
v -0.268421 0.069717 -0.081002
v -0.437336 0.085732 -0.512060
v -0.088512 0.070283 -0.207621
v 0.080403 0.054268 0.223437
v 0.081832 0.063623 0.380519
v 0.350684 0.086810 0.003981
v 0.416162 0.092377 -0.454583
v 0.147310 0.069190 -0.078045
v 0.147310 0.069190 -0.078045
v 0.416162 0.092377 -0.454583
v 0.350684 0.086810 0.003981
v 0.081832 0.063623 0.380519
v 0.201693 0.062362 0.393350
v -0.162363 0.095334 0.108787
v -0.617491 0.109638 0.023617
v -0.253435 0.076666 0.308180
v -0.253435 0.076666 0.308180
v -0.617491 0.109638 0.023617
v -0.162363 0.095334 0.108787
v 0.201693 0.062362 0.393350
v 0.515936 0.117103 -0.002671
v 0.105133 0.116542 -0.216775
v -0.355839 0.070897 -0.221474
v 0.054964 0.071458 -0.007370
v 0.054964 0.071458 -0.007370
v -0.355839 0.070897 -0.221474
v 0.105133 0.116542 -0.216775
v 0.515936 0.117103 -0.002671
v 0.278345 0.099449 0.599297
v 0.298517 0.098494 0.136488
v 0.103021 0.104551 -0.283446
v 0.082849 0.105506 0.179363
v 0.082849 0.105506 0.179363
v 0.103021 0.104551 -0.283446
v 0.298517 0.098494 0.136488
v 0.278345 0.099449 0.599297
vt 0.000000 0.000000
vt 1.000000 0.000000
vt 1.000000 1.000000
vt 0.000000 1.000000
vt 0.000000 0.000000
vt 1.000000 0.000000
vt 1.000000 1.000000
vt 0.000000 1.000000
vt 0.000000 0.000000
vt 1.000000 0.000000
vt 1.000000 1.000000
vt 0.000000 1.000000
vt 0.000000 0.000000
vt 1.000000 0.000000
vt 1.000000 1.000000
vt 0.000000 1.000000
vt 0.000000 0.000000
vt 1.000000 0.000000
vt 1.000000 1.000000
vt 0.000000 1.000000
vt 0.000000 0.000000
vt 1.000000 0.000000
vt 1.000000 1.000000
vt 0.000000 1.000000
vt 0.000000 0.000000
vt 1.000000 0.000000
vt 1.000000 1.000000
vt 0.000000 1.000000
vt 0.000000 0.000000
vt 1.000000 0.000000
vt 1.000000 1.000000
vt 0.000000 1.000000
vt 0.000000 0.000000
vt 1.000000 0.000000
vt 1.000000 1.000000
vt 0.000000 1.000000
vt 0.000000 0.000000
vt 1.000000 0.000000
vt 1.000000 1.000000
vt 0.000000 1.000000
vt 0.000000 0.000000
vt 1.000000 0.000000
vt 1.000000 1.000000
vt 0.000000 1.000000
vt 0.000000 0.000000
vt 1.000000 0.000000
vt 1.000000 1.000000
vt 0.000000 1.000000
vt 0.000000 0.000000
vt 1.000000 0.000000
vt 1.000000 1.000000
vt 0.000000 1.000000
vt 0.000000 0.000000
vt 1.000000 0.000000
vt 1.000000 1.000000
vt 0.000000 1.000000
vt 0.000000 0.000000
vt 1.000000 0.000000
vt 1.000000 1.000000
vt 0.000000 1.000000
vt 0.000000 0.000000
vt 1.000000 0.000000
vt 1.000000 1.000000
vt 0.000000 1.000000
vt 0.000000 0.000000
vt 1.000000 0.000000
vt 1.000000 1.000000
vt 0.000000 1.000000
vt 0.000000 0.000000
vt 1.000000 0.000000
vt 1.000000 1.000000
vt 0.000000 1.000000
vt 0.000000 0.000000
vt 1.000000 0.000000
vt 1.000000 1.000000
vt 0.000000 1.000000
vt 0.000000 0.000000
vt 1.000000 0.000000
vt 1.000000 1.000000
vt 0.000000 1.000000
usemtl Leaf
f 1/1 2/2 3/3
f 1/1 3/3 4/4
f 5/5 6/6 7/7
f 5/5 7/7 8/8
f 9/9 10/10 11/11
f 9/9 11/11 12/12
f 13/13 14/14 15/15
f 13/13 15/15 16/16
f 17/17 18/18 19/19
f 17/17 19/19 20/20
f 21/21 22/22 23/23
f 21/21 23/23 24/24
f 25/25 26/26 27/27
f 25/25 27/27 28/28
f 29/29 30/30 31/31
f 29/29 31/31 32/32
f 33/33 34/34 35/35
f 33/33 35/35 36/36
f 37/37 38/38 39/39
f 37/37 39/39 40/40
f 41/41 42/42 43/43
f 41/41 43/43 44/44
f 45/45 46/46 47/47
f 45/45 47/47 48/48
f 49/49 50/50 51/51
f 49/49 51/51 52/52
f 53/53 54/54 55/55
f 53/53 55/55 56/56
f 57/57 58/58 59/59
f 57/57 59/59 60/60
f 61/61 62/62 63/63
f 61/61 63/63 64/64
f 65/65 66/66 67/67
f 65/65 67/67 68/68
f 69/69 70/70 71/71
f 69/69 71/71 72/72
f 73/73 74/74 75/75
f 73/73 75/75 76/76
f 77/77 78/78 79/79
f 77/77 79/79 80/80
