mtllib ../../Materials/project_oen.mtl
o pr-014_signal_flag_cloth_strip__storm_damaged
v -0.334000 -0.010000 0.000000
v -0.343789 -0.010000 0.020328
v -0.343789 1.110000 0.020328
v -0.334000 1.110000 0.000000
v -0.343789 -0.010000 0.020328
v -0.365786 -0.010000 0.025348
v -0.365786 1.110000 0.025348
v -0.343789 1.110000 0.020328
v -0.365786 -0.010000 0.025348
v -0.383425 -0.010000 0.011281
v -0.383425 1.110000 0.011281
v -0.365786 1.110000 0.025348
v -0.383425 -0.010000 0.011281
v -0.383425 -0.010000 -0.011281
v -0.383425 1.110000 -0.011281
v -0.383425 1.110000 0.011281
v -0.383425 -0.010000 -0.011281
v -0.365786 -0.010000 -0.025348
v -0.365786 1.110000 -0.025348
v -0.383425 1.110000 -0.011281
v -0.365786 -0.010000 -0.025348
v -0.343789 -0.010000 -0.020328
v -0.343789 1.110000 -0.020328
v -0.365786 1.110000 -0.025348
v -0.343789 -0.010000 -0.020328
v -0.334000 -0.010000 0.000000
v -0.334000 1.110000 0.000000
v -0.343789 1.110000 -0.020328
v -0.360000 -0.010000 0.000000
v -0.343789 -0.010000 0.020328
v -0.334000 -0.010000 0.000000
v -0.360000 1.110000 0.000000
v -0.334000 1.110000 0.000000
v -0.343789 1.110000 0.020328
v -0.360000 -0.010000 0.000000
v -0.365786 -0.010000 0.025348
v -0.343789 -0.010000 0.020328
v -0.360000 1.110000 0.000000
v -0.343789 1.110000 0.020328
v -0.365786 1.110000 0.025348
v -0.360000 -0.010000 0.000000
v -0.383425 -0.010000 0.011281
v -0.365786 -0.010000 0.025348
v -0.360000 1.110000 0.000000
v -0.365786 1.110000 0.025348
v -0.383425 1.110000 0.011281
v -0.360000 -0.010000 0.000000
v -0.383425 -0.010000 -0.011281
v -0.383425 -0.010000 0.011281
v -0.360000 1.110000 0.000000
v -0.383425 1.110000 0.011281
v -0.383425 1.110000 -0.011281
v -0.360000 -0.010000 0.000000
v -0.365786 -0.010000 -0.025348
v -0.383425 -0.010000 -0.011281
v -0.360000 1.110000 0.000000
v -0.383425 1.110000 -0.011281
v -0.365786 1.110000 -0.025348
v -0.360000 -0.010000 0.000000
v -0.343789 -0.010000 -0.020328
v -0.365786 -0.010000 -0.025348
v -0.360000 1.110000 0.000000
v -0.365786 1.110000 -0.025348
v -0.343789 1.110000 -0.020328
v -0.360000 -0.010000 0.000000
v -0.334000 -0.010000 0.000000
v -0.343789 -0.010000 -0.020328
v -0.360000 1.110000 0.000000
v -0.343789 1.110000 -0.020328
v -0.334000 1.110000 0.000000
v -0.330000 0.920000 0.000000
v 0.420000 0.840000 0.000000
v 0.120000 0.630000 0.000000
v -0.330000 0.920000 0.000000
v 0.120000 0.630000 0.000000
v -0.330000 0.480000 0.000000
v 0.387628 0.513281 -0.067703
v 0.380023 0.517681 -0.075513
v 0.092195 0.402550 0.139893
v 0.099800 0.398150 0.147703
v 0.380023 0.517681 -0.075513
v 0.377795 0.528831 -0.072530
v 0.089967 0.413700 0.142876
v 0.092195 0.402550 0.139893
v 0.377795 0.528831 -0.072530
v 0.384023 0.531323 -0.062876
v 0.096196 0.416192 0.152530
v 0.089967 0.413700 0.142876
v 0.384023 0.531323 -0.062876
v 0.390100 0.521712 -0.059893
v 0.102273 0.406581 0.155513
v 0.096196 0.416192 0.152530
v 0.390100 0.521712 -0.059893
v 0.387628 0.513281 -0.067703
v 0.099800 0.398150 0.147703
v 0.102273 0.406581 0.155513
v 0.383914 0.522566 -0.067703
v 0.380023 0.517681 -0.075513
v 0.387628 0.513281 -0.067703
v 0.096086 0.407434 0.147703
v 0.099800 0.398150 0.147703
v 0.092195 0.402550 0.139893
v 0.383914 0.522566 -0.067703
v 0.377795 0.528831 -0.072530
v 0.380023 0.517681 -0.075513
v 0.096086 0.407434 0.147703
v 0.092195 0.402550 0.139893
v 0.089967 0.413700 0.142876
v 0.383914 0.522566 -0.067703
v 0.384023 0.531323 -0.062876
v 0.377795 0.528831 -0.072530
v 0.096086 0.407434 0.147703
v 0.089967 0.413700 0.142876
v 0.096196 0.416192 0.152530
v 0.383914 0.522566 -0.067703
v 0.390100 0.521712 -0.059893
v 0.384023 0.531323 -0.062876
v 0.096086 0.407434 0.147703
v 0.096196 0.416192 0.152530
v 0.102273 0.406581 0.155513
v 0.383914 0.522566 -0.067703
v 0.387628 0.513281 -0.067703
v 0.390100 0.521712 -0.059893
v 0.096086 0.407434 0.147703
v 0.102273 0.406581 0.155513
v 0.099800 0.398150 0.147703
v -0.310000 0.880000 -0.000000
v -0.315000 0.880000 -0.008660
v -0.315000 0.430000 -0.008660
v -0.310000 0.430000 0.000000
v -0.315000 0.880000 -0.008660
v -0.325000 0.880000 -0.008660
v -0.325000 0.430000 -0.008660
v -0.315000 0.430000 -0.008660
v -0.325000 0.880000 -0.008660
v -0.330000 0.880000 -0.000000
v -0.330000 0.430000 0.000000
v -0.325000 0.430000 -0.008660
v -0.330000 0.880000 -0.000000
v -0.325000 0.880000 0.008660
v -0.325000 0.430000 0.008660
v -0.330000 0.430000 0.000000
v -0.325000 0.880000 0.008660
v -0.315000 0.880000 0.008660
v -0.315000 0.430000 0.008660
v -0.325000 0.430000 0.008660
v -0.315000 0.880000 0.008660
v -0.310000 0.880000 -0.000000
v -0.310000 0.430000 0.000000
v -0.315000 0.430000 0.008660
v -0.320000 0.880000 -0.000000
v -0.315000 0.880000 -0.008660
v -0.310000 0.880000 -0.000000
v -0.320000 0.430000 0.000000
v -0.310000 0.430000 0.000000
v -0.315000 0.430000 -0.008660
v -0.320000 0.880000 -0.000000
v -0.325000 0.880000 -0.008660
v -0.315000 0.880000 -0.008660
v -0.320000 0.430000 0.000000
v -0.315000 0.430000 -0.008660
v -0.325000 0.430000 -0.008660
v -0.320000 0.880000 -0.000000
v -0.330000 0.880000 -0.000000
v -0.325000 0.880000 -0.008660
v -0.320000 0.430000 0.000000
v -0.325000 0.430000 -0.008660
v -0.330000 0.430000 0.000000
v -0.320000 0.880000 -0.000000
v -0.325000 0.880000 0.008660
v -0.330000 0.880000 -0.000000
v -0.320000 0.430000 0.000000
v -0.330000 0.430000 0.000000
v -0.325000 0.430000 0.008660
v -0.320000 0.880000 -0.000000
v -0.315000 0.880000 0.008660
v -0.325000 0.880000 0.008660
v -0.320000 0.430000 0.000000
v -0.325000 0.430000 0.008660
v -0.315000 0.430000 0.008660
v -0.320000 0.880000 -0.000000
v -0.310000 0.880000 -0.000000
v -0.315000 0.880000 0.008660
v -0.320000 0.430000 0.000000
v -0.315000 0.430000 0.008660
v -0.310000 0.430000 0.000000
vt 0.000000 0.000000
vt 1.000000 0.000000
vt 1.000000 1.000000
vt 0.000000 1.000000
vt 0.000000 0.000000
vt 1.000000 0.000000
vt 1.000000 1.000000
vt 0.000000 1.000000
vt 0.000000 0.000000
vt 1.000000 0.000000
vt 1.000000 1.000000
vt 0.000000 1.000000
vt 0.000000 0.000000
vt 1.000000 0.000000
vt 1.000000 1.000000
vt 0.000000 1.000000
vt 0.000000 0.000000
vt 1.000000 0.000000
vt 1.000000 1.000000
vt 0.000000 1.000000
vt 0.000000 0.000000
vt 1.000000 0.000000
vt 1.000000 1.000000
vt 0.000000 1.000000
vt 0.000000 0.000000
vt 1.000000 0.000000
vt 1.000000 1.000000
vt 0.000000 1.000000
vt 0.500000 0.500000
vt 0.000000 0.000000
vt 1.000000 0.000000
vt 0.500000 0.500000
vt 0.000000 1.000000
vt 1.000000 1.000000
vt 0.500000 0.500000
vt 0.000000 0.000000
vt 1.000000 0.000000
vt 0.500000 0.500000
vt 0.000000 1.000000
vt 1.000000 1.000000
vt 0.500000 0.500000
vt 0.000000 0.000000
vt 1.000000 0.000000
vt 0.500000 0.500000
vt 0.000000 1.000000
vt 1.000000 1.000000
vt 0.500000 0.500000
vt 0.000000 0.000000
vt 1.000000 0.000000
vt 0.500000 0.500000
vt 0.000000 1.000000
vt 1.000000 1.000000
vt 0.500000 0.500000
vt 0.000000 0.000000
vt 1.000000 0.000000
vt 0.500000 0.500000
vt 0.000000 1.000000
vt 1.000000 1.000000
vt 0.500000 0.500000
vt 0.000000 0.000000
vt 1.000000 0.000000
vt 0.500000 0.500000
vt 0.000000 1.000000
vt 1.000000 1.000000
vt 0.500000 0.500000
vt 0.000000 0.000000
vt 1.000000 0.000000
vt 0.500000 0.500000
vt 0.000000 1.000000
vt 1.000000 1.000000
vt 0.000000 0.000000
vt 0.000000 0.000000
vt 0.000000 0.000000
vt 0.000000 0.000000
vt 0.000000 0.000000
vt 0.000000 0.000000
vt 0.000000 0.000000
vt 1.000000 0.000000
vt 1.000000 1.000000
vt 0.000000 1.000000
vt 0.000000 0.000000
vt 1.000000 0.000000
vt 1.000000 1.000000
vt 0.000000 1.000000
vt 0.000000 0.000000
vt 1.000000 0.000000
vt 1.000000 1.000000
vt 0.000000 1.000000
vt 0.000000 0.000000
vt 1.000000 0.000000
vt 1.000000 1.000000
vt 0.000000 1.000000
vt 0.000000 0.000000
vt 1.000000 0.000000
vt 1.000000 1.000000
vt 0.000000 1.000000
vt 0.500000 0.500000
vt 0.000000 0.000000
vt 1.000000 0.000000
vt 0.500000 0.500000
vt 0.000000 1.000000
vt 1.000000 1.000000
vt 0.500000 0.500000
vt 0.000000 0.000000
vt 1.000000 0.000000
vt 0.500000 0.500000
vt 0.000000 1.000000
vt 1.000000 1.000000
vt 0.500000 0.500000
vt 0.000000 0.000000
vt 1.000000 0.000000
vt 0.500000 0.500000
vt 0.000000 1.000000
vt 1.000000 1.000000
vt 0.500000 0.500000
vt 0.000000 0.000000
vt 1.000000 0.000000
vt 0.500000 0.500000
vt 0.000000 1.000000
vt 1.000000 1.000000
vt 0.500000 0.500000
vt 0.000000 0.000000
vt 1.000000 0.000000
vt 0.500000 0.500000
vt 0.000000 1.000000
vt 1.000000 1.000000
vt 0.000000 0.000000
vt 1.000000 0.000000
vt 1.000000 1.000000
vt 0.000000 1.000000
vt 0.000000 0.000000
vt 1.000000 0.000000
vt 1.000000 1.000000
vt 0.000000 1.000000
vt 0.000000 0.000000
vt 1.000000 0.000000
vt 1.000000 1.000000
vt 0.000000 1.000000
vt 0.000000 0.000000
vt 1.000000 0.000000
vt 1.000000 1.000000
vt 0.000000 1.000000
vt 0.000000 0.000000
vt 1.000000 0.000000
vt 1.000000 1.000000
vt 0.000000 1.000000
vt 0.000000 0.000000
vt 1.000000 0.000000
vt 1.000000 1.000000
vt 0.000000 1.000000
vt 0.500000 0.500000
vt 0.000000 0.000000
vt 1.000000 0.000000
vt 0.500000 0.500000
vt 0.000000 1.000000
vt 1.000000 1.000000
vt 0.500000 0.500000
vt 0.000000 0.000000
vt 1.000000 0.000000
vt 0.500000 0.500000
vt 0.000000 1.000000
vt 1.000000 1.000000
vt 0.500000 0.500000
vt 0.000000 0.000000
vt 1.000000 0.000000
vt 0.500000 0.500000
vt 0.000000 1.000000
vt 1.000000 1.000000
vt 0.500000 0.500000
vt 0.000000 0.000000
vt 1.000000 0.000000
vt 0.500000 0.500000
vt 0.000000 1.000000
vt 1.000000 1.000000
vt 0.500000 0.500000
vt 0.000000 0.000000
vt 1.000000 0.000000
vt 0.500000 0.500000
vt 0.000000 1.000000
vt 1.000000 1.000000
vt 0.500000 0.500000
vt 0.000000 0.000000
vt 1.000000 0.000000
vt 0.500000 0.500000
vt 0.000000 1.000000
vt 1.000000 1.000000
usemtl Wood
f 1/1 2/2 3/3
f 1/1 3/3 4/4
f 5/5 6/6 7/7
f 5/5 7/7 8/8
f 9/9 10/10 11/11
f 9/9 11/11 12/12
f 13/13 14/14 15/15
f 13/13 15/15 16/16
f 17/17 18/18 19/19
f 17/17 19/19 20/20
f 21/21 22/22 23/23
f 21/21 23/23 24/24
f 25/25 26/26 27/27
f 25/25 27/27 28/28
f 29/29 30/30 31/31
f 32/32 33/33 34/34
f 35/35 36/36 37/37
f 38/38 39/39 40/40
f 41/41 42/42 43/43
f 44/44 45/45 46/46
f 47/47 48/48 49/49
f 50/50 51/51 52/52
f 53/53 54/54 55/55
f 56/56 57/57 58/58
f 59/59 60/60 61/61
f 62/62 63/63 64/64
f 65/65 66/66 67/67
f 68/68 69/69 70/70
usemtl Cloth
f 71/71 72/72 73/73
f 74/74 75/75 76/76
f 77/77 78/78 79/79
f 77/77 79/79 80/80
f 81/81 82/82 83/83
f 81/81 83/83 84/84
f 85/85 86/86 87/87
f 85/85 87/87 88/88
f 89/89 90/90 91/91
f 89/89 91/91 92/92
f 93/93 94/94 95/95
f 93/93 95/95 96/96
f 97/97 98/98 99/99
f 100/100 101/101 102/102
f 103/103 104/104 105/105
f 106/106 107/107 108/108
f 109/109 110/110 111/111
f 112/112 113/113 114/114
f 115/115 116/116 117/117
f 118/118 119/119 120/120
f 121/121 122/122 123/123
f 124/124 125/125 126/126
usemtl Rope
f 127/127 128/128 129/129
f 127/127 129/129 130/130
f 131/131 132/132 133/133
f 131/131 133/133 134/134
f 135/135 136/136 137/137
f 135/135 137/137 138/138
f 139/139 140/140 141/141
f 139/139 141/141 142/142
f 143/143 144/144 145/145
f 143/143 145/145 146/146
f 147/147 148/148 149/149
f 147/147 149/149 150/150
f 151/151 152/152 153/153
f 154/154 155/155 156/156
f 157/157 158/158 159/159
f 160/160 161/161 162/162
f 163/163 164/164 165/165
f 166/166 167/167 168/168
f 169/169 170/170 171/171
f 172/172 173/173 174/174
f 175/175 176/176 177/177
f 178/178 179/179 180/180
f 181/181 182/182 183/183
f 184/184 185/185 186/186
