mtllib ../../Materials/project_oen.mtl
o pr-014_signal_flag_cloth_strip__clean
v -0.334000 -0.010000 0.000000
v -0.343789 -0.010000 0.020328
v -0.343789 1.110000 0.020328
v -0.334000 1.110000 0.000000
v -0.343789 -0.010000 0.020328
v -0.365786 -0.010000 0.025348
v -0.365786 1.110000 0.025348
v -0.343789 1.110000 0.020328
v -0.365786 -0.010000 0.025348
v -0.383425 -0.010000 0.011281
v -0.383425 1.110000 0.011281
v -0.365786 1.110000 0.025348
v -0.383425 -0.010000 0.011281
v -0.383425 -0.010000 -0.011281
v -0.383425 1.110000 -0.011281
v -0.383425 1.110000 0.011281
v -0.383425 -0.010000 -0.011281
v -0.365786 -0.010000 -0.025348
v -0.365786 1.110000 -0.025348
v -0.383425 1.110000 -0.011281
v -0.365786 -0.010000 -0.025348
v -0.343789 -0.010000 -0.020328
v -0.343789 1.110000 -0.020328
v -0.365786 1.110000 -0.025348
v -0.343789 -0.010000 -0.020328
v -0.334000 -0.010000 0.000000
v -0.334000 1.110000 0.000000
v -0.343789 1.110000 -0.020328
v -0.360000 -0.010000 0.000000
v -0.343789 -0.010000 0.020328
v -0.334000 -0.010000 0.000000
v -0.360000 1.110000 0.000000
v -0.334000 1.110000 0.000000
v -0.343789 1.110000 0.020328
v -0.360000 -0.010000 0.000000
v -0.365786 -0.010000 0.025348
v -0.343789 -0.010000 0.020328
v -0.360000 1.110000 0.000000
v -0.343789 1.110000 0.020328
v -0.365786 1.110000 0.025348
v -0.360000 -0.010000 0.000000
v -0.383425 -0.010000 0.011281
v -0.365786 -0.010000 0.025348
v -0.360000 1.110000 0.000000
v -0.365786 1.110000 0.025348
v -0.383425 1.110000 0.011281
v -0.360000 -0.010000 0.000000
v -0.383425 -0.010000 -0.011281
v -0.383425 -0.010000 0.011281
v -0.360000 1.110000 0.000000
v -0.383425 1.110000 0.011281
v -0.383425 1.110000 -0.011281
v -0.360000 -0.010000 0.000000
v -0.365786 -0.010000 -0.025348
v -0.383425 -0.010000 -0.011281
v -0.360000 1.110000 0.000000
v -0.383425 1.110000 -0.011281
v -0.365786 1.110000 -0.025348
v -0.360000 -0.010000 0.000000
v -0.343789 -0.010000 -0.020328
v -0.365786 -0.010000 -0.025348
v -0.360000 1.110000 0.000000
v -0.365786 1.110000 -0.025348
v -0.343789 1.110000 -0.020328
v -0.360000 -0.010000 0.000000
v -0.334000 -0.010000 0.000000
v -0.343789 -0.010000 -0.020328
v -0.360000 1.110000 0.000000
v -0.343789 1.110000 -0.020328
v -0.334000 1.110000 0.000000
v -0.330000 0.920000 0.000000
v 0.420000 0.840000 0.000000
v 0.380000 0.400000 0.000000
v -0.330000 0.480000 0.000000
v -0.310000 0.880000 -0.000000
v -0.315000 0.880000 -0.008660
v -0.315000 0.430000 -0.008660
v -0.310000 0.430000 0.000000
v -0.315000 0.880000 -0.008660
v -0.325000 0.880000 -0.008660
v -0.325000 0.430000 -0.008660
v -0.315000 0.430000 -0.008660
v -0.325000 0.880000 -0.008660
v -0.330000 0.880000 -0.000000
v -0.330000 0.430000 0.000000
v -0.325000 0.430000 -0.008660
v -0.330000 0.880000 -0.000000
v -0.325000 0.880000 0.008660
v -0.325000 0.430000 0.008660
v -0.330000 0.430000 0.000000
v -0.325000 0.880000 0.008660
v -0.315000 0.880000 0.008660
v -0.315000 0.430000 0.008660
v -0.325000 0.430000 0.008660
v -0.315000 0.880000 0.008660
v -0.310000 0.880000 -0.000000
v -0.310000 0.430000 0.000000
v -0.315000 0.430000 0.008660
v -0.320000 0.880000 -0.000000
v -0.315000 0.880000 -0.008660
v -0.310000 0.880000 -0.000000
v -0.320000 0.430000 0.000000
v -0.310000 0.430000 0.000000
v -0.315000 0.430000 -0.008660
v -0.320000 0.880000 -0.000000
v -0.325000 0.880000 -0.008660
v -0.315000 0.880000 -0.008660
v -0.320000 0.430000 0.000000
v -0.315000 0.430000 -0.008660
v -0.325000 0.430000 -0.008660
v -0.320000 0.880000 -0.000000
v -0.330000 0.880000 -0.000000
v -0.325000 0.880000 -0.008660
v -0.320000 0.430000 0.000000
v -0.325000 0.430000 -0.008660
v -0.330000 0.430000 0.000000
v -0.320000 0.880000 -0.000000
v -0.325000 0.880000 0.008660
v -0.330000 0.880000 -0.000000
v -0.320000 0.430000 0.000000
v -0.330000 0.430000 0.000000
v -0.325000 0.430000 0.008660
v -0.320000 0.880000 -0.000000
v -0.315000 0.880000 0.008660
v -0.325000 0.880000 0.008660
v -0.320000 0.430000 0.000000
v -0.325000 0.430000 0.008660
v -0.315000 0.430000 0.008660
v -0.320000 0.880000 -0.000000
v -0.310000 0.880000 -0.000000
v -0.315000 0.880000 0.008660
v -0.320000 0.430000 0.000000
v -0.315000 0.430000 0.008660
v -0.310000 0.430000 0.000000
vt 0.000000 0.000000
vt 1.000000 0.000000
vt 1.000000 1.000000
vt 0.000000 1.000000
vt 0.000000 0.000000
vt 1.000000 0.000000
vt 1.000000 1.000000
vt 0.000000 1.000000
vt 0.000000 0.000000
vt 1.000000 0.000000
vt 1.000000 1.000000
vt 0.000000 1.000000
vt 0.000000 0.000000
vt 1.000000 0.000000
vt 1.000000 1.000000
vt 0.000000 1.000000
vt 0.000000 0.000000
vt 1.000000 0.000000
vt 1.000000 1.000000
vt 0.000000 1.000000
vt 0.000000 0.000000
vt 1.000000 0.000000
vt 1.000000 1.000000
vt 0.000000 1.000000
vt 0.000000 0.000000
vt 1.000000 0.000000
vt 1.000000 1.000000
vt 0.000000 1.000000
vt 0.500000 0.500000
vt 0.000000 0.000000
vt 1.000000 0.000000
vt 0.500000 0.500000
vt 0.000000 1.000000
vt 1.000000 1.000000
vt 0.500000 0.500000
vt 0.000000 0.000000
vt 1.000000 0.000000
vt 0.500000 0.500000
vt 0.000000 1.000000
vt 1.000000 1.000000
vt 0.500000 0.500000
vt 0.000000 0.000000
vt 1.000000 0.000000
vt 0.500000 0.500000
vt 0.000000 1.000000
vt 1.000000 1.000000
vt 0.500000 0.500000
vt 0.000000 0.000000
vt 1.000000 0.000000
vt 0.500000 0.500000
vt 0.000000 1.000000
vt 1.000000 1.000000
vt 0.500000 0.500000
vt 0.000000 0.000000
vt 1.000000 0.000000
vt 0.500000 0.500000
vt 0.000000 1.000000
vt 1.000000 1.000000
vt 0.500000 0.500000
vt 0.000000 0.000000
vt 1.000000 0.000000
vt 0.500000 0.500000
vt 0.000000 1.000000
vt 1.000000 1.000000
vt 0.500000 0.500000
vt 0.000000 0.000000
vt 1.000000 0.000000
vt 0.500000 0.500000
vt 0.000000 1.000000
vt 1.000000 1.000000
vt 0.000000 0.000000
vt 1.000000 0.000000
vt 1.000000 1.000000
vt 0.000000 1.000000
vt 0.000000 0.000000
vt 1.000000 0.000000
vt 1.000000 1.000000
vt 0.000000 1.000000
vt 0.000000 0.000000
vt 1.000000 0.000000
vt 1.000000 1.000000
vt 0.000000 1.000000
vt 0.000000 0.000000
vt 1.000000 0.000000
vt 1.000000 1.000000
vt 0.000000 1.000000
vt 0.000000 0.000000
vt 1.000000 0.000000
vt 1.000000 1.000000
vt 0.000000 1.000000
vt 0.000000 0.000000
vt 1.000000 0.000000
vt 1.000000 1.000000
vt 0.000000 1.000000
vt 0.000000 0.000000
vt 1.000000 0.000000
vt 1.000000 1.000000
vt 0.000000 1.000000
vt 0.500000 0.500000
vt 0.000000 0.000000
vt 1.000000 0.000000
vt 0.500000 0.500000
vt 0.000000 1.000000
vt 1.000000 1.000000
vt 0.500000 0.500000
vt 0.000000 0.000000
vt 1.000000 0.000000
vt 0.500000 0.500000
vt 0.000000 1.000000
vt 1.000000 1.000000
vt 0.500000 0.500000
vt 0.000000 0.000000
vt 1.000000 0.000000
vt 0.500000 0.500000
vt 0.000000 1.000000
vt 1.000000 1.000000
vt 0.500000 0.500000
vt 0.000000 0.000000
vt 1.000000 0.000000
vt 0.500000 0.500000
vt 0.000000 1.000000
vt 1.000000 1.000000
vt 0.500000 0.500000
vt 0.000000 0.000000
vt 1.000000 0.000000
vt 0.500000 0.500000
vt 0.000000 1.000000
vt 1.000000 1.000000
vt 0.500000 0.500000
vt 0.000000 0.000000
vt 1.000000 0.000000
vt 0.500000 0.500000
vt 0.000000 1.000000
vt 1.000000 1.000000
usemtl Wood
f 1/1 2/2 3/3
f 1/1 3/3 4/4
f 5/5 6/6 7/7
f 5/5 7/7 8/8
f 9/9 10/10 11/11
f 9/9 11/11 12/12
f 13/13 14/14 15/15
f 13/13 15/15 16/16
f 17/17 18/18 19/19
f 17/17 19/19 20/20
f 21/21 22/22 23/23
f 21/21 23/23 24/24
f 25/25 26/26 27/27
f 25/25 27/27 28/28
f 29/29 30/30 31/31
f 32/32 33/33 34/34
f 35/35 36/36 37/37
f 38/38 39/39 40/40
f 41/41 42/42 43/43
f 44/44 45/45 46/46
f 47/47 48/48 49/49
f 50/50 51/51 52/52
f 53/53 54/54 55/55
f 56/56 57/57 58/58
f 59/59 60/60 61/61
f 62/62 63/63 64/64
f 65/65 66/66 67/67
f 68/68 69/69 70/70
usemtl Cloth
f 71/71 72/72 73/73
f 71/71 73/73 74/74
usemtl Rope
f 75/75 76/76 77/77
f 75/75 77/77 78/78
f 79/79 80/80 81/81
f 79/79 81/81 82/82
f 83/83 84/84 85/85
f 83/83 85/85 86/86
f 87/87 88/88 89/89
f 87/87 89/89 90/90
f 91/91 92/92 93/93
f 91/91 93/93 94/94
f 95/95 96/96 97/97
f 95/95 97/97 98/98
f 99/99 100/100 101/101
f 102/102 103/103 104/104
f 105/105 106/106 107/107
f 108/108 109/109 110/110
f 111/111 112/112 113/113
f 114/114 115/115 116/116
f 117/117 118/118 119/119
f 120/120 121/121 122/122
f 123/123 124/124 125/125
f 126/126 127/127 128/128
f 129/129 130/130 131/131
f 132/132 133/133 134/134
