mtllib ../../../Materials/project_oen.mtl
o ax-com-001_handheld_radio__off
v -0.058128 0.010899 -0.029064
v 0.058128 0.010899 -0.029064
v 0.058128 0.207081 -0.029064
v -0.058128 0.207081 -0.029064
v 0.058128 0.010899 0.029064
v -0.058128 0.010899 0.029064
v -0.058128 0.207081 0.029064
v 0.058128 0.207081 0.029064
v -0.058128 0.010899 0.029064
v -0.058128 0.010899 -0.029064
v -0.058128 0.207081 -0.029064
v -0.058128 0.207081 0.029064
v 0.058128 0.010899 -0.029064
v 0.058128 0.010899 0.029064
v 0.058128 0.207081 0.029064
v 0.058128 0.207081 -0.029064
v -0.058128 0.207081 -0.029064
v 0.058128 0.207081 -0.029064
v 0.058128 0.207081 0.029064
v -0.058128 0.207081 0.029064
v -0.058128 0.010899 0.029064
v 0.058128 0.010899 0.029064
v 0.058128 0.010899 -0.029064
v -0.058128 0.010899 -0.029064
v -0.049045 0.039963 -0.037238
v 0.049045 0.039963 -0.037238
v 0.049045 0.185283 -0.037238
v -0.049045 0.185283 -0.037238
v 0.049045 0.039963 -0.028156
v -0.049045 0.039963 -0.028156
v -0.049045 0.185283 -0.028156
v 0.049045 0.185283 -0.028156
v -0.049045 0.039963 -0.028156
v -0.049045 0.039963 -0.037238
v -0.049045 0.185283 -0.037238
v -0.049045 0.185283 -0.028156
v 0.049045 0.039963 -0.037238
v 0.049045 0.039963 -0.028156
v 0.049045 0.185283 -0.028156
v 0.049045 0.185283 -0.037238
v -0.049045 0.185283 -0.037238
v 0.049045 0.185283 -0.037238
v 0.049045 0.185283 -0.028156
v -0.049045 0.185283 -0.028156
v -0.049045 0.039963 -0.028156
v 0.049045 0.039963 -0.028156
v 0.049045 0.039963 -0.037238
v -0.049045 0.039963 -0.037238
v -0.038146 0.127155 -0.041416
v 0.038146 0.127155 -0.041416
v 0.038146 0.163485 -0.041416
v -0.038146 0.163485 -0.041416
v 0.038146 0.127155 -0.037057
v -0.038146 0.127155 -0.037057
v -0.038146 0.163485 -0.037057
v 0.038146 0.163485 -0.037057
v -0.038146 0.127155 -0.037057
v -0.038146 0.127155 -0.041416
v -0.038146 0.163485 -0.041416
v -0.038146 0.163485 -0.037057
v 0.038146 0.127155 -0.041416
v 0.038146 0.127155 -0.037057
v 0.038146 0.163485 -0.037057
v 0.038146 0.163485 -0.041416
v -0.038146 0.163485 -0.041416
v 0.038146 0.163485 -0.041416
v 0.038146 0.163485 -0.037057
v -0.038146 0.163485 -0.037057
v -0.038146 0.127155 -0.037057
v 0.038146 0.127155 -0.037057
v 0.038146 0.127155 -0.041416
v -0.038146 0.127155 -0.041416
v 0.004723 0.087192 -0.040690
v 0.002097 0.098699 -0.040690
v -0.000522 0.097438 -0.037783
v 0.001816 0.087192 -0.037783
v 0.001816 0.087192 -0.037783
v -0.000522 0.097438 -0.037783
v -0.003141 0.096177 -0.040690
v -0.001090 0.087192 -0.040690
v -0.001090 0.087192 -0.040690
v -0.003141 0.096177 -0.040690
v -0.000522 0.097438 -0.043596
v 0.001816 0.087192 -0.043596
v 0.001816 0.087192 -0.043596
v -0.000522 0.097438 -0.043596
v 0.002097 0.098699 -0.040690
v 0.004723 0.087192 -0.040690
v 0.002097 0.098699 -0.040690
v -0.005262 0.107927 -0.040690
v -0.007075 0.105654 -0.037783
v -0.000522 0.097438 -0.037783
v -0.000522 0.097438 -0.037783
v -0.007075 0.105654 -0.037783
v -0.008887 0.103382 -0.040690
v -0.003141 0.096177 -0.040690
v -0.003141 0.096177 -0.040690
v -0.008887 0.103382 -0.040690
v -0.007075 0.105654 -0.043596
v -0.000522 0.097438 -0.043596
v -0.000522 0.097438 -0.043596
v -0.007075 0.105654 -0.043596
v -0.005262 0.107927 -0.040690
v 0.002097 0.098699 -0.040690
v -0.005262 0.107927 -0.040690
v -0.015897 0.113048 -0.040690
v -0.016543 0.110214 -0.037783
v -0.007075 0.105654 -0.037783
v -0.007075 0.105654 -0.037783
v -0.016543 0.110214 -0.037783
v -0.017190 0.107381 -0.040690
v -0.008887 0.103382 -0.040690
v -0.008887 0.103382 -0.040690
v -0.017190 0.107381 -0.040690
v -0.016543 0.110214 -0.043596
v -0.007075 0.105654 -0.043596
v -0.007075 0.105654 -0.043596
v -0.016543 0.110214 -0.043596
v -0.015897 0.113048 -0.040690
v -0.005262 0.107927 -0.040690
v -0.015897 0.113048 -0.040690
v -0.027699 0.113048 -0.040690
v -0.027053 0.110214 -0.037783
v -0.016543 0.110214 -0.037783
v -0.016543 0.110214 -0.037783
v -0.027053 0.110214 -0.037783
v -0.026406 0.107381 -0.040690
v -0.017190 0.107381 -0.040690
v -0.017190 0.107381 -0.040690
v -0.026406 0.107381 -0.040690
v -0.027053 0.110214 -0.043596
v -0.016543 0.110214 -0.043596
v -0.016543 0.110214 -0.043596
v -0.027053 0.110214 -0.043596
v -0.027699 0.113048 -0.040690
v -0.015897 0.113048 -0.040690
v -0.027699 0.113048 -0.040690
v -0.038334 0.107927 -0.040690
v -0.036521 0.105654 -0.037783
v -0.027053 0.110214 -0.037783
v -0.027053 0.110214 -0.037783
v -0.036521 0.105654 -0.037783
v -0.034709 0.103382 -0.040690
v -0.026406 0.107381 -0.040690
v -0.026406 0.107381 -0.040690
v -0.034709 0.103382 -0.040690
v -0.036521 0.105654 -0.043596
v -0.027053 0.110214 -0.043596
v -0.027053 0.110214 -0.043596
v -0.036521 0.105654 -0.043596
v -0.038334 0.107927 -0.040690
v -0.027699 0.113048 -0.040690
v -0.038334 0.107927 -0.040690
v -0.045693 0.098699 -0.040690
v -0.043074 0.097438 -0.037783
v -0.036521 0.105654 -0.037783
v -0.036521 0.105654 -0.037783
v -0.043074 0.097438 -0.037783
v -0.040455 0.096177 -0.040690
v -0.034709 0.103382 -0.040690
v -0.034709 0.103382 -0.040690
v -0.040455 0.096177 -0.040690
v -0.043074 0.097438 -0.043596
v -0.036521 0.105654 -0.043596
v -0.036521 0.105654 -0.043596
v -0.043074 0.097438 -0.043596
v -0.045693 0.098699 -0.040690
v -0.038334 0.107927 -0.040690
v -0.045693 0.098699 -0.040690
v -0.048319 0.087192 -0.040690
v -0.045412 0.087192 -0.037783
v -0.043074 0.097438 -0.037783
v -0.043074 0.097438 -0.037783
v -0.045412 0.087192 -0.037783
v -0.042506 0.087192 -0.040690
v -0.040455 0.096177 -0.040690
v -0.040455 0.096177 -0.040690
v -0.042506 0.087192 -0.040690
v -0.045412 0.087192 -0.043596
v -0.043074 0.097438 -0.043596
v -0.043074 0.097438 -0.043596
v -0.045412 0.087192 -0.043596
v -0.048319 0.087192 -0.040690
v -0.045693 0.098699 -0.040690
v -0.048319 0.087192 -0.040690
v -0.045693 0.075685 -0.040690
v -0.043074 0.076946 -0.037783
v -0.045412 0.087192 -0.037783
v -0.045412 0.087192 -0.037783
v -0.043074 0.076946 -0.037783
v -0.040455 0.078207 -0.040690
v -0.042506 0.087192 -0.040690
v -0.042506 0.087192 -0.040690
v -0.040455 0.078207 -0.040690
v -0.043074 0.076946 -0.043596
v -0.045412 0.087192 -0.043596
v -0.045412 0.087192 -0.043596
v -0.043074 0.076946 -0.043596
v -0.045693 0.075685 -0.040690
v -0.048319 0.087192 -0.040690
v -0.045693 0.075685 -0.040690
v -0.038334 0.066457 -0.040690
v -0.036521 0.068729 -0.037783
v -0.043074 0.076946 -0.037783
v -0.043074 0.076946 -0.037783
v -0.036521 0.068729 -0.037783
v -0.034709 0.071002 -0.040690
v -0.040455 0.078207 -0.040690
v -0.040455 0.078207 -0.040690
v -0.034709 0.071002 -0.040690
v -0.036521 0.068729 -0.043596
v -0.043074 0.076946 -0.043596
v -0.043074 0.076946 -0.043596
v -0.036521 0.068729 -0.043596
v -0.038334 0.066457 -0.040690
v -0.045693 0.075685 -0.040690
v -0.038334 0.066457 -0.040690
v -0.027699 0.061336 -0.040690
v -0.027053 0.064170 -0.037783
v -0.036521 0.068729 -0.037783
v -0.036521 0.068729 -0.037783
v -0.027053 0.064170 -0.037783
v -0.026406 0.067003 -0.040690
v -0.034709 0.071002 -0.040690
v -0.034709 0.071002 -0.040690
v -0.026406 0.067003 -0.040690
v -0.027053 0.064170 -0.043596
v -0.036521 0.068729 -0.043596
v -0.036521 0.068729 -0.043596
v -0.027053 0.064170 -0.043596
v -0.027699 0.061336 -0.040690
v -0.038334 0.066457 -0.040690
v -0.027699 0.061336 -0.040690
v -0.015897 0.061336 -0.040690
v -0.016543 0.064170 -0.037783
v -0.027053 0.064170 -0.037783
v -0.027053 0.064170 -0.037783
v -0.016543 0.064170 -0.037783
v -0.017190 0.067003 -0.040690
v -0.026406 0.067003 -0.040690
v -0.026406 0.067003 -0.040690
v -0.017190 0.067003 -0.040690
v -0.016543 0.064170 -0.043596
v -0.027053 0.064170 -0.043596
v -0.027053 0.064170 -0.043596
v -0.016543 0.064170 -0.043596
v -0.015897 0.061336 -0.040690
v -0.027699 0.061336 -0.040690
v -0.015897 0.061336 -0.040690
v -0.005262 0.066457 -0.040690
v -0.007075 0.068729 -0.037783
v -0.016543 0.064170 -0.037783
v -0.016543 0.064170 -0.037783
v -0.007075 0.068729 -0.037783
v -0.008887 0.071002 -0.040690
v -0.017190 0.067003 -0.040690
v -0.017190 0.067003 -0.040690
v -0.008887 0.071002 -0.040690
v -0.007075 0.068729 -0.043596
v -0.016543 0.064170 -0.043596
v -0.016543 0.064170 -0.043596
v -0.007075 0.068729 -0.043596
v -0.005262 0.066457 -0.040690
v -0.015897 0.061336 -0.040690
v -0.005262 0.066457 -0.040690
v 0.002097 0.075685 -0.040690
v -0.000522 0.076946 -0.037783
v -0.007075 0.068729 -0.037783
v -0.007075 0.068729 -0.037783
v -0.000522 0.076946 -0.037783
v -0.003141 0.078207 -0.040690
v -0.008887 0.071002 -0.040690
v -0.008887 0.071002 -0.040690
v -0.003141 0.078207 -0.040690
v -0.000522 0.076946 -0.043596
v -0.007075 0.068729 -0.043596
v -0.007075 0.068729 -0.043596
v -0.000522 0.076946 -0.043596
v 0.002097 0.075685 -0.040690
v -0.005262 0.066457 -0.040690
v 0.002097 0.075685 -0.040690
v 0.004723 0.087192 -0.040690
v 0.001816 0.087192 -0.037783
v -0.000522 0.076946 -0.037783
v -0.000522 0.076946 -0.037783
v 0.001816 0.087192 -0.037783
v -0.001090 0.087192 -0.040690
v -0.003141 0.078207 -0.040690
v -0.003141 0.078207 -0.040690
v -0.001090 0.087192 -0.040690
v 0.001816 0.087192 -0.043596
v -0.000522 0.076946 -0.043596
v -0.000522 0.076946 -0.043596
v 0.001816 0.087192 -0.043596
v 0.004723 0.087192 -0.040690
v 0.002097 0.075685 -0.040690
v 0.036330 0.196182 0.004360
v 0.039732 0.195969 0.002718
v 0.050631 0.370353 0.002718
v 0.047229 0.370566 0.004360
v 0.039732 0.195969 0.002718
v 0.040572 0.195917 -0.000970
v 0.051471 0.370301 -0.000970
v 0.050631 0.370353 0.002718
v 0.040572 0.195917 -0.000970
v 0.038218 0.196064 -0.003928
v 0.049117 0.370448 -0.003928
v 0.051471 0.370301 -0.000970
v 0.038218 0.196064 -0.003928
v 0.034442 0.196300 -0.003928
v 0.045341 0.370684 -0.003928
v 0.049117 0.370448 -0.003928
v 0.034442 0.196300 -0.003928
v 0.032088 0.196447 -0.000970
v 0.042987 0.370831 -0.000970
v 0.045341 0.370684 -0.003928
v 0.032088 0.196447 -0.000970
v 0.032928 0.196394 0.002718
v 0.043827 0.370778 0.002718
v 0.042987 0.370831 -0.000970
v 0.032928 0.196394 0.002718
v 0.036330 0.196182 0.004360
v 0.047229 0.370566 0.004360
v 0.043827 0.370778 0.002718
v 0.036330 0.196182 0.000000
v 0.036330 0.196182 0.004360
v 0.039732 0.195969 0.002718
v 0.039732 0.195969 0.002718
v 0.040572 0.195917 -0.000970
v 0.040572 0.195917 -0.000970
v 0.038218 0.196064 -0.003928
v 0.038218 0.196064 -0.003928
v 0.034442 0.196300 -0.003928
v 0.034442 0.196300 -0.003928
v 0.032088 0.196447 -0.000970
v 0.032088 0.196447 -0.000970
v 0.032928 0.196394 0.002718
v 0.032928 0.196394 0.002718
v 0.036330 0.196182 0.004360
v 0.047229 0.370566 0.000000
v 0.047229 0.370566 0.004360
v 0.050631 0.370353 0.002718
v 0.050631 0.370353 0.002718
v 0.051471 0.370301 -0.000970
v 0.051471 0.370301 -0.000970
v 0.049117 0.370448 -0.003928
v 0.049117 0.370448 -0.003928
v 0.045341 0.370684 -0.003928
v 0.045341 0.370684 -0.003928
v 0.042987 0.370831 -0.000970
v 0.042987 0.370831 -0.000970
v 0.043827 0.370778 0.002718
v 0.043827 0.370778 0.002718
v 0.047229 0.370566 0.004360
v -0.036330 0.210714 0.005449
v -0.028856 0.210714 0.003021
v -0.028856 0.239778 0.003021
v -0.036330 0.239778 0.005449
v -0.028856 0.210714 0.003021
v -0.024237 0.210714 -0.003337
v -0.024237 0.239778 -0.003337
v -0.028856 0.239778 0.003021
v -0.024237 0.210714 -0.003337
v -0.024237 0.210714 -0.011195
v -0.024237 0.239778 -0.011195
v -0.024237 0.239778 -0.003337
v -0.024237 0.210714 -0.011195
v -0.028856 0.210714 -0.017553
v -0.028856 0.239778 -0.017553
v -0.024237 0.239778 -0.011195
v -0.028856 0.210714 -0.017553
v -0.036330 0.210714 -0.019981
v -0.036330 0.239778 -0.019981
v -0.028856 0.239778 -0.017553
v -0.036330 0.210714 -0.019981
v -0.043804 0.210714 -0.017553
v -0.043804 0.239778 -0.017553
v -0.036330 0.239778 -0.019981
v -0.043804 0.210714 -0.017553
v -0.048423 0.210714 -0.011195
v -0.048423 0.239778 -0.011195
v -0.043804 0.239778 -0.017553
v -0.048423 0.210714 -0.011195
v -0.048423 0.210714 -0.003337
v -0.048423 0.239778 -0.003337
v -0.048423 0.239778 -0.011195
v -0.048423 0.210714 -0.003337
v -0.043804 0.210714 0.003021
v -0.043804 0.239778 0.003021
v -0.048423 0.239778 -0.003337
v -0.043804 0.210714 0.003021
v -0.036330 0.210714 0.005449
v -0.036330 0.239778 0.005449
v -0.043804 0.239778 0.003021
v -0.036330 0.210714 -0.007266
v -0.036330 0.210714 0.005449
v -0.028856 0.210714 0.003021
v -0.028856 0.210714 0.003021
v -0.024237 0.210714 -0.003337
v -0.024237 0.210714 -0.003337
v -0.024237 0.210714 -0.011195
v -0.024237 0.210714 -0.011195
v -0.028856 0.210714 -0.017553
v -0.028856 0.210714 -0.017553
v -0.036330 0.210714 -0.019981
v -0.036330 0.210714 -0.019981
v -0.043804 0.210714 -0.017553
v -0.043804 0.210714 -0.017553
v -0.048423 0.210714 -0.011195
v -0.048423 0.210714 -0.011195
v -0.048423 0.210714 -0.003337
v -0.048423 0.210714 -0.003337
v -0.043804 0.210714 0.003021
v -0.043804 0.210714 0.003021
v -0.036330 0.210714 0.005449
v -0.036330 0.239778 -0.007266
v -0.036330 0.239778 0.005449
v -0.028856 0.239778 0.003021
v -0.028856 0.239778 0.003021
v -0.024237 0.239778 -0.003337
v -0.024237 0.239778 -0.003337
v -0.024237 0.239778 -0.011195
v -0.024237 0.239778 -0.011195
v -0.028856 0.239778 -0.017553
v -0.028856 0.239778 -0.017553
v -0.036330 0.239778 -0.019981
v -0.036330 0.239778 -0.019981
v -0.043804 0.239778 -0.017553
v -0.043804 0.239778 -0.017553
v -0.048423 0.239778 -0.011195
v -0.048423 0.239778 -0.011195
v -0.048423 0.239778 -0.003337
v -0.048423 0.239778 -0.003337
v -0.043804 0.239778 0.003021
v -0.043804 0.239778 0.003021
v -0.036330 0.239778 0.005449
vt 0.000000 0.000000
vt 1.000000 0.000000
vt 1.000000 1.000000
vt 0.000000 1.000000
vt 0.000000 0.000000
vt 1.000000 0.000000
vt 1.000000 1.000000
vt 0.000000 1.000000
vt 0.000000 0.000000
vt 1.000000 0.000000
vt 1.000000 1.000000
vt 0.000000 1.000000
vt 0.000000 0.000000
vt 1.000000 0.000000
vt 1.000000 1.000000
vt 0.000000 1.000000
vt 0.000000 0.000000
vt 1.000000 0.000000
vt 1.000000 1.000000
vt 0.000000 1.000000
vt 0.000000 0.000000
vt 1.000000 0.000000
vt 1.000000 1.000000
vt 0.000000 1.000000
vt 0.000000 0.000000
vt 1.000000 0.000000
vt 1.000000 1.000000
vt 0.000000 1.000000
vt 0.000000 0.000000
vt 1.000000 0.000000
vt 1.000000 1.000000
vt 0.000000 1.000000
vt 0.000000 0.000000
vt 1.000000 0.000000
vt 1.000000 1.000000
vt 0.000000 1.000000
vt 0.000000 0.000000
vt 1.000000 0.000000
vt 1.000000 1.000000
vt 0.000000 1.000000
vt 0.000000 0.000000
vt 1.000000 0.000000
vt 1.000000 1.000000
vt 0.000000 1.000000
vt 0.000000 0.000000
vt 1.000000 0.000000
vt 1.000000 1.000000
vt 0.000000 1.000000
vt 0.000000 0.000000
vt 1.000000 0.000000
vt 1.000000 1.000000
vt 0.000000 1.000000
vt 0.000000 0.000000
vt 1.000000 0.000000
vt 1.000000 1.000000
vt 0.000000 1.000000
vt 0.000000 0.000000
vt 1.000000 0.000000
vt 1.000000 1.000000
vt 0.000000 1.000000
vt 0.000000 0.000000
vt 1.000000 0.000000
vt 1.000000 1.000000
vt 0.000000 1.000000
vt 0.000000 0.000000
vt 1.000000 0.000000
vt 1.000000 1.000000
vt 0.000000 1.000000
vt 0.000000 0.000000
vt 1.000000 0.000000
vt 1.000000 1.000000
vt 0.000000 1.000000
vt 0.000000 0.000000
vt 1.000000 0.000000
vt 1.000000 1.000000
vt 0.000000 1.000000
vt 0.000000 0.000000
vt 1.000000 0.000000
vt 1.000000 1.000000
vt 0.000000 1.000000
vt 0.000000 0.000000
vt 1.000000 0.000000
vt 1.000000 1.000000
vt 0.000000 1.000000
vt 0.000000 0.000000
vt 1.000000 0.000000
vt 1.000000 1.000000
vt 0.000000 1.000000
vt 0.000000 0.000000
vt 1.000000 0.000000
vt 1.000000 1.000000
vt 0.000000 1.000000
vt 0.000000 0.000000
vt 1.000000 0.000000
vt 1.000000 1.000000
vt 0.000000 1.000000
vt 0.000000 0.000000
vt 1.000000 0.000000
vt 1.000000 1.000000
vt 0.000000 1.000000
vt 0.000000 0.000000
vt 1.000000 0.000000
vt 1.000000 1.000000
vt 0.000000 1.000000
vt 0.000000 0.000000
vt 1.000000 0.000000
vt 1.000000 1.000000
vt 0.000000 1.000000
vt 0.000000 0.000000
vt 1.000000 0.000000
vt 1.000000 1.000000
vt 0.000000 1.000000
vt 0.000000 0.000000
vt 1.000000 0.000000
vt 1.000000 1.000000
vt 0.000000 1.000000
vt 0.000000 0.000000
vt 1.000000 0.000000
vt 1.000000 1.000000
vt 0.000000 1.000000
vt 0.000000 0.000000
vt 1.000000 0.000000
vt 1.000000 1.000000
vt 0.000000 1.000000
vt 0.000000 0.000000
vt 1.000000 0.000000
vt 1.000000 1.000000
vt 0.000000 1.000000
vt 0.000000 0.000000
vt 1.000000 0.000000
vt 1.000000 1.000000
vt 0.000000 1.000000
vt 0.000000 0.000000
vt 1.000000 0.000000
vt 1.000000 1.000000
vt 0.000000 1.000000
vt 0.000000 0.000000
vt 1.000000 0.000000
vt 1.000000 1.000000
vt 0.000000 1.000000
vt 0.000000 0.000000
vt 1.000000 0.000000
vt 1.000000 1.000000
vt 0.000000 1.000000
vt 0.000000 0.000000
vt 1.000000 0.000000
vt 1.000000 1.000000
vt 0.000000 1.000000
vt 0.000000 0.000000
vt 1.000000 0.000000
vt 1.000000 1.000000
vt 0.000000 1.000000
vt 0.000000 0.000000
vt 1.000000 0.000000
vt 1.000000 1.000000
vt 0.000000 1.000000
vt 0.000000 0.000000
vt 1.000000 0.000000
vt 1.000000 1.000000
vt 0.000000 1.000000
vt 0.000000 0.000000
vt 1.000000 0.000000
vt 1.000000 1.000000
vt 0.000000 1.000000
vt 0.000000 0.000000
vt 1.000000 0.000000
vt 1.000000 1.000000
vt 0.000000 1.000000
vt 0.000000 0.000000
vt 1.000000 0.000000
vt 1.000000 1.000000
vt 0.000000 1.000000
vt 0.000000 0.000000
vt 1.000000 0.000000
vt 1.000000 1.000000
vt 0.000000 1.000000
vt 0.000000 0.000000
vt 1.000000 0.000000
vt 1.000000 1.000000
vt 0.000000 1.000000
vt 0.000000 0.000000
vt 1.000000 0.000000
vt 1.000000 1.000000
vt 0.000000 1.000000
vt 0.000000 0.000000
vt 1.000000 0.000000
vt 1.000000 1.000000
vt 0.000000 1.000000
vt 0.000000 0.000000
vt 1.000000 0.000000
vt 1.000000 1.000000
vt 0.000000 1.000000
vt 0.000000 0.000000
vt 1.000000 0.000000
vt 1.000000 1.000000
vt 0.000000 1.000000
vt 0.000000 0.000000
vt 1.000000 0.000000
vt 1.000000 1.000000
vt 0.000000 1.000000
vt 0.000000 0.000000
vt 1.000000 0.000000
vt 1.000000 1.000000
vt 0.000000 1.000000
vt 0.000000 0.000000
vt 1.000000 0.000000
vt 1.000000 1.000000
vt 0.000000 1.000000
vt 0.000000 0.000000
vt 1.000000 0.000000
vt 1.000000 1.000000
vt 0.000000 1.000000
vt 0.000000 0.000000
vt 1.000000 0.000000
vt 1.000000 1.000000
vt 0.000000 1.000000
vt 0.000000 0.000000
vt 1.000000 0.000000
vt 1.000000 1.000000
vt 0.000000 1.000000
vt 0.000000 0.000000
vt 1.000000 0.000000
vt 1.000000 1.000000
vt 0.000000 1.000000
vt 0.000000 0.000000
vt 1.000000 0.000000
vt 1.000000 1.000000
vt 0.000000 1.000000
vt 0.000000 0.000000
vt 1.000000 0.000000
vt 1.000000 1.000000
vt 0.000000 1.000000
vt 0.000000 0.000000
vt 1.000000 0.000000
vt 1.000000 1.000000
vt 0.000000 1.000000
vt 0.000000 0.000000
vt 1.000000 0.000000
vt 1.000000 1.000000
vt 0.000000 1.000000
vt 0.000000 0.000000
vt 1.000000 0.000000
vt 1.000000 1.000000
vt 0.000000 1.000000
vt 0.000000 0.000000
vt 1.000000 0.000000
vt 1.000000 1.000000
vt 0.000000 1.000000
vt 0.000000 0.000000
vt 1.000000 0.000000
vt 1.000000 1.000000
vt 0.000000 1.000000
vt 0.000000 0.000000
vt 1.000000 0.000000
vt 1.000000 1.000000
vt 0.000000 1.000000
vt 0.000000 0.000000
vt 1.000000 0.000000
vt 1.000000 1.000000
vt 0.000000 1.000000
vt 0.000000 0.000000
vt 1.000000 0.000000
vt 1.000000 1.000000
vt 0.000000 1.000000
vt 0.000000 0.000000
vt 1.000000 0.000000
vt 1.000000 1.000000
vt 0.000000 1.000000
vt 0.000000 0.000000
vt 1.000000 0.000000
vt 1.000000 1.000000
vt 0.000000 1.000000
vt 0.000000 0.000000
vt 1.000000 0.000000
vt 1.000000 1.000000
vt 0.000000 1.000000
vt 0.000000 0.000000
vt 1.000000 0.000000
vt 1.000000 1.000000
vt 0.000000 1.000000
vt 0.000000 0.000000
vt 1.000000 0.000000
vt 1.000000 1.000000
vt 0.000000 1.000000
vt 0.000000 0.000000
vt 1.000000 0.000000
vt 1.000000 1.000000
vt 0.000000 1.000000
vt 0.000000 0.000000
vt 1.000000 0.000000
vt 1.000000 1.000000
vt 0.000000 1.000000
vt 0.000000 0.000000
vt 1.000000 0.000000
vt 1.000000 1.000000
vt 0.000000 1.000000
vt 0.000000 0.000000
vt 1.000000 0.000000
vt 1.000000 1.000000
vt 0.000000 1.000000
vt 0.000000 0.000000
vt 1.000000 0.000000
vt 1.000000 1.000000
vt 0.000000 1.000000
vt 0.000000 0.000000
vt 1.000000 0.000000
vt 1.000000 1.000000
vt 0.000000 1.000000
vt 0.000000 0.000000
vt 1.000000 0.000000
vt 1.000000 1.000000
vt 0.000000 1.000000
vt 0.000000 0.000000
vt 1.000000 0.000000
vt 1.000000 1.000000
vt 0.000000 1.000000
vt 0.000000 0.000000
vt 1.000000 0.000000
vt 1.000000 1.000000
vt 0.000000 1.000000
vt 0.000000 0.000000
vt 1.000000 0.000000
vt 1.000000 1.000000
vt 0.000000 1.000000
vt 0.500000 0.500000
vt 0.000000 0.000000
vt 1.000000 0.000000
vt 0.000000 0.000000
vt 1.000000 0.000000
vt 0.000000 0.000000
vt 1.000000 0.000000
vt 0.000000 0.000000
vt 1.000000 0.000000
vt 0.000000 0.000000
vt 1.000000 0.000000
vt 0.000000 0.000000
vt 1.000000 0.000000
vt 0.000000 0.000000
vt 1.000000 0.000000
vt 0.500000 0.500000
vt 0.000000 0.000000
vt 1.000000 0.000000
vt 0.000000 0.000000
vt 1.000000 0.000000
vt 0.000000 0.000000
vt 1.000000 0.000000
vt 0.000000 0.000000
vt 1.000000 0.000000
vt 0.000000 0.000000
vt 1.000000 0.000000
vt 0.000000 0.000000
vt 1.000000 0.000000
vt 0.000000 0.000000
vt 1.000000 0.000000
vt 0.000000 0.000000
vt 1.000000 0.000000
vt 1.000000 1.000000
vt 0.000000 1.000000
vt 0.000000 0.000000
vt 1.000000 0.000000
vt 1.000000 1.000000
vt 0.000000 1.000000
vt 0.000000 0.000000
vt 1.000000 0.000000
vt 1.000000 1.000000
vt 0.000000 1.000000
vt 0.000000 0.000000
vt 1.000000 0.000000
vt 1.000000 1.000000
vt 0.000000 1.000000
vt 0.000000 0.000000
vt 1.000000 0.000000
vt 1.000000 1.000000
vt 0.000000 1.000000
vt 0.000000 0.000000
vt 1.000000 0.000000
vt 1.000000 1.000000
vt 0.000000 1.000000
vt 0.000000 0.000000
vt 1.000000 0.000000
vt 1.000000 1.000000
vt 0.000000 1.000000
vt 0.000000 0.000000
vt 1.000000 0.000000
vt 1.000000 1.000000
vt 0.000000 1.000000
vt 0.000000 0.000000
vt 1.000000 0.000000
vt 1.000000 1.000000
vt 0.000000 1.000000
vt 0.000000 0.000000
vt 1.000000 0.000000
vt 1.000000 1.000000
vt 0.000000 1.000000
vt 0.500000 0.500000
vt 0.000000 0.000000
vt 1.000000 0.000000
vt 0.000000 0.000000
vt 1.000000 0.000000
vt 0.000000 0.000000
vt 1.000000 0.000000
vt 0.000000 0.000000
vt 1.000000 0.000000
vt 0.000000 0.000000
vt 1.000000 0.000000
vt 0.000000 0.000000
vt 1.000000 0.000000
vt 0.000000 0.000000
vt 1.000000 0.000000
vt 0.000000 0.000000
vt 1.000000 0.000000
vt 0.000000 0.000000
vt 1.000000 0.000000
vt 0.000000 0.000000
vt 1.000000 0.000000
vt 0.500000 0.500000
vt 0.000000 0.000000
vt 1.000000 0.000000
vt 0.000000 0.000000
vt 1.000000 0.000000
vt 0.000000 0.000000
vt 1.000000 0.000000
vt 0.000000 0.000000
vt 1.000000 0.000000
vt 0.000000 0.000000
vt 1.000000 0.000000
vt 0.000000 0.000000
vt 1.000000 0.000000
vt 0.000000 0.000000
vt 1.000000 0.000000
vt 0.000000 0.000000
vt 1.000000 0.000000
vt 0.000000 0.000000
vt 1.000000 0.000000
vt 0.000000 0.000000
vt 1.000000 0.000000
usemtl Char
f 1/1 2/2 3/3
f 1/1 3/3 4/4
f 5/5 6/6 7/7
f 5/5 7/7 8/8
f 9/9 10/10 11/11
f 9/9 11/11 12/12
f 13/13 14/14 15/15
f 13/13 15/15 16/16
f 17/17 18/18 19/19
f 17/17 19/19 20/20
f 21/21 22/22 23/23
f 21/21 23/23 24/24
usemtl Metal
f 25/25 26/26 27/27
f 25/25 27/27 28/28
f 29/29 30/30 31/31
f 29/29 31/31 32/32
f 33/33 34/34 35/35
f 33/33 35/35 36/36
f 37/37 38/38 39/39
f 37/37 39/39 40/40
f 41/41 42/42 43/43
f 41/41 43/43 44/44
f 45/45 46/46 47/47
f 45/45 47/47 48/48
usemtl Cloth
f 49/49 50/50 51/51
f 49/49 51/51 52/52
f 53/53 54/54 55/55
f 53/53 55/55 56/56
f 57/57 58/58 59/59
f 57/57 59/59 60/60
f 61/61 62/62 63/63
f 61/61 63/63 64/64
f 65/65 66/66 67/67
f 65/65 67/67 68/68
f 69/69 70/70 71/71
f 69/69 71/71 72/72
usemtl Metal
f 73/73 74/74 75/75
f 73/73 75/75 76/76
f 77/77 78/78 79/79
f 77/77 79/79 80/80
f 81/81 82/82 83/83
f 81/81 83/83 84/84
f 85/85 86/86 87/87
f 85/85 87/87 88/88
f 89/89 90/90 91/91
f 89/89 91/91 92/92
f 93/93 94/94 95/95
f 93/93 95/95 96/96
f 97/97 98/98 99/99
f 97/97 99/99 100/100
f 101/101 102/102 103/103
f 101/101 103/103 104/104
f 105/105 106/106 107/107
f 105/105 107/107 108/108
f 109/109 110/110 111/111
f 109/109 111/111 112/112
f 113/113 114/114 115/115
f 113/113 115/115 116/116
f 117/117 118/118 119/119
f 117/117 119/119 120/120
f 121/121 122/122 123/123
f 121/121 123/123 124/124
f 125/125 126/126 127/127
f 125/125 127/127 128/128
f 129/129 130/130 131/131
f 129/129 131/131 132/132
f 133/133 134/134 135/135
f 133/133 135/135 136/136
f 137/137 138/138 139/139
f 137/137 139/139 140/140
f 141/141 142/142 143/143
f 141/141 143/143 144/144
f 145/145 146/146 147/147
f 145/145 147/147 148/148
f 149/149 150/150 151/151
f 149/149 151/151 152/152
f 153/153 154/154 155/155
f 153/153 155/155 156/156
f 157/157 158/158 159/159
f 157/157 159/159 160/160
f 161/161 162/162 163/163
f 161/161 163/163 164/164
f 165/165 166/166 167/167
f 165/165 167/167 168/168
f 169/169 170/170 171/171
f 169/169 171/171 172/172
f 173/173 174/174 175/175
f 173/173 175/175 176/176
f 177/177 178/178 179/179
f 177/177 179/179 180/180
f 181/181 182/182 183/183
f 181/181 183/183 184/184
f 185/185 186/186 187/187
f 185/185 187/187 188/188
f 189/189 190/190 191/191
f 189/189 191/191 192/192
f 193/193 194/194 195/195
f 193/193 195/195 196/196
f 197/197 198/198 199/199
f 197/197 199/199 200/200
f 201/201 202/202 203/203
f 201/201 203/203 204/204
f 205/205 206/206 207/207
f 205/205 207/207 208/208
f 209/209 210/210 211/211
f 209/209 211/211 212/212
f 213/213 214/214 215/215
f 213/213 215/215 216/216
f 217/217 218/218 219/219
f 217/217 219/219 220/220
f 221/221 222/222 223/223
f 221/221 223/223 224/224
f 225/225 226/226 227/227
f 225/225 227/227 228/228
f 229/229 230/230 231/231
f 229/229 231/231 232/232
f 233/233 234/234 235/235
f 233/233 235/235 236/236
f 237/237 238/238 239/239
f 237/237 239/239 240/240
f 241/241 242/242 243/243
f 241/241 243/243 244/244
f 245/245 246/246 247/247
f 245/245 247/247 248/248
f 249/249 250/250 251/251
f 249/249 251/251 252/252
f 253/253 254/254 255/255
f 253/253 255/255 256/256
f 257/257 258/258 259/259
f 257/257 259/259 260/260
f 261/261 262/262 263/263
f 261/261 263/263 264/264
f 265/265 266/266 267/267
f 265/265 267/267 268/268
f 269/269 270/270 271/271
f 269/269 271/271 272/272
f 273/273 274/274 275/275
f 273/273 275/275 276/276
f 277/277 278/278 279/279
f 277/277 279/279 280/280
f 281/281 282/282 283/283
f 281/281 283/283 284/284
f 285/285 286/286 287/287
f 285/285 287/287 288/288
f 289/289 290/290 291/291
f 289/289 291/291 292/292
f 293/293 294/294 295/295
f 293/293 295/295 296/296
f 297/297 298/298 299/299
f 297/297 299/299 300/300
f 301/301 302/302 303/303
f 301/301 303/303 304/304
f 305/305 306/306 307/307
f 305/305 307/307 308/308
f 309/309 310/310 311/311
f 309/309 311/311 312/312
f 313/313 314/314 315/315
f 313/313 315/315 316/316
f 317/317 318/318 319/319
f 317/317 319/319 320/320
f 321/321 322/322 323/323
f 321/321 323/323 324/324
f 325/325 327/327 326/326
f 325/325 329/329 328/328
f 325/325 331/331 330/330
f 325/325 333/333 332/332
f 325/325 335/335 334/334
f 325/325 337/337 336/336
f 325/325 339/339 338/338
f 340/340 341/341 342/342
f 340/340 343/343 344/344
f 340/340 345/345 346/346
f 340/340 347/347 348/348
f 340/340 349/349 350/350
f 340/340 351/351 352/352
f 340/340 353/353 354/354
f 355/355 356/356 357/357
f 355/355 357/357 358/358
f 359/359 360/360 361/361
f 359/359 361/361 362/362
f 363/363 364/364 365/365
f 363/363 365/365 366/366
f 367/367 368/368 369/369
f 367/367 369/369 370/370
f 371/371 372/372 373/373
f 371/371 373/373 374/374
f 375/375 376/376 377/377
f 375/375 377/377 378/378
f 379/379 380/380 381/381
f 379/379 381/381 382/382
f 383/383 384/384 385/385
f 383/383 385/385 386/386
f 387/387 388/388 389/389
f 387/387 389/389 390/390
f 391/391 392/392 393/393
f 391/391 393/393 394/394
f 395/395 397/397 396/396
f 395/395 399/399 398/398
f 395/395 401/401 400/400
f 395/395 403/403 402/402
f 395/395 405/405 404/404
f 395/395 407/407 406/406
f 395/395 409/409 408/408
f 395/395 411/411 410/410
f 395/395 413/413 412/412
f 395/395 415/415 414/414
f 416/416 417/417 418/418
f 416/416 419/419 420/420
f 416/416 421/421 422/422
f 416/416 423/423 424/424
f 416/416 425/425 426/426
f 416/416 427/427 428/428
f 416/416 429/429 430/430
f 416/416 431/431 432/432
f 416/416 433/433 434/434
f 416/416 435/435 436/436
