mtllib ../../../Materials/project_oen.mtl
o ax-com-002_antenna_mast_kit__folded
v -0.060000 0.020000 0.012000
v -0.050618 0.020000 0.007482
v -0.050618 0.740000 0.007482
v -0.060000 0.740000 0.012000
v -0.050618 0.020000 0.007482
v -0.048301 0.020000 -0.002670
v -0.048301 0.740000 -0.002670
v -0.050618 0.740000 0.007482
v -0.048301 0.020000 -0.002670
v -0.054793 0.020000 -0.010812
v -0.054793 0.740000 -0.010812
v -0.048301 0.740000 -0.002670
v -0.054793 0.020000 -0.010812
v -0.065207 0.020000 -0.010812
v -0.065207 0.740000 -0.010812
v -0.054793 0.740000 -0.010812
v -0.065207 0.020000 -0.010812
v -0.071699 0.020000 -0.002670
v -0.071699 0.740000 -0.002670
v -0.065207 0.740000 -0.010812
v -0.071699 0.020000 -0.002670
v -0.069382 0.020000 0.007482
v -0.069382 0.740000 0.007482
v -0.071699 0.740000 -0.002670
v -0.069382 0.020000 0.007482
v -0.060000 0.020000 0.012000
v -0.060000 0.740000 0.012000
v -0.069382 0.740000 0.007482
v -0.060000 0.020000 0.000000
v -0.060000 0.020000 0.012000
v -0.050618 0.020000 0.007482
v -0.050618 0.020000 0.007482
v -0.048301 0.020000 -0.002670
v -0.048301 0.020000 -0.002670
v -0.054793 0.020000 -0.010812
v -0.054793 0.020000 -0.010812
v -0.065207 0.020000 -0.010812
v -0.065207 0.020000 -0.010812
v -0.071699 0.020000 -0.002670
v -0.071699 0.020000 -0.002670
v -0.069382 0.020000 0.007482
v -0.069382 0.020000 0.007482
v -0.060000 0.020000 0.012000
v -0.060000 0.740000 0.000000
v -0.060000 0.740000 0.012000
v -0.050618 0.740000 0.007482
v -0.050618 0.740000 0.007482
v -0.048301 0.740000 -0.002670
v -0.048301 0.740000 -0.002670
v -0.054793 0.740000 -0.010812
v -0.054793 0.740000 -0.010812
v -0.065207 0.740000 -0.010812
v -0.065207 0.740000 -0.010812
v -0.071699 0.740000 -0.002670
v -0.071699 0.740000 -0.002670
v -0.069382 0.740000 0.007482
v -0.069382 0.740000 0.007482
v -0.060000 0.740000 0.012000
v 0.000000 0.020000 0.012000
v 0.009382 0.020000 0.007482
v 0.009382 0.740000 0.007482
v 0.000000 0.740000 0.012000
v 0.009382 0.020000 0.007482
v 0.011699 0.020000 -0.002670
v 0.011699 0.740000 -0.002670
v 0.009382 0.740000 0.007482
v 0.011699 0.020000 -0.002670
v 0.005207 0.020000 -0.010812
v 0.005207 0.740000 -0.010812
v 0.011699 0.740000 -0.002670
v 0.005207 0.020000 -0.010812
v -0.005207 0.020000 -0.010812
v -0.005207 0.740000 -0.010812
v 0.005207 0.740000 -0.010812
v -0.005207 0.020000 -0.010812
v -0.011699 0.020000 -0.002670
v -0.011699 0.740000 -0.002670
v -0.005207 0.740000 -0.010812
v -0.011699 0.020000 -0.002670
v -0.009382 0.020000 0.007482
v -0.009382 0.740000 0.007482
v -0.011699 0.740000 -0.002670
v -0.009382 0.020000 0.007482
v 0.000000 0.020000 0.012000
v 0.000000 0.740000 0.012000
v -0.009382 0.740000 0.007482
v 0.000000 0.020000 0.000000
v 0.000000 0.020000 0.012000
v 0.009382 0.020000 0.007482
v 0.009382 0.020000 0.007482
v 0.011699 0.020000 -0.002670
v 0.011699 0.020000 -0.002670
v 0.005207 0.020000 -0.010812
v 0.005207 0.020000 -0.010812
v -0.005207 0.020000 -0.010812
v -0.005207 0.020000 -0.010812
v -0.011699 0.020000 -0.002670
v -0.011699 0.020000 -0.002670
v -0.009382 0.020000 0.007482
v -0.009382 0.020000 0.007482
v 0.000000 0.020000 0.012000
v 0.000000 0.740000 0.000000
v 0.000000 0.740000 0.012000
v 0.009382 0.740000 0.007482
v 0.009382 0.740000 0.007482
v 0.011699 0.740000 -0.002670
v 0.011699 0.740000 -0.002670
v 0.005207 0.740000 -0.010812
v 0.005207 0.740000 -0.010812
v -0.005207 0.740000 -0.010812
v -0.005207 0.740000 -0.010812
v -0.011699 0.740000 -0.002670
v -0.011699 0.740000 -0.002670
v -0.009382 0.740000 0.007482
v -0.009382 0.740000 0.007482
v 0.000000 0.740000 0.012000
v 0.060000 0.020000 0.012000
v 0.069382 0.020000 0.007482
v 0.069382 0.740000 0.007482
v 0.060000 0.740000 0.012000
v 0.069382 0.020000 0.007482
v 0.071699 0.020000 -0.002670
v 0.071699 0.740000 -0.002670
v 0.069382 0.740000 0.007482
v 0.071699 0.020000 -0.002670
v 0.065207 0.020000 -0.010812
v 0.065207 0.740000 -0.010812
v 0.071699 0.740000 -0.002670
v 0.065207 0.020000 -0.010812
v 0.054793 0.020000 -0.010812
v 0.054793 0.740000 -0.010812
v 0.065207 0.740000 -0.010812
v 0.054793 0.020000 -0.010812
v 0.048301 0.020000 -0.002670
v 0.048301 0.740000 -0.002670
v 0.054793 0.740000 -0.010812
v 0.048301 0.020000 -0.002670
v 0.050618 0.020000 0.007482
v 0.050618 0.740000 0.007482
v 0.048301 0.740000 -0.002670
v 0.050618 0.020000 0.007482
v 0.060000 0.020000 0.012000
v 0.060000 0.740000 0.012000
v 0.050618 0.740000 0.007482
v 0.060000 0.020000 0.000000
v 0.060000 0.020000 0.012000
v 0.069382 0.020000 0.007482
v 0.069382 0.020000 0.007482
v 0.071699 0.020000 -0.002670
v 0.071699 0.020000 -0.002670
v 0.065207 0.020000 -0.010812
v 0.065207 0.020000 -0.010812
v 0.054793 0.020000 -0.010812
v 0.054793 0.020000 -0.010812
v 0.048301 0.020000 -0.002670
v 0.048301 0.020000 -0.002670
v 0.050618 0.020000 0.007482
v 0.050618 0.020000 0.007482
v 0.060000 0.020000 0.012000
v 0.060000 0.740000 0.000000
v 0.060000 0.740000 0.012000
v 0.069382 0.740000 0.007482
v 0.069382 0.740000 0.007482
v 0.071699 0.740000 -0.002670
v 0.071699 0.740000 -0.002670
v 0.065207 0.740000 -0.010812
v 0.065207 0.740000 -0.010812
v 0.054793 0.740000 -0.010812
v 0.054793 0.740000 -0.010812
v 0.048301 0.740000 -0.002670
v 0.048301 0.740000 -0.002670
v 0.050618 0.740000 0.007482
v 0.050618 0.740000 0.007482
v 0.060000 0.740000 0.012000
v 0.229000 0.220000 0.000000
v 0.218206 0.267293 0.000000
v 0.210097 0.263388 0.009000
v 0.220000 0.220000 0.009000
v 0.220000 0.220000 0.009000
v 0.210097 0.263388 0.009000
v 0.201988 0.259483 0.000000
v 0.211000 0.220000 0.000000
v 0.211000 0.220000 0.000000
v 0.201988 0.259483 0.000000
v 0.210097 0.263388 -0.009000
v 0.220000 0.220000 -0.009000
v 0.220000 0.220000 -0.009000
v 0.210097 0.263388 -0.009000
v 0.218206 0.267293 0.000000
v 0.229000 0.220000 0.000000
v 0.218206 0.267293 0.000000
v 0.187960 0.305220 0.000000
v 0.182349 0.298183 0.009000
v 0.210097 0.263388 0.009000
v 0.210097 0.263388 0.009000
v 0.182349 0.298183 0.009000
v 0.176738 0.291147 0.000000
v 0.201988 0.259483 0.000000
v 0.201988 0.259483 0.000000
v 0.176738 0.291147 0.000000
v 0.182349 0.298183 -0.009000
v 0.210097 0.263388 -0.009000
v 0.210097 0.263388 -0.009000
v 0.182349 0.298183 -0.009000
v 0.187960 0.305220 0.000000
v 0.218206 0.267293 0.000000
v 0.187960 0.305220 0.000000
v 0.144255 0.326267 0.000000
v 0.142252 0.317493 0.009000
v 0.182349 0.298183 0.009000
v 0.182349 0.298183 0.009000
v 0.142252 0.317493 0.009000
v 0.140249 0.308718 0.000000
v 0.176738 0.291147 0.000000
v 0.176738 0.291147 0.000000
v 0.140249 0.308718 0.000000
v 0.142252 0.317493 -0.009000
v 0.182349 0.298183 -0.009000
v 0.182349 0.298183 -0.009000
v 0.142252 0.317493 -0.009000
v 0.144255 0.326267 0.000000
v 0.187960 0.305220 0.000000
v 0.144255 0.326267 0.000000
v 0.095745 0.326267 0.000000
v 0.097748 0.317493 0.009000
v 0.142252 0.317493 0.009000
v 0.142252 0.317493 0.009000
v 0.097748 0.317493 0.009000
v 0.099751 0.308718 0.000000
v 0.140249 0.308718 0.000000
v 0.140249 0.308718 0.000000
v 0.099751 0.308718 0.000000
v 0.097748 0.317493 -0.009000
v 0.142252 0.317493 -0.009000
v 0.142252 0.317493 -0.009000
v 0.097748 0.317493 -0.009000
v 0.095745 0.326267 0.000000
v 0.144255 0.326267 0.000000
v 0.095745 0.326267 0.000000
v 0.052040 0.305220 0.000000
v 0.057651 0.298183 0.009000
v 0.097748 0.317493 0.009000
v 0.097748 0.317493 0.009000
v 0.057651 0.298183 0.009000
v 0.063262 0.291147 0.000000
v 0.099751 0.308718 0.000000
v 0.099751 0.308718 0.000000
v 0.063262 0.291147 0.000000
v 0.057651 0.298183 -0.009000
v 0.097748 0.317493 -0.009000
v 0.097748 0.317493 -0.009000
v 0.057651 0.298183 -0.009000
v 0.052040 0.305220 0.000000
v 0.095745 0.326267 0.000000
v 0.052040 0.305220 0.000000
v 0.021794 0.267293 0.000000
v 0.029903 0.263388 0.009000
v 0.057651 0.298183 0.009000
v 0.057651 0.298183 0.009000
v 0.029903 0.263388 0.009000
v 0.038012 0.259483 0.000000
v 0.063262 0.291147 0.000000
v 0.063262 0.291147 0.000000
v 0.038012 0.259483 0.000000
v 0.029903 0.263388 -0.009000
v 0.057651 0.298183 -0.009000
v 0.057651 0.298183 -0.009000
v 0.029903 0.263388 -0.009000
v 0.021794 0.267293 0.000000
v 0.052040 0.305220 0.000000
v 0.021794 0.267293 0.000000
v 0.011000 0.220000 0.000000
v 0.020000 0.220000 0.009000
v 0.029903 0.263388 0.009000
v 0.029903 0.263388 0.009000
v 0.020000 0.220000 0.009000
v 0.029000 0.220000 0.000000
v 0.038012 0.259483 0.000000
v 0.038012 0.259483 0.000000
v 0.029000 0.220000 0.000000
v 0.020000 0.220000 -0.009000
v 0.029903 0.263388 -0.009000
v 0.029903 0.263388 -0.009000
v 0.020000 0.220000 -0.009000
v 0.011000 0.220000 0.000000
v 0.021794 0.267293 0.000000
v 0.011000 0.220000 0.000000
v 0.021794 0.172707 0.000000
v 0.029903 0.176612 0.009000
v 0.020000 0.220000 0.009000
v 0.020000 0.220000 0.009000
v 0.029903 0.176612 0.009000
v 0.038012 0.180517 0.000000
v 0.029000 0.220000 0.000000
v 0.029000 0.220000 0.000000
v 0.038012 0.180517 0.000000
v 0.029903 0.176612 -0.009000
v 0.020000 0.220000 -0.009000
v 0.020000 0.220000 -0.009000
v 0.029903 0.176612 -0.009000
v 0.021794 0.172707 0.000000
v 0.011000 0.220000 0.000000
v 0.021794 0.172707 0.000000
v 0.052040 0.134780 0.000000
v 0.057651 0.141817 0.009000
v 0.029903 0.176612 0.009000
v 0.029903 0.176612 0.009000
v 0.057651 0.141817 0.009000
v 0.063262 0.148853 0.000000
v 0.038012 0.180517 0.000000
v 0.038012 0.180517 0.000000
v 0.063262 0.148853 0.000000
v 0.057651 0.141817 -0.009000
v 0.029903 0.176612 -0.009000
v 0.029903 0.176612 -0.009000
v 0.057651 0.141817 -0.009000
v 0.052040 0.134780 0.000000
v 0.021794 0.172707 0.000000
v 0.052040 0.134780 0.000000
v 0.095745 0.113733 0.000000
v 0.097748 0.122507 0.009000
v 0.057651 0.141817 0.009000
v 0.057651 0.141817 0.009000
v 0.097748 0.122507 0.009000
v 0.099751 0.131282 0.000000
v 0.063262 0.148853 0.000000
v 0.063262 0.148853 0.000000
v 0.099751 0.131282 0.000000
v 0.097748 0.122507 -0.009000
v 0.057651 0.141817 -0.009000
v 0.057651 0.141817 -0.009000
v 0.097748 0.122507 -0.009000
v 0.095745 0.113733 0.000000
v 0.052040 0.134780 0.000000
v 0.095745 0.113733 0.000000
v 0.144255 0.113733 0.000000
v 0.142252 0.122507 0.009000
v 0.097748 0.122507 0.009000
v 0.097748 0.122507 0.009000
v 0.142252 0.122507 0.009000
v 0.140249 0.131282 0.000000
v 0.099751 0.131282 0.000000
v 0.099751 0.131282 0.000000
v 0.140249 0.131282 0.000000
v 0.142252 0.122507 -0.009000
v 0.097748 0.122507 -0.009000
v 0.097748 0.122507 -0.009000
v 0.142252 0.122507 -0.009000
v 0.144255 0.113733 0.000000
v 0.095745 0.113733 0.000000
v 0.144255 0.113733 0.000000
v 0.187960 0.134780 0.000000
v 0.182349 0.141817 0.009000
v 0.142252 0.122507 0.009000
v 0.142252 0.122507 0.009000
v 0.182349 0.141817 0.009000
v 0.176738 0.148853 0.000000
v 0.140249 0.131282 0.000000
v 0.140249 0.131282 0.000000
v 0.176738 0.148853 0.000000
v 0.182349 0.141817 -0.009000
v 0.142252 0.122507 -0.009000
v 0.142252 0.122507 -0.009000
v 0.182349 0.141817 -0.009000
v 0.187960 0.134780 0.000000
v 0.144255 0.113733 0.000000
v 0.187960 0.134780 0.000000
v 0.218206 0.172707 0.000000
v 0.210097 0.176612 0.009000
v 0.182349 0.141817 0.009000
v 0.182349 0.141817 0.009000
v 0.210097 0.176612 0.009000
v 0.201988 0.180517 0.000000
v 0.176738 0.148853 0.000000
v 0.176738 0.148853 0.000000
v 0.201988 0.180517 0.000000
v 0.210097 0.176612 -0.009000
v 0.182349 0.141817 -0.009000
v 0.182349 0.141817 -0.009000
v 0.210097 0.176612 -0.009000
v 0.218206 0.172707 0.000000
v 0.187960 0.134780 0.000000
v 0.218206 0.172707 0.000000
v 0.229000 0.220000 0.000000
v 0.220000 0.220000 0.009000
v 0.210097 0.176612 0.009000
v 0.210097 0.176612 0.009000
v 0.220000 0.220000 0.009000
v 0.211000 0.220000 0.000000
v 0.201988 0.180517 0.000000
v 0.201988 0.180517 0.000000
v 0.211000 0.220000 0.000000
v 0.220000 0.220000 -0.009000
v 0.210097 0.176612 -0.009000
v 0.210097 0.176612 -0.009000
v 0.220000 0.220000 -0.009000
v 0.229000 0.220000 0.000000
v 0.218206 0.172707 0.000000
vt 0.000000 0.000000
vt 1.000000 0.000000
vt 1.000000 1.000000
vt 0.000000 1.000000
vt 0.000000 0.000000
vt 1.000000 0.000000
vt 1.000000 1.000000
vt 0.000000 1.000000
vt 0.000000 0.000000
vt 1.000000 0.000000
vt 1.000000 1.000000
vt 0.000000 1.000000
vt 0.000000 0.000000
vt 1.000000 0.000000
vt 1.000000 1.000000
vt 0.000000 1.000000
vt 0.000000 0.000000
vt 1.000000 0.000000
vt 1.000000 1.000000
vt 0.000000 1.000000
vt 0.000000 0.000000
vt 1.000000 0.000000
vt 1.000000 1.000000
vt 0.000000 1.000000
vt 0.000000 0.000000
vt 1.000000 0.000000
vt 1.000000 1.000000
vt 0.000000 1.000000
vt 0.500000 0.500000
vt 0.000000 0.000000
vt 1.000000 0.000000
vt 0.000000 0.000000
vt 1.000000 0.000000
vt 0.000000 0.000000
vt 1.000000 0.000000
vt 0.000000 0.000000
vt 1.000000 0.000000
vt 0.000000 0.000000
vt 1.000000 0.000000
vt 0.000000 0.000000
vt 1.000000 0.000000
vt 0.000000 0.000000
vt 1.000000 0.000000
vt 0.500000 0.500000
vt 0.000000 0.000000
vt 1.000000 0.000000
vt 0.000000 0.000000
vt 1.000000 0.000000
vt 0.000000 0.000000
vt 1.000000 0.000000
vt 0.000000 0.000000
vt 1.000000 0.000000
vt 0.000000 0.000000
vt 1.000000 0.000000
vt 0.000000 0.000000
vt 1.000000 0.000000
vt 0.000000 0.000000
vt 1.000000 0.000000
vt 0.000000 0.000000
vt 1.000000 0.000000
vt 1.000000 1.000000
vt 0.000000 1.000000
vt 0.000000 0.000000
vt 1.000000 0.000000
vt 1.000000 1.000000
vt 0.000000 1.000000
vt 0.000000 0.000000
vt 1.000000 0.000000
vt 1.000000 1.000000
vt 0.000000 1.000000
vt 0.000000 0.000000
vt 1.000000 0.000000
vt 1.000000 1.000000
vt 0.000000 1.000000
vt 0.000000 0.000000
vt 1.000000 0.000000
vt 1.000000 1.000000
vt 0.000000 1.000000
vt 0.000000 0.000000
vt 1.000000 0.000000
vt 1.000000 1.000000
vt 0.000000 1.000000
vt 0.000000 0.000000
vt 1.000000 0.000000
vt 1.000000 1.000000
vt 0.000000 1.000000
vt 0.500000 0.500000
vt 0.000000 0.000000
vt 1.000000 0.000000
vt 0.000000 0.000000
vt 1.000000 0.000000
vt 0.000000 0.000000
vt 1.000000 0.000000
vt 0.000000 0.000000
vt 1.000000 0.000000
vt 0.000000 0.000000
vt 1.000000 0.000000
vt 0.000000 0.000000
vt 1.000000 0.000000
vt 0.000000 0.000000
vt 1.000000 0.000000
vt 0.500000 0.500000
vt 0.000000 0.000000
vt 1.000000 0.000000
vt 0.000000 0.000000
vt 1.000000 0.000000
vt 0.000000 0.000000
vt 1.000000 0.000000
vt 0.000000 0.000000
vt 1.000000 0.000000
vt 0.000000 0.000000
vt 1.000000 0.000000
vt 0.000000 0.000000
vt 1.000000 0.000000
vt 0.000000 0.000000
vt 1.000000 0.000000
vt 0.000000 0.000000
vt 1.000000 0.000000
vt 1.000000 1.000000
vt 0.000000 1.000000
vt 0.000000 0.000000
vt 1.000000 0.000000
vt 1.000000 1.000000
vt 0.000000 1.000000
vt 0.000000 0.000000
vt 1.000000 0.000000
vt 1.000000 1.000000
vt 0.000000 1.000000
vt 0.000000 0.000000
vt 1.000000 0.000000
vt 1.000000 1.000000
vt 0.000000 1.000000
vt 0.000000 0.000000
vt 1.000000 0.000000
vt 1.000000 1.000000
vt 0.000000 1.000000
vt 0.000000 0.000000
vt 1.000000 0.000000
vt 1.000000 1.000000
vt 0.000000 1.000000
vt 0.000000 0.000000
vt 1.000000 0.000000
vt 1.000000 1.000000
vt 0.000000 1.000000
vt 0.500000 0.500000
vt 0.000000 0.000000
vt 1.000000 0.000000
vt 0.000000 0.000000
vt 1.000000 0.000000
vt 0.000000 0.000000
vt 1.000000 0.000000
vt 0.000000 0.000000
vt 1.000000 0.000000
vt 0.000000 0.000000
vt 1.000000 0.000000
vt 0.000000 0.000000
vt 1.000000 0.000000
vt 0.000000 0.000000
vt 1.000000 0.000000
vt 0.500000 0.500000
vt 0.000000 0.000000
vt 1.000000 0.000000
vt 0.000000 0.000000
vt 1.000000 0.000000
vt 0.000000 0.000000
vt 1.000000 0.000000
vt 0.000000 0.000000
vt 1.000000 0.000000
vt 0.000000 0.000000
vt 1.000000 0.000000
vt 0.000000 0.000000
vt 1.000000 0.000000
vt 0.000000 0.000000
vt 1.000000 0.000000
vt 0.000000 0.000000
vt 1.000000 0.000000
vt 1.000000 1.000000
vt 0.000000 1.000000
vt 0.000000 0.000000
vt 1.000000 0.000000
vt 1.000000 1.000000
vt 0.000000 1.000000
vt 0.000000 0.000000
vt 1.000000 0.000000
vt 1.000000 1.000000
vt 0.000000 1.000000
vt 0.000000 0.000000
vt 1.000000 0.000000
vt 1.000000 1.000000
vt 0.000000 1.000000
vt 0.000000 0.000000
vt 1.000000 0.000000
vt 1.000000 1.000000
vt 0.000000 1.000000
vt 0.000000 0.000000
vt 1.000000 0.000000
vt 1.000000 1.000000
vt 0.000000 1.000000
vt 0.000000 0.000000
vt 1.000000 0.000000
vt 1.000000 1.000000
vt 0.000000 1.000000
vt 0.000000 0.000000
vt 1.000000 0.000000
vt 1.000000 1.000000
vt 0.000000 1.000000
vt 0.000000 0.000000
vt 1.000000 0.000000
vt 1.000000 1.000000
vt 0.000000 1.000000
vt 0.000000 0.000000
vt 1.000000 0.000000
vt 1.000000 1.000000
vt 0.000000 1.000000
vt 0.000000 0.000000
vt 1.000000 0.000000
vt 1.000000 1.000000
vt 0.000000 1.000000
vt 0.000000 0.000000
vt 1.000000 0.000000
vt 1.000000 1.000000
vt 0.000000 1.000000
vt 0.000000 0.000000
vt 1.000000 0.000000
vt 1.000000 1.000000
vt 0.000000 1.000000
vt 0.000000 0.000000
vt 1.000000 0.000000
vt 1.000000 1.000000
vt 0.000000 1.000000
vt 0.000000 0.000000
vt 1.000000 0.000000
vt 1.000000 1.000000
vt 0.000000 1.000000
vt 0.000000 0.000000
vt 1.000000 0.000000
vt 1.000000 1.000000
vt 0.000000 1.000000
vt 0.000000 0.000000
vt 1.000000 0.000000
vt 1.000000 1.000000
vt 0.000000 1.000000
vt 0.000000 0.000000
vt 1.000000 0.000000
vt 1.000000 1.000000
vt 0.000000 1.000000
vt 0.000000 0.000000
vt 1.000000 0.000000
vt 1.000000 1.000000
vt 0.000000 1.000000
vt 0.000000 0.000000
vt 1.000000 0.000000
vt 1.000000 1.000000
vt 0.000000 1.000000
vt 0.000000 0.000000
vt 1.000000 0.000000
vt 1.000000 1.000000
vt 0.000000 1.000000
vt 0.000000 0.000000
vt 1.000000 0.000000
vt 1.000000 1.000000
vt 0.000000 1.000000
vt 0.000000 0.000000
vt 1.000000 0.000000
vt 1.000000 1.000000
vt 0.000000 1.000000
vt 0.000000 0.000000
vt 1.000000 0.000000
vt 1.000000 1.000000
vt 0.000000 1.000000
vt 0.000000 0.000000
vt 1.000000 0.000000
vt 1.000000 1.000000
vt 0.000000 1.000000
vt 0.000000 0.000000
vt 1.000000 0.000000
vt 1.000000 1.000000
vt 0.000000 1.000000
vt 0.000000 0.000000
vt 1.000000 0.000000
vt 1.000000 1.000000
vt 0.000000 1.000000
vt 0.000000 0.000000
vt 1.000000 0.000000
vt 1.000000 1.000000
vt 0.000000 1.000000
vt 0.000000 0.000000
vt 1.000000 0.000000
vt 1.000000 1.000000
vt 0.000000 1.000000
vt 0.000000 0.000000
vt 1.000000 0.000000
vt 1.000000 1.000000
vt 0.000000 1.000000
vt 0.000000 0.000000
vt 1.000000 0.000000
vt 1.000000 1.000000
vt 0.000000 1.000000
vt 0.000000 0.000000
vt 1.000000 0.000000
vt 1.000000 1.000000
vt 0.000000 1.000000
vt 0.000000 0.000000
vt 1.000000 0.000000
vt 1.000000 1.000000
vt 0.000000 1.000000
vt 0.000000 0.000000
vt 1.000000 0.000000
vt 1.000000 1.000000
vt 0.000000 1.000000
vt 0.000000 0.000000
vt 1.000000 0.000000
vt 1.000000 1.000000
vt 0.000000 1.000000
vt 0.000000 0.000000
vt 1.000000 0.000000
vt 1.000000 1.000000
vt 0.000000 1.000000
vt 0.000000 0.000000
vt 1.000000 0.000000
vt 1.000000 1.000000
vt 0.000000 1.000000
vt 0.000000 0.000000
vt 1.000000 0.000000
vt 1.000000 1.000000
vt 0.000000 1.000000
vt 0.000000 0.000000
vt 1.000000 0.000000
vt 1.000000 1.000000
vt 0.000000 1.000000
vt 0.000000 0.000000
vt 1.000000 0.000000
vt 1.000000 1.000000
vt 0.000000 1.000000
vt 0.000000 0.000000
vt 1.000000 0.000000
vt 1.000000 1.000000
vt 0.000000 1.000000
vt 0.000000 0.000000
vt 1.000000 0.000000
vt 1.000000 1.000000
vt 0.000000 1.000000
vt 0.000000 0.000000
vt 1.000000 0.000000
vt 1.000000 1.000000
vt 0.000000 1.000000
vt 0.000000 0.000000
vt 1.000000 0.000000
vt 1.000000 1.000000
vt 0.000000 1.000000
vt 0.000000 0.000000
vt 1.000000 0.000000
vt 1.000000 1.000000
vt 0.000000 1.000000
vt 0.000000 0.000000
vt 1.000000 0.000000
vt 1.000000 1.000000
vt 0.000000 1.000000
vt 0.000000 0.000000
vt 1.000000 0.000000
vt 1.000000 1.000000
vt 0.000000 1.000000
vt 0.000000 0.000000
vt 1.000000 0.000000
vt 1.000000 1.000000
vt 0.000000 1.000000
vt 0.000000 0.000000
vt 1.000000 0.000000
vt 1.000000 1.000000
vt 0.000000 1.000000
vt 0.000000 0.000000
vt 1.000000 0.000000
vt 1.000000 1.000000
vt 0.000000 1.000000
vt 0.000000 0.000000
vt 1.000000 0.000000
vt 1.000000 1.000000
vt 0.000000 1.000000
vt 0.000000 0.000000
vt 1.000000 0.000000
vt 1.000000 1.000000
vt 0.000000 1.000000
vt 0.000000 0.000000
vt 1.000000 0.000000
vt 1.000000 1.000000
vt 0.000000 1.000000
vt 0.000000 0.000000
vt 1.000000 0.000000
vt 1.000000 1.000000
vt 0.000000 1.000000
vt 0.000000 0.000000
vt 1.000000 0.000000
vt 1.000000 1.000000
vt 0.000000 1.000000
vt 0.000000 0.000000
vt 1.000000 0.000000
vt 1.000000 1.000000
vt 0.000000 1.000000
usemtl Metal
f 1/1 2/2 3/3
f 1/1 3/3 4/4
f 5/5 6/6 7/7
f 5/5 7/7 8/8
f 9/9 10/10 11/11
f 9/9 11/11 12/12
f 13/13 14/14 15/15
f 13/13 15/15 16/16
f 17/17 18/18 19/19
f 17/17 19/19 20/20
f 21/21 22/22 23/23
f 21/21 23/23 24/24
f 25/25 26/26 27/27
f 25/25 27/27 28/28
f 29/29 31/31 30/30
f 29/29 33/33 32/32
f 29/29 35/35 34/34
f 29/29 37/37 36/36
f 29/29 39/39 38/38
f 29/29 41/41 40/40
f 29/29 43/43 42/42
f 44/44 45/45 46/46
f 44/44 47/47 48/48
f 44/44 49/49 50/50
f 44/44 51/51 52/52
f 44/44 53/53 54/54
f 44/44 55/55 56/56
f 44/44 57/57 58/58
f 59/59 60/60 61/61
f 59/59 61/61 62/62
f 63/63 64/64 65/65
f 63/63 65/65 66/66
f 67/67 68/68 69/69
f 67/67 69/69 70/70
f 71/71 72/72 73/73
f 71/71 73/73 74/74
f 75/75 76/76 77/77
f 75/75 77/77 78/78
f 79/79 80/80 81/81
f 79/79 81/81 82/82
f 83/83 84/84 85/85
f 83/83 85/85 86/86
f 87/87 89/89 88/88
f 87/87 91/91 90/90
f 87/87 93/93 92/92
f 87/87 95/95 94/94
f 87/87 97/97 96/96
f 87/87 99/99 98/98
f 87/87 101/101 100/100
f 102/102 103/103 104/104
f 102/102 105/105 106/106
f 102/102 107/107 108/108
f 102/102 109/109 110/110
f 102/102 111/111 112/112
f 102/102 113/113 114/114
f 102/102 115/115 116/116
f 117/117 118/118 119/119
f 117/117 119/119 120/120
f 121/121 122/122 123/123
f 121/121 123/123 124/124
f 125/125 126/126 127/127
f 125/125 127/127 128/128
f 129/129 130/130 131/131
f 129/129 131/131 132/132
f 133/133 134/134 135/135
f 133/133 135/135 136/136
f 137/137 138/138 139/139
f 137/137 139/139 140/140
f 141/141 142/142 143/143
f 141/141 143/143 144/144
f 145/145 147/147 146/146
f 145/145 149/149 148/148
f 145/145 151/151 150/150
f 145/145 153/153 152/152
f 145/145 155/155 154/154
f 145/145 157/157 156/156
f 145/145 159/159 158/158
f 160/160 161/161 162/162
f 160/160 163/163 164/164
f 160/160 165/165 166/166
f 160/160 167/167 168/168
f 160/160 169/169 170/170
f 160/160 171/171 172/172
f 160/160 173/173 174/174
usemtl Rope
f 175/175 176/176 177/177
f 175/175 177/177 178/178
f 179/179 180/180 181/181
f 179/179 181/181 182/182
f 183/183 184/184 185/185
f 183/183 185/185 186/186
f 187/187 188/188 189/189
f 187/187 189/189 190/190
f 191/191 192/192 193/193
f 191/191 193/193 194/194
f 195/195 196/196 197/197
f 195/195 197/197 198/198
f 199/199 200/200 201/201
f 199/199 201/201 202/202
f 203/203 204/204 205/205
f 203/203 205/205 206/206
f 207/207 208/208 209/209
f 207/207 209/209 210/210
f 211/211 212/212 213/213
f 211/211 213/213 214/214
f 215/215 216/216 217/217
f 215/215 217/217 218/218
f 219/219 220/220 221/221
f 219/219 221/221 222/222
f 223/223 224/224 225/225
f 223/223 225/225 226/226
f 227/227 228/228 229/229
f 227/227 229/229 230/230
f 231/231 232/232 233/233
f 231/231 233/233 234/234
f 235/235 236/236 237/237
f 235/235 237/237 238/238
f 239/239 240/240 241/241
f 239/239 241/241 242/242
f 243/243 244/244 245/245
f 243/243 245/245 246/246
f 247/247 248/248 249/249
f 247/247 249/249 250/250
f 251/251 252/252 253/253
f 251/251 253/253 254/254
f 255/255 256/256 257/257
f 255/255 257/257 258/258
f 259/259 260/260 261/261
f 259/259 261/261 262/262
f 263/263 264/264 265/265
f 263/263 265/265 266/266
f 267/267 268/268 269/269
f 267/267 269/269 270/270
f 271/271 272/272 273/273
f 271/271 273/273 274/274
f 275/275 276/276 277/277
f 275/275 277/277 278/278
f 279/279 280/280 281/281
f 279/279 281/281 282/282
f 283/283 284/284 285/285
f 283/283 285/285 286/286
f 287/287 288/288 289/289
f 287/287 289/289 290/290
f 291/291 292/292 293/293
f 291/291 293/293 294/294
f 295/295 296/296 297/297
f 295/295 297/297 298/298
f 299/299 300/300 301/301
f 299/299 301/301 302/302
f 303/303 304/304 305/305
f 303/303 305/305 306/306
f 307/307 308/308 309/309
f 307/307 309/309 310/310
f 311/311 312/312 313/313
f 311/311 313/313 314/314
f 315/315 316/316 317/317
f 315/315 317/317 318/318
f 319/319 320/320 321/321
f 319/319 321/321 322/322
f 323/323 324/324 325/325
f 323/323 325/325 326/326
f 327/327 328/328 329/329
f 327/327 329/329 330/330
f 331/331 332/332 333/333
f 331/331 333/333 334/334
f 335/335 336/336 337/337
f 335/335 337/337 338/338
f 339/339 340/340 341/341
f 339/339 341/341 342/342
f 343/343 344/344 345/345
f 343/343 345/345 346/346
f 347/347 348/348 349/349
f 347/347 349/349 350/350
f 351/351 352/352 353/353
f 351/351 353/353 354/354
f 355/355 356/356 357/357
f 355/355 357/357 358/358
f 359/359 360/360 361/361
f 359/359 361/361 362/362
f 363/363 364/364 365/365
f 363/363 365/365 366/366
f 367/367 368/368 369/369
f 367/367 369/369 370/370
f 371/371 372/372 373/373
f 371/371 373/373 374/374
f 375/375 376/376 377/377
f 375/375 377/377 378/378
f 379/379 380/380 381/381
f 379/379 381/381 382/382
f 383/383 384/384 385/385
f 383/383 385/385 386/386
f 387/387 388/388 389/389
f 387/387 389/389 390/390
f 391/391 392/392 393/393
f 391/391 393/393 394/394
f 395/395 396/396 397/397
f 395/395 397/397 398/398
