mtllib ../../../Materials/project_oen.mtl
o ax-com-002_antenna_mast_kit__deployed
v 0.000000 0.020000 0.014000
v 0.009899 0.020000 0.009899
v 0.006364 1.700000 0.006364
v 0.000000 1.700000 0.009000
v 0.009899 0.020000 0.009899
v 0.014000 0.020000 0.000000
v 0.009000 1.700000 0.000000
v 0.006364 1.700000 0.006364
v 0.014000 0.020000 0.000000
v 0.009899 0.020000 -0.009899
v 0.006364 1.700000 -0.006364
v 0.009000 1.700000 0.000000
v 0.009899 0.020000 -0.009899
v 0.000000 0.020000 -0.014000
v 0.000000 1.700000 -0.009000
v 0.006364 1.700000 -0.006364
v 0.000000 0.020000 -0.014000
v -0.009899 0.020000 -0.009899
v -0.006364 1.700000 -0.006364
v 0.000000 1.700000 -0.009000
v -0.009899 0.020000 -0.009899
v -0.014000 0.020000 -0.000000
v -0.009000 1.700000 -0.000000
v -0.006364 1.700000 -0.006364
v -0.014000 0.020000 -0.000000
v -0.009899 0.020000 0.009899
v -0.006364 1.700000 0.006364
v -0.009000 1.700000 -0.000000
v -0.009899 0.020000 0.009899
v 0.000000 0.020000 0.014000
v 0.000000 1.700000 0.009000
v -0.006364 1.700000 0.006364
v 0.000000 0.020000 0.000000
v 0.000000 0.020000 0.014000
v 0.009899 0.020000 0.009899
v 0.009899 0.020000 0.009899
v 0.014000 0.020000 0.000000
v 0.014000 0.020000 0.000000
v 0.009899 0.020000 -0.009899
v 0.009899 0.020000 -0.009899
v 0.000000 0.020000 -0.014000
v 0.000000 0.020000 -0.014000
v -0.009899 0.020000 -0.009899
v -0.009899 0.020000 -0.009899
v -0.014000 0.020000 -0.000000
v -0.014000 0.020000 -0.000000
v -0.009899 0.020000 0.009899
v -0.009899 0.020000 0.009899
v 0.000000 0.020000 0.014000
v 0.000000 1.700000 0.000000
v 0.000000 1.700000 0.009000
v 0.006364 1.700000 0.006364
v 0.006364 1.700000 0.006364
v 0.009000 1.700000 0.000000
v 0.009000 1.700000 0.000000
v 0.006364 1.700000 -0.006364
v 0.006364 1.700000 -0.006364
v 0.000000 1.700000 -0.009000
v 0.000000 1.700000 -0.009000
v -0.006364 1.700000 -0.006364
v -0.006364 1.700000 -0.006364
v -0.009000 1.700000 -0.000000
v -0.009000 1.700000 -0.000000
v -0.006364 1.700000 0.006364
v -0.006364 1.700000 0.006364
v 0.000000 1.700000 0.009000
v -0.420000 0.021120 0.018385
v -0.406647 0.015315 0.011791
v -0.255191 0.389936 -0.011133
v -0.268419 0.395687 -0.004600
v -0.406647 0.015315 0.011791
v -0.403349 0.013038 -0.003682
v -0.251924 0.387680 -0.026462
v -0.255191 0.389936 -0.011133
v -0.403349 0.013038 -0.003682
v -0.412590 0.016003 -0.016383
v -0.261078 0.390618 -0.039044
v -0.251924 0.387680 -0.026462
v -0.412590 0.016003 -0.016383
v -0.427410 0.021979 -0.016747
v -0.275760 0.396538 -0.039405
v -0.261078 0.390618 -0.039044
v -0.427410 0.021979 -0.016747
v -0.436651 0.026464 -0.004500
v -0.284915 0.400981 -0.027272
v -0.275760 0.396538 -0.039405
v -0.436651 0.026464 -0.004500
v -0.433353 0.026082 0.011135
v -0.281647 0.400602 -0.011783
v -0.284915 0.400981 -0.027272
v -0.433353 0.026082 0.011135
v -0.420000 0.021120 0.018385
v -0.268419 0.395687 -0.004600
v -0.281647 0.400602 -0.011783
v -0.420000 0.020000 0.000000
v -0.420000 0.021120 0.018385
v -0.406647 0.015315 0.011791
v -0.406647 0.015315 0.011791
v -0.403349 0.013038 -0.003682
v -0.403349 0.013038 -0.003682
v -0.412590 0.016003 -0.016383
v -0.412590 0.016003 -0.016383
v -0.427410 0.021979 -0.016747
v -0.427410 0.021979 -0.016747
v -0.436651 0.026464 -0.004500
v -0.436651 0.026464 -0.004500
v -0.433353 0.026082 0.011135
v -0.433353 0.026082 0.011135
v -0.420000 0.021120 0.018385
v -0.268419 0.394577 -0.022814
v -0.268419 0.395687 -0.004600
v -0.255191 0.389936 -0.011133
v -0.255191 0.389936 -0.011133
v -0.251924 0.387680 -0.026462
v -0.251924 0.387680 -0.026462
v -0.261078 0.390618 -0.039044
v -0.261078 0.390618 -0.039044
v -0.275760 0.396538 -0.039405
v -0.275760 0.396538 -0.039405
v -0.284915 0.400981 -0.027272
v -0.284915 0.400981 -0.027272
v -0.281647 0.400602 -0.011783
v -0.281647 0.400602 -0.011783
v -0.268419 0.395687 -0.004600
v -0.268419 0.393186 -0.002924
v -0.253470 0.389302 -0.010721
v -0.140939 0.764928 0.016483
v -0.157000 0.769101 0.024860
v -0.253470 0.389302 -0.010721
v -0.249778 0.389390 -0.027625
v -0.136972 0.765023 -0.001678
v -0.140939 0.764928 0.016483
v -0.249778 0.389390 -0.027625
v -0.260123 0.393385 -0.040906
v -0.148087 0.769315 -0.015947
v -0.136972 0.765023 -0.001678
v -0.260123 0.393385 -0.040906
v -0.276715 0.398277 -0.040563
v -0.165913 0.774571 -0.015579
v -0.148087 0.769315 -0.015947
v -0.276715 0.398277 -0.040563
v -0.287061 0.400384 -0.026855
v -0.177028 0.776835 -0.000851
v -0.165913 0.774571 -0.015579
v -0.287061 0.400384 -0.026855
v -0.283369 0.398118 -0.010104
v -0.173061 0.774400 0.017146
v -0.177028 0.776835 -0.000851
v -0.283369 0.398118 -0.010104
v -0.268419 0.393186 -0.002924
v -0.157000 0.769101 0.024860
v -0.173061 0.774400 0.017146
v -0.268419 0.394577 -0.022814
v -0.268419 0.393186 -0.002924
v -0.253470 0.389302 -0.010721
v -0.253470 0.389302 -0.010721
v -0.249778 0.389390 -0.027625
v -0.249778 0.389390 -0.027625
v -0.260123 0.393385 -0.040906
v -0.260123 0.393385 -0.040906
v -0.276715 0.398277 -0.040563
v -0.276715 0.398277 -0.040563
v -0.287061 0.400384 -0.026855
v -0.287061 0.400384 -0.026855
v -0.283369 0.398118 -0.010104
v -0.283369 0.398118 -0.010104
v -0.268419 0.393186 -0.002924
v -0.157000 0.770596 0.003491
v -0.157000 0.769101 0.024860
v -0.140939 0.764928 0.016483
v -0.140939 0.764928 0.016483
v -0.136972 0.765023 -0.001678
v -0.136972 0.765023 -0.001678
v -0.148087 0.769315 -0.015947
v -0.148087 0.769315 -0.015947
v -0.165913 0.774571 -0.015579
v -0.165913 0.774571 -0.015579
v -0.177028 0.776835 -0.000851
v -0.177028 0.776835 -0.000851
v -0.173061 0.774400 0.017146
v -0.173061 0.774400 0.017146
v -0.157000 0.769101 0.024860
v -0.157000 0.770774 0.022829
v -0.143029 0.764927 0.015601
v 0.013180 1.144651 0.011425
v 0.000000 1.150168 0.018243
v -0.143029 0.764927 0.015601
v -0.139579 0.763348 -0.000746
v 0.016435 1.143162 -0.003997
v 0.013180 1.144651 0.011425
v -0.139579 0.763348 -0.000746
v -0.149247 0.767228 -0.013903
v 0.007314 1.146822 -0.016409
v 0.016435 1.143162 -0.003997
v -0.149247 0.767228 -0.013903
v -0.164753 0.773644 -0.013962
v -0.007314 1.152875 -0.016464
v 0.007314 1.146822 -0.016409
v -0.164753 0.773644 -0.013962
v -0.174421 0.777765 -0.000879
v -0.016435 1.156763 -0.004122
v -0.007314 1.152875 -0.016464
v -0.174421 0.777765 -0.000879
v -0.170971 0.776488 0.015494
v -0.013180 1.155558 0.011324
v -0.016435 1.156763 -0.004122
v -0.170971 0.776488 0.015494
v -0.157000 0.770774 0.022829
v 0.000000 1.150168 0.018243
v -0.013180 1.155558 0.011324
v -0.157000 0.770596 0.003491
v -0.157000 0.770774 0.022829
v -0.143029 0.764927 0.015601
v -0.143029 0.764927 0.015601
v -0.139579 0.763348 -0.000746
v -0.139579 0.763348 -0.000746
v -0.149247 0.767228 -0.013903
v -0.149247 0.767228 -0.013903
v -0.164753 0.773644 -0.013962
v -0.164753 0.773644 -0.013962
v -0.174421 0.777765 -0.000879
v -0.174421 0.777765 -0.000879
v -0.170971 0.776488 0.015494
v -0.170971 0.776488 0.015494
v -0.157000 0.770774 0.022829
v 0.000000 1.150000 0.000000
v 0.000000 1.150168 0.018243
v 0.013180 1.144651 0.011425
v 0.013180 1.144651 0.011425
v 0.016435 1.143162 -0.003997
v 0.016435 1.143162 -0.003997
v 0.007314 1.146822 -0.016409
v 0.007314 1.146822 -0.016409
v -0.007314 1.152875 -0.016464
v -0.007314 1.152875 -0.016464
v -0.016435 1.156763 -0.004122
v -0.016435 1.156763 -0.004122
v -0.013180 1.155558 0.011324
v -0.013180 1.155558 0.011324
v 0.000000 1.150168 0.018243
v 0.420000 0.021199 0.018821
v 0.433818 0.025882 0.011407
v 0.299172 0.385134 -0.011936
v 0.285890 0.380632 -0.004809
v 0.433818 0.025882 0.011407
v 0.437231 0.026135 -0.004596
v 0.302453 0.385378 -0.027319
v 0.299172 0.385134 -0.011936
v 0.437231 0.026135 -0.004596
v 0.427668 0.021769 -0.017138
v 0.293261 0.381180 -0.039376
v 0.302453 0.385378 -0.027319
v 0.427668 0.021769 -0.017138
v 0.412332 0.016070 -0.016775
v 0.278518 0.375702 -0.039027
v 0.293261 0.381180 -0.039376
v 0.412332 0.016070 -0.016775
v 0.402769 0.013331 -0.003780
v 0.269326 0.373069 -0.026535
v 0.278518 0.375702 -0.039027
v 0.402769 0.013331 -0.003780
v 0.406182 0.015613 0.012062
v 0.272607 0.375263 -0.011307
v 0.269326 0.373069 -0.026535
v 0.406182 0.015613 0.012062
v 0.420000 0.021199 0.018821
v 0.285890 0.380632 -0.004809
v 0.272607 0.375263 -0.011307
v 0.420000 0.020000 0.000000
v 0.420000 0.021199 0.018821
v 0.433818 0.025882 0.011407
v 0.433818 0.025882 0.011407
v 0.437231 0.026135 -0.004596
v 0.437231 0.026135 -0.004596
v 0.427668 0.021769 -0.017138
v 0.427668 0.021769 -0.017138
v 0.412332 0.016070 -0.016775
v 0.412332 0.016070 -0.016775
v 0.402769 0.013331 -0.003780
v 0.402769 0.013331 -0.003780
v 0.406182 0.015613 0.012062
v 0.406182 0.015613 0.012062
v 0.420000 0.021199 0.018821
v 0.285890 0.379480 -0.022901
v 0.285890 0.380632 -0.004809
v 0.299172 0.385134 -0.011936
v 0.299172 0.385134 -0.011936
v 0.302453 0.385378 -0.027319
v 0.302453 0.385378 -0.027319
v 0.293261 0.381180 -0.039376
v 0.293261 0.381180 -0.039376
v 0.278518 0.375702 -0.039027
v 0.278518 0.375702 -0.039027
v 0.269326 0.373069 -0.026535
v 0.269326 0.373069 -0.026535
v 0.272607 0.375263 -0.011307
v 0.272607 0.375263 -0.011307
v 0.285890 0.380632 -0.004809
v 0.285890 0.377451 -0.002597
v 0.300814 0.383825 -0.009681
v 0.147505 0.787393 0.030584
v 0.132658 0.781052 0.037631
v 0.300814 0.383825 -0.009681
v 0.304500 0.386927 -0.026720
v 0.151171 0.790479 0.013634
v 0.147505 0.787393 0.030584
v 0.304500 0.386927 -0.026720
v 0.294172 0.384422 -0.040884
v 0.140897 0.787986 -0.000455
v 0.151171 0.790479 0.013634
v 0.294172 0.384422 -0.040884
v 0.277607 0.378195 -0.041506
v 0.124419 0.781792 -0.001075
v 0.140897 0.787986 -0.000455
v 0.277607 0.378195 -0.041506
v 0.267279 0.372936 -0.028119
v 0.114146 0.776561 0.012243
v 0.124419 0.781792 -0.001075
v 0.267279 0.372936 -0.028119
v 0.270965 0.372604 -0.010802
v 0.117812 0.776231 0.029469
v 0.114146 0.776561 0.012243
v 0.270965 0.372604 -0.010802
v 0.285890 0.377451 -0.002597
v 0.132658 0.781052 0.037631
v 0.117812 0.776231 0.029469
v 0.285890 0.379480 -0.022901
v 0.285890 0.377451 -0.002597
v 0.300814 0.383825 -0.009681
v 0.300814 0.383825 -0.009681
v 0.304500 0.386927 -0.026720
v 0.304500 0.386927 -0.026720
v 0.294172 0.384422 -0.040884
v 0.294172 0.384422 -0.040884
v 0.277607 0.378195 -0.041506
v 0.277607 0.378195 -0.041506
v 0.267279 0.372936 -0.028119
v 0.267279 0.372936 -0.028119
v 0.270965 0.372604 -0.010802
v 0.270965 0.372604 -0.010802
v 0.285890 0.377451 -0.002597
v 0.132658 0.783071 0.017433
v 0.132658 0.781052 0.037631
v 0.147505 0.787393 0.030584
v 0.147505 0.787393 0.030584
v 0.151171 0.790479 0.013634
v 0.151171 0.790479 0.013634
v 0.140897 0.787986 -0.000455
v 0.140897 0.787986 -0.000455
v 0.124419 0.781792 -0.001075
v 0.124419 0.781792 -0.001075
v 0.114146 0.776561 0.012243
v 0.114146 0.776561 0.012243
v 0.117812 0.776231 0.029469
v 0.117812 0.776231 0.029469
v 0.132658 0.781052 0.037631
v 0.132658 0.783933 0.035580
v 0.146018 0.788427 0.028518
v 0.012980 1.155205 0.010771
v 0.000000 1.150838 0.017632
v 0.146018 0.788427 0.028518
v 0.149317 0.788888 0.013109
v 0.016186 1.155652 -0.004201
v 0.012980 1.155205 0.010771
v 0.149317 0.788888 0.013109
v 0.140072 0.784968 0.000956
v 0.007203 1.151844 -0.016009
v 0.016186 1.155652 -0.004201
v 0.140072 0.784968 0.000956
v 0.125245 0.779620 0.001210
v -0.007203 1.146647 -0.015762
v 0.007203 1.151844 -0.016009
v 0.125245 0.779620 0.001210
v 0.116000 0.776870 0.013680
v -0.016186 1.143975 -0.003646
v -0.007203 1.146647 -0.015762
v 0.116000 0.776870 0.013680
v 0.119299 0.778789 0.028976
v -0.012980 1.145840 0.011216
v -0.016186 1.143975 -0.003646
v 0.119299 0.778789 0.028976
v 0.132658 0.783933 0.035580
v 0.000000 1.150838 0.017632
v -0.012980 1.145840 0.011216
v 0.132658 0.783071 0.017433
v 0.132658 0.783933 0.035580
v 0.146018 0.788427 0.028518
v 0.146018 0.788427 0.028518
v 0.149317 0.788888 0.013109
v 0.149317 0.788888 0.013109
v 0.140072 0.784968 0.000956
v 0.140072 0.784968 0.000956
v 0.125245 0.779620 0.001210
v 0.125245 0.779620 0.001210
v 0.116000 0.776870 0.013680
v 0.116000 0.776870 0.013680
v 0.119299 0.778789 0.028976
v 0.119299 0.778789 0.028976
v 0.132658 0.783933 0.035580
v 0.000000 1.150000 0.000000
v 0.000000 1.150838 0.017632
v 0.012980 1.155205 0.010771
v 0.012980 1.155205 0.010771
v 0.016186 1.155652 -0.004201
v 0.016186 1.155652 -0.004201
v 0.007203 1.151844 -0.016009
v 0.007203 1.151844 -0.016009
v -0.007203 1.146647 -0.015762
v -0.007203 1.146647 -0.015762
v -0.016186 1.143975 -0.003646
v -0.016186 1.143975 -0.003646
v -0.012980 1.145840 0.011216
v -0.012980 1.145840 0.011216
v 0.000000 1.150838 0.017632
v 0.000000 1.300000 -0.009000
v 0.000000 1.307794 -0.004500
v 0.450000 1.307794 -0.004500
v 0.450000 1.300000 -0.009000
v 0.000000 1.307794 -0.004500
v 0.000000 1.307794 0.004500
v 0.450000 1.307794 0.004500
v 0.450000 1.307794 -0.004500
v 0.000000 1.307794 0.004500
v 0.000000 1.300000 0.009000
v 0.450000 1.300000 0.009000
v 0.450000 1.307794 0.004500
v 0.000000 1.300000 0.009000
v 0.000000 1.292206 0.004500
v 0.450000 1.292206 0.004500
v 0.450000 1.300000 0.009000
v 0.000000 1.292206 0.004500
v 0.000000 1.292206 -0.004500
v 0.450000 1.292206 -0.004500
v 0.450000 1.292206 0.004500
v 0.000000 1.292206 -0.004500
v 0.000000 1.300000 -0.009000
v 0.450000 1.300000 -0.009000
v 0.450000 1.292206 -0.004500
v 0.000000 1.300000 0.000000
v 0.000000 1.300000 -0.009000
v 0.000000 1.307794 -0.004500
v 0.000000 1.307794 -0.004500
v 0.000000 1.307794 0.004500
v 0.000000 1.307794 0.004500
v 0.000000 1.300000 0.009000
v 0.000000 1.300000 0.009000
v 0.000000 1.292206 0.004500
v 0.000000 1.292206 0.004500
v 0.000000 1.292206 -0.004500
v 0.000000 1.292206 -0.004500
v 0.000000 1.300000 -0.009000
v 0.450000 1.300000 0.000000
v 0.450000 1.300000 -0.009000
v 0.450000 1.307794 -0.004500
v 0.450000 1.307794 -0.004500
v 0.450000 1.307794 0.004500
v 0.450000 1.307794 0.004500
v 0.450000 1.300000 0.009000
v 0.450000 1.300000 0.009000
v 0.450000 1.292206 0.004500
v 0.450000 1.292206 0.004500
v 0.450000 1.292206 -0.004500
v 0.450000 1.292206 -0.004500
v 0.450000 1.300000 -0.009000
v 0.000000 1.460000 0.008000
v 0.000000 1.466928 0.004000
v -0.380000 1.466928 0.004000
v -0.380000 1.460000 0.008000
v 0.000000 1.466928 0.004000
v 0.000000 1.466928 -0.004000
v -0.380000 1.466928 -0.004000
v -0.380000 1.466928 0.004000
v 0.000000 1.466928 -0.004000
v 0.000000 1.460000 -0.008000
v -0.380000 1.460000 -0.008000
v -0.380000 1.466928 -0.004000
v 0.000000 1.460000 -0.008000
v 0.000000 1.453072 -0.004000
v -0.380000 1.453072 -0.004000
v -0.380000 1.460000 -0.008000
v 0.000000 1.453072 -0.004000
v 0.000000 1.453072 0.004000
v -0.380000 1.453072 0.004000
v -0.380000 1.453072 -0.004000
v 0.000000 1.453072 0.004000
v 0.000000 1.460000 0.008000
v -0.380000 1.460000 0.008000
v -0.380000 1.453072 0.004000
v 0.000000 1.460000 0.000000
v 0.000000 1.460000 0.008000
v 0.000000 1.466928 0.004000
v 0.000000 1.466928 0.004000
v 0.000000 1.466928 -0.004000
v 0.000000 1.466928 -0.004000
v 0.000000 1.460000 -0.008000
v 0.000000 1.460000 -0.008000
v 0.000000 1.453072 -0.004000
v 0.000000 1.453072 -0.004000
v 0.000000 1.453072 0.004000
v 0.000000 1.453072 0.004000
v 0.000000 1.460000 0.008000
v -0.380000 1.460000 0.000000
v -0.380000 1.460000 0.008000
v -0.380000 1.466928 0.004000
v -0.380000 1.466928 0.004000
v -0.380000 1.466928 -0.004000
v -0.380000 1.466928 -0.004000
v -0.380000 1.460000 -0.008000
v -0.380000 1.460000 -0.008000
v -0.380000 1.453072 -0.004000
v -0.380000 1.453072 -0.004000
v -0.380000 1.453072 0.004000
v -0.380000 1.453072 0.004000
v -0.380000 1.460000 0.008000
vt 0.000000 0.000000
vt 1.000000 0.000000
vt 1.000000 1.000000
vt 0.000000 1.000000
vt 0.000000 0.000000
vt 1.000000 0.000000
vt 1.000000 1.000000
vt 0.000000 1.000000
vt 0.000000 0.000000
vt 1.000000 0.000000
vt 1.000000 1.000000
vt 0.000000 1.000000
vt 0.000000 0.000000
vt 1.000000 0.000000
vt 1.000000 1.000000
vt 0.000000 1.000000
vt 0.000000 0.000000
vt 1.000000 0.000000
vt 1.000000 1.000000
vt 0.000000 1.000000
vt 0.000000 0.000000
vt 1.000000 0.000000
vt 1.000000 1.000000
vt 0.000000 1.000000
vt 0.000000 0.000000
vt 1.000000 0.000000
vt 1.000000 1.000000
vt 0.000000 1.000000
vt 0.000000 0.000000
vt 1.000000 0.000000
vt 1.000000 1.000000
vt 0.000000 1.000000
vt 0.500000 0.500000
vt 0.000000 0.000000
vt 1.000000 0.000000
vt 0.000000 0.000000
vt 1.000000 0.000000
vt 0.000000 0.000000
vt 1.000000 0.000000
vt 0.000000 0.000000
vt 1.000000 0.000000
vt 0.000000 0.000000
vt 1.000000 0.000000
vt 0.000000 0.000000
vt 1.000000 0.000000
vt 0.000000 0.000000
vt 1.000000 0.000000
vt 0.000000 0.000000
vt 1.000000 0.000000
vt 0.500000 0.500000
vt 0.000000 0.000000
vt 1.000000 0.000000
vt 0.000000 0.000000
vt 1.000000 0.000000
vt 0.000000 0.000000
vt 1.000000 0.000000
vt 0.000000 0.000000
vt 1.000000 0.000000
vt 0.000000 0.000000
vt 1.000000 0.000000
vt 0.000000 0.000000
vt 1.000000 0.000000
vt 0.000000 0.000000
vt 1.000000 0.000000
vt 0.000000 0.000000
vt 1.000000 0.000000
vt 0.000000 0.000000
vt 1.000000 0.000000
vt 1.000000 1.000000
vt 0.000000 1.000000
vt 0.000000 0.000000
vt 1.000000 0.000000
vt 1.000000 1.000000
vt 0.000000 1.000000
vt 0.000000 0.000000
vt 1.000000 0.000000
vt 1.000000 1.000000
vt 0.000000 1.000000
vt 0.000000 0.000000
vt 1.000000 0.000000
vt 1.000000 1.000000
vt 0.000000 1.000000
vt 0.000000 0.000000
vt 1.000000 0.000000
vt 1.000000 1.000000
vt 0.000000 1.000000
vt 0.000000 0.000000
vt 1.000000 0.000000
vt 1.000000 1.000000
vt 0.000000 1.000000
vt 0.000000 0.000000
vt 1.000000 0.000000
vt 1.000000 1.000000
vt 0.000000 1.000000
vt 0.500000 0.500000
vt 0.000000 0.000000
vt 1.000000 0.000000
vt 0.000000 0.000000
vt 1.000000 0.000000
vt 0.000000 0.000000
vt 1.000000 0.000000
vt 0.000000 0.000000
vt 1.000000 0.000000
vt 0.000000 0.000000
vt 1.000000 0.000000
vt 0.000000 0.000000
vt 1.000000 0.000000
vt 0.000000 0.000000
vt 1.000000 0.000000
vt 0.500000 0.500000
vt 0.000000 0.000000
vt 1.000000 0.000000
vt 0.000000 0.000000
vt 1.000000 0.000000
vt 0.000000 0.000000
vt 1.000000 0.000000
vt 0.000000 0.000000
vt 1.000000 0.000000
vt 0.000000 0.000000
vt 1.000000 0.000000
vt 0.000000 0.000000
vt 1.000000 0.000000
vt 0.000000 0.000000
vt 1.000000 0.000000
vt 0.000000 0.000000
vt 1.000000 0.000000
vt 1.000000 1.000000
vt 0.000000 1.000000
vt 0.000000 0.000000
vt 1.000000 0.000000
vt 1.000000 1.000000
vt 0.000000 1.000000
vt 0.000000 0.000000
vt 1.000000 0.000000
vt 1.000000 1.000000
vt 0.000000 1.000000
vt 0.000000 0.000000
vt 1.000000 0.000000
vt 1.000000 1.000000
vt 0.000000 1.000000
vt 0.000000 0.000000
vt 1.000000 0.000000
vt 1.000000 1.000000
vt 0.000000 1.000000
vt 0.000000 0.000000
vt 1.000000 0.000000
vt 1.000000 1.000000
vt 0.000000 1.000000
vt 0.000000 0.000000
vt 1.000000 0.000000
vt 1.000000 1.000000
vt 0.000000 1.000000
vt 0.500000 0.500000
vt 0.000000 0.000000
vt 1.000000 0.000000
vt 0.000000 0.000000
vt 1.000000 0.000000
vt 0.000000 0.000000
vt 1.000000 0.000000
vt 0.000000 0.000000
vt 1.000000 0.000000
vt 0.000000 0.000000
vt 1.000000 0.000000
vt 0.000000 0.000000
vt 1.000000 0.000000
vt 0.000000 0.000000
vt 1.000000 0.000000
vt 0.500000 0.500000
vt 0.000000 0.000000
vt 1.000000 0.000000
vt 0.000000 0.000000
vt 1.000000 0.000000
vt 0.000000 0.000000
vt 1.000000 0.000000
vt 0.000000 0.000000
vt 1.000000 0.000000
vt 0.000000 0.000000
vt 1.000000 0.000000
vt 0.000000 0.000000
vt 1.000000 0.000000
vt 0.000000 0.000000
vt 1.000000 0.000000
vt 0.000000 0.000000
vt 1.000000 0.000000
vt 1.000000 1.000000
vt 0.000000 1.000000
vt 0.000000 0.000000
vt 1.000000 0.000000
vt 1.000000 1.000000
vt 0.000000 1.000000
vt 0.000000 0.000000
vt 1.000000 0.000000
vt 1.000000 1.000000
vt 0.000000 1.000000
vt 0.000000 0.000000
vt 1.000000 0.000000
vt 1.000000 1.000000
vt 0.000000 1.000000
vt 0.000000 0.000000
vt 1.000000 0.000000
vt 1.000000 1.000000
vt 0.000000 1.000000
vt 0.000000 0.000000
vt 1.000000 0.000000
vt 1.000000 1.000000
vt 0.000000 1.000000
vt 0.000000 0.000000
vt 1.000000 0.000000
vt 1.000000 1.000000
vt 0.000000 1.000000
vt 0.500000 0.500000
vt 0.000000 0.000000
vt 1.000000 0.000000
vt 0.000000 0.000000
vt 1.000000 0.000000
vt 0.000000 0.000000
vt 1.000000 0.000000
vt 0.000000 0.000000
vt 1.000000 0.000000
vt 0.000000 0.000000
vt 1.000000 0.000000
vt 0.000000 0.000000
vt 1.000000 0.000000
vt 0.000000 0.000000
vt 1.000000 0.000000
vt 0.500000 0.500000
vt 0.000000 0.000000
vt 1.000000 0.000000
vt 0.000000 0.000000
vt 1.000000 0.000000
vt 0.000000 0.000000
vt 1.000000 0.000000
vt 0.000000 0.000000
vt 1.000000 0.000000
vt 0.000000 0.000000
vt 1.000000 0.000000
vt 0.000000 0.000000
vt 1.000000 0.000000
vt 0.000000 0.000000
vt 1.000000 0.000000
vt 0.000000 0.000000
vt 1.000000 0.000000
vt 1.000000 1.000000
vt 0.000000 1.000000
vt 0.000000 0.000000
vt 1.000000 0.000000
vt 1.000000 1.000000
vt 0.000000 1.000000
vt 0.000000 0.000000
vt 1.000000 0.000000
vt 1.000000 1.000000
vt 0.000000 1.000000
vt 0.000000 0.000000
vt 1.000000 0.000000
vt 1.000000 1.000000
vt 0.000000 1.000000
vt 0.000000 0.000000
vt 1.000000 0.000000
vt 1.000000 1.000000
vt 0.000000 1.000000
vt 0.000000 0.000000
vt 1.000000 0.000000
vt 1.000000 1.000000
vt 0.000000 1.000000
vt 0.000000 0.000000
vt 1.000000 0.000000
vt 1.000000 1.000000
vt 0.000000 1.000000
vt 0.500000 0.500000
vt 0.000000 0.000000
vt 1.000000 0.000000
vt 0.000000 0.000000
vt 1.000000 0.000000
vt 0.000000 0.000000
vt 1.000000 0.000000
vt 0.000000 0.000000
vt 1.000000 0.000000
vt 0.000000 0.000000
vt 1.000000 0.000000
vt 0.000000 0.000000
vt 1.000000 0.000000
vt 0.000000 0.000000
vt 1.000000 0.000000
vt 0.500000 0.500000
vt 0.000000 0.000000
vt 1.000000 0.000000
vt 0.000000 0.000000
vt 1.000000 0.000000
vt 0.000000 0.000000
vt 1.000000 0.000000
vt 0.000000 0.000000
vt 1.000000 0.000000
vt 0.000000 0.000000
vt 1.000000 0.000000
vt 0.000000 0.000000
vt 1.000000 0.000000
vt 0.000000 0.000000
vt 1.000000 0.000000
vt 0.000000 0.000000
vt 1.000000 0.000000
vt 1.000000 1.000000
vt 0.000000 1.000000
vt 0.000000 0.000000
vt 1.000000 0.000000
vt 1.000000 1.000000
vt 0.000000 1.000000
vt 0.000000 0.000000
vt 1.000000 0.000000
vt 1.000000 1.000000
vt 0.000000 1.000000
vt 0.000000 0.000000
vt 1.000000 0.000000
vt 1.000000 1.000000
vt 0.000000 1.000000
vt 0.000000 0.000000
vt 1.000000 0.000000
vt 1.000000 1.000000
vt 0.000000 1.000000
vt 0.000000 0.000000
vt 1.000000 0.000000
vt 1.000000 1.000000
vt 0.000000 1.000000
vt 0.000000 0.000000
vt 1.000000 0.000000
vt 1.000000 1.000000
vt 0.000000 1.000000
vt 0.500000 0.500000
vt 0.000000 0.000000
vt 1.000000 0.000000
vt 0.000000 0.000000
vt 1.000000 0.000000
vt 0.000000 0.000000
vt 1.000000 0.000000
vt 0.000000 0.000000
vt 1.000000 0.000000
vt 0.000000 0.000000
vt 1.000000 0.000000
vt 0.000000 0.000000
vt 1.000000 0.000000
vt 0.000000 0.000000
vt 1.000000 0.000000
vt 0.500000 0.500000
vt 0.000000 0.000000
vt 1.000000 0.000000
vt 0.000000 0.000000
vt 1.000000 0.000000
vt 0.000000 0.000000
vt 1.000000 0.000000
vt 0.000000 0.000000
vt 1.000000 0.000000
vt 0.000000 0.000000
vt 1.000000 0.000000
vt 0.000000 0.000000
vt 1.000000 0.000000
vt 0.000000 0.000000
vt 1.000000 0.000000
vt 0.000000 0.000000
vt 1.000000 0.000000
vt 1.000000 1.000000
vt 0.000000 1.000000
vt 0.000000 0.000000
vt 1.000000 0.000000
vt 1.000000 1.000000
vt 0.000000 1.000000
vt 0.000000 0.000000
vt 1.000000 0.000000
vt 1.000000 1.000000
vt 0.000000 1.000000
vt 0.000000 0.000000
vt 1.000000 0.000000
vt 1.000000 1.000000
vt 0.000000 1.000000
vt 0.000000 0.000000
vt 1.000000 0.000000
vt 1.000000 1.000000
vt 0.000000 1.000000
vt 0.000000 0.000000
vt 1.000000 0.000000
vt 1.000000 1.000000
vt 0.000000 1.000000
vt 0.000000 0.000000
vt 1.000000 0.000000
vt 1.000000 1.000000
vt 0.000000 1.000000
vt 0.500000 0.500000
vt 0.000000 0.000000
vt 1.000000 0.000000
vt 0.000000 0.000000
vt 1.000000 0.000000
vt 0.000000 0.000000
vt 1.000000 0.000000
vt 0.000000 0.000000
vt 1.000000 0.000000
vt 0.000000 0.000000
vt 1.000000 0.000000
vt 0.000000 0.000000
vt 1.000000 0.000000
vt 0.000000 0.000000
vt 1.000000 0.000000
vt 0.500000 0.500000
vt 0.000000 0.000000
vt 1.000000 0.000000
vt 0.000000 0.000000
vt 1.000000 0.000000
vt 0.000000 0.000000
vt 1.000000 0.000000
vt 0.000000 0.000000
vt 1.000000 0.000000
vt 0.000000 0.000000
vt 1.000000 0.000000
vt 0.000000 0.000000
vt 1.000000 0.000000
vt 0.000000 0.000000
vt 1.000000 0.000000
vt 0.000000 0.000000
vt 1.000000 0.000000
vt 1.000000 1.000000
vt 0.000000 1.000000
vt 0.000000 0.000000
vt 1.000000 0.000000
vt 1.000000 1.000000
vt 0.000000 1.000000
vt 0.000000 0.000000
vt 1.000000 0.000000
vt 1.000000 1.000000
vt 0.000000 1.000000
vt 0.000000 0.000000
vt 1.000000 0.000000
vt 1.000000 1.000000
vt 0.000000 1.000000
vt 0.000000 0.000000
vt 1.000000 0.000000
vt 1.000000 1.000000
vt 0.000000 1.000000
vt 0.000000 0.000000
vt 1.000000 0.000000
vt 1.000000 1.000000
vt 0.000000 1.000000
vt 0.500000 0.500000
vt 0.000000 0.000000
vt 1.000000 0.000000
vt 0.000000 0.000000
vt 1.000000 0.000000
vt 0.000000 0.000000
vt 1.000000 0.000000
vt 0.000000 0.000000
vt 1.000000 0.000000
vt 0.000000 0.000000
vt 1.000000 0.000000
vt 0.000000 0.000000
vt 1.000000 0.000000
vt 0.500000 0.500000
vt 0.000000 0.000000
vt 1.000000 0.000000
vt 0.000000 0.000000
vt 1.000000 0.000000
vt 0.000000 0.000000
vt 1.000000 0.000000
vt 0.000000 0.000000
vt 1.000000 0.000000
vt 0.000000 0.000000
vt 1.000000 0.000000
vt 0.000000 0.000000
vt 1.000000 0.000000
vt 0.000000 0.000000
vt 1.000000 0.000000
vt 1.000000 1.000000
vt 0.000000 1.000000
vt 0.000000 0.000000
vt 1.000000 0.000000
vt 1.000000 1.000000
vt 0.000000 1.000000
vt 0.000000 0.000000
vt 1.000000 0.000000
vt 1.000000 1.000000
vt 0.000000 1.000000
vt 0.000000 0.000000
vt 1.000000 0.000000
vt 1.000000 1.000000
vt 0.000000 1.000000
vt 0.000000 0.000000
vt 1.000000 0.000000
vt 1.000000 1.000000
vt 0.000000 1.000000
vt 0.000000 0.000000
vt 1.000000 0.000000
vt 1.000000 1.000000
vt 0.000000 1.000000
vt 0.500000 0.500000
vt 0.000000 0.000000
vt 1.000000 0.000000
vt 0.000000 0.000000
vt 1.000000 0.000000
vt 0.000000 0.000000
vt 1.000000 0.000000
vt 0.000000 0.000000
vt 1.000000 0.000000
vt 0.000000 0.000000
vt 1.000000 0.000000
vt 0.000000 0.000000
vt 1.000000 0.000000
vt 0.500000 0.500000
vt 0.000000 0.000000
vt 1.000000 0.000000
vt 0.000000 0.000000
vt 1.000000 0.000000
vt 0.000000 0.000000
vt 1.000000 0.000000
vt 0.000000 0.000000
vt 1.000000 0.000000
vt 0.000000 0.000000
vt 1.000000 0.000000
vt 0.000000 0.000000
vt 1.000000 0.000000
usemtl Metal
f 1/1 2/2 3/3
f 1/1 3/3 4/4
f 5/5 6/6 7/7
f 5/5 7/7 8/8
f 9/9 10/10 11/11
f 9/9 11/11 12/12
f 13/13 14/14 15/15
f 13/13 15/15 16/16
f 17/17 18/18 19/19
f 17/17 19/19 20/20
f 21/21 22/22 23/23
f 21/21 23/23 24/24
f 25/25 26/26 27/27
f 25/25 27/27 28/28
f 29/29 30/30 31/31
f 29/29 31/31 32/32
f 33/33 35/35 34/34
f 33/33 37/37 36/36
f 33/33 39/39 38/38
f 33/33 41/41 40/40
f 33/33 43/43 42/42
f 33/33 45/45 44/44
f 33/33 47/47 46/46
f 33/33 49/49 48/48
f 50/50 51/51 52/52
f 50/50 53/53 54/54
f 50/50 55/55 56/56
f 50/50 57/57 58/58
f 50/50 59/59 60/60
f 50/50 61/61 62/62
f 50/50 63/63 64/64
f 50/50 65/65 66/66
usemtl Wood
f 67/67 68/68 69/69
f 67/67 69/69 70/70
f 71/71 72/72 73/73
f 71/71 73/73 74/74
f 75/75 76/76 77/77
f 75/75 77/77 78/78
f 79/79 80/80 81/81
f 79/79 81/81 82/82
f 83/83 84/84 85/85
f 83/83 85/85 86/86
f 87/87 88/88 89/89
f 87/87 89/89 90/90
f 91/91 92/92 93/93
f 91/91 93/93 94/94
f 95/95 97/97 96/96
f 95/95 99/99 98/98
f 95/95 101/101 100/100
f 95/95 103/103 102/102
f 95/95 105/105 104/104
f 95/95 107/107 106/106
f 95/95 109/109 108/108
f 110/110 111/111 112/112
f 110/110 113/113 114/114
f 110/110 115/115 116/116
f 110/110 117/117 118/118
f 110/110 119/119 120/120
f 110/110 121/121 122/122
f 110/110 123/123 124/124
f 125/125 126/126 127/127
f 125/125 127/127 128/128
f 129/129 130/130 131/131
f 129/129 131/131 132/132
f 133/133 134/134 135/135
f 133/133 135/135 136/136
f 137/137 138/138 139/139
f 137/137 139/139 140/140
f 141/141 142/142 143/143
f 141/141 143/143 144/144
f 145/145 146/146 147/147
f 145/145 147/147 148/148
f 149/149 150/150 151/151
f 149/149 151/151 152/152
f 153/153 155/155 154/154
f 153/153 157/157 156/156
f 153/153 159/159 158/158
f 153/153 161/161 160/160
f 153/153 163/163 162/162
f 153/153 165/165 164/164
f 153/153 167/167 166/166
f 168/168 169/169 170/170
f 168/168 171/171 172/172
f 168/168 173/173 174/174
f 168/168 175/175 176/176
f 168/168 177/177 178/178
f 168/168 179/179 180/180
f 168/168 181/181 182/182
f 183/183 184/184 185/185
f 183/183 185/185 186/186
f 187/187 188/188 189/189
f 187/187 189/189 190/190
f 191/191 192/192 193/193
f 191/191 193/193 194/194
f 195/195 196/196 197/197
f 195/195 197/197 198/198
f 199/199 200/200 201/201
f 199/199 201/201 202/202
f 203/203 204/204 205/205
f 203/203 205/205 206/206
f 207/207 208/208 209/209
f 207/207 209/209 210/210
f 211/211 213/213 212/212
f 211/211 215/215 214/214
f 211/211 217/217 216/216
f 211/211 219/219 218/218
f 211/211 221/221 220/220
f 211/211 223/223 222/222
f 211/211 225/225 224/224
f 226/226 227/227 228/228
f 226/226 229/229 230/230
f 226/226 231/231 232/232
f 226/226 233/233 234/234
f 226/226 235/235 236/236
f 226/226 237/237 238/238
f 226/226 239/239 240/240
f 241/241 242/242 243/243
f 241/241 243/243 244/244
f 245/245 246/246 247/247
f 245/245 247/247 248/248
f 249/249 250/250 251/251
f 249/249 251/251 252/252
f 253/253 254/254 255/255
f 253/253 255/255 256/256
f 257/257 258/258 259/259
f 257/257 259/259 260/260
f 261/261 262/262 263/263
f 261/261 263/263 264/264
f 265/265 266/266 267/267
f 265/265 267/267 268/268
f 269/269 271/271 270/270
f 269/269 273/273 272/272
f 269/269 275/275 274/274
f 269/269 277/277 276/276
f 269/269 279/279 278/278
f 269/269 281/281 280/280
f 269/269 283/283 282/282
f 284/284 285/285 286/286
f 284/284 287/287 288/288
f 284/284 289/289 290/290
f 284/284 291/291 292/292
f 284/284 293/293 294/294
f 284/284 295/295 296/296
f 284/284 297/297 298/298
f 299/299 300/300 301/301
f 299/299 301/301 302/302
f 303/303 304/304 305/305
f 303/303 305/305 306/306
f 307/307 308/308 309/309
f 307/307 309/309 310/310
f 311/311 312/312 313/313
f 311/311 313/313 314/314
f 315/315 316/316 317/317
f 315/315 317/317 318/318
f 319/319 320/320 321/321
f 319/319 321/321 322/322
f 323/323 324/324 325/325
f 323/323 325/325 326/326
f 327/327 329/329 328/328
f 327/327 331/331 330/330
f 327/327 333/333 332/332
f 327/327 335/335 334/334
f 327/327 337/337 336/336
f 327/327 339/339 338/338
f 327/327 341/341 340/340
f 342/342 343/343 344/344
f 342/342 345/345 346/346
f 342/342 347/347 348/348
f 342/342 349/349 350/350
f 342/342 351/351 352/352
f 342/342 353/353 354/354
f 342/342 355/355 356/356
f 357/357 358/358 359/359
f 357/357 359/359 360/360
f 361/361 362/362 363/363
f 361/361 363/363 364/364
f 365/365 366/366 367/367
f 365/365 367/367 368/368
f 369/369 370/370 371/371
f 369/369 371/371 372/372
f 373/373 374/374 375/375
f 373/373 375/375 376/376
f 377/377 378/378 379/379
f 377/377 379/379 380/380
f 381/381 382/382 383/383
f 381/381 383/383 384/384
f 385/385 387/387 386/386
f 385/385 389/389 388/388
f 385/385 391/391 390/390
f 385/385 393/393 392/392
f 385/385 395/395 394/394
f 385/385 397/397 396/396
f 385/385 399/399 398/398
f 400/400 401/401 402/402
f 400/400 403/403 404/404
f 400/400 405/405 406/406
f 400/400 407/407 408/408
f 400/400 409/409 410/410
f 400/400 411/411 412/412
f 400/400 413/413 414/414
usemtl Metal
f 415/415 416/416 417/417
f 415/415 417/417 418/418
f 419/419 420/420 421/421
f 419/419 421/421 422/422
f 423/423 424/424 425/425
f 423/423 425/425 426/426
f 427/427 428/428 429/429
f 427/427 429/429 430/430
f 431/431 432/432 433/433
f 431/431 433/433 434/434
f 435/435 436/436 437/437
f 435/435 437/437 438/438
f 439/439 441/441 440/440
f 439/439 443/443 442/442
f 439/439 445/445 444/444
f 439/439 447/447 446/446
f 439/439 449/449 448/448
f 439/439 451/451 450/450
f 452/452 453/453 454/454
f 452/452 455/455 456/456
f 452/452 457/457 458/458
f 452/452 459/459 460/460
f 452/452 461/461 462/462
f 452/452 463/463 464/464
f 465/465 466/466 467/467
f 465/465 467/467 468/468
f 469/469 470/470 471/471
f 469/469 471/471 472/472
f 473/473 474/474 475/475
f 473/473 475/475 476/476
f 477/477 478/478 479/479
f 477/477 479/479 480/480
f 481/481 482/482 483/483
f 481/481 483/483 484/484
f 485/485 486/486 487/487
f 485/485 487/487 488/488
f 489/489 491/491 490/490
f 489/489 493/493 492/492
f 489/489 495/495 494/494
f 489/489 497/497 496/496
f 489/489 499/499 498/498
f 489/489 501/501 500/500
f 502/502 503/503 504/504
f 502/502 505/505 506/506
f 502/502 507/507 508/508
f 502/502 509/509 510/510
f 502/502 511/511 512/512
f 502/502 513/513 514/514
