# PROJECT OEN production source mesh: ENV_WRECKAGE_001
mtllib ENV_WRECKAGE_001.mtl
s off
v -1.440332 0.201077 -1.370000
v -1.440332 0.201077 -1.530000
v -1.414168 0.358923 -1.370000
v -1.414168 0.358923 -1.530000
v -0.113082 -0.018923 -1.370000
v -0.113082 -0.018923 -1.530000
v -0.086918 0.138923 -1.370000
v -0.086918 0.138923 -1.530000
v 0.113082 -0.018923 -1.370000
v 0.113082 -0.018923 -1.530000
v 0.086918 0.138923 -1.370000
v 0.086918 0.138923 -1.530000
v 1.440332 0.201077 -1.370000
v 1.440332 0.201077 -1.530000
v 1.414168 0.358923 -1.370000
v 1.414168 0.358923 -1.530000
v -1.513906 0.200968 -0.890000
v -1.513906 0.200968 -1.050000
v -1.489094 0.359032 -0.890000
v -1.489094 0.359032 -1.050000
v -0.112406 -0.019032 -0.890000
v -0.112406 -0.019032 -1.050000
v -0.087594 0.139032 -0.890000
v -0.087594 0.139032 -1.050000
v 0.112406 -0.019032 -0.890000
v 0.112406 -0.019032 -1.050000
v 0.087594 0.139032 -0.890000
v 0.087594 0.139032 -1.050000
v 1.513906 0.200968 -0.890000
v 1.513906 0.200968 -1.050000
v 1.489094 0.359032 -0.890000
v 1.489094 0.359032 -1.050000
v -1.587546 0.200874 -0.410000
v -1.587546 0.200874 -0.570000
v -1.563954 0.359126 -0.410000
v -1.563954 0.359126 -0.570000
v -0.111796 -0.019126 -0.410000
v -0.111796 -0.019126 -0.570000
v -0.088204 0.139126 -0.410000
v -0.088204 0.139126 -0.570000
v 0.111796 -0.019126 -0.410000
v 0.111796 -0.019126 -0.570000
v 0.088204 0.139126 -0.410000
v 0.088204 0.139126 -0.570000
v 1.587546 0.200874 -0.410000
v 1.587546 0.200874 -0.570000
v 1.563954 0.359126 -0.410000
v 1.563954 0.359126 -0.570000
v -1.661242 0.200794 0.070000
v -1.661242 0.200794 -0.090000
v -1.638758 0.359206 0.070000
v -1.638758 0.359206 -0.090000
v -0.111242 -0.019206 0.070000
v -0.111242 -0.019206 -0.090000
v -0.088758 0.139206 0.070000
v -0.088758 0.139206 -0.090000
v 0.111242 -0.019206 0.070000
v 0.111242 -0.019206 -0.090000
v 0.088758 0.139206 0.070000
v 0.088758 0.139206 -0.090000
v 1.661242 0.200794 0.070000
v 1.661242 0.200794 -0.090000
v 1.638758 0.359206 0.070000
v 1.638758 0.359206 -0.090000
v -1.587546 0.200874 0.550000
v -1.587546 0.200874 0.390000
v -1.563954 0.359126 0.550000
v -1.563954 0.359126 0.390000
v -0.111796 -0.019126 0.550000
v -0.111796 -0.019126 0.390000
v -0.088204 0.139126 0.550000
v -0.088204 0.139126 0.390000
v 0.111796 -0.019126 0.550000
v 0.111796 -0.019126 0.390000
v 0.088204 0.139126 0.550000
v 0.088204 0.139126 0.390000
v 1.587546 0.200874 0.550000
v 1.587546 0.200874 0.390000
v 1.563954 0.359126 0.550000
v 1.563954 0.359126 0.390000
v -1.513906 0.200968 1.030000
v -1.513906 0.200968 0.870000
v -1.489094 0.359032 1.030000
v -1.489094 0.359032 0.870000
v -0.112406 -0.019032 1.030000
v -0.112406 -0.019032 0.870000
v -0.087594 0.139032 1.030000
v -0.087594 0.139032 0.870000
v 0.112406 -0.019032 1.030000
v 0.112406 -0.019032 0.870000
v 0.087594 0.139032 1.030000
v 0.087594 0.139032 0.870000
v 1.513906 0.200968 1.030000
v 1.513906 0.200968 0.870000
v 1.489094 0.359032 1.030000
v 1.489094 0.359032 0.870000
v -1.440332 0.201077 1.510000
v -1.440332 0.201077 1.350000
v -1.414168 0.358923 1.510000
v -1.414168 0.358923 1.350000
v -0.113082 -0.018923 1.510000
v -0.113082 -0.018923 1.350000
v -0.086918 0.138923 1.510000
v -0.086918 0.138923 1.350000
v 0.113082 -0.018923 1.510000
v 0.113082 -0.018923 1.350000
v 0.086918 0.138923 1.510000
v 0.086918 0.138923 1.350000
v 1.440332 0.201077 1.510000
v 1.440332 0.201077 1.350000
v 1.414168 0.358923 1.510000
v 1.414168 0.358923 1.350000
v -1.317235 0.249736 -1.190000
v -1.317235 0.249736 -1.310000
v -1.382765 0.350264 -1.190000
v -1.382765 0.350264 -1.310000
v 0.032765 1.129736 -1.190000
v 0.032765 1.129736 -1.310000
v -0.032765 1.230264 -1.190000
v -0.032765 1.230264 -1.310000
v 1.317235 0.249736 -1.310000
v 1.317235 0.249736 -1.190000
v 1.382765 0.350264 -1.310000
v 1.382765 0.350264 -1.190000
v -0.032765 1.129736 -1.310000
v -0.032765 1.129736 -1.190000
v 0.032765 1.230264 -1.310000
v 0.032765 1.230264 -1.190000
v -1.317235 0.249736 -0.390000
v -1.317235 0.249736 -0.510000
v -1.382765 0.350264 -0.390000
v -1.382765 0.350264 -0.510000
v 0.032765 1.129736 -0.390000
v 0.032765 1.129736 -0.510000
v -0.032765 1.230264 -0.390000
v -0.032765 1.230264 -0.510000
v 1.317235 0.249736 -0.510000
v 1.317235 0.249736 -0.390000
v 1.382765 0.350264 -0.510000
v 1.382765 0.350264 -0.390000
v -0.032765 1.129736 -0.510000
v -0.032765 1.129736 -0.390000
v 0.032765 1.230264 -0.510000
v 0.032765 1.230264 -0.390000
v -1.317235 0.249736 0.510000
v -1.317235 0.249736 0.390000
v -1.382765 0.350264 0.510000
v -1.382765 0.350264 0.390000
v 0.032765 1.129736 0.510000
v 0.032765 1.129736 0.390000
v -0.032765 1.230264 0.510000
v -0.032765 1.230264 0.390000
v 1.317235 0.249736 0.390000
v 1.317235 0.249736 0.510000
v 1.382765 0.350264 0.390000
v 1.382765 0.350264 0.510000
v -0.032765 1.129736 0.390000
v -0.032765 1.129736 0.510000
v 0.032765 1.230264 0.390000
v 0.032765 1.230264 0.510000
v -1.317235 0.249736 1.310000
v -1.317235 0.249736 1.190000
v -1.382765 0.350264 1.310000
v -1.382765 0.350264 1.190000
v 0.032765 1.129736 1.310000
v 0.032765 1.129736 1.190000
v -0.032765 1.230264 1.310000
v -0.032765 1.230264 1.190000
v 1.317235 0.249736 1.190000
v 1.317235 0.249736 1.310000
v 1.382765 0.350264 1.190000
v 1.382765 0.350264 1.310000
v -0.032765 1.129736 1.190000
v -0.032765 1.129736 1.310000
v 0.032765 1.230264 1.190000
v 0.032765 1.230264 1.310000
v -0.278714 0.234288 0.070000
v -0.278714 0.234288 0.230000
v -0.121286 0.205712 0.070000
v -0.121286 0.205712 0.230000
v 0.271286 3.264288 0.070000
v 0.271286 3.264288 0.230000
v 0.428714 3.235712 0.070000
v 0.428714 3.235712 0.230000
v -0.639453 2.240934 0.210000
v -0.639453 2.240934 0.090000
v -0.660547 2.359066 0.210000
v -0.660547 2.359066 0.090000
v 0.760547 2.490934 0.210000
v 0.760547 2.490934 0.090000
v 0.739453 2.609066 0.210000
v 0.739453 2.609066 0.090000
v -1.275000 0.260000 -1.515000
v 1.275000 0.260000 -1.515000
v 1.275000 0.360000 -1.515000
v -1.275000 0.360000 -1.515000
v -1.275000 0.260000 -1.445000
v 1.275000 0.260000 -1.445000
v 1.275000 0.360000 -1.445000
v -1.275000 0.360000 -1.445000
vt 0.000000 0.000000
vt 1.000000 0.000000
vt 1.000000 1.000000
vt 0.000000 1.000000
vt 0.000000 0.000000
vt 1.000000 0.000000
vt 1.000000 1.000000
vt 0.000000 1.000000
vt 0.000000 0.000000
vt 1.000000 0.000000
vt 1.000000 1.000000
vt 0.000000 1.000000
vt 0.000000 0.000000
vt 1.000000 0.000000
vt 1.000000 1.000000
vt 0.000000 1.000000
vt 0.000000 0.000000
vt 1.000000 0.000000
vt 1.000000 1.000000
vt 0.000000 1.000000
vt 0.000000 0.000000
vt 1.000000 0.000000
vt 1.000000 1.000000
vt 0.000000 1.000000
vt 0.000000 0.000000
vt 1.000000 0.000000
vt 1.000000 1.000000
vt 0.000000 1.000000
vt 0.000000 0.000000
vt 1.000000 0.000000
vt 1.000000 1.000000
vt 0.000000 1.000000
vt 0.000000 0.000000
vt 1.000000 0.000000
vt 1.000000 1.000000
vt 0.000000 1.000000
vt 0.000000 0.000000
vt 1.000000 0.000000
vt 1.000000 1.000000
vt 0.000000 1.000000
vt 0.000000 0.000000
vt 1.000000 0.000000
vt 1.000000 1.000000
vt 0.000000 1.000000
vt 0.000000 0.000000
vt 1.000000 0.000000
vt 1.000000 1.000000
vt 0.000000 1.000000
vt 0.000000 0.000000
vt 1.000000 0.000000
vt 1.000000 1.000000
vt 0.000000 1.000000
vt 0.000000 0.000000
vt 1.000000 0.000000
vt 1.000000 1.000000
vt 0.000000 1.000000
vt 0.000000 0.000000
vt 1.000000 0.000000
vt 1.000000 1.000000
vt 0.000000 1.000000
vt 0.000000 0.000000
vt 1.000000 0.000000
vt 1.000000 1.000000
vt 0.000000 1.000000
vt 0.000000 0.000000
vt 1.000000 0.000000
vt 1.000000 1.000000
vt 0.000000 1.000000
vt 0.000000 0.000000
vt 1.000000 0.000000
vt 1.000000 1.000000
vt 0.000000 1.000000
vt 0.000000 0.000000
vt 1.000000 0.000000
vt 1.000000 1.000000
vt 0.000000 1.000000
vt 0.000000 0.000000
vt 1.000000 0.000000
vt 1.000000 1.000000
vt 0.000000 1.000000
vt 0.000000 0.000000
vt 1.000000 0.000000
vt 1.000000 1.000000
vt 0.000000 1.000000
vt 0.000000 0.000000
vt 1.000000 0.000000
vt 1.000000 1.000000
vt 0.000000 1.000000
vt 0.000000 0.000000
vt 1.000000 0.000000
vt 1.000000 1.000000
vt 0.000000 1.000000
vt 0.000000 0.000000
vt 1.000000 0.000000
vt 1.000000 1.000000
vt 0.000000 1.000000
vt 0.000000 0.000000
vt 1.000000 0.000000
vt 1.000000 1.000000
vt 0.000000 1.000000
vt 0.000000 0.000000
vt 1.000000 0.000000
vt 1.000000 1.000000
vt 0.000000 1.000000
vt 0.000000 0.000000
vt 1.000000 0.000000
vt 1.000000 1.000000
vt 0.000000 1.000000
vt 0.000000 0.000000
vt 1.000000 0.000000
vt 1.000000 1.000000
vt 0.000000 1.000000
vt 0.000000 0.000000
vt 1.000000 0.000000
vt 1.000000 1.000000
vt 0.000000 1.000000
vt 0.000000 0.000000
vt 1.000000 0.000000
vt 1.000000 1.000000
vt 0.000000 1.000000
vt 0.000000 0.000000
vt 1.000000 0.000000
vt 1.000000 1.000000
vt 0.000000 1.000000
vt 0.000000 0.000000
vt 1.000000 0.000000
vt 1.000000 1.000000
vt 0.000000 1.000000
vt 0.000000 0.000000
vt 1.000000 0.000000
vt 1.000000 1.000000
vt 0.000000 1.000000
vt 0.000000 0.000000
vt 1.000000 0.000000
vt 1.000000 1.000000
vt 0.000000 1.000000
vt 0.000000 0.000000
vt 1.000000 0.000000
vt 1.000000 1.000000
vt 0.000000 1.000000
vt 0.000000 0.000000
vt 1.000000 0.000000
vt 1.000000 1.000000
vt 0.000000 1.000000
vt 0.000000 0.000000
vt 1.000000 0.000000
vt 1.000000 1.000000
vt 0.000000 1.000000
vt 0.000000 0.000000
vt 1.000000 0.000000
vt 1.000000 1.000000
vt 0.000000 1.000000
vt 0.000000 0.000000
vt 1.000000 0.000000
vt 1.000000 1.000000
vt 0.000000 1.000000
vt 0.000000 0.000000
vt 1.000000 0.000000
vt 1.000000 1.000000
vt 0.000000 1.000000
vt 0.000000 0.000000
vt 1.000000 0.000000
vt 1.000000 1.000000
vt 0.000000 1.000000
vt 0.000000 0.000000
vt 1.000000 0.000000
vt 1.000000 1.000000
vt 0.000000 1.000000
vt 0.000000 0.000000
vt 1.000000 0.000000
vt 1.000000 1.000000
vt 0.000000 1.000000
vt 0.000000 0.000000
vt 1.000000 0.000000
vt 1.000000 1.000000
vt 0.000000 1.000000
vt 0.000000 0.000000
vt 1.000000 0.000000
vt 1.000000 1.000000
vt 0.000000 1.000000
vt 0.000000 0.000000
vt 1.000000 0.000000
vt 1.000000 1.000000
vt 0.000000 1.000000
vt 0.000000 0.000000
vt 1.000000 0.000000
vt 1.000000 1.000000
vt 0.000000 1.000000
vt 0.000000 0.000000
vt 1.000000 0.000000
vt 1.000000 1.000000
vt 0.000000 1.000000
vt 0.000000 0.000000
vt 1.000000 0.000000
vt 1.000000 1.000000
vt 0.000000 1.000000
vt 0.000000 0.000000
vt 1.000000 0.000000
vt 1.000000 1.000000
vt 0.000000 1.000000
vt 0.000000 0.000000
vt 1.000000 0.000000
vt 1.000000 1.000000
vt 0.000000 1.000000
vt 0.000000 0.000000
vt 1.000000 0.000000
vt 1.000000 1.000000
vt 0.000000 1.000000
vt 0.000000 0.000000
vt 1.000000 0.000000
vt 1.000000 1.000000
vt 0.000000 1.000000
vt 0.000000 0.000000
vt 1.000000 0.000000
vt 1.000000 1.000000
vt 0.000000 1.000000
vt 0.000000 0.000000
vt 1.000000 0.000000
vt 1.000000 1.000000
vt 0.000000 1.000000
vt 0.000000 0.000000
vt 1.000000 0.000000
vt 1.000000 1.000000
vt 0.000000 1.000000
vt 0.000000 0.000000
vt 1.000000 0.000000
vt 1.000000 1.000000
vt 0.000000 1.000000
vt 0.000000 0.000000
vt 1.000000 0.000000
vt 1.000000 1.000000
vt 0.000000 1.000000
vt 0.000000 0.000000
vt 1.000000 0.000000
vt 1.000000 1.000000
vt 0.000000 1.000000
vt 0.000000 0.000000
vt 1.000000 0.000000
vt 1.000000 1.000000
vt 0.000000 1.000000
vt 0.000000 0.000000
vt 1.000000 0.000000
vt 1.000000 1.000000
vt 0.000000 1.000000
vt 0.000000 0.000000
vt 1.000000 0.000000
vt 1.000000 1.000000
vt 0.000000 1.000000
vt 0.000000 0.000000
vt 1.000000 0.000000
vt 1.000000 1.000000
vt 0.000000 1.000000
vt 0.000000 0.000000
vt 1.000000 0.000000
vt 1.000000 1.000000
vt 0.000000 1.000000
vt 0.000000 0.000000
vt 1.000000 0.000000
vt 1.000000 1.000000
vt 0.000000 1.000000
vt 0.000000 0.000000
vt 1.000000 0.000000
vt 1.000000 1.000000
vt 0.000000 1.000000
vt 0.000000 0.000000
vt 1.000000 0.000000
vt 1.000000 1.000000
vt 0.000000 1.000000
vt 0.000000 0.000000
vt 1.000000 0.000000
vt 1.000000 1.000000
vt 0.000000 1.000000
vt 0.000000 0.000000
vt 1.000000 0.000000
vt 1.000000 1.000000
vt 0.000000 1.000000
vt 0.000000 0.000000
vt 1.000000 0.000000
vt 1.000000 1.000000
vt 0.000000 1.000000
vt 0.000000 0.000000
vt 1.000000 0.000000
vt 1.000000 1.000000
vt 0.000000 1.000000
vt 0.000000 0.000000
vt 1.000000 0.000000
vt 1.000000 1.000000
vt 0.000000 1.000000
vt 0.000000 0.000000
vt 1.000000 0.000000
vt 1.000000 1.000000
vt 0.000000 1.000000
vt 0.000000 0.000000
vt 1.000000 0.000000
vt 1.000000 1.000000
vt 0.000000 1.000000
vt 0.000000 0.000000
vt 1.000000 0.000000
vt 1.000000 1.000000
vt 0.000000 1.000000
vt 0.000000 0.000000
vt 1.000000 0.000000
vt 1.000000 1.000000
vt 0.000000 1.000000
vt 0.000000 0.000000
vt 1.000000 0.000000
vt 1.000000 1.000000
vt 0.000000 1.000000
vt 0.000000 0.000000
vt 1.000000 0.000000
vt 1.000000 1.000000
vt 0.000000 1.000000
vt 0.000000 0.000000
vt 1.000000 0.000000
vt 1.000000 1.000000
vt 0.000000 1.000000
vt 0.000000 0.000000
vt 1.000000 0.000000
vt 1.000000 1.000000
vt 0.000000 1.000000
vt 0.000000 0.000000
vt 1.000000 0.000000
vt 1.000000 1.000000
vt 0.000000 1.000000
vt 0.000000 0.000000
vt 1.000000 0.000000
vt 1.000000 1.000000
vt 0.000000 1.000000
vt 0.000000 0.000000
vt 1.000000 0.000000
vt 1.000000 1.000000
vt 0.000000 1.000000
vt 0.000000 0.000000
vt 1.000000 0.000000
vt 1.000000 1.000000
vt 0.000000 1.000000
vt 0.000000 0.000000
vt 1.000000 0.000000
vt 1.000000 1.000000
vt 0.000000 1.000000
vt 0.000000 0.000000
vt 1.000000 0.000000
vt 1.000000 1.000000
vt 0.000000 1.000000
vt 0.000000 0.000000
vt 1.000000 0.000000
vt 1.000000 1.000000
vt 0.000000 1.000000
vt 0.000000 0.000000
vt 1.000000 0.000000
vt 1.000000 1.000000
vt 0.000000 1.000000
vt 0.000000 0.000000
vt 1.000000 0.000000
vt 1.000000 1.000000
vt 0.000000 1.000000
vt 0.000000 0.000000
vt 1.000000 0.000000
vt 1.000000 1.000000
vt 0.000000 1.000000
vt 0.000000 0.000000
vt 1.000000 0.000000
vt 1.000000 1.000000
vt 0.000000 1.000000
vt 0.000000 0.000000
vt 1.000000 0.000000
vt 1.000000 1.000000
vt 0.000000 1.000000
vt 0.000000 0.000000
vt 1.000000 0.000000
vt 1.000000 1.000000
vt 0.000000 1.000000
vt 0.000000 0.000000
vt 1.000000 0.000000
vt 1.000000 1.000000
vt 0.000000 1.000000
vt 0.000000 0.000000
vt 1.000000 0.000000
vt 1.000000 1.000000
vt 0.000000 1.000000
vt 0.000000 0.000000
vt 1.000000 0.000000
vt 1.000000 1.000000
vt 0.000000 1.000000
vt 0.000000 0.000000
vt 1.000000 0.000000
vt 1.000000 1.000000
vt 0.000000 1.000000
vt 0.000000 0.000000
vt 1.000000 0.000000
vt 1.000000 1.000000
vt 0.000000 1.000000
vt 0.000000 0.000000
vt 1.000000 0.000000
vt 1.000000 1.000000
vt 0.000000 1.000000
vt 0.000000 0.000000
vt 1.000000 0.000000
vt 1.000000 1.000000
vt 0.000000 1.000000
vt 0.000000 0.000000
vt 1.000000 0.000000
vt 1.000000 1.000000
vt 0.000000 1.000000
vt 0.000000 0.000000
vt 1.000000 0.000000
vt 1.000000 1.000000
vt 0.000000 1.000000
vt 0.000000 0.000000
vt 1.000000 0.000000
vt 1.000000 1.000000
vt 0.000000 1.000000
vt 0.000000 0.000000
vt 1.000000 0.000000
vt 1.000000 1.000000
vt 0.000000 1.000000
vt 0.000000 0.000000
vt 1.000000 0.000000
vt 1.000000 1.000000
vt 0.000000 1.000000
vt 0.000000 0.000000
vt 1.000000 0.000000
vt 1.000000 1.000000
vt 0.000000 1.000000
vt 0.000000 0.000000
vt 1.000000 0.000000
vt 1.000000 1.000000
vt 0.000000 1.000000
vt 0.000000 0.000000
vt 1.000000 0.000000
vt 1.000000 1.000000
vt 0.000000 1.000000
vt 0.000000 0.000000
vt 1.000000 0.000000
vt 1.000000 1.000000
vt 0.000000 1.000000
vt 0.000000 0.000000
vt 1.000000 0.000000
vt 1.000000 1.000000
vt 0.000000 1.000000
vt 0.000000 0.000000
vt 1.000000 0.000000
vt 1.000000 1.000000
vt 0.000000 1.000000
vt 0.000000 0.000000
vt 1.000000 0.000000
vt 1.000000 1.000000
vt 0.000000 1.000000
vt 0.000000 0.000000
vt 1.000000 0.000000
vt 1.000000 1.000000
vt 0.000000 1.000000
vt 0.000000 0.000000
vt 1.000000 0.000000
vt 1.000000 1.000000
vt 0.000000 1.000000
vt 0.000000 0.000000
vt 1.000000 0.000000
vt 1.000000 1.000000
vt 0.000000 1.000000
vt 0.000000 0.000000
vt 1.000000 0.000000
vt 1.000000 1.000000
vt 0.000000 1.000000
vt 0.000000 0.000000
vt 1.000000 0.000000
vt 1.000000 1.000000
vt 0.000000 1.000000
vt 0.000000 0.000000
vt 1.000000 0.000000
vt 1.000000 1.000000
vt 0.000000 1.000000
vt 0.000000 0.000000
vt 1.000000 0.000000
vt 1.000000 1.000000
vt 0.000000 1.000000
vt 0.000000 0.000000
vt 1.000000 0.000000
vt 1.000000 1.000000
vt 0.000000 1.000000
vt 0.000000 0.000000
vt 1.000000 0.000000
vt 1.000000 1.000000
vt 0.000000 1.000000
vt 0.000000 0.000000
vt 1.000000 0.000000
vt 1.000000 1.000000
vt 0.000000 1.000000
vt 0.000000 0.000000
vt 1.000000 0.000000
vt 1.000000 1.000000
vt 0.000000 1.000000
vt 0.000000 0.000000
vt 1.000000 0.000000
vt 1.000000 1.000000
vt 0.000000 1.000000
vt 0.000000 0.000000
vt 1.000000 0.000000
vt 1.000000 1.000000
vt 0.000000 1.000000
vt 0.000000 0.000000
vt 1.000000 0.000000
vt 1.000000 1.000000
vt 0.000000 1.000000
vt 0.000000 0.000000
vt 1.000000 0.000000
vt 1.000000 1.000000
vt 0.000000 1.000000
vt 0.000000 0.000000
vt 1.000000 0.000000
vt 1.000000 1.000000
vt 0.000000 1.000000
vt 0.000000 0.000000
vt 1.000000 0.000000
vt 1.000000 1.000000
vt 0.000000 1.000000
vt 0.000000 0.000000
vt 1.000000 0.000000
vt 1.000000 1.000000
vt 0.000000 1.000000
vt 0.000000 0.000000
vt 1.000000 0.000000
vt 1.000000 1.000000
vt 0.000000 1.000000
vt 0.000000 0.000000
vt 1.000000 0.000000
vt 1.000000 1.000000
vt 0.000000 1.000000
vt 0.000000 0.000000
vt 1.000000 0.000000
vt 1.000000 1.000000
vt 0.000000 1.000000
vt 0.000000 0.000000
vt 1.000000 0.000000
vt 1.000000 1.000000
vt 0.000000 1.000000
vt 0.000000 0.000000
vt 1.000000 0.000000
vt 1.000000 1.000000
vt 0.000000 1.000000
vt 0.000000 0.000000
vt 1.000000 0.000000
vt 1.000000 1.000000
vt 0.000000 1.000000
vt 0.000000 0.000000
vt 1.000000 0.000000
vt 1.000000 1.000000
vt 0.000000 1.000000
vt 0.000000 0.000000
vt 1.000000 0.000000
vt 1.000000 1.000000
vt 0.000000 1.000000
vt 0.000000 0.000000
vt 1.000000 0.000000
vt 1.000000 1.000000
vt 0.000000 1.000000
vt 0.000000 0.000000
vt 1.000000 0.000000
vt 1.000000 1.000000
vt 0.000000 1.000000
vt 0.000000 0.000000
vt 1.000000 0.000000
vt 1.000000 1.000000
vt 0.000000 1.000000
vt 0.000000 0.000000
vt 1.000000 0.000000
vt 1.000000 1.000000
vt 0.000000 1.000000
vt 0.000000 0.000000
vt 1.000000 0.000000
vt 1.000000 1.000000
vt 0.000000 1.000000
vt 0.000000 0.000000
vt 1.000000 0.000000
vt 1.000000 1.000000
vt 0.000000 1.000000
vt 0.000000 0.000000
vt 1.000000 0.000000
vt 1.000000 1.000000
vt 0.000000 1.000000
vt 0.000000 0.000000
vt 1.000000 0.000000
vt 1.000000 1.000000
vt 0.000000 1.000000
vt 0.000000 0.000000
vt 1.000000 0.000000
vt 1.000000 1.000000
vt 0.000000 1.000000
vt 0.000000 0.000000
vt 1.000000 0.000000
vt 1.000000 1.000000
vt 0.000000 1.000000
vt 0.000000 0.000000
vt 1.000000 0.000000
vt 1.000000 1.000000
vt 0.000000 1.000000
vt 0.000000 0.000000
vt 1.000000 0.000000
vt 1.000000 1.000000
vt 0.000000 1.000000
o HullPlankL_0
usemtl MAT_WOOD
f 1/1 2/2 4/3 3/4
f 5/5 7/6 8/7 6/8
f 1/9 5/10 6/11 2/12
f 3/13 4/14 8/15 7/16
f 1/17 3/18 7/19 5/20
f 2/21 6/22 8/23 4/24
o HullPlankR_0
f 9/25 10/26 12/27 11/28
f 13/29 15/30 16/31 14/32
f 9/33 13/34 14/35 10/36
f 11/37 12/38 16/39 15/40
f 9/41 11/42 15/43 13/44
f 10/45 14/46 16/47 12/48
o HullPlankL_1
f 17/49 18/50 20/51 19/52
f 21/53 23/54 24/55 22/56
f 17/57 21/58 22/59 18/60
f 19/61 20/62 24/63 23/64
f 17/65 19/66 23/67 21/68
f 18/69 22/70 24/71 20/72
o HullPlankR_1
f 25/73 26/74 28/75 27/76
f 29/77 31/78 32/79 30/80
f 25/81 29/82 30/83 26/84
f 27/85 28/86 32/87 31/88
f 25/89 27/90 31/91 29/92
f 26/93 30/94 32/95 28/96
o HullPlankL_2
f 33/97 34/98 36/99 35/100
f 37/101 39/102 40/103 38/104
f 33/105 37/106 38/107 34/108
f 35/109 36/110 40/111 39/112
f 33/113 35/114 39/115 37/116
f 34/117 38/118 40/119 36/120
o HullPlankR_2
f 41/121 42/122 44/123 43/124
f 45/125 47/126 48/127 46/128
f 41/129 45/130 46/131 42/132
f 43/133 44/134 48/135 47/136
f 41/137 43/138 47/139 45/140
f 42/141 46/142 48/143 44/144
o HullPlankL_3
f 49/145 50/146 52/147 51/148
f 53/149 55/150 56/151 54/152
f 49/153 53/154 54/155 50/156
f 51/157 52/158 56/159 55/160
f 49/161 51/162 55/163 53/164
f 50/165 54/166 56/167 52/168
o HullPlankR_3
f 57/169 58/170 60/171 59/172
f 61/173 63/174 64/175 62/176
f 57/177 61/178 62/179 58/180
f 59/181 60/182 64/183 63/184
f 57/185 59/186 63/187 61/188
f 58/189 62/190 64/191 60/192
o HullPlankL_4
f 65/193 66/194 68/195 67/196
f 69/197 71/198 72/199 70/200
f 65/201 69/202 70/203 66/204
f 67/205 68/206 72/207 71/208
f 65/209 67/210 71/211 69/212
f 66/213 70/214 72/215 68/216
o HullPlankR_4
f 73/217 74/218 76/219 75/220
f 77/221 79/222 80/223 78/224
f 73/225 77/226 78/227 74/228
f 75/229 76/230 80/231 79/232
f 73/233 75/234 79/235 77/236
f 74/237 78/238 80/239 76/240
o HullPlankL_5
f 81/241 82/242 84/243 83/244
f 85/245 87/246 88/247 86/248
f 81/249 85/250 86/251 82/252
f 83/253 84/254 88/255 87/256
f 81/257 83/258 87/259 85/260
f 82/261 86/262 88/263 84/264
o HullPlankR_5
f 89/265 90/266 92/267 91/268
f 93/269 95/270 96/271 94/272
f 89/273 93/274 94/275 90/276
f 91/277 92/278 96/279 95/280
f 89/281 91/282 95/283 93/284
f 90/285 94/286 96/287 92/288
o HullPlankL_6
f 97/289 98/290 100/291 99/292
f 101/293 103/294 104/295 102/296
f 97/297 101/298 102/299 98/300
f 99/301 100/302 104/303 103/304
f 97/305 99/306 103/307 101/308
f 98/309 102/310 104/311 100/312
o HullPlankR_6
f 105/313 106/314 108/315 107/316
f 109/317 111/318 112/319 110/320
f 105/321 109/322 110/323 106/324
f 107/325 108/326 112/327 111/328
f 105/329 107/330 111/331 109/332
f 106/333 110/334 112/335 108/336
o ReadableRib
f 113/337 114/338 116/339 115/340
f 117/341 119/342 120/343 118/344
f 113/345 117/346 118/347 114/348
f 115/349 116/350 120/351 119/352
f 113/353 115/354 119/355 117/356
f 114/357 118/358 120/359 116/360
f 121/361 122/362 124/363 123/364
f 125/365 127/366 128/367 126/368
f 121/369 125/370 126/371 122/372
f 123/373 124/374 128/375 127/376
f 121/377 123/378 127/379 125/380
f 122/381 126/382 128/383 124/384
f 129/385 130/386 132/387 131/388
f 133/389 135/390 136/391 134/392
f 129/393 133/394 134/395 130/396
f 131/397 132/398 136/399 135/400
f 129/401 131/402 135/403 133/404
f 130/405 134/406 136/407 132/408
f 137/409 138/410 140/411 139/412
f 141/413 143/414 144/415 142/416
f 137/417 141/418 142/419 138/420
f 139/421 140/422 144/423 143/424
f 137/425 139/426 143/427 141/428
f 138/429 142/430 144/431 140/432
f 145/433 146/434 148/435 147/436
f 149/437 151/438 152/439 150/440
f 145/441 149/442 150/443 146/444
f 147/445 148/446 152/447 151/448
f 145/449 147/450 151/451 149/452
f 146/453 150/454 152/455 148/456
f 153/457 154/458 156/459 155/460
f 157/461 159/462 160/463 158/464
f 153/465 157/466 158/467 154/468
f 155/469 156/470 160/471 159/472
f 153/473 155/474 159/475 157/476
f 154/477 158/478 160/479 156/480
f 161/481 162/482 164/483 163/484
f 165/485 167/486 168/487 166/488
f 161/489 165/490 166/491 162/492
f 163/493 164/494 168/495 167/496
f 161/497 163/498 167/499 165/500
f 162/501 166/502 168/503 164/504
f 169/505 170/506 172/507 171/508
f 173/509 175/510 176/511 174/512
f 169/513 173/514 174/515 170/516
f 171/517 172/518 176/519 175/520
f 169/521 171/522 175/523 173/524
f 170/525 174/526 176/527 172/528
o TiltedMast
f 177/529 178/530 180/531 179/532
f 181/533 183/534 184/535 182/536
f 177/537 181/538 182/539 178/540
f 179/541 180/542 184/543 183/544
f 177/545 179/546 183/547 181/548
f 178/549 182/550 184/551 180/552
o BrokenYard
f 185/553 186/554 188/555 187/556
f 189/557 191/558 192/559 190/560
f 185/561 189/562 190/563 186/564
f 187/565 188/566 192/567 191/568
f 185/569 187/570 191/571 189/572
f 186/573 190/574 192/575 188/576
o WornHullBand
usemtl MAT_METAL
f 193/577 196/578 195/579 194/580
f 197/581 198/582 199/583 200/584
f 193/585 194/586 198/587 197/588
f 196/589 200/590 199/591 195/592
f 193/593 197/594 200/595 196/596
f 194/597 195/598 199/599 198/600
