# PROJECT OEN production source mesh: PRP_SIGNAL_FRAME_001
mtllib PRP_SIGNAL_FRAME_001.mtl
s off
v -0.600707 0.013604 -0.052500
v -0.600707 0.013604 0.052500
v -0.499293 -0.013604 -0.052500
v -0.499293 -0.013604 0.052500
v -0.050707 2.063604 -0.052500
v -0.050707 2.063604 0.052500
v 0.050707 2.036396 -0.052500
v 0.050707 2.036396 0.052500
v 0.499293 -0.013604 -0.052500
v 0.499293 -0.013604 0.052500
v 0.600707 0.013604 -0.052500
v 0.600707 0.013604 0.052500
v -0.050707 2.036396 -0.052500
v -0.050707 2.036396 0.052500
v 0.050707 2.063604 -0.052500
v 0.050707 2.063604 0.052500
v -0.052500 -0.011256 0.398721
v -0.052500 0.011256 0.501279
v 0.052500 -0.011256 0.398721
v 0.052500 0.011256 0.501279
v -0.052500 2.038744 -0.051279
v -0.052500 2.061256 0.051279
v 0.052500 2.038744 -0.051279
v 0.052500 2.061256 0.051279
v -0.340000 1.105000 0.045000
v -0.340000 1.105000 -0.045000
v -0.340000 1.195000 0.045000
v -0.340000 1.195000 -0.045000
v 0.340000 1.105000 0.045000
v 0.340000 1.105000 -0.045000
v 0.340000 1.195000 0.045000
v 0.340000 1.195000 -0.045000
v -0.290000 1.290000 -0.002500
v 0.290000 1.290000 -0.002500
v 0.290000 1.770000 -0.002500
v -0.290000 1.770000 -0.002500
v -0.290000 1.290000 0.032500
v 0.290000 1.290000 0.032500
v 0.290000 1.770000 0.032500
v -0.290000 1.770000 0.032500
v -0.480000 0.000000 0.000000
v -0.500503 0.000000 0.049497
v -0.550000 0.000000 0.070000
v -0.599497 0.000000 0.049497
v -0.620000 0.000000 0.000000
v -0.599497 0.000000 -0.049497
v -0.550000 0.000000 -0.070000
v -0.500503 0.000000 -0.049497
v -0.480000 0.160000 0.000000
v -0.500503 0.160000 0.049497
v -0.550000 0.160000 0.070000
v -0.599497 0.160000 0.049497
v -0.620000 0.160000 0.000000
v -0.599497 0.160000 -0.049497
v -0.550000 0.160000 -0.070000
v -0.500503 0.160000 -0.049497
v 0.620000 0.000000 0.000000
v 0.599497 0.000000 0.049497
v 0.550000 0.000000 0.070000
v 0.500503 0.000000 0.049497
v 0.480000 0.000000 0.000000
v 0.500503 0.000000 -0.049497
v 0.550000 0.000000 -0.070000
v 0.599497 0.000000 -0.049497
v 0.620000 0.160000 0.000000
v 0.599497 0.160000 0.049497
v 0.550000 0.160000 0.070000
v 0.500503 0.160000 0.049497
v 0.480000 0.160000 0.000000
v 0.500503 0.160000 -0.049497
v 0.550000 0.160000 -0.070000
v 0.599497 0.160000 -0.049497
v 0.070000 0.000000 0.450000
v 0.049497 0.000000 0.499497
v 0.000000 0.000000 0.520000
v -0.049497 0.000000 0.499497
v -0.070000 0.000000 0.450000
v -0.049497 0.000000 0.400503
v -0.000000 0.000000 0.380000
v 0.049497 0.000000 0.400503
v 0.070000 0.160000 0.450000
v 0.049497 0.160000 0.499497
v 0.000000 0.160000 0.520000
v -0.049497 0.160000 0.499497
v -0.070000 0.160000 0.450000
v -0.049497 0.160000 0.400503
v -0.000000 0.160000 0.380000
v 0.049497 0.160000 0.400503
vt 0.000000 0.000000
vt 1.000000 0.000000
vt 1.000000 1.000000
vt 0.000000 1.000000
vt 0.000000 0.000000
vt 1.000000 0.000000
vt 1.000000 1.000000
vt 0.000000 1.000000
vt 0.000000 0.000000
vt 1.000000 0.000000
vt 1.000000 1.000000
vt 0.000000 1.000000
vt 0.000000 0.000000
vt 1.000000 0.000000
vt 1.000000 1.000000
vt 0.000000 1.000000
vt 0.000000 0.000000
vt 1.000000 0.000000
vt 1.000000 1.000000
vt 0.000000 1.000000
vt 0.000000 0.000000
vt 1.000000 0.000000
vt 1.000000 1.000000
vt 0.000000 1.000000
vt 0.000000 0.000000
vt 1.000000 0.000000
vt 1.000000 1.000000
vt 0.000000 1.000000
vt 0.000000 0.000000
vt 1.000000 0.000000
vt 1.000000 1.000000
vt 0.000000 1.000000
vt 0.000000 0.000000
vt 1.000000 0.000000
vt 1.000000 1.000000
vt 0.000000 1.000000
vt 0.000000 0.000000
vt 1.000000 0.000000
vt 1.000000 1.000000
vt 0.000000 1.000000
vt 0.000000 0.000000
vt 1.000000 0.000000
vt 1.000000 1.000000
vt 0.000000 1.000000
vt 0.000000 0.000000
vt 1.000000 0.000000
vt 1.000000 1.000000
vt 0.000000 1.000000
vt 0.000000 0.000000
vt 1.000000 0.000000
vt 1.000000 1.000000
vt 0.000000 1.000000
vt 0.000000 0.000000
vt 1.000000 0.000000
vt 1.000000 1.000000
vt 0.000000 1.000000
vt 0.000000 0.000000
vt 1.000000 0.000000
vt 1.000000 1.000000
vt 0.000000 1.000000
vt 0.000000 0.000000
vt 1.000000 0.000000
vt 1.000000 1.000000
vt 0.000000 1.000000
vt 0.000000 0.000000
vt 1.000000 0.000000
vt 1.000000 1.000000
vt 0.000000 1.000000
vt 0.000000 0.000000
vt 1.000000 0.000000
vt 1.000000 1.000000
vt 0.000000 1.000000
vt 0.000000 0.000000
vt 1.000000 0.000000
vt 1.000000 1.000000
vt 0.000000 1.000000
vt 0.000000 0.000000
vt 1.000000 0.000000
vt 1.000000 1.000000
vt 0.000000 1.000000
vt 0.000000 0.000000
vt 1.000000 0.000000
vt 1.000000 1.000000
vt 0.000000 1.000000
vt 0.000000 0.000000
vt 1.000000 0.000000
vt 1.000000 1.000000
vt 0.000000 1.000000
vt 0.000000 0.000000
vt 1.000000 0.000000
vt 1.000000 1.000000
vt 0.000000 1.000000
vt 0.000000 0.000000
vt 1.000000 0.000000
vt 1.000000 1.000000
vt 0.000000 1.000000
vt 0.000000 0.000000
vt 1.000000 0.000000
vt 1.000000 1.000000
vt 0.000000 1.000000
vt 0.000000 0.000000
vt 1.000000 0.000000
vt 1.000000 1.000000
vt 0.000000 1.000000
vt 0.000000 0.000000
vt 1.000000 0.000000
vt 1.000000 1.000000
vt 0.000000 1.000000
vt 0.000000 0.000000
vt 1.000000 0.000000
vt 1.000000 1.000000
vt 0.000000 1.000000
vt 0.000000 0.000000
vt 1.000000 0.000000
vt 1.000000 1.000000
vt 0.000000 1.000000
vt 0.000000 0.000000
vt 1.000000 0.000000
vt 1.000000 1.000000
vt 0.000000 1.000000
vt 0.000000 0.000000
vt 1.000000 0.000000
vt 1.000000 1.000000
vt 0.000000 1.000000
vt 0.000000 0.000000
vt 1.000000 0.000000
vt 1.000000 1.000000
vt 0.000000 1.000000
vt 0.000000 0.000000
vt 1.000000 0.000000
vt 1.000000 1.000000
vt 0.000000 1.000000
vt 0.000000 0.000000
vt 1.000000 0.000000
vt 1.000000 1.000000
vt 0.000000 1.000000
vt 0.000000 0.000000
vt 1.000000 0.000000
vt 1.000000 1.000000
vt 0.000000 1.000000
vt 0.000000 0.000000
vt 1.000000 0.000000
vt 1.000000 1.000000
vt 0.000000 1.000000
vt 0.000000 0.000000
vt 1.000000 0.000000
vt 1.000000 1.000000
vt 0.000000 1.000000
vt 0.000000 0.000000
vt 1.000000 0.000000
vt 1.000000 1.000000
vt 0.000000 1.000000
vt 1.000000 0.500000
vt 0.853553 0.853553
vt 0.500000 1.000000
vt 0.146447 0.853553
vt 0.000000 0.500000
vt 0.146447 0.146447
vt 0.500000 0.000000
vt 0.853553 0.146447
vt 1.000000 0.500000
vt 0.853553 0.853553
vt 0.500000 1.000000
vt 0.146447 0.853553
vt 0.000000 0.500000
vt 0.146447 0.146447
vt 0.500000 0.000000
vt 0.853553 0.146447
vt 0.000000 0.000000
vt 1.000000 0.000000
vt 1.000000 1.000000
vt 0.000000 1.000000
vt 0.000000 0.000000
vt 1.000000 0.000000
vt 1.000000 1.000000
vt 0.000000 1.000000
vt 0.000000 0.000000
vt 1.000000 0.000000
vt 1.000000 1.000000
vt 0.000000 1.000000
vt 0.000000 0.000000
vt 1.000000 0.000000
vt 1.000000 1.000000
vt 0.000000 1.000000
vt 0.000000 0.000000
vt 1.000000 0.000000
vt 1.000000 1.000000
vt 0.000000 1.000000
vt 0.000000 0.000000
vt 1.000000 0.000000
vt 1.000000 1.000000
vt 0.000000 1.000000
vt 0.000000 0.000000
vt 1.000000 0.000000
vt 1.000000 1.000000
vt 0.000000 1.000000
vt 0.000000 0.000000
vt 1.000000 0.000000
vt 1.000000 1.000000
vt 0.000000 1.000000
vt 1.000000 0.500000
vt 0.853553 0.853553
vt 0.500000 1.000000
vt 0.146447 0.853553
vt 0.000000 0.500000
vt 0.146447 0.146447
vt 0.500000 0.000000
vt 0.853553 0.146447
vt 1.000000 0.500000
vt 0.853553 0.853553
vt 0.500000 1.000000
vt 0.146447 0.853553
vt 0.000000 0.500000
vt 0.146447 0.146447
vt 0.500000 0.000000
vt 0.853553 0.146447
vt 0.000000 0.000000
vt 1.000000 0.000000
vt 1.000000 1.000000
vt 0.000000 1.000000
vt 0.000000 0.000000
vt 1.000000 0.000000
vt 1.000000 1.000000
vt 0.000000 1.000000
vt 0.000000 0.000000
vt 1.000000 0.000000
vt 1.000000 1.000000
vt 0.000000 1.000000
vt 0.000000 0.000000
vt 1.000000 0.000000
vt 1.000000 1.000000
vt 0.000000 1.000000
vt 0.000000 0.000000
vt 1.000000 0.000000
vt 1.000000 1.000000
vt 0.000000 1.000000
vt 0.000000 0.000000
vt 1.000000 0.000000
vt 1.000000 1.000000
vt 0.000000 1.000000
vt 0.000000 0.000000
vt 1.000000 0.000000
vt 1.000000 1.000000
vt 0.000000 1.000000
vt 0.000000 0.000000
vt 1.000000 0.000000
vt 1.000000 1.000000
vt 0.000000 1.000000
vt 1.000000 0.500000
vt 0.853553 0.853553
vt 0.500000 1.000000
vt 0.146447 0.853553
vt 0.000000 0.500000
vt 0.146447 0.146447
vt 0.500000 0.000000
vt 0.853553 0.146447
vt 1.000000 0.500000
vt 0.853553 0.853553
vt 0.500000 1.000000
vt 0.146447 0.853553
vt 0.000000 0.500000
vt 0.146447 0.146447
vt 0.500000 0.000000
vt 0.853553 0.146447
o LeftUpright
usemtl MAT_WOOD
f 1/1 2/2 4/3 3/4
f 5/5 7/6 8/7 6/8
f 1/9 5/10 6/11 2/12
f 3/13 4/14 8/15 7/16
f 1/17 3/18 7/19 5/20
f 2/21 6/22 8/23 4/24
o RightUpright
f 9/25 10/26 12/27 11/28
f 13/29 15/30 16/31 14/32
f 9/33 13/34 14/35 10/36
f 11/37 12/38 16/39 15/40
f 9/41 11/42 15/43 13/44
f 10/45 14/46 16/47 12/48
o RearBrace
f 17/49 18/50 20/51 19/52
f 21/53 23/54 24/55 22/56
f 17/57 21/58 22/59 18/60
f 19/61 20/62 24/63 23/64
f 17/65 19/66 23/67 21/68
f 18/69 22/70 24/71 20/72
o ReachableCrossbar
f 25/73 26/74 28/75 27/76
f 29/77 31/78 32/79 30/80
f 25/81 29/82 30/83 26/84
f 27/85 28/86 32/87 31/88
f 25/89 27/90 31/91 29/92
f 26/93 30/94 32/95 28/96
o SignalPanel
usemtl MAT_CANVAS
f 33/97 36/98 35/99 34/100
f 37/101 38/102 39/103 40/104
f 33/105 34/106 38/107 37/108
f 36/109 40/110 39/111 35/112
f 33/113 37/114 40/115 36/116
f 34/117 35/118 39/119 38/120
o GroundAnchor
usemtl MAT_METAL
f 41/121 42/122 50/123 49/124
f 42/125 43/126 51/127 50/128
f 43/129 44/130 52/131 51/132
f 44/133 45/134 53/135 52/136
f 45/137 46/138 54/139 53/140
f 46/141 47/142 55/143 54/144
f 47/145 48/146 56/147 55/148
f 48/149 41/150 49/151 56/152
f 48/153 47/154 46/155 45/156 44/157 43/158 42/159 41/160
f 49/161 50/162 51/163 52/164 53/165 54/166 55/167 56/168
f 57/169 58/170 66/171 65/172
f 58/173 59/174 67/175 66/176
f 59/177 60/178 68/179 67/180
f 60/181 61/182 69/183 68/184
f 61/185 62/186 70/187 69/188
f 62/189 63/190 71/191 70/192
f 63/193 64/194 72/195 71/196
f 64/197 57/198 65/199 72/200
f 64/201 63/202 62/203 61/204 60/205 59/206 58/207 57/208
f 65/209 66/210 67/211 68/212 69/213 70/214 71/215 72/216
f 73/217 74/218 82/219 81/220
f 74/221 75/222 83/223 82/224
f 75/225 76/226 84/227 83/228
f 76/229 77/230 85/231 84/232
f 77/233 78/234 86/235 85/236
f 78/237 79/238 87/239 86/240
f 79/241 80/242 88/243 87/244
f 80/245 73/246 81/247 88/248
f 80/249 79/250 78/251 77/252 76/253 75/254 74/255 73/256
f 81/257 82/258 83/259 84/260 85/261 86/262 87/263 88/264
