# PROJECT OEN production source mesh: PRP_SUPPLY_CRATE_001
mtllib PRP_SUPPLY_CRATE_001.mtl
s off
v -0.340000 0.000000 -0.240000
v 0.340000 0.000000 -0.240000
v 0.340000 0.460000 -0.240000
v -0.340000 0.460000 -0.240000
v -0.340000 0.000000 0.240000
v 0.340000 0.000000 0.240000
v 0.340000 0.460000 0.240000
v -0.340000 0.460000 0.240000
v -0.360000 0.450000 -0.255000
v 0.360000 0.450000 -0.255000
v 0.360000 0.530000 -0.255000
v -0.360000 0.530000 -0.255000
v -0.360000 0.450000 0.255000
v 0.360000 0.450000 0.255000
v 0.360000 0.530000 0.255000
v -0.360000 0.530000 0.255000
v -0.297500 0.030000 -0.267500
v -0.242500 0.030000 -0.267500
v -0.242500 0.470000 -0.267500
v -0.297500 0.470000 -0.267500
v -0.297500 0.030000 -0.232500
v -0.242500 0.030000 -0.232500
v -0.242500 0.470000 -0.232500
v -0.297500 0.470000 -0.232500
v 0.242500 0.030000 -0.267500
v 0.297500 0.030000 -0.267500
v 0.297500 0.470000 -0.267500
v 0.242500 0.470000 -0.267500
v 0.242500 0.030000 -0.232500
v 0.297500 0.030000 -0.232500
v 0.297500 0.470000 -0.232500
v 0.242500 0.470000 -0.232500
v -0.387500 0.152500 -0.120000
v -0.332500 0.152500 -0.120000
v -0.387500 0.207500 -0.120000
v -0.332500 0.207500 -0.120000
v -0.387500 0.152500 0.120000
v -0.332500 0.152500 0.120000
v -0.387500 0.207500 0.120000
v -0.332500 0.207500 0.120000
v -0.387500 0.120000 -0.147500
v -0.387500 0.120000 -0.092500
v -0.332500 0.120000 -0.147500
v -0.332500 0.120000 -0.092500
v -0.387500 0.230000 -0.147500
v -0.387500 0.230000 -0.092500
v -0.332500 0.230000 -0.147500
v -0.332500 0.230000 -0.092500
v -0.387500 0.120000 0.092500
v -0.387500 0.120000 0.147500
v -0.332500 0.120000 0.092500
v -0.332500 0.120000 0.147500
v -0.387500 0.230000 0.092500
v -0.387500 0.230000 0.147500
v -0.332500 0.230000 0.092500
v -0.332500 0.230000 0.147500
v 0.332500 0.152500 -0.120000
v 0.387500 0.152500 -0.120000
v 0.332500 0.207500 -0.120000
v 0.387500 0.207500 -0.120000
v 0.332500 0.152500 0.120000
v 0.387500 0.152500 0.120000
v 0.332500 0.207500 0.120000
v 0.387500 0.207500 0.120000
v 0.332500 0.120000 -0.147500
v 0.332500 0.120000 -0.092500
v 0.387500 0.120000 -0.147500
v 0.387500 0.120000 -0.092500
v 0.332500 0.230000 -0.147500
v 0.332500 0.230000 -0.092500
v 0.387500 0.230000 -0.147500
v 0.387500 0.230000 -0.092500
v 0.332500 0.120000 0.092500
v 0.332500 0.120000 0.147500
v 0.387500 0.120000 0.092500
v 0.387500 0.120000 0.147500
v 0.332500 0.230000 0.092500
v 0.332500 0.230000 0.147500
v 0.387500 0.230000 0.092500
v 0.387500 0.230000 0.147500
v -0.060000 0.380000 -0.305000
v 0.060000 0.380000 -0.305000
v 0.060000 0.500000 -0.305000
v -0.060000 0.500000 -0.305000
v -0.060000 0.380000 -0.265000
v 0.060000 0.380000 -0.265000
v 0.060000 0.500000 -0.265000
v -0.060000 0.500000 -0.265000
vt 0.000000 0.000000
vt 1.000000 0.000000
vt 1.000000 1.000000
vt 0.000000 1.000000
vt 0.000000 0.000000
vt 1.000000 0.000000
vt 1.000000 1.000000
vt 0.000000 1.000000
vt 0.000000 0.000000
vt 1.000000 0.000000
vt 1.000000 1.000000
vt 0.000000 1.000000
vt 0.000000 0.000000
vt 1.000000 0.000000
vt 1.000000 1.000000
vt 0.000000 1.000000
vt 0.000000 0.000000
vt 1.000000 0.000000
vt 1.000000 1.000000
vt 0.000000 1.000000
vt 0.000000 0.000000
vt 1.000000 0.000000
vt 1.000000 1.000000
vt 0.000000 1.000000
vt 0.000000 0.000000
vt 1.000000 0.000000
vt 1.000000 1.000000
vt 0.000000 1.000000
vt 0.000000 0.000000
vt 1.000000 0.000000
vt 1.000000 1.000000
vt 0.000000 1.000000
vt 0.000000 0.000000
vt 1.000000 0.000000
vt 1.000000 1.000000
vt 0.000000 1.000000
vt 0.000000 0.000000
vt 1.000000 0.000000
vt 1.000000 1.000000
vt 0.000000 1.000000
vt 0.000000 0.000000
vt 1.000000 0.000000
vt 1.000000 1.000000
vt 0.000000 1.000000
vt 0.000000 0.000000
vt 1.000000 0.000000
vt 1.000000 1.000000
vt 0.000000 1.000000
vt 0.000000 0.000000
vt 1.000000 0.000000
vt 1.000000 1.000000
vt 0.000000 1.000000
vt 0.000000 0.000000
vt 1.000000 0.000000
vt 1.000000 1.000000
vt 0.000000 1.000000
vt 0.000000 0.000000
vt 1.000000 0.000000
vt 1.000000 1.000000
vt 0.000000 1.000000
vt 0.000000 0.000000
vt 1.000000 0.000000
vt 1.000000 1.000000
vt 0.000000 1.000000
vt 0.000000 0.000000
vt 1.000000 0.000000
vt 1.000000 1.000000
vt 0.000000 1.000000
vt 0.000000 0.000000
vt 1.000000 0.000000
vt 1.000000 1.000000
vt 0.000000 1.000000
vt 0.000000 0.000000
vt 1.000000 0.000000
vt 1.000000 1.000000
vt 0.000000 1.000000
vt 0.000000 0.000000
vt 1.000000 0.000000
vt 1.000000 1.000000
vt 0.000000 1.000000
vt 0.000000 0.000000
vt 1.000000 0.000000
vt 1.000000 1.000000
vt 0.000000 1.000000
vt 0.000000 0.000000
vt 1.000000 0.000000
vt 1.000000 1.000000
vt 0.000000 1.000000
vt 0.000000 0.000000
vt 1.000000 0.000000
vt 1.000000 1.000000
vt 0.000000 1.000000
vt 0.000000 0.000000
vt 1.000000 0.000000
vt 1.000000 1.000000
vt 0.000000 1.000000
vt 0.000000 0.000000
vt 1.000000 0.000000
vt 1.000000 1.000000
vt 0.000000 1.000000
vt 0.000000 0.000000
vt 1.000000 0.000000
vt 1.000000 1.000000
vt 0.000000 1.000000
vt 0.000000 0.000000
vt 1.000000 0.000000
vt 1.000000 1.000000
vt 0.000000 1.000000
vt 0.000000 0.000000
vt 1.000000 0.000000
vt 1.000000 1.000000
vt 0.000000 1.000000
vt 0.000000 0.000000
vt 1.000000 0.000000
vt 1.000000 1.000000
vt 0.000000 1.000000
vt 0.000000 0.000000
vt 1.000000 0.000000
vt 1.000000 1.000000
vt 0.000000 1.000000
vt 0.000000 0.000000
vt 1.000000 0.000000
vt 1.000000 1.000000
vt 0.000000 1.000000
vt 0.000000 0.000000
vt 1.000000 0.000000
vt 1.000000 1.000000
vt 0.000000 1.000000
vt 0.000000 0.000000
vt 1.000000 0.000000
vt 1.000000 1.000000
vt 0.000000 1.000000
vt 0.000000 0.000000
vt 1.000000 0.000000
vt 1.000000 1.000000
vt 0.000000 1.000000
vt 0.000000 0.000000
vt 1.000000 0.000000
vt 1.000000 1.000000
vt 0.000000 1.000000
vt 0.000000 0.000000
vt 1.000000 0.000000
vt 1.000000 1.000000
vt 0.000000 1.000000
vt 0.000000 0.000000
vt 1.000000 0.000000
vt 1.000000 1.000000
vt 0.000000 1.000000
vt 0.000000 0.000000
vt 1.000000 0.000000
vt 1.000000 1.000000
vt 0.000000 1.000000
vt 0.000000 0.000000
vt 1.000000 0.000000
vt 1.000000 1.000000
vt 0.000000 1.000000
vt 0.000000 0.000000
vt 1.000000 0.000000
vt 1.000000 1.000000
vt 0.000000 1.000000
vt 0.000000 0.000000
vt 1.000000 0.000000
vt 1.000000 1.000000
vt 0.000000 1.000000
vt 0.000000 0.000000
vt 1.000000 0.000000
vt 1.000000 1.000000
vt 0.000000 1.000000
vt 0.000000 0.000000
vt 1.000000 0.000000
vt 1.000000 1.000000
vt 0.000000 1.000000
vt 0.000000 0.000000
vt 1.000000 0.000000
vt 1.000000 1.000000
vt 0.000000 1.000000
vt 0.000000 0.000000
vt 1.000000 0.000000
vt 1.000000 1.000000
vt 0.000000 1.000000
vt 0.000000 0.000000
vt 1.000000 0.000000
vt 1.000000 1.000000
vt 0.000000 1.000000
vt 0.000000 0.000000
vt 1.000000 0.000000
vt 1.000000 1.000000
vt 0.000000 1.000000
vt 0.000000 0.000000
vt 1.000000 0.000000
vt 1.000000 1.000000
vt 0.000000 1.000000
vt 0.000000 0.000000
vt 1.000000 0.000000
vt 1.000000 1.000000
vt 0.000000 1.000000
vt 0.000000 0.000000
vt 1.000000 0.000000
vt 1.000000 1.000000
vt 0.000000 1.000000
vt 0.000000 0.000000
vt 1.000000 0.000000
vt 1.000000 1.000000
vt 0.000000 1.000000
vt 0.000000 0.000000
vt 1.000000 0.000000
vt 1.000000 1.000000
vt 0.000000 1.000000
vt 0.000000 0.000000
vt 1.000000 0.000000
vt 1.000000 1.000000
vt 0.000000 1.000000
vt 0.000000 0.000000
vt 1.000000 0.000000
vt 1.000000 1.000000
vt 0.000000 1.000000
vt 0.000000 0.000000
vt 1.000000 0.000000
vt 1.000000 1.000000
vt 0.000000 1.000000
vt 0.000000 0.000000
vt 1.000000 0.000000
vt 1.000000 1.000000
vt 0.000000 1.000000
vt 0.000000 0.000000
vt 1.000000 0.000000
vt 1.000000 1.000000
vt 0.000000 1.000000
vt 0.000000 0.000000
vt 1.000000 0.000000
vt 1.000000 1.000000
vt 0.000000 1.000000
vt 0.000000 0.000000
vt 1.000000 0.000000
vt 1.000000 1.000000
vt 0.000000 1.000000
vt 0.000000 0.000000
vt 1.000000 0.000000
vt 1.000000 1.000000
vt 0.000000 1.000000
vt 0.000000 0.000000
vt 1.000000 0.000000
vt 1.000000 1.000000
vt 0.000000 1.000000
vt 0.000000 0.000000
vt 1.000000 0.000000
vt 1.000000 1.000000
vt 0.000000 1.000000
vt 0.000000 0.000000
vt 1.000000 0.000000
vt 1.000000 1.000000
vt 0.000000 1.000000
vt 0.000000 0.000000
vt 1.000000 0.000000
vt 1.000000 1.000000
vt 0.000000 1.000000
vt 0.000000 0.000000
vt 1.000000 0.000000
vt 1.000000 1.000000
vt 0.000000 1.000000
vt 0.000000 0.000000
vt 1.000000 0.000000
vt 1.000000 1.000000
vt 0.000000 1.000000
o CrateBody
usemtl MAT_WOOD
f 1/1 4/2 3/3 2/4
f 5/5 6/6 7/7 8/8
f 1/9 2/10 6/11 5/12
f 4/13 8/14 7/15 3/16
f 1/17 5/18 8/19 4/20
f 2/21 3/22 7/23 6/24
o SealedLid
f 9/25 12/26 11/27 10/28
f 13/29 14/30 15/31 16/32
f 9/33 10/34 14/35 13/36
f 12/37 16/38 15/39 11/40
f 9/41 13/42 16/43 12/44
f 10/45 11/46 15/47 14/48
o VerticalBrace
f 17/49 20/50 19/51 18/52
f 21/53 22/54 23/55 24/56
f 17/57 18/58 22/59 21/60
f 20/61 24/62 23/63 19/64
f 17/65 21/66 24/67 20/68
f 18/69 19/70 23/71 22/72
f 25/73 28/74 27/75 26/76
f 29/77 30/78 31/79 32/80
f 25/81 26/82 30/83 29/84
f 28/85 32/86 31/87 27/88
f 25/89 29/90 32/91 28/92
f 26/93 27/94 31/95 30/96
o BroadSideHandle
usemtl MAT_METAL
f 33/97 34/98 36/99 35/100
f 37/101 39/102 40/103 38/104
f 33/105 37/106 38/107 34/108
f 35/109 36/110 40/111 39/112
f 33/113 35/114 39/115 37/116
f 34/117 38/118 40/119 36/120
o HandleMount
f 41/121 42/122 44/123 43/124
f 45/125 47/126 48/127 46/128
f 41/129 45/130 46/131 42/132
f 43/133 44/134 48/135 47/136
f 41/137 43/138 47/139 45/140
f 42/141 46/142 48/143 44/144
f 49/145 50/146 52/147 51/148
f 53/149 55/150 56/151 54/152
f 49/153 53/154 54/155 50/156
f 51/157 52/158 56/159 55/160
f 49/161 51/162 55/163 53/164
f 50/165 54/166 56/167 52/168
o BroadSideHandle
f 57/169 58/170 60/171 59/172
f 61/173 63/174 64/175 62/176
f 57/177 61/178 62/179 58/180
f 59/181 60/182 64/183 63/184
f 57/185 59/186 63/187 61/188
f 58/189 62/190 64/191 60/192
o HandleMount
f 65/193 66/194 68/195 67/196
f 69/197 71/198 72/199 70/200
f 65/201 69/202 70/203 66/204
f 67/205 68/206 72/207 71/208
f 65/209 67/210 71/211 69/212
f 66/213 70/214 72/215 68/216
f 73/217 74/218 76/219 75/220
f 77/221 79/222 80/223 78/224
f 73/225 77/226 78/227 74/228
f 75/229 76/230 80/231 79/232
f 73/233 75/234 79/235 77/236
f 74/237 78/238 80/239 76/240
o ReadableLatch
f 81/241 84/242 83/243 82/244
f 85/245 86/246 87/247 88/248
f 81/249 82/250 86/251 85/252
f 84/253 88/254 87/255 83/256
f 81/257 85/258 88/259 84/260
f 82/261 83/262 87/263 86/264
