# PROJECT OEN production source mesh: PRP_RADIO_001
mtllib PRP_RADIO_001.mtl
s off
v -0.290000 0.000000 -0.120000
v 0.290000 0.000000 -0.120000
v 0.290000 0.620000 -0.120000
v -0.290000 0.620000 -0.120000
v -0.290000 0.000000 0.120000
v 0.290000 0.000000 0.120000
v 0.290000 0.620000 0.120000
v -0.290000 0.620000 0.120000
v -0.255000 0.265000 -0.144500
v 0.035000 0.265000 -0.144500
v 0.035000 0.515000 -0.144500
v -0.255000 0.515000 -0.144500
v -0.255000 0.265000 -0.119500
v 0.035000 0.265000 -0.119500
v 0.035000 0.515000 -0.119500
v -0.255000 0.515000 -0.119500
v -0.235000 0.291000 -0.160000
v 0.015000 0.291000 -0.160000
v 0.015000 0.309000 -0.160000
v -0.235000 0.309000 -0.160000
v -0.235000 0.291000 -0.142000
v 0.015000 0.291000 -0.142000
v 0.015000 0.309000 -0.142000
v -0.235000 0.309000 -0.142000
v -0.235000 0.351000 -0.160000
v 0.015000 0.351000 -0.160000
v 0.015000 0.369000 -0.160000
v -0.235000 0.369000 -0.160000
v -0.235000 0.351000 -0.142000
v 0.015000 0.351000 -0.142000
v 0.015000 0.369000 -0.142000
v -0.235000 0.369000 -0.142000
v -0.235000 0.411000 -0.160000
v 0.015000 0.411000 -0.160000
v 0.015000 0.429000 -0.160000
v -0.235000 0.429000 -0.160000
v -0.235000 0.411000 -0.142000
v 0.015000 0.411000 -0.142000
v 0.015000 0.429000 -0.142000
v -0.235000 0.429000 -0.142000
v -0.235000 0.471000 -0.160000
v 0.015000 0.471000 -0.160000
v 0.015000 0.489000 -0.160000
v -0.235000 0.489000 -0.160000
v -0.235000 0.471000 -0.142000
v 0.015000 0.471000 -0.142000
v 0.015000 0.489000 -0.142000
v -0.235000 0.489000 -0.142000
v 0.235000 0.430000 -0.160000
v 0.226292 0.430000 -0.127500
v 0.202500 0.430000 -0.103708
v 0.170000 0.430000 -0.095000
v 0.137500 0.430000 -0.103708
v 0.113708 0.430000 -0.127500
v 0.105000 0.430000 -0.160000
v 0.113708 0.430000 -0.192500
v 0.137500 0.430000 -0.216292
v 0.170000 0.430000 -0.225000
v 0.202500 0.430000 -0.216292
v 0.226292 0.430000 -0.192500
v 0.235000 0.470000 -0.160000
v 0.226292 0.470000 -0.127500
v 0.202500 0.470000 -0.103708
v 0.170000 0.470000 -0.095000
v 0.137500 0.470000 -0.103708
v 0.113708 0.470000 -0.127500
v 0.105000 0.470000 -0.160000
v 0.113708 0.470000 -0.192500
v 0.137500 0.470000 -0.216292
v 0.170000 0.470000 -0.225000
v 0.202500 0.470000 -0.216292
v 0.226292 0.470000 -0.192500
v 0.215000 0.230000 -0.160000
v 0.206406 0.230000 -0.133550
v 0.183906 0.230000 -0.117202
v 0.156094 0.230000 -0.117202
v 0.133594 0.230000 -0.133550
v 0.125000 0.230000 -0.160000
v 0.133594 0.230000 -0.186450
v 0.156094 0.230000 -0.202798
v 0.183906 0.230000 -0.202798
v 0.206406 0.230000 -0.186450
v 0.215000 0.270000 -0.160000
v 0.206406 0.270000 -0.133550
v 0.183906 0.270000 -0.117202
v 0.156094 0.270000 -0.117202
v 0.133594 0.270000 -0.133550
v 0.125000 0.270000 -0.160000
v 0.133594 0.270000 -0.186450
v 0.156094 0.270000 -0.202798
v 0.183906 0.270000 -0.202798
v 0.206406 0.270000 -0.186450
v -0.200000 0.112500 -0.162500
v 0.020000 0.112500 -0.162500
v 0.020000 0.187500 -0.162500
v -0.200000 0.187500 -0.162500
v -0.200000 0.112500 -0.137500
v 0.020000 0.112500 -0.137500
v 0.020000 0.187500 -0.137500
v -0.200000 0.187500 -0.137500
v 0.197933 0.613261 -0.012500
v 0.197933 0.613261 0.012500
v 0.222067 0.606739 -0.012500
v 0.222067 0.606739 0.012500
v 0.297933 0.983261 -0.012500
v 0.297933 0.983261 0.012500
v 0.322067 0.976739 -0.012500
v 0.322067 0.976739 0.012500
v 0.115000 0.060000 -0.167500
v 0.245000 0.060000 -0.167500
v 0.245000 0.140000 -0.167500
v 0.115000 0.140000 -0.167500
v 0.115000 0.060000 -0.132500
v 0.245000 0.060000 -0.132500
v 0.245000 0.140000 -0.132500
v 0.115000 0.140000 -0.132500
vt 0.000000 0.000000
vt 1.000000 0.000000
vt 1.000000 1.000000
vt 0.000000 1.000000
vt 0.000000 0.000000
vt 1.000000 0.000000
vt 1.000000 1.000000
vt 0.000000 1.000000
vt 0.000000 0.000000
vt 1.000000 0.000000
vt 1.000000 1.000000
vt 0.000000 1.000000
vt 0.000000 0.000000
vt 1.000000 0.000000
vt 1.000000 1.000000
vt 0.000000 1.000000
vt 0.000000 0.000000
vt 1.000000 0.000000
vt 1.000000 1.000000
vt 0.000000 1.000000
vt 0.000000 0.000000
vt 1.000000 0.000000
vt 1.000000 1.000000
vt 0.000000 1.000000
vt 0.000000 0.000000
vt 1.000000 0.000000
vt 1.000000 1.000000
vt 0.000000 1.000000
vt 0.000000 0.000000
vt 1.000000 0.000000
vt 1.000000 1.000000
vt 0.000000 1.000000
vt 0.000000 0.000000
vt 1.000000 0.000000
vt 1.000000 1.000000
vt 0.000000 1.000000
vt 0.000000 0.000000
vt 1.000000 0.000000
vt 1.000000 1.000000
vt 0.000000 1.000000
vt 0.000000 0.000000
vt 1.000000 0.000000
vt 1.000000 1.000000
vt 0.000000 1.000000
vt 0.000000 0.000000
vt 1.000000 0.000000
vt 1.000000 1.000000
vt 0.000000 1.000000
vt 0.000000 0.000000
vt 1.000000 0.000000
vt 1.000000 1.000000
vt 0.000000 1.000000
vt 0.000000 0.000000
vt 1.000000 0.000000
vt 1.000000 1.000000
vt 0.000000 1.000000
vt 0.000000 0.000000
vt 1.000000 0.000000
vt 1.000000 1.000000
vt 0.000000 1.000000
vt 0.000000 0.000000
vt 1.000000 0.000000
vt 1.000000 1.000000
vt 0.000000 1.000000
vt 0.000000 0.000000
vt 1.000000 0.000000
vt 1.000000 1.000000
vt 0.000000 1.000000
vt 0.000000 0.000000
vt 1.000000 0.000000
vt 1.000000 1.000000
vt 0.000000 1.000000
vt 0.000000 0.000000
vt 1.000000 0.000000
vt 1.000000 1.000000
vt 0.000000 1.000000
vt 0.000000 0.000000
vt 1.000000 0.000000
vt 1.000000 1.000000
vt 0.000000 1.000000
vt 0.000000 0.000000
vt 1.000000 0.000000
vt 1.000000 1.000000
vt 0.000000 1.000000
vt 0.000000 0.000000
vt 1.000000 0.000000
vt 1.000000 1.000000
vt 0.000000 1.000000
vt 0.000000 0.000000
vt 1.000000 0.000000
vt 1.000000 1.000000
vt 0.000000 1.000000
vt 0.000000 0.000000
vt 1.000000 0.000000
vt 1.000000 1.000000
vt 0.000000 1.000000
vt 0.000000 0.000000
vt 1.000000 0.000000
vt 1.000000 1.000000
vt 0.000000 1.000000
vt 0.000000 0.000000
vt 1.000000 0.000000
vt 1.000000 1.000000
vt 0.000000 1.000000
vt 0.000000 0.000000
vt 1.000000 0.000000
vt 1.000000 1.000000
vt 0.000000 1.000000
vt 0.000000 0.000000
vt 1.000000 0.000000
vt 1.000000 1.000000
vt 0.000000 1.000000
vt 0.000000 0.000000
vt 1.000000 0.000000
vt 1.000000 1.000000
vt 0.000000 1.000000
vt 0.000000 0.000000
vt 1.000000 0.000000
vt 1.000000 1.000000
vt 0.000000 1.000000
vt 0.000000 0.000000
vt 1.000000 0.000000
vt 1.000000 1.000000
vt 0.000000 1.000000
vt 0.000000 0.000000
vt 1.000000 0.000000
vt 1.000000 1.000000
vt 0.000000 1.000000
vt 0.000000 0.000000
vt 1.000000 0.000000
vt 1.000000 1.000000
vt 0.000000 1.000000
vt 0.000000 0.000000
vt 1.000000 0.000000
vt 1.000000 1.000000
vt 0.000000 1.000000
vt 0.000000 0.000000
vt 1.000000 0.000000
vt 1.000000 1.000000
vt 0.000000 1.000000
vt 0.000000 0.000000
vt 1.000000 0.000000
vt 1.000000 1.000000
vt 0.000000 1.000000
vt 0.000000 0.000000
vt 1.000000 0.000000
vt 1.000000 1.000000
vt 0.000000 1.000000
vt 0.000000 0.000000
vt 1.000000 0.000000
vt 1.000000 1.000000
vt 0.000000 1.000000
vt 0.000000 0.000000
vt 1.000000 0.000000
vt 1.000000 1.000000
vt 0.000000 1.000000
vt 0.000000 0.000000
vt 1.000000 0.000000
vt 1.000000 1.000000
vt 0.000000 1.000000
vt 0.000000 0.000000
vt 1.000000 0.000000
vt 1.000000 1.000000
vt 0.000000 1.000000
vt 0.000000 0.000000
vt 1.000000 0.000000
vt 1.000000 1.000000
vt 0.000000 1.000000
vt 0.000000 0.000000
vt 1.000000 0.000000
vt 1.000000 1.000000
vt 0.000000 1.000000
vt 0.000000 0.000000
vt 1.000000 0.000000
vt 1.000000 1.000000
vt 0.000000 1.000000
vt 0.000000 0.000000
vt 1.000000 0.000000
vt 1.000000 1.000000
vt 0.000000 1.000000
vt 0.000000 0.000000
vt 1.000000 0.000000
vt 1.000000 1.000000
vt 0.000000 1.000000
vt 0.000000 0.000000
vt 1.000000 0.000000
vt 1.000000 1.000000
vt 0.000000 1.000000
vt 0.000000 0.000000
vt 1.000000 0.000000
vt 1.000000 1.000000
vt 0.000000 1.000000
vt 1.000000 0.500000
vt 0.933013 0.750000
vt 0.750000 0.933013
vt 0.500000 1.000000
vt 0.250000 0.933013
vt 0.066987 0.750000
vt 0.000000 0.500000
vt 0.066987 0.250000
vt 0.250000 0.066987
vt 0.500000 0.000000
vt 0.750000 0.066987
vt 0.933013 0.250000
vt 1.000000 0.500000
vt 0.933013 0.750000
vt 0.750000 0.933013
vt 0.500000 1.000000
vt 0.250000 0.933013
vt 0.066987 0.750000
vt 0.000000 0.500000
vt 0.066987 0.250000
vt 0.250000 0.066987
vt 0.500000 0.000000
vt 0.750000 0.066987
vt 0.933013 0.250000
vt 0.000000 0.000000
vt 1.000000 0.000000
vt 1.000000 1.000000
vt 0.000000 1.000000
vt 0.000000 0.000000
vt 1.000000 0.000000
vt 1.000000 1.000000
vt 0.000000 1.000000
vt 0.000000 0.000000
vt 1.000000 0.000000
vt 1.000000 1.000000
vt 0.000000 1.000000
vt 0.000000 0.000000
vt 1.000000 0.000000
vt 1.000000 1.000000
vt 0.000000 1.000000
vt 0.000000 0.000000
vt 1.000000 0.000000
vt 1.000000 1.000000
vt 0.000000 1.000000
vt 0.000000 0.000000
vt 1.000000 0.000000
vt 1.000000 1.000000
vt 0.000000 1.000000
vt 0.000000 0.000000
vt 1.000000 0.000000
vt 1.000000 1.000000
vt 0.000000 1.000000
vt 0.000000 0.000000
vt 1.000000 0.000000
vt 1.000000 1.000000
vt 0.000000 1.000000
vt 0.000000 0.000000
vt 1.000000 0.000000
vt 1.000000 1.000000
vt 0.000000 1.000000
vt 0.000000 0.000000
vt 1.000000 0.000000
vt 1.000000 1.000000
vt 0.000000 1.000000
vt 1.000000 0.500000
vt 0.904508 0.793893
vt 0.654508 0.975528
vt 0.345492 0.975528
vt 0.095492 0.793893
vt 0.000000 0.500000
vt 0.095492 0.206107
vt 0.345492 0.024472
vt 0.654508 0.024472
vt 0.904508 0.206107
vt 1.000000 0.500000
vt 0.904508 0.793893
vt 0.654508 0.975528
vt 0.345492 0.975528
vt 0.095492 0.793893
vt 0.000000 0.500000
vt 0.095492 0.206107
vt 0.345492 0.024472
vt 0.654508 0.024472
vt 0.904508 0.206107
vt 0.000000 0.000000
vt 1.000000 0.000000
vt 1.000000 1.000000
vt 0.000000 1.000000
vt 0.000000 0.000000
vt 1.000000 0.000000
vt 1.000000 1.000000
vt 0.000000 1.000000
vt 0.000000 0.000000
vt 1.000000 0.000000
vt 1.000000 1.000000
vt 0.000000 1.000000
vt 0.000000 0.000000
vt 1.000000 0.000000
vt 1.000000 1.000000
vt 0.000000 1.000000
vt 0.000000 0.000000
vt 1.000000 0.000000
vt 1.000000 1.000000
vt 0.000000 1.000000
vt 0.000000 0.000000
vt 1.000000 0.000000
vt 1.000000 1.000000
vt 0.000000 1.000000
vt 0.000000 0.000000
vt 1.000000 0.000000
vt 1.000000 1.000000
vt 0.000000 1.000000
vt 0.000000 0.000000
vt 1.000000 0.000000
vt 1.000000 1.000000
vt 0.000000 1.000000
vt 0.000000 0.000000
vt 1.000000 0.000000
vt 1.000000 1.000000
vt 0.000000 1.000000
vt 0.000000 0.000000
vt 1.000000 0.000000
vt 1.000000 1.000000
vt 0.000000 1.000000
vt 0.000000 0.000000
vt 1.000000 0.000000
vt 1.000000 1.000000
vt 0.000000 1.000000
vt 0.000000 0.000000
vt 1.000000 0.000000
vt 1.000000 1.000000
vt 0.000000 1.000000
vt 0.000000 0.000000
vt 1.000000 0.000000
vt 1.000000 1.000000
vt 0.000000 1.000000
vt 0.000000 0.000000
vt 1.000000 0.000000
vt 1.000000 1.000000
vt 0.000000 1.000000
vt 0.000000 0.000000
vt 1.000000 0.000000
vt 1.000000 1.000000
vt 0.000000 1.000000
vt 0.000000 0.000000
vt 1.000000 0.000000
vt 1.000000 1.000000
vt 0.000000 1.000000
vt 0.000000 0.000000
vt 1.000000 0.000000
vt 1.000000 1.000000
vt 0.000000 1.000000
vt 0.000000 0.000000
vt 1.000000 0.000000
vt 1.000000 1.000000
vt 0.000000 1.000000
o RadioBody
usemtl MAT_METAL
f 1/1 4/2 3/3 2/4
f 5/5 6/6 7/7 8/8
f 1/9 2/10 6/11 5/12
f 4/13 8/14 7/15 3/16
f 1/17 5/18 8/19 4/20
f 2/21 3/22 7/23 6/24
o SpeakerRecess
f 9/25 12/26 11/27 10/28
f 13/29 14/30 15/31 16/32
f 9/33 10/34 14/35 13/36
f 12/37 16/38 15/39 11/40
f 9/41 13/42 16/43 12/44
f 10/45 11/46 15/47 14/48
o SpeakerBar
f 17/49 20/50 19/51 18/52
f 21/53 22/54 23/55 24/56
f 17/57 18/58 22/59 21/60
f 20/61 24/62 23/63 19/64
f 17/65 21/66 24/67 20/68
f 18/69 19/70 23/71 22/72
f 25/73 28/74 27/75 26/76
f 29/77 30/78 31/79 32/80
f 25/81 26/82 30/83 29/84
f 28/85 32/86 31/87 27/88
f 25/89 29/90 32/91 28/92
f 26/93 27/94 31/95 30/96
f 33/97 36/98 35/99 34/100
f 37/101 38/102 39/103 40/104
f 33/105 34/106 38/107 37/108
f 36/109 40/110 39/111 35/112
f 33/113 37/114 40/115 36/116
f 34/117 35/118 39/119 38/120
f 41/121 44/122 43/123 42/124
f 45/125 46/126 47/127 48/128
f 41/129 42/130 46/131 45/132
f 44/133 48/134 47/135 43/136
f 41/137 45/138 48/139 44/140
f 42/141 43/142 47/143 46/144
o OversizeTuningDial
f 49/145 50/146 62/147 61/148
f 50/149 51/150 63/151 62/152
f 51/153 52/154 64/155 63/156
f 52/157 53/158 65/159 64/160
f 53/161 54/162 66/163 65/164
f 54/165 55/166 67/167 66/168
f 55/169 56/170 68/171 67/172
f 56/173 57/174 69/175 68/176
f 57/177 58/178 70/179 69/180
f 58/181 59/182 71/183 70/184
f 59/185 60/186 72/187 71/188
f 60/189 49/190 61/191 72/192
f 60/193 59/194 58/195 57/196 56/197 55/198 54/199 53/200 52/201 51/202 50/203 49/204
f 61/205 62/206 63/207 64/208 65/209 66/210 67/211 68/212 69/213 70/214 71/215 72/216
o PowerDial
f 73/217 74/218 84/219 83/220
f 74/221 75/222 85/223 84/224
f 75/225 76/226 86/227 85/228
f 76/229 77/230 87/231 86/232
f 77/233 78/234 88/235 87/236
f 78/237 79/238 89/239 88/240
f 79/241 80/242 90/243 89/244
f 80/245 81/246 91/247 90/248
f 81/249 82/250 92/251 91/252
f 82/253 73/254 83/255 92/256
f 82/257 81/258 80/259 79/260 78/261 77/262 76/263 75/264 74/265 73/266
f 83/267 84/268 85/269 86/270 87/271 88/272 89/273 90/274 91/275 92/276
o StateDisplay
usemtl MAT_CANVAS
f 93/277 96/278 95/279 94/280
f 97/281 98/282 99/283 100/284
f 93/285 94/286 98/287 97/288
f 96/289 100/290 99/291 95/292
f 93/293 97/294 100/295 96/296
f 94/297 95/298 99/299 98/300
o Antenna
usemtl MAT_METAL
f 101/301 102/302 104/303 103/304
f 105/305 107/306 108/307 106/308
f 101/309 105/310 106/311 102/312
f 103/313 104/314 108/315 107/316
f 101/317 103/318 107/319 105/320
f 102/321 106/322 108/323 104/324
o KeyedBatterySocket
f 109/325 112/326 111/327 110/328
f 113/329 114/330 115/331 116/332
f 109/333 110/334 114/335 113/336
f 112/337 116/338 115/339 111/340
f 109/341 113/342 116/343 112/344
f 110/345 111/346 115/347 114/348
