# PROJECT OEN production source mesh: PRP_HEAVY_CRATE_001
mtllib PRP_HEAVY_CRATE_001.mtl
s off
v -0.510000 0.020000 -0.320000
v 0.510000 0.020000 -0.320000
v 0.510000 0.620000 -0.320000
v -0.510000 0.620000 -0.320000
v -0.510000 0.020000 0.320000
v 0.510000 0.020000 0.320000
v 0.510000 0.620000 0.320000
v -0.510000 0.620000 0.320000
v -0.480000 0.000000 -0.348500
v 0.480000 0.000000 -0.348500
v 0.480000 0.160000 -0.348500
v -0.480000 0.160000 -0.348500
v -0.480000 0.000000 -0.313500
v 0.480000 0.000000 -0.313500
v 0.480000 0.160000 -0.313500
v -0.480000 0.160000 -0.313500
v -0.480000 0.210000 -0.348500
v 0.480000 0.210000 -0.348500
v 0.480000 0.370000 -0.348500
v -0.480000 0.370000 -0.348500
v -0.480000 0.210000 -0.313500
v 0.480000 0.210000 -0.313500
v 0.480000 0.370000 -0.313500
v -0.480000 0.370000 -0.313500
v -0.480000 0.430000 -0.348500
v 0.480000 0.430000 -0.348500
v 0.480000 0.590000 -0.348500
v -0.480000 0.590000 -0.348500
v -0.480000 0.430000 -0.313500
v 0.480000 0.430000 -0.313500
v 0.480000 0.590000 -0.313500
v -0.480000 0.590000 -0.313500
v -0.505000 0.010000 -0.340000
v -0.435000 0.010000 -0.340000
v -0.435000 0.630000 -0.340000
v -0.505000 0.630000 -0.340000
v -0.505000 0.010000 0.340000
v -0.435000 0.010000 0.340000
v -0.435000 0.630000 0.340000
v -0.505000 0.630000 0.340000
v 0.435000 0.010000 -0.340000
v 0.505000 0.010000 -0.340000
v 0.505000 0.630000 -0.340000
v 0.435000 0.630000 -0.340000
v 0.435000 0.010000 0.340000
v 0.505000 0.010000 0.340000
v 0.505000 0.630000 0.340000
v 0.435000 0.630000 0.340000
v -0.540000 0.610000 -0.345000
v 0.540000 0.610000 -0.345000
v 0.540000 0.700000 -0.345000
v -0.540000 0.700000 -0.345000
v -0.540000 0.610000 0.345000
v 0.540000 0.610000 0.345000
v 0.540000 0.700000 0.345000
v -0.540000 0.700000 0.345000
v -0.280000 0.305000 -0.285000
v -0.280000 0.305000 -0.355000
v -0.280000 0.375000 -0.285000
v -0.280000 0.375000 -0.355000
v 0.280000 0.305000 -0.285000
v 0.280000 0.305000 -0.355000
v 0.280000 0.375000 -0.285000
v 0.280000 0.375000 -0.355000
v -0.315000 0.260000 -0.355000
v -0.315000 0.260000 -0.285000
v -0.245000 0.260000 -0.355000
v -0.245000 0.260000 -0.285000
v -0.315000 0.390000 -0.355000
v -0.315000 0.390000 -0.285000
v -0.245000 0.390000 -0.355000
v -0.245000 0.390000 -0.285000
v 0.245000 0.260000 -0.355000
v 0.245000 0.260000 -0.285000
v 0.315000 0.260000 -0.355000
v 0.315000 0.260000 -0.285000
v 0.245000 0.390000 -0.355000
v 0.245000 0.390000 -0.285000
v 0.315000 0.390000 -0.355000
v 0.315000 0.390000 -0.285000
v -0.280000 0.305000 0.355000
v -0.280000 0.305000 0.285000
v -0.280000 0.375000 0.355000
v -0.280000 0.375000 0.285000
v 0.280000 0.305000 0.355000
v 0.280000 0.305000 0.285000
v 0.280000 0.375000 0.355000
v 0.280000 0.375000 0.285000
v -0.315000 0.260000 0.285000
v -0.315000 0.260000 0.355000
v -0.245000 0.260000 0.285000
v -0.245000 0.260000 0.355000
v -0.315000 0.390000 0.285000
v -0.315000 0.390000 0.355000
v -0.245000 0.390000 0.285000
v -0.245000 0.390000 0.355000
v 0.245000 0.260000 0.285000
v 0.245000 0.260000 0.355000
v 0.315000 0.260000 0.285000
v 0.315000 0.260000 0.355000
v 0.245000 0.390000 0.285000
v 0.245000 0.390000 0.355000
v 0.315000 0.390000 0.285000
v 0.315000 0.390000 0.355000
vt 0.000000 0.000000
vt 1.000000 0.000000
vt 1.000000 1.000000
vt 0.000000 1.000000
vt 0.000000 0.000000
vt 1.000000 0.000000
vt 1.000000 1.000000
vt 0.000000 1.000000
vt 0.000000 0.000000
vt 1.000000 0.000000
vt 1.000000 1.000000
vt 0.000000 1.000000
vt 0.000000 0.000000
vt 1.000000 0.000000
vt 1.000000 1.000000
vt 0.000000 1.000000
vt 0.000000 0.000000
vt 1.000000 0.000000
vt 1.000000 1.000000
vt 0.000000 1.000000
vt 0.000000 0.000000
vt 1.000000 0.000000
vt 1.000000 1.000000
vt 0.000000 1.000000
vt 0.000000 0.000000
vt 1.000000 0.000000
vt 1.000000 1.000000
vt 0.000000 1.000000
vt 0.000000 0.000000
vt 1.000000 0.000000
vt 1.000000 1.000000
vt 0.000000 1.000000
vt 0.000000 0.000000
vt 1.000000 0.000000
vt 1.000000 1.000000
vt 0.000000 1.000000
vt 0.000000 0.000000
vt 1.000000 0.000000
vt 1.000000 1.000000
vt 0.000000 1.000000
vt 0.000000 0.000000
vt 1.000000 0.000000
vt 1.000000 1.000000
vt 0.000000 1.000000
vt 0.000000 0.000000
vt 1.000000 0.000000
vt 1.000000 1.000000
vt 0.000000 1.000000
vt 0.000000 0.000000
vt 1.000000 0.000000
vt 1.000000 1.000000
vt 0.000000 1.000000
vt 0.000000 0.000000
vt 1.000000 0.000000
vt 1.000000 1.000000
vt 0.000000 1.000000
vt 0.000000 0.000000
vt 1.000000 0.000000
vt 1.000000 1.000000
vt 0.000000 1.000000
vt 0.000000 0.000000
vt 1.000000 0.000000
vt 1.000000 1.000000
vt 0.000000 1.000000
vt 0.000000 0.000000
vt 1.000000 0.000000
vt 1.000000 1.000000
vt 0.000000 1.000000
vt 0.000000 0.000000
vt 1.000000 0.000000
vt 1.000000 1.000000
vt 0.000000 1.000000
vt 0.000000 0.000000
vt 1.000000 0.000000
vt 1.000000 1.000000
vt 0.000000 1.000000
vt 0.000000 0.000000
vt 1.000000 0.000000
vt 1.000000 1.000000
vt 0.000000 1.000000
vt 0.000000 0.000000
vt 1.000000 0.000000
vt 1.000000 1.000000
vt 0.000000 1.000000
vt 0.000000 0.000000
vt 1.000000 0.000000
vt 1.000000 1.000000
vt 0.000000 1.000000
vt 0.000000 0.000000
vt 1.000000 0.000000
vt 1.000000 1.000000
vt 0.000000 1.000000
vt 0.000000 0.000000
vt 1.000000 0.000000
vt 1.000000 1.000000
vt 0.000000 1.000000
vt 0.000000 0.000000
vt 1.000000 0.000000
vt 1.000000 1.000000
vt 0.000000 1.000000
vt 0.000000 0.000000
vt 1.000000 0.000000
vt 1.000000 1.000000
vt 0.000000 1.000000
vt 0.000000 0.000000
vt 1.000000 0.000000
vt 1.000000 1.000000
vt 0.000000 1.000000
vt 0.000000 0.000000
vt 1.000000 0.000000
vt 1.000000 1.000000
vt 0.000000 1.000000
vt 0.000000 0.000000
vt 1.000000 0.000000
vt 1.000000 1.000000
vt 0.000000 1.000000
vt 0.000000 0.000000
vt 1.000000 0.000000
vt 1.000000 1.000000
vt 0.000000 1.000000
vt 0.000000 0.000000
vt 1.000000 0.000000
vt 1.000000 1.000000
vt 0.000000 1.000000
vt 0.000000 0.000000
vt 1.000000 0.000000
vt 1.000000 1.000000
vt 0.000000 1.000000
vt 0.000000 0.000000
vt 1.000000 0.000000
vt 1.000000 1.000000
vt 0.000000 1.000000
vt 0.000000 0.000000
vt 1.000000 0.000000
vt 1.000000 1.000000
vt 0.000000 1.000000
vt 0.000000 0.000000
vt 1.000000 0.000000
vt 1.000000 1.000000
vt 0.000000 1.000000
vt 0.000000 0.000000
vt 1.000000 0.000000
vt 1.000000 1.000000
vt 0.000000 1.000000
vt 0.000000 0.000000
vt 1.000000 0.000000
vt 1.000000 1.000000
vt 0.000000 1.000000
vt 0.000000 0.000000
vt 1.000000 0.000000
vt 1.000000 1.000000
vt 0.000000 1.000000
vt 0.000000 0.000000
vt 1.000000 0.000000
vt 1.000000 1.000000
vt 0.000000 1.000000
vt 0.000000 0.000000
vt 1.000000 0.000000
vt 1.000000 1.000000
vt 0.000000 1.000000
vt 0.000000 0.000000
vt 1.000000 0.000000
vt 1.000000 1.000000
vt 0.000000 1.000000
vt 0.000000 0.000000
vt 1.000000 0.000000
vt 1.000000 1.000000
vt 0.000000 1.000000
vt 0.000000 0.000000
vt 1.000000 0.000000
vt 1.000000 1.000000
vt 0.000000 1.000000
vt 0.000000 0.000000
vt 1.000000 0.000000
vt 1.000000 1.000000
vt 0.000000 1.000000
vt 0.000000 0.000000
vt 1.000000 0.000000
vt 1.000000 1.000000
vt 0.000000 1.000000
vt 0.000000 0.000000
vt 1.000000 0.000000
vt 1.000000 1.000000
vt 0.000000 1.000000
vt 0.000000 0.000000
vt 1.000000 0.000000
vt 1.000000 1.000000
vt 0.000000 1.000000
vt 0.000000 0.000000
vt 1.000000 0.000000
vt 1.000000 1.000000
vt 0.000000 1.000000
vt 0.000000 0.000000
vt 1.000000 0.000000
vt 1.000000 1.000000
vt 0.000000 1.000000
vt 0.000000 0.000000
vt 1.000000 0.000000
vt 1.000000 1.000000
vt 0.000000 1.000000
vt 0.000000 0.000000
vt 1.000000 0.000000
vt 1.000000 1.000000
vt 0.000000 1.000000
vt 0.000000 0.000000
vt 1.000000 0.000000
vt 1.000000 1.000000
vt 0.000000 1.000000
vt 0.000000 0.000000
vt 1.000000 0.000000
vt 1.000000 1.000000
vt 0.000000 1.000000
vt 0.000000 0.000000
vt 1.000000 0.000000
vt 1.000000 1.000000
vt 0.000000 1.000000
vt 0.000000 0.000000
vt 1.000000 0.000000
vt 1.000000 1.000000
vt 0.000000 1.000000
vt 0.000000 0.000000
vt 1.000000 0.000000
vt 1.000000 1.000000
vt 0.000000 1.000000
vt 0.000000 0.000000
vt 1.000000 0.000000
vt 1.000000 1.000000
vt 0.000000 1.000000
vt 0.000000 0.000000
vt 1.000000 0.000000
vt 1.000000 1.000000
vt 0.000000 1.000000
vt 0.000000 0.000000
vt 1.000000 0.000000
vt 1.000000 1.000000
vt 0.000000 1.000000
vt 0.000000 0.000000
vt 1.000000 0.000000
vt 1.000000 1.000000
vt 0.000000 1.000000
vt 0.000000 0.000000
vt 1.000000 0.000000
vt 1.000000 1.000000
vt 0.000000 1.000000
vt 0.000000 0.000000
vt 1.000000 0.000000
vt 1.000000 1.000000
vt 0.000000 1.000000
vt 0.000000 0.000000
vt 1.000000 0.000000
vt 1.000000 1.000000
vt 0.000000 1.000000
vt 0.000000 0.000000
vt 1.000000 0.000000
vt 1.000000 1.000000
vt 0.000000 1.000000
vt 0.000000 0.000000
vt 1.000000 0.000000
vt 1.000000 1.000000
vt 0.000000 1.000000
vt 0.000000 0.000000
vt 1.000000 0.000000
vt 1.000000 1.000000
vt 0.000000 1.000000
vt 0.000000 0.000000
vt 1.000000 0.000000
vt 1.000000 1.000000
vt 0.000000 1.000000
vt 0.000000 0.000000
vt 1.000000 0.000000
vt 1.000000 1.000000
vt 0.000000 1.000000
vt 0.000000 0.000000
vt 1.000000 0.000000
vt 1.000000 1.000000
vt 0.000000 1.000000
vt 0.000000 0.000000
vt 1.000000 0.000000
vt 1.000000 1.000000
vt 0.000000 1.000000
vt 0.000000 0.000000
vt 1.000000 0.000000
vt 1.000000 1.000000
vt 0.000000 1.000000
vt 0.000000 0.000000
vt 1.000000 0.000000
vt 1.000000 1.000000
vt 0.000000 1.000000
vt 0.000000 0.000000
vt 1.000000 0.000000
vt 1.000000 1.000000
vt 0.000000 1.000000
vt 0.000000 0.000000
vt 1.000000 0.000000
vt 1.000000 1.000000
vt 0.000000 1.000000
vt 0.000000 0.000000
vt 1.000000 0.000000
vt 1.000000 1.000000
vt 0.000000 1.000000
vt 0.000000 0.000000
vt 1.000000 0.000000
vt 1.000000 1.000000
vt 0.000000 1.000000
vt 0.000000 0.000000
vt 1.000000 0.000000
vt 1.000000 1.000000
vt 0.000000 1.000000
vt 0.000000 0.000000
vt 1.000000 0.000000
vt 1.000000 1.000000
vt 0.000000 1.000000
o CrateBody
usemtl MAT_WOOD
f 1/1 4/2 3/3 2/4
f 5/5 6/6 7/7 8/8
f 1/9 2/10 6/11 5/12
f 4/13 8/14 7/15 3/16
f 1/17 5/18 8/19 4/20
f 2/21 3/22 7/23 6/24
o FrontSlat_0.08
f 9/25 12/26 11/27 10/28
f 13/29 14/30 15/31 16/32
f 9/33 10/34 14/35 13/36
f 12/37 16/38 15/39 11/40
f 9/41 13/42 16/43 12/44
f 10/45 11/46 15/47 14/48
o FrontSlat_0.29
f 17/49 20/50 19/51 18/52
f 21/53 22/54 23/55 24/56
f 17/57 18/58 22/59 21/60
f 20/61 24/62 23/63 19/64
f 17/65 21/66 24/67 20/68
f 18/69 19/70 23/71 22/72
o FrontSlat_0.51
f 25/73 28/74 27/75 26/76
f 29/77 30/78 31/79 32/80
f 25/81 26/82 30/83 29/84
f 28/85 32/86 31/87 27/88
f 25/89 29/90 32/91 28/92
f 26/93 27/94 31/95 30/96
o CornerBrace
f 33/97 36/98 35/99 34/100
f 37/101 38/102 39/103 40/104
f 33/105 34/106 38/107 37/108
f 36/109 40/110 39/111 35/112
f 33/113 37/114 40/115 36/116
f 34/117 35/118 39/119 38/120
f 41/121 44/122 43/123 42/124
f 45/125 46/126 47/127 48/128
f 41/129 42/130 46/131 45/132
f 44/133 48/134 47/135 43/136
f 41/137 45/138 48/139 44/140
f 42/141 43/142 47/143 46/144
o LidClosed
f 49/145 52/146 51/147 50/148
f 53/149 54/150 55/151 56/152
f 49/153 50/154 54/155 53/156
f 52/157 56/158 55/159 51/160
f 49/161 53/162 56/163 52/164
f 50/165 51/166 55/167 54/168
o BroadCarryHandle
usemtl MAT_METAL
f 57/169 58/170 60/171 59/172
f 61/173 63/174 64/175 62/176
f 57/177 61/178 62/179 58/180
f 59/181 60/182 64/183 63/184
f 57/185 59/186 63/187 61/188
f 58/189 62/190 64/191 60/192
o HandleMount
f 65/193 66/194 68/195 67/196
f 69/197 71/198 72/199 70/200
f 65/201 69/202 70/203 66/204
f 67/205 68/206 72/207 71/208
f 65/209 67/210 71/211 69/212
f 66/213 70/214 72/215 68/216
f 73/217 74/218 76/219 75/220
f 77/221 79/222 80/223 78/224
f 73/225 77/226 78/227 74/228
f 75/229 76/230 80/231 79/232
f 73/233 75/234 79/235 77/236
f 74/237 78/238 80/239 76/240
o BroadCarryHandle
f 81/241 82/242 84/243 83/244
f 85/245 87/246 88/247 86/248
f 81/249 85/250 86/251 82/252
f 83/253 84/254 88/255 87/256
f 81/257 83/258 87/259 85/260
f 82/261 86/262 88/263 84/264
o HandleMount
f 89/265 90/266 92/267 91/268
f 93/269 95/270 96/271 94/272
f 89/273 93/274 94/275 90/276
f 91/277 92/278 96/279 95/280
f 89/281 91/282 95/283 93/284
f 90/285 94/286 96/287 92/288
f 97/289 98/290 100/291 99/292
f 101/293 103/294 104/295 102/296
f 97/297 101/298 102/299 98/300
f 99/301 100/302 104/303 103/304
f 97/305 99/306 103/307 101/308
f 98/309 102/310 104/311 100/312
