# PROJECT OEN production source mesh: PRP_SHELTER_ROPE_001
mtllib PRP_SHELTER_ROPE_001.mtl
s off
v 0.192000 0.040000 0.000000
v 0.181000 0.059053 0.000000
v 0.159000 0.059053 0.000000
v 0.148000 0.040000 0.000000
v 0.159000 0.020947 0.000000
v 0.181000 0.020947 0.000000
v 0.180421 0.040000 0.065668
v 0.170084 0.059053 0.061906
v 0.149411 0.059053 0.054381
v 0.139075 0.040000 0.050619
v 0.149411 0.020947 0.054381
v 0.170084 0.020947 0.061906
v 0.147081 0.040000 0.123415
v 0.138654 0.059053 0.116345
v 0.121801 0.059053 0.102203
v 0.113375 0.040000 0.095133
v 0.121801 0.020947 0.102203
v 0.138654 0.020947 0.116345
v 0.096000 0.040000 0.166277
v 0.090500 0.059053 0.156751
v 0.079500 0.059053 0.137698
v 0.074000 0.040000 0.128172
v 0.079500 0.020947 0.137698
v 0.090500 0.020947 0.156751
v 0.033340 0.040000 0.189083
v 0.031430 0.059053 0.178250
v 0.027610 0.059053 0.156584
v 0.025700 0.040000 0.145752
v 0.027610 0.020947 0.156584
v 0.031430 0.020947 0.178250
v -0.033340 0.040000 0.189083
v -0.031430 0.059053 0.178250
v -0.027610 0.059053 0.156584
v -0.025700 0.040000 0.145752
v -0.027610 0.020947 0.156584
v -0.031430 0.020947 0.178250
v -0.096000 0.040000 0.166277
v -0.090500 0.059053 0.156751
v -0.079500 0.059053 0.137698
v -0.074000 0.040000 0.128172
v -0.079500 0.020947 0.137698
v -0.090500 0.020947 0.156751
v -0.147081 0.040000 0.123415
v -0.138654 0.059053 0.116345
v -0.121801 0.059053 0.102203
v -0.113375 0.040000 0.095133
v -0.121801 0.020947 0.102203
v -0.138654 0.020947 0.116345
v -0.180421 0.040000 0.065668
v -0.170084 0.059053 0.061906
v -0.149411 0.059053 0.054381
v -0.139075 0.040000 0.050619
v -0.149411 0.020947 0.054381
v -0.170084 0.020947 0.061906
v -0.192000 0.040000 0.000000
v -0.181000 0.059053 0.000000
v -0.159000 0.059053 0.000000
v -0.148000 0.040000 0.000000
v -0.159000 0.020947 0.000000
v -0.181000 0.020947 0.000000
v -0.180421 0.040000 -0.065668
v -0.170084 0.059053 -0.061906
v -0.149411 0.059053 -0.054381
v -0.139075 0.040000 -0.050619
v -0.149411 0.020947 -0.054381
v -0.170084 0.020947 -0.061906
v -0.147081 0.040000 -0.123415
v -0.138654 0.059053 -0.116345
v -0.121801 0.059053 -0.102203
v -0.113375 0.040000 -0.095133
v -0.121801 0.020947 -0.102203
v -0.138654 0.020947 -0.116345
v -0.096000 0.040000 -0.166277
v -0.090500 0.059053 -0.156751
v -0.079500 0.059053 -0.137698
v -0.074000 0.040000 -0.128172
v -0.079500 0.020947 -0.137698
v -0.090500 0.020947 -0.156751
v -0.033340 0.040000 -0.189083
v -0.031430 0.059053 -0.178250
v -0.027610 0.059053 -0.156584
v -0.025700 0.040000 -0.145752
v -0.027610 0.020947 -0.156584
v -0.031430 0.020947 -0.178250
v 0.033340 0.040000 -0.189083
v 0.031430 0.059053 -0.178250
v 0.027610 0.059053 -0.156584
v 0.025700 0.040000 -0.145752
v 0.027610 0.020947 -0.156584
v 0.031430 0.020947 -0.178250
v 0.096000 0.040000 -0.166277
v 0.090500 0.059053 -0.156751
v 0.079500 0.059053 -0.137698
v 0.074000 0.040000 -0.128172
v 0.079500 0.020947 -0.137698
v 0.090500 0.020947 -0.156751
v 0.147081 0.040000 -0.123415
v 0.138654 0.059053 -0.116345
v 0.121801 0.059053 -0.102203
v 0.113375 0.040000 -0.095133
v 0.121801 0.020947 -0.102203
v 0.138654 0.020947 -0.116345
v 0.180421 0.040000 -0.065668
v 0.170084 0.059053 -0.061906
v 0.149411 0.059053 -0.054381
v 0.139075 0.040000 -0.050619
v 0.149411 0.020947 -0.054381
v 0.170084 0.020947 -0.061906
v 0.182000 0.080000 0.000000
v 0.171000 0.099053 0.000000
v 0.149000 0.099053 0.000000
v 0.138000 0.080000 0.000000
v 0.149000 0.060947 0.000000
v 0.171000 0.060947 0.000000
v 0.171024 0.080000 0.062248
v 0.160687 0.099053 0.058485
v 0.140014 0.099053 0.050961
v 0.129678 0.080000 0.047199
v 0.140014 0.060947 0.050961
v 0.160687 0.060947 0.058485
v 0.139420 0.080000 0.116987
v 0.130994 0.099053 0.109917
v 0.114141 0.099053 0.095775
v 0.105714 0.080000 0.088705
v 0.114141 0.060947 0.095775
v 0.130994 0.060947 0.109917
v 0.091000 0.080000 0.157617
v 0.085500 0.099053 0.148090
v 0.074500 0.099053 0.129038
v 0.069000 0.080000 0.119512
v 0.074500 0.060947 0.129038
v 0.085500 0.060947 0.148090
v 0.031604 0.080000 0.179235
v 0.029694 0.099053 0.168402
v 0.025874 0.099053 0.146736
v 0.023963 0.080000 0.135903
v 0.025874 0.060947 0.146736
v 0.029694 0.060947 0.168402
v -0.031604 0.080000 0.179235
v -0.029694 0.099053 0.168402
v -0.025874 0.099053 0.146736
v -0.023963 0.080000 0.135903
v -0.025874 0.060947 0.146736
v -0.029694 0.060947 0.168402
v -0.091000 0.080000 0.157617
v -0.085500 0.099053 0.148090
v -0.074500 0.099053 0.129038
v -0.069000 0.080000 0.119512
v -0.074500 0.060947 0.129038
v -0.085500 0.060947 0.148090
v -0.139420 0.080000 0.116987
v -0.130994 0.099053 0.109917
v -0.114141 0.099053 0.095775
v -0.105714 0.080000 0.088705
v -0.114141 0.060947 0.095775
v -0.130994 0.060947 0.109917
v -0.171024 0.080000 0.062248
v -0.160687 0.099053 0.058485
v -0.140014 0.099053 0.050961
v -0.129678 0.080000 0.047199
v -0.140014 0.060947 0.050961
v -0.160687 0.060947 0.058485
v -0.182000 0.080000 0.000000
v -0.171000 0.099053 0.000000
v -0.149000 0.099053 0.000000
v -0.138000 0.080000 0.000000
v -0.149000 0.060947 0.000000
v -0.171000 0.060947 0.000000
v -0.171024 0.080000 -0.062248
v -0.160687 0.099053 -0.058485
v -0.140014 0.099053 -0.050961
v -0.129678 0.080000 -0.047199
v -0.140014 0.060947 -0.050961
v -0.160687 0.060947 -0.058485
v -0.139420 0.080000 -0.116987
v -0.130994 0.099053 -0.109917
v -0.114141 0.099053 -0.095775
v -0.105714 0.080000 -0.088705
v -0.114141 0.060947 -0.095775
v -0.130994 0.060947 -0.109917
v -0.091000 0.080000 -0.157617
v -0.085500 0.099053 -0.148090
v -0.074500 0.099053 -0.129038
v -0.069000 0.080000 -0.119512
v -0.074500 0.060947 -0.129038
v -0.085500 0.060947 -0.148090
v -0.031604 0.080000 -0.179235
v -0.029694 0.099053 -0.168402
v -0.025874 0.099053 -0.146736
v -0.023963 0.080000 -0.135903
v -0.025874 0.060947 -0.146736
v -0.029694 0.060947 -0.168402
v 0.031604 0.080000 -0.179235
v 0.029694 0.099053 -0.168402
v 0.025874 0.099053 -0.146736
v 0.023963 0.080000 -0.135903
v 0.025874 0.060947 -0.146736
v 0.029694 0.060947 -0.168402
v 0.091000 0.080000 -0.157617
v 0.085500 0.099053 -0.148090
v 0.074500 0.099053 -0.129038
v 0.069000 0.080000 -0.119512
v 0.074500 0.060947 -0.129038
v 0.085500 0.060947 -0.148090
v 0.139420 0.080000 -0.116987
v 0.130994 0.099053 -0.109917
v 0.114141 0.099053 -0.095775
v 0.105714 0.080000 -0.088705
v 0.114141 0.060947 -0.095775
v 0.130994 0.060947 -0.109917
v 0.171024 0.080000 -0.062248
v 0.160687 0.099053 -0.058485
v 0.140014 0.099053 -0.050961
v 0.129678 0.080000 -0.047199
v 0.140014 0.060947 -0.050961
v 0.160687 0.060947 -0.058485
v 0.172000 0.120000 0.000000
v 0.161000 0.139053 0.000000
v 0.139000 0.139053 0.000000
v 0.128000 0.120000 0.000000
v 0.139000 0.100947 0.000000
v 0.161000 0.100947 0.000000
v 0.161627 0.120000 0.058827
v 0.151291 0.139053 0.055065
v 0.130617 0.139053 0.047541
v 0.120281 0.120000 0.043779
v 0.130617 0.100947 0.047541
v 0.151291 0.100947 0.055065
v 0.131760 0.120000 0.110559
v 0.123333 0.139053 0.103489
v 0.106480 0.139053 0.089347
v 0.098054 0.120000 0.082277
v 0.106480 0.100947 0.089347
v 0.123333 0.100947 0.103489
v 0.086000 0.120000 0.148956
v 0.080500 0.139053 0.139430
v 0.069500 0.139053 0.120378
v 0.064000 0.120000 0.110851
v 0.069500 0.100947 0.120378
v 0.080500 0.100947 0.139430
v 0.029867 0.120000 0.169387
v 0.027957 0.139053 0.158554
v 0.024137 0.139053 0.136888
v 0.022227 0.120000 0.126055
v 0.024137 0.100947 0.136888
v 0.027957 0.100947 0.158554
v -0.029867 0.120000 0.169387
v -0.027957 0.139053 0.158554
v -0.024137 0.139053 0.136888
v -0.022227 0.120000 0.126055
v -0.024137 0.100947 0.136888
v -0.027957 0.100947 0.158554
v -0.086000 0.120000 0.148956
v -0.080500 0.139053 0.139430
v -0.069500 0.139053 0.120378
v -0.064000 0.120000 0.110851
v -0.069500 0.100947 0.120378
v -0.080500 0.100947 0.139430
v -0.131760 0.120000 0.110559
v -0.123333 0.139053 0.103489
v -0.106480 0.139053 0.089347
v -0.098054 0.120000 0.082277
v -0.106480 0.100947 0.089347
v -0.123333 0.100947 0.103489
v -0.161627 0.120000 0.058827
v -0.151291 0.139053 0.055065
v -0.130617 0.139053 0.047541
v -0.120281 0.120000 0.043779
v -0.130617 0.100947 0.047541
v -0.151291 0.100947 0.055065
v -0.172000 0.120000 0.000000
v -0.161000 0.139053 0.000000
v -0.139000 0.139053 0.000000
v -0.128000 0.120000 0.000000
v -0.139000 0.100947 0.000000
v -0.161000 0.100947 0.000000
v -0.161627 0.120000 -0.058827
v -0.151291 0.139053 -0.055065
v -0.130617 0.139053 -0.047541
v -0.120281 0.120000 -0.043779
v -0.130617 0.100947 -0.047541
v -0.151291 0.100947 -0.055065
v -0.131760 0.120000 -0.110559
v -0.123333 0.139053 -0.103489
v -0.106480 0.139053 -0.089347
v -0.098054 0.120000 -0.082277
v -0.106480 0.100947 -0.089347
v -0.123333 0.100947 -0.103489
v -0.086000 0.120000 -0.148956
v -0.080500 0.139053 -0.139430
v -0.069500 0.139053 -0.120378
v -0.064000 0.120000 -0.110851
v -0.069500 0.100947 -0.120378
v -0.080500 0.100947 -0.139430
v -0.029867 0.120000 -0.169387
v -0.027957 0.139053 -0.158554
v -0.024137 0.139053 -0.136888
v -0.022227 0.120000 -0.126055
v -0.024137 0.100947 -0.136888
v -0.027957 0.100947 -0.158554
v 0.029867 0.120000 -0.169387
v 0.027957 0.139053 -0.158554
v 0.024137 0.139053 -0.136888
v 0.022227 0.120000 -0.126055
v 0.024137 0.100947 -0.136888
v 0.027957 0.100947 -0.158554
v 0.086000 0.120000 -0.148956
v 0.080500 0.139053 -0.139430
v 0.069500 0.139053 -0.120378
v 0.064000 0.120000 -0.110851
v 0.069500 0.100947 -0.120378
v 0.080500 0.100947 -0.139430
v 0.131760 0.120000 -0.110559
v 0.123333 0.139053 -0.103489
v 0.106480 0.139053 -0.089347
v 0.098054 0.120000 -0.082277
v 0.106480 0.100947 -0.089347
v 0.123333 0.100947 -0.103489
v 0.161627 0.120000 -0.058827
v 0.151291 0.139053 -0.055065
v 0.130617 0.139053 -0.047541
v 0.120281 0.120000 -0.043779
v 0.130617 0.100947 -0.047541
v 0.151291 0.100947 -0.055065
v 0.162000 0.160000 0.000000
v 0.151000 0.179053 0.000000
v 0.129000 0.179053 0.000000
v 0.118000 0.160000 0.000000
v 0.129000 0.140947 0.000000
v 0.151000 0.140947 0.000000
v 0.152230 0.160000 0.055407
v 0.141894 0.179053 0.051645
v 0.121220 0.179053 0.044121
v 0.110884 0.160000 0.040358
v 0.121220 0.140947 0.044121
v 0.141894 0.140947 0.051645
v 0.124099 0.160000 0.104132
v 0.115673 0.179053 0.097061
v 0.098820 0.179053 0.082920
v 0.090393 0.160000 0.075849
v 0.098820 0.140947 0.082920
v 0.115673 0.140947 0.097061
v 0.081000 0.160000 0.140296
v 0.075500 0.179053 0.130770
v 0.064500 0.179053 0.111717
v 0.059000 0.160000 0.102191
v 0.064500 0.140947 0.111717
v 0.075500 0.140947 0.130770
v 0.028131 0.160000 0.159539
v 0.026221 0.179053 0.148706
v 0.022401 0.179053 0.127040
v 0.020490 0.160000 0.116207
v 0.022401 0.140947 0.127040
v 0.026221 0.140947 0.148706
v -0.028131 0.160000 0.159539
v -0.026221 0.179053 0.148706
v -0.022401 0.179053 0.127040
v -0.020490 0.160000 0.116207
v -0.022401 0.140947 0.127040
v -0.026221 0.140947 0.148706
v -0.081000 0.160000 0.140296
v -0.075500 0.179053 0.130770
v -0.064500 0.179053 0.111717
v -0.059000 0.160000 0.102191
v -0.064500 0.140947 0.111717
v -0.075500 0.140947 0.130770
v -0.124099 0.160000 0.104132
v -0.115673 0.179053 0.097061
v -0.098820 0.179053 0.082920
v -0.090393 0.160000 0.075849
v -0.098820 0.140947 0.082920
v -0.115673 0.140947 0.097061
v -0.152230 0.160000 0.055407
v -0.141894 0.179053 0.051645
v -0.121220 0.179053 0.044121
v -0.110884 0.160000 0.040358
v -0.121220 0.140947 0.044121
v -0.141894 0.140947 0.051645
v -0.162000 0.160000 0.000000
v -0.151000 0.179053 0.000000
v -0.129000 0.179053 0.000000
v -0.118000 0.160000 0.000000
v -0.129000 0.140947 0.000000
v -0.151000 0.140947 0.000000
v -0.152230 0.160000 -0.055407
v -0.141894 0.179053 -0.051645
v -0.121220 0.179053 -0.044121
v -0.110884 0.160000 -0.040358
v -0.121220 0.140947 -0.044121
v -0.141894 0.140947 -0.051645
v -0.124099 0.160000 -0.104132
v -0.115673 0.179053 -0.097061
v -0.098820 0.179053 -0.082920
v -0.090393 0.160000 -0.075849
v -0.098820 0.140947 -0.082920
v -0.115673 0.140947 -0.097061
v -0.081000 0.160000 -0.140296
v -0.075500 0.179053 -0.130770
v -0.064500 0.179053 -0.111717
v -0.059000 0.160000 -0.102191
v -0.064500 0.140947 -0.111717
v -0.075500 0.140947 -0.130770
v -0.028131 0.160000 -0.159539
v -0.026221 0.179053 -0.148706
v -0.022401 0.179053 -0.127040
v -0.020490 0.160000 -0.116207
v -0.022401 0.140947 -0.127040
v -0.026221 0.140947 -0.148706
v 0.028131 0.160000 -0.159539
v 0.026221 0.179053 -0.148706
v 0.022401 0.179053 -0.127040
v 0.020490 0.160000 -0.116207
v 0.022401 0.140947 -0.127040
v 0.026221 0.140947 -0.148706
v 0.081000 0.160000 -0.140296
v 0.075500 0.179053 -0.130770
v 0.064500 0.179053 -0.111717
v 0.059000 0.160000 -0.102191
v 0.064500 0.140947 -0.111717
v 0.075500 0.140947 -0.130770
v 0.124099 0.160000 -0.104132
v 0.115673 0.179053 -0.097061
v 0.098820 0.179053 -0.082920
v 0.090393 0.160000 -0.075849
v 0.098820 0.140947 -0.082920
v 0.115673 0.140947 -0.097061
v 0.152230 0.160000 -0.055407
v 0.141894 0.179053 -0.051645
v 0.121220 0.179053 -0.044121
v 0.110884 0.160000 -0.040358
v 0.121220 0.140947 -0.044121
v 0.141894 0.140947 -0.051645
v 0.122143 0.139962 0.017090
v 0.138855 0.139962 -0.024691
v 0.141145 0.180038 0.024691
v 0.157857 0.180038 -0.017090
v 0.322143 0.029962 0.097090
v 0.338855 0.029962 0.055309
v 0.341145 0.070038 0.104691
v 0.357857 0.070038 0.062910
v -0.205000 0.160000 0.320000
v -0.217500 0.181651 0.320000
v -0.242500 0.181651 0.320000
v -0.255000 0.160000 0.320000
v -0.242500 0.138349 0.320000
v -0.217500 0.138349 0.320000
v -0.218369 0.160000 0.378574
v -0.229631 0.181651 0.373151
v -0.252156 0.181651 0.362304
v -0.263418 0.160000 0.356880
v -0.252156 0.138349 0.362304
v -0.229631 0.138349 0.373151
v -0.255829 0.160000 0.425547
v -0.263622 0.181651 0.415774
v -0.279210 0.181651 0.396229
v -0.287003 0.160000 0.386456
v -0.279210 0.138349 0.396229
v -0.263622 0.138349 0.415774
v -0.309960 0.160000 0.451615
v -0.312741 0.181651 0.439429
v -0.318304 0.181651 0.415055
v -0.321086 0.160000 0.402869
v -0.318304 0.138349 0.415055
v -0.312741 0.138349 0.439429
v -0.370040 0.160000 0.451615
v -0.367259 0.181651 0.439429
v -0.361696 0.181651 0.415055
v -0.358914 0.160000 0.402869
v -0.361696 0.138349 0.415055
v -0.367259 0.138349 0.439429
v -0.424171 0.160000 0.425547
v -0.416378 0.181651 0.415774
v -0.400790 0.181651 0.396229
v -0.392997 0.160000 0.386456
v -0.400790 0.138349 0.396229
v -0.416378 0.138349 0.415774
v -0.461631 0.160000 0.378574
v -0.450369 0.181651 0.373151
v -0.427844 0.181651 0.362304
v -0.416582 0.160000 0.356880
v -0.427844 0.138349 0.362304
v -0.450369 0.138349 0.373151
v -0.475000 0.160000 0.320000
v -0.462500 0.181651 0.320000
v -0.437500 0.181651 0.320000
v -0.425000 0.160000 0.320000
v -0.437500 0.138349 0.320000
v -0.462500 0.138349 0.320000
v -0.461631 0.160000 0.261426
v -0.450369 0.181651 0.266849
v -0.427844 0.181651 0.277696
v -0.416582 0.160000 0.283120
v -0.427844 0.138349 0.277696
v -0.450369 0.138349 0.266849
v -0.424171 0.160000 0.214453
v -0.416378 0.181651 0.224226
v -0.400790 0.181651 0.243771
v -0.392997 0.160000 0.253544
v -0.400790 0.138349 0.243771
v -0.416378 0.138349 0.224226
v -0.370040 0.160000 0.188385
v -0.367259 0.181651 0.200571
v -0.361696 0.181651 0.224945
v -0.358914 0.160000 0.237131
v -0.361696 0.138349 0.224945
v -0.367259 0.138349 0.200571
v -0.309960 0.160000 0.188385
v -0.312741 0.181651 0.200571
v -0.318304 0.181651 0.224945
v -0.321086 0.160000 0.237131
v -0.318304 0.138349 0.224945
v -0.312741 0.138349 0.200571
v -0.255829 0.160000 0.214453
v -0.263622 0.181651 0.224226
v -0.279210 0.181651 0.243771
v -0.287003 0.160000 0.253544
v -0.279210 0.138349 0.243771
v -0.263622 0.138349 0.224226
v -0.218369 0.160000 0.261426
v -0.229631 0.181651 0.266849
v -0.252156 0.181651 0.277696
v -0.263418 0.160000 0.283120
v -0.252156 0.138349 0.277696
v -0.229631 0.138349 0.266849
v 0.475000 0.160000 0.320000
v 0.462500 0.181651 0.320000
v 0.437500 0.181651 0.320000
v 0.425000 0.160000 0.320000
v 0.437500 0.138349 0.320000
v 0.462500 0.138349 0.320000
v 0.461631 0.160000 0.378574
v 0.450369 0.181651 0.373151
v 0.427844 0.181651 0.362304
v 0.416582 0.160000 0.356880
v 0.427844 0.138349 0.362304
v 0.450369 0.138349 0.373151
v 0.424171 0.160000 0.425547
v 0.416378 0.181651 0.415774
v 0.400790 0.181651 0.396229
v 0.392997 0.160000 0.386456
v 0.400790 0.138349 0.396229
v 0.416378 0.138349 0.415774
v 0.370040 0.160000 0.451615
v 0.367259 0.181651 0.439429
v 0.361696 0.181651 0.415055
v 0.358914 0.160000 0.402869
v 0.361696 0.138349 0.415055
v 0.367259 0.138349 0.439429
v 0.309960 0.160000 0.451615
v 0.312741 0.181651 0.439429
v 0.318304 0.181651 0.415055
v 0.321086 0.160000 0.402869
v 0.318304 0.138349 0.415055
v 0.312741 0.138349 0.439429
v 0.255829 0.160000 0.425547
v 0.263622 0.181651 0.415774
v 0.279210 0.181651 0.396229
v 0.287003 0.160000 0.386456
v 0.279210 0.138349 0.396229
v 0.263622 0.138349 0.415774
v 0.218369 0.160000 0.378574
v 0.229631 0.181651 0.373151
v 0.252156 0.181651 0.362304
v 0.263418 0.160000 0.356880
v 0.252156 0.138349 0.362304
v 0.229631 0.138349 0.373151
v 0.205000 0.160000 0.320000
v 0.217500 0.181651 0.320000
v 0.242500 0.181651 0.320000
v 0.255000 0.160000 0.320000
v 0.242500 0.138349 0.320000
v 0.217500 0.138349 0.320000
v 0.218369 0.160000 0.261426
v 0.229631 0.181651 0.266849
v 0.252156 0.181651 0.277696
v 0.263418 0.160000 0.283120
v 0.252156 0.138349 0.277696
v 0.229631 0.138349 0.266849
v 0.255829 0.160000 0.214453
v 0.263622 0.181651 0.224226
v 0.279210 0.181651 0.243771
v 0.287003 0.160000 0.253544
v 0.279210 0.138349 0.243771
v 0.263622 0.138349 0.224226
v 0.309960 0.160000 0.188385
v 0.312741 0.181651 0.200571
v 0.318304 0.181651 0.224945
v 0.321086 0.160000 0.237131
v 0.318304 0.138349 0.224945
v 0.312741 0.138349 0.200571
v 0.370040 0.160000 0.188385
v 0.367259 0.181651 0.200571
v 0.361696 0.181651 0.224945
v 0.358914 0.160000 0.237131
v 0.361696 0.138349 0.224945
v 0.367259 0.138349 0.200571
v 0.424171 0.160000 0.214453
v 0.416378 0.181651 0.224226
v 0.400790 0.181651 0.243771
v 0.392997 0.160000 0.253544
v 0.400790 0.138349 0.243771
v 0.416378 0.138349 0.224226
v 0.461631 0.160000 0.261426
v 0.450369 0.181651 0.266849
v 0.427844 0.181651 0.277696
v 0.416582 0.160000 0.283120
v 0.427844 0.138349 0.277696
v 0.450369 0.138349 0.266849
vt 0.000000 0.000000
vt 1.000000 0.000000
vt 1.000000 1.000000
vt 0.000000 1.000000
vt 0.000000 0.000000
vt 1.000000 0.000000
vt 1.000000 1.000000
vt 0.000000 1.000000
vt 0.000000 0.000000
vt 1.000000 0.000000
vt 1.000000 1.000000
vt 0.000000 1.000000
vt 0.000000 0.000000
vt 1.000000 0.000000
vt 1.000000 1.000000
vt 0.000000 1.000000
vt 0.000000 0.000000
vt 1.000000 0.000000
vt 1.000000 1.000000
vt 0.000000 1.000000
vt 0.000000 0.000000
vt 1.000000 0.000000
vt 1.000000 1.000000
vt 0.000000 1.000000
vt 0.000000 0.000000
vt 1.000000 0.000000
vt 1.000000 1.000000
vt 0.000000 1.000000
vt 0.000000 0.000000
vt 1.000000 0.000000
vt 1.000000 1.000000
vt 0.000000 1.000000
vt 0.000000 0.000000
vt 1.000000 0.000000
vt 1.000000 1.000000
vt 0.000000 1.000000
vt 0.000000 0.000000
vt 1.000000 0.000000
vt 1.000000 1.000000
vt 0.000000 1.000000
vt 0.000000 0.000000
vt 1.000000 0.000000
vt 1.000000 1.000000
vt 0.000000 1.000000
vt 0.000000 0.000000
vt 1.000000 0.000000
vt 1.000000 1.000000
vt 0.000000 1.000000
vt 0.000000 0.000000
vt 1.000000 0.000000
vt 1.000000 1.000000
vt 0.000000 1.000000
vt 0.000000 0.000000
vt 1.000000 0.000000
vt 1.000000 1.000000
vt 0.000000 1.000000
vt 0.000000 0.000000
vt 1.000000 0.000000
vt 1.000000 1.000000
vt 0.000000 1.000000
vt 0.000000 0.000000
vt 1.000000 0.000000
vt 1.000000 1.000000
vt 0.000000 1.000000
vt 0.000000 0.000000
vt 1.000000 0.000000
vt 1.000000 1.000000
vt 0.000000 1.000000
vt 0.000000 0.000000
vt 1.000000 0.000000
vt 1.000000 1.000000
vt 0.000000 1.000000
vt 0.000000 0.000000
vt 1.000000 0.000000
vt 1.000000 1.000000
vt 0.000000 1.000000
vt 0.000000 0.000000
vt 1.000000 0.000000
vt 1.000000 1.000000
vt 0.000000 1.000000
vt 0.000000 0.000000
vt 1.000000 0.000000
vt 1.000000 1.000000
vt 0.000000 1.000000
vt 0.000000 0.000000
vt 1.000000 0.000000
vt 1.000000 1.000000
vt 0.000000 1.000000
vt 0.000000 0.000000
vt 1.000000 0.000000
vt 1.000000 1.000000
vt 0.000000 1.000000
vt 0.000000 0.000000
vt 1.000000 0.000000
vt 1.000000 1.000000
vt 0.000000 1.000000
vt 0.000000 0.000000
vt 1.000000 0.000000
vt 1.000000 1.000000
vt 0.000000 1.000000
vt 0.000000 0.000000
vt 1.000000 0.000000
vt 1.000000 1.000000
vt 0.000000 1.000000
vt 0.000000 0.000000
vt 1.000000 0.000000
vt 1.000000 1.000000
vt 0.000000 1.000000
vt 0.000000 0.000000
vt 1.000000 0.000000
vt 1.000000 1.000000
vt 0.000000 1.000000
vt 0.000000 0.000000
vt 1.000000 0.000000
vt 1.000000 1.000000
vt 0.000000 1.000000
vt 0.000000 0.000000
vt 1.000000 0.000000
vt 1.000000 1.000000
vt 0.000000 1.000000
vt 0.000000 0.000000
vt 1.000000 0.000000
vt 1.000000 1.000000
vt 0.000000 1.000000
vt 0.000000 0.000000
vt 1.000000 0.000000
vt 1.000000 1.000000
vt 0.000000 1.000000
vt 0.000000 0.000000
vt 1.000000 0.000000
vt 1.000000 1.000000
vt 0.000000 1.000000
vt 0.000000 0.000000
vt 1.000000 0.000000
vt 1.000000 1.000000
vt 0.000000 1.000000
vt 0.000000 0.000000
vt 1.000000 0.000000
vt 1.000000 1.000000
vt 0.000000 1.000000
vt 0.000000 0.000000
vt 1.000000 0.000000
vt 1.000000 1.000000
vt 0.000000 1.000000
vt 0.000000 0.000000
vt 1.000000 0.000000
vt 1.000000 1.000000
vt 0.000000 1.000000
vt 0.000000 0.000000
vt 1.000000 0.000000
vt 1.000000 1.000000
vt 0.000000 1.000000
vt 0.000000 0.000000
vt 1.000000 0.000000
vt 1.000000 1.000000
vt 0.000000 1.000000
vt 0.000000 0.000000
vt 1.000000 0.000000
vt 1.000000 1.000000
vt 0.000000 1.000000
vt 0.000000 0.000000
vt 1.000000 0.000000
vt 1.000000 1.000000
vt 0.000000 1.000000
vt 0.000000 0.000000
vt 1.000000 0.000000
vt 1.000000 1.000000
vt 0.000000 1.000000
vt 0.000000 0.000000
vt 1.000000 0.000000
vt 1.000000 1.000000
vt 0.000000 1.000000
vt 0.000000 0.000000
vt 1.000000 0.000000
vt 1.000000 1.000000
vt 0.000000 1.000000
vt 0.000000 0.000000
vt 1.000000 0.000000
vt 1.000000 1.000000
vt 0.000000 1.000000
vt 0.000000 0.000000
vt 1.000000 0.000000
vt 1.000000 1.000000
vt 0.000000 1.000000
vt 0.000000 0.000000
vt 1.000000 0.000000
vt 1.000000 1.000000
vt 0.000000 1.000000
vt 0.000000 0.000000
vt 1.000000 0.000000
vt 1.000000 1.000000
vt 0.000000 1.000000
vt 0.000000 0.000000
vt 1.000000 0.000000
vt 1.000000 1.000000
vt 0.000000 1.000000
vt 0.000000 0.000000
vt 1.000000 0.000000
vt 1.000000 1.000000
vt 0.000000 1.000000
vt 0.000000 0.000000
vt 1.000000 0.000000
vt 1.000000 1.000000
vt 0.000000 1.000000
vt 0.000000 0.000000
vt 1.000000 0.000000
vt 1.000000 1.000000
vt 0.000000 1.000000
vt 0.000000 0.000000
vt 1.000000 0.000000
vt 1.000000 1.000000
vt 0.000000 1.000000
vt 0.000000 0.000000
vt 1.000000 0.000000
vt 1.000000 1.000000
vt 0.000000 1.000000
vt 0.000000 0.000000
vt 1.000000 0.000000
vt 1.000000 1.000000
vt 0.000000 1.000000
vt 0.000000 0.000000
vt 1.000000 0.000000
vt 1.000000 1.000000
vt 0.000000 1.000000
vt 0.000000 0.000000
vt 1.000000 0.000000
vt 1.000000 1.000000
vt 0.000000 1.000000
vt 0.000000 0.000000
vt 1.000000 0.000000
vt 1.000000 1.000000
vt 0.000000 1.000000
vt 0.000000 0.000000
vt 1.000000 0.000000
vt 1.000000 1.000000
vt 0.000000 1.000000
vt 0.000000 0.000000
vt 1.000000 0.000000
vt 1.000000 1.000000
vt 0.000000 1.000000
vt 0.000000 0.000000
vt 1.000000 0.000000
vt 1.000000 1.000000
vt 0.000000 1.000000
vt 0.000000 0.000000
vt 1.000000 0.000000
vt 1.000000 1.000000
vt 0.000000 1.000000
vt 0.000000 0.000000
vt 1.000000 0.000000
vt 1.000000 1.000000
vt 0.000000 1.000000
vt 0.000000 0.000000
vt 1.000000 0.000000
vt 1.000000 1.000000
vt 0.000000 1.000000
vt 0.000000 0.000000
vt 1.000000 0.000000
vt 1.000000 1.000000
vt 0.000000 1.000000
vt 0.000000 0.000000
vt 1.000000 0.000000
vt 1.000000 1.000000
vt 0.000000 1.000000
vt 0.000000 0.000000
vt 1.000000 0.000000
vt 1.000000 1.000000
vt 0.000000 1.000000
vt 0.000000 0.000000
vt 1.000000 0.000000
vt 1.000000 1.000000
vt 0.000000 1.000000
vt 0.000000 0.000000
vt 1.000000 0.000000
vt 1.000000 1.000000
vt 0.000000 1.000000
vt 0.000000 0.000000
vt 1.000000 0.000000
vt 1.000000 1.000000
vt 0.000000 1.000000
vt 0.000000 0.000000
vt 1.000000 0.000000
vt 1.000000 1.000000
vt 0.000000 1.000000
vt 0.000000 0.000000
vt 1.000000 0.000000
vt 1.000000 1.000000
vt 0.000000 1.000000
vt 0.000000 0.000000
vt 1.000000 0.000000
vt 1.000000 1.000000
vt 0.000000 1.000000
vt 0.000000 0.000000
vt 1.000000 0.000000
vt 1.000000 1.000000
vt 0.000000 1.000000
vt 0.000000 0.000000
vt 1.000000 0.000000
vt 1.000000 1.000000
vt 0.000000 1.000000
vt 0.000000 0.000000
vt 1.000000 0.000000
vt 1.000000 1.000000
vt 0.000000 1.000000
vt 0.000000 0.000000
vt 1.000000 0.000000
vt 1.000000 1.000000
vt 0.000000 1.000000
vt 0.000000 0.000000
vt 1.000000 0.000000
vt 1.000000 1.000000
vt 0.000000 1.000000
vt 0.000000 0.000000
vt 1.000000 0.000000
vt 1.000000 1.000000
vt 0.000000 1.000000
vt 0.000000 0.000000
vt 1.000000 0.000000
vt 1.000000 1.000000
vt 0.000000 1.000000
vt 0.000000 0.000000
vt 1.000000 0.000000
vt 1.000000 1.000000
vt 0.000000 1.000000
vt 0.000000 0.000000
vt 1.000000 0.000000
vt 1.000000 1.000000
vt 0.000000 1.000000
vt 0.000000 0.000000
vt 1.000000 0.000000
vt 1.000000 1.000000
vt 0.000000 1.000000
vt 0.000000 0.000000
vt 1.000000 0.000000
vt 1.000000 1.000000
vt 0.000000 1.000000
vt 0.000000 0.000000
vt 1.000000 0.000000
vt 1.000000 1.000000
vt 0.000000 1.000000
vt 0.000000 0.000000
vt 1.000000 0.000000
vt 1.000000 1.000000
vt 0.000000 1.000000
vt 0.000000 0.000000
vt 1.000000 0.000000
vt 1.000000 1.000000
vt 0.000000 1.000000
vt 0.000000 0.000000
vt 1.000000 0.000000
vt 1.000000 1.000000
vt 0.000000 1.000000
vt 0.000000 0.000000
vt 1.000000 0.000000
vt 1.000000 1.000000
vt 0.000000 1.000000
vt 0.000000 0.000000
vt 1.000000 0.000000
vt 1.000000 1.000000
vt 0.000000 1.000000
vt 0.000000 0.000000
vt 1.000000 0.000000
vt 1.000000 1.000000
vt 0.000000 1.000000
vt 0.000000 0.000000
vt 1.000000 0.000000
vt 1.000000 1.000000
vt 0.000000 1.000000
vt 0.000000 0.000000
vt 1.000000 0.000000
vt 1.000000 1.000000
vt 0.000000 1.000000
vt 0.000000 0.000000
vt 1.000000 0.000000
vt 1.000000 1.000000
vt 0.000000 1.000000
vt 0.000000 0.000000
vt 1.000000 0.000000
vt 1.000000 1.000000
vt 0.000000 1.000000
vt 0.000000 0.000000
vt 1.000000 0.000000
vt 1.000000 1.000000
vt 0.000000 1.000000
vt 0.000000 0.000000
vt 1.000000 0.000000
vt 1.000000 1.000000
vt 0.000000 1.000000
vt 0.000000 0.000000
vt 1.000000 0.000000
vt 1.000000 1.000000
vt 0.000000 1.000000
vt 0.000000 0.000000
vt 1.000000 0.000000
vt 1.000000 1.000000
vt 0.000000 1.000000
vt 0.000000 0.000000
vt 1.000000 0.000000
vt 1.000000 1.000000
vt 0.000000 1.000000
vt 0.000000 0.000000
vt 1.000000 0.000000
vt 1.000000 1.000000
vt 0.000000 1.000000
vt 0.000000 0.000000
vt 1.000000 0.000000
vt 1.000000 1.000000
vt 0.000000 1.000000
vt 0.000000 0.000000
vt 1.000000 0.000000
vt 1.000000 1.000000
vt 0.000000 1.000000
vt 0.000000 0.000000
vt 1.000000 0.000000
vt 1.000000 1.000000
vt 0.000000 1.000000
vt 0.000000 0.000000
vt 1.000000 0.000000
vt 1.000000 1.000000
vt 0.000000 1.000000
vt 0.000000 0.000000
vt 1.000000 0.000000
vt 1.000000 1.000000
vt 0.000000 1.000000
vt 0.000000 0.000000
vt 1.000000 0.000000
vt 1.000000 1.000000
vt 0.000000 1.000000
vt 0.000000 0.000000
vt 1.000000 0.000000
vt 1.000000 1.000000
vt 0.000000 1.000000
vt 0.000000 0.000000
vt 1.000000 0.000000
vt 1.000000 1.000000
vt 0.000000 1.000000
vt 0.000000 0.000000
vt 1.000000 0.000000
vt 1.000000 1.000000
vt 0.000000 1.000000
vt 0.000000 0.000000
vt 1.000000 0.000000
vt 1.000000 1.000000
vt 0.000000 1.000000
vt 0.000000 0.000000
vt 1.000000 0.000000
vt 1.000000 1.000000
vt 0.000000 1.000000
vt 0.000000 0.000000
vt 1.000000 0.000000
vt 1.000000 1.000000
vt 0.000000 1.000000
vt 0.000000 0.000000
vt 1.000000 0.000000
vt 1.000000 1.000000
vt 0.000000 1.000000
vt 0.000000 0.000000
vt 1.000000 0.000000
vt 1.000000 1.000000
vt 0.000000 1.000000
vt 0.000000 0.000000
vt 1.000000 0.000000
vt 1.000000 1.000000
vt 0.000000 1.000000
vt 0.000000 0.000000
vt 1.000000 0.000000
vt 1.000000 1.000000
vt 0.000000 1.000000
vt 0.000000 0.000000
vt 1.000000 0.000000
vt 1.000000 1.000000
vt 0.000000 1.000000
vt 0.000000 0.000000
vt 1.000000 0.000000
vt 1.000000 1.000000
vt 0.000000 1.000000
vt 0.000000 0.000000
vt 1.000000 0.000000
vt 1.000000 1.000000
vt 0.000000 1.000000
vt 0.000000 0.000000
vt 1.000000 0.000000
vt 1.000000 1.000000
vt 0.000000 1.000000
vt 0.000000 0.000000
vt 1.000000 0.000000
vt 1.000000 1.000000
vt 0.000000 1.000000
vt 0.000000 0.000000
vt 1.000000 0.000000
vt 1.000000 1.000000
vt 0.000000 1.000000
vt 0.000000 0.000000
vt 1.000000 0.000000
vt 1.000000 1.000000
vt 0.000000 1.000000
vt 0.000000 0.000000
vt 1.000000 0.000000
vt 1.000000 1.000000
vt 0.000000 1.000000
vt 0.000000 0.000000
vt 1.000000 0.000000
vt 1.000000 1.000000
vt 0.000000 1.000000
vt 0.000000 0.000000
vt 1.000000 0.000000
vt 1.000000 1.000000
vt 0.000000 1.000000
vt 0.000000 0.000000
vt 1.000000 0.000000
vt 1.000000 1.000000
vt 0.000000 1.000000
vt 0.000000 0.000000
vt 1.000000 0.000000
vt 1.000000 1.000000
vt 0.000000 1.000000
vt 0.000000 0.000000
vt 1.000000 0.000000
vt 1.000000 1.000000
vt 0.000000 1.000000
vt 0.000000 0.000000
vt 1.000000 0.000000
vt 1.000000 1.000000
vt 0.000000 1.000000
vt 0.000000 0.000000
vt 1.000000 0.000000
vt 1.000000 1.000000
vt 0.000000 1.000000
vt 0.000000 0.000000
vt 1.000000 0.000000
vt 1.000000 1.000000
vt 0.000000 1.000000
vt 0.000000 0.000000
vt 1.000000 0.000000
vt 1.000000 1.000000
vt 0.000000 1.000000
vt 0.000000 0.000000
vt 1.000000 0.000000
vt 1.000000 1.000000
vt 0.000000 1.000000
vt 0.000000 0.000000
vt 1.000000 0.000000
vt 1.000000 1.000000
vt 0.000000 1.000000
vt 0.000000 0.000000
vt 1.000000 0.000000
vt 1.000000 1.000000
vt 0.000000 1.000000
vt 0.000000 0.000000
vt 1.000000 0.000000
vt 1.000000 1.000000
vt 0.000000 1.000000
vt 0.000000 0.000000
vt 1.000000 0.000000
vt 1.000000 1.000000
vt 0.000000 1.000000
vt 0.000000 0.000000
vt 1.000000 0.000000
vt 1.000000 1.000000
vt 0.000000 1.000000
vt 0.000000 0.000000
vt 1.000000 0.000000
vt 1.000000 1.000000
vt 0.000000 1.000000
vt 0.000000 0.000000
vt 1.000000 0.000000
vt 1.000000 1.000000
vt 0.000000 1.000000
vt 0.000000 0.000000
vt 1.000000 0.000000
vt 1.000000 1.000000
vt 0.000000 1.000000
vt 0.000000 0.000000
vt 1.000000 0.000000
vt 1.000000 1.000000
vt 0.000000 1.000000
vt 0.000000 0.000000
vt 1.000000 0.000000
vt 1.000000 1.000000
vt 0.000000 1.000000
vt 0.000000 0.000000
vt 1.000000 0.000000
vt 1.000000 1.000000
vt 0.000000 1.000000
vt 0.000000 0.000000
vt 1.000000 0.000000
vt 1.000000 1.000000
vt 0.000000 1.000000
vt 0.000000 0.000000
vt 1.000000 0.000000
vt 1.000000 1.000000
vt 0.000000 1.000000
vt 0.000000 0.000000
vt 1.000000 0.000000
vt 1.000000 1.000000
vt 0.000000 1.000000
vt 0.000000 0.000000
vt 1.000000 0.000000
vt 1.000000 1.000000
vt 0.000000 1.000000
vt 0.000000 0.000000
vt 1.000000 0.000000
vt 1.000000 1.000000
vt 0.000000 1.000000
vt 0.000000 0.000000
vt 1.000000 0.000000
vt 1.000000 1.000000
vt 0.000000 1.000000
vt 0.000000 0.000000
vt 1.000000 0.000000
vt 1.000000 1.000000
vt 0.000000 1.000000
vt 0.000000 0.000000
vt 1.000000 0.000000
vt 1.000000 1.000000
vt 0.000000 1.000000
vt 0.000000 0.000000
vt 1.000000 0.000000
vt 1.000000 1.000000
vt 0.000000 1.000000
vt 0.000000 0.000000
vt 1.000000 0.000000
vt 1.000000 1.000000
vt 0.000000 1.000000
vt 0.000000 0.000000
vt 1.000000 0.000000
vt 1.000000 1.000000
vt 0.000000 1.000000
vt 0.000000 0.000000
vt 1.000000 0.000000
vt 1.000000 1.000000
vt 0.000000 1.000000
vt 0.000000 0.000000
vt 1.000000 0.000000
vt 1.000000 1.000000
vt 0.000000 1.000000
vt 0.000000 0.000000
vt 1.000000 0.000000
vt 1.000000 1.000000
vt 0.000000 1.000000
vt 0.000000 0.000000
vt 1.000000 0.000000
vt 1.000000 1.000000
vt 0.000000 1.000000
vt 0.000000 0.000000
vt 1.000000 0.000000
vt 1.000000 1.000000
vt 0.000000 1.000000
vt 0.000000 0.000000
vt 1.000000 0.000000
vt 1.000000 1.000000
vt 0.000000 1.000000
vt 0.000000 0.000000
vt 1.000000 0.000000
vt 1.000000 1.000000
vt 0.000000 1.000000
vt 0.000000 0.000000
vt 1.000000 0.000000
vt 1.000000 1.000000
vt 0.000000 1.000000
vt 0.000000 0.000000
vt 1.000000 0.000000
vt 1.000000 1.000000
vt 0.000000 1.000000
vt 0.000000 0.000000
vt 1.000000 0.000000
vt 1.000000 1.000000
vt 0.000000 1.000000
vt 0.000000 0.000000
vt 1.000000 0.000000
vt 1.000000 1.000000
vt 0.000000 1.000000
vt 0.000000 0.000000
vt 1.000000 0.000000
vt 1.000000 1.000000
vt 0.000000 1.000000
vt 0.000000 0.000000
vt 1.000000 0.000000
vt 1.000000 1.000000
vt 0.000000 1.000000
vt 0.000000 0.000000
vt 1.000000 0.000000
vt 1.000000 1.000000
vt 0.000000 1.000000
vt 0.000000 0.000000
vt 1.000000 0.000000
vt 1.000000 1.000000
vt 0.000000 1.000000
vt 0.000000 0.000000
vt 1.000000 0.000000
vt 1.000000 1.000000
vt 0.000000 1.000000
vt 0.000000 0.000000
vt 1.000000 0.000000
vt 1.000000 1.000000
vt 0.000000 1.000000
vt 0.000000 0.000000
vt 1.000000 0.000000
vt 1.000000 1.000000
vt 0.000000 1.000000
vt 0.000000 0.000000
vt 1.000000 0.000000
vt 1.000000 1.000000
vt 0.000000 1.000000
vt 0.000000 0.000000
vt 1.000000 0.000000
vt 1.000000 1.000000
vt 0.000000 1.000000
vt 0.000000 0.000000
vt 1.000000 0.000000
vt 1.000000 1.000000
vt 0.000000 1.000000
vt 0.000000 0.000000
vt 1.000000 0.000000
vt 1.000000 1.000000
vt 0.000000 1.000000
vt 0.000000 0.000000
vt 1.000000 0.000000
vt 1.000000 1.000000
vt 0.000000 1.000000
vt 0.000000 0.000000
vt 1.000000 0.000000
vt 1.000000 1.000000
vt 0.000000 1.000000
vt 0.000000 0.000000
vt 1.000000 0.000000
vt 1.000000 1.000000
vt 0.000000 1.000000
vt 0.000000 0.000000
vt 1.000000 0.000000
vt 1.000000 1.000000
vt 0.000000 1.000000
vt 0.000000 0.000000
vt 1.000000 0.000000
vt 1.000000 1.000000
vt 0.000000 1.000000
vt 0.000000 0.000000
vt 1.000000 0.000000
vt 1.000000 1.000000
vt 0.000000 1.000000
vt 0.000000 0.000000
vt 1.000000 0.000000
vt 1.000000 1.000000
vt 0.000000 1.000000
vt 0.000000 0.000000
vt 1.000000 0.000000
vt 1.000000 1.000000
vt 0.000000 1.000000
vt 0.000000 0.000000
vt 1.000000 0.000000
vt 1.000000 1.000000
vt 0.000000 1.000000
vt 0.000000 0.000000
vt 1.000000 0.000000
vt 1.000000 1.000000
vt 0.000000 1.000000
vt 0.000000 0.000000
vt 1.000000 0.000000
vt 1.000000 1.000000
vt 0.000000 1.000000
vt 0.000000 0.000000
vt 1.000000 0.000000
vt 1.000000 1.000000
vt 0.000000 1.000000
vt 0.000000 0.000000
vt 1.000000 0.000000
vt 1.000000 1.000000
vt 0.000000 1.000000
vt 0.000000 0.000000
vt 1.000000 0.000000
vt 1.000000 1.000000
vt 0.000000 1.000000
vt 0.000000 0.000000
vt 1.000000 0.000000
vt 1.000000 1.000000
vt 0.000000 1.000000
vt 0.000000 0.000000
vt 1.000000 0.000000
vt 1.000000 1.000000
vt 0.000000 1.000000
vt 0.000000 0.000000
vt 1.000000 0.000000
vt 1.000000 1.000000
vt 0.000000 1.000000
vt 0.000000 0.000000
vt 1.000000 0.000000
vt 1.000000 1.000000
vt 0.000000 1.000000
vt 0.000000 0.000000
vt 1.000000 0.000000
vt 1.000000 1.000000
vt 0.000000 1.000000
vt 0.000000 0.000000
vt 1.000000 0.000000
vt 1.000000 1.000000
vt 0.000000 1.000000
vt 0.000000 0.000000
vt 1.000000 0.000000
vt 1.000000 1.000000
vt 0.000000 1.000000
vt 0.000000 0.000000
vt 1.000000 0.000000
vt 1.000000 1.000000
vt 0.000000 1.000000
vt 0.000000 0.000000
vt 1.000000 0.000000
vt 1.000000 1.000000
vt 0.000000 1.000000
vt 0.000000 0.000000
vt 1.000000 0.000000
vt 1.000000 1.000000
vt 0.000000 1.000000
vt 0.000000 0.000000
vt 1.000000 0.000000
vt 1.000000 1.000000
vt 0.000000 1.000000
vt 0.000000 0.000000
vt 1.000000 0.000000
vt 1.000000 1.000000
vt 0.000000 1.000000
vt 0.000000 0.000000
vt 1.000000 0.000000
vt 1.000000 1.000000
vt 0.000000 1.000000
vt 0.000000 0.000000
vt 1.000000 0.000000
vt 1.000000 1.000000
vt 0.000000 1.000000
vt 0.000000 0.000000
vt 1.000000 0.000000
vt 1.000000 1.000000
vt 0.000000 1.000000
vt 0.000000 0.000000
vt 1.000000 0.000000
vt 1.000000 1.000000
vt 0.000000 1.000000
vt 0.000000 0.000000
vt 1.000000 0.000000
vt 1.000000 1.000000
vt 0.000000 1.000000
vt 0.000000 0.000000
vt 1.000000 0.000000
vt 1.000000 1.000000
vt 0.000000 1.000000
vt 0.000000 0.000000
vt 1.000000 0.000000
vt 1.000000 1.000000
vt 0.000000 1.000000
vt 0.000000 0.000000
vt 1.000000 0.000000
vt 1.000000 1.000000
vt 0.000000 1.000000
vt 0.000000 0.000000
vt 1.000000 0.000000
vt 1.000000 1.000000
vt 0.000000 1.000000
vt 0.000000 0.000000
vt 1.000000 0.000000
vt 1.000000 1.000000
vt 0.000000 1.000000
vt 0.000000 0.000000
vt 1.000000 0.000000
vt 1.000000 1.000000
vt 0.000000 1.000000
vt 0.000000 0.000000
vt 1.000000 0.000000
vt 1.000000 1.000000
vt 0.000000 1.000000
vt 0.000000 0.000000
vt 1.000000 0.000000
vt 1.000000 1.000000
vt 0.000000 1.000000
vt 0.000000 0.000000
vt 1.000000 0.000000
vt 1.000000 1.000000
vt 0.000000 1.000000
vt 0.000000 0.000000
vt 1.000000 0.000000
vt 1.000000 1.000000
vt 0.000000 1.000000
vt 0.000000 0.000000
vt 1.000000 0.000000
vt 1.000000 1.000000
vt 0.000000 1.000000
vt 0.000000 0.000000
vt 1.000000 0.000000
vt 1.000000 1.000000
vt 0.000000 1.000000
vt 0.000000 0.000000
vt 1.000000 0.000000
vt 1.000000 1.000000
vt 0.000000 1.000000
vt 0.000000 0.000000
vt 1.000000 0.000000
vt 1.000000 1.000000
vt 0.000000 1.000000
vt 0.000000 0.000000
vt 1.000000 0.000000
vt 1.000000 1.000000
vt 0.000000 1.000000
vt 0.000000 0.000000
vt 1.000000 0.000000
vt 1.000000 1.000000
vt 0.000000 1.000000
vt 0.000000 0.000000
vt 1.000000 0.000000
vt 1.000000 1.000000
vt 0.000000 1.000000
vt 0.000000 0.000000
vt 1.000000 0.000000
vt 1.000000 1.000000
vt 0.000000 1.000000
vt 0.000000 0.000000
vt 1.000000 0.000000
vt 1.000000 1.000000
vt 0.000000 1.000000
vt 0.000000 0.000000
vt 1.000000 0.000000
vt 1.000000 1.000000
vt 0.000000 1.000000
vt 0.000000 0.000000
vt 1.000000 0.000000
vt 1.000000 1.000000
vt 0.000000 1.000000
vt 0.000000 0.000000
vt 1.000000 0.000000
vt 1.000000 1.000000
vt 0.000000 1.000000
vt 0.000000 0.000000
vt 1.000000 0.000000
vt 1.000000 1.000000
vt 0.000000 1.000000
vt 0.000000 0.000000
vt 1.000000 0.000000
vt 1.000000 1.000000
vt 0.000000 1.000000
vt 0.000000 0.000000
vt 1.000000 0.000000
vt 1.000000 1.000000
vt 0.000000 1.000000
vt 0.000000 0.000000
vt 1.000000 0.000000
vt 1.000000 1.000000
vt 0.000000 1.000000
vt 0.000000 0.000000
vt 1.000000 0.000000
vt 1.000000 1.000000
vt 0.000000 1.000000
vt 0.000000 0.000000
vt 1.000000 0.000000
vt 1.000000 1.000000
vt 0.000000 1.000000
vt 0.000000 0.000000
vt 1.000000 0.000000
vt 1.000000 1.000000
vt 0.000000 1.000000
vt 0.000000 0.000000
vt 1.000000 0.000000
vt 1.000000 1.000000
vt 0.000000 1.000000
vt 0.000000 0.000000
vt 1.000000 0.000000
vt 1.000000 1.000000
vt 0.000000 1.000000
vt 0.000000 0.000000
vt 1.000000 0.000000
vt 1.000000 1.000000
vt 0.000000 1.000000
vt 0.000000 0.000000
vt 1.000000 0.000000
vt 1.000000 1.000000
vt 0.000000 1.000000
vt 0.000000 0.000000
vt 1.000000 0.000000
vt 1.000000 1.000000
vt 0.000000 1.000000
vt 0.000000 0.000000
vt 1.000000 0.000000
vt 1.000000 1.000000
vt 0.000000 1.000000
vt 0.000000 0.000000
vt 1.000000 0.000000
vt 1.000000 1.000000
vt 0.000000 1.000000
vt 0.000000 0.000000
vt 1.000000 0.000000
vt 1.000000 1.000000
vt 0.000000 1.000000
vt 0.000000 0.000000
vt 1.000000 0.000000
vt 1.000000 1.000000
vt 0.000000 1.000000
vt 0.000000 0.000000
vt 1.000000 0.000000
vt 1.000000 1.000000
vt 0.000000 1.000000
vt 0.000000 0.000000
vt 1.000000 0.000000
vt 1.000000 1.000000
vt 0.000000 1.000000
vt 0.000000 0.000000
vt 1.000000 0.000000
vt 1.000000 1.000000
vt 0.000000 1.000000
vt 0.000000 0.000000
vt 1.000000 0.000000
vt 1.000000 1.000000
vt 0.000000 1.000000
vt 0.000000 0.000000
vt 1.000000 0.000000
vt 1.000000 1.000000
vt 0.000000 1.000000
vt 0.000000 0.000000
vt 1.000000 0.000000
vt 1.000000 1.000000
vt 0.000000 1.000000
vt 0.000000 0.000000
vt 1.000000 0.000000
vt 1.000000 1.000000
vt 0.000000 1.000000
vt 0.000000 0.000000
vt 1.000000 0.000000
vt 1.000000 1.000000
vt 0.000000 1.000000
vt 0.000000 0.000000
vt 1.000000 0.000000
vt 1.000000 1.000000
vt 0.000000 1.000000
vt 0.000000 0.000000
vt 1.000000 0.000000
vt 1.000000 1.000000
vt 0.000000 1.000000
vt 0.000000 0.000000
vt 1.000000 0.000000
vt 1.000000 1.000000
vt 0.000000 1.000000
vt 0.000000 0.000000
vt 1.000000 0.000000
vt 1.000000 1.000000
vt 0.000000 1.000000
vt 0.000000 0.000000
vt 1.000000 0.000000
vt 1.000000 1.000000
vt 0.000000 1.000000
vt 0.000000 0.000000
vt 1.000000 0.000000
vt 1.000000 1.000000
vt 0.000000 1.000000
vt 0.000000 0.000000
vt 1.000000 0.000000
vt 1.000000 1.000000
vt 0.000000 1.000000
vt 0.000000 0.000000
vt 1.000000 0.000000
vt 1.000000 1.000000
vt 0.000000 1.000000
vt 0.000000 0.000000
vt 1.000000 0.000000
vt 1.000000 1.000000
vt 0.000000 1.000000
vt 0.000000 0.000000
vt 1.000000 0.000000
vt 1.000000 1.000000
vt 0.000000 1.000000
vt 0.000000 0.000000
vt 1.000000 0.000000
vt 1.000000 1.000000
vt 0.000000 1.000000
vt 0.000000 0.000000
vt 1.000000 0.000000
vt 1.000000 1.000000
vt 0.000000 1.000000
vt 0.000000 0.000000
vt 1.000000 0.000000
vt 1.000000 1.000000
vt 0.000000 1.000000
vt 0.000000 0.000000
vt 1.000000 0.000000
vt 1.000000 1.000000
vt 0.000000 1.000000
vt 0.000000 0.000000
vt 1.000000 0.000000
vt 1.000000 1.000000
vt 0.000000 1.000000
vt 0.000000 0.000000
vt 1.000000 0.000000
vt 1.000000 1.000000
vt 0.000000 1.000000
vt 0.000000 0.000000
vt 1.000000 0.000000
vt 1.000000 1.000000
vt 0.000000 1.000000
vt 0.000000 0.000000
vt 1.000000 0.000000
vt 1.000000 1.000000
vt 0.000000 1.000000
vt 0.000000 0.000000
vt 1.000000 0.000000
vt 1.000000 1.000000
vt 0.000000 1.000000
vt 0.000000 0.000000
vt 1.000000 0.000000
vt 1.000000 1.000000
vt 0.000000 1.000000
vt 0.000000 0.000000
vt 1.000000 0.000000
vt 1.000000 1.000000
vt 0.000000 1.000000
vt 0.000000 0.000000
vt 1.000000 0.000000
vt 1.000000 1.000000
vt 0.000000 1.000000
vt 0.000000 0.000000
vt 1.000000 0.000000
vt 1.000000 1.000000
vt 0.000000 1.000000
vt 0.000000 0.000000
vt 1.000000 0.000000
vt 1.000000 1.000000
vt 0.000000 1.000000
vt 0.000000 0.000000
vt 1.000000 0.000000
vt 1.000000 1.000000
vt 0.000000 1.000000
vt 0.000000 0.000000
vt 1.000000 0.000000
vt 1.000000 1.000000
vt 0.000000 1.000000
vt 0.000000 0.000000
vt 1.000000 0.000000
vt 1.000000 1.000000
vt 0.000000 1.000000
vt 0.000000 0.000000
vt 1.000000 0.000000
vt 1.000000 1.000000
vt 0.000000 1.000000
vt 0.000000 0.000000
vt 1.000000 0.000000
vt 1.000000 1.000000
vt 0.000000 1.000000
vt 0.000000 0.000000
vt 1.000000 0.000000
vt 1.000000 1.000000
vt 0.000000 1.000000
vt 0.000000 0.000000
vt 1.000000 0.000000
vt 1.000000 1.000000
vt 0.000000 1.000000
vt 0.000000 0.000000
vt 1.000000 0.000000
vt 1.000000 1.000000
vt 0.000000 1.000000
vt 0.000000 0.000000
vt 1.000000 0.000000
vt 1.000000 1.000000
vt 0.000000 1.000000
vt 0.000000 0.000000
vt 1.000000 0.000000
vt 1.000000 1.000000
vt 0.000000 1.000000
vt 0.000000 0.000000
vt 1.000000 0.000000
vt 1.000000 1.000000
vt 0.000000 1.000000
vt 0.000000 0.000000
vt 1.000000 0.000000
vt 1.000000 1.000000
vt 0.000000 1.000000
vt 0.000000 0.000000
vt 1.000000 0.000000
vt 1.000000 1.000000
vt 0.000000 1.000000
vt 0.000000 0.000000
vt 1.000000 0.000000
vt 1.000000 1.000000
vt 0.000000 1.000000
vt 0.000000 0.000000
vt 1.000000 0.000000
vt 1.000000 1.000000
vt 0.000000 1.000000
vt 0.000000 0.000000
vt 1.000000 0.000000
vt 1.000000 1.000000
vt 0.000000 1.000000
vt 0.000000 0.000000
vt 1.000000 0.000000
vt 1.000000 1.000000
vt 0.000000 1.000000
vt 0.000000 0.000000
vt 1.000000 0.000000
vt 1.000000 1.000000
vt 0.000000 1.000000
vt 0.000000 0.000000
vt 1.000000 0.000000
vt 1.000000 1.000000
vt 0.000000 1.000000
vt 0.000000 0.000000
vt 1.000000 0.000000
vt 1.000000 1.000000
vt 0.000000 1.000000
vt 0.000000 0.000000
vt 1.000000 0.000000
vt 1.000000 1.000000
vt 0.000000 1.000000
vt 0.000000 0.000000
vt 1.000000 0.000000
vt 1.000000 1.000000
vt 0.000000 1.000000
vt 0.000000 0.000000
vt 1.000000 0.000000
vt 1.000000 1.000000
vt 0.000000 1.000000
vt 0.000000 0.000000
vt 1.000000 0.000000
vt 1.000000 1.000000
vt 0.000000 1.000000
vt 0.000000 0.000000
vt 1.000000 0.000000
vt 1.000000 1.000000
vt 0.000000 1.000000
vt 0.000000 0.000000
vt 1.000000 0.000000
vt 1.000000 1.000000
vt 0.000000 1.000000
vt 0.000000 0.000000
vt 1.000000 0.000000
vt 1.000000 1.000000
vt 0.000000 1.000000
vt 0.000000 0.000000
vt 1.000000 0.000000
vt 1.000000 1.000000
vt 0.000000 1.000000
vt 0.000000 0.000000
vt 1.000000 0.000000
vt 1.000000 1.000000
vt 0.000000 1.000000
vt 0.000000 0.000000
vt 1.000000 0.000000
vt 1.000000 1.000000
vt 0.000000 1.000000
vt 0.000000 0.000000
vt 1.000000 0.000000
vt 1.000000 1.000000
vt 0.000000 1.000000
vt 0.000000 0.000000
vt 1.000000 0.000000
vt 1.000000 1.000000
vt 0.000000 1.000000
vt 0.000000 0.000000
vt 1.000000 0.000000
vt 1.000000 1.000000
vt 0.000000 1.000000
vt 0.000000 0.000000
vt 1.000000 0.000000
vt 1.000000 1.000000
vt 0.000000 1.000000
vt 0.000000 0.000000
vt 1.000000 0.000000
vt 1.000000 1.000000
vt 0.000000 1.000000
vt 0.000000 0.000000
vt 1.000000 0.000000
vt 1.000000 1.000000
vt 0.000000 1.000000
vt 0.000000 0.000000
vt 1.000000 0.000000
vt 1.000000 1.000000
vt 0.000000 1.000000
vt 0.000000 0.000000
vt 1.000000 0.000000
vt 1.000000 1.000000
vt 0.000000 1.000000
vt 0.000000 0.000000
vt 1.000000 0.000000
vt 1.000000 1.000000
vt 0.000000 1.000000
vt 0.000000 0.000000
vt 1.000000 0.000000
vt 1.000000 1.000000
vt 0.000000 1.000000
vt 0.000000 0.000000
vt 1.000000 0.000000
vt 1.000000 1.000000
vt 0.000000 1.000000
vt 0.000000 0.000000
vt 1.000000 0.000000
vt 1.000000 1.000000
vt 0.000000 1.000000
vt 0.000000 0.000000
vt 1.000000 0.000000
vt 1.000000 1.000000
vt 0.000000 1.000000
vt 0.000000 0.000000
vt 1.000000 0.000000
vt 1.000000 1.000000
vt 0.000000 1.000000
vt 0.000000 0.000000
vt 1.000000 0.000000
vt 1.000000 1.000000
vt 0.000000 1.000000
vt 0.000000 0.000000
vt 1.000000 0.000000
vt 1.000000 1.000000
vt 0.000000 1.000000
vt 0.000000 0.000000
vt 1.000000 0.000000
vt 1.000000 1.000000
vt 0.000000 1.000000
vt 0.000000 0.000000
vt 1.000000 0.000000
vt 1.000000 1.000000
vt 0.000000 1.000000
vt 0.000000 0.000000
vt 1.000000 0.000000
vt 1.000000 1.000000
vt 0.000000 1.000000
vt 0.000000 0.000000
vt 1.000000 0.000000
vt 1.000000 1.000000
vt 0.000000 1.000000
vt 0.000000 0.000000
vt 1.000000 0.000000
vt 1.000000 1.000000
vt 0.000000 1.000000
vt 0.000000 0.000000
vt 1.000000 0.000000
vt 1.000000 1.000000
vt 0.000000 1.000000
vt 0.000000 0.000000
vt 1.000000 0.000000
vt 1.000000 1.000000
vt 0.000000 1.000000
vt 0.000000 0.000000
vt 1.000000 0.000000
vt 1.000000 1.000000
vt 0.000000 1.000000
vt 0.000000 0.000000
vt 1.000000 0.000000
vt 1.000000 1.000000
vt 0.000000 1.000000
vt 0.000000 0.000000
vt 1.000000 0.000000
vt 1.000000 1.000000
vt 0.000000 1.000000
vt 0.000000 0.000000
vt 1.000000 0.000000
vt 1.000000 1.000000
vt 0.000000 1.000000
vt 0.000000 0.000000
vt 1.000000 0.000000
vt 1.000000 1.000000
vt 0.000000 1.000000
vt 0.000000 0.000000
vt 1.000000 0.000000
vt 1.000000 1.000000
vt 0.000000 1.000000
vt 0.000000 0.000000
vt 1.000000 0.000000
vt 1.000000 1.000000
vt 0.000000 1.000000
vt 0.000000 0.000000
vt 1.000000 0.000000
vt 1.000000 1.000000
vt 0.000000 1.000000
vt 0.000000 0.000000
vt 1.000000 0.000000
vt 1.000000 1.000000
vt 0.000000 1.000000
vt 0.000000 0.000000
vt 1.000000 0.000000
vt 1.000000 1.000000
vt 0.000000 1.000000
vt 0.000000 0.000000
vt 1.000000 0.000000
vt 1.000000 1.000000
vt 0.000000 1.000000
vt 0.000000 0.000000
vt 1.000000 0.000000
vt 1.000000 1.000000
vt 0.000000 1.000000
vt 0.000000 0.000000
vt 1.000000 0.000000
vt 1.000000 1.000000
vt 0.000000 1.000000
vt 0.000000 0.000000
vt 1.000000 0.000000
vt 1.000000 1.000000
vt 0.000000 1.000000
vt 0.000000 0.000000
vt 1.000000 0.000000
vt 1.000000 1.000000
vt 0.000000 1.000000
vt 0.000000 0.000000
vt 1.000000 0.000000
vt 1.000000 1.000000
vt 0.000000 1.000000
vt 0.000000 0.000000
vt 1.000000 0.000000
vt 1.000000 1.000000
vt 0.000000 1.000000
vt 0.000000 0.000000
vt 1.000000 0.000000
vt 1.000000 1.000000
vt 0.000000 1.000000
vt 0.000000 0.000000
vt 1.000000 0.000000
vt 1.000000 1.000000
vt 0.000000 1.000000
vt 0.000000 0.000000
vt 1.000000 0.000000
vt 1.000000 1.000000
vt 0.000000 1.000000
vt 0.000000 0.000000
vt 1.000000 0.000000
vt 1.000000 1.000000
vt 0.000000 1.000000
vt 0.000000 0.000000
vt 1.000000 0.000000
vt 1.000000 1.000000
vt 0.000000 1.000000
vt 0.000000 0.000000
vt 1.000000 0.000000
vt 1.000000 1.000000
vt 0.000000 1.000000
vt 0.000000 0.000000
vt 1.000000 0.000000
vt 1.000000 1.000000
vt 0.000000 1.000000
vt 0.000000 0.000000
vt 1.000000 0.000000
vt 1.000000 1.000000
vt 0.000000 1.000000
vt 0.000000 0.000000
vt 1.000000 0.000000
vt 1.000000 1.000000
vt 0.000000 1.000000
vt 0.000000 0.000000
vt 1.000000 0.000000
vt 1.000000 1.000000
vt 0.000000 1.000000
vt 0.000000 0.000000
vt 1.000000 0.000000
vt 1.000000 1.000000
vt 0.000000 1.000000
vt 0.000000 0.000000
vt 1.000000 0.000000
vt 1.000000 1.000000
vt 0.000000 1.000000
vt 0.000000 0.000000
vt 1.000000 0.000000
vt 1.000000 1.000000
vt 0.000000 1.000000
vt 0.000000 0.000000
vt 1.000000 0.000000
vt 1.000000 1.000000
vt 0.000000 1.000000
vt 0.000000 0.000000
vt 1.000000 0.000000
vt 1.000000 1.000000
vt 0.000000 1.000000
vt 0.000000 0.000000
vt 1.000000 0.000000
vt 1.000000 1.000000
vt 0.000000 1.000000
vt 0.000000 0.000000
vt 1.000000 0.000000
vt 1.000000 1.000000
vt 0.000000 1.000000
vt 0.000000 0.000000
vt 1.000000 0.000000
vt 1.000000 1.000000
vt 0.000000 1.000000
vt 0.000000 0.000000
vt 1.000000 0.000000
vt 1.000000 1.000000
vt 0.000000 1.000000
vt 0.000000 0.000000
vt 1.000000 0.000000
vt 1.000000 1.000000
vt 0.000000 1.000000
vt 0.000000 0.000000
vt 1.000000 0.000000
vt 1.000000 1.000000
vt 0.000000 1.000000
vt 0.000000 0.000000
vt 1.000000 0.000000
vt 1.000000 1.000000
vt 0.000000 1.000000
vt 0.000000 0.000000
vt 1.000000 0.000000
vt 1.000000 1.000000
vt 0.000000 1.000000
vt 0.000000 0.000000
vt 1.000000 0.000000
vt 1.000000 1.000000
vt 0.000000 1.000000
vt 0.000000 0.000000
vt 1.000000 0.000000
vt 1.000000 1.000000
vt 0.000000 1.000000
vt 0.000000 0.000000
vt 1.000000 0.000000
vt 1.000000 1.000000
vt 0.000000 1.000000
vt 0.000000 0.000000
vt 1.000000 0.000000
vt 1.000000 1.000000
vt 0.000000 1.000000
vt 0.000000 0.000000
vt 1.000000 0.000000
vt 1.000000 1.000000
vt 0.000000 1.000000
vt 0.000000 0.000000
vt 1.000000 0.000000
vt 1.000000 1.000000
vt 0.000000 1.000000
vt 0.000000 0.000000
vt 1.000000 0.000000
vt 1.000000 1.000000
vt 0.000000 1.000000
vt 0.000000 0.000000
vt 1.000000 0.000000
vt 1.000000 1.000000
vt 0.000000 1.000000
vt 0.000000 0.000000
vt 1.000000 0.000000
vt 1.000000 1.000000
vt 0.000000 1.000000
vt 0.000000 0.000000
vt 1.000000 0.000000
vt 1.000000 1.000000
vt 0.000000 1.000000
vt 0.000000 0.000000
vt 1.000000 0.000000
vt 1.000000 1.000000
vt 0.000000 1.000000
vt 0.000000 0.000000
vt 1.000000 0.000000
vt 1.000000 1.000000
vt 0.000000 1.000000
vt 0.000000 0.000000
vt 1.000000 0.000000
vt 1.000000 1.000000
vt 0.000000 1.000000
vt 0.000000 0.000000
vt 1.000000 0.000000
vt 1.000000 1.000000
vt 0.000000 1.000000
vt 0.000000 0.000000
vt 1.000000 0.000000
vt 1.000000 1.000000
vt 0.000000 1.000000
vt 0.000000 0.000000
vt 1.000000 0.000000
vt 1.000000 1.000000
vt 0.000000 1.000000
vt 0.000000 0.000000
vt 1.000000 0.000000
vt 1.000000 1.000000
vt 0.000000 1.000000
vt 0.000000 0.000000
vt 1.000000 0.000000
vt 1.000000 1.000000
vt 0.000000 1.000000
vt 0.000000 0.000000
vt 1.000000 0.000000
vt 1.000000 1.000000
vt 0.000000 1.000000
vt 0.000000 0.000000
vt 1.000000 0.000000
vt 1.000000 1.000000
vt 0.000000 1.000000
vt 0.000000 0.000000
vt 1.000000 0.000000
vt 1.000000 1.000000
vt 0.000000 1.000000
vt 0.000000 0.000000
vt 1.000000 0.000000
vt 1.000000 1.000000
vt 0.000000 1.000000
vt 0.000000 0.000000
vt 1.000000 0.000000
vt 1.000000 1.000000
vt 0.000000 1.000000
vt 0.000000 0.000000
vt 1.000000 0.000000
vt 1.000000 1.000000
vt 0.000000 1.000000
vt 0.000000 0.000000
vt 1.000000 0.000000
vt 1.000000 1.000000
vt 0.000000 1.000000
vt 0.000000 0.000000
vt 1.000000 0.000000
vt 1.000000 1.000000
vt 0.000000 1.000000
vt 0.000000 0.000000
vt 1.000000 0.000000
vt 1.000000 1.000000
vt 0.000000 1.000000
vt 0.000000 0.000000
vt 1.000000 0.000000
vt 1.000000 1.000000
vt 0.000000 1.000000
vt 0.000000 0.000000
vt 1.000000 0.000000
vt 1.000000 1.000000
vt 0.000000 1.000000
vt 0.000000 0.000000
vt 1.000000 0.000000
vt 1.000000 1.000000
vt 0.000000 1.000000
vt 0.000000 0.000000
vt 1.000000 0.000000
vt 1.000000 1.000000
vt 0.000000 1.000000
vt 0.000000 0.000000
vt 1.000000 0.000000
vt 1.000000 1.000000
vt 0.000000 1.000000
vt 0.000000 0.000000
vt 1.000000 0.000000
vt 1.000000 1.000000
vt 0.000000 1.000000
vt 0.000000 0.000000
vt 1.000000 0.000000
vt 1.000000 1.000000
vt 0.000000 1.000000
vt 0.000000 0.000000
vt 1.000000 0.000000
vt 1.000000 1.000000
vt 0.000000 1.000000
vt 0.000000 0.000000
vt 1.000000 0.000000
vt 1.000000 1.000000
vt 0.000000 1.000000
vt 0.000000 0.000000
vt 1.000000 0.000000
vt 1.000000 1.000000
vt 0.000000 1.000000
vt 0.000000 0.000000
vt 1.000000 0.000000
vt 1.000000 1.000000
vt 0.000000 1.000000
vt 0.000000 0.000000
vt 1.000000 0.000000
vt 1.000000 1.000000
vt 0.000000 1.000000
vt 0.000000 0.000000
vt 1.000000 0.000000
vt 1.000000 1.000000
vt 0.000000 1.000000
vt 0.000000 0.000000
vt 1.000000 0.000000
vt 1.000000 1.000000
vt 0.000000 1.000000
vt 0.000000 0.000000
vt 1.000000 0.000000
vt 1.000000 1.000000
vt 0.000000 1.000000
vt 0.000000 0.000000
vt 1.000000 0.000000
vt 1.000000 1.000000
vt 0.000000 1.000000
vt 0.000000 0.000000
vt 1.000000 0.000000
vt 1.000000 1.000000
vt 0.000000 1.000000
vt 0.000000 0.000000
vt 1.000000 0.000000
vt 1.000000 1.000000
vt 0.000000 1.000000
vt 0.000000 0.000000
vt 1.000000 0.000000
vt 1.000000 1.000000
vt 0.000000 1.000000
vt 0.000000 0.000000
vt 1.000000 0.000000
vt 1.000000 1.000000
vt 0.000000 1.000000
vt 0.000000 0.000000
vt 1.000000 0.000000
vt 1.000000 1.000000
vt 0.000000 1.000000
vt 0.000000 0.000000
vt 1.000000 0.000000
vt 1.000000 1.000000
vt 0.000000 1.000000
vt 0.000000 0.000000
vt 1.000000 0.000000
vt 1.000000 1.000000
vt 0.000000 1.000000
vt 0.000000 0.000000
vt 1.000000 0.000000
vt 1.000000 1.000000
vt 0.000000 1.000000
vt 0.000000 0.000000
vt 1.000000 0.000000
vt 1.000000 1.000000
vt 0.000000 1.000000
vt 0.000000 0.000000
vt 1.000000 0.000000
vt 1.000000 1.000000
vt 0.000000 1.000000
vt 0.000000 0.000000
vt 1.000000 0.000000
vt 1.000000 1.000000
vt 0.000000 1.000000
vt 0.000000 0.000000
vt 1.000000 0.000000
vt 1.000000 1.000000
vt 0.000000 1.000000
vt 0.000000 0.000000
vt 1.000000 0.000000
vt 1.000000 1.000000
vt 0.000000 1.000000
vt 0.000000 0.000000
vt 1.000000 0.000000
vt 1.000000 1.000000
vt 0.000000 1.000000
vt 0.000000 0.000000
vt 1.000000 0.000000
vt 1.000000 1.000000
vt 0.000000 1.000000
vt 0.000000 0.000000
vt 1.000000 0.000000
vt 1.000000 1.000000
vt 0.000000 1.000000
vt 0.000000 0.000000
vt 1.000000 0.000000
vt 1.000000 1.000000
vt 0.000000 1.000000
vt 0.000000 0.000000
vt 1.000000 0.000000
vt 1.000000 1.000000
vt 0.000000 1.000000
vt 0.000000 0.000000
vt 1.000000 0.000000
vt 1.000000 1.000000
vt 0.000000 1.000000
vt 0.000000 0.000000
vt 1.000000 0.000000
vt 1.000000 1.000000
vt 0.000000 1.000000
vt 0.000000 0.000000
vt 1.000000 0.000000
vt 1.000000 1.000000
vt 0.000000 1.000000
vt 0.000000 0.000000
vt 1.000000 0.000000
vt 1.000000 1.000000
vt 0.000000 1.000000
vt 0.000000 0.000000
vt 1.000000 0.000000
vt 1.000000 1.000000
vt 0.000000 1.000000
vt 0.000000 0.000000
vt 1.000000 0.000000
vt 1.000000 1.000000
vt 0.000000 1.000000
vt 0.000000 0.000000
vt 1.000000 0.000000
vt 1.000000 1.000000
vt 0.000000 1.000000
vt 0.000000 0.000000
vt 1.000000 0.000000
vt 1.000000 1.000000
vt 0.000000 1.000000
vt 0.000000 0.000000
vt 1.000000 0.000000
vt 1.000000 1.000000
vt 0.000000 1.000000
vt 0.000000 0.000000
vt 1.000000 0.000000
vt 1.000000 1.000000
vt 0.000000 1.000000
vt 0.000000 0.000000
vt 1.000000 0.000000
vt 1.000000 1.000000
vt 0.000000 1.000000
vt 0.000000 0.000000
vt 1.000000 0.000000
vt 1.000000 1.000000
vt 0.000000 1.000000
vt 0.000000 0.000000
vt 1.000000 0.000000
vt 1.000000 1.000000
vt 0.000000 1.000000
vt 0.000000 0.000000
vt 1.000000 0.000000
vt 1.000000 1.000000
vt 0.000000 1.000000
vt 0.000000 0.000000
vt 1.000000 0.000000
vt 1.000000 1.000000
vt 0.000000 1.000000
vt 0.000000 0.000000
vt 1.000000 0.000000
vt 1.000000 1.000000
vt 0.000000 1.000000
vt 0.000000 0.000000
vt 1.000000 0.000000
vt 1.000000 1.000000
vt 0.000000 1.000000
vt 0.000000 0.000000
vt 1.000000 0.000000
vt 1.000000 1.000000
vt 0.000000 1.000000
vt 0.000000 0.000000
vt 1.000000 0.000000
vt 1.000000 1.000000
vt 0.000000 1.000000
vt 0.000000 0.000000
vt 1.000000 0.000000
vt 1.000000 1.000000
vt 0.000000 1.000000
vt 0.000000 0.000000
vt 1.000000 0.000000
vt 1.000000 1.000000
vt 0.000000 1.000000
vt 0.000000 0.000000
vt 1.000000 0.000000
vt 1.000000 1.000000
vt 0.000000 1.000000
vt 0.000000 0.000000
vt 1.000000 0.000000
vt 1.000000 1.000000
vt 0.000000 1.000000
vt 0.000000 0.000000
vt 1.000000 0.000000
vt 1.000000 1.000000
vt 0.000000 1.000000
vt 0.000000 0.000000
vt 1.000000 0.000000
vt 1.000000 1.000000
vt 0.000000 1.000000
vt 0.000000 0.000000
vt 1.000000 0.000000
vt 1.000000 1.000000
vt 0.000000 1.000000
vt 0.000000 0.000000
vt 1.000000 0.000000
vt 1.000000 1.000000
vt 0.000000 1.000000
vt 0.000000 0.000000
vt 1.000000 0.000000
vt 1.000000 1.000000
vt 0.000000 1.000000
vt 0.000000 0.000000
vt 1.000000 0.000000
vt 1.000000 1.000000
vt 0.000000 1.000000
vt 0.000000 0.000000
vt 1.000000 0.000000
vt 1.000000 1.000000
vt 0.000000 1.000000
vt 0.000000 0.000000
vt 1.000000 0.000000
vt 1.000000 1.000000
vt 0.000000 1.000000
vt 0.000000 0.000000
vt 1.000000 0.000000
vt 1.000000 1.000000
vt 0.000000 1.000000
vt 0.000000 0.000000
vt 1.000000 0.000000
vt 1.000000 1.000000
vt 0.000000 1.000000
vt 0.000000 0.000000
vt 1.000000 0.000000
vt 1.000000 1.000000
vt 0.000000 1.000000
vt 0.000000 0.000000
vt 1.000000 0.000000
vt 1.000000 1.000000
vt 0.000000 1.000000
vt 0.000000 0.000000
vt 1.000000 0.000000
vt 1.000000 1.000000
vt 0.000000 1.000000
vt 0.000000 0.000000
vt 1.000000 0.000000
vt 1.000000 1.000000
vt 0.000000 1.000000
vt 0.000000 0.000000
vt 1.000000 0.000000
vt 1.000000 1.000000
vt 0.000000 1.000000
vt 0.000000 0.000000
vt 1.000000 0.000000
vt 1.000000 1.000000
vt 0.000000 1.000000
vt 0.000000 0.000000
vt 1.000000 0.000000
vt 1.000000 1.000000
vt 0.000000 1.000000
vt 0.000000 0.000000
vt 1.000000 0.000000
vt 1.000000 1.000000
vt 0.000000 1.000000
vt 0.000000 0.000000
vt 1.000000 0.000000
vt 1.000000 1.000000
vt 0.000000 1.000000
vt 0.000000 0.000000
vt 1.000000 0.000000
vt 1.000000 1.000000
vt 0.000000 1.000000
vt 0.000000 0.000000
vt 1.000000 0.000000
vt 1.000000 1.000000
vt 0.000000 1.000000
vt 0.000000 0.000000
vt 1.000000 0.000000
vt 1.000000 1.000000
vt 0.000000 1.000000
vt 0.000000 0.000000
vt 1.000000 0.000000
vt 1.000000 1.000000
vt 0.000000 1.000000
vt 0.000000 0.000000
vt 1.000000 0.000000
vt 1.000000 1.000000
vt 0.000000 1.000000
vt 0.000000 0.000000
vt 1.000000 0.000000
vt 1.000000 1.000000
vt 0.000000 1.000000
vt 0.000000 0.000000
vt 1.000000 0.000000
vt 1.000000 1.000000
vt 0.000000 1.000000
vt 0.000000 0.000000
vt 1.000000 0.000000
vt 1.000000 1.000000
vt 0.000000 1.000000
vt 0.000000 0.000000
vt 1.000000 0.000000
vt 1.000000 1.000000
vt 0.000000 1.000000
vt 0.000000 0.000000
vt 1.000000 0.000000
vt 1.000000 1.000000
vt 0.000000 1.000000
vt 0.000000 0.000000
vt 1.000000 0.000000
vt 1.000000 1.000000
vt 0.000000 1.000000
vt 0.000000 0.000000
vt 1.000000 0.000000
vt 1.000000 1.000000
vt 0.000000 1.000000
vt 0.000000 0.000000
vt 1.000000 0.000000
vt 1.000000 1.000000
vt 0.000000 1.000000
vt 0.000000 0.000000
vt 1.000000 0.000000
vt 1.000000 1.000000
vt 0.000000 1.000000
vt 0.000000 0.000000
vt 1.000000 0.000000
vt 1.000000 1.000000
vt 0.000000 1.000000
vt 0.000000 0.000000
vt 1.000000 0.000000
vt 1.000000 1.000000
vt 0.000000 1.000000
vt 0.000000 0.000000
vt 1.000000 0.000000
vt 1.000000 1.000000
vt 0.000000 1.000000
vt 0.000000 0.000000
vt 1.000000 0.000000
vt 1.000000 1.000000
vt 0.000000 1.000000
vt 0.000000 0.000000
vt 1.000000 0.000000
vt 1.000000 1.000000
vt 0.000000 1.000000
vt 0.000000 0.000000
vt 1.000000 0.000000
vt 1.000000 1.000000
vt 0.000000 1.000000
vt 0.000000 0.000000
vt 1.000000 0.000000
vt 1.000000 1.000000
vt 0.000000 1.000000
vt 0.000000 0.000000
vt 1.000000 0.000000
vt 1.000000 1.000000
vt 0.000000 1.000000
vt 0.000000 0.000000
vt 1.000000 0.000000
vt 1.000000 1.000000
vt 0.000000 1.000000
vt 0.000000 0.000000
vt 1.000000 0.000000
vt 1.000000 1.000000
vt 0.000000 1.000000
vt 0.000000 0.000000
vt 1.000000 0.000000
vt 1.000000 1.000000
vt 0.000000 1.000000
vt 0.000000 0.000000
vt 1.000000 0.000000
vt 1.000000 1.000000
vt 0.000000 1.000000
vt 0.000000 0.000000
vt 1.000000 0.000000
vt 1.000000 1.000000
vt 0.000000 1.000000
vt 0.000000 0.000000
vt 1.000000 0.000000
vt 1.000000 1.000000
vt 0.000000 1.000000
vt 0.000000 0.000000
vt 1.000000 0.000000
vt 1.000000 1.000000
vt 0.000000 1.000000
vt 0.000000 0.000000
vt 1.000000 0.000000
vt 1.000000 1.000000
vt 0.000000 1.000000
vt 0.000000 0.000000
vt 1.000000 0.000000
vt 1.000000 1.000000
vt 0.000000 1.000000
vt 0.000000 0.000000
vt 1.000000 0.000000
vt 1.000000 1.000000
vt 0.000000 1.000000
vt 0.000000 0.000000
vt 1.000000 0.000000
vt 1.000000 1.000000
vt 0.000000 1.000000
vt 0.000000 0.000000
vt 1.000000 0.000000
vt 1.000000 1.000000
vt 0.000000 1.000000
vt 0.000000 0.000000
vt 1.000000 0.000000
vt 1.000000 1.000000
vt 0.000000 1.000000
vt 0.000000 0.000000
vt 1.000000 0.000000
vt 1.000000 1.000000
vt 0.000000 1.000000
vt 0.000000 0.000000
vt 1.000000 0.000000
vt 1.000000 1.000000
vt 0.000000 1.000000
vt 0.000000 0.000000
vt 1.000000 0.000000
vt 1.000000 1.000000
vt 0.000000 1.000000
vt 0.000000 0.000000
vt 1.000000 0.000000
vt 1.000000 1.000000
vt 0.000000 1.000000
vt 0.000000 0.000000
vt 1.000000 0.000000
vt 1.000000 1.000000
vt 0.000000 1.000000
vt 0.000000 0.000000
vt 1.000000 0.000000
vt 1.000000 1.000000
vt 0.000000 1.000000
vt 0.000000 0.000000
vt 1.000000 0.000000
vt 1.000000 1.000000
vt 0.000000 1.000000
vt 0.000000 0.000000
vt 1.000000 0.000000
vt 1.000000 1.000000
vt 0.000000 1.000000
vt 0.000000 0.000000
vt 1.000000 0.000000
vt 1.000000 1.000000
vt 0.000000 1.000000
vt 0.000000 0.000000
vt 1.000000 0.000000
vt 1.000000 1.000000
vt 0.000000 1.000000
vt 0.000000 0.000000
vt 1.000000 0.000000
vt 1.000000 1.000000
vt 0.000000 1.000000
vt 0.000000 0.000000
vt 1.000000 0.000000
vt 1.000000 1.000000
vt 0.000000 1.000000
vt 0.000000 0.000000
vt 1.000000 0.000000
vt 1.000000 1.000000
vt 0.000000 1.000000
vt 0.000000 0.000000
vt 1.000000 0.000000
vt 1.000000 1.000000
vt 0.000000 1.000000
vt 0.000000 0.000000
vt 1.000000 0.000000
vt 1.000000 1.000000
vt 0.000000 1.000000
vt 0.000000 0.000000
vt 1.000000 0.000000
vt 1.000000 1.000000
vt 0.000000 1.000000
vt 0.000000 0.000000
vt 1.000000 0.000000
vt 1.000000 1.000000
vt 0.000000 1.000000
vt 0.000000 0.000000
vt 1.000000 0.000000
vt 1.000000 1.000000
vt 0.000000 1.000000
vt 0.000000 0.000000
vt 1.000000 0.000000
vt 1.000000 1.000000
vt 0.000000 1.000000
vt 0.000000 0.000000
vt 1.000000 0.000000
vt 1.000000 1.000000
vt 0.000000 1.000000
vt 0.000000 0.000000
vt 1.000000 0.000000
vt 1.000000 1.000000
vt 0.000000 1.000000
vt 0.000000 0.000000
vt 1.000000 0.000000
vt 1.000000 1.000000
vt 0.000000 1.000000
vt 0.000000 0.000000
vt 1.000000 0.000000
vt 1.000000 1.000000
vt 0.000000 1.000000
vt 0.000000 0.000000
vt 1.000000 0.000000
vt 1.000000 1.000000
vt 0.000000 1.000000
vt 0.000000 0.000000
vt 1.000000 0.000000
vt 1.000000 1.000000
vt 0.000000 1.000000
vt 0.000000 0.000000
vt 1.000000 0.000000
vt 1.000000 1.000000
vt 0.000000 1.000000
vt 0.000000 0.000000
vt 1.000000 0.000000
vt 1.000000 1.000000
vt 0.000000 1.000000
vt 0.000000 0.000000
vt 1.000000 0.000000
vt 1.000000 1.000000
vt 0.000000 1.000000
vt 0.000000 0.000000
vt 1.000000 0.000000
vt 1.000000 1.000000
vt 0.000000 1.000000
vt 0.000000 0.000000
vt 1.000000 0.000000
vt 1.000000 1.000000
vt 0.000000 1.000000
vt 0.000000 0.000000
vt 1.000000 0.000000
vt 1.000000 1.000000
vt 0.000000 1.000000
vt 0.000000 0.000000
vt 1.000000 0.000000
vt 1.000000 1.000000
vt 0.000000 1.000000
vt 0.000000 0.000000
vt 1.000000 0.000000
vt 1.000000 1.000000
vt 0.000000 1.000000
vt 0.000000 0.000000
vt 1.000000 0.000000
vt 1.000000 1.000000
vt 0.000000 1.000000
vt 0.000000 0.000000
vt 1.000000 0.000000
vt 1.000000 1.000000
vt 0.000000 1.000000
vt 0.000000 0.000000
vt 1.000000 0.000000
vt 1.000000 1.000000
vt 0.000000 1.000000
vt 0.000000 0.000000
vt 1.000000 0.000000
vt 1.000000 1.000000
vt 0.000000 1.000000
vt 0.000000 0.000000
vt 1.000000 0.000000
vt 1.000000 1.000000
vt 0.000000 1.000000
vt 0.000000 0.000000
vt 1.000000 0.000000
vt 1.000000 1.000000
vt 0.000000 1.000000
vt 0.000000 0.000000
vt 1.000000 0.000000
vt 1.000000 1.000000
vt 0.000000 1.000000
vt 0.000000 0.000000
vt 1.000000 0.000000
vt 1.000000 1.000000
vt 0.000000 1.000000
vt 0.000000 0.000000
vt 1.000000 0.000000
vt 1.000000 1.000000
vt 0.000000 1.000000
vt 0.000000 0.000000
vt 1.000000 0.000000
vt 1.000000 1.000000
vt 0.000000 1.000000
vt 0.000000 0.000000
vt 1.000000 0.000000
vt 1.000000 1.000000
vt 0.000000 1.000000
vt 0.000000 0.000000
vt 1.000000 0.000000
vt 1.000000 1.000000
vt 0.000000 1.000000
vt 0.000000 0.000000
vt 1.000000 0.000000
vt 1.000000 1.000000
vt 0.000000 1.000000
vt 0.000000 0.000000
vt 1.000000 0.000000
vt 1.000000 1.000000
vt 0.000000 1.000000
vt 0.000000 0.000000
vt 1.000000 0.000000
vt 1.000000 1.000000
vt 0.000000 1.000000
vt 0.000000 0.000000
vt 1.000000 0.000000
vt 1.000000 1.000000
vt 0.000000 1.000000
vt 0.000000 0.000000
vt 1.000000 0.000000
vt 1.000000 1.000000
vt 0.000000 1.000000
vt 0.000000 0.000000
vt 1.000000 0.000000
vt 1.000000 1.000000
vt 0.000000 1.000000
vt 0.000000 0.000000
vt 1.000000 0.000000
vt 1.000000 1.000000
vt 0.000000 1.000000
vt 0.000000 0.000000
vt 1.000000 0.000000
vt 1.000000 1.000000
vt 0.000000 1.000000
vt 0.000000 0.000000
vt 1.000000 0.000000
vt 1.000000 1.000000
vt 0.000000 1.000000
vt 0.000000 0.000000
vt 1.000000 0.000000
vt 1.000000 1.000000
vt 0.000000 1.000000
vt 0.000000 0.000000
vt 1.000000 0.000000
vt 1.000000 1.000000
vt 0.000000 1.000000
vt 0.000000 0.000000
vt 1.000000 0.000000
vt 1.000000 1.000000
vt 0.000000 1.000000
vt 0.000000 0.000000
vt 1.000000 0.000000
vt 1.000000 1.000000
vt 0.000000 1.000000
vt 0.000000 0.000000
vt 1.000000 0.000000
vt 1.000000 1.000000
vt 0.000000 1.000000
vt 0.000000 0.000000
vt 1.000000 0.000000
vt 1.000000 1.000000
vt 0.000000 1.000000
vt 0.000000 0.000000
vt 1.000000 0.000000
vt 1.000000 1.000000
vt 0.000000 1.000000
vt 0.000000 0.000000
vt 1.000000 0.000000
vt 1.000000 1.000000
vt 0.000000 1.000000
vt 0.000000 0.000000
vt 1.000000 0.000000
vt 1.000000 1.000000
vt 0.000000 1.000000
vt 0.000000 0.000000
vt 1.000000 0.000000
vt 1.000000 1.000000
vt 0.000000 1.000000
vt 0.000000 0.000000
vt 1.000000 0.000000
vt 1.000000 1.000000
vt 0.000000 1.000000
vt 0.000000 0.000000
vt 1.000000 0.000000
vt 1.000000 1.000000
vt 0.000000 1.000000
vt 0.000000 0.000000
vt 1.000000 0.000000
vt 1.000000 1.000000
vt 0.000000 1.000000
vt 0.000000 0.000000
vt 1.000000 0.000000
vt 1.000000 1.000000
vt 0.000000 1.000000
vt 0.000000 0.000000
vt 1.000000 0.000000
vt 1.000000 1.000000
vt 0.000000 1.000000
vt 0.000000 0.000000
vt 1.000000 0.000000
vt 1.000000 1.000000
vt 0.000000 1.000000
vt 0.000000 0.000000
vt 1.000000 0.000000
vt 1.000000 1.000000
vt 0.000000 1.000000
vt 0.000000 0.000000
vt 1.000000 0.000000
vt 1.000000 1.000000
vt 0.000000 1.000000
vt 0.000000 0.000000
vt 1.000000 0.000000
vt 1.000000 1.000000
vt 0.000000 1.000000
vt 0.000000 0.000000
vt 1.000000 0.000000
vt 1.000000 1.000000
vt 0.000000 1.000000
vt 0.000000 0.000000
vt 1.000000 0.000000
vt 1.000000 1.000000
vt 0.000000 1.000000
vt 0.000000 0.000000
vt 1.000000 0.000000
vt 1.000000 1.000000
vt 0.000000 1.000000
vt 0.000000 0.000000
vt 1.000000 0.000000
vt 1.000000 1.000000
vt 0.000000 1.000000
vt 0.000000 0.000000
vt 1.000000 0.000000
vt 1.000000 1.000000
vt 0.000000 1.000000
vt 0.000000 0.000000
vt 1.000000 0.000000
vt 1.000000 1.000000
vt 0.000000 1.000000
vt 0.000000 0.000000
vt 1.000000 0.000000
vt 1.000000 1.000000
vt 0.000000 1.000000
vt 0.000000 0.000000
vt 1.000000 0.000000
vt 1.000000 1.000000
vt 0.000000 1.000000
vt 0.000000 0.000000
vt 1.000000 0.000000
vt 1.000000 1.000000
vt 0.000000 1.000000
vt 0.000000 0.000000
vt 1.000000 0.000000
vt 1.000000 1.000000
vt 0.000000 1.000000
vt 0.000000 0.000000
vt 1.000000 0.000000
vt 1.000000 1.000000
vt 0.000000 1.000000
vt 0.000000 0.000000
vt 1.000000 0.000000
vt 1.000000 1.000000
vt 0.000000 1.000000
vt 0.000000 0.000000
vt 1.000000 0.000000
vt 1.000000 1.000000
vt 0.000000 1.000000
vt 0.000000 0.000000
vt 1.000000 0.000000
vt 1.000000 1.000000
vt 0.000000 1.000000
vt 0.000000 0.000000
vt 1.000000 0.000000
vt 1.000000 1.000000
vt 0.000000 1.000000
vt 0.000000 0.000000
vt 1.000000 0.000000
vt 1.000000 1.000000
vt 0.000000 1.000000
vt 0.000000 0.000000
vt 1.000000 0.000000
vt 1.000000 1.000000
vt 0.000000 1.000000
vt 0.000000 0.000000
vt 1.000000 0.000000
vt 1.000000 1.000000
vt 0.000000 1.000000
vt 0.000000 0.000000
vt 1.000000 0.000000
vt 1.000000 1.000000
vt 0.000000 1.000000
vt 0.000000 0.000000
vt 1.000000 0.000000
vt 1.000000 1.000000
vt 0.000000 1.000000
vt 0.000000 0.000000
vt 1.000000 0.000000
vt 1.000000 1.000000
vt 0.000000 1.000000
vt 0.000000 0.000000
vt 1.000000 0.000000
vt 1.000000 1.000000
vt 0.000000 1.000000
o ChunkyCoil
usemtl MAT_CANVAS
f 1/1 7/2 8/3 2/4
f 2/5 8/6 9/7 3/8
f 3/9 9/10 10/11 4/12
f 4/13 10/14 11/15 5/16
f 5/17 11/18 12/19 6/20
f 6/21 12/22 7/23 1/24
f 7/25 13/26 14/27 8/28
f 8/29 14/30 15/31 9/32
f 9/33 15/34 16/35 10/36
f 10/37 16/38 17/39 11/40
f 11/41 17/42 18/43 12/44
f 12/45 18/46 13/47 7/48
f 13/49 19/50 20/51 14/52
f 14/53 20/54 21/55 15/56
f 15/57 21/58 22/59 16/60
f 16/61 22/62 23/63 17/64
f 17/65 23/66 24/67 18/68
f 18/69 24/70 19/71 13/72
f 19/73 25/74 26/75 20/76
f 20/77 26/78 27/79 21/80
f 21/81 27/82 28/83 22/84
f 22/85 28/86 29/87 23/88
f 23/89 29/90 30/91 24/92
f 24/93 30/94 25/95 19/96
f 25/97 31/98 32/99 26/100
f 26/101 32/102 33/103 27/104
f 27/105 33/106 34/107 28/108
f 28/109 34/110 35/111 29/112
f 29/113 35/114 36/115 30/116
f 30/117 36/118 31/119 25/120
f 31/121 37/122 38/123 32/124
f 32/125 38/126 39/127 33/128
f 33/129 39/130 40/131 34/132
f 34/133 40/134 41/135 35/136
f 35/137 41/138 42/139 36/140
f 36/141 42/142 37/143 31/144
f 37/145 43/146 44/147 38/148
f 38/149 44/150 45/151 39/152
f 39/153 45/154 46/155 40/156
f 40/157 46/158 47/159 41/160
f 41/161 47/162 48/163 42/164
f 42/165 48/166 43/167 37/168
f 43/169 49/170 50/171 44/172
f 44/173 50/174 51/175 45/176
f 45/177 51/178 52/179 46/180
f 46/181 52/182 53/183 47/184
f 47/185 53/186 54/187 48/188
f 48/189 54/190 49/191 43/192
f 49/193 55/194 56/195 50/196
f 50/197 56/198 57/199 51/200
f 51/201 57/202 58/203 52/204
f 52/205 58/206 59/207 53/208
f 53/209 59/210 60/211 54/212
f 54/213 60/214 55/215 49/216
f 55/217 61/218 62/219 56/220
f 56/221 62/222 63/223 57/224
f 57/225 63/226 64/227 58/228
f 58/229 64/230 65/231 59/232
f 59/233 65/234 66/235 60/236
f 60/237 66/238 61/239 55/240
f 61/241 67/242 68/243 62/244
f 62/245 68/246 69/247 63/248
f 63/249 69/250 70/251 64/252
f 64/253 70/254 71/255 65/256
f 65/257 71/258 72/259 66/260
f 66/261 72/262 67/263 61/264
f 67/265 73/266 74/267 68/268
f 68/269 74/270 75/271 69/272
f 69/273 75/274 76/275 70/276
f 70/277 76/278 77/279 71/280
f 71/281 77/282 78/283 72/284
f 72/285 78/286 73/287 67/288
f 73/289 79/290 80/291 74/292
f 74/293 80/294 81/295 75/296
f 75/297 81/298 82/299 76/300
f 76/301 82/302 83/303 77/304
f 77/305 83/306 84/307 78/308
f 78/309 84/310 79/311 73/312
f 79/313 85/314 86/315 80/316
f 80/317 86/318 87/319 81/320
f 81/321 87/322 88/323 82/324
f 82/325 88/326 89/327 83/328
f 83/329 89/330 90/331 84/332
f 84/333 90/334 85/335 79/336
f 85/337 91/338 92/339 86/340
f 86/341 92/342 93/343 87/344
f 87/345 93/346 94/347 88/348
f 88/349 94/350 95/351 89/352
f 89/353 95/354 96/355 90/356
f 90/357 96/358 91/359 85/360
f 91/361 97/362 98/363 92/364
f 92/365 98/366 99/367 93/368
f 93/369 99/370 100/371 94/372
f 94/373 100/374 101/375 95/376
f 95/377 101/378 102/379 96/380
f 96/381 102/382 97/383 91/384
f 97/385 103/386 104/387 98/388
f 98/389 104/390 105/391 99/392
f 99/393 105/394 106/395 100/396
f 100/397 106/398 107/399 101/400
f 101/401 107/402 108/403 102/404
f 102/405 108/406 103/407 97/408
f 103/409 1/410 2/411 104/412
f 104/413 2/414 3/415 105/416
f 105/417 3/418 4/419 106/420
f 106/421 4/422 5/423 107/424
f 107/425 5/426 6/427 108/428
f 108/429 6/430 1/431 103/432
f 109/433 115/434 116/435 110/436
f 110/437 116/438 117/439 111/440
f 111/441 117/442 118/443 112/444
f 112/445 118/446 119/447 113/448
f 113/449 119/450 120/451 114/452
f 114/453 120/454 115/455 109/456
f 115/457 121/458 122/459 116/460
f 116/461 122/462 123/463 117/464
f 117/465 123/466 124/467 118/468
f 118/469 124/470 125/471 119/472
f 119/473 125/474 126/475 120/476
f 120/477 126/478 121/479 115/480
f 121/481 127/482 128/483 122/484
f 122/485 128/486 129/487 123/488
f 123/489 129/490 130/491 124/492
f 124/493 130/494 131/495 125/496
f 125/497 131/498 132/499 126/500
f 126/501 132/502 127/503 121/504
f 127/505 133/506 134/507 128/508
f 128/509 134/510 135/511 129/512
f 129/513 135/514 136/515 130/516
f 130/517 136/518 137/519 131/520
f 131/521 137/522 138/523 132/524
f 132/525 138/526 133/527 127/528
f 133/529 139/530 140/531 134/532
f 134/533 140/534 141/535 135/536
f 135/537 141/538 142/539 136/540
f 136/541 142/542 143/543 137/544
f 137/545 143/546 144/547 138/548
f 138/549 144/550 139/551 133/552
f 139/553 145/554 146/555 140/556
f 140/557 146/558 147/559 141/560
f 141/561 147/562 148/563 142/564
f 142/565 148/566 149/567 143/568
f 143/569 149/570 150/571 144/572
f 144/573 150/574 145/575 139/576
f 145/577 151/578 152/579 146/580
f 146/581 152/582 153/583 147/584
f 147/585 153/586 154/587 148/588
f 148/589 154/590 155/591 149/592
f 149/593 155/594 156/595 150/596
f 150/597 156/598 151/599 145/600
f 151/601 157/602 158/603 152/604
f 152/605 158/606 159/607 153/608
f 153/609 159/610 160/611 154/612
f 154/613 160/614 161/615 155/616
f 155/617 161/618 162/619 156/620
f 156/621 162/622 157/623 151/624
f 157/625 163/626 164/627 158/628
f 158/629 164/630 165/631 159/632
f 159/633 165/634 166/635 160/636
f 160/637 166/638 167/639 161/640
f 161/641 167/642 168/643 162/644
f 162/645 168/646 163/647 157/648
f 163/649 169/650 170/651 164/652
f 164/653 170/654 171/655 165/656
f 165/657 171/658 172/659 166/660
f 166/661 172/662 173/663 167/664
f 167/665 173/666 174/667 168/668
f 168/669 174/670 169/671 163/672
f 169/673 175/674 176/675 170/676
f 170/677 176/678 177/679 171/680
f 171/681 177/682 178/683 172/684
f 172/685 178/686 179/687 173/688
f 173/689 179/690 180/691 174/692
f 174/693 180/694 175/695 169/696
f 175/697 181/698 182/699 176/700
f 176/701 182/702 183/703 177/704
f 177/705 183/706 184/707 178/708
f 178/709 184/710 185/711 179/712
f 179/713 185/714 186/715 180/716
f 180/717 186/718 181/719 175/720
f 181/721 187/722 188/723 182/724
f 182/725 188/726 189/727 183/728
f 183/729 189/730 190/731 184/732
f 184/733 190/734 191/735 185/736
f 185/737 191/738 192/739 186/740
f 186/741 192/742 187/743 181/744
f 187/745 193/746 194/747 188/748
f 188/749 194/750 195/751 189/752
f 189/753 195/754 196/755 190/756
f 190/757 196/758 197/759 191/760
f 191/761 197/762 198/763 192/764
f 192/765 198/766 193/767 187/768
f 193/769 199/770 200/771 194/772
f 194/773 200/774 201/775 195/776
f 195/777 201/778 202/779 196/780
f 196/781 202/782 203/783 197/784
f 197/785 203/786 204/787 198/788
f 198/789 204/790 199/791 193/792
f 199/793 205/794 206/795 200/796
f 200/797 206/798 207/799 201/800
f 201/801 207/802 208/803 202/804
f 202/805 208/806 209/807 203/808
f 203/809 209/810 210/811 204/812
f 204/813 210/814 205/815 199/816
f 205/817 211/818 212/819 206/820
f 206/821 212/822 213/823 207/824
f 207/825 213/826 214/827 208/828
f 208/829 214/830 215/831 209/832
f 209/833 215/834 216/835 210/836
f 210/837 216/838 211/839 205/840
f 211/841 109/842 110/843 212/844
f 212/845 110/846 111/847 213/848
f 213/849 111/850 112/851 214/852
f 214/853 112/854 113/855 215/856
f 215/857 113/858 114/859 216/860
f 216/861 114/862 109/863 211/864
f 217/865 223/866 224/867 218/868
f 218/869 224/870 225/871 219/872
f 219/873 225/874 226/875 220/876
f 220/877 226/878 227/879 221/880
f 221/881 227/882 228/883 222/884
f 222/885 228/886 223/887 217/888
f 223/889 229/890 230/891 224/892
f 224/893 230/894 231/895 225/896
f 225/897 231/898 232/899 226/900
f 226/901 232/902 233/903 227/904
f 227/905 233/906 234/907 228/908
f 228/909 234/910 229/911 223/912
f 229/913 235/914 236/915 230/916
f 230/917 236/918 237/919 231/920
f 231/921 237/922 238/923 232/924
f 232/925 238/926 239/927 233/928
f 233/929 239/930 240/931 234/932
f 234/933 240/934 235/935 229/936
f 235/937 241/938 242/939 236/940
f 236/941 242/942 243/943 237/944
f 237/945 243/946 244/947 238/948
f 238/949 244/950 245/951 239/952
f 239/953 245/954 246/955 240/956
f 240/957 246/958 241/959 235/960
f 241/961 247/962 248/963 242/964
f 242/965 248/966 249/967 243/968
f 243/969 249/970 250/971 244/972
f 244/973 250/974 251/975 245/976
f 245/977 251/978 252/979 246/980
f 246/981 252/982 247/983 241/984
f 247/985 253/986 254/987 248/988
f 248/989 254/990 255/991 249/992
f 249/993 255/994 256/995 250/996
f 250/997 256/998 257/999 251/1000
f 251/1001 257/1002 258/1003 252/1004
f 252/1005 258/1006 253/1007 247/1008
f 253/1009 259/1010 260/1011 254/1012
f 254/1013 260/1014 261/1015 255/1016
f 255/1017 261/1018 262/1019 256/1020
f 256/1021 262/1022 263/1023 257/1024
f 257/1025 263/1026 264/1027 258/1028
f 258/1029 264/1030 259/1031 253/1032
f 259/1033 265/1034 266/1035 260/1036
f 260/1037 266/1038 267/1039 261/1040
f 261/1041 267/1042 268/1043 262/1044
f 262/1045 268/1046 269/1047 263/1048
f 263/1049 269/1050 270/1051 264/1052
f 264/1053 270/1054 265/1055 259/1056
f 265/1057 271/1058 272/1059 266/1060
f 266/1061 272/1062 273/1063 267/1064
f 267/1065 273/1066 274/1067 268/1068
f 268/1069 274/1070 275/1071 269/1072
f 269/1073 275/1074 276/1075 270/1076
f 270/1077 276/1078 271/1079 265/1080
f 271/1081 277/1082 278/1083 272/1084
f 272/1085 278/1086 279/1087 273/1088
f 273/1089 279/1090 280/1091 274/1092
f 274/1093 280/1094 281/1095 275/1096
f 275/1097 281/1098 282/1099 276/1100
f 276/1101 282/1102 277/1103 271/1104
f 277/1105 283/1106 284/1107 278/1108
f 278/1109 284/1110 285/1111 279/1112
f 279/1113 285/1114 286/1115 280/1116
f 280/1117 286/1118 287/1119 281/1120
f 281/1121 287/1122 288/1123 282/1124
f 282/1125 288/1126 283/1127 277/1128
f 283/1129 289/1130 290/1131 284/1132
f 284/1133 290/1134 291/1135 285/1136
f 285/1137 291/1138 292/1139 286/1140
f 286/1141 292/1142 293/1143 287/1144
f 287/1145 293/1146 294/1147 288/1148
f 288/1149 294/1150 289/1151 283/1152
f 289/1153 295/1154 296/1155 290/1156
f 290/1157 296/1158 297/1159 291/1160
f 291/1161 297/1162 298/1163 292/1164
f 292/1165 298/1166 299/1167 293/1168
f 293/1169 299/1170 300/1171 294/1172
f 294/1173 300/1174 295/1175 289/1176
f 295/1177 301/1178 302/1179 296/1180
f 296/1181 302/1182 303/1183 297/1184
f 297/1185 303/1186 304/1187 298/1188
f 298/1189 304/1190 305/1191 299/1192
f 299/1193 305/1194 306/1195 300/1196
f 300/1197 306/1198 301/1199 295/1200
f 301/1201 307/1202 308/1203 302/1204
f 302/1205 308/1206 309/1207 303/1208
f 303/1209 309/1210 310/1211 304/1212
f 304/1213 310/1214 311/1215 305/1216
f 305/1217 311/1218 312/1219 306/1220
f 306/1221 312/1222 307/1223 301/1224
f 307/1225 313/1226 314/1227 308/1228
f 308/1229 314/1230 315/1231 309/1232
f 309/1233 315/1234 316/1235 310/1236
f 310/1237 316/1238 317/1239 311/1240
f 311/1241 317/1242 318/1243 312/1244
f 312/1245 318/1246 313/1247 307/1248
f 313/1249 319/1250 320/1251 314/1252
f 314/1253 320/1254 321/1255 315/1256
f 315/1257 321/1258 322/1259 316/1260
f 316/1261 322/1262 323/1263 317/1264
f 317/1265 323/1266 324/1267 318/1268
f 318/1269 324/1270 319/1271 313/1272
f 319/1273 217/1274 218/1275 320/1276
f 320/1277 218/1278 219/1279 321/1280
f 321/1281 219/1282 220/1283 322/1284
f 322/1285 220/1286 221/1287 323/1288
f 323/1289 221/1290 222/1291 324/1292
f 324/1293 222/1294 217/1295 319/1296
f 325/1297 331/1298 332/1299 326/1300
f 326/1301 332/1302 333/1303 327/1304
f 327/1305 333/1306 334/1307 328/1308
f 328/1309 334/1310 335/1311 329/1312
f 329/1313 335/1314 336/1315 330/1316
f 330/1317 336/1318 331/1319 325/1320
f 331/1321 337/1322 338/1323 332/1324
f 332/1325 338/1326 339/1327 333/1328
f 333/1329 339/1330 340/1331 334/1332
f 334/1333 340/1334 341/1335 335/1336
f 335/1337 341/1338 342/1339 336/1340
f 336/1341 342/1342 337/1343 331/1344
f 337/1345 343/1346 344/1347 338/1348
f 338/1349 344/1350 345/1351 339/1352
f 339/1353 345/1354 346/1355 340/1356
f 340/1357 346/1358 347/1359 341/1360
f 341/1361 347/1362 348/1363 342/1364
f 342/1365 348/1366 343/1367 337/1368
f 343/1369 349/1370 350/1371 344/1372
f 344/1373 350/1374 351/1375 345/1376
f 345/1377 351/1378 352/1379 346/1380
f 346/1381 352/1382 353/1383 347/1384
f 347/1385 353/1386 354/1387 348/1388
f 348/1389 354/1390 349/1391 343/1392
f 349/1393 355/1394 356/1395 350/1396
f 350/1397 356/1398 357/1399 351/1400
f 351/1401 357/1402 358/1403 352/1404
f 352/1405 358/1406 359/1407 353/1408
f 353/1409 359/1410 360/1411 354/1412
f 354/1413 360/1414 355/1415 349/1416
f 355/1417 361/1418 362/1419 356/1420
f 356/1421 362/1422 363/1423 357/1424
f 357/1425 363/1426 364/1427 358/1428
f 358/1429 364/1430 365/1431 359/1432
f 359/1433 365/1434 366/1435 360/1436
f 360/1437 366/1438 361/1439 355/1440
f 361/1441 367/1442 368/1443 362/1444
f 362/1445 368/1446 369/1447 363/1448
f 363/1449 369/1450 370/1451 364/1452
f 364/1453 370/1454 371/1455 365/1456
f 365/1457 371/1458 372/1459 366/1460
f 366/1461 372/1462 367/1463 361/1464
f 367/1465 373/1466 374/1467 368/1468
f 368/1469 374/1470 375/1471 369/1472
f 369/1473 375/1474 376/1475 370/1476
f 370/1477 376/1478 377/1479 371/1480
f 371/1481 377/1482 378/1483 372/1484
f 372/1485 378/1486 373/1487 367/1488
f 373/1489 379/1490 380/1491 374/1492
f 374/1493 380/1494 381/1495 375/1496
f 375/1497 381/1498 382/1499 376/1500
f 376/1501 382/1502 383/1503 377/1504
f 377/1505 383/1506 384/1507 378/1508
f 378/1509 384/1510 379/1511 373/1512
f 379/1513 385/1514 386/1515 380/1516
f 380/1517 386/1518 387/1519 381/1520
f 381/1521 387/1522 388/1523 382/1524
f 382/1525 388/1526 389/1527 383/1528
f 383/1529 389/1530 390/1531 384/1532
f 384/1533 390/1534 385/1535 379/1536
f 385/1537 391/1538 392/1539 386/1540
f 386/1541 392/1542 393/1543 387/1544
f 387/1545 393/1546 394/1547 388/1548
f 388/1549 394/1550 395/1551 389/1552
f 389/1553 395/1554 396/1555 390/1556
f 390/1557 396/1558 391/1559 385/1560
f 391/1561 397/1562 398/1563 392/1564
f 392/1565 398/1566 399/1567 393/1568
f 393/1569 399/1570 400/1571 394/1572
f 394/1573 400/1574 401/1575 395/1576
f 395/1577 401/1578 402/1579 396/1580
f 396/1581 402/1582 397/1583 391/1584
f 397/1585 403/1586 404/1587 398/1588
f 398/1589 404/1590 405/1591 399/1592
f 399/1593 405/1594 406/1595 400/1596
f 400/1597 406/1598 407/1599 401/1600
f 401/1601 407/1602 408/1603 402/1604
f 402/1605 408/1606 403/1607 397/1608
f 403/1609 409/1610 410/1611 404/1612
f 404/1613 410/1614 411/1615 405/1616
f 405/1617 411/1618 412/1619 406/1620
f 406/1621 412/1622 413/1623 407/1624
f 407/1625 413/1626 414/1627 408/1628
f 408/1629 414/1630 409/1631 403/1632
f 409/1633 415/1634 416/1635 410/1636
f 410/1637 416/1638 417/1639 411/1640
f 411/1641 417/1642 418/1643 412/1644
f 412/1645 418/1646 419/1647 413/1648
f 413/1649 419/1650 420/1651 414/1652
f 414/1653 420/1654 415/1655 409/1656
f 415/1657 421/1658 422/1659 416/1660
f 416/1661 422/1662 423/1663 417/1664
f 417/1665 423/1666 424/1667 418/1668
f 418/1669 424/1670 425/1671 419/1672
f 419/1673 425/1674 426/1675 420/1676
f 420/1677 426/1678 421/1679 415/1680
f 421/1681 427/1682 428/1683 422/1684
f 422/1685 428/1686 429/1687 423/1688
f 423/1689 429/1690 430/1691 424/1692
f 424/1693 430/1694 431/1695 425/1696
f 425/1697 431/1698 432/1699 426/1700
f 426/1701 432/1702 427/1703 421/1704
f 427/1705 325/1706 326/1707 428/1708
f 428/1709 326/1710 327/1711 429/1712
f 429/1713 327/1714 328/1715 430/1716
f 430/1717 328/1718 329/1719 431/1720
f 431/1721 329/1722 330/1723 432/1724
f 432/1725 330/1726 325/1727 427/1728
o ReadableLooseEnd
f 433/1729 434/1730 436/1731 435/1732
f 437/1733 439/1734 440/1735 438/1736
f 433/1737 437/1738 438/1739 434/1740
f 435/1741 436/1742 440/1743 439/1744
f 433/1745 435/1746 439/1747 437/1748
f 434/1749 438/1750 440/1751 436/1752
o OversizeBindingLoop
f 441/1753 447/1754 448/1755 442/1756
f 442/1757 448/1758 449/1759 443/1760
f 443/1761 449/1762 450/1763 444/1764
f 444/1765 450/1766 451/1767 445/1768
f 445/1769 451/1770 452/1771 446/1772
f 446/1773 452/1774 447/1775 441/1776
f 447/1777 453/1778 454/1779 448/1780
f 448/1781 454/1782 455/1783 449/1784
f 449/1785 455/1786 456/1787 450/1788
f 450/1789 456/1790 457/1791 451/1792
f 451/1793 457/1794 458/1795 452/1796
f 452/1797 458/1798 453/1799 447/1800
f 453/1801 459/1802 460/1803 454/1804
f 454/1805 460/1806 461/1807 455/1808
f 455/1809 461/1810 462/1811 456/1812
f 456/1813 462/1814 463/1815 457/1816
f 457/1817 463/1818 464/1819 458/1820
f 458/1821 464/1822 459/1823 453/1824
f 459/1825 465/1826 466/1827 460/1828
f 460/1829 466/1830 467/1831 461/1832
f 461/1833 467/1834 468/1835 462/1836
f 462/1837 468/1838 469/1839 463/1840
f 463/1841 469/1842 470/1843 464/1844
f 464/1845 470/1846 465/1847 459/1848
f 465/1849 471/1850 472/1851 466/1852
f 466/1853 472/1854 473/1855 467/1856
f 467/1857 473/1858 474/1859 468/1860
f 468/1861 474/1862 475/1863 469/1864
f 469/1865 475/1866 476/1867 470/1868
f 470/1869 476/1870 471/1871 465/1872
f 471/1873 477/1874 478/1875 472/1876
f 472/1877 478/1878 479/1879 473/1880
f 473/1881 479/1882 480/1883 474/1884
f 474/1885 480/1886 481/1887 475/1888
f 475/1889 481/1890 482/1891 476/1892
f 476/1893 482/1894 477/1895 471/1896
f 477/1897 483/1898 484/1899 478/1900
f 478/1901 484/1902 485/1903 479/1904
f 479/1905 485/1906 486/1907 480/1908
f 480/1909 486/1910 487/1911 481/1912
f 481/1913 487/1914 488/1915 482/1916
f 482/1917 488/1918 483/1919 477/1920
f 483/1921 489/1922 490/1923 484/1924
f 484/1925 490/1926 491/1927 485/1928
f 485/1929 491/1930 492/1931 486/1932
f 486/1933 492/1934 493/1935 487/1936
f 487/1937 493/1938 494/1939 488/1940
f 488/1941 494/1942 489/1943 483/1944
f 489/1945 495/1946 496/1947 490/1948
f 490/1949 496/1950 497/1951 491/1952
f 491/1953 497/1954 498/1955 492/1956
f 492/1957 498/1958 499/1959 493/1960
f 493/1961 499/1962 500/1963 494/1964
f 494/1965 500/1966 495/1967 489/1968
f 495/1969 501/1970 502/1971 496/1972
f 496/1973 502/1974 503/1975 497/1976
f 497/1977 503/1978 504/1979 498/1980
f 498/1981 504/1982 505/1983 499/1984
f 499/1985 505/1986 506/1987 500/1988
f 500/1989 506/1990 501/1991 495/1992
f 501/1993 507/1994 508/1995 502/1996
f 502/1997 508/1998 509/1999 503/2000
f 503/2001 509/2002 510/2003 504/2004
f 504/2005 510/2006 511/2007 505/2008
f 505/2009 511/2010 512/2011 506/2012
f 506/2013 512/2014 507/2015 501/2016
f 507/2017 513/2018 514/2019 508/2020
f 508/2021 514/2022 515/2023 509/2024
f 509/2025 515/2026 516/2027 510/2028
f 510/2029 516/2030 517/2031 511/2032
f 511/2033 517/2034 518/2035 512/2036
f 512/2037 518/2038 513/2039 507/2040
f 513/2041 519/2042 520/2043 514/2044
f 514/2045 520/2046 521/2047 515/2048
f 515/2049 521/2050 522/2051 516/2052
f 516/2053 522/2054 523/2055 517/2056
f 517/2057 523/2058 524/2059 518/2060
f 518/2061 524/2062 519/2063 513/2064
f 519/2065 441/2066 442/2067 520/2068
f 520/2069 442/2070 443/2071 521/2072
f 521/2073 443/2074 444/2075 522/2076
f 522/2077 444/2078 445/2079 523/2080
f 523/2081 445/2082 446/2083 524/2084
f 524/2085 446/2086 441/2087 519/2088
f 525/2089 531/2090 532/2091 526/2092
f 526/2093 532/2094 533/2095 527/2096
f 527/2097 533/2098 534/2099 528/2100
f 528/2101 534/2102 535/2103 529/2104
f 529/2105 535/2106 536/2107 530/2108
f 530/2109 536/2110 531/2111 525/2112
f 531/2113 537/2114 538/2115 532/2116
f 532/2117 538/2118 539/2119 533/2120
f 533/2121 539/2122 540/2123 534/2124
f 534/2125 540/2126 541/2127 535/2128
f 535/2129 541/2130 542/2131 536/2132
f 536/2133 542/2134 537/2135 531/2136
f 537/2137 543/2138 544/2139 538/2140
f 538/2141 544/2142 545/2143 539/2144
f 539/2145 545/2146 546/2147 540/2148
f 540/2149 546/2150 547/2151 541/2152
f 541/2153 547/2154 548/2155 542/2156
f 542/2157 548/2158 543/2159 537/2160
f 543/2161 549/2162 550/2163 544/2164
f 544/2165 550/2166 551/2167 545/2168
f 545/2169 551/2170 552/2171 546/2172
f 546/2173 552/2174 553/2175 547/2176
f 547/2177 553/2178 554/2179 548/2180
f 548/2181 554/2182 549/2183 543/2184
f 549/2185 555/2186 556/2187 550/2188
f 550/2189 556/2190 557/2191 551/2192
f 551/2193 557/2194 558/2195 552/2196
f 552/2197 558/2198 559/2199 553/2200
f 553/2201 559/2202 560/2203 554/2204
f 554/2205 560/2206 555/2207 549/2208
f 555/2209 561/2210 562/2211 556/2212
f 556/2213 562/2214 563/2215 557/2216
f 557/2217 563/2218 564/2219 558/2220
f 558/2221 564/2222 565/2223 559/2224
f 559/2225 565/2226 566/2227 560/2228
f 560/2229 566/2230 561/2231 555/2232
f 561/2233 567/2234 568/2235 562/2236
f 562/2237 568/2238 569/2239 563/2240
f 563/2241 569/2242 570/2243 564/2244
f 564/2245 570/2246 571/2247 565/2248
f 565/2249 571/2250 572/2251 566/2252
f 566/2253 572/2254 567/2255 561/2256
f 567/2257 573/2258 574/2259 568/2260
f 568/2261 574/2262 575/2263 569/2264
f 569/2265 575/2266 576/2267 570/2268
f 570/2269 576/2270 577/2271 571/2272
f 571/2273 577/2274 578/2275 572/2276
f 572/2277 578/2278 573/2279 567/2280
f 573/2281 579/2282 580/2283 574/2284
f 574/2285 580/2286 581/2287 575/2288
f 575/2289 581/2290 582/2291 576/2292
f 576/2293 582/2294 583/2295 577/2296
f 577/2297 583/2298 584/2299 578/2300
f 578/2301 584/2302 579/2303 573/2304
f 579/2305 585/2306 586/2307 580/2308
f 580/2309 586/2310 587/2311 581/2312
f 581/2313 587/2314 588/2315 582/2316
f 582/2317 588/2318 589/2319 583/2320
f 583/2321 589/2322 590/2323 584/2324
f 584/2325 590/2326 585/2327 579/2328
f 585/2329 591/2330 592/2331 586/2332
f 586/2333 592/2334 593/2335 587/2336
f 587/2337 593/2338 594/2339 588/2340
f 588/2341 594/2342 595/2343 589/2344
f 589/2345 595/2346 596/2347 590/2348
f 590/2349 596/2350 591/2351 585/2352
f 591/2353 597/2354 598/2355 592/2356
f 592/2357 598/2358 599/2359 593/2360
f 593/2361 599/2362 600/2363 594/2364
f 594/2365 600/2366 601/2367 595/2368
f 595/2369 601/2370 602/2371 596/2372
f 596/2373 602/2374 597/2375 591/2376
f 597/2377 603/2378 604/2379 598/2380
f 598/2381 604/2382 605/2383 599/2384
f 599/2385 605/2386 606/2387 600/2388
f 600/2389 606/2390 607/2391 601/2392
f 601/2393 607/2394 608/2395 602/2396
f 602/2397 608/2398 603/2399 597/2400
f 603/2401 525/2402 526/2403 604/2404
f 604/2405 526/2406 527/2407 605/2408
f 605/2409 527/2410 528/2411 606/2412
f 606/2413 528/2414 529/2415 607/2416
f 607/2417 529/2418 530/2419 608/2420
f 608/2421 530/2422 525/2423 603/2424
