# PROJECT OEN production source mesh: PRP_PLAN_TABLE_001
mtllib PRP_PLAN_TABLE_001.mtl
s off
v -0.600000 0.860000 -0.340000
v 0.600000 0.860000 -0.340000
v 0.600000 0.960000 -0.340000
v -0.600000 0.960000 -0.340000
v -0.600000 0.860000 0.340000
v 0.600000 0.860000 0.340000
v 0.600000 0.960000 0.340000
v -0.600000 0.960000 0.340000
v -0.557500 0.000000 -0.297500
v -0.557500 0.000000 -0.222500
v -0.482500 0.000000 -0.297500
v -0.482500 0.000000 -0.222500
v -0.557500 0.870000 -0.297500
v -0.557500 0.870000 -0.222500
v -0.482500 0.870000 -0.297500
v -0.482500 0.870000 -0.222500
v -0.557500 0.000000 0.222500
v -0.557500 0.000000 0.297500
v -0.482500 0.000000 0.222500
v -0.482500 0.000000 0.297500
v -0.557500 0.870000 0.222500
v -0.557500 0.870000 0.297500
v -0.482500 0.870000 0.222500
v -0.482500 0.870000 0.297500
v 0.482500 0.000000 -0.297500
v 0.482500 0.000000 -0.222500
v 0.557500 0.000000 -0.297500
v 0.557500 0.000000 -0.222500
v 0.482500 0.870000 -0.297500
v 0.482500 0.870000 -0.222500
v 0.557500 0.870000 -0.297500
v 0.557500 0.870000 -0.222500
v 0.482500 0.000000 0.222500
v 0.482500 0.000000 0.297500
v 0.557500 0.000000 0.222500
v 0.557500 0.000000 0.297500
v 0.482500 0.870000 0.222500
v 0.482500 0.870000 0.297500
v 0.557500 0.870000 0.222500
v 0.557500 0.870000 0.297500
v -0.520000 0.420000 0.030000
v -0.520000 0.420000 -0.030000
v -0.520000 0.480000 0.030000
v -0.520000 0.480000 -0.030000
v 0.520000 0.420000 0.030000
v 0.520000 0.420000 -0.030000
v 0.520000 0.480000 0.030000
v 0.520000 0.480000 -0.030000
v -0.500000 0.966000 -0.210000
v -0.340000 0.966000 -0.210000
v -0.340000 0.978000 -0.210000
v -0.500000 0.978000 -0.210000
v -0.500000 0.966000 0.010000
v -0.340000 0.966000 0.010000
v -0.340000 0.978000 0.010000
v -0.500000 0.978000 0.010000
v -0.290000 0.966000 -0.210000
v -0.130000 0.966000 -0.210000
v -0.130000 0.978000 -0.210000
v -0.290000 0.978000 -0.210000
v -0.290000 0.966000 0.010000
v -0.130000 0.966000 0.010000
v -0.130000 0.978000 0.010000
v -0.290000 0.978000 0.010000
v -0.080000 0.966000 -0.210000
v 0.080000 0.966000 -0.210000
v 0.080000 0.978000 -0.210000
v -0.080000 0.978000 -0.210000
v -0.080000 0.966000 0.010000
v 0.080000 0.966000 0.010000
v 0.080000 0.978000 0.010000
v -0.080000 0.978000 0.010000
v 0.130000 0.966000 -0.210000
v 0.290000 0.966000 -0.210000
v 0.290000 0.978000 -0.210000
v 0.130000 0.978000 -0.210000
v 0.130000 0.966000 0.010000
v 0.290000 0.966000 0.010000
v 0.290000 0.978000 0.010000
v 0.130000 0.978000 0.010000
v 0.340000 0.966000 -0.210000
v 0.500000 0.966000 -0.210000
v 0.500000 0.978000 -0.210000
v 0.340000 0.978000 -0.210000
v 0.340000 0.966000 0.010000
v 0.500000 0.966000 0.010000
v 0.500000 0.978000 0.010000
v 0.340000 0.978000 0.010000
v -0.265000 0.982500 0.200000
v -0.275251 0.982500 0.224749
v -0.300000 0.982500 0.235000
v -0.324749 0.982500 0.224749
v -0.335000 0.982500 0.200000
v -0.324749 0.982500 0.175251
v -0.300000 0.982500 0.165000
v -0.275251 0.982500 0.175251
v -0.265000 1.017500 0.200000
v -0.275251 1.017500 0.224749
v -0.300000 1.017500 0.235000
v -0.324749 1.017500 0.224749
v -0.335000 1.017500 0.200000
v -0.324749 1.017500 0.175251
v -0.300000 1.017500 0.165000
v -0.275251 1.017500 0.175251
v -0.065000 0.982500 0.200000
v -0.075251 0.982500 0.224749
v -0.100000 0.982500 0.235000
v -0.124749 0.982500 0.224749
v -0.135000 0.982500 0.200000
v -0.124749 0.982500 0.175251
v -0.100000 0.982500 0.165000
v -0.075251 0.982500 0.175251
v -0.065000 1.017500 0.200000
v -0.075251 1.017500 0.224749
v -0.100000 1.017500 0.235000
v -0.124749 1.017500 0.224749
v -0.135000 1.017500 0.200000
v -0.124749 1.017500 0.175251
v -0.100000 1.017500 0.165000
v -0.075251 1.017500 0.175251
v 0.135000 0.982500 0.200000
v 0.124749 0.982500 0.224749
v 0.100000 0.982500 0.235000
v 0.075251 0.982500 0.224749
v 0.065000 0.982500 0.200000
v 0.075251 0.982500 0.175251
v 0.100000 0.982500 0.165000
v 0.124749 0.982500 0.175251
v 0.135000 1.017500 0.200000
v 0.124749 1.017500 0.224749
v 0.100000 1.017500 0.235000
v 0.075251 1.017500 0.224749
v 0.065000 1.017500 0.200000
v 0.075251 1.017500 0.175251
v 0.100000 1.017500 0.165000
v 0.124749 1.017500 0.175251
v 0.335000 0.982500 0.200000
v 0.324749 0.982500 0.224749
v 0.300000 0.982500 0.235000
v 0.275251 0.982500 0.224749
v 0.265000 0.982500 0.200000
v 0.275251 0.982500 0.175251
v 0.300000 0.982500 0.165000
v 0.324749 0.982500 0.175251
v 0.335000 1.017500 0.200000
v 0.324749 1.017500 0.224749
v 0.300000 1.017500 0.235000
v 0.275251 1.017500 0.224749
v 0.265000 1.017500 0.200000
v 0.275251 1.017500 0.175251
v 0.300000 1.017500 0.165000
v 0.324749 1.017500 0.175251
vt 0.000000 0.000000
vt 1.000000 0.000000
vt 1.000000 1.000000
vt 0.000000 1.000000
vt 0.000000 0.000000
vt 1.000000 0.000000
vt 1.000000 1.000000
vt 0.000000 1.000000
vt 0.000000 0.000000
vt 1.000000 0.000000
vt 1.000000 1.000000
vt 0.000000 1.000000
vt 0.000000 0.000000
vt 1.000000 0.000000
vt 1.000000 1.000000
vt 0.000000 1.000000
vt 0.000000 0.000000
vt 1.000000 0.000000
vt 1.000000 1.000000
vt 0.000000 1.000000
vt 0.000000 0.000000
vt 1.000000 0.000000
vt 1.000000 1.000000
vt 0.000000 1.000000
vt 0.000000 0.000000
vt 1.000000 0.000000
vt 1.000000 1.000000
vt 0.000000 1.000000
vt 0.000000 0.000000
vt 1.000000 0.000000
vt 1.000000 1.000000
vt 0.000000 1.000000
vt 0.000000 0.000000
vt 1.000000 0.000000
vt 1.000000 1.000000
vt 0.000000 1.000000
vt 0.000000 0.000000
vt 1.000000 0.000000
vt 1.000000 1.000000
vt 0.000000 1.000000
vt 0.000000 0.000000
vt 1.000000 0.000000
vt 1.000000 1.000000
vt 0.000000 1.000000
vt 0.000000 0.000000
vt 1.000000 0.000000
vt 1.000000 1.000000
vt 0.000000 1.000000
vt 0.000000 0.000000
vt 1.000000 0.000000
vt 1.000000 1.000000
vt 0.000000 1.000000
vt 0.000000 0.000000
vt 1.000000 0.000000
vt 1.000000 1.000000
vt 0.000000 1.000000
vt 0.000000 0.000000
vt 1.000000 0.000000
vt 1.000000 1.000000
vt 0.000000 1.000000
vt 0.000000 0.000000
vt 1.000000 0.000000
vt 1.000000 1.000000
vt 0.000000 1.000000
vt 0.000000 0.000000
vt 1.000000 0.000000
vt 1.000000 1.000000
vt 0.000000 1.000000
vt 0.000000 0.000000
vt 1.000000 0.000000
vt 1.000000 1.000000
vt 0.000000 1.000000
vt 0.000000 0.000000
vt 1.000000 0.000000
vt 1.000000 1.000000
vt 0.000000 1.000000
vt 0.000000 0.000000
vt 1.000000 0.000000
vt 1.000000 1.000000
vt 0.000000 1.000000
vt 0.000000 0.000000
vt 1.000000 0.000000
vt 1.000000 1.000000
vt 0.000000 1.000000
vt 0.000000 0.000000
vt 1.000000 0.000000
vt 1.000000 1.000000
vt 0.000000 1.000000
vt 0.000000 0.000000
vt 1.000000 0.000000
vt 1.000000 1.000000
vt 0.000000 1.000000
vt 0.000000 0.000000
vt 1.000000 0.000000
vt 1.000000 1.000000
vt 0.000000 1.000000
vt 0.000000 0.000000
vt 1.000000 0.000000
vt 1.000000 1.000000
vt 0.000000 1.000000
vt 0.000000 0.000000
vt 1.000000 0.000000
vt 1.000000 1.000000
vt 0.000000 1.000000
vt 0.000000 0.000000
vt 1.000000 0.000000
vt 1.000000 1.000000
vt 0.000000 1.000000
vt 0.000000 0.000000
vt 1.000000 0.000000
vt 1.000000 1.000000
vt 0.000000 1.000000
vt 0.000000 0.000000
vt 1.000000 0.000000
vt 1.000000 1.000000
vt 0.000000 1.000000
vt 0.000000 0.000000
vt 1.000000 0.000000
vt 1.000000 1.000000
vt 0.000000 1.000000
vt 0.000000 0.000000
vt 1.000000 0.000000
vt 1.000000 1.000000
vt 0.000000 1.000000
vt 0.000000 0.000000
vt 1.000000 0.000000
vt 1.000000 1.000000
vt 0.000000 1.000000
vt 0.000000 0.000000
vt 1.000000 0.000000
vt 1.000000 1.000000
vt 0.000000 1.000000
vt 0.000000 0.000000
vt 1.000000 0.000000
vt 1.000000 1.000000
vt 0.000000 1.000000
vt 0.000000 0.000000
vt 1.000000 0.000000
vt 1.000000 1.000000
vt 0.000000 1.000000
vt 0.000000 0.000000
vt 1.000000 0.000000
vt 1.000000 1.000000
vt 0.000000 1.000000
vt 0.000000 0.000000
vt 1.000000 0.000000
vt 1.000000 1.000000
vt 0.000000 1.000000
vt 0.000000 0.000000
vt 1.000000 0.000000
vt 1.000000 1.000000
vt 0.000000 1.000000
vt 0.000000 0.000000
vt 1.000000 0.000000
vt 1.000000 1.000000
vt 0.000000 1.000000
vt 0.000000 0.000000
vt 1.000000 0.000000
vt 1.000000 1.000000
vt 0.000000 1.000000
vt 0.000000 0.000000
vt 1.000000 0.000000
vt 1.000000 1.000000
vt 0.000000 1.000000
vt 0.000000 0.000000
vt 1.000000 0.000000
vt 1.000000 1.000000
vt 0.000000 1.000000
vt 0.000000 0.000000
vt 1.000000 0.000000
vt 1.000000 1.000000
vt 0.000000 1.000000
vt 0.000000 0.000000
vt 1.000000 0.000000
vt 1.000000 1.000000
vt 0.000000 1.000000
vt 0.000000 0.000000
vt 1.000000 0.000000
vt 1.000000 1.000000
vt 0.000000 1.000000
vt 0.000000 0.000000
vt 1.000000 0.000000
vt 1.000000 1.000000
vt 0.000000 1.000000
vt 0.000000 0.000000
vt 1.000000 0.000000
vt 1.000000 1.000000
vt 0.000000 1.000000
vt 0.000000 0.000000
vt 1.000000 0.000000
vt 1.000000 1.000000
vt 0.000000 1.000000
vt 0.000000 0.000000
vt 1.000000 0.000000
vt 1.000000 1.000000
vt 0.000000 1.000000
vt 0.000000 0.000000
vt 1.000000 0.000000
vt 1.000000 1.000000
vt 0.000000 1.000000
vt 0.000000 0.000000
vt 1.000000 0.000000
vt 1.000000 1.000000
vt 0.000000 1.000000
vt 0.000000 0.000000
vt 1.000000 0.000000
vt 1.000000 1.000000
vt 0.000000 1.000000
vt 0.000000 0.000000
vt 1.000000 0.000000
vt 1.000000 1.000000
vt 0.000000 1.000000
vt 0.000000 0.000000
vt 1.000000 0.000000
vt 1.000000 1.000000
vt 0.000000 1.000000
vt 0.000000 0.000000
vt 1.000000 0.000000
vt 1.000000 1.000000
vt 0.000000 1.000000
vt 0.000000 0.000000
vt 1.000000 0.000000
vt 1.000000 1.000000
vt 0.000000 1.000000
vt 0.000000 0.000000
vt 1.000000 0.000000
vt 1.000000 1.000000
vt 0.000000 1.000000
vt 0.000000 0.000000
vt 1.000000 0.000000
vt 1.000000 1.000000
vt 0.000000 1.000000
vt 0.000000 0.000000
vt 1.000000 0.000000
vt 1.000000 1.000000
vt 0.000000 1.000000
vt 0.000000 0.000000
vt 1.000000 0.000000
vt 1.000000 1.000000
vt 0.000000 1.000000
vt 0.000000 0.000000
vt 1.000000 0.000000
vt 1.000000 1.000000
vt 0.000000 1.000000
vt 0.000000 0.000000
vt 1.000000 0.000000
vt 1.000000 1.000000
vt 0.000000 1.000000
vt 0.000000 0.000000
vt 1.000000 0.000000
vt 1.000000 1.000000
vt 0.000000 1.000000
vt 0.000000 0.000000
vt 1.000000 0.000000
vt 1.000000 1.000000
vt 0.000000 1.000000
vt 0.000000 0.000000
vt 1.000000 0.000000
vt 1.000000 1.000000
vt 0.000000 1.000000
vt 0.000000 0.000000
vt 1.000000 0.000000
vt 1.000000 1.000000
vt 0.000000 1.000000
vt 0.000000 0.000000
vt 1.000000 0.000000
vt 1.000000 1.000000
vt 0.000000 1.000000
vt 0.000000 0.000000
vt 1.000000 0.000000
vt 1.000000 1.000000
vt 0.000000 1.000000
vt 0.000000 0.000000
vt 1.000000 0.000000
vt 1.000000 1.000000
vt 0.000000 1.000000
vt 0.000000 0.000000
vt 1.000000 0.000000
vt 1.000000 1.000000
vt 0.000000 1.000000
vt 0.000000 0.000000
vt 1.000000 0.000000
vt 1.000000 1.000000
vt 0.000000 1.000000
vt 0.000000 0.000000
vt 1.000000 0.000000
vt 1.000000 1.000000
vt 0.000000 1.000000
vt 0.000000 0.000000
vt 1.000000 0.000000
vt 1.000000 1.000000
vt 0.000000 1.000000
vt 0.000000 0.000000
vt 1.000000 0.000000
vt 1.000000 1.000000
vt 0.000000 1.000000
vt 1.000000 0.500000
vt 0.853553 0.853553
vt 0.500000 1.000000
vt 0.146447 0.853553
vt 0.000000 0.500000
vt 0.146447 0.146447
vt 0.500000 0.000000
vt 0.853553 0.146447
vt 1.000000 0.500000
vt 0.853553 0.853553
vt 0.500000 1.000000
vt 0.146447 0.853553
vt 0.000000 0.500000
vt 0.146447 0.146447
vt 0.500000 0.000000
vt 0.853553 0.146447
vt 0.000000 0.000000
vt 1.000000 0.000000
vt 1.000000 1.000000
vt 0.000000 1.000000
vt 0.000000 0.000000
vt 1.000000 0.000000
vt 1.000000 1.000000
vt 0.000000 1.000000
vt 0.000000 0.000000
vt 1.000000 0.000000
vt 1.000000 1.000000
vt 0.000000 1.000000
vt 0.000000 0.000000
vt 1.000000 0.000000
vt 1.000000 1.000000
vt 0.000000 1.000000
vt 0.000000 0.000000
vt 1.000000 0.000000
vt 1.000000 1.000000
vt 0.000000 1.000000
vt 0.000000 0.000000
vt 1.000000 0.000000
vt 1.000000 1.000000
vt 0.000000 1.000000
vt 0.000000 0.000000
vt 1.000000 0.000000
vt 1.000000 1.000000
vt 0.000000 1.000000
vt 0.000000 0.000000
vt 1.000000 0.000000
vt 1.000000 1.000000
vt 0.000000 1.000000
vt 1.000000 0.500000
vt 0.853553 0.853553
vt 0.500000 1.000000
vt 0.146447 0.853553
vt 0.000000 0.500000
vt 0.146447 0.146447
vt 0.500000 0.000000
vt 0.853553 0.146447
vt 1.000000 0.500000
vt 0.853553 0.853553
vt 0.500000 1.000000
vt 0.146447 0.853553
vt 0.000000 0.500000
vt 0.146447 0.146447
vt 0.500000 0.000000
vt 0.853553 0.146447
vt 0.000000 0.000000
vt 1.000000 0.000000
vt 1.000000 1.000000
vt 0.000000 1.000000
vt 0.000000 0.000000
vt 1.000000 0.000000
vt 1.000000 1.000000
vt 0.000000 1.000000
vt 0.000000 0.000000
vt 1.000000 0.000000
vt 1.000000 1.000000
vt 0.000000 1.000000
vt 0.000000 0.000000
vt 1.000000 0.000000
vt 1.000000 1.000000
vt 0.000000 1.000000
vt 0.000000 0.000000
vt 1.000000 0.000000
vt 1.000000 1.000000
vt 0.000000 1.000000
vt 0.000000 0.000000
vt 1.000000 0.000000
vt 1.000000 1.000000
vt 0.000000 1.000000
vt 0.000000 0.000000
vt 1.000000 0.000000
vt 1.000000 1.000000
vt 0.000000 1.000000
vt 0.000000 0.000000
vt 1.000000 0.000000
vt 1.000000 1.000000
vt 0.000000 1.000000
vt 1.000000 0.500000
vt 0.853553 0.853553
vt 0.500000 1.000000
vt 0.146447 0.853553
vt 0.000000 0.500000
vt 0.146447 0.146447
vt 0.500000 0.000000
vt 0.853553 0.146447
vt 1.000000 0.500000
vt 0.853553 0.853553
vt 0.500000 1.000000
vt 0.146447 0.853553
vt 0.000000 0.500000
vt 0.146447 0.146447
vt 0.500000 0.000000
vt 0.853553 0.146447
vt 0.000000 0.000000
vt 1.000000 0.000000
vt 1.000000 1.000000
vt 0.000000 1.000000
vt 0.000000 0.000000
vt 1.000000 0.000000
vt 1.000000 1.000000
vt 0.000000 1.000000
vt 0.000000 0.000000
vt 1.000000 0.000000
vt 1.000000 1.000000
vt 0.000000 1.000000
vt 0.000000 0.000000
vt 1.000000 0.000000
vt 1.000000 1.000000
vt 0.000000 1.000000
vt 0.000000 0.000000
vt 1.000000 0.000000
vt 1.000000 1.000000
vt 0.000000 1.000000
vt 0.000000 0.000000
vt 1.000000 0.000000
vt 1.000000 1.000000
vt 0.000000 1.000000
vt 0.000000 0.000000
vt 1.000000 0.000000
vt 1.000000 1.000000
vt 0.000000 1.000000
vt 0.000000 0.000000
vt 1.000000 0.000000
vt 1.000000 1.000000
vt 0.000000 1.000000
vt 1.000000 0.500000
vt 0.853553 0.853553
vt 0.500000 1.000000
vt 0.146447 0.853553
vt 0.000000 0.500000
vt 0.146447 0.146447
vt 0.500000 0.000000
vt 0.853553 0.146447
vt 1.000000 0.500000
vt 0.853553 0.853553
vt 0.500000 1.000000
vt 0.146447 0.853553
vt 0.000000 0.500000
vt 0.146447 0.146447
vt 0.500000 0.000000
vt 0.853553 0.146447
o PlanningSurface
usemtl MAT_WOOD
f 1/1 4/2 3/3 2/4
f 5/5 6/6 7/7 8/8
f 1/9 2/10 6/11 5/12
f 4/13 8/14 7/15 3/16
f 1/17 5/18 8/19 4/20
f 2/21 3/22 7/23 6/24
o TableLeg
f 9/25 10/26 12/27 11/28
f 13/29 15/30 16/31 14/32
f 9/33 13/34 14/35 10/36
f 11/37 12/38 16/39 15/40
f 9/41 11/42 15/43 13/44
f 10/45 14/46 16/47 12/48
f 17/49 18/50 20/51 19/52
f 21/53 23/54 24/55 22/56
f 17/57 21/58 22/59 18/60
f 19/61 20/62 24/63 23/64
f 17/65 19/66 23/67 21/68
f 18/69 22/70 24/71 20/72
f 25/73 26/74 28/75 27/76
f 29/77 31/78 32/79 30/80
f 25/81 29/82 30/83 26/84
f 27/85 28/86 32/87 31/88
f 25/89 27/90 31/91 29/92
f 26/93 30/94 32/95 28/96
f 33/97 34/98 36/99 35/100
f 37/101 39/102 40/103 38/104
f 33/105 37/106 38/107 34/108
f 35/109 36/110 40/111 39/112
f 33/113 35/114 39/115 37/116
f 34/117 38/118 40/119 36/120
o LongBrace
f 41/121 42/122 44/123 43/124
f 45/125 47/126 48/127 46/128
f 41/129 45/130 46/131 42/132
f 43/133 44/134 48/135 47/136
f 41/137 43/138 47/139 45/140
f 42/141 46/142 48/143 44/144
o ActionCard_1
usemtl MAT_CANVAS
f 49/145 52/146 51/147 50/148
f 53/149 54/150 55/151 56/152
f 49/153 50/154 54/155 53/156
f 52/157 56/158 55/159 51/160
f 49/161 53/162 56/163 52/164
f 50/165 51/166 55/167 54/168
o ActionCard_2
f 57/169 60/170 59/171 58/172
f 61/173 62/174 63/175 64/176
f 57/177 58/178 62/179 61/180
f 60/181 64/182 63/183 59/184
f 57/185 61/186 64/187 60/188
f 58/189 59/190 63/191 62/192
o ActionCard_3
f 65/193 68/194 67/195 66/196
f 69/197 70/198 71/199 72/200
f 65/201 66/202 70/203 69/204
f 68/205 72/206 71/207 67/208
f 65/209 69/210 72/211 68/212
f 66/213 67/214 71/215 70/216
o ActionCard_4
f 73/217 76/218 75/219 74/220
f 77/221 78/222 79/223 80/224
f 73/225 74/226 78/227 77/228
f 76/229 80/230 79/231 75/232
f 73/233 77/234 80/235 76/236
f 74/237 75/238 79/239 78/240
o ActionCard_5
f 81/241 84/242 83/243 82/244
f 85/245 86/246 87/247 88/248
f 81/249 82/250 86/251 85/252
f 84/253 88/254 87/255 83/256
f 81/257 85/258 88/259 84/260
f 82/261 83/262 87/263 86/264
o EffortMarker_1
usemtl MAT_METAL
f 89/265 90/266 98/267 97/268
f 90/269 91/270 99/271 98/272
f 91/273 92/274 100/275 99/276
f 92/277 93/278 101/279 100/280
f 93/281 94/282 102/283 101/284
f 94/285 95/286 103/287 102/288
f 95/289 96/290 104/291 103/292
f 96/293 89/294 97/295 104/296
f 96/297 95/298 94/299 93/300 92/301 91/302 90/303 89/304
f 97/305 98/306 99/307 100/308 101/309 102/310 103/311 104/312
o EffortMarker_2
f 105/313 106/314 114/315 113/316
f 106/317 107/318 115/319 114/320
f 107/321 108/322 116/323 115/324
f 108/325 109/326 117/327 116/328
f 109/329 110/330 118/331 117/332
f 110/333 111/334 119/335 118/336
f 111/337 112/338 120/339 119/340
f 112/341 105/342 113/343 120/344
f 112/345 111/346 110/347 109/348 108/349 107/350 106/351 105/352
f 113/353 114/354 115/355 116/356 117/357 118/358 119/359 120/360
o EffortMarker_3
f 121/361 122/362 130/363 129/364
f 122/365 123/366 131/367 130/368
f 123/369 124/370 132/371 131/372
f 124/373 125/374 133/375 132/376
f 125/377 126/378 134/379 133/380
f 126/381 127/382 135/383 134/384
f 127/385 128/386 136/387 135/388
f 128/389 121/390 129/391 136/392
f 128/393 127/394 126/395 125/396 124/397 123/398 122/399 121/400
f 129/401 130/402 131/403 132/404 133/405 134/406 135/407 136/408
o EffortMarker_4
f 137/409 138/410 146/411 145/412
f 138/413 139/414 147/415 146/416
f 139/417 140/418 148/419 147/420
f 140/421 141/422 149/423 148/424
f 141/425 142/426 150/427 149/428
f 142/429 143/430 151/431 150/432
f 143/433 144/434 152/435 151/436
f 144/437 137/438 145/439 152/440
f 144/441 143/442 142/443 141/444 140/445 139/446 138/447 137/448
f 145/449 146/450 147/451 148/452 149/453 150/454 151/455 152/456
