# PROJECT OEN production source mesh: PRP_SHELTER_TARP_001_TORN
mtllib PRP_SHELTER_TARP_001_TORN.mtl
s off
v -1.300000 1.720000 -1.050000
v -0.866667 1.720000 -1.050000
v -0.433333 1.720000 -1.050000
v 0.000000 1.720000 -1.050000
v 0.433333 1.720000 -1.050000
v 0.866667 1.720000 -1.050000
v 1.300000 1.720000 -1.050000
v -1.300000 1.720000 -0.525000
v -0.866667 1.642218 -0.525000
v -0.433333 1.585278 -0.525000
v 0.000000 1.564437 -0.525000
v 0.433333 1.585278 -0.525000
v 0.866667 1.642218 -0.525000
v 1.300000 1.720000 -0.525000
v -1.300000 1.720000 0.000000
v -0.866667 1.610000 0.000000
v -0.433333 1.529474 0.000000
v 0.000000 1.500000 0.000000
v 0.433333 1.529474 0.000000
v 0.866667 1.610000 0.000000
v 1.300000 1.720000 0.000000
v -1.300000 1.720000 0.525000
v -0.866667 1.642218 0.525000
v -0.433333 1.585278 0.525000
v 0.000000 1.564437 0.525000
v 0.433333 1.585278 0.525000
v 0.866667 1.362218 0.525000
v 1.300000 1.440000 0.525000
v -1.300000 1.720000 1.050000
v -0.866667 1.720000 1.050000
v -0.433333 1.720000 1.050000
v 0.000000 1.720000 1.050000
v 0.433333 1.720000 1.050000
v 0.866667 1.440000 1.050000
v 1.300000 1.440000 1.050000
v -1.217000 1.720000 -1.050000
v -1.229438 1.737119 -1.050000
v -1.249562 1.730580 -1.050000
v -1.249562 1.709420 -1.050000
v -1.229438 1.702881 -1.050000
v -1.232852 1.720000 -1.001214
v -1.242914 1.737119 -1.008525
v -1.259195 1.730580 -1.020353
v -1.259195 1.709420 -1.020353
v -1.242914 1.702881 -1.008525
v -1.274352 1.720000 -0.971062
v -1.278195 1.737119 -0.982891
v -1.284414 1.730580 -1.002031
v -1.284414 1.709420 -1.002031
v -1.278195 1.702881 -0.982891
v -1.325648 1.720000 -0.971062
v -1.321805 1.737119 -0.982891
v -1.315586 1.730580 -1.002031
v -1.315586 1.709420 -1.002031
v -1.321805 1.702881 -0.982891
v -1.367148 1.720000 -1.001214
v -1.357086 1.737119 -1.008525
v -1.340805 1.730580 -1.020353
v -1.340805 1.709420 -1.020353
v -1.357086 1.702881 -1.008525
v -1.383000 1.720000 -1.050000
v -1.370562 1.737119 -1.050000
v -1.350438 1.730580 -1.050000
v -1.350438 1.709420 -1.050000
v -1.370562 1.702881 -1.050000
v -1.367148 1.720000 -1.098786
v -1.357086 1.737119 -1.091475
v -1.340805 1.730580 -1.079647
v -1.340805 1.709420 -1.079647
v -1.357086 1.702881 -1.091475
v -1.325648 1.720000 -1.128938
v -1.321805 1.737119 -1.117109
v -1.315586 1.730580 -1.097969
v -1.315586 1.709420 -1.097969
v -1.321805 1.702881 -1.117109
v -1.274352 1.720000 -1.128938
v -1.278195 1.737119 -1.117109
v -1.284414 1.730580 -1.097969
v -1.284414 1.709420 -1.097969
v -1.278195 1.702881 -1.117109
v -1.232852 1.720000 -1.098786
v -1.242914 1.737119 -1.091475
v -1.259195 1.730580 -1.079647
v -1.259195 1.709420 -1.079647
v -1.242914 1.702881 -1.091475
v 1.383000 1.720000 -1.050000
v 1.370562 1.737119 -1.050000
v 1.350438 1.730580 -1.050000
v 1.350438 1.709420 -1.050000
v 1.370562 1.702881 -1.050000
v 1.367148 1.720000 -1.001214
v 1.357086 1.737119 -1.008525
v 1.340805 1.730580 -1.020353
v 1.340805 1.709420 -1.020353
v 1.357086 1.702881 -1.008525
v 1.325648 1.720000 -0.971062
v 1.321805 1.737119 -0.982891
v 1.315586 1.730580 -1.002031
v 1.315586 1.709420 -1.002031
v 1.321805 1.702881 -0.982891
v 1.274352 1.720000 -0.971062
v 1.278195 1.737119 -0.982891
v 1.284414 1.730580 -1.002031
v 1.284414 1.709420 -1.002031
v 1.278195 1.702881 -0.982891
v 1.232852 1.720000 -1.001214
v 1.242914 1.737119 -1.008525
v 1.259195 1.730580 -1.020353
v 1.259195 1.709420 -1.020353
v 1.242914 1.702881 -1.008525
v 1.217000 1.720000 -1.050000
v 1.229438 1.737119 -1.050000
v 1.249562 1.730580 -1.050000
v 1.249562 1.709420 -1.050000
v 1.229438 1.702881 -1.050000
v 1.232852 1.720000 -1.098786
v 1.242914 1.737119 -1.091475
v 1.259195 1.730580 -1.079647
v 1.259195 1.709420 -1.079647
v 1.242914 1.702881 -1.091475
v 1.274352 1.720000 -1.128938
v 1.278195 1.737119 -1.117109
v 1.284414 1.730580 -1.097969
v 1.284414 1.709420 -1.097969
v 1.278195 1.702881 -1.117109
v 1.325648 1.720000 -1.128938
v 1.321805 1.737119 -1.117109
v 1.315586 1.730580 -1.097969
v 1.315586 1.709420 -1.097969
v 1.321805 1.702881 -1.117109
v 1.367148 1.720000 -1.098786
v 1.357086 1.737119 -1.091475
v 1.340805 1.730580 -1.079647
v 1.340805 1.709420 -1.079647
v 1.357086 1.702881 -1.091475
v -1.217000 1.720000 1.050000
v -1.229438 1.737119 1.050000
v -1.249562 1.730580 1.050000
v -1.249562 1.709420 1.050000
v -1.229438 1.702881 1.050000
v -1.232852 1.720000 1.098786
v -1.242914 1.737119 1.091475
v -1.259195 1.730580 1.079647
v -1.259195 1.709420 1.079647
v -1.242914 1.702881 1.091475
v -1.274352 1.720000 1.128938
v -1.278195 1.737119 1.117109
v -1.284414 1.730580 1.097969
v -1.284414 1.709420 1.097969
v -1.278195 1.702881 1.117109
v -1.325648 1.720000 1.128938
v -1.321805 1.737119 1.117109
v -1.315586 1.730580 1.097969
v -1.315586 1.709420 1.097969
v -1.321805 1.702881 1.117109
v -1.367148 1.720000 1.098786
v -1.357086 1.737119 1.091475
v -1.340805 1.730580 1.079647
v -1.340805 1.709420 1.079647
v -1.357086 1.702881 1.091475
v -1.383000 1.720000 1.050000
v -1.370562 1.737119 1.050000
v -1.350438 1.730580 1.050000
v -1.350438 1.709420 1.050000
v -1.370562 1.702881 1.050000
v -1.367148 1.720000 1.001214
v -1.357086 1.737119 1.008525
v -1.340805 1.730580 1.020353
v -1.340805 1.709420 1.020353
v -1.357086 1.702881 1.008525
v -1.325648 1.720000 0.971062
v -1.321805 1.737119 0.982891
v -1.315586 1.730580 1.002031
v -1.315586 1.709420 1.002031
v -1.321805 1.702881 0.982891
v -1.274352 1.720000 0.971062
v -1.278195 1.737119 0.982891
v -1.284414 1.730580 1.002031
v -1.284414 1.709420 1.002031
v -1.278195 1.702881 0.982891
v -1.232852 1.720000 1.001214
v -1.242914 1.737119 1.008525
v -1.259195 1.730580 1.020353
v -1.259195 1.709420 1.020353
v -1.242914 1.702881 1.008525
v 1.383000 1.720000 1.050000
v 1.370562 1.737119 1.050000
v 1.350438 1.730580 1.050000
v 1.350438 1.709420 1.050000
v 1.370562 1.702881 1.050000
v 1.367148 1.720000 1.098786
v 1.357086 1.737119 1.091475
v 1.340805 1.730580 1.079647
v 1.340805 1.709420 1.079647
v 1.357086 1.702881 1.091475
v 1.325648 1.720000 1.128938
v 1.321805 1.737119 1.117109
v 1.315586 1.730580 1.097969
v 1.315586 1.709420 1.097969
v 1.321805 1.702881 1.117109
v 1.274352 1.720000 1.128938
v 1.278195 1.737119 1.117109
v 1.284414 1.730580 1.097969
v 1.284414 1.709420 1.097969
v 1.278195 1.702881 1.117109
v 1.232852 1.720000 1.098786
v 1.242914 1.737119 1.091475
v 1.259195 1.730580 1.079647
v 1.259195 1.709420 1.079647
v 1.242914 1.702881 1.091475
v 1.217000 1.720000 1.050000
v 1.229438 1.737119 1.050000
v 1.249562 1.730580 1.050000
v 1.249562 1.709420 1.050000
v 1.229438 1.702881 1.050000
v 1.232852 1.720000 1.001214
v 1.242914 1.737119 1.008525
v 1.259195 1.730580 1.020353
v 1.259195 1.709420 1.020353
v 1.242914 1.702881 1.008525
v 1.274352 1.720000 0.971062
v 1.278195 1.737119 0.982891
v 1.284414 1.730580 1.002031
v 1.284414 1.709420 1.002031
v 1.278195 1.702881 0.982891
v 1.325648 1.720000 0.971062
v 1.321805 1.737119 0.982891
v 1.315586 1.730580 1.002031
v 1.315586 1.709420 1.002031
v 1.321805 1.702881 0.982891
v 1.367148 1.720000 1.001214
v 1.357086 1.737119 1.008525
v 1.340805 1.730580 1.020353
v 1.340805 1.709420 1.020353
v 1.357086 1.702881 1.008525
vt 0.000000 0.000000
vt 1.000000 0.000000
vt 1.000000 1.000000
vt 0.000000 1.000000
vt 0.000000 0.000000
vt 1.000000 0.000000
vt 1.000000 1.000000
vt 0.000000 1.000000
vt 0.000000 0.000000
vt 1.000000 0.000000
vt 1.000000 1.000000
vt 0.000000 1.000000
vt 0.000000 0.000000
vt 1.000000 0.000000
vt 1.000000 1.000000
vt 0.000000 1.000000
vt 0.000000 0.000000
vt 1.000000 0.000000
vt 1.000000 1.000000
vt 0.000000 1.000000
vt 0.000000 0.000000
vt 1.000000 0.000000
vt 1.000000 1.000000
vt 0.000000 1.000000
vt 0.000000 0.000000
vt 1.000000 0.000000
vt 1.000000 1.000000
vt 0.000000 1.000000
vt 0.000000 0.000000
vt 1.000000 0.000000
vt 1.000000 1.000000
vt 0.000000 1.000000
vt 0.000000 0.000000
vt 1.000000 0.000000
vt 1.000000 1.000000
vt 0.000000 1.000000
vt 0.000000 0.000000
vt 1.000000 0.000000
vt 1.000000 1.000000
vt 0.000000 1.000000
vt 0.000000 0.000000
vt 1.000000 0.000000
vt 1.000000 1.000000
vt 0.000000 1.000000
vt 0.000000 0.000000
vt 1.000000 0.000000
vt 1.000000 1.000000
vt 0.000000 1.000000
vt 0.000000 0.000000
vt 1.000000 0.000000
vt 1.000000 1.000000
vt 0.000000 1.000000
vt 0.000000 0.000000
vt 1.000000 0.000000
vt 1.000000 1.000000
vt 0.000000 1.000000
vt 0.000000 0.000000
vt 1.000000 0.000000
vt 1.000000 1.000000
vt 0.000000 1.000000
vt 0.000000 0.000000
vt 1.000000 0.000000
vt 1.000000 1.000000
vt 0.000000 1.000000
vt 0.000000 0.000000
vt 1.000000 0.000000
vt 1.000000 1.000000
vt 0.000000 1.000000
vt 0.000000 0.000000
vt 1.000000 0.000000
vt 1.000000 1.000000
vt 0.000000 1.000000
vt 0.000000 0.000000
vt 1.000000 0.000000
vt 1.000000 1.000000
vt 0.000000 1.000000
vt 0.000000 0.000000
vt 1.000000 0.000000
vt 1.000000 1.000000
vt 0.000000 1.000000
vt 0.000000 0.000000
vt 1.000000 0.000000
vt 1.000000 1.000000
vt 0.000000 1.000000
vt 0.000000 0.000000
vt 1.000000 0.000000
vt 1.000000 1.000000
vt 0.000000 1.000000
vt 0.000000 0.000000
vt 1.000000 0.000000
vt 1.000000 1.000000
vt 0.000000 1.000000
vt 0.000000 0.000000
vt 1.000000 0.000000
vt 1.000000 1.000000
vt 0.000000 1.000000
vt 0.000000 0.000000
vt 1.000000 0.000000
vt 1.000000 1.000000
vt 0.000000 1.000000
vt 0.000000 0.000000
vt 1.000000 0.000000
vt 1.000000 1.000000
vt 0.000000 1.000000
vt 0.000000 0.000000
vt 1.000000 0.000000
vt 1.000000 1.000000
vt 0.000000 1.000000
vt 0.000000 0.000000
vt 1.000000 0.000000
vt 1.000000 1.000000
vt 0.000000 1.000000
vt 0.000000 0.000000
vt 1.000000 0.000000
vt 1.000000 1.000000
vt 0.000000 1.000000
vt 0.000000 0.000000
vt 1.000000 0.000000
vt 1.000000 1.000000
vt 0.000000 1.000000
vt 0.000000 0.000000
vt 1.000000 0.000000
vt 1.000000 1.000000
vt 0.000000 1.000000
vt 0.000000 0.000000
vt 1.000000 0.000000
vt 1.000000 1.000000
vt 0.000000 1.000000
vt 0.000000 0.000000
vt 1.000000 0.000000
vt 1.000000 1.000000
vt 0.000000 1.000000
vt 0.000000 0.000000
vt 1.000000 0.000000
vt 1.000000 1.000000
vt 0.000000 1.000000
vt 0.000000 0.000000
vt 1.000000 0.000000
vt 1.000000 1.000000
vt 0.000000 1.000000
vt 0.000000 0.000000
vt 1.000000 0.000000
vt 1.000000 1.000000
vt 0.000000 1.000000
vt 0.000000 0.000000
vt 1.000000 0.000000
vt 1.000000 1.000000
vt 0.000000 1.000000
vt 0.000000 0.000000
vt 1.000000 0.000000
vt 1.000000 1.000000
vt 0.000000 1.000000
vt 0.000000 0.000000
vt 1.000000 0.000000
vt 1.000000 1.000000
vt 0.000000 1.000000
vt 0.000000 0.000000
vt 1.000000 0.000000
vt 1.000000 1.000000
vt 0.000000 1.000000
vt 0.000000 0.000000
vt 1.000000 0.000000
vt 1.000000 1.000000
vt 0.000000 1.000000
vt 0.000000 0.000000
vt 1.000000 0.000000
vt 1.000000 1.000000
vt 0.000000 1.000000
vt 0.000000 0.000000
vt 1.000000 0.000000
vt 1.000000 1.000000
vt 0.000000 1.000000
vt 0.000000 0.000000
vt 1.000000 0.000000
vt 1.000000 1.000000
vt 0.000000 1.000000
vt 0.000000 0.000000
vt 1.000000 0.000000
vt 1.000000 1.000000
vt 0.000000 1.000000
vt 0.000000 0.000000
vt 1.000000 0.000000
vt 1.000000 1.000000
vt 0.000000 1.000000
vt 0.000000 0.000000
vt 1.000000 0.000000
vt 1.000000 1.000000
vt 0.000000 1.000000
vt 0.000000 0.000000
vt 1.000000 0.000000
vt 1.000000 1.000000
vt 0.000000 1.000000
vt 0.000000 0.000000
vt 1.000000 0.000000
vt 1.000000 1.000000
vt 0.000000 1.000000
vt 0.000000 0.000000
vt 1.000000 0.000000
vt 1.000000 1.000000
vt 0.000000 1.000000
vt 0.000000 0.000000
vt 1.000000 0.000000
vt 1.000000 1.000000
vt 0.000000 1.000000
vt 0.000000 0.000000
vt 1.000000 0.000000
vt 1.000000 1.000000
vt 0.000000 1.000000
vt 0.000000 0.000000
vt 1.000000 0.000000
vt 1.000000 1.000000
vt 0.000000 1.000000
vt 0.000000 0.000000
vt 1.000000 0.000000
vt 1.000000 1.000000
vt 0.000000 1.000000
vt 0.000000 0.000000
vt 1.000000 0.000000
vt 1.000000 1.000000
vt 0.000000 1.000000
vt 0.000000 0.000000
vt 1.000000 0.000000
vt 1.000000 1.000000
vt 0.000000 1.000000
vt 0.000000 0.000000
vt 1.000000 0.000000
vt 1.000000 1.000000
vt 0.000000 1.000000
vt 0.000000 0.000000
vt 1.000000 0.000000
vt 1.000000 1.000000
vt 0.000000 1.000000
vt 0.000000 0.000000
vt 1.000000 0.000000
vt 1.000000 1.000000
vt 0.000000 1.000000
vt 0.000000 0.000000
vt 1.000000 0.000000
vt 1.000000 1.000000
vt 0.000000 1.000000
vt 0.000000 0.000000
vt 1.000000 0.000000
vt 1.000000 1.000000
vt 0.000000 1.000000
vt 0.000000 0.000000
vt 1.000000 0.000000
vt 1.000000 1.000000
vt 0.000000 1.000000
vt 0.000000 0.000000
vt 1.000000 0.000000
vt 1.000000 1.000000
vt 0.000000 1.000000
vt 0.000000 0.000000
vt 1.000000 0.000000
vt 1.000000 1.000000
vt 0.000000 1.000000
vt 0.000000 0.000000
vt 1.000000 0.000000
vt 1.000000 1.000000
vt 0.000000 1.000000
vt 0.000000 0.000000
vt 1.000000 0.000000
vt 1.000000 1.000000
vt 0.000000 1.000000
vt 0.000000 0.000000
vt 1.000000 0.000000
vt 1.000000 1.000000
vt 0.000000 1.000000
vt 0.000000 0.000000
vt 1.000000 0.000000
vt 1.000000 1.000000
vt 0.000000 1.000000
vt 0.000000 0.000000
vt 1.000000 0.000000
vt 1.000000 1.000000
vt 0.000000 1.000000
vt 0.000000 0.000000
vt 1.000000 0.000000
vt 1.000000 1.000000
vt 0.000000 1.000000
vt 0.000000 0.000000
vt 1.000000 0.000000
vt 1.000000 1.000000
vt 0.000000 1.000000
vt 0.000000 0.000000
vt 1.000000 0.000000
vt 1.000000 1.000000
vt 0.000000 1.000000
vt 0.000000 0.000000
vt 1.000000 0.000000
vt 1.000000 1.000000
vt 0.000000 1.000000
vt 0.000000 0.000000
vt 1.000000 0.000000
vt 1.000000 1.000000
vt 0.000000 1.000000
vt 0.000000 0.000000
vt 1.000000 0.000000
vt 1.000000 1.000000
vt 0.000000 1.000000
vt 0.000000 0.000000
vt 1.000000 0.000000
vt 1.000000 1.000000
vt 0.000000 1.000000
vt 0.000000 0.000000
vt 1.000000 0.000000
vt 1.000000 1.000000
vt 0.000000 1.000000
vt 0.000000 0.000000
vt 1.000000 0.000000
vt 1.000000 1.000000
vt 0.000000 1.000000
vt 0.000000 0.000000
vt 1.000000 0.000000
vt 1.000000 1.000000
vt 0.000000 1.000000
vt 0.000000 0.000000
vt 1.000000 0.000000
vt 1.000000 1.000000
vt 0.000000 1.000000
vt 0.000000 0.000000
vt 1.000000 0.000000
vt 1.000000 1.000000
vt 0.000000 1.000000
vt 0.000000 0.000000
vt 1.000000 0.000000
vt 1.000000 1.000000
vt 0.000000 1.000000
vt 0.000000 0.000000
vt 1.000000 0.000000
vt 1.000000 1.000000
vt 0.000000 1.000000
vt 0.000000 0.000000
vt 1.000000 0.000000
vt 1.000000 1.000000
vt 0.000000 1.000000
vt 0.000000 0.000000
vt 1.000000 0.000000
vt 1.000000 1.000000
vt 0.000000 1.000000
vt 0.000000 0.000000
vt 1.000000 0.000000
vt 1.000000 1.000000
vt 0.000000 1.000000
vt 0.000000 0.000000
vt 1.000000 0.000000
vt 1.000000 1.000000
vt 0.000000 1.000000
vt 0.000000 0.000000
vt 1.000000 0.000000
vt 1.000000 1.000000
vt 0.000000 1.000000
vt 0.000000 0.000000
vt 1.000000 0.000000
vt 1.000000 1.000000
vt 0.000000 1.000000
vt 0.000000 0.000000
vt 1.000000 0.000000
vt 1.000000 1.000000
vt 0.000000 1.000000
vt 0.000000 0.000000
vt 1.000000 0.000000
vt 1.000000 1.000000
vt 0.000000 1.000000
vt 0.000000 0.000000
vt 1.000000 0.000000
vt 1.000000 1.000000
vt 0.000000 1.000000
vt 0.000000 0.000000
vt 1.000000 0.000000
vt 1.000000 1.000000
vt 0.000000 1.000000
vt 0.000000 0.000000
vt 1.000000 0.000000
vt 1.000000 1.000000
vt 0.000000 1.000000
vt 0.000000 0.000000
vt 1.000000 0.000000
vt 1.000000 1.000000
vt 0.000000 1.000000
vt 0.000000 0.000000
vt 1.000000 0.000000
vt 1.000000 1.000000
vt 0.000000 1.000000
vt 0.000000 0.000000
vt 1.000000 0.000000
vt 1.000000 1.000000
vt 0.000000 1.000000
vt 0.000000 0.000000
vt 1.000000 0.000000
vt 1.000000 1.000000
vt 0.000000 1.000000
vt 0.000000 0.000000
vt 1.000000 0.000000
vt 1.000000 1.000000
vt 0.000000 1.000000
vt 0.000000 0.000000
vt 1.000000 0.000000
vt 1.000000 1.000000
vt 0.000000 1.000000
vt 0.000000 0.000000
vt 1.000000 0.000000
vt 1.000000 1.000000
vt 0.000000 1.000000
vt 0.000000 0.000000
vt 1.000000 0.000000
vt 1.000000 1.000000
vt 0.000000 1.000000
vt 0.000000 0.000000
vt 1.000000 0.000000
vt 1.000000 1.000000
vt 0.000000 1.000000
vt 0.000000 0.000000
vt 1.000000 0.000000
vt 1.000000 1.000000
vt 0.000000 1.000000
vt 0.000000 0.000000
vt 1.000000 0.000000
vt 1.000000 1.000000
vt 0.000000 1.000000
vt 0.000000 0.000000
vt 1.000000 0.000000
vt 1.000000 1.000000
vt 0.000000 1.000000
vt 0.000000 0.000000
vt 1.000000 0.000000
vt 1.000000 1.000000
vt 0.000000 1.000000
vt 0.000000 0.000000
vt 1.000000 0.000000
vt 1.000000 1.000000
vt 0.000000 1.000000
vt 0.000000 0.000000
vt 1.000000 0.000000
vt 1.000000 1.000000
vt 0.000000 1.000000
vt 0.000000 0.000000
vt 1.000000 0.000000
vt 1.000000 1.000000
vt 0.000000 1.000000
vt 0.000000 0.000000
vt 1.000000 0.000000
vt 1.000000 1.000000
vt 0.000000 1.000000
vt 0.000000 0.000000
vt 1.000000 0.000000
vt 1.000000 1.000000
vt 0.000000 1.000000
vt 0.000000 0.000000
vt 1.000000 0.000000
vt 1.000000 1.000000
vt 0.000000 1.000000
vt 0.000000 0.000000
vt 1.000000 0.000000
vt 1.000000 1.000000
vt 0.000000 1.000000
vt 0.000000 0.000000
vt 1.000000 0.000000
vt 1.000000 1.000000
vt 0.000000 1.000000
vt 0.000000 0.000000
vt 1.000000 0.000000
vt 1.000000 1.000000
vt 0.000000 1.000000
vt 0.000000 0.000000
vt 1.000000 0.000000
vt 1.000000 1.000000
vt 0.000000 1.000000
vt 0.000000 0.000000
vt 1.000000 0.000000
vt 1.000000 1.000000
vt 0.000000 1.000000
vt 0.000000 0.000000
vt 1.000000 0.000000
vt 1.000000 1.000000
vt 0.000000 1.000000
vt 0.000000 0.000000
vt 1.000000 0.000000
vt 1.000000 1.000000
vt 0.000000 1.000000
vt 0.000000 0.000000
vt 1.000000 0.000000
vt 1.000000 1.000000
vt 0.000000 1.000000
vt 0.000000 0.000000
vt 1.000000 0.000000
vt 1.000000 1.000000
vt 0.000000 1.000000
vt 0.000000 0.000000
vt 1.000000 0.000000
vt 1.000000 1.000000
vt 0.000000 1.000000
vt 0.000000 0.000000
vt 1.000000 0.000000
vt 1.000000 1.000000
vt 0.000000 1.000000
vt 0.000000 0.000000
vt 1.000000 0.000000
vt 1.000000 1.000000
vt 0.000000 1.000000
vt 0.000000 0.000000
vt 1.000000 0.000000
vt 1.000000 1.000000
vt 0.000000 1.000000
vt 0.000000 0.000000
vt 1.000000 0.000000
vt 1.000000 1.000000
vt 0.000000 1.000000
vt 0.000000 0.000000
vt 1.000000 0.000000
vt 1.000000 1.000000
vt 0.000000 1.000000
vt 0.000000 0.000000
vt 1.000000 0.000000
vt 1.000000 1.000000
vt 0.000000 1.000000
vt 0.000000 0.000000
vt 1.000000 0.000000
vt 1.000000 1.000000
vt 0.000000 1.000000
vt 0.000000 0.000000
vt 1.000000 0.000000
vt 1.000000 1.000000
vt 0.000000 1.000000
vt 0.000000 0.000000
vt 1.000000 0.000000
vt 1.000000 1.000000
vt 0.000000 1.000000
vt 0.000000 0.000000
vt 1.000000 0.000000
vt 1.000000 1.000000
vt 0.000000 1.000000
vt 0.000000 0.000000
vt 1.000000 0.000000
vt 1.000000 1.000000
vt 0.000000 1.000000
vt 0.000000 0.000000
vt 1.000000 0.000000
vt 1.000000 1.000000
vt 0.000000 1.000000
vt 0.000000 0.000000
vt 1.000000 0.000000
vt 1.000000 1.000000
vt 0.000000 1.000000
vt 0.000000 0.000000
vt 1.000000 0.000000
vt 1.000000 1.000000
vt 0.000000 1.000000
vt 0.000000 0.000000
vt 1.000000 0.000000
vt 1.000000 1.000000
vt 0.000000 1.000000
vt 0.000000 0.000000
vt 1.000000 0.000000
vt 1.000000 1.000000
vt 0.000000 1.000000
vt 0.000000 0.000000
vt 1.000000 0.000000
vt 1.000000 1.000000
vt 0.000000 1.000000
vt 0.000000 0.000000
vt 1.000000 0.000000
vt 1.000000 1.000000
vt 0.000000 1.000000
vt 0.000000 0.000000
vt 1.000000 0.000000
vt 1.000000 1.000000
vt 0.000000 1.000000
vt 0.000000 0.000000
vt 1.000000 0.000000
vt 1.000000 1.000000
vt 0.000000 1.000000
vt 0.000000 0.000000
vt 1.000000 0.000000
vt 1.000000 1.000000
vt 0.000000 1.000000
vt 0.000000 0.000000
vt 1.000000 0.000000
vt 1.000000 1.000000
vt 0.000000 1.000000
vt 0.000000 0.000000
vt 1.000000 0.000000
vt 1.000000 1.000000
vt 0.000000 1.000000
vt 0.000000 0.000000
vt 1.000000 0.000000
vt 1.000000 1.000000
vt 0.000000 1.000000
vt 0.000000 0.000000
vt 1.000000 0.000000
vt 1.000000 1.000000
vt 0.000000 1.000000
vt 0.000000 0.000000
vt 1.000000 0.000000
vt 1.000000 1.000000
vt 0.000000 1.000000
vt 0.000000 0.000000
vt 1.000000 0.000000
vt 1.000000 1.000000
vt 0.000000 1.000000
vt 0.000000 0.000000
vt 1.000000 0.000000
vt 1.000000 1.000000
vt 0.000000 1.000000
vt 0.000000 0.000000
vt 1.000000 0.000000
vt 1.000000 1.000000
vt 0.000000 1.000000
vt 0.000000 0.000000
vt 1.000000 0.000000
vt 1.000000 1.000000
vt 0.000000 1.000000
vt 0.000000 0.000000
vt 1.000000 0.000000
vt 1.000000 1.000000
vt 0.000000 1.000000
vt 0.000000 0.000000
vt 1.000000 0.000000
vt 1.000000 1.000000
vt 0.000000 1.000000
vt 0.000000 0.000000
vt 1.000000 0.000000
vt 1.000000 1.000000
vt 0.000000 1.000000
vt 0.000000 0.000000
vt 1.000000 0.000000
vt 1.000000 1.000000
vt 0.000000 1.000000
vt 0.000000 0.000000
vt 1.000000 0.000000
vt 1.000000 1.000000
vt 0.000000 1.000000
vt 0.000000 0.000000
vt 1.000000 0.000000
vt 1.000000 1.000000
vt 0.000000 1.000000
vt 0.000000 0.000000
vt 1.000000 0.000000
vt 1.000000 1.000000
vt 0.000000 1.000000
vt 0.000000 0.000000
vt 1.000000 0.000000
vt 1.000000 1.000000
vt 0.000000 1.000000
vt 0.000000 0.000000
vt 1.000000 0.000000
vt 1.000000 1.000000
vt 0.000000 1.000000
vt 0.000000 0.000000
vt 1.000000 0.000000
vt 1.000000 1.000000
vt 0.000000 1.000000
vt 0.000000 0.000000
vt 1.000000 0.000000
vt 1.000000 1.000000
vt 0.000000 1.000000
vt 0.000000 0.000000
vt 1.000000 0.000000
vt 1.000000 1.000000
vt 0.000000 1.000000
vt 0.000000 0.000000
vt 1.000000 0.000000
vt 1.000000 1.000000
vt 0.000000 1.000000
vt 0.000000 0.000000
vt 1.000000 0.000000
vt 1.000000 1.000000
vt 0.000000 1.000000
vt 0.000000 0.000000
vt 1.000000 0.000000
vt 1.000000 1.000000
vt 0.000000 1.000000
vt 0.000000 0.000000
vt 1.000000 0.000000
vt 1.000000 1.000000
vt 0.000000 1.000000
vt 0.000000 0.000000
vt 1.000000 0.000000
vt 1.000000 1.000000
vt 0.000000 1.000000
vt 0.000000 0.000000
vt 1.000000 0.000000
vt 1.000000 1.000000
vt 0.000000 1.000000
vt 0.000000 0.000000
vt 1.000000 0.000000
vt 1.000000 1.000000
vt 0.000000 1.000000
vt 0.000000 0.000000
vt 1.000000 0.000000
vt 1.000000 1.000000
vt 0.000000 1.000000
vt 0.000000 0.000000
vt 1.000000 0.000000
vt 1.000000 1.000000
vt 0.000000 1.000000
vt 0.000000 0.000000
vt 1.000000 0.000000
vt 1.000000 1.000000
vt 0.000000 1.000000
vt 0.000000 0.000000
vt 1.000000 0.000000
vt 1.000000 1.000000
vt 0.000000 1.000000
vt 0.000000 0.000000
vt 1.000000 0.000000
vt 1.000000 1.000000
vt 0.000000 1.000000
vt 0.000000 0.000000
vt 1.000000 0.000000
vt 1.000000 1.000000
vt 0.000000 1.000000
vt 0.000000 0.000000
vt 1.000000 0.000000
vt 1.000000 1.000000
vt 0.000000 1.000000
vt 0.000000 0.000000
vt 1.000000 0.000000
vt 1.000000 1.000000
vt 0.000000 1.000000
vt 0.000000 0.000000
vt 1.000000 0.000000
vt 1.000000 1.000000
vt 0.000000 1.000000
vt 0.000000 0.000000
vt 1.000000 0.000000
vt 1.000000 1.000000
vt 0.000000 1.000000
vt 0.000000 0.000000
vt 1.000000 0.000000
vt 1.000000 1.000000
vt 0.000000 1.000000
vt 0.000000 0.000000
vt 1.000000 0.000000
vt 1.000000 1.000000
vt 0.000000 1.000000
vt 0.000000 0.000000
vt 1.000000 0.000000
vt 1.000000 1.000000
vt 0.000000 1.000000
vt 0.000000 0.000000
vt 1.000000 0.000000
vt 1.000000 1.000000
vt 0.000000 1.000000
vt 0.000000 0.000000
vt 1.000000 0.000000
vt 1.000000 1.000000
vt 0.000000 1.000000
vt 0.000000 0.000000
vt 1.000000 0.000000
vt 1.000000 1.000000
vt 0.000000 1.000000
vt 0.000000 0.000000
vt 1.000000 0.000000
vt 1.000000 1.000000
vt 0.000000 1.000000
vt 0.000000 0.000000
vt 1.000000 0.000000
vt 1.000000 1.000000
vt 0.000000 1.000000
vt 0.000000 0.000000
vt 1.000000 0.000000
vt 1.000000 1.000000
vt 0.000000 1.000000
vt 0.000000 0.000000
vt 1.000000 0.000000
vt 1.000000 1.000000
vt 0.000000 1.000000
vt 0.000000 0.000000
vt 1.000000 0.000000
vt 1.000000 1.000000
vt 0.000000 1.000000
vt 0.000000 0.000000
vt 1.000000 0.000000
vt 1.000000 1.000000
vt 0.000000 1.000000
vt 0.000000 0.000000
vt 1.000000 0.000000
vt 1.000000 1.000000
vt 0.000000 1.000000
vt 0.000000 0.000000
vt 1.000000 0.000000
vt 1.000000 1.000000
vt 0.000000 1.000000
vt 0.000000 0.000000
vt 1.000000 0.000000
vt 1.000000 1.000000
vt 0.000000 1.000000
vt 0.000000 0.000000
vt 1.000000 0.000000
vt 1.000000 1.000000
vt 0.000000 1.000000
vt 0.000000 0.000000
vt 1.000000 0.000000
vt 1.000000 1.000000
vt 0.000000 1.000000
vt 0.000000 0.000000
vt 1.000000 0.000000
vt 1.000000 1.000000
vt 0.000000 1.000000
vt 0.000000 0.000000
vt 1.000000 0.000000
vt 1.000000 1.000000
vt 0.000000 1.000000
vt 0.000000 0.000000
vt 1.000000 0.000000
vt 1.000000 1.000000
vt 0.000000 1.000000
vt 0.000000 0.000000
vt 1.000000 0.000000
vt 1.000000 1.000000
vt 0.000000 1.000000
vt 0.000000 0.000000
vt 1.000000 0.000000
vt 1.000000 1.000000
vt 0.000000 1.000000
vt 0.000000 0.000000
vt 1.000000 0.000000
vt 1.000000 1.000000
vt 0.000000 1.000000
vt 0.000000 0.000000
vt 1.000000 0.000000
vt 1.000000 1.000000
vt 0.000000 1.000000
vt 0.000000 0.000000
vt 1.000000 0.000000
vt 1.000000 1.000000
vt 0.000000 1.000000
vt 0.000000 0.000000
vt 1.000000 0.000000
vt 1.000000 1.000000
vt 0.000000 1.000000
vt 0.000000 0.000000
vt 1.000000 0.000000
vt 1.000000 1.000000
vt 0.000000 1.000000
vt 0.000000 0.000000
vt 1.000000 0.000000
vt 1.000000 1.000000
vt 0.000000 1.000000
vt 0.000000 0.000000
vt 1.000000 0.000000
vt 1.000000 1.000000
vt 0.000000 1.000000
vt 0.000000 0.000000
vt 1.000000 0.000000
vt 1.000000 1.000000
vt 0.000000 1.000000
vt 0.000000 0.000000
vt 1.000000 0.000000
vt 1.000000 1.000000
vt 0.000000 1.000000
vt 0.000000 0.000000
vt 1.000000 0.000000
vt 1.000000 1.000000
vt 0.000000 1.000000
vt 0.000000 0.000000
vt 1.000000 0.000000
vt 1.000000 1.000000
vt 0.000000 1.000000
vt 0.000000 0.000000
vt 1.000000 0.000000
vt 1.000000 1.000000
vt 0.000000 1.000000
vt 0.000000 0.000000
vt 1.000000 0.000000
vt 1.000000 1.000000
vt 0.000000 1.000000
vt 0.000000 0.000000
vt 1.000000 0.000000
vt 1.000000 1.000000
vt 0.000000 1.000000
vt 0.000000 0.000000
vt 1.000000 0.000000
vt 1.000000 1.000000
vt 0.000000 1.000000
vt 0.000000 0.000000
vt 1.000000 0.000000
vt 1.000000 1.000000
vt 0.000000 1.000000
vt 0.000000 0.000000
vt 1.000000 0.000000
vt 1.000000 1.000000
vt 0.000000 1.000000
vt 0.000000 0.000000
vt 1.000000 0.000000
vt 1.000000 1.000000
vt 0.000000 1.000000
vt 0.000000 0.000000
vt 1.000000 0.000000
vt 1.000000 1.000000
vt 0.000000 1.000000
o Tarp_TORN
usemtl MAT_CANVAS
f 1/1 2/2 9/3 8/4
f 2/5 3/6 10/7 9/8
f 3/9 4/10 11/11 10/12
f 4/13 5/14 12/15 11/16
f 5/17 6/18 13/19 12/20
f 6/21 7/22 14/23 13/24
f 8/25 9/26 16/27 15/28
f 9/29 10/30 17/31 16/32
f 10/33 11/34 18/35 17/36
f 11/37 12/38 19/39 18/40
f 12/41 13/42 20/43 19/44
f 13/45 14/46 21/47 20/48
f 15/49 16/50 23/51 22/52
f 16/53 17/54 24/55 23/56
f 17/57 18/58 25/59 24/60
f 18/61 19/62 26/63 25/64
f 19/65 20/66 27/67 26/68
f 20/69 21/70 28/71 27/72
f 22/73 23/74 30/75 29/76
f 23/77 24/78 31/79 30/80
f 24/81 25/82 32/83 31/84
f 25/85 26/86 33/87 32/88
f 26/89 27/90 34/91 33/92
o ReinforcedTiePoint
usemtl MAT_METAL
f 36/93 41/94 42/95 37/96
f 37/97 42/98 43/99 38/100
f 38/101 43/102 44/103 39/104
f 39/105 44/106 45/107 40/108
f 40/109 45/110 41/111 36/112
f 41/113 46/114 47/115 42/116
f 42/117 47/118 48/119 43/120
f 43/121 48/122 49/123 44/124
f 44/125 49/126 50/127 45/128
f 45/129 50/130 46/131 41/132
f 46/133 51/134 52/135 47/136
f 47/137 52/138 53/139 48/140
f 48/141 53/142 54/143 49/144
f 49/145 54/146 55/147 50/148
f 50/149 55/150 51/151 46/152
f 51/153 56/154 57/155 52/156
f 52/157 57/158 58/159 53/160
f 53/161 58/162 59/163 54/164
f 54/165 59/166 60/167 55/168
f 55/169 60/170 56/171 51/172
f 56/173 61/174 62/175 57/176
f 57/177 62/178 63/179 58/180
f 58/181 63/182 64/183 59/184
f 59/185 64/186 65/187 60/188
f 60/189 65/190 61/191 56/192
f 61/193 66/194 67/195 62/196
f 62/197 67/198 68/199 63/200
f 63/201 68/202 69/203 64/204
f 64/205 69/206 70/207 65/208
f 65/209 70/210 66/211 61/212
f 66/213 71/214 72/215 67/216
f 67/217 72/218 73/219 68/220
f 68/221 73/222 74/223 69/224
f 69/225 74/226 75/227 70/228
f 70/229 75/230 71/231 66/232
f 71/233 76/234 77/235 72/236
f 72/237 77/238 78/239 73/240
f 73/241 78/242 79/243 74/244
f 74/245 79/246 80/247 75/248
f 75/249 80/250 76/251 71/252
f 76/253 81/254 82/255 77/256
f 77/257 82/258 83/259 78/260
f 78/261 83/262 84/263 79/264
f 79/265 84/266 85/267 80/268
f 80/269 85/270 81/271 76/272
f 81/273 36/274 37/275 82/276
f 82/277 37/278 38/279 83/280
f 83/281 38/282 39/283 84/284
f 84/285 39/286 40/287 85/288
f 85/289 40/290 36/291 81/292
f 86/293 91/294 92/295 87/296
f 87/297 92/298 93/299 88/300
f 88/301 93/302 94/303 89/304
f 89/305 94/306 95/307 90/308
f 90/309 95/310 91/311 86/312
f 91/313 96/314 97/315 92/316
f 92/317 97/318 98/319 93/320
f 93/321 98/322 99/323 94/324
f 94/325 99/326 100/327 95/328
f 95/329 100/330 96/331 91/332
f 96/333 101/334 102/335 97/336
f 97/337 102/338 103/339 98/340
f 98/341 103/342 104/343 99/344
f 99/345 104/346 105/347 100/348
f 100/349 105/350 101/351 96/352
f 101/353 106/354 107/355 102/356
f 102/357 107/358 108/359 103/360
f 103/361 108/362 109/363 104/364
f 104/365 109/366 110/367 105/368
f 105/369 110/370 106/371 101/372
f 106/373 111/374 112/375 107/376
f 107/377 112/378 113/379 108/380
f 108/381 113/382 114/383 109/384
f 109/385 114/386 115/387 110/388
f 110/389 115/390 111/391 106/392
f 111/393 116/394 117/395 112/396
f 112/397 117/398 118/399 113/400
f 113/401 118/402 119/403 114/404
f 114/405 119/406 120/407 115/408
f 115/409 120/410 116/411 111/412
f 116/413 121/414 122/415 117/416
f 117/417 122/418 123/419 118/420
f 118/421 123/422 124/423 119/424
f 119/425 124/426 125/427 120/428
f 120/429 125/430 121/431 116/432
f 121/433 126/434 127/435 122/436
f 122/437 127/438 128/439 123/440
f 123/441 128/442 129/443 124/444
f 124/445 129/446 130/447 125/448
f 125/449 130/450 126/451 121/452
f 126/453 131/454 132/455 127/456
f 127/457 132/458 133/459 128/460
f 128/461 133/462 134/463 129/464
f 129/465 134/466 135/467 130/468
f 130/469 135/470 131/471 126/472
f 131/473 86/474 87/475 132/476
f 132/477 87/478 88/479 133/480
f 133/481 88/482 89/483 134/484
f 134/485 89/486 90/487 135/488
f 135/489 90/490 86/491 131/492
f 136/493 141/494 142/495 137/496
f 137/497 142/498 143/499 138/500
f 138/501 143/502 144/503 139/504
f 139/505 144/506 145/507 140/508
f 140/509 145/510 141/511 136/512
f 141/513 146/514 147/515 142/516
f 142/517 147/518 148/519 143/520
f 143/521 148/522 149/523 144/524
f 144/525 149/526 150/527 145/528
f 145/529 150/530 146/531 141/532
f 146/533 151/534 152/535 147/536
f 147/537 152/538 153/539 148/540
f 148/541 153/542 154/543 149/544
f 149/545 154/546 155/547 150/548
f 150/549 155/550 151/551 146/552
f 151/553 156/554 157/555 152/556
f 152/557 157/558 158/559 153/560
f 153/561 158/562 159/563 154/564
f 154/565 159/566 160/567 155/568
f 155/569 160/570 156/571 151/572
f 156/573 161/574 162/575 157/576
f 157/577 162/578 163/579 158/580
f 158/581 163/582 164/583 159/584
f 159/585 164/586 165/587 160/588
f 160/589 165/590 161/591 156/592
f 161/593 166/594 167/595 162/596
f 162/597 167/598 168/599 163/600
f 163/601 168/602 169/603 164/604
f 164/605 169/606 170/607 165/608
f 165/609 170/610 166/611 161/612
f 166/613 171/614 172/615 167/616
f 167/617 172/618 173/619 168/620
f 168/621 173/622 174/623 169/624
f 169/625 174/626 175/627 170/628
f 170/629 175/630 171/631 166/632
f 171/633 176/634 177/635 172/636
f 172/637 177/638 178/639 173/640
f 173/641 178/642 179/643 174/644
f 174/645 179/646 180/647 175/648
f 175/649 180/650 176/651 171/652
f 176/653 181/654 182/655 177/656
f 177/657 182/658 183/659 178/660
f 178/661 183/662 184/663 179/664
f 179/665 184/666 185/667 180/668
f 180/669 185/670 181/671 176/672
f 181/673 136/674 137/675 182/676
f 182/677 137/678 138/679 183/680
f 183/681 138/682 139/683 184/684
f 184/685 139/686 140/687 185/688
f 185/689 140/690 136/691 181/692
f 186/693 191/694 192/695 187/696
f 187/697 192/698 193/699 188/700
f 188/701 193/702 194/703 189/704
f 189/705 194/706 195/707 190/708
f 190/709 195/710 191/711 186/712
f 191/713 196/714 197/715 192/716
f 192/717 197/718 198/719 193/720
f 193/721 198/722 199/723 194/724
f 194/725 199/726 200/727 195/728
f 195/729 200/730 196/731 191/732
f 196/733 201/734 202/735 197/736
f 197/737 202/738 203/739 198/740
f 198/741 203/742 204/743 199/744
f 199/745 204/746 205/747 200/748
f 200/749 205/750 201/751 196/752
f 201/753 206/754 207/755 202/756
f 202/757 207/758 208/759 203/760
f 203/761 208/762 209/763 204/764
f 204/765 209/766 210/767 205/768
f 205/769 210/770 206/771 201/772
f 206/773 211/774 212/775 207/776
f 207/777 212/778 213/779 208/780
f 208/781 213/782 214/783 209/784
f 209/785 214/786 215/787 210/788
f 210/789 215/790 211/791 206/792
f 211/793 216/794 217/795 212/796
f 212/797 217/798 218/799 213/800
f 213/801 218/802 219/803 214/804
f 214/805 219/806 220/807 215/808
f 215/809 220/810 216/811 211/812
f 216/813 221/814 222/815 217/816
f 217/817 222/818 223/819 218/820
f 218/821 223/822 224/823 219/824
f 219/825 224/826 225/827 220/828
f 220/829 225/830 221/831 216/832
f 221/833 226/834 227/835 222/836
f 222/837 227/838 228/839 223/840
f 223/841 228/842 229/843 224/844
f 224/845 229/846 230/847 225/848
f 225/849 230/850 226/851 221/852
f 226/853 231/854 232/855 227/856
f 227/857 232/858 233/859 228/860
f 228/861 233/862 234/863 229/864
f 229/865 234/866 235/867 230/868
f 230/869 235/870 231/871 226/872
f 231/873 186/874 187/875 232/876
f 232/877 187/878 188/879 233/880
f 233/881 188/882 189/883 234/884
f 234/885 189/886 190/887 235/888
f 235/889 190/890 186/891 231/892
