# PROJECT OEN production source mesh: PRP_SHELTER_FRAME_001
mtllib PRP_SHELTER_FRAME_001.mtl
s off
v -0.993698 -0.032482 -0.885000
v -0.993698 -0.032482 -1.015000
v -1.106302 0.032482 -0.885000
v -1.106302 0.032482 -1.015000
v 0.056302 1.787518 -0.885000
v 0.056302 1.787518 -1.015000
v -0.056302 1.852482 -0.885000
v -0.056302 1.852482 -1.015000
v 0.993698 -0.032482 -1.015000
v 0.993698 -0.032482 -0.885000
v 1.106302 0.032482 -1.015000
v 1.106302 0.032482 -0.885000
v -0.056302 1.787518 -1.015000
v -0.056302 1.787518 -0.885000
v 0.056302 1.852482 -1.015000
v 0.056302 1.852482 -0.885000
v -0.993698 -0.032482 1.015000
v -0.993698 -0.032482 0.885000
v -1.106302 0.032482 1.015000
v -1.106302 0.032482 0.885000
v 0.056302 1.787518 1.015000
v 0.056302 1.787518 0.885000
v -0.056302 1.852482 1.015000
v -0.056302 1.852482 0.885000
v 0.993698 -0.032482 0.885000
v 0.993698 -0.032482 1.015000
v 1.106302 0.032482 0.885000
v 1.106302 0.032482 1.015000
v -0.056302 1.787518 0.885000
v -0.056302 1.787518 1.015000
v 0.056302 1.852482 0.885000
v 0.056302 1.852482 1.015000
v -0.065000 1.755000 -1.050000
v 0.065000 1.755000 -1.050000
v -0.065000 1.885000 -1.050000
v 0.065000 1.885000 -1.050000
v -0.065000 1.755000 1.050000
v 0.065000 1.755000 1.050000
v -0.065000 1.885000 1.050000
v 0.065000 1.885000 1.050000
v -0.775000 0.525000 -0.950000
v -0.665000 0.525000 -0.950000
v -0.775000 0.635000 -0.950000
v -0.665000 0.635000 -0.950000
v -0.775000 0.525000 0.950000
v -0.665000 0.525000 0.950000
v -0.775000 0.635000 0.950000
v -0.665000 0.635000 0.950000
v 0.665000 0.525000 -0.950000
v 0.775000 0.525000 -0.950000
v 0.665000 0.635000 -0.950000
v 0.775000 0.635000 -0.950000
v 0.665000 0.525000 0.950000
v 0.775000 0.525000 0.950000
v 0.665000 0.635000 0.950000
v 0.775000 0.635000 0.950000
v -0.676052 0.381901 -0.915000
v -0.676052 0.381901 -1.005000
v -0.723948 0.458099 -0.915000
v -0.723948 0.458099 -1.005000
v 0.723948 1.261901 -0.915000
v 0.723948 1.261901 -1.005000
v 0.676052 1.338099 -0.915000
v 0.676052 1.338099 -1.005000
v 0.676052 0.381901 -1.015000
v 0.676052 0.381901 -0.925000
v 0.723948 0.458099 -1.015000
v 0.723948 0.458099 -0.925000
v -0.723948 1.261901 -1.015000
v -0.723948 1.261901 -0.925000
v -0.676052 1.338099 -1.015000
v -0.676052 1.338099 -0.925000
v -0.625000 0.580000 -0.950000
v -0.638820 0.599021 -0.950000
v -0.661180 0.591756 -0.950000
v -0.661180 0.568244 -0.950000
v -0.638820 0.560979 -0.950000
v -0.643143 0.580000 -0.894160
v -0.654324 0.599021 -0.902283
v -0.672414 0.591756 -0.915427
v -0.672414 0.568244 -0.915427
v -0.654324 0.560979 -0.902283
v -0.690643 0.580000 -0.859650
v -0.694914 0.599021 -0.872793
v -0.701824 0.591756 -0.894059
v -0.701824 0.568244 -0.894059
v -0.694914 0.560979 -0.872793
v -0.749357 0.580000 -0.859650
v -0.745086 0.599021 -0.872793
v -0.738176 0.591756 -0.894059
v -0.738176 0.568244 -0.894059
v -0.745086 0.560979 -0.872793
v -0.796857 0.580000 -0.894160
v -0.785676 0.599021 -0.902283
v -0.767586 0.591756 -0.915427
v -0.767586 0.568244 -0.915427
v -0.785676 0.560979 -0.902283
v -0.815000 0.580000 -0.950000
v -0.801180 0.599021 -0.950000
v -0.778820 0.591756 -0.950000
v -0.778820 0.568244 -0.950000
v -0.801180 0.560979 -0.950000
v -0.796857 0.580000 -1.005840
v -0.785676 0.599021 -0.997717
v -0.767586 0.591756 -0.984573
v -0.767586 0.568244 -0.984573
v -0.785676 0.560979 -0.997717
v -0.749357 0.580000 -1.040350
v -0.745086 0.599021 -1.027207
v -0.738176 0.591756 -1.005941
v -0.738176 0.568244 -1.005941
v -0.745086 0.560979 -1.027207
v -0.690643 0.580000 -1.040350
v -0.694914 0.599021 -1.027207
v -0.701824 0.591756 -1.005941
v -0.701824 0.568244 -1.005941
v -0.694914 0.560979 -1.027207
v -0.643143 0.580000 -1.005840
v -0.654324 0.599021 -0.997717
v -0.672414 0.591756 -0.984573
v -0.672414 0.568244 -0.984573
v -0.654324 0.560979 -0.997717
v 0.815000 0.580000 -0.950000
v 0.801180 0.599021 -0.950000
v 0.778820 0.591756 -0.950000
v 0.778820 0.568244 -0.950000
v 0.801180 0.560979 -0.950000
v 0.796857 0.580000 -0.894160
v 0.785676 0.599021 -0.902283
v 0.767586 0.591756 -0.915427
v 0.767586 0.568244 -0.915427
v 0.785676 0.560979 -0.902283
v 0.749357 0.580000 -0.859650
v 0.745086 0.599021 -0.872793
v 0.738176 0.591756 -0.894059
v 0.738176 0.568244 -0.894059
v 0.745086 0.560979 -0.872793
v 0.690643 0.580000 -0.859650
v 0.694914 0.599021 -0.872793
v 0.701824 0.591756 -0.894059
v 0.701824 0.568244 -0.894059
v 0.694914 0.560979 -0.872793
v 0.643143 0.580000 -0.894160
v 0.654324 0.599021 -0.902283
v 0.672414 0.591756 -0.915427
v 0.672414 0.568244 -0.915427
v 0.654324 0.560979 -0.902283
v 0.625000 0.580000 -0.950000
v 0.638820 0.599021 -0.950000
v 0.661180 0.591756 -0.950000
v 0.661180 0.568244 -0.950000
v 0.638820 0.560979 -0.950000
v 0.643143 0.580000 -1.005840
v 0.654324 0.599021 -0.997717
v 0.672414 0.591756 -0.984573
v 0.672414 0.568244 -0.984573
v 0.654324 0.560979 -0.997717
v 0.690643 0.580000 -1.040350
v 0.694914 0.599021 -1.027207
v 0.701824 0.591756 -1.005941
v 0.701824 0.568244 -1.005941
v 0.694914 0.560979 -1.027207
v 0.749357 0.580000 -1.040350
v 0.745086 0.599021 -1.027207
v 0.738176 0.591756 -1.005941
v 0.738176 0.568244 -1.005941
v 0.745086 0.560979 -1.027207
v 0.796857 0.580000 -1.005840
v 0.785676 0.599021 -0.997717
v 0.767586 0.591756 -0.984573
v 0.767586 0.568244 -0.984573
v 0.785676 0.560979 -0.997717
v -0.625000 0.580000 0.950000
v -0.638820 0.599021 0.950000
v -0.661180 0.591756 0.950000
v -0.661180 0.568244 0.950000
v -0.638820 0.560979 0.950000
v -0.643143 0.580000 1.005840
v -0.654324 0.599021 0.997717
v -0.672414 0.591756 0.984573
v -0.672414 0.568244 0.984573
v -0.654324 0.560979 0.997717
v -0.690643 0.580000 1.040350
v -0.694914 0.599021 1.027207
v -0.701824 0.591756 1.005941
v -0.701824 0.568244 1.005941
v -0.694914 0.560979 1.027207
v -0.749357 0.580000 1.040350
v -0.745086 0.599021 1.027207
v -0.738176 0.591756 1.005941
v -0.738176 0.568244 1.005941
v -0.745086 0.560979 1.027207
v -0.796857 0.580000 1.005840
v -0.785676 0.599021 0.997717
v -0.767586 0.591756 0.984573
v -0.767586 0.568244 0.984573
v -0.785676 0.560979 0.997717
v -0.815000 0.580000 0.950000
v -0.801180 0.599021 0.950000
v -0.778820 0.591756 0.950000
v -0.778820 0.568244 0.950000
v -0.801180 0.560979 0.950000
v -0.796857 0.580000 0.894160
v -0.785676 0.599021 0.902283
v -0.767586 0.591756 0.915427
v -0.767586 0.568244 0.915427
v -0.785676 0.560979 0.902283
v -0.749357 0.580000 0.859650
v -0.745086 0.599021 0.872793
v -0.738176 0.591756 0.894059
v -0.738176 0.568244 0.894059
v -0.745086 0.560979 0.872793
v -0.690643 0.580000 0.859650
v -0.694914 0.599021 0.872793
v -0.701824 0.591756 0.894059
v -0.701824 0.568244 0.894059
v -0.694914 0.560979 0.872793
v -0.643143 0.580000 0.894160
v -0.654324 0.599021 0.902283
v -0.672414 0.591756 0.915427
v -0.672414 0.568244 0.915427
v -0.654324 0.560979 0.902283
v 0.815000 0.580000 0.950000
v 0.801180 0.599021 0.950000
v 0.778820 0.591756 0.950000
v 0.778820 0.568244 0.950000
v 0.801180 0.560979 0.950000
v 0.796857 0.580000 1.005840
v 0.785676 0.599021 0.997717
v 0.767586 0.591756 0.984573
v 0.767586 0.568244 0.984573
v 0.785676 0.560979 0.997717
v 0.749357 0.580000 1.040350
v 0.745086 0.599021 1.027207
v 0.738176 0.591756 1.005941
v 0.738176 0.568244 1.005941
v 0.745086 0.560979 1.027207
v 0.690643 0.580000 1.040350
v 0.694914 0.599021 1.027207
v 0.701824 0.591756 1.005941
v 0.701824 0.568244 1.005941
v 0.694914 0.560979 1.027207
v 0.643143 0.580000 1.005840
v 0.654324 0.599021 0.997717
v 0.672414 0.591756 0.984573
v 0.672414 0.568244 0.984573
v 0.654324 0.560979 0.997717
v 0.625000 0.580000 0.950000
v 0.638820 0.599021 0.950000
v 0.661180 0.591756 0.950000
v 0.661180 0.568244 0.950000
v 0.638820 0.560979 0.950000
v 0.643143 0.580000 0.894160
v 0.654324 0.599021 0.902283
v 0.672414 0.591756 0.915427
v 0.672414 0.568244 0.915427
v 0.654324 0.560979 0.902283
v 0.690643 0.580000 0.859650
v 0.694914 0.599021 0.872793
v 0.701824 0.591756 0.894059
v 0.701824 0.568244 0.894059
v 0.694914 0.560979 0.872793
v 0.749357 0.580000 0.859650
v 0.745086 0.599021 0.872793
v 0.738176 0.591756 0.894059
v 0.738176 0.568244 0.894059
v 0.745086 0.560979 0.872793
v 0.796857 0.580000 0.894160
v 0.785676 0.599021 0.902283
v 0.767586 0.591756 0.915427
v 0.767586 0.568244 0.915427
v 0.785676 0.560979 0.902283
vt 0.000000 0.000000
vt 1.000000 0.000000
vt 1.000000 1.000000
vt 0.000000 1.000000
vt 0.000000 0.000000
vt 1.000000 0.000000
vt 1.000000 1.000000
vt 0.000000 1.000000
vt 0.000000 0.000000
vt 1.000000 0.000000
vt 1.000000 1.000000
vt 0.000000 1.000000
vt 0.000000 0.000000
vt 1.000000 0.000000
vt 1.000000 1.000000
vt 0.000000 1.000000
vt 0.000000 0.000000
vt 1.000000 0.000000
vt 1.000000 1.000000
vt 0.000000 1.000000
vt 0.000000 0.000000
vt 1.000000 0.000000
vt 1.000000 1.000000
vt 0.000000 1.000000
vt 0.000000 0.000000
vt 1.000000 0.000000
vt 1.000000 1.000000
vt 0.000000 1.000000
vt 0.000000 0.000000
vt 1.000000 0.000000
vt 1.000000 1.000000
vt 0.000000 1.000000
vt 0.000000 0.000000
vt 1.000000 0.000000
vt 1.000000 1.000000
vt 0.000000 1.000000
vt 0.000000 0.000000
vt 1.000000 0.000000
vt 1.000000 1.000000
vt 0.000000 1.000000
vt 0.000000 0.000000
vt 1.000000 0.000000
vt 1.000000 1.000000
vt 0.000000 1.000000
vt 0.000000 0.000000
vt 1.000000 0.000000
vt 1.000000 1.000000
vt 0.000000 1.000000
vt 0.000000 0.000000
vt 1.000000 0.000000
vt 1.000000 1.000000
vt 0.000000 1.000000
vt 0.000000 0.000000
vt 1.000000 0.000000
vt 1.000000 1.000000
vt 0.000000 1.000000
vt 0.000000 0.000000
vt 1.000000 0.000000
vt 1.000000 1.000000
vt 0.000000 1.000000
vt 0.000000 0.000000
vt 1.000000 0.000000
vt 1.000000 1.000000
vt 0.000000 1.000000
vt 0.000000 0.000000
vt 1.000000 0.000000
vt 1.000000 1.000000
vt 0.000000 1.000000
vt 0.000000 0.000000
vt 1.000000 0.000000
vt 1.000000 1.000000
vt 0.000000 1.000000
vt 0.000000 0.000000
vt 1.000000 0.000000
vt 1.000000 1.000000
vt 0.000000 1.000000
vt 0.000000 0.000000
vt 1.000000 0.000000
vt 1.000000 1.000000
vt 0.000000 1.000000
vt 0.000000 0.000000
vt 1.000000 0.000000
vt 1.000000 1.000000
vt 0.000000 1.000000
vt 0.000000 0.000000
vt 1.000000 0.000000
vt 1.000000 1.000000
vt 0.000000 1.000000
vt 0.000000 0.000000
vt 1.000000 0.000000
vt 1.000000 1.000000
vt 0.000000 1.000000
vt 0.000000 0.000000
vt 1.000000 0.000000
vt 1.000000 1.000000
vt 0.000000 1.000000
vt 0.000000 0.000000
vt 1.000000 0.000000
vt 1.000000 1.000000
vt 0.000000 1.000000
vt 0.000000 0.000000
vt 1.000000 0.000000
vt 1.000000 1.000000
vt 0.000000 1.000000
vt 0.000000 0.000000
vt 1.000000 0.000000
vt 1.000000 1.000000
vt 0.000000 1.000000
vt 0.000000 0.000000
vt 1.000000 0.000000
vt 1.000000 1.000000
vt 0.000000 1.000000
vt 0.000000 0.000000
vt 1.000000 0.000000
vt 1.000000 1.000000
vt 0.000000 1.000000
vt 0.000000 0.000000
vt 1.000000 0.000000
vt 1.000000 1.000000
vt 0.000000 1.000000
vt 0.000000 0.000000
vt 1.000000 0.000000
vt 1.000000 1.000000
vt 0.000000 1.000000
vt 0.000000 0.000000
vt 1.000000 0.000000
vt 1.000000 1.000000
vt 0.000000 1.000000
vt 0.000000 0.000000
vt 1.000000 0.000000
vt 1.000000 1.000000
vt 0.000000 1.000000
vt 0.000000 0.000000
vt 1.000000 0.000000
vt 1.000000 1.000000
vt 0.000000 1.000000
vt 0.000000 0.000000
vt 1.000000 0.000000
vt 1.000000 1.000000
vt 0.000000 1.000000
vt 0.000000 0.000000
vt 1.000000 0.000000
vt 1.000000 1.000000
vt 0.000000 1.000000
vt 0.000000 0.000000
vt 1.000000 0.000000
vt 1.000000 1.000000
vt 0.000000 1.000000
vt 0.000000 0.000000
vt 1.000000 0.000000
vt 1.000000 1.000000
vt 0.000000 1.000000
vt 0.000000 0.000000
vt 1.000000 0.000000
vt 1.000000 1.000000
vt 0.000000 1.000000
vt 0.000000 0.000000
vt 1.000000 0.000000
vt 1.000000 1.000000
vt 0.000000 1.000000
vt 0.000000 0.000000
vt 1.000000 0.000000
vt 1.000000 1.000000
vt 0.000000 1.000000
vt 0.000000 0.000000
vt 1.000000 0.000000
vt 1.000000 1.000000
vt 0.000000 1.000000
vt 0.000000 0.000000
vt 1.000000 0.000000
vt 1.000000 1.000000
vt 0.000000 1.000000
vt 0.000000 0.000000
vt 1.000000 0.000000
vt 1.000000 1.000000
vt 0.000000 1.000000
vt 0.000000 0.000000
vt 1.000000 0.000000
vt 1.000000 1.000000
vt 0.000000 1.000000
vt 0.000000 0.000000
vt 1.000000 0.000000
vt 1.000000 1.000000
vt 0.000000 1.000000
vt 0.000000 0.000000
vt 1.000000 0.000000
vt 1.000000 1.000000
vt 0.000000 1.000000
vt 0.000000 0.000000
vt 1.000000 0.000000
vt 1.000000 1.000000
vt 0.000000 1.000000
vt 0.000000 0.000000
vt 1.000000 0.000000
vt 1.000000 1.000000
vt 0.000000 1.000000
vt 0.000000 0.000000
vt 1.000000 0.000000
vt 1.000000 1.000000
vt 0.000000 1.000000
vt 0.000000 0.000000
vt 1.000000 0.000000
vt 1.000000 1.000000
vt 0.000000 1.000000
vt 0.000000 0.000000
vt 1.000000 0.000000
vt 1.000000 1.000000
vt 0.000000 1.000000
vt 0.000000 0.000000
vt 1.000000 0.000000
vt 1.000000 1.000000
vt 0.000000 1.000000
vt 0.000000 0.000000
vt 1.000000 0.000000
vt 1.000000 1.000000
vt 0.000000 1.000000
vt 0.000000 0.000000
vt 1.000000 0.000000
vt 1.000000 1.000000
vt 0.000000 1.000000
vt 0.000000 0.000000
vt 1.000000 0.000000
vt 1.000000 1.000000
vt 0.000000 1.000000
vt 0.000000 0.000000
vt 1.000000 0.000000
vt 1.000000 1.000000
vt 0.000000 1.000000
vt 0.000000 0.000000
vt 1.000000 0.000000
vt 1.000000 1.000000
vt 0.000000 1.000000
vt 0.000000 0.000000
vt 1.000000 0.000000
vt 1.000000 1.000000
vt 0.000000 1.000000
vt 0.000000 0.000000
vt 1.000000 0.000000
vt 1.000000 1.000000
vt 0.000000 1.000000
vt 0.000000 0.000000
vt 1.000000 0.000000
vt 1.000000 1.000000
vt 0.000000 1.000000
vt 0.000000 0.000000
vt 1.000000 0.000000
vt 1.000000 1.000000
vt 0.000000 1.000000
vt 0.000000 0.000000
vt 1.000000 0.000000
vt 1.000000 1.000000
vt 0.000000 1.000000
vt 0.000000 0.000000
vt 1.000000 0.000000
vt 1.000000 1.000000
vt 0.000000 1.000000
vt 0.000000 0.000000
vt 1.000000 0.000000
vt 1.000000 1.000000
vt 0.000000 1.000000
vt 0.000000 0.000000
vt 1.000000 0.000000
vt 1.000000 1.000000
vt 0.000000 1.000000
vt 0.000000 0.000000
vt 1.000000 0.000000
vt 1.000000 1.000000
vt 0.000000 1.000000
vt 0.000000 0.000000
vt 1.000000 0.000000
vt 1.000000 1.000000
vt 0.000000 1.000000
vt 0.000000 0.000000
vt 1.000000 0.000000
vt 1.000000 1.000000
vt 0.000000 1.000000
vt 0.000000 0.000000
vt 1.000000 0.000000
vt 1.000000 1.000000
vt 0.000000 1.000000
vt 0.000000 0.000000
vt 1.000000 0.000000
vt 1.000000 1.000000
vt 0.000000 1.000000
vt 0.000000 0.000000
vt 1.000000 0.000000
vt 1.000000 1.000000
vt 0.000000 1.000000
vt 0.000000 0.000000
vt 1.000000 0.000000
vt 1.000000 1.000000
vt 0.000000 1.000000
vt 0.000000 0.000000
vt 1.000000 0.000000
vt 1.000000 1.000000
vt 0.000000 1.000000
vt 0.000000 0.000000
vt 1.000000 0.000000
vt 1.000000 1.000000
vt 0.000000 1.000000
vt 0.000000 0.000000
vt 1.000000 0.000000
vt 1.000000 1.000000
vt 0.000000 1.000000
vt 0.000000 0.000000
vt 1.000000 0.000000
vt 1.000000 1.000000
vt 0.000000 1.000000
vt 0.000000 0.000000
vt 1.000000 0.000000
vt 1.000000 1.000000
vt 0.000000 1.000000
vt 0.000000 0.000000
vt 1.000000 0.000000
vt 1.000000 1.000000
vt 0.000000 1.000000
vt 0.000000 0.000000
vt 1.000000 0.000000
vt 1.000000 1.000000
vt 0.000000 1.000000
vt 0.000000 0.000000
vt 1.000000 0.000000
vt 1.000000 1.000000
vt 0.000000 1.000000
vt 0.000000 0.000000
vt 1.000000 0.000000
vt 1.000000 1.000000
vt 0.000000 1.000000
vt 0.000000 0.000000
vt 1.000000 0.000000
vt 1.000000 1.000000
vt 0.000000 1.000000
vt 0.000000 0.000000
vt 1.000000 0.000000
vt 1.000000 1.000000
vt 0.000000 1.000000
vt 0.000000 0.000000
vt 1.000000 0.000000
vt 1.000000 1.000000
vt 0.000000 1.000000
vt 0.000000 0.000000
vt 1.000000 0.000000
vt 1.000000 1.000000
vt 0.000000 1.000000
vt 0.000000 0.000000
vt 1.000000 0.000000
vt 1.000000 1.000000
vt 0.000000 1.000000
vt 0.000000 0.000000
vt 1.000000 0.000000
vt 1.000000 1.000000
vt 0.000000 1.000000
vt 0.000000 0.000000
vt 1.000000 0.000000
vt 1.000000 1.000000
vt 0.000000 1.000000
vt 0.000000 0.000000
vt 1.000000 0.000000
vt 1.000000 1.000000
vt 0.000000 1.000000
vt 0.000000 0.000000
vt 1.000000 0.000000
vt 1.000000 1.000000
vt 0.000000 1.000000
vt 0.000000 0.000000
vt 1.000000 0.000000
vt 1.000000 1.000000
vt 0.000000 1.000000
vt 0.000000 0.000000
vt 1.000000 0.000000
vt 1.000000 1.000000
vt 0.000000 1.000000
vt 0.000000 0.000000
vt 1.000000 0.000000
vt 1.000000 1.000000
vt 0.000000 1.000000
vt 0.000000 0.000000
vt 1.000000 0.000000
vt 1.000000 1.000000
vt 0.000000 1.000000
vt 0.000000 0.000000
vt 1.000000 0.000000
vt 1.000000 1.000000
vt 0.000000 1.000000
vt 0.000000 0.000000
vt 1.000000 0.000000
vt 1.000000 1.000000
vt 0.000000 1.000000
vt 0.000000 0.000000
vt 1.000000 0.000000
vt 1.000000 1.000000
vt 0.000000 1.000000
vt 0.000000 0.000000
vt 1.000000 0.000000
vt 1.000000 1.000000
vt 0.000000 1.000000
vt 0.000000 0.000000
vt 1.000000 0.000000
vt 1.000000 1.000000
vt 0.000000 1.000000
vt 0.000000 0.000000
vt 1.000000 0.000000
vt 1.000000 1.000000
vt 0.000000 1.000000
vt 0.000000 0.000000
vt 1.000000 0.000000
vt 1.000000 1.000000
vt 0.000000 1.000000
vt 0.000000 0.000000
vt 1.000000 0.000000
vt 1.000000 1.000000
vt 0.000000 1.000000
vt 0.000000 0.000000
vt 1.000000 0.000000
vt 1.000000 1.000000
vt 0.000000 1.000000
vt 0.000000 0.000000
vt 1.000000 0.000000
vt 1.000000 1.000000
vt 0.000000 1.000000
vt 0.000000 0.000000
vt 1.000000 0.000000
vt 1.000000 1.000000
vt 0.000000 1.000000
vt 0.000000 0.000000
vt 1.000000 0.000000
vt 1.000000 1.000000
vt 0.000000 1.000000
vt 0.000000 0.000000
vt 1.000000 0.000000
vt 1.000000 1.000000
vt 0.000000 1.000000
vt 0.000000 0.000000
vt 1.000000 0.000000
vt 1.000000 1.000000
vt 0.000000 1.000000
vt 0.000000 0.000000
vt 1.000000 0.000000
vt 1.000000 1.000000
vt 0.000000 1.000000
vt 0.000000 0.000000
vt 1.000000 0.000000
vt 1.000000 1.000000
vt 0.000000 1.000000
vt 0.000000 0.000000
vt 1.000000 0.000000
vt 1.000000 1.000000
vt 0.000000 1.000000
vt 0.000000 0.000000
vt 1.000000 0.000000
vt 1.000000 1.000000
vt 0.000000 1.000000
vt 0.000000 0.000000
vt 1.000000 0.000000
vt 1.000000 1.000000
vt 0.000000 1.000000
vt 0.000000 0.000000
vt 1.000000 0.000000
vt 1.000000 1.000000
vt 0.000000 1.000000
vt 0.000000 0.000000
vt 1.000000 0.000000
vt 1.000000 1.000000
vt 0.000000 1.000000
vt 0.000000 0.000000
vt 1.000000 0.000000
vt 1.000000 1.000000
vt 0.000000 1.000000
vt 0.000000 0.000000
vt 1.000000 0.000000
vt 1.000000 1.000000
vt 0.000000 1.000000
vt 0.000000 0.000000
vt 1.000000 0.000000
vt 1.000000 1.000000
vt 0.000000 1.000000
vt 0.000000 0.000000
vt 1.000000 0.000000
vt 1.000000 1.000000
vt 0.000000 1.000000
vt 0.000000 0.000000
vt 1.000000 0.000000
vt 1.000000 1.000000
vt 0.000000 1.000000
vt 0.000000 0.000000
vt 1.000000 0.000000
vt 1.000000 1.000000
vt 0.000000 1.000000
vt 0.000000 0.000000
vt 1.000000 0.000000
vt 1.000000 1.000000
vt 0.000000 1.000000
vt 0.000000 0.000000
vt 1.000000 0.000000
vt 1.000000 1.000000
vt 0.000000 1.000000
vt 0.000000 0.000000
vt 1.000000 0.000000
vt 1.000000 1.000000
vt 0.000000 1.000000
vt 0.000000 0.000000
vt 1.000000 0.000000
vt 1.000000 1.000000
vt 0.000000 1.000000
vt 0.000000 0.000000
vt 1.000000 0.000000
vt 1.000000 1.000000
vt 0.000000 1.000000
vt 0.000000 0.000000
vt 1.000000 0.000000
vt 1.000000 1.000000
vt 0.000000 1.000000
vt 0.000000 0.000000
vt 1.000000 0.000000
vt 1.000000 1.000000
vt 0.000000 1.000000
vt 0.000000 0.000000
vt 1.000000 0.000000
vt 1.000000 1.000000
vt 0.000000 1.000000
vt 0.000000 0.000000
vt 1.000000 0.000000
vt 1.000000 1.000000
vt 0.000000 1.000000
vt 0.000000 0.000000
vt 1.000000 0.000000
vt 1.000000 1.000000
vt 0.000000 1.000000
vt 0.000000 0.000000
vt 1.000000 0.000000
vt 1.000000 1.000000
vt 0.000000 1.000000
vt 0.000000 0.000000
vt 1.000000 0.000000
vt 1.000000 1.000000
vt 0.000000 1.000000
vt 0.000000 0.000000
vt 1.000000 0.000000
vt 1.000000 1.000000
vt 0.000000 1.000000
vt 0.000000 0.000000
vt 1.000000 0.000000
vt 1.000000 1.000000
vt 0.000000 1.000000
vt 0.000000 0.000000
vt 1.000000 0.000000
vt 1.000000 1.000000
vt 0.000000 1.000000
vt 0.000000 0.000000
vt 1.000000 0.000000
vt 1.000000 1.000000
vt 0.000000 1.000000
vt 0.000000 0.000000
vt 1.000000 0.000000
vt 1.000000 1.000000
vt 0.000000 1.000000
vt 0.000000 0.000000
vt 1.000000 0.000000
vt 1.000000 1.000000
vt 0.000000 1.000000
vt 0.000000 0.000000
vt 1.000000 0.000000
vt 1.000000 1.000000
vt 0.000000 1.000000
vt 0.000000 0.000000
vt 1.000000 0.000000
vt 1.000000 1.000000
vt 0.000000 1.000000
vt 0.000000 0.000000
vt 1.000000 0.000000
vt 1.000000 1.000000
vt 0.000000 1.000000
vt 0.000000 0.000000
vt 1.000000 0.000000
vt 1.000000 1.000000
vt 0.000000 1.000000
vt 0.000000 0.000000
vt 1.000000 0.000000
vt 1.000000 1.000000
vt 0.000000 1.000000
vt 0.000000 0.000000
vt 1.000000 0.000000
vt 1.000000 1.000000
vt 0.000000 1.000000
vt 0.000000 0.000000
vt 1.000000 0.000000
vt 1.000000 1.000000
vt 0.000000 1.000000
vt 0.000000 0.000000
vt 1.000000 0.000000
vt 1.000000 1.000000
vt 0.000000 1.000000
vt 0.000000 0.000000
vt 1.000000 0.000000
vt 1.000000 1.000000
vt 0.000000 1.000000
vt 0.000000 0.000000
vt 1.000000 0.000000
vt 1.000000 1.000000
vt 0.000000 1.000000
vt 0.000000 0.000000
vt 1.000000 0.000000
vt 1.000000 1.000000
vt 0.000000 1.000000
vt 0.000000 0.000000
vt 1.000000 0.000000
vt 1.000000 1.000000
vt 0.000000 1.000000
vt 0.000000 0.000000
vt 1.000000 0.000000
vt 1.000000 1.000000
vt 0.000000 1.000000
vt 0.000000 0.000000
vt 1.000000 0.000000
vt 1.000000 1.000000
vt 0.000000 1.000000
vt 0.000000 0.000000
vt 1.000000 0.000000
vt 1.000000 1.000000
vt 0.000000 1.000000
vt 0.000000 0.000000
vt 1.000000 0.000000
vt 1.000000 1.000000
vt 0.000000 1.000000
vt 0.000000 0.000000
vt 1.000000 0.000000
vt 1.000000 1.000000
vt 0.000000 1.000000
vt 0.000000 0.000000
vt 1.000000 0.000000
vt 1.000000 1.000000
vt 0.000000 1.000000
vt 0.000000 0.000000
vt 1.000000 0.000000
vt 1.000000 1.000000
vt 0.000000 1.000000
vt 0.000000 0.000000
vt 1.000000 0.000000
vt 1.000000 1.000000
vt 0.000000 1.000000
vt 0.000000 0.000000
vt 1.000000 0.000000
vt 1.000000 1.000000
vt 0.000000 1.000000
vt 0.000000 0.000000
vt 1.000000 0.000000
vt 1.000000 1.000000
vt 0.000000 1.000000
vt 0.000000 0.000000
vt 1.000000 0.000000
vt 1.000000 1.000000
vt 0.000000 1.000000
vt 0.000000 0.000000
vt 1.000000 0.000000
vt 1.000000 1.000000
vt 0.000000 1.000000
vt 0.000000 0.000000
vt 1.000000 0.000000
vt 1.000000 1.000000
vt 0.000000 1.000000
vt 0.000000 0.000000
vt 1.000000 0.000000
vt 1.000000 1.000000
vt 0.000000 1.000000
vt 0.000000 0.000000
vt 1.000000 0.000000
vt 1.000000 1.000000
vt 0.000000 1.000000
vt 0.000000 0.000000
vt 1.000000 0.000000
vt 1.000000 1.000000
vt 0.000000 1.000000
vt 0.000000 0.000000
vt 1.000000 0.000000
vt 1.000000 1.000000
vt 0.000000 1.000000
vt 0.000000 0.000000
vt 1.000000 0.000000
vt 1.000000 1.000000
vt 0.000000 1.000000
vt 0.000000 0.000000
vt 1.000000 0.000000
vt 1.000000 1.000000
vt 0.000000 1.000000
vt 0.000000 0.000000
vt 1.000000 0.000000
vt 1.000000 1.000000
vt 0.000000 1.000000
vt 0.000000 0.000000
vt 1.000000 0.000000
vt 1.000000 1.000000
vt 0.000000 1.000000
vt 0.000000 0.000000
vt 1.000000 0.000000
vt 1.000000 1.000000
vt 0.000000 1.000000
vt 0.000000 0.000000
vt 1.000000 0.000000
vt 1.000000 1.000000
vt 0.000000 1.000000
vt 0.000000 0.000000
vt 1.000000 0.000000
vt 1.000000 1.000000
vt 0.000000 1.000000
vt 0.000000 0.000000
vt 1.000000 0.000000
vt 1.000000 1.000000
vt 0.000000 1.000000
vt 0.000000 0.000000
vt 1.000000 0.000000
vt 1.000000 1.000000
vt 0.000000 1.000000
vt 0.000000 0.000000
vt 1.000000 0.000000
vt 1.000000 1.000000
vt 0.000000 1.000000
vt 0.000000 0.000000
vt 1.000000 0.000000
vt 1.000000 1.000000
vt 0.000000 1.000000
vt 0.000000 0.000000
vt 1.000000 0.000000
vt 1.000000 1.000000
vt 0.000000 1.000000
vt 0.000000 0.000000
vt 1.000000 0.000000
vt 1.000000 1.000000
vt 0.000000 1.000000
vt 0.000000 0.000000
vt 1.000000 0.000000
vt 1.000000 1.000000
vt 0.000000 1.000000
vt 0.000000 0.000000
vt 1.000000 0.000000
vt 1.000000 1.000000
vt 0.000000 1.000000
vt 0.000000 0.000000
vt 1.000000 0.000000
vt 1.000000 1.000000
vt 0.000000 1.000000
vt 0.000000 0.000000
vt 1.000000 0.000000
vt 1.000000 1.000000
vt 0.000000 1.000000
vt 0.000000 0.000000
vt 1.000000 0.000000
vt 1.000000 1.000000
vt 0.000000 1.000000
vt 0.000000 0.000000
vt 1.000000 0.000000
vt 1.000000 1.000000
vt 0.000000 1.000000
vt 0.000000 0.000000
vt 1.000000 0.000000
vt 1.000000 1.000000
vt 0.000000 1.000000
vt 0.000000 0.000000
vt 1.000000 0.000000
vt 1.000000 1.000000
vt 0.000000 1.000000
vt 0.000000 0.000000
vt 1.000000 0.000000
vt 1.000000 1.000000
vt 0.000000 1.000000
vt 0.000000 0.000000
vt 1.000000 0.000000
vt 1.000000 1.000000
vt 0.000000 1.000000
vt 0.000000 0.000000
vt 1.000000 0.000000
vt 1.000000 1.000000
vt 0.000000 1.000000
vt 0.000000 0.000000
vt 1.000000 0.000000
vt 1.000000 1.000000
vt 0.000000 1.000000
vt 0.000000 0.000000
vt 1.000000 0.000000
vt 1.000000 1.000000
vt 0.000000 1.000000
vt 0.000000 0.000000
vt 1.000000 0.000000
vt 1.000000 1.000000
vt 0.000000 1.000000
vt 0.000000 0.000000
vt 1.000000 0.000000
vt 1.000000 1.000000
vt 0.000000 1.000000
vt 0.000000 0.000000
vt 1.000000 0.000000
vt 1.000000 1.000000
vt 0.000000 1.000000
vt 0.000000 0.000000
vt 1.000000 0.000000
vt 1.000000 1.000000
vt 0.000000 1.000000
vt 0.000000 0.000000
vt 1.000000 0.000000
vt 1.000000 1.000000
vt 0.000000 1.000000
vt 0.000000 0.000000
vt 1.000000 0.000000
vt 1.000000 1.000000
vt 0.000000 1.000000
vt 0.000000 0.000000
vt 1.000000 0.000000
vt 1.000000 1.000000
vt 0.000000 1.000000
vt 0.000000 0.000000
vt 1.000000 0.000000
vt 1.000000 1.000000
vt 0.000000 1.000000
vt 0.000000 0.000000
vt 1.000000 0.000000
vt 1.000000 1.000000
vt 0.000000 1.000000
vt 0.000000 0.000000
vt 1.000000 0.000000
vt 1.000000 1.000000
vt 0.000000 1.000000
vt 0.000000 0.000000
vt 1.000000 0.000000
vt 1.000000 1.000000
vt 0.000000 1.000000
vt 0.000000 0.000000
vt 1.000000 0.000000
vt 1.000000 1.000000
vt 0.000000 1.000000
vt 0.000000 0.000000
vt 1.000000 0.000000
vt 1.000000 1.000000
vt 0.000000 1.000000
vt 0.000000 0.000000
vt 1.000000 0.000000
vt 1.000000 1.000000
vt 0.000000 1.000000
vt 0.000000 0.000000
vt 1.000000 0.000000
vt 1.000000 1.000000
vt 0.000000 1.000000
vt 0.000000 0.000000
vt 1.000000 0.000000
vt 1.000000 1.000000
vt 0.000000 1.000000
vt 0.000000 0.000000
vt 1.000000 0.000000
vt 1.000000 1.000000
vt 0.000000 1.000000
vt 0.000000 0.000000
vt 1.000000 0.000000
vt 1.000000 1.000000
vt 0.000000 1.000000
vt 0.000000 0.000000
vt 1.000000 0.000000
vt 1.000000 1.000000
vt 0.000000 1.000000
vt 0.000000 0.000000
vt 1.000000 0.000000
vt 1.000000 1.000000
vt 0.000000 1.000000
vt 0.000000 0.000000
vt 1.000000 0.000000
vt 1.000000 1.000000
vt 0.000000 1.000000
vt 0.000000 0.000000
vt 1.000000 0.000000
vt 1.000000 1.000000
vt 0.000000 1.000000
vt 0.000000 0.000000
vt 1.000000 0.000000
vt 1.000000 1.000000
vt 0.000000 1.000000
vt 0.000000 0.000000
vt 1.000000 0.000000
vt 1.000000 1.000000
vt 0.000000 1.000000
vt 0.000000 0.000000
vt 1.000000 0.000000
vt 1.000000 1.000000
vt 0.000000 1.000000
vt 0.000000 0.000000
vt 1.000000 0.000000
vt 1.000000 1.000000
vt 0.000000 1.000000
vt 0.000000 0.000000
vt 1.000000 0.000000
vt 1.000000 1.000000
vt 0.000000 1.000000
vt 0.000000 0.000000
vt 1.000000 0.000000
vt 1.000000 1.000000
vt 0.000000 1.000000
vt 0.000000 0.000000
vt 1.000000 0.000000
vt 1.000000 1.000000
vt 0.000000 1.000000
vt 0.000000 0.000000
vt 1.000000 0.000000
vt 1.000000 1.000000
vt 0.000000 1.000000
vt 0.000000 0.000000
vt 1.000000 0.000000
vt 1.000000 1.000000
vt 0.000000 1.000000
vt 0.000000 0.000000
vt 1.000000 0.000000
vt 1.000000 1.000000
vt 0.000000 1.000000
vt 0.000000 0.000000
vt 1.000000 0.000000
vt 1.000000 1.000000
vt 0.000000 1.000000
vt 0.000000 0.000000
vt 1.000000 0.000000
vt 1.000000 1.000000
vt 0.000000 1.000000
vt 0.000000 0.000000
vt 1.000000 0.000000
vt 1.000000 1.000000
vt 0.000000 1.000000
vt 0.000000 0.000000
vt 1.000000 0.000000
vt 1.000000 1.000000
vt 0.000000 1.000000
vt 0.000000 0.000000
vt 1.000000 0.000000
vt 1.000000 1.000000
vt 0.000000 1.000000
vt 0.000000 0.000000
vt 1.000000 0.000000
vt 1.000000 1.000000
vt 0.000000 1.000000
vt 0.000000 0.000000
vt 1.000000 0.000000
vt 1.000000 1.000000
vt 0.000000 1.000000
vt 0.000000 0.000000
vt 1.000000 0.000000
vt 1.000000 1.000000
vt 0.000000 1.000000
vt 0.000000 0.000000
vt 1.000000 0.000000
vt 1.000000 1.000000
vt 0.000000 1.000000
vt 0.000000 0.000000
vt 1.000000 0.000000
vt 1.000000 1.000000
vt 0.000000 1.000000
vt 0.000000 0.000000
vt 1.000000 0.000000
vt 1.000000 1.000000
vt 0.000000 1.000000
vt 0.000000 0.000000
vt 1.000000 0.000000
vt 1.000000 1.000000
vt 0.000000 1.000000
vt 0.000000 0.000000
vt 1.000000 0.000000
vt 1.000000 1.000000
vt 0.000000 1.000000
vt 0.000000 0.000000
vt 1.000000 0.000000
vt 1.000000 1.000000
vt 0.000000 1.000000
vt 0.000000 0.000000
vt 1.000000 0.000000
vt 1.000000 1.000000
vt 0.000000 1.000000
vt 0.000000 0.000000
vt 1.000000 0.000000
vt 1.000000 1.000000
vt 0.000000 1.000000
vt 0.000000 0.000000
vt 1.000000 0.000000
vt 1.000000 1.000000
vt 0.000000 1.000000
vt 0.000000 0.000000
vt 1.000000 0.000000
vt 1.000000 1.000000
vt 0.000000 1.000000
vt 0.000000 0.000000
vt 1.000000 0.000000
vt 1.000000 1.000000
vt 0.000000 1.000000
vt 0.000000 0.000000
vt 1.000000 0.000000
vt 1.000000 1.000000
vt 0.000000 1.000000
vt 0.000000 0.000000
vt 1.000000 0.000000
vt 1.000000 1.000000
vt 0.000000 1.000000
vt 0.000000 0.000000
vt 1.000000 0.000000
vt 1.000000 1.000000
vt 0.000000 1.000000
vt 0.000000 0.000000
vt 1.000000 0.000000
vt 1.000000 1.000000
vt 0.000000 1.000000
vt 0.000000 0.000000
vt 1.000000 0.000000
vt 1.000000 1.000000
vt 0.000000 1.000000
vt 0.000000 0.000000
vt 1.000000 0.000000
vt 1.000000 1.000000
vt 0.000000 1.000000
vt 0.000000 0.000000
vt 1.000000 0.000000
vt 1.000000 1.000000
vt 0.000000 1.000000
vt 0.000000 0.000000
vt 1.000000 0.000000
vt 1.000000 1.000000
vt 0.000000 1.000000
o AFrameLeg
usemtl MAT_WOOD
f 1/1 2/2 4/3 3/4
f 5/5 7/6 8/7 6/8
f 1/9 5/10 6/11 2/12
f 3/13 4/14 8/15 7/16
f 1/17 3/18 7/19 5/20
f 2/21 6/22 8/23 4/24
f 9/25 10/26 12/27 11/28
f 13/29 15/30 16/31 14/32
f 9/33 13/34 14/35 10/36
f 11/37 12/38 16/39 15/40
f 9/41 11/42 15/43 13/44
f 10/45 14/46 16/47 12/48
f 17/49 18/50 20/51 19/52
f 21/53 23/54 24/55 22/56
f 17/57 21/58 22/59 18/60
f 19/61 20/62 24/63 23/64
f 17/65 19/66 23/67 21/68
f 18/69 22/70 24/71 20/72
f 25/73 26/74 28/75 27/76
f 29/77 31/78 32/79 30/80
f 25/81 29/82 30/83 26/84
f 27/85 28/86 32/87 31/88
f 25/89 27/90 31/91 29/92
f 26/93 30/94 32/95 28/96
o RidgeBeam
f 33/97 34/98 36/99 35/100
f 37/101 39/102 40/103 38/104
f 33/105 37/106 38/107 34/108
f 35/109 36/110 40/111 39/112
f 33/113 35/114 39/115 37/116
f 34/117 38/118 40/119 36/120
o SideBrace
f 41/121 42/122 44/123 43/124
f 45/125 47/126 48/127 46/128
f 41/129 45/130 46/131 42/132
f 43/133 44/134 48/135 47/136
f 41/137 43/138 47/139 45/140
f 42/141 46/142 48/143 44/144
f 49/145 50/146 52/147 51/148
f 53/149 55/150 56/151 54/152
f 49/153 53/154 54/155 50/156
f 51/157 52/158 56/159 55/160
f 49/161 51/162 55/163 53/164
f 50/165 54/166 56/167 52/168
o CrossBrace
f 57/169 58/170 60/171 59/172
f 61/173 63/174 64/175 62/176
f 57/177 61/178 62/179 58/180
f 59/181 60/182 64/183 63/184
f 57/185 59/186 63/187 61/188
f 58/189 62/190 64/191 60/192
f 65/193 66/194 68/195 67/196
f 69/197 71/198 72/199 70/200
f 65/201 69/202 70/203 66/204
f 67/205 68/206 72/207 71/208
f 65/209 67/210 71/211 69/212
f 66/213 70/214 72/215 68/216
o LargeRepairNode
usemtl MAT_CANVAS
f 73/217 78/218 79/219 74/220
f 74/221 79/222 80/223 75/224
f 75/225 80/226 81/227 76/228
f 76/229 81/230 82/231 77/232
f 77/233 82/234 78/235 73/236
f 78/237 83/238 84/239 79/240
f 79/241 84/242 85/243 80/244
f 80/245 85/246 86/247 81/248
f 81/249 86/250 87/251 82/252
f 82/253 87/254 83/255 78/256
f 83/257 88/258 89/259 84/260
f 84/261 89/262 90/263 85/264
f 85/265 90/266 91/267 86/268
f 86/269 91/270 92/271 87/272
f 87/273 92/274 88/275 83/276
f 88/277 93/278 94/279 89/280
f 89/281 94/282 95/283 90/284
f 90/285 95/286 96/287 91/288
f 91/289 96/290 97/291 92/292
f 92/293 97/294 93/295 88/296
f 93/297 98/298 99/299 94/300
f 94/301 99/302 100/303 95/304
f 95/305 100/306 101/307 96/308
f 96/309 101/310 102/311 97/312
f 97/313 102/314 98/315 93/316
f 98/317 103/318 104/319 99/320
f 99/321 104/322 105/323 100/324
f 100/325 105/326 106/327 101/328
f 101/329 106/330 107/331 102/332
f 102/333 107/334 103/335 98/336
f 103/337 108/338 109/339 104/340
f 104/341 109/342 110/343 105/344
f 105/345 110/346 111/347 106/348
f 106/349 111/350 112/351 107/352
f 107/353 112/354 108/355 103/356
f 108/357 113/358 114/359 109/360
f 109/361 114/362 115/363 110/364
f 110/365 115/366 116/367 111/368
f 111/369 116/370 117/371 112/372
f 112/373 117/374 113/375 108/376
f 113/377 118/378 119/379 114/380
f 114/381 119/382 120/383 115/384
f 115/385 120/386 121/387 116/388
f 116/389 121/390 122/391 117/392
f 117/393 122/394 118/395 113/396
f 118/397 73/398 74/399 119/400
f 119/401 74/402 75/403 120/404
f 120/405 75/406 76/407 121/408
f 121/409 76/410 77/411 122/412
f 122/413 77/414 73/415 118/416
f 123/417 128/418 129/419 124/420
f 124/421 129/422 130/423 125/424
f 125/425 130/426 131/427 126/428
f 126/429 131/430 132/431 127/432
f 127/433 132/434 128/435 123/436
f 128/437 133/438 134/439 129/440
f 129/441 134/442 135/443 130/444
f 130/445 135/446 136/447 131/448
f 131/449 136/450 137/451 132/452
f 132/453 137/454 133/455 128/456
f 133/457 138/458 139/459 134/460
f 134/461 139/462 140/463 135/464
f 135/465 140/466 141/467 136/468
f 136/469 141/470 142/471 137/472
f 137/473 142/474 138/475 133/476
f 138/477 143/478 144/479 139/480
f 139/481 144/482 145/483 140/484
f 140/485 145/486 146/487 141/488
f 141/489 146/490 147/491 142/492
f 142/493 147/494 143/495 138/496
f 143/497 148/498 149/499 144/500
f 144/501 149/502 150/503 145/504
f 145/505 150/506 151/507 146/508
f 146/509 151/510 152/511 147/512
f 147/513 152/514 148/515 143/516
f 148/517 153/518 154/519 149/520
f 149/521 154/522 155/523 150/524
f 150/525 155/526 156/527 151/528
f 151/529 156/530 157/531 152/532
f 152/533 157/534 153/535 148/536
f 153/537 158/538 159/539 154/540
f 154/541 159/542 160/543 155/544
f 155/545 160/546 161/547 156/548
f 156/549 161/550 162/551 157/552
f 157/553 162/554 158/555 153/556
f 158/557 163/558 164/559 159/560
f 159/561 164/562 165/563 160/564
f 160/565 165/566 166/567 161/568
f 161/569 166/570 167/571 162/572
f 162/573 167/574 163/575 158/576
f 163/577 168/578 169/579 164/580
f 164/581 169/582 170/583 165/584
f 165/585 170/586 171/587 166/588
f 166/589 171/590 172/591 167/592
f 167/593 172/594 168/595 163/596
f 168/597 123/598 124/599 169/600
f 169/601 124/602 125/603 170/604
f 170/605 125/606 126/607 171/608
f 171/609 126/610 127/611 172/612
f 172/613 127/614 123/615 168/616
f 173/617 178/618 179/619 174/620
f 174/621 179/622 180/623 175/624
f 175/625 180/626 181/627 176/628
f 176/629 181/630 182/631 177/632
f 177/633 182/634 178/635 173/636
f 178/637 183/638 184/639 179/640
f 179/641 184/642 185/643 180/644
f 180/645 185/646 186/647 181/648
f 181/649 186/650 187/651 182/652
f 182/653 187/654 183/655 178/656
f 183/657 188/658 189/659 184/660
f 184/661 189/662 190/663 185/664
f 185/665 190/666 191/667 186/668
f 186/669 191/670 192/671 187/672
f 187/673 192/674 188/675 183/676
f 188/677 193/678 194/679 189/680
f 189/681 194/682 195/683 190/684
f 190/685 195/686 196/687 191/688
f 191/689 196/690 197/691 192/692
f 192/693 197/694 193/695 188/696
f 193/697 198/698 199/699 194/700
f 194/701 199/702 200/703 195/704
f 195/705 200/706 201/707 196/708
f 196/709 201/710 202/711 197/712
f 197/713 202/714 198/715 193/716
f 198/717 203/718 204/719 199/720
f 199/721 204/722 205/723 200/724
f 200/725 205/726 206/727 201/728
f 201/729 206/730 207/731 202/732
f 202/733 207/734 203/735 198/736
f 203/737 208/738 209/739 204/740
f 204/741 209/742 210/743 205/744
f 205/745 210/746 211/747 206/748
f 206/749 211/750 212/751 207/752
f 207/753 212/754 208/755 203/756
f 208/757 213/758 214/759 209/760
f 209/761 214/762 215/763 210/764
f 210/765 215/766 216/767 211/768
f 211/769 216/770 217/771 212/772
f 212/773 217/774 213/775 208/776
f 213/777 218/778 219/779 214/780
f 214/781 219/782 220/783 215/784
f 215/785 220/786 221/787 216/788
f 216/789 221/790 222/791 217/792
f 217/793 222/794 218/795 213/796
f 218/797 173/798 174/799 219/800
f 219/801 174/802 175/803 220/804
f 220/805 175/806 176/807 221/808
f 221/809 176/810 177/811 222/812
f 222/813 177/814 173/815 218/816
f 223/817 228/818 229/819 224/820
f 224/821 229/822 230/823 225/824
f 225/825 230/826 231/827 226/828
f 226/829 231/830 232/831 227/832
f 227/833 232/834 228/835 223/836
f 228/837 233/838 234/839 229/840
f 229/841 234/842 235/843 230/844
f 230/845 235/846 236/847 231/848
f 231/849 236/850 237/851 232/852
f 232/853 237/854 233/855 228/856
f 233/857 238/858 239/859 234/860
f 234/861 239/862 240/863 235/864
f 235/865 240/866 241/867 236/868
f 236/869 241/870 242/871 237/872
f 237/873 242/874 238/875 233/876
f 238/877 243/878 244/879 239/880
f 239/881 244/882 245/883 240/884
f 240/885 245/886 246/887 241/888
f 241/889 246/890 247/891 242/892
f 242/893 247/894 243/895 238/896
f 243/897 248/898 249/899 244/900
f 244/901 249/902 250/903 245/904
f 245/905 250/906 251/907 246/908
f 246/909 251/910 252/911 247/912
f 247/913 252/914 248/915 243/916
f 248/917 253/918 254/919 249/920
f 249/921 254/922 255/923 250/924
f 250/925 255/926 256/927 251/928
f 251/929 256/930 257/931 252/932
f 252/933 257/934 253/935 248/936
f 253/937 258/938 259/939 254/940
f 254/941 259/942 260/943 255/944
f 255/945 260/946 261/947 256/948
f 256/949 261/950 262/951 257/952
f 257/953 262/954 258/955 253/956
f 258/957 263/958 264/959 259/960
f 259/961 264/962 265/963 260/964
f 260/965 265/966 266/967 261/968
f 261/969 266/970 267/971 262/972
f 262/973 267/974 263/975 258/976
f 263/977 268/978 269/979 264/980
f 264/981 269/982 270/983 265/984
f 265/985 270/986 271/987 266/988
f 266/989 271/990 272/991 267/992
f 267/993 272/994 268/995 263/996
f 268/997 223/998 224/999 269/1000
f 269/1001 224/1002 225/1003 270/1004
f 270/1005 225/1006 226/1007 271/1008
f 271/1009 226/1010 227/1011 272/1012
f 272/1013 227/1014 223/1015 268/1016
