# PROJECT OEN production source mesh: PRP_SHELTER_TARP_001_TAUT
mtllib PRP_SHELTER_TARP_001_TAUT.mtl
s off
v -1.300000 1.720000 -1.050000
v -0.866667 1.720000 -1.050000
v -0.433333 1.720000 -1.050000
v 0.000000 1.720000 -1.050000
v 0.433333 1.720000 -1.050000
v 0.866667 1.720000 -1.050000
v 1.300000 1.720000 -1.050000
v -1.300000 1.720000 -0.525000
v -0.866667 1.684645 -0.525000
v -0.433333 1.658763 -0.525000
v 0.000000 1.649289 -0.525000
v 0.433333 1.658763 -0.525000
v 0.866667 1.684645 -0.525000
v 1.300000 1.720000 -0.525000
v -1.300000 1.720000 0.000000
v -0.866667 1.670000 0.000000
v -0.433333 1.633397 0.000000
v 0.000000 1.620000 0.000000
v 0.433333 1.633397 0.000000
v 0.866667 1.670000 0.000000
v 1.300000 1.720000 0.000000
v -1.300000 1.720000 0.525000
v -0.866667 1.684645 0.525000
v -0.433333 1.658763 0.525000
v 0.000000 1.649289 0.525000
v 0.433333 1.658763 0.525000
v 0.866667 1.684645 0.525000
v 1.300000 1.720000 0.525000
v -1.300000 1.720000 1.050000
v -0.866667 1.720000 1.050000
v -0.433333 1.720000 1.050000
v 0.000000 1.720000 1.050000
v 0.433333 1.720000 1.050000
v 0.866667 1.720000 1.050000
v 1.300000 1.720000 1.050000
v -1.217000 1.720000 -1.050000
v -1.229438 1.737119 -1.050000
v -1.249562 1.730580 -1.050000
v -1.249562 1.709420 -1.050000
v -1.229438 1.702881 -1.050000
v -1.232852 1.720000 -1.001214
v -1.242914 1.737119 -1.008525
v -1.259195 1.730580 -1.020353
v -1.259195 1.709420 -1.020353
v -1.242914 1.702881 -1.008525
v -1.274352 1.720000 -0.971062
v -1.278195 1.737119 -0.982891
v -1.284414 1.730580 -1.002031
v -1.284414 1.709420 -1.002031
v -1.278195 1.702881 -0.982891
v -1.325648 1.720000 -0.971062
v -1.321805 1.737119 -0.982891
v -1.315586 1.730580 -1.002031
v -1.315586 1.709420 -1.002031
v -1.321805 1.702881 -0.982891
v -1.367148 1.720000 -1.001214
v -1.357086 1.737119 -1.008525
v -1.340805 1.730580 -1.020353
v -1.340805 1.709420 -1.020353
v -1.357086 1.702881 -1.008525
v -1.383000 1.720000 -1.050000
v -1.370562 1.737119 -1.050000
v -1.350438 1.730580 -1.050000
v -1.350438 1.709420 -1.050000
v -1.370562 1.702881 -1.050000
v -1.367148 1.720000 -1.098786
v -1.357086 1.737119 -1.091475
v -1.340805 1.730580 -1.079647
v -1.340805 1.709420 -1.079647
v -1.357086 1.702881 -1.091475
v -1.325648 1.720000 -1.128938
v -1.321805 1.737119 -1.117109
v -1.315586 1.730580 -1.097969
v -1.315586 1.709420 -1.097969
v -1.321805 1.702881 -1.117109
v -1.274352 1.720000 -1.128938
v -1.278195 1.737119 -1.117109
v -1.284414 1.730580 -1.097969
v -1.284414 1.709420 -1.097969
v -1.278195 1.702881 -1.117109
v -1.232852 1.720000 -1.098786
v -1.242914 1.737119 -1.091475
v -1.259195 1.730580 -1.079647
v -1.259195 1.709420 -1.079647
v -1.242914 1.702881 -1.091475
v 1.383000 1.720000 -1.050000
v 1.370562 1.737119 -1.050000
v 1.350438 1.730580 -1.050000
v 1.350438 1.709420 -1.050000
v 1.370562 1.702881 -1.050000
v 1.367148 1.720000 -1.001214
v 1.357086 1.737119 -1.008525
v 1.340805 1.730580 -1.020353
v 1.340805 1.709420 -1.020353
v 1.357086 1.702881 -1.008525
v 1.325648 1.720000 -0.971062
v 1.321805 1.737119 -0.982891
v 1.315586 1.730580 -1.002031
v 1.315586 1.709420 -1.002031
v 1.321805 1.702881 -0.982891
v 1.274352 1.720000 -0.971062
v 1.278195 1.737119 -0.982891
v 1.284414 1.730580 -1.002031
v 1.284414 1.709420 -1.002031
v 1.278195 1.702881 -0.982891
v 1.232852 1.720000 -1.001214
v 1.242914 1.737119 -1.008525
v 1.259195 1.730580 -1.020353
v 1.259195 1.709420 -1.020353
v 1.242914 1.702881 -1.008525
v 1.217000 1.720000 -1.050000
v 1.229438 1.737119 -1.050000
v 1.249562 1.730580 -1.050000
v 1.249562 1.709420 -1.050000
v 1.229438 1.702881 -1.050000
v 1.232852 1.720000 -1.098786
v 1.242914 1.737119 -1.091475
v 1.259195 1.730580 -1.079647
v 1.259195 1.709420 -1.079647
v 1.242914 1.702881 -1.091475
v 1.274352 1.720000 -1.128938
v 1.278195 1.737119 -1.117109
v 1.284414 1.730580 -1.097969
v 1.284414 1.709420 -1.097969
v 1.278195 1.702881 -1.117109
v 1.325648 1.720000 -1.128938
v 1.321805 1.737119 -1.117109
v 1.315586 1.730580 -1.097969
v 1.315586 1.709420 -1.097969
v 1.321805 1.702881 -1.117109
v 1.367148 1.720000 -1.098786
v 1.357086 1.737119 -1.091475
v 1.340805 1.730580 -1.079647
v 1.340805 1.709420 -1.079647
v 1.357086 1.702881 -1.091475
v -1.217000 1.720000 1.050000
v -1.229438 1.737119 1.050000
v -1.249562 1.730580 1.050000
v -1.249562 1.709420 1.050000
v -1.229438 1.702881 1.050000
v -1.232852 1.720000 1.098786
v -1.242914 1.737119 1.091475
v -1.259195 1.730580 1.079647
v -1.259195 1.709420 1.079647
v -1.242914 1.702881 1.091475
v -1.274352 1.720000 1.128938
v -1.278195 1.737119 1.117109
v -1.284414 1.730580 1.097969
v -1.284414 1.709420 1.097969
v -1.278195 1.702881 1.117109
v -1.325648 1.720000 1.128938
v -1.321805 1.737119 1.117109
v -1.315586 1.730580 1.097969
v -1.315586 1.709420 1.097969
v -1.321805 1.702881 1.117109
v -1.367148 1.720000 1.098786
v -1.357086 1.737119 1.091475
v -1.340805 1.730580 1.079647
v -1.340805 1.709420 1.079647
v -1.357086 1.702881 1.091475
v -1.383000 1.720000 1.050000
v -1.370562 1.737119 1.050000
v -1.350438 1.730580 1.050000
v -1.350438 1.709420 1.050000
v -1.370562 1.702881 1.050000
v -1.367148 1.720000 1.001214
v -1.357086 1.737119 1.008525
v -1.340805 1.730580 1.020353
v -1.340805 1.709420 1.020353
v -1.357086 1.702881 1.008525
v -1.325648 1.720000 0.971062
v -1.321805 1.737119 0.982891
v -1.315586 1.730580 1.002031
v -1.315586 1.709420 1.002031
v -1.321805 1.702881 0.982891
v -1.274352 1.720000 0.971062
v -1.278195 1.737119 0.982891
v -1.284414 1.730580 1.002031
v -1.284414 1.709420 1.002031
v -1.278195 1.702881 0.982891
v -1.232852 1.720000 1.001214
v -1.242914 1.737119 1.008525
v -1.259195 1.730580 1.020353
v -1.259195 1.709420 1.020353
v -1.242914 1.702881 1.008525
v 1.383000 1.720000 1.050000
v 1.370562 1.737119 1.050000
v 1.350438 1.730580 1.050000
v 1.350438 1.709420 1.050000
v 1.370562 1.702881 1.050000
v 1.367148 1.720000 1.098786
v 1.357086 1.737119 1.091475
v 1.340805 1.730580 1.079647
v 1.340805 1.709420 1.079647
v 1.357086 1.702881 1.091475
v 1.325648 1.720000 1.128938
v 1.321805 1.737119 1.117109
v 1.315586 1.730580 1.097969
v 1.315586 1.709420 1.097969
v 1.321805 1.702881 1.117109
v 1.274352 1.720000 1.128938
v 1.278195 1.737119 1.117109
v 1.284414 1.730580 1.097969
v 1.284414 1.709420 1.097969
v 1.278195 1.702881 1.117109
v 1.232852 1.720000 1.098786
v 1.242914 1.737119 1.091475
v 1.259195 1.730580 1.079647
v 1.259195 1.709420 1.079647
v 1.242914 1.702881 1.091475
v 1.217000 1.720000 1.050000
v 1.229438 1.737119 1.050000
v 1.249562 1.730580 1.050000
v 1.249562 1.709420 1.050000
v 1.229438 1.702881 1.050000
v 1.232852 1.720000 1.001214
v 1.242914 1.737119 1.008525
v 1.259195 1.730580 1.020353
v 1.259195 1.709420 1.020353
v 1.242914 1.702881 1.008525
v 1.274352 1.720000 0.971062
v 1.278195 1.737119 0.982891
v 1.284414 1.730580 1.002031
v 1.284414 1.709420 1.002031
v 1.278195 1.702881 0.982891
v 1.325648 1.720000 0.971062
v 1.321805 1.737119 0.982891
v 1.315586 1.730580 1.002031
v 1.315586 1.709420 1.002031
v 1.321805 1.702881 0.982891
v 1.367148 1.720000 1.001214
v 1.357086 1.737119 1.008525
v 1.340805 1.730580 1.020353
v 1.340805 1.709420 1.020353
v 1.357086 1.702881 1.008525
vt 0.000000 0.000000
vt 1.000000 0.000000
vt 1.000000 1.000000
vt 0.000000 1.000000
vt 0.000000 0.000000
vt 1.000000 0.000000
vt 1.000000 1.000000
vt 0.000000 1.000000
vt 0.000000 0.000000
vt 1.000000 0.000000
vt 1.000000 1.000000
vt 0.000000 1.000000
vt 0.000000 0.000000
vt 1.000000 0.000000
vt 1.000000 1.000000
vt 0.000000 1.000000
vt 0.000000 0.000000
vt 1.000000 0.000000
vt 1.000000 1.000000
vt 0.000000 1.000000
vt 0.000000 0.000000
vt 1.000000 0.000000
vt 1.000000 1.000000
vt 0.000000 1.000000
vt 0.000000 0.000000
vt 1.000000 0.000000
vt 1.000000 1.000000
vt 0.000000 1.000000
vt 0.000000 0.000000
vt 1.000000 0.000000
vt 1.000000 1.000000
vt 0.000000 1.000000
vt 0.000000 0.000000
vt 1.000000 0.000000
vt 1.000000 1.000000
vt 0.000000 1.000000
vt 0.000000 0.000000
vt 1.000000 0.000000
vt 1.000000 1.000000
vt 0.000000 1.000000
vt 0.000000 0.000000
vt 1.000000 0.000000
vt 1.000000 1.000000
vt 0.000000 1.000000
vt 0.000000 0.000000
vt 1.000000 0.000000
vt 1.000000 1.000000
vt 0.000000 1.000000
vt 0.000000 0.000000
vt 1.000000 0.000000
vt 1.000000 1.000000
vt 0.000000 1.000000
vt 0.000000 0.000000
vt 1.000000 0.000000
vt 1.000000 1.000000
vt 0.000000 1.000000
vt 0.000000 0.000000
vt 1.000000 0.000000
vt 1.000000 1.000000
vt 0.000000 1.000000
vt 0.000000 0.000000
vt 1.000000 0.000000
vt 1.000000 1.000000
vt 0.000000 1.000000
vt 0.000000 0.000000
vt 1.000000 0.000000
vt 1.000000 1.000000
vt 0.000000 1.000000
vt 0.000000 0.000000
vt 1.000000 0.000000
vt 1.000000 1.000000
vt 0.000000 1.000000
vt 0.000000 0.000000
vt 1.000000 0.000000
vt 1.000000 1.000000
vt 0.000000 1.000000
vt 0.000000 0.000000
vt 1.000000 0.000000
vt 1.000000 1.000000
vt 0.000000 1.000000
vt 0.000000 0.000000
vt 1.000000 0.000000
vt 1.000000 1.000000
vt 0.000000 1.000000
vt 0.000000 0.000000
vt 1.000000 0.000000
vt 1.000000 1.000000
vt 0.000000 1.000000
vt 0.000000 0.000000
vt 1.000000 0.000000
vt 1.000000 1.000000
vt 0.000000 1.000000
vt 0.000000 0.000000
vt 1.000000 0.000000
vt 1.000000 1.000000
vt 0.000000 1.000000
vt 0.000000 0.000000
vt 1.000000 0.000000
vt 1.000000 1.000000
vt 0.000000 1.000000
vt 0.000000 0.000000
vt 1.000000 0.000000
vt 1.000000 1.000000
vt 0.000000 1.000000
vt 0.000000 0.000000
vt 1.000000 0.000000
vt 1.000000 1.000000
vt 0.000000 1.000000
vt 0.000000 0.000000
vt 1.000000 0.000000
vt 1.000000 1.000000
vt 0.000000 1.000000
vt 0.000000 0.000000
vt 1.000000 0.000000
vt 1.000000 1.000000
vt 0.000000 1.000000
vt 0.000000 0.000000
vt 1.000000 0.000000
vt 1.000000 1.000000
vt 0.000000 1.000000
vt 0.000000 0.000000
vt 1.000000 0.000000
vt 1.000000 1.000000
vt 0.000000 1.000000
vt 0.000000 0.000000
vt 1.000000 0.000000
vt 1.000000 1.000000
vt 0.000000 1.000000
vt 0.000000 0.000000
vt 1.000000 0.000000
vt 1.000000 1.000000
vt 0.000000 1.000000
vt 0.000000 0.000000
vt 1.000000 0.000000
vt 1.000000 1.000000
vt 0.000000 1.000000
vt 0.000000 0.000000
vt 1.000000 0.000000
vt 1.000000 1.000000
vt 0.000000 1.000000
vt 0.000000 0.000000
vt 1.000000 0.000000
vt 1.000000 1.000000
vt 0.000000 1.000000
vt 0.000000 0.000000
vt 1.000000 0.000000
vt 1.000000 1.000000
vt 0.000000 1.000000
vt 0.000000 0.000000
vt 1.000000 0.000000
vt 1.000000 1.000000
vt 0.000000 1.000000
vt 0.000000 0.000000
vt 1.000000 0.000000
vt 1.000000 1.000000
vt 0.000000 1.000000
vt 0.000000 0.000000
vt 1.000000 0.000000
vt 1.000000 1.000000
vt 0.000000 1.000000
vt 0.000000 0.000000
vt 1.000000 0.000000
vt 1.000000 1.000000
vt 0.000000 1.000000
vt 0.000000 0.000000
vt 1.000000 0.000000
vt 1.000000 1.000000
vt 0.000000 1.000000
vt 0.000000 0.000000
vt 1.000000 0.000000
vt 1.000000 1.000000
vt 0.000000 1.000000
vt 0.000000 0.000000
vt 1.000000 0.000000
vt 1.000000 1.000000
vt 0.000000 1.000000
vt 0.000000 0.000000
vt 1.000000 0.000000
vt 1.000000 1.000000
vt 0.000000 1.000000
vt 0.000000 0.000000
vt 1.000000 0.000000
vt 1.000000 1.000000
vt 0.000000 1.000000
vt 0.000000 0.000000
vt 1.000000 0.000000
vt 1.000000 1.000000
vt 0.000000 1.000000
vt 0.000000 0.000000
vt 1.000000 0.000000
vt 1.000000 1.000000
vt 0.000000 1.000000
vt 0.000000 0.000000
vt 1.000000 0.000000
vt 1.000000 1.000000
vt 0.000000 1.000000
vt 0.000000 0.000000
vt 1.000000 0.000000
vt 1.000000 1.000000
vt 0.000000 1.000000
vt 0.000000 0.000000
vt 1.000000 0.000000
vt 1.000000 1.000000
vt 0.000000 1.000000
vt 0.000000 0.000000
vt 1.000000 0.000000
vt 1.000000 1.000000
vt 0.000000 1.000000
vt 0.000000 0.000000
vt 1.000000 0.000000
vt 1.000000 1.000000
vt 0.000000 1.000000
vt 0.000000 0.000000
vt 1.000000 0.000000
vt 1.000000 1.000000
vt 0.000000 1.000000
vt 0.000000 0.000000
vt 1.000000 0.000000
vt 1.000000 1.000000
vt 0.000000 1.000000
vt 0.000000 0.000000
vt 1.000000 0.000000
vt 1.000000 1.000000
vt 0.000000 1.000000
vt 0.000000 0.000000
vt 1.000000 0.000000
vt 1.000000 1.000000
vt 0.000000 1.000000
vt 0.000000 0.000000
vt 1.000000 0.000000
vt 1.000000 1.000000
vt 0.000000 1.000000
vt 0.000000 0.000000
vt 1.000000 0.000000
vt 1.000000 1.000000
vt 0.000000 1.000000
vt 0.000000 0.000000
vt 1.000000 0.000000
vt 1.000000 1.000000
vt 0.000000 1.000000
vt 0.000000 0.000000
vt 1.000000 0.000000
vt 1.000000 1.000000
vt 0.000000 1.000000
vt 0.000000 0.000000
vt 1.000000 0.000000
vt 1.000000 1.000000
vt 0.000000 1.000000
vt 0.000000 0.000000
vt 1.000000 0.000000
vt 1.000000 1.000000
vt 0.000000 1.000000
vt 0.000000 0.000000
vt 1.000000 0.000000
vt 1.000000 1.000000
vt 0.000000 1.000000
vt 0.000000 0.000000
vt 1.000000 0.000000
vt 1.000000 1.000000
vt 0.000000 1.000000
vt 0.000000 0.000000
vt 1.000000 0.000000
vt 1.000000 1.000000
vt 0.000000 1.000000
vt 0.000000 0.000000
vt 1.000000 0.000000
vt 1.000000 1.000000
vt 0.000000 1.000000
vt 0.000000 0.000000
vt 1.000000 0.000000
vt 1.000000 1.000000
vt 0.000000 1.000000
vt 0.000000 0.000000
vt 1.000000 0.000000
vt 1.000000 1.000000
vt 0.000000 1.000000
vt 0.000000 0.000000
vt 1.000000 0.000000
vt 1.000000 1.000000
vt 0.000000 1.000000
vt 0.000000 0.000000
vt 1.000000 0.000000
vt 1.000000 1.000000
vt 0.000000 1.000000
vt 0.000000 0.000000
vt 1.000000 0.000000
vt 1.000000 1.000000
vt 0.000000 1.000000
vt 0.000000 0.000000
vt 1.000000 0.000000
vt 1.000000 1.000000
vt 0.000000 1.000000
vt 0.000000 0.000000
vt 1.000000 0.000000
vt 1.000000 1.000000
vt 0.000000 1.000000
vt 0.000000 0.000000
vt 1.000000 0.000000
vt 1.000000 1.000000
vt 0.000000 1.000000
vt 0.000000 0.000000
vt 1.000000 0.000000
vt 1.000000 1.000000
vt 0.000000 1.000000
vt 0.000000 0.000000
vt 1.000000 0.000000
vt 1.000000 1.000000
vt 0.000000 1.000000
vt 0.000000 0.000000
vt 1.000000 0.000000
vt 1.000000 1.000000
vt 0.000000 1.000000
vt 0.000000 0.000000
vt 1.000000 0.000000
vt 1.000000 1.000000
vt 0.000000 1.000000
vt 0.000000 0.000000
vt 1.000000 0.000000
vt 1.000000 1.000000
vt 0.000000 1.000000
vt 0.000000 0.000000
vt 1.000000 0.000000
vt 1.000000 1.000000
vt 0.000000 1.000000
vt 0.000000 0.000000
vt 1.000000 0.000000
vt 1.000000 1.000000
vt 0.000000 1.000000
vt 0.000000 0.000000
vt 1.000000 0.000000
vt 1.000000 1.000000
vt 0.000000 1.000000
vt 0.000000 0.000000
vt 1.000000 0.000000
vt 1.000000 1.000000
vt 0.000000 1.000000
vt 0.000000 0.000000
vt 1.000000 0.000000
vt 1.000000 1.000000
vt 0.000000 1.000000
vt 0.000000 0.000000
vt 1.000000 0.000000
vt 1.000000 1.000000
vt 0.000000 1.000000
vt 0.000000 0.000000
vt 1.000000 0.000000
vt 1.000000 1.000000
vt 0.000000 1.000000
vt 0.000000 0.000000
vt 1.000000 0.000000
vt 1.000000 1.000000
vt 0.000000 1.000000
vt 0.000000 0.000000
vt 1.000000 0.000000
vt 1.000000 1.000000
vt 0.000000 1.000000
vt 0.000000 0.000000
vt 1.000000 0.000000
vt 1.000000 1.000000
vt 0.000000 1.000000
vt 0.000000 0.000000
vt 1.000000 0.000000
vt 1.000000 1.000000
vt 0.000000 1.000000
vt 0.000000 0.000000
vt 1.000000 0.000000
vt 1.000000 1.000000
vt 0.000000 1.000000
vt 0.000000 0.000000
vt 1.000000 0.000000
vt 1.000000 1.000000
vt 0.000000 1.000000
vt 0.000000 0.000000
vt 1.000000 0.000000
vt 1.000000 1.000000
vt 0.000000 1.000000
vt 0.000000 0.000000
vt 1.000000 0.000000
vt 1.000000 1.000000
vt 0.000000 1.000000
vt 0.000000 0.000000
vt 1.000000 0.000000
vt 1.000000 1.000000
vt 0.000000 1.000000
vt 0.000000 0.000000
vt 1.000000 0.000000
vt 1.000000 1.000000
vt 0.000000 1.000000
vt 0.000000 0.000000
vt 1.000000 0.000000
vt 1.000000 1.000000
vt 0.000000 1.000000
vt 0.000000 0.000000
vt 1.000000 0.000000
vt 1.000000 1.000000
vt 0.000000 1.000000
vt 0.000000 0.000000
vt 1.000000 0.000000
vt 1.000000 1.000000
vt 0.000000 1.000000
vt 0.000000 0.000000
vt 1.000000 0.000000
vt 1.000000 1.000000
vt 0.000000 1.000000
vt 0.000000 0.000000
vt 1.000000 0.000000
vt 1.000000 1.000000
vt 0.000000 1.000000
vt 0.000000 0.000000
vt 1.000000 0.000000
vt 1.000000 1.000000
vt 0.000000 1.000000
vt 0.000000 0.000000
vt 1.000000 0.000000
vt 1.000000 1.000000
vt 0.000000 1.000000
vt 0.000000 0.000000
vt 1.000000 0.000000
vt 1.000000 1.000000
vt 0.000000 1.000000
vt 0.000000 0.000000
vt 1.000000 0.000000
vt 1.000000 1.000000
vt 0.000000 1.000000
vt 0.000000 0.000000
vt 1.000000 0.000000
vt 1.000000 1.000000
vt 0.000000 1.000000
vt 0.000000 0.000000
vt 1.000000 0.000000
vt 1.000000 1.000000
vt 0.000000 1.000000
vt 0.000000 0.000000
vt 1.000000 0.000000
vt 1.000000 1.000000
vt 0.000000 1.000000
vt 0.000000 0.000000
vt 1.000000 0.000000
vt 1.000000 1.000000
vt 0.000000 1.000000
vt 0.000000 0.000000
vt 1.000000 0.000000
vt 1.000000 1.000000
vt 0.000000 1.000000
vt 0.000000 0.000000
vt 1.000000 0.000000
vt 1.000000 1.000000
vt 0.000000 1.000000
vt 0.000000 0.000000
vt 1.000000 0.000000
vt 1.000000 1.000000
vt 0.000000 1.000000
vt 0.000000 0.000000
vt 1.000000 0.000000
vt 1.000000 1.000000
vt 0.000000 1.000000
vt 0.000000 0.000000
vt 1.000000 0.000000
vt 1.000000 1.000000
vt 0.000000 1.000000
vt 0.000000 0.000000
vt 1.000000 0.000000
vt 1.000000 1.000000
vt 0.000000 1.000000
vt 0.000000 0.000000
vt 1.000000 0.000000
vt 1.000000 1.000000
vt 0.000000 1.000000
vt 0.000000 0.000000
vt 1.000000 0.000000
vt 1.000000 1.000000
vt 0.000000 1.000000
vt 0.000000 0.000000
vt 1.000000 0.000000
vt 1.000000 1.000000
vt 0.000000 1.000000
vt 0.000000 0.000000
vt 1.000000 0.000000
vt 1.000000 1.000000
vt 0.000000 1.000000
vt 0.000000 0.000000
vt 1.000000 0.000000
vt 1.000000 1.000000
vt 0.000000 1.000000
vt 0.000000 0.000000
vt 1.000000 0.000000
vt 1.000000 1.000000
vt 0.000000 1.000000
vt 0.000000 0.000000
vt 1.000000 0.000000
vt 1.000000 1.000000
vt 0.000000 1.000000
vt 0.000000 0.000000
vt 1.000000 0.000000
vt 1.000000 1.000000
vt 0.000000 1.000000
vt 0.000000 0.000000
vt 1.000000 0.000000
vt 1.000000 1.000000
vt 0.000000 1.000000
vt 0.000000 0.000000
vt 1.000000 0.000000
vt 1.000000 1.000000
vt 0.000000 1.000000
vt 0.000000 0.000000
vt 1.000000 0.000000
vt 1.000000 1.000000
vt 0.000000 1.000000
vt 0.000000 0.000000
vt 1.000000 0.000000
vt 1.000000 1.000000
vt 0.000000 1.000000
vt 0.000000 0.000000
vt 1.000000 0.000000
vt 1.000000 1.000000
vt 0.000000 1.000000
vt 0.000000 0.000000
vt 1.000000 0.000000
vt 1.000000 1.000000
vt 0.000000 1.000000
vt 0.000000 0.000000
vt 1.000000 0.000000
vt 1.000000 1.000000
vt 0.000000 1.000000
vt 0.000000 0.000000
vt 1.000000 0.000000
vt 1.000000 1.000000
vt 0.000000 1.000000
vt 0.000000 0.000000
vt 1.000000 0.000000
vt 1.000000 1.000000
vt 0.000000 1.000000
vt 0.000000 0.000000
vt 1.000000 0.000000
vt 1.000000 1.000000
vt 0.000000 1.000000
vt 0.000000 0.000000
vt 1.000000 0.000000
vt 1.000000 1.000000
vt 0.000000 1.000000
vt 0.000000 0.000000
vt 1.000000 0.000000
vt 1.000000 1.000000
vt 0.000000 1.000000
vt 0.000000 0.000000
vt 1.000000 0.000000
vt 1.000000 1.000000
vt 0.000000 1.000000
vt 0.000000 0.000000
vt 1.000000 0.000000
vt 1.000000 1.000000
vt 0.000000 1.000000
vt 0.000000 0.000000
vt 1.000000 0.000000
vt 1.000000 1.000000
vt 0.000000 1.000000
vt 0.000000 0.000000
vt 1.000000 0.000000
vt 1.000000 1.000000
vt 0.000000 1.000000
vt 0.000000 0.000000
vt 1.000000 0.000000
vt 1.000000 1.000000
vt 0.000000 1.000000
vt 0.000000 0.000000
vt 1.000000 0.000000
vt 1.000000 1.000000
vt 0.000000 1.000000
vt 0.000000 0.000000
vt 1.000000 0.000000
vt 1.000000 1.000000
vt 0.000000 1.000000
vt 0.000000 0.000000
vt 1.000000 0.000000
vt 1.000000 1.000000
vt 0.000000 1.000000
vt 0.000000 0.000000
vt 1.000000 0.000000
vt 1.000000 1.000000
vt 0.000000 1.000000
vt 0.000000 0.000000
vt 1.000000 0.000000
vt 1.000000 1.000000
vt 0.000000 1.000000
vt 0.000000 0.000000
vt 1.000000 0.000000
vt 1.000000 1.000000
vt 0.000000 1.000000
vt 0.000000 0.000000
vt 1.000000 0.000000
vt 1.000000 1.000000
vt 0.000000 1.000000
vt 0.000000 0.000000
vt 1.000000 0.000000
vt 1.000000 1.000000
vt 0.000000 1.000000
vt 0.000000 0.000000
vt 1.000000 0.000000
vt 1.000000 1.000000
vt 0.000000 1.000000
vt 0.000000 0.000000
vt 1.000000 0.000000
vt 1.000000 1.000000
vt 0.000000 1.000000
vt 0.000000 0.000000
vt 1.000000 0.000000
vt 1.000000 1.000000
vt 0.000000 1.000000
vt 0.000000 0.000000
vt 1.000000 0.000000
vt 1.000000 1.000000
vt 0.000000 1.000000
vt 0.000000 0.000000
vt 1.000000 0.000000
vt 1.000000 1.000000
vt 0.000000 1.000000
vt 0.000000 0.000000
vt 1.000000 0.000000
vt 1.000000 1.000000
vt 0.000000 1.000000
vt 0.000000 0.000000
vt 1.000000 0.000000
vt 1.000000 1.000000
vt 0.000000 1.000000
vt 0.000000 0.000000
vt 1.000000 0.000000
vt 1.000000 1.000000
vt 0.000000 1.000000
vt 0.000000 0.000000
vt 1.000000 0.000000
vt 1.000000 1.000000
vt 0.000000 1.000000
vt 0.000000 0.000000
vt 1.000000 0.000000
vt 1.000000 1.000000
vt 0.000000 1.000000
vt 0.000000 0.000000
vt 1.000000 0.000000
vt 1.000000 1.000000
vt 0.000000 1.000000
vt 0.000000 0.000000
vt 1.000000 0.000000
vt 1.000000 1.000000
vt 0.000000 1.000000
vt 0.000000 0.000000
vt 1.000000 0.000000
vt 1.000000 1.000000
vt 0.000000 1.000000
vt 0.000000 0.000000
vt 1.000000 0.000000
vt 1.000000 1.000000
vt 0.000000 1.000000
vt 0.000000 0.000000
vt 1.000000 0.000000
vt 1.000000 1.000000
vt 0.000000 1.000000
vt 0.000000 0.000000
vt 1.000000 0.000000
vt 1.000000 1.000000
vt 0.000000 1.000000
vt 0.000000 0.000000
vt 1.000000 0.000000
vt 1.000000 1.000000
vt 0.000000 1.000000
vt 0.000000 0.000000
vt 1.000000 0.000000
vt 1.000000 1.000000
vt 0.000000 1.000000
vt 0.000000 0.000000
vt 1.000000 0.000000
vt 1.000000 1.000000
vt 0.000000 1.000000
vt 0.000000 0.000000
vt 1.000000 0.000000
vt 1.000000 1.000000
vt 0.000000 1.000000
vt 0.000000 0.000000
vt 1.000000 0.000000
vt 1.000000 1.000000
vt 0.000000 1.000000
vt 0.000000 0.000000
vt 1.000000 0.000000
vt 1.000000 1.000000
vt 0.000000 1.000000
vt 0.000000 0.000000
vt 1.000000 0.000000
vt 1.000000 1.000000
vt 0.000000 1.000000
vt 0.000000 0.000000
vt 1.000000 0.000000
vt 1.000000 1.000000
vt 0.000000 1.000000
vt 0.000000 0.000000
vt 1.000000 0.000000
vt 1.000000 1.000000
vt 0.000000 1.000000
vt 0.000000 0.000000
vt 1.000000 0.000000
vt 1.000000 1.000000
vt 0.000000 1.000000
vt 0.000000 0.000000
vt 1.000000 0.000000
vt 1.000000 1.000000
vt 0.000000 1.000000
vt 0.000000 0.000000
vt 1.000000 0.000000
vt 1.000000 1.000000
vt 0.000000 1.000000
vt 0.000000 0.000000
vt 1.000000 0.000000
vt 1.000000 1.000000
vt 0.000000 1.000000
vt 0.000000 0.000000
vt 1.000000 0.000000
vt 1.000000 1.000000
vt 0.000000 1.000000
vt 0.000000 0.000000
vt 1.000000 0.000000
vt 1.000000 1.000000
vt 0.000000 1.000000
vt 0.000000 0.000000
vt 1.000000 0.000000
vt 1.000000 1.000000
vt 0.000000 1.000000
vt 0.000000 0.000000
vt 1.000000 0.000000
vt 1.000000 1.000000
vt 0.000000 1.000000
vt 0.000000 0.000000
vt 1.000000 0.000000
vt 1.000000 1.000000
vt 0.000000 1.000000
vt 0.000000 0.000000
vt 1.000000 0.000000
vt 1.000000 1.000000
vt 0.000000 1.000000
vt 0.000000 0.000000
vt 1.000000 0.000000
vt 1.000000 1.000000
vt 0.000000 1.000000
vt 0.000000 0.000000
vt 1.000000 0.000000
vt 1.000000 1.000000
vt 0.000000 1.000000
vt 0.000000 0.000000
vt 1.000000 0.000000
vt 1.000000 1.000000
vt 0.000000 1.000000
vt 0.000000 0.000000
vt 1.000000 0.000000
vt 1.000000 1.000000
vt 0.000000 1.000000
vt 0.000000 0.000000
vt 1.000000 0.000000
vt 1.000000 1.000000
vt 0.000000 1.000000
vt 0.000000 0.000000
vt 1.000000 0.000000
vt 1.000000 1.000000
vt 0.000000 1.000000
vt 0.000000 0.000000
vt 1.000000 0.000000
vt 1.000000 1.000000
vt 0.000000 1.000000
vt 0.000000 0.000000
vt 1.000000 0.000000
vt 1.000000 1.000000
vt 0.000000 1.000000
vt 0.000000 0.000000
vt 1.000000 0.000000
vt 1.000000 1.000000
vt 0.000000 1.000000
vt 0.000000 0.000000
vt 1.000000 0.000000
vt 1.000000 1.000000
vt 0.000000 1.000000
vt 0.000000 0.000000
vt 1.000000 0.000000
vt 1.000000 1.000000
vt 0.000000 1.000000
vt 0.000000 0.000000
vt 1.000000 0.000000
vt 1.000000 1.000000
vt 0.000000 1.000000
vt 0.000000 0.000000
vt 1.000000 0.000000
vt 1.000000 1.000000
vt 0.000000 1.000000
vt 0.000000 0.000000
vt 1.000000 0.000000
vt 1.000000 1.000000
vt 0.000000 1.000000
vt 0.000000 0.000000
vt 1.000000 0.000000
vt 1.000000 1.000000
vt 0.000000 1.000000
vt 0.000000 0.000000
vt 1.000000 0.000000
vt 1.000000 1.000000
vt 0.000000 1.000000
vt 0.000000 0.000000
vt 1.000000 0.000000
vt 1.000000 1.000000
vt 0.000000 1.000000
vt 0.000000 0.000000
vt 1.000000 0.000000
vt 1.000000 1.000000
vt 0.000000 1.000000
vt 0.000000 0.000000
vt 1.000000 0.000000
vt 1.000000 1.000000
vt 0.000000 1.000000
vt 0.000000 0.000000
vt 1.000000 0.000000
vt 1.000000 1.000000
vt 0.000000 1.000000
vt 0.000000 0.000000
vt 1.000000 0.000000
vt 1.000000 1.000000
vt 0.000000 1.000000
vt 0.000000 0.000000
vt 1.000000 0.000000
vt 1.000000 1.000000
vt 0.000000 1.000000
vt 0.000000 0.000000
vt 1.000000 0.000000
vt 1.000000 1.000000
vt 0.000000 1.000000
vt 0.000000 0.000000
vt 1.000000 0.000000
vt 1.000000 1.000000
vt 0.000000 1.000000
vt 0.000000 0.000000
vt 1.000000 0.000000
vt 1.000000 1.000000
vt 0.000000 1.000000
vt 0.000000 0.000000
vt 1.000000 0.000000
vt 1.000000 1.000000
vt 0.000000 1.000000
vt 0.000000 0.000000
vt 1.000000 0.000000
vt 1.000000 1.000000
vt 0.000000 1.000000
vt 0.000000 0.000000
vt 1.000000 0.000000
vt 1.000000 1.000000
vt 0.000000 1.000000
vt 0.000000 0.000000
vt 1.000000 0.000000
vt 1.000000 1.000000
vt 0.000000 1.000000
vt 0.000000 0.000000
vt 1.000000 0.000000
vt 1.000000 1.000000
vt 0.000000 1.000000
vt 0.000000 0.000000
vt 1.000000 0.000000
vt 1.000000 1.000000
vt 0.000000 1.000000
vt 0.000000 0.000000
vt 1.000000 0.000000
vt 1.000000 1.000000
vt 0.000000 1.000000
vt 0.000000 0.000000
vt 1.000000 0.000000
vt 1.000000 1.000000
vt 0.000000 1.000000
vt 0.000000 0.000000
vt 1.000000 0.000000
vt 1.000000 1.000000
vt 0.000000 1.000000
vt 0.000000 0.000000
vt 1.000000 0.000000
vt 1.000000 1.000000
vt 0.000000 1.000000
vt 0.000000 0.000000
vt 1.000000 0.000000
vt 1.000000 1.000000
vt 0.000000 1.000000
vt 0.000000 0.000000
vt 1.000000 0.000000
vt 1.000000 1.000000
vt 0.000000 1.000000
vt 0.000000 0.000000
vt 1.000000 0.000000
vt 1.000000 1.000000
vt 0.000000 1.000000
vt 0.000000 0.000000
vt 1.000000 0.000000
vt 1.000000 1.000000
vt 0.000000 1.000000
vt 0.000000 0.000000
vt 1.000000 0.000000
vt 1.000000 1.000000
vt 0.000000 1.000000
o Tarp_TAUT
usemtl MAT_CANVAS
f 1/1 2/2 9/3 8/4
f 2/5 3/6 10/7 9/8
f 3/9 4/10 11/11 10/12
f 4/13 5/14 12/15 11/16
f 5/17 6/18 13/19 12/20
f 6/21 7/22 14/23 13/24
f 8/25 9/26 16/27 15/28
f 9/29 10/30 17/31 16/32
f 10/33 11/34 18/35 17/36
f 11/37 12/38 19/39 18/40
f 12/41 13/42 20/43 19/44
f 13/45 14/46 21/47 20/48
f 15/49 16/50 23/51 22/52
f 16/53 17/54 24/55 23/56
f 17/57 18/58 25/59 24/60
f 18/61 19/62 26/63 25/64
f 19/65 20/66 27/67 26/68
f 20/69 21/70 28/71 27/72
f 22/73 23/74 30/75 29/76
f 23/77 24/78 31/79 30/80
f 24/81 25/82 32/83 31/84
f 25/85 26/86 33/87 32/88
f 26/89 27/90 34/91 33/92
f 27/93 28/94 35/95 34/96
o ReinforcedTiePoint
usemtl MAT_METAL
f 36/97 41/98 42/99 37/100
f 37/101 42/102 43/103 38/104
f 38/105 43/106 44/107 39/108
f 39/109 44/110 45/111 40/112
f 40/113 45/114 41/115 36/116
f 41/117 46/118 47/119 42/120
f 42/121 47/122 48/123 43/124
f 43/125 48/126 49/127 44/128
f 44/129 49/130 50/131 45/132
f 45/133 50/134 46/135 41/136
f 46/137 51/138 52/139 47/140
f 47/141 52/142 53/143 48/144
f 48/145 53/146 54/147 49/148
f 49/149 54/150 55/151 50/152
f 50/153 55/154 51/155 46/156
f 51/157 56/158 57/159 52/160
f 52/161 57/162 58/163 53/164
f 53/165 58/166 59/167 54/168
f 54/169 59/170 60/171 55/172
f 55/173 60/174 56/175 51/176
f 56/177 61/178 62/179 57/180
f 57/181 62/182 63/183 58/184
f 58/185 63/186 64/187 59/188
f 59/189 64/190 65/191 60/192
f 60/193 65/194 61/195 56/196
f 61/197 66/198 67/199 62/200
f 62/201 67/202 68/203 63/204
f 63/205 68/206 69/207 64/208
f 64/209 69/210 70/211 65/212
f 65/213 70/214 66/215 61/216
f 66/217 71/218 72/219 67/220
f 67/221 72/222 73/223 68/224
f 68/225 73/226 74/227 69/228
f 69/229 74/230 75/231 70/232
f 70/233 75/234 71/235 66/236
f 71/237 76/238 77/239 72/240
f 72/241 77/242 78/243 73/244
f 73/245 78/246 79/247 74/248
f 74/249 79/250 80/251 75/252
f 75/253 80/254 76/255 71/256
f 76/257 81/258 82/259 77/260
f 77/261 82/262 83/263 78/264
f 78/265 83/266 84/267 79/268
f 79/269 84/270 85/271 80/272
f 80/273 85/274 81/275 76/276
f 81/277 36/278 37/279 82/280
f 82/281 37/282 38/283 83/284
f 83/285 38/286 39/287 84/288
f 84/289 39/290 40/291 85/292
f 85/293 40/294 36/295 81/296
f 86/297 91/298 92/299 87/300
f 87/301 92/302 93/303 88/304
f 88/305 93/306 94/307 89/308
f 89/309 94/310 95/311 90/312
f 90/313 95/314 91/315 86/316
f 91/317 96/318 97/319 92/320
f 92/321 97/322 98/323 93/324
f 93/325 98/326 99/327 94/328
f 94/329 99/330 100/331 95/332
f 95/333 100/334 96/335 91/336
f 96/337 101/338 102/339 97/340
f 97/341 102/342 103/343 98/344
f 98/345 103/346 104/347 99/348
f 99/349 104/350 105/351 100/352
f 100/353 105/354 101/355 96/356
f 101/357 106/358 107/359 102/360
f 102/361 107/362 108/363 103/364
f 103/365 108/366 109/367 104/368
f 104/369 109/370 110/371 105/372
f 105/373 110/374 106/375 101/376
f 106/377 111/378 112/379 107/380
f 107/381 112/382 113/383 108/384
f 108/385 113/386 114/387 109/388
f 109/389 114/390 115/391 110/392
f 110/393 115/394 111/395 106/396
f 111/397 116/398 117/399 112/400
f 112/401 117/402 118/403 113/404
f 113/405 118/406 119/407 114/408
f 114/409 119/410 120/411 115/412
f 115/413 120/414 116/415 111/416
f 116/417 121/418 122/419 117/420
f 117/421 122/422 123/423 118/424
f 118/425 123/426 124/427 119/428
f 119/429 124/430 125/431 120/432
f 120/433 125/434 121/435 116/436
f 121/437 126/438 127/439 122/440
f 122/441 127/442 128/443 123/444
f 123/445 128/446 129/447 124/448
f 124/449 129/450 130/451 125/452
f 125/453 130/454 126/455 121/456
f 126/457 131/458 132/459 127/460
f 127/461 132/462 133/463 128/464
f 128/465 133/466 134/467 129/468
f 129/469 134/470 135/471 130/472
f 130/473 135/474 131/475 126/476
f 131/477 86/478 87/479 132/480
f 132/481 87/482 88/483 133/484
f 133/485 88/486 89/487 134/488
f 134/489 89/490 90/491 135/492
f 135/493 90/494 86/495 131/496
f 136/497 141/498 142/499 137/500
f 137/501 142/502 143/503 138/504
f 138/505 143/506 144/507 139/508
f 139/509 144/510 145/511 140/512
f 140/513 145/514 141/515 136/516
f 141/517 146/518 147/519 142/520
f 142/521 147/522 148/523 143/524
f 143/525 148/526 149/527 144/528
f 144/529 149/530 150/531 145/532
f 145/533 150/534 146/535 141/536
f 146/537 151/538 152/539 147/540
f 147/541 152/542 153/543 148/544
f 148/545 153/546 154/547 149/548
f 149/549 154/550 155/551 150/552
f 150/553 155/554 151/555 146/556
f 151/557 156/558 157/559 152/560
f 152/561 157/562 158/563 153/564
f 153/565 158/566 159/567 154/568
f 154/569 159/570 160/571 155/572
f 155/573 160/574 156/575 151/576
f 156/577 161/578 162/579 157/580
f 157/581 162/582 163/583 158/584
f 158/585 163/586 164/587 159/588
f 159/589 164/590 165/591 160/592
f 160/593 165/594 161/595 156/596
f 161/597 166/598 167/599 162/600
f 162/601 167/602 168/603 163/604
f 163/605 168/606 169/607 164/608
f 164/609 169/610 170/611 165/612
f 165/613 170/614 166/615 161/616
f 166/617 171/618 172/619 167/620
f 167/621 172/622 173/623 168/624
f 168/625 173/626 174/627 169/628
f 169/629 174/630 175/631 170/632
f 170/633 175/634 171/635 166/636
f 171/637 176/638 177/639 172/640
f 172/641 177/642 178/643 173/644
f 173/645 178/646 179/647 174/648
f 174/649 179/650 180/651 175/652
f 175/653 180/654 176/655 171/656
f 176/657 181/658 182/659 177/660
f 177/661 182/662 183/663 178/664
f 178/665 183/666 184/667 179/668
f 179/669 184/670 185/671 180/672
f 180/673 185/674 181/675 176/676
f 181/677 136/678 137/679 182/680
f 182/681 137/682 138/683 183/684
f 183/685 138/686 139/687 184/688
f 184/689 139/690 140/691 185/692
f 185/693 140/694 136/695 181/696
f 186/697 191/698 192/699 187/700
f 187/701 192/702 193/703 188/704
f 188/705 193/706 194/707 189/708
f 189/709 194/710 195/711 190/712
f 190/713 195/714 191/715 186/716
f 191/717 196/718 197/719 192/720
f 192/721 197/722 198/723 193/724
f 193/725 198/726 199/727 194/728
f 194/729 199/730 200/731 195/732
f 195/733 200/734 196/735 191/736
f 196/737 201/738 202/739 197/740
f 197/741 202/742 203/743 198/744
f 198/745 203/746 204/747 199/748
f 199/749 204/750 205/751 200/752
f 200/753 205/754 201/755 196/756
f 201/757 206/758 207/759 202/760
f 202/761 207/762 208/763 203/764
f 203/765 208/766 209/767 204/768
f 204/769 209/770 210/771 205/772
f 205/773 210/774 206/775 201/776
f 206/777 211/778 212/779 207/780
f 207/781 212/782 213/783 208/784
f 208/785 213/786 214/787 209/788
f 209/789 214/790 215/791 210/792
f 210/793 215/794 211/795 206/796
f 211/797 216/798 217/799 212/800
f 212/801 217/802 218/803 213/804
f 213/805 218/806 219/807 214/808
f 214/809 219/810 220/811 215/812
f 215/813 220/814 216/815 211/816
f 216/817 221/818 222/819 217/820
f 217/821 222/822 223/823 218/824
f 218/825 223/826 224/827 219/828
f 219/829 224/830 225/831 220/832
f 220/833 225/834 221/835 216/836
f 221/837 226/838 227/839 222/840
f 222/841 227/842 228/843 223/844
f 223/845 228/846 229/847 224/848
f 224/849 229/850 230/851 225/852
f 225/853 230/854 226/855 221/856
f 226/857 231/858 232/859 227/860
f 227/861 232/862 233/863 228/864
f 228/865 233/866 234/867 229/868
f 229/869 234/870 235/871 230/872
f 230/873 235/874 231/875 226/876
f 231/877 186/878 187/879 232/880
f 232/881 187/882 188/883 233/884
f 233/885 188/886 189/887 234/888
f 234/889 189/890 190/891 235/892
f 235/893 190/894 186/895 231/896
