# PROJECT OEN original source mesh
# ITM_KNIFE_001 utility rope/fiber knife
# Units: meters. Coordinate intent: Z-up.
mtllib ITM_KNIFE_001.mtl
v -0.105000 -0.022000 -0.016000
v 0.060000 -0.022000 -0.016000
v 0.060000 0.022000 -0.016000
v -0.105000 0.022000 -0.016000
v -0.105000 -0.022000 0.016000
v 0.060000 -0.022000 0.016000
v 0.060000 0.022000 0.016000
v -0.105000 0.022000 0.016000
v -0.075000 -0.027000 -0.018000
v 0.030000 -0.027000 -0.018000
v 0.030000 0.027000 -0.018000
v -0.075000 0.027000 -0.018000
v -0.075000 -0.027000 0.018000
v 0.030000 -0.027000 0.018000
v 0.030000 0.027000 0.018000
v -0.075000 0.027000 0.018000
v 0.045000 -0.030000 -0.019000
v 0.072000 -0.030000 -0.019000
v 0.072000 0.030000 -0.019000
v 0.045000 0.030000 -0.019000
v 0.045000 -0.030000 0.019000
v 0.072000 -0.030000 0.019000
v 0.072000 0.030000 0.019000
v 0.045000 0.030000 0.019000
v 0.065000 -0.017000 -0.008000
v 0.185000 -0.017000 -0.008000
v 0.185000 0.017000 -0.008000
v 0.065000 0.017000 -0.008000
v 0.065000 -0.017000 0.008000
v 0.185000 -0.017000 0.008000
v 0.185000 0.017000 0.008000
v 0.065000 0.017000 0.008000
v 0.083000 -0.018000 -0.013000
v 0.171000 -0.018000 -0.013000
v 0.171000 0.018000 -0.013000
v 0.083000 0.018000 -0.013000
v 0.083000 -0.018000 -0.007000
v 0.171000 -0.018000 -0.007000
v 0.171000 0.018000 -0.007000
v 0.083000 0.018000 -0.007000
v 0.171000 -0.018000 -0.009000
v 0.190000 -0.018000 -0.009000
v 0.190000 0.018000 -0.009000
v 0.171000 0.018000 -0.009000
v 0.171000 -0.018000 0.009000
v 0.190000 -0.018000 0.009000
v 0.190000 0.018000 0.009000
v 0.171000 0.018000 0.009000
g grip_core
usemtl HANDLE
f 1 2 3 4
f 5 8 7 6
f 1 5 6 2
f 2 6 7 3
f 3 7 8 4
f 5 1 4 8
g grip_palm_swell
usemtl HANDLE
f 9 10 11 12
f 13 16 15 14
f 9 13 14 10
f 10 14 15 11
f 11 15 16 12
f 13 9 12 16
g finger_guard
usemtl GUARD
f 17 18 19 20
f 21 24 23 22
f 17 21 22 18
f 18 22 23 19
f 19 23 24 20
f 21 17 20 24
g blade_body
usemtl BLADE
f 25 26 27 28
f 29 32 31 30
f 25 29 30 26
f 26 30 31 27
f 27 31 32 28
f 29 25 28 32
g cutting_edge
usemtl EDGE
f 33 34 35 36
f 37 40 39 38
f 33 37 38 34
f 34 38 39 35
f 35 39 40 36
f 37 33 36 40
g blunt_nose
usemtl BLADE
f 41 42 43 44
f 45 48 47 46
f 41 45 46 42
f 42 46 47 43
f 43 47 48 44
f 45 41 44 48
