<svg xmlns="http://www.w3.org/2000/svg" viewBox="0 0 512 768"><rect x="28" y="28" width="456" height="712" rx="42" fill="#C8B58D" stroke="#282C2D" stroke-width="18"/><rect x="52" y="52" width="408" height="124" rx="26" fill="#55717A" stroke="#282C2D" stroke-width="12"/><circle cx="116" cy="114" r="42" fill="#E8E0CF" stroke="#282C2D" stroke-width="10"/><path d="M184 91h220M184 132h168" stroke="#E8E0CF" stroke-width="16" stroke-linecap="round"/><rect x="60" y="214" width="392" height="158" rx="24" fill="#E8E0CF" stroke="#282C2D" stroke-width="12"/><path d="M88 253h303M88 297h260M88 341h198" stroke="#66745C" stroke-width="15" stroke-linecap="round"/><rect x="60" y="406" width="182" height="154" rx="24" fill="#66745C" stroke="#282C2D" stroke-width="12"/><rect x="270" y="406" width="182" height="154" rx="24" fill="#D59A52" stroke="#282C2D" stroke-width="12"/><path d="M92 455h116M92 500h76M302 455h116M302 500h76" stroke="#E8E0CF" stroke-width="14" stroke-linecap="round"/><rect x="60" y="598" width="392" height="102" rx="24" fill="#E8E0CF" stroke="#282C2D" stroke-width="12"/><circle cx="111" cy="649" r="21" fill="#282C2D"/><circle cx="166" cy="649" r="21" fill="none" stroke="#282C2D" stroke-width="9"/><circle cx="221" cy="649" r="21" fill="none" stroke="#282C2D" stroke-width="9"/></svg>