mtllib ../../../Materials/project_oen.mtl
o ax-craft-002_workbench_tool_board__stocked
v -0.470000 0.095000 -0.030000
v 0.470000 0.095000 -0.030000
v 0.470000 1.345000 -0.030000
v -0.470000 1.345000 -0.030000
v 0.470000 0.095000 0.030000
v -0.470000 0.095000 0.030000
v -0.470000 1.345000 0.030000
v 0.470000 1.345000 0.030000
v -0.470000 0.095000 0.030000
v -0.470000 0.095000 -0.030000
v -0.470000 1.345000 -0.030000
v -0.470000 1.345000 0.030000
v 0.470000 0.095000 -0.030000
v 0.470000 0.095000 0.030000
v 0.470000 1.345000 0.030000
v 0.470000 1.345000 -0.030000
v -0.470000 1.345000 -0.030000
v 0.470000 1.345000 -0.030000
v 0.470000 1.345000 0.030000
v -0.470000 1.345000 0.030000
v -0.470000 0.095000 0.030000
v 0.470000 0.095000 0.030000
v 0.470000 0.095000 -0.030000
v -0.470000 0.095000 -0.030000
v -0.300000 0.380000 -0.034000
v -0.287491 0.380000 -0.040024
v -0.287491 0.920000 -0.040024
v -0.300000 0.920000 -0.034000
v -0.287491 0.380000 -0.040024
v -0.284401 0.380000 -0.053560
v -0.284401 0.920000 -0.053560
v -0.287491 0.920000 -0.040024
v -0.284401 0.380000 -0.053560
v -0.293058 0.380000 -0.064416
v -0.293058 0.920000 -0.064416
v -0.284401 0.920000 -0.053560
v -0.293058 0.380000 -0.064416
v -0.306942 0.380000 -0.064416
v -0.306942 0.920000 -0.064416
v -0.293058 0.920000 -0.064416
v -0.306942 0.380000 -0.064416
v -0.315599 0.380000 -0.053560
v -0.315599 0.920000 -0.053560
v -0.306942 0.920000 -0.064416
v -0.315599 0.380000 -0.053560
v -0.312509 0.380000 -0.040024
v -0.312509 0.920000 -0.040024
v -0.315599 0.920000 -0.053560
v -0.312509 0.380000 -0.040024
v -0.300000 0.380000 -0.034000
v -0.300000 0.920000 -0.034000
v -0.312509 0.920000 -0.040024
v -0.300000 0.380000 -0.050000
v -0.300000 0.380000 -0.034000
v -0.287491 0.380000 -0.040024
v -0.287491 0.380000 -0.040024
v -0.284401 0.380000 -0.053560
v -0.284401 0.380000 -0.053560
v -0.293058 0.380000 -0.064416
v -0.293058 0.380000 -0.064416
v -0.306942 0.380000 -0.064416
v -0.306942 0.380000 -0.064416
v -0.315599 0.380000 -0.053560
v -0.315599 0.380000 -0.053560
v -0.312509 0.380000 -0.040024
v -0.312509 0.380000 -0.040024
v -0.300000 0.380000 -0.034000
v -0.300000 0.920000 -0.050000
v -0.300000 0.920000 -0.034000
v -0.287491 0.920000 -0.040024
v -0.287491 0.920000 -0.040024
v -0.284401 0.920000 -0.053560
v -0.284401 0.920000 -0.053560
v -0.293058 0.920000 -0.064416
v -0.293058 0.920000 -0.064416
v -0.306942 0.920000 -0.064416
v -0.306942 0.920000 -0.064416
v -0.315599 0.920000 -0.053560
v -0.315599 0.920000 -0.053560
v -0.312509 0.920000 -0.040024
v -0.312509 0.920000 -0.040024
v -0.300000 0.920000 -0.034000
v -0.258000 0.960000 -0.050000
v -0.266021 0.984687 -0.050000
v -0.271684 0.980572 -0.043000
v -0.265000 0.960000 -0.043000
v -0.265000 0.960000 -0.043000
v -0.271684 0.980572 -0.043000
v -0.277348 0.976458 -0.050000
v -0.272000 0.960000 -0.050000
v -0.272000 0.960000 -0.050000
v -0.277348 0.976458 -0.050000
v -0.271684 0.980572 -0.057000
v -0.265000 0.960000 -0.057000
v -0.265000 0.960000 -0.057000
v -0.271684 0.980572 -0.057000
v -0.266021 0.984687 -0.050000
v -0.258000 0.960000 -0.050000
v -0.266021 0.984687 -0.050000
v -0.287021 0.999944 -0.050000
v -0.289184 0.993287 -0.043000
v -0.271684 0.980572 -0.043000
v -0.271684 0.980572 -0.043000
v -0.289184 0.993287 -0.043000
v -0.291348 0.986630 -0.050000
v -0.277348 0.976458 -0.050000
v -0.277348 0.976458 -0.050000
v -0.291348 0.986630 -0.050000
v -0.289184 0.993287 -0.057000
v -0.271684 0.980572 -0.057000
v -0.271684 0.980572 -0.057000
v -0.289184 0.993287 -0.057000
v -0.287021 0.999944 -0.050000
v -0.266021 0.984687 -0.050000
v -0.287021 0.999944 -0.050000
v -0.312979 0.999944 -0.050000
v -0.310816 0.993287 -0.043000
v -0.289184 0.993287 -0.043000
v -0.289184 0.993287 -0.043000
v -0.310816 0.993287 -0.043000
v -0.308652 0.986630 -0.050000
v -0.291348 0.986630 -0.050000
v -0.291348 0.986630 -0.050000
v -0.308652 0.986630 -0.050000
v -0.310816 0.993287 -0.057000
v -0.289184 0.993287 -0.057000
v -0.289184 0.993287 -0.057000
v -0.310816 0.993287 -0.057000
v -0.312979 0.999944 -0.050000
v -0.287021 0.999944 -0.050000
v -0.312979 0.999944 -0.050000
v -0.333979 0.984687 -0.050000
v -0.328316 0.980572 -0.043000
v -0.310816 0.993287 -0.043000
v -0.310816 0.993287 -0.043000
v -0.328316 0.980572 -0.043000
v -0.322652 0.976458 -0.050000
v -0.308652 0.986630 -0.050000
v -0.308652 0.986630 -0.050000
v -0.322652 0.976458 -0.050000
v -0.328316 0.980572 -0.057000
v -0.310816 0.993287 -0.057000
v -0.310816 0.993287 -0.057000
v -0.328316 0.980572 -0.057000
v -0.333979 0.984687 -0.050000
v -0.312979 0.999944 -0.050000
v -0.333979 0.984687 -0.050000
v -0.342000 0.960000 -0.050000
v -0.335000 0.960000 -0.043000
v -0.328316 0.980572 -0.043000
v -0.328316 0.980572 -0.043000
v -0.335000 0.960000 -0.043000
v -0.328000 0.960000 -0.050000
v -0.322652 0.976458 -0.050000
v -0.322652 0.976458 -0.050000
v -0.328000 0.960000 -0.050000
v -0.335000 0.960000 -0.057000
v -0.328316 0.980572 -0.057000
v -0.328316 0.980572 -0.057000
v -0.335000 0.960000 -0.057000
v -0.342000 0.960000 -0.050000
v -0.333979 0.984687 -0.050000
v -0.342000 0.960000 -0.050000
v -0.333979 0.935313 -0.050000
v -0.328316 0.939428 -0.043000
v -0.335000 0.960000 -0.043000
v -0.335000 0.960000 -0.043000
v -0.328316 0.939428 -0.043000
v -0.322652 0.943542 -0.050000
v -0.328000 0.960000 -0.050000
v -0.328000 0.960000 -0.050000
v -0.322652 0.943542 -0.050000
v -0.328316 0.939428 -0.057000
v -0.335000 0.960000 -0.057000
v -0.335000 0.960000 -0.057000
v -0.328316 0.939428 -0.057000
v -0.333979 0.935313 -0.050000
v -0.342000 0.960000 -0.050000
v -0.333979 0.935313 -0.050000
v -0.312979 0.920056 -0.050000
v -0.310816 0.926713 -0.043000
v -0.328316 0.939428 -0.043000
v -0.328316 0.939428 -0.043000
v -0.310816 0.926713 -0.043000
v -0.308652 0.933370 -0.050000
v -0.322652 0.943542 -0.050000
v -0.322652 0.943542 -0.050000
v -0.308652 0.933370 -0.050000
v -0.310816 0.926713 -0.057000
v -0.328316 0.939428 -0.057000
v -0.328316 0.939428 -0.057000
v -0.310816 0.926713 -0.057000
v -0.312979 0.920056 -0.050000
v -0.333979 0.935313 -0.050000
v -0.312979 0.920056 -0.050000
v -0.287021 0.920056 -0.050000
v -0.289184 0.926713 -0.043000
v -0.310816 0.926713 -0.043000
v -0.310816 0.926713 -0.043000
v -0.289184 0.926713 -0.043000
v -0.291348 0.933370 -0.050000
v -0.308652 0.933370 -0.050000
v -0.308652 0.933370 -0.050000
v -0.291348 0.933370 -0.050000
v -0.289184 0.926713 -0.057000
v -0.310816 0.926713 -0.057000
v -0.310816 0.926713 -0.057000
v -0.289184 0.926713 -0.057000
v -0.287021 0.920056 -0.050000
v -0.312979 0.920056 -0.050000
v -0.287021 0.920056 -0.050000
v -0.266021 0.935313 -0.050000
v -0.271684 0.939428 -0.043000
v -0.289184 0.926713 -0.043000
v -0.289184 0.926713 -0.043000
v -0.271684 0.939428 -0.043000
v -0.277348 0.943542 -0.050000
v -0.291348 0.933370 -0.050000
v -0.291348 0.933370 -0.050000
v -0.277348 0.943542 -0.050000
v -0.271684 0.939428 -0.057000
v -0.289184 0.926713 -0.057000
v -0.289184 0.926713 -0.057000
v -0.271684 0.939428 -0.057000
v -0.266021 0.935313 -0.050000
v -0.287021 0.920056 -0.050000
v -0.266021 0.935313 -0.050000
v -0.258000 0.960000 -0.050000
v -0.265000 0.960000 -0.043000
v -0.271684 0.939428 -0.043000
v -0.271684 0.939428 -0.043000
v -0.265000 0.960000 -0.043000
v -0.272000 0.960000 -0.050000
v -0.277348 0.943542 -0.050000
v -0.277348 0.943542 -0.050000
v -0.272000 0.960000 -0.050000
v -0.265000 0.960000 -0.057000
v -0.271684 0.939428 -0.057000
v -0.271684 0.939428 -0.057000
v -0.265000 0.960000 -0.057000
v -0.258000 0.960000 -0.050000
v -0.266021 0.935313 -0.050000
v -0.100000 0.380000 -0.034000
v -0.087491 0.380000 -0.040024
v -0.087491 0.920000 -0.040024
v -0.100000 0.920000 -0.034000
v -0.087491 0.380000 -0.040024
v -0.084401 0.380000 -0.053560
v -0.084401 0.920000 -0.053560
v -0.087491 0.920000 -0.040024
v -0.084401 0.380000 -0.053560
v -0.093058 0.380000 -0.064416
v -0.093058 0.920000 -0.064416
v -0.084401 0.920000 -0.053560
v -0.093058 0.380000 -0.064416
v -0.106942 0.380000 -0.064416
v -0.106942 0.920000 -0.064416
v -0.093058 0.920000 -0.064416
v -0.106942 0.380000 -0.064416
v -0.115599 0.380000 -0.053560
v -0.115599 0.920000 -0.053560
v -0.106942 0.920000 -0.064416
v -0.115599 0.380000 -0.053560
v -0.112509 0.380000 -0.040024
v -0.112509 0.920000 -0.040024
v -0.115599 0.920000 -0.053560
v -0.112509 0.380000 -0.040024
v -0.100000 0.380000 -0.034000
v -0.100000 0.920000 -0.034000
v -0.112509 0.920000 -0.040024
v -0.100000 0.380000 -0.050000
v -0.100000 0.380000 -0.034000
v -0.087491 0.380000 -0.040024
v -0.087491 0.380000 -0.040024
v -0.084401 0.380000 -0.053560
v -0.084401 0.380000 -0.053560
v -0.093058 0.380000 -0.064416
v -0.093058 0.380000 -0.064416
v -0.106942 0.380000 -0.064416
v -0.106942 0.380000 -0.064416
v -0.115599 0.380000 -0.053560
v -0.115599 0.380000 -0.053560
v -0.112509 0.380000 -0.040024
v -0.112509 0.380000 -0.040024
v -0.100000 0.380000 -0.034000
v -0.100000 0.920000 -0.050000
v -0.100000 0.920000 -0.034000
v -0.087491 0.920000 -0.040024
v -0.087491 0.920000 -0.040024
v -0.084401 0.920000 -0.053560
v -0.084401 0.920000 -0.053560
v -0.093058 0.920000 -0.064416
v -0.093058 0.920000 -0.064416
v -0.106942 0.920000 -0.064416
v -0.106942 0.920000 -0.064416
v -0.115599 0.920000 -0.053560
v -0.115599 0.920000 -0.053560
v -0.112509 0.920000 -0.040024
v -0.112509 0.920000 -0.040024
v -0.100000 0.920000 -0.034000
v -0.058000 0.960000 -0.050000
v -0.066021 0.984687 -0.050000
v -0.071684 0.980572 -0.043000
v -0.065000 0.960000 -0.043000
v -0.065000 0.960000 -0.043000
v -0.071684 0.980572 -0.043000
v -0.077348 0.976458 -0.050000
v -0.072000 0.960000 -0.050000
v -0.072000 0.960000 -0.050000
v -0.077348 0.976458 -0.050000
v -0.071684 0.980572 -0.057000
v -0.065000 0.960000 -0.057000
v -0.065000 0.960000 -0.057000
v -0.071684 0.980572 -0.057000
v -0.066021 0.984687 -0.050000
v -0.058000 0.960000 -0.050000
v -0.066021 0.984687 -0.050000
v -0.087021 0.999944 -0.050000
v -0.089184 0.993287 -0.043000
v -0.071684 0.980572 -0.043000
v -0.071684 0.980572 -0.043000
v -0.089184 0.993287 -0.043000
v -0.091348 0.986630 -0.050000
v -0.077348 0.976458 -0.050000
v -0.077348 0.976458 -0.050000
v -0.091348 0.986630 -0.050000
v -0.089184 0.993287 -0.057000
v -0.071684 0.980572 -0.057000
v -0.071684 0.980572 -0.057000
v -0.089184 0.993287 -0.057000
v -0.087021 0.999944 -0.050000
v -0.066021 0.984687 -0.050000
v -0.087021 0.999944 -0.050000
v -0.112979 0.999944 -0.050000
v -0.110816 0.993287 -0.043000
v -0.089184 0.993287 -0.043000
v -0.089184 0.993287 -0.043000
v -0.110816 0.993287 -0.043000
v -0.108652 0.986630 -0.050000
v -0.091348 0.986630 -0.050000
v -0.091348 0.986630 -0.050000
v -0.108652 0.986630 -0.050000
v -0.110816 0.993287 -0.057000
v -0.089184 0.993287 -0.057000
v -0.089184 0.993287 -0.057000
v -0.110816 0.993287 -0.057000
v -0.112979 0.999944 -0.050000
v -0.087021 0.999944 -0.050000
v -0.112979 0.999944 -0.050000
v -0.133979 0.984687 -0.050000
v -0.128316 0.980572 -0.043000
v -0.110816 0.993287 -0.043000
v -0.110816 0.993287 -0.043000
v -0.128316 0.980572 -0.043000
v -0.122652 0.976458 -0.050000
v -0.108652 0.986630 -0.050000
v -0.108652 0.986630 -0.050000
v -0.122652 0.976458 -0.050000
v -0.128316 0.980572 -0.057000
v -0.110816 0.993287 -0.057000
v -0.110816 0.993287 -0.057000
v -0.128316 0.980572 -0.057000
v -0.133979 0.984687 -0.050000
v -0.112979 0.999944 -0.050000
v -0.133979 0.984687 -0.050000
v -0.142000 0.960000 -0.050000
v -0.135000 0.960000 -0.043000
v -0.128316 0.980572 -0.043000
v -0.128316 0.980572 -0.043000
v -0.135000 0.960000 -0.043000
v -0.128000 0.960000 -0.050000
v -0.122652 0.976458 -0.050000
v -0.122652 0.976458 -0.050000
v -0.128000 0.960000 -0.050000
v -0.135000 0.960000 -0.057000
v -0.128316 0.980572 -0.057000
v -0.128316 0.980572 -0.057000
v -0.135000 0.960000 -0.057000
v -0.142000 0.960000 -0.050000
v -0.133979 0.984687 -0.050000
v -0.142000 0.960000 -0.050000
v -0.133979 0.935313 -0.050000
v -0.128316 0.939428 -0.043000
v -0.135000 0.960000 -0.043000
v -0.135000 0.960000 -0.043000
v -0.128316 0.939428 -0.043000
v -0.122652 0.943542 -0.050000
v -0.128000 0.960000 -0.050000
v -0.128000 0.960000 -0.050000
v -0.122652 0.943542 -0.050000
v -0.128316 0.939428 -0.057000
v -0.135000 0.960000 -0.057000
v -0.135000 0.960000 -0.057000
v -0.128316 0.939428 -0.057000
v -0.133979 0.935313 -0.050000
v -0.142000 0.960000 -0.050000
v -0.133979 0.935313 -0.050000
v -0.112979 0.920056 -0.050000
v -0.110816 0.926713 -0.043000
v -0.128316 0.939428 -0.043000
v -0.128316 0.939428 -0.043000
v -0.110816 0.926713 -0.043000
v -0.108652 0.933370 -0.050000
v -0.122652 0.943542 -0.050000
v -0.122652 0.943542 -0.050000
v -0.108652 0.933370 -0.050000
v -0.110816 0.926713 -0.057000
v -0.128316 0.939428 -0.057000
v -0.128316 0.939428 -0.057000
v -0.110816 0.926713 -0.057000
v -0.112979 0.920056 -0.050000
v -0.133979 0.935313 -0.050000
v -0.112979 0.920056 -0.050000
v -0.087021 0.920056 -0.050000
v -0.089184 0.926713 -0.043000
v -0.110816 0.926713 -0.043000
v -0.110816 0.926713 -0.043000
v -0.089184 0.926713 -0.043000
v -0.091348 0.933370 -0.050000
v -0.108652 0.933370 -0.050000
v -0.108652 0.933370 -0.050000
v -0.091348 0.933370 -0.050000
v -0.089184 0.926713 -0.057000
v -0.110816 0.926713 -0.057000
v -0.110816 0.926713 -0.057000
v -0.089184 0.926713 -0.057000
v -0.087021 0.920056 -0.050000
v -0.112979 0.920056 -0.050000
v -0.087021 0.920056 -0.050000
v -0.066021 0.935313 -0.050000
v -0.071684 0.939428 -0.043000
v -0.089184 0.926713 -0.043000
v -0.089184 0.926713 -0.043000
v -0.071684 0.939428 -0.043000
v -0.077348 0.943542 -0.050000
v -0.091348 0.933370 -0.050000
v -0.091348 0.933370 -0.050000
v -0.077348 0.943542 -0.050000
v -0.071684 0.939428 -0.057000
v -0.089184 0.926713 -0.057000
v -0.089184 0.926713 -0.057000
v -0.071684 0.939428 -0.057000
v -0.066021 0.935313 -0.050000
v -0.087021 0.920056 -0.050000
v -0.066021 0.935313 -0.050000
v -0.058000 0.960000 -0.050000
v -0.065000 0.960000 -0.043000
v -0.071684 0.939428 -0.043000
v -0.071684 0.939428 -0.043000
v -0.065000 0.960000 -0.043000
v -0.072000 0.960000 -0.050000
v -0.077348 0.943542 -0.050000
v -0.077348 0.943542 -0.050000
v -0.072000 0.960000 -0.050000
v -0.065000 0.960000 -0.057000
v -0.071684 0.939428 -0.057000
v -0.071684 0.939428 -0.057000
v -0.065000 0.960000 -0.057000
v -0.058000 0.960000 -0.050000
v -0.066021 0.935313 -0.050000
v 0.120000 0.380000 -0.034000
v 0.132509 0.380000 -0.040024
v 0.132509 0.920000 -0.040024
v 0.120000 0.920000 -0.034000
v 0.132509 0.380000 -0.040024
v 0.135599 0.380000 -0.053560
v 0.135599 0.920000 -0.053560
v 0.132509 0.920000 -0.040024
v 0.135599 0.380000 -0.053560
v 0.126942 0.380000 -0.064416
v 0.126942 0.920000 -0.064416
v 0.135599 0.920000 -0.053560
v 0.126942 0.380000 -0.064416
v 0.113058 0.380000 -0.064416
v 0.113058 0.920000 -0.064416
v 0.126942 0.920000 -0.064416
v 0.113058 0.380000 -0.064416
v 0.104401 0.380000 -0.053560
v 0.104401 0.920000 -0.053560
v 0.113058 0.920000 -0.064416
v 0.104401 0.380000 -0.053560
v 0.107491 0.380000 -0.040024
v 0.107491 0.920000 -0.040024
v 0.104401 0.920000 -0.053560
v 0.107491 0.380000 -0.040024
v 0.120000 0.380000 -0.034000
v 0.120000 0.920000 -0.034000
v 0.107491 0.920000 -0.040024
v 0.120000 0.380000 -0.050000
v 0.120000 0.380000 -0.034000
v 0.132509 0.380000 -0.040024
v 0.132509 0.380000 -0.040024
v 0.135599 0.380000 -0.053560
v 0.135599 0.380000 -0.053560
v 0.126942 0.380000 -0.064416
v 0.126942 0.380000 -0.064416
v 0.113058 0.380000 -0.064416
v 0.113058 0.380000 -0.064416
v 0.104401 0.380000 -0.053560
v 0.104401 0.380000 -0.053560
v 0.107491 0.380000 -0.040024
v 0.107491 0.380000 -0.040024
v 0.120000 0.380000 -0.034000
v 0.120000 0.920000 -0.050000
v 0.120000 0.920000 -0.034000
v 0.132509 0.920000 -0.040024
v 0.132509 0.920000 -0.040024
v 0.135599 0.920000 -0.053560
v 0.135599 0.920000 -0.053560
v 0.126942 0.920000 -0.064416
v 0.126942 0.920000 -0.064416
v 0.113058 0.920000 -0.064416
v 0.113058 0.920000 -0.064416
v 0.104401 0.920000 -0.053560
v 0.104401 0.920000 -0.053560
v 0.107491 0.920000 -0.040024
v 0.107491 0.920000 -0.040024
v 0.120000 0.920000 -0.034000
v 0.162000 0.960000 -0.050000
v 0.153979 0.984687 -0.050000
v 0.148316 0.980572 -0.043000
v 0.155000 0.960000 -0.043000
v 0.155000 0.960000 -0.043000
v 0.148316 0.980572 -0.043000
v 0.142652 0.976458 -0.050000
v 0.148000 0.960000 -0.050000
v 0.148000 0.960000 -0.050000
v 0.142652 0.976458 -0.050000
v 0.148316 0.980572 -0.057000
v 0.155000 0.960000 -0.057000
v 0.155000 0.960000 -0.057000
v 0.148316 0.980572 -0.057000
v 0.153979 0.984687 -0.050000
v 0.162000 0.960000 -0.050000
v 0.153979 0.984687 -0.050000
v 0.132979 0.999944 -0.050000
v 0.130816 0.993287 -0.043000
v 0.148316 0.980572 -0.043000
v 0.148316 0.980572 -0.043000
v 0.130816 0.993287 -0.043000
v 0.128652 0.986630 -0.050000
v 0.142652 0.976458 -0.050000
v 0.142652 0.976458 -0.050000
v 0.128652 0.986630 -0.050000
v 0.130816 0.993287 -0.057000
v 0.148316 0.980572 -0.057000
v 0.148316 0.980572 -0.057000
v 0.130816 0.993287 -0.057000
v 0.132979 0.999944 -0.050000
v 0.153979 0.984687 -0.050000
v 0.132979 0.999944 -0.050000
v 0.107021 0.999944 -0.050000
v 0.109184 0.993287 -0.043000
v 0.130816 0.993287 -0.043000
v 0.130816 0.993287 -0.043000
v 0.109184 0.993287 -0.043000
v 0.111348 0.986630 -0.050000
v 0.128652 0.986630 -0.050000
v 0.128652 0.986630 -0.050000
v 0.111348 0.986630 -0.050000
v 0.109184 0.993287 -0.057000
v 0.130816 0.993287 -0.057000
v 0.130816 0.993287 -0.057000
v 0.109184 0.993287 -0.057000
v 0.107021 0.999944 -0.050000
v 0.132979 0.999944 -0.050000
v 0.107021 0.999944 -0.050000
v 0.086021 0.984687 -0.050000
v 0.091684 0.980572 -0.043000
v 0.109184 0.993287 -0.043000
v 0.109184 0.993287 -0.043000
v 0.091684 0.980572 -0.043000
v 0.097348 0.976458 -0.050000
v 0.111348 0.986630 -0.050000
v 0.111348 0.986630 -0.050000
v 0.097348 0.976458 -0.050000
v 0.091684 0.980572 -0.057000
v 0.109184 0.993287 -0.057000
v 0.109184 0.993287 -0.057000
v 0.091684 0.980572 -0.057000
v 0.086021 0.984687 -0.050000
v 0.107021 0.999944 -0.050000
v 0.086021 0.984687 -0.050000
v 0.078000 0.960000 -0.050000
v 0.085000 0.960000 -0.043000
v 0.091684 0.980572 -0.043000
v 0.091684 0.980572 -0.043000
v 0.085000 0.960000 -0.043000
v 0.092000 0.960000 -0.050000
v 0.097348 0.976458 -0.050000
v 0.097348 0.976458 -0.050000
v 0.092000 0.960000 -0.050000
v 0.085000 0.960000 -0.057000
v 0.091684 0.980572 -0.057000
v 0.091684 0.980572 -0.057000
v 0.085000 0.960000 -0.057000
v 0.078000 0.960000 -0.050000
v 0.086021 0.984687 -0.050000
v 0.078000 0.960000 -0.050000
v 0.086021 0.935313 -0.050000
v 0.091684 0.939428 -0.043000
v 0.085000 0.960000 -0.043000
v 0.085000 0.960000 -0.043000
v 0.091684 0.939428 -0.043000
v 0.097348 0.943542 -0.050000
v 0.092000 0.960000 -0.050000
v 0.092000 0.960000 -0.050000
v 0.097348 0.943542 -0.050000
v 0.091684 0.939428 -0.057000
v 0.085000 0.960000 -0.057000
v 0.085000 0.960000 -0.057000
v 0.091684 0.939428 -0.057000
v 0.086021 0.935313 -0.050000
v 0.078000 0.960000 -0.050000
v 0.086021 0.935313 -0.050000
v 0.107021 0.920056 -0.050000
v 0.109184 0.926713 -0.043000
v 0.091684 0.939428 -0.043000
v 0.091684 0.939428 -0.043000
v 0.109184 0.926713 -0.043000
v 0.111348 0.933370 -0.050000
v 0.097348 0.943542 -0.050000
v 0.097348 0.943542 -0.050000
v 0.111348 0.933370 -0.050000
v 0.109184 0.926713 -0.057000
v 0.091684 0.939428 -0.057000
v 0.091684 0.939428 -0.057000
v 0.109184 0.926713 -0.057000
v 0.107021 0.920056 -0.050000
v 0.086021 0.935313 -0.050000
v 0.107021 0.920056 -0.050000
v 0.132979 0.920056 -0.050000
v 0.130816 0.926713 -0.043000
v 0.109184 0.926713 -0.043000
v 0.109184 0.926713 -0.043000
v 0.130816 0.926713 -0.043000
v 0.128652 0.933370 -0.050000
v 0.111348 0.933370 -0.050000
v 0.111348 0.933370 -0.050000
v 0.128652 0.933370 -0.050000
v 0.130816 0.926713 -0.057000
v 0.109184 0.926713 -0.057000
v 0.109184 0.926713 -0.057000
v 0.130816 0.926713 -0.057000
v 0.132979 0.920056 -0.050000
v 0.107021 0.920056 -0.050000
v 0.132979 0.920056 -0.050000
v 0.153979 0.935313 -0.050000
v 0.148316 0.939428 -0.043000
v 0.130816 0.926713 -0.043000
v 0.130816 0.926713 -0.043000
v 0.148316 0.939428 -0.043000
v 0.142652 0.943542 -0.050000
v 0.128652 0.933370 -0.050000
v 0.128652 0.933370 -0.050000
v 0.142652 0.943542 -0.050000
v 0.148316 0.939428 -0.057000
v 0.130816 0.926713 -0.057000
v 0.130816 0.926713 -0.057000
v 0.148316 0.939428 -0.057000
v 0.153979 0.935313 -0.050000
v 0.132979 0.920056 -0.050000
v 0.153979 0.935313 -0.050000
v 0.162000 0.960000 -0.050000
v 0.155000 0.960000 -0.043000
v 0.148316 0.939428 -0.043000
v 0.148316 0.939428 -0.043000
v 0.155000 0.960000 -0.043000
v 0.148000 0.960000 -0.050000
v 0.142652 0.943542 -0.050000
v 0.142652 0.943542 -0.050000
v 0.148000 0.960000 -0.050000
v 0.155000 0.960000 -0.057000
v 0.148316 0.939428 -0.057000
v 0.148316 0.939428 -0.057000
v 0.155000 0.960000 -0.057000
v 0.162000 0.960000 -0.050000
v 0.153979 0.935313 -0.050000
v 0.310000 0.380000 -0.034000
v 0.322509 0.380000 -0.040024
v 0.322509 0.920000 -0.040024
v 0.310000 0.920000 -0.034000
v 0.322509 0.380000 -0.040024
v 0.325599 0.380000 -0.053560
v 0.325599 0.920000 -0.053560
v 0.322509 0.920000 -0.040024
v 0.325599 0.380000 -0.053560
v 0.316942 0.380000 -0.064416
v 0.316942 0.920000 -0.064416
v 0.325599 0.920000 -0.053560
v 0.316942 0.380000 -0.064416
v 0.303058 0.380000 -0.064416
v 0.303058 0.920000 -0.064416
v 0.316942 0.920000 -0.064416
v 0.303058 0.380000 -0.064416
v 0.294401 0.380000 -0.053560
v 0.294401 0.920000 -0.053560
v 0.303058 0.920000 -0.064416
v 0.294401 0.380000 -0.053560
v 0.297491 0.380000 -0.040024
v 0.297491 0.920000 -0.040024
v 0.294401 0.920000 -0.053560
v 0.297491 0.380000 -0.040024
v 0.310000 0.380000 -0.034000
v 0.310000 0.920000 -0.034000
v 0.297491 0.920000 -0.040024
v 0.310000 0.380000 -0.050000
v 0.310000 0.380000 -0.034000
v 0.322509 0.380000 -0.040024
v 0.322509 0.380000 -0.040024
v 0.325599 0.380000 -0.053560
v 0.325599 0.380000 -0.053560
v 0.316942 0.380000 -0.064416
v 0.316942 0.380000 -0.064416
v 0.303058 0.380000 -0.064416
v 0.303058 0.380000 -0.064416
v 0.294401 0.380000 -0.053560
v 0.294401 0.380000 -0.053560
v 0.297491 0.380000 -0.040024
v 0.297491 0.380000 -0.040024
v 0.310000 0.380000 -0.034000
v 0.310000 0.920000 -0.050000
v 0.310000 0.920000 -0.034000
v 0.322509 0.920000 -0.040024
v 0.322509 0.920000 -0.040024
v 0.325599 0.920000 -0.053560
v 0.325599 0.920000 -0.053560
v 0.316942 0.920000 -0.064416
v 0.316942 0.920000 -0.064416
v 0.303058 0.920000 -0.064416
v 0.303058 0.920000 -0.064416
v 0.294401 0.920000 -0.053560
v 0.294401 0.920000 -0.053560
v 0.297491 0.920000 -0.040024
v 0.297491 0.920000 -0.040024
v 0.310000 0.920000 -0.034000
v 0.352000 0.960000 -0.050000
v 0.343979 0.984687 -0.050000
v 0.338316 0.980572 -0.043000
v 0.345000 0.960000 -0.043000
v 0.345000 0.960000 -0.043000
v 0.338316 0.980572 -0.043000
v 0.332652 0.976458 -0.050000
v 0.338000 0.960000 -0.050000
v 0.338000 0.960000 -0.050000
v 0.332652 0.976458 -0.050000
v 0.338316 0.980572 -0.057000
v 0.345000 0.960000 -0.057000
v 0.345000 0.960000 -0.057000
v 0.338316 0.980572 -0.057000
v 0.343979 0.984687 -0.050000
v 0.352000 0.960000 -0.050000
v 0.343979 0.984687 -0.050000
v 0.322979 0.999944 -0.050000
v 0.320816 0.993287 -0.043000
v 0.338316 0.980572 -0.043000
v 0.338316 0.980572 -0.043000
v 0.320816 0.993287 -0.043000
v 0.318652 0.986630 -0.050000
v 0.332652 0.976458 -0.050000
v 0.332652 0.976458 -0.050000
v 0.318652 0.986630 -0.050000
v 0.320816 0.993287 -0.057000
v 0.338316 0.980572 -0.057000
v 0.338316 0.980572 -0.057000
v 0.320816 0.993287 -0.057000
v 0.322979 0.999944 -0.050000
v 0.343979 0.984687 -0.050000
v 0.322979 0.999944 -0.050000
v 0.297021 0.999944 -0.050000
v 0.299184 0.993287 -0.043000
v 0.320816 0.993287 -0.043000
v 0.320816 0.993287 -0.043000
v 0.299184 0.993287 -0.043000
v 0.301348 0.986630 -0.050000
v 0.318652 0.986630 -0.050000
v 0.318652 0.986630 -0.050000
v 0.301348 0.986630 -0.050000
v 0.299184 0.993287 -0.057000
v 0.320816 0.993287 -0.057000
v 0.320816 0.993287 -0.057000
v 0.299184 0.993287 -0.057000
v 0.297021 0.999944 -0.050000
v 0.322979 0.999944 -0.050000
v 0.297021 0.999944 -0.050000
v 0.276021 0.984687 -0.050000
v 0.281684 0.980572 -0.043000
v 0.299184 0.993287 -0.043000
v 0.299184 0.993287 -0.043000
v 0.281684 0.980572 -0.043000
v 0.287348 0.976458 -0.050000
v 0.301348 0.986630 -0.050000
v 0.301348 0.986630 -0.050000
v 0.287348 0.976458 -0.050000
v 0.281684 0.980572 -0.057000
v 0.299184 0.993287 -0.057000
v 0.299184 0.993287 -0.057000
v 0.281684 0.980572 -0.057000
v 0.276021 0.984687 -0.050000
v 0.297021 0.999944 -0.050000
v 0.276021 0.984687 -0.050000
v 0.268000 0.960000 -0.050000
v 0.275000 0.960000 -0.043000
v 0.281684 0.980572 -0.043000
v 0.281684 0.980572 -0.043000
v 0.275000 0.960000 -0.043000
v 0.282000 0.960000 -0.050000
v 0.287348 0.976458 -0.050000
v 0.287348 0.976458 -0.050000
v 0.282000 0.960000 -0.050000
v 0.275000 0.960000 -0.057000
v 0.281684 0.980572 -0.057000
v 0.281684 0.980572 -0.057000
v 0.275000 0.960000 -0.057000
v 0.268000 0.960000 -0.050000
v 0.276021 0.984687 -0.050000
v 0.268000 0.960000 -0.050000
v 0.276021 0.935313 -0.050000
v 0.281684 0.939428 -0.043000
v 0.275000 0.960000 -0.043000
v 0.275000 0.960000 -0.043000
v 0.281684 0.939428 -0.043000
v 0.287348 0.943542 -0.050000
v 0.282000 0.960000 -0.050000
v 0.282000 0.960000 -0.050000
v 0.287348 0.943542 -0.050000
v 0.281684 0.939428 -0.057000
v 0.275000 0.960000 -0.057000
v 0.275000 0.960000 -0.057000
v 0.281684 0.939428 -0.057000
v 0.276021 0.935313 -0.050000
v 0.268000 0.960000 -0.050000
v 0.276021 0.935313 -0.050000
v 0.297021 0.920056 -0.050000
v 0.299184 0.926713 -0.043000
v 0.281684 0.939428 -0.043000
v 0.281684 0.939428 -0.043000
v 0.299184 0.926713 -0.043000
v 0.301348 0.933370 -0.050000
v 0.287348 0.943542 -0.050000
v 0.287348 0.943542 -0.050000
v 0.301348 0.933370 -0.050000
v 0.299184 0.926713 -0.057000
v 0.281684 0.939428 -0.057000
v 0.281684 0.939428 -0.057000
v 0.299184 0.926713 -0.057000
v 0.297021 0.920056 -0.050000
v 0.276021 0.935313 -0.050000
v 0.297021 0.920056 -0.050000
v 0.322979 0.920056 -0.050000
v 0.320816 0.926713 -0.043000
v 0.299184 0.926713 -0.043000
v 0.299184 0.926713 -0.043000
v 0.320816 0.926713 -0.043000
v 0.318652 0.933370 -0.050000
v 0.301348 0.933370 -0.050000
v 0.301348 0.933370 -0.050000
v 0.318652 0.933370 -0.050000
v 0.320816 0.926713 -0.057000
v 0.299184 0.926713 -0.057000
v 0.299184 0.926713 -0.057000
v 0.320816 0.926713 -0.057000
v 0.322979 0.920056 -0.050000
v 0.297021 0.920056 -0.050000
v 0.322979 0.920056 -0.050000
v 0.343979 0.935313 -0.050000
v 0.338316 0.939428 -0.043000
v 0.320816 0.926713 -0.043000
v 0.320816 0.926713 -0.043000
v 0.338316 0.939428 -0.043000
v 0.332652 0.943542 -0.050000
v 0.318652 0.933370 -0.050000
v 0.318652 0.933370 -0.050000
v 0.332652 0.943542 -0.050000
v 0.338316 0.939428 -0.057000
v 0.320816 0.926713 -0.057000
v 0.320816 0.926713 -0.057000
v 0.338316 0.939428 -0.057000
v 0.343979 0.935313 -0.050000
v 0.322979 0.920056 -0.050000
v 0.343979 0.935313 -0.050000
v 0.352000 0.960000 -0.050000
v 0.345000 0.960000 -0.043000
v 0.338316 0.939428 -0.043000
v 0.338316 0.939428 -0.043000
v 0.345000 0.960000 -0.043000
v 0.338000 0.960000 -0.050000
v 0.332652 0.943542 -0.050000
v 0.332652 0.943542 -0.050000
v 0.338000 0.960000 -0.050000
v 0.345000 0.960000 -0.057000
v 0.338316 0.939428 -0.057000
v 0.338316 0.939428 -0.057000
v 0.345000 0.960000 -0.057000
v 0.352000 0.960000 -0.050000
v 0.343979 0.935313 -0.050000
vt 0.000000 0.000000
vt 1.000000 0.000000
vt 1.000000 1.000000
vt 0.000000 1.000000
vt 0.000000 0.000000
vt 1.000000 0.000000
vt 1.000000 1.000000
vt 0.000000 1.000000
vt 0.000000 0.000000
vt 1.000000 0.000000
vt 1.000000 1.000000
vt 0.000000 1.000000
vt 0.000000 0.000000
vt 1.000000 0.000000
vt 1.000000 1.000000
vt 0.000000 1.000000
vt 0.000000 0.000000
vt 1.000000 0.000000
vt 1.000000 1.000000
vt 0.000000 1.000000
vt 0.000000 0.000000
vt 1.000000 0.000000
vt 1.000000 1.000000
vt 0.000000 1.000000
vt 0.000000 0.000000
vt 1.000000 0.000000
vt 1.000000 1.000000
vt 0.000000 1.000000
vt 0.000000 0.000000
vt 1.000000 0.000000
vt 1.000000 1.000000
vt 0.000000 1.000000
vt 0.000000 0.000000
vt 1.000000 0.000000
vt 1.000000 1.000000
vt 0.000000 1.000000
vt 0.000000 0.000000
vt 1.000000 0.000000
vt 1.000000 1.000000
vt 0.000000 1.000000
vt 0.000000 0.000000
vt 1.000000 0.000000
vt 1.000000 1.000000
vt 0.000000 1.000000
vt 0.000000 0.000000
vt 1.000000 0.000000
vt 1.000000 1.000000
vt 0.000000 1.000000
vt 0.000000 0.000000
vt 1.000000 0.000000
vt 1.000000 1.000000
vt 0.000000 1.000000
vt 0.500000 0.500000
vt 0.000000 0.000000
vt 1.000000 0.000000
vt 0.000000 0.000000
vt 1.000000 0.000000
vt 0.000000 0.000000
vt 1.000000 0.000000
vt 0.000000 0.000000
vt 1.000000 0.000000
vt 0.000000 0.000000
vt 1.000000 0.000000
vt 0.000000 0.000000
vt 1.000000 0.000000
vt 0.000000 0.000000
vt 1.000000 0.000000
vt 0.500000 0.500000
vt 0.000000 0.000000
vt 1.000000 0.000000
vt 0.000000 0.000000
vt 1.000000 0.000000
vt 0.000000 0.000000
vt 1.000000 0.000000
vt 0.000000 0.000000
vt 1.000000 0.000000
vt 0.000000 0.000000
vt 1.000000 0.000000
vt 0.000000 0.000000
vt 1.000000 0.000000
vt 0.000000 0.000000
vt 1.000000 0.000000
vt 0.000000 0.000000
vt 1.000000 0.000000
vt 1.000000 1.000000
vt 0.000000 1.000000
vt 0.000000 0.000000
vt 1.000000 0.000000
vt 1.000000 1.000000
vt 0.000000 1.000000
vt 0.000000 0.000000
vt 1.000000 0.000000
vt 1.000000 1.000000
vt 0.000000 1.000000
vt 0.000000 0.000000
vt 1.000000 0.000000
vt 1.000000 1.000000
vt 0.000000 1.000000
vt 0.000000 0.000000
vt 1.000000 0.000000
vt 1.000000 1.000000
vt 0.000000 1.000000
vt 0.000000 0.000000
vt 1.000000 0.000000
vt 1.000000 1.000000
vt 0.000000 1.000000
vt 0.000000 0.000000
vt 1.000000 0.000000
vt 1.000000 1.000000
vt 0.000000 1.000000
vt 0.000000 0.000000
vt 1.000000 0.000000
vt 1.000000 1.000000
vt 0.000000 1.000000
vt 0.000000 0.000000
vt 1.000000 0.000000
vt 1.000000 1.000000
vt 0.000000 1.000000
vt 0.000000 0.000000
vt 1.000000 0.000000
vt 1.000000 1.000000
vt 0.000000 1.000000
vt 0.000000 0.000000
vt 1.000000 0.000000
vt 1.000000 1.000000
vt 0.000000 1.000000
vt 0.000000 0.000000
vt 1.000000 0.000000
vt 1.000000 1.000000
vt 0.000000 1.000000
vt 0.000000 0.000000
vt 1.000000 0.000000
vt 1.000000 1.000000
vt 0.000000 1.000000
vt 0.000000 0.000000
vt 1.000000 0.000000
vt 1.000000 1.000000
vt 0.000000 1.000000
vt 0.000000 0.000000
vt 1.000000 0.000000
vt 1.000000 1.000000
vt 0.000000 1.000000
vt 0.000000 0.000000
vt 1.000000 0.000000
vt 1.000000 1.000000
vt 0.000000 1.000000
vt 0.000000 0.000000
vt 1.000000 0.000000
vt 1.000000 1.000000
vt 0.000000 1.000000
vt 0.000000 0.000000
vt 1.000000 0.000000
vt 1.000000 1.000000
vt 0.000000 1.000000
vt 0.000000 0.000000
vt 1.000000 0.000000
vt 1.000000 1.000000
vt 0.000000 1.000000
vt 0.000000 0.000000
vt 1.000000 0.000000
vt 1.000000 1.000000
vt 0.000000 1.000000
vt 0.000000 0.000000
vt 1.000000 0.000000
vt 1.000000 1.000000
vt 0.000000 1.000000
vt 0.000000 0.000000
vt 1.000000 0.000000
vt 1.000000 1.000000
vt 0.000000 1.000000
vt 0.000000 0.000000
vt 1.000000 0.000000
vt 1.000000 1.000000
vt 0.000000 1.000000
vt 0.000000 0.000000
vt 1.000000 0.000000
vt 1.000000 1.000000
vt 0.000000 1.000000
vt 0.000000 0.000000
vt 1.000000 0.000000
vt 1.000000 1.000000
vt 0.000000 1.000000
vt 0.000000 0.000000
vt 1.000000 0.000000
vt 1.000000 1.000000
vt 0.000000 1.000000
vt 0.000000 0.000000
vt 1.000000 0.000000
vt 1.000000 1.000000
vt 0.000000 1.000000
vt 0.000000 0.000000
vt 1.000000 0.000000
vt 1.000000 1.000000
vt 0.000000 1.000000
vt 0.000000 0.000000
vt 1.000000 0.000000
vt 1.000000 1.000000
vt 0.000000 1.000000
vt 0.000000 0.000000
vt 1.000000 0.000000
vt 1.000000 1.000000
vt 0.000000 1.000000
vt 0.000000 0.000000
vt 1.000000 0.000000
vt 1.000000 1.000000
vt 0.000000 1.000000
vt 0.000000 0.000000
vt 1.000000 0.000000
vt 1.000000 1.000000
vt 0.000000 1.000000
vt 0.000000 0.000000
vt 1.000000 0.000000
vt 1.000000 1.000000
vt 0.000000 1.000000
vt 0.000000 0.000000
vt 1.000000 0.000000
vt 1.000000 1.000000
vt 0.000000 1.000000
vt 0.000000 0.000000
vt 1.000000 0.000000
vt 1.000000 1.000000
vt 0.000000 1.000000
vt 0.000000 0.000000
vt 1.000000 0.000000
vt 1.000000 1.000000
vt 0.000000 1.000000
vt 0.000000 0.000000
vt 1.000000 0.000000
vt 1.000000 1.000000
vt 0.000000 1.000000
vt 0.000000 0.000000
vt 1.000000 0.000000
vt 1.000000 1.000000
vt 0.000000 1.000000
vt 0.000000 0.000000
vt 1.000000 0.000000
vt 1.000000 1.000000
vt 0.000000 1.000000
vt 0.000000 0.000000
vt 1.000000 0.000000
vt 1.000000 1.000000
vt 0.000000 1.000000
vt 0.000000 0.000000
vt 1.000000 0.000000
vt 1.000000 1.000000
vt 0.000000 1.000000
vt 0.000000 0.000000
vt 1.000000 0.000000
vt 1.000000 1.000000
vt 0.000000 1.000000
vt 0.000000 0.000000
vt 1.000000 0.000000
vt 1.000000 1.000000
vt 0.000000 1.000000
vt 0.000000 0.000000
vt 1.000000 0.000000
vt 1.000000 1.000000
vt 0.000000 1.000000
vt 0.000000 0.000000
vt 1.000000 0.000000
vt 1.000000 1.000000
vt 0.000000 1.000000
vt 0.000000 0.000000
vt 1.000000 0.000000
vt 1.000000 1.000000
vt 0.000000 1.000000
vt 0.000000 0.000000
vt 1.000000 0.000000
vt 1.000000 1.000000
vt 0.000000 1.000000
vt 0.500000 0.500000
vt 0.000000 0.000000
vt 1.000000 0.000000
vt 0.000000 0.000000
vt 1.000000 0.000000
vt 0.000000 0.000000
vt 1.000000 0.000000
vt 0.000000 0.000000
vt 1.000000 0.000000
vt 0.000000 0.000000
vt 1.000000 0.000000
vt 0.000000 0.000000
vt 1.000000 0.000000
vt 0.000000 0.000000
vt 1.000000 0.000000
vt 0.500000 0.500000
vt 0.000000 0.000000
vt 1.000000 0.000000
vt 0.000000 0.000000
vt 1.000000 0.000000
vt 0.000000 0.000000
vt 1.000000 0.000000
vt 0.000000 0.000000
vt 1.000000 0.000000
vt 0.000000 0.000000
vt 1.000000 0.000000
vt 0.000000 0.000000
vt 1.000000 0.000000
vt 0.000000 0.000000
vt 1.000000 0.000000
vt 0.000000 0.000000
vt 1.000000 0.000000
vt 1.000000 1.000000
vt 0.000000 1.000000
vt 0.000000 0.000000
vt 1.000000 0.000000
vt 1.000000 1.000000
vt 0.000000 1.000000
vt 0.000000 0.000000
vt 1.000000 0.000000
vt 1.000000 1.000000
vt 0.000000 1.000000
vt 0.000000 0.000000
vt 1.000000 0.000000
vt 1.000000 1.000000
vt 0.000000 1.000000
vt 0.000000 0.000000
vt 1.000000 0.000000
vt 1.000000 1.000000
vt 0.000000 1.000000
vt 0.000000 0.000000
vt 1.000000 0.000000
vt 1.000000 1.000000
vt 0.000000 1.000000
vt 0.000000 0.000000
vt 1.000000 0.000000
vt 1.000000 1.000000
vt 0.000000 1.000000
vt 0.000000 0.000000
vt 1.000000 0.000000
vt 1.000000 1.000000
vt 0.000000 1.000000
vt 0.000000 0.000000
vt 1.000000 0.000000
vt 1.000000 1.000000
vt 0.000000 1.000000
vt 0.000000 0.000000
vt 1.000000 0.000000
vt 1.000000 1.000000
vt 0.000000 1.000000
vt 0.000000 0.000000
vt 1.000000 0.000000
vt 1.000000 1.000000
vt 0.000000 1.000000
vt 0.000000 0.000000
vt 1.000000 0.000000
vt 1.000000 1.000000
vt 0.000000 1.000000
vt 0.000000 0.000000
vt 1.000000 0.000000
vt 1.000000 1.000000
vt 0.000000 1.000000
vt 0.000000 0.000000
vt 1.000000 0.000000
vt 1.000000 1.000000
vt 0.000000 1.000000
vt 0.000000 0.000000
vt 1.000000 0.000000
vt 1.000000 1.000000
vt 0.000000 1.000000
vt 0.000000 0.000000
vt 1.000000 0.000000
vt 1.000000 1.000000
vt 0.000000 1.000000
vt 0.000000 0.000000
vt 1.000000 0.000000
vt 1.000000 1.000000
vt 0.000000 1.000000
vt 0.000000 0.000000
vt 1.000000 0.000000
vt 1.000000 1.000000
vt 0.000000 1.000000
vt 0.000000 0.000000
vt 1.000000 0.000000
vt 1.000000 1.000000
vt 0.000000 1.000000
vt 0.000000 0.000000
vt 1.000000 0.000000
vt 1.000000 1.000000
vt 0.000000 1.000000
vt 0.000000 0.000000
vt 1.000000 0.000000
vt 1.000000 1.000000
vt 0.000000 1.000000
vt 0.000000 0.000000
vt 1.000000 0.000000
vt 1.000000 1.000000
vt 0.000000 1.000000
vt 0.000000 0.000000
vt 1.000000 0.000000
vt 1.000000 1.000000
vt 0.000000 1.000000
vt 0.000000 0.000000
vt 1.000000 0.000000
vt 1.000000 1.000000
vt 0.000000 1.000000
vt 0.000000 0.000000
vt 1.000000 0.000000
vt 1.000000 1.000000
vt 0.000000 1.000000
vt 0.000000 0.000000
vt 1.000000 0.000000
vt 1.000000 1.000000
vt 0.000000 1.000000
vt 0.000000 0.000000
vt 1.000000 0.000000
vt 1.000000 1.000000
vt 0.000000 1.000000
vt 0.000000 0.000000
vt 1.000000 0.000000
vt 1.000000 1.000000
vt 0.000000 1.000000
vt 0.000000 0.000000
vt 1.000000 0.000000
vt 1.000000 1.000000
vt 0.000000 1.000000
vt 0.000000 0.000000
vt 1.000000 0.000000
vt 1.000000 1.000000
vt 0.000000 1.000000
vt 0.000000 0.000000
vt 1.000000 0.000000
vt 1.000000 1.000000
vt 0.000000 1.000000
vt 0.000000 0.000000
vt 1.000000 0.000000
vt 1.000000 1.000000
vt 0.000000 1.000000
vt 0.000000 0.000000
vt 1.000000 0.000000
vt 1.000000 1.000000
vt 0.000000 1.000000
vt 0.000000 0.000000
vt 1.000000 0.000000
vt 1.000000 1.000000
vt 0.000000 1.000000
vt 0.000000 0.000000
vt 1.000000 0.000000
vt 1.000000 1.000000
vt 0.000000 1.000000
vt 0.000000 0.000000
vt 1.000000 0.000000
vt 1.000000 1.000000
vt 0.000000 1.000000
vt 0.000000 0.000000
vt 1.000000 0.000000
vt 1.000000 1.000000
vt 0.000000 1.000000
vt 0.000000 0.000000
vt 1.000000 0.000000
vt 1.000000 1.000000
vt 0.000000 1.000000
vt 0.000000 0.000000
vt 1.000000 0.000000
vt 1.000000 1.000000
vt 0.000000 1.000000
vt 0.000000 0.000000
vt 1.000000 0.000000
vt 1.000000 1.000000
vt 0.000000 1.000000
vt 0.000000 0.000000
vt 1.000000 0.000000
vt 1.000000 1.000000
vt 0.000000 1.000000
vt 0.000000 0.000000
vt 1.000000 0.000000
vt 1.000000 1.000000
vt 0.000000 1.000000
vt 0.000000 0.000000
vt 1.000000 0.000000
vt 1.000000 1.000000
vt 0.000000 1.000000
vt 0.000000 0.000000
vt 1.000000 0.000000
vt 1.000000 1.000000
vt 0.000000 1.000000
vt 0.000000 0.000000
vt 1.000000 0.000000
vt 1.000000 1.000000
vt 0.000000 1.000000
vt 0.000000 0.000000
vt 1.000000 0.000000
vt 1.000000 1.000000
vt 0.000000 1.000000
vt 0.000000 0.000000
vt 1.000000 0.000000
vt 1.000000 1.000000
vt 0.000000 1.000000
vt 0.500000 0.500000
vt 0.000000 0.000000
vt 1.000000 0.000000
vt 0.000000 0.000000
vt 1.000000 0.000000
vt 0.000000 0.000000
vt 1.000000 0.000000
vt 0.000000 0.000000
vt 1.000000 0.000000
vt 0.000000 0.000000
vt 1.000000 0.000000
vt 0.000000 0.000000
vt 1.000000 0.000000
vt 0.000000 0.000000
vt 1.000000 0.000000
vt 0.500000 0.500000
vt 0.000000 0.000000
vt 1.000000 0.000000
vt 0.000000 0.000000
vt 1.000000 0.000000
vt 0.000000 0.000000
vt 1.000000 0.000000
vt 0.000000 0.000000
vt 1.000000 0.000000
vt 0.000000 0.000000
vt 1.000000 0.000000
vt 0.000000 0.000000
vt 1.000000 0.000000
vt 0.000000 0.000000
vt 1.000000 0.000000
vt 0.000000 0.000000
vt 1.000000 0.000000
vt 1.000000 1.000000
vt 0.000000 1.000000
vt 0.000000 0.000000
vt 1.000000 0.000000
vt 1.000000 1.000000
vt 0.000000 1.000000
vt 0.000000 0.000000
vt 1.000000 0.000000
vt 1.000000 1.000000
vt 0.000000 1.000000
vt 0.000000 0.000000
vt 1.000000 0.000000
vt 1.000000 1.000000
vt 0.000000 1.000000
vt 0.000000 0.000000
vt 1.000000 0.000000
vt 1.000000 1.000000
vt 0.000000 1.000000
vt 0.000000 0.000000
vt 1.000000 0.000000
vt 1.000000 1.000000
vt 0.000000 1.000000
vt 0.000000 0.000000
vt 1.000000 0.000000
vt 1.000000 1.000000
vt 0.000000 1.000000
vt 0.000000 0.000000
vt 1.000000 0.000000
vt 1.000000 1.000000
vt 0.000000 1.000000
vt 0.000000 0.000000
vt 1.000000 0.000000
vt 1.000000 1.000000
vt 0.000000 1.000000
vt 0.000000 0.000000
vt 1.000000 0.000000
vt 1.000000 1.000000
vt 0.000000 1.000000
vt 0.000000 0.000000
vt 1.000000 0.000000
vt 1.000000 1.000000
vt 0.000000 1.000000
vt 0.000000 0.000000
vt 1.000000 0.000000
vt 1.000000 1.000000
vt 0.000000 1.000000
vt 0.000000 0.000000
vt 1.000000 0.000000
vt 1.000000 1.000000
vt 0.000000 1.000000
vt 0.000000 0.000000
vt 1.000000 0.000000
vt 1.000000 1.000000
vt 0.000000 1.000000
vt 0.000000 0.000000
vt 1.000000 0.000000
vt 1.000000 1.000000
vt 0.000000 1.000000
vt 0.000000 0.000000
vt 1.000000 0.000000
vt 1.000000 1.000000
vt 0.000000 1.000000
vt 0.000000 0.000000
vt 1.000000 0.000000
vt 1.000000 1.000000
vt 0.000000 1.000000
vt 0.000000 0.000000
vt 1.000000 0.000000
vt 1.000000 1.000000
vt 0.000000 1.000000
vt 0.000000 0.000000
vt 1.000000 0.000000
vt 1.000000 1.000000
vt 0.000000 1.000000
vt 0.000000 0.000000
vt 1.000000 0.000000
vt 1.000000 1.000000
vt 0.000000 1.000000
vt 0.000000 0.000000
vt 1.000000 0.000000
vt 1.000000 1.000000
vt 0.000000 1.000000
vt 0.000000 0.000000
vt 1.000000 0.000000
vt 1.000000 1.000000
vt 0.000000 1.000000
vt 0.000000 0.000000
vt 1.000000 0.000000
vt 1.000000 1.000000
vt 0.000000 1.000000
vt 0.000000 0.000000
vt 1.000000 0.000000
vt 1.000000 1.000000
vt 0.000000 1.000000
vt 0.000000 0.000000
vt 1.000000 0.000000
vt 1.000000 1.000000
vt 0.000000 1.000000
vt 0.000000 0.000000
vt 1.000000 0.000000
vt 1.000000 1.000000
vt 0.000000 1.000000
vt 0.000000 0.000000
vt 1.000000 0.000000
vt 1.000000 1.000000
vt 0.000000 1.000000
vt 0.000000 0.000000
vt 1.000000 0.000000
vt 1.000000 1.000000
vt 0.000000 1.000000
vt 0.000000 0.000000
vt 1.000000 0.000000
vt 1.000000 1.000000
vt 0.000000 1.000000
vt 0.000000 0.000000
vt 1.000000 0.000000
vt 1.000000 1.000000
vt 0.000000 1.000000
vt 0.000000 0.000000
vt 1.000000 0.000000
vt 1.000000 1.000000
vt 0.000000 1.000000
vt 0.000000 0.000000
vt 1.000000 0.000000
vt 1.000000 1.000000
vt 0.000000 1.000000
vt 0.000000 0.000000
vt 1.000000 0.000000
vt 1.000000 1.000000
vt 0.000000 1.000000
vt 0.000000 0.000000
vt 1.000000 0.000000
vt 1.000000 1.000000
vt 0.000000 1.000000
vt 0.000000 0.000000
vt 1.000000 0.000000
vt 1.000000 1.000000
vt 0.000000 1.000000
vt 0.000000 0.000000
vt 1.000000 0.000000
vt 1.000000 1.000000
vt 0.000000 1.000000
vt 0.000000 0.000000
vt 1.000000 0.000000
vt 1.000000 1.000000
vt 0.000000 1.000000
vt 0.000000 0.000000
vt 1.000000 0.000000
vt 1.000000 1.000000
vt 0.000000 1.000000
vt 0.000000 0.000000
vt 1.000000 0.000000
vt 1.000000 1.000000
vt 0.000000 1.000000
vt 0.000000 0.000000
vt 1.000000 0.000000
vt 1.000000 1.000000
vt 0.000000 1.000000
vt 0.000000 0.000000
vt 1.000000 0.000000
vt 1.000000 1.000000
vt 0.000000 1.000000
vt 0.000000 0.000000
vt 1.000000 0.000000
vt 1.000000 1.000000
vt 0.000000 1.000000
vt 0.000000 0.000000
vt 1.000000 0.000000
vt 1.000000 1.000000
vt 0.000000 1.000000
vt 0.000000 0.000000
vt 1.000000 0.000000
vt 1.000000 1.000000
vt 0.000000 1.000000
vt 0.000000 0.000000
vt 1.000000 0.000000
vt 1.000000 1.000000
vt 0.000000 1.000000
vt 0.000000 0.000000
vt 1.000000 0.000000
vt 1.000000 1.000000
vt 0.000000 1.000000
vt 0.000000 0.000000
vt 1.000000 0.000000
vt 1.000000 1.000000
vt 0.000000 1.000000
vt 0.500000 0.500000
vt 0.000000 0.000000
vt 1.000000 0.000000
vt 0.000000 0.000000
vt 1.000000 0.000000
vt 0.000000 0.000000
vt 1.000000 0.000000
vt 0.000000 0.000000
vt 1.000000 0.000000
vt 0.000000 0.000000
vt 1.000000 0.000000
vt 0.000000 0.000000
vt 1.000000 0.000000
vt 0.000000 0.000000
vt 1.000000 0.000000
vt 0.500000 0.500000
vt 0.000000 0.000000
vt 1.000000 0.000000
vt 0.000000 0.000000
vt 1.000000 0.000000
vt 0.000000 0.000000
vt 1.000000 0.000000
vt 0.000000 0.000000
vt 1.000000 0.000000
vt 0.000000 0.000000
vt 1.000000 0.000000
vt 0.000000 0.000000
vt 1.000000 0.000000
vt 0.000000 0.000000
vt 1.000000 0.000000
vt 0.000000 0.000000
vt 1.000000 0.000000
vt 1.000000 1.000000
vt 0.000000 1.000000
vt 0.000000 0.000000
vt 1.000000 0.000000
vt 1.000000 1.000000
vt 0.000000 1.000000
vt 0.000000 0.000000
vt 1.000000 0.000000
vt 1.000000 1.000000
vt 0.000000 1.000000
vt 0.000000 0.000000
vt 1.000000 0.000000
vt 1.000000 1.000000
vt 0.000000 1.000000
vt 0.000000 0.000000
vt 1.000000 0.000000
vt 1.000000 1.000000
vt 0.000000 1.000000
vt 0.000000 0.000000
vt 1.000000 0.000000
vt 1.000000 1.000000
vt 0.000000 1.000000
vt 0.000000 0.000000
vt 1.000000 0.000000
vt 1.000000 1.000000
vt 0.000000 1.000000
vt 0.000000 0.000000
vt 1.000000 0.000000
vt 1.000000 1.000000
vt 0.000000 1.000000
vt 0.000000 0.000000
vt 1.000000 0.000000
vt 1.000000 1.000000
vt 0.000000 1.000000
vt 0.000000 0.000000
vt 1.000000 0.000000
vt 1.000000 1.000000
vt 0.000000 1.000000
vt 0.000000 0.000000
vt 1.000000 0.000000
vt 1.000000 1.000000
vt 0.000000 1.000000
vt 0.000000 0.000000
vt 1.000000 0.000000
vt 1.000000 1.000000
vt 0.000000 1.000000
vt 0.000000 0.000000
vt 1.000000 0.000000
vt 1.000000 1.000000
vt 0.000000 1.000000
vt 0.000000 0.000000
vt 1.000000 0.000000
vt 1.000000 1.000000
vt 0.000000 1.000000
vt 0.000000 0.000000
vt 1.000000 0.000000
vt 1.000000 1.000000
vt 0.000000 1.000000
vt 0.000000 0.000000
vt 1.000000 0.000000
vt 1.000000 1.000000
vt 0.000000 1.000000
vt 0.000000 0.000000
vt 1.000000 0.000000
vt 1.000000 1.000000
vt 0.000000 1.000000
vt 0.000000 0.000000
vt 1.000000 0.000000
vt 1.000000 1.000000
vt 0.000000 1.000000
vt 0.000000 0.000000
vt 1.000000 0.000000
vt 1.000000 1.000000
vt 0.000000 1.000000
vt 0.000000 0.000000
vt 1.000000 0.000000
vt 1.000000 1.000000
vt 0.000000 1.000000
vt 0.000000 0.000000
vt 1.000000 0.000000
vt 1.000000 1.000000
vt 0.000000 1.000000
vt 0.000000 0.000000
vt 1.000000 0.000000
vt 1.000000 1.000000
vt 0.000000 1.000000
vt 0.000000 0.000000
vt 1.000000 0.000000
vt 1.000000 1.000000
vt 0.000000 1.000000
vt 0.000000 0.000000
vt 1.000000 0.000000
vt 1.000000 1.000000
vt 0.000000 1.000000
vt 0.000000 0.000000
vt 1.000000 0.000000
vt 1.000000 1.000000
vt 0.000000 1.000000
vt 0.000000 0.000000
vt 1.000000 0.000000
vt 1.000000 1.000000
vt 0.000000 1.000000
vt 0.000000 0.000000
vt 1.000000 0.000000
vt 1.000000 1.000000
vt 0.000000 1.000000
vt 0.000000 0.000000
vt 1.000000 0.000000
vt 1.000000 1.000000
vt 0.000000 1.000000
vt 0.000000 0.000000
vt 1.000000 0.000000
vt 1.000000 1.000000
vt 0.000000 1.000000
vt 0.000000 0.000000
vt 1.000000 0.000000
vt 1.000000 1.000000
vt 0.000000 1.000000
vt 0.000000 0.000000
vt 1.000000 0.000000
vt 1.000000 1.000000
vt 0.000000 1.000000
vt 0.000000 0.000000
vt 1.000000 0.000000
vt 1.000000 1.000000
vt 0.000000 1.000000
vt 0.000000 0.000000
vt 1.000000 0.000000
vt 1.000000 1.000000
vt 0.000000 1.000000
vt 0.000000 0.000000
vt 1.000000 0.000000
vt 1.000000 1.000000
vt 0.000000 1.000000
vt 0.000000 0.000000
vt 1.000000 0.000000
vt 1.000000 1.000000
vt 0.000000 1.000000
vt 0.000000 0.000000
vt 1.000000 0.000000
vt 1.000000 1.000000
vt 0.000000 1.000000
vt 0.000000 0.000000
vt 1.000000 0.000000
vt 1.000000 1.000000
vt 0.000000 1.000000
vt 0.000000 0.000000
vt 1.000000 0.000000
vt 1.000000 1.000000
vt 0.000000 1.000000
vt 0.000000 0.000000
vt 1.000000 0.000000
vt 1.000000 1.000000
vt 0.000000 1.000000
vt 0.000000 0.000000
vt 1.000000 0.000000
vt 1.000000 1.000000
vt 0.000000 1.000000
usemtl Wood
f 1/1 2/2 3/3
f 1/1 3/3 4/4
f 5/5 6/6 7/7
f 5/5 7/7 8/8
f 9/9 10/10 11/11
f 9/9 11/11 12/12
f 13/13 14/14 15/15
f 13/13 15/15 16/16
f 17/17 18/18 19/19
f 17/17 19/19 20/20
f 21/21 22/22 23/23
f 21/21 23/23 24/24
f 25/25 26/26 27/27
f 25/25 27/27 28/28
f 29/29 30/30 31/31
f 29/29 31/31 32/32
f 33/33 34/34 35/35
f 33/33 35/35 36/36
f 37/37 38/38 39/39
f 37/37 39/39 40/40
f 41/41 42/42 43/43
f 41/41 43/43 44/44
f 45/45 46/46 47/47
f 45/45 47/47 48/48
f 49/49 50/50 51/51
f 49/49 51/51 52/52
f 53/53 55/55 54/54
f 53/53 57/57 56/56
f 53/53 59/59 58/58
f 53/53 61/61 60/60
f 53/53 63/63 62/62
f 53/53 65/65 64/64
f 53/53 67/67 66/66
f 68/68 69/69 70/70
f 68/68 71/71 72/72
f 68/68 73/73 74/74
f 68/68 75/75 76/76
f 68/68 77/77 78/78
f 68/68 79/79 80/80
f 68/68 81/81 82/82
usemtl Metal
f 83/83 84/84 85/85
f 83/83 85/85 86/86
f 87/87 88/88 89/89
f 87/87 89/89 90/90
f 91/91 92/92 93/93
f 91/91 93/93 94/94
f 95/95 96/96 97/97
f 95/95 97/97 98/98
f 99/99 100/100 101/101
f 99/99 101/101 102/102
f 103/103 104/104 105/105
f 103/103 105/105 106/106
f 107/107 108/108 109/109
f 107/107 109/109 110/110
f 111/111 112/112 113/113
f 111/111 113/113 114/114
f 115/115 116/116 117/117
f 115/115 117/117 118/118
f 119/119 120/120 121/121
f 119/119 121/121 122/122
f 123/123 124/124 125/125
f 123/123 125/125 126/126
f 127/127 128/128 129/129
f 127/127 129/129 130/130
f 131/131 132/132 133/133
f 131/131 133/133 134/134
f 135/135 136/136 137/137
f 135/135 137/137 138/138
f 139/139 140/140 141/141
f 139/139 141/141 142/142
f 143/143 144/144 145/145
f 143/143 145/145 146/146
f 147/147 148/148 149/149
f 147/147 149/149 150/150
f 151/151 152/152 153/153
f 151/151 153/153 154/154
f 155/155 156/156 157/157
f 155/155 157/157 158/158
f 159/159 160/160 161/161
f 159/159 161/161 162/162
f 163/163 164/164 165/165
f 163/163 165/165 166/166
f 167/167 168/168 169/169
f 167/167 169/169 170/170
f 171/171 172/172 173/173
f 171/171 173/173 174/174
f 175/175 176/176 177/177
f 175/175 177/177 178/178
f 179/179 180/180 181/181
f 179/179 181/181 182/182
f 183/183 184/184 185/185
f 183/183 185/185 186/186
f 187/187 188/188 189/189
f 187/187 189/189 190/190
f 191/191 192/192 193/193
f 191/191 193/193 194/194
f 195/195 196/196 197/197
f 195/195 197/197 198/198
f 199/199 200/200 201/201
f 199/199 201/201 202/202
f 203/203 204/204 205/205
f 203/203 205/205 206/206
f 207/207 208/208 209/209
f 207/207 209/209 210/210
f 211/211 212/212 213/213
f 211/211 213/213 214/214
f 215/215 216/216 217/217
f 215/215 217/217 218/218
f 219/219 220/220 221/221
f 219/219 221/221 222/222
f 223/223 224/224 225/225
f 223/223 225/225 226/226
f 227/227 228/228 229/229
f 227/227 229/229 230/230
f 231/231 232/232 233/233
f 231/231 233/233 234/234
f 235/235 236/236 237/237
f 235/235 237/237 238/238
f 239/239 240/240 241/241
f 239/239 241/241 242/242
f 243/243 244/244 245/245
f 243/243 245/245 246/246
f 247/247 248/248 249/249
f 247/247 249/249 250/250
f 251/251 252/252 253/253
f 251/251 253/253 254/254
f 255/255 256/256 257/257
f 255/255 257/257 258/258
f 259/259 260/260 261/261
f 259/259 261/261 262/262
f 263/263 264/264 265/265
f 263/263 265/265 266/266
f 267/267 268/268 269/269
f 267/267 269/269 270/270
f 271/271 273/273 272/272
f 271/271 275/275 274/274
f 271/271 277/277 276/276
f 271/271 279/279 278/278
f 271/271 281/281 280/280
f 271/271 283/283 282/282
f 271/271 285/285 284/284
f 286/286 287/287 288/288
f 286/286 289/289 290/290
f 286/286 291/291 292/292
f 286/286 293/293 294/294
f 286/286 295/295 296/296
f 286/286 297/297 298/298
f 286/286 299/299 300/300
f 301/301 302/302 303/303
f 301/301 303/303 304/304
f 305/305 306/306 307/307
f 305/305 307/307 308/308
f 309/309 310/310 311/311
f 309/309 311/311 312/312
f 313/313 314/314 315/315
f 313/313 315/315 316/316
f 317/317 318/318 319/319
f 317/317 319/319 320/320
f 321/321 322/322 323/323
f 321/321 323/323 324/324
f 325/325 326/326 327/327
f 325/325 327/327 328/328
f 329/329 330/330 331/331
f 329/329 331/331 332/332
f 333/333 334/334 335/335
f 333/333 335/335 336/336
f 337/337 338/338 339/339
f 337/337 339/339 340/340
f 341/341 342/342 343/343
f 341/341 343/343 344/344
f 345/345 346/346 347/347
f 345/345 347/347 348/348
f 349/349 350/350 351/351
f 349/349 351/351 352/352
f 353/353 354/354 355/355
f 353/353 355/355 356/356
f 357/357 358/358 359/359
f 357/357 359/359 360/360
f 361/361 362/362 363/363
f 361/361 363/363 364/364
f 365/365 366/366 367/367
f 365/365 367/367 368/368
f 369/369 370/370 371/371
f 369/369 371/371 372/372
f 373/373 374/374 375/375
f 373/373 375/375 376/376
f 377/377 378/378 379/379
f 377/377 379/379 380/380
f 381/381 382/382 383/383
f 381/381 383/383 384/384
f 385/385 386/386 387/387
f 385/385 387/387 388/388
f 389/389 390/390 391/391
f 389/389 391/391 392/392
f 393/393 394/394 395/395
f 393/393 395/395 396/396
f 397/397 398/398 399/399
f 397/397 399/399 400/400
f 401/401 402/402 403/403
f 401/401 403/403 404/404
f 405/405 406/406 407/407
f 405/405 407/407 408/408
f 409/409 410/410 411/411
f 409/409 411/411 412/412
f 413/413 414/414 415/415
f 413/413 415/415 416/416
f 417/417 418/418 419/419
f 417/417 419/419 420/420
f 421/421 422/422 423/423
f 421/421 423/423 424/424
f 425/425 426/426 427/427
f 425/425 427/427 428/428
f 429/429 430/430 431/431
f 429/429 431/431 432/432
f 433/433 434/434 435/435
f 433/433 435/435 436/436
f 437/437 438/438 439/439
f 437/437 439/439 440/440
f 441/441 442/442 443/443
f 441/441 443/443 444/444
f 445/445 446/446 447/447
f 445/445 447/447 448/448
f 449/449 450/450 451/451
f 449/449 451/451 452/452
f 453/453 454/454 455/455
f 453/453 455/455 456/456
f 457/457 458/458 459/459
f 457/457 459/459 460/460
usemtl Wood
f 461/461 462/462 463/463
f 461/461 463/463 464/464
f 465/465 466/466 467/467
f 465/465 467/467 468/468
f 469/469 470/470 471/471
f 469/469 471/471 472/472
f 473/473 474/474 475/475
f 473/473 475/475 476/476
f 477/477 478/478 479/479
f 477/477 479/479 480/480
f 481/481 482/482 483/483
f 481/481 483/483 484/484
f 485/485 486/486 487/487
f 485/485 487/487 488/488
f 489/489 491/491 490/490
f 489/489 493/493 492/492
f 489/489 495/495 494/494
f 489/489 497/497 496/496
f 489/489 499/499 498/498
f 489/489 501/501 500/500
f 489/489 503/503 502/502
f 504/504 505/505 506/506
f 504/504 507/507 508/508
f 504/504 509/509 510/510
f 504/504 511/511 512/512
f 504/504 513/513 514/514
f 504/504 515/515 516/516
f 504/504 517/517 518/518
usemtl Metal
f 519/519 520/520 521/521
f 519/519 521/521 522/522
f 523/523 524/524 525/525
f 523/523 525/525 526/526
f 527/527 528/528 529/529
f 527/527 529/529 530/530
f 531/531 532/532 533/533
f 531/531 533/533 534/534
f 535/535 536/536 537/537
f 535/535 537/537 538/538
f 539/539 540/540 541/541
f 539/539 541/541 542/542
f 543/543 544/544 545/545
f 543/543 545/545 546/546
f 547/547 548/548 549/549
f 547/547 549/549 550/550
f 551/551 552/552 553/553
f 551/551 553/553 554/554
f 555/555 556/556 557/557
f 555/555 557/557 558/558
f 559/559 560/560 561/561
f 559/559 561/561 562/562
f 563/563 564/564 565/565
f 563/563 565/565 566/566
f 567/567 568/568 569/569
f 567/567 569/569 570/570
f 571/571 572/572 573/573
f 571/571 573/573 574/574
f 575/575 576/576 577/577
f 575/575 577/577 578/578
f 579/579 580/580 581/581
f 579/579 581/581 582/582
f 583/583 584/584 585/585
f 583/583 585/585 586/586
f 587/587 588/588 589/589
f 587/587 589/589 590/590
f 591/591 592/592 593/593
f 591/591 593/593 594/594
f 595/595 596/596 597/597
f 595/595 597/597 598/598
f 599/599 600/600 601/601
f 599/599 601/601 602/602
f 603/603 604/604 605/605
f 603/603 605/605 606/606
f 607/607 608/608 609/609
f 607/607 609/609 610/610
f 611/611 612/612 613/613
f 611/611 613/613 614/614
f 615/615 616/616 617/617
f 615/615 617/617 618/618
f 619/619 620/620 621/621
f 619/619 621/621 622/622
f 623/623 624/624 625/625
f 623/623 625/625 626/626
f 627/627 628/628 629/629
f 627/627 629/629 630/630
f 631/631 632/632 633/633
f 631/631 633/633 634/634
f 635/635 636/636 637/637
f 635/635 637/637 638/638
f 639/639 640/640 641/641
f 639/639 641/641 642/642
f 643/643 644/644 645/645
f 643/643 645/645 646/646
f 647/647 648/648 649/649
f 647/647 649/649 650/650
f 651/651 652/652 653/653
f 651/651 653/653 654/654
f 655/655 656/656 657/657
f 655/655 657/657 658/658
f 659/659 660/660 661/661
f 659/659 661/661 662/662
f 663/663 664/664 665/665
f 663/663 665/665 666/666
f 667/667 668/668 669/669
f 667/667 669/669 670/670
f 671/671 672/672 673/673
f 671/671 673/673 674/674
f 675/675 676/676 677/677
f 675/675 677/677 678/678
f 679/679 680/680 681/681
f 679/679 681/681 682/682
f 683/683 684/684 685/685
f 683/683 685/685 686/686
f 687/687 688/688 689/689
f 687/687 689/689 690/690
f 691/691 692/692 693/693
f 691/691 693/693 694/694
f 695/695 696/696 697/697
f 695/695 697/697 698/698
f 699/699 700/700 701/701
f 699/699 701/701 702/702
f 703/703 704/704 705/705
f 703/703 705/705 706/706
f 707/707 709/709 708/708
f 707/707 711/711 710/710
f 707/707 713/713 712/712
f 707/707 715/715 714/714
f 707/707 717/717 716/716
f 707/707 719/719 718/718
f 707/707 721/721 720/720
f 722/722 723/723 724/724
f 722/722 725/725 726/726
f 722/722 727/727 728/728
f 722/722 729/729 730/730
f 722/722 731/731 732/732
f 722/722 733/733 734/734
f 722/722 735/735 736/736
f 737/737 738/738 739/739
f 737/737 739/739 740/740
f 741/741 742/742 743/743
f 741/741 743/743 744/744
f 745/745 746/746 747/747
f 745/745 747/747 748/748
f 749/749 750/750 751/751
f 749/749 751/751 752/752
f 753/753 754/754 755/755
f 753/753 755/755 756/756
f 757/757 758/758 759/759
f 757/757 759/759 760/760
f 761/761 762/762 763/763
f 761/761 763/763 764/764
f 765/765 766/766 767/767
f 765/765 767/767 768/768
f 769/769 770/770 771/771
f 769/769 771/771 772/772
f 773/773 774/774 775/775
f 773/773 775/775 776/776
f 777/777 778/778 779/779
f 777/777 779/779 780/780
f 781/781 782/782 783/783
f 781/781 783/783 784/784
f 785/785 786/786 787/787
f 785/785 787/787 788/788
f 789/789 790/790 791/791
f 789/789 791/791 792/792
f 793/793 794/794 795/795
f 793/793 795/795 796/796
f 797/797 798/798 799/799
f 797/797 799/799 800/800
f 801/801 802/802 803/803
f 801/801 803/803 804/804
f 805/805 806/806 807/807
f 805/805 807/807 808/808
f 809/809 810/810 811/811
f 809/809 811/811 812/812
f 813/813 814/814 815/815
f 813/813 815/815 816/816
f 817/817 818/818 819/819
f 817/817 819/819 820/820
f 821/821 822/822 823/823
f 821/821 823/823 824/824
f 825/825 826/826 827/827
f 825/825 827/827 828/828
f 829/829 830/830 831/831
f 829/829 831/831 832/832
f 833/833 834/834 835/835
f 833/833 835/835 836/836
f 837/837 838/838 839/839
f 837/837 839/839 840/840
f 841/841 842/842 843/843
f 841/841 843/843 844/844
f 845/845 846/846 847/847
f 845/845 847/847 848/848
f 849/849 850/850 851/851
f 849/849 851/851 852/852
f 853/853 854/854 855/855
f 853/853 855/855 856/856
f 857/857 858/858 859/859
f 857/857 859/859 860/860
f 861/861 862/862 863/863
f 861/861 863/863 864/864
f 865/865 866/866 867/867
f 865/865 867/867 868/868
f 869/869 870/870 871/871
f 869/869 871/871 872/872
f 873/873 874/874 875/875
f 873/873 875/875 876/876
f 877/877 878/878 879/879
f 877/877 879/879 880/880
f 881/881 882/882 883/883
f 881/881 883/883 884/884
f 885/885 886/886 887/887
f 885/885 887/887 888/888
f 889/889 890/890 891/891
f 889/889 891/891 892/892
f 893/893 894/894 895/895
f 893/893 895/895 896/896
