mtllib ../../../Materials/project_oen.mtl
o ax-tool-005_binoculars__clean
v -0.090000 0.020000 0.075000
v -0.057459 0.020000 0.067573
v -0.061798 0.340000 0.058563
v -0.090000 0.340000 0.065000
v -0.057459 0.020000 0.067573
v -0.031363 0.020000 0.046762
v -0.039181 0.340000 0.040527
v -0.061798 0.340000 0.058563
v -0.031363 0.020000 0.046762
v -0.016880 0.020000 0.016689
v -0.026630 0.340000 0.014464
v -0.039181 0.340000 0.040527
v -0.016880 0.020000 0.016689
v -0.016880 0.020000 -0.016689
v -0.026630 0.340000 -0.014464
v -0.026630 0.340000 0.014464
v -0.016880 0.020000 -0.016689
v -0.031363 0.020000 -0.046762
v -0.039181 0.340000 -0.040527
v -0.026630 0.340000 -0.014464
v -0.031363 0.020000 -0.046762
v -0.057459 0.020000 -0.067573
v -0.061798 0.340000 -0.058563
v -0.039181 0.340000 -0.040527
v -0.057459 0.020000 -0.067573
v -0.090000 0.020000 -0.075000
v -0.090000 0.340000 -0.065000
v -0.061798 0.340000 -0.058563
v -0.090000 0.020000 -0.075000
v -0.122541 0.020000 -0.067573
v -0.118202 0.340000 -0.058563
v -0.090000 0.340000 -0.065000
v -0.122541 0.020000 -0.067573
v -0.148637 0.020000 -0.046762
v -0.140819 0.340000 -0.040527
v -0.118202 0.340000 -0.058563
v -0.148637 0.020000 -0.046762
v -0.163120 0.020000 -0.016689
v -0.153370 0.340000 -0.014464
v -0.140819 0.340000 -0.040527
v -0.163120 0.020000 -0.016689
v -0.163120 0.020000 0.016689
v -0.153370 0.340000 0.014464
v -0.153370 0.340000 -0.014464
v -0.163120 0.020000 0.016689
v -0.148637 0.020000 0.046762
v -0.140819 0.340000 0.040527
v -0.153370 0.340000 0.014464
v -0.148637 0.020000 0.046762
v -0.122541 0.020000 0.067573
v -0.118202 0.340000 0.058563
v -0.140819 0.340000 0.040527
v -0.122541 0.020000 0.067573
v -0.090000 0.020000 0.075000
v -0.090000 0.340000 0.065000
v -0.118202 0.340000 0.058563
v -0.090000 0.020000 0.000000
v -0.090000 0.020000 0.075000
v -0.057459 0.020000 0.067573
v -0.057459 0.020000 0.067573
v -0.031363 0.020000 0.046762
v -0.031363 0.020000 0.046762
v -0.016880 0.020000 0.016689
v -0.016880 0.020000 0.016689
v -0.016880 0.020000 -0.016689
v -0.016880 0.020000 -0.016689
v -0.031363 0.020000 -0.046762
v -0.031363 0.020000 -0.046762
v -0.057459 0.020000 -0.067573
v -0.057459 0.020000 -0.067573
v -0.090000 0.020000 -0.075000
v -0.090000 0.020000 -0.075000
v -0.122541 0.020000 -0.067573
v -0.122541 0.020000 -0.067573
v -0.148637 0.020000 -0.046762
v -0.148637 0.020000 -0.046762
v -0.163120 0.020000 -0.016689
v -0.163120 0.020000 -0.016689
v -0.163120 0.020000 0.016689
v -0.163120 0.020000 0.016689
v -0.148637 0.020000 0.046762
v -0.148637 0.020000 0.046762
v -0.122541 0.020000 0.067573
v -0.122541 0.020000 0.067573
v -0.090000 0.020000 0.075000
v -0.090000 0.340000 0.000000
v -0.090000 0.340000 0.065000
v -0.061798 0.340000 0.058563
v -0.061798 0.340000 0.058563
v -0.039181 0.340000 0.040527
v -0.039181 0.340000 0.040527
v -0.026630 0.340000 0.014464
v -0.026630 0.340000 0.014464
v -0.026630 0.340000 -0.014464
v -0.026630 0.340000 -0.014464
v -0.039181 0.340000 -0.040527
v -0.039181 0.340000 -0.040527
v -0.061798 0.340000 -0.058563
v -0.061798 0.340000 -0.058563
v -0.090000 0.340000 -0.065000
v -0.090000 0.340000 -0.065000
v -0.118202 0.340000 -0.058563
v -0.118202 0.340000 -0.058563
v -0.140819 0.340000 -0.040527
v -0.140819 0.340000 -0.040527
v -0.153370 0.340000 -0.014464
v -0.153370 0.340000 -0.014464
v -0.153370 0.340000 0.014464
v -0.153370 0.340000 0.014464
v -0.140819 0.340000 0.040527
v -0.140819 0.340000 0.040527
v -0.118202 0.340000 0.058563
v -0.118202 0.340000 0.058563
v -0.090000 0.340000 0.065000
v -0.065000 0.130000 -0.050000
v 0.065000 0.130000 -0.050000
v 0.065000 0.230000 -0.050000
v -0.065000 0.230000 -0.050000
v 0.065000 0.130000 0.050000
v -0.065000 0.130000 0.050000
v -0.065000 0.230000 0.050000
v 0.065000 0.230000 0.050000
v -0.065000 0.130000 0.050000
v -0.065000 0.130000 -0.050000
v -0.065000 0.230000 -0.050000
v -0.065000 0.230000 0.050000
v 0.065000 0.130000 -0.050000
v 0.065000 0.130000 0.050000
v 0.065000 0.230000 0.050000
v 0.065000 0.230000 -0.050000
v -0.065000 0.230000 -0.050000
v 0.065000 0.230000 -0.050000
v 0.065000 0.230000 0.050000
v -0.065000 0.230000 0.050000
v -0.065000 0.130000 0.050000
v 0.065000 0.130000 0.050000
v 0.065000 0.130000 -0.050000
v -0.065000 0.130000 -0.050000
v 0.128000 0.350000 0.020000
v 0.115324 0.405537 0.020000
v 0.108116 0.402066 0.028000
v 0.120000 0.350000 0.028000
v 0.120000 0.350000 0.028000
v 0.108116 0.402066 0.028000
v 0.100909 0.398595 0.020000
v 0.112000 0.350000 0.020000
v 0.112000 0.350000 0.020000
v 0.100909 0.398595 0.020000
v 0.108116 0.402066 0.012000
v 0.120000 0.350000 0.012000
v 0.120000 0.350000 0.012000
v 0.108116 0.402066 0.012000
v 0.115324 0.405537 0.020000
v 0.128000 0.350000 0.020000
v 0.115324 0.405537 0.020000
v 0.079807 0.450074 0.020000
v 0.074819 0.443820 0.028000
v 0.108116 0.402066 0.028000
v 0.108116 0.402066 0.028000
v 0.074819 0.443820 0.028000
v 0.069831 0.437565 0.020000
v 0.100909 0.398595 0.020000
v 0.100909 0.398595 0.020000
v 0.069831 0.437565 0.020000
v 0.074819 0.443820 0.012000
v 0.108116 0.402066 0.012000
v 0.108116 0.402066 0.012000
v 0.074819 0.443820 0.012000
v 0.079807 0.450074 0.020000
v 0.115324 0.405537 0.020000
v 0.079807 0.450074 0.020000
v 0.028483 0.474791 0.020000
v 0.026703 0.466991 0.028000
v 0.074819 0.443820 0.028000
v 0.074819 0.443820 0.028000
v 0.026703 0.466991 0.028000
v 0.024922 0.459192 0.020000
v 0.069831 0.437565 0.020000
v 0.069831 0.437565 0.020000
v 0.024922 0.459192 0.020000
v 0.026703 0.466991 0.012000
v 0.074819 0.443820 0.012000
v 0.074819 0.443820 0.012000
v 0.026703 0.466991 0.012000
v 0.028483 0.474791 0.020000
v 0.079807 0.450074 0.020000
v 0.028483 0.474791 0.020000
v -0.028483 0.474791 0.020000
v -0.026703 0.466991 0.028000
v 0.026703 0.466991 0.028000
v 0.026703 0.466991 0.028000
v -0.026703 0.466991 0.028000
v -0.024922 0.459192 0.020000
v 0.024922 0.459192 0.020000
v 0.024922 0.459192 0.020000
v -0.024922 0.459192 0.020000
v -0.026703 0.466991 0.012000
v 0.026703 0.466991 0.012000
v 0.026703 0.466991 0.012000
v -0.026703 0.466991 0.012000
v -0.028483 0.474791 0.020000
v 0.028483 0.474791 0.020000
v -0.028483 0.474791 0.020000
v -0.079807 0.450074 0.020000
v -0.074819 0.443820 0.028000
v -0.026703 0.466991 0.028000
v -0.026703 0.466991 0.028000
v -0.074819 0.443820 0.028000
v -0.069831 0.437565 0.020000
v -0.024922 0.459192 0.020000
v -0.024922 0.459192 0.020000
v -0.069831 0.437565 0.020000
v -0.074819 0.443820 0.012000
v -0.026703 0.466991 0.012000
v -0.026703 0.466991 0.012000
v -0.074819 0.443820 0.012000
v -0.079807 0.450074 0.020000
v -0.028483 0.474791 0.020000
v -0.079807 0.450074 0.020000
v -0.115324 0.405537 0.020000
v -0.108116 0.402066 0.028000
v -0.074819 0.443820 0.028000
v -0.074819 0.443820 0.028000
v -0.108116 0.402066 0.028000
v -0.100909 0.398595 0.020000
v -0.069831 0.437565 0.020000
v -0.069831 0.437565 0.020000
v -0.100909 0.398595 0.020000
v -0.108116 0.402066 0.012000
v -0.074819 0.443820 0.012000
v -0.074819 0.443820 0.012000
v -0.108116 0.402066 0.012000
v -0.115324 0.405537 0.020000
v -0.079807 0.450074 0.020000
v -0.115324 0.405537 0.020000
v -0.128000 0.350000 0.020000
v -0.120000 0.350000 0.028000
v -0.108116 0.402066 0.028000
v -0.108116 0.402066 0.028000
v -0.120000 0.350000 0.028000
v -0.112000 0.350000 0.020000
v -0.100909 0.398595 0.020000
v -0.100909 0.398595 0.020000
v -0.112000 0.350000 0.020000
v -0.120000 0.350000 0.012000
v -0.108116 0.402066 0.012000
v -0.108116 0.402066 0.012000
v -0.120000 0.350000 0.012000
v -0.128000 0.350000 0.020000
v -0.115324 0.405537 0.020000
v -0.128000 0.350000 0.020000
v -0.115324 0.294463 0.020000
v -0.108116 0.297934 0.028000
v -0.120000 0.350000 0.028000
v -0.120000 0.350000 0.028000
v -0.108116 0.297934 0.028000
v -0.100909 0.301405 0.020000
v -0.112000 0.350000 0.020000
v -0.112000 0.350000 0.020000
v -0.100909 0.301405 0.020000
v -0.108116 0.297934 0.012000
v -0.120000 0.350000 0.012000
v -0.120000 0.350000 0.012000
v -0.108116 0.297934 0.012000
v -0.115324 0.294463 0.020000
v -0.128000 0.350000 0.020000
v -0.115324 0.294463 0.020000
v -0.079807 0.249926 0.020000
v -0.074819 0.256180 0.028000
v -0.108116 0.297934 0.028000
v -0.108116 0.297934 0.028000
v -0.074819 0.256180 0.028000
v -0.069831 0.262435 0.020000
v -0.100909 0.301405 0.020000
v -0.100909 0.301405 0.020000
v -0.069831 0.262435 0.020000
v -0.074819 0.256180 0.012000
v -0.108116 0.297934 0.012000
v -0.108116 0.297934 0.012000
v -0.074819 0.256180 0.012000
v -0.079807 0.249926 0.020000
v -0.115324 0.294463 0.020000
v -0.079807 0.249926 0.020000
v -0.028483 0.225209 0.020000
v -0.026703 0.233009 0.028000
v -0.074819 0.256180 0.028000
v -0.074819 0.256180 0.028000
v -0.026703 0.233009 0.028000
v -0.024922 0.240808 0.020000
v -0.069831 0.262435 0.020000
v -0.069831 0.262435 0.020000
v -0.024922 0.240808 0.020000
v -0.026703 0.233009 0.012000
v -0.074819 0.256180 0.012000
v -0.074819 0.256180 0.012000
v -0.026703 0.233009 0.012000
v -0.028483 0.225209 0.020000
v -0.079807 0.249926 0.020000
v -0.028483 0.225209 0.020000
v 0.028483 0.225209 0.020000
v 0.026703 0.233009 0.028000
v -0.026703 0.233009 0.028000
v -0.026703 0.233009 0.028000
v 0.026703 0.233009 0.028000
v 0.024922 0.240808 0.020000
v -0.024922 0.240808 0.020000
v -0.024922 0.240808 0.020000
v 0.024922 0.240808 0.020000
v 0.026703 0.233009 0.012000
v -0.026703 0.233009 0.012000
v -0.026703 0.233009 0.012000
v 0.026703 0.233009 0.012000
v 0.028483 0.225209 0.020000
v -0.028483 0.225209 0.020000
v 0.028483 0.225209 0.020000
v 0.079807 0.249926 0.020000
v 0.074819 0.256180 0.028000
v 0.026703 0.233009 0.028000
v 0.026703 0.233009 0.028000
v 0.074819 0.256180 0.028000
v 0.069831 0.262435 0.020000
v 0.024922 0.240808 0.020000
v 0.024922 0.240808 0.020000
v 0.069831 0.262435 0.020000
v 0.074819 0.256180 0.012000
v 0.026703 0.233009 0.012000
v 0.026703 0.233009 0.012000
v 0.074819 0.256180 0.012000
v 0.079807 0.249926 0.020000
v 0.028483 0.225209 0.020000
v 0.079807 0.249926 0.020000
v 0.115324 0.294463 0.020000
v 0.108116 0.297934 0.028000
v 0.074819 0.256180 0.028000
v 0.074819 0.256180 0.028000
v 0.108116 0.297934 0.028000
v 0.100909 0.301405 0.020000
v 0.069831 0.262435 0.020000
v 0.069831 0.262435 0.020000
v 0.100909 0.301405 0.020000
v 0.108116 0.297934 0.012000
v 0.074819 0.256180 0.012000
v 0.074819 0.256180 0.012000
v 0.108116 0.297934 0.012000
v 0.115324 0.294463 0.020000
v 0.079807 0.249926 0.020000
v 0.115324 0.294463 0.020000
v 0.128000 0.350000 0.020000
v 0.120000 0.350000 0.028000
v 0.108116 0.297934 0.028000
v 0.108116 0.297934 0.028000
v 0.120000 0.350000 0.028000
v 0.112000 0.350000 0.020000
v 0.100909 0.301405 0.020000
v 0.100909 0.301405 0.020000
v 0.112000 0.350000 0.020000
v 0.120000 0.350000 0.012000
v 0.108116 0.297934 0.012000
v 0.108116 0.297934 0.012000
v 0.120000 0.350000 0.012000
v 0.128000 0.350000 0.020000
v 0.115324 0.294463 0.020000
v 0.090000 0.020000 0.075000
v 0.122541 0.020000 0.067573
v 0.118202 0.340000 0.058563
v 0.090000 0.340000 0.065000
v 0.122541 0.020000 0.067573
v 0.148637 0.020000 0.046762
v 0.140819 0.340000 0.040527
v 0.118202 0.340000 0.058563
v 0.148637 0.020000 0.046762
v 0.163120 0.020000 0.016689
v 0.153370 0.340000 0.014464
v 0.140819 0.340000 0.040527
v 0.163120 0.020000 0.016689
v 0.163120 0.020000 -0.016689
v 0.153370 0.340000 -0.014464
v 0.153370 0.340000 0.014464
v 0.163120 0.020000 -0.016689
v 0.148637 0.020000 -0.046762
v 0.140819 0.340000 -0.040527
v 0.153370 0.340000 -0.014464
v 0.148637 0.020000 -0.046762
v 0.122541 0.020000 -0.067573
v 0.118202 0.340000 -0.058563
v 0.140819 0.340000 -0.040527
v 0.122541 0.020000 -0.067573
v 0.090000 0.020000 -0.075000
v 0.090000 0.340000 -0.065000
v 0.118202 0.340000 -0.058563
v 0.090000 0.020000 -0.075000
v 0.057459 0.020000 -0.067573
v 0.061798 0.340000 -0.058563
v 0.090000 0.340000 -0.065000
v 0.057459 0.020000 -0.067573
v 0.031363 0.020000 -0.046762
v 0.039181 0.340000 -0.040527
v 0.061798 0.340000 -0.058563
v 0.031363 0.020000 -0.046762
v 0.016880 0.020000 -0.016689
v 0.026630 0.340000 -0.014464
v 0.039181 0.340000 -0.040527
v 0.016880 0.020000 -0.016689
v 0.016880 0.020000 0.016689
v 0.026630 0.340000 0.014464
v 0.026630 0.340000 -0.014464
v 0.016880 0.020000 0.016689
v 0.031363 0.020000 0.046762
v 0.039181 0.340000 0.040527
v 0.026630 0.340000 0.014464
v 0.031363 0.020000 0.046762
v 0.057459 0.020000 0.067573
v 0.061798 0.340000 0.058563
v 0.039181 0.340000 0.040527
v 0.057459 0.020000 0.067573
v 0.090000 0.020000 0.075000
v 0.090000 0.340000 0.065000
v 0.061798 0.340000 0.058563
v 0.090000 0.020000 0.000000
v 0.090000 0.020000 0.075000
v 0.122541 0.020000 0.067573
v 0.122541 0.020000 0.067573
v 0.148637 0.020000 0.046762
v 0.148637 0.020000 0.046762
v 0.163120 0.020000 0.016689
v 0.163120 0.020000 0.016689
v 0.163120 0.020000 -0.016689
v 0.163120 0.020000 -0.016689
v 0.148637 0.020000 -0.046762
v 0.148637 0.020000 -0.046762
v 0.122541 0.020000 -0.067573
v 0.122541 0.020000 -0.067573
v 0.090000 0.020000 -0.075000
v 0.090000 0.020000 -0.075000
v 0.057459 0.020000 -0.067573
v 0.057459 0.020000 -0.067573
v 0.031363 0.020000 -0.046762
v 0.031363 0.020000 -0.046762
v 0.016880 0.020000 -0.016689
v 0.016880 0.020000 -0.016689
v 0.016880 0.020000 0.016689
v 0.016880 0.020000 0.016689
v 0.031363 0.020000 0.046762
v 0.031363 0.020000 0.046762
v 0.057459 0.020000 0.067573
v 0.057459 0.020000 0.067573
v 0.090000 0.020000 0.075000
v 0.090000 0.340000 0.000000
v 0.090000 0.340000 0.065000
v 0.118202 0.340000 0.058563
v 0.118202 0.340000 0.058563
v 0.140819 0.340000 0.040527
v 0.140819 0.340000 0.040527
v 0.153370 0.340000 0.014464
v 0.153370 0.340000 0.014464
v 0.153370 0.340000 -0.014464
v 0.153370 0.340000 -0.014464
v 0.140819 0.340000 -0.040527
v 0.140819 0.340000 -0.040527
v 0.118202 0.340000 -0.058563
v 0.118202 0.340000 -0.058563
v 0.090000 0.340000 -0.065000
v 0.090000 0.340000 -0.065000
v 0.061798 0.340000 -0.058563
v 0.061798 0.340000 -0.058563
v 0.039181 0.340000 -0.040527
v 0.039181 0.340000 -0.040527
v 0.026630 0.340000 -0.014464
v 0.026630 0.340000 -0.014464
v 0.026630 0.340000 0.014464
v 0.026630 0.340000 0.014464
v 0.039181 0.340000 0.040527
v 0.039181 0.340000 0.040527
v 0.061798 0.340000 0.058563
v 0.061798 0.340000 0.058563
v 0.090000 0.340000 0.065000
v -0.065000 0.130000 -0.050000
v 0.065000 0.130000 -0.050000
v 0.065000 0.230000 -0.050000
v -0.065000 0.230000 -0.050000
v 0.065000 0.130000 0.050000
v -0.065000 0.130000 0.050000
v -0.065000 0.230000 0.050000
v 0.065000 0.230000 0.050000
v -0.065000 0.130000 0.050000
v -0.065000 0.130000 -0.050000
v -0.065000 0.230000 -0.050000
v -0.065000 0.230000 0.050000
v 0.065000 0.130000 -0.050000
v 0.065000 0.130000 0.050000
v 0.065000 0.230000 0.050000
v 0.065000 0.230000 -0.050000
v -0.065000 0.230000 -0.050000
v 0.065000 0.230000 -0.050000
v 0.065000 0.230000 0.050000
v -0.065000 0.230000 0.050000
v -0.065000 0.130000 0.050000
v 0.065000 0.130000 0.050000
v 0.065000 0.130000 -0.050000
v -0.065000 0.130000 -0.050000
v 0.128000 0.350000 0.020000
v 0.115324 0.405537 0.020000
v 0.108116 0.402066 0.028000
v 0.120000 0.350000 0.028000
v 0.120000 0.350000 0.028000
v 0.108116 0.402066 0.028000
v 0.100909 0.398595 0.020000
v 0.112000 0.350000 0.020000
v 0.112000 0.350000 0.020000
v 0.100909 0.398595 0.020000
v 0.108116 0.402066 0.012000
v 0.120000 0.350000 0.012000
v 0.120000 0.350000 0.012000
v 0.108116 0.402066 0.012000
v 0.115324 0.405537 0.020000
v 0.128000 0.350000 0.020000
v 0.115324 0.405537 0.020000
v 0.079807 0.450074 0.020000
v 0.074819 0.443820 0.028000
v 0.108116 0.402066 0.028000
v 0.108116 0.402066 0.028000
v 0.074819 0.443820 0.028000
v 0.069831 0.437565 0.020000
v 0.100909 0.398595 0.020000
v 0.100909 0.398595 0.020000
v 0.069831 0.437565 0.020000
v 0.074819 0.443820 0.012000
v 0.108116 0.402066 0.012000
v 0.108116 0.402066 0.012000
v 0.074819 0.443820 0.012000
v 0.079807 0.450074 0.020000
v 0.115324 0.405537 0.020000
v 0.079807 0.450074 0.020000
v 0.028483 0.474791 0.020000
v 0.026703 0.466991 0.028000
v 0.074819 0.443820 0.028000
v 0.074819 0.443820 0.028000
v 0.026703 0.466991 0.028000
v 0.024922 0.459192 0.020000
v 0.069831 0.437565 0.020000
v 0.069831 0.437565 0.020000
v 0.024922 0.459192 0.020000
v 0.026703 0.466991 0.012000
v 0.074819 0.443820 0.012000
v 0.074819 0.443820 0.012000
v 0.026703 0.466991 0.012000
v 0.028483 0.474791 0.020000
v 0.079807 0.450074 0.020000
v 0.028483 0.474791 0.020000
v -0.028483 0.474791 0.020000
v -0.026703 0.466991 0.028000
v 0.026703 0.466991 0.028000
v 0.026703 0.466991 0.028000
v -0.026703 0.466991 0.028000
v -0.024922 0.459192 0.020000
v 0.024922 0.459192 0.020000
v 0.024922 0.459192 0.020000
v -0.024922 0.459192 0.020000
v -0.026703 0.466991 0.012000
v 0.026703 0.466991 0.012000
v 0.026703 0.466991 0.012000
v -0.026703 0.466991 0.012000
v -0.028483 0.474791 0.020000
v 0.028483 0.474791 0.020000
v -0.028483 0.474791 0.020000
v -0.079807 0.450074 0.020000
v -0.074819 0.443820 0.028000
v -0.026703 0.466991 0.028000
v -0.026703 0.466991 0.028000
v -0.074819 0.443820 0.028000
v -0.069831 0.437565 0.020000
v -0.024922 0.459192 0.020000
v -0.024922 0.459192 0.020000
v -0.069831 0.437565 0.020000
v -0.074819 0.443820 0.012000
v -0.026703 0.466991 0.012000
v -0.026703 0.466991 0.012000
v -0.074819 0.443820 0.012000
v -0.079807 0.450074 0.020000
v -0.028483 0.474791 0.020000
v -0.079807 0.450074 0.020000
v -0.115324 0.405537 0.020000
v -0.108116 0.402066 0.028000
v -0.074819 0.443820 0.028000
v -0.074819 0.443820 0.028000
v -0.108116 0.402066 0.028000
v -0.100909 0.398595 0.020000
v -0.069831 0.437565 0.020000
v -0.069831 0.437565 0.020000
v -0.100909 0.398595 0.020000
v -0.108116 0.402066 0.012000
v -0.074819 0.443820 0.012000
v -0.074819 0.443820 0.012000
v -0.108116 0.402066 0.012000
v -0.115324 0.405537 0.020000
v -0.079807 0.450074 0.020000
v -0.115324 0.405537 0.020000
v -0.128000 0.350000 0.020000
v -0.120000 0.350000 0.028000
v -0.108116 0.402066 0.028000
v -0.108116 0.402066 0.028000
v -0.120000 0.350000 0.028000
v -0.112000 0.350000 0.020000
v -0.100909 0.398595 0.020000
v -0.100909 0.398595 0.020000
v -0.112000 0.350000 0.020000
v -0.120000 0.350000 0.012000
v -0.108116 0.402066 0.012000
v -0.108116 0.402066 0.012000
v -0.120000 0.350000 0.012000
v -0.128000 0.350000 0.020000
v -0.115324 0.405537 0.020000
v -0.128000 0.350000 0.020000
v -0.115324 0.294463 0.020000
v -0.108116 0.297934 0.028000
v -0.120000 0.350000 0.028000
v -0.120000 0.350000 0.028000
v -0.108116 0.297934 0.028000
v -0.100909 0.301405 0.020000
v -0.112000 0.350000 0.020000
v -0.112000 0.350000 0.020000
v -0.100909 0.301405 0.020000
v -0.108116 0.297934 0.012000
v -0.120000 0.350000 0.012000
v -0.120000 0.350000 0.012000
v -0.108116 0.297934 0.012000
v -0.115324 0.294463 0.020000
v -0.128000 0.350000 0.020000
v -0.115324 0.294463 0.020000
v -0.079807 0.249926 0.020000
v -0.074819 0.256180 0.028000
v -0.108116 0.297934 0.028000
v -0.108116 0.297934 0.028000
v -0.074819 0.256180 0.028000
v -0.069831 0.262435 0.020000
v -0.100909 0.301405 0.020000
v -0.100909 0.301405 0.020000
v -0.069831 0.262435 0.020000
v -0.074819 0.256180 0.012000
v -0.108116 0.297934 0.012000
v -0.108116 0.297934 0.012000
v -0.074819 0.256180 0.012000
v -0.079807 0.249926 0.020000
v -0.115324 0.294463 0.020000
v -0.079807 0.249926 0.020000
v -0.028483 0.225209 0.020000
v -0.026703 0.233009 0.028000
v -0.074819 0.256180 0.028000
v -0.074819 0.256180 0.028000
v -0.026703 0.233009 0.028000
v -0.024922 0.240808 0.020000
v -0.069831 0.262435 0.020000
v -0.069831 0.262435 0.020000
v -0.024922 0.240808 0.020000
v -0.026703 0.233009 0.012000
v -0.074819 0.256180 0.012000
v -0.074819 0.256180 0.012000
v -0.026703 0.233009 0.012000
v -0.028483 0.225209 0.020000
v -0.079807 0.249926 0.020000
v -0.028483 0.225209 0.020000
v 0.028483 0.225209 0.020000
v 0.026703 0.233009 0.028000
v -0.026703 0.233009 0.028000
v -0.026703 0.233009 0.028000
v 0.026703 0.233009 0.028000
v 0.024922 0.240808 0.020000
v -0.024922 0.240808 0.020000
v -0.024922 0.240808 0.020000
v 0.024922 0.240808 0.020000
v 0.026703 0.233009 0.012000
v -0.026703 0.233009 0.012000
v -0.026703 0.233009 0.012000
v 0.026703 0.233009 0.012000
v 0.028483 0.225209 0.020000
v -0.028483 0.225209 0.020000
v 0.028483 0.225209 0.020000
v 0.079807 0.249926 0.020000
v 0.074819 0.256180 0.028000
v 0.026703 0.233009 0.028000
v 0.026703 0.233009 0.028000
v 0.074819 0.256180 0.028000
v 0.069831 0.262435 0.020000
v 0.024922 0.240808 0.020000
v 0.024922 0.240808 0.020000
v 0.069831 0.262435 0.020000
v 0.074819 0.256180 0.012000
v 0.026703 0.233009 0.012000
v 0.026703 0.233009 0.012000
v 0.074819 0.256180 0.012000
v 0.079807 0.249926 0.020000
v 0.028483 0.225209 0.020000
v 0.079807 0.249926 0.020000
v 0.115324 0.294463 0.020000
v 0.108116 0.297934 0.028000
v 0.074819 0.256180 0.028000
v 0.074819 0.256180 0.028000
v 0.108116 0.297934 0.028000
v 0.100909 0.301405 0.020000
v 0.069831 0.262435 0.020000
v 0.069831 0.262435 0.020000
v 0.100909 0.301405 0.020000
v 0.108116 0.297934 0.012000
v 0.074819 0.256180 0.012000
v 0.074819 0.256180 0.012000
v 0.108116 0.297934 0.012000
v 0.115324 0.294463 0.020000
v 0.079807 0.249926 0.020000
v 0.115324 0.294463 0.020000
v 0.128000 0.350000 0.020000
v 0.120000 0.350000 0.028000
v 0.108116 0.297934 0.028000
v 0.108116 0.297934 0.028000
v 0.120000 0.350000 0.028000
v 0.112000 0.350000 0.020000
v 0.100909 0.301405 0.020000
v 0.100909 0.301405 0.020000
v 0.112000 0.350000 0.020000
v 0.120000 0.350000 0.012000
v 0.108116 0.297934 0.012000
v 0.108116 0.297934 0.012000
v 0.120000 0.350000 0.012000
v 0.128000 0.350000 0.020000
v 0.115324 0.294463 0.020000
vt 0.000000 0.000000
vt 1.000000 0.000000
vt 1.000000 1.000000
vt 0.000000 1.000000
vt 0.000000 0.000000
vt 1.000000 0.000000
vt 1.000000 1.000000
vt 0.000000 1.000000
vt 0.000000 0.000000
vt 1.000000 0.000000
vt 1.000000 1.000000
vt 0.000000 1.000000
vt 0.000000 0.000000
vt 1.000000 0.000000
vt 1.000000 1.000000
vt 0.000000 1.000000
vt 0.000000 0.000000
vt 1.000000 0.000000
vt 1.000000 1.000000
vt 0.000000 1.000000
vt 0.000000 0.000000
vt 1.000000 0.000000
vt 1.000000 1.000000
vt 0.000000 1.000000
vt 0.000000 0.000000
vt 1.000000 0.000000
vt 1.000000 1.000000
vt 0.000000 1.000000
vt 0.000000 0.000000
vt 1.000000 0.000000
vt 1.000000 1.000000
vt 0.000000 1.000000
vt 0.000000 0.000000
vt 1.000000 0.000000
vt 1.000000 1.000000
vt 0.000000 1.000000
vt 0.000000 0.000000
vt 1.000000 0.000000
vt 1.000000 1.000000
vt 0.000000 1.000000
vt 0.000000 0.000000
vt 1.000000 0.000000
vt 1.000000 1.000000
vt 0.000000 1.000000
vt 0.000000 0.000000
vt 1.000000 0.000000
vt 1.000000 1.000000
vt 0.000000 1.000000
vt 0.000000 0.000000
vt 1.000000 0.000000
vt 1.000000 1.000000
vt 0.000000 1.000000
vt 0.000000 0.000000
vt 1.000000 0.000000
vt 1.000000 1.000000
vt 0.000000 1.000000
vt 0.500000 0.500000
vt 0.000000 0.000000
vt 1.000000 0.000000
vt 0.000000 0.000000
vt 1.000000 0.000000
vt 0.000000 0.000000
vt 1.000000 0.000000
vt 0.000000 0.000000
vt 1.000000 0.000000
vt 0.000000 0.000000
vt 1.000000 0.000000
vt 0.000000 0.000000
vt 1.000000 0.000000
vt 0.000000 0.000000
vt 1.000000 0.000000
vt 0.000000 0.000000
vt 1.000000 0.000000
vt 0.000000 0.000000
vt 1.000000 0.000000
vt 0.000000 0.000000
vt 1.000000 0.000000
vt 0.000000 0.000000
vt 1.000000 0.000000
vt 0.000000 0.000000
vt 1.000000 0.000000
vt 0.000000 0.000000
vt 1.000000 0.000000
vt 0.000000 0.000000
vt 1.000000 0.000000
vt 0.500000 0.500000
vt 0.000000 0.000000
vt 1.000000 0.000000
vt 0.000000 0.000000
vt 1.000000 0.000000
vt 0.000000 0.000000
vt 1.000000 0.000000
vt 0.000000 0.000000
vt 1.000000 0.000000
vt 0.000000 0.000000
vt 1.000000 0.000000
vt 0.000000 0.000000
vt 1.000000 0.000000
vt 0.000000 0.000000
vt 1.000000 0.000000
vt 0.000000 0.000000
vt 1.000000 0.000000
vt 0.000000 0.000000
vt 1.000000 0.000000
vt 0.000000 0.000000
vt 1.000000 0.000000
vt 0.000000 0.000000
vt 1.000000 0.000000
vt 0.000000 0.000000
vt 1.000000 0.000000
vt 0.000000 0.000000
vt 1.000000 0.000000
vt 0.000000 0.000000
vt 1.000000 0.000000
vt 0.000000 0.000000
vt 1.000000 0.000000
vt 1.000000 1.000000
vt 0.000000 1.000000
vt 0.000000 0.000000
vt 1.000000 0.000000
vt 1.000000 1.000000
vt 0.000000 1.000000
vt 0.000000 0.000000
vt 1.000000 0.000000
vt 1.000000 1.000000
vt 0.000000 1.000000
vt 0.000000 0.000000
vt 1.000000 0.000000
vt 1.000000 1.000000
vt 0.000000 1.000000
vt 0.000000 0.000000
vt 1.000000 0.000000
vt 1.000000 1.000000
vt 0.000000 1.000000
vt 0.000000 0.000000
vt 1.000000 0.000000
vt 1.000000 1.000000
vt 0.000000 1.000000
vt 0.000000 0.000000
vt 1.000000 0.000000
vt 1.000000 1.000000
vt 0.000000 1.000000
vt 0.000000 0.000000
vt 1.000000 0.000000
vt 1.000000 1.000000
vt 0.000000 1.000000
vt 0.000000 0.000000
vt 1.000000 0.000000
vt 1.000000 1.000000
vt 0.000000 1.000000
vt 0.000000 0.000000
vt 1.000000 0.000000
vt 1.000000 1.000000
vt 0.000000 1.000000
vt 0.000000 0.000000
vt 1.000000 0.000000
vt 1.000000 1.000000
vt 0.000000 1.000000
vt 0.000000 0.000000
vt 1.000000 0.000000
vt 1.000000 1.000000
vt 0.000000 1.000000
vt 0.000000 0.000000
vt 1.000000 0.000000
vt 1.000000 1.000000
vt 0.000000 1.000000
vt 0.000000 0.000000
vt 1.000000 0.000000
vt 1.000000 1.000000
vt 0.000000 1.000000
vt 0.000000 0.000000
vt 1.000000 0.000000
vt 1.000000 1.000000
vt 0.000000 1.000000
vt 0.000000 0.000000
vt 1.000000 0.000000
vt 1.000000 1.000000
vt 0.000000 1.000000
vt 0.000000 0.000000
vt 1.000000 0.000000
vt 1.000000 1.000000
vt 0.000000 1.000000
vt 0.000000 0.000000
vt 1.000000 0.000000
vt 1.000000 1.000000
vt 0.000000 1.000000
vt 0.000000 0.000000
vt 1.000000 0.000000
vt 1.000000 1.000000
vt 0.000000 1.000000
vt 0.000000 0.000000
vt 1.000000 0.000000
vt 1.000000 1.000000
vt 0.000000 1.000000
vt 0.000000 0.000000
vt 1.000000 0.000000
vt 1.000000 1.000000
vt 0.000000 1.000000
vt 0.000000 0.000000
vt 1.000000 0.000000
vt 1.000000 1.000000
vt 0.000000 1.000000
vt 0.000000 0.000000
vt 1.000000 0.000000
vt 1.000000 1.000000
vt 0.000000 1.000000
vt 0.000000 0.000000
vt 1.000000 0.000000
vt 1.000000 1.000000
vt 0.000000 1.000000
vt 0.000000 0.000000
vt 1.000000 0.000000
vt 1.000000 1.000000
vt 0.000000 1.000000
vt 0.000000 0.000000
vt 1.000000 0.000000
vt 1.000000 1.000000
vt 0.000000 1.000000
vt 0.000000 0.000000
vt 1.000000 0.000000
vt 1.000000 1.000000
vt 0.000000 1.000000
vt 0.000000 0.000000
vt 1.000000 0.000000
vt 1.000000 1.000000
vt 0.000000 1.000000
vt 0.000000 0.000000
vt 1.000000 0.000000
vt 1.000000 1.000000
vt 0.000000 1.000000
vt 0.000000 0.000000
vt 1.000000 0.000000
vt 1.000000 1.000000
vt 0.000000 1.000000
vt 0.000000 0.000000
vt 1.000000 0.000000
vt 1.000000 1.000000
vt 0.000000 1.000000
vt 0.000000 0.000000
vt 1.000000 0.000000
vt 1.000000 1.000000
vt 0.000000 1.000000
vt 0.000000 0.000000
vt 1.000000 0.000000
vt 1.000000 1.000000
vt 0.000000 1.000000
vt 0.000000 0.000000
vt 1.000000 0.000000
vt 1.000000 1.000000
vt 0.000000 1.000000
vt 0.000000 0.000000
vt 1.000000 0.000000
vt 1.000000 1.000000
vt 0.000000 1.000000
vt 0.000000 0.000000
vt 1.000000 0.000000
vt 1.000000 1.000000
vt 0.000000 1.000000
vt 0.000000 0.000000
vt 1.000000 0.000000
vt 1.000000 1.000000
vt 0.000000 1.000000
vt 0.000000 0.000000
vt 1.000000 0.000000
vt 1.000000 1.000000
vt 0.000000 1.000000
vt 0.000000 0.000000
vt 1.000000 0.000000
vt 1.000000 1.000000
vt 0.000000 1.000000
vt 0.000000 0.000000
vt 1.000000 0.000000
vt 1.000000 1.000000
vt 0.000000 1.000000
vt 0.000000 0.000000
vt 1.000000 0.000000
vt 1.000000 1.000000
vt 0.000000 1.000000
vt 0.000000 0.000000
vt 1.000000 0.000000
vt 1.000000 1.000000
vt 0.000000 1.000000
vt 0.000000 0.000000
vt 1.000000 0.000000
vt 1.000000 1.000000
vt 0.000000 1.000000
vt 0.000000 0.000000
vt 1.000000 0.000000
vt 1.000000 1.000000
vt 0.000000 1.000000
vt 0.000000 0.000000
vt 1.000000 0.000000
vt 1.000000 1.000000
vt 0.000000 1.000000
vt 0.000000 0.000000
vt 1.000000 0.000000
vt 1.000000 1.000000
vt 0.000000 1.000000
vt 0.000000 0.000000
vt 1.000000 0.000000
vt 1.000000 1.000000
vt 0.000000 1.000000
vt 0.000000 0.000000
vt 1.000000 0.000000
vt 1.000000 1.000000
vt 0.000000 1.000000
vt 0.000000 0.000000
vt 1.000000 0.000000
vt 1.000000 1.000000
vt 0.000000 1.000000
vt 0.000000 0.000000
vt 1.000000 0.000000
vt 1.000000 1.000000
vt 0.000000 1.000000
vt 0.000000 0.000000
vt 1.000000 0.000000
vt 1.000000 1.000000
vt 0.000000 1.000000
vt 0.000000 0.000000
vt 1.000000 0.000000
vt 1.000000 1.000000
vt 0.000000 1.000000
vt 0.000000 0.000000
vt 1.000000 0.000000
vt 1.000000 1.000000
vt 0.000000 1.000000
vt 0.000000 0.000000
vt 1.000000 0.000000
vt 1.000000 1.000000
vt 0.000000 1.000000
vt 0.000000 0.000000
vt 1.000000 0.000000
vt 1.000000 1.000000
vt 0.000000 1.000000
vt 0.000000 0.000000
vt 1.000000 0.000000
vt 1.000000 1.000000
vt 0.000000 1.000000
vt 0.000000 0.000000
vt 1.000000 0.000000
vt 1.000000 1.000000
vt 0.000000 1.000000
vt 0.000000 0.000000
vt 1.000000 0.000000
vt 1.000000 1.000000
vt 0.000000 1.000000
vt 0.000000 0.000000
vt 1.000000 0.000000
vt 1.000000 1.000000
vt 0.000000 1.000000
vt 0.000000 0.000000
vt 1.000000 0.000000
vt 1.000000 1.000000
vt 0.000000 1.000000
vt 0.000000 0.000000
vt 1.000000 0.000000
vt 1.000000 1.000000
vt 0.000000 1.000000
vt 0.000000 0.000000
vt 1.000000 0.000000
vt 1.000000 1.000000
vt 0.000000 1.000000
vt 0.000000 0.000000
vt 1.000000 0.000000
vt 1.000000 1.000000
vt 0.000000 1.000000
vt 0.000000 0.000000
vt 1.000000 0.000000
vt 1.000000 1.000000
vt 0.000000 1.000000
vt 0.000000 0.000000
vt 1.000000 0.000000
vt 1.000000 1.000000
vt 0.000000 1.000000
vt 0.000000 0.000000
vt 1.000000 0.000000
vt 1.000000 1.000000
vt 0.000000 1.000000
vt 0.000000 0.000000
vt 1.000000 0.000000
vt 1.000000 1.000000
vt 0.000000 1.000000
vt 0.000000 0.000000
vt 1.000000 0.000000
vt 1.000000 1.000000
vt 0.000000 1.000000
vt 0.000000 0.000000
vt 1.000000 0.000000
vt 1.000000 1.000000
vt 0.000000 1.000000
vt 0.000000 0.000000
vt 1.000000 0.000000
vt 1.000000 1.000000
vt 0.000000 1.000000
vt 0.000000 0.000000
vt 1.000000 0.000000
vt 1.000000 1.000000
vt 0.000000 1.000000
vt 0.000000 0.000000
vt 1.000000 0.000000
vt 1.000000 1.000000
vt 0.000000 1.000000
vt 0.000000 0.000000
vt 1.000000 0.000000
vt 1.000000 1.000000
vt 0.000000 1.000000
vt 0.000000 0.000000
vt 1.000000 0.000000
vt 1.000000 1.000000
vt 0.000000 1.000000
vt 0.000000 0.000000
vt 1.000000 0.000000
vt 1.000000 1.000000
vt 0.000000 1.000000
vt 0.000000 0.000000
vt 1.000000 0.000000
vt 1.000000 1.000000
vt 0.000000 1.000000
vt 0.500000 0.500000
vt 0.000000 0.000000
vt 1.000000 0.000000
vt 0.000000 0.000000
vt 1.000000 0.000000
vt 0.000000 0.000000
vt 1.000000 0.000000
vt 0.000000 0.000000
vt 1.000000 0.000000
vt 0.000000 0.000000
vt 1.000000 0.000000
vt 0.000000 0.000000
vt 1.000000 0.000000
vt 0.000000 0.000000
vt 1.000000 0.000000
vt 0.000000 0.000000
vt 1.000000 0.000000
vt 0.000000 0.000000
vt 1.000000 0.000000
vt 0.000000 0.000000
vt 1.000000 0.000000
vt 0.000000 0.000000
vt 1.000000 0.000000
vt 0.000000 0.000000
vt 1.000000 0.000000
vt 0.000000 0.000000
vt 1.000000 0.000000
vt 0.000000 0.000000
vt 1.000000 0.000000
vt 0.500000 0.500000
vt 0.000000 0.000000
vt 1.000000 0.000000
vt 0.000000 0.000000
vt 1.000000 0.000000
vt 0.000000 0.000000
vt 1.000000 0.000000
vt 0.000000 0.000000
vt 1.000000 0.000000
vt 0.000000 0.000000
vt 1.000000 0.000000
vt 0.000000 0.000000
vt 1.000000 0.000000
vt 0.000000 0.000000
vt 1.000000 0.000000
vt 0.000000 0.000000
vt 1.000000 0.000000
vt 0.000000 0.000000
vt 1.000000 0.000000
vt 0.000000 0.000000
vt 1.000000 0.000000
vt 0.000000 0.000000
vt 1.000000 0.000000
vt 0.000000 0.000000
vt 1.000000 0.000000
vt 0.000000 0.000000
vt 1.000000 0.000000
vt 0.000000 0.000000
vt 1.000000 0.000000
vt 0.000000 0.000000
vt 1.000000 0.000000
vt 1.000000 1.000000
vt 0.000000 1.000000
vt 0.000000 0.000000
vt 1.000000 0.000000
vt 1.000000 1.000000
vt 0.000000 1.000000
vt 0.000000 0.000000
vt 1.000000 0.000000
vt 1.000000 1.000000
vt 0.000000 1.000000
vt 0.000000 0.000000
vt 1.000000 0.000000
vt 1.000000 1.000000
vt 0.000000 1.000000
vt 0.000000 0.000000
vt 1.000000 0.000000
vt 1.000000 1.000000
vt 0.000000 1.000000
vt 0.000000 0.000000
vt 1.000000 0.000000
vt 1.000000 1.000000
vt 0.000000 1.000000
vt 0.000000 0.000000
vt 1.000000 0.000000
vt 1.000000 1.000000
vt 0.000000 1.000000
vt 0.000000 0.000000
vt 1.000000 0.000000
vt 1.000000 1.000000
vt 0.000000 1.000000
vt 0.000000 0.000000
vt 1.000000 0.000000
vt 1.000000 1.000000
vt 0.000000 1.000000
vt 0.000000 0.000000
vt 1.000000 0.000000
vt 1.000000 1.000000
vt 0.000000 1.000000
vt 0.000000 0.000000
vt 1.000000 0.000000
vt 1.000000 1.000000
vt 0.000000 1.000000
vt 0.000000 0.000000
vt 1.000000 0.000000
vt 1.000000 1.000000
vt 0.000000 1.000000
vt 0.000000 0.000000
vt 1.000000 0.000000
vt 1.000000 1.000000
vt 0.000000 1.000000
vt 0.000000 0.000000
vt 1.000000 0.000000
vt 1.000000 1.000000
vt 0.000000 1.000000
vt 0.000000 0.000000
vt 1.000000 0.000000
vt 1.000000 1.000000
vt 0.000000 1.000000
vt 0.000000 0.000000
vt 1.000000 0.000000
vt 1.000000 1.000000
vt 0.000000 1.000000
vt 0.000000 0.000000
vt 1.000000 0.000000
vt 1.000000 1.000000
vt 0.000000 1.000000
vt 0.000000 0.000000
vt 1.000000 0.000000
vt 1.000000 1.000000
vt 0.000000 1.000000
vt 0.000000 0.000000
vt 1.000000 0.000000
vt 1.000000 1.000000
vt 0.000000 1.000000
vt 0.000000 0.000000
vt 1.000000 0.000000
vt 1.000000 1.000000
vt 0.000000 1.000000
vt 0.000000 0.000000
vt 1.000000 0.000000
vt 1.000000 1.000000
vt 0.000000 1.000000
vt 0.000000 0.000000
vt 1.000000 0.000000
vt 1.000000 1.000000
vt 0.000000 1.000000
vt 0.000000 0.000000
vt 1.000000 0.000000
vt 1.000000 1.000000
vt 0.000000 1.000000
vt 0.000000 0.000000
vt 1.000000 0.000000
vt 1.000000 1.000000
vt 0.000000 1.000000
vt 0.000000 0.000000
vt 1.000000 0.000000
vt 1.000000 1.000000
vt 0.000000 1.000000
vt 0.000000 0.000000
vt 1.000000 0.000000
vt 1.000000 1.000000
vt 0.000000 1.000000
vt 0.000000 0.000000
vt 1.000000 0.000000
vt 1.000000 1.000000
vt 0.000000 1.000000
vt 0.000000 0.000000
vt 1.000000 0.000000
vt 1.000000 1.000000
vt 0.000000 1.000000
vt 0.000000 0.000000
vt 1.000000 0.000000
vt 1.000000 1.000000
vt 0.000000 1.000000
vt 0.000000 0.000000
vt 1.000000 0.000000
vt 1.000000 1.000000
vt 0.000000 1.000000
vt 0.000000 0.000000
vt 1.000000 0.000000
vt 1.000000 1.000000
vt 0.000000 1.000000
vt 0.000000 0.000000
vt 1.000000 0.000000
vt 1.000000 1.000000
vt 0.000000 1.000000
vt 0.000000 0.000000
vt 1.000000 0.000000
vt 1.000000 1.000000
vt 0.000000 1.000000
vt 0.000000 0.000000
vt 1.000000 0.000000
vt 1.000000 1.000000
vt 0.000000 1.000000
vt 0.000000 0.000000
vt 1.000000 0.000000
vt 1.000000 1.000000
vt 0.000000 1.000000
vt 0.000000 0.000000
vt 1.000000 0.000000
vt 1.000000 1.000000
vt 0.000000 1.000000
vt 0.000000 0.000000
vt 1.000000 0.000000
vt 1.000000 1.000000
vt 0.000000 1.000000
vt 0.000000 0.000000
vt 1.000000 0.000000
vt 1.000000 1.000000
vt 0.000000 1.000000
vt 0.000000 0.000000
vt 1.000000 0.000000
vt 1.000000 1.000000
vt 0.000000 1.000000
vt 0.000000 0.000000
vt 1.000000 0.000000
vt 1.000000 1.000000
vt 0.000000 1.000000
vt 0.000000 0.000000
vt 1.000000 0.000000
vt 1.000000 1.000000
vt 0.000000 1.000000
vt 0.000000 0.000000
vt 1.000000 0.000000
vt 1.000000 1.000000
vt 0.000000 1.000000
vt 0.000000 0.000000
vt 1.000000 0.000000
vt 1.000000 1.000000
vt 0.000000 1.000000
vt 0.000000 0.000000
vt 1.000000 0.000000
vt 1.000000 1.000000
vt 0.000000 1.000000
vt 0.000000 0.000000
vt 1.000000 0.000000
vt 1.000000 1.000000
vt 0.000000 1.000000
vt 0.000000 0.000000
vt 1.000000 0.000000
vt 1.000000 1.000000
vt 0.000000 1.000000
vt 0.000000 0.000000
vt 1.000000 0.000000
vt 1.000000 1.000000
vt 0.000000 1.000000
vt 0.000000 0.000000
vt 1.000000 0.000000
vt 1.000000 1.000000
vt 0.000000 1.000000
vt 0.000000 0.000000
vt 1.000000 0.000000
vt 1.000000 1.000000
vt 0.000000 1.000000
vt 0.000000 0.000000
vt 1.000000 0.000000
vt 1.000000 1.000000
vt 0.000000 1.000000
vt 0.000000 0.000000
vt 1.000000 0.000000
vt 1.000000 1.000000
vt 0.000000 1.000000
vt 0.000000 0.000000
vt 1.000000 0.000000
vt 1.000000 1.000000
vt 0.000000 1.000000
vt 0.000000 0.000000
vt 1.000000 0.000000
vt 1.000000 1.000000
vt 0.000000 1.000000
vt 0.000000 0.000000
vt 1.000000 0.000000
vt 1.000000 1.000000
vt 0.000000 1.000000
vt 0.000000 0.000000
vt 1.000000 0.000000
vt 1.000000 1.000000
vt 0.000000 1.000000
vt 0.000000 0.000000
vt 1.000000 0.000000
vt 1.000000 1.000000
vt 0.000000 1.000000
vt 0.000000 0.000000
vt 1.000000 0.000000
vt 1.000000 1.000000
vt 0.000000 1.000000
vt 0.000000 0.000000
vt 1.000000 0.000000
vt 1.000000 1.000000
vt 0.000000 1.000000
vt 0.000000 0.000000
vt 1.000000 0.000000
vt 1.000000 1.000000
vt 0.000000 1.000000
vt 0.000000 0.000000
vt 1.000000 0.000000
vt 1.000000 1.000000
vt 0.000000 1.000000
vt 0.000000 0.000000
vt 1.000000 0.000000
vt 1.000000 1.000000
vt 0.000000 1.000000
vt 0.000000 0.000000
vt 1.000000 0.000000
vt 1.000000 1.000000
vt 0.000000 1.000000
usemtl Char
f 1/1 2/2 3/3
f 1/1 3/3 4/4
f 5/5 6/6 7/7
f 5/5 7/7 8/8
f 9/9 10/10 11/11
f 9/9 11/11 12/12
f 13/13 14/14 15/15
f 13/13 15/15 16/16
f 17/17 18/18 19/19
f 17/17 19/19 20/20
f 21/21 22/22 23/23
f 21/21 23/23 24/24
f 25/25 26/26 27/27
f 25/25 27/27 28/28
f 29/29 30/30 31/31
f 29/29 31/31 32/32
f 33/33 34/34 35/35
f 33/33 35/35 36/36
f 37/37 38/38 39/39
f 37/37 39/39 40/40
f 41/41 42/42 43/43
f 41/41 43/43 44/44
f 45/45 46/46 47/47
f 45/45 47/47 48/48
f 49/49 50/50 51/51
f 49/49 51/51 52/52
f 53/53 54/54 55/55
f 53/53 55/55 56/56
f 57/57 59/59 58/58
f 57/57 61/61 60/60
f 57/57 63/63 62/62
f 57/57 65/65 64/64
f 57/57 67/67 66/66
f 57/57 69/69 68/68
f 57/57 71/71 70/70
f 57/57 73/73 72/72
f 57/57 75/75 74/74
f 57/57 77/77 76/76
f 57/57 79/79 78/78
f 57/57 81/81 80/80
f 57/57 83/83 82/82
f 57/57 85/85 84/84
f 86/86 87/87 88/88
f 86/86 89/89 90/90
f 86/86 91/91 92/92
f 86/86 93/93 94/94
f 86/86 95/95 96/96
f 86/86 97/97 98/98
f 86/86 99/99 100/100
f 86/86 101/101 102/102
f 86/86 103/103 104/104
f 86/86 105/105 106/106
f 86/86 107/107 108/108
f 86/86 109/109 110/110
f 86/86 111/111 112/112
f 86/86 113/113 114/114
usemtl Metal
f 115/115 116/116 117/117
f 115/115 117/117 118/118
f 119/119 120/120 121/121
f 119/119 121/121 122/122
f 123/123 124/124 125/125
f 123/123 125/125 126/126
f 127/127 128/128 129/129
f 127/127 129/129 130/130
f 131/131 132/132 133/133
f 131/131 133/133 134/134
f 135/135 136/136 137/137
f 135/135 137/137 138/138
usemtl Rope
f 139/139 140/140 141/141
f 139/139 141/141 142/142
f 143/143 144/144 145/145
f 143/143 145/145 146/146
f 147/147 148/148 149/149
f 147/147 149/149 150/150
f 151/151 152/152 153/153
f 151/151 153/153 154/154
f 155/155 156/156 157/157
f 155/155 157/157 158/158
f 159/159 160/160 161/161
f 159/159 161/161 162/162
f 163/163 164/164 165/165
f 163/163 165/165 166/166
f 167/167 168/168 169/169
f 167/167 169/169 170/170
f 171/171 172/172 173/173
f 171/171 173/173 174/174
f 175/175 176/176 177/177
f 175/175 177/177 178/178
f 179/179 180/180 181/181
f 179/179 181/181 182/182
f 183/183 184/184 185/185
f 183/183 185/185 186/186
f 187/187 188/188 189/189
f 187/187 189/189 190/190
f 191/191 192/192 193/193
f 191/191 193/193 194/194
f 195/195 196/196 197/197
f 195/195 197/197 198/198
f 199/199 200/200 201/201
f 199/199 201/201 202/202
f 203/203 204/204 205/205
f 203/203 205/205 206/206
f 207/207 208/208 209/209
f 207/207 209/209 210/210
f 211/211 212/212 213/213
f 211/211 213/213 214/214
f 215/215 216/216 217/217
f 215/215 217/217 218/218
f 219/219 220/220 221/221
f 219/219 221/221 222/222
f 223/223 224/224 225/225
f 223/223 225/225 226/226
f 227/227 228/228 229/229
f 227/227 229/229 230/230
f 231/231 232/232 233/233
f 231/231 233/233 234/234
f 235/235 236/236 237/237
f 235/235 237/237 238/238
f 239/239 240/240 241/241
f 239/239 241/241 242/242
f 243/243 244/244 245/245
f 243/243 245/245 246/246
f 247/247 248/248 249/249
f 247/247 249/249 250/250
f 251/251 252/252 253/253
f 251/251 253/253 254/254
f 255/255 256/256 257/257
f 255/255 257/257 258/258
f 259/259 260/260 261/261
f 259/259 261/261 262/262
f 263/263 264/264 265/265
f 263/263 265/265 266/266
f 267/267 268/268 269/269
f 267/267 269/269 270/270
f 271/271 272/272 273/273
f 271/271 273/273 274/274
f 275/275 276/276 277/277
f 275/275 277/277 278/278
f 279/279 280/280 281/281
f 279/279 281/281 282/282
f 283/283 284/284 285/285
f 283/283 285/285 286/286
f 287/287 288/288 289/289
f 287/287 289/289 290/290
f 291/291 292/292 293/293
f 291/291 293/293 294/294
f 295/295 296/296 297/297
f 295/295 297/297 298/298
f 299/299 300/300 301/301
f 299/299 301/301 302/302
f 303/303 304/304 305/305
f 303/303 305/305 306/306
f 307/307 308/308 309/309
f 307/307 309/309 310/310
f 311/311 312/312 313/313
f 311/311 313/313 314/314
f 315/315 316/316 317/317
f 315/315 317/317 318/318
f 319/319 320/320 321/321
f 319/319 321/321 322/322
f 323/323 324/324 325/325
f 323/323 325/325 326/326
f 327/327 328/328 329/329
f 327/327 329/329 330/330
f 331/331 332/332 333/333
f 331/331 333/333 334/334
f 335/335 336/336 337/337
f 335/335 337/337 338/338
f 339/339 340/340 341/341
f 339/339 341/341 342/342
f 343/343 344/344 345/345
f 343/343 345/345 346/346
f 347/347 348/348 349/349
f 347/347 349/349 350/350
f 351/351 352/352 353/353
f 351/351 353/353 354/354
f 355/355 356/356 357/357
f 355/355 357/357 358/358
f 359/359 360/360 361/361
f 359/359 361/361 362/362
usemtl Char
f 363/363 364/364 365/365
f 363/363 365/365 366/366
f 367/367 368/368 369/369
f 367/367 369/369 370/370
f 371/371 372/372 373/373
f 371/371 373/373 374/374
f 375/375 376/376 377/377
f 375/375 377/377 378/378
f 379/379 380/380 381/381
f 379/379 381/381 382/382
f 383/383 384/384 385/385
f 383/383 385/385 386/386
f 387/387 388/388 389/389
f 387/387 389/389 390/390
f 391/391 392/392 393/393
f 391/391 393/393 394/394
f 395/395 396/396 397/397
f 395/395 397/397 398/398
f 399/399 400/400 401/401
f 399/399 401/401 402/402
f 403/403 404/404 405/405
f 403/403 405/405 406/406
f 407/407 408/408 409/409
f 407/407 409/409 410/410
f 411/411 412/412 413/413
f 411/411 413/413 414/414
f 415/415 416/416 417/417
f 415/415 417/417 418/418
f 419/419 421/421 420/420
f 419/419 423/423 422/422
f 419/419 425/425 424/424
f 419/419 427/427 426/426
f 419/419 429/429 428/428
f 419/419 431/431 430/430
f 419/419 433/433 432/432
f 419/419 435/435 434/434
f 419/419 437/437 436/436
f 419/419 439/439 438/438
f 419/419 441/441 440/440
f 419/419 443/443 442/442
f 419/419 445/445 444/444
f 419/419 447/447 446/446
f 448/448 449/449 450/450
f 448/448 451/451 452/452
f 448/448 453/453 454/454
f 448/448 455/455 456/456
f 448/448 457/457 458/458
f 448/448 459/459 460/460
f 448/448 461/461 462/462
f 448/448 463/463 464/464
f 448/448 465/465 466/466
f 448/448 467/467 468/468
f 448/448 469/469 470/470
f 448/448 471/471 472/472
f 448/448 473/473 474/474
f 448/448 475/475 476/476
usemtl Metal
f 477/477 478/478 479/479
f 477/477 479/479 480/480
f 481/481 482/482 483/483
f 481/481 483/483 484/484
f 485/485 486/486 487/487
f 485/485 487/487 488/488
f 489/489 490/490 491/491
f 489/489 491/491 492/492
f 493/493 494/494 495/495
f 493/493 495/495 496/496
f 497/497 498/498 499/499
f 497/497 499/499 500/500
usemtl Rope
f 501/501 502/502 503/503
f 501/501 503/503 504/504
f 505/505 506/506 507/507
f 505/505 507/507 508/508
f 509/509 510/510 511/511
f 509/509 511/511 512/512
f 513/513 514/514 515/515
f 513/513 515/515 516/516
f 517/517 518/518 519/519
f 517/517 519/519 520/520
f 521/521 522/522 523/523
f 521/521 523/523 524/524
f 525/525 526/526 527/527
f 525/525 527/527 528/528
f 529/529 530/530 531/531
f 529/529 531/531 532/532
f 533/533 534/534 535/535
f 533/533 535/535 536/536
f 537/537 538/538 539/539
f 537/537 539/539 540/540
f 541/541 542/542 543/543
f 541/541 543/543 544/544
f 545/545 546/546 547/547
f 545/545 547/547 548/548
f 549/549 550/550 551/551
f 549/549 551/551 552/552
f 553/553 554/554 555/555
f 553/553 555/555 556/556
f 557/557 558/558 559/559
f 557/557 559/559 560/560
f 561/561 562/562 563/563
f 561/561 563/563 564/564
f 565/565 566/566 567/567
f 565/565 567/567 568/568
f 569/569 570/570 571/571
f 569/569 571/571 572/572
f 573/573 574/574 575/575
f 573/573 575/575 576/576
f 577/577 578/578 579/579
f 577/577 579/579 580/580
f 581/581 582/582 583/583
f 581/581 583/583 584/584
f 585/585 586/586 587/587
f 585/585 587/587 588/588
f 589/589 590/590 591/591
f 589/589 591/591 592/592
f 593/593 594/594 595/595
f 593/593 595/595 596/596
f 597/597 598/598 599/599
f 597/597 599/599 600/600
f 601/601 602/602 603/603
f 601/601 603/603 604/604
f 605/605 606/606 607/607
f 605/605 607/607 608/608
f 609/609 610/610 611/611
f 609/609 611/611 612/612
f 613/613 614/614 615/615
f 613/613 615/615 616/616
f 617/617 618/618 619/619
f 617/617 619/619 620/620
f 621/621 622/622 623/623
f 621/621 623/623 624/624
f 625/625 626/626 627/627
f 625/625 627/627 628/628
f 629/629 630/630 631/631
f 629/629 631/631 632/632
f 633/633 634/634 635/635
f 633/633 635/635 636/636
f 637/637 638/638 639/639
f 637/637 639/639 640/640
f 641/641 642/642 643/643
f 641/641 643/643 644/644
f 645/645 646/646 647/647
f 645/645 647/647 648/648
f 649/649 650/650 651/651
f 649/649 651/651 652/652
f 653/653 654/654 655/655
f 653/653 655/655 656/656
f 657/657 658/658 659/659
f 657/657 659/659 660/660
f 661/661 662/662 663/663
f 661/661 663/663 664/664
f 665/665 666/666 667/667
f 665/665 667/667 668/668
f 669/669 670/670 671/671
f 669/669 671/671 672/672
f 673/673 674/674 675/675
f 673/673 675/675 676/676
f 677/677 678/678 679/679
f 677/677 679/679 680/680
f 681/681 682/682 683/683
f 681/681 683/683 684/684
f 685/685 686/686 687/687
f 685/685 687/687 688/688
f 689/689 690/690 691/691
f 689/689 691/691 692/692
f 693/693 694/694 695/695
f 693/693 695/695 696/696
f 697/697 698/698 699/699
f 697/697 699/699 700/700
f 701/701 702/702 703/703
f 701/701 703/703 704/704
f 705/705 706/706 707/707
f 705/705 707/707 708/708
f 709/709 710/710 711/711
f 709/709 711/711 712/712
f 713/713 714/714 715/715
f 713/713 715/715 716/716
f 717/717 718/718 719/719
f 717/717 719/719 720/720
f 721/721 722/722 723/723
f 721/721 723/723 724/724
