mtllib ../../../Materials/project_oen.mtl
o ax-tool-002_machete__worn
v 0.000000 0.020000 0.045000
v 0.028925 0.020000 0.034472
v 0.025712 0.320000 0.030642
v 0.000000 0.320000 0.040000
v 0.028925 0.020000 0.034472
v 0.044316 0.020000 0.007814
v 0.039392 0.320000 0.006946
v 0.025712 0.320000 0.030642
v 0.044316 0.020000 0.007814
v 0.038971 0.020000 -0.022500
v 0.034641 0.320000 -0.020000
v 0.039392 0.320000 0.006946
v 0.038971 0.020000 -0.022500
v 0.015391 0.020000 -0.042286
v 0.013681 0.320000 -0.037588
v 0.034641 0.320000 -0.020000
v 0.015391 0.020000 -0.042286
v -0.015391 0.020000 -0.042286
v -0.013681 0.320000 -0.037588
v 0.013681 0.320000 -0.037588
v -0.015391 0.020000 -0.042286
v -0.038971 0.020000 -0.022500
v -0.034641 0.320000 -0.020000
v -0.013681 0.320000 -0.037588
v -0.038971 0.020000 -0.022500
v -0.044316 0.020000 0.007814
v -0.039392 0.320000 0.006946
v -0.034641 0.320000 -0.020000
v -0.044316 0.020000 0.007814
v -0.028925 0.020000 0.034472
v -0.025712 0.320000 0.030642
v -0.039392 0.320000 0.006946
v -0.028925 0.020000 0.034472
v 0.000000 0.020000 0.045000
v 0.000000 0.320000 0.040000
v -0.025712 0.320000 0.030642
v 0.000000 0.020000 0.000000
v 0.000000 0.020000 0.045000
v 0.028925 0.020000 0.034472
v 0.028925 0.020000 0.034472
v 0.044316 0.020000 0.007814
v 0.044316 0.020000 0.007814
v 0.038971 0.020000 -0.022500
v 0.038971 0.020000 -0.022500
v 0.015391 0.020000 -0.042286
v 0.015391 0.020000 -0.042286
v -0.015391 0.020000 -0.042286
v -0.015391 0.020000 -0.042286
v -0.038971 0.020000 -0.022500
v -0.038971 0.020000 -0.022500
v -0.044316 0.020000 0.007814
v -0.044316 0.020000 0.007814
v -0.028925 0.020000 0.034472
v -0.028925 0.020000 0.034472
v 0.000000 0.020000 0.045000
v 0.000000 0.320000 0.000000
v 0.000000 0.320000 0.040000
v 0.025712 0.320000 0.030642
v 0.025712 0.320000 0.030642
v 0.039392 0.320000 0.006946
v 0.039392 0.320000 0.006946
v 0.034641 0.320000 -0.020000
v 0.034641 0.320000 -0.020000
v 0.013681 0.320000 -0.037588
v 0.013681 0.320000 -0.037588
v -0.013681 0.320000 -0.037588
v -0.013681 0.320000 -0.037588
v -0.034641 0.320000 -0.020000
v -0.034641 0.320000 -0.020000
v -0.039392 0.320000 0.006946
v -0.039392 0.320000 0.006946
v -0.025712 0.320000 0.030642
v -0.025712 0.320000 0.030642
v 0.000000 0.320000 0.040000
v -0.058061 0.296056 -0.017500
v 0.016528 0.288217 -0.017500
v 0.098061 1.063944 -0.017500
v 0.023472 1.071783 -0.017500
v 0.016528 0.288217 0.017500
v -0.058061 0.296056 0.017500
v 0.023472 1.071783 0.017500
v 0.098061 1.063944 0.017500
v -0.058061 0.296056 0.017500
v -0.058061 0.296056 -0.017500
v 0.023472 1.071783 -0.017500
v 0.023472 1.071783 0.017500
v 0.016528 0.288217 -0.017500
v 0.016528 0.288217 0.017500
v 0.098061 1.063944 0.017500
v 0.098061 1.063944 -0.017500
v 0.023472 1.071783 -0.017500
v 0.098061 1.063944 -0.017500
v 0.098061 1.063944 0.017500
v 0.023472 1.071783 0.017500
v -0.058061 0.296056 0.017500
v 0.016528 0.288217 0.017500
v 0.016528 0.288217 -0.017500
v -0.058061 0.296056 -0.017500
v -0.030508 0.980023 -0.012500
v 0.145559 0.942599 -0.012500
v 0.170508 1.059977 -0.012500
v -0.005559 1.097401 -0.012500
v 0.145559 0.942599 0.012500
v -0.030508 0.980023 0.012500
v -0.005559 1.097401 0.012500
v 0.170508 1.059977 0.012500
v -0.030508 0.980023 0.012500
v -0.030508 0.980023 -0.012500
v -0.005559 1.097401 -0.012500
v -0.005559 1.097401 0.012500
v 0.145559 0.942599 -0.012500
v 0.145559 0.942599 0.012500
v 0.170508 1.059977 0.012500
v 0.170508 1.059977 -0.012500
v -0.005559 1.097401 -0.012500
v 0.170508 1.059977 -0.012500
v 0.170508 1.059977 0.012500
v -0.005559 1.097401 0.012500
v -0.030508 0.980023 0.012500
v 0.145559 0.942599 0.012500
v 0.145559 0.942599 -0.012500
v -0.030508 0.980023 -0.012500
v -0.042688 0.172341 -0.060442
v 0.063639 0.162754 -0.086952
v 0.065753 0.187659 -0.087479
v -0.040573 0.197246 -0.060969
v 0.080573 0.162754 -0.019031
v -0.025753 0.172341 0.007479
v -0.023639 0.197246 0.006952
v 0.082688 0.187659 -0.019558
v -0.025753 0.172341 0.007479
v -0.042688 0.172341 -0.060442
v -0.040573 0.197246 -0.060969
v -0.023639 0.197246 0.006952
v 0.063639 0.162754 -0.086952
v 0.080573 0.162754 -0.019031
v 0.082688 0.187659 -0.019558
v 0.065753 0.187659 -0.087479
v -0.040573 0.197246 -0.060969
v 0.065753 0.187659 -0.087479
v 0.082688 0.187659 -0.019558
v -0.023639 0.197246 0.006952
v -0.025753 0.172341 0.007479
v 0.080573 0.162754 -0.019031
v 0.063639 0.162754 -0.086952
v -0.042688 0.172341 -0.060442
vt 0.000000 0.000000
vt 1.000000 0.000000
vt 1.000000 1.000000
vt 0.000000 1.000000
vt 0.000000 0.000000
vt 1.000000 0.000000
vt 1.000000 1.000000
vt 0.000000 1.000000
vt 0.000000 0.000000
vt 1.000000 0.000000
vt 1.000000 1.000000
vt 0.000000 1.000000
vt 0.000000 0.000000
vt 1.000000 0.000000
vt 1.000000 1.000000
vt 0.000000 1.000000
vt 0.000000 0.000000
vt 1.000000 0.000000
vt 1.000000 1.000000
vt 0.000000 1.000000
vt 0.000000 0.000000
vt 1.000000 0.000000
vt 1.000000 1.000000
vt 0.000000 1.000000
vt 0.000000 0.000000
vt 1.000000 0.000000
vt 1.000000 1.000000
vt 0.000000 1.000000
vt 0.000000 0.000000
vt 1.000000 0.000000
vt 1.000000 1.000000
vt 0.000000 1.000000
vt 0.000000 0.000000
vt 1.000000 0.000000
vt 1.000000 1.000000
vt 0.000000 1.000000
vt 0.500000 0.500000
vt 0.000000 0.000000
vt 1.000000 0.000000
vt 0.000000 0.000000
vt 1.000000 0.000000
vt 0.000000 0.000000
vt 1.000000 0.000000
vt 0.000000 0.000000
vt 1.000000 0.000000
vt 0.000000 0.000000
vt 1.000000 0.000000
vt 0.000000 0.000000
vt 1.000000 0.000000
vt 0.000000 0.000000
vt 1.000000 0.000000
vt 0.000000 0.000000
vt 1.000000 0.000000
vt 0.000000 0.000000
vt 1.000000 0.000000
vt 0.500000 0.500000
vt 0.000000 0.000000
vt 1.000000 0.000000
vt 0.000000 0.000000
vt 1.000000 0.000000
vt 0.000000 0.000000
vt 1.000000 0.000000
vt 0.000000 0.000000
vt 1.000000 0.000000
vt 0.000000 0.000000
vt 1.000000 0.000000
vt 0.000000 0.000000
vt 1.000000 0.000000
vt 0.000000 0.000000
vt 1.000000 0.000000
vt 0.000000 0.000000
vt 1.000000 0.000000
vt 0.000000 0.000000
vt 1.000000 0.000000
vt 0.000000 0.000000
vt 1.000000 0.000000
vt 1.000000 1.000000
vt 0.000000 1.000000
vt 0.000000 0.000000
vt 1.000000 0.000000
vt 1.000000 1.000000
vt 0.000000 1.000000
vt 0.000000 0.000000
vt 1.000000 0.000000
vt 1.000000 1.000000
vt 0.000000 1.000000
vt 0.000000 0.000000
vt 1.000000 0.000000
vt 1.000000 1.000000
vt 0.000000 1.000000
vt 0.000000 0.000000
vt 1.000000 0.000000
vt 1.000000 1.000000
vt 0.000000 1.000000
vt 0.000000 0.000000
vt 1.000000 0.000000
vt 1.000000 1.000000
vt 0.000000 1.000000
vt 0.000000 0.000000
vt 1.000000 0.000000
vt 1.000000 1.000000
vt 0.000000 1.000000
vt 0.000000 0.000000
vt 1.000000 0.000000
vt 1.000000 1.000000
vt 0.000000 1.000000
vt 0.000000 0.000000
vt 1.000000 0.000000
vt 1.000000 1.000000
vt 0.000000 1.000000
vt 0.000000 0.000000
vt 1.000000 0.000000
vt 1.000000 1.000000
vt 0.000000 1.000000
vt 0.000000 0.000000
vt 1.000000 0.000000
vt 1.000000 1.000000
vt 0.000000 1.000000
vt 0.000000 0.000000
vt 1.000000 0.000000
vt 1.000000 1.000000
vt 0.000000 1.000000
vt 0.000000 0.000000
vt 1.000000 0.000000
vt 1.000000 1.000000
vt 0.000000 1.000000
vt 0.000000 0.000000
vt 1.000000 0.000000
vt 1.000000 1.000000
vt 0.000000 1.000000
vt 0.000000 0.000000
vt 1.000000 0.000000
vt 1.000000 1.000000
vt 0.000000 1.000000
vt 0.000000 0.000000
vt 1.000000 0.000000
vt 1.000000 1.000000
vt 0.000000 1.000000
vt 0.000000 0.000000
vt 1.000000 0.000000
vt 1.000000 1.000000
vt 0.000000 1.000000
vt 0.000000 0.000000
vt 1.000000 0.000000
vt 1.000000 1.000000
vt 0.000000 1.000000
usemtl Wood
f 1/1 2/2 3/3
f 1/1 3/3 4/4
f 5/5 6/6 7/7
f 5/5 7/7 8/8
f 9/9 10/10 11/11
f 9/9 11/11 12/12
f 13/13 14/14 15/15
f 13/13 15/15 16/16
f 17/17 18/18 19/19
f 17/17 19/19 20/20
f 21/21 22/22 23/23
f 21/21 23/23 24/24
f 25/25 26/26 27/27
f 25/25 27/27 28/28
f 29/29 30/30 31/31
f 29/29 31/31 32/32
f 33/33 34/34 35/35
f 33/33 35/35 36/36
f 37/37 39/39 38/38
f 37/37 41/41 40/40
f 37/37 43/43 42/42
f 37/37 45/45 44/44
f 37/37 47/47 46/46
f 37/37 49/49 48/48
f 37/37 51/51 50/50
f 37/37 53/53 52/52
f 37/37 55/55 54/54
f 56/56 57/57 58/58
f 56/56 59/59 60/60
f 56/56 61/61 62/62
f 56/56 63/63 64/64
f 56/56 65/65 66/66
f 56/56 67/67 68/68
f 56/56 69/69 70/70
f 56/56 71/71 72/72
f 56/56 73/73 74/74
usemtl Metal
f 75/75 76/76 77/77
f 75/75 77/77 78/78
f 79/79 80/80 81/81
f 79/79 81/81 82/82
f 83/83 84/84 85/85
f 83/83 85/85 86/86
f 87/87 88/88 89/89
f 87/87 89/89 90/90
f 91/91 92/92 93/93
f 91/91 93/93 94/94
f 95/95 96/96 97/97
f 95/95 97/97 98/98
f 99/99 100/100 101/101
f 99/99 101/101 102/102
f 103/103 104/104 105/105
f 103/103 105/105 106/106
f 107/107 108/108 109/109
f 107/107 109/109 110/110
f 111/111 112/112 113/113
f 111/111 113/113 114/114
f 115/115 116/116 117/117
f 115/115 117/117 118/118
f 119/119 120/120 121/121
f 119/119 121/121 122/122
usemtl Cloth
f 123/123 124/124 125/125
f 123/123 125/125 126/126
f 127/127 128/128 129/129
f 127/127 129/129 130/130
f 131/131 132/132 133/133
f 131/131 133/133 134/134
f 135/135 136/136 137/137
f 135/135 137/137 138/138
f 139/139 140/140 141/141
f 139/139 141/141 142/142
f 143/143 144/144 145/145
f 143/143 145/145 146/146
