mtllib ../../../Materials/project_oen.mtl
o ax-tool-004_shovel__clean
v 0.000000 0.250000 0.035000
v 0.022498 0.250000 0.026812
v 0.019284 1.200000 0.022981
v 0.000000 1.200000 0.030000
v 0.022498 0.250000 0.026812
v 0.034468 0.250000 0.006078
v 0.029544 1.200000 0.005209
v 0.019284 1.200000 0.022981
v 0.034468 0.250000 0.006078
v 0.030311 0.250000 -0.017500
v 0.025981 1.200000 -0.015000
v 0.029544 1.200000 0.005209
v 0.030311 0.250000 -0.017500
v 0.011971 0.250000 -0.032889
v 0.010261 1.200000 -0.028191
v 0.025981 1.200000 -0.015000
v 0.011971 0.250000 -0.032889
v -0.011971 0.250000 -0.032889
v -0.010261 1.200000 -0.028191
v 0.010261 1.200000 -0.028191
v -0.011971 0.250000 -0.032889
v -0.030311 0.250000 -0.017500
v -0.025981 1.200000 -0.015000
v -0.010261 1.200000 -0.028191
v -0.030311 0.250000 -0.017500
v -0.034468 0.250000 0.006078
v -0.029544 1.200000 0.005209
v -0.025981 1.200000 -0.015000
v -0.034468 0.250000 0.006078
v -0.022498 0.250000 0.026812
v -0.019284 1.200000 0.022981
v -0.029544 1.200000 0.005209
v -0.022498 0.250000 0.026812
v 0.000000 0.250000 0.035000
v 0.000000 1.200000 0.030000
v -0.019284 1.200000 0.022981
v 0.000000 0.250000 0.000000
v 0.000000 0.250000 0.035000
v 0.022498 0.250000 0.026812
v 0.022498 0.250000 0.026812
v 0.034468 0.250000 0.006078
v 0.034468 0.250000 0.006078
v 0.030311 0.250000 -0.017500
v 0.030311 0.250000 -0.017500
v 0.011971 0.250000 -0.032889
v 0.011971 0.250000 -0.032889
v -0.011971 0.250000 -0.032889
v -0.011971 0.250000 -0.032889
v -0.030311 0.250000 -0.017500
v -0.030311 0.250000 -0.017500
v -0.034468 0.250000 0.006078
v -0.034468 0.250000 0.006078
v -0.022498 0.250000 0.026812
v -0.022498 0.250000 0.026812
v 0.000000 0.250000 0.035000
v 0.000000 1.200000 0.000000
v 0.000000 1.200000 0.030000
v 0.019284 1.200000 0.022981
v 0.019284 1.200000 0.022981
v 0.029544 1.200000 0.005209
v 0.029544 1.200000 0.005209
v 0.025981 1.200000 -0.015000
v 0.025981 1.200000 -0.015000
v 0.010261 1.200000 -0.028191
v 0.010261 1.200000 -0.028191
v -0.010261 1.200000 -0.028191
v -0.010261 1.200000 -0.028191
v -0.025981 1.200000 -0.015000
v -0.025981 1.200000 -0.015000
v -0.029544 1.200000 0.005209
v -0.029544 1.200000 0.005209
v -0.019284 1.200000 0.022981
v -0.019284 1.200000 0.022981
v 0.000000 1.200000 0.030000
v -0.160000 -0.020000 -0.022500
v 0.160000 -0.020000 -0.022500
v 0.160000 0.260000 -0.022500
v -0.160000 0.260000 -0.022500
v 0.160000 -0.020000 0.022500
v -0.160000 -0.020000 0.022500
v -0.160000 0.260000 0.022500
v 0.160000 0.260000 0.022500
v -0.160000 -0.020000 0.022500
v -0.160000 -0.020000 -0.022500
v -0.160000 0.260000 -0.022500
v -0.160000 0.260000 0.022500
v 0.160000 -0.020000 -0.022500
v 0.160000 -0.020000 0.022500
v 0.160000 0.260000 0.022500
v 0.160000 0.260000 -0.022500
v -0.160000 0.260000 -0.022500
v 0.160000 0.260000 -0.022500
v 0.160000 0.260000 0.022500
v -0.160000 0.260000 0.022500
v -0.160000 -0.020000 0.022500
v 0.160000 -0.020000 0.022500
v 0.160000 -0.020000 -0.022500
v -0.160000 -0.020000 -0.022500
v 0.135000 1.290000 0.000000
v 0.121631 1.348574 0.000000
v 0.106067 1.341079 0.023776
v 0.117725 1.290000 0.023776
v 0.117725 1.290000 0.023776
v 0.106067 1.341079 0.023776
v 0.080884 1.328952 0.014695
v 0.089775 1.290000 0.014695
v 0.089775 1.290000 0.014695
v 0.080884 1.328952 0.014695
v 0.080884 1.328952 -0.014695
v 0.089775 1.290000 -0.014695
v 0.089775 1.290000 -0.014695
v 0.080884 1.328952 -0.014695
v 0.106067 1.341079 -0.023776
v 0.117725 1.290000 -0.023776
v 0.117725 1.290000 -0.023776
v 0.106067 1.341079 -0.023776
v 0.121631 1.348574 0.000000
v 0.135000 1.290000 0.000000
v 0.121631 1.348574 0.000000
v 0.084171 1.395547 0.000000
v 0.073401 1.382041 0.023776
v 0.106067 1.341079 0.023776
v 0.106067 1.341079 0.023776
v 0.073401 1.382041 0.023776
v 0.055974 1.360189 0.014695
v 0.080884 1.328952 0.014695
v 0.080884 1.328952 0.014695
v 0.055974 1.360189 0.014695
v 0.055974 1.360189 -0.014695
v 0.080884 1.328952 -0.014695
v 0.080884 1.328952 -0.014695
v 0.055974 1.360189 -0.014695
v 0.073401 1.382041 -0.023776
v 0.106067 1.341079 -0.023776
v 0.106067 1.341079 -0.023776
v 0.073401 1.382041 -0.023776
v 0.084171 1.395547 0.000000
v 0.121631 1.348574 0.000000
v 0.084171 1.395547 0.000000
v 0.030040 1.421615 0.000000
v 0.026196 1.404774 0.023776
v 0.073401 1.382041 0.023776
v 0.073401 1.382041 0.023776
v 0.026196 1.404774 0.023776
v 0.019977 1.377524 0.014695
v 0.055974 1.360189 0.014695
v 0.055974 1.360189 0.014695
v 0.019977 1.377524 0.014695
v 0.019977 1.377524 -0.014695
v 0.055974 1.360189 -0.014695
v 0.055974 1.360189 -0.014695
v 0.019977 1.377524 -0.014695
v 0.026196 1.404774 -0.023776
v 0.073401 1.382041 -0.023776
v 0.073401 1.382041 -0.023776
v 0.026196 1.404774 -0.023776
v 0.030040 1.421615 0.000000
v 0.084171 1.395547 0.000000
v 0.030040 1.421615 0.000000
v -0.030040 1.421615 0.000000
v -0.026196 1.404774 0.023776
v 0.026196 1.404774 0.023776
v 0.026196 1.404774 0.023776
v -0.026196 1.404774 0.023776
v -0.019977 1.377524 0.014695
v 0.019977 1.377524 0.014695
v 0.019977 1.377524 0.014695
v -0.019977 1.377524 0.014695
v -0.019977 1.377524 -0.014695
v 0.019977 1.377524 -0.014695
v 0.019977 1.377524 -0.014695
v -0.019977 1.377524 -0.014695
v -0.026196 1.404774 -0.023776
v 0.026196 1.404774 -0.023776
v 0.026196 1.404774 -0.023776
v -0.026196 1.404774 -0.023776
v -0.030040 1.421615 0.000000
v 0.030040 1.421615 0.000000
v -0.030040 1.421615 0.000000
v -0.084171 1.395547 0.000000
v -0.073401 1.382041 0.023776
v -0.026196 1.404774 0.023776
v -0.026196 1.404774 0.023776
v -0.073401 1.382041 0.023776
v -0.055974 1.360189 0.014695
v -0.019977 1.377524 0.014695
v -0.019977 1.377524 0.014695
v -0.055974 1.360189 0.014695
v -0.055974 1.360189 -0.014695
v -0.019977 1.377524 -0.014695
v -0.019977 1.377524 -0.014695
v -0.055974 1.360189 -0.014695
v -0.073401 1.382041 -0.023776
v -0.026196 1.404774 -0.023776
v -0.026196 1.404774 -0.023776
v -0.073401 1.382041 -0.023776
v -0.084171 1.395547 0.000000
v -0.030040 1.421615 0.000000
v -0.084171 1.395547 0.000000
v -0.121631 1.348574 0.000000
v -0.106067 1.341079 0.023776
v -0.073401 1.382041 0.023776
v -0.073401 1.382041 0.023776
v -0.106067 1.341079 0.023776
v -0.080884 1.328952 0.014695
v -0.055974 1.360189 0.014695
v -0.055974 1.360189 0.014695
v -0.080884 1.328952 0.014695
v -0.080884 1.328952 -0.014695
v -0.055974 1.360189 -0.014695
v -0.055974 1.360189 -0.014695
v -0.080884 1.328952 -0.014695
v -0.106067 1.341079 -0.023776
v -0.073401 1.382041 -0.023776
v -0.073401 1.382041 -0.023776
v -0.106067 1.341079 -0.023776
v -0.121631 1.348574 0.000000
v -0.084171 1.395547 0.000000
v -0.121631 1.348574 0.000000
v -0.135000 1.290000 0.000000
v -0.117725 1.290000 0.023776
v -0.106067 1.341079 0.023776
v -0.106067 1.341079 0.023776
v -0.117725 1.290000 0.023776
v -0.089775 1.290000 0.014695
v -0.080884 1.328952 0.014695
v -0.080884 1.328952 0.014695
v -0.089775 1.290000 0.014695
v -0.089775 1.290000 -0.014695
v -0.080884 1.328952 -0.014695
v -0.080884 1.328952 -0.014695
v -0.089775 1.290000 -0.014695
v -0.117725 1.290000 -0.023776
v -0.106067 1.341079 -0.023776
v -0.106067 1.341079 -0.023776
v -0.117725 1.290000 -0.023776
v -0.135000 1.290000 0.000000
v -0.121631 1.348574 0.000000
v -0.135000 1.290000 0.000000
v -0.121631 1.231426 0.000000
v -0.106067 1.238921 0.023776
v -0.117725 1.290000 0.023776
v -0.117725 1.290000 0.023776
v -0.106067 1.238921 0.023776
v -0.080884 1.251048 0.014695
v -0.089775 1.290000 0.014695
v -0.089775 1.290000 0.014695
v -0.080884 1.251048 0.014695
v -0.080884 1.251048 -0.014695
v -0.089775 1.290000 -0.014695
v -0.089775 1.290000 -0.014695
v -0.080884 1.251048 -0.014695
v -0.106067 1.238921 -0.023776
v -0.117725 1.290000 -0.023776
v -0.117725 1.290000 -0.023776
v -0.106067 1.238921 -0.023776
v -0.121631 1.231426 0.000000
v -0.135000 1.290000 0.000000
v -0.121631 1.231426 0.000000
v -0.084171 1.184453 0.000000
v -0.073401 1.197959 0.023776
v -0.106067 1.238921 0.023776
v -0.106067 1.238921 0.023776
v -0.073401 1.197959 0.023776
v -0.055974 1.219811 0.014695
v -0.080884 1.251048 0.014695
v -0.080884 1.251048 0.014695
v -0.055974 1.219811 0.014695
v -0.055974 1.219811 -0.014695
v -0.080884 1.251048 -0.014695
v -0.080884 1.251048 -0.014695
v -0.055974 1.219811 -0.014695
v -0.073401 1.197959 -0.023776
v -0.106067 1.238921 -0.023776
v -0.106067 1.238921 -0.023776
v -0.073401 1.197959 -0.023776
v -0.084171 1.184453 0.000000
v -0.121631 1.231426 0.000000
v -0.084171 1.184453 0.000000
v -0.030040 1.158385 0.000000
v -0.026196 1.175226 0.023776
v -0.073401 1.197959 0.023776
v -0.073401 1.197959 0.023776
v -0.026196 1.175226 0.023776
v -0.019977 1.202476 0.014695
v -0.055974 1.219811 0.014695
v -0.055974 1.219811 0.014695
v -0.019977 1.202476 0.014695
v -0.019977 1.202476 -0.014695
v -0.055974 1.219811 -0.014695
v -0.055974 1.219811 -0.014695
v -0.019977 1.202476 -0.014695
v -0.026196 1.175226 -0.023776
v -0.073401 1.197959 -0.023776
v -0.073401 1.197959 -0.023776
v -0.026196 1.175226 -0.023776
v -0.030040 1.158385 0.000000
v -0.084171 1.184453 0.000000
v -0.030040 1.158385 0.000000
v 0.030040 1.158385 0.000000
v 0.026196 1.175226 0.023776
v -0.026196 1.175226 0.023776
v -0.026196 1.175226 0.023776
v 0.026196 1.175226 0.023776
v 0.019977 1.202476 0.014695
v -0.019977 1.202476 0.014695
v -0.019977 1.202476 0.014695
v 0.019977 1.202476 0.014695
v 0.019977 1.202476 -0.014695
v -0.019977 1.202476 -0.014695
v -0.019977 1.202476 -0.014695
v 0.019977 1.202476 -0.014695
v 0.026196 1.175226 -0.023776
v -0.026196 1.175226 -0.023776
v -0.026196 1.175226 -0.023776
v 0.026196 1.175226 -0.023776
v 0.030040 1.158385 0.000000
v -0.030040 1.158385 0.000000
v 0.030040 1.158385 0.000000
v 0.084171 1.184453 0.000000
v 0.073401 1.197959 0.023776
v 0.026196 1.175226 0.023776
v 0.026196 1.175226 0.023776
v 0.073401 1.197959 0.023776
v 0.055974 1.219811 0.014695
v 0.019977 1.202476 0.014695
v 0.019977 1.202476 0.014695
v 0.055974 1.219811 0.014695
v 0.055974 1.219811 -0.014695
v 0.019977 1.202476 -0.014695
v 0.019977 1.202476 -0.014695
v 0.055974 1.219811 -0.014695
v 0.073401 1.197959 -0.023776
v 0.026196 1.175226 -0.023776
v 0.026196 1.175226 -0.023776
v 0.073401 1.197959 -0.023776
v 0.084171 1.184453 0.000000
v 0.030040 1.158385 0.000000
v 0.084171 1.184453 0.000000
v 0.121631 1.231426 0.000000
v 0.106067 1.238921 0.023776
v 0.073401 1.197959 0.023776
v 0.073401 1.197959 0.023776
v 0.106067 1.238921 0.023776
v 0.080884 1.251048 0.014695
v 0.055974 1.219811 0.014695
v 0.055974 1.219811 0.014695
v 0.080884 1.251048 0.014695
v 0.080884 1.251048 -0.014695
v 0.055974 1.219811 -0.014695
v 0.055974 1.219811 -0.014695
v 0.080884 1.251048 -0.014695
v 0.106067 1.238921 -0.023776
v 0.073401 1.197959 -0.023776
v 0.073401 1.197959 -0.023776
v 0.106067 1.238921 -0.023776
v 0.121631 1.231426 0.000000
v 0.084171 1.184453 0.000000
v 0.121631 1.231426 0.000000
v 0.135000 1.290000 0.000000
v 0.117725 1.290000 0.023776
v 0.106067 1.238921 0.023776
v 0.106067 1.238921 0.023776
v 0.117725 1.290000 0.023776
v 0.089775 1.290000 0.014695
v 0.080884 1.251048 0.014695
v 0.080884 1.251048 0.014695
v 0.089775 1.290000 0.014695
v 0.089775 1.290000 -0.014695
v 0.080884 1.251048 -0.014695
v 0.080884 1.251048 -0.014695
v 0.089775 1.290000 -0.014695
v 0.117725 1.290000 -0.023776
v 0.106067 1.238921 -0.023776
v 0.106067 1.238921 -0.023776
v 0.117725 1.290000 -0.023776
v 0.135000 1.290000 0.000000
v 0.121631 1.231426 0.000000
vt 0.000000 0.000000
vt 1.000000 0.000000
vt 1.000000 1.000000
vt 0.000000 1.000000
vt 0.000000 0.000000
vt 1.000000 0.000000
vt 1.000000 1.000000
vt 0.000000 1.000000
vt 0.000000 0.000000
vt 1.000000 0.000000
vt 1.000000 1.000000
vt 0.000000 1.000000
vt 0.000000 0.000000
vt 1.000000 0.000000
vt 1.000000 1.000000
vt 0.000000 1.000000
vt 0.000000 0.000000
vt 1.000000 0.000000
vt 1.000000 1.000000
vt 0.000000 1.000000
vt 0.000000 0.000000
vt 1.000000 0.000000
vt 1.000000 1.000000
vt 0.000000 1.000000
vt 0.000000 0.000000
vt 1.000000 0.000000
vt 1.000000 1.000000
vt 0.000000 1.000000
vt 0.000000 0.000000
vt 1.000000 0.000000
vt 1.000000 1.000000
vt 0.000000 1.000000
vt 0.000000 0.000000
vt 1.000000 0.000000
vt 1.000000 1.000000
vt 0.000000 1.000000
vt 0.500000 0.500000
vt 0.000000 0.000000
vt 1.000000 0.000000
vt 0.000000 0.000000
vt 1.000000 0.000000
vt 0.000000 0.000000
vt 1.000000 0.000000
vt 0.000000 0.000000
vt 1.000000 0.000000
vt 0.000000 0.000000
vt 1.000000 0.000000
vt 0.000000 0.000000
vt 1.000000 0.000000
vt 0.000000 0.000000
vt 1.000000 0.000000
vt 0.000000 0.000000
vt 1.000000 0.000000
vt 0.000000 0.000000
vt 1.000000 0.000000
vt 0.500000 0.500000
vt 0.000000 0.000000
vt 1.000000 0.000000
vt 0.000000 0.000000
vt 1.000000 0.000000
vt 0.000000 0.000000
vt 1.000000 0.000000
vt 0.000000 0.000000
vt 1.000000 0.000000
vt 0.000000 0.000000
vt 1.000000 0.000000
vt 0.000000 0.000000
vt 1.000000 0.000000
vt 0.000000 0.000000
vt 1.000000 0.000000
vt 0.000000 0.000000
vt 1.000000 0.000000
vt 0.000000 0.000000
vt 1.000000 0.000000
vt 0.000000 0.000000
vt 1.000000 0.000000
vt 1.000000 1.000000
vt 0.000000 1.000000
vt 0.000000 0.000000
vt 1.000000 0.000000
vt 1.000000 1.000000
vt 0.000000 1.000000
vt 0.000000 0.000000
vt 1.000000 0.000000
vt 1.000000 1.000000
vt 0.000000 1.000000
vt 0.000000 0.000000
vt 1.000000 0.000000
vt 1.000000 1.000000
vt 0.000000 1.000000
vt 0.000000 0.000000
vt 1.000000 0.000000
vt 1.000000 1.000000
vt 0.000000 1.000000
vt 0.000000 0.000000
vt 1.000000 0.000000
vt 1.000000 1.000000
vt 0.000000 1.000000
vt 0.000000 0.000000
vt 1.000000 0.000000
vt 1.000000 1.000000
vt 0.000000 1.000000
vt 0.000000 0.000000
vt 1.000000 0.000000
vt 1.000000 1.000000
vt 0.000000 1.000000
vt 0.000000 0.000000
vt 1.000000 0.000000
vt 1.000000 1.000000
vt 0.000000 1.000000
vt 0.000000 0.000000
vt 1.000000 0.000000
vt 1.000000 1.000000
vt 0.000000 1.000000
vt 0.000000 0.000000
vt 1.000000 0.000000
vt 1.000000 1.000000
vt 0.000000 1.000000
vt 0.000000 0.000000
vt 1.000000 0.000000
vt 1.000000 1.000000
vt 0.000000 1.000000
vt 0.000000 0.000000
vt 1.000000 0.000000
vt 1.000000 1.000000
vt 0.000000 1.000000
vt 0.000000 0.000000
vt 1.000000 0.000000
vt 1.000000 1.000000
vt 0.000000 1.000000
vt 0.000000 0.000000
vt 1.000000 0.000000
vt 1.000000 1.000000
vt 0.000000 1.000000
vt 0.000000 0.000000
vt 1.000000 0.000000
vt 1.000000 1.000000
vt 0.000000 1.000000
vt 0.000000 0.000000
vt 1.000000 0.000000
vt 1.000000 1.000000
vt 0.000000 1.000000
vt 0.000000 0.000000
vt 1.000000 0.000000
vt 1.000000 1.000000
vt 0.000000 1.000000
vt 0.000000 0.000000
vt 1.000000 0.000000
vt 1.000000 1.000000
vt 0.000000 1.000000
vt 0.000000 0.000000
vt 1.000000 0.000000
vt 1.000000 1.000000
vt 0.000000 1.000000
vt 0.000000 0.000000
vt 1.000000 0.000000
vt 1.000000 1.000000
vt 0.000000 1.000000
vt 0.000000 0.000000
vt 1.000000 0.000000
vt 1.000000 1.000000
vt 0.000000 1.000000
vt 0.000000 0.000000
vt 1.000000 0.000000
vt 1.000000 1.000000
vt 0.000000 1.000000
vt 0.000000 0.000000
vt 1.000000 0.000000
vt 1.000000 1.000000
vt 0.000000 1.000000
vt 0.000000 0.000000
vt 1.000000 0.000000
vt 1.000000 1.000000
vt 0.000000 1.000000
vt 0.000000 0.000000
vt 1.000000 0.000000
vt 1.000000 1.000000
vt 0.000000 1.000000
vt 0.000000 0.000000
vt 1.000000 0.000000
vt 1.000000 1.000000
vt 0.000000 1.000000
vt 0.000000 0.000000
vt 1.000000 0.000000
vt 1.000000 1.000000
vt 0.000000 1.000000
vt 0.000000 0.000000
vt 1.000000 0.000000
vt 1.000000 1.000000
vt 0.000000 1.000000
vt 0.000000 0.000000
vt 1.000000 0.000000
vt 1.000000 1.000000
vt 0.000000 1.000000
vt 0.000000 0.000000
vt 1.000000 0.000000
vt 1.000000 1.000000
vt 0.000000 1.000000
vt 0.000000 0.000000
vt 1.000000 0.000000
vt 1.000000 1.000000
vt 0.000000 1.000000
vt 0.000000 0.000000
vt 1.000000 0.000000
vt 1.000000 1.000000
vt 0.000000 1.000000
vt 0.000000 0.000000
vt 1.000000 0.000000
vt 1.000000 1.000000
vt 0.000000 1.000000
vt 0.000000 0.000000
vt 1.000000 0.000000
vt 1.000000 1.000000
vt 0.000000 1.000000
vt 0.000000 0.000000
vt 1.000000 0.000000
vt 1.000000 1.000000
vt 0.000000 1.000000
vt 0.000000 0.000000
vt 1.000000 0.000000
vt 1.000000 1.000000
vt 0.000000 1.000000
vt 0.000000 0.000000
vt 1.000000 0.000000
vt 1.000000 1.000000
vt 0.000000 1.000000
vt 0.000000 0.000000
vt 1.000000 0.000000
vt 1.000000 1.000000
vt 0.000000 1.000000
vt 0.000000 0.000000
vt 1.000000 0.000000
vt 1.000000 1.000000
vt 0.000000 1.000000
vt 0.000000 0.000000
vt 1.000000 0.000000
vt 1.000000 1.000000
vt 0.000000 1.000000
vt 0.000000 0.000000
vt 1.000000 0.000000
vt 1.000000 1.000000
vt 0.000000 1.000000
vt 0.000000 0.000000
vt 1.000000 0.000000
vt 1.000000 1.000000
vt 0.000000 1.000000
vt 0.000000 0.000000
vt 1.000000 0.000000
vt 1.000000 1.000000
vt 0.000000 1.000000
vt 0.000000 0.000000
vt 1.000000 0.000000
vt 1.000000 1.000000
vt 0.000000 1.000000
vt 0.000000 0.000000
vt 1.000000 0.000000
vt 1.000000 1.000000
vt 0.000000 1.000000
vt 0.000000 0.000000
vt 1.000000 0.000000
vt 1.000000 1.000000
vt 0.000000 1.000000
vt 0.000000 0.000000
vt 1.000000 0.000000
vt 1.000000 1.000000
vt 0.000000 1.000000
vt 0.000000 0.000000
vt 1.000000 0.000000
vt 1.000000 1.000000
vt 0.000000 1.000000
vt 0.000000 0.000000
vt 1.000000 0.000000
vt 1.000000 1.000000
vt 0.000000 1.000000
vt 0.000000 0.000000
vt 1.000000 0.000000
vt 1.000000 1.000000
vt 0.000000 1.000000
vt 0.000000 0.000000
vt 1.000000 0.000000
vt 1.000000 1.000000
vt 0.000000 1.000000
vt 0.000000 0.000000
vt 1.000000 0.000000
vt 1.000000 1.000000
vt 0.000000 1.000000
vt 0.000000 0.000000
vt 1.000000 0.000000
vt 1.000000 1.000000
vt 0.000000 1.000000
vt 0.000000 0.000000
vt 1.000000 0.000000
vt 1.000000 1.000000
vt 0.000000 1.000000
vt 0.000000 0.000000
vt 1.000000 0.000000
vt 1.000000 1.000000
vt 0.000000 1.000000
vt 0.000000 0.000000
vt 1.000000 0.000000
vt 1.000000 1.000000
vt 0.000000 1.000000
vt 0.000000 0.000000
vt 1.000000 0.000000
vt 1.000000 1.000000
vt 0.000000 1.000000
vt 0.000000 0.000000
vt 1.000000 0.000000
vt 1.000000 1.000000
vt 0.000000 1.000000
vt 0.000000 0.000000
vt 1.000000 0.000000
vt 1.000000 1.000000
vt 0.000000 1.000000
vt 0.000000 0.000000
vt 1.000000 0.000000
vt 1.000000 1.000000
vt 0.000000 1.000000
vt 0.000000 0.000000
vt 1.000000 0.000000
vt 1.000000 1.000000
vt 0.000000 1.000000
vt 0.000000 0.000000
vt 1.000000 0.000000
vt 1.000000 1.000000
vt 0.000000 1.000000
vt 0.000000 0.000000
vt 1.000000 0.000000
vt 1.000000 1.000000
vt 0.000000 1.000000
vt 0.000000 0.000000
vt 1.000000 0.000000
vt 1.000000 1.000000
vt 0.000000 1.000000
vt 0.000000 0.000000
vt 1.000000 0.000000
vt 1.000000 1.000000
vt 0.000000 1.000000
vt 0.000000 0.000000
vt 1.000000 0.000000
vt 1.000000 1.000000
vt 0.000000 1.000000
vt 0.000000 0.000000
vt 1.000000 0.000000
vt 1.000000 1.000000
vt 0.000000 1.000000
vt 0.000000 0.000000
vt 1.000000 0.000000
vt 1.000000 1.000000
vt 0.000000 1.000000
vt 0.000000 0.000000
vt 1.000000 0.000000
vt 1.000000 1.000000
vt 0.000000 1.000000
vt 0.000000 0.000000
vt 1.000000 0.000000
vt 1.000000 1.000000
vt 0.000000 1.000000
vt 0.000000 0.000000
vt 1.000000 0.000000
vt 1.000000 1.000000
vt 0.000000 1.000000
vt 0.000000 0.000000
vt 1.000000 0.000000
vt 1.000000 1.000000
vt 0.000000 1.000000
vt 0.000000 0.000000
vt 1.000000 0.000000
vt 1.000000 1.000000
vt 0.000000 1.000000
vt 0.000000 0.000000
vt 1.000000 0.000000
vt 1.000000 1.000000
vt 0.000000 1.000000
vt 0.000000 0.000000
vt 1.000000 0.000000
vt 1.000000 1.000000
vt 0.000000 1.000000
usemtl Wood
f 1/1 2/2 3/3
f 1/1 3/3 4/4
f 5/5 6/6 7/7
f 5/5 7/7 8/8
f 9/9 10/10 11/11
f 9/9 11/11 12/12
f 13/13 14/14 15/15
f 13/13 15/15 16/16
f 17/17 18/18 19/19
f 17/17 19/19 20/20
f 21/21 22/22 23/23
f 21/21 23/23 24/24
f 25/25 26/26 27/27
f 25/25 27/27 28/28
f 29/29 30/30 31/31
f 29/29 31/31 32/32
f 33/33 34/34 35/35
f 33/33 35/35 36/36
f 37/37 39/39 38/38
f 37/37 41/41 40/40
f 37/37 43/43 42/42
f 37/37 45/45 44/44
f 37/37 47/47 46/46
f 37/37 49/49 48/48
f 37/37 51/51 50/50
f 37/37 53/53 52/52
f 37/37 55/55 54/54
f 56/56 57/57 58/58
f 56/56 59/59 60/60
f 56/56 61/61 62/62
f 56/56 63/63 64/64
f 56/56 65/65 66/66
f 56/56 67/67 68/68
f 56/56 69/69 70/70
f 56/56 71/71 72/72
f 56/56 73/73 74/74
usemtl Metal
f 75/75 76/76 77/77
f 75/75 77/77 78/78
f 79/79 80/80 81/81
f 79/79 81/81 82/82
f 83/83 84/84 85/85
f 83/83 85/85 86/86
f 87/87 88/88 89/89
f 87/87 89/89 90/90
f 91/91 92/92 93/93
f 91/91 93/93 94/94
f 95/95 96/96 97/97
f 95/95 97/97 98/98
usemtl Wood
f 99/99 100/100 101/101
f 99/99 101/101 102/102
f 103/103 104/104 105/105
f 103/103 105/105 106/106
f 107/107 108/108 109/109
f 107/107 109/109 110/110
f 111/111 112/112 113/113
f 111/111 113/113 114/114
f 115/115 116/116 117/117
f 115/115 117/117 118/118
f 119/119 120/120 121/121
f 119/119 121/121 122/122
f 123/123 124/124 125/125
f 123/123 125/125 126/126
f 127/127 128/128 129/129
f 127/127 129/129 130/130
f 131/131 132/132 133/133
f 131/131 133/133 134/134
f 135/135 136/136 137/137
f 135/135 137/137 138/138
f 139/139 140/140 141/141
f 139/139 141/141 142/142
f 143/143 144/144 145/145
f 143/143 145/145 146/146
f 147/147 148/148 149/149
f 147/147 149/149 150/150
f 151/151 152/152 153/153
f 151/151 153/153 154/154
f 155/155 156/156 157/157
f 155/155 157/157 158/158
f 159/159 160/160 161/161
f 159/159 161/161 162/162
f 163/163 164/164 165/165
f 163/163 165/165 166/166
f 167/167 168/168 169/169
f 167/167 169/169 170/170
f 171/171 172/172 173/173
f 171/171 173/173 174/174
f 175/175 176/176 177/177
f 175/175 177/177 178/178
f 179/179 180/180 181/181
f 179/179 181/181 182/182
f 183/183 184/184 185/185
f 183/183 185/185 186/186
f 187/187 188/188 189/189
f 187/187 189/189 190/190
f 191/191 192/192 193/193
f 191/191 193/193 194/194
f 195/195 196/196 197/197
f 195/195 197/197 198/198
f 199/199 200/200 201/201
f 199/199 201/201 202/202
f 203/203 204/204 205/205
f 203/203 205/205 206/206
f 207/207 208/208 209/209
f 207/207 209/209 210/210
f 211/211 212/212 213/213
f 211/211 213/213 214/214
f 215/215 216/216 217/217
f 215/215 217/217 218/218
f 219/219 220/220 221/221
f 219/219 221/221 222/222
f 223/223 224/224 225/225
f 223/223 225/225 226/226
f 227/227 228/228 229/229
f 227/227 229/229 230/230
f 231/231 232/232 233/233
f 231/231 233/233 234/234
f 235/235 236/236 237/237
f 235/235 237/237 238/238
f 239/239 240/240 241/241
f 239/239 241/241 242/242
f 243/243 244/244 245/245
f 243/243 245/245 246/246
f 247/247 248/248 249/249
f 247/247 249/249 250/250
f 251/251 252/252 253/253
f 251/251 253/253 254/254
f 255/255 256/256 257/257
f 255/255 257/257 258/258
f 259/259 260/260 261/261
f 259/259 261/261 262/262
f 263/263 264/264 265/265
f 263/263 265/265 266/266
f 267/267 268/268 269/269
f 267/267 269/269 270/270
f 271/271 272/272 273/273
f 271/271 273/273 274/274
f 275/275 276/276 277/277
f 275/275 277/277 278/278
f 279/279 280/280 281/281
f 279/279 281/281 282/282
f 283/283 284/284 285/285
f 283/283 285/285 286/286
f 287/287 288/288 289/289
f 287/287 289/289 290/290
f 291/291 292/292 293/293
f 291/291 293/293 294/294
f 295/295 296/296 297/297
f 295/295 297/297 298/298
f 299/299 300/300 301/301
f 299/299 301/301 302/302
f 303/303 304/304 305/305
f 303/303 305/305 306/306
f 307/307 308/308 309/309
f 307/307 309/309 310/310
f 311/311 312/312 313/313
f 311/311 313/313 314/314
f 315/315 316/316 317/317
f 315/315 317/317 318/318
f 319/319 320/320 321/321
f 319/319 321/321 322/322
f 323/323 324/324 325/325
f 323/323 325/325 326/326
f 327/327 328/328 329/329
f 327/327 329/329 330/330
f 331/331 332/332 333/333
f 331/331 333/333 334/334
f 335/335 336/336 337/337
f 335/335 337/337 338/338
f 339/339 340/340 341/341
f 339/339 341/341 342/342
f 343/343 344/344 345/345
f 343/343 345/345 346/346
f 347/347 348/348 349/349
f 347/347 349/349 350/350
f 351/351 352/352 353/353
f 351/351 353/353 354/354
f 355/355 356/356 357/357
f 355/355 357/357 358/358
f 359/359 360/360 361/361
f 359/359 361/361 362/362
f 363/363 364/364 365/365
f 363/363 365/365 366/366
f 367/367 368/368 369/369
f 367/367 369/369 370/370
f 371/371 372/372 373/373
f 371/371 373/373 374/374
f 375/375 376/376 377/377
f 375/375 377/377 378/378
