mtllib ../../../Materials/project_oen.mtl
o ax-tool-001_survival_axe__clean
v 0.000000 0.020000 0.045000
v 0.026450 0.020000 0.036406
v 0.021748 1.000000 0.029934
v 0.000000 1.000000 0.037000
v 0.026450 0.020000 0.036406
v 0.042798 0.020000 0.013906
v 0.035189 1.000000 0.011434
v 0.021748 1.000000 0.029934
v 0.042798 0.020000 0.013906
v 0.042798 0.020000 -0.013906
v 0.035189 1.000000 -0.011434
v 0.035189 1.000000 0.011434
v 0.042798 0.020000 -0.013906
v 0.026450 0.020000 -0.036406
v 0.021748 1.000000 -0.029934
v 0.035189 1.000000 -0.011434
v 0.026450 0.020000 -0.036406
v 0.000000 0.020000 -0.045000
v 0.000000 1.000000 -0.037000
v 0.021748 1.000000 -0.029934
v 0.000000 0.020000 -0.045000
v -0.026450 0.020000 -0.036406
v -0.021748 1.000000 -0.029934
v 0.000000 1.000000 -0.037000
v -0.026450 0.020000 -0.036406
v -0.042798 0.020000 -0.013906
v -0.035189 1.000000 -0.011434
v -0.021748 1.000000 -0.029934
v -0.042798 0.020000 -0.013906
v -0.042798 0.020000 0.013906
v -0.035189 1.000000 0.011434
v -0.035189 1.000000 -0.011434
v -0.042798 0.020000 0.013906
v -0.026450 0.020000 0.036406
v -0.021748 1.000000 0.029934
v -0.035189 1.000000 0.011434
v -0.026450 0.020000 0.036406
v 0.000000 0.020000 0.045000
v 0.000000 1.000000 0.037000
v -0.021748 1.000000 0.029934
v 0.000000 0.020000 0.000000
v 0.000000 0.020000 0.045000
v 0.026450 0.020000 0.036406
v 0.026450 0.020000 0.036406
v 0.042798 0.020000 0.013906
v 0.042798 0.020000 0.013906
v 0.042798 0.020000 -0.013906
v 0.042798 0.020000 -0.013906
v 0.026450 0.020000 -0.036406
v 0.026450 0.020000 -0.036406
v 0.000000 0.020000 -0.045000
v 0.000000 0.020000 -0.045000
v -0.026450 0.020000 -0.036406
v -0.026450 0.020000 -0.036406
v -0.042798 0.020000 -0.013906
v -0.042798 0.020000 -0.013906
v -0.042798 0.020000 0.013906
v -0.042798 0.020000 0.013906
v -0.026450 0.020000 0.036406
v -0.026450 0.020000 0.036406
v 0.000000 0.020000 0.045000
v 0.000000 1.000000 0.000000
v 0.000000 1.000000 0.037000
v 0.021748 1.000000 0.029934
v 0.021748 1.000000 0.029934
v 0.035189 1.000000 0.011434
v 0.035189 1.000000 0.011434
v 0.035189 1.000000 -0.011434
v 0.035189 1.000000 -0.011434
v 0.021748 1.000000 -0.029934
v 0.021748 1.000000 -0.029934
v 0.000000 1.000000 -0.037000
v 0.000000 1.000000 -0.037000
v -0.021748 1.000000 -0.029934
v -0.021748 1.000000 -0.029934
v -0.035189 1.000000 -0.011434
v -0.035189 1.000000 -0.011434
v -0.035189 1.000000 0.011434
v -0.035189 1.000000 0.011434
v -0.021748 1.000000 0.029934
v -0.021748 1.000000 0.029934
v 0.000000 1.000000 0.037000
v -0.072263 0.824633 -0.037500
v 0.264428 0.777314 -0.037500
v 0.292263 0.975367 -0.037500
v -0.044428 1.022686 -0.037500
v 0.264428 0.777314 0.037500
v -0.072263 0.824633 0.037500
v -0.044428 1.022686 0.037500
v 0.292263 0.975367 0.037500
v -0.072263 0.824633 0.037500
v -0.072263 0.824633 -0.037500
v -0.044428 1.022686 -0.037500
v -0.044428 1.022686 0.037500
v 0.264428 0.777314 -0.037500
v 0.264428 0.777314 0.037500
v 0.292263 0.975367 0.037500
v 0.292263 0.975367 -0.037500
v -0.044428 1.022686 -0.037500
v 0.292263 0.975367 -0.037500
v 0.292263 0.975367 0.037500
v -0.044428 1.022686 0.037500
v -0.072263 0.824633 0.037500
v 0.264428 0.777314 0.037500
v 0.264428 0.777314 -0.037500
v -0.072263 0.824633 -0.037500
v 0.181002 0.768321 -0.012500
v 0.280029 0.754404 -0.012500
v 0.318998 1.031679 -0.012500
v 0.219971 1.045596 -0.012500
v 0.280029 0.754404 0.012500
v 0.181002 0.768321 0.012500
v 0.219971 1.045596 0.012500
v 0.318998 1.031679 0.012500
v 0.181002 0.768321 0.012500
v 0.181002 0.768321 -0.012500
v 0.219971 1.045596 -0.012500
v 0.219971 1.045596 0.012500
v 0.280029 0.754404 -0.012500
v 0.280029 0.754404 0.012500
v 0.318998 1.031679 0.012500
v 0.318998 1.031679 -0.012500
v 0.219971 1.045596 -0.012500
v 0.318998 1.031679 -0.012500
v 0.318998 1.031679 0.012500
v 0.219971 1.045596 0.012500
v 0.181002 0.768321 0.012500
v 0.280029 0.754404 0.012500
v 0.280029 0.754404 -0.012500
v 0.181002 0.768321 -0.012500
vt 0.000000 0.000000
vt 1.000000 0.000000
vt 1.000000 1.000000
vt 0.000000 1.000000
vt 0.000000 0.000000
vt 1.000000 0.000000
vt 1.000000 1.000000
vt 0.000000 1.000000
vt 0.000000 0.000000
vt 1.000000 0.000000
vt 1.000000 1.000000
vt 0.000000 1.000000
vt 0.000000 0.000000
vt 1.000000 0.000000
vt 1.000000 1.000000
vt 0.000000 1.000000
vt 0.000000 0.000000
vt 1.000000 0.000000
vt 1.000000 1.000000
vt 0.000000 1.000000
vt 0.000000 0.000000
vt 1.000000 0.000000
vt 1.000000 1.000000
vt 0.000000 1.000000
vt 0.000000 0.000000
vt 1.000000 0.000000
vt 1.000000 1.000000
vt 0.000000 1.000000
vt 0.000000 0.000000
vt 1.000000 0.000000
vt 1.000000 1.000000
vt 0.000000 1.000000
vt 0.000000 0.000000
vt 1.000000 0.000000
vt 1.000000 1.000000
vt 0.000000 1.000000
vt 0.000000 0.000000
vt 1.000000 0.000000
vt 1.000000 1.000000
vt 0.000000 1.000000
vt 0.500000 0.500000
vt 0.000000 0.000000
vt 1.000000 0.000000
vt 0.000000 0.000000
vt 1.000000 0.000000
vt 0.000000 0.000000
vt 1.000000 0.000000
vt 0.000000 0.000000
vt 1.000000 0.000000
vt 0.000000 0.000000
vt 1.000000 0.000000
vt 0.000000 0.000000
vt 1.000000 0.000000
vt 0.000000 0.000000
vt 1.000000 0.000000
vt 0.000000 0.000000
vt 1.000000 0.000000
vt 0.000000 0.000000
vt 1.000000 0.000000
vt 0.000000 0.000000
vt 1.000000 0.000000
vt 0.500000 0.500000
vt 0.000000 0.000000
vt 1.000000 0.000000
vt 0.000000 0.000000
vt 1.000000 0.000000
vt 0.000000 0.000000
vt 1.000000 0.000000
vt 0.000000 0.000000
vt 1.000000 0.000000
vt 0.000000 0.000000
vt 1.000000 0.000000
vt 0.000000 0.000000
vt 1.000000 0.000000
vt 0.000000 0.000000
vt 1.000000 0.000000
vt 0.000000 0.000000
vt 1.000000 0.000000
vt 0.000000 0.000000
vt 1.000000 0.000000
vt 0.000000 0.000000
vt 1.000000 0.000000
vt 0.000000 0.000000
vt 1.000000 0.000000
vt 1.000000 1.000000
vt 0.000000 1.000000
vt 0.000000 0.000000
vt 1.000000 0.000000
vt 1.000000 1.000000
vt 0.000000 1.000000
vt 0.000000 0.000000
vt 1.000000 0.000000
vt 1.000000 1.000000
vt 0.000000 1.000000
vt 0.000000 0.000000
vt 1.000000 0.000000
vt 1.000000 1.000000
vt 0.000000 1.000000
vt 0.000000 0.000000
vt 1.000000 0.000000
vt 1.000000 1.000000
vt 0.000000 1.000000
vt 0.000000 0.000000
vt 1.000000 0.000000
vt 1.000000 1.000000
vt 0.000000 1.000000
vt 0.000000 0.000000
vt 1.000000 0.000000
vt 1.000000 1.000000
vt 0.000000 1.000000
vt 0.000000 0.000000
vt 1.000000 0.000000
vt 1.000000 1.000000
vt 0.000000 1.000000
vt 0.000000 0.000000
vt 1.000000 0.000000
vt 1.000000 1.000000
vt 0.000000 1.000000
vt 0.000000 0.000000
vt 1.000000 0.000000
vt 1.000000 1.000000
vt 0.000000 1.000000
vt 0.000000 0.000000
vt 1.000000 0.000000
vt 1.000000 1.000000
vt 0.000000 1.000000
vt 0.000000 0.000000
vt 1.000000 0.000000
vt 1.000000 1.000000
vt 0.000000 1.000000
usemtl Wood
f 1/1 2/2 3/3
f 1/1 3/3 4/4
f 5/5 6/6 7/7
f 5/5 7/7 8/8
f 9/9 10/10 11/11
f 9/9 11/11 12/12
f 13/13 14/14 15/15
f 13/13 15/15 16/16
f 17/17 18/18 19/19
f 17/17 19/19 20/20
f 21/21 22/22 23/23
f 21/21 23/23 24/24
f 25/25 26/26 27/27
f 25/25 27/27 28/28
f 29/29 30/30 31/31
f 29/29 31/31 32/32
f 33/33 34/34 35/35
f 33/33 35/35 36/36
f 37/37 38/38 39/39
f 37/37 39/39 40/40
f 41/41 43/43 42/42
f 41/41 45/45 44/44
f 41/41 47/47 46/46
f 41/41 49/49 48/48
f 41/41 51/51 50/50
f 41/41 53/53 52/52
f 41/41 55/55 54/54
f 41/41 57/57 56/56
f 41/41 59/59 58/58
f 41/41 61/61 60/60
f 62/62 63/63 64/64
f 62/62 65/65 66/66
f 62/62 67/67 68/68
f 62/62 69/69 70/70
f 62/62 71/71 72/72
f 62/62 73/73 74/74
f 62/62 75/75 76/76
f 62/62 77/77 78/78
f 62/62 79/79 80/80
f 62/62 81/81 82/82
usemtl Metal
f 83/83 84/84 85/85
f 83/83 85/85 86/86
f 87/87 88/88 89/89
f 87/87 89/89 90/90
f 91/91 92/92 93/93
f 91/91 93/93 94/94
f 95/95 96/96 97/97
f 95/95 97/97 98/98
f 99/99 100/100 101/101
f 99/99 101/101 102/102
f 103/103 104/104 105/105
f 103/103 105/105 106/106
f 107/107 108/108 109/109
f 107/107 109/109 110/110
f 111/111 112/112 113/113
f 111/111 113/113 114/114
f 115/115 116/116 117/117
f 115/115 117/117 118/118
f 119/119 120/120 121/121
f 119/119 121/121 122/122
f 123/123 124/124 125/125
f 123/123 125/125 126/126
f 127/127 128/128 129/129
f 127/127 129/129 130/130
