# PROJECT OEN production source mesh: ITM_TINDER_001
mtllib ITM_TINDER_001.mtl
s off
v -0.077127 0.051094 0.097818
v -0.103029 0.051094 0.070014
v -0.079893 0.088906 0.100396
v -0.105796 0.088906 0.072591
v 0.105796 0.076094 -0.072591
v 0.079893 0.076094 -0.100396
v 0.103029 0.113906 -0.070014
v 0.077127 0.113906 -0.097818
v -0.118655 0.081081 0.063539
v -0.131685 0.081081 0.027842
v -0.121946 0.118919 0.064740
v -0.134976 0.118919 0.029044
v 0.134976 0.106081 -0.029044
v 0.121946 0.106081 -0.064740
v 0.131685 0.143919 -0.027842
v 0.118655 0.143919 -0.063539
v -0.119339 0.101102 0.007122
v -0.115545 0.101102 -0.030689
v -0.123256 0.138898 0.006729
v -0.119462 0.138898 -0.031082
v 0.119462 0.126102 0.031082
v 0.123256 0.126102 -0.006729
v 0.115545 0.163898 0.030689
v 0.119339 0.163898 -0.007122
v -0.122470 0.061087 -0.042339
v -0.104923 0.061087 -0.076044
v -0.125696 0.098913 -0.044018
v -0.108149 0.098913 -0.077724
v 0.108149 0.086087 0.077724
v 0.125696 0.086087 0.044018
v 0.104923 0.123913 0.076044
v 0.122470 0.123913 0.042339
v -0.087473 0.091122 -0.065895
v -0.059689 0.091122 -0.091820
v -0.090400 0.128878 -0.069032
v -0.062616 0.128878 -0.094957
v 0.062616 0.116122 0.094957
v 0.090400 0.116122 0.069032
v 0.059689 0.153878 0.091820
v 0.087473 0.153878 0.065895
v 0.127000 0.045000 0.000000
v 0.116000 0.064053 0.000000
v 0.094000 0.064053 0.000000
v 0.083000 0.045000 0.000000
v 0.094000 0.025947 0.000000
v 0.116000 0.025947 0.000000
v 0.117333 0.045000 0.048601
v 0.107170 0.064053 0.044391
v 0.086845 0.064053 0.035972
v 0.076682 0.045000 0.031763
v 0.086845 0.025947 0.035972
v 0.107170 0.025947 0.044391
v 0.089803 0.045000 0.089803
v 0.082024 0.064053 0.082024
v 0.066468 0.064053 0.066468
v 0.058690 0.045000 0.058690
v 0.066468 0.025947 0.066468
v 0.082024 0.025947 0.082024
v 0.048601 0.045000 0.117333
v 0.044391 0.064053 0.107170
v 0.035972 0.064053 0.086845
v 0.031763 0.045000 0.076682
v 0.035972 0.025947 0.086845
v 0.044391 0.025947 0.107170
v 0.000000 0.045000 0.127000
v 0.000000 0.064053 0.116000
v 0.000000 0.064053 0.094000
v 0.000000 0.045000 0.083000
v 0.000000 0.025947 0.094000
v 0.000000 0.025947 0.116000
v -0.048601 0.045000 0.117333
v -0.044391 0.064053 0.107170
v -0.035972 0.064053 0.086845
v -0.031763 0.045000 0.076682
v -0.035972 0.025947 0.086845
v -0.044391 0.025947 0.107170
v -0.089803 0.045000 0.089803
v -0.082024 0.064053 0.082024
v -0.066468 0.064053 0.066468
v -0.058690 0.045000 0.058690
v -0.066468 0.025947 0.066468
v -0.082024 0.025947 0.082024
v -0.117333 0.045000 0.048601
v -0.107170 0.064053 0.044391
v -0.086845 0.064053 0.035972
v -0.076682 0.045000 0.031763
v -0.086845 0.025947 0.035972
v -0.107170 0.025947 0.044391
v -0.127000 0.045000 0.000000
v -0.116000 0.064053 0.000000
v -0.094000 0.064053 0.000000
v -0.083000 0.045000 0.000000
v -0.094000 0.025947 0.000000
v -0.116000 0.025947 0.000000
v -0.117333 0.045000 -0.048601
v -0.107170 0.064053 -0.044391
v -0.086845 0.064053 -0.035972
v -0.076682 0.045000 -0.031763
v -0.086845 0.025947 -0.035972
v -0.107170 0.025947 -0.044391
v -0.089803 0.045000 -0.089803
v -0.082024 0.064053 -0.082024
v -0.066468 0.064053 -0.066468
v -0.058690 0.045000 -0.058690
v -0.066468 0.025947 -0.066468
v -0.082024 0.025947 -0.082024
v -0.048601 0.045000 -0.117333
v -0.044391 0.064053 -0.107170
v -0.035972 0.064053 -0.086845
v -0.031763 0.045000 -0.076682
v -0.035972 0.025947 -0.086845
v -0.044391 0.025947 -0.107170
v -0.000000 0.045000 -0.127000
v -0.000000 0.064053 -0.116000
v -0.000000 0.064053 -0.094000
v -0.000000 0.045000 -0.083000
v -0.000000 0.025947 -0.094000
v -0.000000 0.025947 -0.116000
v 0.048601 0.045000 -0.117333
v 0.044391 0.064053 -0.107170
v 0.035972 0.064053 -0.086845
v 0.031763 0.045000 -0.076682
v 0.035972 0.025947 -0.086845
v 0.044391 0.025947 -0.107170
v 0.089803 0.045000 -0.089803
v 0.082024 0.064053 -0.082024
v 0.066468 0.064053 -0.066468
v 0.058690 0.045000 -0.058690
v 0.066468 0.025947 -0.066468
v 0.082024 0.025947 -0.082024
v 0.117333 0.045000 -0.048601
v 0.107170 0.064053 -0.044391
v 0.086845 0.064053 -0.035972
v 0.076682 0.045000 -0.031763
v 0.086845 0.025947 -0.035972
v 0.107170 0.025947 -0.044391
v 0.117000 0.080000 0.000000
v 0.106000 0.099053 0.000000
v 0.084000 0.099053 0.000000
v 0.073000 0.080000 0.000000
v 0.084000 0.060947 0.000000
v 0.106000 0.060947 0.000000
v 0.108094 0.080000 0.044774
v 0.097931 0.099053 0.040564
v 0.077606 0.099053 0.032145
v 0.067443 0.080000 0.027936
v 0.077606 0.060947 0.032145
v 0.097931 0.060947 0.040564
v 0.082731 0.080000 0.082731
v 0.074953 0.099053 0.074953
v 0.059397 0.099053 0.059397
v 0.051619 0.080000 0.051619
v 0.059397 0.060947 0.059397
v 0.074953 0.060947 0.074953
v 0.044774 0.080000 0.108094
v 0.040564 0.099053 0.097931
v 0.032145 0.099053 0.077606
v 0.027936 0.080000 0.067443
v 0.032145 0.060947 0.077606
v 0.040564 0.060947 0.097931
v 0.000000 0.080000 0.117000
v 0.000000 0.099053 0.106000
v 0.000000 0.099053 0.084000
v 0.000000 0.080000 0.073000
v 0.000000 0.060947 0.084000
v 0.000000 0.060947 0.106000
v -0.044774 0.080000 0.108094
v -0.040564 0.099053 0.097931
v -0.032145 0.099053 0.077606
v -0.027936 0.080000 0.067443
v -0.032145 0.060947 0.077606
v -0.040564 0.060947 0.097931
v -0.082731 0.080000 0.082731
v -0.074953 0.099053 0.074953
v -0.059397 0.099053 0.059397
v -0.051619 0.080000 0.051619
v -0.059397 0.060947 0.059397
v -0.074953 0.060947 0.074953
v -0.108094 0.080000 0.044774
v -0.097931 0.099053 0.040564
v -0.077606 0.099053 0.032145
v -0.067443 0.080000 0.027936
v -0.077606 0.060947 0.032145
v -0.097931 0.060947 0.040564
v -0.117000 0.080000 0.000000
v -0.106000 0.099053 0.000000
v -0.084000 0.099053 0.000000
v -0.073000 0.080000 0.000000
v -0.084000 0.060947 0.000000
v -0.106000 0.060947 0.000000
v -0.108094 0.080000 -0.044774
v -0.097931 0.099053 -0.040564
v -0.077606 0.099053 -0.032145
v -0.067443 0.080000 -0.027936
v -0.077606 0.060947 -0.032145
v -0.097931 0.060947 -0.040564
v -0.082731 0.080000 -0.082731
v -0.074953 0.099053 -0.074953
v -0.059397 0.099053 -0.059397
v -0.051619 0.080000 -0.051619
v -0.059397 0.060947 -0.059397
v -0.074953 0.060947 -0.074953
v -0.044774 0.080000 -0.108094
v -0.040564 0.099053 -0.097931
v -0.032145 0.099053 -0.077606
v -0.027936 0.080000 -0.067443
v -0.032145 0.060947 -0.077606
v -0.040564 0.060947 -0.097931
v -0.000000 0.080000 -0.117000
v -0.000000 0.099053 -0.106000
v -0.000000 0.099053 -0.084000
v -0.000000 0.080000 -0.073000
v -0.000000 0.060947 -0.084000
v -0.000000 0.060947 -0.106000
v 0.044774 0.080000 -0.108094
v 0.040564 0.099053 -0.097931
v 0.032145 0.099053 -0.077606
v 0.027936 0.080000 -0.067443
v 0.032145 0.060947 -0.077606
v 0.040564 0.060947 -0.097931
v 0.082731 0.080000 -0.082731
v 0.074953 0.099053 -0.074953
v 0.059397 0.099053 -0.059397
v 0.051619 0.080000 -0.051619
v 0.059397 0.060947 -0.059397
v 0.074953 0.060947 -0.074953
v 0.108094 0.080000 -0.044774
v 0.097931 0.099053 -0.040564
v 0.077606 0.099053 -0.032145
v 0.067443 0.080000 -0.027936
v 0.077606 0.060947 -0.032145
v 0.097931 0.060947 -0.040564
v 0.104000 0.115000 0.000000
v 0.093000 0.134053 0.000000
v 0.071000 0.134053 0.000000
v 0.060000 0.115000 0.000000
v 0.071000 0.095947 0.000000
v 0.093000 0.095947 0.000000
v 0.096083 0.115000 0.039799
v 0.085921 0.134053 0.035590
v 0.065595 0.134053 0.027171
v 0.055433 0.115000 0.022961
v 0.065595 0.095947 0.027171
v 0.085921 0.095947 0.035590
v 0.073539 0.115000 0.073539
v 0.065761 0.134053 0.065761
v 0.050205 0.134053 0.050205
v 0.042426 0.115000 0.042426
v 0.050205 0.095947 0.050205
v 0.065761 0.095947 0.065761
v 0.039799 0.115000 0.096083
v 0.035590 0.134053 0.085921
v 0.027171 0.134053 0.065595
v 0.022961 0.115000 0.055433
v 0.027171 0.095947 0.065595
v 0.035590 0.095947 0.085921
v 0.000000 0.115000 0.104000
v 0.000000 0.134053 0.093000
v 0.000000 0.134053 0.071000
v 0.000000 0.115000 0.060000
v 0.000000 0.095947 0.071000
v 0.000000 0.095947 0.093000
v -0.039799 0.115000 0.096083
v -0.035590 0.134053 0.085921
v -0.027171 0.134053 0.065595
v -0.022961 0.115000 0.055433
v -0.027171 0.095947 0.065595
v -0.035590 0.095947 0.085921
v -0.073539 0.115000 0.073539
v -0.065761 0.134053 0.065761
v -0.050205 0.134053 0.050205
v -0.042426 0.115000 0.042426
v -0.050205 0.095947 0.050205
v -0.065761 0.095947 0.065761
v -0.096083 0.115000 0.039799
v -0.085921 0.134053 0.035590
v -0.065595 0.134053 0.027171
v -0.055433 0.115000 0.022961
v -0.065595 0.095947 0.027171
v -0.085921 0.095947 0.035590
v -0.104000 0.115000 0.000000
v -0.093000 0.134053 0.000000
v -0.071000 0.134053 0.000000
v -0.060000 0.115000 0.000000
v -0.071000 0.095947 0.000000
v -0.093000 0.095947 0.000000
v -0.096083 0.115000 -0.039799
v -0.085921 0.134053 -0.035590
v -0.065595 0.134053 -0.027171
v -0.055433 0.115000 -0.022961
v -0.065595 0.095947 -0.027171
v -0.085921 0.095947 -0.035590
v -0.073539 0.115000 -0.073539
v -0.065761 0.134053 -0.065761
v -0.050205 0.134053 -0.050205
v -0.042426 0.115000 -0.042426
v -0.050205 0.095947 -0.050205
v -0.065761 0.095947 -0.065761
v -0.039799 0.115000 -0.096083
v -0.035590 0.134053 -0.085921
v -0.027171 0.134053 -0.065595
v -0.022961 0.115000 -0.055433
v -0.027171 0.095947 -0.065595
v -0.035590 0.095947 -0.085921
v -0.000000 0.115000 -0.104000
v -0.000000 0.134053 -0.093000
v -0.000000 0.134053 -0.071000
v -0.000000 0.115000 -0.060000
v -0.000000 0.095947 -0.071000
v -0.000000 0.095947 -0.093000
v 0.039799 0.115000 -0.096083
v 0.035590 0.134053 -0.085921
v 0.027171 0.134053 -0.065595
v 0.022961 0.115000 -0.055433
v 0.027171 0.095947 -0.065595
v 0.035590 0.095947 -0.085921
v 0.073539 0.115000 -0.073539
v 0.065761 0.134053 -0.065761
v 0.050205 0.134053 -0.050205
v 0.042426 0.115000 -0.042426
v 0.050205 0.095947 -0.050205
v 0.065761 0.095947 -0.065761
v 0.096083 0.115000 -0.039799
v 0.085921 0.134053 -0.035590
v 0.065595 0.134053 -0.027171
v 0.055433 0.115000 -0.022961
v 0.065595 0.095947 -0.027171
v 0.085921 0.095947 -0.035590
v -0.042500 0.142500 -0.042500
v 0.042500 0.142500 -0.042500
v 0.042500 0.167500 -0.042500
v -0.042500 0.167500 -0.042500
v -0.042500 0.142500 0.042500
v 0.042500 0.142500 0.042500
v 0.042500 0.167500 0.042500
v -0.042500 0.167500 0.042500
vt 0.000000 0.000000
vt 1.000000 0.000000
vt 1.000000 1.000000
vt 0.000000 1.000000
vt 0.000000 0.000000
vt 1.000000 0.000000
vt 1.000000 1.000000
vt 0.000000 1.000000
vt 0.000000 0.000000
vt 1.000000 0.000000
vt 1.000000 1.000000
vt 0.000000 1.000000
vt 0.000000 0.000000
vt 1.000000 0.000000
vt 1.000000 1.000000
vt 0.000000 1.000000
vt 0.000000 0.000000
vt 1.000000 0.000000
vt 1.000000 1.000000
vt 0.000000 1.000000
vt 0.000000 0.000000
vt 1.000000 0.000000
vt 1.000000 1.000000
vt 0.000000 1.000000
vt 0.000000 0.000000
vt 1.000000 0.000000
vt 1.000000 1.000000
vt 0.000000 1.000000
vt 0.000000 0.000000
vt 1.000000 0.000000
vt 1.000000 1.000000
vt 0.000000 1.000000
vt 0.000000 0.000000
vt 1.000000 0.000000
vt 1.000000 1.000000
vt 0.000000 1.000000
vt 0.000000 0.000000
vt 1.000000 0.000000
vt 1.000000 1.000000
vt 0.000000 1.000000
vt 0.000000 0.000000
vt 1.000000 0.000000
vt 1.000000 1.000000
vt 0.000000 1.000000
vt 0.000000 0.000000
vt 1.000000 0.000000
vt 1.000000 1.000000
vt 0.000000 1.000000
vt 0.000000 0.000000
vt 1.000000 0.000000
vt 1.000000 1.000000
vt 0.000000 1.000000
vt 0.000000 0.000000
vt 1.000000 0.000000
vt 1.000000 1.000000
vt 0.000000 1.000000
vt 0.000000 0.000000
vt 1.000000 0.000000
vt 1.000000 1.000000
vt 0.000000 1.000000
vt 0.000000 0.000000
vt 1.000000 0.000000
vt 1.000000 1.000000
vt 0.000000 1.000000
vt 0.000000 0.000000
vt 1.000000 0.000000
vt 1.000000 1.000000
vt 0.000000 1.000000
vt 0.000000 0.000000
vt 1.000000 0.000000
vt 1.000000 1.000000
vt 0.000000 1.000000
vt 0.000000 0.000000
vt 1.000000 0.000000
vt 1.000000 1.000000
vt 0.000000 1.000000
vt 0.000000 0.000000
vt 1.000000 0.000000
vt 1.000000 1.000000
vt 0.000000 1.000000
vt 0.000000 0.000000
vt 1.000000 0.000000
vt 1.000000 1.000000
vt 0.000000 1.000000
vt 0.000000 0.000000
vt 1.000000 0.000000
vt 1.000000 1.000000
vt 0.000000 1.000000
vt 0.000000 0.000000
vt 1.000000 0.000000
vt 1.000000 1.000000
vt 0.000000 1.000000
vt 0.000000 0.000000
vt 1.000000 0.000000
vt 1.000000 1.000000
vt 0.000000 1.000000
vt 0.000000 0.000000
vt 1.000000 0.000000
vt 1.000000 1.000000
vt 0.000000 1.000000
vt 0.000000 0.000000
vt 1.000000 0.000000
vt 1.000000 1.000000
vt 0.000000 1.000000
vt 0.000000 0.000000
vt 1.000000 0.000000
vt 1.000000 1.000000
vt 0.000000 1.000000
vt 0.000000 0.000000
vt 1.000000 0.000000
vt 1.000000 1.000000
vt 0.000000 1.000000
vt 0.000000 0.000000
vt 1.000000 0.000000
vt 1.000000 1.000000
vt 0.000000 1.000000
vt 0.000000 0.000000
vt 1.000000 0.000000
vt 1.000000 1.000000
vt 0.000000 1.000000
vt 0.000000 0.000000
vt 1.000000 0.000000
vt 1.000000 1.000000
vt 0.000000 1.000000
vt 0.000000 0.000000
vt 1.000000 0.000000
vt 1.000000 1.000000
vt 0.000000 1.000000
vt 0.000000 0.000000
vt 1.000000 0.000000
vt 1.000000 1.000000
vt 0.000000 1.000000
vt 0.000000 0.000000
vt 1.000000 0.000000
vt 1.000000 1.000000
vt 0.000000 1.000000
vt 0.000000 0.000000
vt 1.000000 0.000000
vt 1.000000 1.000000
vt 0.000000 1.000000
vt 0.000000 0.000000
vt 1.000000 0.000000
vt 1.000000 1.000000
vt 0.000000 1.000000
vt 0.000000 0.000000
vt 1.000000 0.000000
vt 1.000000 1.000000
vt 0.000000 1.000000
vt 0.000000 0.000000
vt 1.000000 0.000000
vt 1.000000 1.000000
vt 0.000000 1.000000
vt 0.000000 0.000000
vt 1.000000 0.000000
vt 1.000000 1.000000
vt 0.000000 1.000000
vt 0.000000 0.000000
vt 1.000000 0.000000
vt 1.000000 1.000000
vt 0.000000 1.000000
vt 0.000000 0.000000
vt 1.000000 0.000000
vt 1.000000 1.000000
vt 0.000000 1.000000
vt 0.000000 0.000000
vt 1.000000 0.000000
vt 1.000000 1.000000
vt 0.000000 1.000000
vt 0.000000 0.000000
vt 1.000000 0.000000
vt 1.000000 1.000000
vt 0.000000 1.000000
vt 0.000000 0.000000
vt 1.000000 0.000000
vt 1.000000 1.000000
vt 0.000000 1.000000
vt 0.000000 0.000000
vt 1.000000 0.000000
vt 1.000000 1.000000
vt 0.000000 1.000000
vt 0.000000 0.000000
vt 1.000000 0.000000
vt 1.000000 1.000000
vt 0.000000 1.000000
vt 0.000000 0.000000
vt 1.000000 0.000000
vt 1.000000 1.000000
vt 0.000000 1.000000
vt 0.000000 0.000000
vt 1.000000 0.000000
vt 1.000000 1.000000
vt 0.000000 1.000000
vt 0.000000 0.000000
vt 1.000000 0.000000
vt 1.000000 1.000000
vt 0.000000 1.000000
vt 0.000000 0.000000
vt 1.000000 0.000000
vt 1.000000 1.000000
vt 0.000000 1.000000
vt 0.000000 0.000000
vt 1.000000 0.000000
vt 1.000000 1.000000
vt 0.000000 1.000000
vt 0.000000 0.000000
vt 1.000000 0.000000
vt 1.000000 1.000000
vt 0.000000 1.000000
vt 0.000000 0.000000
vt 1.000000 0.000000
vt 1.000000 1.000000
vt 0.000000 1.000000
vt 0.000000 0.000000
vt 1.000000 0.000000
vt 1.000000 1.000000
vt 0.000000 1.000000
vt 0.000000 0.000000
vt 1.000000 0.000000
vt 1.000000 1.000000
vt 0.000000 1.000000
vt 0.000000 0.000000
vt 1.000000 0.000000
vt 1.000000 1.000000
vt 0.000000 1.000000
vt 0.000000 0.000000
vt 1.000000 0.000000
vt 1.000000 1.000000
vt 0.000000 1.000000
vt 0.000000 0.000000
vt 1.000000 0.000000
vt 1.000000 1.000000
vt 0.000000 1.000000
vt 0.000000 0.000000
vt 1.000000 0.000000
vt 1.000000 1.000000
vt 0.000000 1.000000
vt 0.000000 0.000000
vt 1.000000 0.000000
vt 1.000000 1.000000
vt 0.000000 1.000000
vt 0.000000 0.000000
vt 1.000000 0.000000
vt 1.000000 1.000000
vt 0.000000 1.000000
vt 0.000000 0.000000
vt 1.000000 0.000000
vt 1.000000 1.000000
vt 0.000000 1.000000
vt 0.000000 0.000000
vt 1.000000 0.000000
vt 1.000000 1.000000
vt 0.000000 1.000000
vt 0.000000 0.000000
vt 1.000000 0.000000
vt 1.000000 1.000000
vt 0.000000 1.000000
vt 0.000000 0.000000
vt 1.000000 0.000000
vt 1.000000 1.000000
vt 0.000000 1.000000
vt 0.000000 0.000000
vt 1.000000 0.000000
vt 1.000000 1.000000
vt 0.000000 1.000000
vt 0.000000 0.000000
vt 1.000000 0.000000
vt 1.000000 1.000000
vt 0.000000 1.000000
vt 0.000000 0.000000
vt 1.000000 0.000000
vt 1.000000 1.000000
vt 0.000000 1.000000
vt 0.000000 0.000000
vt 1.000000 0.000000
vt 1.000000 1.000000
vt 0.000000 1.000000
vt 0.000000 0.000000
vt 1.000000 0.000000
vt 1.000000 1.000000
vt 0.000000 1.000000
vt 0.000000 0.000000
vt 1.000000 0.000000
vt 1.000000 1.000000
vt 0.000000 1.000000
vt 0.000000 0.000000
vt 1.000000 0.000000
vt 1.000000 1.000000
vt 0.000000 1.000000
vt 0.000000 0.000000
vt 1.000000 0.000000
vt 1.000000 1.000000
vt 0.000000 1.000000
vt 0.000000 0.000000
vt 1.000000 0.000000
vt 1.000000 1.000000
vt 0.000000 1.000000
vt 0.000000 0.000000
vt 1.000000 0.000000
vt 1.000000 1.000000
vt 0.000000 1.000000
vt 0.000000 0.000000
vt 1.000000 0.000000
vt 1.000000 1.000000
vt 0.000000 1.000000
vt 0.000000 0.000000
vt 1.000000 0.000000
vt 1.000000 1.000000
vt 0.000000 1.000000
vt 0.000000 0.000000
vt 1.000000 0.000000
vt 1.000000 1.000000
vt 0.000000 1.000000
vt 0.000000 0.000000
vt 1.000000 0.000000
vt 1.000000 1.000000
vt 0.000000 1.000000
vt 0.000000 0.000000
vt 1.000000 0.000000
vt 1.000000 1.000000
vt 0.000000 1.000000
vt 0.000000 0.000000
vt 1.000000 0.000000
vt 1.000000 1.000000
vt 0.000000 1.000000
vt 0.000000 0.000000
vt 1.000000 0.000000
vt 1.000000 1.000000
vt 0.000000 1.000000
vt 0.000000 0.000000
vt 1.000000 0.000000
vt 1.000000 1.000000
vt 0.000000 1.000000
vt 0.000000 0.000000
vt 1.000000 0.000000
vt 1.000000 1.000000
vt 0.000000 1.000000
vt 0.000000 0.000000
vt 1.000000 0.000000
vt 1.000000 1.000000
vt 0.000000 1.000000
vt 0.000000 0.000000
vt 1.000000 0.000000
vt 1.000000 1.000000
vt 0.000000 1.000000
vt 0.000000 0.000000
vt 1.000000 0.000000
vt 1.000000 1.000000
vt 0.000000 1.000000
vt 0.000000 0.000000
vt 1.000000 0.000000
vt 1.000000 1.000000
vt 0.000000 1.000000
vt 0.000000 0.000000
vt 1.000000 0.000000
vt 1.000000 1.000000
vt 0.000000 1.000000
vt 0.000000 0.000000
vt 1.000000 0.000000
vt 1.000000 1.000000
vt 0.000000 1.000000
vt 0.000000 0.000000
vt 1.000000 0.000000
vt 1.000000 1.000000
vt 0.000000 1.000000
vt 0.000000 0.000000
vt 1.000000 0.000000
vt 1.000000 1.000000
vt 0.000000 1.000000
vt 0.000000 0.000000
vt 1.000000 0.000000
vt 1.000000 1.000000
vt 0.000000 1.000000
vt 0.000000 0.000000
vt 1.000000 0.000000
vt 1.000000 1.000000
vt 0.000000 1.000000
vt 0.000000 0.000000
vt 1.000000 0.000000
vt 1.000000 1.000000
vt 0.000000 1.000000
vt 0.000000 0.000000
vt 1.000000 0.000000
vt 1.000000 1.000000
vt 0.000000 1.000000
vt 0.000000 0.000000
vt 1.000000 0.000000
vt 1.000000 1.000000
vt 0.000000 1.000000
vt 0.000000 0.000000
vt 1.000000 0.000000
vt 1.000000 1.000000
vt 0.000000 1.000000
vt 0.000000 0.000000
vt 1.000000 0.000000
vt 1.000000 1.000000
vt 0.000000 1.000000
vt 0.000000 0.000000
vt 1.000000 0.000000
vt 1.000000 1.000000
vt 0.000000 1.000000
vt 0.000000 0.000000
vt 1.000000 0.000000
vt 1.000000 1.000000
vt 0.000000 1.000000
vt 0.000000 0.000000
vt 1.000000 0.000000
vt 1.000000 1.000000
vt 0.000000 1.000000
vt 0.000000 0.000000
vt 1.000000 0.000000
vt 1.000000 1.000000
vt 0.000000 1.000000
vt 0.000000 0.000000
vt 1.000000 0.000000
vt 1.000000 1.000000
vt 0.000000 1.000000
vt 0.000000 0.000000
vt 1.000000 0.000000
vt 1.000000 1.000000
vt 0.000000 1.000000
vt 0.000000 0.000000
vt 1.000000 0.000000
vt 1.000000 1.000000
vt 0.000000 1.000000
vt 0.000000 0.000000
vt 1.000000 0.000000
vt 1.000000 1.000000
vt 0.000000 1.000000
vt 0.000000 0.000000
vt 1.000000 0.000000
vt 1.000000 1.000000
vt 0.000000 1.000000
vt 0.000000 0.000000
vt 1.000000 0.000000
vt 1.000000 1.000000
vt 0.000000 1.000000
vt 0.000000 0.000000
vt 1.000000 0.000000
vt 1.000000 1.000000
vt 0.000000 1.000000
vt 0.000000 0.000000
vt 1.000000 0.000000
vt 1.000000 1.000000
vt 0.000000 1.000000
vt 0.000000 0.000000
vt 1.000000 0.000000
vt 1.000000 1.000000
vt 0.000000 1.000000
vt 0.000000 0.000000
vt 1.000000 0.000000
vt 1.000000 1.000000
vt 0.000000 1.000000
vt 0.000000 0.000000
vt 1.000000 0.000000
vt 1.000000 1.000000
vt 0.000000 1.000000
vt 0.000000 0.000000
vt 1.000000 0.000000
vt 1.000000 1.000000
vt 0.000000 1.000000
vt 0.000000 0.000000
vt 1.000000 0.000000
vt 1.000000 1.000000
vt 0.000000 1.000000
vt 0.000000 0.000000
vt 1.000000 0.000000
vt 1.000000 1.000000
vt 0.000000 1.000000
vt 0.000000 0.000000
vt 1.000000 0.000000
vt 1.000000 1.000000
vt 0.000000 1.000000
vt 0.000000 0.000000
vt 1.000000 0.000000
vt 1.000000 1.000000
vt 0.000000 1.000000
vt 0.000000 0.000000
vt 1.000000 0.000000
vt 1.000000 1.000000
vt 0.000000 1.000000
vt 0.000000 0.000000
vt 1.000000 0.000000
vt 1.000000 1.000000
vt 0.000000 1.000000
vt 0.000000 0.000000
vt 1.000000 0.000000
vt 1.000000 1.000000
vt 0.000000 1.000000
vt 0.000000 0.000000
vt 1.000000 0.000000
vt 1.000000 1.000000
vt 0.000000 1.000000
vt 0.000000 0.000000
vt 1.000000 0.000000
vt 1.000000 1.000000
vt 0.000000 1.000000
vt 0.000000 0.000000
vt 1.000000 0.000000
vt 1.000000 1.000000
vt 0.000000 1.000000
vt 0.000000 0.000000
vt 1.000000 0.000000
vt 1.000000 1.000000
vt 0.000000 1.000000
vt 0.000000 0.000000
vt 1.000000 0.000000
vt 1.000000 1.000000
vt 0.000000 1.000000
vt 0.000000 0.000000
vt 1.000000 0.000000
vt 1.000000 1.000000
vt 0.000000 1.000000
vt 0.000000 0.000000
vt 1.000000 0.000000
vt 1.000000 1.000000
vt 0.000000 1.000000
vt 0.000000 0.000000
vt 1.000000 0.000000
vt 1.000000 1.000000
vt 0.000000 1.000000
vt 0.000000 0.000000
vt 1.000000 0.000000
vt 1.000000 1.000000
vt 0.000000 1.000000
vt 0.000000 0.000000
vt 1.000000 0.000000
vt 1.000000 1.000000
vt 0.000000 1.000000
vt 0.000000 0.000000
vt 1.000000 0.000000
vt 1.000000 1.000000
vt 0.000000 1.000000
vt 0.000000 0.000000
vt 1.000000 0.000000
vt 1.000000 1.000000
vt 0.000000 1.000000
vt 0.000000 0.000000
vt 1.000000 0.000000
vt 1.000000 1.000000
vt 0.000000 1.000000
vt 0.000000 0.000000
vt 1.000000 0.000000
vt 1.000000 1.000000
vt 0.000000 1.000000
vt 0.000000 0.000000
vt 1.000000 0.000000
vt 1.000000 1.000000
vt 0.000000 1.000000
vt 0.000000 0.000000
vt 1.000000 0.000000
vt 1.000000 1.000000
vt 0.000000 1.000000
vt 0.000000 0.000000
vt 1.000000 0.000000
vt 1.000000 1.000000
vt 0.000000 1.000000
vt 0.000000 0.000000
vt 1.000000 0.000000
vt 1.000000 1.000000
vt 0.000000 1.000000
vt 0.000000 0.000000
vt 1.000000 0.000000
vt 1.000000 1.000000
vt 0.000000 1.000000
vt 0.000000 0.000000
vt 1.000000 0.000000
vt 1.000000 1.000000
vt 0.000000 1.000000
vt 0.000000 0.000000
vt 1.000000 0.000000
vt 1.000000 1.000000
vt 0.000000 1.000000
vt 0.000000 0.000000
vt 1.000000 0.000000
vt 1.000000 1.000000
vt 0.000000 1.000000
vt 0.000000 0.000000
vt 1.000000 0.000000
vt 1.000000 1.000000
vt 0.000000 1.000000
vt 0.000000 0.000000
vt 1.000000 0.000000
vt 1.000000 1.000000
vt 0.000000 1.000000
vt 0.000000 0.000000
vt 1.000000 0.000000
vt 1.000000 1.000000
vt 0.000000 1.000000
vt 0.000000 0.000000
vt 1.000000 0.000000
vt 1.000000 1.000000
vt 0.000000 1.000000
vt 0.000000 0.000000
vt 1.000000 0.000000
vt 1.000000 1.000000
vt 0.000000 1.000000
vt 0.000000 0.000000
vt 1.000000 0.000000
vt 1.000000 1.000000
vt 0.000000 1.000000
vt 0.000000 0.000000
vt 1.000000 0.000000
vt 1.000000 1.000000
vt 0.000000 1.000000
vt 0.000000 0.000000
vt 1.000000 0.000000
vt 1.000000 1.000000
vt 0.000000 1.000000
vt 0.000000 0.000000
vt 1.000000 0.000000
vt 1.000000 1.000000
vt 0.000000 1.000000
vt 0.000000 0.000000
vt 1.000000 0.000000
vt 1.000000 1.000000
vt 0.000000 1.000000
vt 0.000000 0.000000
vt 1.000000 0.000000
vt 1.000000 1.000000
vt 0.000000 1.000000
vt 0.000000 0.000000
vt 1.000000 0.000000
vt 1.000000 1.000000
vt 0.000000 1.000000
vt 0.000000 0.000000
vt 1.000000 0.000000
vt 1.000000 1.000000
vt 0.000000 1.000000
vt 0.000000 0.000000
vt 1.000000 0.000000
vt 1.000000 1.000000
vt 0.000000 1.000000
vt 0.000000 0.000000
vt 1.000000 0.000000
vt 1.000000 1.000000
vt 0.000000 1.000000
vt 0.000000 0.000000
vt 1.000000 0.000000
vt 1.000000 1.000000
vt 0.000000 1.000000
vt 0.000000 0.000000
vt 1.000000 0.000000
vt 1.000000 1.000000
vt 0.000000 1.000000
vt 0.000000 0.000000
vt 1.000000 0.000000
vt 1.000000 1.000000
vt 0.000000 1.000000
vt 0.000000 0.000000
vt 1.000000 0.000000
vt 1.000000 1.000000
vt 0.000000 1.000000
vt 0.000000 0.000000
vt 1.000000 0.000000
vt 1.000000 1.000000
vt 0.000000 1.000000
vt 0.000000 0.000000
vt 1.000000 0.000000
vt 1.000000 1.000000
vt 0.000000 1.000000
vt 0.000000 0.000000
vt 1.000000 0.000000
vt 1.000000 1.000000
vt 0.000000 1.000000
vt 0.000000 0.000000
vt 1.000000 0.000000
vt 1.000000 1.000000
vt 0.000000 1.000000
vt 0.000000 0.000000
vt 1.000000 0.000000
vt 1.000000 1.000000
vt 0.000000 1.000000
vt 0.000000 0.000000
vt 1.000000 0.000000
vt 1.000000 1.000000
vt 0.000000 1.000000
vt 0.000000 0.000000
vt 1.000000 0.000000
vt 1.000000 1.000000
vt 0.000000 1.000000
vt 0.000000 0.000000
vt 1.000000 0.000000
vt 1.000000 1.000000
vt 0.000000 1.000000
vt 0.000000 0.000000
vt 1.000000 0.000000
vt 1.000000 1.000000
vt 0.000000 1.000000
vt 0.000000 0.000000
vt 1.000000 0.000000
vt 1.000000 1.000000
vt 0.000000 1.000000
vt 0.000000 0.000000
vt 1.000000 0.000000
vt 1.000000 1.000000
vt 0.000000 1.000000
vt 0.000000 0.000000
vt 1.000000 0.000000
vt 1.000000 1.000000
vt 0.000000 1.000000
vt 0.000000 0.000000
vt 1.000000 0.000000
vt 1.000000 1.000000
vt 0.000000 1.000000
vt 0.000000 0.000000
vt 1.000000 0.000000
vt 1.000000 1.000000
vt 0.000000 1.000000
vt 0.000000 0.000000
vt 1.000000 0.000000
vt 1.000000 1.000000
vt 0.000000 1.000000
vt 0.000000 0.000000
vt 1.000000 0.000000
vt 1.000000 1.000000
vt 0.000000 1.000000
vt 0.000000 0.000000
vt 1.000000 0.000000
vt 1.000000 1.000000
vt 0.000000 1.000000
vt 0.000000 0.000000
vt 1.000000 0.000000
vt 1.000000 1.000000
vt 0.000000 1.000000
vt 0.000000 0.000000
vt 1.000000 0.000000
vt 1.000000 1.000000
vt 0.000000 1.000000
vt 0.000000 0.000000
vt 1.000000 0.000000
vt 1.000000 1.000000
vt 0.000000 1.000000
vt 0.000000 0.000000
vt 1.000000 0.000000
vt 1.000000 1.000000
vt 0.000000 1.000000
vt 0.000000 0.000000
vt 1.000000 0.000000
vt 1.000000 1.000000
vt 0.000000 1.000000
vt 0.000000 0.000000
vt 1.000000 0.000000
vt 1.000000 1.000000
vt 0.000000 1.000000
vt 0.000000 0.000000
vt 1.000000 0.000000
vt 1.000000 1.000000
vt 0.000000 1.000000
vt 0.000000 0.000000
vt 1.000000 0.000000
vt 1.000000 1.000000
vt 0.000000 1.000000
vt 0.000000 0.000000
vt 1.000000 0.000000
vt 1.000000 1.000000
vt 0.000000 1.000000
vt 0.000000 0.000000
vt 1.000000 0.000000
vt 1.000000 1.000000
vt 0.000000 1.000000
vt 0.000000 0.000000
vt 1.000000 0.000000
vt 1.000000 1.000000
vt 0.000000 1.000000
vt 0.000000 0.000000
vt 1.000000 0.000000
vt 1.000000 1.000000
vt 0.000000 1.000000
vt 0.000000 0.000000
vt 1.000000 0.000000
vt 1.000000 1.000000
vt 0.000000 1.000000
vt 0.000000 0.000000
vt 1.000000 0.000000
vt 1.000000 1.000000
vt 0.000000 1.000000
vt 0.000000 0.000000
vt 1.000000 0.000000
vt 1.000000 1.000000
vt 0.000000 1.000000
vt 0.000000 0.000000
vt 1.000000 0.000000
vt 1.000000 1.000000
vt 0.000000 1.000000
vt 0.000000 0.000000
vt 1.000000 0.000000
vt 1.000000 1.000000
vt 0.000000 1.000000
vt 0.000000 0.000000
vt 1.000000 0.000000
vt 1.000000 1.000000
vt 0.000000 1.000000
vt 0.000000 0.000000
vt 1.000000 0.000000
vt 1.000000 1.000000
vt 0.000000 1.000000
vt 0.000000 0.000000
vt 1.000000 0.000000
vt 1.000000 1.000000
vt 0.000000 1.000000
vt 0.000000 0.000000
vt 1.000000 0.000000
vt 1.000000 1.000000
vt 0.000000 1.000000
vt 0.000000 0.000000
vt 1.000000 0.000000
vt 1.000000 1.000000
vt 0.000000 1.000000
vt 0.000000 0.000000
vt 1.000000 0.000000
vt 1.000000 1.000000
vt 0.000000 1.000000
vt 0.000000 0.000000
vt 1.000000 0.000000
vt 1.000000 1.000000
vt 0.000000 1.000000
vt 0.000000 0.000000
vt 1.000000 0.000000
vt 1.000000 1.000000
vt 0.000000 1.000000
vt 0.000000 0.000000
vt 1.000000 0.000000
vt 1.000000 1.000000
vt 0.000000 1.000000
vt 0.000000 0.000000
vt 1.000000 0.000000
vt 1.000000 1.000000
vt 0.000000 1.000000
vt 0.000000 0.000000
vt 1.000000 0.000000
vt 1.000000 1.000000
vt 0.000000 1.000000
vt 0.000000 0.000000
vt 1.000000 0.000000
vt 1.000000 1.000000
vt 0.000000 1.000000
vt 0.000000 0.000000
vt 1.000000 0.000000
vt 1.000000 1.000000
vt 0.000000 1.000000
vt 0.000000 0.000000
vt 1.000000 0.000000
vt 1.000000 1.000000
vt 0.000000 1.000000
vt 0.000000 0.000000
vt 1.000000 0.000000
vt 1.000000 1.000000
vt 0.000000 1.000000
vt 0.000000 0.000000
vt 1.000000 0.000000
vt 1.000000 1.000000
vt 0.000000 1.000000
vt 0.000000 0.000000
vt 1.000000 0.000000
vt 1.000000 1.000000
vt 0.000000 1.000000
vt 0.000000 0.000000
vt 1.000000 0.000000
vt 1.000000 1.000000
vt 0.000000 1.000000
vt 0.000000 0.000000
vt 1.000000 0.000000
vt 1.000000 1.000000
vt 0.000000 1.000000
vt 0.000000 0.000000
vt 1.000000 0.000000
vt 1.000000 1.000000
vt 0.000000 1.000000
vt 0.000000 0.000000
vt 1.000000 0.000000
vt 1.000000 1.000000
vt 0.000000 1.000000
vt 0.000000 0.000000
vt 1.000000 0.000000
vt 1.000000 1.000000
vt 0.000000 1.000000
vt 0.000000 0.000000
vt 1.000000 0.000000
vt 1.000000 1.000000
vt 0.000000 1.000000
vt 0.000000 0.000000
vt 1.000000 0.000000
vt 1.000000 1.000000
vt 0.000000 1.000000
vt 0.000000 0.000000
vt 1.000000 0.000000
vt 1.000000 1.000000
vt 0.000000 1.000000
vt 0.000000 0.000000
vt 1.000000 0.000000
vt 1.000000 1.000000
vt 0.000000 1.000000
vt 0.000000 0.000000
vt 1.000000 0.000000
vt 1.000000 1.000000
vt 0.000000 1.000000
vt 0.000000 0.000000
vt 1.000000 0.000000
vt 1.000000 1.000000
vt 0.000000 1.000000
vt 0.000000 0.000000
vt 1.000000 0.000000
vt 1.000000 1.000000
vt 0.000000 1.000000
vt 0.000000 0.000000
vt 1.000000 0.000000
vt 1.000000 1.000000
vt 0.000000 1.000000
vt 0.000000 0.000000
vt 1.000000 0.000000
vt 1.000000 1.000000
vt 0.000000 1.000000
vt 0.000000 0.000000
vt 1.000000 0.000000
vt 1.000000 1.000000
vt 0.000000 1.000000
vt 0.000000 0.000000
vt 1.000000 0.000000
vt 1.000000 1.000000
vt 0.000000 1.000000
vt 0.000000 0.000000
vt 1.000000 0.000000
vt 1.000000 1.000000
vt 0.000000 1.000000
vt 0.000000 0.000000
vt 1.000000 0.000000
vt 1.000000 1.000000
vt 0.000000 1.000000
vt 0.000000 0.000000
vt 1.000000 0.000000
vt 1.000000 1.000000
vt 0.000000 1.000000
vt 0.000000 0.000000
vt 1.000000 0.000000
vt 1.000000 1.000000
vt 0.000000 1.000000
vt 0.000000 0.000000
vt 1.000000 0.000000
vt 1.000000 1.000000
vt 0.000000 1.000000
vt 0.000000 0.000000
vt 1.000000 0.000000
vt 1.000000 1.000000
vt 0.000000 1.000000
vt 0.000000 0.000000
vt 1.000000 0.000000
vt 1.000000 1.000000
vt 0.000000 1.000000
vt 0.000000 0.000000
vt 1.000000 0.000000
vt 1.000000 1.000000
vt 0.000000 1.000000
vt 0.000000 0.000000
vt 1.000000 0.000000
vt 1.000000 1.000000
vt 0.000000 1.000000
vt 0.000000 0.000000
vt 1.000000 0.000000
vt 1.000000 1.000000
vt 0.000000 1.000000
vt 0.000000 0.000000
vt 1.000000 0.000000
vt 1.000000 1.000000
vt 0.000000 1.000000
vt 0.000000 0.000000
vt 1.000000 0.000000
vt 1.000000 1.000000
vt 0.000000 1.000000
vt 0.000000 0.000000
vt 1.000000 0.000000
vt 1.000000 1.000000
vt 0.000000 1.000000
vt 0.000000 0.000000
vt 1.000000 0.000000
vt 1.000000 1.000000
vt 0.000000 1.000000
vt 0.000000 0.000000
vt 1.000000 0.000000
vt 1.000000 1.000000
vt 0.000000 1.000000
vt 0.000000 0.000000
vt 1.000000 0.000000
vt 1.000000 1.000000
vt 0.000000 1.000000
vt 0.000000 0.000000
vt 1.000000 0.000000
vt 1.000000 1.000000
vt 0.000000 1.000000
vt 0.000000 0.000000
vt 1.000000 0.000000
vt 1.000000 1.000000
vt 0.000000 1.000000
vt 0.000000 0.000000
vt 1.000000 0.000000
vt 1.000000 1.000000
vt 0.000000 1.000000
vt 0.000000 0.000000
vt 1.000000 0.000000
vt 1.000000 1.000000
vt 0.000000 1.000000
vt 0.000000 0.000000
vt 1.000000 0.000000
vt 1.000000 1.000000
vt 0.000000 1.000000
vt 0.000000 0.000000
vt 1.000000 0.000000
vt 1.000000 1.000000
vt 0.000000 1.000000
vt 0.000000 0.000000
vt 1.000000 0.000000
vt 1.000000 1.000000
vt 0.000000 1.000000
vt 0.000000 0.000000
vt 1.000000 0.000000
vt 1.000000 1.000000
vt 0.000000 1.000000
vt 0.000000 0.000000
vt 1.000000 0.000000
vt 1.000000 1.000000
vt 0.000000 1.000000
vt 0.000000 0.000000
vt 1.000000 0.000000
vt 1.000000 1.000000
vt 0.000000 1.000000
vt 0.000000 0.000000
vt 1.000000 0.000000
vt 1.000000 1.000000
vt 0.000000 1.000000
vt 0.000000 0.000000
vt 1.000000 0.000000
vt 1.000000 1.000000
vt 0.000000 1.000000
vt 0.000000 0.000000
vt 1.000000 0.000000
vt 1.000000 1.000000
vt 0.000000 1.000000
vt 0.000000 0.000000
vt 1.000000 0.000000
vt 1.000000 1.000000
vt 0.000000 1.000000
vt 0.000000 0.000000
vt 1.000000 0.000000
vt 1.000000 1.000000
vt 0.000000 1.000000
vt 0.000000 0.000000
vt 1.000000 0.000000
vt 1.000000 1.000000
vt 0.000000 1.000000
vt 0.000000 0.000000
vt 1.000000 0.000000
vt 1.000000 1.000000
vt 0.000000 1.000000
vt 0.000000 0.000000
vt 1.000000 0.000000
vt 1.000000 1.000000
vt 0.000000 1.000000
vt 0.000000 0.000000
vt 1.000000 0.000000
vt 1.000000 1.000000
vt 0.000000 1.000000
vt 0.000000 0.000000
vt 1.000000 0.000000
vt 1.000000 1.000000
vt 0.000000 1.000000
vt 0.000000 0.000000
vt 1.000000 0.000000
vt 1.000000 1.000000
vt 0.000000 1.000000
vt 0.000000 0.000000
vt 1.000000 0.000000
vt 1.000000 1.000000
vt 0.000000 1.000000
vt 0.000000 0.000000
vt 1.000000 0.000000
vt 1.000000 1.000000
vt 0.000000 1.000000
vt 0.000000 0.000000
vt 1.000000 0.000000
vt 1.000000 1.000000
vt 0.000000 1.000000
vt 0.000000 0.000000
vt 1.000000 0.000000
vt 1.000000 1.000000
vt 0.000000 1.000000
vt 0.000000 0.000000
vt 1.000000 0.000000
vt 1.000000 1.000000
vt 0.000000 1.000000
vt 0.000000 0.000000
vt 1.000000 0.000000
vt 1.000000 1.000000
vt 0.000000 1.000000
vt 0.000000 0.000000
vt 1.000000 0.000000
vt 1.000000 1.000000
vt 0.000000 1.000000
vt 0.000000 0.000000
vt 1.000000 0.000000
vt 1.000000 1.000000
vt 0.000000 1.000000
vt 0.000000 0.000000
vt 1.000000 0.000000
vt 1.000000 1.000000
vt 0.000000 1.000000
vt 0.000000 0.000000
vt 1.000000 0.000000
vt 1.000000 1.000000
vt 0.000000 1.000000
vt 0.000000 0.000000
vt 1.000000 0.000000
vt 1.000000 1.000000
vt 0.000000 1.000000
vt 0.000000 0.000000
vt 1.000000 0.000000
vt 1.000000 1.000000
vt 0.000000 1.000000
vt 0.000000 0.000000
vt 1.000000 0.000000
vt 1.000000 1.000000
vt 0.000000 1.000000
vt 0.000000 0.000000
vt 1.000000 0.000000
vt 1.000000 1.000000
vt 0.000000 1.000000
vt 0.000000 0.000000
vt 1.000000 0.000000
vt 1.000000 1.000000
vt 0.000000 1.000000
vt 0.000000 0.000000
vt 1.000000 0.000000
vt 1.000000 1.000000
vt 0.000000 1.000000
vt 0.000000 0.000000
vt 1.000000 0.000000
vt 1.000000 1.000000
vt 0.000000 1.000000
vt 0.000000 0.000000
vt 1.000000 0.000000
vt 1.000000 1.000000
vt 0.000000 1.000000
vt 0.000000 0.000000
vt 1.000000 0.000000
vt 1.000000 1.000000
vt 0.000000 1.000000
vt 0.000000 0.000000
vt 1.000000 0.000000
vt 1.000000 1.000000
vt 0.000000 1.000000
vt 0.000000 0.000000
vt 1.000000 0.000000
vt 1.000000 1.000000
vt 0.000000 1.000000
vt 0.000000 0.000000
vt 1.000000 0.000000
vt 1.000000 1.000000
vt 0.000000 1.000000
vt 0.000000 0.000000
vt 1.000000 0.000000
vt 1.000000 1.000000
vt 0.000000 1.000000
vt 0.000000 0.000000
vt 1.000000 0.000000
vt 1.000000 1.000000
vt 0.000000 1.000000
vt 0.000000 0.000000
vt 1.000000 0.000000
vt 1.000000 1.000000
vt 0.000000 1.000000
vt 0.000000 0.000000
vt 1.000000 0.000000
vt 1.000000 1.000000
vt 0.000000 1.000000
vt 0.000000 0.000000
vt 1.000000 0.000000
vt 1.000000 1.000000
vt 0.000000 1.000000
vt 0.000000 0.000000
vt 1.000000 0.000000
vt 1.000000 1.000000
vt 0.000000 1.000000
vt 0.000000 0.000000
vt 1.000000 0.000000
vt 1.000000 1.000000
vt 0.000000 1.000000
vt 0.000000 0.000000
vt 1.000000 0.000000
vt 1.000000 1.000000
vt 0.000000 1.000000
vt 0.000000 0.000000
vt 1.000000 0.000000
vt 1.000000 1.000000
vt 0.000000 1.000000
vt 0.000000 0.000000
vt 1.000000 0.000000
vt 1.000000 1.000000
vt 0.000000 1.000000
vt 0.000000 0.000000
vt 1.000000 0.000000
vt 1.000000 1.000000
vt 0.000000 1.000000
vt 0.000000 0.000000
vt 1.000000 0.000000
vt 1.000000 1.000000
vt 0.000000 1.000000
vt 0.000000 0.000000
vt 1.000000 0.000000
vt 1.000000 1.000000
vt 0.000000 1.000000
vt 0.000000 0.000000
vt 1.000000 0.000000
vt 1.000000 1.000000
vt 0.000000 1.000000
vt 0.000000 0.000000
vt 1.000000 0.000000
vt 1.000000 1.000000
vt 0.000000 1.000000
vt 0.000000 0.000000
vt 1.000000 0.000000
vt 1.000000 1.000000
vt 0.000000 1.000000
vt 0.000000 0.000000
vt 1.000000 0.000000
vt 1.000000 1.000000
vt 0.000000 1.000000
vt 0.000000 0.000000
vt 1.000000 0.000000
vt 1.000000 1.000000
vt 0.000000 1.000000
vt 0.000000 0.000000
vt 1.000000 0.000000
vt 1.000000 1.000000
vt 0.000000 1.000000
vt 0.000000 0.000000
vt 1.000000 0.000000
vt 1.000000 1.000000
vt 0.000000 1.000000
vt 0.000000 0.000000
vt 1.000000 0.000000
vt 1.000000 1.000000
vt 0.000000 1.000000
vt 0.000000 0.000000
vt 1.000000 0.000000
vt 1.000000 1.000000
vt 0.000000 1.000000
vt 0.000000 0.000000
vt 1.000000 0.000000
vt 1.000000 1.000000
vt 0.000000 1.000000
vt 0.000000 0.000000
vt 1.000000 0.000000
vt 1.000000 1.000000
vt 0.000000 1.000000
vt 0.000000 0.000000
vt 1.000000 0.000000
vt 1.000000 1.000000
vt 0.000000 1.000000
vt 0.000000 0.000000
vt 1.000000 0.000000
vt 1.000000 1.000000
vt 0.000000 1.000000
vt 0.000000 0.000000
vt 1.000000 0.000000
vt 1.000000 1.000000
vt 0.000000 1.000000
vt 0.000000 0.000000
vt 1.000000 0.000000
vt 1.000000 1.000000
vt 0.000000 1.000000
vt 0.000000 0.000000
vt 1.000000 0.000000
vt 1.000000 1.000000
vt 0.000000 1.000000
vt 0.000000 0.000000
vt 1.000000 0.000000
vt 1.000000 1.000000
vt 0.000000 1.000000
vt 0.000000 0.000000
vt 1.000000 0.000000
vt 1.000000 1.000000
vt 0.000000 1.000000
vt 0.000000 0.000000
vt 1.000000 0.000000
vt 1.000000 1.000000
vt 0.000000 1.000000
vt 0.000000 0.000000
vt 1.000000 0.000000
vt 1.000000 1.000000
vt 0.000000 1.000000
vt 0.000000 0.000000
vt 1.000000 0.000000
vt 1.000000 1.000000
vt 0.000000 1.000000
vt 0.000000 0.000000
vt 1.000000 0.000000
vt 1.000000 1.000000
vt 0.000000 1.000000
o BroadDryFiber_1
usemtl MAT_TINDER
f 1/1 2/2 4/3 3/4
f 5/5 7/6 8/7 6/8
f 1/9 5/10 6/11 2/12
f 3/13 4/14 8/15 7/16
f 1/17 3/18 7/19 5/20
f 2/21 6/22 8/23 4/24
o BroadDryFiber_2
f 9/25 10/26 12/27 11/28
f 13/29 15/30 16/31 14/32
f 9/33 13/34 14/35 10/36
f 11/37 12/38 16/39 15/40
f 9/41 11/42 15/43 13/44
f 10/45 14/46 16/47 12/48
o BroadDryFiber_3
f 17/49 18/50 20/51 19/52
f 21/53 23/54 24/55 22/56
f 17/57 21/58 22/59 18/60
f 19/61 20/62 24/63 23/64
f 17/65 19/66 23/67 21/68
f 18/69 22/70 24/71 20/72
o BroadDryFiber_4
f 25/73 26/74 28/75 27/76
f 29/77 31/78 32/79 30/80
f 25/81 29/82 30/83 26/84
f 27/85 28/86 32/87 31/88
f 25/89 27/90 31/91 29/92
f 26/93 30/94 32/95 28/96
o BroadDryFiber_5
f 33/97 34/98 36/99 35/100
f 37/101 39/102 40/103 38/104
f 33/105 37/106 38/107 34/108
f 35/109 36/110 40/111 39/112
f 33/113 35/114 39/115 37/116
f 34/117 38/118 40/119 36/120
o NestSilhouette
usemtl MAT_FIBER
f 41/121 47/122 48/123 42/124
f 42/125 48/126 49/127 43/128
f 43/129 49/130 50/131 44/132
f 44/133 50/134 51/135 45/136
f 45/137 51/138 52/139 46/140
f 46/141 52/142 47/143 41/144
f 47/145 53/146 54/147 48/148
f 48/149 54/150 55/151 49/152
f 49/153 55/154 56/155 50/156
f 50/157 56/158 57/159 51/160
f 51/161 57/162 58/163 52/164
f 52/165 58/166 53/167 47/168
f 53/169 59/170 60/171 54/172
f 54/173 60/174 61/175 55/176
f 55/177 61/178 62/179 56/180
f 56/181 62/182 63/183 57/184
f 57/185 63/186 64/187 58/188
f 58/189 64/190 59/191 53/192
f 59/193 65/194 66/195 60/196
f 60/197 66/198 67/199 61/200
f 61/201 67/202 68/203 62/204
f 62/205 68/206 69/207 63/208
f 63/209 69/210 70/211 64/212
f 64/213 70/214 65/215 59/216
f 65/217 71/218 72/219 66/220
f 66/221 72/222 73/223 67/224
f 67/225 73/226 74/227 68/228
f 68/229 74/230 75/231 69/232
f 69/233 75/234 76/235 70/236
f 70/237 76/238 71/239 65/240
f 71/241 77/242 78/243 72/244
f 72/245 78/246 79/247 73/248
f 73/249 79/250 80/251 74/252
f 74/253 80/254 81/255 75/256
f 75/257 81/258 82/259 76/260
f 76/261 82/262 77/263 71/264
f 77/265 83/266 84/267 78/268
f 78/269 84/270 85/271 79/272
f 79/273 85/274 86/275 80/276
f 80/277 86/278 87/279 81/280
f 81/281 87/282 88/283 82/284
f 82/285 88/286 83/287 77/288
f 83/289 89/290 90/291 84/292
f 84/293 90/294 91/295 85/296
f 85/297 91/298 92/299 86/300
f 86/301 92/302 93/303 87/304
f 87/305 93/306 94/307 88/308
f 88/309 94/310 89/311 83/312
f 89/313 95/314 96/315 90/316
f 90/317 96/318 97/319 91/320
f 91/321 97/322 98/323 92/324
f 92/325 98/326 99/327 93/328
f 93/329 99/330 100/331 94/332
f 94/333 100/334 95/335 89/336
f 95/337 101/338 102/339 96/340
f 96/341 102/342 103/343 97/344
f 97/345 103/346 104/347 98/348
f 98/349 104/350 105/351 99/352
f 99/353 105/354 106/355 100/356
f 100/357 106/358 101/359 95/360
f 101/361 107/362 108/363 102/364
f 102/365 108/366 109/367 103/368
f 103/369 109/370 110/371 104/372
f 104/373 110/374 111/375 105/376
f 105/377 111/378 112/379 106/380
f 106/381 112/382 107/383 101/384
f 107/385 113/386 114/387 108/388
f 108/389 114/390 115/391 109/392
f 109/393 115/394 116/395 110/396
f 110/397 116/398 117/399 111/400
f 111/401 117/402 118/403 112/404
f 112/405 118/406 113/407 107/408
f 113/409 119/410 120/411 114/412
f 114/413 120/414 121/415 115/416
f 115/417 121/418 122/419 116/420
f 116/421 122/422 123/423 117/424
f 117/425 123/426 124/427 118/428
f 118/429 124/430 119/431 113/432
f 119/433 125/434 126/435 120/436
f 120/437 126/438 127/439 121/440
f 121/441 127/442 128/443 122/444
f 122/445 128/446 129/447 123/448
f 123/449 129/450 130/451 124/452
f 124/453 130/454 125/455 119/456
f 125/457 131/458 132/459 126/460
f 126/461 132/462 133/463 127/464
f 127/465 133/466 134/467 128/468
f 128/469 134/470 135/471 129/472
f 129/473 135/474 136/475 130/476
f 130/477 136/478 131/479 125/480
f 131/481 41/482 42/483 132/484
f 132/485 42/486 43/487 133/488
f 133/489 43/490 44/491 134/492
f 134/493 44/494 45/495 135/496
f 135/497 45/498 46/499 136/500
f 136/501 46/502 41/503 131/504
f 137/505 143/506 144/507 138/508
f 138/509 144/510 145/511 139/512
f 139/513 145/514 146/515 140/516
f 140/517 146/518 147/519 141/520
f 141/521 147/522 148/523 142/524
f 142/525 148/526 143/527 137/528
f 143/529 149/530 150/531 144/532
f 144/533 150/534 151/535 145/536
f 145/537 151/538 152/539 146/540
f 146/541 152/542 153/543 147/544
f 147/545 153/546 154/547 148/548
f 148/549 154/550 149/551 143/552
f 149/553 155/554 156/555 150/556
f 150/557 156/558 157/559 151/560
f 151/561 157/562 158/563 152/564
f 152/565 158/566 159/567 153/568
f 153/569 159/570 160/571 154/572
f 154/573 160/574 155/575 149/576
f 155/577 161/578 162/579 156/580
f 156/581 162/582 163/583 157/584
f 157/585 163/586 164/587 158/588
f 158/589 164/590 165/591 159/592
f 159/593 165/594 166/595 160/596
f 160/597 166/598 161/599 155/600
f 161/601 167/602 168/603 162/604
f 162/605 168/606 169/607 163/608
f 163/609 169/610 170/611 164/612
f 164/613 170/614 171/615 165/616
f 165/617 171/618 172/619 166/620
f 166/621 172/622 167/623 161/624
f 167/625 173/626 174/627 168/628
f 168/629 174/630 175/631 169/632
f 169/633 175/634 176/635 170/636
f 170/637 176/638 177/639 171/640
f 171/641 177/642 178/643 172/644
f 172/645 178/646 173/647 167/648
f 173/649 179/650 180/651 174/652
f 174/653 180/654 181/655 175/656
f 175/657 181/658 182/659 176/660
f 176/661 182/662 183/663 177/664
f 177/665 183/666 184/667 178/668
f 178/669 184/670 179/671 173/672
f 179/673 185/674 186/675 180/676
f 180/677 186/678 187/679 181/680
f 181/681 187/682 188/683 182/684
f 182/685 188/686 189/687 183/688
f 183/689 189/690 190/691 184/692
f 184/693 190/694 185/695 179/696
f 185/697 191/698 192/699 186/700
f 186/701 192/702 193/703 187/704
f 187/705 193/706 194/707 188/708
f 188/709 194/710 195/711 189/712
f 189/713 195/714 196/715 190/716
f 190/717 196/718 191/719 185/720
f 191/721 197/722 198/723 192/724
f 192/725 198/726 199/727 193/728
f 193/729 199/730 200/731 194/732
f 194/733 200/734 201/735 195/736
f 195/737 201/738 202/739 196/740
f 196/741 202/742 197/743 191/744
f 197/745 203/746 204/747 198/748
f 198/749 204/750 205/751 199/752
f 199/753 205/754 206/755 200/756
f 200/757 206/758 207/759 201/760
f 201/761 207/762 208/763 202/764
f 202/765 208/766 203/767 197/768
f 203/769 209/770 210/771 204/772
f 204/773 210/774 211/775 205/776
f 205/777 211/778 212/779 206/780
f 206/781 212/782 213/783 207/784
f 207/785 213/786 214/787 208/788
f 208/789 214/790 209/791 203/792
f 209/793 215/794 216/795 210/796
f 210/797 216/798 217/799 211/800
f 211/801 217/802 218/803 212/804
f 212/805 218/806 219/807 213/808
f 213/809 219/810 220/811 214/812
f 214/813 220/814 215/815 209/816
f 215/817 221/818 222/819 216/820
f 216/821 222/822 223/823 217/824
f 217/825 223/826 224/827 218/828
f 218/829 224/830 225/831 219/832
f 219/833 225/834 226/835 220/836
f 220/837 226/838 221/839 215/840
f 221/841 227/842 228/843 222/844
f 222/845 228/846 229/847 223/848
f 223/849 229/850 230/851 224/852
f 224/853 230/854 231/855 225/856
f 225/857 231/858 232/859 226/860
f 226/861 232/862 227/863 221/864
f 227/865 137/866 138/867 228/868
f 228/869 138/870 139/871 229/872
f 229/873 139/874 140/875 230/876
f 230/877 140/878 141/879 231/880
f 231/881 141/882 142/883 232/884
f 232/885 142/886 137/887 227/888
f 233/889 239/890 240/891 234/892
f 234/893 240/894 241/895 235/896
f 235/897 241/898 242/899 236/900
f 236/901 242/902 243/903 237/904
f 237/905 243/906 244/907 238/908
f 238/909 244/910 239/911 233/912
f 239/913 245/914 246/915 240/916
f 240/917 246/918 247/919 241/920
f 241/921 247/922 248/923 242/924
f 242/925 248/926 249/927 243/928
f 243/929 249/930 250/931 244/932
f 244/933 250/934 245/935 239/936
f 245/937 251/938 252/939 246/940
f 246/941 252/942 253/943 247/944
f 247/945 253/946 254/947 248/948
f 248/949 254/950 255/951 249/952
f 249/953 255/954 256/955 250/956
f 250/957 256/958 251/959 245/960
f 251/961 257/962 258/963 252/964
f 252/965 258/966 259/967 253/968
f 253/969 259/970 260/971 254/972
f 254/973 260/974 261/975 255/976
f 255/977 261/978 262/979 256/980
f 256/981 262/982 257/983 251/984
f 257/985 263/986 264/987 258/988
f 258/989 264/990 265/991 259/992
f 259/993 265/994 266/995 260/996
f 260/997 266/998 267/999 261/1000
f 261/1001 267/1002 268/1003 262/1004
f 262/1005 268/1006 263/1007 257/1008
f 263/1009 269/1010 270/1011 264/1012
f 264/1013 270/1014 271/1015 265/1016
f 265/1017 271/1018 272/1019 266/1020
f 266/1021 272/1022 273/1023 267/1024
f 267/1025 273/1026 274/1027 268/1028
f 268/1029 274/1030 269/1031 263/1032
f 269/1033 275/1034 276/1035 270/1036
f 270/1037 276/1038 277/1039 271/1040
f 271/1041 277/1042 278/1043 272/1044
f 272/1045 278/1046 279/1047 273/1048
f 273/1049 279/1050 280/1051 274/1052
f 274/1053 280/1054 275/1055 269/1056
f 275/1057 281/1058 282/1059 276/1060
f 276/1061 282/1062 283/1063 277/1064
f 277/1065 283/1066 284/1067 278/1068
f 278/1069 284/1070 285/1071 279/1072
f 279/1073 285/1074 286/1075 280/1076
f 280/1077 286/1078 281/1079 275/1080
f 281/1081 287/1082 288/1083 282/1084
f 282/1085 288/1086 289/1087 283/1088
f 283/1089 289/1090 290/1091 284/1092
f 284/1093 290/1094 291/1095 285/1096
f 285/1097 291/1098 292/1099 286/1100
f 286/1101 292/1102 287/1103 281/1104
f 287/1105 293/1106 294/1107 288/1108
f 288/1109 294/1110 295/1111 289/1112
f 289/1113 295/1114 296/1115 290/1116
f 290/1117 296/1118 297/1119 291/1120
f 291/1121 297/1122 298/1123 292/1124
f 292/1125 298/1126 293/1127 287/1128
f 293/1129 299/1130 300/1131 294/1132
f 294/1133 300/1134 301/1135 295/1136
f 295/1137 301/1138 302/1139 296/1140
f 296/1141 302/1142 303/1143 297/1144
f 297/1145 303/1146 304/1147 298/1148
f 298/1149 304/1150 299/1151 293/1152
f 299/1153 305/1154 306/1155 300/1156
f 300/1157 306/1158 307/1159 301/1160
f 301/1161 307/1162 308/1163 302/1164
f 302/1165 308/1166 309/1167 303/1168
f 303/1169 309/1170 310/1171 304/1172
f 304/1173 310/1174 305/1175 299/1176
f 305/1177 311/1178 312/1179 306/1180
f 306/1181 312/1182 313/1183 307/1184
f 307/1185 313/1186 314/1187 308/1188
f 308/1189 314/1190 315/1191 309/1192
f 309/1193 315/1194 316/1195 310/1196
f 310/1197 316/1198 311/1199 305/1200
f 311/1201 317/1202 318/1203 312/1204
f 312/1205 318/1206 319/1207 313/1208
f 313/1209 319/1210 320/1211 314/1212
f 314/1213 320/1214 321/1215 315/1216
f 315/1217 321/1218 322/1219 316/1220
f 316/1221 322/1222 317/1223 311/1224
f 317/1225 323/1226 324/1227 318/1228
f 318/1229 324/1230 325/1231 319/1232
f 319/1233 325/1234 326/1235 320/1236
f 320/1237 326/1238 327/1239 321/1240
f 321/1241 327/1242 328/1243 322/1244
f 322/1245 328/1246 323/1247 317/1248
f 323/1249 233/1250 234/1251 324/1252
f 324/1253 234/1254 235/1255 325/1256
f 325/1257 235/1258 236/1259 326/1260
f 326/1261 236/1262 237/1263 327/1264
f 327/1265 237/1266 238/1267 328/1268
f 328/1269 238/1270 233/1271 323/1272
o EmberInsertionTarget
usemtl MAT_EMBER
f 329/1273 332/1274 331/1275 330/1276
f 333/1277 334/1278 335/1279 336/1280
f 329/1281 330/1282 334/1283 333/1284
f 332/1285 336/1286 335/1287 331/1288
f 329/1289 333/1290 336/1291 332/1292
f 330/1293 331/1294 335/1295 334/1296
