# PROJECT OEN production source mesh: ITM_FIRESTEEL_001
mtllib ITM_FIRESTEEL_001.mtl
s off
v -0.065000 0.071500 0.013500
v -0.065000 0.071500 -0.013500
v -0.065000 0.098500 0.013500
v -0.065000 0.098500 -0.013500
v 0.115000 0.071500 0.013500
v 0.115000 0.071500 -0.013500
v 0.115000 0.098500 0.013500
v 0.115000 0.098500 -0.013500
v 0.082500 0.053000 -0.027000
v 0.127500 0.053000 -0.027000
v 0.127500 0.117000 -0.027000
v 0.082500 0.117000 -0.027000
v 0.082500 0.053000 0.027000
v 0.127500 0.053000 0.027000
v 0.127500 0.117000 0.027000
v 0.082500 0.117000 0.027000
v -0.182500 0.037500 -0.039000
v -0.067500 0.037500 -0.039000
v -0.067500 0.132500 -0.039000
v -0.182500 0.132500 -0.039000
v -0.182500 0.037500 0.039000
v -0.067500 0.037500 0.039000
v -0.067500 0.132500 0.039000
v -0.182500 0.132500 0.039000
v -0.149000 0.085000 0.000000
v -0.155219 0.093560 0.000000
v -0.165281 0.090290 0.000000
v -0.165281 0.079710 0.000000
v -0.155219 0.076440 0.000000
v -0.153823 0.085000 0.018000
v -0.159209 0.093560 0.014891
v -0.167923 0.090290 0.009859
v -0.167923 0.079710 0.009859
v -0.159209 0.076440 0.014891
v -0.167000 0.085000 0.031177
v -0.170109 0.093560 0.025791
v -0.175141 0.090290 0.017077
v -0.175141 0.079710 0.017077
v -0.170109 0.076440 0.025791
v -0.185000 0.085000 0.036000
v -0.185000 0.093560 0.029781
v -0.185000 0.090290 0.019719
v -0.185000 0.079710 0.019719
v -0.185000 0.076440 0.029781
v -0.203000 0.085000 0.031177
v -0.199891 0.093560 0.025791
v -0.194859 0.090290 0.017077
v -0.194859 0.079710 0.017077
v -0.199891 0.076440 0.025791
v -0.216177 0.085000 0.018000
v -0.210791 0.093560 0.014891
v -0.202077 0.090290 0.009859
v -0.202077 0.079710 0.009859
v -0.210791 0.076440 0.014891
v -0.221000 0.085000 0.000000
v -0.214781 0.093560 0.000000
v -0.204719 0.090290 0.000000
v -0.204719 0.079710 0.000000
v -0.214781 0.076440 0.000000
v -0.216177 0.085000 -0.018000
v -0.210791 0.093560 -0.014891
v -0.202077 0.090290 -0.009859
v -0.202077 0.079710 -0.009859
v -0.210791 0.076440 -0.014891
v -0.203000 0.085000 -0.031177
v -0.199891 0.093560 -0.025791
v -0.194859 0.090290 -0.017077
v -0.194859 0.079710 -0.017077
v -0.199891 0.076440 -0.025791
v -0.185000 0.085000 -0.036000
v -0.185000 0.093560 -0.029781
v -0.185000 0.090290 -0.019719
v -0.185000 0.079710 -0.019719
v -0.185000 0.076440 -0.029781
v -0.167000 0.085000 -0.031177
v -0.170109 0.093560 -0.025791
v -0.175141 0.090290 -0.017077
v -0.175141 0.079710 -0.017077
v -0.170109 0.076440 -0.025791
v -0.153823 0.085000 -0.018000
v -0.159209 0.093560 -0.014891
v -0.167923 0.090290 -0.009859
v -0.167923 0.079710 -0.009859
v -0.159209 0.076440 -0.014891
v -0.045000 0.130000 0.062500
v 0.075000 0.130000 0.062500
v 0.075000 0.180000 0.062500
v -0.045000 0.180000 0.062500
v -0.045000 0.130000 0.087500
v 0.075000 0.130000 0.087500
v 0.075000 0.180000 0.087500
v -0.045000 0.180000 0.087500
vt 0.000000 0.000000
vt 1.000000 0.000000
vt 1.000000 1.000000
vt 0.000000 1.000000
vt 0.000000 0.000000
vt 1.000000 0.000000
vt 1.000000 1.000000
vt 0.000000 1.000000
vt 0.000000 0.000000
vt 1.000000 0.000000
vt 1.000000 1.000000
vt 0.000000 1.000000
vt 0.000000 0.000000
vt 1.000000 0.000000
vt 1.000000 1.000000
vt 0.000000 1.000000
vt 0.000000 0.000000
vt 1.000000 0.000000
vt 1.000000 1.000000
vt 0.000000 1.000000
vt 0.000000 0.000000
vt 1.000000 0.000000
vt 1.000000 1.000000
vt 0.000000 1.000000
vt 0.000000 0.000000
vt 1.000000 0.000000
vt 1.000000 1.000000
vt 0.000000 1.000000
vt 0.000000 0.000000
vt 1.000000 0.000000
vt 1.000000 1.000000
vt 0.000000 1.000000
vt 0.000000 0.000000
vt 1.000000 0.000000
vt 1.000000 1.000000
vt 0.000000 1.000000
vt 0.000000 0.000000
vt 1.000000 0.000000
vt 1.000000 1.000000
vt 0.000000 1.000000
vt 0.000000 0.000000
vt 1.000000 0.000000
vt 1.000000 1.000000
vt 0.000000 1.000000
vt 0.000000 0.000000
vt 1.000000 0.000000
vt 1.000000 1.000000
vt 0.000000 1.000000
vt 0.000000 0.000000
vt 1.000000 0.000000
vt 1.000000 1.000000
vt 0.000000 1.000000
vt 0.000000 0.000000
vt 1.000000 0.000000
vt 1.000000 1.000000
vt 0.000000 1.000000
vt 0.000000 0.000000
vt 1.000000 0.000000
vt 1.000000 1.000000
vt 0.000000 1.000000
vt 0.000000 0.000000
vt 1.000000 0.000000
vt 1.000000 1.000000
vt 0.000000 1.000000
vt 0.000000 0.000000
vt 1.000000 0.000000
vt 1.000000 1.000000
vt 0.000000 1.000000
vt 0.000000 0.000000
vt 1.000000 0.000000
vt 1.000000 1.000000
vt 0.000000 1.000000
vt 0.000000 0.000000
vt 1.000000 0.000000
vt 1.000000 1.000000
vt 0.000000 1.000000
vt 0.000000 0.000000
vt 1.000000 0.000000
vt 1.000000 1.000000
vt 0.000000 1.000000
vt 0.000000 0.000000
vt 1.000000 0.000000
vt 1.000000 1.000000
vt 0.000000 1.000000
vt 0.000000 0.000000
vt 1.000000 0.000000
vt 1.000000 1.000000
vt 0.000000 1.000000
vt 0.000000 0.000000
vt 1.000000 0.000000
vt 1.000000 1.000000
vt 0.000000 1.000000
vt 0.000000 0.000000
vt 1.000000 0.000000
vt 1.000000 1.000000
vt 0.000000 1.000000
vt 0.000000 0.000000
vt 1.000000 0.000000
vt 1.000000 1.000000
vt 0.000000 1.000000
vt 0.000000 0.000000
vt 1.000000 0.000000
vt 1.000000 1.000000
vt 0.000000 1.000000
vt 0.000000 0.000000
vt 1.000000 0.000000
vt 1.000000 1.000000
vt 0.000000 1.000000
vt 0.000000 0.000000
vt 1.000000 0.000000
vt 1.000000 1.000000
vt 0.000000 1.000000
vt 0.000000 0.000000
vt 1.000000 0.000000
vt 1.000000 1.000000
vt 0.000000 1.000000
vt 0.000000 0.000000
vt 1.000000 0.000000
vt 1.000000 1.000000
vt 0.000000 1.000000
vt 0.000000 0.000000
vt 1.000000 0.000000
vt 1.000000 1.000000
vt 0.000000 1.000000
vt 0.000000 0.000000
vt 1.000000 0.000000
vt 1.000000 1.000000
vt 0.000000 1.000000
vt 0.000000 0.000000
vt 1.000000 0.000000
vt 1.000000 1.000000
vt 0.000000 1.000000
vt 0.000000 0.000000
vt 1.000000 0.000000
vt 1.000000 1.000000
vt 0.000000 1.000000
vt 0.000000 0.000000
vt 1.000000 0.000000
vt 1.000000 1.000000
vt 0.000000 1.000000
vt 0.000000 0.000000
vt 1.000000 0.000000
vt 1.000000 1.000000
vt 0.000000 1.000000
vt 0.000000 0.000000
vt 1.000000 0.000000
vt 1.000000 1.000000
vt 0.000000 1.000000
vt 0.000000 0.000000
vt 1.000000 0.000000
vt 1.000000 1.000000
vt 0.000000 1.000000
vt 0.000000 0.000000
vt 1.000000 0.000000
vt 1.000000 1.000000
vt 0.000000 1.000000
vt 0.000000 0.000000
vt 1.000000 0.000000
vt 1.000000 1.000000
vt 0.000000 1.000000
vt 0.000000 0.000000
vt 1.000000 0.000000
vt 1.000000 1.000000
vt 0.000000 1.000000
vt 0.000000 0.000000
vt 1.000000 0.000000
vt 1.000000 1.000000
vt 0.000000 1.000000
vt 0.000000 0.000000
vt 1.000000 0.000000
vt 1.000000 1.000000
vt 0.000000 1.000000
vt 0.000000 0.000000
vt 1.000000 0.000000
vt 1.000000 1.000000
vt 0.000000 1.000000
vt 0.000000 0.000000
vt 1.000000 0.000000
vt 1.000000 1.000000
vt 0.000000 1.000000
vt 0.000000 0.000000
vt 1.000000 0.000000
vt 1.000000 1.000000
vt 0.000000 1.000000
vt 0.000000 0.000000
vt 1.000000 0.000000
vt 1.000000 1.000000
vt 0.000000 1.000000
vt 0.000000 0.000000
vt 1.000000 0.000000
vt 1.000000 1.000000
vt 0.000000 1.000000
vt 0.000000 0.000000
vt 1.000000 0.000000
vt 1.000000 1.000000
vt 0.000000 1.000000
vt 0.000000 0.000000
vt 1.000000 0.000000
vt 1.000000 1.000000
vt 0.000000 1.000000
vt 0.000000 0.000000
vt 1.000000 0.000000
vt 1.000000 1.000000
vt 0.000000 1.000000
vt 0.000000 0.000000
vt 1.000000 0.000000
vt 1.000000 1.000000
vt 0.000000 1.000000
vt 0.000000 0.000000
vt 1.000000 0.000000
vt 1.000000 1.000000
vt 0.000000 1.000000
vt 0.000000 0.000000
vt 1.000000 0.000000
vt 1.000000 1.000000
vt 0.000000 1.000000
vt 0.000000 0.000000
vt 1.000000 0.000000
vt 1.000000 1.000000
vt 0.000000 1.000000
vt 0.000000 0.000000
vt 1.000000 0.000000
vt 1.000000 1.000000
vt 0.000000 1.000000
vt 0.000000 0.000000
vt 1.000000 0.000000
vt 1.000000 1.000000
vt 0.000000 1.000000
vt 0.000000 0.000000
vt 1.000000 0.000000
vt 1.000000 1.000000
vt 0.000000 1.000000
vt 0.000000 0.000000
vt 1.000000 0.000000
vt 1.000000 1.000000
vt 0.000000 1.000000
vt 0.000000 0.000000
vt 1.000000 0.000000
vt 1.000000 1.000000
vt 0.000000 1.000000
vt 0.000000 0.000000
vt 1.000000 0.000000
vt 1.000000 1.000000
vt 0.000000 1.000000
vt 0.000000 0.000000
vt 1.000000 0.000000
vt 1.000000 1.000000
vt 0.000000 1.000000
vt 0.000000 0.000000
vt 1.000000 0.000000
vt 1.000000 1.000000
vt 0.000000 1.000000
vt 0.000000 0.000000
vt 1.000000 0.000000
vt 1.000000 1.000000
vt 0.000000 1.000000
vt 0.000000 0.000000
vt 1.000000 0.000000
vt 1.000000 1.000000
vt 0.000000 1.000000
vt 0.000000 0.000000
vt 1.000000 0.000000
vt 1.000000 1.000000
vt 0.000000 1.000000
vt 0.000000 0.000000
vt 1.000000 0.000000
vt 1.000000 1.000000
vt 0.000000 1.000000
vt 0.000000 0.000000
vt 1.000000 0.000000
vt 1.000000 1.000000
vt 0.000000 1.000000
vt 0.000000 0.000000
vt 1.000000 0.000000
vt 1.000000 1.000000
vt 0.000000 1.000000
vt 0.000000 0.000000
vt 1.000000 0.000000
vt 1.000000 1.000000
vt 0.000000 1.000000
vt 0.000000 0.000000
vt 1.000000 0.000000
vt 1.000000 1.000000
vt 0.000000 1.000000
vt 0.000000 0.000000
vt 1.000000 0.000000
vt 1.000000 1.000000
vt 0.000000 1.000000
vt 0.000000 0.000000
vt 1.000000 0.000000
vt 1.000000 1.000000
vt 0.000000 1.000000
vt 0.000000 0.000000
vt 1.000000 0.000000
vt 1.000000 1.000000
vt 0.000000 1.000000
vt 0.000000 0.000000
vt 1.000000 0.000000
vt 1.000000 1.000000
vt 0.000000 1.000000
vt 0.000000 0.000000
vt 1.000000 0.000000
vt 1.000000 1.000000
vt 0.000000 1.000000
vt 0.000000 0.000000
vt 1.000000 0.000000
vt 1.000000 1.000000
vt 0.000000 1.000000
vt 0.000000 0.000000
vt 1.000000 0.000000
vt 1.000000 1.000000
vt 0.000000 1.000000
vt 0.000000 0.000000
vt 1.000000 0.000000
vt 1.000000 1.000000
vt 0.000000 1.000000
vt 0.000000 0.000000
vt 1.000000 0.000000
vt 1.000000 1.000000
vt 0.000000 1.000000
vt 0.000000 0.000000
vt 1.000000 0.000000
vt 1.000000 1.000000
vt 0.000000 1.000000
vt 0.000000 0.000000
vt 1.000000 0.000000
vt 1.000000 1.000000
vt 0.000000 1.000000
vt 0.000000 0.000000
vt 1.000000 0.000000
vt 1.000000 1.000000
vt 0.000000 1.000000
vt 0.000000 0.000000
vt 1.000000 0.000000
vt 1.000000 1.000000
vt 0.000000 1.000000
o ReadableFerroRod
usemtl MAT_METAL
f 1/1 2/2 4/3 3/4
f 5/5 7/6 8/7 6/8
f 1/9 5/10 6/11 2/12
f 3/13 4/14 8/15 7/16
f 1/17 3/18 7/19 5/20
f 2/21 6/22 8/23 4/24
o BroadStrikeZone
f 9/25 12/26 11/27 10/28
f 13/29 14/30 15/31 16/32
f 9/33 10/34 14/35 13/36
f 12/37 16/38 15/39 11/40
f 9/41 13/42 16/43 12/44
f 10/45 11/46 15/47 14/48
o OversizePrimaryGrip
usemtl MAT_WOOD
f 17/49 20/50 19/51 18/52
f 21/53 22/54 23/55 24/56
f 17/57 18/58 22/59 21/60
f 20/61 24/62 23/63 19/64
f 17/65 21/66 24/67 20/68
f 18/69 19/70 23/71 22/72
o TetherRing
usemtl MAT_METAL
f 25/73 30/74 31/75 26/76
f 26/77 31/78 32/79 27/80
f 27/81 32/82 33/83 28/84
f 28/85 33/86 34/87 29/88
f 29/89 34/90 30/91 25/92
f 30/93 35/94 36/95 31/96
f 31/97 36/98 37/99 32/100
f 32/101 37/102 38/103 33/104
f 33/105 38/106 39/107 34/108
f 34/109 39/110 35/111 30/112
f 35/113 40/114 41/115 36/116
f 36/117 41/118 42/119 37/120
f 37/121 42/122 43/123 38/124
f 38/125 43/126 44/127 39/128
f 39/129 44/130 40/131 35/132
f 40/133 45/134 46/135 41/136
f 41/137 46/138 47/139 42/140
f 42/141 47/142 48/143 43/144
f 43/145 48/146 49/147 44/148
f 44/149 49/150 45/151 40/152
f 45/153 50/154 51/155 46/156
f 46/157 51/158 52/159 47/160
f 47/161 52/162 53/163 48/164
f 48/165 53/166 54/167 49/168
f 49/169 54/170 50/171 45/172
f 50/173 55/174 56/175 51/176
f 51/177 56/178 57/179 52/180
f 52/181 57/182 58/183 53/184
f 53/185 58/186 59/187 54/188
f 54/189 59/190 55/191 50/192
f 55/193 60/194 61/195 56/196
f 56/197 61/198 62/199 57/200
f 57/201 62/202 63/203 58/204
f 58/205 63/206 64/207 59/208
f 59/209 64/210 60/211 55/212
f 60/213 65/214 66/215 61/216
f 61/217 66/218 67/219 62/220
f 62/221 67/222 68/223 63/224
f 63/225 68/226 69/227 64/228
f 64/229 69/230 65/231 60/232
f 65/233 70/234 71/235 66/236
f 66/237 71/238 72/239 67/240
f 67/241 72/242 73/243 68/244
f 68/245 73/246 74/247 69/248
f 69/249 74/250 70/251 65/252
f 70/253 75/254 76/255 71/256
f 71/257 76/258 77/259 72/260
f 72/261 77/262 78/263 73/264
f 73/265 78/266 79/267 74/268
f 74/269 79/270 75/271 70/272
f 75/273 80/274 81/275 76/276
f 76/277 81/278 82/279 77/280
f 77/281 82/282 83/283 78/284
f 78/285 83/286 84/287 79/288
f 79/289 84/290 80/291 75/292
f 80/293 25/294 26/295 81/296
f 81/297 26/298 27/299 82/300
f 82/301 27/302 28/303 83/304
f 83/305 28/306 29/307 84/308
f 84/309 29/310 25/311 80/312
o SeparatedStrikerPlate
f 85/313 88/314 87/315 86/316
f 89/317 90/318 91/319 92/320
f 85/321 86/322 90/323 89/324
f 88/325 92/326 91/327 87/328
f 85/329 89/330 92/331 88/332
f 86/333 87/334 91/335 90/336
