<svg xmlns="http://www.w3.org/2000/svg" viewBox="0 0 1200 720"><rect width="1200" height="720" fill="#282C2D"/><text x="44" y="56" fill="#E8E0CF" font-size="32" font-family="sans-serif">PRP_SHELTER_FRAME_001 — individual source master</text><text x="44" y="90" fill="#C8B58D" font-size="18" font-family="sans-serif">A-priority shelter structure · stage 0–3 progression · broad repair nodes · readable from camp distance</text><g font-family="sans-serif"><rect x="46" y="126" width="1108" height="472" rx="28" fill="#343A3C" stroke="#55717A" stroke-width="7"/><g transform="translate(70 162)"><text x="0" y="0" fill="#E8E0CF" font-size="20">STAGE 0 / MATERIALS</text><rect y="20" width="250" height="360" rx="18" fill="#303638" stroke="#66745C" stroke-width="5"/><path d="M34 240L202 172M55 260L220 192M63 192L190 250" stroke="#8C7157" stroke-width="18" stroke-linecap="round"/><path d="M42 240L208 174M62 260L226 194" stroke="#C8B58D" stroke-width="3" opacity=".55"/><circle cx="58" cy="130" r="18" fill="#3E4544" stroke="#D59A52" stroke-width="5"/><circle cx="192" cy="130" r="18" fill="#3E4544" stroke="#D59A52" stroke-width="5"/><path d="M58 130v50M192 130v50" stroke="#8C7157" stroke-width="14" stroke-linecap="round"/><text x="20" y="310" fill="#C8B58D" font-size="14">materials / two anchor zones</text><text x="20" y="334" fill="#C8B58D" font-size="14">no finished silhouette yet</text></g><g transform="translate(343 162)"><text x="0" y="0" fill="#E8E0CF" font-size="20">STAGE 1 / BASIC FRAME</text><rect y="20" width="250" height="360" rx="18" fill="#303638" stroke="#D59A52" stroke-width="5"/><path d="M35 250L125 90L215 250M55 250L125 125L195 250" stroke="#8C7157" stroke-width="17" stroke-linecap="round" stroke-linejoin="round"/><path d="M125 90L125 125" stroke="#C8B58D" stroke-width="10" stroke-linecap="round"/><circle cx="125" cy="107" r="13" fill="#3E4544" stroke="#D59A52" stroke-width="5"/><text x="20" y="310" fill="#C8B58D" font-size="14">clear A-frame silhouette</text><text x="20" y="334" fill="#C8B58D" font-size="14">still laterally weak</text></g><g transform="translate(616 162)"><text x="0" y="0" fill="#E8E0CF" font-size="20">STAGE 2 / STABILIZED</text><rect y="20" width="250" height="360" rx="18" fill="#303638" stroke="#55717A" stroke-width="5"/><path d="M35 250L125 90L215 250M55 250L125 125L195 250" stroke="#8C7157" stroke-width="17" stroke-linecap="round" stroke-linejoin="round"/><path d="M42 180L208 180" stroke="#8C7157" stroke-width="17" stroke-linecap="round"/><path d="M52 180L198 180" stroke="#C8B58D" stroke-width="3" opacity=".6"/><circle cx="57" cy="180" r="13" fill="#3E4544" stroke="#D59A52" stroke-width="5"/><circle cx="193" cy="180" r="13" fill="#3E4544" stroke="#D59A52" stroke-width="5"/><text x="20" y="310" fill="#C8B58D" font-size="14">ridge + first binding added</text><text x="20" y="334" fill="#C8B58D" font-size="14">stable structural read</text></g><g transform="translate(889 162)"><text x="0" y="0" fill="#E8E0CF" font-size="20">STAGE 3 / REINFORCED</text><rect y="20" width="240" height="360" rx="18" fill="#303638" stroke="#66745C" stroke-width="5"/><path d="M28 250L120 90L212 250M48 250L120 125L192 250" stroke="#8C7157" stroke-width="17" stroke-linecap="round" stroke-linejoin="round"/><path d="M38 180L202 180M55 235L185 145M55 145L185 235" stroke="#8C7157" stroke-width="15" stroke-linecap="round"/><g fill="#3E4544" stroke="#D59A52" stroke-width="5"><circle cx="54" cy="180" r="12"/><circle cx="186" cy="180" r="12"/><circle cx="120" cy="190" r="13"/></g><path d="M48 166c15 14 15 28 0 40M192 166c-15 14-15 28 0 40" fill="none" stroke="#C8B58D" stroke-width="6" stroke-linecap="round"/><text x="16" y="310" fill="#C8B58D" font-size="14">cross-braced / bindings visible</text><text x="16" y="334" fill="#C8B58D" font-size="14">denser finished silhouette</text></g></g><rect x="46" y="620" width="1108" height="66" rx="16" fill="#343A3C" stroke="#66745C" stroke-width="4"/><text x="70" y="646" fill="#E8E0CF" font-size="16" font-family="sans-serif">SOURCE CONTRACT</text><text x="70" y="669" fill="#C8B58D" font-size="13" font-family="sans-serif">Progress must read as structural silhouette, not a progress bar. Large nodes/hold regions remain reachable; final runtime scale/interaction stays Claude-owned.</text></svg>