# PROJECT OEN original source mesh
# ITM_HAMMER_001
# Units: metres; Z-up
mtllib ITM_HAMMER_001.mtl
v -0.017500 -0.017500 0.000000
v 0.017500 -0.017500 0.000000
v 0.017500 0.017500 0.000000
v -0.017500 0.017500 0.000000
v -0.017500 -0.017500 0.290000
v 0.017500 -0.017500 0.290000
v 0.017500 0.017500 0.290000
v -0.017500 0.017500 0.290000
v -0.024000 -0.024000 0.005000
v 0.024000 -0.024000 0.005000
v 0.024000 0.024000 0.005000
v -0.024000 0.024000 0.005000
v -0.024000 -0.024000 0.125000
v 0.024000 -0.024000 0.125000
v 0.024000 0.024000 0.125000
v -0.024000 0.024000 0.125000
v -0.067500 -0.040000 0.264000
v 0.067500 -0.040000 0.264000
v 0.067500 0.040000 0.264000
v -0.067500 0.040000 0.264000
v -0.067500 -0.040000 0.336000
v 0.067500 -0.040000 0.336000
v 0.067500 0.040000 0.336000
v -0.067500 0.040000 0.336000
v -0.087000 -0.043000 0.261000
v -0.067000 -0.043000 0.261000
v -0.067000 0.043000 0.261000
v -0.087000 0.043000 0.261000
v -0.087000 -0.043000 0.339000
v -0.067000 -0.043000 0.339000
v -0.067000 0.043000 0.339000
v -0.087000 0.043000 0.339000
v 0.067000 -0.043000 0.261000
v 0.087000 -0.043000 0.261000
v 0.087000 0.043000 0.261000
v 0.067000 0.043000 0.261000
v 0.067000 -0.043000 0.339000
v 0.087000 -0.043000 0.339000
v 0.087000 0.043000 0.339000
v 0.067000 0.043000 0.339000
v -0.027500 -0.025000 0.235000
v 0.027500 -0.025000 0.235000
v 0.027500 0.025000 0.235000
v -0.027500 0.025000 0.235000
v -0.027500 -0.025000 0.285000
v 0.027500 -0.025000 0.285000
v 0.027500 0.025000 0.285000
v -0.027500 0.025000 0.285000
o handle_core
usemtl handle
f 1 4 3 2
f 5 6 7 8
f 1 2 6 5
f 2 3 7 6
f 3 4 8 7
f 4 1 5 8
o grip_swell
usemtl grip
f 9 12 11 10
f 13 14 15 16
f 9 10 14 13
f 10 11 15 14
f 11 12 16 15
f 12 9 13 16
o head_core
usemtl head
f 17 20 19 18
f 21 22 23 24
f 17 18 22 21
f 18 19 23 22
f 19 20 24 23
f 20 17 21 24
o contact_face_left
usemtl contact
f 25 28 27 26
f 29 30 31 32
f 25 26 30 29
f 26 27 31 30
f 27 28 32 31
f 28 25 29 32
o contact_face_right
usemtl contact
f 33 36 35 34
f 37 38 39 40
f 33 34 38 37
f 34 35 39 38
f 35 36 40 39
f 36 33 37 40
o neck
usemtl neck
f 41 44 43 42
f 45 46 47 48
f 41 42 46 45
f 42 43 47 46
f 43 44 48 47
f 44 41 45 48
