# PROJECT OEN production source mesh: ITM_MAP_FRAGMENT_001
mtllib ITM_MAP_FRAGMENT_001.mtl
s off
v -0.180000 -0.125000 0.000000
v 0.180000 -0.125000 0.000000
v 0.180000 0.125000 0.000000
v -0.180000 0.125000 0.000000
v -0.180000 -0.125000 0.016000
v 0.180000 -0.125000 0.016000
v 0.180000 0.125000 0.016000
v -0.180000 0.125000 0.016000
v -0.066000 -0.120000 0.013000
v -0.066000 -0.120000 0.025000
v -0.054000 -0.120000 0.013000
v -0.054000 -0.120000 0.025000
v -0.066000 0.120000 0.013000
v -0.066000 0.120000 0.025000
v -0.054000 0.120000 0.013000
v -0.054000 0.120000 0.025000
v 0.064000 -0.120000 0.013000
v 0.064000 -0.120000 0.025000
v 0.076000 -0.120000 0.013000
v 0.076000 -0.120000 0.025000
v 0.064000 0.120000 0.013000
v 0.064000 0.120000 0.025000
v 0.076000 0.120000 0.013000
v 0.076000 0.120000 0.025000
v -0.136548 -0.076658 0.035500
v -0.136548 -0.076658 0.020500
v -0.143452 -0.063342 0.035500
v -0.143452 -0.063342 0.020500
v 0.133452 0.063342 0.035500
v 0.133452 0.063342 0.020500
v 0.126548 0.076658 0.035500
v 0.126548 0.076658 0.020500
v 0.092500 0.047500 0.024000
v 0.147500 0.047500 0.024000
v 0.147500 0.102500 0.024000
v 0.092500 0.102500 0.024000
v 0.092500 0.047500 0.042000
v 0.147500 0.047500 0.042000
v 0.147500 0.102500 0.042000
v 0.092500 0.102500 0.042000
v -0.185000 -0.065000 0.013500
v -0.165000 -0.065000 0.013500
v -0.165000 0.065000 0.013500
v -0.185000 0.065000 0.013500
v -0.185000 -0.065000 0.038500
v -0.165000 -0.065000 0.038500
v -0.165000 0.065000 0.038500
v -0.185000 0.065000 0.038500
vt 0.000000 0.000000
vt 1.000000 0.000000
vt 1.000000 1.000000
vt 0.000000 1.000000
vt 0.000000 0.000000
vt 1.000000 0.000000
vt 1.000000 1.000000
vt 0.000000 1.000000
vt 0.000000 0.000000
vt 1.000000 0.000000
vt 1.000000 1.000000
vt 0.000000 1.000000
vt 0.000000 0.000000
vt 1.000000 0.000000
vt 1.000000 1.000000
vt 0.000000 1.000000
vt 0.000000 0.000000
vt 1.000000 0.000000
vt 1.000000 1.000000
vt 0.000000 1.000000
vt 0.000000 0.000000
vt 1.000000 0.000000
vt 1.000000 1.000000
vt 0.000000 1.000000
vt 0.000000 0.000000
vt 1.000000 0.000000
vt 1.000000 1.000000
vt 0.000000 1.000000
vt 0.000000 0.000000
vt 1.000000 0.000000
vt 1.000000 1.000000
vt 0.000000 1.000000
vt 0.000000 0.000000
vt 1.000000 0.000000
vt 1.000000 1.000000
vt 0.000000 1.000000
vt 0.000000 0.000000
vt 1.000000 0.000000
vt 1.000000 1.000000
vt 0.000000 1.000000
vt 0.000000 0.000000
vt 1.000000 0.000000
vt 1.000000 1.000000
vt 0.000000 1.000000
vt 0.000000 0.000000
vt 1.000000 0.000000
vt 1.000000 1.000000
vt 0.000000 1.000000
vt 0.000000 0.000000
vt 1.000000 0.000000
vt 1.000000 1.000000
vt 0.000000 1.000000
vt 0.000000 0.000000
vt 1.000000 0.000000
vt 1.000000 1.000000
vt 0.000000 1.000000
vt 0.000000 0.000000
vt 1.000000 0.000000
vt 1.000000 1.000000
vt 0.000000 1.000000
vt 0.000000 0.000000
vt 1.000000 0.000000
vt 1.000000 1.000000
vt 0.000000 1.000000
vt 0.000000 0.000000
vt 1.000000 0.000000
vt 1.000000 1.000000
vt 0.000000 1.000000
vt 0.000000 0.000000
vt 1.000000 0.000000
vt 1.000000 1.000000
vt 0.000000 1.000000
vt 0.000000 0.000000
vt 1.000000 0.000000
vt 1.000000 1.000000
vt 0.000000 1.000000
vt 0.000000 0.000000
vt 1.000000 0.000000
vt 1.000000 1.000000
vt 0.000000 1.000000
vt 0.000000 0.000000
vt 1.000000 0.000000
vt 1.000000 1.000000
vt 0.000000 1.000000
vt 0.000000 0.000000
vt 1.000000 0.000000
vt 1.000000 1.000000
vt 0.000000 1.000000
vt 0.000000 0.000000
vt 1.000000 0.000000
vt 1.000000 1.000000
vt 0.000000 1.000000
vt 0.000000 0.000000
vt 1.000000 0.000000
vt 1.000000 1.000000
vt 0.000000 1.000000
vt 0.000000 0.000000
vt 1.000000 0.000000
vt 1.000000 1.000000
vt 0.000000 1.000000
vt 0.000000 0.000000
vt 1.000000 0.000000
vt 1.000000 1.000000
vt 0.000000 1.000000
vt 0.000000 0.000000
vt 1.000000 0.000000
vt 1.000000 1.000000
vt 0.000000 1.000000
vt 0.000000 0.000000
vt 1.000000 0.000000
vt 1.000000 1.000000
vt 0.000000 1.000000
vt 0.000000 0.000000
vt 1.000000 0.000000
vt 1.000000 1.000000
vt 0.000000 1.000000
vt 0.000000 0.000000
vt 1.000000 0.000000
vt 1.000000 1.000000
vt 0.000000 1.000000
vt 0.000000 0.000000
vt 1.000000 0.000000
vt 1.000000 1.000000
vt 0.000000 1.000000
vt 0.000000 0.000000
vt 1.000000 0.000000
vt 1.000000 1.000000
vt 0.000000 1.000000
vt 0.000000 0.000000
vt 1.000000 0.000000
vt 1.000000 1.000000
vt 0.000000 1.000000
vt 0.000000 0.000000
vt 1.000000 0.000000
vt 1.000000 1.000000
vt 0.000000 1.000000
vt 0.000000 0.000000
vt 1.000000 0.000000
vt 1.000000 1.000000
vt 0.000000 1.000000
vt 0.000000 0.000000
vt 1.000000 0.000000
vt 1.000000 1.000000
vt 0.000000 1.000000
o FictionalMapSurface
usemtl MAT_PAPER
f 1/1 4/2 3/3 2/4
f 5/5 6/6 7/7 8/8
f 1/9 2/10 6/11 5/12
f 4/13 8/14 7/15 3/16
f 1/17 5/18 8/19 4/20
f 2/21 3/22 7/23 6/24
o FoldRidgeLeft
f 9/25 10/26 12/27 11/28
f 13/29 15/30 16/31 14/32
f 9/33 13/34 14/35 10/36
f 11/37 12/38 16/39 15/40
f 9/41 11/42 15/43 13/44
f 10/45 14/46 16/47 12/48
o FoldRidgeRight
f 17/49 18/50 20/51 19/52
f 21/53 23/54 24/55 22/56
f 17/57 21/58 22/59 18/60
f 19/61 20/62 24/63 23/64
f 17/65 19/66 23/67 21/68
f 18/69 22/70 24/71 20/72
o ReadableRouteLine
usemtl MAT_METAL
f 25/73 26/74 28/75 27/76
f 29/77 31/78 32/79 30/80
f 25/81 29/82 30/83 26/84
f 27/85 28/86 32/87 31/88
f 25/89 27/90 31/91 29/92
f 26/93 30/94 32/95 28/96
o SignalDestinationShape
f 33/97 36/98 35/99 34/100
f 37/101 38/102 39/103 40/104
f 33/105 34/106 38/107 37/108
f 36/109 40/110 39/111 35/112
f 33/113 37/114 40/115 36/116
f 34/117 35/118 39/119 38/120
o PrimaryGripMargin
usemtl MAT_CANVAS
f 41/121 44/122 43/123 42/124
f 45/125 46/126 47/127 48/128
f 41/129 42/130 46/131 45/132
f 44/133 48/134 47/135 43/136
f 41/137 45/138 48/139 44/140
f 42/141 43/142 47/143 46/144
