# PROJECT OEN original source mesh
# ITM_EMBER_CARRIER_001
# Units: metres; Z-up source intent
mtllib ITM_EMBER_CARRIER_001.mtl
v -0.170000 -0.130000 0.000000
v 0.170000 -0.130000 0.000000
v 0.170000 0.130000 0.000000
v -0.170000 0.130000 0.000000
v -0.170000 -0.130000 0.025000
v 0.170000 -0.130000 0.025000
v 0.170000 0.130000 0.025000
v -0.170000 0.130000 0.025000
v -0.170000 0.100000 0.012500
v 0.170000 0.100000 0.012500
v 0.170000 0.130000 0.012500
v -0.170000 0.130000 0.012500
v -0.170000 0.100000 0.157500
v 0.170000 0.100000 0.157500
v 0.170000 0.130000 0.157500
v -0.170000 0.130000 0.157500
v -0.170000 -0.100000 0.012500
v -0.140000 -0.100000 0.012500
v -0.140000 0.120000 0.012500
v -0.170000 0.120000 0.012500
v -0.170000 -0.100000 0.137500
v -0.140000 -0.100000 0.137500
v -0.140000 0.120000 0.137500
v -0.170000 0.120000 0.137500
v 0.140000 -0.100000 0.012500
v 0.170000 -0.100000 0.012500
v 0.170000 0.120000 0.012500
v 0.140000 0.120000 0.012500
v 0.140000 -0.100000 0.137500
v 0.170000 -0.100000 0.137500
v 0.170000 0.120000 0.137500
v 0.140000 0.120000 0.137500
v -0.170000 -0.130000 0.012500
v 0.170000 -0.130000 0.012500
v 0.170000 -0.106000 0.012500
v -0.170000 -0.106000 0.012500
v -0.170000 -0.130000 0.072500
v 0.170000 -0.130000 0.072500
v 0.170000 -0.106000 0.072500
v -0.170000 -0.106000 0.072500
v -0.110000 -0.062500 0.027500
v 0.110000 -0.062500 0.027500
v 0.110000 0.072500 0.027500
v -0.110000 0.072500 0.027500
v -0.110000 -0.062500 0.052500
v 0.110000 -0.062500 0.052500
v 0.110000 0.072500 0.052500
v -0.110000 0.072500 0.052500
v -0.072500 -0.200000 0.079000
v 0.072500 -0.200000 0.079000
v 0.072500 -0.170000 0.079000
v -0.072500 -0.170000 0.079000
v -0.072500 -0.200000 0.111000
v 0.072500 -0.200000 0.111000
v 0.072500 -0.170000 0.111000
v -0.072500 -0.170000 0.111000
v -0.068000 -0.176000 0.035000
v -0.042000 -0.176000 0.035000
v -0.042000 -0.126000 0.035000
v -0.068000 -0.126000 0.035000
v -0.068000 -0.176000 0.115000
v -0.042000 -0.176000 0.115000
v -0.042000 -0.126000 0.115000
v -0.068000 -0.126000 0.115000
v 0.042000 -0.176000 0.035000
v 0.068000 -0.176000 0.035000
v 0.068000 -0.126000 0.035000
v 0.042000 -0.126000 0.035000
v 0.042000 -0.176000 0.115000
v 0.068000 -0.176000 0.115000
v 0.068000 -0.126000 0.115000
v 0.042000 -0.126000 0.115000
v -0.075000 -0.017500 0.051000
v -0.025000 -0.017500 0.051000
v -0.025000 0.017500 0.051000
v -0.075000 0.017500 0.051000
v -0.075000 -0.017500 0.071000
v -0.025000 -0.017500 0.071000
v -0.025000 0.017500 0.071000
v -0.075000 0.017500 0.071000
v -0.015000 0.007500 0.051000
v 0.045000 0.007500 0.051000
v 0.045000 0.042500 0.051000
v -0.015000 0.042500 0.051000
v -0.015000 0.007500 0.077000
v 0.045000 0.007500 0.077000
v 0.045000 0.042500 0.077000
v -0.015000 0.042500 0.077000
v 0.037500 -0.040000 0.050000
v 0.082500 -0.040000 0.050000
v 0.082500 -0.010000 0.050000
v 0.037500 -0.010000 0.050000
v 0.037500 -0.040000 0.068000
v 0.082500 -0.040000 0.068000
v 0.082500 -0.010000 0.068000
v 0.037500 -0.010000 0.068000
o tray_base
usemtl carrier_body
f 1 4 3 2
f 5 6 7 8
f 1 2 6 5
f 2 3 7 6
f 3 4 8 7
f 4 1 5 8
o back_wind_guard
usemtl heat_guard
f 9 12 11 10
f 13 14 15 16
f 9 10 14 13
f 10 11 15 14
f 11 12 16 15
f 12 9 13 16
o left_wind_guard
usemtl heat_guard
f 17 20 19 18
f 21 22 23 24
f 17 18 22 21
f 18 19 23 22
f 19 20 24 23
f 20 17 21 24
o right_wind_guard
usemtl heat_guard
f 25 28 27 26
f 29 30 31 32
f 25 26 30 29
f 26 27 31 30
f 27 28 32 31
f 28 25 29 32
o front_lip
usemtl carrier_body
f 33 36 35 34
f 37 38 39 40
f 33 34 38 37
f 34 35 39 38
f 35 36 40 39
f 36 33 37 40
o ember_bed
usemtl ember_bed
f 41 44 43 42
f 45 46 47 48
f 41 42 46 45
f 42 43 47 46
f 43 44 48 47
f 44 41 45 48
o grip_bar
usemtl grip
f 49 52 51 50
f 53 54 55 56
f 49 50 54 53
f 50 51 55 54
f 51 52 56 55
f 52 49 53 56
o grip_post_left
usemtl grip
f 57 60 59 58
f 61 62 63 64
f 57 58 62 61
f 58 59 63 62
f 59 60 64 63
f 60 57 61 64
o grip_post_right
usemtl grip
f 65 68 67 66
f 69 70 71 72
f 65 66 70 69
f 66 67 71 70
f 67 68 72 71
f 68 65 69 72
o ember_form_a
usemtl ember_bed
f 73 76 75 74
f 77 78 79 80
f 73 74 78 77
f 74 75 79 78
f 75 76 80 79
f 76 73 77 80
o ember_form_b
usemtl ember_bed
f 81 84 83 82
f 85 86 87 88
f 81 82 86 85
f 82 83 87 86
f 83 84 88 87
f 84 81 85 88
o ember_form_c
usemtl ember_bed
f 89 92 91 90
f 93 94 95 96
f 89 90 94 93
f 90 91 95 94
f 91 92 96 95
f 92 89 93 96
