# PROJECT OEN production source mesh: ITM_CLOTH_001
mtllib ITM_CLOTH_001.mtl
s off
v -0.160000 -0.120000 0.000000
v 0.160000 -0.120000 0.000000
v 0.160000 0.120000 0.000000
v -0.160000 0.120000 0.000000
v -0.160000 -0.120000 0.070000
v 0.160000 -0.120000 0.070000
v 0.160000 0.120000 0.070000
v -0.160000 0.120000 0.070000
v -0.160000 -0.085000 0.060500
v 0.090000 -0.085000 0.060500
v 0.090000 0.115000 0.060500
v -0.160000 0.115000 0.060500
v -0.160000 -0.085000 0.095500
v 0.090000 -0.085000 0.095500
v 0.090000 0.115000 0.095500
v -0.160000 0.115000 0.095500
v -0.040000 -0.095000 0.095500
v 0.150000 -0.095000 0.095500
v 0.150000 0.065000 0.095500
v -0.040000 0.065000 0.095500
v -0.040000 -0.095000 0.120500
v 0.150000 -0.095000 0.120500
v 0.150000 0.065000 0.120500
v -0.040000 0.065000 0.120500
v -0.135502 -0.087796 0.135000
v -0.135502 -0.087796 0.117000
v -0.144498 -0.072204 0.135000
v -0.144498 -0.072204 0.117000
v 0.124498 0.062204 0.135000
v 0.124498 0.062204 0.117000
v 0.115502 0.077796 0.135000
v 0.115502 0.077796 0.117000
v -0.114680 0.062312 0.136000
v -0.114680 0.062312 0.118000
v -0.105320 0.077688 0.136000
v -0.105320 0.077688 0.118000
v 0.115320 -0.077688 0.136000
v 0.115320 -0.077688 0.118000
v 0.124680 -0.062312 0.136000
v 0.124680 -0.062312 0.118000
v -0.095000 -0.131000 0.030000
v 0.095000 -0.131000 0.030000
v 0.095000 -0.113000 0.030000
v -0.095000 -0.113000 0.030000
v -0.095000 -0.131000 0.100000
v 0.095000 -0.131000 0.100000
v 0.095000 -0.113000 0.100000
v -0.095000 -0.113000 0.100000
vt 0.000000 0.000000
vt 1.000000 0.000000
vt 1.000000 1.000000
vt 0.000000 1.000000
vt 0.000000 0.000000
vt 1.000000 0.000000
vt 1.000000 1.000000
vt 0.000000 1.000000
vt 0.000000 0.000000
vt 1.000000 0.000000
vt 1.000000 1.000000
vt 0.000000 1.000000
vt 0.000000 0.000000
vt 1.000000 0.000000
vt 1.000000 1.000000
vt 0.000000 1.000000
vt 0.000000 0.000000
vt 1.000000 0.000000
vt 1.000000 1.000000
vt 0.000000 1.000000
vt 0.000000 0.000000
vt 1.000000 0.000000
vt 1.000000 1.000000
vt 0.000000 1.000000
vt 0.000000 0.000000
vt 1.000000 0.000000
vt 1.000000 1.000000
vt 0.000000 1.000000
vt 0.000000 0.000000
vt 1.000000 0.000000
vt 1.000000 1.000000
vt 0.000000 1.000000
vt 0.000000 0.000000
vt 1.000000 0.000000
vt 1.000000 1.000000
vt 0.000000 1.000000
vt 0.000000 0.000000
vt 1.000000 0.000000
vt 1.000000 1.000000
vt 0.000000 1.000000
vt 0.000000 0.000000
vt 1.000000 0.000000
vt 1.000000 1.000000
vt 0.000000 1.000000
vt 0.000000 0.000000
vt 1.000000 0.000000
vt 1.000000 1.000000
vt 0.000000 1.000000
vt 0.000000 0.000000
vt 1.000000 0.000000
vt 1.000000 1.000000
vt 0.000000 1.000000
vt 0.000000 0.000000
vt 1.000000 0.000000
vt 1.000000 1.000000
vt 0.000000 1.000000
vt 0.000000 0.000000
vt 1.000000 0.000000
vt 1.000000 1.000000
vt 0.000000 1.000000
vt 0.000000 0.000000
vt 1.000000 0.000000
vt 1.000000 1.000000
vt 0.000000 1.000000
vt 0.000000 0.000000
vt 1.000000 0.000000
vt 1.000000 1.000000
vt 0.000000 1.000000
vt 0.000000 0.000000
vt 1.000000 0.000000
vt 1.000000 1.000000
vt 0.000000 1.000000
vt 0.000000 0.000000
vt 1.000000 0.000000
vt 1.000000 1.000000
vt 0.000000 1.000000
vt 0.000000 0.000000
vt 1.000000 0.000000
vt 1.000000 1.000000
vt 0.000000 1.000000
vt 0.000000 0.000000
vt 1.000000 0.000000
vt 1.000000 1.000000
vt 0.000000 1.000000
vt 0.000000 0.000000
vt 1.000000 0.000000
vt 1.000000 1.000000
vt 0.000000 1.000000
vt 0.000000 0.000000
vt 1.000000 0.000000
vt 1.000000 1.000000
vt 0.000000 1.000000
vt 0.000000 0.000000
vt 1.000000 0.000000
vt 1.000000 1.000000
vt 0.000000 1.000000
vt 0.000000 0.000000
vt 1.000000 0.000000
vt 1.000000 1.000000
vt 0.000000 1.000000
vt 0.000000 0.000000
vt 1.000000 0.000000
vt 1.000000 1.000000
vt 0.000000 1.000000
vt 0.000000 0.000000
vt 1.000000 0.000000
vt 1.000000 1.000000
vt 0.000000 1.000000
vt 0.000000 0.000000
vt 1.000000 0.000000
vt 1.000000 1.000000
vt 0.000000 1.000000
vt 0.000000 0.000000
vt 1.000000 0.000000
vt 1.000000 1.000000
vt 0.000000 1.000000
vt 0.000000 0.000000
vt 1.000000 0.000000
vt 1.000000 1.000000
vt 0.000000 1.000000
vt 0.000000 0.000000
vt 1.000000 0.000000
vt 1.000000 1.000000
vt 0.000000 1.000000
vt 0.000000 0.000000
vt 1.000000 0.000000
vt 1.000000 1.000000
vt 0.000000 1.000000
vt 0.000000 0.000000
vt 1.000000 0.000000
vt 1.000000 1.000000
vt 0.000000 1.000000
vt 0.000000 0.000000
vt 1.000000 0.000000
vt 1.000000 1.000000
vt 0.000000 1.000000
vt 0.000000 0.000000
vt 1.000000 0.000000
vt 1.000000 1.000000
vt 0.000000 1.000000
vt 0.000000 0.000000
vt 1.000000 0.000000
vt 1.000000 1.000000
vt 0.000000 1.000000
o FoldedClothBase
usemtl MAT_CANVAS
f 1/1 4/2 3/3 2/4
f 5/5 6/6 7/7 8/8
f 1/9 2/10 6/11 5/12
f 4/13 8/14 7/15 3/16
f 1/17 5/18 8/19 4/20
f 2/21 3/22 7/23 6/24
o ReadableFoldLayerA
f 9/25 12/26 11/27 10/28
f 13/29 14/30 15/31 16/32
f 9/33 10/34 14/35 13/36
f 12/37 16/38 15/39 11/40
f 9/41 13/42 16/43 12/44
f 10/45 11/46 15/47 14/48
o ReadableFoldLayerB
f 17/49 20/50 19/51 18/52
f 21/53 22/54 23/55 24/56
f 17/57 18/58 22/59 21/60
f 20/61 24/62 23/63 19/64
f 17/65 21/66 24/67 20/68
f 18/69 19/70 23/71 22/72
o BroadFoldSeamA
usemtl MAT_PAPER
f 25/73 26/74 28/75 27/76
f 29/77 31/78 32/79 30/80
f 25/81 29/82 30/83 26/84
f 27/85 28/86 32/87 31/88
f 25/89 27/90 31/91 29/92
f 26/93 30/94 32/95 28/96
o BroadFoldSeamB
f 33/97 34/98 36/99 35/100
f 37/101 39/102 40/103 38/104
f 33/105 37/106 38/107 34/108
f 35/109 36/110 40/111 39/112
f 33/113 35/114 39/115 37/116
f 34/117 38/118 40/119 36/120
o PrimaryGripEdge
usemtl MAT_DARK
f 41/121 44/122 43/123 42/124
f 45/125 46/126 47/127 48/128
f 41/129 42/130 46/131 45/132
f 44/133 48/134 47/135 43/136
f 41/137 45/138 48/139 44/140
f 42/141 43/142 47/143 46/144
