# PROJECT OEN production source mesh: ITM_FIBER_BUNDLE_001
mtllib ITM_FIBER_BUNDLE_001.mtl
s off
v 0.222000 0.040000 0.000000
v 0.211000 0.059053 0.000000
v 0.189000 0.059053 0.000000
v 0.178000 0.040000 0.000000
v 0.189000 0.020947 0.000000
v 0.211000 0.020947 0.000000
v 0.211135 0.040000 0.068602
v 0.200673 0.059053 0.065203
v 0.179750 0.059053 0.058404
v 0.169288 0.040000 0.055005
v 0.179750 0.020947 0.058404
v 0.200673 0.020947 0.065203
v 0.179602 0.040000 0.130488
v 0.170703 0.059053 0.124023
v 0.152904 0.059053 0.111091
v 0.144005 0.040000 0.104626
v 0.152904 0.020947 0.111091
v 0.170703 0.020947 0.124023
v 0.130488 0.040000 0.179602
v 0.124023 0.059053 0.170703
v 0.111091 0.059053 0.152904
v 0.104626 0.040000 0.144005
v 0.111091 0.020947 0.152904
v 0.124023 0.020947 0.170703
v 0.068602 0.040000 0.211135
v 0.065203 0.059053 0.200673
v 0.058404 0.059053 0.179750
v 0.055005 0.040000 0.169288
v 0.058404 0.020947 0.179750
v 0.065203 0.020947 0.200673
v 0.000000 0.040000 0.222000
v 0.000000 0.059053 0.211000
v 0.000000 0.059053 0.189000
v 0.000000 0.040000 0.178000
v 0.000000 0.020947 0.189000
v 0.000000 0.020947 0.211000
v -0.068602 0.040000 0.211135
v -0.065203 0.059053 0.200673
v -0.058404 0.059053 0.179750
v -0.055005 0.040000 0.169288
v -0.058404 0.020947 0.179750
v -0.065203 0.020947 0.200673
v -0.130488 0.040000 0.179602
v -0.124023 0.059053 0.170703
v -0.111091 0.059053 0.152904
v -0.104626 0.040000 0.144005
v -0.111091 0.020947 0.152904
v -0.124023 0.020947 0.170703
v -0.179602 0.040000 0.130488
v -0.170703 0.059053 0.124023
v -0.152904 0.059053 0.111091
v -0.144005 0.040000 0.104626
v -0.152904 0.020947 0.111091
v -0.170703 0.020947 0.124023
v -0.211135 0.040000 0.068602
v -0.200673 0.059053 0.065203
v -0.179750 0.059053 0.058404
v -0.169288 0.040000 0.055005
v -0.179750 0.020947 0.058404
v -0.200673 0.020947 0.065203
v -0.222000 0.040000 0.000000
v -0.211000 0.059053 0.000000
v -0.189000 0.059053 0.000000
v -0.178000 0.040000 0.000000
v -0.189000 0.020947 0.000000
v -0.211000 0.020947 0.000000
v -0.211135 0.040000 -0.068602
v -0.200673 0.059053 -0.065203
v -0.179750 0.059053 -0.058404
v -0.169288 0.040000 -0.055005
v -0.179750 0.020947 -0.058404
v -0.200673 0.020947 -0.065203
v -0.179602 0.040000 -0.130488
v -0.170703 0.059053 -0.124023
v -0.152904 0.059053 -0.111091
v -0.144005 0.040000 -0.104626
v -0.152904 0.020947 -0.111091
v -0.170703 0.020947 -0.124023
v -0.130488 0.040000 -0.179602
v -0.124023 0.059053 -0.170703
v -0.111091 0.059053 -0.152904
v -0.104626 0.040000 -0.144005
v -0.111091 0.020947 -0.152904
v -0.124023 0.020947 -0.170703
v -0.068602 0.040000 -0.211135
v -0.065203 0.059053 -0.200673
v -0.058404 0.059053 -0.179750
v -0.055005 0.040000 -0.169288
v -0.058404 0.020947 -0.179750
v -0.065203 0.020947 -0.200673
v -0.000000 0.040000 -0.222000
v -0.000000 0.059053 -0.211000
v -0.000000 0.059053 -0.189000
v -0.000000 0.040000 -0.178000
v -0.000000 0.020947 -0.189000
v -0.000000 0.020947 -0.211000
v 0.068602 0.040000 -0.211135
v 0.065203 0.059053 -0.200673
v 0.058404 0.059053 -0.179750
v 0.055005 0.040000 -0.169288
v 0.058404 0.020947 -0.179750
v 0.065203 0.020947 -0.200673
v 0.130488 0.040000 -0.179602
v 0.124023 0.059053 -0.170703
v 0.111091 0.059053 -0.152904
v 0.104626 0.040000 -0.144005
v 0.111091 0.020947 -0.152904
v 0.124023 0.020947 -0.170703
v 0.179602 0.040000 -0.130488
v 0.170703 0.059053 -0.124023
v 0.152904 0.059053 -0.111091
v 0.144005 0.040000 -0.104626
v 0.152904 0.020947 -0.111091
v 0.170703 0.020947 -0.124023
v 0.211135 0.040000 -0.068602
v 0.200673 0.059053 -0.065203
v 0.179750 0.059053 -0.058404
v 0.169288 0.040000 -0.055005
v 0.179750 0.020947 -0.058404
v 0.200673 0.020947 -0.065203
v 0.212000 0.075000 0.000000
v 0.201000 0.094053 0.000000
v 0.179000 0.094053 0.000000
v 0.168000 0.075000 0.000000
v 0.179000 0.055947 0.000000
v 0.201000 0.055947 0.000000
v 0.201624 0.075000 0.065512
v 0.191162 0.094053 0.062112
v 0.170239 0.094053 0.055314
v 0.159777 0.075000 0.051915
v 0.170239 0.055947 0.055314
v 0.191162 0.055947 0.062112
v 0.171512 0.075000 0.124610
v 0.162612 0.094053 0.118145
v 0.144814 0.094053 0.105214
v 0.135915 0.075000 0.098748
v 0.144814 0.055947 0.105214
v 0.162612 0.055947 0.118145
v 0.124610 0.075000 0.171512
v 0.118145 0.094053 0.162612
v 0.105214 0.094053 0.144814
v 0.098748 0.075000 0.135915
v 0.105214 0.055947 0.144814
v 0.118145 0.055947 0.162612
v 0.065512 0.075000 0.201624
v 0.062112 0.094053 0.191162
v 0.055314 0.094053 0.170239
v 0.051915 0.075000 0.159777
v 0.055314 0.055947 0.170239
v 0.062112 0.055947 0.191162
v 0.000000 0.075000 0.212000
v 0.000000 0.094053 0.201000
v 0.000000 0.094053 0.179000
v 0.000000 0.075000 0.168000
v 0.000000 0.055947 0.179000
v 0.000000 0.055947 0.201000
v -0.065512 0.075000 0.201624
v -0.062112 0.094053 0.191162
v -0.055314 0.094053 0.170239
v -0.051915 0.075000 0.159777
v -0.055314 0.055947 0.170239
v -0.062112 0.055947 0.191162
v -0.124610 0.075000 0.171512
v -0.118145 0.094053 0.162612
v -0.105214 0.094053 0.144814
v -0.098748 0.075000 0.135915
v -0.105214 0.055947 0.144814
v -0.118145 0.055947 0.162612
v -0.171512 0.075000 0.124610
v -0.162612 0.094053 0.118145
v -0.144814 0.094053 0.105214
v -0.135915 0.075000 0.098748
v -0.144814 0.055947 0.105214
v -0.162612 0.055947 0.118145
v -0.201624 0.075000 0.065512
v -0.191162 0.094053 0.062112
v -0.170239 0.094053 0.055314
v -0.159777 0.075000 0.051915
v -0.170239 0.055947 0.055314
v -0.191162 0.055947 0.062112
v -0.212000 0.075000 0.000000
v -0.201000 0.094053 0.000000
v -0.179000 0.094053 0.000000
v -0.168000 0.075000 0.000000
v -0.179000 0.055947 0.000000
v -0.201000 0.055947 0.000000
v -0.201624 0.075000 -0.065512
v -0.191162 0.094053 -0.062112
v -0.170239 0.094053 -0.055314
v -0.159777 0.075000 -0.051915
v -0.170239 0.055947 -0.055314
v -0.191162 0.055947 -0.062112
v -0.171512 0.075000 -0.124610
v -0.162612 0.094053 -0.118145
v -0.144814 0.094053 -0.105214
v -0.135915 0.075000 -0.098748
v -0.144814 0.055947 -0.105214
v -0.162612 0.055947 -0.118145
v -0.124610 0.075000 -0.171512
v -0.118145 0.094053 -0.162612
v -0.105214 0.094053 -0.144814
v -0.098748 0.075000 -0.135915
v -0.105214 0.055947 -0.144814
v -0.118145 0.055947 -0.162612
v -0.065512 0.075000 -0.201624
v -0.062112 0.094053 -0.191162
v -0.055314 0.094053 -0.170239
v -0.051915 0.075000 -0.159777
v -0.055314 0.055947 -0.170239
v -0.062112 0.055947 -0.191162
v -0.000000 0.075000 -0.212000
v -0.000000 0.094053 -0.201000
v -0.000000 0.094053 -0.179000
v -0.000000 0.075000 -0.168000
v -0.000000 0.055947 -0.179000
v -0.000000 0.055947 -0.201000
v 0.065512 0.075000 -0.201624
v 0.062112 0.094053 -0.191162
v 0.055314 0.094053 -0.170239
v 0.051915 0.075000 -0.159777
v 0.055314 0.055947 -0.170239
v 0.062112 0.055947 -0.191162
v 0.124610 0.075000 -0.171512
v 0.118145 0.094053 -0.162612
v 0.105214 0.094053 -0.144814
v 0.098748 0.075000 -0.135915
v 0.105214 0.055947 -0.144814
v 0.118145 0.055947 -0.162612
v 0.171512 0.075000 -0.124610
v 0.162612 0.094053 -0.118145
v 0.144814 0.094053 -0.105214
v 0.135915 0.075000 -0.098748
v 0.144814 0.055947 -0.105214
v 0.162612 0.055947 -0.118145
v 0.201624 0.075000 -0.065512
v 0.191162 0.094053 -0.062112
v 0.170239 0.094053 -0.055314
v 0.159777 0.075000 -0.051915
v 0.170239 0.055947 -0.055314
v 0.191162 0.055947 -0.062112
v 0.202000 0.110000 0.000000
v 0.191000 0.129053 0.000000
v 0.169000 0.129053 0.000000
v 0.158000 0.110000 0.000000
v 0.169000 0.090947 0.000000
v 0.191000 0.090947 0.000000
v 0.192113 0.110000 0.062421
v 0.181652 0.129053 0.059022
v 0.160729 0.129053 0.052224
v 0.150267 0.110000 0.048825
v 0.160729 0.090947 0.052224
v 0.181652 0.090947 0.059022
v 0.163421 0.110000 0.118733
v 0.154522 0.129053 0.112267
v 0.136724 0.129053 0.099336
v 0.127825 0.110000 0.092870
v 0.136724 0.090947 0.099336
v 0.154522 0.090947 0.112267
v 0.118733 0.110000 0.163421
v 0.112267 0.129053 0.154522
v 0.099336 0.129053 0.136724
v 0.092870 0.110000 0.127825
v 0.099336 0.090947 0.136724
v 0.112267 0.090947 0.154522
v 0.062421 0.110000 0.192113
v 0.059022 0.129053 0.181652
v 0.052224 0.129053 0.160729
v 0.048825 0.110000 0.150267
v 0.052224 0.090947 0.160729
v 0.059022 0.090947 0.181652
v 0.000000 0.110000 0.202000
v 0.000000 0.129053 0.191000
v 0.000000 0.129053 0.169000
v 0.000000 0.110000 0.158000
v 0.000000 0.090947 0.169000
v 0.000000 0.090947 0.191000
v -0.062421 0.110000 0.192113
v -0.059022 0.129053 0.181652
v -0.052224 0.129053 0.160729
v -0.048825 0.110000 0.150267
v -0.052224 0.090947 0.160729
v -0.059022 0.090947 0.181652
v -0.118733 0.110000 0.163421
v -0.112267 0.129053 0.154522
v -0.099336 0.129053 0.136724
v -0.092870 0.110000 0.127825
v -0.099336 0.090947 0.136724
v -0.112267 0.090947 0.154522
v -0.163421 0.110000 0.118733
v -0.154522 0.129053 0.112267
v -0.136724 0.129053 0.099336
v -0.127825 0.110000 0.092870
v -0.136724 0.090947 0.099336
v -0.154522 0.090947 0.112267
v -0.192113 0.110000 0.062421
v -0.181652 0.129053 0.059022
v -0.160729 0.129053 0.052224
v -0.150267 0.110000 0.048825
v -0.160729 0.090947 0.052224
v -0.181652 0.090947 0.059022
v -0.202000 0.110000 0.000000
v -0.191000 0.129053 0.000000
v -0.169000 0.129053 0.000000
v -0.158000 0.110000 0.000000
v -0.169000 0.090947 0.000000
v -0.191000 0.090947 0.000000
v -0.192113 0.110000 -0.062421
v -0.181652 0.129053 -0.059022
v -0.160729 0.129053 -0.052224
v -0.150267 0.110000 -0.048825
v -0.160729 0.090947 -0.052224
v -0.181652 0.090947 -0.059022
v -0.163421 0.110000 -0.118733
v -0.154522 0.129053 -0.112267
v -0.136724 0.129053 -0.099336
v -0.127825 0.110000 -0.092870
v -0.136724 0.090947 -0.099336
v -0.154522 0.090947 -0.112267
v -0.118733 0.110000 -0.163421
v -0.112267 0.129053 -0.154522
v -0.099336 0.129053 -0.136724
v -0.092870 0.110000 -0.127825
v -0.099336 0.090947 -0.136724
v -0.112267 0.090947 -0.154522
v -0.062421 0.110000 -0.192113
v -0.059022 0.129053 -0.181652
v -0.052224 0.129053 -0.160729
v -0.048825 0.110000 -0.150267
v -0.052224 0.090947 -0.160729
v -0.059022 0.090947 -0.181652
v -0.000000 0.110000 -0.202000
v -0.000000 0.129053 -0.191000
v -0.000000 0.129053 -0.169000
v -0.000000 0.110000 -0.158000
v -0.000000 0.090947 -0.169000
v -0.000000 0.090947 -0.191000
v 0.062421 0.110000 -0.192113
v 0.059022 0.129053 -0.181652
v 0.052224 0.129053 -0.160729
v 0.048825 0.110000 -0.150267
v 0.052224 0.090947 -0.160729
v 0.059022 0.090947 -0.181652
v 0.118733 0.110000 -0.163421
v 0.112267 0.129053 -0.154522
v 0.099336 0.129053 -0.136724
v 0.092870 0.110000 -0.127825
v 0.099336 0.090947 -0.136724
v 0.112267 0.090947 -0.154522
v 0.163421 0.110000 -0.118733
v 0.154522 0.129053 -0.112267
v 0.136724 0.129053 -0.099336
v 0.127825 0.110000 -0.092870
v 0.136724 0.090947 -0.099336
v 0.154522 0.090947 -0.112267
v 0.192113 0.110000 -0.062421
v 0.181652 0.129053 -0.059022
v 0.160729 0.129053 -0.052224
v 0.150267 0.110000 -0.048825
v 0.160729 0.090947 -0.052224
v 0.181652 0.090947 -0.059022
v 0.192000 0.145000 0.000000
v 0.181000 0.164053 0.000000
v 0.159000 0.164053 0.000000
v 0.148000 0.145000 0.000000
v 0.159000 0.125947 0.000000
v 0.181000 0.125947 0.000000
v 0.182603 0.145000 0.059331
v 0.172141 0.164053 0.055932
v 0.151218 0.164053 0.049134
v 0.140756 0.145000 0.045735
v 0.151218 0.125947 0.049134
v 0.172141 0.125947 0.055932
v 0.155331 0.145000 0.112855
v 0.146432 0.164053 0.106389
v 0.128634 0.164053 0.093458
v 0.119735 0.145000 0.086992
v 0.128634 0.125947 0.093458
v 0.146432 0.125947 0.106389
v 0.112855 0.145000 0.155331
v 0.106389 0.164053 0.146432
v 0.093458 0.164053 0.128634
v 0.086992 0.145000 0.119735
v 0.093458 0.125947 0.128634
v 0.106389 0.125947 0.146432
v 0.059331 0.145000 0.182603
v 0.055932 0.164053 0.172141
v 0.049134 0.164053 0.151218
v 0.045735 0.145000 0.140756
v 0.049134 0.125947 0.151218
v 0.055932 0.125947 0.172141
v 0.000000 0.145000 0.192000
v 0.000000 0.164053 0.181000
v 0.000000 0.164053 0.159000
v 0.000000 0.145000 0.148000
v 0.000000 0.125947 0.159000
v 0.000000 0.125947 0.181000
v -0.059331 0.145000 0.182603
v -0.055932 0.164053 0.172141
v -0.049134 0.164053 0.151218
v -0.045735 0.145000 0.140756
v -0.049134 0.125947 0.151218
v -0.055932 0.125947 0.172141
v -0.112855 0.145000 0.155331
v -0.106389 0.164053 0.146432
v -0.093458 0.164053 0.128634
v -0.086992 0.145000 0.119735
v -0.093458 0.125947 0.128634
v -0.106389 0.125947 0.146432
v -0.155331 0.145000 0.112855
v -0.146432 0.164053 0.106389
v -0.128634 0.164053 0.093458
v -0.119735 0.145000 0.086992
v -0.128634 0.125947 0.093458
v -0.146432 0.125947 0.106389
v -0.182603 0.145000 0.059331
v -0.172141 0.164053 0.055932
v -0.151218 0.164053 0.049134
v -0.140756 0.145000 0.045735
v -0.151218 0.125947 0.049134
v -0.172141 0.125947 0.055932
v -0.192000 0.145000 0.000000
v -0.181000 0.164053 0.000000
v -0.159000 0.164053 0.000000
v -0.148000 0.145000 0.000000
v -0.159000 0.125947 0.000000
v -0.181000 0.125947 0.000000
v -0.182603 0.145000 -0.059331
v -0.172141 0.164053 -0.055932
v -0.151218 0.164053 -0.049134
v -0.140756 0.145000 -0.045735
v -0.151218 0.125947 -0.049134
v -0.172141 0.125947 -0.055932
v -0.155331 0.145000 -0.112855
v -0.146432 0.164053 -0.106389
v -0.128634 0.164053 -0.093458
v -0.119735 0.145000 -0.086992
v -0.128634 0.125947 -0.093458
v -0.146432 0.125947 -0.106389
v -0.112855 0.145000 -0.155331
v -0.106389 0.164053 -0.146432
v -0.093458 0.164053 -0.128634
v -0.086992 0.145000 -0.119735
v -0.093458 0.125947 -0.128634
v -0.106389 0.125947 -0.146432
v -0.059331 0.145000 -0.182603
v -0.055932 0.164053 -0.172141
v -0.049134 0.164053 -0.151218
v -0.045735 0.145000 -0.140756
v -0.049134 0.125947 -0.151218
v -0.055932 0.125947 -0.172141
v -0.000000 0.145000 -0.192000
v -0.000000 0.164053 -0.181000
v -0.000000 0.164053 -0.159000
v -0.000000 0.145000 -0.148000
v -0.000000 0.125947 -0.159000
v -0.000000 0.125947 -0.181000
v 0.059331 0.145000 -0.182603
v 0.055932 0.164053 -0.172141
v 0.049134 0.164053 -0.151218
v 0.045735 0.145000 -0.140756
v 0.049134 0.125947 -0.151218
v 0.055932 0.125947 -0.172141
v 0.112855 0.145000 -0.155331
v 0.106389 0.164053 -0.146432
v 0.093458 0.164053 -0.128634
v 0.086992 0.145000 -0.119735
v 0.093458 0.125947 -0.128634
v 0.106389 0.125947 -0.146432
v 0.155331 0.145000 -0.112855
v 0.146432 0.164053 -0.106389
v 0.128634 0.164053 -0.093458
v 0.119735 0.145000 -0.086992
v 0.128634 0.125947 -0.093458
v 0.146432 0.125947 -0.106389
v 0.182603 0.145000 -0.059331
v 0.172141 0.164053 -0.055932
v 0.151218 0.164053 -0.049134
v 0.140756 0.145000 -0.045735
v 0.151218 0.125947 -0.049134
v 0.172141 0.125947 -0.055932
v 0.182000 0.180000 0.000000
v 0.171000 0.199053 0.000000
v 0.149000 0.199053 0.000000
v 0.138000 0.180000 0.000000
v 0.149000 0.160947 0.000000
v 0.171000 0.160947 0.000000
v 0.173092 0.180000 0.056241
v 0.162631 0.199053 0.052842
v 0.141707 0.199053 0.046044
v 0.131246 0.180000 0.042644
v 0.141707 0.160947 0.046044
v 0.162631 0.160947 0.052842
v 0.147241 0.180000 0.106977
v 0.138342 0.199053 0.100511
v 0.120544 0.199053 0.087580
v 0.111644 0.180000 0.081114
v 0.120544 0.160947 0.087580
v 0.138342 0.160947 0.100511
v 0.106977 0.180000 0.147241
v 0.100511 0.199053 0.138342
v 0.087580 0.199053 0.120544
v 0.081114 0.180000 0.111644
v 0.087580 0.160947 0.120544
v 0.100511 0.160947 0.138342
v 0.056241 0.180000 0.173092
v 0.052842 0.199053 0.162631
v 0.046044 0.199053 0.141707
v 0.042644 0.180000 0.131246
v 0.046044 0.160947 0.141707
v 0.052842 0.160947 0.162631
v 0.000000 0.180000 0.182000
v 0.000000 0.199053 0.171000
v 0.000000 0.199053 0.149000
v 0.000000 0.180000 0.138000
v 0.000000 0.160947 0.149000
v 0.000000 0.160947 0.171000
v -0.056241 0.180000 0.173092
v -0.052842 0.199053 0.162631
v -0.046044 0.199053 0.141707
v -0.042644 0.180000 0.131246
v -0.046044 0.160947 0.141707
v -0.052842 0.160947 0.162631
v -0.106977 0.180000 0.147241
v -0.100511 0.199053 0.138342
v -0.087580 0.199053 0.120544
v -0.081114 0.180000 0.111644
v -0.087580 0.160947 0.120544
v -0.100511 0.160947 0.138342
v -0.147241 0.180000 0.106977
v -0.138342 0.199053 0.100511
v -0.120544 0.199053 0.087580
v -0.111644 0.180000 0.081114
v -0.120544 0.160947 0.087580
v -0.138342 0.160947 0.100511
v -0.173092 0.180000 0.056241
v -0.162631 0.199053 0.052842
v -0.141707 0.199053 0.046044
v -0.131246 0.180000 0.042644
v -0.141707 0.160947 0.046044
v -0.162631 0.160947 0.052842
v -0.182000 0.180000 0.000000
v -0.171000 0.199053 0.000000
v -0.149000 0.199053 0.000000
v -0.138000 0.180000 0.000000
v -0.149000 0.160947 0.000000
v -0.171000 0.160947 0.000000
v -0.173092 0.180000 -0.056241
v -0.162631 0.199053 -0.052842
v -0.141707 0.199053 -0.046044
v -0.131246 0.180000 -0.042644
v -0.141707 0.160947 -0.046044
v -0.162631 0.160947 -0.052842
v -0.147241 0.180000 -0.106977
v -0.138342 0.199053 -0.100511
v -0.120544 0.199053 -0.087580
v -0.111644 0.180000 -0.081114
v -0.120544 0.160947 -0.087580
v -0.138342 0.160947 -0.100511
v -0.106977 0.180000 -0.147241
v -0.100511 0.199053 -0.138342
v -0.087580 0.199053 -0.120544
v -0.081114 0.180000 -0.111644
v -0.087580 0.160947 -0.120544
v -0.100511 0.160947 -0.138342
v -0.056241 0.180000 -0.173092
v -0.052842 0.199053 -0.162631
v -0.046044 0.199053 -0.141707
v -0.042644 0.180000 -0.131246
v -0.046044 0.160947 -0.141707
v -0.052842 0.160947 -0.162631
v -0.000000 0.180000 -0.182000
v -0.000000 0.199053 -0.171000
v -0.000000 0.199053 -0.149000
v -0.000000 0.180000 -0.138000
v -0.000000 0.160947 -0.149000
v -0.000000 0.160947 -0.171000
v 0.056241 0.180000 -0.173092
v 0.052842 0.199053 -0.162631
v 0.046044 0.199053 -0.141707
v 0.042644 0.180000 -0.131246
v 0.046044 0.160947 -0.141707
v 0.052842 0.160947 -0.162631
v 0.106977 0.180000 -0.147241
v 0.100511 0.199053 -0.138342
v 0.087580 0.199053 -0.120544
v 0.081114 0.180000 -0.111644
v 0.087580 0.160947 -0.120544
v 0.100511 0.160947 -0.138342
v 0.147241 0.180000 -0.106977
v 0.138342 0.199053 -0.100511
v 0.120544 0.199053 -0.087580
v 0.111644 0.180000 -0.081114
v 0.120544 0.160947 -0.087580
v 0.138342 0.160947 -0.100511
v 0.173092 0.180000 -0.056241
v 0.162631 0.199053 -0.052842
v 0.141707 0.199053 -0.046044
v 0.131246 0.180000 -0.042644
v 0.141707 0.160947 -0.046044
v 0.162631 0.160947 -0.052842
v 0.109961 0.163134 0.115126
v 0.098893 0.163134 0.081922
v 0.101107 0.196866 0.118078
v 0.090039 0.196866 0.084874
v 0.349961 0.233134 0.035126
v 0.338893 0.233134 0.001922
v 0.341107 0.266866 0.038078
v 0.330039 0.266866 0.004874
v -0.220000 0.137500 0.022500
v -0.220000 0.137500 -0.022500
v -0.220000 0.182500 0.022500
v -0.220000 0.182500 -0.022500
v 0.220000 0.137500 0.022500
v 0.220000 0.137500 -0.022500
v 0.220000 0.182500 0.022500
v 0.220000 0.182500 -0.022500
vt 0.000000 0.000000
vt 1.000000 0.000000
vt 1.000000 1.000000
vt 0.000000 1.000000
vt 0.000000 0.000000
vt 1.000000 0.000000
vt 1.000000 1.000000
vt 0.000000 1.000000
vt 0.000000 0.000000
vt 1.000000 0.000000
vt 1.000000 1.000000
vt 0.000000 1.000000
vt 0.000000 0.000000
vt 1.000000 0.000000
vt 1.000000 1.000000
vt 0.000000 1.000000
vt 0.000000 0.000000
vt 1.000000 0.000000
vt 1.000000 1.000000
vt 0.000000 1.000000
vt 0.000000 0.000000
vt 1.000000 0.000000
vt 1.000000 1.000000
vt 0.000000 1.000000
vt 0.000000 0.000000
vt 1.000000 0.000000
vt 1.000000 1.000000
vt 0.000000 1.000000
vt 0.000000 0.000000
vt 1.000000 0.000000
vt 1.000000 1.000000
vt 0.000000 1.000000
vt 0.000000 0.000000
vt 1.000000 0.000000
vt 1.000000 1.000000
vt 0.000000 1.000000
vt 0.000000 0.000000
vt 1.000000 0.000000
vt 1.000000 1.000000
vt 0.000000 1.000000
vt 0.000000 0.000000
vt 1.000000 0.000000
vt 1.000000 1.000000
vt 0.000000 1.000000
vt 0.000000 0.000000
vt 1.000000 0.000000
vt 1.000000 1.000000
vt 0.000000 1.000000
vt 0.000000 0.000000
vt 1.000000 0.000000
vt 1.000000 1.000000
vt 0.000000 1.000000
vt 0.000000 0.000000
vt 1.000000 0.000000
vt 1.000000 1.000000
vt 0.000000 1.000000
vt 0.000000 0.000000
vt 1.000000 0.000000
vt 1.000000 1.000000
vt 0.000000 1.000000
vt 0.000000 0.000000
vt 1.000000 0.000000
vt 1.000000 1.000000
vt 0.000000 1.000000
vt 0.000000 0.000000
vt 1.000000 0.000000
vt 1.000000 1.000000
vt 0.000000 1.000000
vt 0.000000 0.000000
vt 1.000000 0.000000
vt 1.000000 1.000000
vt 0.000000 1.000000
vt 0.000000 0.000000
vt 1.000000 0.000000
vt 1.000000 1.000000
vt 0.000000 1.000000
vt 0.000000 0.000000
vt 1.000000 0.000000
vt 1.000000 1.000000
vt 0.000000 1.000000
vt 0.000000 0.000000
vt 1.000000 0.000000
vt 1.000000 1.000000
vt 0.000000 1.000000
vt 0.000000 0.000000
vt 1.000000 0.000000
vt 1.000000 1.000000
vt 0.000000 1.000000
vt 0.000000 0.000000
vt 1.000000 0.000000
vt 1.000000 1.000000
vt 0.000000 1.000000
vt 0.000000 0.000000
vt 1.000000 0.000000
vt 1.000000 1.000000
vt 0.000000 1.000000
vt 0.000000 0.000000
vt 1.000000 0.000000
vt 1.000000 1.000000
vt 0.000000 1.000000
vt 0.000000 0.000000
vt 1.000000 0.000000
vt 1.000000 1.000000
vt 0.000000 1.000000
vt 0.000000 0.000000
vt 1.000000 0.000000
vt 1.000000 1.000000
vt 0.000000 1.000000
vt 0.000000 0.000000
vt 1.000000 0.000000
vt 1.000000 1.000000
vt 0.000000 1.000000
vt 0.000000 0.000000
vt 1.000000 0.000000
vt 1.000000 1.000000
vt 0.000000 1.000000
vt 0.000000 0.000000
vt 1.000000 0.000000
vt 1.000000 1.000000
vt 0.000000 1.000000
vt 0.000000 0.000000
vt 1.000000 0.000000
vt 1.000000 1.000000
vt 0.000000 1.000000
vt 0.000000 0.000000
vt 1.000000 0.000000
vt 1.000000 1.000000
vt 0.000000 1.000000
vt 0.000000 0.000000
vt 1.000000 0.000000
vt 1.000000 1.000000
vt 0.000000 1.000000
vt 0.000000 0.000000
vt 1.000000 0.000000
vt 1.000000 1.000000
vt 0.000000 1.000000
vt 0.000000 0.000000
vt 1.000000 0.000000
vt 1.000000 1.000000
vt 0.000000 1.000000
vt 0.000000 0.000000
vt 1.000000 0.000000
vt 1.000000 1.000000
vt 0.000000 1.000000
vt 0.000000 0.000000
vt 1.000000 0.000000
vt 1.000000 1.000000
vt 0.000000 1.000000
vt 0.000000 0.000000
vt 1.000000 0.000000
vt 1.000000 1.000000
vt 0.000000 1.000000
vt 0.000000 0.000000
vt 1.000000 0.000000
vt 1.000000 1.000000
vt 0.000000 1.000000
vt 0.000000 0.000000
vt 1.000000 0.000000
vt 1.000000 1.000000
vt 0.000000 1.000000
vt 0.000000 0.000000
vt 1.000000 0.000000
vt 1.000000 1.000000
vt 0.000000 1.000000
vt 0.000000 0.000000
vt 1.000000 0.000000
vt 1.000000 1.000000
vt 0.000000 1.000000
vt 0.000000 0.000000
vt 1.000000 0.000000
vt 1.000000 1.000000
vt 0.000000 1.000000
vt 0.000000 0.000000
vt 1.000000 0.000000
vt 1.000000 1.000000
vt 0.000000 1.000000
vt 0.000000 0.000000
vt 1.000000 0.000000
vt 1.000000 1.000000
vt 0.000000 1.000000
vt 0.000000 0.000000
vt 1.000000 0.000000
vt 1.000000 1.000000
vt 0.000000 1.000000
vt 0.000000 0.000000
vt 1.000000 0.000000
vt 1.000000 1.000000
vt 0.000000 1.000000
vt 0.000000 0.000000
vt 1.000000 0.000000
vt 1.000000 1.000000
vt 0.000000 1.000000
vt 0.000000 0.000000
vt 1.000000 0.000000
vt 1.000000 1.000000
vt 0.000000 1.000000
vt 0.000000 0.000000
vt 1.000000 0.000000
vt 1.000000 1.000000
vt 0.000000 1.000000
vt 0.000000 0.000000
vt 1.000000 0.000000
vt 1.000000 1.000000
vt 0.000000 1.000000
vt 0.000000 0.000000
vt 1.000000 0.000000
vt 1.000000 1.000000
vt 0.000000 1.000000
vt 0.000000 0.000000
vt 1.000000 0.000000
vt 1.000000 1.000000
vt 0.000000 1.000000
vt 0.000000 0.000000
vt 1.000000 0.000000
vt 1.000000 1.000000
vt 0.000000 1.000000
vt 0.000000 0.000000
vt 1.000000 0.000000
vt 1.000000 1.000000
vt 0.000000 1.000000
vt 0.000000 0.000000
vt 1.000000 0.000000
vt 1.000000 1.000000
vt 0.000000 1.000000
vt 0.000000 0.000000
vt 1.000000 0.000000
vt 1.000000 1.000000
vt 0.000000 1.000000
vt 0.000000 0.000000
vt 1.000000 0.000000
vt 1.000000 1.000000
vt 0.000000 1.000000
vt 0.000000 0.000000
vt 1.000000 0.000000
vt 1.000000 1.000000
vt 0.000000 1.000000
vt 0.000000 0.000000
vt 1.000000 0.000000
vt 1.000000 1.000000
vt 0.000000 1.000000
vt 0.000000 0.000000
vt 1.000000 0.000000
vt 1.000000 1.000000
vt 0.000000 1.000000
vt 0.000000 0.000000
vt 1.000000 0.000000
vt 1.000000 1.000000
vt 0.000000 1.000000
vt 0.000000 0.000000
vt 1.000000 0.000000
vt 1.000000 1.000000
vt 0.000000 1.000000
vt 0.000000 0.000000
vt 1.000000 0.000000
vt 1.000000 1.000000
vt 0.000000 1.000000
vt 0.000000 0.000000
vt 1.000000 0.000000
vt 1.000000 1.000000
vt 0.000000 1.000000
vt 0.000000 0.000000
vt 1.000000 0.000000
vt 1.000000 1.000000
vt 0.000000 1.000000
vt 0.000000 0.000000
vt 1.000000 0.000000
vt 1.000000 1.000000
vt 0.000000 1.000000
vt 0.000000 0.000000
vt 1.000000 0.000000
vt 1.000000 1.000000
vt 0.000000 1.000000
vt 0.000000 0.000000
vt 1.000000 0.000000
vt 1.000000 1.000000
vt 0.000000 1.000000
vt 0.000000 0.000000
vt 1.000000 0.000000
vt 1.000000 1.000000
vt 0.000000 1.000000
vt 0.000000 0.000000
vt 1.000000 0.000000
vt 1.000000 1.000000
vt 0.000000 1.000000
vt 0.000000 0.000000
vt 1.000000 0.000000
vt 1.000000 1.000000
vt 0.000000 1.000000
vt 0.000000 0.000000
vt 1.000000 0.000000
vt 1.000000 1.000000
vt 0.000000 1.000000
vt 0.000000 0.000000
vt 1.000000 0.000000
vt 1.000000 1.000000
vt 0.000000 1.000000
vt 0.000000 0.000000
vt 1.000000 0.000000
vt 1.000000 1.000000
vt 0.000000 1.000000
vt 0.000000 0.000000
vt 1.000000 0.000000
vt 1.000000 1.000000
vt 0.000000 1.000000
vt 0.000000 0.000000
vt 1.000000 0.000000
vt 1.000000 1.000000
vt 0.000000 1.000000
vt 0.000000 0.000000
vt 1.000000 0.000000
vt 1.000000 1.000000
vt 0.000000 1.000000
vt 0.000000 0.000000
vt 1.000000 0.000000
vt 1.000000 1.000000
vt 0.000000 1.000000
vt 0.000000 0.000000
vt 1.000000 0.000000
vt 1.000000 1.000000
vt 0.000000 1.000000
vt 0.000000 0.000000
vt 1.000000 0.000000
vt 1.000000 1.000000
vt 0.000000 1.000000
vt 0.000000 0.000000
vt 1.000000 0.000000
vt 1.000000 1.000000
vt 0.000000 1.000000
vt 0.000000 0.000000
vt 1.000000 0.000000
vt 1.000000 1.000000
vt 0.000000 1.000000
vt 0.000000 0.000000
vt 1.000000 0.000000
vt 1.000000 1.000000
vt 0.000000 1.000000
vt 0.000000 0.000000
vt 1.000000 0.000000
vt 1.000000 1.000000
vt 0.000000 1.000000
vt 0.000000 0.000000
vt 1.000000 0.000000
vt 1.000000 1.000000
vt 0.000000 1.000000
vt 0.000000 0.000000
vt 1.000000 0.000000
vt 1.000000 1.000000
vt 0.000000 1.000000
vt 0.000000 0.000000
vt 1.000000 0.000000
vt 1.000000 1.000000
vt 0.000000 1.000000
vt 0.000000 0.000000
vt 1.000000 0.000000
vt 1.000000 1.000000
vt 0.000000 1.000000
vt 0.000000 0.000000
vt 1.000000 0.000000
vt 1.000000 1.000000
vt 0.000000 1.000000
vt 0.000000 0.000000
vt 1.000000 0.000000
vt 1.000000 1.000000
vt 0.000000 1.000000
vt 0.000000 0.000000
vt 1.000000 0.000000
vt 1.000000 1.000000
vt 0.000000 1.000000
vt 0.000000 0.000000
vt 1.000000 0.000000
vt 1.000000 1.000000
vt 0.000000 1.000000
vt 0.000000 0.000000
vt 1.000000 0.000000
vt 1.000000 1.000000
vt 0.000000 1.000000
vt 0.000000 0.000000
vt 1.000000 0.000000
vt 1.000000 1.000000
vt 0.000000 1.000000
vt 0.000000 0.000000
vt 1.000000 0.000000
vt 1.000000 1.000000
vt 0.000000 1.000000
vt 0.000000 0.000000
vt 1.000000 0.000000
vt 1.000000 1.000000
vt 0.000000 1.000000
vt 0.000000 0.000000
vt 1.000000 0.000000
vt 1.000000 1.000000
vt 0.000000 1.000000
vt 0.000000 0.000000
vt 1.000000 0.000000
vt 1.000000 1.000000
vt 0.000000 1.000000
vt 0.000000 0.000000
vt 1.000000 0.000000
vt 1.000000 1.000000
vt 0.000000 1.000000
vt 0.000000 0.000000
vt 1.000000 0.000000
vt 1.000000 1.000000
vt 0.000000 1.000000
vt 0.000000 0.000000
vt 1.000000 0.000000
vt 1.000000 1.000000
vt 0.000000 1.000000
vt 0.000000 0.000000
vt 1.000000 0.000000
vt 1.000000 1.000000
vt 0.000000 1.000000
vt 0.000000 0.000000
vt 1.000000 0.000000
vt 1.000000 1.000000
vt 0.000000 1.000000
vt 0.000000 0.000000
vt 1.000000 0.000000
vt 1.000000 1.000000
vt 0.000000 1.000000
vt 0.000000 0.000000
vt 1.000000 0.000000
vt 1.000000 1.000000
vt 0.000000 1.000000
vt 0.000000 0.000000
vt 1.000000 0.000000
vt 1.000000 1.000000
vt 0.000000 1.000000
vt 0.000000 0.000000
vt 1.000000 0.000000
vt 1.000000 1.000000
vt 0.000000 1.000000
vt 0.000000 0.000000
vt 1.000000 0.000000
vt 1.000000 1.000000
vt 0.000000 1.000000
vt 0.000000 0.000000
vt 1.000000 0.000000
vt 1.000000 1.000000
vt 0.000000 1.000000
vt 0.000000 0.000000
vt 1.000000 0.000000
vt 1.000000 1.000000
vt 0.000000 1.000000
vt 0.000000 0.000000
vt 1.000000 0.000000
vt 1.000000 1.000000
vt 0.000000 1.000000
vt 0.000000 0.000000
vt 1.000000 0.000000
vt 1.000000 1.000000
vt 0.000000 1.000000
vt 0.000000 0.000000
vt 1.000000 0.000000
vt 1.000000 1.000000
vt 0.000000 1.000000
vt 0.000000 0.000000
vt 1.000000 0.000000
vt 1.000000 1.000000
vt 0.000000 1.000000
vt 0.000000 0.000000
vt 1.000000 0.000000
vt 1.000000 1.000000
vt 0.000000 1.000000
vt 0.000000 0.000000
vt 1.000000 0.000000
vt 1.000000 1.000000
vt 0.000000 1.000000
vt 0.000000 0.000000
vt 1.000000 0.000000
vt 1.000000 1.000000
vt 0.000000 1.000000
vt 0.000000 0.000000
vt 1.000000 0.000000
vt 1.000000 1.000000
vt 0.000000 1.000000
vt 0.000000 0.000000
vt 1.000000 0.000000
vt 1.000000 1.000000
vt 0.000000 1.000000
vt 0.000000 0.000000
vt 1.000000 0.000000
vt 1.000000 1.000000
vt 0.000000 1.000000
vt 0.000000 0.000000
vt 1.000000 0.000000
vt 1.000000 1.000000
vt 0.000000 1.000000
vt 0.000000 0.000000
vt 1.000000 0.000000
vt 1.000000 1.000000
vt 0.000000 1.000000
vt 0.000000 0.000000
vt 1.000000 0.000000
vt 1.000000 1.000000
vt 0.000000 1.000000
vt 0.000000 0.000000
vt 1.000000 0.000000
vt 1.000000 1.000000
vt 0.000000 1.000000
vt 0.000000 0.000000
vt 1.000000 0.000000
vt 1.000000 1.000000
vt 0.000000 1.000000
vt 0.000000 0.000000
vt 1.000000 0.000000
vt 1.000000 1.000000
vt 0.000000 1.000000
vt 0.000000 0.000000
vt 1.000000 0.000000
vt 1.000000 1.000000
vt 0.000000 1.000000
vt 0.000000 0.000000
vt 1.000000 0.000000
vt 1.000000 1.000000
vt 0.000000 1.000000
vt 0.000000 0.000000
vt 1.000000 0.000000
vt 1.000000 1.000000
vt 0.000000 1.000000
vt 0.000000 0.000000
vt 1.000000 0.000000
vt 1.000000 1.000000
vt 0.000000 1.000000
vt 0.000000 0.000000
vt 1.000000 0.000000
vt 1.000000 1.000000
vt 0.000000 1.000000
vt 0.000000 0.000000
vt 1.000000 0.000000
vt 1.000000 1.000000
vt 0.000000 1.000000
vt 0.000000 0.000000
vt 1.000000 0.000000
vt 1.000000 1.000000
vt 0.000000 1.000000
vt 0.000000 0.000000
vt 1.000000 0.000000
vt 1.000000 1.000000
vt 0.000000 1.000000
vt 0.000000 0.000000
vt 1.000000 0.000000
vt 1.000000 1.000000
vt 0.000000 1.000000
vt 0.000000 0.000000
vt 1.000000 0.000000
vt 1.000000 1.000000
vt 0.000000 1.000000
vt 0.000000 0.000000
vt 1.000000 0.000000
vt 1.000000 1.000000
vt 0.000000 1.000000
vt 0.000000 0.000000
vt 1.000000 0.000000
vt 1.000000 1.000000
vt 0.000000 1.000000
vt 0.000000 0.000000
vt 1.000000 0.000000
vt 1.000000 1.000000
vt 0.000000 1.000000
vt 0.000000 0.000000
vt 1.000000 0.000000
vt 1.000000 1.000000
vt 0.000000 1.000000
vt 0.000000 0.000000
vt 1.000000 0.000000
vt 1.000000 1.000000
vt 0.000000 1.000000
vt 0.000000 0.000000
vt 1.000000 0.000000
vt 1.000000 1.000000
vt 0.000000 1.000000
vt 0.000000 0.000000
vt 1.000000 0.000000
vt 1.000000 1.000000
vt 0.000000 1.000000
vt 0.000000 0.000000
vt 1.000000 0.000000
vt 1.000000 1.000000
vt 0.000000 1.000000
vt 0.000000 0.000000
vt 1.000000 0.000000
vt 1.000000 1.000000
vt 0.000000 1.000000
vt 0.000000 0.000000
vt 1.000000 0.000000
vt 1.000000 1.000000
vt 0.000000 1.000000
vt 0.000000 0.000000
vt 1.000000 0.000000
vt 1.000000 1.000000
vt 0.000000 1.000000
vt 0.000000 0.000000
vt 1.000000 0.000000
vt 1.000000 1.000000
vt 0.000000 1.000000
vt 0.000000 0.000000
vt 1.000000 0.000000
vt 1.000000 1.000000
vt 0.000000 1.000000
vt 0.000000 0.000000
vt 1.000000 0.000000
vt 1.000000 1.000000
vt 0.000000 1.000000
vt 0.000000 0.000000
vt 1.000000 0.000000
vt 1.000000 1.000000
vt 0.000000 1.000000
vt 0.000000 0.000000
vt 1.000000 0.000000
vt 1.000000 1.000000
vt 0.000000 1.000000
vt 0.000000 0.000000
vt 1.000000 0.000000
vt 1.000000 1.000000
vt 0.000000 1.000000
vt 0.000000 0.000000
vt 1.000000 0.000000
vt 1.000000 1.000000
vt 0.000000 1.000000
vt 0.000000 0.000000
vt 1.000000 0.000000
vt 1.000000 1.000000
vt 0.000000 1.000000
vt 0.000000 0.000000
vt 1.000000 0.000000
vt 1.000000 1.000000
vt 0.000000 1.000000
vt 0.000000 0.000000
vt 1.000000 0.000000
vt 1.000000 1.000000
vt 0.000000 1.000000
vt 0.000000 0.000000
vt 1.000000 0.000000
vt 1.000000 1.000000
vt 0.000000 1.000000
vt 0.000000 0.000000
vt 1.000000 0.000000
vt 1.000000 1.000000
vt 0.000000 1.000000
vt 0.000000 0.000000
vt 1.000000 0.000000
vt 1.000000 1.000000
vt 0.000000 1.000000
vt 0.000000 0.000000
vt 1.000000 0.000000
vt 1.000000 1.000000
vt 0.000000 1.000000
vt 0.000000 0.000000
vt 1.000000 0.000000
vt 1.000000 1.000000
vt 0.000000 1.000000
vt 0.000000 0.000000
vt 1.000000 0.000000
vt 1.000000 1.000000
vt 0.000000 1.000000
vt 0.000000 0.000000
vt 1.000000 0.000000
vt 1.000000 1.000000
vt 0.000000 1.000000
vt 0.000000 0.000000
vt 1.000000 0.000000
vt 1.000000 1.000000
vt 0.000000 1.000000
vt 0.000000 0.000000
vt 1.000000 0.000000
vt 1.000000 1.000000
vt 0.000000 1.000000
vt 0.000000 0.000000
vt 1.000000 0.000000
vt 1.000000 1.000000
vt 0.000000 1.000000
vt 0.000000 0.000000
vt 1.000000 0.000000
vt 1.000000 1.000000
vt 0.000000 1.000000
vt 0.000000 0.000000
vt 1.000000 0.000000
vt 1.000000 1.000000
vt 0.000000 1.000000
vt 0.000000 0.000000
vt 1.000000 0.000000
vt 1.000000 1.000000
vt 0.000000 1.000000
vt 0.000000 0.000000
vt 1.000000 0.000000
vt 1.000000 1.000000
vt 0.000000 1.000000
vt 0.000000 0.000000
vt 1.000000 0.000000
vt 1.000000 1.000000
vt 0.000000 1.000000
vt 0.000000 0.000000
vt 1.000000 0.000000
vt 1.000000 1.000000
vt 0.000000 1.000000
vt 0.000000 0.000000
vt 1.000000 0.000000
vt 1.000000 1.000000
vt 0.000000 1.000000
vt 0.000000 0.000000
vt 1.000000 0.000000
vt 1.000000 1.000000
vt 0.000000 1.000000
vt 0.000000 0.000000
vt 1.000000 0.000000
vt 1.000000 1.000000
vt 0.000000 1.000000
vt 0.000000 0.000000
vt 1.000000 0.000000
vt 1.000000 1.000000
vt 0.000000 1.000000
vt 0.000000 0.000000
vt 1.000000 0.000000
vt 1.000000 1.000000
vt 0.000000 1.000000
vt 0.000000 0.000000
vt 1.000000 0.000000
vt 1.000000 1.000000
vt 0.000000 1.000000
vt 0.000000 0.000000
vt 1.000000 0.000000
vt 1.000000 1.000000
vt 0.000000 1.000000
vt 0.000000 0.000000
vt 1.000000 0.000000
vt 1.000000 1.000000
vt 0.000000 1.000000
vt 0.000000 0.000000
vt 1.000000 0.000000
vt 1.000000 1.000000
vt 0.000000 1.000000
vt 0.000000 0.000000
vt 1.000000 0.000000
vt 1.000000 1.000000
vt 0.000000 1.000000
vt 0.000000 0.000000
vt 1.000000 0.000000
vt 1.000000 1.000000
vt 0.000000 1.000000
vt 0.000000 0.000000
vt 1.000000 0.000000
vt 1.000000 1.000000
vt 0.000000 1.000000
vt 0.000000 0.000000
vt 1.000000 0.000000
vt 1.000000 1.000000
vt 0.000000 1.000000
vt 0.000000 0.000000
vt 1.000000 0.000000
vt 1.000000 1.000000
vt 0.000000 1.000000
vt 0.000000 0.000000
vt 1.000000 0.000000
vt 1.000000 1.000000
vt 0.000000 1.000000
vt 0.000000 0.000000
vt 1.000000 0.000000
vt 1.000000 1.000000
vt 0.000000 1.000000
vt 0.000000 0.000000
vt 1.000000 0.000000
vt 1.000000 1.000000
vt 0.000000 1.000000
vt 0.000000 0.000000
vt 1.000000 0.000000
vt 1.000000 1.000000
vt 0.000000 1.000000
vt 0.000000 0.000000
vt 1.000000 0.000000
vt 1.000000 1.000000
vt 0.000000 1.000000
vt 0.000000 0.000000
vt 1.000000 0.000000
vt 1.000000 1.000000
vt 0.000000 1.000000
vt 0.000000 0.000000
vt 1.000000 0.000000
vt 1.000000 1.000000
vt 0.000000 1.000000
vt 0.000000 0.000000
vt 1.000000 0.000000
vt 1.000000 1.000000
vt 0.000000 1.000000
vt 0.000000 0.000000
vt 1.000000 0.000000
vt 1.000000 1.000000
vt 0.000000 1.000000
vt 0.000000 0.000000
vt 1.000000 0.000000
vt 1.000000 1.000000
vt 0.000000 1.000000
vt 0.000000 0.000000
vt 1.000000 0.000000
vt 1.000000 1.000000
vt 0.000000 1.000000
vt 0.000000 0.000000
vt 1.000000 0.000000
vt 1.000000 1.000000
vt 0.000000 1.000000
vt 0.000000 0.000000
vt 1.000000 0.000000
vt 1.000000 1.000000
vt 0.000000 1.000000
vt 0.000000 0.000000
vt 1.000000 0.000000
vt 1.000000 1.000000
vt 0.000000 1.000000
vt 0.000000 0.000000
vt 1.000000 0.000000
vt 1.000000 1.000000
vt 0.000000 1.000000
vt 0.000000 0.000000
vt 1.000000 0.000000
vt 1.000000 1.000000
vt 0.000000 1.000000
vt 0.000000 0.000000
vt 1.000000 0.000000
vt 1.000000 1.000000
vt 0.000000 1.000000
vt 0.000000 0.000000
vt 1.000000 0.000000
vt 1.000000 1.000000
vt 0.000000 1.000000
vt 0.000000 0.000000
vt 1.000000 0.000000
vt 1.000000 1.000000
vt 0.000000 1.000000
vt 0.000000 0.000000
vt 1.000000 0.000000
vt 1.000000 1.000000
vt 0.000000 1.000000
vt 0.000000 0.000000
vt 1.000000 0.000000
vt 1.000000 1.000000
vt 0.000000 1.000000
vt 0.000000 0.000000
vt 1.000000 0.000000
vt 1.000000 1.000000
vt 0.000000 1.000000
vt 0.000000 0.000000
vt 1.000000 0.000000
vt 1.000000 1.000000
vt 0.000000 1.000000
vt 0.000000 0.000000
vt 1.000000 0.000000
vt 1.000000 1.000000
vt 0.000000 1.000000
vt 0.000000 0.000000
vt 1.000000 0.000000
vt 1.000000 1.000000
vt 0.000000 1.000000
vt 0.000000 0.000000
vt 1.000000 0.000000
vt 1.000000 1.000000
vt 0.000000 1.000000
vt 0.000000 0.000000
vt 1.000000 0.000000
vt 1.000000 1.000000
vt 0.000000 1.000000
vt 0.000000 0.000000
vt 1.000000 0.000000
vt 1.000000 1.000000
vt 0.000000 1.000000
vt 0.000000 0.000000
vt 1.000000 0.000000
vt 1.000000 1.000000
vt 0.000000 1.000000
vt 0.000000 0.000000
vt 1.000000 0.000000
vt 1.000000 1.000000
vt 0.000000 1.000000
vt 0.000000 0.000000
vt 1.000000 0.000000
vt 1.000000 1.000000
vt 0.000000 1.000000
vt 0.000000 0.000000
vt 1.000000 0.000000
vt 1.000000 1.000000
vt 0.000000 1.000000
vt 0.000000 0.000000
vt 1.000000 0.000000
vt 1.000000 1.000000
vt 0.000000 1.000000
vt 0.000000 0.000000
vt 1.000000 0.000000
vt 1.000000 1.000000
vt 0.000000 1.000000
vt 0.000000 0.000000
vt 1.000000 0.000000
vt 1.000000 1.000000
vt 0.000000 1.000000
vt 0.000000 0.000000
vt 1.000000 0.000000
vt 1.000000 1.000000
vt 0.000000 1.000000
vt 0.000000 0.000000
vt 1.000000 0.000000
vt 1.000000 1.000000
vt 0.000000 1.000000
vt 0.000000 0.000000
vt 1.000000 0.000000
vt 1.000000 1.000000
vt 0.000000 1.000000
vt 0.000000 0.000000
vt 1.000000 0.000000
vt 1.000000 1.000000
vt 0.000000 1.000000
vt 0.000000 0.000000
vt 1.000000 0.000000
vt 1.000000 1.000000
vt 0.000000 1.000000
vt 0.000000 0.000000
vt 1.000000 0.000000
vt 1.000000 1.000000
vt 0.000000 1.000000
vt 0.000000 0.000000
vt 1.000000 0.000000
vt 1.000000 1.000000
vt 0.000000 1.000000
vt 0.000000 0.000000
vt 1.000000 0.000000
vt 1.000000 1.000000
vt 0.000000 1.000000
vt 0.000000 0.000000
vt 1.000000 0.000000
vt 1.000000 1.000000
vt 0.000000 1.000000
vt 0.000000 0.000000
vt 1.000000 0.000000
vt 1.000000 1.000000
vt 0.000000 1.000000
vt 0.000000 0.000000
vt 1.000000 0.000000
vt 1.000000 1.000000
vt 0.000000 1.000000
vt 0.000000 0.000000
vt 1.000000 0.000000
vt 1.000000 1.000000
vt 0.000000 1.000000
vt 0.000000 0.000000
vt 1.000000 0.000000
vt 1.000000 1.000000
vt 0.000000 1.000000
vt 0.000000 0.000000
vt 1.000000 0.000000
vt 1.000000 1.000000
vt 0.000000 1.000000
vt 0.000000 0.000000
vt 1.000000 0.000000
vt 1.000000 1.000000
vt 0.000000 1.000000
vt 0.000000 0.000000
vt 1.000000 0.000000
vt 1.000000 1.000000
vt 0.000000 1.000000
vt 0.000000 0.000000
vt 1.000000 0.000000
vt 1.000000 1.000000
vt 0.000000 1.000000
vt 0.000000 0.000000
vt 1.000000 0.000000
vt 1.000000 1.000000
vt 0.000000 1.000000
vt 0.000000 0.000000
vt 1.000000 0.000000
vt 1.000000 1.000000
vt 0.000000 1.000000
vt 0.000000 0.000000
vt 1.000000 0.000000
vt 1.000000 1.000000
vt 0.000000 1.000000
vt 0.000000 0.000000
vt 1.000000 0.000000
vt 1.000000 1.000000
vt 0.000000 1.000000
vt 0.000000 0.000000
vt 1.000000 0.000000
vt 1.000000 1.000000
vt 0.000000 1.000000
vt 0.000000 0.000000
vt 1.000000 0.000000
vt 1.000000 1.000000
vt 0.000000 1.000000
vt 0.000000 0.000000
vt 1.000000 0.000000
vt 1.000000 1.000000
vt 0.000000 1.000000
vt 0.000000 0.000000
vt 1.000000 0.000000
vt 1.000000 1.000000
vt 0.000000 1.000000
vt 0.000000 0.000000
vt 1.000000 0.000000
vt 1.000000 1.000000
vt 0.000000 1.000000
vt 0.000000 0.000000
vt 1.000000 0.000000
vt 1.000000 1.000000
vt 0.000000 1.000000
vt 0.000000 0.000000
vt 1.000000 0.000000
vt 1.000000 1.000000
vt 0.000000 1.000000
vt 0.000000 0.000000
vt 1.000000 0.000000
vt 1.000000 1.000000
vt 0.000000 1.000000
vt 0.000000 0.000000
vt 1.000000 0.000000
vt 1.000000 1.000000
vt 0.000000 1.000000
vt 0.000000 0.000000
vt 1.000000 0.000000
vt 1.000000 1.000000
vt 0.000000 1.000000
vt 0.000000 0.000000
vt 1.000000 0.000000
vt 1.000000 1.000000
vt 0.000000 1.000000
vt 0.000000 0.000000
vt 1.000000 0.000000
vt 1.000000 1.000000
vt 0.000000 1.000000
vt 0.000000 0.000000
vt 1.000000 0.000000
vt 1.000000 1.000000
vt 0.000000 1.000000
vt 0.000000 0.000000
vt 1.000000 0.000000
vt 1.000000 1.000000
vt 0.000000 1.000000
vt 0.000000 0.000000
vt 1.000000 0.000000
vt 1.000000 1.000000
vt 0.000000 1.000000
vt 0.000000 0.000000
vt 1.000000 0.000000
vt 1.000000 1.000000
vt 0.000000 1.000000
vt 0.000000 0.000000
vt 1.000000 0.000000
vt 1.000000 1.000000
vt 0.000000 1.000000
vt 0.000000 0.000000
vt 1.000000 0.000000
vt 1.000000 1.000000
vt 0.000000 1.000000
vt 0.000000 0.000000
vt 1.000000 0.000000
vt 1.000000 1.000000
vt 0.000000 1.000000
vt 0.000000 0.000000
vt 1.000000 0.000000
vt 1.000000 1.000000
vt 0.000000 1.000000
vt 0.000000 0.000000
vt 1.000000 0.000000
vt 1.000000 1.000000
vt 0.000000 1.000000
vt 0.000000 0.000000
vt 1.000000 0.000000
vt 1.000000 1.000000
vt 0.000000 1.000000
vt 0.000000 0.000000
vt 1.000000 0.000000
vt 1.000000 1.000000
vt 0.000000 1.000000
vt 0.000000 0.000000
vt 1.000000 0.000000
vt 1.000000 1.000000
vt 0.000000 1.000000
vt 0.000000 0.000000
vt 1.000000 0.000000
vt 1.000000 1.000000
vt 0.000000 1.000000
vt 0.000000 0.000000
vt 1.000000 0.000000
vt 1.000000 1.000000
vt 0.000000 1.000000
vt 0.000000 0.000000
vt 1.000000 0.000000
vt 1.000000 1.000000
vt 0.000000 1.000000
vt 0.000000 0.000000
vt 1.000000 0.000000
vt 1.000000 1.000000
vt 0.000000 1.000000
vt 0.000000 0.000000
vt 1.000000 0.000000
vt 1.000000 1.000000
vt 0.000000 1.000000
vt 0.000000 0.000000
vt 1.000000 0.000000
vt 1.000000 1.000000
vt 0.000000 1.000000
vt 0.000000 0.000000
vt 1.000000 0.000000
vt 1.000000 1.000000
vt 0.000000 1.000000
vt 0.000000 0.000000
vt 1.000000 0.000000
vt 1.000000 1.000000
vt 0.000000 1.000000
vt 0.000000 0.000000
vt 1.000000 0.000000
vt 1.000000 1.000000
vt 0.000000 1.000000
vt 0.000000 0.000000
vt 1.000000 0.000000
vt 1.000000 1.000000
vt 0.000000 1.000000
vt 0.000000 0.000000
vt 1.000000 0.000000
vt 1.000000 1.000000
vt 0.000000 1.000000
vt 0.000000 0.000000
vt 1.000000 0.000000
vt 1.000000 1.000000
vt 0.000000 1.000000
vt 0.000000 0.000000
vt 1.000000 0.000000
vt 1.000000 1.000000
vt 0.000000 1.000000
vt 0.000000 0.000000
vt 1.000000 0.000000
vt 1.000000 1.000000
vt 0.000000 1.000000
vt 0.000000 0.000000
vt 1.000000 0.000000
vt 1.000000 1.000000
vt 0.000000 1.000000
vt 0.000000 0.000000
vt 1.000000 0.000000
vt 1.000000 1.000000
vt 0.000000 1.000000
vt 0.000000 0.000000
vt 1.000000 0.000000
vt 1.000000 1.000000
vt 0.000000 1.000000
vt 0.000000 0.000000
vt 1.000000 0.000000
vt 1.000000 1.000000
vt 0.000000 1.000000
vt 0.000000 0.000000
vt 1.000000 0.000000
vt 1.000000 1.000000
vt 0.000000 1.000000
vt 0.000000 0.000000
vt 1.000000 0.000000
vt 1.000000 1.000000
vt 0.000000 1.000000
vt 0.000000 0.000000
vt 1.000000 0.000000
vt 1.000000 1.000000
vt 0.000000 1.000000
vt 0.000000 0.000000
vt 1.000000 0.000000
vt 1.000000 1.000000
vt 0.000000 1.000000
vt 0.000000 0.000000
vt 1.000000 0.000000
vt 1.000000 1.000000
vt 0.000000 1.000000
vt 0.000000 0.000000
vt 1.000000 0.000000
vt 1.000000 1.000000
vt 0.000000 1.000000
vt 0.000000 0.000000
vt 1.000000 0.000000
vt 1.000000 1.000000
vt 0.000000 1.000000
vt 0.000000 0.000000
vt 1.000000 0.000000
vt 1.000000 1.000000
vt 0.000000 1.000000
vt 0.000000 0.000000
vt 1.000000 0.000000
vt 1.000000 1.000000
vt 0.000000 1.000000
vt 0.000000 0.000000
vt 1.000000 0.000000
vt 1.000000 1.000000
vt 0.000000 1.000000
vt 0.000000 0.000000
vt 1.000000 0.000000
vt 1.000000 1.000000
vt 0.000000 1.000000
vt 0.000000 0.000000
vt 1.000000 0.000000
vt 1.000000 1.000000
vt 0.000000 1.000000
vt 0.000000 0.000000
vt 1.000000 0.000000
vt 1.000000 1.000000
vt 0.000000 1.000000
vt 0.000000 0.000000
vt 1.000000 0.000000
vt 1.000000 1.000000
vt 0.000000 1.000000
vt 0.000000 0.000000
vt 1.000000 0.000000
vt 1.000000 1.000000
vt 0.000000 1.000000
vt 0.000000 0.000000
vt 1.000000 0.000000
vt 1.000000 1.000000
vt 0.000000 1.000000
vt 0.000000 0.000000
vt 1.000000 0.000000
vt 1.000000 1.000000
vt 0.000000 1.000000
vt 0.000000 0.000000
vt 1.000000 0.000000
vt 1.000000 1.000000
vt 0.000000 1.000000
vt 0.000000 0.000000
vt 1.000000 0.000000
vt 1.000000 1.000000
vt 0.000000 1.000000
vt 0.000000 0.000000
vt 1.000000 0.000000
vt 1.000000 1.000000
vt 0.000000 1.000000
vt 0.000000 0.000000
vt 1.000000 0.000000
vt 1.000000 1.000000
vt 0.000000 1.000000
vt 0.000000 0.000000
vt 1.000000 0.000000
vt 1.000000 1.000000
vt 0.000000 1.000000
vt 0.000000 0.000000
vt 1.000000 0.000000
vt 1.000000 1.000000
vt 0.000000 1.000000
vt 0.000000 0.000000
vt 1.000000 0.000000
vt 1.000000 1.000000
vt 0.000000 1.000000
vt 0.000000 0.000000
vt 1.000000 0.000000
vt 1.000000 1.000000
vt 0.000000 1.000000
vt 0.000000 0.000000
vt 1.000000 0.000000
vt 1.000000 1.000000
vt 0.000000 1.000000
vt 0.000000 0.000000
vt 1.000000 0.000000
vt 1.000000 1.000000
vt 0.000000 1.000000
vt 0.000000 0.000000
vt 1.000000 0.000000
vt 1.000000 1.000000
vt 0.000000 1.000000
vt 0.000000 0.000000
vt 1.000000 0.000000
vt 1.000000 1.000000
vt 0.000000 1.000000
vt 0.000000 0.000000
vt 1.000000 0.000000
vt 1.000000 1.000000
vt 0.000000 1.000000
vt 0.000000 0.000000
vt 1.000000 0.000000
vt 1.000000 1.000000
vt 0.000000 1.000000
vt 0.000000 0.000000
vt 1.000000 0.000000
vt 1.000000 1.000000
vt 0.000000 1.000000
vt 0.000000 0.000000
vt 1.000000 0.000000
vt 1.000000 1.000000
vt 0.000000 1.000000
vt 0.000000 0.000000
vt 1.000000 0.000000
vt 1.000000 1.000000
vt 0.000000 1.000000
vt 0.000000 0.000000
vt 1.000000 0.000000
vt 1.000000 1.000000
vt 0.000000 1.000000
vt 0.000000 0.000000
vt 1.000000 0.000000
vt 1.000000 1.000000
vt 0.000000 1.000000
vt 0.000000 0.000000
vt 1.000000 0.000000
vt 1.000000 1.000000
vt 0.000000 1.000000
vt 0.000000 0.000000
vt 1.000000 0.000000
vt 1.000000 1.000000
vt 0.000000 1.000000
vt 0.000000 0.000000
vt 1.000000 0.000000
vt 1.000000 1.000000
vt 0.000000 1.000000
vt 0.000000 0.000000
vt 1.000000 0.000000
vt 1.000000 1.000000
vt 0.000000 1.000000
vt 0.000000 0.000000
vt 1.000000 0.000000
vt 1.000000 1.000000
vt 0.000000 1.000000
vt 0.000000 0.000000
vt 1.000000 0.000000
vt 1.000000 1.000000
vt 0.000000 1.000000
vt 0.000000 0.000000
vt 1.000000 0.000000
vt 1.000000 1.000000
vt 0.000000 1.000000
vt 0.000000 0.000000
vt 1.000000 0.000000
vt 1.000000 1.000000
vt 0.000000 1.000000
vt 0.000000 0.000000
vt 1.000000 0.000000
vt 1.000000 1.000000
vt 0.000000 1.000000
vt 0.000000 0.000000
vt 1.000000 0.000000
vt 1.000000 1.000000
vt 0.000000 1.000000
vt 0.000000 0.000000
vt 1.000000 0.000000
vt 1.000000 1.000000
vt 0.000000 1.000000
vt 0.000000 0.000000
vt 1.000000 0.000000
vt 1.000000 1.000000
vt 0.000000 1.000000
vt 0.000000 0.000000
vt 1.000000 0.000000
vt 1.000000 1.000000
vt 0.000000 1.000000
vt 0.000000 0.000000
vt 1.000000 0.000000
vt 1.000000 1.000000
vt 0.000000 1.000000
vt 0.000000 0.000000
vt 1.000000 0.000000
vt 1.000000 1.000000
vt 0.000000 1.000000
vt 0.000000 0.000000
vt 1.000000 0.000000
vt 1.000000 1.000000
vt 0.000000 1.000000
vt 0.000000 0.000000
vt 1.000000 0.000000
vt 1.000000 1.000000
vt 0.000000 1.000000
vt 0.000000 0.000000
vt 1.000000 0.000000
vt 1.000000 1.000000
vt 0.000000 1.000000
vt 0.000000 0.000000
vt 1.000000 0.000000
vt 1.000000 1.000000
vt 0.000000 1.000000
vt 0.000000 0.000000
vt 1.000000 0.000000
vt 1.000000 1.000000
vt 0.000000 1.000000
vt 0.000000 0.000000
vt 1.000000 0.000000
vt 1.000000 1.000000
vt 0.000000 1.000000
vt 0.000000 0.000000
vt 1.000000 0.000000
vt 1.000000 1.000000
vt 0.000000 1.000000
vt 0.000000 0.000000
vt 1.000000 0.000000
vt 1.000000 1.000000
vt 0.000000 1.000000
vt 0.000000 0.000000
vt 1.000000 0.000000
vt 1.000000 1.000000
vt 0.000000 1.000000
vt 0.000000 0.000000
vt 1.000000 0.000000
vt 1.000000 1.000000
vt 0.000000 1.000000
vt 0.000000 0.000000
vt 1.000000 0.000000
vt 1.000000 1.000000
vt 0.000000 1.000000
vt 0.000000 0.000000
vt 1.000000 0.000000
vt 1.000000 1.000000
vt 0.000000 1.000000
vt 0.000000 0.000000
vt 1.000000 0.000000
vt 1.000000 1.000000
vt 0.000000 1.000000
vt 0.000000 0.000000
vt 1.000000 0.000000
vt 1.000000 1.000000
vt 0.000000 1.000000
vt 0.000000 0.000000
vt 1.000000 0.000000
vt 1.000000 1.000000
vt 0.000000 1.000000
vt 0.000000 0.000000
vt 1.000000 0.000000
vt 1.000000 1.000000
vt 0.000000 1.000000
vt 0.000000 0.000000
vt 1.000000 0.000000
vt 1.000000 1.000000
vt 0.000000 1.000000
vt 0.000000 0.000000
vt 1.000000 0.000000
vt 1.000000 1.000000
vt 0.000000 1.000000
vt 0.000000 0.000000
vt 1.000000 0.000000
vt 1.000000 1.000000
vt 0.000000 1.000000
vt 0.000000 0.000000
vt 1.000000 0.000000
vt 1.000000 1.000000
vt 0.000000 1.000000
vt 0.000000 0.000000
vt 1.000000 0.000000
vt 1.000000 1.000000
vt 0.000000 1.000000
vt 0.000000 0.000000
vt 1.000000 0.000000
vt 1.000000 1.000000
vt 0.000000 1.000000
vt 0.000000 0.000000
vt 1.000000 0.000000
vt 1.000000 1.000000
vt 0.000000 1.000000
vt 0.000000 0.000000
vt 1.000000 0.000000
vt 1.000000 1.000000
vt 0.000000 1.000000
vt 0.000000 0.000000
vt 1.000000 0.000000
vt 1.000000 1.000000
vt 0.000000 1.000000
vt 0.000000 0.000000
vt 1.000000 0.000000
vt 1.000000 1.000000
vt 0.000000 1.000000
vt 0.000000 0.000000
vt 1.000000 0.000000
vt 1.000000 1.000000
vt 0.000000 1.000000
vt 0.000000 0.000000
vt 1.000000 0.000000
vt 1.000000 1.000000
vt 0.000000 1.000000
vt 0.000000 0.000000
vt 1.000000 0.000000
vt 1.000000 1.000000
vt 0.000000 1.000000
vt 0.000000 0.000000
vt 1.000000 0.000000
vt 1.000000 1.000000
vt 0.000000 1.000000
vt 0.000000 0.000000
vt 1.000000 0.000000
vt 1.000000 1.000000
vt 0.000000 1.000000
vt 0.000000 0.000000
vt 1.000000 0.000000
vt 1.000000 1.000000
vt 0.000000 1.000000
vt 0.000000 0.000000
vt 1.000000 0.000000
vt 1.000000 1.000000
vt 0.000000 1.000000
vt 0.000000 0.000000
vt 1.000000 0.000000
vt 1.000000 1.000000
vt 0.000000 1.000000
vt 0.000000 0.000000
vt 1.000000 0.000000
vt 1.000000 1.000000
vt 0.000000 1.000000
vt 0.000000 0.000000
vt 1.000000 0.000000
vt 1.000000 1.000000
vt 0.000000 1.000000
vt 0.000000 0.000000
vt 1.000000 0.000000
vt 1.000000 1.000000
vt 0.000000 1.000000
vt 0.000000 0.000000
vt 1.000000 0.000000
vt 1.000000 1.000000
vt 0.000000 1.000000
vt 0.000000 0.000000
vt 1.000000 0.000000
vt 1.000000 1.000000
vt 0.000000 1.000000
vt 0.000000 0.000000
vt 1.000000 0.000000
vt 1.000000 1.000000
vt 0.000000 1.000000
vt 0.000000 0.000000
vt 1.000000 0.000000
vt 1.000000 1.000000
vt 0.000000 1.000000
vt 0.000000 0.000000
vt 1.000000 0.000000
vt 1.000000 1.000000
vt 0.000000 1.000000
vt 0.000000 0.000000
vt 1.000000 0.000000
vt 1.000000 1.000000
vt 0.000000 1.000000
vt 0.000000 0.000000
vt 1.000000 0.000000
vt 1.000000 1.000000
vt 0.000000 1.000000
vt 0.000000 0.000000
vt 1.000000 0.000000
vt 1.000000 1.000000
vt 0.000000 1.000000
vt 0.000000 0.000000
vt 1.000000 0.000000
vt 1.000000 1.000000
vt 0.000000 1.000000
vt 0.000000 0.000000
vt 1.000000 0.000000
vt 1.000000 1.000000
vt 0.000000 1.000000
vt 0.000000 0.000000
vt 1.000000 0.000000
vt 1.000000 1.000000
vt 0.000000 1.000000
vt 0.000000 0.000000
vt 1.000000 0.000000
vt 1.000000 1.000000
vt 0.000000 1.000000
vt 0.000000 0.000000
vt 1.000000 0.000000
vt 1.000000 1.000000
vt 0.000000 1.000000
vt 0.000000 0.000000
vt 1.000000 0.000000
vt 1.000000 1.000000
vt 0.000000 1.000000
vt 0.000000 0.000000
vt 1.000000 0.000000
vt 1.000000 1.000000
vt 0.000000 1.000000
vt 0.000000 0.000000
vt 1.000000 0.000000
vt 1.000000 1.000000
vt 0.000000 1.000000
vt 0.000000 0.000000
vt 1.000000 0.000000
vt 1.000000 1.000000
vt 0.000000 1.000000
vt 0.000000 0.000000
vt 1.000000 0.000000
vt 1.000000 1.000000
vt 0.000000 1.000000
vt 0.000000 0.000000
vt 1.000000 0.000000
vt 1.000000 1.000000
vt 0.000000 1.000000
vt 0.000000 0.000000
vt 1.000000 0.000000
vt 1.000000 1.000000
vt 0.000000 1.000000
vt 0.000000 0.000000
vt 1.000000 0.000000
vt 1.000000 1.000000
vt 0.000000 1.000000
vt 0.000000 0.000000
vt 1.000000 0.000000
vt 1.000000 1.000000
vt 0.000000 1.000000
vt 0.000000 0.000000
vt 1.000000 0.000000
vt 1.000000 1.000000
vt 0.000000 1.000000
vt 0.000000 0.000000
vt 1.000000 0.000000
vt 1.000000 1.000000
vt 0.000000 1.000000
vt 0.000000 0.000000
vt 1.000000 0.000000
vt 1.000000 1.000000
vt 0.000000 1.000000
vt 0.000000 0.000000
vt 1.000000 0.000000
vt 1.000000 1.000000
vt 0.000000 1.000000
vt 0.000000 0.000000
vt 1.000000 0.000000
vt 1.000000 1.000000
vt 0.000000 1.000000
vt 0.000000 0.000000
vt 1.000000 0.000000
vt 1.000000 1.000000
vt 0.000000 1.000000
vt 0.000000 0.000000
vt 1.000000 0.000000
vt 1.000000 1.000000
vt 0.000000 1.000000
vt 0.000000 0.000000
vt 1.000000 0.000000
vt 1.000000 1.000000
vt 0.000000 1.000000
vt 0.000000 0.000000
vt 1.000000 0.000000
vt 1.000000 1.000000
vt 0.000000 1.000000
vt 0.000000 0.000000
vt 1.000000 0.000000
vt 1.000000 1.000000
vt 0.000000 1.000000
vt 0.000000 0.000000
vt 1.000000 0.000000
vt 1.000000 1.000000
vt 0.000000 1.000000
vt 0.000000 0.000000
vt 1.000000 0.000000
vt 1.000000 1.000000
vt 0.000000 1.000000
vt 0.000000 0.000000
vt 1.000000 0.000000
vt 1.000000 1.000000
vt 0.000000 1.000000
vt 0.000000 0.000000
vt 1.000000 0.000000
vt 1.000000 1.000000
vt 0.000000 1.000000
vt 0.000000 0.000000
vt 1.000000 0.000000
vt 1.000000 1.000000
vt 0.000000 1.000000
vt 0.000000 0.000000
vt 1.000000 0.000000
vt 1.000000 1.000000
vt 0.000000 1.000000
vt 0.000000 0.000000
vt 1.000000 0.000000
vt 1.000000 1.000000
vt 0.000000 1.000000
vt 0.000000 0.000000
vt 1.000000 0.000000
vt 1.000000 1.000000
vt 0.000000 1.000000
vt 0.000000 0.000000
vt 1.000000 0.000000
vt 1.000000 1.000000
vt 0.000000 1.000000
vt 0.000000 0.000000
vt 1.000000 0.000000
vt 1.000000 1.000000
vt 0.000000 1.000000
vt 0.000000 0.000000
vt 1.000000 0.000000
vt 1.000000 1.000000
vt 0.000000 1.000000
vt 0.000000 0.000000
vt 1.000000 0.000000
vt 1.000000 1.000000
vt 0.000000 1.000000
vt 0.000000 0.000000
vt 1.000000 0.000000
vt 1.000000 1.000000
vt 0.000000 1.000000
vt 0.000000 0.000000
vt 1.000000 0.000000
vt 1.000000 1.000000
vt 0.000000 1.000000
vt 0.000000 0.000000
vt 1.000000 0.000000
vt 1.000000 1.000000
vt 0.000000 1.000000
vt 0.000000 0.000000
vt 1.000000 0.000000
vt 1.000000 1.000000
vt 0.000000 1.000000
vt 0.000000 0.000000
vt 1.000000 0.000000
vt 1.000000 1.000000
vt 0.000000 1.000000
vt 0.000000 0.000000
vt 1.000000 0.000000
vt 1.000000 1.000000
vt 0.000000 1.000000
vt 0.000000 0.000000
vt 1.000000 0.000000
vt 1.000000 1.000000
vt 0.000000 1.000000
vt 0.000000 0.000000
vt 1.000000 0.000000
vt 1.000000 1.000000
vt 0.000000 1.000000
vt 0.000000 0.000000
vt 1.000000 0.000000
vt 1.000000 1.000000
vt 0.000000 1.000000
vt 0.000000 0.000000
vt 1.000000 0.000000
vt 1.000000 1.000000
vt 0.000000 1.000000
vt 0.000000 0.000000
vt 1.000000 0.000000
vt 1.000000 1.000000
vt 0.000000 1.000000
vt 0.000000 0.000000
vt 1.000000 0.000000
vt 1.000000 1.000000
vt 0.000000 1.000000
vt 0.000000 0.000000
vt 1.000000 0.000000
vt 1.000000 1.000000
vt 0.000000 1.000000
vt 0.000000 0.000000
vt 1.000000 0.000000
vt 1.000000 1.000000
vt 0.000000 1.000000
vt 0.000000 0.000000
vt 1.000000 0.000000
vt 1.000000 1.000000
vt 0.000000 1.000000
vt 0.000000 0.000000
vt 1.000000 0.000000
vt 1.000000 1.000000
vt 0.000000 1.000000
vt 0.000000 0.000000
vt 1.000000 0.000000
vt 1.000000 1.000000
vt 0.000000 1.000000
vt 0.000000 0.000000
vt 1.000000 0.000000
vt 1.000000 1.000000
vt 0.000000 1.000000
vt 0.000000 0.000000
vt 1.000000 0.000000
vt 1.000000 1.000000
vt 0.000000 1.000000
vt 0.000000 0.000000
vt 1.000000 0.000000
vt 1.000000 1.000000
vt 0.000000 1.000000
vt 0.000000 0.000000
vt 1.000000 0.000000
vt 1.000000 1.000000
vt 0.000000 1.000000
vt 0.000000 0.000000
vt 1.000000 0.000000
vt 1.000000 1.000000
vt 0.000000 1.000000
vt 0.000000 0.000000
vt 1.000000 0.000000
vt 1.000000 1.000000
vt 0.000000 1.000000
vt 0.000000 0.000000
vt 1.000000 0.000000
vt 1.000000 1.000000
vt 0.000000 1.000000
vt 0.000000 0.000000
vt 1.000000 0.000000
vt 1.000000 1.000000
vt 0.000000 1.000000
vt 0.000000 0.000000
vt 1.000000 0.000000
vt 1.000000 1.000000
vt 0.000000 1.000000
vt 0.000000 0.000000
vt 1.000000 0.000000
vt 1.000000 1.000000
vt 0.000000 1.000000
vt 0.000000 0.000000
vt 1.000000 0.000000
vt 1.000000 1.000000
vt 0.000000 1.000000
vt 0.000000 0.000000
vt 1.000000 0.000000
vt 1.000000 1.000000
vt 0.000000 1.000000
vt 0.000000 0.000000
vt 1.000000 0.000000
vt 1.000000 1.000000
vt 0.000000 1.000000
vt 0.000000 0.000000
vt 1.000000 0.000000
vt 1.000000 1.000000
vt 0.000000 1.000000
vt 0.000000 0.000000
vt 1.000000 0.000000
vt 1.000000 1.000000
vt 0.000000 1.000000
vt 0.000000 0.000000
vt 1.000000 0.000000
vt 1.000000 1.000000
vt 0.000000 1.000000
vt 0.000000 0.000000
vt 1.000000 0.000000
vt 1.000000 1.000000
vt 0.000000 1.000000
vt 0.000000 0.000000
vt 1.000000 0.000000
vt 1.000000 1.000000
vt 0.000000 1.000000
vt 0.000000 0.000000
vt 1.000000 0.000000
vt 1.000000 1.000000
vt 0.000000 1.000000
vt 0.000000 0.000000
vt 1.000000 0.000000
vt 1.000000 1.000000
vt 0.000000 1.000000
vt 0.000000 0.000000
vt 1.000000 0.000000
vt 1.000000 1.000000
vt 0.000000 1.000000
vt 0.000000 0.000000
vt 1.000000 0.000000
vt 1.000000 1.000000
vt 0.000000 1.000000
vt 0.000000 0.000000
vt 1.000000 0.000000
vt 1.000000 1.000000
vt 0.000000 1.000000
vt 0.000000 0.000000
vt 1.000000 0.000000
vt 1.000000 1.000000
vt 0.000000 1.000000
vt 0.000000 0.000000
vt 1.000000 0.000000
vt 1.000000 1.000000
vt 0.000000 1.000000
vt 0.000000 0.000000
vt 1.000000 0.000000
vt 1.000000 1.000000
vt 0.000000 1.000000
vt 0.000000 0.000000
vt 1.000000 0.000000
vt 1.000000 1.000000
vt 0.000000 1.000000
vt 0.000000 0.000000
vt 1.000000 0.000000
vt 1.000000 1.000000
vt 0.000000 1.000000
vt 0.000000 0.000000
vt 1.000000 0.000000
vt 1.000000 1.000000
vt 0.000000 1.000000
vt 0.000000 0.000000
vt 1.000000 0.000000
vt 1.000000 1.000000
vt 0.000000 1.000000
vt 0.000000 0.000000
vt 1.000000 0.000000
vt 1.000000 1.000000
vt 0.000000 1.000000
vt 0.000000 0.000000
vt 1.000000 0.000000
vt 1.000000 1.000000
vt 0.000000 1.000000
vt 0.000000 0.000000
vt 1.000000 0.000000
vt 1.000000 1.000000
vt 0.000000 1.000000
vt 0.000000 0.000000
vt 1.000000 0.000000
vt 1.000000 1.000000
vt 0.000000 1.000000
vt 0.000000 0.000000
vt 1.000000 0.000000
vt 1.000000 1.000000
vt 0.000000 1.000000
vt 0.000000 0.000000
vt 1.000000 0.000000
vt 1.000000 1.000000
vt 0.000000 1.000000
vt 0.000000 0.000000
vt 1.000000 0.000000
vt 1.000000 1.000000
vt 0.000000 1.000000
vt 0.000000 0.000000
vt 1.000000 0.000000
vt 1.000000 1.000000
vt 0.000000 1.000000
vt 0.000000 0.000000
vt 1.000000 0.000000
vt 1.000000 1.000000
vt 0.000000 1.000000
vt 0.000000 0.000000
vt 1.000000 0.000000
vt 1.000000 1.000000
vt 0.000000 1.000000
vt 0.000000 0.000000
vt 1.000000 0.000000
vt 1.000000 1.000000
vt 0.000000 1.000000
vt 0.000000 0.000000
vt 1.000000 0.000000
vt 1.000000 1.000000
vt 0.000000 1.000000
vt 0.000000 0.000000
vt 1.000000 0.000000
vt 1.000000 1.000000
vt 0.000000 1.000000
vt 0.000000 0.000000
vt 1.000000 0.000000
vt 1.000000 1.000000
vt 0.000000 1.000000
vt 0.000000 0.000000
vt 1.000000 0.000000
vt 1.000000 1.000000
vt 0.000000 1.000000
vt 0.000000 0.000000
vt 1.000000 0.000000
vt 1.000000 1.000000
vt 0.000000 1.000000
vt 0.000000 0.000000
vt 1.000000 0.000000
vt 1.000000 1.000000
vt 0.000000 1.000000
vt 0.000000 0.000000
vt 1.000000 0.000000
vt 1.000000 1.000000
vt 0.000000 1.000000
vt 0.000000 0.000000
vt 1.000000 0.000000
vt 1.000000 1.000000
vt 0.000000 1.000000
vt 0.000000 0.000000
vt 1.000000 0.000000
vt 1.000000 1.000000
vt 0.000000 1.000000
vt 0.000000 0.000000
vt 1.000000 0.000000
vt 1.000000 1.000000
vt 0.000000 1.000000
vt 0.000000 0.000000
vt 1.000000 0.000000
vt 1.000000 1.000000
vt 0.000000 1.000000
vt 0.000000 0.000000
vt 1.000000 0.000000
vt 1.000000 1.000000
vt 0.000000 1.000000
vt 0.000000 0.000000
vt 1.000000 0.000000
vt 1.000000 1.000000
vt 0.000000 1.000000
vt 0.000000 0.000000
vt 1.000000 0.000000
vt 1.000000 1.000000
vt 0.000000 1.000000
vt 0.000000 0.000000
vt 1.000000 0.000000
vt 1.000000 1.000000
vt 0.000000 1.000000
vt 0.000000 0.000000
vt 1.000000 0.000000
vt 1.000000 1.000000
vt 0.000000 1.000000
vt 0.000000 0.000000
vt 1.000000 0.000000
vt 1.000000 1.000000
vt 0.000000 1.000000
vt 0.000000 0.000000
vt 1.000000 0.000000
vt 1.000000 1.000000
vt 0.000000 1.000000
vt 0.000000 0.000000
vt 1.000000 0.000000
vt 1.000000 1.000000
vt 0.000000 1.000000
vt 0.000000 0.000000
vt 1.000000 0.000000
vt 1.000000 1.000000
vt 0.000000 1.000000
vt 0.000000 0.000000
vt 1.000000 0.000000
vt 1.000000 1.000000
vt 0.000000 1.000000
vt 0.000000 0.000000
vt 1.000000 0.000000
vt 1.000000 1.000000
vt 0.000000 1.000000
vt 0.000000 0.000000
vt 1.000000 0.000000
vt 1.000000 1.000000
vt 0.000000 1.000000
vt 0.000000 0.000000
vt 1.000000 0.000000
vt 1.000000 1.000000
vt 0.000000 1.000000
vt 0.000000 0.000000
vt 1.000000 0.000000
vt 1.000000 1.000000
vt 0.000000 1.000000
vt 0.000000 0.000000
vt 1.000000 0.000000
vt 1.000000 1.000000
vt 0.000000 1.000000
vt 0.000000 0.000000
vt 1.000000 0.000000
vt 1.000000 1.000000
vt 0.000000 1.000000
vt 0.000000 0.000000
vt 1.000000 0.000000
vt 1.000000 1.000000
vt 0.000000 1.000000
vt 0.000000 0.000000
vt 1.000000 0.000000
vt 1.000000 1.000000
vt 0.000000 1.000000
vt 0.000000 0.000000
vt 1.000000 0.000000
vt 1.000000 1.000000
vt 0.000000 1.000000
vt 0.000000 0.000000
vt 1.000000 0.000000
vt 1.000000 1.000000
vt 0.000000 1.000000
vt 0.000000 0.000000
vt 1.000000 0.000000
vt 1.000000 1.000000
vt 0.000000 1.000000
vt 0.000000 0.000000
vt 1.000000 0.000000
vt 1.000000 1.000000
vt 0.000000 1.000000
vt 0.000000 0.000000
vt 1.000000 0.000000
vt 1.000000 1.000000
vt 0.000000 1.000000
vt 0.000000 0.000000
vt 1.000000 0.000000
vt 1.000000 1.000000
vt 0.000000 1.000000
vt 0.000000 0.000000
vt 1.000000 0.000000
vt 1.000000 1.000000
vt 0.000000 1.000000
vt 0.000000 0.000000
vt 1.000000 0.000000
vt 1.000000 1.000000
vt 0.000000 1.000000
vt 0.000000 0.000000
vt 1.000000 0.000000
vt 1.000000 1.000000
vt 0.000000 1.000000
vt 0.000000 0.000000
vt 1.000000 0.000000
vt 1.000000 1.000000
vt 0.000000 1.000000
vt 0.000000 0.000000
vt 1.000000 0.000000
vt 1.000000 1.000000
vt 0.000000 1.000000
vt 0.000000 0.000000
vt 1.000000 0.000000
vt 1.000000 1.000000
vt 0.000000 1.000000
vt 0.000000 0.000000
vt 1.000000 0.000000
vt 1.000000 1.000000
vt 0.000000 1.000000
vt 0.000000 0.000000
vt 1.000000 0.000000
vt 1.000000 1.000000
vt 0.000000 1.000000
vt 0.000000 0.000000
vt 1.000000 0.000000
vt 1.000000 1.000000
vt 0.000000 1.000000
vt 0.000000 0.000000
vt 1.000000 0.000000
vt 1.000000 1.000000
vt 0.000000 1.000000
vt 0.000000 0.000000
vt 1.000000 0.000000
vt 1.000000 1.000000
vt 0.000000 1.000000
vt 0.000000 0.000000
vt 1.000000 0.000000
vt 1.000000 1.000000
vt 0.000000 1.000000
vt 0.000000 0.000000
vt 1.000000 0.000000
vt 1.000000 1.000000
vt 0.000000 1.000000
vt 0.000000 0.000000
vt 1.000000 0.000000
vt 1.000000 1.000000
vt 0.000000 1.000000
vt 0.000000 0.000000
vt 1.000000 0.000000
vt 1.000000 1.000000
vt 0.000000 1.000000
vt 0.000000 0.000000
vt 1.000000 0.000000
vt 1.000000 1.000000
vt 0.000000 1.000000
vt 0.000000 0.000000
vt 1.000000 0.000000
vt 1.000000 1.000000
vt 0.000000 1.000000
vt 0.000000 0.000000
vt 1.000000 0.000000
vt 1.000000 1.000000
vt 0.000000 1.000000
vt 0.000000 0.000000
vt 1.000000 0.000000
vt 1.000000 1.000000
vt 0.000000 1.000000
vt 0.000000 0.000000
vt 1.000000 0.000000
vt 1.000000 1.000000
vt 0.000000 1.000000
vt 0.000000 0.000000
vt 1.000000 0.000000
vt 1.000000 1.000000
vt 0.000000 1.000000
vt 0.000000 0.000000
vt 1.000000 0.000000
vt 1.000000 1.000000
vt 0.000000 1.000000
vt 0.000000 0.000000
vt 1.000000 0.000000
vt 1.000000 1.000000
vt 0.000000 1.000000
vt 0.000000 0.000000
vt 1.000000 0.000000
vt 1.000000 1.000000
vt 0.000000 1.000000
vt 0.000000 0.000000
vt 1.000000 0.000000
vt 1.000000 1.000000
vt 0.000000 1.000000
vt 0.000000 0.000000
vt 1.000000 0.000000
vt 1.000000 1.000000
vt 0.000000 1.000000
vt 0.000000 0.000000
vt 1.000000 0.000000
vt 1.000000 1.000000
vt 0.000000 1.000000
vt 0.000000 0.000000
vt 1.000000 0.000000
vt 1.000000 1.000000
vt 0.000000 1.000000
vt 0.000000 0.000000
vt 1.000000 0.000000
vt 1.000000 1.000000
vt 0.000000 1.000000
vt 0.000000 0.000000
vt 1.000000 0.000000
vt 1.000000 1.000000
vt 0.000000 1.000000
vt 0.000000 0.000000
vt 1.000000 0.000000
vt 1.000000 1.000000
vt 0.000000 1.000000
vt 0.000000 0.000000
vt 1.000000 0.000000
vt 1.000000 1.000000
vt 0.000000 1.000000
vt 0.000000 0.000000
vt 1.000000 0.000000
vt 1.000000 1.000000
vt 0.000000 1.000000
vt 0.000000 0.000000
vt 1.000000 0.000000
vt 1.000000 1.000000
vt 0.000000 1.000000
vt 0.000000 0.000000
vt 1.000000 0.000000
vt 1.000000 1.000000
vt 0.000000 1.000000
vt 0.000000 0.000000
vt 1.000000 0.000000
vt 1.000000 1.000000
vt 0.000000 1.000000
vt 0.000000 0.000000
vt 1.000000 0.000000
vt 1.000000 1.000000
vt 0.000000 1.000000
vt 0.000000 0.000000
vt 1.000000 0.000000
vt 1.000000 1.000000
vt 0.000000 1.000000
vt 0.000000 0.000000
vt 1.000000 0.000000
vt 1.000000 1.000000
vt 0.000000 1.000000
vt 0.000000 0.000000
vt 1.000000 0.000000
vt 1.000000 1.000000
vt 0.000000 1.000000
vt 0.000000 0.000000
vt 1.000000 0.000000
vt 1.000000 1.000000
vt 0.000000 1.000000
vt 0.000000 0.000000
vt 1.000000 0.000000
vt 1.000000 1.000000
vt 0.000000 1.000000
vt 0.000000 0.000000
vt 1.000000 0.000000
vt 1.000000 1.000000
vt 0.000000 1.000000
vt 0.000000 0.000000
vt 1.000000 0.000000
vt 1.000000 1.000000
vt 0.000000 1.000000
vt 0.000000 0.000000
vt 1.000000 0.000000
vt 1.000000 1.000000
vt 0.000000 1.000000
vt 0.000000 0.000000
vt 1.000000 0.000000
vt 1.000000 1.000000
vt 0.000000 1.000000
vt 0.000000 0.000000
vt 1.000000 0.000000
vt 1.000000 1.000000
vt 0.000000 1.000000
vt 0.000000 0.000000
vt 1.000000 0.000000
vt 1.000000 1.000000
vt 0.000000 1.000000
vt 0.000000 0.000000
vt 1.000000 0.000000
vt 1.000000 1.000000
vt 0.000000 1.000000
vt 0.000000 0.000000
vt 1.000000 0.000000
vt 1.000000 1.000000
vt 0.000000 1.000000
vt 0.000000 0.000000
vt 1.000000 0.000000
vt 1.000000 1.000000
vt 0.000000 1.000000
vt 0.000000 0.000000
vt 1.000000 0.000000
vt 1.000000 1.000000
vt 0.000000 1.000000
vt 0.000000 0.000000
vt 1.000000 0.000000
vt 1.000000 1.000000
vt 0.000000 1.000000
vt 0.000000 0.000000
vt 1.000000 0.000000
vt 1.000000 1.000000
vt 0.000000 1.000000
vt 0.000000 0.000000
vt 1.000000 0.000000
vt 1.000000 1.000000
vt 0.000000 1.000000
vt 0.000000 0.000000
vt 1.000000 0.000000
vt 1.000000 1.000000
vt 0.000000 1.000000
vt 0.000000 0.000000
vt 1.000000 0.000000
vt 1.000000 1.000000
vt 0.000000 1.000000
vt 0.000000 0.000000
vt 1.000000 0.000000
vt 1.000000 1.000000
vt 0.000000 1.000000
vt 0.000000 0.000000
vt 1.000000 0.000000
vt 1.000000 1.000000
vt 0.000000 1.000000
vt 0.000000 0.000000
vt 1.000000 0.000000
vt 1.000000 1.000000
vt 0.000000 1.000000
vt 0.000000 0.000000
vt 1.000000 0.000000
vt 1.000000 1.000000
vt 0.000000 1.000000
vt 0.000000 0.000000
vt 1.000000 0.000000
vt 1.000000 1.000000
vt 0.000000 1.000000
vt 0.000000 0.000000
vt 1.000000 0.000000
vt 1.000000 1.000000
vt 0.000000 1.000000
vt 0.000000 0.000000
vt 1.000000 0.000000
vt 1.000000 1.000000
vt 0.000000 1.000000
vt 0.000000 0.000000
vt 1.000000 0.000000
vt 1.000000 1.000000
vt 0.000000 1.000000
vt 0.000000 0.000000
vt 1.000000 0.000000
vt 1.000000 1.000000
vt 0.000000 1.000000
vt 0.000000 0.000000
vt 1.000000 0.000000
vt 1.000000 1.000000
vt 0.000000 1.000000
vt 0.000000 0.000000
vt 1.000000 0.000000
vt 1.000000 1.000000
vt 0.000000 1.000000
vt 0.000000 0.000000
vt 1.000000 0.000000
vt 1.000000 1.000000
vt 0.000000 1.000000
vt 0.000000 0.000000
vt 1.000000 0.000000
vt 1.000000 1.000000
vt 0.000000 1.000000
vt 0.000000 0.000000
vt 1.000000 0.000000
vt 1.000000 1.000000
vt 0.000000 1.000000
vt 0.000000 0.000000
vt 1.000000 0.000000
vt 1.000000 1.000000
vt 0.000000 1.000000
vt 0.000000 0.000000
vt 1.000000 0.000000
vt 1.000000 1.000000
vt 0.000000 1.000000
vt 0.000000 0.000000
vt 1.000000 0.000000
vt 1.000000 1.000000
vt 0.000000 1.000000
vt 0.000000 0.000000
vt 1.000000 0.000000
vt 1.000000 1.000000
vt 0.000000 1.000000
vt 0.000000 0.000000
vt 1.000000 0.000000
vt 1.000000 1.000000
vt 0.000000 1.000000
vt 0.000000 0.000000
vt 1.000000 0.000000
vt 1.000000 1.000000
vt 0.000000 1.000000
vt 0.000000 0.000000
vt 1.000000 0.000000
vt 1.000000 1.000000
vt 0.000000 1.000000
vt 0.000000 0.000000
vt 1.000000 0.000000
vt 1.000000 1.000000
vt 0.000000 1.000000
vt 0.000000 0.000000
vt 1.000000 0.000000
vt 1.000000 1.000000
vt 0.000000 1.000000
vt 0.000000 0.000000
vt 1.000000 0.000000
vt 1.000000 1.000000
vt 0.000000 1.000000
vt 0.000000 0.000000
vt 1.000000 0.000000
vt 1.000000 1.000000
vt 0.000000 1.000000
vt 0.000000 0.000000
vt 1.000000 0.000000
vt 1.000000 1.000000
vt 0.000000 1.000000
vt 0.000000 0.000000
vt 1.000000 0.000000
vt 1.000000 1.000000
vt 0.000000 1.000000
vt 0.000000 0.000000
vt 1.000000 0.000000
vt 1.000000 1.000000
vt 0.000000 1.000000
vt 0.000000 0.000000
vt 1.000000 0.000000
vt 1.000000 1.000000
vt 0.000000 1.000000
vt 0.000000 0.000000
vt 1.000000 0.000000
vt 1.000000 1.000000
vt 0.000000 1.000000
vt 0.000000 0.000000
vt 1.000000 0.000000
vt 1.000000 1.000000
vt 0.000000 1.000000
vt 0.000000 0.000000
vt 1.000000 0.000000
vt 1.000000 1.000000
vt 0.000000 1.000000
vt 0.000000 0.000000
vt 1.000000 0.000000
vt 1.000000 1.000000
vt 0.000000 1.000000
vt 0.000000 0.000000
vt 1.000000 0.000000
vt 1.000000 1.000000
vt 0.000000 1.000000
vt 0.000000 0.000000
vt 1.000000 0.000000
vt 1.000000 1.000000
vt 0.000000 1.000000
vt 0.000000 0.000000
vt 1.000000 0.000000
vt 1.000000 1.000000
vt 0.000000 1.000000
vt 0.000000 0.000000
vt 1.000000 0.000000
vt 1.000000 1.000000
vt 0.000000 1.000000
vt 0.000000 0.000000
vt 1.000000 0.000000
vt 1.000000 1.000000
vt 0.000000 1.000000
vt 0.000000 0.000000
vt 1.000000 0.000000
vt 1.000000 1.000000
vt 0.000000 1.000000
vt 0.000000 0.000000
vt 1.000000 0.000000
vt 1.000000 1.000000
vt 0.000000 1.000000
vt 0.000000 0.000000
vt 1.000000 0.000000
vt 1.000000 1.000000
vt 0.000000 1.000000
vt 0.000000 0.000000
vt 1.000000 0.000000
vt 1.000000 1.000000
vt 0.000000 1.000000
vt 0.000000 0.000000
vt 1.000000 0.000000
vt 1.000000 1.000000
vt 0.000000 1.000000
vt 0.000000 0.000000
vt 1.000000 0.000000
vt 1.000000 1.000000
vt 0.000000 1.000000
o BraidedFiberMass
usemtl MAT_FIBER
f 1/1 7/2 8/3 2/4
f 2/5 8/6 9/7 3/8
f 3/9 9/10 10/11 4/12
f 4/13 10/14 11/15 5/16
f 5/17 11/18 12/19 6/20
f 6/21 12/22 7/23 1/24
f 7/25 13/26 14/27 8/28
f 8/29 14/30 15/31 9/32
f 9/33 15/34 16/35 10/36
f 10/37 16/38 17/39 11/40
f 11/41 17/42 18/43 12/44
f 12/45 18/46 13/47 7/48
f 13/49 19/50 20/51 14/52
f 14/53 20/54 21/55 15/56
f 15/57 21/58 22/59 16/60
f 16/61 22/62 23/63 17/64
f 17/65 23/66 24/67 18/68
f 18/69 24/70 19/71 13/72
f 19/73 25/74 26/75 20/76
f 20/77 26/78 27/79 21/80
f 21/81 27/82 28/83 22/84
f 22/85 28/86 29/87 23/88
f 23/89 29/90 30/91 24/92
f 24/93 30/94 25/95 19/96
f 25/97 31/98 32/99 26/100
f 26/101 32/102 33/103 27/104
f 27/105 33/106 34/107 28/108
f 28/109 34/110 35/111 29/112
f 29/113 35/114 36/115 30/116
f 30/117 36/118 31/119 25/120
f 31/121 37/122 38/123 32/124
f 32/125 38/126 39/127 33/128
f 33/129 39/130 40/131 34/132
f 34/133 40/134 41/135 35/136
f 35/137 41/138 42/139 36/140
f 36/141 42/142 37/143 31/144
f 37/145 43/146 44/147 38/148
f 38/149 44/150 45/151 39/152
f 39/153 45/154 46/155 40/156
f 40/157 46/158 47/159 41/160
f 41/161 47/162 48/163 42/164
f 42/165 48/166 43/167 37/168
f 43/169 49/170 50/171 44/172
f 44/173 50/174 51/175 45/176
f 45/177 51/178 52/179 46/180
f 46/181 52/182 53/183 47/184
f 47/185 53/186 54/187 48/188
f 48/189 54/190 49/191 43/192
f 49/193 55/194 56/195 50/196
f 50/197 56/198 57/199 51/200
f 51/201 57/202 58/203 52/204
f 52/205 58/206 59/207 53/208
f 53/209 59/210 60/211 54/212
f 54/213 60/214 55/215 49/216
f 55/217 61/218 62/219 56/220
f 56/221 62/222 63/223 57/224
f 57/225 63/226 64/227 58/228
f 58/229 64/230 65/231 59/232
f 59/233 65/234 66/235 60/236
f 60/237 66/238 61/239 55/240
f 61/241 67/242 68/243 62/244
f 62/245 68/246 69/247 63/248
f 63/249 69/250 70/251 64/252
f 64/253 70/254 71/255 65/256
f 65/257 71/258 72/259 66/260
f 66/261 72/262 67/263 61/264
f 67/265 73/266 74/267 68/268
f 68/269 74/270 75/271 69/272
f 69/273 75/274 76/275 70/276
f 70/277 76/278 77/279 71/280
f 71/281 77/282 78/283 72/284
f 72/285 78/286 73/287 67/288
f 73/289 79/290 80/291 74/292
f 74/293 80/294 81/295 75/296
f 75/297 81/298 82/299 76/300
f 76/301 82/302 83/303 77/304
f 77/305 83/306 84/307 78/308
f 78/309 84/310 79/311 73/312
f 79/313 85/314 86/315 80/316
f 80/317 86/318 87/319 81/320
f 81/321 87/322 88/323 82/324
f 82/325 88/326 89/327 83/328
f 83/329 89/330 90/331 84/332
f 84/333 90/334 85/335 79/336
f 85/337 91/338 92/339 86/340
f 86/341 92/342 93/343 87/344
f 87/345 93/346 94/347 88/348
f 88/349 94/350 95/351 89/352
f 89/353 95/354 96/355 90/356
f 90/357 96/358 91/359 85/360
f 91/361 97/362 98/363 92/364
f 92/365 98/366 99/367 93/368
f 93/369 99/370 100/371 94/372
f 94/373 100/374 101/375 95/376
f 95/377 101/378 102/379 96/380
f 96/381 102/382 97/383 91/384
f 97/385 103/386 104/387 98/388
f 98/389 104/390 105/391 99/392
f 99/393 105/394 106/395 100/396
f 100/397 106/398 107/399 101/400
f 101/401 107/402 108/403 102/404
f 102/405 108/406 103/407 97/408
f 103/409 109/410 110/411 104/412
f 104/413 110/414 111/415 105/416
f 105/417 111/418 112/419 106/420
f 106/421 112/422 113/423 107/424
f 107/425 113/426 114/427 108/428
f 108/429 114/430 109/431 103/432
f 109/433 115/434 116/435 110/436
f 110/437 116/438 117/439 111/440
f 111/441 117/442 118/443 112/444
f 112/445 118/446 119/447 113/448
f 113/449 119/450 120/451 114/452
f 114/453 120/454 115/455 109/456
f 115/457 1/458 2/459 116/460
f 116/461 2/462 3/463 117/464
f 117/465 3/466 4/467 118/468
f 118/469 4/470 5/471 119/472
f 119/473 5/474 6/475 120/476
f 120/477 6/478 1/479 115/480
f 121/481 127/482 128/483 122/484
f 122/485 128/486 129/487 123/488
f 123/489 129/490 130/491 124/492
f 124/493 130/494 131/495 125/496
f 125/497 131/498 132/499 126/500
f 126/501 132/502 127/503 121/504
f 127/505 133/506 134/507 128/508
f 128/509 134/510 135/511 129/512
f 129/513 135/514 136/515 130/516
f 130/517 136/518 137/519 131/520
f 131/521 137/522 138/523 132/524
f 132/525 138/526 133/527 127/528
f 133/529 139/530 140/531 134/532
f 134/533 140/534 141/535 135/536
f 135/537 141/538 142/539 136/540
f 136/541 142/542 143/543 137/544
f 137/545 143/546 144/547 138/548
f 138/549 144/550 139/551 133/552
f 139/553 145/554 146/555 140/556
f 140/557 146/558 147/559 141/560
f 141/561 147/562 148/563 142/564
f 142/565 148/566 149/567 143/568
f 143/569 149/570 150/571 144/572
f 144/573 150/574 145/575 139/576
f 145/577 151/578 152/579 146/580
f 146/581 152/582 153/583 147/584
f 147/585 153/586 154/587 148/588
f 148/589 154/590 155/591 149/592
f 149/593 155/594 156/595 150/596
f 150/597 156/598 151/599 145/600
f 151/601 157/602 158/603 152/604
f 152/605 158/606 159/607 153/608
f 153/609 159/610 160/611 154/612
f 154/613 160/614 161/615 155/616
f 155/617 161/618 162/619 156/620
f 156/621 162/622 157/623 151/624
f 157/625 163/626 164/627 158/628
f 158/629 164/630 165/631 159/632
f 159/633 165/634 166/635 160/636
f 160/637 166/638 167/639 161/640
f 161/641 167/642 168/643 162/644
f 162/645 168/646 163/647 157/648
f 163/649 169/650 170/651 164/652
f 164/653 170/654 171/655 165/656
f 165/657 171/658 172/659 166/660
f 166/661 172/662 173/663 167/664
f 167/665 173/666 174/667 168/668
f 168/669 174/670 169/671 163/672
f 169/673 175/674 176/675 170/676
f 170/677 176/678 177/679 171/680
f 171/681 177/682 178/683 172/684
f 172/685 178/686 179/687 173/688
f 173/689 179/690 180/691 174/692
f 174/693 180/694 175/695 169/696
f 175/697 181/698 182/699 176/700
f 176/701 182/702 183/703 177/704
f 177/705 183/706 184/707 178/708
f 178/709 184/710 185/711 179/712
f 179/713 185/714 186/715 180/716
f 180/717 186/718 181/719 175/720
f 181/721 187/722 188/723 182/724
f 182/725 188/726 189/727 183/728
f 183/729 189/730 190/731 184/732
f 184/733 190/734 191/735 185/736
f 185/737 191/738 192/739 186/740
f 186/741 192/742 187/743 181/744
f 187/745 193/746 194/747 188/748
f 188/749 194/750 195/751 189/752
f 189/753 195/754 196/755 190/756
f 190/757 196/758 197/759 191/760
f 191/761 197/762 198/763 192/764
f 192/765 198/766 193/767 187/768
f 193/769 199/770 200/771 194/772
f 194/773 200/774 201/775 195/776
f 195/777 201/778 202/779 196/780
f 196/781 202/782 203/783 197/784
f 197/785 203/786 204/787 198/788
f 198/789 204/790 199/791 193/792
f 199/793 205/794 206/795 200/796
f 200/797 206/798 207/799 201/800
f 201/801 207/802 208/803 202/804
f 202/805 208/806 209/807 203/808
f 203/809 209/810 210/811 204/812
f 204/813 210/814 205/815 199/816
f 205/817 211/818 212/819 206/820
f 206/821 212/822 213/823 207/824
f 207/825 213/826 214/827 208/828
f 208/829 214/830 215/831 209/832
f 209/833 215/834 216/835 210/836
f 210/837 216/838 211/839 205/840
f 211/841 217/842 218/843 212/844
f 212/845 218/846 219/847 213/848
f 213/849 219/850 220/851 214/852
f 214/853 220/854 221/855 215/856
f 215/857 221/858 222/859 216/860
f 216/861 222/862 217/863 211/864
f 217/865 223/866 224/867 218/868
f 218/869 224/870 225/871 219/872
f 219/873 225/874 226/875 220/876
f 220/877 226/878 227/879 221/880
f 221/881 227/882 228/883 222/884
f 222/885 228/886 223/887 217/888
f 223/889 229/890 230/891 224/892
f 224/893 230/894 231/895 225/896
f 225/897 231/898 232/899 226/900
f 226/901 232/902 233/903 227/904
f 227/905 233/906 234/907 228/908
f 228/909 234/910 229/911 223/912
f 229/913 235/914 236/915 230/916
f 230/917 236/918 237/919 231/920
f 231/921 237/922 238/923 232/924
f 232/925 238/926 239/927 233/928
f 233/929 239/930 240/931 234/932
f 234/933 240/934 235/935 229/936
f 235/937 121/938 122/939 236/940
f 236/941 122/942 123/943 237/944
f 237/945 123/946 124/947 238/948
f 238/949 124/950 125/951 239/952
f 239/953 125/954 126/955 240/956
f 240/957 126/958 121/959 235/960
f 241/961 247/962 248/963 242/964
f 242/965 248/966 249/967 243/968
f 243/969 249/970 250/971 244/972
f 244/973 250/974 251/975 245/976
f 245/977 251/978 252/979 246/980
f 246/981 252/982 247/983 241/984
f 247/985 253/986 254/987 248/988
f 248/989 254/990 255/991 249/992
f 249/993 255/994 256/995 250/996
f 250/997 256/998 257/999 251/1000
f 251/1001 257/1002 258/1003 252/1004
f 252/1005 258/1006 253/1007 247/1008
f 253/1009 259/1010 260/1011 254/1012
f 254/1013 260/1014 261/1015 255/1016
f 255/1017 261/1018 262/1019 256/1020
f 256/1021 262/1022 263/1023 257/1024
f 257/1025 263/1026 264/1027 258/1028
f 258/1029 264/1030 259/1031 253/1032
f 259/1033 265/1034 266/1035 260/1036
f 260/1037 266/1038 267/1039 261/1040
f 261/1041 267/1042 268/1043 262/1044
f 262/1045 268/1046 269/1047 263/1048
f 263/1049 269/1050 270/1051 264/1052
f 264/1053 270/1054 265/1055 259/1056
f 265/1057 271/1058 272/1059 266/1060
f 266/1061 272/1062 273/1063 267/1064
f 267/1065 273/1066 274/1067 268/1068
f 268/1069 274/1070 275/1071 269/1072
f 269/1073 275/1074 276/1075 270/1076
f 270/1077 276/1078 271/1079 265/1080
f 271/1081 277/1082 278/1083 272/1084
f 272/1085 278/1086 279/1087 273/1088
f 273/1089 279/1090 280/1091 274/1092
f 274/1093 280/1094 281/1095 275/1096
f 275/1097 281/1098 282/1099 276/1100
f 276/1101 282/1102 277/1103 271/1104
f 277/1105 283/1106 284/1107 278/1108
f 278/1109 284/1110 285/1111 279/1112
f 279/1113 285/1114 286/1115 280/1116
f 280/1117 286/1118 287/1119 281/1120
f 281/1121 287/1122 288/1123 282/1124
f 282/1125 288/1126 283/1127 277/1128
f 283/1129 289/1130 290/1131 284/1132
f 284/1133 290/1134 291/1135 285/1136
f 285/1137 291/1138 292/1139 286/1140
f 286/1141 292/1142 293/1143 287/1144
f 287/1145 293/1146 294/1147 288/1148
f 288/1149 294/1150 289/1151 283/1152
f 289/1153 295/1154 296/1155 290/1156
f 290/1157 296/1158 297/1159 291/1160
f 291/1161 297/1162 298/1163 292/1164
f 292/1165 298/1166 299/1167 293/1168
f 293/1169 299/1170 300/1171 294/1172
f 294/1173 300/1174 295/1175 289/1176
f 295/1177 301/1178 302/1179 296/1180
f 296/1181 302/1182 303/1183 297/1184
f 297/1185 303/1186 304/1187 298/1188
f 298/1189 304/1190 305/1191 299/1192
f 299/1193 305/1194 306/1195 300/1196
f 300/1197 306/1198 301/1199 295/1200
f 301/1201 307/1202 308/1203 302/1204
f 302/1205 308/1206 309/1207 303/1208
f 303/1209 309/1210 310/1211 304/1212
f 304/1213 310/1214 311/1215 305/1216
f 305/1217 311/1218 312/1219 306/1220
f 306/1221 312/1222 307/1223 301/1224
f 307/1225 313/1226 314/1227 308/1228
f 308/1229 314/1230 315/1231 309/1232
f 309/1233 315/1234 316/1235 310/1236
f 310/1237 316/1238 317/1239 311/1240
f 311/1241 317/1242 318/1243 312/1244
f 312/1245 318/1246 313/1247 307/1248
f 313/1249 319/1250 320/1251 314/1252
f 314/1253 320/1254 321/1255 315/1256
f 315/1257 321/1258 322/1259 316/1260
f 316/1261 322/1262 323/1263 317/1264
f 317/1265 323/1266 324/1267 318/1268
f 318/1269 324/1270 319/1271 313/1272
f 319/1273 325/1274 326/1275 320/1276
f 320/1277 326/1278 327/1279 321/1280
f 321/1281 327/1282 328/1283 322/1284
f 322/1285 328/1286 329/1287 323/1288
f 323/1289 329/1290 330/1291 324/1292
f 324/1293 330/1294 325/1295 319/1296
f 325/1297 331/1298 332/1299 326/1300
f 326/1301 332/1302 333/1303 327/1304
f 327/1305 333/1306 334/1307 328/1308
f 328/1309 334/1310 335/1311 329/1312
f 329/1313 335/1314 336/1315 330/1316
f 330/1317 336/1318 331/1319 325/1320
f 331/1321 337/1322 338/1323 332/1324
f 332/1325 338/1326 339/1327 333/1328
f 333/1329 339/1330 340/1331 334/1332
f 334/1333 340/1334 341/1335 335/1336
f 335/1337 341/1338 342/1339 336/1340
f 336/1341 342/1342 337/1343 331/1344
f 337/1345 343/1346 344/1347 338/1348
f 338/1349 344/1350 345/1351 339/1352
f 339/1353 345/1354 346/1355 340/1356
f 340/1357 346/1358 347/1359 341/1360
f 341/1361 347/1362 348/1363 342/1364
f 342/1365 348/1366 343/1367 337/1368
f 343/1369 349/1370 350/1371 344/1372
f 344/1373 350/1374 351/1375 345/1376
f 345/1377 351/1378 352/1379 346/1380
f 346/1381 352/1382 353/1383 347/1384
f 347/1385 353/1386 354/1387 348/1388
f 348/1389 354/1390 349/1391 343/1392
f 349/1393 355/1394 356/1395 350/1396
f 350/1397 356/1398 357/1399 351/1400
f 351/1401 357/1402 358/1403 352/1404
f 352/1405 358/1406 359/1407 353/1408
f 353/1409 359/1410 360/1411 354/1412
f 354/1413 360/1414 355/1415 349/1416
f 355/1417 241/1418 242/1419 356/1420
f 356/1421 242/1422 243/1423 357/1424
f 357/1425 243/1426 244/1427 358/1428
f 358/1429 244/1430 245/1431 359/1432
f 359/1433 245/1434 246/1435 360/1436
f 360/1437 246/1438 241/1439 355/1440
f 361/1441 367/1442 368/1443 362/1444
f 362/1445 368/1446 369/1447 363/1448
f 363/1449 369/1450 370/1451 364/1452
f 364/1453 370/1454 371/1455 365/1456
f 365/1457 371/1458 372/1459 366/1460
f 366/1461 372/1462 367/1463 361/1464
f 367/1465 373/1466 374/1467 368/1468
f 368/1469 374/1470 375/1471 369/1472
f 369/1473 375/1474 376/1475 370/1476
f 370/1477 376/1478 377/1479 371/1480
f 371/1481 377/1482 378/1483 372/1484
f 372/1485 378/1486 373/1487 367/1488
f 373/1489 379/1490 380/1491 374/1492
f 374/1493 380/1494 381/1495 375/1496
f 375/1497 381/1498 382/1499 376/1500
f 376/1501 382/1502 383/1503 377/1504
f 377/1505 383/1506 384/1507 378/1508
f 378/1509 384/1510 379/1511 373/1512
f 379/1513 385/1514 386/1515 380/1516
f 380/1517 386/1518 387/1519 381/1520
f 381/1521 387/1522 388/1523 382/1524
f 382/1525 388/1526 389/1527 383/1528
f 383/1529 389/1530 390/1531 384/1532
f 384/1533 390/1534 385/1535 379/1536
f 385/1537 391/1538 392/1539 386/1540
f 386/1541 392/1542 393/1543 387/1544
f 387/1545 393/1546 394/1547 388/1548
f 388/1549 394/1550 395/1551 389/1552
f 389/1553 395/1554 396/1555 390/1556
f 390/1557 396/1558 391/1559 385/1560
f 391/1561 397/1562 398/1563 392/1564
f 392/1565 398/1566 399/1567 393/1568
f 393/1569 399/1570 400/1571 394/1572
f 394/1573 400/1574 401/1575 395/1576
f 395/1577 401/1578 402/1579 396/1580
f 396/1581 402/1582 397/1583 391/1584
f 397/1585 403/1586 404/1587 398/1588
f 398/1589 404/1590 405/1591 399/1592
f 399/1593 405/1594 406/1595 400/1596
f 400/1597 406/1598 407/1599 401/1600
f 401/1601 407/1602 408/1603 402/1604
f 402/1605 408/1606 403/1607 397/1608
f 403/1609 409/1610 410/1611 404/1612
f 404/1613 410/1614 411/1615 405/1616
f 405/1617 411/1618 412/1619 406/1620
f 406/1621 412/1622 413/1623 407/1624
f 407/1625 413/1626 414/1627 408/1628
f 408/1629 414/1630 409/1631 403/1632
f 409/1633 415/1634 416/1635 410/1636
f 410/1637 416/1638 417/1639 411/1640
f 411/1641 417/1642 418/1643 412/1644
f 412/1645 418/1646 419/1647 413/1648
f 413/1649 419/1650 420/1651 414/1652
f 414/1653 420/1654 415/1655 409/1656
f 415/1657 421/1658 422/1659 416/1660
f 416/1661 422/1662 423/1663 417/1664
f 417/1665 423/1666 424/1667 418/1668
f 418/1669 424/1670 425/1671 419/1672
f 419/1673 425/1674 426/1675 420/1676
f 420/1677 426/1678 421/1679 415/1680
f 421/1681 427/1682 428/1683 422/1684
f 422/1685 428/1686 429/1687 423/1688
f 423/1689 429/1690 430/1691 424/1692
f 424/1693 430/1694 431/1695 425/1696
f 425/1697 431/1698 432/1699 426/1700
f 426/1701 432/1702 427/1703 421/1704
f 427/1705 433/1706 434/1707 428/1708
f 428/1709 434/1710 435/1711 429/1712
f 429/1713 435/1714 436/1715 430/1716
f 430/1717 436/1718 437/1719 431/1720
f 431/1721 437/1722 438/1723 432/1724
f 432/1725 438/1726 433/1727 427/1728
f 433/1729 439/1730 440/1731 434/1732
f 434/1733 440/1734 441/1735 435/1736
f 435/1737 441/1738 442/1739 436/1740
f 436/1741 442/1742 443/1743 437/1744
f 437/1745 443/1746 444/1747 438/1748
f 438/1749 444/1750 439/1751 433/1752
f 439/1753 445/1754 446/1755 440/1756
f 440/1757 446/1758 447/1759 441/1760
f 441/1761 447/1762 448/1763 442/1764
f 442/1765 448/1766 449/1767 443/1768
f 443/1769 449/1770 450/1771 444/1772
f 444/1773 450/1774 445/1775 439/1776
f 445/1777 451/1778 452/1779 446/1780
f 446/1781 452/1782 453/1783 447/1784
f 447/1785 453/1786 454/1787 448/1788
f 448/1789 454/1790 455/1791 449/1792
f 449/1793 455/1794 456/1795 450/1796
f 450/1797 456/1798 451/1799 445/1800
f 451/1801 457/1802 458/1803 452/1804
f 452/1805 458/1806 459/1807 453/1808
f 453/1809 459/1810 460/1811 454/1812
f 454/1813 460/1814 461/1815 455/1816
f 455/1817 461/1818 462/1819 456/1820
f 456/1821 462/1822 457/1823 451/1824
f 457/1825 463/1826 464/1827 458/1828
f 458/1829 464/1830 465/1831 459/1832
f 459/1833 465/1834 466/1835 460/1836
f 460/1837 466/1838 467/1839 461/1840
f 461/1841 467/1842 468/1843 462/1844
f 462/1845 468/1846 463/1847 457/1848
f 463/1849 469/1850 470/1851 464/1852
f 464/1853 470/1854 471/1855 465/1856
f 465/1857 471/1858 472/1859 466/1860
f 466/1861 472/1862 473/1863 467/1864
f 467/1865 473/1866 474/1867 468/1868
f 468/1869 474/1870 469/1871 463/1872
f 469/1873 475/1874 476/1875 470/1876
f 470/1877 476/1878 477/1879 471/1880
f 471/1881 477/1882 478/1883 472/1884
f 472/1885 478/1886 479/1887 473/1888
f 473/1889 479/1890 480/1891 474/1892
f 474/1893 480/1894 475/1895 469/1896
f 475/1897 361/1898 362/1899 476/1900
f 476/1901 362/1902 363/1903 477/1904
f 477/1905 363/1906 364/1907 478/1908
f 478/1909 364/1910 365/1911 479/1912
f 479/1913 365/1914 366/1915 480/1916
f 480/1917 366/1918 361/1919 475/1920
f 481/1921 487/1922 488/1923 482/1924
f 482/1925 488/1926 489/1927 483/1928
f 483/1929 489/1930 490/1931 484/1932
f 484/1933 490/1934 491/1935 485/1936
f 485/1937 491/1938 492/1939 486/1940
f 486/1941 492/1942 487/1943 481/1944
f 487/1945 493/1946 494/1947 488/1948
f 488/1949 494/1950 495/1951 489/1952
f 489/1953 495/1954 496/1955 490/1956
f 490/1957 496/1958 497/1959 491/1960
f 491/1961 497/1962 498/1963 492/1964
f 492/1965 498/1966 493/1967 487/1968
f 493/1969 499/1970 500/1971 494/1972
f 494/1973 500/1974 501/1975 495/1976
f 495/1977 501/1978 502/1979 496/1980
f 496/1981 502/1982 503/1983 497/1984
f 497/1985 503/1986 504/1987 498/1988
f 498/1989 504/1990 499/1991 493/1992
f 499/1993 505/1994 506/1995 500/1996
f 500/1997 506/1998 507/1999 501/2000
f 501/2001 507/2002 508/2003 502/2004
f 502/2005 508/2006 509/2007 503/2008
f 503/2009 509/2010 510/2011 504/2012
f 504/2013 510/2014 505/2015 499/2016
f 505/2017 511/2018 512/2019 506/2020
f 506/2021 512/2022 513/2023 507/2024
f 507/2025 513/2026 514/2027 508/2028
f 508/2029 514/2030 515/2031 509/2032
f 509/2033 515/2034 516/2035 510/2036
f 510/2037 516/2038 511/2039 505/2040
f 511/2041 517/2042 518/2043 512/2044
f 512/2045 518/2046 519/2047 513/2048
f 513/2049 519/2050 520/2051 514/2052
f 514/2053 520/2054 521/2055 515/2056
f 515/2057 521/2058 522/2059 516/2060
f 516/2061 522/2062 517/2063 511/2064
f 517/2065 523/2066 524/2067 518/2068
f 518/2069 524/2070 525/2071 519/2072
f 519/2073 525/2074 526/2075 520/2076
f 520/2077 526/2078 527/2079 521/2080
f 521/2081 527/2082 528/2083 522/2084
f 522/2085 528/2086 523/2087 517/2088
f 523/2089 529/2090 530/2091 524/2092
f 524/2093 530/2094 531/2095 525/2096
f 525/2097 531/2098 532/2099 526/2100
f 526/2101 532/2102 533/2103 527/2104
f 527/2105 533/2106 534/2107 528/2108
f 528/2109 534/2110 529/2111 523/2112
f 529/2113 535/2114 536/2115 530/2116
f 530/2117 536/2118 537/2119 531/2120
f 531/2121 537/2122 538/2123 532/2124
f 532/2125 538/2126 539/2127 533/2128
f 533/2129 539/2130 540/2131 534/2132
f 534/2133 540/2134 535/2135 529/2136
f 535/2137 541/2138 542/2139 536/2140
f 536/2141 542/2142 543/2143 537/2144
f 537/2145 543/2146 544/2147 538/2148
f 538/2149 544/2150 545/2151 539/2152
f 539/2153 545/2154 546/2155 540/2156
f 540/2157 546/2158 541/2159 535/2160
f 541/2161 547/2162 548/2163 542/2164
f 542/2165 548/2166 549/2167 543/2168
f 543/2169 549/2170 550/2171 544/2172
f 544/2173 550/2174 551/2175 545/2176
f 545/2177 551/2178 552/2179 546/2180
f 546/2181 552/2182 547/2183 541/2184
f 547/2185 553/2186 554/2187 548/2188
f 548/2189 554/2190 555/2191 549/2192
f 549/2193 555/2194 556/2195 550/2196
f 550/2197 556/2198 557/2199 551/2200
f 551/2201 557/2202 558/2203 552/2204
f 552/2205 558/2206 553/2207 547/2208
f 553/2209 559/2210 560/2211 554/2212
f 554/2213 560/2214 561/2215 555/2216
f 555/2217 561/2218 562/2219 556/2220
f 556/2221 562/2222 563/2223 557/2224
f 557/2225 563/2226 564/2227 558/2228
f 558/2229 564/2230 559/2231 553/2232
f 559/2233 565/2234 566/2235 560/2236
f 560/2237 566/2238 567/2239 561/2240
f 561/2241 567/2242 568/2243 562/2244
f 562/2245 568/2246 569/2247 563/2248
f 563/2249 569/2250 570/2251 564/2252
f 564/2253 570/2254 565/2255 559/2256
f 565/2257 571/2258 572/2259 566/2260
f 566/2261 572/2262 573/2263 567/2264
f 567/2265 573/2266 574/2267 568/2268
f 568/2269 574/2270 575/2271 569/2272
f 569/2273 575/2274 576/2275 570/2276
f 570/2277 576/2278 571/2279 565/2280
f 571/2281 577/2282 578/2283 572/2284
f 572/2285 578/2286 579/2287 573/2288
f 573/2289 579/2290 580/2291 574/2292
f 574/2293 580/2294 581/2295 575/2296
f 575/2297 581/2298 582/2299 576/2300
f 576/2301 582/2302 577/2303 571/2304
f 577/2305 583/2306 584/2307 578/2308
f 578/2309 584/2310 585/2311 579/2312
f 579/2313 585/2314 586/2315 580/2316
f 580/2317 586/2318 587/2319 581/2320
f 581/2321 587/2322 588/2323 582/2324
f 582/2325 588/2326 583/2327 577/2328
f 583/2329 589/2330 590/2331 584/2332
f 584/2333 590/2334 591/2335 585/2336
f 585/2337 591/2338 592/2339 586/2340
f 586/2341 592/2342 593/2343 587/2344
f 587/2345 593/2346 594/2347 588/2348
f 588/2349 594/2350 589/2351 583/2352
f 589/2353 595/2354 596/2355 590/2356
f 590/2357 596/2358 597/2359 591/2360
f 591/2361 597/2362 598/2363 592/2364
f 592/2365 598/2366 599/2367 593/2368
f 593/2369 599/2370 600/2371 594/2372
f 594/2373 600/2374 595/2375 589/2376
f 595/2377 481/2378 482/2379 596/2380
f 596/2381 482/2382 483/2383 597/2384
f 597/2385 483/2386 484/2387 598/2388
f 598/2389 484/2390 485/2391 599/2392
f 599/2393 485/2394 486/2395 600/2396
f 600/2397 486/2398 481/2399 595/2400
o DistinctLooseFiber
f 601/2401 602/2402 604/2403 603/2404
f 605/2405 607/2406 608/2407 606/2408
f 601/2409 605/2410 606/2411 602/2412
f 603/2413 604/2414 608/2415 607/2416
f 601/2417 603/2418 607/2419 605/2420
f 602/2421 606/2422 608/2423 604/2424
o BundleTie
usemtl MAT_CANVAS
f 609/2425 610/2426 612/2427 611/2428
f 613/2429 615/2430 616/2431 614/2432
f 609/2433 613/2434 614/2435 610/2436
f 611/2437 612/2438 616/2439 615/2440
f 609/2441 611/2442 615/2443 613/2444
f 610/2445 614/2446 616/2447 612/2448
