# PROJECT OEN production source mesh: ITM_HERB_BUNDLE_001
mtllib ITM_HERB_BUNDLE_001.mtl
s off
v -0.011929 0.053726 -0.012504
v -0.011929 0.055979 0.013399
v 0.011929 0.064021 -0.013399
v 0.011929 0.066274 0.012504
v -0.211929 0.513726 -0.052504
v -0.211929 0.515979 -0.026601
v -0.188071 0.524021 -0.053399
v -0.188071 0.526274 -0.027496
v -0.135701 0.259709 -0.067581
v -0.121601 0.259709 -0.004129
v -0.098399 0.312291 -0.075871
v -0.084299 0.312291 -0.012419
v -0.315701 0.393709 -0.027581
v -0.301601 0.393709 0.035871
v -0.278399 0.446291 -0.035871
v -0.264299 0.446291 0.027581
v -0.163806 0.336963 -0.072588
v -0.163806 0.361786 -0.012515
v -0.100194 0.324614 -0.067485
v -0.100194 0.349437 -0.007412
v -0.141806 0.433763 -0.112588
v -0.141806 0.458586 -0.052515
v -0.078194 0.421414 -0.107485
v -0.078194 0.446237 -0.047412
v -0.012799 0.058889 -0.013151
v -0.012799 0.056576 0.012746
v 0.012799 0.063424 -0.012746
v 0.012799 0.061111 0.013151
v -0.112799 0.618889 0.036849
v -0.112799 0.616576 0.062746
v -0.087201 0.623424 0.037254
v -0.087201 0.621111 0.063151
v -0.088725 0.320907 0.026096
v -0.070259 0.320907 0.088418
v -0.039741 0.361093 0.011582
v -0.021275 0.361093 0.073904
v -0.223725 0.499907 0.066096
v -0.205259 0.499907 0.128418
v -0.174741 0.540093 0.051582
v -0.156275 0.540093 0.113904
v -0.023705 0.394067 0.059729
v -0.061486 0.394067 0.006836
v -0.070514 0.424333 0.093164
v -0.108295 0.424333 0.040271
v 0.032295 0.524867 0.019729
v -0.005486 0.524867 -0.033164
v -0.014514 0.555133 0.053164
v -0.052295 0.555133 0.000271
v -0.013000 0.059574 -0.012993
v -0.013000 0.060426 0.012993
v 0.013000 0.059574 -0.012993
v 0.013000 0.060426 0.012993
v -0.013000 0.669574 -0.032993
v -0.013000 0.670426 -0.007007
v 0.013000 0.669574 -0.032993
v 0.013000 0.670426 -0.007007
v -0.039882 0.354228 -0.037840
v -0.013483 0.354228 0.021558
v 0.013483 0.382772 -0.061558
v 0.039882 0.382772 -0.002160
v -0.129882 0.555728 0.002160
v -0.103483 0.555728 0.061558
v -0.076517 0.584272 -0.021558
v -0.050118 0.584272 0.037840
v 0.037914 0.424178 -0.001285
v 0.011515 0.424178 -0.060683
v -0.011515 0.460222 0.020683
v -0.037914 0.460222 -0.038715
v 0.127914 0.571978 -0.041285
v 0.101515 0.571978 -0.100683
v 0.078485 0.608022 -0.019317
v 0.052086 0.608022 -0.078715
v -0.012740 0.063541 -0.012773
v -0.012740 0.061621 0.013156
v 0.012740 0.058379 -0.013156
v 0.012740 0.056459 0.012773
v 0.097260 0.603541 0.027227
v 0.097260 0.601621 0.053156
v 0.122740 0.598379 0.026844
v 0.122740 0.596459 0.052773
v 0.028840 0.330297 0.006682
v 0.028840 0.315409 0.069954
v 0.092160 0.344591 0.010046
v 0.092160 0.329703 0.073318
v -0.011660 0.500297 0.046682
v -0.011660 0.485409 0.109954
v 0.051660 0.514591 0.050046
v 0.051660 0.499703 0.113318
v 0.103435 0.372185 0.064383
v 0.083964 0.372185 0.002368
v 0.061236 0.419815 0.077632
v 0.041765 0.419815 0.015617
v 0.230835 0.496185 0.024383
v 0.211364 0.496185 -0.037632
v 0.188636 0.543815 0.037632
v 0.169165 0.543815 -0.024383
v 0.013919 0.054319 0.010583
v 0.009054 0.054319 -0.014958
v -0.009054 0.065681 0.014958
v -0.013919 0.065681 -0.010583
v 0.223919 0.494319 -0.029417
v 0.219054 0.494319 -0.054958
v 0.200946 0.505681 -0.025042
v 0.196081 0.505681 -0.050583
v 0.083019 0.285966 -0.070614
v 0.083019 0.266155 -0.008707
v 0.147981 0.283845 -0.071293
v 0.147981 0.264034 -0.009386
v 0.087519 0.410966 -0.030614
v 0.087519 0.391155 0.031293
v 0.152481 0.408845 -0.031293
v 0.152481 0.389034 0.030614
v 0.161434 0.301418 -0.012176
v 0.145798 0.301418 -0.075267
v 0.131402 0.358582 -0.004733
v 0.115766 0.358582 -0.067824
v 0.322834 0.391418 -0.052176
v 0.307198 0.391418 -0.115267
v 0.292802 0.448582 -0.044733
v 0.277166 0.448582 -0.107824
v -0.160000 0.137500 0.022500
v -0.160000 0.137500 -0.022500
v -0.160000 0.182500 0.022500
v -0.160000 0.182500 -0.022500
v 0.160000 0.137500 0.022500
v 0.160000 0.137500 -0.022500
v 0.160000 0.182500 0.022500
v 0.160000 0.182500 -0.022500
v -0.080000 0.055000 -0.064000
v 0.080000 0.055000 -0.064000
v 0.080000 0.145000 -0.064000
v -0.080000 0.145000 -0.064000
v -0.080000 0.055000 -0.046000
v 0.080000 0.055000 -0.046000
v 0.080000 0.145000 -0.046000
v -0.080000 0.145000 -0.046000
vt 0.000000 0.000000
vt 1.000000 0.000000
vt 1.000000 1.000000
vt 0.000000 1.000000
vt 0.000000 0.000000
vt 1.000000 0.000000
vt 1.000000 1.000000
vt 0.000000 1.000000
vt 0.000000 0.000000
vt 1.000000 0.000000
vt 1.000000 1.000000
vt 0.000000 1.000000
vt 0.000000 0.000000
vt 1.000000 0.000000
vt 1.000000 1.000000
vt 0.000000 1.000000
vt 0.000000 0.000000
vt 1.000000 0.000000
vt 1.000000 1.000000
vt 0.000000 1.000000
vt 0.000000 0.000000
vt 1.000000 0.000000
vt 1.000000 1.000000
vt 0.000000 1.000000
vt 0.000000 0.000000
vt 1.000000 0.000000
vt 1.000000 1.000000
vt 0.000000 1.000000
vt 0.000000 0.000000
vt 1.000000 0.000000
vt 1.000000 1.000000
vt 0.000000 1.000000
vt 0.000000 0.000000
vt 1.000000 0.000000
vt 1.000000 1.000000
vt 0.000000 1.000000
vt 0.000000 0.000000
vt 1.000000 0.000000
vt 1.000000 1.000000
vt 0.000000 1.000000
vt 0.000000 0.000000
vt 1.000000 0.000000
vt 1.000000 1.000000
vt 0.000000 1.000000
vt 0.000000 0.000000
vt 1.000000 0.000000
vt 1.000000 1.000000
vt 0.000000 1.000000
vt 0.000000 0.000000
vt 1.000000 0.000000
vt 1.000000 1.000000
vt 0.000000 1.000000
vt 0.000000 0.000000
vt 1.000000 0.000000
vt 1.000000 1.000000
vt 0.000000 1.000000
vt 0.000000 0.000000
vt 1.000000 0.000000
vt 1.000000 1.000000
vt 0.000000 1.000000
vt 0.000000 0.000000
vt 1.000000 0.000000
vt 1.000000 1.000000
vt 0.000000 1.000000
vt 0.000000 0.000000
vt 1.000000 0.000000
vt 1.000000 1.000000
vt 0.000000 1.000000
vt 0.000000 0.000000
vt 1.000000 0.000000
vt 1.000000 1.000000
vt 0.000000 1.000000
vt 0.000000 0.000000
vt 1.000000 0.000000
vt 1.000000 1.000000
vt 0.000000 1.000000
vt 0.000000 0.000000
vt 1.000000 0.000000
vt 1.000000 1.000000
vt 0.000000 1.000000
vt 0.000000 0.000000
vt 1.000000 0.000000
vt 1.000000 1.000000
vt 0.000000 1.000000
vt 0.000000 0.000000
vt 1.000000 0.000000
vt 1.000000 1.000000
vt 0.000000 1.000000
vt 0.000000 0.000000
vt 1.000000 0.000000
vt 1.000000 1.000000
vt 0.000000 1.000000
vt 0.000000 0.000000
vt 1.000000 0.000000
vt 1.000000 1.000000
vt 0.000000 1.000000
vt 0.000000 0.000000
vt 1.000000 0.000000
vt 1.000000 1.000000
vt 0.000000 1.000000
vt 0.000000 0.000000
vt 1.000000 0.000000
vt 1.000000 1.000000
vt 0.000000 1.000000
vt 0.000000 0.000000
vt 1.000000 0.000000
vt 1.000000 1.000000
vt 0.000000 1.000000
vt 0.000000 0.000000
vt 1.000000 0.000000
vt 1.000000 1.000000
vt 0.000000 1.000000
vt 0.000000 0.000000
vt 1.000000 0.000000
vt 1.000000 1.000000
vt 0.000000 1.000000
vt 0.000000 0.000000
vt 1.000000 0.000000
vt 1.000000 1.000000
vt 0.000000 1.000000
vt 0.000000 0.000000
vt 1.000000 0.000000
vt 1.000000 1.000000
vt 0.000000 1.000000
vt 0.000000 0.000000
vt 1.000000 0.000000
vt 1.000000 1.000000
vt 0.000000 1.000000
vt 0.000000 0.000000
vt 1.000000 0.000000
vt 1.000000 1.000000
vt 0.000000 1.000000
vt 0.000000 0.000000
vt 1.000000 0.000000
vt 1.000000 1.000000
vt 0.000000 1.000000
vt 0.000000 0.000000
vt 1.000000 0.000000
vt 1.000000 1.000000
vt 0.000000 1.000000
vt 0.000000 0.000000
vt 1.000000 0.000000
vt 1.000000 1.000000
vt 0.000000 1.000000
vt 0.000000 0.000000
vt 1.000000 0.000000
vt 1.000000 1.000000
vt 0.000000 1.000000
vt 0.000000 0.000000
vt 1.000000 0.000000
vt 1.000000 1.000000
vt 0.000000 1.000000
vt 0.000000 0.000000
vt 1.000000 0.000000
vt 1.000000 1.000000
vt 0.000000 1.000000
vt 0.000000 0.000000
vt 1.000000 0.000000
vt 1.000000 1.000000
vt 0.000000 1.000000
vt 0.000000 0.000000
vt 1.000000 0.000000
vt 1.000000 1.000000
vt 0.000000 1.000000
vt 0.000000 0.000000
vt 1.000000 0.000000
vt 1.000000 1.000000
vt 0.000000 1.000000
vt 0.000000 0.000000
vt 1.000000 0.000000
vt 1.000000 1.000000
vt 0.000000 1.000000
vt 0.000000 0.000000
vt 1.000000 0.000000
vt 1.000000 1.000000
vt 0.000000 1.000000
vt 0.000000 0.000000
vt 1.000000 0.000000
vt 1.000000 1.000000
vt 0.000000 1.000000
vt 0.000000 0.000000
vt 1.000000 0.000000
vt 1.000000 1.000000
vt 0.000000 1.000000
vt 0.000000 0.000000
vt 1.000000 0.000000
vt 1.000000 1.000000
vt 0.000000 1.000000
vt 0.000000 0.000000
vt 1.000000 0.000000
vt 1.000000 1.000000
vt 0.000000 1.000000
vt 0.000000 0.000000
vt 1.000000 0.000000
vt 1.000000 1.000000
vt 0.000000 1.000000
vt 0.000000 0.000000
vt 1.000000 0.000000
vt 1.000000 1.000000
vt 0.000000 1.000000
vt 0.000000 0.000000
vt 1.000000 0.000000
vt 1.000000 1.000000
vt 0.000000 1.000000
vt 0.000000 0.000000
vt 1.000000 0.000000
vt 1.000000 1.000000
vt 0.000000 1.000000
vt 0.000000 0.000000
vt 1.000000 0.000000
vt 1.000000 1.000000
vt 0.000000 1.000000
vt 0.000000 0.000000
vt 1.000000 0.000000
vt 1.000000 1.000000
vt 0.000000 1.000000
vt 0.000000 0.000000
vt 1.000000 0.000000
vt 1.000000 1.000000
vt 0.000000 1.000000
vt 0.000000 0.000000
vt 1.000000 0.000000
vt 1.000000 1.000000
vt 0.000000 1.000000
vt 0.000000 0.000000
vt 1.000000 0.000000
vt 1.000000 1.000000
vt 0.000000 1.000000
vt 0.000000 0.000000
vt 1.000000 0.000000
vt 1.000000 1.000000
vt 0.000000 1.000000
vt 0.000000 0.000000
vt 1.000000 0.000000
vt 1.000000 1.000000
vt 0.000000 1.000000
vt 0.000000 0.000000
vt 1.000000 0.000000
vt 1.000000 1.000000
vt 0.000000 1.000000
vt 0.000000 0.000000
vt 1.000000 0.000000
vt 1.000000 1.000000
vt 0.000000 1.000000
vt 0.000000 0.000000
vt 1.000000 0.000000
vt 1.000000 1.000000
vt 0.000000 1.000000
vt 0.000000 0.000000
vt 1.000000 0.000000
vt 1.000000 1.000000
vt 0.000000 1.000000
vt 0.000000 0.000000
vt 1.000000 0.000000
vt 1.000000 1.000000
vt 0.000000 1.000000
vt 0.000000 0.000000
vt 1.000000 0.000000
vt 1.000000 1.000000
vt 0.000000 1.000000
vt 0.000000 0.000000
vt 1.000000 0.000000
vt 1.000000 1.000000
vt 0.000000 1.000000
vt 0.000000 0.000000
vt 1.000000 0.000000
vt 1.000000 1.000000
vt 0.000000 1.000000
vt 0.000000 0.000000
vt 1.000000 0.000000
vt 1.000000 1.000000
vt 0.000000 1.000000
vt 0.000000 0.000000
vt 1.000000 0.000000
vt 1.000000 1.000000
vt 0.000000 1.000000
vt 0.000000 0.000000
vt 1.000000 0.000000
vt 1.000000 1.000000
vt 0.000000 1.000000
vt 0.000000 0.000000
vt 1.000000 0.000000
vt 1.000000 1.000000
vt 0.000000 1.000000
vt 0.000000 0.000000
vt 1.000000 0.000000
vt 1.000000 1.000000
vt 0.000000 1.000000
vt 0.000000 0.000000
vt 1.000000 0.000000
vt 1.000000 1.000000
vt 0.000000 1.000000
vt 0.000000 0.000000
vt 1.000000 0.000000
vt 1.000000 1.000000
vt 0.000000 1.000000
vt 0.000000 0.000000
vt 1.000000 0.000000
vt 1.000000 1.000000
vt 0.000000 1.000000
vt 0.000000 0.000000
vt 1.000000 0.000000
vt 1.000000 1.000000
vt 0.000000 1.000000
vt 0.000000 0.000000
vt 1.000000 0.000000
vt 1.000000 1.000000
vt 0.000000 1.000000
vt 0.000000 0.000000
vt 1.000000 0.000000
vt 1.000000 1.000000
vt 0.000000 1.000000
vt 0.000000 0.000000
vt 1.000000 0.000000
vt 1.000000 1.000000
vt 0.000000 1.000000
vt 0.000000 0.000000
vt 1.000000 0.000000
vt 1.000000 1.000000
vt 0.000000 1.000000
vt 0.000000 0.000000
vt 1.000000 0.000000
vt 1.000000 1.000000
vt 0.000000 1.000000
vt 0.000000 0.000000
vt 1.000000 0.000000
vt 1.000000 1.000000
vt 0.000000 1.000000
vt 0.000000 0.000000
vt 1.000000 0.000000
vt 1.000000 1.000000
vt 0.000000 1.000000
vt 0.000000 0.000000
vt 1.000000 0.000000
vt 1.000000 1.000000
vt 0.000000 1.000000
vt 0.000000 0.000000
vt 1.000000 0.000000
vt 1.000000 1.000000
vt 0.000000 1.000000
vt 0.000000 0.000000
vt 1.000000 0.000000
vt 1.000000 1.000000
vt 0.000000 1.000000
vt 0.000000 0.000000
vt 1.000000 0.000000
vt 1.000000 1.000000
vt 0.000000 1.000000
vt 0.000000 0.000000
vt 1.000000 0.000000
vt 1.000000 1.000000
vt 0.000000 1.000000
vt 0.000000 0.000000
vt 1.000000 0.000000
vt 1.000000 1.000000
vt 0.000000 1.000000
vt 0.000000 0.000000
vt 1.000000 0.000000
vt 1.000000 1.000000
vt 0.000000 1.000000
vt 0.000000 0.000000
vt 1.000000 0.000000
vt 1.000000 1.000000
vt 0.000000 1.000000
vt 0.000000 0.000000
vt 1.000000 0.000000
vt 1.000000 1.000000
vt 0.000000 1.000000
vt 0.000000 0.000000
vt 1.000000 0.000000
vt 1.000000 1.000000
vt 0.000000 1.000000
vt 0.000000 0.000000
vt 1.000000 0.000000
vt 1.000000 1.000000
vt 0.000000 1.000000
vt 0.000000 0.000000
vt 1.000000 0.000000
vt 1.000000 1.000000
vt 0.000000 1.000000
vt 0.000000 0.000000
vt 1.000000 0.000000
vt 1.000000 1.000000
vt 0.000000 1.000000
vt 0.000000 0.000000
vt 1.000000 0.000000
vt 1.000000 1.000000
vt 0.000000 1.000000
vt 0.000000 0.000000
vt 1.000000 0.000000
vt 1.000000 1.000000
vt 0.000000 1.000000
vt 0.000000 0.000000
vt 1.000000 0.000000
vt 1.000000 1.000000
vt 0.000000 1.000000
vt 0.000000 0.000000
vt 1.000000 0.000000
vt 1.000000 1.000000
vt 0.000000 1.000000
vt 0.000000 0.000000
vt 1.000000 0.000000
vt 1.000000 1.000000
vt 0.000000 1.000000
vt 0.000000 0.000000
vt 1.000000 0.000000
vt 1.000000 1.000000
vt 0.000000 1.000000
o HerbStem_1
usemtl MAT_FOLIAGE
f 1/1 2/2 4/3 3/4
f 5/5 7/6 8/7 6/8
f 1/9 5/10 6/11 2/12
f 3/13 4/14 8/15 7/16
f 1/17 3/18 7/19 5/20
f 2/21 6/22 8/23 4/24
o BroadLeafA_1
f 9/25 10/26 12/27 11/28
f 13/29 15/30 16/31 14/32
f 9/33 13/34 14/35 10/36
f 11/37 12/38 16/39 15/40
f 9/41 11/42 15/43 13/44
f 10/45 14/46 16/47 12/48
o BroadLeafB_1
f 17/49 18/50 20/51 19/52
f 21/53 23/54 24/55 22/56
f 17/57 21/58 22/59 18/60
f 19/61 20/62 24/63 23/64
f 17/65 19/66 23/67 21/68
f 18/69 22/70 24/71 20/72
o HerbStem_2
f 25/73 26/74 28/75 27/76
f 29/77 31/78 32/79 30/80
f 25/81 29/82 30/83 26/84
f 27/85 28/86 32/87 31/88
f 25/89 27/90 31/91 29/92
f 26/93 30/94 32/95 28/96
o BroadLeafA_2
f 33/97 34/98 36/99 35/100
f 37/101 39/102 40/103 38/104
f 33/105 37/106 38/107 34/108
f 35/109 36/110 40/111 39/112
f 33/113 35/114 39/115 37/116
f 34/117 38/118 40/119 36/120
o BroadLeafB_2
f 41/121 42/122 44/123 43/124
f 45/125 47/126 48/127 46/128
f 41/129 45/130 46/131 42/132
f 43/133 44/134 48/135 47/136
f 41/137 43/138 47/139 45/140
f 42/141 46/142 48/143 44/144
o HerbStem_3
f 49/145 50/146 52/147 51/148
f 53/149 55/150 56/151 54/152
f 49/153 53/154 54/155 50/156
f 51/157 52/158 56/159 55/160
f 49/161 51/162 55/163 53/164
f 50/165 54/166 56/167 52/168
o BroadLeafA_3
f 57/169 58/170 60/171 59/172
f 61/173 63/174 64/175 62/176
f 57/177 61/178 62/179 58/180
f 59/181 60/182 64/183 63/184
f 57/185 59/186 63/187 61/188
f 58/189 62/190 64/191 60/192
o BroadLeafB_3
f 65/193 66/194 68/195 67/196
f 69/197 71/198 72/199 70/200
f 65/201 69/202 70/203 66/204
f 67/205 68/206 72/207 71/208
f 65/209 67/210 71/211 69/212
f 66/213 70/214 72/215 68/216
o HerbStem_4
f 73/217 74/218 76/219 75/220
f 77/221 79/222 80/223 78/224
f 73/225 77/226 78/227 74/228
f 75/229 76/230 80/231 79/232
f 73/233 75/234 79/235 77/236
f 74/237 78/238 80/239 76/240
o BroadLeafA_4
f 81/241 82/242 84/243 83/244
f 85/245 87/246 88/247 86/248
f 81/249 85/250 86/251 82/252
f 83/253 84/254 88/255 87/256
f 81/257 83/258 87/259 85/260
f 82/261 86/262 88/263 84/264
o BroadLeafB_4
f 89/265 90/266 92/267 91/268
f 93/269 95/270 96/271 94/272
f 89/273 93/274 94/275 90/276
f 91/277 92/278 96/279 95/280
f 89/281 91/282 95/283 93/284
f 90/285 94/286 96/287 92/288
o HerbStem_5
f 97/289 98/290 100/291 99/292
f 101/293 103/294 104/295 102/296
f 97/297 101/298 102/299 98/300
f 99/301 100/302 104/303 103/304
f 97/305 99/306 103/307 101/308
f 98/309 102/310 104/311 100/312
o BroadLeafA_5
f 105/313 106/314 108/315 107/316
f 109/317 111/318 112/319 110/320
f 105/321 109/322 110/323 106/324
f 107/325 108/326 112/327 111/328
f 105/329 107/330 111/331 109/332
f 106/333 110/334 112/335 108/336
o BroadLeafB_5
f 113/337 114/338 116/339 115/340
f 117/341 119/342 120/343 118/344
f 113/345 117/346 118/347 114/348
f 115/349 116/350 120/351 119/352
f 113/353 115/354 119/355 117/356
f 114/357 118/358 120/359 116/360
o ReadableBundleTie
usemtl MAT_FIBER
f 121/361 122/362 124/363 123/364
f 125/365 127/366 128/367 126/368
f 121/369 125/370 126/371 122/372
f 123/373 124/374 128/375 127/376
f 121/377 123/378 127/379 125/380
f 122/381 126/382 128/383 124/384
o SimpleLabel
usemtl MAT_CANVAS
f 129/385 132/386 131/387 130/388
f 133/389 134/390 135/391 136/392
f 129/393 130/394 134/395 133/396
f 132/397 136/398 135/399 131/400
f 129/401 133/402 136/403 132/404
f 130/405 131/406 135/407 134/408
