# PROJECT OEN production source mesh: ITM_FOOD_PARCEL_001
mtllib ITM_FOOD_PARCEL_001.mtl
s off
v -0.250000 0.000000 -0.190000
v 0.250000 0.000000 -0.190000
v 0.250000 0.400000 -0.190000
v -0.250000 0.400000 -0.190000
v -0.250000 0.000000 0.190000
v 0.250000 0.000000 0.190000
v 0.250000 0.400000 0.190000
v -0.250000 0.400000 0.190000
v -0.215000 0.390000 -0.165000
v 0.215000 0.390000 -0.165000
v 0.215000 0.470000 -0.165000
v -0.215000 0.470000 -0.165000
v -0.215000 0.390000 0.165000
v 0.215000 0.390000 0.165000
v 0.215000 0.470000 0.165000
v -0.215000 0.470000 0.165000
v -0.040000 0.462500 -0.200000
v 0.040000 0.462500 -0.200000
v 0.040000 0.487500 -0.200000
v -0.040000 0.487500 -0.200000
v -0.040000 0.462500 0.200000
v 0.040000 0.462500 0.200000
v 0.040000 0.487500 0.200000
v -0.040000 0.487500 0.200000
v -0.260000 0.463000 -0.035000
v 0.260000 0.463000 -0.035000
v 0.260000 0.491000 -0.035000
v -0.260000 0.491000 -0.035000
v -0.260000 0.463000 0.035000
v 0.260000 0.463000 0.035000
v 0.260000 0.491000 0.035000
v -0.260000 0.491000 0.035000
v -0.060000 0.477500 -0.115000
v 0.060000 0.477500 -0.115000
v 0.060000 0.502500 -0.115000
v -0.060000 0.502500 -0.115000
v -0.060000 0.477500 0.005000
v 0.060000 0.477500 0.005000
v 0.060000 0.502500 0.005000
v -0.060000 0.502500 0.005000
vt 0.000000 0.000000
vt 1.000000 0.000000
vt 1.000000 1.000000
vt 0.000000 1.000000
vt 0.000000 0.000000
vt 1.000000 0.000000
vt 1.000000 1.000000
vt 0.000000 1.000000
vt 0.000000 0.000000
vt 1.000000 0.000000
vt 1.000000 1.000000
vt 0.000000 1.000000
vt 0.000000 0.000000
vt 1.000000 0.000000
vt 1.000000 1.000000
vt 0.000000 1.000000
vt 0.000000 0.000000
vt 1.000000 0.000000
vt 1.000000 1.000000
vt 0.000000 1.000000
vt 0.000000 0.000000
vt 1.000000 0.000000
vt 1.000000 1.000000
vt 0.000000 1.000000
vt 0.000000 0.000000
vt 1.000000 0.000000
vt 1.000000 1.000000
vt 0.000000 1.000000
vt 0.000000 0.000000
vt 1.000000 0.000000
vt 1.000000 1.000000
vt 0.000000 1.000000
vt 0.000000 0.000000
vt 1.000000 0.000000
vt 1.000000 1.000000
vt 0.000000 1.000000
vt 0.000000 0.000000
vt 1.000000 0.000000
vt 1.000000 1.000000
vt 0.000000 1.000000
vt 0.000000 0.000000
vt 1.000000 0.000000
vt 1.000000 1.000000
vt 0.000000 1.000000
vt 0.000000 0.000000
vt 1.000000 0.000000
vt 1.000000 1.000000
vt 0.000000 1.000000
vt 0.000000 0.000000
vt 1.000000 0.000000
vt 1.000000 1.000000
vt 0.000000 1.000000
vt 0.000000 0.000000
vt 1.000000 0.000000
vt 1.000000 1.000000
vt 0.000000 1.000000
vt 0.000000 0.000000
vt 1.000000 0.000000
vt 1.000000 1.000000
vt 0.000000 1.000000
vt 0.000000 0.000000
vt 1.000000 0.000000
vt 1.000000 1.000000
vt 0.000000 1.000000
vt 0.000000 0.000000
vt 1.000000 0.000000
vt 1.000000 1.000000
vt 0.000000 1.000000
vt 0.000000 0.000000
vt 1.000000 0.000000
vt 1.000000 1.000000
vt 0.000000 1.000000
vt 0.000000 0.000000
vt 1.000000 0.000000
vt 1.000000 1.000000
vt 0.000000 1.000000
vt 0.000000 0.000000
vt 1.000000 0.000000
vt 1.000000 1.000000
vt 0.000000 1.000000
vt 0.000000 0.000000
vt 1.000000 0.000000
vt 1.000000 1.000000
vt 0.000000 1.000000
vt 0.000000 0.000000
vt 1.000000 0.000000
vt 1.000000 1.000000
vt 0.000000 1.000000
vt 0.000000 0.000000
vt 1.000000 0.000000
vt 1.000000 1.000000
vt 0.000000 1.000000
vt 0.000000 0.000000
vt 1.000000 0.000000
vt 1.000000 1.000000
vt 0.000000 1.000000
vt 0.000000 0.000000
vt 1.000000 0.000000
vt 1.000000 1.000000
vt 0.000000 1.000000
vt 0.000000 0.000000
vt 1.000000 0.000000
vt 1.000000 1.000000
vt 0.000000 1.000000
vt 0.000000 0.000000
vt 1.000000 0.000000
vt 1.000000 1.000000
vt 0.000000 1.000000
vt 0.000000 0.000000
vt 1.000000 0.000000
vt 1.000000 1.000000
vt 0.000000 1.000000
vt 0.000000 0.000000
vt 1.000000 0.000000
vt 1.000000 1.000000
vt 0.000000 1.000000
vt 0.000000 0.000000
vt 1.000000 0.000000
vt 1.000000 1.000000
vt 0.000000 1.000000
o SealedParcel
usemtl MAT_CANVAS
f 1/1 4/2 3/3 2/4
f 5/5 6/6 7/7 8/8
f 1/9 2/10 6/11 5/12
f 4/13 8/14 7/15 3/16
f 1/17 5/18 8/19 4/20
f 2/21 3/22 7/23 6/24
o FoldedTop
f 9/25 12/26 11/27 10/28
f 13/29 14/30 15/31 16/32
f 9/33 10/34 14/35 13/36
f 12/37 16/38 15/39 11/40
f 9/41 13/42 16/43 12/44
f 10/45 11/46 15/47 14/48
o CrossStrapLong
usemtl MAT_FIBER
f 17/49 20/50 19/51 18/52
f 21/53 22/54 23/55 24/56
f 17/57 18/58 22/59 21/60
f 20/61 24/62 23/63 19/64
f 17/65 21/66 24/67 20/68
f 18/69 19/70 23/71 22/72
o CrossStrapWide
f 25/73 28/74 27/75 26/76
f 29/77 30/78 31/79 32/80
f 25/81 26/82 30/83 29/84
f 28/85 32/86 31/87 27/88
f 25/89 29/90 32/91 28/92
f 26/93 27/94 31/95 30/96
o ReadableFoodSeal
usemtl MAT_WOOD
f 33/97 36/98 35/99 34/100
f 37/101 38/102 39/103 40/104
f 33/105 34/106 38/107 37/108
f 36/109 40/110 39/111 35/112
f 33/113 37/114 40/115 36/116
f 34/117 35/118 39/119 38/120
