# PROJECT OEN production source mesh: ITM_GENERAL_SUPPLIES_001
mtllib ITM_GENERAL_SUPPLIES_001.mtl
s off
v -0.280000 0.010000 -0.170000
v 0.280000 0.010000 -0.170000
v 0.280000 0.430000 -0.170000
v -0.280000 0.430000 -0.170000
v -0.280000 0.010000 0.170000
v 0.280000 0.010000 0.170000
v 0.280000 0.430000 0.170000
v -0.280000 0.430000 0.170000
v -0.235000 0.140000 -0.197500
v -0.025000 0.140000 -0.197500
v -0.025000 0.300000 -0.197500
v -0.235000 0.300000 -0.197500
v -0.235000 0.140000 -0.162500
v -0.025000 0.140000 -0.162500
v -0.025000 0.300000 -0.162500
v -0.235000 0.300000 -0.162500
v 0.055000 0.140000 -0.197500
v 0.225000 0.140000 -0.197500
v 0.225000 0.300000 -0.197500
v 0.055000 0.300000 -0.197500
v 0.055000 0.140000 -0.162500
v 0.225000 0.140000 -0.162500
v 0.225000 0.300000 -0.162500
v 0.055000 0.300000 -0.162500
v -0.150000 0.412500 0.027500
v -0.150000 0.412500 -0.027500
v -0.150000 0.467500 0.027500
v -0.150000 0.467500 -0.027500
v 0.150000 0.412500 0.027500
v 0.150000 0.412500 -0.027500
v 0.150000 0.467500 0.027500
v 0.150000 0.467500 -0.027500
v -0.177500 0.380000 -0.027500
v -0.177500 0.380000 0.027500
v -0.122500 0.380000 -0.027500
v -0.122500 0.380000 0.027500
v -0.177500 0.470000 -0.027500
v -0.177500 0.470000 0.027500
v -0.122500 0.470000 -0.027500
v -0.122500 0.470000 0.027500
v 0.122500 0.380000 -0.027500
v 0.122500 0.380000 0.027500
v 0.177500 0.380000 -0.027500
v 0.177500 0.380000 0.027500
v 0.122500 0.470000 -0.027500
v 0.122500 0.470000 0.027500
v 0.177500 0.470000 -0.027500
v 0.177500 0.470000 0.027500
v -0.220000 0.400000 -0.110000
v -0.040000 0.400000 -0.110000
v -0.040000 0.520000 -0.110000
v -0.220000 0.520000 -0.110000
v -0.220000 0.400000 0.110000
v -0.040000 0.400000 0.110000
v -0.040000 0.520000 0.110000
v -0.220000 0.520000 0.110000
v 0.050000 0.380000 -0.095000
v 0.210000 0.380000 -0.095000
v 0.210000 0.540000 -0.095000
v 0.050000 0.540000 -0.095000
v 0.050000 0.380000 0.095000
v 0.210000 0.380000 0.095000
v 0.210000 0.540000 0.095000
v 0.050000 0.540000 0.095000
vt 0.000000 0.000000
vt 1.000000 0.000000
vt 1.000000 1.000000
vt 0.000000 1.000000
vt 0.000000 0.000000
vt 1.000000 0.000000
vt 1.000000 1.000000
vt 0.000000 1.000000
vt 0.000000 0.000000
vt 1.000000 0.000000
vt 1.000000 1.000000
vt 0.000000 1.000000
vt 0.000000 0.000000
vt 1.000000 0.000000
vt 1.000000 1.000000
vt 0.000000 1.000000
vt 0.000000 0.000000
vt 1.000000 0.000000
vt 1.000000 1.000000
vt 0.000000 1.000000
vt 0.000000 0.000000
vt 1.000000 0.000000
vt 1.000000 1.000000
vt 0.000000 1.000000
vt 0.000000 0.000000
vt 1.000000 0.000000
vt 1.000000 1.000000
vt 0.000000 1.000000
vt 0.000000 0.000000
vt 1.000000 0.000000
vt 1.000000 1.000000
vt 0.000000 1.000000
vt 0.000000 0.000000
vt 1.000000 0.000000
vt 1.000000 1.000000
vt 0.000000 1.000000
vt 0.000000 0.000000
vt 1.000000 0.000000
vt 1.000000 1.000000
vt 0.000000 1.000000
vt 0.000000 0.000000
vt 1.000000 0.000000
vt 1.000000 1.000000
vt 0.000000 1.000000
vt 0.000000 0.000000
vt 1.000000 0.000000
vt 1.000000 1.000000
vt 0.000000 1.000000
vt 0.000000 0.000000
vt 1.000000 0.000000
vt 1.000000 1.000000
vt 0.000000 1.000000
vt 0.000000 0.000000
vt 1.000000 0.000000
vt 1.000000 1.000000
vt 0.000000 1.000000
vt 0.000000 0.000000
vt 1.000000 0.000000
vt 1.000000 1.000000
vt 0.000000 1.000000
vt 0.000000 0.000000
vt 1.000000 0.000000
vt 1.000000 1.000000
vt 0.000000 1.000000
vt 0.000000 0.000000
vt 1.000000 0.000000
vt 1.000000 1.000000
vt 0.000000 1.000000
vt 0.000000 0.000000
vt 1.000000 0.000000
vt 1.000000 1.000000
vt 0.000000 1.000000
vt 0.000000 0.000000
vt 1.000000 0.000000
vt 1.000000 1.000000
vt 0.000000 1.000000
vt 0.000000 0.000000
vt 1.000000 0.000000
vt 1.000000 1.000000
vt 0.000000 1.000000
vt 0.000000 0.000000
vt 1.000000 0.000000
vt 1.000000 1.000000
vt 0.000000 1.000000
vt 0.000000 0.000000
vt 1.000000 0.000000
vt 1.000000 1.000000
vt 0.000000 1.000000
vt 0.000000 0.000000
vt 1.000000 0.000000
vt 1.000000 1.000000
vt 0.000000 1.000000
vt 0.000000 0.000000
vt 1.000000 0.000000
vt 1.000000 1.000000
vt 0.000000 1.000000
vt 0.000000 0.000000
vt 1.000000 0.000000
vt 1.000000 1.000000
vt 0.000000 1.000000
vt 0.000000 0.000000
vt 1.000000 0.000000
vt 1.000000 1.000000
vt 0.000000 1.000000
vt 0.000000 0.000000
vt 1.000000 0.000000
vt 1.000000 1.000000
vt 0.000000 1.000000
vt 0.000000 0.000000
vt 1.000000 0.000000
vt 1.000000 1.000000
vt 0.000000 1.000000
vt 0.000000 0.000000
vt 1.000000 0.000000
vt 1.000000 1.000000
vt 0.000000 1.000000
vt 0.000000 0.000000
vt 1.000000 0.000000
vt 1.000000 1.000000
vt 0.000000 1.000000
vt 0.000000 0.000000
vt 1.000000 0.000000
vt 1.000000 1.000000
vt 0.000000 1.000000
vt 0.000000 0.000000
vt 1.000000 0.000000
vt 1.000000 1.000000
vt 0.000000 1.000000
vt 0.000000 0.000000
vt 1.000000 0.000000
vt 1.000000 1.000000
vt 0.000000 1.000000
vt 0.000000 0.000000
vt 1.000000 0.000000
vt 1.000000 1.000000
vt 0.000000 1.000000
vt 0.000000 0.000000
vt 1.000000 0.000000
vt 1.000000 1.000000
vt 0.000000 1.000000
vt 0.000000 0.000000
vt 1.000000 0.000000
vt 1.000000 1.000000
vt 0.000000 1.000000
vt 0.000000 0.000000
vt 1.000000 0.000000
vt 1.000000 1.000000
vt 0.000000 1.000000
vt 0.000000 0.000000
vt 1.000000 0.000000
vt 1.000000 1.000000
vt 0.000000 1.000000
vt 0.000000 0.000000
vt 1.000000 0.000000
vt 1.000000 1.000000
vt 0.000000 1.000000
vt 0.000000 0.000000
vt 1.000000 0.000000
vt 1.000000 1.000000
vt 0.000000 1.000000
vt 0.000000 0.000000
vt 1.000000 0.000000
vt 1.000000 1.000000
vt 0.000000 1.000000
vt 0.000000 0.000000
vt 1.000000 0.000000
vt 1.000000 1.000000
vt 0.000000 1.000000
vt 0.000000 0.000000
vt 1.000000 0.000000
vt 1.000000 1.000000
vt 0.000000 1.000000
vt 0.000000 0.000000
vt 1.000000 0.000000
vt 1.000000 1.000000
vt 0.000000 1.000000
vt 0.000000 0.000000
vt 1.000000 0.000000
vt 1.000000 1.000000
vt 0.000000 1.000000
vt 0.000000 0.000000
vt 1.000000 0.000000
vt 1.000000 1.000000
vt 0.000000 1.000000
vt 0.000000 0.000000
vt 1.000000 0.000000
vt 1.000000 1.000000
vt 0.000000 1.000000
vt 0.000000 0.000000
vt 1.000000 0.000000
vt 1.000000 1.000000
vt 0.000000 1.000000
o SharedKitBody
usemtl MAT_METAL
f 1/1 4/2 3/3 2/4
f 5/5 6/6 7/7 8/8
f 1/9 2/10 6/11 5/12
f 4/13 8/14 7/15 3/16
f 1/17 5/18 8/19 4/20
f 2/21 3/22 7/23 6/24
o FrontPocket
f 9/25 12/26 11/27 10/28
f 13/29 14/30 15/31 16/32
f 9/33 10/34 14/35 13/36
f 12/37 16/38 15/39 11/40
f 9/41 13/42 16/43 12/44
f 10/45 11/46 15/47 14/48
f 17/49 20/50 19/51 18/52
f 21/53 22/54 23/55 24/56
f 17/57 18/58 22/59 21/60
f 20/61 24/62 23/63 19/64
f 17/65 21/66 24/67 20/68
f 18/69 19/70 23/71 22/72
o LargeCarryHandle
f 25/73 26/74 28/75 27/76
f 29/77 31/78 32/79 30/80
f 25/81 29/82 30/83 26/84
f 27/85 28/86 32/87 31/88
f 25/89 27/90 31/91 29/92
f 26/93 30/94 32/95 28/96
o HandleMount
f 33/97 34/98 36/99 35/100
f 37/101 39/102 40/103 38/104
f 33/105 37/106 38/107 34/108
f 35/109 36/110 40/111 39/112
f 33/113 35/114 39/115 37/116
f 34/117 38/118 40/119 36/120
f 41/121 42/122 44/123 43/124
f 45/125 47/126 48/127 46/128
f 41/129 45/130 46/131 42/132
f 43/133 44/134 48/135 47/136
f 41/137 43/138 47/139 45/140
f 42/141 46/142 48/143 44/144
o BulkCategoryA
usemtl MAT_CANVAS
f 49/145 52/146 51/147 50/148
f 53/149 54/150 55/151 56/152
f 49/153 50/154 54/155 53/156
f 52/157 56/158 55/159 51/160
f 49/161 53/162 56/163 52/164
f 50/165 51/166 55/167 54/168
o BulkCategoryB
f 57/169 60/170 59/171 58/172
f 61/173 62/174 63/175 64/176
f 57/177 58/178 62/179 61/180
f 60/181 64/182 63/183 59/184
f 57/185 61/186 64/187 60/188
f 58/189 59/190 63/191 62/192
