# PROJECT OEN production source mesh: CHR_HAND_P1_001
mtllib CHR_HAND_P1_001.mtl
s off
v -0.070000 -0.036000 0.035000
v 0.070000 -0.036000 0.035000
v 0.070000 0.036000 0.035000
v -0.070000 0.036000 0.035000
v -0.092000 -0.041000 0.215000
v 0.092000 -0.041000 0.215000
v 0.092000 0.041000 0.215000
v -0.092000 0.041000 0.215000
v -0.075000 -0.042500 -0.067500
v 0.075000 -0.042500 -0.067500
v 0.075000 0.042500 -0.067500
v -0.075000 0.042500 -0.067500
v -0.075000 -0.042500 0.037500
v 0.075000 -0.042500 0.037500
v 0.075000 0.042500 0.037500
v -0.075000 0.042500 0.037500
v -0.084500 -0.017500 0.205000
v -0.049500 -0.017500 0.205000
v -0.084500 0.017500 0.205000
v -0.049500 0.017500 0.205000
v -0.084500 -0.017500 0.325000
v -0.049500 -0.017500 0.325000
v -0.084500 0.017500 0.325000
v -0.049500 0.017500 0.325000
v -0.040500 -0.017500 0.205000
v -0.005500 -0.017500 0.205000
v -0.040500 0.017500 0.205000
v -0.005500 0.017500 0.205000
v -0.040500 -0.017500 0.362000
v -0.005500 -0.017500 0.362000
v -0.040500 0.017500 0.362000
v -0.005500 0.017500 0.362000
v 0.005500 -0.017500 0.205000
v 0.040500 -0.017500 0.205000
v 0.005500 0.017500 0.205000
v 0.040500 0.017500 0.205000
v 0.005500 -0.017500 0.373000
v 0.040500 -0.017500 0.373000
v 0.005500 0.017500 0.373000
v 0.040500 0.017500 0.373000
v 0.049500 -0.017500 0.205000
v 0.084500 -0.017500 0.205000
v 0.049500 0.017500 0.205000
v 0.084500 0.017500 0.205000
v 0.049500 -0.017500 0.344000
v 0.084500 -0.017500 0.344000
v 0.049500 0.017500 0.344000
v 0.084500 0.017500 0.344000
v -0.089474 -0.022500 0.080826
v -0.054526 -0.022500 0.109174
v -0.089474 0.022500 0.080826
v -0.054526 0.022500 0.109174
v -0.162474 -0.022500 0.170826
v -0.127526 -0.022500 0.199174
v -0.162474 0.022500 0.170826
v -0.127526 0.022500 0.199174
v -0.085000 -0.056000 0.172500
v 0.085000 -0.056000 0.172500
v 0.085000 -0.034000 0.172500
v -0.085000 -0.034000 0.172500
v -0.085000 -0.056000 0.237500
v 0.085000 -0.056000 0.237500
v 0.085000 -0.034000 0.237500
v -0.085000 -0.034000 0.237500
v 0.032000 -0.060000 -0.015000
v 0.027713 -0.060000 0.001000
v 0.016000 -0.060000 0.012713
v 0.000000 -0.060000 0.017000
v -0.016000 -0.060000 0.012713
v -0.027713 -0.060000 0.001000
v -0.032000 -0.060000 -0.015000
v -0.027713 -0.060000 -0.031000
v -0.016000 -0.060000 -0.042713
v -0.000000 -0.060000 -0.047000
v 0.016000 -0.060000 -0.042713
v 0.027713 -0.060000 -0.031000
v 0.032000 -0.042000 -0.015000
v 0.027713 -0.042000 0.001000
v 0.016000 -0.042000 0.012713
v 0.000000 -0.042000 0.017000
v -0.016000 -0.042000 0.012713
v -0.027713 -0.042000 0.001000
v -0.032000 -0.042000 -0.015000
v -0.027713 -0.042000 -0.031000
v -0.016000 -0.042000 -0.042713
v -0.000000 -0.042000 -0.047000
v 0.016000 -0.042000 -0.042713
v 0.027713 -0.042000 -0.031000
v -0.070000 -0.036000 0.035000
v 0.070000 -0.036000 0.035000
v 0.070000 0.036000 0.035000
v -0.070000 0.036000 0.035000
v -0.092000 -0.041000 0.215000
v 0.092000 -0.041000 0.215000
v 0.092000 0.041000 0.215000
v -0.092000 0.041000 0.215000
v -0.075000 -0.042500 -0.067500
v 0.075000 -0.042500 -0.067500
v 0.075000 0.042500 -0.067500
v -0.075000 0.042500 -0.067500
v -0.075000 -0.042500 0.037500
v 0.075000 -0.042500 0.037500
v 0.075000 0.042500 0.037500
v -0.075000 0.042500 0.037500
v -0.084500 -0.017500 0.205000
v -0.049500 -0.017500 0.205000
v -0.084500 0.017500 0.205000
v -0.049500 0.017500 0.205000
v -0.084500 -0.017500 0.325000
v -0.049500 -0.017500 0.325000
v -0.084500 0.017500 0.325000
v -0.049500 0.017500 0.325000
v -0.040500 -0.017500 0.205000
v -0.005500 -0.017500 0.205000
v -0.040500 0.017500 0.205000
v -0.005500 0.017500 0.205000
v -0.040500 -0.017500 0.362000
v -0.005500 -0.017500 0.362000
v -0.040500 0.017500 0.362000
v -0.005500 0.017500 0.362000
v 0.005500 -0.017500 0.205000
v 0.040500 -0.017500 0.205000
v 0.005500 0.017500 0.205000
v 0.040500 0.017500 0.205000
v 0.005500 -0.017500 0.373000
v 0.040500 -0.017500 0.373000
v 0.005500 0.017500 0.373000
v 0.040500 0.017500 0.373000
v 0.049500 -0.017500 0.205000
v 0.084500 -0.017500 0.205000
v 0.049500 0.017500 0.205000
v 0.084500 0.017500 0.205000
v 0.049500 -0.017500 0.344000
v 0.084500 -0.017500 0.344000
v 0.049500 0.017500 0.344000
v 0.084500 0.017500 0.344000
v 0.054526 -0.022500 0.109174
v 0.089474 -0.022500 0.080826
v 0.054526 0.022500 0.109174
v 0.089474 0.022500 0.080826
v 0.127526 -0.022500 0.199174
v 0.162474 -0.022500 0.170826
v 0.127526 0.022500 0.199174
v 0.162474 0.022500 0.170826
v -0.085000 -0.056000 0.172500
v 0.085000 -0.056000 0.172500
v 0.085000 -0.034000 0.172500
v -0.085000 -0.034000 0.172500
v -0.085000 -0.056000 0.237500
v 0.085000 -0.056000 0.237500
v 0.085000 -0.034000 0.237500
v -0.085000 -0.034000 0.237500
v 0.032000 -0.060000 -0.015000
v 0.027713 -0.060000 0.001000
v 0.016000 -0.060000 0.012713
v 0.000000 -0.060000 0.017000
v -0.016000 -0.060000 0.012713
v -0.027713 -0.060000 0.001000
v -0.032000 -0.060000 -0.015000
v -0.027713 -0.060000 -0.031000
v -0.016000 -0.060000 -0.042713
v -0.000000 -0.060000 -0.047000
v 0.016000 -0.060000 -0.042713
v 0.027713 -0.060000 -0.031000
v 0.032000 -0.042000 -0.015000
v 0.027713 -0.042000 0.001000
v 0.016000 -0.042000 0.012713
v 0.000000 -0.042000 0.017000
v -0.016000 -0.042000 0.012713
v -0.027713 -0.042000 0.001000
v -0.032000 -0.042000 -0.015000
v -0.027713 -0.042000 -0.031000
v -0.016000 -0.042000 -0.042713
v -0.000000 -0.042000 -0.047000
v 0.016000 -0.042000 -0.042713
v 0.027713 -0.042000 -0.031000
vt 0.000000 0.000000
vt 1.000000 0.000000
vt 1.000000 1.000000
vt 0.000000 1.000000
vt 0.000000 0.000000
vt 1.000000 0.000000
vt 1.000000 1.000000
vt 0.000000 1.000000
vt 0.000000 0.000000
vt 1.000000 0.000000
vt 1.000000 1.000000
vt 0.000000 1.000000
vt 0.000000 0.000000
vt 1.000000 0.000000
vt 1.000000 1.000000
vt 0.000000 1.000000
vt 0.000000 0.000000
vt 1.000000 0.000000
vt 1.000000 1.000000
vt 0.000000 1.000000
vt 0.000000 0.000000
vt 1.000000 0.000000
vt 1.000000 1.000000
vt 0.000000 1.000000
vt 0.000000 0.000000
vt 1.000000 0.000000
vt 1.000000 1.000000
vt 0.000000 1.000000
vt 0.000000 0.000000
vt 1.000000 0.000000
vt 1.000000 1.000000
vt 0.000000 1.000000
vt 0.000000 0.000000
vt 1.000000 0.000000
vt 1.000000 1.000000
vt 0.000000 1.000000
vt 0.000000 0.000000
vt 1.000000 0.000000
vt 1.000000 1.000000
vt 0.000000 1.000000
vt 0.000000 0.000000
vt 1.000000 0.000000
vt 1.000000 1.000000
vt 0.000000 1.000000
vt 0.000000 0.000000
vt 1.000000 0.000000
vt 1.000000 1.000000
vt 0.000000 1.000000
vt 0.000000 0.000000
vt 1.000000 0.000000
vt 1.000000 1.000000
vt 0.000000 1.000000
vt 0.000000 0.000000
vt 1.000000 0.000000
vt 1.000000 1.000000
vt 0.000000 1.000000
vt 0.000000 0.000000
vt 1.000000 0.000000
vt 1.000000 1.000000
vt 0.000000 1.000000
vt 0.000000 0.000000
vt 1.000000 0.000000
vt 1.000000 1.000000
vt 0.000000 1.000000
vt 0.000000 0.000000
vt 1.000000 0.000000
vt 1.000000 1.000000
vt 0.000000 1.000000
vt 0.000000 0.000000
vt 1.000000 0.000000
vt 1.000000 1.000000
vt 0.000000 1.000000
vt 0.000000 0.000000
vt 1.000000 0.000000
vt 1.000000 1.000000
vt 0.000000 1.000000
vt 0.000000 0.000000
vt 1.000000 0.000000
vt 1.000000 1.000000
vt 0.000000 1.000000
vt 0.000000 0.000000
vt 1.000000 0.000000
vt 1.000000 1.000000
vt 0.000000 1.000000
vt 0.000000 0.000000
vt 1.000000 0.000000
vt 1.000000 1.000000
vt 0.000000 1.000000
vt 0.000000 0.000000
vt 1.000000 0.000000
vt 1.000000 1.000000
vt 0.000000 1.000000
vt 0.000000 0.000000
vt 1.000000 0.000000
vt 1.000000 1.000000
vt 0.000000 1.000000
vt 0.000000 0.000000
vt 1.000000 0.000000
vt 1.000000 1.000000
vt 0.000000 1.000000
vt 0.000000 0.000000
vt 1.000000 0.000000
vt 1.000000 1.000000
vt 0.000000 1.000000
vt 0.000000 0.000000
vt 1.000000 0.000000
vt 1.000000 1.000000
vt 0.000000 1.000000
vt 0.000000 0.000000
vt 1.000000 0.000000
vt 1.000000 1.000000
vt 0.000000 1.000000
vt 0.000000 0.000000
vt 1.000000 0.000000
vt 1.000000 1.000000
vt 0.000000 1.000000
vt 0.000000 0.000000
vt 1.000000 0.000000
vt 1.000000 1.000000
vt 0.000000 1.000000
vt 0.000000 0.000000
vt 1.000000 0.000000
vt 1.000000 1.000000
vt 0.000000 1.000000
vt 0.000000 0.000000
vt 1.000000 0.000000
vt 1.000000 1.000000
vt 0.000000 1.000000
vt 0.000000 0.000000
vt 1.000000 0.000000
vt 1.000000 1.000000
vt 0.000000 1.000000
vt 0.000000 0.000000
vt 1.000000 0.000000
vt 1.000000 1.000000
vt 0.000000 1.000000
vt 0.000000 0.000000
vt 1.000000 0.000000
vt 1.000000 1.000000
vt 0.000000 1.000000
vt 0.000000 0.000000
vt 1.000000 0.000000
vt 1.000000 1.000000
vt 0.000000 1.000000
vt 0.000000 0.000000
vt 1.000000 0.000000
vt 1.000000 1.000000
vt 0.000000 1.000000
vt 0.000000 0.000000
vt 1.000000 0.000000
vt 1.000000 1.000000
vt 0.000000 1.000000
vt 0.000000 0.000000
vt 1.000000 0.000000
vt 1.000000 1.000000
vt 0.000000 1.000000
vt 0.000000 0.000000
vt 1.000000 0.000000
vt 1.000000 1.000000
vt 0.000000 1.000000
vt 0.000000 0.000000
vt 1.000000 0.000000
vt 1.000000 1.000000
vt 0.000000 1.000000
vt 0.000000 0.000000
vt 1.000000 0.000000
vt 1.000000 1.000000
vt 0.000000 1.000000
vt 0.000000 0.000000
vt 1.000000 0.000000
vt 1.000000 1.000000
vt 0.000000 1.000000
vt 0.000000 0.000000
vt 1.000000 0.000000
vt 1.000000 1.000000
vt 0.000000 1.000000
vt 0.000000 0.000000
vt 1.000000 0.000000
vt 1.000000 1.000000
vt 0.000000 1.000000
vt 0.000000 0.000000
vt 1.000000 0.000000
vt 1.000000 1.000000
vt 0.000000 1.000000
vt 0.000000 0.000000
vt 1.000000 0.000000
vt 1.000000 1.000000
vt 0.000000 1.000000
vt 0.000000 0.000000
vt 1.000000 0.000000
vt 1.000000 1.000000
vt 0.000000 1.000000
vt 0.000000 0.000000
vt 1.000000 0.000000
vt 1.000000 1.000000
vt 0.000000 1.000000
vt 0.000000 0.000000
vt 1.000000 0.000000
vt 1.000000 1.000000
vt 0.000000 1.000000
vt 0.000000 0.000000
vt 1.000000 0.000000
vt 1.000000 1.000000
vt 0.000000 1.000000
vt 0.000000 0.000000
vt 1.000000 0.000000
vt 1.000000 1.000000
vt 0.000000 1.000000
vt 0.000000 0.000000
vt 1.000000 0.000000
vt 1.000000 1.000000
vt 0.000000 1.000000
vt 0.000000 0.000000
vt 1.000000 0.000000
vt 1.000000 1.000000
vt 0.000000 1.000000
vt 0.000000 0.000000
vt 1.000000 0.000000
vt 1.000000 1.000000
vt 0.000000 1.000000
vt 0.000000 0.000000
vt 1.000000 0.000000
vt 1.000000 1.000000
vt 0.000000 1.000000
vt 0.000000 0.000000
vt 1.000000 0.000000
vt 1.000000 1.000000
vt 0.000000 1.000000
vt 0.000000 0.000000
vt 1.000000 0.000000
vt 1.000000 1.000000
vt 0.000000 1.000000
vt 0.000000 0.000000
vt 1.000000 0.000000
vt 1.000000 1.000000
vt 0.000000 1.000000
vt 0.000000 0.000000
vt 1.000000 0.000000
vt 1.000000 1.000000
vt 0.000000 1.000000
vt 1.000000 0.500000
vt 0.933013 0.750000
vt 0.750000 0.933013
vt 0.500000 1.000000
vt 0.250000 0.933013
vt 0.066987 0.750000
vt 0.000000 0.500000
vt 0.066987 0.250000
vt 0.250000 0.066987
vt 0.500000 0.000000
vt 0.750000 0.066987
vt 0.933013 0.250000
vt 1.000000 0.500000
vt 0.933013 0.750000
vt 0.750000 0.933013
vt 0.500000 1.000000
vt 0.250000 0.933013
vt 0.066987 0.750000
vt 0.000000 0.500000
vt 0.066987 0.250000
vt 0.250000 0.066987
vt 0.500000 0.000000
vt 0.750000 0.066987
vt 0.933013 0.250000
vt 0.000000 0.000000
vt 1.000000 0.000000
vt 1.000000 1.000000
vt 0.000000 1.000000
vt 0.000000 0.000000
vt 1.000000 0.000000
vt 1.000000 1.000000
vt 0.000000 1.000000
vt 0.000000 0.000000
vt 1.000000 0.000000
vt 1.000000 1.000000
vt 0.000000 1.000000
vt 0.000000 0.000000
vt 1.000000 0.000000
vt 1.000000 1.000000
vt 0.000000 1.000000
vt 0.000000 0.000000
vt 1.000000 0.000000
vt 1.000000 1.000000
vt 0.000000 1.000000
vt 0.000000 0.000000
vt 1.000000 0.000000
vt 1.000000 1.000000
vt 0.000000 1.000000
vt 0.000000 0.000000
vt 1.000000 0.000000
vt 1.000000 1.000000
vt 0.000000 1.000000
vt 0.000000 0.000000
vt 1.000000 0.000000
vt 1.000000 1.000000
vt 0.000000 1.000000
vt 0.000000 0.000000
vt 1.000000 0.000000
vt 1.000000 1.000000
vt 0.000000 1.000000
vt 0.000000 0.000000
vt 1.000000 0.000000
vt 1.000000 1.000000
vt 0.000000 1.000000
vt 0.000000 0.000000
vt 1.000000 0.000000
vt 1.000000 1.000000
vt 0.000000 1.000000
vt 0.000000 0.000000
vt 1.000000 0.000000
vt 1.000000 1.000000
vt 0.000000 1.000000
vt 0.000000 0.000000
vt 1.000000 0.000000
vt 1.000000 1.000000
vt 0.000000 1.000000
vt 0.000000 0.000000
vt 1.000000 0.000000
vt 1.000000 1.000000
vt 0.000000 1.000000
vt 0.000000 0.000000
vt 1.000000 0.000000
vt 1.000000 1.000000
vt 0.000000 1.000000
vt 0.000000 0.000000
vt 1.000000 0.000000
vt 1.000000 1.000000
vt 0.000000 1.000000
vt 0.000000 0.000000
vt 1.000000 0.000000
vt 1.000000 1.000000
vt 0.000000 1.000000
vt 0.000000 0.000000
vt 1.000000 0.000000
vt 1.000000 1.000000
vt 0.000000 1.000000
vt 0.000000 0.000000
vt 1.000000 0.000000
vt 1.000000 1.000000
vt 0.000000 1.000000
vt 0.000000 0.000000
vt 1.000000 0.000000
vt 1.000000 1.000000
vt 0.000000 1.000000
vt 0.000000 0.000000
vt 1.000000 0.000000
vt 1.000000 1.000000
vt 0.000000 1.000000
vt 0.000000 0.000000
vt 1.000000 0.000000
vt 1.000000 1.000000
vt 0.000000 1.000000
vt 0.000000 0.000000
vt 1.000000 0.000000
vt 1.000000 1.000000
vt 0.000000 1.000000
vt 0.000000 0.000000
vt 1.000000 0.000000
vt 1.000000 1.000000
vt 0.000000 1.000000
vt 0.000000 0.000000
vt 1.000000 0.000000
vt 1.000000 1.000000
vt 0.000000 1.000000
vt 0.000000 0.000000
vt 1.000000 0.000000
vt 1.000000 1.000000
vt 0.000000 1.000000
vt 0.000000 0.000000
vt 1.000000 0.000000
vt 1.000000 1.000000
vt 0.000000 1.000000
vt 0.000000 0.000000
vt 1.000000 0.000000
vt 1.000000 1.000000
vt 0.000000 1.000000
vt 0.000000 0.000000
vt 1.000000 0.000000
vt 1.000000 1.000000
vt 0.000000 1.000000
vt 0.000000 0.000000
vt 1.000000 0.000000
vt 1.000000 1.000000
vt 0.000000 1.000000
vt 0.000000 0.000000
vt 1.000000 0.000000
vt 1.000000 1.000000
vt 0.000000 1.000000
vt 0.000000 0.000000
vt 1.000000 0.000000
vt 1.000000 1.000000
vt 0.000000 1.000000
vt 0.000000 0.000000
vt 1.000000 0.000000
vt 1.000000 1.000000
vt 0.000000 1.000000
vt 0.000000 0.000000
vt 1.000000 0.000000
vt 1.000000 1.000000
vt 0.000000 1.000000
vt 0.000000 0.000000
vt 1.000000 0.000000
vt 1.000000 1.000000
vt 0.000000 1.000000
vt 0.000000 0.000000
vt 1.000000 0.000000
vt 1.000000 1.000000
vt 0.000000 1.000000
vt 0.000000 0.000000
vt 1.000000 0.000000
vt 1.000000 1.000000
vt 0.000000 1.000000
vt 0.000000 0.000000
vt 1.000000 0.000000
vt 1.000000 1.000000
vt 0.000000 1.000000
vt 0.000000 0.000000
vt 1.000000 0.000000
vt 1.000000 1.000000
vt 0.000000 1.000000
vt 0.000000 0.000000
vt 1.000000 0.000000
vt 1.000000 1.000000
vt 0.000000 1.000000
vt 0.000000 0.000000
vt 1.000000 0.000000
vt 1.000000 1.000000
vt 0.000000 1.000000
vt 0.000000 0.000000
vt 1.000000 0.000000
vt 1.000000 1.000000
vt 0.000000 1.000000
vt 0.000000 0.000000
vt 1.000000 0.000000
vt 1.000000 1.000000
vt 0.000000 1.000000
vt 0.000000 0.000000
vt 1.000000 0.000000
vt 1.000000 1.000000
vt 0.000000 1.000000
vt 0.000000 0.000000
vt 1.000000 0.000000
vt 1.000000 1.000000
vt 0.000000 1.000000
vt 0.000000 0.000000
vt 1.000000 0.000000
vt 1.000000 1.000000
vt 0.000000 1.000000
vt 0.000000 0.000000
vt 1.000000 0.000000
vt 1.000000 1.000000
vt 0.000000 1.000000
vt 0.000000 0.000000
vt 1.000000 0.000000
vt 1.000000 1.000000
vt 0.000000 1.000000
vt 0.000000 0.000000
vt 1.000000 0.000000
vt 1.000000 1.000000
vt 0.000000 1.000000
vt 0.000000 0.000000
vt 1.000000 0.000000
vt 1.000000 1.000000
vt 0.000000 1.000000
vt 0.000000 0.000000
vt 1.000000 0.000000
vt 1.000000 1.000000
vt 0.000000 1.000000
vt 0.000000 0.000000
vt 1.000000 0.000000
vt 1.000000 1.000000
vt 0.000000 1.000000
vt 0.000000 0.000000
vt 1.000000 0.000000
vt 1.000000 1.000000
vt 0.000000 1.000000
vt 0.000000 0.000000
vt 1.000000 0.000000
vt 1.000000 1.000000
vt 0.000000 1.000000
vt 0.000000 0.000000
vt 1.000000 0.000000
vt 1.000000 1.000000
vt 0.000000 1.000000
vt 0.000000 0.000000
vt 1.000000 0.000000
vt 1.000000 1.000000
vt 0.000000 1.000000
vt 0.000000 0.000000
vt 1.000000 0.000000
vt 1.000000 1.000000
vt 0.000000 1.000000
vt 0.000000 0.000000
vt 1.000000 0.000000
vt 1.000000 1.000000
vt 0.000000 1.000000
vt 0.000000 0.000000
vt 1.000000 0.000000
vt 1.000000 1.000000
vt 0.000000 1.000000
vt 0.000000 0.000000
vt 1.000000 0.000000
vt 1.000000 1.000000
vt 0.000000 1.000000
vt 1.000000 0.500000
vt 0.933013 0.750000
vt 0.750000 0.933013
vt 0.500000 1.000000
vt 0.250000 0.933013
vt 0.066987 0.750000
vt 0.000000 0.500000
vt 0.066987 0.250000
vt 0.250000 0.066987
vt 0.500000 0.000000
vt 0.750000 0.066987
vt 0.933013 0.250000
vt 1.000000 0.500000
vt 0.933013 0.750000
vt 0.750000 0.933013
vt 0.500000 1.000000
vt 0.250000 0.933013
vt 0.066987 0.750000
vt 0.000000 0.500000
vt 0.066987 0.250000
vt 0.250000 0.066987
vt 0.500000 0.000000
vt 0.750000 0.066987
vt 0.933013 0.250000
o Left_Palm
usemtl MAT_GLOVE
f 4/1 3/2 2/3 1/4
f 1/5 2/6 6/7 5/8
f 2/9 3/10 7/11 6/12
f 3/13 4/14 8/15 7/16
f 4/17 1/18 5/19 8/20
f 5/21 6/22 7/23 8/24
o Left_Cuff
f 9/25 12/26 11/27 10/28
f 13/29 14/30 15/31 16/32
f 9/33 10/34 14/35 13/36
f 12/37 16/38 15/39 11/40
f 9/41 13/42 16/43 12/44
f 10/45 11/46 15/47 14/48
o Left_Finger_1
f 17/49 18/50 20/51 19/52
f 21/53 23/54 24/55 22/56
f 17/57 21/58 22/59 18/60
f 19/61 20/62 24/63 23/64
f 17/65 19/66 23/67 21/68
f 18/69 22/70 24/71 20/72
o Left_Finger_2
f 25/73 26/74 28/75 27/76
f 29/77 31/78 32/79 30/80
f 25/81 29/82 30/83 26/84
f 27/85 28/86 32/87 31/88
f 25/89 27/90 31/91 29/92
f 26/93 30/94 32/95 28/96
o Left_Finger_3
f 33/97 34/98 36/99 35/100
f 37/101 39/102 40/103 38/104
f 33/105 37/106 38/107 34/108
f 35/109 36/110 40/111 39/112
f 33/113 35/114 39/115 37/116
f 34/117 38/118 40/119 36/120
o Left_Finger_4
f 41/121 42/122 44/123 43/124
f 45/125 47/126 48/127 46/128
f 41/129 45/130 46/131 42/132
f 43/133 44/134 48/135 47/136
f 41/137 43/138 47/139 45/140
f 42/141 46/142 48/143 44/144
o Left_Thumb
f 49/145 50/146 52/147 51/148
f 53/149 55/150 56/151 54/152
f 49/153 53/154 54/155 50/156
f 51/157 52/158 56/159 55/160
f 49/161 51/162 55/163 53/164
f 50/165 54/166 56/167 52/168
o Left_KnucklePad
f 57/169 60/170 59/171 58/172
f 61/173 62/174 63/175 64/176
f 57/177 58/178 62/179 61/180
f 60/181 64/182 63/183 59/184
f 57/185 61/186 64/187 60/188
f 58/189 59/190 63/191 62/192
o Left_RoundPlayerBadge
usemtl MAT_ACCENT
f 65/193 66/194 78/195 77/196
f 66/197 67/198 79/199 78/200
f 67/201 68/202 80/203 79/204
f 68/205 69/206 81/207 80/208
f 69/209 70/210 82/211 81/212
f 70/213 71/214 83/215 82/216
f 71/217 72/218 84/219 83/220
f 72/221 73/222 85/223 84/224
f 73/225 74/226 86/227 85/228
f 74/229 75/230 87/231 86/232
f 75/233 76/234 88/235 87/236
f 76/237 65/238 77/239 88/240
f 76/241 75/242 74/243 73/244 72/245 71/246 70/247 69/248 68/249 67/250 66/251 65/252
f 77/253 78/254 79/255 80/256 81/257 82/258 83/259 84/260 85/261 86/262 87/263 88/264
o Right_Palm
usemtl MAT_GLOVE
f 92/265 91/266 90/267 89/268
f 89/269 90/270 94/271 93/272
f 90/273 91/274 95/275 94/276
f 91/277 92/278 96/279 95/280
f 92/281 89/282 93/283 96/284
f 93/285 94/286 95/287 96/288
o Right_Cuff
f 97/289 100/290 99/291 98/292
f 101/293 102/294 103/295 104/296
f 97/297 98/298 102/299 101/300
f 100/301 104/302 103/303 99/304
f 97/305 101/306 104/307 100/308
f 98/309 99/310 103/311 102/312
o Right_Finger_1
f 105/313 106/314 108/315 107/316
f 109/317 111/318 112/319 110/320
f 105/321 109/322 110/323 106/324
f 107/325 108/326 112/327 111/328
f 105/329 107/330 111/331 109/332
f 106/333 110/334 112/335 108/336
o Right_Finger_2
f 113/337 114/338 116/339 115/340
f 117/341 119/342 120/343 118/344
f 113/345 117/346 118/347 114/348
f 115/349 116/350 120/351 119/352
f 113/353 115/354 119/355 117/356
f 114/357 118/358 120/359 116/360
o Right_Finger_3
f 121/361 122/362 124/363 123/364
f 125/365 127/366 128/367 126/368
f 121/369 125/370 126/371 122/372
f 123/373 124/374 128/375 127/376
f 121/377 123/378 127/379 125/380
f 122/381 126/382 128/383 124/384
o Right_Finger_4
f 129/385 130/386 132/387 131/388
f 133/389 135/390 136/391 134/392
f 129/393 133/394 134/395 130/396
f 131/397 132/398 136/399 135/400
f 129/401 131/402 135/403 133/404
f 130/405 134/406 136/407 132/408
o Right_Thumb
f 137/409 138/410 140/411 139/412
f 141/413 143/414 144/415 142/416
f 137/417 141/418 142/419 138/420
f 139/421 140/422 144/423 143/424
f 137/425 139/426 143/427 141/428
f 138/429 142/430 144/431 140/432
o Right_KnucklePad
f 145/433 148/434 147/435 146/436
f 149/437 150/438 151/439 152/440
f 145/441 146/442 150/443 149/444
f 148/445 152/446 151/447 147/448
f 145/449 149/450 152/451 148/452
f 146/453 147/454 151/455 150/456
o Right_RoundPlayerBadge
usemtl MAT_ACCENT
f 153/457 154/458 166/459 165/460
f 154/461 155/462 167/463 166/464
f 155/465 156/466 168/467 167/468
f 156/469 157/470 169/471 168/472
f 157/473 158/474 170/475 169/476
f 158/477 159/478 171/479 170/480
f 159/481 160/482 172/483 171/484
f 160/485 161/486 173/487 172/488
f 161/489 162/490 174/491 173/492
f 162/493 163/494 175/495 174/496
f 163/497 164/498 176/499 175/500
f 164/501 153/502 165/503 176/504
f 164/505 163/506 162/507 161/508 160/509 159/510 158/511 157/512 156/513 155/514 154/515 153/516
f 165/517 166/518 167/519 168/520 169/521 170/522 171/523 172/524 173/525 174/526 175/527 176/528
