# PROJECT OEN production source mesh: CHR_HAND_P2_001
mtllib CHR_HAND_P2_001.mtl
s off
v -0.070000 -0.036000 0.035000
v 0.070000 -0.036000 0.035000
v 0.070000 0.036000 0.035000
v -0.070000 0.036000 0.035000
v -0.092000 -0.041000 0.215000
v 0.092000 -0.041000 0.215000
v 0.092000 0.041000 0.215000
v -0.092000 0.041000 0.215000
v -0.075000 -0.042500 -0.067500
v 0.075000 -0.042500 -0.067500
v 0.075000 0.042500 -0.067500
v -0.075000 0.042500 -0.067500
v -0.075000 -0.042500 0.037500
v 0.075000 -0.042500 0.037500
v 0.075000 0.042500 0.037500
v -0.075000 0.042500 0.037500
v -0.084500 -0.017500 0.205000
v -0.049500 -0.017500 0.205000
v -0.084500 0.017500 0.205000
v -0.049500 0.017500 0.205000
v -0.084500 -0.017500 0.325000
v -0.049500 -0.017500 0.325000
v -0.084500 0.017500 0.325000
v -0.049500 0.017500 0.325000
v -0.040500 -0.017500 0.205000
v -0.005500 -0.017500 0.205000
v -0.040500 0.017500 0.205000
v -0.005500 0.017500 0.205000
v -0.040500 -0.017500 0.362000
v -0.005500 -0.017500 0.362000
v -0.040500 0.017500 0.362000
v -0.005500 0.017500 0.362000
v 0.005500 -0.017500 0.205000
v 0.040500 -0.017500 0.205000
v 0.005500 0.017500 0.205000
v 0.040500 0.017500 0.205000
v 0.005500 -0.017500 0.373000
v 0.040500 -0.017500 0.373000
v 0.005500 0.017500 0.373000
v 0.040500 0.017500 0.373000
v 0.049500 -0.017500 0.205000
v 0.084500 -0.017500 0.205000
v 0.049500 0.017500 0.205000
v 0.084500 0.017500 0.205000
v 0.049500 -0.017500 0.344000
v 0.084500 -0.017500 0.344000
v 0.049500 0.017500 0.344000
v 0.084500 0.017500 0.344000
v -0.089474 -0.022500 0.080826
v -0.054526 -0.022500 0.109174
v -0.089474 0.022500 0.080826
v -0.054526 0.022500 0.109174
v -0.162474 -0.022500 0.170826
v -0.127526 -0.022500 0.199174
v -0.162474 0.022500 0.170826
v -0.127526 0.022500 0.199174
v -0.085000 -0.056000 0.172500
v 0.085000 -0.056000 0.172500
v 0.085000 -0.034000 0.172500
v -0.085000 -0.034000 0.172500
v -0.085000 -0.056000 0.237500
v 0.085000 -0.056000 0.237500
v 0.085000 -0.034000 0.237500
v -0.085000 -0.034000 0.237500
v -0.031000 -0.060000 -0.046000
v 0.031000 -0.060000 -0.046000
v 0.031000 -0.042000 -0.046000
v -0.031000 -0.042000 -0.046000
v -0.031000 -0.060000 0.016000
v 0.031000 -0.060000 0.016000
v 0.031000 -0.042000 0.016000
v -0.031000 -0.042000 0.016000
v -0.070000 -0.036000 0.035000
v 0.070000 -0.036000 0.035000
v 0.070000 0.036000 0.035000
v -0.070000 0.036000 0.035000
v -0.092000 -0.041000 0.215000
v 0.092000 -0.041000 0.215000
v 0.092000 0.041000 0.215000
v -0.092000 0.041000 0.215000
v -0.075000 -0.042500 -0.067500
v 0.075000 -0.042500 -0.067500
v 0.075000 0.042500 -0.067500
v -0.075000 0.042500 -0.067500
v -0.075000 -0.042500 0.037500
v 0.075000 -0.042500 0.037500
v 0.075000 0.042500 0.037500
v -0.075000 0.042500 0.037500
v -0.084500 -0.017500 0.205000
v -0.049500 -0.017500 0.205000
v -0.084500 0.017500 0.205000
v -0.049500 0.017500 0.205000
v -0.084500 -0.017500 0.325000
v -0.049500 -0.017500 0.325000
v -0.084500 0.017500 0.325000
v -0.049500 0.017500 0.325000
v -0.040500 -0.017500 0.205000
v -0.005500 -0.017500 0.205000
v -0.040500 0.017500 0.205000
v -0.005500 0.017500 0.205000
v -0.040500 -0.017500 0.362000
v -0.005500 -0.017500 0.362000
v -0.040500 0.017500 0.362000
v -0.005500 0.017500 0.362000
v 0.005500 -0.017500 0.205000
v 0.040500 -0.017500 0.205000
v 0.005500 0.017500 0.205000
v 0.040500 0.017500 0.205000
v 0.005500 -0.017500 0.373000
v 0.040500 -0.017500 0.373000
v 0.005500 0.017500 0.373000
v 0.040500 0.017500 0.373000
v 0.049500 -0.017500 0.205000
v 0.084500 -0.017500 0.205000
v 0.049500 0.017500 0.205000
v 0.084500 0.017500 0.205000
v 0.049500 -0.017500 0.344000
v 0.084500 -0.017500 0.344000
v 0.049500 0.017500 0.344000
v 0.084500 0.017500 0.344000
v 0.054526 -0.022500 0.109174
v 0.089474 -0.022500 0.080826
v 0.054526 0.022500 0.109174
v 0.089474 0.022500 0.080826
v 0.127526 -0.022500 0.199174
v 0.162474 -0.022500 0.170826
v 0.127526 0.022500 0.199174
v 0.162474 0.022500 0.170826
v -0.085000 -0.056000 0.172500
v 0.085000 -0.056000 0.172500
v 0.085000 -0.034000 0.172500
v -0.085000 -0.034000 0.172500
v -0.085000 -0.056000 0.237500
v 0.085000 -0.056000 0.237500
v 0.085000 -0.034000 0.237500
v -0.085000 -0.034000 0.237500
v -0.031000 -0.060000 -0.046000
v 0.031000 -0.060000 -0.046000
v 0.031000 -0.042000 -0.046000
v -0.031000 -0.042000 -0.046000
v -0.031000 -0.060000 0.016000
v 0.031000 -0.060000 0.016000
v 0.031000 -0.042000 0.016000
v -0.031000 -0.042000 0.016000
vt 0.000000 0.000000
vt 1.000000 0.000000
vt 1.000000 1.000000
vt 0.000000 1.000000
vt 0.000000 0.000000
vt 1.000000 0.000000
vt 1.000000 1.000000
vt 0.000000 1.000000
vt 0.000000 0.000000
vt 1.000000 0.000000
vt 1.000000 1.000000
vt 0.000000 1.000000
vt 0.000000 0.000000
vt 1.000000 0.000000
vt 1.000000 1.000000
vt 0.000000 1.000000
vt 0.000000 0.000000
vt 1.000000 0.000000
vt 1.000000 1.000000
vt 0.000000 1.000000
vt 0.000000 0.000000
vt 1.000000 0.000000
vt 1.000000 1.000000
vt 0.000000 1.000000
vt 0.000000 0.000000
vt 1.000000 0.000000
vt 1.000000 1.000000
vt 0.000000 1.000000
vt 0.000000 0.000000
vt 1.000000 0.000000
vt 1.000000 1.000000
vt 0.000000 1.000000
vt 0.000000 0.000000
vt 1.000000 0.000000
vt 1.000000 1.000000
vt 0.000000 1.000000
vt 0.000000 0.000000
vt 1.000000 0.000000
vt 1.000000 1.000000
vt 0.000000 1.000000
vt 0.000000 0.000000
vt 1.000000 0.000000
vt 1.000000 1.000000
vt 0.000000 1.000000
vt 0.000000 0.000000
vt 1.000000 0.000000
vt 1.000000 1.000000
vt 0.000000 1.000000
vt 0.000000 0.000000
vt 1.000000 0.000000
vt 1.000000 1.000000
vt 0.000000 1.000000
vt 0.000000 0.000000
vt 1.000000 0.000000
vt 1.000000 1.000000
vt 0.000000 1.000000
vt 0.000000 0.000000
vt 1.000000 0.000000
vt 1.000000 1.000000
vt 0.000000 1.000000
vt 0.000000 0.000000
vt 1.000000 0.000000
vt 1.000000 1.000000
vt 0.000000 1.000000
vt 0.000000 0.000000
vt 1.000000 0.000000
vt 1.000000 1.000000
vt 0.000000 1.000000
vt 0.000000 0.000000
vt 1.000000 0.000000
vt 1.000000 1.000000
vt 0.000000 1.000000
vt 0.000000 0.000000
vt 1.000000 0.000000
vt 1.000000 1.000000
vt 0.000000 1.000000
vt 0.000000 0.000000
vt 1.000000 0.000000
vt 1.000000 1.000000
vt 0.000000 1.000000
vt 0.000000 0.000000
vt 1.000000 0.000000
vt 1.000000 1.000000
vt 0.000000 1.000000
vt 0.000000 0.000000
vt 1.000000 0.000000
vt 1.000000 1.000000
vt 0.000000 1.000000
vt 0.000000 0.000000
vt 1.000000 0.000000
vt 1.000000 1.000000
vt 0.000000 1.000000
vt 0.000000 0.000000
vt 1.000000 0.000000
vt 1.000000 1.000000
vt 0.000000 1.000000
vt 0.000000 0.000000
vt 1.000000 0.000000
vt 1.000000 1.000000
vt 0.000000 1.000000
vt 0.000000 0.000000
vt 1.000000 0.000000
vt 1.000000 1.000000
vt 0.000000 1.000000
vt 0.000000 0.000000
vt 1.000000 0.000000
vt 1.000000 1.000000
vt 0.000000 1.000000
vt 0.000000 0.000000
vt 1.000000 0.000000
vt 1.000000 1.000000
vt 0.000000 1.000000
vt 0.000000 0.000000
vt 1.000000 0.000000
vt 1.000000 1.000000
vt 0.000000 1.000000
vt 0.000000 0.000000
vt 1.000000 0.000000
vt 1.000000 1.000000
vt 0.000000 1.000000
vt 0.000000 0.000000
vt 1.000000 0.000000
vt 1.000000 1.000000
vt 0.000000 1.000000
vt 0.000000 0.000000
vt 1.000000 0.000000
vt 1.000000 1.000000
vt 0.000000 1.000000
vt 0.000000 0.000000
vt 1.000000 0.000000
vt 1.000000 1.000000
vt 0.000000 1.000000
vt 0.000000 0.000000
vt 1.000000 0.000000
vt 1.000000 1.000000
vt 0.000000 1.000000
vt 0.000000 0.000000
vt 1.000000 0.000000
vt 1.000000 1.000000
vt 0.000000 1.000000
vt 0.000000 0.000000
vt 1.000000 0.000000
vt 1.000000 1.000000
vt 0.000000 1.000000
vt 0.000000 0.000000
vt 1.000000 0.000000
vt 1.000000 1.000000
vt 0.000000 1.000000
vt 0.000000 0.000000
vt 1.000000 0.000000
vt 1.000000 1.000000
vt 0.000000 1.000000
vt 0.000000 0.000000
vt 1.000000 0.000000
vt 1.000000 1.000000
vt 0.000000 1.000000
vt 0.000000 0.000000
vt 1.000000 0.000000
vt 1.000000 1.000000
vt 0.000000 1.000000
vt 0.000000 0.000000
vt 1.000000 0.000000
vt 1.000000 1.000000
vt 0.000000 1.000000
vt 0.000000 0.000000
vt 1.000000 0.000000
vt 1.000000 1.000000
vt 0.000000 1.000000
vt 0.000000 0.000000
vt 1.000000 0.000000
vt 1.000000 1.000000
vt 0.000000 1.000000
vt 0.000000 0.000000
vt 1.000000 0.000000
vt 1.000000 1.000000
vt 0.000000 1.000000
vt 0.000000 0.000000
vt 1.000000 0.000000
vt 1.000000 1.000000
vt 0.000000 1.000000
vt 0.000000 0.000000
vt 1.000000 0.000000
vt 1.000000 1.000000
vt 0.000000 1.000000
vt 0.000000 0.000000
vt 1.000000 0.000000
vt 1.000000 1.000000
vt 0.000000 1.000000
vt 0.000000 0.000000
vt 1.000000 0.000000
vt 1.000000 1.000000
vt 0.000000 1.000000
vt 0.000000 0.000000
vt 1.000000 0.000000
vt 1.000000 1.000000
vt 0.000000 1.000000
vt 0.000000 0.000000
vt 1.000000 0.000000
vt 1.000000 1.000000
vt 0.000000 1.000000
vt 0.000000 0.000000
vt 1.000000 0.000000
vt 1.000000 1.000000
vt 0.000000 1.000000
vt 0.000000 0.000000
vt 1.000000 0.000000
vt 1.000000 1.000000
vt 0.000000 1.000000
vt 0.000000 0.000000
vt 1.000000 0.000000
vt 1.000000 1.000000
vt 0.000000 1.000000
vt 0.000000 0.000000
vt 1.000000 0.000000
vt 1.000000 1.000000
vt 0.000000 1.000000
vt 0.000000 0.000000
vt 1.000000 0.000000
vt 1.000000 1.000000
vt 0.000000 1.000000
vt 0.000000 0.000000
vt 1.000000 0.000000
vt 1.000000 1.000000
vt 0.000000 1.000000
vt 0.000000 0.000000
vt 1.000000 0.000000
vt 1.000000 1.000000
vt 0.000000 1.000000
vt 0.000000 0.000000
vt 1.000000 0.000000
vt 1.000000 1.000000
vt 0.000000 1.000000
vt 0.000000 0.000000
vt 1.000000 0.000000
vt 1.000000 1.000000
vt 0.000000 1.000000
vt 0.000000 0.000000
vt 1.000000 0.000000
vt 1.000000 1.000000
vt 0.000000 1.000000
vt 0.000000 0.000000
vt 1.000000 0.000000
vt 1.000000 1.000000
vt 0.000000 1.000000
vt 0.000000 0.000000
vt 1.000000 0.000000
vt 1.000000 1.000000
vt 0.000000 1.000000
vt 0.000000 0.000000
vt 1.000000 0.000000
vt 1.000000 1.000000
vt 0.000000 1.000000
vt 0.000000 0.000000
vt 1.000000 0.000000
vt 1.000000 1.000000
vt 0.000000 1.000000
vt 0.000000 0.000000
vt 1.000000 0.000000
vt 1.000000 1.000000
vt 0.000000 1.000000
vt 0.000000 0.000000
vt 1.000000 0.000000
vt 1.000000 1.000000
vt 0.000000 1.000000
vt 0.000000 0.000000
vt 1.000000 0.000000
vt 1.000000 1.000000
vt 0.000000 1.000000
vt 0.000000 0.000000
vt 1.000000 0.000000
vt 1.000000 1.000000
vt 0.000000 1.000000
vt 0.000000 0.000000
vt 1.000000 0.000000
vt 1.000000 1.000000
vt 0.000000 1.000000
vt 0.000000 0.000000
vt 1.000000 0.000000
vt 1.000000 1.000000
vt 0.000000 1.000000
vt 0.000000 0.000000
vt 1.000000 0.000000
vt 1.000000 1.000000
vt 0.000000 1.000000
vt 0.000000 0.000000
vt 1.000000 0.000000
vt 1.000000 1.000000
vt 0.000000 1.000000
vt 0.000000 0.000000
vt 1.000000 0.000000
vt 1.000000 1.000000
vt 0.000000 1.000000
vt 0.000000 0.000000
vt 1.000000 0.000000
vt 1.000000 1.000000
vt 0.000000 1.000000
vt 0.000000 0.000000
vt 1.000000 0.000000
vt 1.000000 1.000000
vt 0.000000 1.000000
vt 0.000000 0.000000
vt 1.000000 0.000000
vt 1.000000 1.000000
vt 0.000000 1.000000
vt 0.000000 0.000000
vt 1.000000 0.000000
vt 1.000000 1.000000
vt 0.000000 1.000000
vt 0.000000 0.000000
vt 1.000000 0.000000
vt 1.000000 1.000000
vt 0.000000 1.000000
vt 0.000000 0.000000
vt 1.000000 0.000000
vt 1.000000 1.000000
vt 0.000000 1.000000
vt 0.000000 0.000000
vt 1.000000 0.000000
vt 1.000000 1.000000
vt 0.000000 1.000000
vt 0.000000 0.000000
vt 1.000000 0.000000
vt 1.000000 1.000000
vt 0.000000 1.000000
vt 0.000000 0.000000
vt 1.000000 0.000000
vt 1.000000 1.000000
vt 0.000000 1.000000
vt 0.000000 0.000000
vt 1.000000 0.000000
vt 1.000000 1.000000
vt 0.000000 1.000000
vt 0.000000 0.000000
vt 1.000000 0.000000
vt 1.000000 1.000000
vt 0.000000 1.000000
vt 0.000000 0.000000
vt 1.000000 0.000000
vt 1.000000 1.000000
vt 0.000000 1.000000
vt 0.000000 0.000000
vt 1.000000 0.000000
vt 1.000000 1.000000
vt 0.000000 1.000000
vt 0.000000 0.000000
vt 1.000000 0.000000
vt 1.000000 1.000000
vt 0.000000 1.000000
vt 0.000000 0.000000
vt 1.000000 0.000000
vt 1.000000 1.000000
vt 0.000000 1.000000
vt 0.000000 0.000000
vt 1.000000 0.000000
vt 1.000000 1.000000
vt 0.000000 1.000000
vt 0.000000 0.000000
vt 1.000000 0.000000
vt 1.000000 1.000000
vt 0.000000 1.000000
vt 0.000000 0.000000
vt 1.000000 0.000000
vt 1.000000 1.000000
vt 0.000000 1.000000
vt 0.000000 0.000000
vt 1.000000 0.000000
vt 1.000000 1.000000
vt 0.000000 1.000000
vt 0.000000 0.000000
vt 1.000000 0.000000
vt 1.000000 1.000000
vt 0.000000 1.000000
vt 0.000000 0.000000
vt 1.000000 0.000000
vt 1.000000 1.000000
vt 0.000000 1.000000
vt 0.000000 0.000000
vt 1.000000 0.000000
vt 1.000000 1.000000
vt 0.000000 1.000000
vt 0.000000 0.000000
vt 1.000000 0.000000
vt 1.000000 1.000000
vt 0.000000 1.000000
vt 0.000000 0.000000
vt 1.000000 0.000000
vt 1.000000 1.000000
vt 0.000000 1.000000
vt 0.000000 0.000000
vt 1.000000 0.000000
vt 1.000000 1.000000
vt 0.000000 1.000000
vt 0.000000 0.000000
vt 1.000000 0.000000
vt 1.000000 1.000000
vt 0.000000 1.000000
vt 0.000000 0.000000
vt 1.000000 0.000000
vt 1.000000 1.000000
vt 0.000000 1.000000
vt 0.000000 0.000000
vt 1.000000 0.000000
vt 1.000000 1.000000
vt 0.000000 1.000000
vt 0.000000 0.000000
vt 1.000000 0.000000
vt 1.000000 1.000000
vt 0.000000 1.000000
vt 0.000000 0.000000
vt 1.000000 0.000000
vt 1.000000 1.000000
vt 0.000000 1.000000
vt 0.000000 0.000000
vt 1.000000 0.000000
vt 1.000000 1.000000
vt 0.000000 1.000000
vt 0.000000 0.000000
vt 1.000000 0.000000
vt 1.000000 1.000000
vt 0.000000 1.000000
vt 0.000000 0.000000
vt 1.000000 0.000000
vt 1.000000 1.000000
vt 0.000000 1.000000
vt 0.000000 0.000000
vt 1.000000 0.000000
vt 1.000000 1.000000
vt 0.000000 1.000000
vt 0.000000 0.000000
vt 1.000000 0.000000
vt 1.000000 1.000000
vt 0.000000 1.000000
o Left_Palm
usemtl MAT_GLOVE
f 4/1 3/2 2/3 1/4
f 1/5 2/6 6/7 5/8
f 2/9 3/10 7/11 6/12
f 3/13 4/14 8/15 7/16
f 4/17 1/18 5/19 8/20
f 5/21 6/22 7/23 8/24
o Left_Cuff
f 9/25 12/26 11/27 10/28
f 13/29 14/30 15/31 16/32
f 9/33 10/34 14/35 13/36
f 12/37 16/38 15/39 11/40
f 9/41 13/42 16/43 12/44
f 10/45 11/46 15/47 14/48
o Left_Finger_1
f 17/49 18/50 20/51 19/52
f 21/53 23/54 24/55 22/56
f 17/57 21/58 22/59 18/60
f 19/61 20/62 24/63 23/64
f 17/65 19/66 23/67 21/68
f 18/69 22/70 24/71 20/72
o Left_Finger_2
f 25/73 26/74 28/75 27/76
f 29/77 31/78 32/79 30/80
f 25/81 29/82 30/83 26/84
f 27/85 28/86 32/87 31/88
f 25/89 27/90 31/91 29/92
f 26/93 30/94 32/95 28/96
o Left_Finger_3
f 33/97 34/98 36/99 35/100
f 37/101 39/102 40/103 38/104
f 33/105 37/106 38/107 34/108
f 35/109 36/110 40/111 39/112
f 33/113 35/114 39/115 37/116
f 34/117 38/118 40/119 36/120
o Left_Finger_4
f 41/121 42/122 44/123 43/124
f 45/125 47/126 48/127 46/128
f 41/129 45/130 46/131 42/132
f 43/133 44/134 48/135 47/136
f 41/137 43/138 47/139 45/140
f 42/141 46/142 48/143 44/144
o Left_Thumb
f 49/145 50/146 52/147 51/148
f 53/149 55/150 56/151 54/152
f 49/153 53/154 54/155 50/156
f 51/157 52/158 56/159 55/160
f 49/161 51/162 55/163 53/164
f 50/165 54/166 56/167 52/168
o Left_KnucklePad
f 57/169 60/170 59/171 58/172
f 61/173 62/174 63/175 64/176
f 57/177 58/178 62/179 61/180
f 60/181 64/182 63/183 59/184
f 57/185 61/186 64/187 60/188
f 58/189 59/190 63/191 62/192
o Left_SquarePlayerBadge
usemtl MAT_ACCENT
f 65/193 68/194 67/195 66/196
f 69/197 70/198 71/199 72/200
f 65/201 66/202 70/203 69/204
f 68/205 72/206 71/207 67/208
f 65/209 69/210 72/211 68/212
f 66/213 67/214 71/215 70/216
o Right_Palm
usemtl MAT_GLOVE
f 76/217 75/218 74/219 73/220
f 73/221 74/222 78/223 77/224
f 74/225 75/226 79/227 78/228
f 75/229 76/230 80/231 79/232
f 76/233 73/234 77/235 80/236
f 77/237 78/238 79/239 80/240
o Right_Cuff
f 81/241 84/242 83/243 82/244
f 85/245 86/246 87/247 88/248
f 81/249 82/250 86/251 85/252
f 84/253 88/254 87/255 83/256
f 81/257 85/258 88/259 84/260
f 82/261 83/262 87/263 86/264
o Right_Finger_1
f 89/265 90/266 92/267 91/268
f 93/269 95/270 96/271 94/272
f 89/273 93/274 94/275 90/276
f 91/277 92/278 96/279 95/280
f 89/281 91/282 95/283 93/284
f 90/285 94/286 96/287 92/288
o Right_Finger_2
f 97/289 98/290 100/291 99/292
f 101/293 103/294 104/295 102/296
f 97/297 101/298 102/299 98/300
f 99/301 100/302 104/303 103/304
f 97/305 99/306 103/307 101/308
f 98/309 102/310 104/311 100/312
o Right_Finger_3
f 105/313 106/314 108/315 107/316
f 109/317 111/318 112/319 110/320
f 105/321 109/322 110/323 106/324
f 107/325 108/326 112/327 111/328
f 105/329 107/330 111/331 109/332
f 106/333 110/334 112/335 108/336
o Right_Finger_4
f 113/337 114/338 116/339 115/340
f 117/341 119/342 120/343 118/344
f 113/345 117/346 118/347 114/348
f 115/349 116/350 120/351 119/352
f 113/353 115/354 119/355 117/356
f 114/357 118/358 120/359 116/360
o Right_Thumb
f 121/361 122/362 124/363 123/364
f 125/365 127/366 128/367 126/368
f 121/369 125/370 126/371 122/372
f 123/373 124/374 128/375 127/376
f 121/377 123/378 127/379 125/380
f 122/381 126/382 128/383 124/384
o Right_KnucklePad
f 129/385 132/386 131/387 130/388
f 133/389 134/390 135/391 136/392
f 129/393 130/394 134/395 133/396
f 132/397 136/398 135/399 131/400
f 129/401 133/402 136/403 132/404
f 130/405 131/406 135/407 134/408
o Right_SquarePlayerBadge
usemtl MAT_ACCENT
f 137/409 140/410 139/411 138/412
f 141/413 142/414 143/415 144/416
f 137/417 138/418 142/419 141/420
f 140/421 144/422 143/423 139/424
f 137/425 141/426 144/427 140/428
f 138/429 139/430 143/431 142/432
