# PROJECT OEN source mesh
# ID: PRP_FIREPIT_001
# Units: meters; Y up; source reference/greybox mesh
# Approx footprint: 0.86m diameter; stone height 0.16m
# Intent: stable shared fire-state landmark, low seated-readable ring, no manual fire-start mechanic implied.
# Scope: visual/world source only; PO-044 fire-start remains owner-gated.
s off
v 0.4300 0.0000 -0.1200
v 0.4300 0.0000 0.1200
v 0.4300 0.1600 0.1200
v 0.4300 0.1600 -0.1200
v 0.2500 0.0000 -0.1200
v 0.2500 0.0000 0.1200
v 0.2500 0.1600 0.1200
v 0.2500 0.1600 -0.1200
v 0.3889 0.0000 0.2192
v 0.2192 0.0000 0.3889
v 0.2192 0.1600 0.3889
v 0.3889 0.1600 0.2192
v 0.2616 0.0000 0.0919
v 0.0919 0.0000 0.2616
v 0.0919 0.1600 0.2616
v 0.2616 0.1600 0.0919
v 0.1200 0.0000 0.4300
v -0.1200 0.0000 0.4300
v -0.1200 0.1600 0.4300
v 0.1200 0.1600 0.4300
v 0.1200 0.0000 0.2500
v -0.1200 0.0000 0.2500
v -0.1200 0.1600 0.2500
v 0.1200 0.1600 0.2500
v -0.2192 0.0000 0.3889
v -0.3889 0.0000 0.2192
v -0.3889 0.1600 0.2192
v -0.2192 0.1600 0.3889
v -0.0919 0.0000 0.2616
v -0.2616 0.0000 0.0919
v -0.2616 0.1600 0.0919
v -0.0919 0.1600 0.2616
v -0.4300 0.0000 0.1200
v -0.4300 0.0000 -0.1200
v -0.4300 0.1600 -0.1200
v -0.4300 0.1600 0.1200
v -0.2500 0.0000 0.1200
v -0.2500 0.0000 -0.1200
v -0.2500 0.1600 -0.1200
v -0.2500 0.1600 0.1200
v -0.3889 0.0000 -0.2192
v -0.2192 0.0000 -0.3889
v -0.2192 0.1600 -0.3889
v -0.3889 0.1600 -0.2192
v -0.2616 0.0000 -0.0919
v -0.0919 0.0000 -0.2616
v -0.0919 0.1600 -0.2616
v -0.2616 0.1600 -0.0919
v -0.1200 0.0000 -0.4300
v 0.1200 0.0000 -0.4300
v 0.1200 0.1600 -0.4300
v -0.1200 0.1600 -0.4300
v -0.1200 0.0000 -0.2500
v 0.1200 0.0000 -0.2500
v 0.1200 0.1600 -0.2500
v -0.1200 0.1600 -0.2500
v 0.2192 0.0000 -0.3889
v 0.3889 0.0000 -0.2192
v 0.3889 0.1600 -0.2192
v 0.2192 0.1600 -0.3889
v 0.0919 0.0000 -0.2616
v 0.2616 0.0000 -0.0919
v 0.2616 0.1600 -0.0919
v 0.0919 0.1600 -0.2616
v -0.1462 0.0350 -0.1573
v 0.1978 0.0350 0.0836
v 0.1978 0.1050 0.0836
v -0.1462 0.1050 -0.1573
v -0.1978 0.0350 -0.0836
v 0.1462 0.0350 0.1573
v 0.1462 0.1050 0.1573
v -0.1978 0.1050 -0.0836
v -0.1978 0.0400 0.0836
v 0.1462 0.0400 -0.1573
v 0.1462 0.1100 -0.1573
v -0.1978 0.1100 0.0836
v -0.1462 0.0400 0.1573
v 0.1978 0.0400 -0.0836
v 0.1978 0.1100 -0.0836
v -0.1462 0.1100 0.1573
o stone_01
f 1 2 3 4
f 5 8 7 6
f 1 5 6 2
f 2 6 7 3
f 3 7 8 4
f 5 1 4 8
o stone_02
f 9 10 11 12
f 13 16 15 14
f 9 13 14 10
f 10 14 15 11
f 11 15 16 12
f 13 9 12 16
o stone_03
f 17 18 19 20
f 21 24 23 22
f 17 21 22 18
f 18 22 23 19
f 19 23 24 20
f 21 17 20 24
o stone_04
f 25 26 27 28
f 29 32 31 30
f 25 29 30 26
f 26 30 31 27
f 27 31 32 28
f 29 25 28 32
o stone_05
f 33 34 35 36
f 37 40 39 38
f 33 37 38 34
f 34 38 39 35
f 35 39 40 36
f 37 33 36 40
o stone_06
f 41 42 43 44
f 45 48 47 46
f 41 45 46 42
f 42 46 47 43
f 43 47 48 44
f 45 41 44 48
o stone_07
f 49 50 51 52
f 53 56 55 54
f 49 53 54 50
f 50 54 55 51
f 51 55 56 52
f 53 49 52 56
o stone_08
f 57 58 59 60
f 61 64 63 62
f 57 61 62 58
f 58 62 63 59
f 59 63 64 60
f 61 57 60 64
o fuel_reference_a
f 65 66 67 68
f 69 72 71 70
f 65 69 70 66
f 66 70 71 67
f 67 71 72 68
f 69 65 68 72
o fuel_reference_b
f 73 74 75 76
f 77 80 79 78
f 73 77 78 74
f 74 78 79 75
f 75 79 80 76
f 77 73 76 80
