# PROJECT OEN production source mesh: PRP_SIGNAL_FUEL_001
mtllib PRP_SIGNAL_FUEL_001.mtl
s off
v -0.396438 0.095127 -0.050000
v -0.396438 0.095127 -0.150000
v -0.403562 0.194873 -0.050000
v -0.403562 0.194873 -0.150000
v 0.163562 0.135127 -0.050000
v 0.163562 0.135127 -0.150000
v 0.156438 0.234873 -0.050000
v 0.156438 0.234873 -0.150000
v -0.256438 0.140127 0.070000
v -0.256438 0.140127 -0.030000
v -0.263562 0.239873 0.070000
v -0.263562 0.239873 -0.030000
v 0.303562 0.180127 0.070000
v 0.303562 0.180127 -0.030000
v 0.296438 0.279873 0.070000
v 0.296438 0.279873 -0.030000
v -0.136438 0.185127 0.020000
v -0.136438 0.185127 -0.080000
v -0.143562 0.284873 0.020000
v -0.143562 0.284873 -0.080000
v 0.423562 0.225127 0.020000
v 0.423562 0.225127 -0.080000
v 0.416438 0.324873 0.020000
v 0.416438 0.324873 -0.080000
v -0.296438 0.230127 0.180000
v -0.296438 0.230127 0.080000
v -0.303562 0.329873 0.180000
v -0.303562 0.329873 0.080000
v 0.263562 0.270127 0.180000
v 0.263562 0.270127 0.080000
v 0.256438 0.369873 0.180000
v 0.256438 0.369873 0.080000
v -0.075000 0.242500 -0.240000
v 0.075000 0.242500 -0.240000
v 0.075000 0.277500 -0.240000
v -0.075000 0.277500 -0.240000
v -0.075000 0.242500 0.240000
v 0.075000 0.242500 0.240000
v 0.075000 0.277500 0.240000
v -0.075000 0.277500 0.240000
v -0.130000 0.285000 0.025000
v -0.130000 0.285000 -0.025000
v -0.130000 0.335000 0.025000
v -0.130000 0.335000 -0.025000
v 0.130000 0.285000 0.025000
v 0.130000 0.285000 -0.025000
v 0.130000 0.335000 0.025000
v 0.130000 0.335000 -0.025000
vt 0.000000 0.000000
vt 1.000000 0.000000
vt 1.000000 1.000000
vt 0.000000 1.000000
vt 0.000000 0.000000
vt 1.000000 0.000000
vt 1.000000 1.000000
vt 0.000000 1.000000
vt 0.000000 0.000000
vt 1.000000 0.000000
vt 1.000000 1.000000
vt 0.000000 1.000000
vt 0.000000 0.000000
vt 1.000000 0.000000
vt 1.000000 1.000000
vt 0.000000 1.000000
vt 0.000000 0.000000
vt 1.000000 0.000000
vt 1.000000 1.000000
vt 0.000000 1.000000
vt 0.000000 0.000000
vt 1.000000 0.000000
vt 1.000000 1.000000
vt 0.000000 1.000000
vt 0.000000 0.000000
vt 1.000000 0.000000
vt 1.000000 1.000000
vt 0.000000 1.000000
vt 0.000000 0.000000
vt 1.000000 0.000000
vt 1.000000 1.000000
vt 0.000000 1.000000
vt 0.000000 0.000000
vt 1.000000 0.000000
vt 1.000000 1.000000
vt 0.000000 1.000000
vt 0.000000 0.000000
vt 1.000000 0.000000
vt 1.000000 1.000000
vt 0.000000 1.000000
vt 0.000000 0.000000
vt 1.000000 0.000000
vt 1.000000 1.000000
vt 0.000000 1.000000
vt 0.000000 0.000000
vt 1.000000 0.000000
vt 1.000000 1.000000
vt 0.000000 1.000000
vt 0.000000 0.000000
vt 1.000000 0.000000
vt 1.000000 1.000000
vt 0.000000 1.000000
vt 0.000000 0.000000
vt 1.000000 0.000000
vt 1.000000 1.000000
vt 0.000000 1.000000
vt 0.000000 0.000000
vt 1.000000 0.000000
vt 1.000000 1.000000
vt 0.000000 1.000000
vt 0.000000 0.000000
vt 1.000000 0.000000
vt 1.000000 1.000000
vt 0.000000 1.000000
vt 0.000000 0.000000
vt 1.000000 0.000000
vt 1.000000 1.000000
vt 0.000000 1.000000
vt 0.000000 0.000000
vt 1.000000 0.000000
vt 1.000000 1.000000
vt 0.000000 1.000000
vt 0.000000 0.000000
vt 1.000000 0.000000
vt 1.000000 1.000000
vt 0.000000 1.000000
vt 0.000000 0.000000
vt 1.000000 0.000000
vt 1.000000 1.000000
vt 0.000000 1.000000
vt 0.000000 0.000000
vt 1.000000 0.000000
vt 1.000000 1.000000
vt 0.000000 1.000000
vt 0.000000 0.000000
vt 1.000000 0.000000
vt 1.000000 1.000000
vt 0.000000 1.000000
vt 0.000000 0.000000
vt 1.000000 0.000000
vt 1.000000 1.000000
vt 0.000000 1.000000
vt 0.000000 0.000000
vt 1.000000 0.000000
vt 1.000000 1.000000
vt 0.000000 1.000000
vt 0.000000 0.000000
vt 1.000000 0.000000
vt 1.000000 1.000000
vt 0.000000 1.000000
vt 0.000000 0.000000
vt 1.000000 0.000000
vt 1.000000 1.000000
vt 0.000000 1.000000
vt 0.000000 0.000000
vt 1.000000 0.000000
vt 1.000000 1.000000
vt 0.000000 1.000000
vt 0.000000 0.000000
vt 1.000000 0.000000
vt 1.000000 1.000000
vt 0.000000 1.000000
vt 0.000000 0.000000
vt 1.000000 0.000000
vt 1.000000 1.000000
vt 0.000000 1.000000
vt 0.000000 0.000000
vt 1.000000 0.000000
vt 1.000000 1.000000
vt 0.000000 1.000000
vt 0.000000 0.000000
vt 1.000000 0.000000
vt 1.000000 1.000000
vt 0.000000 1.000000
vt 0.000000 0.000000
vt 1.000000 0.000000
vt 1.000000 1.000000
vt 0.000000 1.000000
vt 0.000000 0.000000
vt 1.000000 0.000000
vt 1.000000 1.000000
vt 0.000000 1.000000
vt 0.000000 0.000000
vt 1.000000 0.000000
vt 1.000000 1.000000
vt 0.000000 1.000000
vt 0.000000 0.000000
vt 1.000000 0.000000
vt 1.000000 1.000000
vt 0.000000 1.000000
vt 0.000000 0.000000
vt 1.000000 0.000000
vt 1.000000 1.000000
vt 0.000000 1.000000
o SignalFuelLog_1
usemtl MAT_WOOD
f 1/1 2/2 4/3 3/4
f 5/5 7/6 8/7 6/8
f 1/9 5/10 6/11 2/12
f 3/13 4/14 8/15 7/16
f 1/17 3/18 7/19 5/20
f 2/21 6/22 8/23 4/24
o SignalFuelLog_2
f 9/25 10/26 12/27 11/28
f 13/29 15/30 16/31 14/32
f 9/33 13/34 14/35 10/36
f 11/37 12/38 16/39 15/40
f 9/41 11/42 15/43 13/44
f 10/45 14/46 16/47 12/48
o SignalFuelLog_3
f 17/49 18/50 20/51 19/52
f 21/53 23/54 24/55 22/56
f 17/57 21/58 22/59 18/60
f 19/61 20/62 24/63 23/64
f 17/65 19/66 23/67 21/68
f 18/69 22/70 24/71 20/72
o SignalFuelLog_4
f 25/73 26/74 28/75 27/76
f 29/77 31/78 32/79 30/80
f 25/81 29/82 30/83 26/84
f 27/85 28/86 32/87 31/88
f 25/89 27/90 31/91 29/92
f 26/93 30/94 32/95 28/96
o HighVisibilityCarryWrap
usemtl MAT_CANVAS
f 33/97 36/98 35/99 34/100
f 37/101 38/102 39/103 40/104
f 33/105 34/106 38/107 37/108
f 36/109 40/110 39/111 35/112
f 33/113 37/114 40/115 36/116
f 34/117 35/118 39/119 38/120
o SignalFrameAttachmentLoop
usemtl MAT_METAL
f 41/121 42/122 44/123 43/124
f 45/125 47/126 48/127 46/128
f 41/129 45/130 46/131 42/132
f 43/133 44/134 48/135 47/136
f 41/137 43/138 47/139 45/140
f 42/141 46/142 48/143 44/144
