# PROJECT OEN production source mesh: ENV_JUNGLE_PATH_001
mtllib ENV_JUNGLE_PATH_001.mtl
s off
v -0.725000 0.000000 0.000000
v 0.725000 0.000000 0.000000
v 0.725000 0.000000 3.000000
v -0.725000 0.000000 3.000000
v -0.725000 0.080000 0.000000
v 0.725000 0.080000 0.000000
v 0.725000 0.080000 3.000000
v -0.725000 0.080000 3.000000
v -0.679868 0.000000 3.251803
v 0.679868 0.000000 2.748197
v 1.679868 0.000000 5.448197
v 0.320132 0.000000 5.951803
v -0.679868 0.080000 3.251803
v 0.679868 0.080000 2.748197
v 1.679868 0.080000 5.448197
v 0.320132 0.080000 5.951803
v 0.301450 0.000000 5.505958
v 1.698550 0.000000 5.894042
v 0.948550 0.000000 8.594042
v -0.448550 0.000000 8.205958
v 0.301450 0.080000 5.505958
v 1.698550 0.080000 5.894042
v 0.948550 0.080000 8.594042
v -0.448550 0.080000 8.205958
v -0.475000 0.000000 8.400000
v 0.975000 0.000000 8.400000
v 0.975000 0.000000 10.500000
v -0.475000 0.000000 10.500000
v -0.475000 0.080000 8.400000
v 0.975000 0.080000 8.400000
v 0.975000 0.080000 10.500000
v -0.475000 0.080000 10.500000
v 0.817027 0.000000 5.887838
v 1.082973 0.000000 5.112162
v 2.832973 0.000000 5.712162
v 2.567027 0.000000 6.487838
v 0.817027 0.060000 5.887838
v 1.082973 0.060000 5.112162
v 2.832973 0.060000 5.712162
v 2.567027 0.060000 6.487838
v 2.304447 0.000000 5.992122
v 3.095553 0.000000 6.207878
v 2.795553 0.000000 7.307878
v 2.004447 0.000000 7.092122
v 2.304447 0.060000 5.992122
v 3.095553 0.060000 6.207878
v 2.795553 0.060000 7.307878
v 2.004447 0.060000 7.092122
v 2.273513 0.000000 6.809999
v 2.526487 0.000000 7.590001
v 0.676487 0.000000 8.190001
v 0.423513 0.000000 7.409999
v 2.273513 0.060000 6.809999
v 2.526487 0.060000 7.590001
v 0.676487 0.060000 8.190001
v 0.423513 0.060000 7.409999
v -1.356000 0.000000 0.500000
v -1.410217 0.000000 0.612584
v -1.532043 0.000000 0.640390
v -1.629740 0.000000 0.562479
v -1.629740 0.000000 0.437521
v -1.532043 0.000000 0.359610
v -1.410217 0.000000 0.387416
v -1.410000 2.160000 0.500000
v -1.443886 2.160000 0.570365
v -1.520027 2.160000 0.587744
v -1.581087 2.160000 0.539050
v -1.581087 2.160000 0.460950
v -1.520027 2.160000 0.412256
v -1.443886 2.160000 0.429635
v -1.500000 2.520000 0.500000
v -1.500000 1.530000 0.500000
v -0.852000 2.025000 0.500000
v -1.095979 2.025000 0.950335
v -1.644194 2.025000 1.061558
v -2.083828 2.025000 0.749917
v -2.083828 2.025000 0.250083
v -1.644194 2.025000 -0.061558
v -1.095979 2.025000 0.049665
v -1.338000 2.907000 0.392000
v -1.338000 2.043000 0.392000
v -0.816000 2.475000 0.392000
v -1.012538 2.475000 0.771970
v -1.454156 2.475000 0.865815
v -1.808306 2.475000 0.602867
v -1.808306 2.475000 0.181133
v -1.454156 2.475000 -0.081815
v -1.012538 2.475000 0.012030
v 1.756800 0.000000 0.800000
v 1.697763 0.000000 0.922591
v 1.565109 0.000000 0.952869
v 1.458728 0.000000 0.868033
v 1.458728 0.000000 0.731967
v 1.565109 0.000000 0.647131
v 1.697763 0.000000 0.677409
v 1.698000 2.352000 0.800000
v 1.661102 2.352000 0.876619
v 1.578193 2.352000 0.895543
v 1.511705 2.352000 0.842521
v 1.511705 2.352000 0.757479
v 1.578193 2.352000 0.704457
v 1.661102 2.352000 0.723381
v 1.600000 2.744000 0.800000
v 1.600000 1.666000 0.800000
v 2.305600 2.205000 0.800000
v 2.039934 2.205000 1.290365
v 1.442989 2.205000 1.411475
v 0.964276 2.205000 1.072132
v 0.964276 2.205000 0.527868
v 1.442989 2.205000 0.188525
v 2.039934 2.205000 0.309635
v 1.776400 3.165400 0.682400
v 1.776400 2.224600 0.682400
v 2.344800 2.695000 0.682400
v 2.130792 2.695000 1.096145
v 1.649919 2.695000 1.198332
v 1.264289 2.695000 0.912011
v 1.264289 2.695000 0.452789
v 1.649919 2.695000 0.166468
v 2.130792 2.695000 0.268655
v -1.568800 0.000000 2.500000
v -1.618198 0.000000 2.602576
v -1.729195 0.000000 2.627911
v -1.818207 0.000000 2.556926
v -1.818207 0.000000 2.443074
v -1.729195 0.000000 2.372089
v -1.618198 0.000000 2.397424
v -1.618000 1.968000 2.500000
v -1.648874 1.968000 2.564110
v -1.718247 1.968000 2.579944
v -1.773879 1.968000 2.535578
v -1.773879 1.968000 2.464422
v -1.718247 1.968000 2.420056
v -1.648874 1.968000 2.435890
v -1.700000 2.296000 2.500000
v -1.700000 1.394000 2.500000
v -1.109600 1.845000 2.500000
v -1.331892 1.845000 2.910305
v -1.831376 1.845000 3.011642
v -2.231932 1.845000 2.727702
v -2.231932 1.845000 2.272298
v -1.831376 1.845000 1.988358
v -1.331892 1.845000 2.089695
v -1.552400 2.648600 2.401600
v -1.552400 1.861400 2.401600
v -1.076800 2.255000 2.401600
v -1.255868 2.255000 2.747795
v -1.658231 2.255000 2.833298
v -1.980901 2.255000 2.593724
v -1.980901 2.255000 2.209476
v -1.658231 2.255000 1.969902
v -1.255868 2.255000 2.055405
v 1.944000 0.000000 3.200000
v 1.889783 0.000000 3.312584
v 1.767957 0.000000 3.340390
v 1.670260 0.000000 3.262479
v 1.670260 0.000000 3.137521
v 1.767957 0.000000 3.059610
v 1.889783 0.000000 3.087416
v 1.890000 2.160000 3.200000
v 1.856114 2.160000 3.270365
v 1.779973 2.160000 3.287744
v 1.718913 2.160000 3.239050
v 1.718913 2.160000 3.160950
v 1.779973 2.160000 3.112256
v 1.856114 2.160000 3.129635
v 1.800000 2.520000 3.200000
v 1.800000 1.530000 3.200000
v 2.448000 2.025000 3.200000
v 2.204021 2.025000 3.650335
v 1.655806 2.025000 3.761558
v 1.216172 2.025000 3.449917
v 1.216172 2.025000 2.950083
v 1.655806 2.025000 2.638442
v 2.204021 2.025000 2.749665
v 1.962000 2.907000 3.092000
v 1.962000 2.043000 3.092000
v 2.484000 2.475000 3.092000
v 2.287462 2.475000 3.471970
v 1.845844 2.475000 3.565815
v 1.491694 2.475000 3.302867
v 1.491694 2.475000 2.881133
v 1.845844 2.475000 2.618185
v 2.287462 2.475000 2.712030
v -1.043200 0.000000 4.600000
v -1.102237 0.000000 4.722591
v -1.234891 0.000000 4.752869
v -1.341272 0.000000 4.668033
v -1.341272 0.000000 4.531967
v -1.234891 0.000000 4.447131
v -1.102237 0.000000 4.477409
v -1.102000 2.352000 4.600000
v -1.138898 2.352000 4.676619
v -1.221807 2.352000 4.695543
v -1.288295 2.352000 4.642521
v -1.288295 2.352000 4.557479
v -1.221807 2.352000 4.504457
v -1.138898 2.352000 4.523381
v -1.200000 2.744000 4.600000
v -1.200000 1.666000 4.600000
v -0.494400 2.205000 4.600000
v -0.760066 2.205000 5.090365
v -1.357011 2.205000 5.211475
v -1.835724 2.205000 4.872132
v -1.835724 2.205000 4.327868
v -1.357011 2.205000 3.988525
v -0.760066 2.205000 4.109635
v -1.023600 3.165400 4.482400
v -1.023600 2.224600 4.482400
v -0.455200 2.695000 4.482400
v -0.669208 2.695000 4.896145
v -1.150081 2.695000 4.998332
v -1.535711 2.695000 4.712011
v -1.535711 2.695000 4.252789
v -1.150081 2.695000 3.966468
v -0.669208 2.695000 4.068655
v 2.231200 0.000000 4.400000
v 2.181802 0.000000 4.502576
v 2.070805 0.000000 4.527911
v 1.981793 0.000000 4.456926
v 1.981793 0.000000 4.343074
v 2.070805 0.000000 4.272089
v 2.181802 0.000000 4.297424
v 2.182000 1.968000 4.400000
v 2.151126 1.968000 4.464110
v 2.081753 1.968000 4.479944
v 2.026121 1.968000 4.435578
v 2.026121 1.968000 4.364422
v 2.081753 1.968000 4.320056
v 2.151126 1.968000 4.335890
v 2.100000 2.296000 4.400000
v 2.100000 1.394000 4.400000
v 2.690400 1.845000 4.400000
v 2.468108 1.845000 4.810305
v 1.968624 1.845000 4.911642
v 1.568068 1.845000 4.627702
v 1.568068 1.845000 4.172298
v 1.968624 1.845000 3.888358
v 2.468108 1.845000 3.989695
v 2.247600 2.648600 4.301600
v 2.247600 1.861400 4.301600
v 2.723200 2.255000 4.301600
v 2.544132 2.255000 4.647795
v 2.141769 2.255000 4.733298
v 1.819099 2.255000 4.493724
v 1.819099 2.255000 4.109476
v 2.141769 2.255000 3.869902
v 2.544132 2.255000 3.955405
v -0.856000 0.000000 6.200000
v -0.910217 0.000000 6.312584
v -1.032043 0.000000 6.340390
v -1.129740 0.000000 6.262479
v -1.129740 0.000000 6.137521
v -1.032043 0.000000 6.059610
v -0.910217 0.000000 6.087416
v -0.910000 2.160000 6.200000
v -0.943886 2.160000 6.270365
v -1.020027 2.160000 6.287744
v -1.081087 2.160000 6.239050
v -1.081087 2.160000 6.160950
v -1.020027 2.160000 6.112256
v -0.943886 2.160000 6.129635
v -1.000000 2.520000 6.200000
v -1.000000 1.530000 6.200000
v -0.352000 2.025000 6.200000
v -0.595979 2.025000 6.650335
v -1.144194 2.025000 6.761558
v -1.583828 2.025000 6.449917
v -1.583828 2.025000 5.950083
v -1.144194 2.025000 5.638442
v -0.595979 2.025000 5.749665
v -0.838000 2.907000 6.092000
v -0.838000 2.043000 6.092000
v -0.316000 2.475000 6.092000
v -0.512538 2.475000 6.471970
v -0.954156 2.475000 6.565815
v -1.308306 2.475000 6.302867
v -1.308306 2.475000 5.881133
v -0.954156 2.475000 5.618185
v -0.512538 2.475000 5.712030
v 3.556800 0.000000 6.500000
v 3.497763 0.000000 6.622591
v 3.365109 0.000000 6.652869
v 3.258728 0.000000 6.568033
v 3.258728 0.000000 6.431967
v 3.365109 0.000000 6.347131
v 3.497763 0.000000 6.377409
v 3.498000 2.352000 6.500000
v 3.461102 2.352000 6.576619
v 3.378193 2.352000 6.595543
v 3.311705 2.352000 6.542521
v 3.311705 2.352000 6.457479
v 3.378193 2.352000 6.404457
v 3.461102 2.352000 6.423381
v 3.400000 2.744000 6.500000
v 3.400000 1.666000 6.500000
v 4.105600 2.205000 6.500000
v 3.839934 2.205000 6.990365
v 3.242989 2.205000 7.111475
v 2.764276 2.205000 6.772132
v 2.764276 2.205000 6.227868
v 3.242989 2.205000 5.888525
v 3.839934 2.205000 6.009635
v 3.576400 3.165400 6.382400
v 3.576400 2.224600 6.382400
v 4.144800 2.695000 6.382400
v 3.930792 2.695000 6.796145
v 3.449919 2.695000 6.898332
v 3.064289 2.695000 6.612011
v 3.064289 2.695000 6.152789
v 3.449919 2.695000 5.866468
v 3.930792 2.695000 5.968655
v -1.268800 0.000000 8.000000
v -1.318198 0.000000 8.102576
v -1.429195 0.000000 8.127911
v -1.518207 0.000000 8.056926
v -1.518207 0.000000 7.943074
v -1.429195 0.000000 7.872089
v -1.318198 0.000000 7.897424
v -1.318000 1.968000 8.000000
v -1.348874 1.968000 8.064110
v -1.418247 1.968000 8.079944
v -1.473879 1.968000 8.035578
v -1.473879 1.968000 7.964422
v -1.418247 1.968000 7.920056
v -1.348874 1.968000 7.935890
v -1.400000 2.296000 8.000000
v -1.400000 1.394000 8.000000
v -0.809600 1.845000 8.000000
v -1.031892 1.845000 8.410305
v -1.531376 1.845000 8.511642
v -1.931932 1.845000 8.227702
v -1.931932 1.845000 7.772298
v -1.531376 1.845000 7.488358
v -1.031892 1.845000 7.589695
v -1.252400 2.648600 7.901600
v -1.252400 1.861400 7.901600
v -0.776800 2.255000 7.901600
v -0.955868 2.255000 8.247795
v -1.358231 2.255000 8.333298
v -1.680901 2.255000 8.093724
v -1.680901 2.255000 7.709476
v -1.358231 2.255000 7.469902
v -0.955868 2.255000 7.555405
v 1.944000 0.000000 8.700000
v 1.889783 0.000000 8.812584
v 1.767957 0.000000 8.840390
v 1.670260 0.000000 8.762479
v 1.670260 0.000000 8.637521
v 1.767957 0.000000 8.559610
v 1.889783 0.000000 8.587416
v 1.890000 2.160000 8.700000
v 1.856114 2.160000 8.770365
v 1.779973 2.160000 8.787744
v 1.718913 2.160000 8.739050
v 1.718913 2.160000 8.660950
v 1.779973 2.160000 8.612256
v 1.856114 2.160000 8.629635
v 1.800000 2.520000 8.700000
v 1.800000 1.530000 8.700000
v 2.448000 2.025000 8.700000
v 2.204021 2.025000 9.150335
v 1.655806 2.025000 9.261558
v 1.216172 2.025000 8.949917
v 1.216172 2.025000 8.450083
v 1.655806 2.025000 8.138442
v 2.204021 2.025000 8.249665
v 1.962000 2.907000 8.592000
v 1.962000 2.043000 8.592000
v 2.484000 2.475000 8.592000
v 2.287462 2.475000 8.971970
v 1.845844 2.475000 9.065815
v 1.491694 2.475000 8.802867
v 1.491694 2.475000 8.381133
v 1.845844 2.475000 8.118185
v 2.287462 2.475000 8.212030
v -1.243200 0.000000 10.100000
v -1.302237 0.000000 10.222591
v -1.434891 0.000000 10.252869
v -1.541272 0.000000 10.168033
v -1.541272 0.000000 10.031967
v -1.434891 0.000000 9.947131
v -1.302237 0.000000 9.977409
v -1.302000 2.352000 10.100000
v -1.338898 2.352000 10.176619
v -1.421807 2.352000 10.195543
v -1.488295 2.352000 10.142521
v -1.488295 2.352000 10.057479
v -1.421807 2.352000 10.004457
v -1.338898 2.352000 10.023381
v -1.400000 2.744000 10.100000
v -1.400000 1.666000 10.100000
v -0.694400 2.205000 10.100000
v -0.960066 2.205000 10.590365
v -1.557011 2.205000 10.711475
v -2.035724 2.205000 10.372132
v -2.035724 2.205000 9.827868
v -1.557011 2.205000 9.488525
v -0.960066 2.205000 9.609635
v -1.223600 3.165400 9.982400
v -1.223600 2.224600 9.982400
v -0.655200 2.695000 9.982400
v -0.869208 2.695000 10.396145
v -1.350081 2.695000 10.498332
v -1.735711 2.695000 10.212011
v -1.735711 2.695000 9.752789
v -1.350081 2.695000 9.466468
v -0.869208 2.695000 9.568655
v 1.931200 0.000000 10.400000
v 1.881802 0.000000 10.502576
v 1.770805 0.000000 10.527911
v 1.681793 0.000000 10.456926
v 1.681793 0.000000 10.343074
v 1.770805 0.000000 10.272089
v 1.881802 0.000000 10.297424
v 1.882000 1.968000 10.400000
v 1.851126 1.968000 10.464110
v 1.781753 1.968000 10.479944
v 1.726121 1.968000 10.435578
v 1.726121 1.968000 10.364422
v 1.781753 1.968000 10.320056
v 1.851126 1.968000 10.335890
v 1.800000 2.296000 10.400000
v 1.800000 1.394000 10.400000
v 2.390400 1.845000 10.400000
v 2.168108 1.845000 10.810305
v 1.668624 1.845000 10.911642
v 1.268068 1.845000 10.627702
v 1.268068 1.845000 10.172298
v 1.668624 1.845000 9.888358
v 2.168108 1.845000 9.989695
v 1.947600 2.648600 10.301600
v 1.947600 1.861400 10.301600
v 2.423200 2.255000 10.301600
v 2.244132 2.255000 10.647795
v 1.841769 2.255000 10.733298
v 1.519099 2.255000 10.493724
v 1.519099 2.255000 10.109476
v 1.841769 2.255000 9.869902
v 2.244132 2.255000 9.955405
v -0.670000 0.000000 0.200000
v -0.670000 0.000000 0.300000
v -0.570000 0.000000 0.200000
v -0.570000 0.000000 0.300000
v -0.670000 1.650000 0.200000
v -0.670000 1.650000 0.300000
v -0.570000 1.650000 0.200000
v -0.570000 1.650000 0.300000
v 0.570000 0.000000 0.200000
v 0.570000 0.000000 0.300000
v 0.670000 0.000000 0.200000
v 0.670000 0.000000 0.300000
v 0.570000 1.650000 0.200000
v 0.570000 1.650000 0.300000
v 0.670000 1.650000 0.200000
v 0.670000 1.650000 0.300000
v -0.670000 1.590000 0.310000
v -0.670000 1.590000 0.190000
v -0.670000 1.710000 0.310000
v -0.670000 1.710000 0.190000
v 0.670000 1.590000 0.310000
v 0.670000 1.590000 0.190000
v 0.670000 1.710000 0.310000
v 0.670000 1.710000 0.190000
v -0.670000 0.000000 10.200000
v -0.670000 0.000000 10.300000
v -0.570000 0.000000 10.200000
v -0.570000 0.000000 10.300000
v -0.670000 1.650000 10.200000
v -0.670000 1.650000 10.300000
v -0.570000 1.650000 10.200000
v -0.570000 1.650000 10.300000
v 0.570000 0.000000 10.200000
v 0.570000 0.000000 10.300000
v 0.670000 0.000000 10.200000
v 0.670000 0.000000 10.300000
v 0.570000 1.650000 10.200000
v 0.570000 1.650000 10.300000
v 0.670000 1.650000 10.200000
v 0.670000 1.650000 10.300000
v -0.670000 1.590000 10.310000
v -0.670000 1.590000 10.190000
v -0.670000 1.710000 10.310000
v -0.670000 1.710000 10.190000
v 0.670000 1.590000 10.310000
v 0.670000 1.590000 10.190000
v 0.670000 1.710000 10.310000
v 0.670000 1.710000 10.190000
v 1.651259 0.075009 5.835000
v 1.651259 0.075009 5.665000
v 1.648741 0.244991 5.835000
v 1.648741 0.244991 5.665000
v 3.001259 0.095009 5.835000
v 3.001259 0.095009 5.665000
v 2.998741 0.264991 5.835000
v 2.998741 0.264991 5.665000
v 2.915355 0.095009 5.757855
v 3.084388 0.095009 5.739744
v 2.915612 0.264991 5.760256
v 3.084645 0.264991 5.742145
v 3.065355 0.075009 7.157855
v 3.234388 0.075009 7.139744
v 3.065612 0.244991 7.160256
v 3.234645 0.244991 7.142145
v 2.200000 0.800000 6.250000
v 2.200000 -0.100000 6.250000
v 2.520000 0.350000 6.250000
v 2.399517 0.350000 6.500186
v 2.128793 0.350000 6.561977
v 1.911690 0.350000 6.388843
v 1.911690 0.350000 6.111157
v 2.128793 0.350000 5.938023
v 2.399517 0.350000 5.999814
v 2.800000 0.800000 6.550000
v 2.800000 -0.100000 6.550000
v 3.120000 0.350000 6.550000
v 2.999517 0.350000 6.800186
v 2.728793 0.350000 6.861977
v 2.511690 0.350000 6.688843
v 2.511690 0.350000 6.411157
v 2.728793 0.350000 6.238023
v 2.999517 0.350000 6.299814
v 2.350000 0.800000 6.900000
v 2.350000 -0.100000 6.900000
v 2.670000 0.350000 6.900000
v 2.549517 0.350000 7.150186
v 2.278793 0.350000 7.211977
v 2.061690 0.350000 7.038843
v 2.061690 0.350000 6.761157
v 2.278793 0.350000 6.588023
v 2.549517 0.350000 6.649814
vt 0.000000 0.000000
vt 1.000000 0.000000
vt 1.000000 1.000000
vt 0.000000 1.000000
vt 0.000000 0.000000
vt 1.000000 0.000000
vt 1.000000 1.000000
vt 0.000000 1.000000
vt 0.000000 0.000000
vt 1.000000 0.000000
vt 1.000000 1.000000
vt 0.000000 1.000000
vt 0.000000 0.000000
vt 1.000000 0.000000
vt 1.000000 1.000000
vt 0.000000 1.000000
vt 0.000000 0.000000
vt 1.000000 0.000000
vt 1.000000 1.000000
vt 0.000000 1.000000
vt 0.000000 0.000000
vt 1.000000 0.000000
vt 1.000000 1.000000
vt 0.000000 1.000000
vt 0.000000 0.000000
vt 1.000000 0.000000
vt 1.000000 1.000000
vt 0.000000 1.000000
vt 0.000000 0.000000
vt 1.000000 0.000000
vt 1.000000 1.000000
vt 0.000000 1.000000
vt 0.000000 0.000000
vt 1.000000 0.000000
vt 1.000000 1.000000
vt 0.000000 1.000000
vt 0.000000 0.000000
vt 1.000000 0.000000
vt 1.000000 1.000000
vt 0.000000 1.000000
vt 0.000000 0.000000
vt 1.000000 0.000000
vt 1.000000 1.000000
vt 0.000000 1.000000
vt 0.000000 0.000000
vt 1.000000 0.000000
vt 1.000000 1.000000
vt 0.000000 1.000000
vt 0.000000 0.000000
vt 1.000000 0.000000
vt 1.000000 1.000000
vt 0.000000 1.000000
vt 0.000000 0.000000
vt 1.000000 0.000000
vt 1.000000 1.000000
vt 0.000000 1.000000
vt 0.000000 0.000000
vt 1.000000 0.000000
vt 1.000000 1.000000
vt 0.000000 1.000000
vt 0.000000 0.000000
vt 1.000000 0.000000
vt 1.000000 1.000000
vt 0.000000 1.000000
vt 0.000000 0.000000
vt 1.000000 0.000000
vt 1.000000 1.000000
vt 0.000000 1.000000
vt 0.000000 0.000000
vt 1.000000 0.000000
vt 1.000000 1.000000
vt 0.000000 1.000000
vt 0.000000 0.000000
vt 1.000000 0.000000
vt 1.000000 1.000000
vt 0.000000 1.000000
vt 0.000000 0.000000
vt 1.000000 0.000000
vt 1.000000 1.000000
vt 0.000000 1.000000
vt 0.000000 0.000000
vt 1.000000 0.000000
vt 1.000000 1.000000
vt 0.000000 1.000000
vt 0.000000 0.000000
vt 1.000000 0.000000
vt 1.000000 1.000000
vt 0.000000 1.000000
vt 0.000000 0.000000
vt 1.000000 0.000000
vt 1.000000 1.000000
vt 0.000000 1.000000
vt 0.000000 0.000000
vt 1.000000 0.000000
vt 1.000000 1.000000
vt 0.000000 1.000000
vt 0.000000 0.000000
vt 1.000000 0.000000
vt 1.000000 1.000000
vt 0.000000 1.000000
vt 0.000000 0.000000
vt 1.000000 0.000000
vt 1.000000 1.000000
vt 0.000000 1.000000
vt 0.000000 0.000000
vt 1.000000 0.000000
vt 1.000000 1.000000
vt 0.000000 1.000000
vt 0.000000 0.000000
vt 1.000000 0.000000
vt 1.000000 1.000000
vt 0.000000 1.000000
vt 0.000000 0.000000
vt 1.000000 0.000000
vt 1.000000 1.000000
vt 0.000000 1.000000
vt 0.000000 0.000000
vt 1.000000 0.000000
vt 1.000000 1.000000
vt 0.000000 1.000000
vt 0.000000 0.000000
vt 1.000000 0.000000
vt 1.000000 1.000000
vt 0.000000 1.000000
vt 0.000000 0.000000
vt 1.000000 0.000000
vt 1.000000 1.000000
vt 0.000000 1.000000
vt 0.000000 0.000000
vt 1.000000 0.000000
vt 1.000000 1.000000
vt 0.000000 1.000000
vt 0.000000 0.000000
vt 1.000000 0.000000
vt 1.000000 1.000000
vt 0.000000 1.000000
vt 0.000000 0.000000
vt 1.000000 0.000000
vt 1.000000 1.000000
vt 0.000000 1.000000
vt 0.000000 0.000000
vt 1.000000 0.000000
vt 1.000000 1.000000
vt 0.000000 1.000000
vt 0.000000 0.000000
vt 1.000000 0.000000
vt 1.000000 1.000000
vt 0.000000 1.000000
vt 0.000000 0.000000
vt 1.000000 0.000000
vt 1.000000 1.000000
vt 0.000000 1.000000
vt 0.000000 0.000000
vt 1.000000 0.000000
vt 1.000000 1.000000
vt 0.000000 1.000000
vt 0.000000 0.000000
vt 1.000000 0.000000
vt 1.000000 1.000000
vt 0.000000 1.000000
vt 0.000000 0.000000
vt 1.000000 0.000000
vt 1.000000 1.000000
vt 0.000000 1.000000
vt 0.000000 0.000000
vt 1.000000 0.000000
vt 1.000000 1.000000
vt 0.000000 1.000000
vt 0.000000 0.000000
vt 1.000000 0.000000
vt 1.000000 1.000000
vt 0.000000 1.000000
vt 0.000000 0.000000
vt 1.000000 0.000000
vt 1.000000 1.000000
vt 0.000000 1.000000
vt 0.000000 0.000000
vt 1.000000 0.000000
vt 1.000000 1.000000
vt 0.000000 1.000000
vt 0.000000 0.000000
vt 1.000000 0.000000
vt 1.000000 1.000000
vt 0.000000 1.000000
vt 0.000000 0.000000
vt 1.000000 0.000000
vt 1.000000 1.000000
vt 0.000000 1.000000
vt 0.000000 0.000000
vt 1.000000 0.000000
vt 1.000000 1.000000
vt 0.000000 1.000000
vt 0.000000 0.000000
vt 1.000000 0.000000
vt 1.000000 1.000000
vt 0.000000 1.000000
vt 1.000000 0.500000
vt 0.811745 0.890916
vt 0.388740 0.987464
vt 0.049516 0.716942
vt 0.049516 0.283058
vt 0.388740 0.012536
vt 0.811745 0.109084
vt 1.000000 0.500000
vt 0.811745 0.890916
vt 0.388740 0.987464
vt 0.049516 0.716942
vt 0.049516 0.283058
vt 0.388740 0.012536
vt 0.811745 0.109084
vt 0.000000 0.000000
vt 1.000000 0.000000
vt 1.000000 1.000000
vt 0.000000 0.000000
vt 1.000000 0.000000
vt 1.000000 1.000000
vt 0.000000 0.000000
vt 1.000000 0.000000
vt 1.000000 1.000000
vt 0.000000 0.000000
vt 1.000000 0.000000
vt 1.000000 1.000000
vt 0.000000 0.000000
vt 1.000000 0.000000
vt 1.000000 1.000000
vt 0.000000 0.000000
vt 1.000000 0.000000
vt 1.000000 1.000000
vt 0.000000 0.000000
vt 1.000000 0.000000
vt 1.000000 1.000000
vt 0.000000 0.000000
vt 1.000000 0.000000
vt 1.000000 1.000000
vt 0.000000 0.000000
vt 1.000000 0.000000
vt 1.000000 1.000000
vt 0.000000 0.000000
vt 1.000000 0.000000
vt 1.000000 1.000000
vt 0.000000 0.000000
vt 1.000000 0.000000
vt 1.000000 1.000000
vt 0.000000 0.000000
vt 1.000000 0.000000
vt 1.000000 1.000000
vt 0.000000 0.000000
vt 1.000000 0.000000
vt 1.000000 1.000000
vt 0.000000 0.000000
vt 1.000000 0.000000
vt 1.000000 1.000000
vt 0.000000 0.000000
vt 1.000000 0.000000
vt 1.000000 1.000000
vt 0.000000 0.000000
vt 1.000000 0.000000
vt 1.000000 1.000000
vt 0.000000 0.000000
vt 1.000000 0.000000
vt 1.000000 1.000000
vt 0.000000 0.000000
vt 1.000000 0.000000
vt 1.000000 1.000000
vt 0.000000 0.000000
vt 1.000000 0.000000
vt 1.000000 1.000000
vt 0.000000 0.000000
vt 1.000000 0.000000
vt 1.000000 1.000000
vt 0.000000 0.000000
vt 1.000000 0.000000
vt 1.000000 1.000000
vt 0.000000 0.000000
vt 1.000000 0.000000
vt 1.000000 1.000000
vt 0.000000 0.000000
vt 1.000000 0.000000
vt 1.000000 1.000000
vt 0.000000 0.000000
vt 1.000000 0.000000
vt 1.000000 1.000000
vt 0.000000 0.000000
vt 1.000000 0.000000
vt 1.000000 1.000000
vt 0.000000 0.000000
vt 1.000000 0.000000
vt 1.000000 1.000000
vt 0.000000 0.000000
vt 1.000000 0.000000
vt 1.000000 1.000000
vt 0.000000 0.000000
vt 1.000000 0.000000
vt 1.000000 1.000000
vt 0.000000 0.000000
vt 1.000000 0.000000
vt 1.000000 1.000000
vt 0.000000 1.000000
vt 0.000000 0.000000
vt 1.000000 0.000000
vt 1.000000 1.000000
vt 0.000000 1.000000
vt 0.000000 0.000000
vt 1.000000 0.000000
vt 1.000000 1.000000
vt 0.000000 1.000000
vt 0.000000 0.000000
vt 1.000000 0.000000
vt 1.000000 1.000000
vt 0.000000 1.000000
vt 0.000000 0.000000
vt 1.000000 0.000000
vt 1.000000 1.000000
vt 0.000000 1.000000
vt 0.000000 0.000000
vt 1.000000 0.000000
vt 1.000000 1.000000
vt 0.000000 1.000000
vt 0.000000 0.000000
vt 1.000000 0.000000
vt 1.000000 1.000000
vt 0.000000 1.000000
vt 1.000000 0.500000
vt 0.811745 0.890916
vt 0.388740 0.987464
vt 0.049516 0.716942
vt 0.049516 0.283058
vt 0.388740 0.012536
vt 0.811745 0.109084
vt 1.000000 0.500000
vt 0.811745 0.890916
vt 0.388740 0.987464
vt 0.049516 0.716942
vt 0.049516 0.283058
vt 0.388740 0.012536
vt 0.811745 0.109084
vt 0.000000 0.000000
vt 1.000000 0.000000
vt 1.000000 1.000000
vt 0.000000 0.000000
vt 1.000000 0.000000
vt 1.000000 1.000000
vt 0.000000 0.000000
vt 1.000000 0.000000
vt 1.000000 1.000000
vt 0.000000 0.000000
vt 1.000000 0.000000
vt 1.000000 1.000000
vt 0.000000 0.000000
vt 1.000000 0.000000
vt 1.000000 1.000000
vt 0.000000 0.000000
vt 1.000000 0.000000
vt 1.000000 1.000000
vt 0.000000 0.000000
vt 1.000000 0.000000
vt 1.000000 1.000000
vt 0.000000 0.000000
vt 1.000000 0.000000
vt 1.000000 1.000000
vt 0.000000 0.000000
vt 1.000000 0.000000
vt 1.000000 1.000000
vt 0.000000 0.000000
vt 1.000000 0.000000
vt 1.000000 1.000000
vt 0.000000 0.000000
vt 1.000000 0.000000
vt 1.000000 1.000000
vt 0.000000 0.000000
vt 1.000000 0.000000
vt 1.000000 1.000000
vt 0.000000 0.000000
vt 1.000000 0.000000
vt 1.000000 1.000000
vt 0.000000 0.000000
vt 1.000000 0.000000
vt 1.000000 1.000000
vt 0.000000 0.000000
vt 1.000000 0.000000
vt 1.000000 1.000000
vt 0.000000 0.000000
vt 1.000000 0.000000
vt 1.000000 1.000000
vt 0.000000 0.000000
vt 1.000000 0.000000
vt 1.000000 1.000000
vt 0.000000 0.000000
vt 1.000000 0.000000
vt 1.000000 1.000000
vt 0.000000 0.000000
vt 1.000000 0.000000
vt 1.000000 1.000000
vt 0.000000 0.000000
vt 1.000000 0.000000
vt 1.000000 1.000000
vt 0.000000 0.000000
vt 1.000000 0.000000
vt 1.000000 1.000000
vt 0.000000 0.000000
vt 1.000000 0.000000
vt 1.000000 1.000000
vt 0.000000 0.000000
vt 1.000000 0.000000
vt 1.000000 1.000000
vt 0.000000 0.000000
vt 1.000000 0.000000
vt 1.000000 1.000000
vt 0.000000 0.000000
vt 1.000000 0.000000
vt 1.000000 1.000000
vt 0.000000 0.000000
vt 1.000000 0.000000
vt 1.000000 1.000000
vt 0.000000 0.000000
vt 1.000000 0.000000
vt 1.000000 1.000000
vt 0.000000 0.000000
vt 1.000000 0.000000
vt 1.000000 1.000000
vt 0.000000 0.000000
vt 1.000000 0.000000
vt 1.000000 1.000000
vt 0.000000 1.000000
vt 0.000000 0.000000
vt 1.000000 0.000000
vt 1.000000 1.000000
vt 0.000000 1.000000
vt 0.000000 0.000000
vt 1.000000 0.000000
vt 1.000000 1.000000
vt 0.000000 1.000000
vt 0.000000 0.000000
vt 1.000000 0.000000
vt 1.000000 1.000000
vt 0.000000 1.000000
vt 0.000000 0.000000
vt 1.000000 0.000000
vt 1.000000 1.000000
vt 0.000000 1.000000
vt 0.000000 0.000000
vt 1.000000 0.000000
vt 1.000000 1.000000
vt 0.000000 1.000000
vt 0.000000 0.000000
vt 1.000000 0.000000
vt 1.000000 1.000000
vt 0.000000 1.000000
vt 1.000000 0.500000
vt 0.811745 0.890916
vt 0.388740 0.987464
vt 0.049516 0.716942
vt 0.049516 0.283058
vt 0.388740 0.012536
vt 0.811745 0.109084
vt 1.000000 0.500000
vt 0.811745 0.890916
vt 0.388740 0.987464
vt 0.049516 0.716942
vt 0.049516 0.283058
vt 0.388740 0.012536
vt 0.811745 0.109084
vt 0.000000 0.000000
vt 1.000000 0.000000
vt 1.000000 1.000000
vt 0.000000 0.000000
vt 1.000000 0.000000
vt 1.000000 1.000000
vt 0.000000 0.000000
vt 1.000000 0.000000
vt 1.000000 1.000000
vt 0.000000 0.000000
vt 1.000000 0.000000
vt 1.000000 1.000000
vt 0.000000 0.000000
vt 1.000000 0.000000
vt 1.000000 1.000000
vt 0.000000 0.000000
vt 1.000000 0.000000
vt 1.000000 1.000000
vt 0.000000 0.000000
vt 1.000000 0.000000
vt 1.000000 1.000000
vt 0.000000 0.000000
vt 1.000000 0.000000
vt 1.000000 1.000000
vt 0.000000 0.000000
vt 1.000000 0.000000
vt 1.000000 1.000000
vt 0.000000 0.000000
vt 1.000000 0.000000
vt 1.000000 1.000000
vt 0.000000 0.000000
vt 1.000000 0.000000
vt 1.000000 1.000000
vt 0.000000 0.000000
vt 1.000000 0.000000
vt 1.000000 1.000000
vt 0.000000 0.000000
vt 1.000000 0.000000
vt 1.000000 1.000000
vt 0.000000 0.000000
vt 1.000000 0.000000
vt 1.000000 1.000000
vt 0.000000 0.000000
vt 1.000000 0.000000
vt 1.000000 1.000000
vt 0.000000 0.000000
vt 1.000000 0.000000
vt 1.000000 1.000000
vt 0.000000 0.000000
vt 1.000000 0.000000
vt 1.000000 1.000000
vt 0.000000 0.000000
vt 1.000000 0.000000
vt 1.000000 1.000000
vt 0.000000 0.000000
vt 1.000000 0.000000
vt 1.000000 1.000000
vt 0.000000 0.000000
vt 1.000000 0.000000
vt 1.000000 1.000000
vt 0.000000 0.000000
vt 1.000000 0.000000
vt 1.000000 1.000000
vt 0.000000 0.000000
vt 1.000000 0.000000
vt 1.000000 1.000000
vt 0.000000 0.000000
vt 1.000000 0.000000
vt 1.000000 1.000000
vt 0.000000 0.000000
vt 1.000000 0.000000
vt 1.000000 1.000000
vt 0.000000 0.000000
vt 1.000000 0.000000
vt 1.000000 1.000000
vt 0.000000 0.000000
vt 1.000000 0.000000
vt 1.000000 1.000000
vt 0.000000 0.000000
vt 1.000000 0.000000
vt 1.000000 1.000000
vt 0.000000 0.000000
vt 1.000000 0.000000
vt 1.000000 1.000000
vt 0.000000 0.000000
vt 1.000000 0.000000
vt 1.000000 1.000000
vt 0.000000 1.000000
vt 0.000000 0.000000
vt 1.000000 0.000000
vt 1.000000 1.000000
vt 0.000000 1.000000
vt 0.000000 0.000000
vt 1.000000 0.000000
vt 1.000000 1.000000
vt 0.000000 1.000000
vt 0.000000 0.000000
vt 1.000000 0.000000
vt 1.000000 1.000000
vt 0.000000 1.000000
vt 0.000000 0.000000
vt 1.000000 0.000000
vt 1.000000 1.000000
vt 0.000000 1.000000
vt 0.000000 0.000000
vt 1.000000 0.000000
vt 1.000000 1.000000
vt 0.000000 1.000000
vt 0.000000 0.000000
vt 1.000000 0.000000
vt 1.000000 1.000000
vt 0.000000 1.000000
vt 1.000000 0.500000
vt 0.811745 0.890916
vt 0.388740 0.987464
vt 0.049516 0.716942
vt 0.049516 0.283058
vt 0.388740 0.012536
vt 0.811745 0.109084
vt 1.000000 0.500000
vt 0.811745 0.890916
vt 0.388740 0.987464
vt 0.049516 0.716942
vt 0.049516 0.283058
vt 0.388740 0.012536
vt 0.811745 0.109084
vt 0.000000 0.000000
vt 1.000000 0.000000
vt 1.000000 1.000000
vt 0.000000 0.000000
vt 1.000000 0.000000
vt 1.000000 1.000000
vt 0.000000 0.000000
vt 1.000000 0.000000
vt 1.000000 1.000000
vt 0.000000 0.000000
vt 1.000000 0.000000
vt 1.000000 1.000000
vt 0.000000 0.000000
vt 1.000000 0.000000
vt 1.000000 1.000000
vt 0.000000 0.000000
vt 1.000000 0.000000
vt 1.000000 1.000000
vt 0.000000 0.000000
vt 1.000000 0.000000
vt 1.000000 1.000000
vt 0.000000 0.000000
vt 1.000000 0.000000
vt 1.000000 1.000000
vt 0.000000 0.000000
vt 1.000000 0.000000
vt 1.000000 1.000000
vt 0.000000 0.000000
vt 1.000000 0.000000
vt 1.000000 1.000000
vt 0.000000 0.000000
vt 1.000000 0.000000
vt 1.000000 1.000000
vt 0.000000 0.000000
vt 1.000000 0.000000
vt 1.000000 1.000000
vt 0.000000 0.000000
vt 1.000000 0.000000
vt 1.000000 1.000000
vt 0.000000 0.000000
vt 1.000000 0.000000
vt 1.000000 1.000000
vt 0.000000 0.000000
vt 1.000000 0.000000
vt 1.000000 1.000000
vt 0.000000 0.000000
vt 1.000000 0.000000
vt 1.000000 1.000000
vt 0.000000 0.000000
vt 1.000000 0.000000
vt 1.000000 1.000000
vt 0.000000 0.000000
vt 1.000000 0.000000
vt 1.000000 1.000000
vt 0.000000 0.000000
vt 1.000000 0.000000
vt 1.000000 1.000000
vt 0.000000 0.000000
vt 1.000000 0.000000
vt 1.000000 1.000000
vt 0.000000 0.000000
vt 1.000000 0.000000
vt 1.000000 1.000000
vt 0.000000 0.000000
vt 1.000000 0.000000
vt 1.000000 1.000000
vt 0.000000 0.000000
vt 1.000000 0.000000
vt 1.000000 1.000000
vt 0.000000 0.000000
vt 1.000000 0.000000
vt 1.000000 1.000000
vt 0.000000 0.000000
vt 1.000000 0.000000
vt 1.000000 1.000000
vt 0.000000 0.000000
vt 1.000000 0.000000
vt 1.000000 1.000000
vt 0.000000 0.000000
vt 1.000000 0.000000
vt 1.000000 1.000000
vt 0.000000 0.000000
vt 1.000000 0.000000
vt 1.000000 1.000000
vt 0.000000 0.000000
vt 1.000000 0.000000
vt 1.000000 1.000000
vt 0.000000 1.000000
vt 0.000000 0.000000
vt 1.000000 0.000000
vt 1.000000 1.000000
vt 0.000000 1.000000
vt 0.000000 0.000000
vt 1.000000 0.000000
vt 1.000000 1.000000
vt 0.000000 1.000000
vt 0.000000 0.000000
vt 1.000000 0.000000
vt 1.000000 1.000000
vt 0.000000 1.000000
vt 0.000000 0.000000
vt 1.000000 0.000000
vt 1.000000 1.000000
vt 0.000000 1.000000
vt 0.000000 0.000000
vt 1.000000 0.000000
vt 1.000000 1.000000
vt 0.000000 1.000000
vt 0.000000 0.000000
vt 1.000000 0.000000
vt 1.000000 1.000000
vt 0.000000 1.000000
vt 1.000000 0.500000
vt 0.811745 0.890916
vt 0.388740 0.987464
vt 0.049516 0.716942
vt 0.049516 0.283058
vt 0.388740 0.012536
vt 0.811745 0.109084
vt 1.000000 0.500000
vt 0.811745 0.890916
vt 0.388740 0.987464
vt 0.049516 0.716942
vt 0.049516 0.283058
vt 0.388740 0.012536
vt 0.811745 0.109084
vt 0.000000 0.000000
vt 1.000000 0.000000
vt 1.000000 1.000000
vt 0.000000 0.000000
vt 1.000000 0.000000
vt 1.000000 1.000000
vt 0.000000 0.000000
vt 1.000000 0.000000
vt 1.000000 1.000000
vt 0.000000 0.000000
vt 1.000000 0.000000
vt 1.000000 1.000000
vt 0.000000 0.000000
vt 1.000000 0.000000
vt 1.000000 1.000000
vt 0.000000 0.000000
vt 1.000000 0.000000
vt 1.000000 1.000000
vt 0.000000 0.000000
vt 1.000000 0.000000
vt 1.000000 1.000000
vt 0.000000 0.000000
vt 1.000000 0.000000
vt 1.000000 1.000000
vt 0.000000 0.000000
vt 1.000000 0.000000
vt 1.000000 1.000000
vt 0.000000 0.000000
vt 1.000000 0.000000
vt 1.000000 1.000000
vt 0.000000 0.000000
vt 1.000000 0.000000
vt 1.000000 1.000000
vt 0.000000 0.000000
vt 1.000000 0.000000
vt 1.000000 1.000000
vt 0.000000 0.000000
vt 1.000000 0.000000
vt 1.000000 1.000000
vt 0.000000 0.000000
vt 1.000000 0.000000
vt 1.000000 1.000000
vt 0.000000 0.000000
vt 1.000000 0.000000
vt 1.000000 1.000000
vt 0.000000 0.000000
vt 1.000000 0.000000
vt 1.000000 1.000000
vt 0.000000 0.000000
vt 1.000000 0.000000
vt 1.000000 1.000000
vt 0.000000 0.000000
vt 1.000000 0.000000
vt 1.000000 1.000000
vt 0.000000 0.000000
vt 1.000000 0.000000
vt 1.000000 1.000000
vt 0.000000 0.000000
vt 1.000000 0.000000
vt 1.000000 1.000000
vt 0.000000 0.000000
vt 1.000000 0.000000
vt 1.000000 1.000000
vt 0.000000 0.000000
vt 1.000000 0.000000
vt 1.000000 1.000000
vt 0.000000 0.000000
vt 1.000000 0.000000
vt 1.000000 1.000000
vt 0.000000 0.000000
vt 1.000000 0.000000
vt 1.000000 1.000000
vt 0.000000 0.000000
vt 1.000000 0.000000
vt 1.000000 1.000000
vt 0.000000 0.000000
vt 1.000000 0.000000
vt 1.000000 1.000000
vt 0.000000 0.000000
vt 1.000000 0.000000
vt 1.000000 1.000000
vt 0.000000 0.000000
vt 1.000000 0.000000
vt 1.000000 1.000000
vt 0.000000 0.000000
vt 1.000000 0.000000
vt 1.000000 1.000000
vt 0.000000 1.000000
vt 0.000000 0.000000
vt 1.000000 0.000000
vt 1.000000 1.000000
vt 0.000000 1.000000
vt 0.000000 0.000000
vt 1.000000 0.000000
vt 1.000000 1.000000
vt 0.000000 1.000000
vt 0.000000 0.000000
vt 1.000000 0.000000
vt 1.000000 1.000000
vt 0.000000 1.000000
vt 0.000000 0.000000
vt 1.000000 0.000000
vt 1.000000 1.000000
vt 0.000000 1.000000
vt 0.000000 0.000000
vt 1.000000 0.000000
vt 1.000000 1.000000
vt 0.000000 1.000000
vt 0.000000 0.000000
vt 1.000000 0.000000
vt 1.000000 1.000000
vt 0.000000 1.000000
vt 1.000000 0.500000
vt 0.811745 0.890916
vt 0.388740 0.987464
vt 0.049516 0.716942
vt 0.049516 0.283058
vt 0.388740 0.012536
vt 0.811745 0.109084
vt 1.000000 0.500000
vt 0.811745 0.890916
vt 0.388740 0.987464
vt 0.049516 0.716942
vt 0.049516 0.283058
vt 0.388740 0.012536
vt 0.811745 0.109084
vt 0.000000 0.000000
vt 1.000000 0.000000
vt 1.000000 1.000000
vt 0.000000 0.000000
vt 1.000000 0.000000
vt 1.000000 1.000000
vt 0.000000 0.000000
vt 1.000000 0.000000
vt 1.000000 1.000000
vt 0.000000 0.000000
vt 1.000000 0.000000
vt 1.000000 1.000000
vt 0.000000 0.000000
vt 1.000000 0.000000
vt 1.000000 1.000000
vt 0.000000 0.000000
vt 1.000000 0.000000
vt 1.000000 1.000000
vt 0.000000 0.000000
vt 1.000000 0.000000
vt 1.000000 1.000000
vt 0.000000 0.000000
vt 1.000000 0.000000
vt 1.000000 1.000000
vt 0.000000 0.000000
vt 1.000000 0.000000
vt 1.000000 1.000000
vt 0.000000 0.000000
vt 1.000000 0.000000
vt 1.000000 1.000000
vt 0.000000 0.000000
vt 1.000000 0.000000
vt 1.000000 1.000000
vt 0.000000 0.000000
vt 1.000000 0.000000
vt 1.000000 1.000000
vt 0.000000 0.000000
vt 1.000000 0.000000
vt 1.000000 1.000000
vt 0.000000 0.000000
vt 1.000000 0.000000
vt 1.000000 1.000000
vt 0.000000 0.000000
vt 1.000000 0.000000
vt 1.000000 1.000000
vt 0.000000 0.000000
vt 1.000000 0.000000
vt 1.000000 1.000000
vt 0.000000 0.000000
vt 1.000000 0.000000
vt 1.000000 1.000000
vt 0.000000 0.000000
vt 1.000000 0.000000
vt 1.000000 1.000000
vt 0.000000 0.000000
vt 1.000000 0.000000
vt 1.000000 1.000000
vt 0.000000 0.000000
vt 1.000000 0.000000
vt 1.000000 1.000000
vt 0.000000 0.000000
vt 1.000000 0.000000
vt 1.000000 1.000000
vt 0.000000 0.000000
vt 1.000000 0.000000
vt 1.000000 1.000000
vt 0.000000 0.000000
vt 1.000000 0.000000
vt 1.000000 1.000000
vt 0.000000 0.000000
vt 1.000000 0.000000
vt 1.000000 1.000000
vt 0.000000 0.000000
vt 1.000000 0.000000
vt 1.000000 1.000000
vt 0.000000 0.000000
vt 1.000000 0.000000
vt 1.000000 1.000000
vt 0.000000 0.000000
vt 1.000000 0.000000
vt 1.000000 1.000000
vt 0.000000 0.000000
vt 1.000000 0.000000
vt 1.000000 1.000000
vt 0.000000 0.000000
vt 1.000000 0.000000
vt 1.000000 1.000000
vt 0.000000 1.000000
vt 0.000000 0.000000
vt 1.000000 0.000000
vt 1.000000 1.000000
vt 0.000000 1.000000
vt 0.000000 0.000000
vt 1.000000 0.000000
vt 1.000000 1.000000
vt 0.000000 1.000000
vt 0.000000 0.000000
vt 1.000000 0.000000
vt 1.000000 1.000000
vt 0.000000 1.000000
vt 0.000000 0.000000
vt 1.000000 0.000000
vt 1.000000 1.000000
vt 0.000000 1.000000
vt 0.000000 0.000000
vt 1.000000 0.000000
vt 1.000000 1.000000
vt 0.000000 1.000000
vt 0.000000 0.000000
vt 1.000000 0.000000
vt 1.000000 1.000000
vt 0.000000 1.000000
vt 1.000000 0.500000
vt 0.811745 0.890916
vt 0.388740 0.987464
vt 0.049516 0.716942
vt 0.049516 0.283058
vt 0.388740 0.012536
vt 0.811745 0.109084
vt 1.000000 0.500000
vt 0.811745 0.890916
vt 0.388740 0.987464
vt 0.049516 0.716942
vt 0.049516 0.283058
vt 0.388740 0.012536
vt 0.811745 0.109084
vt 0.000000 0.000000
vt 1.000000 0.000000
vt 1.000000 1.000000
vt 0.000000 0.000000
vt 1.000000 0.000000
vt 1.000000 1.000000
vt 0.000000 0.000000
vt 1.000000 0.000000
vt 1.000000 1.000000
vt 0.000000 0.000000
vt 1.000000 0.000000
vt 1.000000 1.000000
vt 0.000000 0.000000
vt 1.000000 0.000000
vt 1.000000 1.000000
vt 0.000000 0.000000
vt 1.000000 0.000000
vt 1.000000 1.000000
vt 0.000000 0.000000
vt 1.000000 0.000000
vt 1.000000 1.000000
vt 0.000000 0.000000
vt 1.000000 0.000000
vt 1.000000 1.000000
vt 0.000000 0.000000
vt 1.000000 0.000000
vt 1.000000 1.000000
vt 0.000000 0.000000
vt 1.000000 0.000000
vt 1.000000 1.000000
vt 0.000000 0.000000
vt 1.000000 0.000000
vt 1.000000 1.000000
vt 0.000000 0.000000
vt 1.000000 0.000000
vt 1.000000 1.000000
vt 0.000000 0.000000
vt 1.000000 0.000000
vt 1.000000 1.000000
vt 0.000000 0.000000
vt 1.000000 0.000000
vt 1.000000 1.000000
vt 0.000000 0.000000
vt 1.000000 0.000000
vt 1.000000 1.000000
vt 0.000000 0.000000
vt 1.000000 0.000000
vt 1.000000 1.000000
vt 0.000000 0.000000
vt 1.000000 0.000000
vt 1.000000 1.000000
vt 0.000000 0.000000
vt 1.000000 0.000000
vt 1.000000 1.000000
vt 0.000000 0.000000
vt 1.000000 0.000000
vt 1.000000 1.000000
vt 0.000000 0.000000
vt 1.000000 0.000000
vt 1.000000 1.000000
vt 0.000000 0.000000
vt 1.000000 0.000000
vt 1.000000 1.000000
vt 0.000000 0.000000
vt 1.000000 0.000000
vt 1.000000 1.000000
vt 0.000000 0.000000
vt 1.000000 0.000000
vt 1.000000 1.000000
vt 0.000000 0.000000
vt 1.000000 0.000000
vt 1.000000 1.000000
vt 0.000000 0.000000
vt 1.000000 0.000000
vt 1.000000 1.000000
vt 0.000000 0.000000
vt 1.000000 0.000000
vt 1.000000 1.000000
vt 0.000000 0.000000
vt 1.000000 0.000000
vt 1.000000 1.000000
vt 0.000000 0.000000
vt 1.000000 0.000000
vt 1.000000 1.000000
vt 0.000000 0.000000
vt 1.000000 0.000000
vt 1.000000 1.000000
vt 0.000000 1.000000
vt 0.000000 0.000000
vt 1.000000 0.000000
vt 1.000000 1.000000
vt 0.000000 1.000000
vt 0.000000 0.000000
vt 1.000000 0.000000
vt 1.000000 1.000000
vt 0.000000 1.000000
vt 0.000000 0.000000
vt 1.000000 0.000000
vt 1.000000 1.000000
vt 0.000000 1.000000
vt 0.000000 0.000000
vt 1.000000 0.000000
vt 1.000000 1.000000
vt 0.000000 1.000000
vt 0.000000 0.000000
vt 1.000000 0.000000
vt 1.000000 1.000000
vt 0.000000 1.000000
vt 0.000000 0.000000
vt 1.000000 0.000000
vt 1.000000 1.000000
vt 0.000000 1.000000
vt 1.000000 0.500000
vt 0.811745 0.890916
vt 0.388740 0.987464
vt 0.049516 0.716942
vt 0.049516 0.283058
vt 0.388740 0.012536
vt 0.811745 0.109084
vt 1.000000 0.500000
vt 0.811745 0.890916
vt 0.388740 0.987464
vt 0.049516 0.716942
vt 0.049516 0.283058
vt 0.388740 0.012536
vt 0.811745 0.109084
vt 0.000000 0.000000
vt 1.000000 0.000000
vt 1.000000 1.000000
vt 0.000000 0.000000
vt 1.000000 0.000000
vt 1.000000 1.000000
vt 0.000000 0.000000
vt 1.000000 0.000000
vt 1.000000 1.000000
vt 0.000000 0.000000
vt 1.000000 0.000000
vt 1.000000 1.000000
vt 0.000000 0.000000
vt 1.000000 0.000000
vt 1.000000 1.000000
vt 0.000000 0.000000
vt 1.000000 0.000000
vt 1.000000 1.000000
vt 0.000000 0.000000
vt 1.000000 0.000000
vt 1.000000 1.000000
vt 0.000000 0.000000
vt 1.000000 0.000000
vt 1.000000 1.000000
vt 0.000000 0.000000
vt 1.000000 0.000000
vt 1.000000 1.000000
vt 0.000000 0.000000
vt 1.000000 0.000000
vt 1.000000 1.000000
vt 0.000000 0.000000
vt 1.000000 0.000000
vt 1.000000 1.000000
vt 0.000000 0.000000
vt 1.000000 0.000000
vt 1.000000 1.000000
vt 0.000000 0.000000
vt 1.000000 0.000000
vt 1.000000 1.000000
vt 0.000000 0.000000
vt 1.000000 0.000000
vt 1.000000 1.000000
vt 0.000000 0.000000
vt 1.000000 0.000000
vt 1.000000 1.000000
vt 0.000000 0.000000
vt 1.000000 0.000000
vt 1.000000 1.000000
vt 0.000000 0.000000
vt 1.000000 0.000000
vt 1.000000 1.000000
vt 0.000000 0.000000
vt 1.000000 0.000000
vt 1.000000 1.000000
vt 0.000000 0.000000
vt 1.000000 0.000000
vt 1.000000 1.000000
vt 0.000000 0.000000
vt 1.000000 0.000000
vt 1.000000 1.000000
vt 0.000000 0.000000
vt 1.000000 0.000000
vt 1.000000 1.000000
vt 0.000000 0.000000
vt 1.000000 0.000000
vt 1.000000 1.000000
vt 0.000000 0.000000
vt 1.000000 0.000000
vt 1.000000 1.000000
vt 0.000000 0.000000
vt 1.000000 0.000000
vt 1.000000 1.000000
vt 0.000000 0.000000
vt 1.000000 0.000000
vt 1.000000 1.000000
vt 0.000000 0.000000
vt 1.000000 0.000000
vt 1.000000 1.000000
vt 0.000000 0.000000
vt 1.000000 0.000000
vt 1.000000 1.000000
vt 0.000000 0.000000
vt 1.000000 0.000000
vt 1.000000 1.000000
vt 0.000000 0.000000
vt 1.000000 0.000000
vt 1.000000 1.000000
vt 0.000000 1.000000
vt 0.000000 0.000000
vt 1.000000 0.000000
vt 1.000000 1.000000
vt 0.000000 1.000000
vt 0.000000 0.000000
vt 1.000000 0.000000
vt 1.000000 1.000000
vt 0.000000 1.000000
vt 0.000000 0.000000
vt 1.000000 0.000000
vt 1.000000 1.000000
vt 0.000000 1.000000
vt 0.000000 0.000000
vt 1.000000 0.000000
vt 1.000000 1.000000
vt 0.000000 1.000000
vt 0.000000 0.000000
vt 1.000000 0.000000
vt 1.000000 1.000000
vt 0.000000 1.000000
vt 0.000000 0.000000
vt 1.000000 0.000000
vt 1.000000 1.000000
vt 0.000000 1.000000
vt 1.000000 0.500000
vt 0.811745 0.890916
vt 0.388740 0.987464
vt 0.049516 0.716942
vt 0.049516 0.283058
vt 0.388740 0.012536
vt 0.811745 0.109084
vt 1.000000 0.500000
vt 0.811745 0.890916
vt 0.388740 0.987464
vt 0.049516 0.716942
vt 0.049516 0.283058
vt 0.388740 0.012536
vt 0.811745 0.109084
vt 0.000000 0.000000
vt 1.000000 0.000000
vt 1.000000 1.000000
vt 0.000000 0.000000
vt 1.000000 0.000000
vt 1.000000 1.000000
vt 0.000000 0.000000
vt 1.000000 0.000000
vt 1.000000 1.000000
vt 0.000000 0.000000
vt 1.000000 0.000000
vt 1.000000 1.000000
vt 0.000000 0.000000
vt 1.000000 0.000000
vt 1.000000 1.000000
vt 0.000000 0.000000
vt 1.000000 0.000000
vt 1.000000 1.000000
vt 0.000000 0.000000
vt 1.000000 0.000000
vt 1.000000 1.000000
vt 0.000000 0.000000
vt 1.000000 0.000000
vt 1.000000 1.000000
vt 0.000000 0.000000
vt 1.000000 0.000000
vt 1.000000 1.000000
vt 0.000000 0.000000
vt 1.000000 0.000000
vt 1.000000 1.000000
vt 0.000000 0.000000
vt 1.000000 0.000000
vt 1.000000 1.000000
vt 0.000000 0.000000
vt 1.000000 0.000000
vt 1.000000 1.000000
vt 0.000000 0.000000
vt 1.000000 0.000000
vt 1.000000 1.000000
vt 0.000000 0.000000
vt 1.000000 0.000000
vt 1.000000 1.000000
vt 0.000000 0.000000
vt 1.000000 0.000000
vt 1.000000 1.000000
vt 0.000000 0.000000
vt 1.000000 0.000000
vt 1.000000 1.000000
vt 0.000000 0.000000
vt 1.000000 0.000000
vt 1.000000 1.000000
vt 0.000000 0.000000
vt 1.000000 0.000000
vt 1.000000 1.000000
vt 0.000000 0.000000
vt 1.000000 0.000000
vt 1.000000 1.000000
vt 0.000000 0.000000
vt 1.000000 0.000000
vt 1.000000 1.000000
vt 0.000000 0.000000
vt 1.000000 0.000000
vt 1.000000 1.000000
vt 0.000000 0.000000
vt 1.000000 0.000000
vt 1.000000 1.000000
vt 0.000000 0.000000
vt 1.000000 0.000000
vt 1.000000 1.000000
vt 0.000000 0.000000
vt 1.000000 0.000000
vt 1.000000 1.000000
vt 0.000000 0.000000
vt 1.000000 0.000000
vt 1.000000 1.000000
vt 0.000000 0.000000
vt 1.000000 0.000000
vt 1.000000 1.000000
vt 0.000000 0.000000
vt 1.000000 0.000000
vt 1.000000 1.000000
vt 0.000000 0.000000
vt 1.000000 0.000000
vt 1.000000 1.000000
vt 0.000000 0.000000
vt 1.000000 0.000000
vt 1.000000 1.000000
vt 0.000000 1.000000
vt 0.000000 0.000000
vt 1.000000 0.000000
vt 1.000000 1.000000
vt 0.000000 1.000000
vt 0.000000 0.000000
vt 1.000000 0.000000
vt 1.000000 1.000000
vt 0.000000 1.000000
vt 0.000000 0.000000
vt 1.000000 0.000000
vt 1.000000 1.000000
vt 0.000000 1.000000
vt 0.000000 0.000000
vt 1.000000 0.000000
vt 1.000000 1.000000
vt 0.000000 1.000000
vt 0.000000 0.000000
vt 1.000000 0.000000
vt 1.000000 1.000000
vt 0.000000 1.000000
vt 0.000000 0.000000
vt 1.000000 0.000000
vt 1.000000 1.000000
vt 0.000000 1.000000
vt 1.000000 0.500000
vt 0.811745 0.890916
vt 0.388740 0.987464
vt 0.049516 0.716942
vt 0.049516 0.283058
vt 0.388740 0.012536
vt 0.811745 0.109084
vt 1.000000 0.500000
vt 0.811745 0.890916
vt 0.388740 0.987464
vt 0.049516 0.716942
vt 0.049516 0.283058
vt 0.388740 0.012536
vt 0.811745 0.109084
vt 0.000000 0.000000
vt 1.000000 0.000000
vt 1.000000 1.000000
vt 0.000000 0.000000
vt 1.000000 0.000000
vt 1.000000 1.000000
vt 0.000000 0.000000
vt 1.000000 0.000000
vt 1.000000 1.000000
vt 0.000000 0.000000
vt 1.000000 0.000000
vt 1.000000 1.000000
vt 0.000000 0.000000
vt 1.000000 0.000000
vt 1.000000 1.000000
vt 0.000000 0.000000
vt 1.000000 0.000000
vt 1.000000 1.000000
vt 0.000000 0.000000
vt 1.000000 0.000000
vt 1.000000 1.000000
vt 0.000000 0.000000
vt 1.000000 0.000000
vt 1.000000 1.000000
vt 0.000000 0.000000
vt 1.000000 0.000000
vt 1.000000 1.000000
vt 0.000000 0.000000
vt 1.000000 0.000000
vt 1.000000 1.000000
vt 0.000000 0.000000
vt 1.000000 0.000000
vt 1.000000 1.000000
vt 0.000000 0.000000
vt 1.000000 0.000000
vt 1.000000 1.000000
vt 0.000000 0.000000
vt 1.000000 0.000000
vt 1.000000 1.000000
vt 0.000000 0.000000
vt 1.000000 0.000000
vt 1.000000 1.000000
vt 0.000000 0.000000
vt 1.000000 0.000000
vt 1.000000 1.000000
vt 0.000000 0.000000
vt 1.000000 0.000000
vt 1.000000 1.000000
vt 0.000000 0.000000
vt 1.000000 0.000000
vt 1.000000 1.000000
vt 0.000000 0.000000
vt 1.000000 0.000000
vt 1.000000 1.000000
vt 0.000000 0.000000
vt 1.000000 0.000000
vt 1.000000 1.000000
vt 0.000000 0.000000
vt 1.000000 0.000000
vt 1.000000 1.000000
vt 0.000000 0.000000
vt 1.000000 0.000000
vt 1.000000 1.000000
vt 0.000000 0.000000
vt 1.000000 0.000000
vt 1.000000 1.000000
vt 0.000000 0.000000
vt 1.000000 0.000000
vt 1.000000 1.000000
vt 0.000000 0.000000
vt 1.000000 0.000000
vt 1.000000 1.000000
vt 0.000000 0.000000
vt 1.000000 0.000000
vt 1.000000 1.000000
vt 0.000000 0.000000
vt 1.000000 0.000000
vt 1.000000 1.000000
vt 0.000000 0.000000
vt 1.000000 0.000000
vt 1.000000 1.000000
vt 0.000000 0.000000
vt 1.000000 0.000000
vt 1.000000 1.000000
vt 0.000000 0.000000
vt 1.000000 0.000000
vt 1.000000 1.000000
vt 0.000000 1.000000
vt 0.000000 0.000000
vt 1.000000 0.000000
vt 1.000000 1.000000
vt 0.000000 1.000000
vt 0.000000 0.000000
vt 1.000000 0.000000
vt 1.000000 1.000000
vt 0.000000 1.000000
vt 0.000000 0.000000
vt 1.000000 0.000000
vt 1.000000 1.000000
vt 0.000000 1.000000
vt 0.000000 0.000000
vt 1.000000 0.000000
vt 1.000000 1.000000
vt 0.000000 1.000000
vt 0.000000 0.000000
vt 1.000000 0.000000
vt 1.000000 1.000000
vt 0.000000 1.000000
vt 0.000000 0.000000
vt 1.000000 0.000000
vt 1.000000 1.000000
vt 0.000000 1.000000
vt 1.000000 0.500000
vt 0.811745 0.890916
vt 0.388740 0.987464
vt 0.049516 0.716942
vt 0.049516 0.283058
vt 0.388740 0.012536
vt 0.811745 0.109084
vt 1.000000 0.500000
vt 0.811745 0.890916
vt 0.388740 0.987464
vt 0.049516 0.716942
vt 0.049516 0.283058
vt 0.388740 0.012536
vt 0.811745 0.109084
vt 0.000000 0.000000
vt 1.000000 0.000000
vt 1.000000 1.000000
vt 0.000000 0.000000
vt 1.000000 0.000000
vt 1.000000 1.000000
vt 0.000000 0.000000
vt 1.000000 0.000000
vt 1.000000 1.000000
vt 0.000000 0.000000
vt 1.000000 0.000000
vt 1.000000 1.000000
vt 0.000000 0.000000
vt 1.000000 0.000000
vt 1.000000 1.000000
vt 0.000000 0.000000
vt 1.000000 0.000000
vt 1.000000 1.000000
vt 0.000000 0.000000
vt 1.000000 0.000000
vt 1.000000 1.000000
vt 0.000000 0.000000
vt 1.000000 0.000000
vt 1.000000 1.000000
vt 0.000000 0.000000
vt 1.000000 0.000000
vt 1.000000 1.000000
vt 0.000000 0.000000
vt 1.000000 0.000000
vt 1.000000 1.000000
vt 0.000000 0.000000
vt 1.000000 0.000000
vt 1.000000 1.000000
vt 0.000000 0.000000
vt 1.000000 0.000000
vt 1.000000 1.000000
vt 0.000000 0.000000
vt 1.000000 0.000000
vt 1.000000 1.000000
vt 0.000000 0.000000
vt 1.000000 0.000000
vt 1.000000 1.000000
vt 0.000000 0.000000
vt 1.000000 0.000000
vt 1.000000 1.000000
vt 0.000000 0.000000
vt 1.000000 0.000000
vt 1.000000 1.000000
vt 0.000000 0.000000
vt 1.000000 0.000000
vt 1.000000 1.000000
vt 0.000000 0.000000
vt 1.000000 0.000000
vt 1.000000 1.000000
vt 0.000000 0.000000
vt 1.000000 0.000000
vt 1.000000 1.000000
vt 0.000000 0.000000
vt 1.000000 0.000000
vt 1.000000 1.000000
vt 0.000000 0.000000
vt 1.000000 0.000000
vt 1.000000 1.000000
vt 0.000000 0.000000
vt 1.000000 0.000000
vt 1.000000 1.000000
vt 0.000000 0.000000
vt 1.000000 0.000000
vt 1.000000 1.000000
vt 0.000000 0.000000
vt 1.000000 0.000000
vt 1.000000 1.000000
vt 0.000000 0.000000
vt 1.000000 0.000000
vt 1.000000 1.000000
vt 0.000000 0.000000
vt 1.000000 0.000000
vt 1.000000 1.000000
vt 0.000000 0.000000
vt 1.000000 0.000000
vt 1.000000 1.000000
vt 0.000000 0.000000
vt 1.000000 0.000000
vt 1.000000 1.000000
vt 0.000000 0.000000
vt 1.000000 0.000000
vt 1.000000 1.000000
vt 0.000000 1.000000
vt 0.000000 0.000000
vt 1.000000 0.000000
vt 1.000000 1.000000
vt 0.000000 1.000000
vt 0.000000 0.000000
vt 1.000000 0.000000
vt 1.000000 1.000000
vt 0.000000 1.000000
vt 0.000000 0.000000
vt 1.000000 0.000000
vt 1.000000 1.000000
vt 0.000000 1.000000
vt 0.000000 0.000000
vt 1.000000 0.000000
vt 1.000000 1.000000
vt 0.000000 1.000000
vt 0.000000 0.000000
vt 1.000000 0.000000
vt 1.000000 1.000000
vt 0.000000 1.000000
vt 0.000000 0.000000
vt 1.000000 0.000000
vt 1.000000 1.000000
vt 0.000000 1.000000
vt 1.000000 0.500000
vt 0.811745 0.890916
vt 0.388740 0.987464
vt 0.049516 0.716942
vt 0.049516 0.283058
vt 0.388740 0.012536
vt 0.811745 0.109084
vt 1.000000 0.500000
vt 0.811745 0.890916
vt 0.388740 0.987464
vt 0.049516 0.716942
vt 0.049516 0.283058
vt 0.388740 0.012536
vt 0.811745 0.109084
vt 0.000000 0.000000
vt 1.000000 0.000000
vt 1.000000 1.000000
vt 0.000000 0.000000
vt 1.000000 0.000000
vt 1.000000 1.000000
vt 0.000000 0.000000
vt 1.000000 0.000000
vt 1.000000 1.000000
vt 0.000000 0.000000
vt 1.000000 0.000000
vt 1.000000 1.000000
vt 0.000000 0.000000
vt 1.000000 0.000000
vt 1.000000 1.000000
vt 0.000000 0.000000
vt 1.000000 0.000000
vt 1.000000 1.000000
vt 0.000000 0.000000
vt 1.000000 0.000000
vt 1.000000 1.000000
vt 0.000000 0.000000
vt 1.000000 0.000000
vt 1.000000 1.000000
vt 0.000000 0.000000
vt 1.000000 0.000000
vt 1.000000 1.000000
vt 0.000000 0.000000
vt 1.000000 0.000000
vt 1.000000 1.000000
vt 0.000000 0.000000
vt 1.000000 0.000000
vt 1.000000 1.000000
vt 0.000000 0.000000
vt 1.000000 0.000000
vt 1.000000 1.000000
vt 0.000000 0.000000
vt 1.000000 0.000000
vt 1.000000 1.000000
vt 0.000000 0.000000
vt 1.000000 0.000000
vt 1.000000 1.000000
vt 0.000000 0.000000
vt 1.000000 0.000000
vt 1.000000 1.000000
vt 0.000000 0.000000
vt 1.000000 0.000000
vt 1.000000 1.000000
vt 0.000000 0.000000
vt 1.000000 0.000000
vt 1.000000 1.000000
vt 0.000000 0.000000
vt 1.000000 0.000000
vt 1.000000 1.000000
vt 0.000000 0.000000
vt 1.000000 0.000000
vt 1.000000 1.000000
vt 0.000000 0.000000
vt 1.000000 0.000000
vt 1.000000 1.000000
vt 0.000000 0.000000
vt 1.000000 0.000000
vt 1.000000 1.000000
vt 0.000000 0.000000
vt 1.000000 0.000000
vt 1.000000 1.000000
vt 0.000000 0.000000
vt 1.000000 0.000000
vt 1.000000 1.000000
vt 0.000000 0.000000
vt 1.000000 0.000000
vt 1.000000 1.000000
vt 0.000000 0.000000
vt 1.000000 0.000000
vt 1.000000 1.000000
vt 0.000000 0.000000
vt 1.000000 0.000000
vt 1.000000 1.000000
vt 0.000000 0.000000
vt 1.000000 0.000000
vt 1.000000 1.000000
vt 0.000000 0.000000
vt 1.000000 0.000000
vt 1.000000 1.000000
vt 0.000000 0.000000
vt 1.000000 0.000000
vt 1.000000 1.000000
vt 0.000000 1.000000
vt 0.000000 0.000000
vt 1.000000 0.000000
vt 1.000000 1.000000
vt 0.000000 1.000000
vt 0.000000 0.000000
vt 1.000000 0.000000
vt 1.000000 1.000000
vt 0.000000 1.000000
vt 0.000000 0.000000
vt 1.000000 0.000000
vt 1.000000 1.000000
vt 0.000000 1.000000
vt 0.000000 0.000000
vt 1.000000 0.000000
vt 1.000000 1.000000
vt 0.000000 1.000000
vt 0.000000 0.000000
vt 1.000000 0.000000
vt 1.000000 1.000000
vt 0.000000 1.000000
vt 0.000000 0.000000
vt 1.000000 0.000000
vt 1.000000 1.000000
vt 0.000000 1.000000
vt 0.000000 0.000000
vt 1.000000 0.000000
vt 1.000000 1.000000
vt 0.000000 1.000000
vt 0.000000 0.000000
vt 1.000000 0.000000
vt 1.000000 1.000000
vt 0.000000 1.000000
vt 0.000000 0.000000
vt 1.000000 0.000000
vt 1.000000 1.000000
vt 0.000000 1.000000
vt 0.000000 0.000000
vt 1.000000 0.000000
vt 1.000000 1.000000
vt 0.000000 1.000000
vt 0.000000 0.000000
vt 1.000000 0.000000
vt 1.000000 1.000000
vt 0.000000 1.000000
vt 0.000000 0.000000
vt 1.000000 0.000000
vt 1.000000 1.000000
vt 0.000000 1.000000
vt 0.000000 0.000000
vt 1.000000 0.000000
vt 1.000000 1.000000
vt 0.000000 1.000000
vt 0.000000 0.000000
vt 1.000000 0.000000
vt 1.000000 1.000000
vt 0.000000 1.000000
vt 0.000000 0.000000
vt 1.000000 0.000000
vt 1.000000 1.000000
vt 0.000000 1.000000
vt 0.000000 0.000000
vt 1.000000 0.000000
vt 1.000000 1.000000
vt 0.000000 1.000000
vt 0.000000 0.000000
vt 1.000000 0.000000
vt 1.000000 1.000000
vt 0.000000 1.000000
vt 0.000000 0.000000
vt 1.000000 0.000000
vt 1.000000 1.000000
vt 0.000000 1.000000
vt 0.000000 0.000000
vt 1.000000 0.000000
vt 1.000000 1.000000
vt 0.000000 1.000000
vt 0.000000 0.000000
vt 1.000000 0.000000
vt 1.000000 1.000000
vt 0.000000 1.000000
vt 0.000000 0.000000
vt 1.000000 0.000000
vt 1.000000 1.000000
vt 0.000000 1.000000
vt 0.000000 0.000000
vt 1.000000 0.000000
vt 1.000000 1.000000
vt 0.000000 1.000000
vt 0.000000 0.000000
vt 1.000000 0.000000
vt 1.000000 1.000000
vt 0.000000 1.000000
vt 0.000000 0.000000
vt 1.000000 0.000000
vt 1.000000 1.000000
vt 0.000000 1.000000
vt 0.000000 0.000000
vt 1.000000 0.000000
vt 1.000000 1.000000
vt 0.000000 1.000000
vt 0.000000 0.000000
vt 1.000000 0.000000
vt 1.000000 1.000000
vt 0.000000 1.000000
vt 0.000000 0.000000
vt 1.000000 0.000000
vt 1.000000 1.000000
vt 0.000000 1.000000
vt 0.000000 0.000000
vt 1.000000 0.000000
vt 1.000000 1.000000
vt 0.000000 1.000000
vt 0.000000 0.000000
vt 1.000000 0.000000
vt 1.000000 1.000000
vt 0.000000 1.000000
vt 0.000000 0.000000
vt 1.000000 0.000000
vt 1.000000 1.000000
vt 0.000000 1.000000
vt 0.000000 0.000000
vt 1.000000 0.000000
vt 1.000000 1.000000
vt 0.000000 1.000000
vt 0.000000 0.000000
vt 1.000000 0.000000
vt 1.000000 1.000000
vt 0.000000 1.000000
vt 0.000000 0.000000
vt 1.000000 0.000000
vt 1.000000 1.000000
vt 0.000000 1.000000
vt 0.000000 0.000000
vt 1.000000 0.000000
vt 1.000000 1.000000
vt 0.000000 1.000000
vt 0.000000 0.000000
vt 1.000000 0.000000
vt 1.000000 1.000000
vt 0.000000 1.000000
vt 0.000000 0.000000
vt 1.000000 0.000000
vt 1.000000 1.000000
vt 0.000000 1.000000
vt 0.000000 0.000000
vt 1.000000 0.000000
vt 1.000000 1.000000
vt 0.000000 1.000000
vt 0.000000 0.000000
vt 1.000000 0.000000
vt 1.000000 1.000000
vt 0.000000 1.000000
vt 0.000000 0.000000
vt 1.000000 0.000000
vt 1.000000 1.000000
vt 0.000000 1.000000
vt 0.000000 0.000000
vt 1.000000 0.000000
vt 1.000000 1.000000
vt 0.000000 1.000000
vt 0.000000 0.000000
vt 1.000000 0.000000
vt 1.000000 1.000000
vt 0.000000 1.000000
vt 0.000000 0.000000
vt 1.000000 0.000000
vt 1.000000 1.000000
vt 0.000000 1.000000
vt 0.000000 0.000000
vt 1.000000 0.000000
vt 1.000000 1.000000
vt 0.000000 1.000000
vt 0.000000 0.000000
vt 1.000000 0.000000
vt 1.000000 1.000000
vt 0.000000 1.000000
vt 0.000000 0.000000
vt 1.000000 0.000000
vt 1.000000 1.000000
vt 0.000000 1.000000
vt 0.000000 0.000000
vt 1.000000 0.000000
vt 1.000000 1.000000
vt 0.000000 1.000000
vt 0.000000 0.000000
vt 1.000000 0.000000
vt 1.000000 1.000000
vt 0.000000 1.000000
vt 0.000000 0.000000
vt 1.000000 0.000000
vt 1.000000 1.000000
vt 0.000000 0.000000
vt 1.000000 0.000000
vt 1.000000 1.000000
vt 0.000000 0.000000
vt 1.000000 0.000000
vt 1.000000 1.000000
vt 0.000000 0.000000
vt 1.000000 0.000000
vt 1.000000 1.000000
vt 0.000000 0.000000
vt 1.000000 0.000000
vt 1.000000 1.000000
vt 0.000000 0.000000
vt 1.000000 0.000000
vt 1.000000 1.000000
vt 0.000000 0.000000
vt 1.000000 0.000000
vt 1.000000 1.000000
vt 0.000000 0.000000
vt 1.000000 0.000000
vt 1.000000 1.000000
vt 0.000000 0.000000
vt 1.000000 0.000000
vt 1.000000 1.000000
vt 0.000000 0.000000
vt 1.000000 0.000000
vt 1.000000 1.000000
vt 0.000000 0.000000
vt 1.000000 0.000000
vt 1.000000 1.000000
vt 0.000000 0.000000
vt 1.000000 0.000000
vt 1.000000 1.000000
vt 0.000000 0.000000
vt 1.000000 0.000000
vt 1.000000 1.000000
vt 0.000000 0.000000
vt 1.000000 0.000000
vt 1.000000 1.000000
vt 0.000000 0.000000
vt 1.000000 0.000000
vt 1.000000 1.000000
vt 0.000000 0.000000
vt 1.000000 0.000000
vt 1.000000 1.000000
vt 0.000000 0.000000
vt 1.000000 0.000000
vt 1.000000 1.000000
vt 0.000000 0.000000
vt 1.000000 0.000000
vt 1.000000 1.000000
vt 0.000000 0.000000
vt 1.000000 0.000000
vt 1.000000 1.000000
vt 0.000000 0.000000
vt 1.000000 0.000000
vt 1.000000 1.000000
vt 0.000000 0.000000
vt 1.000000 0.000000
vt 1.000000 1.000000
vt 0.000000 0.000000
vt 1.000000 0.000000
vt 1.000000 1.000000
vt 0.000000 0.000000
vt 1.000000 0.000000
vt 1.000000 1.000000
vt 0.000000 0.000000
vt 1.000000 0.000000
vt 1.000000 1.000000
vt 0.000000 0.000000
vt 1.000000 0.000000
vt 1.000000 1.000000
vt 0.000000 0.000000
vt 1.000000 0.000000
vt 1.000000 1.000000
vt 0.000000 0.000000
vt 1.000000 0.000000
vt 1.000000 1.000000
vt 0.000000 0.000000
vt 1.000000 0.000000
vt 1.000000 1.000000
vt 0.000000 0.000000
vt 1.000000 0.000000
vt 1.000000 1.000000
vt 0.000000 0.000000
vt 1.000000 0.000000
vt 1.000000 1.000000
vt 0.000000 0.000000
vt 1.000000 0.000000
vt 1.000000 1.000000
vt 0.000000 0.000000
vt 1.000000 0.000000
vt 1.000000 1.000000
vt 0.000000 0.000000
vt 1.000000 0.000000
vt 1.000000 1.000000
vt 0.000000 0.000000
vt 1.000000 0.000000
vt 1.000000 1.000000
vt 0.000000 0.000000
vt 1.000000 0.000000
vt 1.000000 1.000000
vt 0.000000 0.000000
vt 1.000000 0.000000
vt 1.000000 1.000000
vt 0.000000 0.000000
vt 1.000000 0.000000
vt 1.000000 1.000000
vt 0.000000 0.000000
vt 1.000000 0.000000
vt 1.000000 1.000000
vt 0.000000 0.000000
vt 1.000000 0.000000
vt 1.000000 1.000000
vt 0.000000 0.000000
vt 1.000000 0.000000
vt 1.000000 1.000000
vt 0.000000 0.000000
vt 1.000000 0.000000
vt 1.000000 1.000000
vt 0.000000 0.000000
vt 1.000000 0.000000
vt 1.000000 1.000000
o PrimaryRoute_1
usemtl MAT_RIDGE
f 1/1 2/2 3/3 4/4
f 5/5 8/6 7/7 6/8
f 1/9 5/10 6/11 2/12
f 2/13 6/14 7/15 3/16
f 3/17 7/18 8/19 4/20
f 4/21 8/22 5/23 1/24
o PrimaryRoute_2
f 9/25 10/26 11/27 12/28
f 13/29 16/30 15/31 14/32
f 9/33 13/34 14/35 10/36
f 10/37 14/38 15/39 11/40
f 11/41 15/42 16/43 12/44
f 12/45 16/46 13/47 9/48
o PrimaryRoute_3
f 17/49 18/50 19/51 20/52
f 21/53 24/54 23/55 22/56
f 17/57 21/58 22/59 18/60
f 18/61 22/62 23/63 19/64
f 19/65 23/66 24/67 20/68
f 20/69 24/70 21/71 17/72
o PrimaryRoute_4
f 25/73 26/74 27/75 28/76
f 29/77 32/78 31/79 30/80
f 25/81 29/82 30/83 26/84
f 26/85 30/86 31/87 27/88
f 27/89 31/90 32/91 28/92
f 28/93 32/94 29/95 25/96
o VisibleReconnectDetour_1
f 33/97 34/98 35/99 36/100
f 37/101 40/102 39/103 38/104
f 33/105 37/106 38/107 34/108
f 34/109 38/110 39/111 35/112
f 35/113 39/114 40/115 36/116
f 36/117 40/118 37/119 33/120
o VisibleReconnectDetour_2
f 41/121 42/122 43/123 44/124
f 45/125 48/126 47/127 46/128
f 41/129 45/130 46/131 42/132
f 42/133 46/134 47/135 43/136
f 43/137 47/138 48/139 44/140
f 44/141 48/142 45/143 41/144
o VisibleReconnectDetour_3
f 49/145 50/146 51/147 52/148
f 53/149 56/150 55/151 54/152
f 49/153 53/154 54/155 50/156
f 50/157 54/158 55/159 51/160
f 51/161 55/162 56/163 52/164
f 52/165 56/166 53/167 49/168
o Tree_1_Trunk
usemtl MAT_WOOD
f 57/169 58/170 65/171 64/172
f 58/173 59/174 66/175 65/176
f 59/177 60/178 67/179 66/180
f 60/181 61/182 68/183 67/184
f 61/185 62/186 69/187 68/188
f 62/189 63/190 70/191 69/192
f 63/193 57/194 64/195 70/196
f 63/197 62/198 61/199 60/200 59/201 58/202 57/203
f 64/204 65/205 66/206 67/207 68/208 69/209 70/210
o Tree_1_CrownLow
usemtl MAT_FOLIAGE
f 71/211 73/212 74/213
f 72/214 74/215 73/216
f 71/217 74/218 75/219
f 72/220 75/221 74/222
f 71/223 75/224 76/225
f 72/226 76/227 75/228
f 71/229 76/230 77/231
f 72/232 77/233 76/234
f 71/235 77/236 78/237
f 72/238 78/239 77/240
f 71/241 78/242 79/243
f 72/244 79/245 78/246
f 71/247 79/248 73/249
f 72/250 73/251 79/252
o Tree_1_CrownHigh
f 80/253 82/254 83/255
f 81/256 83/257 82/258
f 80/259 83/260 84/261
f 81/262 84/263 83/264
f 80/265 84/266 85/267
f 81/268 85/269 84/270
f 80/271 85/272 86/273
f 81/274 86/275 85/276
f 80/277 86/278 87/279
f 81/280 87/281 86/282
f 80/283 87/284 88/285
f 81/286 88/287 87/288
f 80/289 88/290 82/291
f 81/292 82/293 88/294
o Tree_2_Trunk
usemtl MAT_WOOD
f 89/295 90/296 97/297 96/298
f 90/299 91/300 98/301 97/302
f 91/303 92/304 99/305 98/306
f 92/307 93/308 100/309 99/310
f 93/311 94/312 101/313 100/314
f 94/315 95/316 102/317 101/318
f 95/319 89/320 96/321 102/322
f 95/323 94/324 93/325 92/326 91/327 90/328 89/329
f 96/330 97/331 98/332 99/333 100/334 101/335 102/336
o Tree_2_CrownLow
usemtl MAT_FOLIAGE
f 103/337 105/338 106/339
f 104/340 106/341 105/342
f 103/343 106/344 107/345
f 104/346 107/347 106/348
f 103/349 107/350 108/351
f 104/352 108/353 107/354
f 103/355 108/356 109/357
f 104/358 109/359 108/360
f 103/361 109/362 110/363
f 104/364 110/365 109/366
f 103/367 110/368 111/369
f 104/370 111/371 110/372
f 103/373 111/374 105/375
f 104/376 105/377 111/378
o Tree_2_CrownHigh
f 112/379 114/380 115/381
f 113/382 115/383 114/384
f 112/385 115/386 116/387
f 113/388 116/389 115/390
f 112/391 116/392 117/393
f 113/394 117/395 116/396
f 112/397 117/398 118/399
f 113/400 118/401 117/402
f 112/403 118/404 119/405
f 113/406 119/407 118/408
f 112/409 119/410 120/411
f 113/412 120/413 119/414
f 112/415 120/416 114/417
f 113/418 114/419 120/420
o Tree_3_Trunk
usemtl MAT_WOOD
f 121/421 122/422 129/423 128/424
f 122/425 123/426 130/427 129/428
f 123/429 124/430 131/431 130/432
f 124/433 125/434 132/435 131/436
f 125/437 126/438 133/439 132/440
f 126/441 127/442 134/443 133/444
f 127/445 121/446 128/447 134/448
f 127/449 126/450 125/451 124/452 123/453 122/454 121/455
f 128/456 129/457 130/458 131/459 132/460 133/461 134/462
o Tree_3_CrownLow
usemtl MAT_FOLIAGE
f 135/463 137/464 138/465
f 136/466 138/467 137/468
f 135/469 138/470 139/471
f 136/472 139/473 138/474
f 135/475 139/476 140/477
f 136/478 140/479 139/480
f 135/481 140/482 141/483
f 136/484 141/485 140/486
f 135/487 141/488 142/489
f 136/490 142/491 141/492
f 135/493 142/494 143/495
f 136/496 143/497 142/498
f 135/499 143/500 137/501
f 136/502 137/503 143/504
o Tree_3_CrownHigh
f 144/505 146/506 147/507
f 145/508 147/509 146/510
f 144/511 147/512 148/513
f 145/514 148/515 147/516
f 144/517 148/518 149/519
f 145/520 149/521 148/522
f 144/523 149/524 150/525
f 145/526 150/527 149/528
f 144/529 150/530 151/531
f 145/532 151/533 150/534
f 144/535 151/536 152/537
f 145/538 152/539 151/540
f 144/541 152/542 146/543
f 145/544 146/545 152/546
o Tree_4_Trunk
usemtl MAT_WOOD
f 153/547 154/548 161/549 160/550
f 154/551 155/552 162/553 161/554
f 155/555 156/556 163/557 162/558
f 156/559 157/560 164/561 163/562
f 157/563 158/564 165/565 164/566
f 158/567 159/568 166/569 165/570
f 159/571 153/572 160/573 166/574
f 159/575 158/576 157/577 156/578 155/579 154/580 153/581
f 160/582 161/583 162/584 163/585 164/586 165/587 166/588
o Tree_4_CrownLow
usemtl MAT_FOLIAGE
f 167/589 169/590 170/591
f 168/592 170/593 169/594
f 167/595 170/596 171/597
f 168/598 171/599 170/600
f 167/601 171/602 172/603
f 168/604 172/605 171/606
f 167/607 172/608 173/609
f 168/610 173/611 172/612
f 167/613 173/614 174/615
f 168/616 174/617 173/618
f 167/619 174/620 175/621
f 168/622 175/623 174/624
f 167/625 175/626 169/627
f 168/628 169/629 175/630
o Tree_4_CrownHigh
f 176/631 178/632 179/633
f 177/634 179/635 178/636
f 176/637 179/638 180/639
f 177/640 180/641 179/642
f 176/643 180/644 181/645
f 177/646 181/647 180/648
f 176/649 181/650 182/651
f 177/652 182/653 181/654
f 176/655 182/656 183/657
f 177/658 183/659 182/660
f 176/661 183/662 184/663
f 177/664 184/665 183/666
f 176/667 184/668 178/669
f 177/670 178/671 184/672
o Tree_5_Trunk
usemtl MAT_WOOD
f 185/673 186/674 193/675 192/676
f 186/677 187/678 194/679 193/680
f 187/681 188/682 195/683 194/684
f 188/685 189/686 196/687 195/688
f 189/689 190/690 197/691 196/692
f 190/693 191/694 198/695 197/696
f 191/697 185/698 192/699 198/700
f 191/701 190/702 189/703 188/704 187/705 186/706 185/707
f 192/708 193/709 194/710 195/711 196/712 197/713 198/714
o Tree_5_CrownLow
usemtl MAT_FOLIAGE
f 199/715 201/716 202/717
f 200/718 202/719 201/720
f 199/721 202/722 203/723
f 200/724 203/725 202/726
f 199/727 203/728 204/729
f 200/730 204/731 203/732
f 199/733 204/734 205/735
f 200/736 205/737 204/738
f 199/739 205/740 206/741
f 200/742 206/743 205/744
f 199/745 206/746 207/747
f 200/748 207/749 206/750
f 199/751 207/752 201/753
f 200/754 201/755 207/756
o Tree_5_CrownHigh
f 208/757 210/758 211/759
f 209/760 211/761 210/762
f 208/763 211/764 212/765
f 209/766 212/767 211/768
f 208/769 212/770 213/771
f 209/772 213/773 212/774
f 208/775 213/776 214/777
f 209/778 214/779 213/780
f 208/781 214/782 215/783
f 209/784 215/785 214/786
f 208/787 215/788 216/789
f 209/790 216/791 215/792
f 208/793 216/794 210/795
f 209/796 210/797 216/798
o Tree_6_Trunk
usemtl MAT_WOOD
f 217/799 218/800 225/801 224/802
f 218/803 219/804 226/805 225/806
f 219/807 220/808 227/809 226/810
f 220/811 221/812 228/813 227/814
f 221/815 222/816 229/817 228/818
f 222/819 223/820 230/821 229/822
f 223/823 217/824 224/825 230/826
f 223/827 222/828 221/829 220/830 219/831 218/832 217/833
f 224/834 225/835 226/836 227/837 228/838 229/839 230/840
o Tree_6_CrownLow
usemtl MAT_FOLIAGE
f 231/841 233/842 234/843
f 232/844 234/845 233/846
f 231/847 234/848 235/849
f 232/850 235/851 234/852
f 231/853 235/854 236/855
f 232/856 236/857 235/858
f 231/859 236/860 237/861
f 232/862 237/863 236/864
f 231/865 237/866 238/867
f 232/868 238/869 237/870
f 231/871 238/872 239/873
f 232/874 239/875 238/876
f 231/877 239/878 233/879
f 232/880 233/881 239/882
o Tree_6_CrownHigh
f 240/883 242/884 243/885
f 241/886 243/887 242/888
f 240/889 243/890 244/891
f 241/892 244/893 243/894
f 240/895 244/896 245/897
f 241/898 245/899 244/900
f 240/901 245/902 246/903
f 241/904 246/905 245/906
f 240/907 246/908 247/909
f 241/910 247/911 246/912
f 240/913 247/914 248/915
f 241/916 248/917 247/918
f 240/919 248/920 242/921
f 241/922 242/923 248/924
o Tree_7_Trunk
usemtl MAT_WOOD
f 249/925 250/926 257/927 256/928
f 250/929 251/930 258/931 257/932
f 251/933 252/934 259/935 258/936
f 252/937 253/938 260/939 259/940
f 253/941 254/942 261/943 260/944
f 254/945 255/946 262/947 261/948
f 255/949 249/950 256/951 262/952
f 255/953 254/954 253/955 252/956 251/957 250/958 249/959
f 256/960 257/961 258/962 259/963 260/964 261/965 262/966
o Tree_7_CrownLow
usemtl MAT_FOLIAGE
f 263/967 265/968 266/969
f 264/970 266/971 265/972
f 263/973 266/974 267/975
f 264/976 267/977 266/978
f 263/979 267/980 268/981
f 264/982 268/983 267/984
f 263/985 268/986 269/987
f 264/988 269/989 268/990
f 263/991 269/992 270/993
f 264/994 270/995 269/996
f 263/997 270/998 271/999
f 264/1000 271/1001 270/1002
f 263/1003 271/1004 265/1005
f 264/1006 265/1007 271/1008
o Tree_7_CrownHigh
f 272/1009 274/1010 275/1011
f 273/1012 275/1013 274/1014
f 272/1015 275/1016 276/1017
f 273/1018 276/1019 275/1020
f 272/1021 276/1022 277/1023
f 273/1024 277/1025 276/1026
f 272/1027 277/1028 278/1029
f 273/1030 278/1031 277/1032
f 272/1033 278/1034 279/1035
f 273/1036 279/1037 278/1038
f 272/1039 279/1040 280/1041
f 273/1042 280/1043 279/1044
f 272/1045 280/1046 274/1047
f 273/1048 274/1049 280/1050
o Tree_8_Trunk
usemtl MAT_WOOD
f 281/1051 282/1052 289/1053 288/1054
f 282/1055 283/1056 290/1057 289/1058
f 283/1059 284/1060 291/1061 290/1062
f 284/1063 285/1064 292/1065 291/1066
f 285/1067 286/1068 293/1069 292/1070
f 286/1071 287/1072 294/1073 293/1074
f 287/1075 281/1076 288/1077 294/1078
f 287/1079 286/1080 285/1081 284/1082 283/1083 282/1084 281/1085
f 288/1086 289/1087 290/1088 291/1089 292/1090 293/1091 294/1092
o Tree_8_CrownLow
usemtl MAT_FOLIAGE
f 295/1093 297/1094 298/1095
f 296/1096 298/1097 297/1098
f 295/1099 298/1100 299/1101
f 296/1102 299/1103 298/1104
f 295/1105 299/1106 300/1107
f 296/1108 300/1109 299/1110
f 295/1111 300/1112 301/1113
f 296/1114 301/1115 300/1116
f 295/1117 301/1118 302/1119
f 296/1120 302/1121 301/1122
f 295/1123 302/1124 303/1125
f 296/1126 303/1127 302/1128
f 295/1129 303/1130 297/1131
f 296/1132 297/1133 303/1134
o Tree_8_CrownHigh
f 304/1135 306/1136 307/1137
f 305/1138 307/1139 306/1140
f 304/1141 307/1142 308/1143
f 305/1144 308/1145 307/1146
f 304/1147 308/1148 309/1149
f 305/1150 309/1151 308/1152
f 304/1153 309/1154 310/1155
f 305/1156 310/1157 309/1158
f 304/1159 310/1160 311/1161
f 305/1162 311/1163 310/1164
f 304/1165 311/1166 312/1167
f 305/1168 312/1169 311/1170
f 304/1171 312/1172 306/1173
f 305/1174 306/1175 312/1176
o Tree_9_Trunk
usemtl MAT_WOOD
f 313/1177 314/1178 321/1179 320/1180
f 314/1181 315/1182 322/1183 321/1184
f 315/1185 316/1186 323/1187 322/1188
f 316/1189 317/1190 324/1191 323/1192
f 317/1193 318/1194 325/1195 324/1196
f 318/1197 319/1198 326/1199 325/1200
f 319/1201 313/1202 320/1203 326/1204
f 319/1205 318/1206 317/1207 316/1208 315/1209 314/1210 313/1211
f 320/1212 321/1213 322/1214 323/1215 324/1216 325/1217 326/1218
o Tree_9_CrownLow
usemtl MAT_FOLIAGE
f 327/1219 329/1220 330/1221
f 328/1222 330/1223 329/1224
f 327/1225 330/1226 331/1227
f 328/1228 331/1229 330/1230
f 327/1231 331/1232 332/1233
f 328/1234 332/1235 331/1236
f 327/1237 332/1238 333/1239
f 328/1240 333/1241 332/1242
f 327/1243 333/1244 334/1245
f 328/1246 334/1247 333/1248
f 327/1249 334/1250 335/1251
f 328/1252 335/1253 334/1254
f 327/1255 335/1256 329/1257
f 328/1258 329/1259 335/1260
o Tree_9_CrownHigh
f 336/1261 338/1262 339/1263
f 337/1264 339/1265 338/1266
f 336/1267 339/1268 340/1269
f 337/1270 340/1271 339/1272
f 336/1273 340/1274 341/1275
f 337/1276 341/1277 340/1278
f 336/1279 341/1280 342/1281
f 337/1282 342/1283 341/1284
f 336/1285 342/1286 343/1287
f 337/1288 343/1289 342/1290
f 336/1291 343/1292 344/1293
f 337/1294 344/1295 343/1296
f 336/1297 344/1298 338/1299
f 337/1300 338/1301 344/1302
o Tree_10_Trunk
usemtl MAT_WOOD
f 345/1303 346/1304 353/1305 352/1306
f 346/1307 347/1308 354/1309 353/1310
f 347/1311 348/1312 355/1313 354/1314
f 348/1315 349/1316 356/1317 355/1318
f 349/1319 350/1320 357/1321 356/1322
f 350/1323 351/1324 358/1325 357/1326
f 351/1327 345/1328 352/1329 358/1330
f 351/1331 350/1332 349/1333 348/1334 347/1335 346/1336 345/1337
f 352/1338 353/1339 354/1340 355/1341 356/1342 357/1343 358/1344
o Tree_10_CrownLow
usemtl MAT_FOLIAGE
f 359/1345 361/1346 362/1347
f 360/1348 362/1349 361/1350
f 359/1351 362/1352 363/1353
f 360/1354 363/1355 362/1356
f 359/1357 363/1358 364/1359
f 360/1360 364/1361 363/1362
f 359/1363 364/1364 365/1365
f 360/1366 365/1367 364/1368
f 359/1369 365/1370 366/1371
f 360/1372 366/1373 365/1374
f 359/1375 366/1376 367/1377
f 360/1378 367/1379 366/1380
f 359/1381 367/1382 361/1383
f 360/1384 361/1385 367/1386
o Tree_10_CrownHigh
f 368/1387 370/1388 371/1389
f 369/1390 371/1391 370/1392
f 368/1393 371/1394 372/1395
f 369/1396 372/1397 371/1398
f 368/1399 372/1400 373/1401
f 369/1402 373/1403 372/1404
f 368/1405 373/1406 374/1407
f 369/1408 374/1409 373/1410
f 368/1411 374/1412 375/1413
f 369/1414 375/1415 374/1416
f 368/1417 375/1418 376/1419
f 369/1420 376/1421 375/1422
f 368/1423 376/1424 370/1425
f 369/1426 370/1427 376/1428
o Tree_11_Trunk
usemtl MAT_WOOD
f 377/1429 378/1430 385/1431 384/1432
f 378/1433 379/1434 386/1435 385/1436
f 379/1437 380/1438 387/1439 386/1440
f 380/1441 381/1442 388/1443 387/1444
f 381/1445 382/1446 389/1447 388/1448
f 382/1449 383/1450 390/1451 389/1452
f 383/1453 377/1454 384/1455 390/1456
f 383/1457 382/1458 381/1459 380/1460 379/1461 378/1462 377/1463
f 384/1464 385/1465 386/1466 387/1467 388/1468 389/1469 390/1470
o Tree_11_CrownLow
usemtl MAT_FOLIAGE
f 391/1471 393/1472 394/1473
f 392/1474 394/1475 393/1476
f 391/1477 394/1478 395/1479
f 392/1480 395/1481 394/1482
f 391/1483 395/1484 396/1485
f 392/1486 396/1487 395/1488
f 391/1489 396/1490 397/1491
f 392/1492 397/1493 396/1494
f 391/1495 397/1496 398/1497
f 392/1498 398/1499 397/1500
f 391/1501 398/1502 399/1503
f 392/1504 399/1505 398/1506
f 391/1507 399/1508 393/1509
f 392/1510 393/1511 399/1512
o Tree_11_CrownHigh
f 400/1513 402/1514 403/1515
f 401/1516 403/1517 402/1518
f 400/1519 403/1520 404/1521
f 401/1522 404/1523 403/1524
f 400/1525 404/1526 405/1527
f 401/1528 405/1529 404/1530
f 400/1531 405/1532 406/1533
f 401/1534 406/1535 405/1536
f 400/1537 406/1538 407/1539
f 401/1540 407/1541 406/1542
f 400/1543 407/1544 408/1545
f 401/1546 408/1547 407/1548
f 400/1549 408/1550 402/1551
f 401/1552 402/1553 408/1554
o Tree_12_Trunk
usemtl MAT_WOOD
f 409/1555 410/1556 417/1557 416/1558
f 410/1559 411/1560 418/1561 417/1562
f 411/1563 412/1564 419/1565 418/1566
f 412/1567 413/1568 420/1569 419/1570
f 413/1571 414/1572 421/1573 420/1574
f 414/1575 415/1576 422/1577 421/1578
f 415/1579 409/1580 416/1581 422/1582
f 415/1583 414/1584 413/1585 412/1586 411/1587 410/1588 409/1589
f 416/1590 417/1591 418/1592 419/1593 420/1594 421/1595 422/1596
o Tree_12_CrownLow
usemtl MAT_FOLIAGE
f 423/1597 425/1598 426/1599
f 424/1600 426/1601 425/1602
f 423/1603 426/1604 427/1605
f 424/1606 427/1607 426/1608
f 423/1609 427/1610 428/1611
f 424/1612 428/1613 427/1614
f 423/1615 428/1616 429/1617
f 424/1618 429/1619 428/1620
f 423/1621 429/1622 430/1623
f 424/1624 430/1625 429/1626
f 423/1627 430/1628 431/1629
f 424/1630 431/1631 430/1632
f 423/1633 431/1634 425/1635
f 424/1636 425/1637 431/1638
o Tree_12_CrownHigh
f 432/1639 434/1640 435/1641
f 433/1642 435/1643 434/1644
f 432/1645 435/1646 436/1647
f 433/1648 436/1649 435/1650
f 432/1651 436/1652 437/1653
f 433/1654 437/1655 436/1656
f 432/1657 437/1658 438/1659
f 433/1660 438/1661 437/1662
f 432/1663 438/1664 439/1665
f 433/1666 439/1667 438/1668
f 432/1669 439/1670 440/1671
f 433/1672 440/1673 439/1674
f 432/1675 440/1676 434/1677
f 433/1678 434/1679 440/1680
o CampReturnAnchor_Left
usemtl MAT_MARKER
f 441/1681 442/1682 444/1683 443/1684
f 445/1685 447/1686 448/1687 446/1688
f 441/1689 445/1690 446/1691 442/1692
f 443/1693 444/1694 448/1695 447/1696
f 441/1697 443/1698 447/1699 445/1700
f 442/1701 446/1702 448/1703 444/1704
o CampReturnAnchor_Right
f 449/1705 450/1706 452/1707 451/1708
f 453/1709 455/1710 456/1711 454/1712
f 449/1713 453/1714 454/1715 450/1716
f 451/1717 452/1718 456/1719 455/1720
f 449/1721 451/1722 455/1723 453/1724
f 450/1725 454/1726 456/1727 452/1728
o CampReturnAnchor_Header
f 457/1729 458/1730 460/1731 459/1732
f 461/1733 463/1734 464/1735 462/1736
f 457/1737 461/1738 462/1739 458/1740
f 459/1741 460/1742 464/1743 463/1744
f 457/1745 459/1746 463/1747 461/1748
f 458/1749 462/1750 464/1751 460/1752
o RidgeExitMarker_Left
f 465/1753 466/1754 468/1755 467/1756
f 469/1757 471/1758 472/1759 470/1760
f 465/1761 469/1762 470/1763 466/1764
f 467/1765 468/1766 472/1767 471/1768
f 465/1769 467/1770 471/1771 469/1772
f 466/1773 470/1774 472/1775 468/1776
o RidgeExitMarker_Right
f 473/1777 474/1778 476/1779 475/1780
f 477/1781 479/1782 480/1783 478/1784
f 473/1785 477/1786 478/1787 474/1788
f 475/1789 476/1790 480/1791 479/1792
f 473/1793 475/1794 479/1795 477/1796
f 474/1797 478/1798 480/1799 476/1800
o RidgeExitMarker_Header
f 481/1801 482/1802 484/1803 483/1804
f 485/1805 487/1806 488/1807 486/1808
f 481/1809 485/1810 486/1811 482/1812
f 483/1813 484/1814 488/1815 487/1816
f 481/1817 483/1818 487/1819 485/1820
f 482/1821 486/1822 488/1823 484/1824
o ResourcePocketBoundaryA
usemtl MAT_WOOD
f 489/1825 490/1826 492/1827 491/1828
f 493/1829 495/1830 496/1831 494/1832
f 489/1833 493/1834 494/1835 490/1836
f 491/1837 492/1838 496/1839 495/1840
f 489/1841 491/1842 495/1843 493/1844
f 490/1845 494/1846 496/1847 492/1848
o ResourcePocketBoundaryB
f 497/1849 498/1850 500/1851 499/1852
f 501/1853 503/1854 504/1855 502/1856
f 497/1857 501/1858 502/1859 498/1860
f 499/1861 500/1862 504/1863 503/1864
f 497/1865 499/1866 503/1867 501/1868
f 498/1869 502/1870 504/1871 500/1872
o ReadableResourceMass_1
usemtl MAT_FOLIAGE
f 505/1873 507/1874 508/1875
f 506/1876 508/1877 507/1878
f 505/1879 508/1880 509/1881
f 506/1882 509/1883 508/1884
f 505/1885 509/1886 510/1887
f 506/1888 510/1889 509/1890
f 505/1891 510/1892 511/1893
f 506/1894 511/1895 510/1896
f 505/1897 511/1898 512/1899
f 506/1900 512/1901 511/1902
f 505/1903 512/1904 513/1905
f 506/1906 513/1907 512/1908
f 505/1909 513/1910 507/1911
f 506/1912 507/1913 513/1914
o ReadableResourceMass_2
f 514/1915 516/1916 517/1917
f 515/1918 517/1919 516/1920
f 514/1921 517/1922 518/1923
f 515/1924 518/1925 517/1926
f 514/1927 518/1928 519/1929
f 515/1930 519/1931 518/1932
f 514/1933 519/1934 520/1935
f 515/1936 520/1937 519/1938
f 514/1939 520/1940 521/1941
f 515/1942 521/1943 520/1944
f 514/1945 521/1946 522/1947
f 515/1948 522/1949 521/1950
f 514/1951 522/1952 516/1953
f 515/1954 516/1955 522/1956
o ReadableResourceMass_3
f 523/1957 525/1958 526/1959
f 524/1960 526/1961 525/1962
f 523/1963 526/1964 527/1965
f 524/1966 527/1967 526/1968
f 523/1969 527/1970 528/1971
f 524/1972 528/1973 527/1974
f 523/1975 528/1976 529/1977
f 524/1978 529/1979 528/1980
f 523/1981 529/1982 530/1983
f 524/1984 530/1985 529/1986
f 523/1987 530/1988 531/1989
f 524/1990 531/1991 530/1992
f 523/1993 531/1994 525/1995
f 524/1996 525/1997 531/1998
