# PROJECT OEN production source mesh: ENV_RIDGE_001
mtllib ENV_RIDGE_001.mtl
s off
v -3.600000 0.000000 -1.000000
v 3.600000 0.000000 -1.000000
v 3.600000 0.600000 -1.000000
v -3.600000 0.600000 -1.000000
v -3.600000 0.000000 4.400000
v 3.600000 0.000000 4.400000
v 3.600000 0.600000 4.400000
v -3.600000 0.600000 4.400000
v -3.000000 1.160000 -0.400000
v -3.000000 0.280000 -0.400000
v -2.440000 0.720000 -0.400000
v -2.650846 0.720000 0.069099
v -3.124612 0.720000 0.184957
v -3.504543 0.720000 -0.139670
v -3.504543 0.720000 -0.660330
v -3.124612 0.720000 -0.984957
v -2.650846 0.720000 -0.869099
v -2.200000 1.215000 4.100000
v -2.200000 0.225000 4.100000
v -1.570000 0.720000 4.100000
v -1.807201 0.720000 4.627736
v -2.340188 0.720000 4.758076
v -2.767610 0.720000 4.392872
v -2.767610 0.720000 3.807128
v -2.340188 0.720000 3.441924
v -1.807201 0.720000 3.572264
v -0.800000 1.105000 4.500000
v -0.800000 0.335000 4.500000
v -0.310000 0.720000 4.500000
v -0.494490 0.720000 4.910462
v -0.909035 0.720000 5.011837
v -1.241475 0.720000 4.727789
v -1.241475 0.720000 4.272211
v -0.909035 0.720000 3.988163
v -0.494490 0.720000 4.089538
v 1.000000 1.132500 4.400000
v 1.000000 0.307500 4.400000
v 1.525000 0.720000 4.400000
v 1.327332 0.720000 4.839780
v 0.883177 0.720000 4.948397
v 0.526991 0.720000 4.644060
v 0.526991 0.720000 4.155940
v 0.883177 0.720000 3.851603
v 1.327332 0.720000 3.960220
v 2.400000 1.187500 4.000000
v 2.400000 0.252500 4.000000
v 2.995000 0.720000 4.000000
v 2.770976 0.720000 4.498418
v 2.267600 0.720000 4.621517
v 1.863924 0.720000 4.276601
v 1.863924 0.720000 3.723399
v 2.267600 0.720000 3.378483
v 2.770976 0.720000 3.501582
v 3.100000 1.132500 0.200000
v 3.100000 0.307500 0.200000
v 3.625000 0.720000 0.200000
v 3.427332 0.720000 0.639780
v 2.983177 0.720000 0.748397
v 2.626991 0.720000 0.444060
v 2.626991 0.720000 -0.044060
v 2.983177 0.720000 -0.348397
v 3.427332 0.720000 -0.239780
v -1.550000 0.600000 1.975000
v 1.550000 0.600000 1.975000
v 1.550000 0.740000 1.975000
v -1.550000 0.740000 1.975000
v -1.550000 0.600000 4.025000
v 1.550000 0.600000 4.025000
v 1.550000 0.740000 4.025000
v -1.550000 0.740000 4.025000
v -0.675000 0.000000 -1.000000
v 0.675000 0.000000 -1.000000
v 0.675000 0.000000 2.000000
v -0.675000 0.000000 2.000000
v -0.675000 0.120000 -1.000000
v 0.675000 0.120000 -1.000000
v 0.675000 0.120000 2.000000
v -0.675000 0.120000 2.000000
v -0.700000 0.700000 -0.800000
v -0.700000 0.700000 -0.700000
v -0.600000 0.700000 -0.800000
v -0.600000 0.700000 -0.700000
v -0.700000 2.050000 -0.800000
v -0.700000 2.050000 -0.700000
v -0.600000 2.050000 -0.800000
v -0.600000 2.050000 -0.700000
v 0.600000 0.700000 -0.800000
v 0.600000 0.700000 -0.700000
v 0.700000 0.700000 -0.800000
v 0.700000 0.700000 -0.700000
v 0.600000 2.050000 -0.800000
v 0.600000 2.050000 -0.700000
v 0.700000 2.050000 -0.800000
v 0.700000 2.050000 -0.700000
v -0.700000 1.990000 -0.690000
v -0.700000 1.990000 -0.810000
v -0.700000 2.110000 -0.690000
v -0.700000 2.110000 -0.810000
v 0.700000 1.990000 -0.690000
v 0.700000 1.990000 -0.810000
v 0.700000 2.110000 -0.690000
v 0.700000 2.110000 -0.810000
v -1.090000 0.720000 3.210000
v -1.090000 0.720000 3.290000
v -1.010000 0.720000 3.210000
v -1.010000 0.720000 3.290000
v -1.090000 2.650000 3.210000
v -1.090000 2.650000 3.290000
v -1.010000 2.650000 3.210000
v -1.010000 2.650000 3.290000
v -1.030000 2.362500 3.090000
v -0.410000 2.362500 3.090000
v -0.410000 2.397500 3.090000
v -1.030000 2.397500 3.090000
v -1.030000 2.362500 3.410000
v -0.410000 2.362500 3.410000
v -0.410000 2.397500 3.410000
v -1.030000 2.397500 3.410000
v 0.706586 0.711840 3.155000
v 0.706586 0.711840 3.245000
v 0.793414 0.688160 3.155000
v 0.793414 0.688160 3.245000
v 1.156586 2.361840 3.155000
v 1.156586 2.361840 3.245000
v 1.243414 2.338160 3.155000
v 1.243414 2.338160 3.245000
v 1.606586 0.688160 3.155000
v 1.606586 0.688160 3.245000
v 1.693414 0.711840 3.155000
v 1.693414 0.711840 3.245000
v 1.156586 2.338160 3.155000
v 1.156586 2.338160 3.245000
v 1.243414 2.361840 3.155000
v 1.243414 2.361840 3.245000
v 0.920000 1.510000 3.240000
v 0.920000 1.510000 3.160000
v 0.920000 1.590000 3.240000
v 0.920000 1.590000 3.160000
v 1.480000 1.510000 3.240000
v 1.480000 1.510000 3.160000
v 1.480000 1.590000 3.240000
v 1.480000 1.590000 3.160000
v -1.450000 1.270000 4.020000
v -1.450000 0.570000 4.020000
v -1.130000 0.920000 4.020000
v -1.290000 0.920000 4.279808
v -1.610000 0.920000 4.279808
v -1.770000 0.920000 4.020000
v -1.610000 0.920000 3.760192
v -1.290000 0.920000 3.760192
v -0.950000 1.270000 4.020000
v -0.950000 0.570000 4.020000
v -0.630000 0.920000 4.020000
v -0.790000 0.920000 4.279808
v -1.110000 0.920000 4.279808
v -1.270000 0.920000 4.020000
v -1.110000 0.920000 3.760192
v -0.790000 0.920000 3.760192
v -0.450000 1.270000 4.020000
v -0.450000 0.570000 4.020000
v -0.130000 0.920000 4.020000
v -0.290000 0.920000 4.279808
v -0.610000 0.920000 4.279808
v -0.770000 0.920000 4.020000
v -0.610000 0.920000 3.760192
v -0.290000 0.920000 3.760192
v 0.450000 1.270000 4.020000
v 0.450000 0.570000 4.020000
v 0.770000 0.920000 4.020000
v 0.610000 0.920000 4.279808
v 0.290000 0.920000 4.279808
v 0.130000 0.920000 4.020000
v 0.290000 0.920000 3.760192
v 0.610000 0.920000 3.760192
v 0.950000 1.270000 4.020000
v 0.950000 0.570000 4.020000
v 1.270000 0.920000 4.020000
v 1.110000 0.920000 4.279808
v 0.790000 0.920000 4.279808
v 0.630000 0.920000 4.020000
v 0.790000 0.920000 3.760192
v 1.110000 0.920000 3.760192
v 1.450000 1.270000 4.020000
v 1.450000 0.570000 4.020000
v 1.770000 0.920000 4.020000
v 1.610000 0.920000 4.279808
v 1.290000 0.920000 4.279808
v 1.130000 0.920000 4.020000
v 1.290000 0.920000 3.760192
v 1.610000 0.920000 3.760192
vt 0.000000 0.000000
vt 1.000000 0.000000
vt 1.000000 1.000000
vt 0.000000 1.000000
vt 0.000000 0.000000
vt 1.000000 0.000000
vt 1.000000 1.000000
vt 0.000000 1.000000
vt 0.000000 0.000000
vt 1.000000 0.000000
vt 1.000000 1.000000
vt 0.000000 1.000000
vt 0.000000 0.000000
vt 1.000000 0.000000
vt 1.000000 1.000000
vt 0.000000 1.000000
vt 0.000000 0.000000
vt 1.000000 0.000000
vt 1.000000 1.000000
vt 0.000000 1.000000
vt 0.000000 0.000000
vt 1.000000 0.000000
vt 1.000000 1.000000
vt 0.000000 1.000000
vt 0.000000 0.000000
vt 1.000000 0.000000
vt 1.000000 1.000000
vt 0.000000 0.000000
vt 1.000000 0.000000
vt 1.000000 1.000000
vt 0.000000 0.000000
vt 1.000000 0.000000
vt 1.000000 1.000000
vt 0.000000 0.000000
vt 1.000000 0.000000
vt 1.000000 1.000000
vt 0.000000 0.000000
vt 1.000000 0.000000
vt 1.000000 1.000000
vt 0.000000 0.000000
vt 1.000000 0.000000
vt 1.000000 1.000000
vt 0.000000 0.000000
vt 1.000000 0.000000
vt 1.000000 1.000000
vt 0.000000 0.000000
vt 1.000000 0.000000
vt 1.000000 1.000000
vt 0.000000 0.000000
vt 1.000000 0.000000
vt 1.000000 1.000000
vt 0.000000 0.000000
vt 1.000000 0.000000
vt 1.000000 1.000000
vt 0.000000 0.000000
vt 1.000000 0.000000
vt 1.000000 1.000000
vt 0.000000 0.000000
vt 1.000000 0.000000
vt 1.000000 1.000000
vt 0.000000 0.000000
vt 1.000000 0.000000
vt 1.000000 1.000000
vt 0.000000 0.000000
vt 1.000000 0.000000
vt 1.000000 1.000000
vt 0.000000 0.000000
vt 1.000000 0.000000
vt 1.000000 1.000000
vt 0.000000 0.000000
vt 1.000000 0.000000
vt 1.000000 1.000000
vt 0.000000 0.000000
vt 1.000000 0.000000
vt 1.000000 1.000000
vt 0.000000 0.000000
vt 1.000000 0.000000
vt 1.000000 1.000000
vt 0.000000 0.000000
vt 1.000000 0.000000
vt 1.000000 1.000000
vt 0.000000 0.000000
vt 1.000000 0.000000
vt 1.000000 1.000000
vt 0.000000 0.000000
vt 1.000000 0.000000
vt 1.000000 1.000000
vt 0.000000 0.000000
vt 1.000000 0.000000
vt 1.000000 1.000000
vt 0.000000 0.000000
vt 1.000000 0.000000
vt 1.000000 1.000000
vt 0.000000 0.000000
vt 1.000000 0.000000
vt 1.000000 1.000000
vt 0.000000 0.000000
vt 1.000000 0.000000
vt 1.000000 1.000000
vt 0.000000 0.000000
vt 1.000000 0.000000
vt 1.000000 1.000000
vt 0.000000 0.000000
vt 1.000000 0.000000
vt 1.000000 1.000000
vt 0.000000 0.000000
vt 1.000000 0.000000
vt 1.000000 1.000000
vt 0.000000 0.000000
vt 1.000000 0.000000
vt 1.000000 1.000000
vt 0.000000 0.000000
vt 1.000000 0.000000
vt 1.000000 1.000000
vt 0.000000 0.000000
vt 1.000000 0.000000
vt 1.000000 1.000000
vt 0.000000 0.000000
vt 1.000000 0.000000
vt 1.000000 1.000000
vt 0.000000 0.000000
vt 1.000000 0.000000
vt 1.000000 1.000000
vt 0.000000 0.000000
vt 1.000000 0.000000
vt 1.000000 1.000000
vt 0.000000 0.000000
vt 1.000000 0.000000
vt 1.000000 1.000000
vt 0.000000 0.000000
vt 1.000000 0.000000
vt 1.000000 1.000000
vt 0.000000 0.000000
vt 1.000000 0.000000
vt 1.000000 1.000000
vt 0.000000 0.000000
vt 1.000000 0.000000
vt 1.000000 1.000000
vt 0.000000 0.000000
vt 1.000000 0.000000
vt 1.000000 1.000000
vt 0.000000 0.000000
vt 1.000000 0.000000
vt 1.000000 1.000000
vt 0.000000 0.000000
vt 1.000000 0.000000
vt 1.000000 1.000000
vt 0.000000 0.000000
vt 1.000000 0.000000
vt 1.000000 1.000000
vt 0.000000 0.000000
vt 1.000000 0.000000
vt 1.000000 1.000000
vt 0.000000 0.000000
vt 1.000000 0.000000
vt 1.000000 1.000000
vt 0.000000 0.000000
vt 1.000000 0.000000
vt 1.000000 1.000000
vt 0.000000 0.000000
vt 1.000000 0.000000
vt 1.000000 1.000000
vt 0.000000 0.000000
vt 1.000000 0.000000
vt 1.000000 1.000000
vt 0.000000 0.000000
vt 1.000000 0.000000
vt 1.000000 1.000000
vt 0.000000 0.000000
vt 1.000000 0.000000
vt 1.000000 1.000000
vt 0.000000 0.000000
vt 1.000000 0.000000
vt 1.000000 1.000000
vt 0.000000 0.000000
vt 1.000000 0.000000
vt 1.000000 1.000000
vt 0.000000 0.000000
vt 1.000000 0.000000
vt 1.000000 1.000000
vt 0.000000 0.000000
vt 1.000000 0.000000
vt 1.000000 1.000000
vt 0.000000 0.000000
vt 1.000000 0.000000
vt 1.000000 1.000000
vt 0.000000 0.000000
vt 1.000000 0.000000
vt 1.000000 1.000000
vt 0.000000 0.000000
vt 1.000000 0.000000
vt 1.000000 1.000000
vt 0.000000 0.000000
vt 1.000000 0.000000
vt 1.000000 1.000000
vt 0.000000 0.000000
vt 1.000000 0.000000
vt 1.000000 1.000000
vt 0.000000 0.000000
vt 1.000000 0.000000
vt 1.000000 1.000000
vt 0.000000 0.000000
vt 1.000000 0.000000
vt 1.000000 1.000000
vt 0.000000 0.000000
vt 1.000000 0.000000
vt 1.000000 1.000000
vt 0.000000 0.000000
vt 1.000000 0.000000
vt 1.000000 1.000000
vt 0.000000 0.000000
vt 1.000000 0.000000
vt 1.000000 1.000000
vt 0.000000 0.000000
vt 1.000000 0.000000
vt 1.000000 1.000000
vt 0.000000 0.000000
vt 1.000000 0.000000
vt 1.000000 1.000000
vt 0.000000 0.000000
vt 1.000000 0.000000
vt 1.000000 1.000000
vt 0.000000 0.000000
vt 1.000000 0.000000
vt 1.000000 1.000000
vt 0.000000 0.000000
vt 1.000000 0.000000
vt 1.000000 1.000000
vt 0.000000 0.000000
vt 1.000000 0.000000
vt 1.000000 1.000000
vt 0.000000 0.000000
vt 1.000000 0.000000
vt 1.000000 1.000000
vt 0.000000 0.000000
vt 1.000000 0.000000
vt 1.000000 1.000000
vt 0.000000 0.000000
vt 1.000000 0.000000
vt 1.000000 1.000000
vt 0.000000 0.000000
vt 1.000000 0.000000
vt 1.000000 1.000000
vt 0.000000 0.000000
vt 1.000000 0.000000
vt 1.000000 1.000000
vt 0.000000 0.000000
vt 1.000000 0.000000
vt 1.000000 1.000000
vt 0.000000 0.000000
vt 1.000000 0.000000
vt 1.000000 1.000000
vt 0.000000 0.000000
vt 1.000000 0.000000
vt 1.000000 1.000000
vt 0.000000 0.000000
vt 1.000000 0.000000
vt 1.000000 1.000000
vt 0.000000 0.000000
vt 1.000000 0.000000
vt 1.000000 1.000000
vt 0.000000 0.000000
vt 1.000000 0.000000
vt 1.000000 1.000000
vt 0.000000 0.000000
vt 1.000000 0.000000
vt 1.000000 1.000000
vt 0.000000 0.000000
vt 1.000000 0.000000
vt 1.000000 1.000000
vt 0.000000 0.000000
vt 1.000000 0.000000
vt 1.000000 1.000000
vt 0.000000 0.000000
vt 1.000000 0.000000
vt 1.000000 1.000000
vt 0.000000 0.000000
vt 1.000000 0.000000
vt 1.000000 1.000000
vt 0.000000 1.000000
vt 0.000000 0.000000
vt 1.000000 0.000000
vt 1.000000 1.000000
vt 0.000000 1.000000
vt 0.000000 0.000000
vt 1.000000 0.000000
vt 1.000000 1.000000
vt 0.000000 1.000000
vt 0.000000 0.000000
vt 1.000000 0.000000
vt 1.000000 1.000000
vt 0.000000 1.000000
vt 0.000000 0.000000
vt 1.000000 0.000000
vt 1.000000 1.000000
vt 0.000000 1.000000
vt 0.000000 0.000000
vt 1.000000 0.000000
vt 1.000000 1.000000
vt 0.000000 1.000000
vt 0.000000 0.000000
vt 1.000000 0.000000
vt 1.000000 1.000000
vt 0.000000 1.000000
vt 0.000000 0.000000
vt 1.000000 0.000000
vt 1.000000 1.000000
vt 0.000000 1.000000
vt 0.000000 0.000000
vt 1.000000 0.000000
vt 1.000000 1.000000
vt 0.000000 1.000000
vt 0.000000 0.000000
vt 1.000000 0.000000
vt 1.000000 1.000000
vt 0.000000 1.000000
vt 0.000000 0.000000
vt 1.000000 0.000000
vt 1.000000 1.000000
vt 0.000000 1.000000
vt 0.000000 0.000000
vt 1.000000 0.000000
vt 1.000000 1.000000
vt 0.000000 1.000000
vt 0.000000 0.000000
vt 1.000000 0.000000
vt 1.000000 1.000000
vt 0.000000 1.000000
vt 0.000000 0.000000
vt 1.000000 0.000000
vt 1.000000 1.000000
vt 0.000000 1.000000
vt 0.000000 0.000000
vt 1.000000 0.000000
vt 1.000000 1.000000
vt 0.000000 1.000000
vt 0.000000 0.000000
vt 1.000000 0.000000
vt 1.000000 1.000000
vt 0.000000 1.000000
vt 0.000000 0.000000
vt 1.000000 0.000000
vt 1.000000 1.000000
vt 0.000000 1.000000
vt 0.000000 0.000000
vt 1.000000 0.000000
vt 1.000000 1.000000
vt 0.000000 1.000000
vt 0.000000 0.000000
vt 1.000000 0.000000
vt 1.000000 1.000000
vt 0.000000 1.000000
vt 0.000000 0.000000
vt 1.000000 0.000000
vt 1.000000 1.000000
vt 0.000000 1.000000
vt 0.000000 0.000000
vt 1.000000 0.000000
vt 1.000000 1.000000
vt 0.000000 1.000000
vt 0.000000 0.000000
vt 1.000000 0.000000
vt 1.000000 1.000000
vt 0.000000 1.000000
vt 0.000000 0.000000
vt 1.000000 0.000000
vt 1.000000 1.000000
vt 0.000000 1.000000
vt 0.000000 0.000000
vt 1.000000 0.000000
vt 1.000000 1.000000
vt 0.000000 1.000000
vt 0.000000 0.000000
vt 1.000000 0.000000
vt 1.000000 1.000000
vt 0.000000 1.000000
vt 0.000000 0.000000
vt 1.000000 0.000000
vt 1.000000 1.000000
vt 0.000000 1.000000
vt 0.000000 0.000000
vt 1.000000 0.000000
vt 1.000000 1.000000
vt 0.000000 1.000000
vt 0.000000 0.000000
vt 1.000000 0.000000
vt 1.000000 1.000000
vt 0.000000 1.000000
vt 0.000000 0.000000
vt 1.000000 0.000000
vt 1.000000 1.000000
vt 0.000000 1.000000
vt 0.000000 0.000000
vt 1.000000 0.000000
vt 1.000000 1.000000
vt 0.000000 1.000000
vt 0.000000 0.000000
vt 1.000000 0.000000
vt 1.000000 1.000000
vt 0.000000 1.000000
vt 0.000000 0.000000
vt 1.000000 0.000000
vt 1.000000 1.000000
vt 0.000000 1.000000
vt 0.000000 0.000000
vt 1.000000 0.000000
vt 1.000000 1.000000
vt 0.000000 1.000000
vt 0.000000 0.000000
vt 1.000000 0.000000
vt 1.000000 1.000000
vt 0.000000 1.000000
vt 0.000000 0.000000
vt 1.000000 0.000000
vt 1.000000 1.000000
vt 0.000000 1.000000
vt 0.000000 0.000000
vt 1.000000 0.000000
vt 1.000000 1.000000
vt 0.000000 1.000000
vt 0.000000 0.000000
vt 1.000000 0.000000
vt 1.000000 1.000000
vt 0.000000 1.000000
vt 0.000000 0.000000
vt 1.000000 0.000000
vt 1.000000 1.000000
vt 0.000000 1.000000
vt 0.000000 0.000000
vt 1.000000 0.000000
vt 1.000000 1.000000
vt 0.000000 1.000000
vt 0.000000 0.000000
vt 1.000000 0.000000
vt 1.000000 1.000000
vt 0.000000 1.000000
vt 0.000000 0.000000
vt 1.000000 0.000000
vt 1.000000 1.000000
vt 0.000000 1.000000
vt 0.000000 0.000000
vt 1.000000 0.000000
vt 1.000000 1.000000
vt 0.000000 1.000000
vt 0.000000 0.000000
vt 1.000000 0.000000
vt 1.000000 1.000000
vt 0.000000 1.000000
vt 0.000000 0.000000
vt 1.000000 0.000000
vt 1.000000 1.000000
vt 0.000000 1.000000
vt 0.000000 0.000000
vt 1.000000 0.000000
vt 1.000000 1.000000
vt 0.000000 1.000000
vt 0.000000 0.000000
vt 1.000000 0.000000
vt 1.000000 1.000000
vt 0.000000 1.000000
vt 0.000000 0.000000
vt 1.000000 0.000000
vt 1.000000 1.000000
vt 0.000000 1.000000
vt 0.000000 0.000000
vt 1.000000 0.000000
vt 1.000000 1.000000
vt 0.000000 1.000000
vt 0.000000 0.000000
vt 1.000000 0.000000
vt 1.000000 1.000000
vt 0.000000 1.000000
vt 0.000000 0.000000
vt 1.000000 0.000000
vt 1.000000 1.000000
vt 0.000000 1.000000
vt 0.000000 0.000000
vt 1.000000 0.000000
vt 1.000000 1.000000
vt 0.000000 1.000000
vt 0.000000 0.000000
vt 1.000000 0.000000
vt 1.000000 1.000000
vt 0.000000 1.000000
vt 0.000000 0.000000
vt 1.000000 0.000000
vt 1.000000 1.000000
vt 0.000000 1.000000
vt 0.000000 0.000000
vt 1.000000 0.000000
vt 1.000000 1.000000
vt 0.000000 1.000000
vt 0.000000 0.000000
vt 1.000000 0.000000
vt 1.000000 1.000000
vt 0.000000 1.000000
vt 0.000000 0.000000
vt 1.000000 0.000000
vt 1.000000 1.000000
vt 0.000000 1.000000
vt 0.000000 0.000000
vt 1.000000 0.000000
vt 1.000000 1.000000
vt 0.000000 1.000000
vt 0.000000 0.000000
vt 1.000000 0.000000
vt 1.000000 1.000000
vt 0.000000 1.000000
vt 0.000000 0.000000
vt 1.000000 0.000000
vt 1.000000 1.000000
vt 0.000000 1.000000
vt 0.000000 0.000000
vt 1.000000 0.000000
vt 1.000000 1.000000
vt 0.000000 1.000000
vt 0.000000 0.000000
vt 1.000000 0.000000
vt 1.000000 1.000000
vt 0.000000 0.000000
vt 1.000000 0.000000
vt 1.000000 1.000000
vt 0.000000 0.000000
vt 1.000000 0.000000
vt 1.000000 1.000000
vt 0.000000 0.000000
vt 1.000000 0.000000
vt 1.000000 1.000000
vt 0.000000 0.000000
vt 1.000000 0.000000
vt 1.000000 1.000000
vt 0.000000 0.000000
vt 1.000000 0.000000
vt 1.000000 1.000000
vt 0.000000 0.000000
vt 1.000000 0.000000
vt 1.000000 1.000000
vt 0.000000 0.000000
vt 1.000000 0.000000
vt 1.000000 1.000000
vt 0.000000 0.000000
vt 1.000000 0.000000
vt 1.000000 1.000000
vt 0.000000 0.000000
vt 1.000000 0.000000
vt 1.000000 1.000000
vt 0.000000 0.000000
vt 1.000000 0.000000
vt 1.000000 1.000000
vt 0.000000 0.000000
vt 1.000000 0.000000
vt 1.000000 1.000000
vt 0.000000 0.000000
vt 1.000000 0.000000
vt 1.000000 1.000000
vt 0.000000 0.000000
vt 1.000000 0.000000
vt 1.000000 1.000000
vt 0.000000 0.000000
vt 1.000000 0.000000
vt 1.000000 1.000000
vt 0.000000 0.000000
vt 1.000000 0.000000
vt 1.000000 1.000000
vt 0.000000 0.000000
vt 1.000000 0.000000
vt 1.000000 1.000000
vt 0.000000 0.000000
vt 1.000000 0.000000
vt 1.000000 1.000000
vt 0.000000 0.000000
vt 1.000000 0.000000
vt 1.000000 1.000000
vt 0.000000 0.000000
vt 1.000000 0.000000
vt 1.000000 1.000000
vt 0.000000 0.000000
vt 1.000000 0.000000
vt 1.000000 1.000000
vt 0.000000 0.000000
vt 1.000000 0.000000
vt 1.000000 1.000000
vt 0.000000 0.000000
vt 1.000000 0.000000
vt 1.000000 1.000000
vt 0.000000 0.000000
vt 1.000000 0.000000
vt 1.000000 1.000000
vt 0.000000 0.000000
vt 1.000000 0.000000
vt 1.000000 1.000000
vt 0.000000 0.000000
vt 1.000000 0.000000
vt 1.000000 1.000000
vt 0.000000 0.000000
vt 1.000000 0.000000
vt 1.000000 1.000000
vt 0.000000 0.000000
vt 1.000000 0.000000
vt 1.000000 1.000000
vt 0.000000 0.000000
vt 1.000000 0.000000
vt 1.000000 1.000000
vt 0.000000 0.000000
vt 1.000000 0.000000
vt 1.000000 1.000000
vt 0.000000 0.000000
vt 1.000000 0.000000
vt 1.000000 1.000000
vt 0.000000 0.000000
vt 1.000000 0.000000
vt 1.000000 1.000000
vt 0.000000 0.000000
vt 1.000000 0.000000
vt 1.000000 1.000000
vt 0.000000 0.000000
vt 1.000000 0.000000
vt 1.000000 1.000000
vt 0.000000 0.000000
vt 1.000000 0.000000
vt 1.000000 1.000000
vt 0.000000 0.000000
vt 1.000000 0.000000
vt 1.000000 1.000000
vt 0.000000 0.000000
vt 1.000000 0.000000
vt 1.000000 1.000000
vt 0.000000 0.000000
vt 1.000000 0.000000
vt 1.000000 1.000000
vt 0.000000 0.000000
vt 1.000000 0.000000
vt 1.000000 1.000000
vt 0.000000 0.000000
vt 1.000000 0.000000
vt 1.000000 1.000000
vt 0.000000 0.000000
vt 1.000000 0.000000
vt 1.000000 1.000000
vt 0.000000 0.000000
vt 1.000000 0.000000
vt 1.000000 1.000000
vt 0.000000 0.000000
vt 1.000000 0.000000
vt 1.000000 1.000000
vt 0.000000 0.000000
vt 1.000000 0.000000
vt 1.000000 1.000000
vt 0.000000 0.000000
vt 1.000000 0.000000
vt 1.000000 1.000000
vt 0.000000 0.000000
vt 1.000000 0.000000
vt 1.000000 1.000000
vt 0.000000 0.000000
vt 1.000000 0.000000
vt 1.000000 1.000000
vt 0.000000 0.000000
vt 1.000000 0.000000
vt 1.000000 1.000000
vt 0.000000 0.000000
vt 1.000000 0.000000
vt 1.000000 1.000000
vt 0.000000 0.000000
vt 1.000000 0.000000
vt 1.000000 1.000000
vt 0.000000 0.000000
vt 1.000000 0.000000
vt 1.000000 1.000000
vt 0.000000 0.000000
vt 1.000000 0.000000
vt 1.000000 1.000000
vt 0.000000 0.000000
vt 1.000000 0.000000
vt 1.000000 1.000000
vt 0.000000 0.000000
vt 1.000000 0.000000
vt 1.000000 1.000000
vt 0.000000 0.000000
vt 1.000000 0.000000
vt 1.000000 1.000000
vt 0.000000 0.000000
vt 1.000000 0.000000
vt 1.000000 1.000000
vt 0.000000 0.000000
vt 1.000000 0.000000
vt 1.000000 1.000000
vt 0.000000 0.000000
vt 1.000000 0.000000
vt 1.000000 1.000000
vt 0.000000 0.000000
vt 1.000000 0.000000
vt 1.000000 1.000000
vt 0.000000 0.000000
vt 1.000000 0.000000
vt 1.000000 1.000000
vt 0.000000 0.000000
vt 1.000000 0.000000
vt 1.000000 1.000000
vt 0.000000 0.000000
vt 1.000000 0.000000
vt 1.000000 1.000000
vt 0.000000 0.000000
vt 1.000000 0.000000
vt 1.000000 1.000000
vt 0.000000 0.000000
vt 1.000000 0.000000
vt 1.000000 1.000000
vt 0.000000 0.000000
vt 1.000000 0.000000
vt 1.000000 1.000000
vt 0.000000 0.000000
vt 1.000000 0.000000
vt 1.000000 1.000000
vt 0.000000 0.000000
vt 1.000000 0.000000
vt 1.000000 1.000000
vt 0.000000 0.000000
vt 1.000000 0.000000
vt 1.000000 1.000000
vt 0.000000 0.000000
vt 1.000000 0.000000
vt 1.000000 1.000000
vt 0.000000 0.000000
vt 1.000000 0.000000
vt 1.000000 1.000000
vt 0.000000 0.000000
vt 1.000000 0.000000
vt 1.000000 1.000000
vt 0.000000 0.000000
vt 1.000000 0.000000
vt 1.000000 1.000000
o RidgeGroundingMass
usemtl MAT_ROCK
f 1/1 4/2 3/3 2/4
f 5/5 6/6 7/7 8/8
f 1/9 2/10 6/11 5/12
f 4/13 8/14 7/15 3/16
f 1/17 5/18 8/19 4/20
f 2/21 3/22 7/23 6/24
o RidgeEdgeRock_1
f 9/25 11/26 12/27
f 10/28 12/29 11/30
f 9/31 12/32 13/33
f 10/34 13/35 12/36
f 9/37 13/38 14/39
f 10/40 14/41 13/42
f 9/43 14/44 15/45
f 10/46 15/47 14/48
f 9/49 15/50 16/51
f 10/52 16/53 15/54
f 9/55 16/56 17/57
f 10/58 17/59 16/60
f 9/61 17/62 11/63
f 10/64 11/65 17/66
o RidgeEdgeRock_2
f 18/67 20/68 21/69
f 19/70 21/71 20/72
f 18/73 21/74 22/75
f 19/76 22/77 21/78
f 18/79 22/80 23/81
f 19/82 23/83 22/84
f 18/85 23/86 24/87
f 19/88 24/89 23/90
f 18/91 24/92 25/93
f 19/94 25/95 24/96
f 18/97 25/98 26/99
f 19/100 26/101 25/102
f 18/103 26/104 20/105
f 19/106 20/107 26/108
o RidgeEdgeRock_3
f 27/109 29/110 30/111
f 28/112 30/113 29/114
f 27/115 30/116 31/117
f 28/118 31/119 30/120
f 27/121 31/122 32/123
f 28/124 32/125 31/126
f 27/127 32/128 33/129
f 28/130 33/131 32/132
f 27/133 33/134 34/135
f 28/136 34/137 33/138
f 27/139 34/140 35/141
f 28/142 35/143 34/144
f 27/145 35/146 29/147
f 28/148 29/149 35/150
o RidgeEdgeRock_4
f 36/151 38/152 39/153
f 37/154 39/155 38/156
f 36/157 39/158 40/159
f 37/160 40/161 39/162
f 36/163 40/164 41/165
f 37/166 41/167 40/168
f 36/169 41/170 42/171
f 37/172 42/173 41/174
f 36/175 42/176 43/177
f 37/178 43/179 42/180
f 36/181 43/182 44/183
f 37/184 44/185 43/186
f 36/187 44/188 38/189
f 37/190 38/191 44/192
o RidgeEdgeRock_5
f 45/193 47/194 48/195
f 46/196 48/197 47/198
f 45/199 48/200 49/201
f 46/202 49/203 48/204
f 45/205 49/206 50/207
f 46/208 50/209 49/210
f 45/211 50/212 51/213
f 46/214 51/215 50/216
f 45/217 51/218 52/219
f 46/220 52/221 51/222
f 45/223 52/224 53/225
f 46/226 53/227 52/228
f 45/229 53/230 47/231
f 46/232 47/233 53/234
o RidgeEdgeRock_6
f 54/235 56/236 57/237
f 55/238 57/239 56/240
f 54/241 57/242 58/243
f 55/244 58/245 57/246
f 54/247 58/248 59/249
f 55/250 59/251 58/252
f 54/253 59/254 60/255
f 55/256 60/257 59/258
f 54/259 60/260 61/261
f 55/262 61/263 60/264
f 54/265 61/266 62/267
f 55/268 62/269 61/270
f 54/271 62/272 56/273
f 55/274 56/275 62/276
o SafeOverlookPlatform
usemtl MAT_RIDGE
f 63/277 66/278 65/279 64/280
f 67/281 68/282 69/283 70/284
f 63/285 64/286 68/287 67/288
f 66/289 70/290 69/291 65/292
f 63/293 67/294 70/295 66/296
f 64/297 65/298 69/299 68/300
o ObviousReturnRoute
f 71/301 72/302 73/303 74/304
f 75/305 78/306 77/307 76/308
f 71/309 75/310 76/311 72/312
f 72/313 76/314 77/315 73/316
f 73/317 77/318 78/319 74/320
f 74/321 78/322 75/323 71/324
o ArrivalMarkerLeft
usemtl MAT_MARKER
f 79/325 80/326 82/327 81/328
f 83/329 85/330 86/331 84/332
f 79/333 83/334 84/335 80/336
f 81/337 82/338 86/339 85/340
f 79/341 81/342 85/343 83/344
f 80/345 84/346 86/347 82/348
o ArrivalMarkerRight
f 87/349 88/350 90/351 89/352
f 91/353 93/354 94/355 92/356
f 87/357 91/358 92/359 88/360
f 89/361 90/362 94/363 93/364
f 87/365 89/366 93/367 91/368
f 88/369 92/370 94/371 90/372
o ArrivalMarkerHeader
f 95/373 96/374 98/375 97/376
f 99/377 101/378 102/379 100/380
f 95/381 99/382 100/383 96/384
f 97/385 98/386 102/387 101/388
f 95/389 97/390 101/391 99/392
f 96/393 100/394 102/395 98/396
o WindCueMast
f 103/397 104/398 106/399 105/400
f 107/401 109/402 110/403 108/404
f 103/405 107/406 108/407 104/408
f 105/409 106/410 110/411 109/412
f 103/413 105/414 109/415 107/416
f 104/417 108/418 110/419 106/420
o DirectionalWindPanel
f 111/421 114/422 113/423 112/424
f 115/425 116/426 117/427 118/428
f 111/429 112/430 116/431 115/432
f 114/433 118/434 117/435 113/436
f 111/437 115/438 118/439 114/440
f 112/441 113/442 117/443 116/444
o SignalDirectionLeft
usemtl MAT_WOOD
f 119/445 120/446 122/447 121/448
f 123/449 125/450 126/451 124/452
f 119/453 123/454 124/455 120/456
f 121/457 122/458 126/459 125/460
f 119/461 121/462 125/463 123/464
f 120/465 124/466 126/467 122/468
o SignalDirectionRight
f 127/469 128/470 130/471 129/472
f 131/473 133/474 134/475 132/476
f 127/477 131/478 132/479 128/480
f 129/481 130/482 134/483 133/484
f 127/485 129/486 133/487 131/488
f 128/489 132/490 134/491 130/492
o SignalDirectionCrossbar
f 135/493 136/494 138/495 137/496
f 139/497 141/498 142/499 140/500
f 135/501 139/502 140/503 136/504
f 137/505 138/506 142/507 141/508
f 135/509 137/510 141/511 139/512
f 136/513 140/514 142/515 138/516
o ComfortEdgeBarrier_1
usemtl MAT_ROCK
f 143/517 145/518 146/519
f 144/520 146/521 145/522
f 143/523 146/524 147/525
f 144/526 147/527 146/528
f 143/529 147/530 148/531
f 144/532 148/533 147/534
f 143/535 148/536 149/537
f 144/538 149/539 148/540
f 143/541 149/542 150/543
f 144/544 150/545 149/546
f 143/547 150/548 145/549
f 144/550 145/551 150/552
o ComfortEdgeBarrier_2
f 151/553 153/554 154/555
f 152/556 154/557 153/558
f 151/559 154/560 155/561
f 152/562 155/563 154/564
f 151/565 155/566 156/567
f 152/568 156/569 155/570
f 151/571 156/572 157/573
f 152/574 157/575 156/576
f 151/577 157/578 158/579
f 152/580 158/581 157/582
f 151/583 158/584 153/585
f 152/586 153/587 158/588
o ComfortEdgeBarrier_3
f 159/589 161/590 162/591
f 160/592 162/593 161/594
f 159/595 162/596 163/597
f 160/598 163/599 162/600
f 159/601 163/602 164/603
f 160/604 164/605 163/606
f 159/607 164/608 165/609
f 160/610 165/611 164/612
f 159/613 165/614 166/615
f 160/616 166/617 165/618
f 159/619 166/620 161/621
f 160/622 161/623 166/624
o ComfortEdgeBarrier_4
f 167/625 169/626 170/627
f 168/628 170/629 169/630
f 167/631 170/632 171/633
f 168/634 171/635 170/636
f 167/637 171/638 172/639
f 168/640 172/641 171/642
f 167/643 172/644 173/645
f 168/646 173/647 172/648
f 167/649 173/650 174/651
f 168/652 174/653 173/654
f 167/655 174/656 169/657
f 168/658 169/659 174/660
o ComfortEdgeBarrier_5
f 175/661 177/662 178/663
f 176/664 178/665 177/666
f 175/667 178/668 179/669
f 176/670 179/671 178/672
f 175/673 179/674 180/675
f 176/676 180/677 179/678
f 175/679 180/680 181/681
f 176/682 181/683 180/684
f 175/685 181/686 182/687
f 176/688 182/689 181/690
f 175/691 182/692 177/693
f 176/694 177/695 182/696
o ComfortEdgeBarrier_6
f 183/697 185/698 186/699
f 184/700 186/701 185/702
f 183/703 186/704 187/705
f 184/706 187/707 186/708
f 183/709 187/710 188/711
f 184/712 188/713 187/714
f 183/715 188/716 189/717
f 184/718 189/719 188/720
f 183/721 189/722 190/723
f 184/724 190/725 189/726
f 183/727 190/728 185/729
f 184/730 185/731 190/732
