# PROJECT OEN production source mesh: ENV_RAVINE_001
mtllib ENV_RAVINE_001.mtl
s off
v -3.800000 0.000000 -2.200000
v -1.000000 0.000000 -2.200000
v -1.000000 0.760000 -2.200000
v -3.800000 0.760000 -2.200000
v -3.800000 0.000000 2.200000
v -1.000000 0.000000 2.200000
v -1.000000 0.760000 2.200000
v -3.800000 0.760000 2.200000
v 1.000000 0.000000 -2.200000
v 3.800000 0.000000 -2.200000
v 3.800000 1.440000 -2.200000
v 1.000000 1.440000 -2.200000
v 1.000000 0.000000 2.200000
v 3.800000 0.000000 2.200000
v 3.800000 1.440000 2.200000
v 1.000000 1.440000 2.200000
v -1.300000 1.070000 -1.700000
v -1.300000 0.230000 -1.700000
v -0.650000 0.650000 -1.700000
v -0.894732 0.650000 -1.269993
v -1.444639 0.650000 -1.163790
v -1.885630 0.650000 -1.461364
v -1.885630 0.650000 -1.938636
v -1.444639 0.650000 -2.236210
v -0.894732 0.650000 -2.130007
v -1.400000 1.180000 1.600000
v -1.400000 0.220000 1.600000
v -0.680000 0.700000 1.600000
v -0.951087 0.700000 2.084736
v -1.560215 0.700000 2.204455
v -2.048698 0.700000 1.869008
v -2.048698 0.700000 1.330992
v -1.560215 0.700000 0.995545
v -0.951087 0.700000 1.115264
v 1.300000 1.750000 -1.600000
v 1.300000 0.650000 -1.600000
v 1.980000 1.200000 -1.600000
v 1.723973 1.200000 -1.115264
v 1.148686 1.200000 -0.995545
v 0.687341 1.200000 -1.330992
v 0.687341 1.200000 -1.869008
v 1.148686 1.200000 -2.204455
v 1.723973 1.200000 -2.084736
v 1.400000 1.950000 1.550000
v 1.400000 0.750000 1.550000
v 2.180000 1.350000 1.550000
v 1.886322 1.350000 2.081645
v 1.226434 1.350000 2.212951
v 0.697244 1.350000 1.845041
v 0.697244 1.350000 1.254959
v 1.226434 1.350000 0.887049
v 1.886322 1.350000 1.018355
v -2.800000 1.400000 -1.800000
v -2.800000 0.300000 -1.800000
v -2.050000 0.850000 -1.800000
v -2.332383 0.850000 -1.315264
v -2.966891 0.850000 -1.195545
v -3.475727 0.850000 -1.530992
v -3.475727 0.850000 -2.069008
v -2.966891 0.850000 -2.404455
v -2.332383 0.850000 -2.284736
v -2.900000 1.320000 1.750000
v -2.900000 0.320000 1.750000
v -2.200000 0.820000 1.750000
v -2.463557 0.820000 2.203462
v -3.055765 0.820000 2.315458
v -3.530678 0.820000 2.001653
v -3.530678 0.820000 1.498347
v -3.055765 0.820000 1.184542
v -2.463557 0.820000 1.296538
v 2.800000 2.170000 -1.750000
v 2.800000 0.930000 -1.750000
v 3.580000 1.550000 -1.750000
v 3.286322 1.550000 -1.241810
v 2.626434 1.550000 -1.116297
v 2.097244 1.550000 -1.467976
v 2.097244 1.550000 -2.032024
v 2.626434 1.550000 -2.383703
v 3.286322 1.550000 -2.258190
v 2.900000 2.240000 1.700000
v 2.900000 0.920000 1.700000
v 3.720000 1.580000 1.700000
v 3.411262 1.580000 2.247282
v 2.717533 1.580000 2.382450
v 2.161206 1.580000 2.003719
v 2.161206 1.580000 1.396281
v 2.717533 1.580000 1.017550
v 3.411262 1.580000 1.152718
v -2.750000 0.750000 -0.825000
v -1.250000 0.750000 -0.825000
v -1.250000 0.850000 -0.825000
v -2.750000 0.850000 -0.825000
v -2.750000 0.750000 0.825000
v -1.250000 0.750000 0.825000
v -1.250000 0.850000 0.825000
v -2.750000 0.850000 0.825000
v 1.225000 1.440000 -0.775000
v 2.775000 1.440000 -0.775000
v 2.775000 1.540000 -0.775000
v 1.225000 1.540000 -0.775000
v 1.225000 1.440000 0.775000
v 2.775000 1.440000 0.775000
v 2.775000 1.540000 0.775000
v 1.225000 1.540000 0.775000
v -0.950000 0.660000 -0.150000
v -0.950000 0.260000 -0.150000
v -0.610000 0.460000 -0.150000
v -0.780000 0.460000 0.179090
v -1.120000 0.460000 0.179090
v -1.290000 0.460000 -0.150000
v -1.120000 0.460000 -0.479090
v -0.780000 0.460000 -0.479090
v -0.300000 0.870000 0.120000
v -0.300000 0.470000 0.120000
v 0.040000 0.670000 0.120000
v -0.130000 0.670000 0.449090
v -0.470000 0.670000 0.449090
v -0.640000 0.670000 0.120000
v -0.470000 0.670000 -0.209090
v -0.130000 0.670000 -0.209090
v 0.380000 1.080000 -0.080000
v 0.380000 0.680000 -0.080000
v 0.720000 0.880000 -0.080000
v 0.550000 0.880000 0.249090
v 0.210000 0.880000 0.249090
v 0.040000 0.880000 -0.080000
v 0.210000 0.880000 -0.409090
v 0.550000 0.880000 -0.409090
v 1.020000 1.300000 0.100000
v 1.020000 0.900000 0.100000
v 1.360000 1.100000 0.100000
v 1.190000 1.100000 0.429090
v 0.850000 1.100000 0.429090
v 0.680000 1.100000 0.100000
v 0.850000 1.100000 -0.229090
v 1.190000 1.100000 -0.229090
v -1.040000 0.675000 -0.430000
v -0.860000 0.675000 -0.430000
v -0.860000 0.725000 -0.430000
v -1.040000 0.725000 -0.430000
v -1.040000 0.675000 -0.250000
v -0.860000 0.675000 -0.250000
v -0.860000 0.725000 -0.250000
v -1.040000 0.725000 -0.250000
v -0.390000 0.885000 0.220000
v -0.210000 0.885000 0.220000
v -0.210000 0.935000 0.220000
v -0.390000 0.935000 0.220000
v -0.390000 0.885000 0.400000
v -0.210000 0.885000 0.400000
v -0.210000 0.935000 0.400000
v -0.390000 0.935000 0.400000
v 0.290000 1.095000 -0.370000
v 0.470000 1.095000 -0.370000
v 0.470000 1.145000 -0.370000
v 0.290000 1.145000 -0.370000
v 0.290000 1.095000 -0.190000
v 0.470000 1.095000 -0.190000
v 0.470000 1.145000 -0.190000
v 0.290000 1.145000 -0.190000
v 0.930000 1.315000 0.200000
v 1.110000 1.315000 0.200000
v 1.110000 1.365000 0.200000
v 0.930000 1.365000 0.200000
v 0.930000 1.315000 0.380000
v 1.110000 1.315000 0.380000
v 1.110000 1.365000 0.380000
v 0.930000 1.365000 0.380000
v -1.120857 0.000000 1.615715
v -0.979143 0.000000 1.084285
v -0.229143 0.000000 1.284285
v -0.370857 0.000000 1.815715
v -1.120857 0.120000 1.615715
v -0.979143 0.120000 1.084285
v -0.229143 0.120000 1.284285
v -0.370857 0.120000 1.815715
v -0.300000 0.000000 1.825000
v -0.300000 0.000000 1.275000
v 0.500000 0.000000 1.275000
v 0.500000 0.000000 1.825000
v -0.300000 0.120000 1.825000
v -0.300000 0.120000 1.275000
v 0.500000 0.120000 1.275000
v 0.500000 0.120000 1.825000
v 0.562986 0.000000 1.817690
v 0.437014 0.000000 1.282310
v 1.287014 0.000000 1.082310
v 1.412986 0.000000 1.617690
v 0.562986 0.120000 1.817690
v 0.437014 0.120000 1.282310
v 1.287014 0.120000 1.082310
v 1.412986 0.120000 1.617690
vt 0.000000 0.000000
vt 1.000000 0.000000
vt 1.000000 1.000000
vt 0.000000 1.000000
vt 0.000000 0.000000
vt 1.000000 0.000000
vt 1.000000 1.000000
vt 0.000000 1.000000
vt 0.000000 0.000000
vt 1.000000 0.000000
vt 1.000000 1.000000
vt 0.000000 1.000000
vt 0.000000 0.000000
vt 1.000000 0.000000
vt 1.000000 1.000000
vt 0.000000 1.000000
vt 0.000000 0.000000
vt 1.000000 0.000000
vt 1.000000 1.000000
vt 0.000000 1.000000
vt 0.000000 0.000000
vt 1.000000 0.000000
vt 1.000000 1.000000
vt 0.000000 1.000000
vt 0.000000 0.000000
vt 1.000000 0.000000
vt 1.000000 1.000000
vt 0.000000 1.000000
vt 0.000000 0.000000
vt 1.000000 0.000000
vt 1.000000 1.000000
vt 0.000000 1.000000
vt 0.000000 0.000000
vt 1.000000 0.000000
vt 1.000000 1.000000
vt 0.000000 1.000000
vt 0.000000 0.000000
vt 1.000000 0.000000
vt 1.000000 1.000000
vt 0.000000 1.000000
vt 0.000000 0.000000
vt 1.000000 0.000000
vt 1.000000 1.000000
vt 0.000000 1.000000
vt 0.000000 0.000000
vt 1.000000 0.000000
vt 1.000000 1.000000
vt 0.000000 1.000000
vt 0.000000 0.000000
vt 1.000000 0.000000
vt 1.000000 1.000000
vt 0.000000 0.000000
vt 1.000000 0.000000
vt 1.000000 1.000000
vt 0.000000 0.000000
vt 1.000000 0.000000
vt 1.000000 1.000000
vt 0.000000 0.000000
vt 1.000000 0.000000
vt 1.000000 1.000000
vt 0.000000 0.000000
vt 1.000000 0.000000
vt 1.000000 1.000000
vt 0.000000 0.000000
vt 1.000000 0.000000
vt 1.000000 1.000000
vt 0.000000 0.000000
vt 1.000000 0.000000
vt 1.000000 1.000000
vt 0.000000 0.000000
vt 1.000000 0.000000
vt 1.000000 1.000000
vt 0.000000 0.000000
vt 1.000000 0.000000
vt 1.000000 1.000000
vt 0.000000 0.000000
vt 1.000000 0.000000
vt 1.000000 1.000000
vt 0.000000 0.000000
vt 1.000000 0.000000
vt 1.000000 1.000000
vt 0.000000 0.000000
vt 1.000000 0.000000
vt 1.000000 1.000000
vt 0.000000 0.000000
vt 1.000000 0.000000
vt 1.000000 1.000000
vt 0.000000 0.000000
vt 1.000000 0.000000
vt 1.000000 1.000000
vt 0.000000 0.000000
vt 1.000000 0.000000
vt 1.000000 1.000000
vt 0.000000 0.000000
vt 1.000000 0.000000
vt 1.000000 1.000000
vt 0.000000 0.000000
vt 1.000000 0.000000
vt 1.000000 1.000000
vt 0.000000 0.000000
vt 1.000000 0.000000
vt 1.000000 1.000000
vt 0.000000 0.000000
vt 1.000000 0.000000
vt 1.000000 1.000000
vt 0.000000 0.000000
vt 1.000000 0.000000
vt 1.000000 1.000000
vt 0.000000 0.000000
vt 1.000000 0.000000
vt 1.000000 1.000000
vt 0.000000 0.000000
vt 1.000000 0.000000
vt 1.000000 1.000000
vt 0.000000 0.000000
vt 1.000000 0.000000
vt 1.000000 1.000000
vt 0.000000 0.000000
vt 1.000000 0.000000
vt 1.000000 1.000000
vt 0.000000 0.000000
vt 1.000000 0.000000
vt 1.000000 1.000000
vt 0.000000 0.000000
vt 1.000000 0.000000
vt 1.000000 1.000000
vt 0.000000 0.000000
vt 1.000000 0.000000
vt 1.000000 1.000000
vt 0.000000 0.000000
vt 1.000000 0.000000
vt 1.000000 1.000000
vt 0.000000 0.000000
vt 1.000000 0.000000
vt 1.000000 1.000000
vt 0.000000 0.000000
vt 1.000000 0.000000
vt 1.000000 1.000000
vt 0.000000 0.000000
vt 1.000000 0.000000
vt 1.000000 1.000000
vt 0.000000 0.000000
vt 1.000000 0.000000
vt 1.000000 1.000000
vt 0.000000 0.000000
vt 1.000000 0.000000
vt 1.000000 1.000000
vt 0.000000 0.000000
vt 1.000000 0.000000
vt 1.000000 1.000000
vt 0.000000 0.000000
vt 1.000000 0.000000
vt 1.000000 1.000000
vt 0.000000 0.000000
vt 1.000000 0.000000
vt 1.000000 1.000000
vt 0.000000 0.000000
vt 1.000000 0.000000
vt 1.000000 1.000000
vt 0.000000 0.000000
vt 1.000000 0.000000
vt 1.000000 1.000000
vt 0.000000 0.000000
vt 1.000000 0.000000
vt 1.000000 1.000000
vt 0.000000 0.000000
vt 1.000000 0.000000
vt 1.000000 1.000000
vt 0.000000 0.000000
vt 1.000000 0.000000
vt 1.000000 1.000000
vt 0.000000 0.000000
vt 1.000000 0.000000
vt 1.000000 1.000000
vt 0.000000 0.000000
vt 1.000000 0.000000
vt 1.000000 1.000000
vt 0.000000 0.000000
vt 1.000000 0.000000
vt 1.000000 1.000000
vt 0.000000 0.000000
vt 1.000000 0.000000
vt 1.000000 1.000000
vt 0.000000 0.000000
vt 1.000000 0.000000
vt 1.000000 1.000000
vt 0.000000 0.000000
vt 1.000000 0.000000
vt 1.000000 1.000000
vt 0.000000 0.000000
vt 1.000000 0.000000
vt 1.000000 1.000000
vt 0.000000 0.000000
vt 1.000000 0.000000
vt 1.000000 1.000000
vt 0.000000 0.000000
vt 1.000000 0.000000
vt 1.000000 1.000000
vt 0.000000 0.000000
vt 1.000000 0.000000
vt 1.000000 1.000000
vt 0.000000 0.000000
vt 1.000000 0.000000
vt 1.000000 1.000000
vt 0.000000 0.000000
vt 1.000000 0.000000
vt 1.000000 1.000000
vt 0.000000 0.000000
vt 1.000000 0.000000
vt 1.000000 1.000000
vt 0.000000 0.000000
vt 1.000000 0.000000
vt 1.000000 1.000000
vt 0.000000 0.000000
vt 1.000000 0.000000
vt 1.000000 1.000000
vt 0.000000 0.000000
vt 1.000000 0.000000
vt 1.000000 1.000000
vt 0.000000 0.000000
vt 1.000000 0.000000
vt 1.000000 1.000000
vt 0.000000 0.000000
vt 1.000000 0.000000
vt 1.000000 1.000000
vt 0.000000 0.000000
vt 1.000000 0.000000
vt 1.000000 1.000000
vt 0.000000 0.000000
vt 1.000000 0.000000
vt 1.000000 1.000000
vt 0.000000 0.000000
vt 1.000000 0.000000
vt 1.000000 1.000000
vt 0.000000 0.000000
vt 1.000000 0.000000
vt 1.000000 1.000000
vt 0.000000 0.000000
vt 1.000000 0.000000
vt 1.000000 1.000000
vt 0.000000 0.000000
vt 1.000000 0.000000
vt 1.000000 1.000000
vt 0.000000 0.000000
vt 1.000000 0.000000
vt 1.000000 1.000000
vt 0.000000 0.000000
vt 1.000000 0.000000
vt 1.000000 1.000000
vt 0.000000 0.000000
vt 1.000000 0.000000
vt 1.000000 1.000000
vt 0.000000 0.000000
vt 1.000000 0.000000
vt 1.000000 1.000000
vt 0.000000 0.000000
vt 1.000000 0.000000
vt 1.000000 1.000000
vt 0.000000 0.000000
vt 1.000000 0.000000
vt 1.000000 1.000000
vt 0.000000 0.000000
vt 1.000000 0.000000
vt 1.000000 1.000000
vt 0.000000 0.000000
vt 1.000000 0.000000
vt 1.000000 1.000000
vt 0.000000 0.000000
vt 1.000000 0.000000
vt 1.000000 1.000000
vt 0.000000 0.000000
vt 1.000000 0.000000
vt 1.000000 1.000000
vt 0.000000 0.000000
vt 1.000000 0.000000
vt 1.000000 1.000000
vt 0.000000 0.000000
vt 1.000000 0.000000
vt 1.000000 1.000000
vt 0.000000 0.000000
vt 1.000000 0.000000
vt 1.000000 1.000000
vt 0.000000 0.000000
vt 1.000000 0.000000
vt 1.000000 1.000000
vt 0.000000 0.000000
vt 1.000000 0.000000
vt 1.000000 1.000000
vt 0.000000 0.000000
vt 1.000000 0.000000
vt 1.000000 1.000000
vt 0.000000 0.000000
vt 1.000000 0.000000
vt 1.000000 1.000000
vt 0.000000 0.000000
vt 1.000000 0.000000
vt 1.000000 1.000000
vt 0.000000 0.000000
vt 1.000000 0.000000
vt 1.000000 1.000000
vt 0.000000 0.000000
vt 1.000000 0.000000
vt 1.000000 1.000000
vt 0.000000 0.000000
vt 1.000000 0.000000
vt 1.000000 1.000000
vt 0.000000 0.000000
vt 1.000000 0.000000
vt 1.000000 1.000000
vt 0.000000 0.000000
vt 1.000000 0.000000
vt 1.000000 1.000000
vt 0.000000 0.000000
vt 1.000000 0.000000
vt 1.000000 1.000000
vt 0.000000 0.000000
vt 1.000000 0.000000
vt 1.000000 1.000000
vt 0.000000 0.000000
vt 1.000000 0.000000
vt 1.000000 1.000000
vt 0.000000 0.000000
vt 1.000000 0.000000
vt 1.000000 1.000000
vt 0.000000 0.000000
vt 1.000000 0.000000
vt 1.000000 1.000000
vt 0.000000 0.000000
vt 1.000000 0.000000
vt 1.000000 1.000000
vt 0.000000 0.000000
vt 1.000000 0.000000
vt 1.000000 1.000000
vt 0.000000 0.000000
vt 1.000000 0.000000
vt 1.000000 1.000000
vt 0.000000 0.000000
vt 1.000000 0.000000
vt 1.000000 1.000000
vt 0.000000 0.000000
vt 1.000000 0.000000
vt 1.000000 1.000000
vt 0.000000 0.000000
vt 1.000000 0.000000
vt 1.000000 1.000000
vt 0.000000 0.000000
vt 1.000000 0.000000
vt 1.000000 1.000000
vt 0.000000 0.000000
vt 1.000000 0.000000
vt 1.000000 1.000000
vt 0.000000 0.000000
vt 1.000000 0.000000
vt 1.000000 1.000000
vt 0.000000 0.000000
vt 1.000000 0.000000
vt 1.000000 1.000000
vt 0.000000 0.000000
vt 1.000000 0.000000
vt 1.000000 1.000000
vt 0.000000 0.000000
vt 1.000000 0.000000
vt 1.000000 1.000000
vt 0.000000 0.000000
vt 1.000000 0.000000
vt 1.000000 1.000000
vt 0.000000 0.000000
vt 1.000000 0.000000
vt 1.000000 1.000000
vt 0.000000 0.000000
vt 1.000000 0.000000
vt 1.000000 1.000000
vt 0.000000 0.000000
vt 1.000000 0.000000
vt 1.000000 1.000000
vt 0.000000 0.000000
vt 1.000000 0.000000
vt 1.000000 1.000000
vt 0.000000 0.000000
vt 1.000000 0.000000
vt 1.000000 1.000000
vt 0.000000 0.000000
vt 1.000000 0.000000
vt 1.000000 1.000000
vt 0.000000 0.000000
vt 1.000000 0.000000
vt 1.000000 1.000000
vt 0.000000 1.000000
vt 0.000000 0.000000
vt 1.000000 0.000000
vt 1.000000 1.000000
vt 0.000000 1.000000
vt 0.000000 0.000000
vt 1.000000 0.000000
vt 1.000000 1.000000
vt 0.000000 1.000000
vt 0.000000 0.000000
vt 1.000000 0.000000
vt 1.000000 1.000000
vt 0.000000 1.000000
vt 0.000000 0.000000
vt 1.000000 0.000000
vt 1.000000 1.000000
vt 0.000000 1.000000
vt 0.000000 0.000000
vt 1.000000 0.000000
vt 1.000000 1.000000
vt 0.000000 1.000000
vt 0.000000 0.000000
vt 1.000000 0.000000
vt 1.000000 1.000000
vt 0.000000 1.000000
vt 0.000000 0.000000
vt 1.000000 0.000000
vt 1.000000 1.000000
vt 0.000000 1.000000
vt 0.000000 0.000000
vt 1.000000 0.000000
vt 1.000000 1.000000
vt 0.000000 1.000000
vt 0.000000 0.000000
vt 1.000000 0.000000
vt 1.000000 1.000000
vt 0.000000 1.000000
vt 0.000000 0.000000
vt 1.000000 0.000000
vt 1.000000 1.000000
vt 0.000000 1.000000
vt 0.000000 0.000000
vt 1.000000 0.000000
vt 1.000000 1.000000
vt 0.000000 1.000000
vt 0.000000 0.000000
vt 1.000000 0.000000
vt 1.000000 1.000000
vt 0.000000 0.000000
vt 1.000000 0.000000
vt 1.000000 1.000000
vt 0.000000 0.000000
vt 1.000000 0.000000
vt 1.000000 1.000000
vt 0.000000 0.000000
vt 1.000000 0.000000
vt 1.000000 1.000000
vt 0.000000 0.000000
vt 1.000000 0.000000
vt 1.000000 1.000000
vt 0.000000 0.000000
vt 1.000000 0.000000
vt 1.000000 1.000000
vt 0.000000 0.000000
vt 1.000000 0.000000
vt 1.000000 1.000000
vt 0.000000 0.000000
vt 1.000000 0.000000
vt 1.000000 1.000000
vt 0.000000 0.000000
vt 1.000000 0.000000
vt 1.000000 1.000000
vt 0.000000 0.000000
vt 1.000000 0.000000
vt 1.000000 1.000000
vt 0.000000 0.000000
vt 1.000000 0.000000
vt 1.000000 1.000000
vt 0.000000 0.000000
vt 1.000000 0.000000
vt 1.000000 1.000000
vt 0.000000 0.000000
vt 1.000000 0.000000
vt 1.000000 1.000000
vt 0.000000 0.000000
vt 1.000000 0.000000
vt 1.000000 1.000000
vt 0.000000 0.000000
vt 1.000000 0.000000
vt 1.000000 1.000000
vt 0.000000 0.000000
vt 1.000000 0.000000
vt 1.000000 1.000000
vt 0.000000 0.000000
vt 1.000000 0.000000
vt 1.000000 1.000000
vt 0.000000 0.000000
vt 1.000000 0.000000
vt 1.000000 1.000000
vt 0.000000 0.000000
vt 1.000000 0.000000
vt 1.000000 1.000000
vt 0.000000 0.000000
vt 1.000000 0.000000
vt 1.000000 1.000000
vt 0.000000 0.000000
vt 1.000000 0.000000
vt 1.000000 1.000000
vt 0.000000 0.000000
vt 1.000000 0.000000
vt 1.000000 1.000000
vt 0.000000 0.000000
vt 1.000000 0.000000
vt 1.000000 1.000000
vt 0.000000 0.000000
vt 1.000000 0.000000
vt 1.000000 1.000000
vt 0.000000 0.000000
vt 1.000000 0.000000
vt 1.000000 1.000000
vt 0.000000 0.000000
vt 1.000000 0.000000
vt 1.000000 1.000000
vt 0.000000 0.000000
vt 1.000000 0.000000
vt 1.000000 1.000000
vt 0.000000 0.000000
vt 1.000000 0.000000
vt 1.000000 1.000000
vt 0.000000 0.000000
vt 1.000000 0.000000
vt 1.000000 1.000000
vt 0.000000 0.000000
vt 1.000000 0.000000
vt 1.000000 1.000000
vt 0.000000 0.000000
vt 1.000000 0.000000
vt 1.000000 1.000000
vt 0.000000 0.000000
vt 1.000000 0.000000
vt 1.000000 1.000000
vt 0.000000 0.000000
vt 1.000000 0.000000
vt 1.000000 1.000000
vt 0.000000 0.000000
vt 1.000000 0.000000
vt 1.000000 1.000000
vt 0.000000 0.000000
vt 1.000000 0.000000
vt 1.000000 1.000000
vt 0.000000 0.000000
vt 1.000000 0.000000
vt 1.000000 1.000000
vt 0.000000 0.000000
vt 1.000000 0.000000
vt 1.000000 1.000000
vt 0.000000 0.000000
vt 1.000000 0.000000
vt 1.000000 1.000000
vt 0.000000 0.000000
vt 1.000000 0.000000
vt 1.000000 1.000000
vt 0.000000 0.000000
vt 1.000000 0.000000
vt 1.000000 1.000000
vt 0.000000 0.000000
vt 1.000000 0.000000
vt 1.000000 1.000000
vt 0.000000 0.000000
vt 1.000000 0.000000
vt 1.000000 1.000000
vt 0.000000 0.000000
vt 1.000000 0.000000
vt 1.000000 1.000000
vt 0.000000 0.000000
vt 1.000000 0.000000
vt 1.000000 1.000000
vt 0.000000 0.000000
vt 1.000000 0.000000
vt 1.000000 1.000000
vt 0.000000 0.000000
vt 1.000000 0.000000
vt 1.000000 1.000000
vt 0.000000 0.000000
vt 1.000000 0.000000
vt 1.000000 1.000000
vt 0.000000 0.000000
vt 1.000000 0.000000
vt 1.000000 1.000000
vt 0.000000 0.000000
vt 1.000000 0.000000
vt 1.000000 1.000000
vt 0.000000 1.000000
vt 0.000000 0.000000
vt 1.000000 0.000000
vt 1.000000 1.000000
vt 0.000000 1.000000
vt 0.000000 0.000000
vt 1.000000 0.000000
vt 1.000000 1.000000
vt 0.000000 1.000000
vt 0.000000 0.000000
vt 1.000000 0.000000
vt 1.000000 1.000000
vt 0.000000 1.000000
vt 0.000000 0.000000
vt 1.000000 0.000000
vt 1.000000 1.000000
vt 0.000000 1.000000
vt 0.000000 0.000000
vt 1.000000 0.000000
vt 1.000000 1.000000
vt 0.000000 1.000000
vt 0.000000 0.000000
vt 1.000000 0.000000
vt 1.000000 1.000000
vt 0.000000 1.000000
vt 0.000000 0.000000
vt 1.000000 0.000000
vt 1.000000 1.000000
vt 0.000000 1.000000
vt 0.000000 0.000000
vt 1.000000 0.000000
vt 1.000000 1.000000
vt 0.000000 1.000000
vt 0.000000 0.000000
vt 1.000000 0.000000
vt 1.000000 1.000000
vt 0.000000 1.000000
vt 0.000000 0.000000
vt 1.000000 0.000000
vt 1.000000 1.000000
vt 0.000000 1.000000
vt 0.000000 0.000000
vt 1.000000 0.000000
vt 1.000000 1.000000
vt 0.000000 1.000000
vt 0.000000 0.000000
vt 1.000000 0.000000
vt 1.000000 1.000000
vt 0.000000 1.000000
vt 0.000000 0.000000
vt 1.000000 0.000000
vt 1.000000 1.000000
vt 0.000000 1.000000
vt 0.000000 0.000000
vt 1.000000 0.000000
vt 1.000000 1.000000
vt 0.000000 1.000000
vt 0.000000 0.000000
vt 1.000000 0.000000
vt 1.000000 1.000000
vt 0.000000 1.000000
vt 0.000000 0.000000
vt 1.000000 0.000000
vt 1.000000 1.000000
vt 0.000000 1.000000
vt 0.000000 0.000000
vt 1.000000 0.000000
vt 1.000000 1.000000
vt 0.000000 1.000000
vt 0.000000 0.000000
vt 1.000000 0.000000
vt 1.000000 1.000000
vt 0.000000 1.000000
vt 0.000000 0.000000
vt 1.000000 0.000000
vt 1.000000 1.000000
vt 0.000000 1.000000
vt 0.000000 0.000000
vt 1.000000 0.000000
vt 1.000000 1.000000
vt 0.000000 1.000000
vt 0.000000 0.000000
vt 1.000000 0.000000
vt 1.000000 1.000000
vt 0.000000 1.000000
vt 0.000000 0.000000
vt 1.000000 0.000000
vt 1.000000 1.000000
vt 0.000000 1.000000
vt 0.000000 0.000000
vt 1.000000 0.000000
vt 1.000000 1.000000
vt 0.000000 1.000000
vt 0.000000 0.000000
vt 1.000000 0.000000
vt 1.000000 1.000000
vt 0.000000 1.000000
vt 0.000000 0.000000
vt 1.000000 0.000000
vt 1.000000 1.000000
vt 0.000000 1.000000
vt 0.000000 0.000000
vt 1.000000 0.000000
vt 1.000000 1.000000
vt 0.000000 1.000000
vt 0.000000 0.000000
vt 1.000000 0.000000
vt 1.000000 1.000000
vt 0.000000 1.000000
vt 0.000000 0.000000
vt 1.000000 0.000000
vt 1.000000 1.000000
vt 0.000000 1.000000
vt 0.000000 0.000000
vt 1.000000 0.000000
vt 1.000000 1.000000
vt 0.000000 1.000000
vt 0.000000 0.000000
vt 1.000000 0.000000
vt 1.000000 1.000000
vt 0.000000 1.000000
vt 0.000000 0.000000
vt 1.000000 0.000000
vt 1.000000 1.000000
vt 0.000000 1.000000
vt 0.000000 0.000000
vt 1.000000 0.000000
vt 1.000000 1.000000
vt 0.000000 1.000000
vt 0.000000 0.000000
vt 1.000000 0.000000
vt 1.000000 1.000000
vt 0.000000 1.000000
vt 0.000000 0.000000
vt 1.000000 0.000000
vt 1.000000 1.000000
vt 0.000000 1.000000
vt 0.000000 0.000000
vt 1.000000 0.000000
vt 1.000000 1.000000
vt 0.000000 1.000000
vt 0.000000 0.000000
vt 1.000000 0.000000
vt 1.000000 1.000000
vt 0.000000 1.000000
vt 0.000000 0.000000
vt 1.000000 0.000000
vt 1.000000 1.000000
vt 0.000000 1.000000
vt 0.000000 0.000000
vt 1.000000 0.000000
vt 1.000000 1.000000
vt 0.000000 1.000000
vt 0.000000 0.000000
vt 1.000000 0.000000
vt 1.000000 1.000000
vt 0.000000 1.000000
vt 0.000000 0.000000
vt 1.000000 0.000000
vt 1.000000 1.000000
vt 0.000000 1.000000
vt 0.000000 0.000000
vt 1.000000 0.000000
vt 1.000000 1.000000
vt 0.000000 1.000000
o BelayerCliff
usemtl MAT_ROCK
f 1/1 4/2 3/3 2/4
f 5/5 6/6 7/7 8/8
f 1/9 2/10 6/11 5/12
f 4/13 8/14 7/15 3/16
f 1/17 5/18 8/19 4/20
f 2/21 3/22 7/23 6/24
o RecoveryCliff
f 9/25 12/26 11/27 10/28
f 13/29 14/30 15/31 16/32
f 9/33 10/34 14/35 13/36
f 12/37 16/38 15/39 11/40
f 9/41 13/42 16/43 12/44
f 10/45 11/46 15/47 14/48
o CliffSilhouetteRock_1
f 17/49 19/50 20/51
f 18/52 20/53 19/54
f 17/55 20/56 21/57
f 18/58 21/59 20/60
f 17/61 21/62 22/63
f 18/64 22/65 21/66
f 17/67 22/68 23/69
f 18/70 23/71 22/72
f 17/73 23/74 24/75
f 18/76 24/77 23/78
f 17/79 24/80 25/81
f 18/82 25/83 24/84
f 17/85 25/86 19/87
f 18/88 19/89 25/90
o CliffSilhouetteRock_2
f 26/91 28/92 29/93
f 27/94 29/95 28/96
f 26/97 29/98 30/99
f 27/100 30/101 29/102
f 26/103 30/104 31/105
f 27/106 31/107 30/108
f 26/109 31/110 32/111
f 27/112 32/113 31/114
f 26/115 32/116 33/117
f 27/118 33/119 32/120
f 26/121 33/122 34/123
f 27/124 34/125 33/126
f 26/127 34/128 28/129
f 27/130 28/131 34/132
o CliffSilhouetteRock_3
f 35/133 37/134 38/135
f 36/136 38/137 37/138
f 35/139 38/140 39/141
f 36/142 39/143 38/144
f 35/145 39/146 40/147
f 36/148 40/149 39/150
f 35/151 40/152 41/153
f 36/154 41/155 40/156
f 35/157 41/158 42/159
f 36/160 42/161 41/162
f 35/163 42/164 43/165
f 36/166 43/167 42/168
f 35/169 43/170 37/171
f 36/172 37/173 43/174
o CliffSilhouetteRock_4
f 44/175 46/176 47/177
f 45/178 47/179 46/180
f 44/181 47/182 48/183
f 45/184 48/185 47/186
f 44/187 48/188 49/189
f 45/190 49/191 48/192
f 44/193 49/194 50/195
f 45/196 50/197 49/198
f 44/199 50/200 51/201
f 45/202 51/203 50/204
f 44/205 51/206 52/207
f 45/208 52/209 51/210
f 44/211 52/212 46/213
f 45/214 46/215 52/216
o CliffSilhouetteRock_5
f 53/217 55/218 56/219
f 54/220 56/221 55/222
f 53/223 56/224 57/225
f 54/226 57/227 56/228
f 53/229 57/230 58/231
f 54/232 58/233 57/234
f 53/235 58/236 59/237
f 54/238 59/239 58/240
f 53/241 59/242 60/243
f 54/244 60/245 59/246
f 53/247 60/248 61/249
f 54/250 61/251 60/252
f 53/253 61/254 55/255
f 54/256 55/257 61/258
o CliffSilhouetteRock_6
f 62/259 64/260 65/261
f 63/262 65/263 64/264
f 62/265 65/266 66/267
f 63/268 66/269 65/270
f 62/271 66/272 67/273
f 63/274 67/275 66/276
f 62/277 67/278 68/279
f 63/280 68/281 67/282
f 62/283 68/284 69/285
f 63/286 69/287 68/288
f 62/289 69/290 70/291
f 63/292 70/293 69/294
f 62/295 70/296 64/297
f 63/298 64/299 70/300
o CliffSilhouetteRock_7
f 71/301 73/302 74/303
f 72/304 74/305 73/306
f 71/307 74/308 75/309
f 72/310 75/311 74/312
f 71/313 75/314 76/315
f 72/316 76/317 75/318
f 71/319 76/320 77/321
f 72/322 77/323 76/324
f 71/325 77/326 78/327
f 72/328 78/329 77/330
f 71/331 78/332 79/333
f 72/334 79/335 78/336
f 71/337 79/338 73/339
f 72/340 73/341 79/342
o CliffSilhouetteRock_8
f 80/343 82/344 83/345
f 81/346 83/347 82/348
f 80/349 83/350 84/351
f 81/352 84/353 83/354
f 80/355 84/356 85/357
f 81/358 85/359 84/360
f 80/361 85/362 86/363
f 81/364 86/365 85/366
f 80/367 86/368 87/369
f 81/370 87/371 86/372
f 80/373 87/374 88/375
f 81/376 88/377 87/378
f 80/379 88/380 82/381
f 81/382 82/383 88/384
o BelayerSafeStance
usemtl MAT_RIDGE
f 89/385 92/386 91/387 90/388
f 93/389 94/390 95/391 96/392
f 89/393 90/394 94/395 93/396
f 92/397 96/398 95/399 91/400
f 89/401 93/402 96/403 92/404
f 90/405 91/406 95/407 94/408
o RecoveryObjectiveLedge
f 97/409 100/410 99/411 98/412
f 101/413 102/414 103/415 104/416
f 97/417 98/418 102/419 101/420
f 100/421 104/422 103/423 99/424
f 97/425 101/426 104/427 100/428
f 98/429 99/430 103/431 102/432
o BoundedProgressionPoint_1
usemtl MAT_ROCK
f 105/433 107/434 108/435
f 106/436 108/437 107/438
f 105/439 108/440 109/441
f 106/442 109/443 108/444
f 105/445 109/446 110/447
f 106/448 110/449 109/450
f 105/451 110/452 111/453
f 106/454 111/455 110/456
f 105/457 111/458 112/459
f 106/460 112/461 111/462
f 105/463 112/464 107/465
f 106/466 107/467 112/468
o BoundedProgressionPoint_2
f 113/469 115/470 116/471
f 114/472 116/473 115/474
f 113/475 116/476 117/477
f 114/478 117/479 116/480
f 113/481 117/482 118/483
f 114/484 118/485 117/486
f 113/487 118/488 119/489
f 114/490 119/491 118/492
f 113/493 119/494 120/495
f 114/496 120/497 119/498
f 113/499 120/500 115/501
f 114/502 115/503 120/504
o BoundedProgressionPoint_3
f 121/505 123/506 124/507
f 122/508 124/509 123/510
f 121/511 124/512 125/513
f 122/514 125/515 124/516
f 121/517 125/518 126/519
f 122/520 126/521 125/522
f 121/523 126/524 127/525
f 122/526 127/527 126/528
f 121/529 127/530 128/531
f 122/532 128/533 127/534
f 121/535 128/536 123/537
f 122/538 123/539 128/540
o BoundedProgressionPoint_4
f 129/541 131/542 132/543
f 130/544 132/545 131/546
f 129/547 132/548 133/549
f 130/550 133/551 132/552
f 129/553 133/554 134/555
f 130/556 134/557 133/558
f 129/559 134/560 135/561
f 130/562 135/563 134/564
f 129/565 135/566 136/567
f 130/568 136/569 135/570
f 129/571 136/572 131/573
f 130/574 131/575 136/576
o RouteOrderMarker_1
usemtl MAT_MARKER
f 137/577 140/578 139/579 138/580
f 141/581 142/582 143/583 144/584
f 137/585 138/586 142/587 141/588
f 140/589 144/590 143/591 139/592
f 137/593 141/594 144/595 140/596
f 138/597 139/598 143/599 142/600
o RouteOrderMarker_2
f 145/601 148/602 147/603 146/604
f 149/605 150/606 151/607 152/608
f 145/609 146/610 150/611 149/612
f 148/613 152/614 151/615 147/616
f 145/617 149/618 152/619 148/620
f 146/621 147/622 151/623 150/624
o RouteOrderMarker_3
f 153/625 156/626 155/627 154/628
f 157/629 158/630 159/631 160/632
f 153/633 154/634 158/635 157/636
f 156/637 160/638 159/639 155/640
f 153/641 157/642 160/643 156/644
f 154/645 155/646 159/647 158/648
o RouteOrderMarker_4
f 161/649 164/650 163/651 162/652
f 165/653 166/654 167/655 168/656
f 161/657 162/658 166/659 165/660
f 164/661 168/662 167/663 163/664
f 161/665 165/666 168/667 164/668
f 162/669 163/670 167/671 166/672
o FailForwardReturn_1
usemtl MAT_RIDGE
f 169/673 170/674 171/675 172/676
f 173/677 176/678 175/679 174/680
f 169/681 173/682 174/683 170/684
f 170/685 174/686 175/687 171/688
f 171/689 175/690 176/691 172/692
f 172/693 176/694 173/695 169/696
o FailForwardReturn_2
f 177/697 178/698 179/699 180/700
f 181/701 184/702 183/703 182/704
f 177/705 181/706 182/707 178/708
f 178/709 182/710 183/711 179/712
f 179/713 183/714 184/715 180/716
f 180/717 184/718 181/719 177/720
o FailForwardReturn_3
f 185/721 186/722 187/723 188/724
f 189/725 192/726 191/727 190/728
f 185/729 189/730 190/731 186/732
f 186/733 190/734 191/735 187/736
f 187/737 191/738 192/739 188/740
f 188/741 192/742 189/743 185/744
