# PROJECT OEN production source mesh: PRP_RAVINE_GUIDE_MARKERS_001
mtllib PRP_RAVINE_GUIDE_MARKERS_001.mtl
s off
v -0.190000 0.005000 0.000000
v -0.201418 0.005000 0.057403
v -0.233934 0.005000 0.106066
v -0.282597 0.005000 0.138582
v -0.340000 0.005000 0.150000
v -0.397403 0.005000 0.138582
v -0.446066 0.005000 0.106066
v -0.478582 0.005000 0.057403
v -0.490000 0.005000 0.000000
v -0.478582 0.005000 -0.057403
v -0.446066 0.005000 -0.106066
v -0.397403 0.005000 -0.138582
v -0.340000 0.005000 -0.150000
v -0.282597 0.005000 -0.138582
v -0.233934 0.005000 -0.106066
v -0.201418 0.005000 -0.057403
v -0.190000 0.075000 0.000000
v -0.201418 0.075000 0.057403
v -0.233934 0.075000 0.106066
v -0.282597 0.075000 0.138582
v -0.340000 0.075000 0.150000
v -0.397403 0.075000 0.138582
v -0.446066 0.075000 0.106066
v -0.478582 0.075000 0.057403
v -0.490000 0.075000 0.000000
v -0.478582 0.075000 -0.057403
v -0.446066 0.075000 -0.106066
v -0.397403 0.075000 -0.138582
v -0.340000 0.075000 -0.150000
v -0.282597 0.075000 -0.138582
v -0.233934 0.075000 -0.106066
v -0.201418 0.075000 -0.057403
v -0.140000 0.005000 -0.140000
v 0.140000 0.005000 -0.140000
v 0.140000 0.075000 -0.140000
v -0.140000 0.075000 -0.140000
v -0.140000 0.005000 0.140000
v 0.140000 0.005000 0.140000
v 0.140000 0.075000 0.140000
v -0.140000 0.075000 0.140000
v 0.000000 0.000000 0.000000
v 0.340000 0.000000 0.200000
v 0.680000 0.000000 0.000000
v 0.340000 0.000000 -0.200000
v 0.000000 0.080000 0.000000
v 0.340000 0.080000 0.200000
v 0.680000 0.080000 0.000000
v 0.340000 0.080000 -0.200000
v -0.295000 -0.012500 0.000000
v -0.303594 -0.012500 0.026450
v -0.326094 -0.012500 0.042798
v -0.353906 -0.012500 0.042798
v -0.376406 -0.012500 0.026450
v -0.385000 -0.012500 0.000000
v -0.376406 -0.012500 -0.026450
v -0.353906 -0.012500 -0.042798
v -0.326094 -0.012500 -0.042798
v -0.303594 -0.012500 -0.026450
v -0.295000 0.002500 0.000000
v -0.303594 0.002500 0.026450
v -0.326094 0.002500 0.042798
v -0.353906 0.002500 0.042798
v -0.376406 0.002500 0.026450
v -0.385000 0.002500 0.000000
v -0.376406 0.002500 -0.026450
v -0.353906 0.002500 -0.042798
v -0.326094 0.002500 -0.042798
v -0.303594 0.002500 -0.026450
v 0.045000 -0.012500 0.000000
v 0.036406 -0.012500 0.026450
v 0.013906 -0.012500 0.042798
v -0.013906 -0.012500 0.042798
v -0.036406 -0.012500 0.026450
v -0.045000 -0.012500 0.000000
v -0.036406 -0.012500 -0.026450
v -0.013906 -0.012500 -0.042798
v 0.013906 -0.012500 -0.042798
v 0.036406 -0.012500 -0.026450
v 0.045000 0.002500 0.000000
v 0.036406 0.002500 0.026450
v 0.013906 0.002500 0.042798
v -0.013906 0.002500 0.042798
v -0.036406 0.002500 0.026450
v -0.045000 0.002500 0.000000
v -0.036406 0.002500 -0.026450
v -0.013906 0.002500 -0.042798
v 0.013906 0.002500 -0.042798
v 0.036406 0.002500 -0.026450
v 0.725000 -0.012500 0.000000
v 0.716406 -0.012500 0.026450
v 0.693906 -0.012500 0.042798
v 0.666094 -0.012500 0.042798
v 0.643594 -0.012500 0.026450
v 0.635000 -0.012500 0.000000
v 0.643594 -0.012500 -0.026450
v 0.666094 -0.012500 -0.042798
v 0.693906 -0.012500 -0.042798
v 0.716406 -0.012500 -0.026450
v 0.725000 0.002500 0.000000
v 0.716406 0.002500 0.026450
v 0.693906 0.002500 0.042798
v 0.666094 0.002500 0.042798
v 0.643594 0.002500 0.026450
v 0.635000 0.002500 0.000000
v 0.643594 0.002500 -0.026450
v 0.666094 0.002500 -0.042798
v 0.693906 0.002500 -0.042798
v 0.716406 0.002500 -0.026450
vt 0.000000 0.000000
vt 1.000000 0.000000
vt 1.000000 1.000000
vt 0.000000 1.000000
vt 0.000000 0.000000
vt 1.000000 0.000000
vt 1.000000 1.000000
vt 0.000000 1.000000
vt 0.000000 0.000000
vt 1.000000 0.000000
vt 1.000000 1.000000
vt 0.000000 1.000000
vt 0.000000 0.000000
vt 1.000000 0.000000
vt 1.000000 1.000000
vt 0.000000 1.000000
vt 0.000000 0.000000
vt 1.000000 0.000000
vt 1.000000 1.000000
vt 0.000000 1.000000
vt 0.000000 0.000000
vt 1.000000 0.000000
vt 1.000000 1.000000
vt 0.000000 1.000000
vt 0.000000 0.000000
vt 1.000000 0.000000
vt 1.000000 1.000000
vt 0.000000 1.000000
vt 0.000000 0.000000
vt 1.000000 0.000000
vt 1.000000 1.000000
vt 0.000000 1.000000
vt 0.000000 0.000000
vt 1.000000 0.000000
vt 1.000000 1.000000
vt 0.000000 1.000000
vt 0.000000 0.000000
vt 1.000000 0.000000
vt 1.000000 1.000000
vt 0.000000 1.000000
vt 0.000000 0.000000
vt 1.000000 0.000000
vt 1.000000 1.000000
vt 0.000000 1.000000
vt 0.000000 0.000000
vt 1.000000 0.000000
vt 1.000000 1.000000
vt 0.000000 1.000000
vt 0.000000 0.000000
vt 1.000000 0.000000
vt 1.000000 1.000000
vt 0.000000 1.000000
vt 0.000000 0.000000
vt 1.000000 0.000000
vt 1.000000 1.000000
vt 0.000000 1.000000
vt 0.000000 0.000000
vt 1.000000 0.000000
vt 1.000000 1.000000
vt 0.000000 1.000000
vt 0.000000 0.000000
vt 1.000000 0.000000
vt 1.000000 1.000000
vt 0.000000 1.000000
vt 1.000000 0.500000
vt 0.961940 0.691342
vt 0.853553 0.853553
vt 0.691342 0.961940
vt 0.500000 1.000000
vt 0.308658 0.961940
vt 0.146447 0.853553
vt 0.038060 0.691342
vt 0.000000 0.500000
vt 0.038060 0.308658
vt 0.146447 0.146447
vt 0.308658 0.038060
vt 0.500000 0.000000
vt 0.691342 0.038060
vt 0.853553 0.146447
vt 0.961940 0.308658
vt 1.000000 0.500000
vt 0.961940 0.691342
vt 0.853553 0.853553
vt 0.691342 0.961940
vt 0.500000 1.000000
vt 0.308658 0.961940
vt 0.146447 0.853553
vt 0.038060 0.691342
vt 0.000000 0.500000
vt 0.038060 0.308658
vt 0.146447 0.146447
vt 0.308658 0.038060
vt 0.500000 0.000000
vt 0.691342 0.038060
vt 0.853553 0.146447
vt 0.961940 0.308658
vt 0.000000 0.000000
vt 1.000000 0.000000
vt 1.000000 1.000000
vt 0.000000 1.000000
vt 0.000000 0.000000
vt 1.000000 0.000000
vt 1.000000 1.000000
vt 0.000000 1.000000
vt 0.000000 0.000000
vt 1.000000 0.000000
vt 1.000000 1.000000
vt 0.000000 1.000000
vt 0.000000 0.000000
vt 1.000000 0.000000
vt 1.000000 1.000000
vt 0.000000 1.000000
vt 0.000000 0.000000
vt 1.000000 0.000000
vt 1.000000 1.000000
vt 0.000000 1.000000
vt 0.000000 0.000000
vt 1.000000 0.000000
vt 1.000000 1.000000
vt 0.000000 1.000000
vt 0.000000 0.000000
vt 1.000000 0.000000
vt 1.000000 1.000000
vt 0.000000 1.000000
vt 0.000000 0.000000
vt 1.000000 0.000000
vt 1.000000 1.000000
vt 0.000000 1.000000
vt 0.000000 0.000000
vt 1.000000 0.000000
vt 1.000000 1.000000
vt 0.000000 1.000000
vt 0.000000 0.000000
vt 1.000000 0.000000
vt 1.000000 1.000000
vt 0.000000 1.000000
vt 0.000000 0.000000
vt 1.000000 0.000000
vt 1.000000 1.000000
vt 0.000000 1.000000
vt 0.000000 0.000000
vt 1.000000 0.000000
vt 1.000000 1.000000
vt 0.000000 1.000000
vt 0.000000 0.000000
vt 1.000000 0.000000
vt 1.000000 1.000000
vt 0.000000 1.000000
vt 0.000000 0.000000
vt 1.000000 0.000000
vt 1.000000 1.000000
vt 0.000000 1.000000
vt 0.000000 0.000000
vt 1.000000 0.000000
vt 1.000000 1.000000
vt 0.000000 1.000000
vt 0.000000 0.000000
vt 1.000000 0.000000
vt 1.000000 1.000000
vt 0.000000 1.000000
vt 0.000000 0.000000
vt 1.000000 0.000000
vt 1.000000 1.000000
vt 0.000000 1.000000
vt 0.000000 0.000000
vt 1.000000 0.000000
vt 1.000000 1.000000
vt 0.000000 1.000000
vt 0.000000 0.000000
vt 1.000000 0.000000
vt 1.000000 1.000000
vt 0.000000 1.000000
vt 0.000000 0.000000
vt 1.000000 0.000000
vt 1.000000 1.000000
vt 0.000000 1.000000
vt 0.000000 0.000000
vt 1.000000 0.000000
vt 1.000000 1.000000
vt 0.000000 1.000000
vt 0.000000 0.000000
vt 1.000000 0.000000
vt 1.000000 1.000000
vt 0.000000 1.000000
vt 1.000000 0.500000
vt 0.904508 0.793893
vt 0.654508 0.975528
vt 0.345492 0.975528
vt 0.095492 0.793893
vt 0.000000 0.500000
vt 0.095492 0.206107
vt 0.345492 0.024472
vt 0.654508 0.024472
vt 0.904508 0.206107
vt 1.000000 0.500000
vt 0.904508 0.793893
vt 0.654508 0.975528
vt 0.345492 0.975528
vt 0.095492 0.793893
vt 0.000000 0.500000
vt 0.095492 0.206107
vt 0.345492 0.024472
vt 0.654508 0.024472
vt 0.904508 0.206107
vt 0.000000 0.000000
vt 1.000000 0.000000
vt 1.000000 1.000000
vt 0.000000 1.000000
vt 0.000000 0.000000
vt 1.000000 0.000000
vt 1.000000 1.000000
vt 0.000000 1.000000
vt 0.000000 0.000000
vt 1.000000 0.000000
vt 1.000000 1.000000
vt 0.000000 1.000000
vt 0.000000 0.000000
vt 1.000000 0.000000
vt 1.000000 1.000000
vt 0.000000 1.000000
vt 0.000000 0.000000
vt 1.000000 0.000000
vt 1.000000 1.000000
vt 0.000000 1.000000
vt 0.000000 0.000000
vt 1.000000 0.000000
vt 1.000000 1.000000
vt 0.000000 1.000000
vt 0.000000 0.000000
vt 1.000000 0.000000
vt 1.000000 1.000000
vt 0.000000 1.000000
vt 0.000000 0.000000
vt 1.000000 0.000000
vt 1.000000 1.000000
vt 0.000000 1.000000
vt 0.000000 0.000000
vt 1.000000 0.000000
vt 1.000000 1.000000
vt 0.000000 1.000000
vt 0.000000 0.000000
vt 1.000000 0.000000
vt 1.000000 1.000000
vt 0.000000 1.000000
vt 1.000000 0.500000
vt 0.904508 0.793893
vt 0.654508 0.975528
vt 0.345492 0.975528
vt 0.095492 0.793893
vt 0.000000 0.500000
vt 0.095492 0.206107
vt 0.345492 0.024472
vt 0.654508 0.024472
vt 0.904508 0.206107
vt 1.000000 0.500000
vt 0.904508 0.793893
vt 0.654508 0.975528
vt 0.345492 0.975528
vt 0.095492 0.793893
vt 0.000000 0.500000
vt 0.095492 0.206107
vt 0.345492 0.024472
vt 0.654508 0.024472
vt 0.904508 0.206107
vt 0.000000 0.000000
vt 1.000000 0.000000
vt 1.000000 1.000000
vt 0.000000 1.000000
vt 0.000000 0.000000
vt 1.000000 0.000000
vt 1.000000 1.000000
vt 0.000000 1.000000
vt 0.000000 0.000000
vt 1.000000 0.000000
vt 1.000000 1.000000
vt 0.000000 1.000000
vt 0.000000 0.000000
vt 1.000000 0.000000
vt 1.000000 1.000000
vt 0.000000 1.000000
vt 0.000000 0.000000
vt 1.000000 0.000000
vt 1.000000 1.000000
vt 0.000000 1.000000
vt 0.000000 0.000000
vt 1.000000 0.000000
vt 1.000000 1.000000
vt 0.000000 1.000000
vt 0.000000 0.000000
vt 1.000000 0.000000
vt 1.000000 1.000000
vt 0.000000 1.000000
vt 0.000000 0.000000
vt 1.000000 0.000000
vt 1.000000 1.000000
vt 0.000000 1.000000
vt 0.000000 0.000000
vt 1.000000 0.000000
vt 1.000000 1.000000
vt 0.000000 1.000000
vt 0.000000 0.000000
vt 1.000000 0.000000
vt 1.000000 1.000000
vt 0.000000 1.000000
vt 1.000000 0.500000
vt 0.904508 0.793893
vt 0.654508 0.975528
vt 0.345492 0.975528
vt 0.095492 0.793893
vt 0.000000 0.500000
vt 0.095492 0.206107
vt 0.345492 0.024472
vt 0.654508 0.024472
vt 0.904508 0.206107
vt 1.000000 0.500000
vt 0.904508 0.793893
vt 0.654508 0.975528
vt 0.345492 0.975528
vt 0.095492 0.793893
vt 0.000000 0.500000
vt 0.095492 0.206107
vt 0.345492 0.024472
vt 0.654508 0.024472
vt 0.904508 0.206107
o Marker_1_Circle
usemtl MAT_MARKER
f 1/1 2/2 18/3 17/4
f 2/5 3/6 19/7 18/8
f 3/9 4/10 20/11 19/12
f 4/13 5/14 21/15 20/16
f 5/17 6/18 22/19 21/20
f 6/21 7/22 23/23 22/24
f 7/25 8/26 24/27 23/28
f 8/29 9/30 25/31 24/32
f 9/33 10/34 26/35 25/36
f 10/37 11/38 27/39 26/40
f 11/41 12/42 28/43 27/44
f 12/45 13/46 29/47 28/48
f 13/49 14/50 30/51 29/52
f 14/53 15/54 31/55 30/56
f 15/57 16/58 32/59 31/60
f 16/61 1/62 17/63 32/64
f 16/65 15/66 14/67 13/68 12/69 11/70 10/71 9/72 8/73 7/74 6/75 5/76 4/77 3/78 2/79 1/80
f 17/81 18/82 19/83 20/84 21/85 22/86 23/87 24/88 25/89 26/90 27/91 28/92 29/93 30/94 31/95 32/96
o Marker_2_Square
f 33/97 36/98 35/99 34/100
f 37/101 38/102 39/103 40/104
f 33/105 34/106 38/107 37/108
f 36/109 40/110 39/111 35/112
f 33/113 37/114 40/115 36/116
f 34/117 35/118 39/119 38/120
o Marker_3_Diamond
f 41/121 44/122 43/123 42/124
f 45/125 46/126 47/127 48/128
f 41/129 42/130 46/131 45/132
f 42/133 43/134 47/135 46/136
f 43/137 44/138 48/139 47/140
f 44/141 41/142 45/143 48/144
o Marker_1_CenterDot
usemtl MAT_ROCK
f 49/145 50/146 60/147 59/148
f 50/149 51/150 61/151 60/152
f 51/153 52/154 62/155 61/156
f 52/157 53/158 63/159 62/160
f 53/161 54/162 64/163 63/164
f 54/165 55/166 65/167 64/168
f 55/169 56/170 66/171 65/172
f 56/173 57/174 67/175 66/176
f 57/177 58/178 68/179 67/180
f 58/181 49/182 59/183 68/184
f 58/185 57/186 56/187 55/188 54/189 53/190 52/191 51/192 50/193 49/194
f 59/195 60/196 61/197 62/198 63/199 64/200 65/201 66/202 67/203 68/204
o Marker_2_CenterDot
f 69/205 70/206 80/207 79/208
f 70/209 71/210 81/211 80/212
f 71/213 72/214 82/215 81/216
f 72/217 73/218 83/219 82/220
f 73/221 74/222 84/223 83/224
f 74/225 75/226 85/227 84/228
f 75/229 76/230 86/231 85/232
f 76/233 77/234 87/235 86/236
f 77/237 78/238 88/239 87/240
f 78/241 69/242 79/243 88/244
f 78/245 77/246 76/247 75/248 74/249 73/250 72/251 71/252 70/253 69/254
f 79/255 80/256 81/257 82/258 83/259 84/260 85/261 86/262 87/263 88/264
o Marker_3_CenterDot
f 89/265 90/266 100/267 99/268
f 90/269 91/270 101/271 100/272
f 91/273 92/274 102/275 101/276
f 92/277 93/278 103/279 102/280
f 93/281 94/282 104/283 103/284
f 94/285 95/286 105/287 104/288
f 95/289 96/290 106/291 105/292
f 96/293 97/294 107/295 106/296
f 97/297 98/298 108/299 107/300
f 98/301 89/302 99/303 108/304
f 98/305 97/306 96/307 95/308 94/309 93/310 92/311 91/312 90/313 89/314
f 99/315 100/316 101/317 102/318 103/319 104/320 105/321 106/322 107/323 108/324
