# PROJECT OEN production source mesh: PRP_RAVINE_ANCHOR_001
mtllib PRP_RAVINE_ANCHOR_001.mtl
s off
v 0.000000 0.730000 0.000000
v 0.000000 -0.030000 0.000000
v 0.480000 0.350000 0.000000
v 0.299275 0.350000 0.172003
v -0.106810 0.350000 0.214484
v -0.432465 0.350000 0.095454
v -0.432465 0.350000 -0.095454
v -0.106810 0.350000 -0.214484
v 0.299275 0.350000 -0.172003
v 0.245000 0.460000 -0.220000
v 0.222500 0.498971 -0.220000
v 0.177500 0.498971 -0.220000
v 0.155000 0.460000 -0.220000
v 0.177500 0.421029 -0.220000
v 0.222500 0.421029 -0.220000
v 0.230225 0.460000 -0.136205
v 0.209082 0.498971 -0.143901
v 0.166795 0.498971 -0.159291
v 0.145652 0.460000 -0.166987
v 0.166795 0.421029 -0.159291
v 0.209082 0.421029 -0.143901
v 0.187681 0.460000 -0.062517
v 0.170445 0.498971 -0.076980
v 0.135973 0.498971 -0.105905
v 0.118737 0.460000 -0.120368
v 0.135973 0.421029 -0.105905
v 0.170445 0.421029 -0.076980
v 0.122500 0.460000 -0.007824
v 0.111250 0.498971 -0.027309
v 0.088750 0.498971 -0.066280
v 0.077500 0.460000 -0.085766
v 0.088750 0.421029 -0.066280
v 0.111250 0.421029 -0.027309
v 0.042544 0.460000 0.021278
v 0.038637 0.498971 -0.000880
v 0.030823 0.498971 -0.045197
v 0.026915 0.460000 -0.067355
v 0.030823 0.421029 -0.045197
v 0.038637 0.421029 -0.000880
v -0.042544 0.460000 0.021278
v -0.038637 0.498971 -0.000880
v -0.030823 0.498971 -0.045197
v -0.026915 0.460000 -0.067355
v -0.030823 0.421029 -0.045197
v -0.038637 0.421029 -0.000880
v -0.122500 0.460000 -0.007824
v -0.111250 0.498971 -0.027309
v -0.088750 0.498971 -0.066280
v -0.077500 0.460000 -0.085766
v -0.088750 0.421029 -0.066280
v -0.111250 0.421029 -0.027309
v -0.187681 0.460000 -0.062517
v -0.170445 0.498971 -0.076980
v -0.135973 0.498971 -0.105905
v -0.118737 0.460000 -0.120368
v -0.135973 0.421029 -0.105905
v -0.170445 0.421029 -0.076980
v -0.230225 0.460000 -0.136205
v -0.209082 0.498971 -0.143901
v -0.166795 0.498971 -0.159291
v -0.145652 0.460000 -0.166987
v -0.166795 0.421029 -0.159291
v -0.209082 0.421029 -0.143901
v -0.245000 0.460000 -0.220000
v -0.222500 0.498971 -0.220000
v -0.177500 0.498971 -0.220000
v -0.155000 0.460000 -0.220000
v -0.177500 0.421029 -0.220000
v -0.222500 0.421029 -0.220000
v -0.230225 0.460000 -0.303795
v -0.209082 0.498971 -0.296099
v -0.166795 0.498971 -0.280709
v -0.145652 0.460000 -0.273013
v -0.166795 0.421029 -0.280709
v -0.209082 0.421029 -0.296099
v -0.187681 0.460000 -0.377483
v -0.170445 0.498971 -0.363020
v -0.135973 0.498971 -0.334095
v -0.118737 0.460000 -0.319632
v -0.135973 0.421029 -0.334095
v -0.170445 0.421029 -0.363020
v -0.122500 0.460000 -0.432176
v -0.111250 0.498971 -0.412691
v -0.088750 0.498971 -0.373720
v -0.077500 0.460000 -0.354234
v -0.088750 0.421029 -0.373720
v -0.111250 0.421029 -0.412691
v -0.042544 0.460000 -0.461278
v -0.038637 0.498971 -0.439120
v -0.030823 0.498971 -0.394803
v -0.026915 0.460000 -0.372645
v -0.030823 0.421029 -0.394803
v -0.038637 0.421029 -0.439120
v 0.042544 0.460000 -0.461278
v 0.038637 0.498971 -0.439120
v 0.030823 0.498971 -0.394803
v 0.026915 0.460000 -0.372645
v 0.030823 0.421029 -0.394803
v 0.038637 0.421029 -0.439120
v 0.122500 0.460000 -0.432176
v 0.111250 0.498971 -0.412691
v 0.088750 0.498971 -0.373720
v 0.077500 0.460000 -0.354234
v 0.088750 0.421029 -0.373720
v 0.111250 0.421029 -0.412691
v 0.187681 0.460000 -0.377483
v 0.170445 0.498971 -0.363020
v 0.135973 0.498971 -0.334095
v 0.118737 0.460000 -0.319632
v 0.135973 0.421029 -0.334095
v 0.170445 0.421029 -0.363020
v 0.230225 0.460000 -0.303795
v 0.209082 0.498971 -0.296099
v 0.166795 0.498971 -0.280709
v 0.145652 0.460000 -0.273013
v 0.166795 0.421029 -0.280709
v 0.209082 0.421029 -0.296099
v -0.098548 0.308063 -0.279302
v -0.100547 0.308063 -0.219335
v -0.139453 0.351937 -0.280665
v -0.141452 0.351937 -0.220698
v -0.398548 0.028063 -0.289302
v -0.400547 0.028063 -0.229335
v -0.439453 0.071937 -0.290665
v -0.441452 0.071937 -0.230698
v 0.100547 0.308063 -0.219335
v 0.098548 0.308063 -0.279302
v 0.141452 0.351937 -0.220698
v 0.139453 0.351937 -0.280665
v 0.400547 0.028063 -0.229335
v 0.398548 0.028063 -0.289302
v 0.441452 0.071937 -0.230698
v 0.439453 0.071937 -0.290665
vt 0.000000 0.000000
vt 1.000000 0.000000
vt 1.000000 1.000000
vt 0.000000 0.000000
vt 1.000000 0.000000
vt 1.000000 1.000000
vt 0.000000 0.000000
vt 1.000000 0.000000
vt 1.000000 1.000000
vt 0.000000 0.000000
vt 1.000000 0.000000
vt 1.000000 1.000000
vt 0.000000 0.000000
vt 1.000000 0.000000
vt 1.000000 1.000000
vt 0.000000 0.000000
vt 1.000000 0.000000
vt 1.000000 1.000000
vt 0.000000 0.000000
vt 1.000000 0.000000
vt 1.000000 1.000000
vt 0.000000 0.000000
vt 1.000000 0.000000
vt 1.000000 1.000000
vt 0.000000 0.000000
vt 1.000000 0.000000
vt 1.000000 1.000000
vt 0.000000 0.000000
vt 1.000000 0.000000
vt 1.000000 1.000000
vt 0.000000 0.000000
vt 1.000000 0.000000
vt 1.000000 1.000000
vt 0.000000 0.000000
vt 1.000000 0.000000
vt 1.000000 1.000000
vt 0.000000 0.000000
vt 1.000000 0.000000
vt 1.000000 1.000000
vt 0.000000 0.000000
vt 1.000000 0.000000
vt 1.000000 1.000000
vt 0.000000 0.000000
vt 1.000000 0.000000
vt 1.000000 1.000000
vt 0.000000 1.000000
vt 0.000000 0.000000
vt 1.000000 0.000000
vt 1.000000 1.000000
vt 0.000000 1.000000
vt 0.000000 0.000000
vt 1.000000 0.000000
vt 1.000000 1.000000
vt 0.000000 1.000000
vt 0.000000 0.000000
vt 1.000000 0.000000
vt 1.000000 1.000000
vt 0.000000 1.000000
vt 0.000000 0.000000
vt 1.000000 0.000000
vt 1.000000 1.000000
vt 0.000000 1.000000
vt 0.000000 0.000000
vt 1.000000 0.000000
vt 1.000000 1.000000
vt 0.000000 1.000000
vt 0.000000 0.000000
vt 1.000000 0.000000
vt 1.000000 1.000000
vt 0.000000 1.000000
vt 0.000000 0.000000
vt 1.000000 0.000000
vt 1.000000 1.000000
vt 0.000000 1.000000
vt 0.000000 0.000000
vt 1.000000 0.000000
vt 1.000000 1.000000
vt 0.000000 1.000000
vt 0.000000 0.000000
vt 1.000000 0.000000
vt 1.000000 1.000000
vt 0.000000 1.000000
vt 0.000000 0.000000
vt 1.000000 0.000000
vt 1.000000 1.000000
vt 0.000000 1.000000
vt 0.000000 0.000000
vt 1.000000 0.000000
vt 1.000000 1.000000
vt 0.000000 1.000000
vt 0.000000 0.000000
vt 1.000000 0.000000
vt 1.000000 1.000000
vt 0.000000 1.000000
vt 0.000000 0.000000
vt 1.000000 0.000000
vt 1.000000 1.000000
vt 0.000000 1.000000
vt 0.000000 0.000000
vt 1.000000 0.000000
vt 1.000000 1.000000
vt 0.000000 1.000000
vt 0.000000 0.000000
vt 1.000000 0.000000
vt 1.000000 1.000000
vt 0.000000 1.000000
vt 0.000000 0.000000
vt 1.000000 0.000000
vt 1.000000 1.000000
vt 0.000000 1.000000
vt 0.000000 0.000000
vt 1.000000 0.000000
vt 1.000000 1.000000
vt 0.000000 1.000000
vt 0.000000 0.000000
vt 1.000000 0.000000
vt 1.000000 1.000000
vt 0.000000 1.000000
vt 0.000000 0.000000
vt 1.000000 0.000000
vt 1.000000 1.000000
vt 0.000000 1.000000
vt 0.000000 0.000000
vt 1.000000 0.000000
vt 1.000000 1.000000
vt 0.000000 1.000000
vt 0.000000 0.000000
vt 1.000000 0.000000
vt 1.000000 1.000000
vt 0.000000 1.000000
vt 0.000000 0.000000
vt 1.000000 0.000000
vt 1.000000 1.000000
vt 0.000000 1.000000
vt 0.000000 0.000000
vt 1.000000 0.000000
vt 1.000000 1.000000
vt 0.000000 1.000000
vt 0.000000 0.000000
vt 1.000000 0.000000
vt 1.000000 1.000000
vt 0.000000 1.000000
vt 0.000000 0.000000
vt 1.000000 0.000000
vt 1.000000 1.000000
vt 0.000000 1.000000
vt 0.000000 0.000000
vt 1.000000 0.000000
vt 1.000000 1.000000
vt 0.000000 1.000000
vt 0.000000 0.000000
vt 1.000000 0.000000
vt 1.000000 1.000000
vt 0.000000 1.000000
vt 0.000000 0.000000
vt 1.000000 0.000000
vt 1.000000 1.000000
vt 0.000000 1.000000
vt 0.000000 0.000000
vt 1.000000 0.000000
vt 1.000000 1.000000
vt 0.000000 1.000000
vt 0.000000 0.000000
vt 1.000000 0.000000
vt 1.000000 1.000000
vt 0.000000 1.000000
vt 0.000000 0.000000
vt 1.000000 0.000000
vt 1.000000 1.000000
vt 0.000000 1.000000
vt 0.000000 0.000000
vt 1.000000 0.000000
vt 1.000000 1.000000
vt 0.000000 1.000000
vt 0.000000 0.000000
vt 1.000000 0.000000
vt 1.000000 1.000000
vt 0.000000 1.000000
vt 0.000000 0.000000
vt 1.000000 0.000000
vt 1.000000 1.000000
vt 0.000000 1.000000
vt 0.000000 0.000000
vt 1.000000 0.000000
vt 1.000000 1.000000
vt 0.000000 1.000000
vt 0.000000 0.000000
vt 1.000000 0.000000
vt 1.000000 1.000000
vt 0.000000 1.000000
vt 0.000000 0.000000
vt 1.000000 0.000000
vt 1.000000 1.000000
vt 0.000000 1.000000
vt 0.000000 0.000000
vt 1.000000 0.000000
vt 1.000000 1.000000
vt 0.000000 1.000000
vt 0.000000 0.000000
vt 1.000000 0.000000
vt 1.000000 1.000000
vt 0.000000 1.000000
vt 0.000000 0.000000
vt 1.000000 0.000000
vt 1.000000 1.000000
vt 0.000000 1.000000
vt 0.000000 0.000000
vt 1.000000 0.000000
vt 1.000000 1.000000
vt 0.000000 1.000000
vt 0.000000 0.000000
vt 1.000000 0.000000
vt 1.000000 1.000000
vt 0.000000 1.000000
vt 0.000000 0.000000
vt 1.000000 0.000000
vt 1.000000 1.000000
vt 0.000000 1.000000
vt 0.000000 0.000000
vt 1.000000 0.000000
vt 1.000000 1.000000
vt 0.000000 1.000000
vt 0.000000 0.000000
vt 1.000000 0.000000
vt 1.000000 1.000000
vt 0.000000 1.000000
vt 0.000000 0.000000
vt 1.000000 0.000000
vt 1.000000 1.000000
vt 0.000000 1.000000
vt 0.000000 0.000000
vt 1.000000 0.000000
vt 1.000000 1.000000
vt 0.000000 1.000000
vt 0.000000 0.000000
vt 1.000000 0.000000
vt 1.000000 1.000000
vt 0.000000 1.000000
vt 0.000000 0.000000
vt 1.000000 0.000000
vt 1.000000 1.000000
vt 0.000000 1.000000
vt 0.000000 0.000000
vt 1.000000 0.000000
vt 1.000000 1.000000
vt 0.000000 1.000000
vt 0.000000 0.000000
vt 1.000000 0.000000
vt 1.000000 1.000000
vt 0.000000 1.000000
vt 0.000000 0.000000
vt 1.000000 0.000000
vt 1.000000 1.000000
vt 0.000000 1.000000
vt 0.000000 0.000000
vt 1.000000 0.000000
vt 1.000000 1.000000
vt 0.000000 1.000000
vt 0.000000 0.000000
vt 1.000000 0.000000
vt 1.000000 1.000000
vt 0.000000 1.000000
vt 0.000000 0.000000
vt 1.000000 0.000000
vt 1.000000 1.000000
vt 0.000000 1.000000
vt 0.000000 0.000000
vt 1.000000 0.000000
vt 1.000000 1.000000
vt 0.000000 1.000000
vt 0.000000 0.000000
vt 1.000000 0.000000
vt 1.000000 1.000000
vt 0.000000 1.000000
vt 0.000000 0.000000
vt 1.000000 0.000000
vt 1.000000 1.000000
vt 0.000000 1.000000
vt 0.000000 0.000000
vt 1.000000 0.000000
vt 1.000000 1.000000
vt 0.000000 1.000000
vt 0.000000 0.000000
vt 1.000000 0.000000
vt 1.000000 1.000000
vt 0.000000 1.000000
vt 0.000000 0.000000
vt 1.000000 0.000000
vt 1.000000 1.000000
vt 0.000000 1.000000
vt 0.000000 0.000000
vt 1.000000 0.000000
vt 1.000000 1.000000
vt 0.000000 1.000000
vt 0.000000 0.000000
vt 1.000000 0.000000
vt 1.000000 1.000000
vt 0.000000 1.000000
vt 0.000000 0.000000
vt 1.000000 0.000000
vt 1.000000 1.000000
vt 0.000000 1.000000
vt 0.000000 0.000000
vt 1.000000 0.000000
vt 1.000000 1.000000
vt 0.000000 1.000000
vt 0.000000 0.000000
vt 1.000000 0.000000
vt 1.000000 1.000000
vt 0.000000 1.000000
vt 0.000000 0.000000
vt 1.000000 0.000000
vt 1.000000 1.000000
vt 0.000000 1.000000
vt 0.000000 0.000000
vt 1.000000 0.000000
vt 1.000000 1.000000
vt 0.000000 1.000000
vt 0.000000 0.000000
vt 1.000000 0.000000
vt 1.000000 1.000000
vt 0.000000 1.000000
vt 0.000000 0.000000
vt 1.000000 0.000000
vt 1.000000 1.000000
vt 0.000000 1.000000
vt 0.000000 0.000000
vt 1.000000 0.000000
vt 1.000000 1.000000
vt 0.000000 1.000000
vt 0.000000 0.000000
vt 1.000000 0.000000
vt 1.000000 1.000000
vt 0.000000 1.000000
vt 0.000000 0.000000
vt 1.000000 0.000000
vt 1.000000 1.000000
vt 0.000000 1.000000
vt 0.000000 0.000000
vt 1.000000 0.000000
vt 1.000000 1.000000
vt 0.000000 1.000000
vt 0.000000 0.000000
vt 1.000000 0.000000
vt 1.000000 1.000000
vt 0.000000 1.000000
vt 0.000000 0.000000
vt 1.000000 0.000000
vt 1.000000 1.000000
vt 0.000000 1.000000
vt 0.000000 0.000000
vt 1.000000 0.000000
vt 1.000000 1.000000
vt 0.000000 1.000000
vt 0.000000 0.000000
vt 1.000000 0.000000
vt 1.000000 1.000000
vt 0.000000 1.000000
vt 0.000000 0.000000
vt 1.000000 0.000000
vt 1.000000 1.000000
vt 0.000000 1.000000
vt 0.000000 0.000000
vt 1.000000 0.000000
vt 1.000000 1.000000
vt 0.000000 1.000000
vt 0.000000 0.000000
vt 1.000000 0.000000
vt 1.000000 1.000000
vt 0.000000 1.000000
vt 0.000000 0.000000
vt 1.000000 0.000000
vt 1.000000 1.000000
vt 0.000000 1.000000
vt 0.000000 0.000000
vt 1.000000 0.000000
vt 1.000000 1.000000
vt 0.000000 1.000000
vt 0.000000 0.000000
vt 1.000000 0.000000
vt 1.000000 1.000000
vt 0.000000 1.000000
vt 0.000000 0.000000
vt 1.000000 0.000000
vt 1.000000 1.000000
vt 0.000000 1.000000
vt 0.000000 0.000000
vt 1.000000 0.000000
vt 1.000000 1.000000
vt 0.000000 1.000000
vt 0.000000 0.000000
vt 1.000000 0.000000
vt 1.000000 1.000000
vt 0.000000 1.000000
vt 0.000000 0.000000
vt 1.000000 0.000000
vt 1.000000 1.000000
vt 0.000000 1.000000
vt 0.000000 0.000000
vt 1.000000 0.000000
vt 1.000000 1.000000
vt 0.000000 1.000000
vt 0.000000 0.000000
vt 1.000000 0.000000
vt 1.000000 1.000000
vt 0.000000 1.000000
vt 0.000000 0.000000
vt 1.000000 0.000000
vt 1.000000 1.000000
vt 0.000000 1.000000
vt 0.000000 0.000000
vt 1.000000 0.000000
vt 1.000000 1.000000
vt 0.000000 1.000000
vt 0.000000 0.000000
vt 1.000000 0.000000
vt 1.000000 1.000000
vt 0.000000 1.000000
vt 0.000000 0.000000
vt 1.000000 0.000000
vt 1.000000 1.000000
vt 0.000000 1.000000
vt 0.000000 0.000000
vt 1.000000 0.000000
vt 1.000000 1.000000
vt 0.000000 1.000000
vt 0.000000 0.000000
vt 1.000000 0.000000
vt 1.000000 1.000000
vt 0.000000 1.000000
vt 0.000000 0.000000
vt 1.000000 0.000000
vt 1.000000 1.000000
vt 0.000000 1.000000
vt 0.000000 0.000000
vt 1.000000 0.000000
vt 1.000000 1.000000
vt 0.000000 1.000000
vt 0.000000 0.000000
vt 1.000000 0.000000
vt 1.000000 1.000000
vt 0.000000 1.000000
vt 0.000000 0.000000
vt 1.000000 0.000000
vt 1.000000 1.000000
vt 0.000000 1.000000
vt 0.000000 0.000000
vt 1.000000 0.000000
vt 1.000000 1.000000
vt 0.000000 1.000000
vt 0.000000 0.000000
vt 1.000000 0.000000
vt 1.000000 1.000000
vt 0.000000 1.000000
vt 0.000000 0.000000
vt 1.000000 0.000000
vt 1.000000 1.000000
vt 0.000000 1.000000
vt 0.000000 0.000000
vt 1.000000 0.000000
vt 1.000000 1.000000
vt 0.000000 1.000000
vt 0.000000 0.000000
vt 1.000000 0.000000
vt 1.000000 1.000000
vt 0.000000 1.000000
vt 0.000000 0.000000
vt 1.000000 0.000000
vt 1.000000 1.000000
vt 0.000000 1.000000
vt 0.000000 0.000000
vt 1.000000 0.000000
vt 1.000000 1.000000
vt 0.000000 1.000000
vt 0.000000 0.000000
vt 1.000000 0.000000
vt 1.000000 1.000000
vt 0.000000 1.000000
vt 0.000000 0.000000
vt 1.000000 0.000000
vt 1.000000 1.000000
vt 0.000000 1.000000
vt 0.000000 0.000000
vt 1.000000 0.000000
vt 1.000000 1.000000
vt 0.000000 1.000000
vt 0.000000 0.000000
vt 1.000000 0.000000
vt 1.000000 1.000000
vt 0.000000 1.000000
vt 0.000000 0.000000
vt 1.000000 0.000000
vt 1.000000 1.000000
vt 0.000000 1.000000
vt 0.000000 0.000000
vt 1.000000 0.000000
vt 1.000000 1.000000
vt 0.000000 1.000000
vt 0.000000 0.000000
vt 1.000000 0.000000
vt 1.000000 1.000000
vt 0.000000 1.000000
vt 0.000000 0.000000
vt 1.000000 0.000000
vt 1.000000 1.000000
vt 0.000000 1.000000
vt 0.000000 0.000000
vt 1.000000 0.000000
vt 1.000000 1.000000
vt 0.000000 1.000000
vt 0.000000 0.000000
vt 1.000000 0.000000
vt 1.000000 1.000000
vt 0.000000 1.000000
vt 0.000000 0.000000
vt 1.000000 0.000000
vt 1.000000 1.000000
vt 0.000000 1.000000
vt 0.000000 0.000000
vt 1.000000 0.000000
vt 1.000000 1.000000
vt 0.000000 1.000000
o MountingRock
usemtl MAT_ROCK
f 1/1 3/2 4/3
f 2/4 4/5 3/6
f 1/7 4/8 5/9
f 2/10 5/11 4/12
f 1/13 5/14 6/15
f 2/16 6/17 5/18
f 1/19 6/20 7/21
f 2/22 7/23 6/24
f 1/25 7/26 8/27
f 2/28 8/29 7/30
f 1/31 8/32 9/33
f 2/34 9/35 8/36
f 1/37 9/38 3/39
f 2/40 3/41 9/42
o HighContrastAnchorRing
usemtl MAT_MARKER
f 10/43 16/44 17/45 11/46
f 11/47 17/48 18/49 12/50
f 12/51 18/52 19/53 13/54
f 13/55 19/56 20/57 14/58
f 14/59 20/60 21/61 15/62
f 15/63 21/64 16/65 10/66
f 16/67 22/68 23/69 17/70
f 17/71 23/72 24/73 18/74
f 18/75 24/76 25/77 19/78
f 19/79 25/80 26/81 20/82
f 20/83 26/84 27/85 21/86
f 21/87 27/88 22/89 16/90
f 22/91 28/92 29/93 23/94
f 23/95 29/96 30/97 24/98
f 24/99 30/100 31/101 25/102
f 25/103 31/104 32/105 26/106
f 26/107 32/108 33/109 27/110
f 27/111 33/112 28/113 22/114
f 28/115 34/116 35/117 29/118
f 29/119 35/120 36/121 30/122
f 30/123 36/124 37/125 31/126
f 31/127 37/128 38/129 32/130
f 32/131 38/132 39/133 33/134
f 33/135 39/136 34/137 28/138
f 34/139 40/140 41/141 35/142
f 35/143 41/144 42/145 36/146
f 36/147 42/148 43/149 37/150
f 37/151 43/152 44/153 38/154
f 38/155 44/156 45/157 39/158
f 39/159 45/160 40/161 34/162
f 40/163 46/164 47/165 41/166
f 41/167 47/168 48/169 42/170
f 42/171 48/172 49/173 43/174
f 43/175 49/176 50/177 44/178
f 44/179 50/180 51/181 45/182
f 45/183 51/184 46/185 40/186
f 46/187 52/188 53/189 47/190
f 47/191 53/192 54/193 48/194
f 48/195 54/196 55/197 49/198
f 49/199 55/200 56/201 50/202
f 50/203 56/204 57/205 51/206
f 51/207 57/208 52/209 46/210
f 52/211 58/212 59/213 53/214
f 53/215 59/216 60/217 54/218
f 54/219 60/220 61/221 55/222
f 55/223 61/224 62/225 56/226
f 56/227 62/228 63/229 57/230
f 57/231 63/232 58/233 52/234
f 58/235 64/236 65/237 59/238
f 59/239 65/240 66/241 60/242
f 60/243 66/244 67/245 61/246
f 61/247 67/248 68/249 62/250
f 62/251 68/252 69/253 63/254
f 63/255 69/256 64/257 58/258
f 64/259 70/260 71/261 65/262
f 65/263 71/264 72/265 66/266
f 66/267 72/268 73/269 67/270
f 67/271 73/272 74/273 68/274
f 68/275 74/276 75/277 69/278
f 69/279 75/280 70/281 64/282
f 70/283 76/284 77/285 71/286
f 71/287 77/288 78/289 72/290
f 72/291 78/292 79/293 73/294
f 73/295 79/296 80/297 74/298
f 74/299 80/300 81/301 75/302
f 75/303 81/304 76/305 70/306
f 76/307 82/308 83/309 77/310
f 77/311 83/312 84/313 78/314
f 78/315 84/316 85/317 79/318
f 79/319 85/320 86/321 80/322
f 80/323 86/324 87/325 81/326
f 81/327 87/328 82/329 76/330
f 82/331 88/332 89/333 83/334
f 83/335 89/336 90/337 84/338
f 84/339 90/340 91/341 85/342
f 85/343 91/344 92/345 86/346
f 86/347 92/348 93/349 87/350
f 87/351 93/352 88/353 82/354
f 88/355 94/356 95/357 89/358
f 89/359 95/360 96/361 90/362
f 90/363 96/364 97/365 91/366
f 91/367 97/368 98/369 92/370
f 92/371 98/372 99/373 93/374
f 93/375 99/376 94/377 88/378
f 94/379 100/380 101/381 95/382
f 95/383 101/384 102/385 96/386
f 96/387 102/388 103/389 97/390
f 97/391 103/392 104/393 98/394
f 98/395 104/396 105/397 99/398
f 99/399 105/400 100/401 94/402
f 100/403 106/404 107/405 101/406
f 101/407 107/408 108/409 102/410
f 102/411 108/412 109/413 103/414
f 103/415 109/416 110/417 104/418
f 104/419 110/420 111/421 105/422
f 105/423 111/424 106/425 100/426
f 106/427 112/428 113/429 107/430
f 107/431 113/432 114/433 108/434
f 108/435 114/436 115/437 109/438
f 109/439 115/440 116/441 110/442
f 110/443 116/444 117/445 111/446
f 111/447 117/448 112/449 106/450
f 112/451 10/452 11/453 113/454
f 113/455 11/456 12/457 114/458
f 114/459 12/460 13/461 115/462
f 115/463 13/464 14/465 116/466
f 116/467 14/468 15/469 117/470
f 117/471 15/472 10/473 112/474
o ReadableRopeExitLeft
usemtl MAT_ROPE
f 118/475 119/476 121/477 120/478
f 122/479 124/480 125/481 123/482
f 118/483 122/484 123/485 119/486
f 120/487 121/488 125/489 124/490
f 118/491 120/492 124/493 122/494
f 119/495 123/496 125/497 121/498
o ReadableRopeExitRight
f 126/499 127/500 129/501 128/502
f 130/503 132/504 133/505 131/506
f 126/507 130/508 131/509 127/510
f 128/511 129/512 133/513 132/514
f 126/515 128/516 132/517 130/518
f 127/519 131/520 133/521 129/522
