mtllib ../../../Materials/project_oen.mtl
o ax-craft-001_crafting_workbench__storm
v -0.740498 0.814128 -0.455000
v 0.739320 0.790881 -0.455000
v 0.740498 0.865872 -0.455000
v -0.739320 0.889119 -0.455000
v 0.739320 0.790881 -0.265000
v -0.740498 0.814128 -0.265000
v -0.739320 0.889119 -0.265000
v 0.740498 0.865872 -0.265000
v -0.740498 0.814128 -0.265000
v -0.740498 0.814128 -0.455000
v -0.739320 0.889119 -0.455000
v -0.739320 0.889119 -0.265000
v 0.739320 0.790881 -0.455000
v 0.739320 0.790881 -0.265000
v 0.740498 0.865872 -0.265000
v 0.740498 0.865872 -0.455000
v -0.739320 0.889119 -0.455000
v 0.740498 0.865872 -0.455000
v 0.740498 0.865872 -0.265000
v -0.739320 0.889119 -0.265000
v -0.740498 0.814128 -0.265000
v 0.739320 0.790881 -0.265000
v 0.739320 0.790881 -0.455000
v -0.740498 0.814128 -0.455000
v -0.742013 0.806375 -0.199478
v 0.737642 0.798626 -0.230472
v 0.738034 0.873625 -0.230480
v -0.741621 0.881374 -0.199486
v 0.741621 0.798626 -0.040514
v -0.738034 0.806375 -0.009520
v -0.737642 0.881374 -0.009528
v 0.742013 0.873625 -0.040522
v -0.738034 0.806375 -0.009520
v -0.742013 0.806375 -0.199478
v -0.741621 0.881374 -0.199486
v -0.737642 0.881374 -0.009528
v 0.737642 0.798626 -0.230472
v 0.741621 0.798626 -0.040514
v 0.742013 0.873625 -0.040522
v 0.738034 0.873625 -0.230480
v -0.741621 0.881374 -0.199486
v 0.738034 0.873625 -0.230480
v 0.742013 0.873625 -0.040522
v -0.737642 0.881374 -0.009528
v -0.738034 0.806375 -0.009520
v 0.741621 0.798626 -0.040514
v 0.737642 0.798626 -0.230472
v -0.742013 0.806375 -0.199478
v -0.739794 0.798626 0.025000
v 0.740186 0.806375 0.025000
v 0.739794 0.881374 0.025000
v -0.740186 0.873625 0.025000
v 0.740186 0.806375 0.215000
v -0.739794 0.798626 0.215000
v -0.740186 0.873625 0.215000
v 0.739794 0.881374 0.215000
v -0.739794 0.798626 0.215000
v -0.739794 0.798626 0.025000
v -0.740186 0.873625 0.025000
v -0.740186 0.873625 0.215000
v 0.740186 0.806375 0.025000
v 0.740186 0.806375 0.215000
v 0.739794 0.881374 0.215000
v 0.739794 0.881374 0.025000
v -0.740186 0.873625 0.025000
v 0.739794 0.881374 0.025000
v 0.739794 0.881374 0.215000
v -0.740186 0.873625 0.215000
v -0.739794 0.798626 0.215000
v 0.740186 0.806375 0.215000
v 0.740186 0.806375 0.025000
v -0.739794 0.798626 0.025000
v -0.741147 0.790881 0.280504
v 0.738346 0.814128 0.249513
v 0.737168 0.889119 0.249538
v -0.742325 0.865872 0.280529
v 0.742325 0.814128 0.439471
v -0.737168 0.790881 0.470462
v -0.738346 0.865872 0.470487
v 0.741147 0.889119 0.439496
v -0.737168 0.790881 0.470462
v -0.741147 0.790881 0.280504
v -0.742325 0.865872 0.280529
v -0.738346 0.865872 0.470487
v 0.738346 0.814128 0.249513
v 0.742325 0.814128 0.439471
v 0.741147 0.889119 0.439496
v 0.737168 0.889119 0.249538
v -0.742325 0.865872 0.280529
v 0.737168 0.889119 0.249538
v 0.741147 0.889119 0.439496
v -0.738346 0.865872 0.470487
v -0.737168 0.790881 0.470462
v 0.742325 0.814128 0.439471
v 0.738346 0.814128 0.249513
v -0.741147 0.790881 0.280504
v -0.580000 0.017530 -0.244750
v -0.540946 0.020276 -0.260842
v -0.555543 0.283058 -0.250061
v -0.593633 0.280381 -0.234366
v -0.540946 0.020276 -0.260842
v -0.524769 0.022860 -0.299872
v -0.539766 0.285578 -0.288128
v -0.555543 0.283058 -0.250061
v -0.524769 0.022860 -0.299872
v -0.540946 0.023768 -0.338977
v -0.555543 0.286465 -0.326267
v -0.539766 0.285578 -0.288128
v -0.540946 0.023768 -0.338977
v -0.580000 0.022470 -0.355250
v -0.593633 0.285198 -0.342138
v -0.555543 0.286465 -0.326267
v -0.580000 0.022470 -0.355250
v -0.619054 0.019724 -0.339158
v -0.631723 0.282521 -0.326444
v -0.593633 0.285198 -0.342138
v -0.619054 0.019724 -0.339158
v -0.635231 0.017140 -0.300128
v -0.647501 0.280000 -0.288377
v -0.631723 0.282521 -0.326444
v -0.635231 0.017140 -0.300128
v -0.619054 0.016232 -0.261023
v -0.631723 0.279114 -0.250237
v -0.647501 0.280000 -0.288377
v -0.619054 0.016232 -0.261023
v -0.580000 0.017530 -0.244750
v -0.593633 0.280381 -0.234366
v -0.631723 0.279114 -0.250237
v -0.580000 0.020000 -0.300000
v -0.580000 0.017530 -0.244750
v -0.540946 0.020276 -0.260842
v -0.540946 0.020276 -0.260842
v -0.524769 0.022860 -0.299872
v -0.524769 0.022860 -0.299872
v -0.540946 0.023768 -0.338977
v -0.540946 0.023768 -0.338977
v -0.580000 0.022470 -0.355250
v -0.580000 0.022470 -0.355250
v -0.619054 0.019724 -0.339158
v -0.619054 0.019724 -0.339158
v -0.635231 0.017140 -0.300128
v -0.635231 0.017140 -0.300128
v -0.619054 0.016232 -0.261023
v -0.619054 0.016232 -0.261023
v -0.580000 0.017530 -0.244750
v -0.593633 0.282789 -0.288252
v -0.593633 0.280381 -0.234366
v -0.555543 0.283058 -0.250061
v -0.555543 0.283058 -0.250061
v -0.539766 0.285578 -0.288128
v -0.539766 0.285578 -0.288128
v -0.555543 0.286465 -0.326267
v -0.555543 0.286465 -0.326267
v -0.593633 0.285198 -0.342138
v -0.593633 0.285198 -0.342138
v -0.631723 0.282521 -0.326444
v -0.631723 0.282521 -0.326444
v -0.647501 0.280000 -0.288377
v -0.647501 0.280000 -0.288377
v -0.631723 0.279114 -0.250237
v -0.631723 0.279114 -0.250237
v -0.593633 0.280381 -0.234366
v -0.593633 0.288161 -0.231459
v -0.553463 0.290254 -0.248440
v -0.584197 0.554882 -0.279787
v -0.618104 0.553116 -0.265454
v -0.553463 0.290254 -0.248440
v -0.536824 0.287973 -0.288743
v -0.570152 0.552957 -0.313807
v -0.584197 0.554882 -0.279787
v -0.536824 0.287973 -0.288743
v -0.553463 0.282657 -0.328758
v -0.584197 0.548469 -0.347584
v -0.570152 0.552957 -0.313807
v -0.553463 0.282657 -0.328758
v -0.593633 0.277418 -0.345046
v -0.618104 0.544047 -0.361332
v -0.584197 0.548469 -0.347584
v -0.593633 0.277418 -0.345046
v -0.633803 0.275325 -0.328065
v -0.652011 0.542281 -0.346998
v -0.618104 0.544047 -0.361332
v -0.633803 0.275325 -0.328065
v -0.650442 0.277606 -0.287762
v -0.666056 0.544206 -0.312979
v -0.652011 0.542281 -0.346998
v -0.650442 0.277606 -0.287762
v -0.633803 0.282922 -0.247747
v -0.652011 0.548694 -0.279202
v -0.666056 0.544206 -0.312979
v -0.633803 0.282922 -0.247747
v -0.593633 0.288161 -0.231459
v -0.618104 0.553116 -0.265454
v -0.652011 0.548694 -0.279202
v -0.593633 0.282789 -0.288252
v -0.593633 0.288161 -0.231459
v -0.553463 0.290254 -0.248440
v -0.553463 0.290254 -0.248440
v -0.536824 0.287973 -0.288743
v -0.536824 0.287973 -0.288743
v -0.553463 0.282657 -0.328758
v -0.553463 0.282657 -0.328758
v -0.593633 0.277418 -0.345046
v -0.593633 0.277418 -0.345046
v -0.633803 0.275325 -0.328065
v -0.633803 0.275325 -0.328065
v -0.650442 0.277606 -0.287762
v -0.650442 0.277606 -0.287762
v -0.633803 0.282922 -0.247747
v -0.633803 0.282922 -0.247747
v -0.593633 0.288161 -0.231459
v -0.618104 0.548582 -0.313393
v -0.618104 0.553116 -0.265454
v -0.584197 0.554882 -0.279787
v -0.584197 0.554882 -0.279787
v -0.570152 0.552957 -0.313807
v -0.570152 0.552957 -0.313807
v -0.584197 0.548469 -0.347584
v -0.584197 0.548469 -0.347584
v -0.618104 0.544047 -0.361332
v -0.618104 0.544047 -0.361332
v -0.652011 0.542281 -0.346998
v -0.652011 0.542281 -0.346998
v -0.666056 0.544206 -0.312979
v -0.666056 0.544206 -0.312979
v -0.652011 0.548694 -0.279202
v -0.652011 0.548694 -0.279202
v -0.618104 0.553116 -0.265454
v -0.618104 0.543387 -0.253119
v -0.575420 0.542082 -0.271017
v -0.563011 0.814368 -0.253277
v -0.600000 0.815498 -0.237768
v -0.575420 0.542082 -0.271017
v -0.557740 0.544585 -0.313737
v -0.547690 0.816537 -0.290299
v -0.563011 0.814368 -0.253277
v -0.557740 0.544585 -0.313737
v -0.575420 0.549429 -0.356256
v -0.563011 0.820734 -0.327145
v -0.547690 0.816537 -0.290299
v -0.575420 0.549429 -0.356256
v -0.618104 0.553776 -0.373667
v -0.600000 0.824502 -0.342232
v -0.563011 0.820734 -0.327145
v -0.618104 0.553776 -0.373667
v -0.660788 0.555081 -0.355769
v -0.636989 0.825632 -0.326723
v -0.600000 0.824502 -0.342232
v -0.660788 0.555081 -0.355769
v -0.678468 0.552578 -0.313048
v -0.652310 0.823463 -0.289701
v -0.636989 0.825632 -0.326723
v -0.678468 0.552578 -0.313048
v -0.660788 0.547734 -0.270529
v -0.636989 0.819266 -0.252855
v -0.652310 0.823463 -0.289701
v -0.660788 0.547734 -0.270529
v -0.618104 0.543387 -0.253119
v -0.600000 0.815498 -0.237768
v -0.636989 0.819266 -0.252855
v -0.618104 0.548582 -0.313393
v -0.618104 0.543387 -0.253119
v -0.575420 0.542082 -0.271017
v -0.575420 0.542082 -0.271017
v -0.557740 0.544585 -0.313737
v -0.557740 0.544585 -0.313737
v -0.575420 0.549429 -0.356256
v -0.575420 0.549429 -0.356256
v -0.618104 0.553776 -0.373667
v -0.618104 0.553776 -0.373667
v -0.660788 0.555081 -0.355769
v -0.660788 0.555081 -0.355769
v -0.678468 0.552578 -0.313048
v -0.678468 0.552578 -0.313048
v -0.660788 0.547734 -0.270529
v -0.660788 0.547734 -0.270529
v -0.618104 0.543387 -0.253119
v -0.600000 0.820000 -0.290000
v -0.600000 0.815498 -0.237768
v -0.563011 0.814368 -0.253277
v -0.563011 0.814368 -0.253277
v -0.547690 0.816537 -0.290299
v -0.547690 0.816537 -0.290299
v -0.563011 0.820734 -0.327145
v -0.563011 0.820734 -0.327145
v -0.600000 0.824502 -0.342232
v -0.600000 0.824502 -0.342232
v -0.636989 0.825632 -0.326723
v -0.636989 0.825632 -0.326723
v -0.652310 0.823463 -0.289701
v -0.652310 0.823463 -0.289701
v -0.636989 0.819266 -0.252855
v -0.636989 0.819266 -0.252855
v -0.600000 0.815498 -0.237768
v 0.580000 0.021155 -0.245179
v 0.618578 0.016935 -0.261154
v 0.644079 0.283642 -0.268112
v 0.606833 0.287716 -0.252689
v 0.618578 0.016935 -0.261154
v 0.634558 0.014511 -0.299884
v 0.659506 0.281302 -0.305505
v 0.644079 0.283642 -0.268112
v 0.634558 0.014511 -0.299884
v 0.618578 0.015302 -0.338683
v 0.644079 0.282065 -0.342963
v 0.659506 0.281302 -0.305505
v 0.618578 0.015302 -0.338683
v 0.580000 0.018845 -0.354821
v 0.606833 0.285486 -0.358544
v 0.644079 0.282065 -0.342963
v 0.580000 0.018845 -0.354821
v 0.541422 0.023065 -0.338846
v 0.569588 0.289560 -0.343120
v 0.606833 0.285486 -0.358544
v 0.541422 0.023065 -0.338846
v 0.525442 0.025489 -0.300116
v 0.554160 0.291900 -0.305728
v 0.569588 0.289560 -0.343120
v 0.525442 0.025489 -0.300116
v 0.541422 0.024698 -0.261317
v 0.569588 0.291136 -0.268270
v 0.554160 0.291900 -0.305728
v 0.541422 0.024698 -0.261317
v 0.580000 0.021155 -0.245179
v 0.606833 0.287716 -0.252689
v 0.569588 0.291136 -0.268270
v 0.580000 0.020000 -0.300000
v 0.580000 0.021155 -0.245179
v 0.618578 0.016935 -0.261154
v 0.618578 0.016935 -0.261154
v 0.634558 0.014511 -0.299884
v 0.634558 0.014511 -0.299884
v 0.618578 0.015302 -0.338683
v 0.618578 0.015302 -0.338683
v 0.580000 0.018845 -0.354821
v 0.580000 0.018845 -0.354821
v 0.541422 0.023065 -0.338846
v 0.541422 0.023065 -0.338846
v 0.525442 0.025489 -0.300116
v 0.525442 0.025489 -0.300116
v 0.541422 0.024698 -0.261317
v 0.541422 0.024698 -0.261317
v 0.580000 0.021155 -0.245179
v 0.606833 0.286601 -0.305616
v 0.606833 0.287716 -0.252689
v 0.644079 0.283642 -0.268112
v 0.644079 0.283642 -0.268112
v 0.659506 0.281302 -0.305505
v 0.659506 0.281302 -0.305505
v 0.644079 0.282065 -0.342963
v 0.644079 0.282065 -0.342963
v 0.606833 0.285486 -0.358544
v 0.606833 0.285486 -0.358544
v 0.569588 0.289560 -0.343120
v 0.569588 0.289560 -0.343120
v 0.554160 0.291900 -0.305728
v 0.554160 0.291900 -0.305728
v 0.569588 0.291136 -0.268270
v 0.569588 0.291136 -0.268270
v 0.606833 0.287716 -0.252689
v 0.606833 0.286553 -0.244472
v 0.649884 0.290560 -0.262378
v 0.622154 0.567486 -0.264199
v 0.581133 0.563668 -0.247137
v 0.649884 0.290560 -0.262378
v 0.667716 0.292247 -0.305612
v 0.639145 0.569094 -0.305395
v 0.622154 0.567486 -0.264199
v 0.667716 0.292247 -0.305612
v 0.649884 0.290628 -0.348849
v 0.622154 0.567550 -0.346593
v 0.639145 0.569094 -0.305395
v 0.649884 0.290628 -0.348849
v 0.606833 0.286649 -0.366761
v 0.581133 0.563759 -0.363660
v 0.622154 0.567550 -0.346593
v 0.606833 0.286649 -0.366761
v 0.563783 0.282642 -0.348855
v 0.540112 0.559942 -0.346599
v 0.581133 0.563759 -0.363660
v 0.563783 0.282642 -0.348855
v 0.545950 0.280954 -0.305621
v 0.523120 0.558333 -0.305403
v 0.540112 0.559942 -0.346599
v 0.545950 0.280954 -0.305621
v 0.563783 0.282574 -0.262384
v 0.540112 0.559877 -0.264205
v 0.523120 0.558333 -0.305403
v 0.563783 0.282574 -0.262384
v 0.606833 0.286553 -0.244472
v 0.581133 0.563668 -0.247137
v 0.540112 0.559877 -0.264205
v 0.606833 0.286601 -0.305616
v 0.606833 0.286553 -0.244472
v 0.649884 0.290560 -0.262378
v 0.649884 0.290560 -0.262378
v 0.667716 0.292247 -0.305612
v 0.667716 0.292247 -0.305612
v 0.649884 0.290628 -0.348849
v 0.649884 0.290628 -0.348849
v 0.606833 0.286649 -0.366761
v 0.606833 0.286649 -0.366761
v 0.563783 0.282642 -0.348855
v 0.563783 0.282642 -0.348855
v 0.545950 0.280954 -0.305621
v 0.545950 0.280954 -0.305621
v 0.563783 0.282574 -0.262384
v 0.563783 0.282574 -0.262384
v 0.606833 0.286553 -0.244472
v 0.581133 0.563714 -0.305399
v 0.581133 0.563668 -0.247137
v 0.622154 0.567486 -0.264199
v 0.622154 0.567486 -0.264199
v 0.639145 0.569094 -0.305395
v 0.639145 0.569094 -0.305395
v 0.622154 0.567550 -0.346593
v 0.622154 0.567550 -0.346593
v 0.581133 0.563759 -0.363660
v 0.581133 0.563759 -0.363660
v 0.540112 0.559942 -0.346599
v 0.540112 0.559942 -0.346599
v 0.523120 0.558333 -0.305403
v 0.523120 0.558333 -0.305403
v 0.540112 0.559877 -0.264205
v 0.540112 0.559877 -0.264205
v 0.581133 0.563668 -0.247137
v 0.581133 0.560377 -0.249858
v 0.620231 0.556966 -0.266389
v 0.644452 0.814054 -0.255625
v 0.610000 0.817059 -0.241058
v 0.620231 0.556966 -0.266389
v 0.636426 0.557508 -0.305772
v 0.658723 0.814532 -0.290329
v 0.644452 0.814054 -0.255625
v 0.636426 0.557508 -0.305772
v 0.620231 0.561685 -0.344936
v 0.644452 0.818213 -0.324839
v 0.658723 0.814532 -0.290329
v 0.620231 0.561685 -0.344936
v 0.581133 0.567051 -0.360940
v 0.610000 0.822941 -0.338942
v 0.644452 0.818213 -0.324839
v 0.581133 0.567051 -0.360940
v 0.542035 0.570461 -0.344409
v 0.575548 0.825946 -0.324375
v 0.610000 0.822941 -0.338942
v 0.542035 0.570461 -0.344409
v 0.525840 0.569919 -0.305026
v 0.561277 0.825468 -0.289671
v 0.575548 0.825946 -0.324375
v 0.525840 0.569919 -0.305026
v 0.542035 0.565742 -0.265862
v 0.575548 0.821787 -0.255161
v 0.561277 0.825468 -0.289671
v 0.542035 0.565742 -0.265862
v 0.581133 0.560377 -0.249858
v 0.610000 0.817059 -0.241058
v 0.575548 0.821787 -0.255161
v 0.581133 0.563714 -0.305399
v 0.581133 0.560377 -0.249858
v 0.620231 0.556966 -0.266389
v 0.620231 0.556966 -0.266389
v 0.636426 0.557508 -0.305772
v 0.636426 0.557508 -0.305772
v 0.620231 0.561685 -0.344936
v 0.620231 0.561685 -0.344936
v 0.581133 0.567051 -0.360940
v 0.581133 0.567051 -0.360940
v 0.542035 0.570461 -0.344409
v 0.542035 0.570461 -0.344409
v 0.525840 0.569919 -0.305026
v 0.525840 0.569919 -0.305026
v 0.542035 0.565742 -0.265862
v 0.542035 0.565742 -0.265862
v 0.581133 0.560377 -0.249858
v 0.610000 0.820000 -0.290000
v 0.610000 0.817059 -0.241058
v 0.644452 0.814054 -0.255625
v 0.644452 0.814054 -0.255625
v 0.658723 0.814532 -0.290329
v 0.658723 0.814532 -0.290329
v 0.644452 0.818213 -0.324839
v 0.644452 0.818213 -0.324839
v 0.610000 0.822941 -0.338942
v 0.610000 0.822941 -0.338942
v 0.575548 0.825946 -0.324375
v 0.575548 0.825946 -0.324375
v 0.561277 0.825468 -0.289671
v 0.561277 0.825468 -0.289671
v 0.575548 0.821787 -0.255161
v 0.575548 0.821787 -0.255161
v 0.610000 0.817059 -0.241058
v -0.580000 0.019159 0.357090
v -0.539660 0.017772 0.340345
v -0.536006 0.271287 0.337471
v -0.569746 0.272447 0.351477
v -0.539660 0.017772 0.340345
v -0.522951 0.017690 0.299966
v -0.522030 0.271218 0.303699
v -0.536006 0.271287 0.337471
v -0.522951 0.017690 0.299966
v -0.539660 0.018961 0.259607
v -0.536006 0.272281 0.269943
v -0.522030 0.271218 0.303699
v -0.539660 0.018961 0.259607
v -0.580000 0.020841 0.242910
v -0.569746 0.273853 0.255978
v -0.536006 0.272281 0.269943
v -0.580000 0.020841 0.242910
v -0.620340 0.022228 0.259655
v -0.603486 0.275014 0.269984
v -0.569746 0.273853 0.255978
v -0.620340 0.022228 0.259655
v -0.637049 0.022310 0.300034
v -0.617461 0.275083 0.303756
v -0.603486 0.275014 0.269984
v -0.637049 0.022310 0.300034
v -0.620340 0.021039 0.340393
v -0.603486 0.274020 0.337512
v -0.617461 0.275083 0.303756
v -0.620340 0.021039 0.340393
v -0.580000 0.019159 0.357090
v -0.569746 0.272447 0.351477
v -0.603486 0.274020 0.337512
v -0.580000 0.020000 0.300000
v -0.580000 0.019159 0.357090
v -0.539660 0.017772 0.340345
v -0.539660 0.017772 0.340345
v -0.522951 0.017690 0.299966
v -0.522951 0.017690 0.299966
v -0.539660 0.018961 0.259607
v -0.539660 0.018961 0.259607
v -0.580000 0.020841 0.242910
v -0.580000 0.020841 0.242910
v -0.620340 0.022228 0.259655
v -0.620340 0.022228 0.259655
v -0.637049 0.022310 0.300034
v -0.637049 0.022310 0.300034
v -0.620340 0.021039 0.340393
v -0.620340 0.021039 0.340393
v -0.580000 0.019159 0.357090
v -0.569746 0.273150 0.303728
v -0.569746 0.272447 0.351477
v -0.536006 0.271287 0.337471
v -0.536006 0.271287 0.337471
v -0.522030 0.271218 0.303699
v -0.522030 0.271218 0.303699
v -0.536006 0.272281 0.269943
v -0.536006 0.272281 0.269943
v -0.569746 0.273853 0.255978
v -0.569746 0.273853 0.255978
v -0.603486 0.275014 0.269984
v -0.603486 0.275014 0.269984
v -0.617461 0.275083 0.303756
v -0.617461 0.275083 0.303756
v -0.603486 0.274020 0.337512
v -0.603486 0.274020 0.337512
v -0.569746 0.272447 0.351477
v -0.569746 0.275218 0.362528
v -0.528293 0.278151 0.345181
v -0.555126 0.572337 0.333162
v -0.594910 0.569521 0.349810
v -0.528293 0.278151 0.345181
v -0.511123 0.278155 0.303552
v -0.538646 0.572341 0.293207
v -0.555126 0.572337 0.333162
v -0.511123 0.278155 0.303552
v -0.528293 0.275227 0.262025
v -0.555126 0.569531 0.253352
v -0.538646 0.572341 0.293207
v -0.528293 0.275227 0.262025
v -0.569746 0.271083 0.244928
v -0.594910 0.565553 0.236942
v -0.555126 0.569531 0.253352
v -0.569746 0.271083 0.244928
v -0.611198 0.268149 0.262274
v -0.634695 0.562737 0.253591
v -0.594910 0.565553 0.236942
v -0.611198 0.268149 0.262274
v -0.628368 0.268145 0.303904
v -0.651174 0.562733 0.293545
v -0.634695 0.562737 0.253591
v -0.628368 0.268145 0.303904
v -0.611198 0.271073 0.345430
v -0.634695 0.565544 0.333401
v -0.651174 0.562733 0.293545
v -0.611198 0.271073 0.345430
v -0.569746 0.275218 0.362528
v -0.594910 0.569521 0.349810
v -0.634695 0.565544 0.333401
v -0.569746 0.273150 0.303728
v -0.569746 0.275218 0.362528
v -0.528293 0.278151 0.345181
v -0.528293 0.278151 0.345181
v -0.511123 0.278155 0.303552
v -0.511123 0.278155 0.303552
v -0.528293 0.275227 0.262025
v -0.528293 0.275227 0.262025
v -0.569746 0.271083 0.244928
v -0.569746 0.271083 0.244928
v -0.611198 0.268149 0.262274
v -0.611198 0.268149 0.262274
v -0.628368 0.268145 0.303904
v -0.628368 0.268145 0.303904
v -0.611198 0.271073 0.345430
v -0.611198 0.271073 0.345430
v -0.569746 0.275218 0.362528
v -0.594910 0.567537 0.293376
v -0.594910 0.569521 0.349810
v -0.555126 0.572337 0.333162
v -0.555126 0.572337 0.333162
v -0.538646 0.572341 0.293207
v -0.538646 0.572341 0.293207
v -0.555126 0.569531 0.253352
v -0.555126 0.569531 0.253352
v -0.594910 0.565553 0.236942
v -0.594910 0.565553 0.236942
v -0.634695 0.562737 0.253591
v -0.634695 0.562737 0.253591
v -0.651174 0.562733 0.293545
v -0.651174 0.562733 0.293545
v -0.634695 0.565544 0.333401
v -0.634695 0.565544 0.333401
v -0.594910 0.569521 0.349810
v -0.594910 0.564267 0.343031
v -0.559730 0.565931 0.328534
v -0.562041 0.818267 0.347934
v -0.600000 0.816472 0.363576
v -0.559730 0.565931 0.328534
v -0.545158 0.568536 0.293442
v -0.546318 0.821078 0.310071
v -0.562041 0.818267 0.347934
v -0.545158 0.568536 0.293442
v -0.559730 0.570555 0.258311
v -0.562041 0.823256 0.272166
v -0.546318 0.821078 0.310071
v -0.559730 0.570555 0.258311
v -0.594910 0.570807 0.243721
v -0.600000 0.823528 0.256424
v -0.562041 0.823256 0.272166
v -0.594910 0.570807 0.243721
v -0.630091 0.569143 0.258218
v -0.637959 0.821733 0.272066
v -0.600000 0.823528 0.256424
v -0.630091 0.569143 0.258218
v -0.644663 0.566538 0.293311
v -0.653682 0.818922 0.309929
v -0.637959 0.821733 0.272066
v -0.644663 0.566538 0.293311
v -0.630091 0.564519 0.328441
v -0.637959 0.816744 0.347834
v -0.653682 0.818922 0.309929
v -0.630091 0.564519 0.328441
v -0.594910 0.564267 0.343031
v -0.600000 0.816472 0.363576
v -0.637959 0.816744 0.347834
v -0.594910 0.567537 0.293376
v -0.594910 0.564267 0.343031
v -0.559730 0.565931 0.328534
v -0.559730 0.565931 0.328534
v -0.545158 0.568536 0.293442
v -0.545158 0.568536 0.293442
v -0.559730 0.570555 0.258311
v -0.559730 0.570555 0.258311
v -0.594910 0.570807 0.243721
v -0.594910 0.570807 0.243721
v -0.630091 0.569143 0.258218
v -0.630091 0.569143 0.258218
v -0.644663 0.566538 0.293311
v -0.644663 0.566538 0.293311
v -0.630091 0.564519 0.328441
v -0.630091 0.564519 0.328441
v -0.594910 0.564267 0.343031
v -0.600000 0.820000 0.310000
v -0.600000 0.816472 0.363576
v -0.562041 0.818267 0.347934
v -0.562041 0.818267 0.347934
v -0.546318 0.821078 0.310071
v -0.546318 0.821078 0.310071
v -0.562041 0.823256 0.272166
v -0.562041 0.823256 0.272166
v -0.600000 0.823528 0.256424
v -0.600000 0.823528 0.256424
v -0.637959 0.821733 0.272066
v -0.637959 0.821733 0.272066
v -0.653682 0.818922 0.309929
v -0.653682 0.818922 0.309929
v -0.637959 0.816744 0.347834
v -0.637959 0.816744 0.347834
v -0.600000 0.816472 0.363576
v 0.580000 0.018227 0.360353
v 0.622691 0.018244 0.342661
v 0.625383 0.298414 0.350283
v 0.583298 0.298397 0.367724
v 0.622691 0.018244 0.342661
v 0.640374 0.019290 0.299979
v 0.642815 0.299445 0.308208
v 0.625383 0.298414 0.350283
v 0.640374 0.019290 0.299979
v 0.622691 0.020751 0.257310
v 0.625383 0.300885 0.266144
v 0.642815 0.299445 0.308208
v 0.622691 0.020751 0.257310
v 0.580000 0.021773 0.239647
v 0.583298 0.301892 0.248733
v 0.625383 0.300885 0.266144
v 0.580000 0.021773 0.239647
v 0.537309 0.021756 0.257339
v 0.541213 0.301875 0.266173
v 0.583298 0.301892 0.248733
v 0.537309 0.021756 0.257339
v 0.519626 0.020710 0.300021
v 0.523781 0.300845 0.308249
v 0.541213 0.301875 0.266173
v 0.519626 0.020710 0.300021
v 0.537309 0.019249 0.342690
v 0.541213 0.299404 0.350312
v 0.523781 0.300845 0.308249
v 0.537309 0.019249 0.342690
v 0.580000 0.018227 0.360353
v 0.583298 0.298397 0.367724
v 0.541213 0.299404 0.350312
v 0.580000 0.020000 0.300000
v 0.580000 0.018227 0.360353
v 0.622691 0.018244 0.342661
v 0.622691 0.018244 0.342661
v 0.640374 0.019290 0.299979
v 0.640374 0.019290 0.299979
v 0.622691 0.020751 0.257310
v 0.622691 0.020751 0.257310
v 0.580000 0.021773 0.239647
v 0.580000 0.021773 0.239647
v 0.537309 0.021756 0.257339
v 0.537309 0.021756 0.257339
v 0.519626 0.020710 0.300021
v 0.519626 0.020710 0.300021
v 0.537309 0.019249 0.342690
v 0.537309 0.019249 0.342690
v 0.580000 0.018227 0.360353
v 0.583298 0.300145 0.308228
v 0.583298 0.298397 0.367724
v 0.625383 0.298414 0.350283
v 0.625383 0.298414 0.350283
v 0.642815 0.299445 0.308208
v 0.642815 0.299445 0.308208
v 0.625383 0.300885 0.266144
v 0.625383 0.300885 0.266144
v 0.583298 0.301892 0.248733
v 0.583298 0.301892 0.248733
v 0.541213 0.301875 0.266173
v 0.541213 0.301875 0.266173
v 0.523781 0.300845 0.308249
v 0.523781 0.300845 0.308249
v 0.541213 0.299404 0.350312
v 0.541213 0.299404 0.350312
v 0.583298 0.298397 0.367724
v 0.583298 0.304752 0.366563
v 0.624426 0.298881 0.349834
v 0.653882 0.566806 0.328494
v 0.612933 0.572651 0.345150
v 0.624426 0.298881 0.349834
v 0.641461 0.293751 0.308733
v 0.670843 0.561699 0.287573
v 0.653882 0.566806 0.328494
v 0.641461 0.293751 0.308733
v 0.624426 0.292366 0.267337
v 0.653882 0.560320 0.246356
v 0.670843 0.561699 0.287573
v 0.624426 0.292366 0.267337
v 0.583298 0.295538 0.249894
v 0.612933 0.563478 0.228990
v 0.653882 0.560320 0.246356
v 0.583298 0.295538 0.249894
v 0.542170 0.301408 0.266623
v 0.571984 0.569322 0.245645
v 0.612933 0.563478 0.228990
v 0.542170 0.301408 0.266623
v 0.525135 0.306538 0.307723
v 0.555023 0.574430 0.286567
v 0.571984 0.569322 0.245645
v 0.525135 0.306538 0.307723
v 0.542170 0.307923 0.349120
v 0.571984 0.575809 0.327783
v 0.555023 0.574430 0.286567
v 0.542170 0.307923 0.349120
v 0.583298 0.304752 0.366563
v 0.612933 0.572651 0.345150
v 0.571984 0.575809 0.327783
v 0.583298 0.300145 0.308228
v 0.583298 0.304752 0.366563
v 0.624426 0.298881 0.349834
v 0.624426 0.298881 0.349834
v 0.641461 0.293751 0.308733
v 0.641461 0.293751 0.308733
v 0.624426 0.292366 0.267337
v 0.624426 0.292366 0.267337
v 0.583298 0.295538 0.249894
v 0.583298 0.295538 0.249894
v 0.542170 0.301408 0.266623
v 0.542170 0.301408 0.266623
v 0.525135 0.306538 0.307723
v 0.525135 0.306538 0.307723
v 0.542170 0.307923 0.349120
v 0.542170 0.307923 0.349120
v 0.583298 0.304752 0.366563
v 0.612933 0.568064 0.287070
v 0.612933 0.572651 0.345150
v 0.653882 0.566806 0.328494
v 0.653882 0.566806 0.328494
v 0.670843 0.561699 0.287573
v 0.670843 0.561699 0.287573
v 0.653882 0.560320 0.246356
v 0.653882 0.560320 0.246356
v 0.612933 0.563478 0.228990
v 0.612933 0.563478 0.228990
v 0.571984 0.569322 0.245645
v 0.571984 0.569322 0.245645
v 0.555023 0.574430 0.286567
v 0.555023 0.574430 0.286567
v 0.571984 0.575809 0.327783
v 0.571984 0.575809 0.327783
v 0.612933 0.572651 0.345150
v 0.612933 0.562619 0.346894
v 0.655407 0.564705 0.329417
v 0.645050 0.817227 0.344945
v 0.610000 0.815507 0.359368
v 0.655407 0.564705 0.329417
v 0.673000 0.568758 0.287133
v 0.659569 0.820572 0.310052
v 0.645050 0.817227 0.344945
v 0.673000 0.568758 0.287133
v 0.655407 0.572405 0.244812
v 0.645050 0.823582 0.275128
v 0.659569 0.820572 0.310052
v 0.655407 0.572405 0.244812
v 0.612933 0.573509 0.227246
v 0.610000 0.824493 0.260632
v 0.645050 0.823582 0.275128
v 0.612933 0.573509 0.227246
v 0.570459 0.571424 0.244723
v 0.574950 0.822773 0.275055
v 0.610000 0.824493 0.260632
v 0.570459 0.571424 0.244723
v 0.552866 0.567371 0.287007
v 0.560431 0.819428 0.309948
v 0.574950 0.822773 0.275055
v 0.552866 0.567371 0.287007
v 0.570459 0.563724 0.329327
v 0.574950 0.816418 0.344872
v 0.560431 0.819428 0.309948
v 0.570459 0.563724 0.329327
v 0.612933 0.562619 0.346894
v 0.610000 0.815507 0.359368
v 0.574950 0.816418 0.344872
v 0.612933 0.568064 0.287070
v 0.612933 0.562619 0.346894
v 0.655407 0.564705 0.329417
v 0.655407 0.564705 0.329417
v 0.673000 0.568758 0.287133
v 0.673000 0.568758 0.287133
v 0.655407 0.572405 0.244812
v 0.655407 0.572405 0.244812
v 0.612933 0.573509 0.227246
v 0.612933 0.573509 0.227246
v 0.570459 0.571424 0.244723
v 0.570459 0.571424 0.244723
v 0.552866 0.567371 0.287007
v 0.552866 0.567371 0.287007
v 0.570459 0.563724 0.329327
v 0.570459 0.563724 0.329327
v 0.612933 0.562619 0.346894
v 0.610000 0.820000 0.310000
v 0.610000 0.815507 0.359368
v 0.645050 0.817227 0.344945
v 0.645050 0.817227 0.344945
v 0.659569 0.820572 0.310052
v 0.659569 0.820572 0.310052
v 0.645050 0.823582 0.275128
v 0.645050 0.823582 0.275128
v 0.610000 0.824493 0.260632
v 0.610000 0.824493 0.260632
v 0.574950 0.822773 0.275055
v 0.574950 0.822773 0.275055
v 0.560431 0.819428 0.309948
v 0.560431 0.819428 0.309948
v 0.574950 0.816418 0.344872
v 0.574950 0.816418 0.344872
v 0.610000 0.815507 0.359368
v -0.580000 0.342500 -0.270000
v 0.580000 0.342500 -0.270000
v 0.580000 0.397500 -0.270000
v -0.580000 0.397500 -0.270000
v 0.580000 0.342500 0.270000
v -0.580000 0.342500 0.270000
v -0.580000 0.397500 0.270000
v 0.580000 0.397500 0.270000
v -0.580000 0.342500 0.270000
v -0.580000 0.342500 -0.270000
v -0.580000 0.397500 -0.270000
v -0.580000 0.397500 0.270000
v 0.580000 0.342500 -0.270000
v 0.580000 0.342500 0.270000
v 0.580000 0.397500 0.270000
v 0.580000 0.397500 -0.270000
v -0.580000 0.397500 -0.270000
v 0.580000 0.397500 -0.270000
v 0.580000 0.397500 0.270000
v -0.580000 0.397500 0.270000
v -0.580000 0.342500 0.270000
v 0.580000 0.342500 0.270000
v 0.580000 0.342500 -0.270000
v -0.580000 0.342500 -0.270000
v 0.350000 0.850000 -0.260000
v 0.550000 0.850000 -0.260000
v 0.550000 1.030000 -0.260000
v 0.350000 1.030000 -0.260000
v 0.550000 0.850000 -0.100000
v 0.350000 0.850000 -0.100000
v 0.350000 1.030000 -0.100000
v 0.550000 1.030000 -0.100000
v 0.350000 0.850000 -0.100000
v 0.350000 0.850000 -0.260000
v 0.350000 1.030000 -0.260000
v 0.350000 1.030000 -0.100000
v 0.550000 0.850000 -0.260000
v 0.550000 0.850000 -0.100000
v 0.550000 1.030000 -0.100000
v 0.550000 1.030000 -0.260000
v 0.350000 1.030000 -0.260000
v 0.550000 1.030000 -0.260000
v 0.550000 1.030000 -0.100000
v 0.350000 1.030000 -0.100000
v 0.350000 0.850000 -0.100000
v 0.550000 0.850000 -0.100000
v 0.550000 0.850000 -0.260000
v 0.350000 0.850000 -0.260000
v 0.550000 0.950000 -0.198000
v 0.550000 0.964073 -0.191223
v 0.740000 0.964073 -0.191223
v 0.740000 0.950000 -0.198000
v 0.550000 0.964073 -0.191223
v 0.550000 0.967549 -0.175995
v 0.740000 0.967549 -0.175995
v 0.740000 0.964073 -0.191223
v 0.550000 0.967549 -0.175995
v 0.550000 0.957810 -0.163783
v 0.740000 0.957810 -0.163783
v 0.740000 0.967549 -0.175995
v 0.550000 0.957810 -0.163783
v 0.550000 0.942190 -0.163783
v 0.740000 0.942190 -0.163783
v 0.740000 0.957810 -0.163783
v 0.550000 0.942190 -0.163783
v 0.550000 0.932451 -0.175995
v 0.740000 0.932451 -0.175995
v 0.740000 0.942190 -0.163783
v 0.550000 0.932451 -0.175995
v 0.550000 0.935927 -0.191223
v 0.740000 0.935927 -0.191223
v 0.740000 0.932451 -0.175995
v 0.550000 0.935927 -0.191223
v 0.550000 0.950000 -0.198000
v 0.740000 0.950000 -0.198000
v 0.740000 0.935927 -0.191223
v 0.550000 0.950000 -0.180000
v 0.550000 0.950000 -0.198000
v 0.550000 0.964073 -0.191223
v 0.550000 0.964073 -0.191223
v 0.550000 0.967549 -0.175995
v 0.550000 0.967549 -0.175995
v 0.550000 0.957810 -0.163783
v 0.550000 0.957810 -0.163783
v 0.550000 0.942190 -0.163783
v 0.550000 0.942190 -0.163783
v 0.550000 0.932451 -0.175995
v 0.550000 0.932451 -0.175995
v 0.550000 0.935927 -0.191223
v 0.550000 0.935927 -0.191223
v 0.550000 0.950000 -0.198000
v 0.740000 0.950000 -0.180000
v 0.740000 0.950000 -0.198000
v 0.740000 0.964073 -0.191223
v 0.740000 0.964073 -0.191223
v 0.740000 0.967549 -0.175995
v 0.740000 0.967549 -0.175995
v 0.740000 0.957810 -0.163783
v 0.740000 0.957810 -0.163783
v 0.740000 0.942190 -0.163783
v 0.740000 0.942190 -0.163783
v 0.740000 0.932451 -0.175995
v 0.740000 0.932451 -0.175995
v 0.740000 0.935927 -0.191223
v 0.740000 0.935927 -0.191223
v 0.740000 0.950000 -0.198000
v -0.248000 0.930000 0.100000
v -0.259570 0.930000 0.158168
v -0.267231 0.941413 0.154995
v -0.256292 0.941413 0.100000
v -0.256292 0.941413 0.100000
v -0.267231 0.941413 0.154995
v -0.279626 0.937053 0.149861
v -0.269708 0.937053 0.100000
v -0.269708 0.937053 0.100000
v -0.279626 0.937053 0.149861
v -0.279626 0.922947 0.149861
v -0.269708 0.922947 0.100000
v -0.269708 0.922947 0.100000
v -0.279626 0.922947 0.149861
v -0.267231 0.918587 0.154995
v -0.256292 0.918587 0.100000
v -0.256292 0.918587 0.100000
v -0.267231 0.918587 0.154995
v -0.259570 0.930000 0.158168
v -0.248000 0.930000 0.100000
v -0.259570 0.930000 0.158168
v -0.292520 0.930000 0.207480
v -0.298383 0.941413 0.201617
v -0.267231 0.941413 0.154995
v -0.267231 0.941413 0.154995
v -0.298383 0.941413 0.201617
v -0.307870 0.937053 0.192130
v -0.279626 0.937053 0.149861
v -0.279626 0.937053 0.149861
v -0.307870 0.937053 0.192130
v -0.307870 0.922947 0.192130
v -0.279626 0.922947 0.149861
v -0.279626 0.922947 0.149861
v -0.307870 0.922947 0.192130
v -0.298383 0.918587 0.201617
v -0.267231 0.918587 0.154995
v -0.267231 0.918587 0.154995
v -0.298383 0.918587 0.201617
v -0.292520 0.930000 0.207480
v -0.259570 0.930000 0.158168
v -0.292520 0.930000 0.207480
v -0.341832 0.930000 0.240430
v -0.345005 0.941413 0.232769
v -0.298383 0.941413 0.201617
v -0.298383 0.941413 0.201617
v -0.345005 0.941413 0.232769
v -0.350139 0.937053 0.220374
v -0.307870 0.937053 0.192130
v -0.307870 0.937053 0.192130
v -0.350139 0.937053 0.220374
v -0.350139 0.922947 0.220374
v -0.307870 0.922947 0.192130
v -0.307870 0.922947 0.192130
v -0.350139 0.922947 0.220374
v -0.345005 0.918587 0.232769
v -0.298383 0.918587 0.201617
v -0.298383 0.918587 0.201617
v -0.345005 0.918587 0.232769
v -0.341832 0.930000 0.240430
v -0.292520 0.930000 0.207480
v -0.341832 0.930000 0.240430
v -0.400000 0.930000 0.252000
v -0.400000 0.941413 0.243708
v -0.345005 0.941413 0.232769
v -0.345005 0.941413 0.232769
v -0.400000 0.941413 0.243708
v -0.400000 0.937053 0.230292
v -0.350139 0.937053 0.220374
v -0.350139 0.937053 0.220374
v -0.400000 0.937053 0.230292
v -0.400000 0.922947 0.230292
v -0.350139 0.922947 0.220374
v -0.350139 0.922947 0.220374
v -0.400000 0.922947 0.230292
v -0.400000 0.918587 0.243708
v -0.345005 0.918587 0.232769
v -0.345005 0.918587 0.232769
v -0.400000 0.918587 0.243708
v -0.400000 0.930000 0.252000
v -0.341832 0.930000 0.240430
v -0.400000 0.930000 0.252000
v -0.458168 0.930000 0.240430
v -0.454995 0.941413 0.232769
v -0.400000 0.941413 0.243708
v -0.400000 0.941413 0.243708
v -0.454995 0.941413 0.232769
v -0.449861 0.937053 0.220374
v -0.400000 0.937053 0.230292
v -0.400000 0.937053 0.230292
v -0.449861 0.937053 0.220374
v -0.449861 0.922947 0.220374
v -0.400000 0.922947 0.230292
v -0.400000 0.922947 0.230292
v -0.449861 0.922947 0.220374
v -0.454995 0.918587 0.232769
v -0.400000 0.918587 0.243708
v -0.400000 0.918587 0.243708
v -0.454995 0.918587 0.232769
v -0.458168 0.930000 0.240430
v -0.400000 0.930000 0.252000
v -0.458168 0.930000 0.240430
v -0.507480 0.930000 0.207480
v -0.501617 0.941413 0.201617
v -0.454995 0.941413 0.232769
v -0.454995 0.941413 0.232769
v -0.501617 0.941413 0.201617
v -0.492130 0.937053 0.192130
v -0.449861 0.937053 0.220374
v -0.449861 0.937053 0.220374
v -0.492130 0.937053 0.192130
v -0.492130 0.922947 0.192130
v -0.449861 0.922947 0.220374
v -0.449861 0.922947 0.220374
v -0.492130 0.922947 0.192130
v -0.501617 0.918587 0.201617
v -0.454995 0.918587 0.232769
v -0.454995 0.918587 0.232769
v -0.501617 0.918587 0.201617
v -0.507480 0.930000 0.207480
v -0.458168 0.930000 0.240430
v -0.507480 0.930000 0.207480
v -0.540430 0.930000 0.158168
v -0.532769 0.941413 0.154995
v -0.501617 0.941413 0.201617
v -0.501617 0.941413 0.201617
v -0.532769 0.941413 0.154995
v -0.520374 0.937053 0.149861
v -0.492130 0.937053 0.192130
v -0.492130 0.937053 0.192130
v -0.520374 0.937053 0.149861
v -0.520374 0.922947 0.149861
v -0.492130 0.922947 0.192130
v -0.492130 0.922947 0.192130
v -0.520374 0.922947 0.149861
v -0.532769 0.918587 0.154995
v -0.501617 0.918587 0.201617
v -0.501617 0.918587 0.201617
v -0.532769 0.918587 0.154995
v -0.540430 0.930000 0.158168
v -0.507480 0.930000 0.207480
v -0.540430 0.930000 0.158168
v -0.552000 0.930000 0.100000
v -0.543708 0.941413 0.100000
v -0.532769 0.941413 0.154995
v -0.532769 0.941413 0.154995
v -0.543708 0.941413 0.100000
v -0.530292 0.937053 0.100000
v -0.520374 0.937053 0.149861
v -0.520374 0.937053 0.149861
v -0.530292 0.937053 0.100000
v -0.530292 0.922947 0.100000
v -0.520374 0.922947 0.149861
v -0.520374 0.922947 0.149861
v -0.530292 0.922947 0.100000
v -0.543708 0.918587 0.100000
v -0.532769 0.918587 0.154995
v -0.532769 0.918587 0.154995
v -0.543708 0.918587 0.100000
v -0.552000 0.930000 0.100000
v -0.540430 0.930000 0.158168
v -0.552000 0.930000 0.100000
v -0.540430 0.930000 0.041832
v -0.532769 0.941413 0.045005
v -0.543708 0.941413 0.100000
v -0.543708 0.941413 0.100000
v -0.532769 0.941413 0.045005
v -0.520374 0.937053 0.050139
v -0.530292 0.937053 0.100000
v -0.530292 0.937053 0.100000
v -0.520374 0.937053 0.050139
v -0.520374 0.922947 0.050139
v -0.530292 0.922947 0.100000
v -0.530292 0.922947 0.100000
v -0.520374 0.922947 0.050139
v -0.532769 0.918587 0.045005
v -0.543708 0.918587 0.100000
v -0.543708 0.918587 0.100000
v -0.532769 0.918587 0.045005
v -0.540430 0.930000 0.041832
v -0.552000 0.930000 0.100000
v -0.540430 0.930000 0.041832
v -0.507480 0.930000 -0.007480
v -0.501617 0.941413 -0.001617
v -0.532769 0.941413 0.045005
v -0.532769 0.941413 0.045005
v -0.501617 0.941413 -0.001617
v -0.492130 0.937053 0.007870
v -0.520374 0.937053 0.050139
v -0.520374 0.937053 0.050139
v -0.492130 0.937053 0.007870
v -0.492130 0.922947 0.007870
v -0.520374 0.922947 0.050139
v -0.520374 0.922947 0.050139
v -0.492130 0.922947 0.007870
v -0.501617 0.918587 -0.001617
v -0.532769 0.918587 0.045005
v -0.532769 0.918587 0.045005
v -0.501617 0.918587 -0.001617
v -0.507480 0.930000 -0.007480
v -0.540430 0.930000 0.041832
v -0.507480 0.930000 -0.007480
v -0.458168 0.930000 -0.040430
v -0.454995 0.941413 -0.032769
v -0.501617 0.941413 -0.001617
v -0.501617 0.941413 -0.001617
v -0.454995 0.941413 -0.032769
v -0.449861 0.937053 -0.020374
v -0.492130 0.937053 0.007870
v -0.492130 0.937053 0.007870
v -0.449861 0.937053 -0.020374
v -0.449861 0.922947 -0.020374
v -0.492130 0.922947 0.007870
v -0.492130 0.922947 0.007870
v -0.449861 0.922947 -0.020374
v -0.454995 0.918587 -0.032769
v -0.501617 0.918587 -0.001617
v -0.501617 0.918587 -0.001617
v -0.454995 0.918587 -0.032769
v -0.458168 0.930000 -0.040430
v -0.507480 0.930000 -0.007480
v -0.458168 0.930000 -0.040430
v -0.400000 0.930000 -0.052000
v -0.400000 0.941413 -0.043708
v -0.454995 0.941413 -0.032769
v -0.454995 0.941413 -0.032769
v -0.400000 0.941413 -0.043708
v -0.400000 0.937053 -0.030292
v -0.449861 0.937053 -0.020374
v -0.449861 0.937053 -0.020374
v -0.400000 0.937053 -0.030292
v -0.400000 0.922947 -0.030292
v -0.449861 0.922947 -0.020374
v -0.449861 0.922947 -0.020374
v -0.400000 0.922947 -0.030292
v -0.400000 0.918587 -0.043708
v -0.454995 0.918587 -0.032769
v -0.454995 0.918587 -0.032769
v -0.400000 0.918587 -0.043708
v -0.400000 0.930000 -0.052000
v -0.458168 0.930000 -0.040430
v -0.400000 0.930000 -0.052000
v -0.341832 0.930000 -0.040430
v -0.345005 0.941413 -0.032769
v -0.400000 0.941413 -0.043708
v -0.400000 0.941413 -0.043708
v -0.345005 0.941413 -0.032769
v -0.350139 0.937053 -0.020374
v -0.400000 0.937053 -0.030292
v -0.400000 0.937053 -0.030292
v -0.350139 0.937053 -0.020374
v -0.350139 0.922947 -0.020374
v -0.400000 0.922947 -0.030292
v -0.400000 0.922947 -0.030292
v -0.350139 0.922947 -0.020374
v -0.345005 0.918587 -0.032769
v -0.400000 0.918587 -0.043708
v -0.400000 0.918587 -0.043708
v -0.345005 0.918587 -0.032769
v -0.341832 0.930000 -0.040430
v -0.400000 0.930000 -0.052000
v -0.341832 0.930000 -0.040430
v -0.292520 0.930000 -0.007480
v -0.298383 0.941413 -0.001617
v -0.345005 0.941413 -0.032769
v -0.345005 0.941413 -0.032769
v -0.298383 0.941413 -0.001617
v -0.307870 0.937053 0.007870
v -0.350139 0.937053 -0.020374
v -0.350139 0.937053 -0.020374
v -0.307870 0.937053 0.007870
v -0.307870 0.922947 0.007870
v -0.350139 0.922947 -0.020374
v -0.350139 0.922947 -0.020374
v -0.307870 0.922947 0.007870
v -0.298383 0.918587 -0.001617
v -0.345005 0.918587 -0.032769
v -0.345005 0.918587 -0.032769
v -0.298383 0.918587 -0.001617
v -0.292520 0.930000 -0.007480
v -0.341832 0.930000 -0.040430
v -0.292520 0.930000 -0.007480
v -0.259570 0.930000 0.041832
v -0.267231 0.941413 0.045005
v -0.298383 0.941413 -0.001617
v -0.298383 0.941413 -0.001617
v -0.267231 0.941413 0.045005
v -0.279626 0.937053 0.050139
v -0.307870 0.937053 0.007870
v -0.307870 0.937053 0.007870
v -0.279626 0.937053 0.050139
v -0.279626 0.922947 0.050139
v -0.307870 0.922947 0.007870
v -0.307870 0.922947 0.007870
v -0.279626 0.922947 0.050139
v -0.267231 0.918587 0.045005
v -0.298383 0.918587 -0.001617
v -0.298383 0.918587 -0.001617
v -0.267231 0.918587 0.045005
v -0.259570 0.930000 0.041832
v -0.292520 0.930000 -0.007480
v -0.259570 0.930000 0.041832
v -0.248000 0.930000 0.100000
v -0.256292 0.941413 0.100000
v -0.267231 0.941413 0.045005
v -0.267231 0.941413 0.045005
v -0.256292 0.941413 0.100000
v -0.269708 0.937053 0.100000
v -0.279626 0.937053 0.050139
v -0.279626 0.937053 0.050139
v -0.269708 0.937053 0.100000
v -0.269708 0.922947 0.100000
v -0.279626 0.922947 0.050139
v -0.279626 0.922947 0.050139
v -0.269708 0.922947 0.100000
v -0.256292 0.918587 0.100000
v -0.267231 0.918587 0.045005
v -0.267231 0.918587 0.045005
v -0.256292 0.918587 0.100000
v -0.248000 0.930000 0.100000
v -0.259570 0.930000 0.041832
v -0.140383 0.910000 -0.067536
v -0.144004 0.925637 -0.060934
v 0.165996 0.925637 0.109066
v 0.169617 0.910000 0.102464
v -0.144004 0.925637 -0.060934
v -0.152140 0.929499 -0.046098
v 0.157860 0.929499 0.123902
v 0.165996 0.925637 0.109066
v -0.152140 0.929499 -0.046098
v -0.158664 0.918678 -0.034200
v 0.151336 0.918678 0.135800
v 0.157860 0.929499 0.123902
v -0.158664 0.918678 -0.034200
v -0.158664 0.901322 -0.034200
v 0.151336 0.901322 0.135800
v 0.151336 0.918678 0.135800
v -0.158664 0.901322 -0.034200
v -0.152140 0.890501 -0.046098
v 0.157860 0.890501 0.123902
v 0.151336 0.901322 0.135800
v -0.152140 0.890501 -0.046098
v -0.144004 0.894363 -0.060934
v 0.165996 0.894363 0.109066
v 0.157860 0.890501 0.123902
v -0.144004 0.894363 -0.060934
v -0.140383 0.910000 -0.067536
v 0.169617 0.910000 0.102464
v 0.165996 0.894363 0.109066
v -0.150000 0.910000 -0.050000
v -0.140383 0.910000 -0.067536
v -0.144004 0.925637 -0.060934
v -0.144004 0.925637 -0.060934
v -0.152140 0.929499 -0.046098
v -0.152140 0.929499 -0.046098
v -0.158664 0.918678 -0.034200
v -0.158664 0.918678 -0.034200
v -0.158664 0.901322 -0.034200
v -0.158664 0.901322 -0.034200
v -0.152140 0.890501 -0.046098
v -0.152140 0.890501 -0.046098
v -0.144004 0.894363 -0.060934
v -0.144004 0.894363 -0.060934
v -0.140383 0.910000 -0.067536
v 0.160000 0.910000 0.120000
v 0.169617 0.910000 0.102464
v 0.165996 0.925637 0.109066
v 0.165996 0.925637 0.109066
v 0.157860 0.929499 0.123902
v 0.157860 0.929499 0.123902
v 0.151336 0.918678 0.135800
v 0.151336 0.918678 0.135800
v 0.151336 0.901322 0.135800
v 0.151336 0.901322 0.135800
v 0.157860 0.890501 0.123902
v 0.157860 0.890501 0.123902
v 0.165996 0.894363 0.109066
v 0.165996 0.894363 0.109066
v 0.169617 0.910000 0.102464
v 0.076257 0.870000 0.151503
v 0.247690 0.870000 0.048495
v 0.247690 0.950000 0.048495
v 0.076257 0.950000 0.151503
v 0.283743 0.870000 0.108497
v 0.112310 0.870000 0.211505
v 0.112310 0.950000 0.211505
v 0.283743 0.950000 0.108497
v 0.112310 0.870000 0.211505
v 0.076257 0.870000 0.151503
v 0.076257 0.950000 0.151503
v 0.112310 0.950000 0.211505
v 0.247690 0.870000 0.048495
v 0.283743 0.870000 0.108497
v 0.283743 0.950000 0.108497
v 0.247690 0.950000 0.048495
v 0.076257 0.950000 0.151503
v 0.247690 0.950000 0.048495
v 0.283743 0.950000 0.108497
v 0.112310 0.950000 0.211505
v 0.112310 0.870000 0.211505
v 0.283743 0.870000 0.108497
v 0.247690 0.870000 0.048495
v 0.076257 0.870000 0.151503
v -0.464617 0.988050 -0.266801
v -0.009718 0.963975 -0.330733
v -0.008785 0.981950 -0.330864
v -0.463684 1.006025 -0.266932
v 0.023684 0.963975 -0.093068
v -0.431215 0.988050 -0.029136
v -0.430282 1.006025 -0.029267
v 0.024617 0.981950 -0.093199
v -0.431215 0.988050 -0.029136
v -0.464617 0.988050 -0.266801
v -0.463684 1.006025 -0.266932
v -0.430282 1.006025 -0.029267
v -0.009718 0.963975 -0.330733
v 0.023684 0.963975 -0.093068
v 0.024617 0.981950 -0.093199
v -0.008785 0.981950 -0.330864
v -0.463684 1.006025 -0.266932
v -0.008785 0.981950 -0.330864
v 0.024617 0.981950 -0.093199
v -0.430282 1.006025 -0.029267
v -0.431215 0.988050 -0.029136
v 0.023684 0.963975 -0.093068
v -0.009718 0.963975 -0.330733
v -0.464617 0.988050 -0.266801
vt 0.000000 0.000000
vt 1.000000 0.000000
vt 1.000000 1.000000
vt 0.000000 1.000000
vt 0.000000 0.000000
vt 1.000000 0.000000
vt 1.000000 1.000000
vt 0.000000 1.000000
vt 0.000000 0.000000
vt 1.000000 0.000000
vt 1.000000 1.000000
vt 0.000000 1.000000
vt 0.000000 0.000000
vt 1.000000 0.000000
vt 1.000000 1.000000
vt 0.000000 1.000000
vt 0.000000 0.000000
vt 1.000000 0.000000
vt 1.000000 1.000000
vt 0.000000 1.000000
vt 0.000000 0.000000
vt 1.000000 0.000000
vt 1.000000 1.000000
vt 0.000000 1.000000
vt 0.000000 0.000000
vt 1.000000 0.000000
vt 1.000000 1.000000
vt 0.000000 1.000000
vt 0.000000 0.000000
vt 1.000000 0.000000
vt 1.000000 1.000000
vt 0.000000 1.000000
vt 0.000000 0.000000
vt 1.000000 0.000000
vt 1.000000 1.000000
vt 0.000000 1.000000
vt 0.000000 0.000000
vt 1.000000 0.000000
vt 1.000000 1.000000
vt 0.000000 1.000000
vt 0.000000 0.000000
vt 1.000000 0.000000
vt 1.000000 1.000000
vt 0.000000 1.000000
vt 0.000000 0.000000
vt 1.000000 0.000000
vt 1.000000 1.000000
vt 0.000000 1.000000
vt 0.000000 0.000000
vt 1.000000 0.000000
vt 1.000000 1.000000
vt 0.000000 1.000000
vt 0.000000 0.000000
vt 1.000000 0.000000
vt 1.000000 1.000000
vt 0.000000 1.000000
vt 0.000000 0.000000
vt 1.000000 0.000000
vt 1.000000 1.000000
vt 0.000000 1.000000
vt 0.000000 0.000000
vt 1.000000 0.000000
vt 1.000000 1.000000
vt 0.000000 1.000000
vt 0.000000 0.000000
vt 1.000000 0.000000
vt 1.000000 1.000000
vt 0.000000 1.000000
vt 0.000000 0.000000
vt 1.000000 0.000000
vt 1.000000 1.000000
vt 0.000000 1.000000
vt 0.000000 0.000000
vt 1.000000 0.000000
vt 1.000000 1.000000
vt 0.000000 1.000000
vt 0.000000 0.000000
vt 1.000000 0.000000
vt 1.000000 1.000000
vt 0.000000 1.000000
vt 0.000000 0.000000
vt 1.000000 0.000000
vt 1.000000 1.000000
vt 0.000000 1.000000
vt 0.000000 0.000000
vt 1.000000 0.000000
vt 1.000000 1.000000
vt 0.000000 1.000000
vt 0.000000 0.000000
vt 1.000000 0.000000
vt 1.000000 1.000000
vt 0.000000 1.000000
vt 0.000000 0.000000
vt 1.000000 0.000000
vt 1.000000 1.000000
vt 0.000000 1.000000
vt 0.000000 0.000000
vt 1.000000 0.000000
vt 1.000000 1.000000
vt 0.000000 1.000000
vt 0.000000 0.000000
vt 1.000000 0.000000
vt 1.000000 1.000000
vt 0.000000 1.000000
vt 0.000000 0.000000
vt 1.000000 0.000000
vt 1.000000 1.000000
vt 0.000000 1.000000
vt 0.000000 0.000000
vt 1.000000 0.000000
vt 1.000000 1.000000
vt 0.000000 1.000000
vt 0.000000 0.000000
vt 1.000000 0.000000
vt 1.000000 1.000000
vt 0.000000 1.000000
vt 0.000000 0.000000
vt 1.000000 0.000000
vt 1.000000 1.000000
vt 0.000000 1.000000
vt 0.000000 0.000000
vt 1.000000 0.000000
vt 1.000000 1.000000
vt 0.000000 1.000000
vt 0.000000 0.000000
vt 1.000000 0.000000
vt 1.000000 1.000000
vt 0.000000 1.000000
vt 0.500000 0.500000
vt 0.000000 0.000000
vt 1.000000 0.000000
vt 0.000000 0.000000
vt 1.000000 0.000000
vt 0.000000 0.000000
vt 1.000000 0.000000
vt 0.000000 0.000000
vt 1.000000 0.000000
vt 0.000000 0.000000
vt 1.000000 0.000000
vt 0.000000 0.000000
vt 1.000000 0.000000
vt 0.000000 0.000000
vt 1.000000 0.000000
vt 0.000000 0.000000
vt 1.000000 0.000000
vt 0.500000 0.500000
vt 0.000000 0.000000
vt 1.000000 0.000000
vt 0.000000 0.000000
vt 1.000000 0.000000
vt 0.000000 0.000000
vt 1.000000 0.000000
vt 0.000000 0.000000
vt 1.000000 0.000000
vt 0.000000 0.000000
vt 1.000000 0.000000
vt 0.000000 0.000000
vt 1.000000 0.000000
vt 0.000000 0.000000
vt 1.000000 0.000000
vt 0.000000 0.000000
vt 1.000000 0.000000
vt 0.000000 0.000000
vt 1.000000 0.000000
vt 1.000000 1.000000
vt 0.000000 1.000000
vt 0.000000 0.000000
vt 1.000000 0.000000
vt 1.000000 1.000000
vt 0.000000 1.000000
vt 0.000000 0.000000
vt 1.000000 0.000000
vt 1.000000 1.000000
vt 0.000000 1.000000
vt 0.000000 0.000000
vt 1.000000 0.000000
vt 1.000000 1.000000
vt 0.000000 1.000000
vt 0.000000 0.000000
vt 1.000000 0.000000
vt 1.000000 1.000000
vt 0.000000 1.000000
vt 0.000000 0.000000
vt 1.000000 0.000000
vt 1.000000 1.000000
vt 0.000000 1.000000
vt 0.000000 0.000000
vt 1.000000 0.000000
vt 1.000000 1.000000
vt 0.000000 1.000000
vt 0.000000 0.000000
vt 1.000000 0.000000
vt 1.000000 1.000000
vt 0.000000 1.000000
vt 0.500000 0.500000
vt 0.000000 0.000000
vt 1.000000 0.000000
vt 0.000000 0.000000
vt 1.000000 0.000000
vt 0.000000 0.000000
vt 1.000000 0.000000
vt 0.000000 0.000000
vt 1.000000 0.000000
vt 0.000000 0.000000
vt 1.000000 0.000000
vt 0.000000 0.000000
vt 1.000000 0.000000
vt 0.000000 0.000000
vt 1.000000 0.000000
vt 0.000000 0.000000
vt 1.000000 0.000000
vt 0.500000 0.500000
vt 0.000000 0.000000
vt 1.000000 0.000000
vt 0.000000 0.000000
vt 1.000000 0.000000
vt 0.000000 0.000000
vt 1.000000 0.000000
vt 0.000000 0.000000
vt 1.000000 0.000000
vt 0.000000 0.000000
vt 1.000000 0.000000
vt 0.000000 0.000000
vt 1.000000 0.000000
vt 0.000000 0.000000
vt 1.000000 0.000000
vt 0.000000 0.000000
vt 1.000000 0.000000
vt 0.000000 0.000000
vt 1.000000 0.000000
vt 1.000000 1.000000
vt 0.000000 1.000000
vt 0.000000 0.000000
vt 1.000000 0.000000
vt 1.000000 1.000000
vt 0.000000 1.000000
vt 0.000000 0.000000
vt 1.000000 0.000000
vt 1.000000 1.000000
vt 0.000000 1.000000
vt 0.000000 0.000000
vt 1.000000 0.000000
vt 1.000000 1.000000
vt 0.000000 1.000000
vt 0.000000 0.000000
vt 1.000000 0.000000
vt 1.000000 1.000000
vt 0.000000 1.000000
vt 0.000000 0.000000
vt 1.000000 0.000000
vt 1.000000 1.000000
vt 0.000000 1.000000
vt 0.000000 0.000000
vt 1.000000 0.000000
vt 1.000000 1.000000
vt 0.000000 1.000000
vt 0.000000 0.000000
vt 1.000000 0.000000
vt 1.000000 1.000000
vt 0.000000 1.000000
vt 0.500000 0.500000
vt 0.000000 0.000000
vt 1.000000 0.000000
vt 0.000000 0.000000
vt 1.000000 0.000000
vt 0.000000 0.000000
vt 1.000000 0.000000
vt 0.000000 0.000000
vt 1.000000 0.000000
vt 0.000000 0.000000
vt 1.000000 0.000000
vt 0.000000 0.000000
vt 1.000000 0.000000
vt 0.000000 0.000000
vt 1.000000 0.000000
vt 0.000000 0.000000
vt 1.000000 0.000000
vt 0.500000 0.500000
vt 0.000000 0.000000
vt 1.000000 0.000000
vt 0.000000 0.000000
vt 1.000000 0.000000
vt 0.000000 0.000000
vt 1.000000 0.000000
vt 0.000000 0.000000
vt 1.000000 0.000000
vt 0.000000 0.000000
vt 1.000000 0.000000
vt 0.000000 0.000000
vt 1.000000 0.000000
vt 0.000000 0.000000
vt 1.000000 0.000000
vt 0.000000 0.000000
vt 1.000000 0.000000
vt 0.000000 0.000000
vt 1.000000 0.000000
vt 1.000000 1.000000
vt 0.000000 1.000000
vt 0.000000 0.000000
vt 1.000000 0.000000
vt 1.000000 1.000000
vt 0.000000 1.000000
vt 0.000000 0.000000
vt 1.000000 0.000000
vt 1.000000 1.000000
vt 0.000000 1.000000
vt 0.000000 0.000000
vt 1.000000 0.000000
vt 1.000000 1.000000
vt 0.000000 1.000000
vt 0.000000 0.000000
vt 1.000000 0.000000
vt 1.000000 1.000000
vt 0.000000 1.000000
vt 0.000000 0.000000
vt 1.000000 0.000000
vt 1.000000 1.000000
vt 0.000000 1.000000
vt 0.000000 0.000000
vt 1.000000 0.000000
vt 1.000000 1.000000
vt 0.000000 1.000000
vt 0.000000 0.000000
vt 1.000000 0.000000
vt 1.000000 1.000000
vt 0.000000 1.000000
vt 0.500000 0.500000
vt 0.000000 0.000000
vt 1.000000 0.000000
vt 0.000000 0.000000
vt 1.000000 0.000000
vt 0.000000 0.000000
vt 1.000000 0.000000
vt 0.000000 0.000000
vt 1.000000 0.000000
vt 0.000000 0.000000
vt 1.000000 0.000000
vt 0.000000 0.000000
vt 1.000000 0.000000
vt 0.000000 0.000000
vt 1.000000 0.000000
vt 0.000000 0.000000
vt 1.000000 0.000000
vt 0.500000 0.500000
vt 0.000000 0.000000
vt 1.000000 0.000000
vt 0.000000 0.000000
vt 1.000000 0.000000
vt 0.000000 0.000000
vt 1.000000 0.000000
vt 0.000000 0.000000
vt 1.000000 0.000000
vt 0.000000 0.000000
vt 1.000000 0.000000
vt 0.000000 0.000000
vt 1.000000 0.000000
vt 0.000000 0.000000
vt 1.000000 0.000000
vt 0.000000 0.000000
vt 1.000000 0.000000
vt 0.000000 0.000000
vt 1.000000 0.000000
vt 1.000000 1.000000
vt 0.000000 1.000000
vt 0.000000 0.000000
vt 1.000000 0.000000
vt 1.000000 1.000000
vt 0.000000 1.000000
vt 0.000000 0.000000
vt 1.000000 0.000000
vt 1.000000 1.000000
vt 0.000000 1.000000
vt 0.000000 0.000000
vt 1.000000 0.000000
vt 1.000000 1.000000
vt 0.000000 1.000000
vt 0.000000 0.000000
vt 1.000000 0.000000
vt 1.000000 1.000000
vt 0.000000 1.000000
vt 0.000000 0.000000
vt 1.000000 0.000000
vt 1.000000 1.000000
vt 0.000000 1.000000
vt 0.000000 0.000000
vt 1.000000 0.000000
vt 1.000000 1.000000
vt 0.000000 1.000000
vt 0.000000 0.000000
vt 1.000000 0.000000
vt 1.000000 1.000000
vt 0.000000 1.000000
vt 0.500000 0.500000
vt 0.000000 0.000000
vt 1.000000 0.000000
vt 0.000000 0.000000
vt 1.000000 0.000000
vt 0.000000 0.000000
vt 1.000000 0.000000
vt 0.000000 0.000000
vt 1.000000 0.000000
vt 0.000000 0.000000
vt 1.000000 0.000000
vt 0.000000 0.000000
vt 1.000000 0.000000
vt 0.000000 0.000000
vt 1.000000 0.000000
vt 0.000000 0.000000
vt 1.000000 0.000000
vt 0.500000 0.500000
vt 0.000000 0.000000
vt 1.000000 0.000000
vt 0.000000 0.000000
vt 1.000000 0.000000
vt 0.000000 0.000000
vt 1.000000 0.000000
vt 0.000000 0.000000
vt 1.000000 0.000000
vt 0.000000 0.000000
vt 1.000000 0.000000
vt 0.000000 0.000000
vt 1.000000 0.000000
vt 0.000000 0.000000
vt 1.000000 0.000000
vt 0.000000 0.000000
vt 1.000000 0.000000
vt 0.000000 0.000000
vt 1.000000 0.000000
vt 1.000000 1.000000
vt 0.000000 1.000000
vt 0.000000 0.000000
vt 1.000000 0.000000
vt 1.000000 1.000000
vt 0.000000 1.000000
vt 0.000000 0.000000
vt 1.000000 0.000000
vt 1.000000 1.000000
vt 0.000000 1.000000
vt 0.000000 0.000000
vt 1.000000 0.000000
vt 1.000000 1.000000
vt 0.000000 1.000000
vt 0.000000 0.000000
vt 1.000000 0.000000
vt 1.000000 1.000000
vt 0.000000 1.000000
vt 0.000000 0.000000
vt 1.000000 0.000000
vt 1.000000 1.000000
vt 0.000000 1.000000
vt 0.000000 0.000000
vt 1.000000 0.000000
vt 1.000000 1.000000
vt 0.000000 1.000000
vt 0.000000 0.000000
vt 1.000000 0.000000
vt 1.000000 1.000000
vt 0.000000 1.000000
vt 0.500000 0.500000
vt 0.000000 0.000000
vt 1.000000 0.000000
vt 0.000000 0.000000
vt 1.000000 0.000000
vt 0.000000 0.000000
vt 1.000000 0.000000
vt 0.000000 0.000000
vt 1.000000 0.000000
vt 0.000000 0.000000
vt 1.000000 0.000000
vt 0.000000 0.000000
vt 1.000000 0.000000
vt 0.000000 0.000000
vt 1.000000 0.000000
vt 0.000000 0.000000
vt 1.000000 0.000000
vt 0.500000 0.500000
vt 0.000000 0.000000
vt 1.000000 0.000000
vt 0.000000 0.000000
vt 1.000000 0.000000
vt 0.000000 0.000000
vt 1.000000 0.000000
vt 0.000000 0.000000
vt 1.000000 0.000000
vt 0.000000 0.000000
vt 1.000000 0.000000
vt 0.000000 0.000000
vt 1.000000 0.000000
vt 0.000000 0.000000
vt 1.000000 0.000000
vt 0.000000 0.000000
vt 1.000000 0.000000
vt 0.000000 0.000000
vt 1.000000 0.000000
vt 1.000000 1.000000
vt 0.000000 1.000000
vt 0.000000 0.000000
vt 1.000000 0.000000
vt 1.000000 1.000000
vt 0.000000 1.000000
vt 0.000000 0.000000
vt 1.000000 0.000000
vt 1.000000 1.000000
vt 0.000000 1.000000
vt 0.000000 0.000000
vt 1.000000 0.000000
vt 1.000000 1.000000
vt 0.000000 1.000000
vt 0.000000 0.000000
vt 1.000000 0.000000
vt 1.000000 1.000000
vt 0.000000 1.000000
vt 0.000000 0.000000
vt 1.000000 0.000000
vt 1.000000 1.000000
vt 0.000000 1.000000
vt 0.000000 0.000000
vt 1.000000 0.000000
vt 1.000000 1.000000
vt 0.000000 1.000000
vt 0.000000 0.000000
vt 1.000000 0.000000
vt 1.000000 1.000000
vt 0.000000 1.000000
vt 0.500000 0.500000
vt 0.000000 0.000000
vt 1.000000 0.000000
vt 0.000000 0.000000
vt 1.000000 0.000000
vt 0.000000 0.000000
vt 1.000000 0.000000
vt 0.000000 0.000000
vt 1.000000 0.000000
vt 0.000000 0.000000
vt 1.000000 0.000000
vt 0.000000 0.000000
vt 1.000000 0.000000
vt 0.000000 0.000000
vt 1.000000 0.000000
vt 0.000000 0.000000
vt 1.000000 0.000000
vt 0.500000 0.500000
vt 0.000000 0.000000
vt 1.000000 0.000000
vt 0.000000 0.000000
vt 1.000000 0.000000
vt 0.000000 0.000000
vt 1.000000 0.000000
vt 0.000000 0.000000
vt 1.000000 0.000000
vt 0.000000 0.000000
vt 1.000000 0.000000
vt 0.000000 0.000000
vt 1.000000 0.000000
vt 0.000000 0.000000
vt 1.000000 0.000000
vt 0.000000 0.000000
vt 1.000000 0.000000
vt 0.000000 0.000000
vt 1.000000 0.000000
vt 1.000000 1.000000
vt 0.000000 1.000000
vt 0.000000 0.000000
vt 1.000000 0.000000
vt 1.000000 1.000000
vt 0.000000 1.000000
vt 0.000000 0.000000
vt 1.000000 0.000000
vt 1.000000 1.000000
vt 0.000000 1.000000
vt 0.000000 0.000000
vt 1.000000 0.000000
vt 1.000000 1.000000
vt 0.000000 1.000000
vt 0.000000 0.000000
vt 1.000000 0.000000
vt 1.000000 1.000000
vt 0.000000 1.000000
vt 0.000000 0.000000
vt 1.000000 0.000000
vt 1.000000 1.000000
vt 0.000000 1.000000
vt 0.000000 0.000000
vt 1.000000 0.000000
vt 1.000000 1.000000
vt 0.000000 1.000000
vt 0.000000 0.000000
vt 1.000000 0.000000
vt 1.000000 1.000000
vt 0.000000 1.000000
vt 0.500000 0.500000
vt 0.000000 0.000000
vt 1.000000 0.000000
vt 0.000000 0.000000
vt 1.000000 0.000000
vt 0.000000 0.000000
vt 1.000000 0.000000
vt 0.000000 0.000000
vt 1.000000 0.000000
vt 0.000000 0.000000
vt 1.000000 0.000000
vt 0.000000 0.000000
vt 1.000000 0.000000
vt 0.000000 0.000000
vt 1.000000 0.000000
vt 0.000000 0.000000
vt 1.000000 0.000000
vt 0.500000 0.500000
vt 0.000000 0.000000
vt 1.000000 0.000000
vt 0.000000 0.000000
vt 1.000000 0.000000
vt 0.000000 0.000000
vt 1.000000 0.000000
vt 0.000000 0.000000
vt 1.000000 0.000000
vt 0.000000 0.000000
vt 1.000000 0.000000
vt 0.000000 0.000000
vt 1.000000 0.000000
vt 0.000000 0.000000
vt 1.000000 0.000000
vt 0.000000 0.000000
vt 1.000000 0.000000
vt 0.000000 0.000000
vt 1.000000 0.000000
vt 1.000000 1.000000
vt 0.000000 1.000000
vt 0.000000 0.000000
vt 1.000000 0.000000
vt 1.000000 1.000000
vt 0.000000 1.000000
vt 0.000000 0.000000
vt 1.000000 0.000000
vt 1.000000 1.000000
vt 0.000000 1.000000
vt 0.000000 0.000000
vt 1.000000 0.000000
vt 1.000000 1.000000
vt 0.000000 1.000000
vt 0.000000 0.000000
vt 1.000000 0.000000
vt 1.000000 1.000000
vt 0.000000 1.000000
vt 0.000000 0.000000
vt 1.000000 0.000000
vt 1.000000 1.000000
vt 0.000000 1.000000
vt 0.000000 0.000000
vt 1.000000 0.000000
vt 1.000000 1.000000
vt 0.000000 1.000000
vt 0.000000 0.000000
vt 1.000000 0.000000
vt 1.000000 1.000000
vt 0.000000 1.000000
vt 0.500000 0.500000
vt 0.000000 0.000000
vt 1.000000 0.000000
vt 0.000000 0.000000
vt 1.000000 0.000000
vt 0.000000 0.000000
vt 1.000000 0.000000
vt 0.000000 0.000000
vt 1.000000 0.000000
vt 0.000000 0.000000
vt 1.000000 0.000000
vt 0.000000 0.000000
vt 1.000000 0.000000
vt 0.000000 0.000000
vt 1.000000 0.000000
vt 0.000000 0.000000
vt 1.000000 0.000000
vt 0.500000 0.500000
vt 0.000000 0.000000
vt 1.000000 0.000000
vt 0.000000 0.000000
vt 1.000000 0.000000
vt 0.000000 0.000000
vt 1.000000 0.000000
vt 0.000000 0.000000
vt 1.000000 0.000000
vt 0.000000 0.000000
vt 1.000000 0.000000
vt 0.000000 0.000000
vt 1.000000 0.000000
vt 0.000000 0.000000
vt 1.000000 0.000000
vt 0.000000 0.000000
vt 1.000000 0.000000
vt 0.000000 0.000000
vt 1.000000 0.000000
vt 1.000000 1.000000
vt 0.000000 1.000000
vt 0.000000 0.000000
vt 1.000000 0.000000
vt 1.000000 1.000000
vt 0.000000 1.000000
vt 0.000000 0.000000
vt 1.000000 0.000000
vt 1.000000 1.000000
vt 0.000000 1.000000
vt 0.000000 0.000000
vt 1.000000 0.000000
vt 1.000000 1.000000
vt 0.000000 1.000000
vt 0.000000 0.000000
vt 1.000000 0.000000
vt 1.000000 1.000000
vt 0.000000 1.000000
vt 0.000000 0.000000
vt 1.000000 0.000000
vt 1.000000 1.000000
vt 0.000000 1.000000
vt 0.000000 0.000000
vt 1.000000 0.000000
vt 1.000000 1.000000
vt 0.000000 1.000000
vt 0.000000 0.000000
vt 1.000000 0.000000
vt 1.000000 1.000000
vt 0.000000 1.000000
vt 0.500000 0.500000
vt 0.000000 0.000000
vt 1.000000 0.000000
vt 0.000000 0.000000
vt 1.000000 0.000000
vt 0.000000 0.000000
vt 1.000000 0.000000
vt 0.000000 0.000000
vt 1.000000 0.000000
vt 0.000000 0.000000
vt 1.000000 0.000000
vt 0.000000 0.000000
vt 1.000000 0.000000
vt 0.000000 0.000000
vt 1.000000 0.000000
vt 0.000000 0.000000
vt 1.000000 0.000000
vt 0.500000 0.500000
vt 0.000000 0.000000
vt 1.000000 0.000000
vt 0.000000 0.000000
vt 1.000000 0.000000
vt 0.000000 0.000000
vt 1.000000 0.000000
vt 0.000000 0.000000
vt 1.000000 0.000000
vt 0.000000 0.000000
vt 1.000000 0.000000
vt 0.000000 0.000000
vt 1.000000 0.000000
vt 0.000000 0.000000
vt 1.000000 0.000000
vt 0.000000 0.000000
vt 1.000000 0.000000
vt 0.000000 0.000000
vt 1.000000 0.000000
vt 1.000000 1.000000
vt 0.000000 1.000000
vt 0.000000 0.000000
vt 1.000000 0.000000
vt 1.000000 1.000000
vt 0.000000 1.000000
vt 0.000000 0.000000
vt 1.000000 0.000000
vt 1.000000 1.000000
vt 0.000000 1.000000
vt 0.000000 0.000000
vt 1.000000 0.000000
vt 1.000000 1.000000
vt 0.000000 1.000000
vt 0.000000 0.000000
vt 1.000000 0.000000
vt 1.000000 1.000000
vt 0.000000 1.000000
vt 0.000000 0.000000
vt 1.000000 0.000000
vt 1.000000 1.000000
vt 0.000000 1.000000
vt 0.000000 0.000000
vt 1.000000 0.000000
vt 1.000000 1.000000
vt 0.000000 1.000000
vt 0.000000 0.000000
vt 1.000000 0.000000
vt 1.000000 1.000000
vt 0.000000 1.000000
vt 0.500000 0.500000
vt 0.000000 0.000000
vt 1.000000 0.000000
vt 0.000000 0.000000
vt 1.000000 0.000000
vt 0.000000 0.000000
vt 1.000000 0.000000
vt 0.000000 0.000000
vt 1.000000 0.000000
vt 0.000000 0.000000
vt 1.000000 0.000000
vt 0.000000 0.000000
vt 1.000000 0.000000
vt 0.000000 0.000000
vt 1.000000 0.000000
vt 0.000000 0.000000
vt 1.000000 0.000000
vt 0.500000 0.500000
vt 0.000000 0.000000
vt 1.000000 0.000000
vt 0.000000 0.000000
vt 1.000000 0.000000
vt 0.000000 0.000000
vt 1.000000 0.000000
vt 0.000000 0.000000
vt 1.000000 0.000000
vt 0.000000 0.000000
vt 1.000000 0.000000
vt 0.000000 0.000000
vt 1.000000 0.000000
vt 0.000000 0.000000
vt 1.000000 0.000000
vt 0.000000 0.000000
vt 1.000000 0.000000
vt 0.000000 0.000000
vt 1.000000 0.000000
vt 1.000000 1.000000
vt 0.000000 1.000000
vt 0.000000 0.000000
vt 1.000000 0.000000
vt 1.000000 1.000000
vt 0.000000 1.000000
vt 0.000000 0.000000
vt 1.000000 0.000000
vt 1.000000 1.000000
vt 0.000000 1.000000
vt 0.000000 0.000000
vt 1.000000 0.000000
vt 1.000000 1.000000
vt 0.000000 1.000000
vt 0.000000 0.000000
vt 1.000000 0.000000
vt 1.000000 1.000000
vt 0.000000 1.000000
vt 0.000000 0.000000
vt 1.000000 0.000000
vt 1.000000 1.000000
vt 0.000000 1.000000
vt 0.000000 0.000000
vt 1.000000 0.000000
vt 1.000000 1.000000
vt 0.000000 1.000000
vt 0.000000 0.000000
vt 1.000000 0.000000
vt 1.000000 1.000000
vt 0.000000 1.000000
vt 0.500000 0.500000
vt 0.000000 0.000000
vt 1.000000 0.000000
vt 0.000000 0.000000
vt 1.000000 0.000000
vt 0.000000 0.000000
vt 1.000000 0.000000
vt 0.000000 0.000000
vt 1.000000 0.000000
vt 0.000000 0.000000
vt 1.000000 0.000000
vt 0.000000 0.000000
vt 1.000000 0.000000
vt 0.000000 0.000000
vt 1.000000 0.000000
vt 0.000000 0.000000
vt 1.000000 0.000000
vt 0.500000 0.500000
vt 0.000000 0.000000
vt 1.000000 0.000000
vt 0.000000 0.000000
vt 1.000000 0.000000
vt 0.000000 0.000000
vt 1.000000 0.000000
vt 0.000000 0.000000
vt 1.000000 0.000000
vt 0.000000 0.000000
vt 1.000000 0.000000
vt 0.000000 0.000000
vt 1.000000 0.000000
vt 0.000000 0.000000
vt 1.000000 0.000000
vt 0.000000 0.000000
vt 1.000000 0.000000
vt 0.000000 0.000000
vt 1.000000 0.000000
vt 1.000000 1.000000
vt 0.000000 1.000000
vt 0.000000 0.000000
vt 1.000000 0.000000
vt 1.000000 1.000000
vt 0.000000 1.000000
vt 0.000000 0.000000
vt 1.000000 0.000000
vt 1.000000 1.000000
vt 0.000000 1.000000
vt 0.000000 0.000000
vt 1.000000 0.000000
vt 1.000000 1.000000
vt 0.000000 1.000000
vt 0.000000 0.000000
vt 1.000000 0.000000
vt 1.000000 1.000000
vt 0.000000 1.000000
vt 0.000000 0.000000
vt 1.000000 0.000000
vt 1.000000 1.000000
vt 0.000000 1.000000
vt 0.000000 0.000000
vt 1.000000 0.000000
vt 1.000000 1.000000
vt 0.000000 1.000000
vt 0.000000 0.000000
vt 1.000000 0.000000
vt 1.000000 1.000000
vt 0.000000 1.000000
vt 0.000000 0.000000
vt 1.000000 0.000000
vt 1.000000 1.000000
vt 0.000000 1.000000
vt 0.000000 0.000000
vt 1.000000 0.000000
vt 1.000000 1.000000
vt 0.000000 1.000000
vt 0.000000 0.000000
vt 1.000000 0.000000
vt 1.000000 1.000000
vt 0.000000 1.000000
vt 0.000000 0.000000
vt 1.000000 0.000000
vt 1.000000 1.000000
vt 0.000000 1.000000
vt 0.000000 0.000000
vt 1.000000 0.000000
vt 1.000000 1.000000
vt 0.000000 1.000000
vt 0.000000 0.000000
vt 1.000000 0.000000
vt 1.000000 1.000000
vt 0.000000 1.000000
vt 0.000000 0.000000
vt 1.000000 0.000000
vt 1.000000 1.000000
vt 0.000000 1.000000
vt 0.000000 0.000000
vt 1.000000 0.000000
vt 1.000000 1.000000
vt 0.000000 1.000000
vt 0.000000 0.000000
vt 1.000000 0.000000
vt 1.000000 1.000000
vt 0.000000 1.000000
vt 0.000000 0.000000
vt 1.000000 0.000000
vt 1.000000 1.000000
vt 0.000000 1.000000
vt 0.000000 0.000000
vt 1.000000 0.000000
vt 1.000000 1.000000
vt 0.000000 1.000000
vt 0.500000 0.500000
vt 0.000000 0.000000
vt 1.000000 0.000000
vt 0.000000 0.000000
vt 1.000000 0.000000
vt 0.000000 0.000000
vt 1.000000 0.000000
vt 0.000000 0.000000
vt 1.000000 0.000000
vt 0.000000 0.000000
vt 1.000000 0.000000
vt 0.000000 0.000000
vt 1.000000 0.000000
vt 0.000000 0.000000
vt 1.000000 0.000000
vt 0.500000 0.500000
vt 0.000000 0.000000
vt 1.000000 0.000000
vt 0.000000 0.000000
vt 1.000000 0.000000
vt 0.000000 0.000000
vt 1.000000 0.000000
vt 0.000000 0.000000
vt 1.000000 0.000000
vt 0.000000 0.000000
vt 1.000000 0.000000
vt 0.000000 0.000000
vt 1.000000 0.000000
vt 0.000000 0.000000
vt 1.000000 0.000000
vt 0.000000 0.000000
vt 1.000000 0.000000
vt 1.000000 1.000000
vt 0.000000 1.000000
vt 0.000000 0.000000
vt 1.000000 0.000000
vt 1.000000 1.000000
vt 0.000000 1.000000
vt 0.000000 0.000000
vt 1.000000 0.000000
vt 1.000000 1.000000
vt 0.000000 1.000000
vt 0.000000 0.000000
vt 1.000000 0.000000
vt 1.000000 1.000000
vt 0.000000 1.000000
vt 0.000000 0.000000
vt 1.000000 0.000000
vt 1.000000 1.000000
vt 0.000000 1.000000
vt 0.000000 0.000000
vt 1.000000 0.000000
vt 1.000000 1.000000
vt 0.000000 1.000000
vt 0.000000 0.000000
vt 1.000000 0.000000
vt 1.000000 1.000000
vt 0.000000 1.000000
vt 0.000000 0.000000
vt 1.000000 0.000000
vt 1.000000 1.000000
vt 0.000000 1.000000
vt 0.000000 0.000000
vt 1.000000 0.000000
vt 1.000000 1.000000
vt 0.000000 1.000000
vt 0.000000 0.000000
vt 1.000000 0.000000
vt 1.000000 1.000000
vt 0.000000 1.000000
vt 0.000000 0.000000
vt 1.000000 0.000000
vt 1.000000 1.000000
vt 0.000000 1.000000
vt 0.000000 0.000000
vt 1.000000 0.000000
vt 1.000000 1.000000
vt 0.000000 1.000000
vt 0.000000 0.000000
vt 1.000000 0.000000
vt 1.000000 1.000000
vt 0.000000 1.000000
vt 0.000000 0.000000
vt 1.000000 0.000000
vt 1.000000 1.000000
vt 0.000000 1.000000
vt 0.000000 0.000000
vt 1.000000 0.000000
vt 1.000000 1.000000
vt 0.000000 1.000000
vt 0.000000 0.000000
vt 1.000000 0.000000
vt 1.000000 1.000000
vt 0.000000 1.000000
vt 0.000000 0.000000
vt 1.000000 0.000000
vt 1.000000 1.000000
vt 0.000000 1.000000
vt 0.000000 0.000000
vt 1.000000 0.000000
vt 1.000000 1.000000
vt 0.000000 1.000000
vt 0.000000 0.000000
vt 1.000000 0.000000
vt 1.000000 1.000000
vt 0.000000 1.000000
vt 0.000000 0.000000
vt 1.000000 0.000000
vt 1.000000 1.000000
vt 0.000000 1.000000
vt 0.000000 0.000000
vt 1.000000 0.000000
vt 1.000000 1.000000
vt 0.000000 1.000000
vt 0.000000 0.000000
vt 1.000000 0.000000
vt 1.000000 1.000000
vt 0.000000 1.000000
vt 0.000000 0.000000
vt 1.000000 0.000000
vt 1.000000 1.000000
vt 0.000000 1.000000
vt 0.000000 0.000000
vt 1.000000 0.000000
vt 1.000000 1.000000
vt 0.000000 1.000000
vt 0.000000 0.000000
vt 1.000000 0.000000
vt 1.000000 1.000000
vt 0.000000 1.000000
vt 0.000000 0.000000
vt 1.000000 0.000000
vt 1.000000 1.000000
vt 0.000000 1.000000
vt 0.000000 0.000000
vt 1.000000 0.000000
vt 1.000000 1.000000
vt 0.000000 1.000000
vt 0.000000 0.000000
vt 1.000000 0.000000
vt 1.000000 1.000000
vt 0.000000 1.000000
vt 0.000000 0.000000
vt 1.000000 0.000000
vt 1.000000 1.000000
vt 0.000000 1.000000
vt 0.000000 0.000000
vt 1.000000 0.000000
vt 1.000000 1.000000
vt 0.000000 1.000000
vt 0.000000 0.000000
vt 1.000000 0.000000
vt 1.000000 1.000000
vt 0.000000 1.000000
vt 0.000000 0.000000
vt 1.000000 0.000000
vt 1.000000 1.000000
vt 0.000000 1.000000
vt 0.000000 0.000000
vt 1.000000 0.000000
vt 1.000000 1.000000
vt 0.000000 1.000000
vt 0.000000 0.000000
vt 1.000000 0.000000
vt 1.000000 1.000000
vt 0.000000 1.000000
vt 0.000000 0.000000
vt 1.000000 0.000000
vt 1.000000 1.000000
vt 0.000000 1.000000
vt 0.000000 0.000000
vt 1.000000 0.000000
vt 1.000000 1.000000
vt 0.000000 1.000000
vt 0.000000 0.000000
vt 1.000000 0.000000
vt 1.000000 1.000000
vt 0.000000 1.000000
vt 0.000000 0.000000
vt 1.000000 0.000000
vt 1.000000 1.000000
vt 0.000000 1.000000
vt 0.000000 0.000000
vt 1.000000 0.000000
vt 1.000000 1.000000
vt 0.000000 1.000000
vt 0.000000 0.000000
vt 1.000000 0.000000
vt 1.000000 1.000000
vt 0.000000 1.000000
vt 0.000000 0.000000
vt 1.000000 0.000000
vt 1.000000 1.000000
vt 0.000000 1.000000
vt 0.000000 0.000000
vt 1.000000 0.000000
vt 1.000000 1.000000
vt 0.000000 1.000000
vt 0.000000 0.000000
vt 1.000000 0.000000
vt 1.000000 1.000000
vt 0.000000 1.000000
vt 0.000000 0.000000
vt 1.000000 0.000000
vt 1.000000 1.000000
vt 0.000000 1.000000
vt 0.000000 0.000000
vt 1.000000 0.000000
vt 1.000000 1.000000
vt 0.000000 1.000000
vt 0.000000 0.000000
vt 1.000000 0.000000
vt 1.000000 1.000000
vt 0.000000 1.000000
vt 0.000000 0.000000
vt 1.000000 0.000000
vt 1.000000 1.000000
vt 0.000000 1.000000
vt 0.000000 0.000000
vt 1.000000 0.000000
vt 1.000000 1.000000
vt 0.000000 1.000000
vt 0.000000 0.000000
vt 1.000000 0.000000
vt 1.000000 1.000000
vt 0.000000 1.000000
vt 0.000000 0.000000
vt 1.000000 0.000000
vt 1.000000 1.000000
vt 0.000000 1.000000
vt 0.000000 0.000000
vt 1.000000 0.000000
vt 1.000000 1.000000
vt 0.000000 1.000000
vt 0.000000 0.000000
vt 1.000000 0.000000
vt 1.000000 1.000000
vt 0.000000 1.000000
vt 0.000000 0.000000
vt 1.000000 0.000000
vt 1.000000 1.000000
vt 0.000000 1.000000
vt 0.000000 0.000000
vt 1.000000 0.000000
vt 1.000000 1.000000
vt 0.000000 1.000000
vt 0.000000 0.000000
vt 1.000000 0.000000
vt 1.000000 1.000000
vt 0.000000 1.000000
vt 0.000000 0.000000
vt 1.000000 0.000000
vt 1.000000 1.000000
vt 0.000000 1.000000
vt 0.000000 0.000000
vt 1.000000 0.000000
vt 1.000000 1.000000
vt 0.000000 1.000000
vt 0.000000 0.000000
vt 1.000000 0.000000
vt 1.000000 1.000000
vt 0.000000 1.000000
vt 0.000000 0.000000
vt 1.000000 0.000000
vt 1.000000 1.000000
vt 0.000000 1.000000
vt 0.000000 0.000000
vt 1.000000 0.000000
vt 1.000000 1.000000
vt 0.000000 1.000000
vt 0.000000 0.000000
vt 1.000000 0.000000
vt 1.000000 1.000000
vt 0.000000 1.000000
vt 0.000000 0.000000
vt 1.000000 0.000000
vt 1.000000 1.000000
vt 0.000000 1.000000
vt 0.000000 0.000000
vt 1.000000 0.000000
vt 1.000000 1.000000
vt 0.000000 1.000000
vt 0.000000 0.000000
vt 1.000000 0.000000
vt 1.000000 1.000000
vt 0.000000 1.000000
vt 0.000000 0.000000
vt 1.000000 0.000000
vt 1.000000 1.000000
vt 0.000000 1.000000
vt 0.000000 0.000000
vt 1.000000 0.000000
vt 1.000000 1.000000
vt 0.000000 1.000000
vt 0.000000 0.000000
vt 1.000000 0.000000
vt 1.000000 1.000000
vt 0.000000 1.000000
vt 0.000000 0.000000
vt 1.000000 0.000000
vt 1.000000 1.000000
vt 0.000000 1.000000
vt 0.000000 0.000000
vt 1.000000 0.000000
vt 1.000000 1.000000
vt 0.000000 1.000000
vt 0.000000 0.000000
vt 1.000000 0.000000
vt 1.000000 1.000000
vt 0.000000 1.000000
vt 0.000000 0.000000
vt 1.000000 0.000000
vt 1.000000 1.000000
vt 0.000000 1.000000
vt 0.000000 0.000000
vt 1.000000 0.000000
vt 1.000000 1.000000
vt 0.000000 1.000000
vt 0.000000 0.000000
vt 1.000000 0.000000
vt 1.000000 1.000000
vt 0.000000 1.000000
vt 0.000000 0.000000
vt 1.000000 0.000000
vt 1.000000 1.000000
vt 0.000000 1.000000
vt 0.000000 0.000000
vt 1.000000 0.000000
vt 1.000000 1.000000
vt 0.000000 1.000000
vt 0.000000 0.000000
vt 1.000000 0.000000
vt 1.000000 1.000000
vt 0.000000 1.000000
vt 0.000000 0.000000
vt 1.000000 0.000000
vt 1.000000 1.000000
vt 0.000000 1.000000
vt 0.000000 0.000000
vt 1.000000 0.000000
vt 1.000000 1.000000
vt 0.000000 1.000000
vt 0.000000 0.000000
vt 1.000000 0.000000
vt 1.000000 1.000000
vt 0.000000 1.000000
vt 0.000000 0.000000
vt 1.000000 0.000000
vt 1.000000 1.000000
vt 0.000000 1.000000
vt 0.000000 0.000000
vt 1.000000 0.000000
vt 1.000000 1.000000
vt 0.000000 1.000000
vt 0.000000 0.000000
vt 1.000000 0.000000
vt 1.000000 1.000000
vt 0.000000 1.000000
vt 0.000000 0.000000
vt 1.000000 0.000000
vt 1.000000 1.000000
vt 0.000000 1.000000
vt 0.000000 0.000000
vt 1.000000 0.000000
vt 1.000000 1.000000
vt 0.000000 1.000000
vt 0.000000 0.000000
vt 1.000000 0.000000
vt 1.000000 1.000000
vt 0.000000 1.000000
vt 0.000000 0.000000
vt 1.000000 0.000000
vt 1.000000 1.000000
vt 0.000000 1.000000
vt 0.000000 0.000000
vt 1.000000 0.000000
vt 1.000000 1.000000
vt 0.000000 1.000000
vt 0.500000 0.500000
vt 0.000000 0.000000
vt 1.000000 0.000000
vt 0.000000 0.000000
vt 1.000000 0.000000
vt 0.000000 0.000000
vt 1.000000 0.000000
vt 0.000000 0.000000
vt 1.000000 0.000000
vt 0.000000 0.000000
vt 1.000000 0.000000
vt 0.000000 0.000000
vt 1.000000 0.000000
vt 0.000000 0.000000
vt 1.000000 0.000000
vt 0.500000 0.500000
vt 0.000000 0.000000
vt 1.000000 0.000000
vt 0.000000 0.000000
vt 1.000000 0.000000
vt 0.000000 0.000000
vt 1.000000 0.000000
vt 0.000000 0.000000
vt 1.000000 0.000000
vt 0.000000 0.000000
vt 1.000000 0.000000
vt 0.000000 0.000000
vt 1.000000 0.000000
vt 0.000000 0.000000
vt 1.000000 0.000000
vt 0.000000 0.000000
vt 1.000000 0.000000
vt 1.000000 1.000000
vt 0.000000 1.000000
vt 0.000000 0.000000
vt 1.000000 0.000000
vt 1.000000 1.000000
vt 0.000000 1.000000
vt 0.000000 0.000000
vt 1.000000 0.000000
vt 1.000000 1.000000
vt 0.000000 1.000000
vt 0.000000 0.000000
vt 1.000000 0.000000
vt 1.000000 1.000000
vt 0.000000 1.000000
vt 0.000000 0.000000
vt 1.000000 0.000000
vt 1.000000 1.000000
vt 0.000000 1.000000
vt 0.000000 0.000000
vt 1.000000 0.000000
vt 1.000000 1.000000
vt 0.000000 1.000000
vt 0.000000 0.000000
vt 1.000000 0.000000
vt 1.000000 1.000000
vt 0.000000 1.000000
vt 0.000000 0.000000
vt 1.000000 0.000000
vt 1.000000 1.000000
vt 0.000000 1.000000
vt 0.000000 0.000000
vt 1.000000 0.000000
vt 1.000000 1.000000
vt 0.000000 1.000000
vt 0.000000 0.000000
vt 1.000000 0.000000
vt 1.000000 1.000000
vt 0.000000 1.000000
vt 0.000000 0.000000
vt 1.000000 0.000000
vt 1.000000 1.000000
vt 0.000000 1.000000
vt 0.000000 0.000000
vt 1.000000 0.000000
vt 1.000000 1.000000
vt 0.000000 1.000000
usemtl Wood
f 1/1 2/2 3/3
f 1/1 3/3 4/4
f 5/5 6/6 7/7
f 5/5 7/7 8/8
f 9/9 10/10 11/11
f 9/9 11/11 12/12
f 13/13 14/14 15/15
f 13/13 15/15 16/16
f 17/17 18/18 19/19
f 17/17 19/19 20/20
f 21/21 22/22 23/23
f 21/21 23/23 24/24
f 25/25 26/26 27/27
f 25/25 27/27 28/28
f 29/29 30/30 31/31
f 29/29 31/31 32/32
f 33/33 34/34 35/35
f 33/33 35/35 36/36
f 37/37 38/38 39/39
f 37/37 39/39 40/40
f 41/41 42/42 43/43
f 41/41 43/43 44/44
f 45/45 46/46 47/47
f 45/45 47/47 48/48
f 49/49 50/50 51/51
f 49/49 51/51 52/52
f 53/53 54/54 55/55
f 53/53 55/55 56/56
f 57/57 58/58 59/59
f 57/57 59/59 60/60
f 61/61 62/62 63/63
f 61/61 63/63 64/64
f 65/65 66/66 67/67
f 65/65 67/67 68/68
f 69/69 70/70 71/71
f 69/69 71/71 72/72
f 73/73 74/74 75/75
f 73/73 75/75 76/76
f 77/77 78/78 79/79
f 77/77 79/79 80/80
f 81/81 82/82 83/83
f 81/81 83/83 84/84
f 85/85 86/86 87/87
f 85/85 87/87 88/88
f 89/89 90/90 91/91
f 89/89 91/91 92/92
f 93/93 94/94 95/95
f 93/93 95/95 96/96
f 97/97 98/98 99/99
f 97/97 99/99 100/100
f 101/101 102/102 103/103
f 101/101 103/103 104/104
f 105/105 106/106 107/107
f 105/105 107/107 108/108
f 109/109 110/110 111/111
f 109/109 111/111 112/112
f 113/113 114/114 115/115
f 113/113 115/115 116/116
f 117/117 118/118 119/119
f 117/117 119/119 120/120
f 121/121 122/122 123/123
f 121/121 123/123 124/124
f 125/125 126/126 127/127
f 125/125 127/127 128/128
f 129/129 131/131 130/130
f 129/129 133/133 132/132
f 129/129 135/135 134/134
f 129/129 137/137 136/136
f 129/129 139/139 138/138
f 129/129 141/141 140/140
f 129/129 143/143 142/142
f 129/129 145/145 144/144
f 146/146 147/147 148/148
f 146/146 149/149 150/150
f 146/146 151/151 152/152
f 146/146 153/153 154/154
f 146/146 155/155 156/156
f 146/146 157/157 158/158
f 146/146 159/159 160/160
f 146/146 161/161 162/162
f 163/163 164/164 165/165
f 163/163 165/165 166/166
f 167/167 168/168 169/169
f 167/167 169/169 170/170
f 171/171 172/172 173/173
f 171/171 173/173 174/174
f 175/175 176/176 177/177
f 175/175 177/177 178/178
f 179/179 180/180 181/181
f 179/179 181/181 182/182
f 183/183 184/184 185/185
f 183/183 185/185 186/186
f 187/187 188/188 189/189
f 187/187 189/189 190/190
f 191/191 192/192 193/193
f 191/191 193/193 194/194
f 195/195 197/197 196/196
f 195/195 199/199 198/198
f 195/195 201/201 200/200
f 195/195 203/203 202/202
f 195/195 205/205 204/204
f 195/195 207/207 206/206
f 195/195 209/209 208/208
f 195/195 211/211 210/210
f 212/212 213/213 214/214
f 212/212 215/215 216/216
f 212/212 217/217 218/218
f 212/212 219/219 220/220
f 212/212 221/221 222/222
f 212/212 223/223 224/224
f 212/212 225/225 226/226
f 212/212 227/227 228/228
f 229/229 230/230 231/231
f 229/229 231/231 232/232
f 233/233 234/234 235/235
f 233/233 235/235 236/236
f 237/237 238/238 239/239
f 237/237 239/239 240/240
f 241/241 242/242 243/243
f 241/241 243/243 244/244
f 245/245 246/246 247/247
f 245/245 247/247 248/248
f 249/249 250/250 251/251
f 249/249 251/251 252/252
f 253/253 254/254 255/255
f 253/253 255/255 256/256
f 257/257 258/258 259/259
f 257/257 259/259 260/260
f 261/261 263/263 262/262
f 261/261 265/265 264/264
f 261/261 267/267 266/266
f 261/261 269/269 268/268
f 261/261 271/271 270/270
f 261/261 273/273 272/272
f 261/261 275/275 274/274
f 261/261 277/277 276/276
f 278/278 279/279 280/280
f 278/278 281/281 282/282
f 278/278 283/283 284/284
f 278/278 285/285 286/286
f 278/278 287/287 288/288
f 278/278 289/289 290/290
f 278/278 291/291 292/292
f 278/278 293/293 294/294
f 295/295 296/296 297/297
f 295/295 297/297 298/298
f 299/299 300/300 301/301
f 299/299 301/301 302/302
f 303/303 304/304 305/305
f 303/303 305/305 306/306
f 307/307 308/308 309/309
f 307/307 309/309 310/310
f 311/311 312/312 313/313
f 311/311 313/313 314/314
f 315/315 316/316 317/317
f 315/315 317/317 318/318
f 319/319 320/320 321/321
f 319/319 321/321 322/322
f 323/323 324/324 325/325
f 323/323 325/325 326/326
f 327/327 329/329 328/328
f 327/327 331/331 330/330
f 327/327 333/333 332/332
f 327/327 335/335 334/334
f 327/327 337/337 336/336
f 327/327 339/339 338/338
f 327/327 341/341 340/340
f 327/327 343/343 342/342
f 344/344 345/345 346/346
f 344/344 347/347 348/348
f 344/344 349/349 350/350
f 344/344 351/351 352/352
f 344/344 353/353 354/354
f 344/344 355/355 356/356
f 344/344 357/357 358/358
f 344/344 359/359 360/360
f 361/361 362/362 363/363
f 361/361 363/363 364/364
f 365/365 366/366 367/367
f 365/365 367/367 368/368
f 369/369 370/370 371/371
f 369/369 371/371 372/372
f 373/373 374/374 375/375
f 373/373 375/375 376/376
f 377/377 378/378 379/379
f 377/377 379/379 380/380
f 381/381 382/382 383/383
f 381/381 383/383 384/384
f 385/385 386/386 387/387
f 385/385 387/387 388/388
f 389/389 390/390 391/391
f 389/389 391/391 392/392
f 393/393 395/395 394/394
f 393/393 397/397 396/396
f 393/393 399/399 398/398
f 393/393 401/401 400/400
f 393/393 403/403 402/402
f 393/393 405/405 404/404
f 393/393 407/407 406/406
f 393/393 409/409 408/408
f 410/410 411/411 412/412
f 410/410 413/413 414/414
f 410/410 415/415 416/416
f 410/410 417/417 418/418
f 410/410 419/419 420/420
f 410/410 421/421 422/422
f 410/410 423/423 424/424
f 410/410 425/425 426/426
f 427/427 428/428 429/429
f 427/427 429/429 430/430
f 431/431 432/432 433/433
f 431/431 433/433 434/434
f 435/435 436/436 437/437
f 435/435 437/437 438/438
f 439/439 440/440 441/441
f 439/439 441/441 442/442
f 443/443 444/444 445/445
f 443/443 445/445 446/446
f 447/447 448/448 449/449
f 447/447 449/449 450/450
f 451/451 452/452 453/453
f 451/451 453/453 454/454
f 455/455 456/456 457/457
f 455/455 457/457 458/458
f 459/459 461/461 460/460
f 459/459 463/463 462/462
f 459/459 465/465 464/464
f 459/459 467/467 466/466
f 459/459 469/469 468/468
f 459/459 471/471 470/470
f 459/459 473/473 472/472
f 459/459 475/475 474/474
f 476/476 477/477 478/478
f 476/476 479/479 480/480
f 476/476 481/481 482/482
f 476/476 483/483 484/484
f 476/476 485/485 486/486
f 476/476 487/487 488/488
f 476/476 489/489 490/490
f 476/476 491/491 492/492
f 493/493 494/494 495/495
f 493/493 495/495 496/496
f 497/497 498/498 499/499
f 497/497 499/499 500/500
f 501/501 502/502 503/503
f 501/501 503/503 504/504
f 505/505 506/506 507/507
f 505/505 507/507 508/508
f 509/509 510/510 511/511
f 509/509 511/511 512/512
f 513/513 514/514 515/515
f 513/513 515/515 516/516
f 517/517 518/518 519/519
f 517/517 519/519 520/520
f 521/521 522/522 523/523
f 521/521 523/523 524/524
f 525/525 527/527 526/526
f 525/525 529/529 528/528
f 525/525 531/531 530/530
f 525/525 533/533 532/532
f 525/525 535/535 534/534
f 525/525 537/537 536/536
f 525/525 539/539 538/538
f 525/525 541/541 540/540
f 542/542 543/543 544/544
f 542/542 545/545 546/546
f 542/542 547/547 548/548
f 542/542 549/549 550/550
f 542/542 551/551 552/552
f 542/542 553/553 554/554
f 542/542 555/555 556/556
f 542/542 557/557 558/558
f 559/559 560/560 561/561
f 559/559 561/561 562/562
f 563/563 564/564 565/565
f 563/563 565/565 566/566
f 567/567 568/568 569/569
f 567/567 569/569 570/570
f 571/571 572/572 573/573
f 571/571 573/573 574/574
f 575/575 576/576 577/577
f 575/575 577/577 578/578
f 579/579 580/580 581/581
f 579/579 581/581 582/582
f 583/583 584/584 585/585
f 583/583 585/585 586/586
f 587/587 588/588 589/589
f 587/587 589/589 590/590
f 591/591 593/593 592/592
f 591/591 595/595 594/594
f 591/591 597/597 596/596
f 591/591 599/599 598/598
f 591/591 601/601 600/600
f 591/591 603/603 602/602
f 591/591 605/605 604/604
f 591/591 607/607 606/606
f 608/608 609/609 610/610
f 608/608 611/611 612/612
f 608/608 613/613 614/614
f 608/608 615/615 616/616
f 608/608 617/617 618/618
f 608/608 619/619 620/620
f 608/608 621/621 622/622
f 608/608 623/623 624/624
f 625/625 626/626 627/627
f 625/625 627/627 628/628
f 629/629 630/630 631/631
f 629/629 631/631 632/632
f 633/633 634/634 635/635
f 633/633 635/635 636/636
f 637/637 638/638 639/639
f 637/637 639/639 640/640
f 641/641 642/642 643/643
f 641/641 643/643 644/644
f 645/645 646/646 647/647
f 645/645 647/647 648/648
f 649/649 650/650 651/651
f 649/649 651/651 652/652
f 653/653 654/654 655/655
f 653/653 655/655 656/656
f 657/657 659/659 658/658
f 657/657 661/661 660/660
f 657/657 663/663 662/662
f 657/657 665/665 664/664
f 657/657 667/667 666/666
f 657/657 669/669 668/668
f 657/657 671/671 670/670
f 657/657 673/673 672/672
f 674/674 675/675 676/676
f 674/674 677/677 678/678
f 674/674 679/679 680/680
f 674/674 681/681 682/682
f 674/674 683/683 684/684
f 674/674 685/685 686/686
f 674/674 687/687 688/688
f 674/674 689/689 690/690
f 691/691 692/692 693/693
f 691/691 693/693 694/694
f 695/695 696/696 697/697
f 695/695 697/697 698/698
f 699/699 700/700 701/701
f 699/699 701/701 702/702
f 703/703 704/704 705/705
f 703/703 705/705 706/706
f 707/707 708/708 709/709
f 707/707 709/709 710/710
f 711/711 712/712 713/713
f 711/711 713/713 714/714
f 715/715 716/716 717/717
f 715/715 717/717 718/718
f 719/719 720/720 721/721
f 719/719 721/721 722/722
f 723/723 725/725 724/724
f 723/723 727/727 726/726
f 723/723 729/729 728/728
f 723/723 731/731 730/730
f 723/723 733/733 732/732
f 723/723 735/735 734/734
f 723/723 737/737 736/736
f 723/723 739/739 738/738
f 740/740 741/741 742/742
f 740/740 743/743 744/744
f 740/740 745/745 746/746
f 740/740 747/747 748/748
f 740/740 749/749 750/750
f 740/740 751/751 752/752
f 740/740 753/753 754/754
f 740/740 755/755 756/756
f 757/757 758/758 759/759
f 757/757 759/759 760/760
f 761/761 762/762 763/763
f 761/761 763/763 764/764
f 765/765 766/766 767/767
f 765/765 767/767 768/768
f 769/769 770/770 771/771
f 769/769 771/771 772/772
f 773/773 774/774 775/775
f 773/773 775/775 776/776
f 777/777 778/778 779/779
f 777/777 779/779 780/780
f 781/781 782/782 783/783
f 781/781 783/783 784/784
f 785/785 786/786 787/787
f 785/785 787/787 788/788
f 789/789 791/791 790/790
f 789/789 793/793 792/792
f 789/789 795/795 794/794
f 789/789 797/797 796/796
f 789/789 799/799 798/798
f 789/789 801/801 800/800
f 789/789 803/803 802/802
f 789/789 805/805 804/804
f 806/806 807/807 808/808
f 806/806 809/809 810/810
f 806/806 811/811 812/812
f 806/806 813/813 814/814
f 806/806 815/815 816/816
f 806/806 817/817 818/818
f 806/806 819/819 820/820
f 806/806 821/821 822/822
f 823/823 824/824 825/825
f 823/823 825/825 826/826
f 827/827 828/828 829/829
f 827/827 829/829 830/830
f 831/831 832/832 833/833
f 831/831 833/833 834/834
f 835/835 836/836 837/837
f 835/835 837/837 838/838
f 839/839 840/840 841/841
f 839/839 841/841 842/842
f 843/843 844/844 845/845
f 843/843 845/845 846/846
f 847/847 848/848 849/849
f 847/847 849/849 850/850
f 851/851 852/852 853/853
f 851/851 853/853 854/854
f 855/855 857/857 856/856
f 855/855 859/859 858/858
f 855/855 861/861 860/860
f 855/855 863/863 862/862
f 855/855 865/865 864/864
f 855/855 867/867 866/866
f 855/855 869/869 868/868
f 855/855 871/871 870/870
f 872/872 873/873 874/874
f 872/872 875/875 876/876
f 872/872 877/877 878/878
f 872/872 879/879 880/880
f 872/872 881/881 882/882
f 872/872 883/883 884/884
f 872/872 885/885 886/886
f 872/872 887/887 888/888
f 889/889 890/890 891/891
f 889/889 891/891 892/892
f 893/893 894/894 895/895
f 893/893 895/895 896/896
f 897/897 898/898 899/899
f 897/897 899/899 900/900
f 901/901 902/902 903/903
f 901/901 903/903 904/904
f 905/905 906/906 907/907
f 905/905 907/907 908/908
f 909/909 910/910 911/911
f 909/909 911/911 912/912
usemtl Metal
f 913/913 914/914 915/915
f 913/913 915/915 916/916
f 917/917 918/918 919/919
f 917/917 919/919 920/920
f 921/921 922/922 923/923
f 921/921 923/923 924/924
f 925/925 926/926 927/927
f 925/925 927/927 928/928
f 929/929 930/930 931/931
f 929/929 931/931 932/932
f 933/933 934/934 935/935
f 933/933 935/935 936/936
f 937/937 938/938 939/939
f 937/937 939/939 940/940
f 941/941 942/942 943/943
f 941/941 943/943 944/944
f 945/945 946/946 947/947
f 945/945 947/947 948/948
f 949/949 950/950 951/951
f 949/949 951/951 952/952
f 953/953 954/954 955/955
f 953/953 955/955 956/956
f 957/957 958/958 959/959
f 957/957 959/959 960/960
f 961/961 962/962 963/963
f 961/961 963/963 964/964
f 965/965 967/967 966/966
f 965/965 969/969 968/968
f 965/965 971/971 970/970
f 965/965 973/973 972/972
f 965/965 975/975 974/974
f 965/965 977/977 976/976
f 965/965 979/979 978/978
f 980/980 981/981 982/982
f 980/980 983/983 984/984
f 980/980 985/985 986/986
f 980/980 987/987 988/988
f 980/980 989/989 990/990
f 980/980 991/991 992/992
f 980/980 993/993 994/994
usemtl Rope
f 995/995 996/996 997/997
f 995/995 997/997 998/998
f 999/999 1000/1000 1001/1001
f 999/999 1001/1001 1002/1002
f 1003/1003 1004/1004 1005/1005
f 1003/1003 1005/1005 1006/1006
f 1007/1007 1008/1008 1009/1009
f 1007/1007 1009/1009 1010/1010
f 1011/1011 1012/1012 1013/1013
f 1011/1011 1013/1013 1014/1014
f 1015/1015 1016/1016 1017/1017
f 1015/1015 1017/1017 1018/1018
f 1019/1019 1020/1020 1021/1021
f 1019/1019 1021/1021 1022/1022
f 1023/1023 1024/1024 1025/1025
f 1023/1023 1025/1025 1026/1026
f 1027/1027 1028/1028 1029/1029
f 1027/1027 1029/1029 1030/1030
f 1031/1031 1032/1032 1033/1033
f 1031/1031 1033/1033 1034/1034
f 1035/1035 1036/1036 1037/1037
f 1035/1035 1037/1037 1038/1038
f 1039/1039 1040/1040 1041/1041
f 1039/1039 1041/1041 1042/1042
f 1043/1043 1044/1044 1045/1045
f 1043/1043 1045/1045 1046/1046
f 1047/1047 1048/1048 1049/1049
f 1047/1047 1049/1049 1050/1050
f 1051/1051 1052/1052 1053/1053
f 1051/1051 1053/1053 1054/1054
f 1055/1055 1056/1056 1057/1057
f 1055/1055 1057/1057 1058/1058
f 1059/1059 1060/1060 1061/1061
f 1059/1059 1061/1061 1062/1062
f 1063/1063 1064/1064 1065/1065
f 1063/1063 1065/1065 1066/1066
f 1067/1067 1068/1068 1069/1069
f 1067/1067 1069/1069 1070/1070
f 1071/1071 1072/1072 1073/1073
f 1071/1071 1073/1073 1074/1074
f 1075/1075 1076/1076 1077/1077
f 1075/1075 1077/1077 1078/1078
f 1079/1079 1080/1080 1081/1081
f 1079/1079 1081/1081 1082/1082
f 1083/1083 1084/1084 1085/1085
f 1083/1083 1085/1085 1086/1086
f 1087/1087 1088/1088 1089/1089
f 1087/1087 1089/1089 1090/1090
f 1091/1091 1092/1092 1093/1093
f 1091/1091 1093/1093 1094/1094
f 1095/1095 1096/1096 1097/1097
f 1095/1095 1097/1097 1098/1098
f 1099/1099 1100/1100 1101/1101
f 1099/1099 1101/1101 1102/1102
f 1103/1103 1104/1104 1105/1105
f 1103/1103 1105/1105 1106/1106
f 1107/1107 1108/1108 1109/1109
f 1107/1107 1109/1109 1110/1110
f 1111/1111 1112/1112 1113/1113
f 1111/1111 1113/1113 1114/1114
f 1115/1115 1116/1116 1117/1117
f 1115/1115 1117/1117 1118/1118
f 1119/1119 1120/1120 1121/1121
f 1119/1119 1121/1121 1122/1122
f 1123/1123 1124/1124 1125/1125
f 1123/1123 1125/1125 1126/1126
f 1127/1127 1128/1128 1129/1129
f 1127/1127 1129/1129 1130/1130
f 1131/1131 1132/1132 1133/1133
f 1131/1131 1133/1133 1134/1134
f 1135/1135 1136/1136 1137/1137
f 1135/1135 1137/1137 1138/1138
f 1139/1139 1140/1140 1141/1141
f 1139/1139 1141/1141 1142/1142
f 1143/1143 1144/1144 1145/1145
f 1143/1143 1145/1145 1146/1146
f 1147/1147 1148/1148 1149/1149
f 1147/1147 1149/1149 1150/1150
f 1151/1151 1152/1152 1153/1153
f 1151/1151 1153/1153 1154/1154
f 1155/1155 1156/1156 1157/1157
f 1155/1155 1157/1157 1158/1158
f 1159/1159 1160/1160 1161/1161
f 1159/1159 1161/1161 1162/1162
f 1163/1163 1164/1164 1165/1165
f 1163/1163 1165/1165 1166/1166
f 1167/1167 1168/1168 1169/1169
f 1167/1167 1169/1169 1170/1170
f 1171/1171 1172/1172 1173/1173
f 1171/1171 1173/1173 1174/1174
f 1175/1175 1176/1176 1177/1177
f 1175/1175 1177/1177 1178/1178
f 1179/1179 1180/1180 1181/1181
f 1179/1179 1181/1181 1182/1182
f 1183/1183 1184/1184 1185/1185
f 1183/1183 1185/1185 1186/1186
f 1187/1187 1188/1188 1189/1189
f 1187/1187 1189/1189 1190/1190
f 1191/1191 1192/1192 1193/1193
f 1191/1191 1193/1193 1194/1194
f 1195/1195 1196/1196 1197/1197
f 1195/1195 1197/1197 1198/1198
f 1199/1199 1200/1200 1201/1201
f 1199/1199 1201/1201 1202/1202
f 1203/1203 1204/1204 1205/1205
f 1203/1203 1205/1205 1206/1206
f 1207/1207 1208/1208 1209/1209
f 1207/1207 1209/1209 1210/1210
f 1211/1211 1212/1212 1213/1213
f 1211/1211 1213/1213 1214/1214
f 1215/1215 1216/1216 1217/1217
f 1215/1215 1217/1217 1218/1218
f 1219/1219 1220/1220 1221/1221
f 1219/1219 1221/1221 1222/1222
f 1223/1223 1224/1224 1225/1225
f 1223/1223 1225/1225 1226/1226
f 1227/1227 1228/1228 1229/1229
f 1227/1227 1229/1229 1230/1230
f 1231/1231 1232/1232 1233/1233
f 1231/1231 1233/1233 1234/1234
f 1235/1235 1236/1236 1237/1237
f 1235/1235 1237/1237 1238/1238
f 1239/1239 1240/1240 1241/1241
f 1239/1239 1241/1241 1242/1242
f 1243/1243 1244/1244 1245/1245
f 1243/1243 1245/1245 1246/1246
f 1247/1247 1248/1248 1249/1249
f 1247/1247 1249/1249 1250/1250
f 1251/1251 1252/1252 1253/1253
f 1251/1251 1253/1253 1254/1254
f 1255/1255 1256/1256 1257/1257
f 1255/1255 1257/1257 1258/1258
f 1259/1259 1260/1260 1261/1261
f 1259/1259 1261/1261 1262/1262
f 1263/1263 1264/1264 1265/1265
f 1263/1263 1265/1265 1266/1266
f 1267/1267 1268/1268 1269/1269
f 1267/1267 1269/1269 1270/1270
f 1271/1271 1272/1272 1273/1273
f 1271/1271 1273/1273 1274/1274
f 1275/1275 1276/1276 1277/1277
f 1275/1275 1277/1277 1278/1278
f 1279/1279 1280/1280 1281/1281
f 1279/1279 1281/1281 1282/1282
f 1283/1283 1284/1284 1285/1285
f 1283/1283 1285/1285 1286/1286
f 1287/1287 1288/1288 1289/1289
f 1287/1287 1289/1289 1290/1290
f 1291/1291 1292/1292 1293/1293
f 1291/1291 1293/1293 1294/1294
f 1295/1295 1296/1296 1297/1297
f 1295/1295 1297/1297 1298/1298
f 1299/1299 1300/1300 1301/1301
f 1299/1299 1301/1301 1302/1302
f 1303/1303 1304/1304 1305/1305
f 1303/1303 1305/1305 1306/1306
f 1307/1307 1308/1308 1309/1309
f 1307/1307 1309/1309 1310/1310
f 1311/1311 1312/1312 1313/1313
f 1311/1311 1313/1313 1314/1314
usemtl Wood
f 1315/1315 1316/1316 1317/1317
f 1315/1315 1317/1317 1318/1318
f 1319/1319 1320/1320 1321/1321
f 1319/1319 1321/1321 1322/1322
f 1323/1323 1324/1324 1325/1325
f 1323/1323 1325/1325 1326/1326
f 1327/1327 1328/1328 1329/1329
f 1327/1327 1329/1329 1330/1330
f 1331/1331 1332/1332 1333/1333
f 1331/1331 1333/1333 1334/1334
f 1335/1335 1336/1336 1337/1337
f 1335/1335 1337/1337 1338/1338
f 1339/1339 1340/1340 1341/1341
f 1339/1339 1341/1341 1342/1342
f 1343/1343 1345/1345 1344/1344
f 1343/1343 1347/1347 1346/1346
f 1343/1343 1349/1349 1348/1348
f 1343/1343 1351/1351 1350/1350
f 1343/1343 1353/1353 1352/1352
f 1343/1343 1355/1355 1354/1354
f 1343/1343 1357/1357 1356/1356
f 1358/1358 1359/1359 1360/1360
f 1358/1358 1361/1361 1362/1362
f 1358/1358 1363/1363 1364/1364
f 1358/1358 1365/1365 1366/1366
f 1358/1358 1367/1367 1368/1368
f 1358/1358 1369/1369 1370/1370
f 1358/1358 1371/1371 1372/1372
usemtl Metal
f 1373/1373 1374/1374 1375/1375
f 1373/1373 1375/1375 1376/1376
f 1377/1377 1378/1378 1379/1379
f 1377/1377 1379/1379 1380/1380
f 1381/1381 1382/1382 1383/1383
f 1381/1381 1383/1383 1384/1384
f 1385/1385 1386/1386 1387/1387
f 1385/1385 1387/1387 1388/1388
f 1389/1389 1390/1390 1391/1391
f 1389/1389 1391/1391 1392/1392
f 1393/1393 1394/1394 1395/1395
f 1393/1393 1395/1395 1396/1396
usemtl Cloth
f 1397/1397 1398/1398 1399/1399
f 1397/1397 1399/1399 1400/1400
f 1401/1401 1402/1402 1403/1403
f 1401/1401 1403/1403 1404/1404
f 1405/1405 1406/1406 1407/1407
f 1405/1405 1407/1407 1408/1408
f 1409/1409 1410/1410 1411/1411
f 1409/1409 1411/1411 1412/1412
f 1413/1413 1414/1414 1415/1415
f 1413/1413 1415/1415 1416/1416
f 1417/1417 1418/1418 1419/1419
f 1417/1417 1419/1419 1420/1420
