mtllib ../../../Materials/project_oen.mtl
o ax-tool-006_compass__clean
v 0.000000 0.006250 0.059375
v 0.020307 0.006250 0.055794
v 0.020307 0.021875 0.055794
v 0.000000 0.021875 0.059375
v 0.020307 0.006250 0.055794
v 0.038166 0.006250 0.045484
v 0.038166 0.021875 0.045484
v 0.020307 0.021875 0.055794
v 0.038166 0.006250 0.045484
v 0.051420 0.006250 0.029687
v 0.051420 0.021875 0.029687
v 0.038166 0.021875 0.045484
v 0.051420 0.006250 0.029687
v 0.058473 0.006250 0.010310
v 0.058473 0.021875 0.010310
v 0.051420 0.021875 0.029687
v 0.058473 0.006250 0.010310
v 0.058473 0.006250 -0.010310
v 0.058473 0.021875 -0.010310
v 0.058473 0.021875 0.010310
v 0.058473 0.006250 -0.010310
v 0.051420 0.006250 -0.029687
v 0.051420 0.021875 -0.029687
v 0.058473 0.021875 -0.010310
v 0.051420 0.006250 -0.029687
v 0.038166 0.006250 -0.045484
v 0.038166 0.021875 -0.045484
v 0.051420 0.021875 -0.029687
v 0.038166 0.006250 -0.045484
v 0.020307 0.006250 -0.055794
v 0.020307 0.021875 -0.055794
v 0.038166 0.021875 -0.045484
v 0.020307 0.006250 -0.055794
v 0.000000 0.006250 -0.059375
v 0.000000 0.021875 -0.059375
v 0.020307 0.021875 -0.055794
v 0.000000 0.006250 -0.059375
v -0.020307 0.006250 -0.055794
v -0.020307 0.021875 -0.055794
v 0.000000 0.021875 -0.059375
v -0.020307 0.006250 -0.055794
v -0.038166 0.006250 -0.045484
v -0.038166 0.021875 -0.045484
v -0.020307 0.021875 -0.055794
v -0.038166 0.006250 -0.045484
v -0.051420 0.006250 -0.029687
v -0.051420 0.021875 -0.029687
v -0.038166 0.021875 -0.045484
v -0.051420 0.006250 -0.029687
v -0.058473 0.006250 -0.010310
v -0.058473 0.021875 -0.010310
v -0.051420 0.021875 -0.029687
v -0.058473 0.006250 -0.010310
v -0.058473 0.006250 0.010310
v -0.058473 0.021875 0.010310
v -0.058473 0.021875 -0.010310
v -0.058473 0.006250 0.010310
v -0.051420 0.006250 0.029687
v -0.051420 0.021875 0.029687
v -0.058473 0.021875 0.010310
v -0.051420 0.006250 0.029687
v -0.038166 0.006250 0.045484
v -0.038166 0.021875 0.045484
v -0.051420 0.021875 0.029687
v -0.038166 0.006250 0.045484
v -0.020307 0.006250 0.055794
v -0.020307 0.021875 0.055794
v -0.038166 0.021875 0.045484
v -0.020307 0.006250 0.055794
v 0.000000 0.006250 0.059375
v 0.000000 0.021875 0.059375
v -0.020307 0.021875 0.055794
v 0.000000 0.006250 0.000000
v 0.000000 0.006250 0.059375
v 0.020307 0.006250 0.055794
v 0.020307 0.006250 0.055794
v 0.038166 0.006250 0.045484
v 0.038166 0.006250 0.045484
v 0.051420 0.006250 0.029687
v 0.051420 0.006250 0.029687
v 0.058473 0.006250 0.010310
v 0.058473 0.006250 0.010310
v 0.058473 0.006250 -0.010310
v 0.058473 0.006250 -0.010310
v 0.051420 0.006250 -0.029687
v 0.051420 0.006250 -0.029687
v 0.038166 0.006250 -0.045484
v 0.038166 0.006250 -0.045484
v 0.020307 0.006250 -0.055794
v 0.020307 0.006250 -0.055794
v 0.000000 0.006250 -0.059375
v 0.000000 0.006250 -0.059375
v -0.020307 0.006250 -0.055794
v -0.020307 0.006250 -0.055794
v -0.038166 0.006250 -0.045484
v -0.038166 0.006250 -0.045484
v -0.051420 0.006250 -0.029687
v -0.051420 0.006250 -0.029687
v -0.058473 0.006250 -0.010310
v -0.058473 0.006250 -0.010310
v -0.058473 0.006250 0.010310
v -0.058473 0.006250 0.010310
v -0.051420 0.006250 0.029687
v -0.051420 0.006250 0.029687
v -0.038166 0.006250 0.045484
v -0.038166 0.006250 0.045484
v -0.020307 0.006250 0.055794
v -0.020307 0.006250 0.055794
v 0.000000 0.006250 0.059375
v 0.000000 0.021875 0.000000
v 0.000000 0.021875 0.059375
v 0.020307 0.021875 0.055794
v 0.020307 0.021875 0.055794
v 0.038166 0.021875 0.045484
v 0.038166 0.021875 0.045484
v 0.051420 0.021875 0.029687
v 0.051420 0.021875 0.029687
v 0.058473 0.021875 0.010310
v 0.058473 0.021875 0.010310
v 0.058473 0.021875 -0.010310
v 0.058473 0.021875 -0.010310
v 0.051420 0.021875 -0.029687
v 0.051420 0.021875 -0.029687
v 0.038166 0.021875 -0.045484
v 0.038166 0.021875 -0.045484
v 0.020307 0.021875 -0.055794
v 0.020307 0.021875 -0.055794
v 0.000000 0.021875 -0.059375
v 0.000000 0.021875 -0.059375
v -0.020307 0.021875 -0.055794
v -0.020307 0.021875 -0.055794
v -0.038166 0.021875 -0.045484
v -0.038166 0.021875 -0.045484
v -0.051420 0.021875 -0.029687
v -0.051420 0.021875 -0.029687
v -0.058473 0.021875 -0.010310
v -0.058473 0.021875 -0.010310
v -0.058473 0.021875 0.010310
v -0.058473 0.021875 0.010310
v -0.051420 0.021875 0.029687
v -0.051420 0.021875 0.029687
v -0.038166 0.021875 0.045484
v -0.038166 0.021875 0.045484
v -0.020307 0.021875 0.055794
v -0.020307 0.021875 0.055794
v 0.000000 0.021875 0.059375
v 0.060000 0.023438 0.000000
v 0.056382 0.023438 0.020521
v 0.053947 0.027004 0.019635
v 0.057409 0.027004 0.000000
v 0.057409 0.027004 0.000000
v 0.053947 0.027004 0.019635
v 0.050007 0.025642 0.018201
v 0.053216 0.025642 0.000000
v 0.053216 0.025642 0.000000
v 0.050007 0.025642 0.018201
v 0.050007 0.021233 0.018201
v 0.053216 0.021233 0.000000
v 0.053216 0.021233 0.000000
v 0.050007 0.021233 0.018201
v 0.053947 0.019871 0.019635
v 0.057409 0.019871 0.000000
v 0.057409 0.019871 0.000000
v 0.053947 0.019871 0.019635
v 0.056382 0.023438 0.020521
v 0.060000 0.023438 0.000000
v 0.056382 0.023438 0.020521
v 0.045963 0.023438 0.038567
v 0.043978 0.027004 0.036902
v 0.053947 0.027004 0.019635
v 0.053947 0.027004 0.019635
v 0.043978 0.027004 0.036902
v 0.040766 0.025642 0.034207
v 0.050007 0.025642 0.018201
v 0.050007 0.025642 0.018201
v 0.040766 0.025642 0.034207
v 0.040766 0.021233 0.034207
v 0.050007 0.021233 0.018201
v 0.050007 0.021233 0.018201
v 0.040766 0.021233 0.034207
v 0.043978 0.019871 0.036902
v 0.053947 0.019871 0.019635
v 0.053947 0.019871 0.019635
v 0.043978 0.019871 0.036902
v 0.045963 0.023438 0.038567
v 0.056382 0.023438 0.020521
v 0.045963 0.023438 0.038567
v 0.030000 0.023438 0.051962
v 0.028704 0.027004 0.049717
v 0.043978 0.027004 0.036902
v 0.043978 0.027004 0.036902
v 0.028704 0.027004 0.049717
v 0.026608 0.025642 0.046087
v 0.040766 0.025642 0.034207
v 0.040766 0.025642 0.034207
v 0.026608 0.025642 0.046087
v 0.026608 0.021233 0.046087
v 0.040766 0.021233 0.034207
v 0.040766 0.021233 0.034207
v 0.026608 0.021233 0.046087
v 0.028704 0.019871 0.049717
v 0.043978 0.019871 0.036902
v 0.043978 0.019871 0.036902
v 0.028704 0.019871 0.049717
v 0.030000 0.023438 0.051962
v 0.045963 0.023438 0.038567
v 0.030000 0.023438 0.051962
v 0.010419 0.023438 0.059088
v 0.009969 0.027004 0.056537
v 0.028704 0.027004 0.049717
v 0.028704 0.027004 0.049717
v 0.009969 0.027004 0.056537
v 0.009241 0.025642 0.052408
v 0.026608 0.025642 0.046087
v 0.026608 0.025642 0.046087
v 0.009241 0.025642 0.052408
v 0.009241 0.021233 0.052408
v 0.026608 0.021233 0.046087
v 0.026608 0.021233 0.046087
v 0.009241 0.021233 0.052408
v 0.009969 0.019871 0.056537
v 0.028704 0.019871 0.049717
v 0.028704 0.019871 0.049717
v 0.009969 0.019871 0.056537
v 0.010419 0.023438 0.059088
v 0.030000 0.023438 0.051962
v 0.010419 0.023438 0.059088
v -0.010419 0.023438 0.059088
v -0.009969 0.027004 0.056537
v 0.009969 0.027004 0.056537
v 0.009969 0.027004 0.056537
v -0.009969 0.027004 0.056537
v -0.009241 0.025642 0.052408
v 0.009241 0.025642 0.052408
v 0.009241 0.025642 0.052408
v -0.009241 0.025642 0.052408
v -0.009241 0.021233 0.052408
v 0.009241 0.021233 0.052408
v 0.009241 0.021233 0.052408
v -0.009241 0.021233 0.052408
v -0.009969 0.019871 0.056537
v 0.009969 0.019871 0.056537
v 0.009969 0.019871 0.056537
v -0.009969 0.019871 0.056537
v -0.010419 0.023438 0.059088
v 0.010419 0.023438 0.059088
v -0.010419 0.023438 0.059088
v -0.030000 0.023438 0.051962
v -0.028704 0.027004 0.049717
v -0.009969 0.027004 0.056537
v -0.009969 0.027004 0.056537
v -0.028704 0.027004 0.049717
v -0.026608 0.025642 0.046087
v -0.009241 0.025642 0.052408
v -0.009241 0.025642 0.052408
v -0.026608 0.025642 0.046087
v -0.026608 0.021233 0.046087
v -0.009241 0.021233 0.052408
v -0.009241 0.021233 0.052408
v -0.026608 0.021233 0.046087
v -0.028704 0.019871 0.049717
v -0.009969 0.019871 0.056537
v -0.009969 0.019871 0.056537
v -0.028704 0.019871 0.049717
v -0.030000 0.023438 0.051962
v -0.010419 0.023438 0.059088
v -0.030000 0.023438 0.051962
v -0.045963 0.023438 0.038567
v -0.043978 0.027004 0.036902
v -0.028704 0.027004 0.049717
v -0.028704 0.027004 0.049717
v -0.043978 0.027004 0.036902
v -0.040766 0.025642 0.034207
v -0.026608 0.025642 0.046087
v -0.026608 0.025642 0.046087
v -0.040766 0.025642 0.034207
v -0.040766 0.021233 0.034207
v -0.026608 0.021233 0.046087
v -0.026608 0.021233 0.046087
v -0.040766 0.021233 0.034207
v -0.043978 0.019871 0.036902
v -0.028704 0.019871 0.049717
v -0.028704 0.019871 0.049717
v -0.043978 0.019871 0.036902
v -0.045963 0.023438 0.038567
v -0.030000 0.023438 0.051962
v -0.045963 0.023438 0.038567
v -0.056382 0.023438 0.020521
v -0.053947 0.027004 0.019635
v -0.043978 0.027004 0.036902
v -0.043978 0.027004 0.036902
v -0.053947 0.027004 0.019635
v -0.050007 0.025642 0.018201
v -0.040766 0.025642 0.034207
v -0.040766 0.025642 0.034207
v -0.050007 0.025642 0.018201
v -0.050007 0.021233 0.018201
v -0.040766 0.021233 0.034207
v -0.040766 0.021233 0.034207
v -0.050007 0.021233 0.018201
v -0.053947 0.019871 0.019635
v -0.043978 0.019871 0.036902
v -0.043978 0.019871 0.036902
v -0.053947 0.019871 0.019635
v -0.056382 0.023438 0.020521
v -0.045963 0.023438 0.038567
v -0.056382 0.023438 0.020521
v -0.060000 0.023438 0.000000
v -0.057409 0.027004 0.000000
v -0.053947 0.027004 0.019635
v -0.053947 0.027004 0.019635
v -0.057409 0.027004 0.000000
v -0.053216 0.025642 0.000000
v -0.050007 0.025642 0.018201
v -0.050007 0.025642 0.018201
v -0.053216 0.025642 0.000000
v -0.053216 0.021233 0.000000
v -0.050007 0.021233 0.018201
v -0.050007 0.021233 0.018201
v -0.053216 0.021233 0.000000
v -0.057409 0.019871 0.000000
v -0.053947 0.019871 0.019635
v -0.053947 0.019871 0.019635
v -0.057409 0.019871 0.000000
v -0.060000 0.023438 0.000000
v -0.056382 0.023438 0.020521
v -0.060000 0.023438 0.000000
v -0.056382 0.023438 -0.020521
v -0.053947 0.027004 -0.019635
v -0.057409 0.027004 0.000000
v -0.057409 0.027004 0.000000
v -0.053947 0.027004 -0.019635
v -0.050007 0.025642 -0.018201
v -0.053216 0.025642 0.000000
v -0.053216 0.025642 0.000000
v -0.050007 0.025642 -0.018201
v -0.050007 0.021233 -0.018201
v -0.053216 0.021233 0.000000
v -0.053216 0.021233 0.000000
v -0.050007 0.021233 -0.018201
v -0.053947 0.019871 -0.019635
v -0.057409 0.019871 0.000000
v -0.057409 0.019871 0.000000
v -0.053947 0.019871 -0.019635
v -0.056382 0.023438 -0.020521
v -0.060000 0.023438 0.000000
v -0.056382 0.023438 -0.020521
v -0.045963 0.023438 -0.038567
v -0.043978 0.027004 -0.036902
v -0.053947 0.027004 -0.019635
v -0.053947 0.027004 -0.019635
v -0.043978 0.027004 -0.036902
v -0.040766 0.025642 -0.034207
v -0.050007 0.025642 -0.018201
v -0.050007 0.025642 -0.018201
v -0.040766 0.025642 -0.034207
v -0.040766 0.021233 -0.034207
v -0.050007 0.021233 -0.018201
v -0.050007 0.021233 -0.018201
v -0.040766 0.021233 -0.034207
v -0.043978 0.019871 -0.036902
v -0.053947 0.019871 -0.019635
v -0.053947 0.019871 -0.019635
v -0.043978 0.019871 -0.036902
v -0.045963 0.023438 -0.038567
v -0.056382 0.023438 -0.020521
v -0.045963 0.023438 -0.038567
v -0.030000 0.023438 -0.051962
v -0.028704 0.027004 -0.049717
v -0.043978 0.027004 -0.036902
v -0.043978 0.027004 -0.036902
v -0.028704 0.027004 -0.049717
v -0.026608 0.025642 -0.046087
v -0.040766 0.025642 -0.034207
v -0.040766 0.025642 -0.034207
v -0.026608 0.025642 -0.046087
v -0.026608 0.021233 -0.046087
v -0.040766 0.021233 -0.034207
v -0.040766 0.021233 -0.034207
v -0.026608 0.021233 -0.046087
v -0.028704 0.019871 -0.049717
v -0.043978 0.019871 -0.036902
v -0.043978 0.019871 -0.036902
v -0.028704 0.019871 -0.049717
v -0.030000 0.023438 -0.051962
v -0.045963 0.023438 -0.038567
v -0.030000 0.023438 -0.051962
v -0.010419 0.023438 -0.059088
v -0.009969 0.027004 -0.056537
v -0.028704 0.027004 -0.049717
v -0.028704 0.027004 -0.049717
v -0.009969 0.027004 -0.056537
v -0.009241 0.025642 -0.052408
v -0.026608 0.025642 -0.046087
v -0.026608 0.025642 -0.046087
v -0.009241 0.025642 -0.052408
v -0.009241 0.021233 -0.052408
v -0.026608 0.021233 -0.046087
v -0.026608 0.021233 -0.046087
v -0.009241 0.021233 -0.052408
v -0.009969 0.019871 -0.056537
v -0.028704 0.019871 -0.049717
v -0.028704 0.019871 -0.049717
v -0.009969 0.019871 -0.056537
v -0.010419 0.023438 -0.059088
v -0.030000 0.023438 -0.051962
v -0.010419 0.023438 -0.059088
v 0.010419 0.023438 -0.059088
v 0.009969 0.027004 -0.056537
v -0.009969 0.027004 -0.056537
v -0.009969 0.027004 -0.056537
v 0.009969 0.027004 -0.056537
v 0.009241 0.025642 -0.052408
v -0.009241 0.025642 -0.052408
v -0.009241 0.025642 -0.052408
v 0.009241 0.025642 -0.052408
v 0.009241 0.021233 -0.052408
v -0.009241 0.021233 -0.052408
v -0.009241 0.021233 -0.052408
v 0.009241 0.021233 -0.052408
v 0.009969 0.019871 -0.056537
v -0.009969 0.019871 -0.056537
v -0.009969 0.019871 -0.056537
v 0.009969 0.019871 -0.056537
v 0.010419 0.023438 -0.059088
v -0.010419 0.023438 -0.059088
v 0.010419 0.023438 -0.059088
v 0.030000 0.023438 -0.051962
v 0.028704 0.027004 -0.049717
v 0.009969 0.027004 -0.056537
v 0.009969 0.027004 -0.056537
v 0.028704 0.027004 -0.049717
v 0.026608 0.025642 -0.046087
v 0.009241 0.025642 -0.052408
v 0.009241 0.025642 -0.052408
v 0.026608 0.025642 -0.046087
v 0.026608 0.021233 -0.046087
v 0.009241 0.021233 -0.052408
v 0.009241 0.021233 -0.052408
v 0.026608 0.021233 -0.046087
v 0.028704 0.019871 -0.049717
v 0.009969 0.019871 -0.056537
v 0.009969 0.019871 -0.056537
v 0.028704 0.019871 -0.049717
v 0.030000 0.023438 -0.051962
v 0.010419 0.023438 -0.059088
v 0.030000 0.023438 -0.051962
v 0.045963 0.023438 -0.038567
v 0.043978 0.027004 -0.036902
v 0.028704 0.027004 -0.049717
v 0.028704 0.027004 -0.049717
v 0.043978 0.027004 -0.036902
v 0.040766 0.025642 -0.034207
v 0.026608 0.025642 -0.046087
v 0.026608 0.025642 -0.046087
v 0.040766 0.025642 -0.034207
v 0.040766 0.021233 -0.034207
v 0.026608 0.021233 -0.046087
v 0.026608 0.021233 -0.046087
v 0.040766 0.021233 -0.034207
v 0.043978 0.019871 -0.036902
v 0.028704 0.019871 -0.049717
v 0.028704 0.019871 -0.049717
v 0.043978 0.019871 -0.036902
v 0.045963 0.023438 -0.038567
v 0.030000 0.023438 -0.051962
v 0.045963 0.023438 -0.038567
v 0.056382 0.023438 -0.020521
v 0.053947 0.027004 -0.019635
v 0.043978 0.027004 -0.036902
v 0.043978 0.027004 -0.036902
v 0.053947 0.027004 -0.019635
v 0.050007 0.025642 -0.018201
v 0.040766 0.025642 -0.034207
v 0.040766 0.025642 -0.034207
v 0.050007 0.025642 -0.018201
v 0.050007 0.021233 -0.018201
v 0.040766 0.021233 -0.034207
v 0.040766 0.021233 -0.034207
v 0.050007 0.021233 -0.018201
v 0.053947 0.019871 -0.019635
v 0.043978 0.019871 -0.036902
v 0.043978 0.019871 -0.036902
v 0.053947 0.019871 -0.019635
v 0.056382 0.023438 -0.020521
v 0.045963 0.023438 -0.038567
v 0.056382 0.023438 -0.020521
v 0.060000 0.023438 0.000000
v 0.057409 0.027004 0.000000
v 0.053947 0.027004 -0.019635
v 0.053947 0.027004 -0.019635
v 0.057409 0.027004 0.000000
v 0.053216 0.025642 0.000000
v 0.050007 0.025642 -0.018201
v 0.050007 0.025642 -0.018201
v 0.053216 0.025642 0.000000
v 0.053216 0.021233 0.000000
v 0.050007 0.021233 -0.018201
v 0.050007 0.021233 -0.018201
v 0.053216 0.021233 0.000000
v 0.057409 0.019871 0.000000
v 0.053947 0.019871 -0.019635
v 0.053947 0.019871 -0.019635
v 0.057409 0.019871 0.000000
v 0.060000 0.023438 0.000000
v 0.056382 0.023438 -0.020521
v -0.027397 0.025938 -0.032317
v -0.020998 0.025938 -0.036798
v -0.020998 0.030312 -0.036798
v -0.027397 0.030312 -0.032317
v 0.027397 0.025938 0.032317
v 0.020998 0.025938 0.036798
v 0.020998 0.030312 0.036798
v 0.027397 0.030312 0.032317
v 0.020998 0.025938 0.036798
v -0.027397 0.025938 -0.032317
v -0.027397 0.030312 -0.032317
v 0.020998 0.030312 0.036798
v -0.020998 0.025938 -0.036798
v 0.027397 0.025938 0.032317
v 0.027397 0.030312 0.032317
v -0.020998 0.030312 -0.036798
v -0.027397 0.030312 -0.032317
v -0.020998 0.030312 -0.036798
v 0.027397 0.030312 0.032317
v 0.020998 0.030312 0.036798
v 0.020998 0.025938 0.036798
v 0.027397 0.025938 0.032317
v -0.020998 0.025938 -0.036798
v -0.027397 0.025938 -0.032317
vt 0.000000 0.000000
vt 1.000000 0.000000
vt 1.000000 1.000000
vt 0.000000 1.000000
vt 0.000000 0.000000
vt 1.000000 0.000000
vt 1.000000 1.000000
vt 0.000000 1.000000
vt 0.000000 0.000000
vt 1.000000 0.000000
vt 1.000000 1.000000
vt 0.000000 1.000000
vt 0.000000 0.000000
vt 1.000000 0.000000
vt 1.000000 1.000000
vt 0.000000 1.000000
vt 0.000000 0.000000
vt 1.000000 0.000000
vt 1.000000 1.000000
vt 0.000000 1.000000
vt 0.000000 0.000000
vt 1.000000 0.000000
vt 1.000000 1.000000
vt 0.000000 1.000000
vt 0.000000 0.000000
vt 1.000000 0.000000
vt 1.000000 1.000000
vt 0.000000 1.000000
vt 0.000000 0.000000
vt 1.000000 0.000000
vt 1.000000 1.000000
vt 0.000000 1.000000
vt 0.000000 0.000000
vt 1.000000 0.000000
vt 1.000000 1.000000
vt 0.000000 1.000000
vt 0.000000 0.000000
vt 1.000000 0.000000
vt 1.000000 1.000000
vt 0.000000 1.000000
vt 0.000000 0.000000
vt 1.000000 0.000000
vt 1.000000 1.000000
vt 0.000000 1.000000
vt 0.000000 0.000000
vt 1.000000 0.000000
vt 1.000000 1.000000
vt 0.000000 1.000000
vt 0.000000 0.000000
vt 1.000000 0.000000
vt 1.000000 1.000000
vt 0.000000 1.000000
vt 0.000000 0.000000
vt 1.000000 0.000000
vt 1.000000 1.000000
vt 0.000000 1.000000
vt 0.000000 0.000000
vt 1.000000 0.000000
vt 1.000000 1.000000
vt 0.000000 1.000000
vt 0.000000 0.000000
vt 1.000000 0.000000
vt 1.000000 1.000000
vt 0.000000 1.000000
vt 0.000000 0.000000
vt 1.000000 0.000000
vt 1.000000 1.000000
vt 0.000000 1.000000
vt 0.000000 0.000000
vt 1.000000 0.000000
vt 1.000000 1.000000
vt 0.000000 1.000000
vt 0.500000 0.500000
vt 0.000000 0.000000
vt 1.000000 0.000000
vt 0.000000 0.000000
vt 1.000000 0.000000
vt 0.000000 0.000000
vt 1.000000 0.000000
vt 0.000000 0.000000
vt 1.000000 0.000000
vt 0.000000 0.000000
vt 1.000000 0.000000
vt 0.000000 0.000000
vt 1.000000 0.000000
vt 0.000000 0.000000
vt 1.000000 0.000000
vt 0.000000 0.000000
vt 1.000000 0.000000
vt 0.000000 0.000000
vt 1.000000 0.000000
vt 0.000000 0.000000
vt 1.000000 0.000000
vt 0.000000 0.000000
vt 1.000000 0.000000
vt 0.000000 0.000000
vt 1.000000 0.000000
vt 0.000000 0.000000
vt 1.000000 0.000000
vt 0.000000 0.000000
vt 1.000000 0.000000
vt 0.000000 0.000000
vt 1.000000 0.000000
vt 0.000000 0.000000
vt 1.000000 0.000000
vt 0.000000 0.000000
vt 1.000000 0.000000
vt 0.000000 0.000000
vt 1.000000 0.000000
vt 0.500000 0.500000
vt 0.000000 0.000000
vt 1.000000 0.000000
vt 0.000000 0.000000
vt 1.000000 0.000000
vt 0.000000 0.000000
vt 1.000000 0.000000
vt 0.000000 0.000000
vt 1.000000 0.000000
vt 0.000000 0.000000
vt 1.000000 0.000000
vt 0.000000 0.000000
vt 1.000000 0.000000
vt 0.000000 0.000000
vt 1.000000 0.000000
vt 0.000000 0.000000
vt 1.000000 0.000000
vt 0.000000 0.000000
vt 1.000000 0.000000
vt 0.000000 0.000000
vt 1.000000 0.000000
vt 0.000000 0.000000
vt 1.000000 0.000000
vt 0.000000 0.000000
vt 1.000000 0.000000
vt 0.000000 0.000000
vt 1.000000 0.000000
vt 0.000000 0.000000
vt 1.000000 0.000000
vt 0.000000 0.000000
vt 1.000000 0.000000
vt 0.000000 0.000000
vt 1.000000 0.000000
vt 0.000000 0.000000
vt 1.000000 0.000000
vt 0.000000 0.000000
vt 1.000000 0.000000
vt 0.000000 0.000000
vt 1.000000 0.000000
vt 1.000000 1.000000
vt 0.000000 1.000000
vt 0.000000 0.000000
vt 1.000000 0.000000
vt 1.000000 1.000000
vt 0.000000 1.000000
vt 0.000000 0.000000
vt 1.000000 0.000000
vt 1.000000 1.000000
vt 0.000000 1.000000
vt 0.000000 0.000000
vt 1.000000 0.000000
vt 1.000000 1.000000
vt 0.000000 1.000000
vt 0.000000 0.000000
vt 1.000000 0.000000
vt 1.000000 1.000000
vt 0.000000 1.000000
vt 0.000000 0.000000
vt 1.000000 0.000000
vt 1.000000 1.000000
vt 0.000000 1.000000
vt 0.000000 0.000000
vt 1.000000 0.000000
vt 1.000000 1.000000
vt 0.000000 1.000000
vt 0.000000 0.000000
vt 1.000000 0.000000
vt 1.000000 1.000000
vt 0.000000 1.000000
vt 0.000000 0.000000
vt 1.000000 0.000000
vt 1.000000 1.000000
vt 0.000000 1.000000
vt 0.000000 0.000000
vt 1.000000 0.000000
vt 1.000000 1.000000
vt 0.000000 1.000000
vt 0.000000 0.000000
vt 1.000000 0.000000
vt 1.000000 1.000000
vt 0.000000 1.000000
vt 0.000000 0.000000
vt 1.000000 0.000000
vt 1.000000 1.000000
vt 0.000000 1.000000
vt 0.000000 0.000000
vt 1.000000 0.000000
vt 1.000000 1.000000
vt 0.000000 1.000000
vt 0.000000 0.000000
vt 1.000000 0.000000
vt 1.000000 1.000000
vt 0.000000 1.000000
vt 0.000000 0.000000
vt 1.000000 0.000000
vt 1.000000 1.000000
vt 0.000000 1.000000
vt 0.000000 0.000000
vt 1.000000 0.000000
vt 1.000000 1.000000
vt 0.000000 1.000000
vt 0.000000 0.000000
vt 1.000000 0.000000
vt 1.000000 1.000000
vt 0.000000 1.000000
vt 0.000000 0.000000
vt 1.000000 0.000000
vt 1.000000 1.000000
vt 0.000000 1.000000
vt 0.000000 0.000000
vt 1.000000 0.000000
vt 1.000000 1.000000
vt 0.000000 1.000000
vt 0.000000 0.000000
vt 1.000000 0.000000
vt 1.000000 1.000000
vt 0.000000 1.000000
vt 0.000000 0.000000
vt 1.000000 0.000000
vt 1.000000 1.000000
vt 0.000000 1.000000
vt 0.000000 0.000000
vt 1.000000 0.000000
vt 1.000000 1.000000
vt 0.000000 1.000000
vt 0.000000 0.000000
vt 1.000000 0.000000
vt 1.000000 1.000000
vt 0.000000 1.000000
vt 0.000000 0.000000
vt 1.000000 0.000000
vt 1.000000 1.000000
vt 0.000000 1.000000
vt 0.000000 0.000000
vt 1.000000 0.000000
vt 1.000000 1.000000
vt 0.000000 1.000000
vt 0.000000 0.000000
vt 1.000000 0.000000
vt 1.000000 1.000000
vt 0.000000 1.000000
vt 0.000000 0.000000
vt 1.000000 0.000000
vt 1.000000 1.000000
vt 0.000000 1.000000
vt 0.000000 0.000000
vt 1.000000 0.000000
vt 1.000000 1.000000
vt 0.000000 1.000000
vt 0.000000 0.000000
vt 1.000000 0.000000
vt 1.000000 1.000000
vt 0.000000 1.000000
vt 0.000000 0.000000
vt 1.000000 0.000000
vt 1.000000 1.000000
vt 0.000000 1.000000
vt 0.000000 0.000000
vt 1.000000 0.000000
vt 1.000000 1.000000
vt 0.000000 1.000000
vt 0.000000 0.000000
vt 1.000000 0.000000
vt 1.000000 1.000000
vt 0.000000 1.000000
vt 0.000000 0.000000
vt 1.000000 0.000000
vt 1.000000 1.000000
vt 0.000000 1.000000
vt 0.000000 0.000000
vt 1.000000 0.000000
vt 1.000000 1.000000
vt 0.000000 1.000000
vt 0.000000 0.000000
vt 1.000000 0.000000
vt 1.000000 1.000000
vt 0.000000 1.000000
vt 0.000000 0.000000
vt 1.000000 0.000000
vt 1.000000 1.000000
vt 0.000000 1.000000
vt 0.000000 0.000000
vt 1.000000 0.000000
vt 1.000000 1.000000
vt 0.000000 1.000000
vt 0.000000 0.000000
vt 1.000000 0.000000
vt 1.000000 1.000000
vt 0.000000 1.000000
vt 0.000000 0.000000
vt 1.000000 0.000000
vt 1.000000 1.000000
vt 0.000000 1.000000
vt 0.000000 0.000000
vt 1.000000 0.000000
vt 1.000000 1.000000
vt 0.000000 1.000000
vt 0.000000 0.000000
vt 1.000000 0.000000
vt 1.000000 1.000000
vt 0.000000 1.000000
vt 0.000000 0.000000
vt 1.000000 0.000000
vt 1.000000 1.000000
vt 0.000000 1.000000
vt 0.000000 0.000000
vt 1.000000 0.000000
vt 1.000000 1.000000
vt 0.000000 1.000000
vt 0.000000 0.000000
vt 1.000000 0.000000
vt 1.000000 1.000000
vt 0.000000 1.000000
vt 0.000000 0.000000
vt 1.000000 0.000000
vt 1.000000 1.000000
vt 0.000000 1.000000
vt 0.000000 0.000000
vt 1.000000 0.000000
vt 1.000000 1.000000
vt 0.000000 1.000000
vt 0.000000 0.000000
vt 1.000000 0.000000
vt 1.000000 1.000000
vt 0.000000 1.000000
vt 0.000000 0.000000
vt 1.000000 0.000000
vt 1.000000 1.000000
vt 0.000000 1.000000
vt 0.000000 0.000000
vt 1.000000 0.000000
vt 1.000000 1.000000
vt 0.000000 1.000000
vt 0.000000 0.000000
vt 1.000000 0.000000
vt 1.000000 1.000000
vt 0.000000 1.000000
vt 0.000000 0.000000
vt 1.000000 0.000000
vt 1.000000 1.000000
vt 0.000000 1.000000
vt 0.000000 0.000000
vt 1.000000 0.000000
vt 1.000000 1.000000
vt 0.000000 1.000000
vt 0.000000 0.000000
vt 1.000000 0.000000
vt 1.000000 1.000000
vt 0.000000 1.000000
vt 0.000000 0.000000
vt 1.000000 0.000000
vt 1.000000 1.000000
vt 0.000000 1.000000
vt 0.000000 0.000000
vt 1.000000 0.000000
vt 1.000000 1.000000
vt 0.000000 1.000000
vt 0.000000 0.000000
vt 1.000000 0.000000
vt 1.000000 1.000000
vt 0.000000 1.000000
vt 0.000000 0.000000
vt 1.000000 0.000000
vt 1.000000 1.000000
vt 0.000000 1.000000
vt 0.000000 0.000000
vt 1.000000 0.000000
vt 1.000000 1.000000
vt 0.000000 1.000000
vt 0.000000 0.000000
vt 1.000000 0.000000
vt 1.000000 1.000000
vt 0.000000 1.000000
vt 0.000000 0.000000
vt 1.000000 0.000000
vt 1.000000 1.000000
vt 0.000000 1.000000
vt 0.000000 0.000000
vt 1.000000 0.000000
vt 1.000000 1.000000
vt 0.000000 1.000000
vt 0.000000 0.000000
vt 1.000000 0.000000
vt 1.000000 1.000000
vt 0.000000 1.000000
vt 0.000000 0.000000
vt 1.000000 0.000000
vt 1.000000 1.000000
vt 0.000000 1.000000
vt 0.000000 0.000000
vt 1.000000 0.000000
vt 1.000000 1.000000
vt 0.000000 1.000000
vt 0.000000 0.000000
vt 1.000000 0.000000
vt 1.000000 1.000000
vt 0.000000 1.000000
vt 0.000000 0.000000
vt 1.000000 0.000000
vt 1.000000 1.000000
vt 0.000000 1.000000
vt 0.000000 0.000000
vt 1.000000 0.000000
vt 1.000000 1.000000
vt 0.000000 1.000000
vt 0.000000 0.000000
vt 1.000000 0.000000
vt 1.000000 1.000000
vt 0.000000 1.000000
vt 0.000000 0.000000
vt 1.000000 0.000000
vt 1.000000 1.000000
vt 0.000000 1.000000
vt 0.000000 0.000000
vt 1.000000 0.000000
vt 1.000000 1.000000
vt 0.000000 1.000000
vt 0.000000 0.000000
vt 1.000000 0.000000
vt 1.000000 1.000000
vt 0.000000 1.000000
vt 0.000000 0.000000
vt 1.000000 0.000000
vt 1.000000 1.000000
vt 0.000000 1.000000
vt 0.000000 0.000000
vt 1.000000 0.000000
vt 1.000000 1.000000
vt 0.000000 1.000000
vt 0.000000 0.000000
vt 1.000000 0.000000
vt 1.000000 1.000000
vt 0.000000 1.000000
vt 0.000000 0.000000
vt 1.000000 0.000000
vt 1.000000 1.000000
vt 0.000000 1.000000
vt 0.000000 0.000000
vt 1.000000 0.000000
vt 1.000000 1.000000
vt 0.000000 1.000000
vt 0.000000 0.000000
vt 1.000000 0.000000
vt 1.000000 1.000000
vt 0.000000 1.000000
vt 0.000000 0.000000
vt 1.000000 0.000000
vt 1.000000 1.000000
vt 0.000000 1.000000
vt 0.000000 0.000000
vt 1.000000 0.000000
vt 1.000000 1.000000
vt 0.000000 1.000000
vt 0.000000 0.000000
vt 1.000000 0.000000
vt 1.000000 1.000000
vt 0.000000 1.000000
vt 0.000000 0.000000
vt 1.000000 0.000000
vt 1.000000 1.000000
vt 0.000000 1.000000
vt 0.000000 0.000000
vt 1.000000 0.000000
vt 1.000000 1.000000
vt 0.000000 1.000000
vt 0.000000 0.000000
vt 1.000000 0.000000
vt 1.000000 1.000000
vt 0.000000 1.000000
vt 0.000000 0.000000
vt 1.000000 0.000000
vt 1.000000 1.000000
vt 0.000000 1.000000
vt 0.000000 0.000000
vt 1.000000 0.000000
vt 1.000000 1.000000
vt 0.000000 1.000000
vt 0.000000 0.000000
vt 1.000000 0.000000
vt 1.000000 1.000000
vt 0.000000 1.000000
vt 0.000000 0.000000
vt 1.000000 0.000000
vt 1.000000 1.000000
vt 0.000000 1.000000
vt 0.000000 0.000000
vt 1.000000 0.000000
vt 1.000000 1.000000
vt 0.000000 1.000000
vt 0.000000 0.000000
vt 1.000000 0.000000
vt 1.000000 1.000000
vt 0.000000 1.000000
vt 0.000000 0.000000
vt 1.000000 0.000000
vt 1.000000 1.000000
vt 0.000000 1.000000
vt 0.000000 0.000000
vt 1.000000 0.000000
vt 1.000000 1.000000
vt 0.000000 1.000000
vt 0.000000 0.000000
vt 1.000000 0.000000
vt 1.000000 1.000000
vt 0.000000 1.000000
vt 0.000000 0.000000
vt 1.000000 0.000000
vt 1.000000 1.000000
vt 0.000000 1.000000
vt 0.000000 0.000000
vt 1.000000 0.000000
vt 1.000000 1.000000
vt 0.000000 1.000000
vt 0.000000 0.000000
vt 1.000000 0.000000
vt 1.000000 1.000000
vt 0.000000 1.000000
vt 0.000000 0.000000
vt 1.000000 0.000000
vt 1.000000 1.000000
vt 0.000000 1.000000
usemtl Metal
f 1/1 2/2 3/3
f 1/1 3/3 4/4
f 5/5 6/6 7/7
f 5/5 7/7 8/8
f 9/9 10/10 11/11
f 9/9 11/11 12/12
f 13/13 14/14 15/15
f 13/13 15/15 16/16
f 17/17 18/18 19/19
f 17/17 19/19 20/20
f 21/21 22/22 23/23
f 21/21 23/23 24/24
f 25/25 26/26 27/27
f 25/25 27/27 28/28
f 29/29 30/30 31/31
f 29/29 31/31 32/32
f 33/33 34/34 35/35
f 33/33 35/35 36/36
f 37/37 38/38 39/39
f 37/37 39/39 40/40
f 41/41 42/42 43/43
f 41/41 43/43 44/44
f 45/45 46/46 47/47
f 45/45 47/47 48/48
f 49/49 50/50 51/51
f 49/49 51/51 52/52
f 53/53 54/54 55/55
f 53/53 55/55 56/56
f 57/57 58/58 59/59
f 57/57 59/59 60/60
f 61/61 62/62 63/63
f 61/61 63/63 64/64
f 65/65 66/66 67/67
f 65/65 67/67 68/68
f 69/69 70/70 71/71
f 69/69 71/71 72/72
f 73/73 75/75 74/74
f 73/73 77/77 76/76
f 73/73 79/79 78/78
f 73/73 81/81 80/80
f 73/73 83/83 82/82
f 73/73 85/85 84/84
f 73/73 87/87 86/86
f 73/73 89/89 88/88
f 73/73 91/91 90/90
f 73/73 93/93 92/92
f 73/73 95/95 94/94
f 73/73 97/97 96/96
f 73/73 99/99 98/98
f 73/73 101/101 100/100
f 73/73 103/103 102/102
f 73/73 105/105 104/104
f 73/73 107/107 106/106
f 73/73 109/109 108/108
f 110/110 111/111 112/112
f 110/110 113/113 114/114
f 110/110 115/115 116/116
f 110/110 117/117 118/118
f 110/110 119/119 120/120
f 110/110 121/121 122/122
f 110/110 123/123 124/124
f 110/110 125/125 126/126
f 110/110 127/127 128/128
f 110/110 129/129 130/130
f 110/110 131/131 132/132
f 110/110 133/133 134/134
f 110/110 135/135 136/136
f 110/110 137/137 138/138
f 110/110 139/139 140/140
f 110/110 141/141 142/142
f 110/110 143/143 144/144
f 110/110 145/145 146/146
f 147/147 148/148 149/149
f 147/147 149/149 150/150
f 151/151 152/152 153/153
f 151/151 153/153 154/154
f 155/155 156/156 157/157
f 155/155 157/157 158/158
f 159/159 160/160 161/161
f 159/159 161/161 162/162
f 163/163 164/164 165/165
f 163/163 165/165 166/166
f 167/167 168/168 169/169
f 167/167 169/169 170/170
f 171/171 172/172 173/173
f 171/171 173/173 174/174
f 175/175 176/176 177/177
f 175/175 177/177 178/178
f 179/179 180/180 181/181
f 179/179 181/181 182/182
f 183/183 184/184 185/185
f 183/183 185/185 186/186
f 187/187 188/188 189/189
f 187/187 189/189 190/190
f 191/191 192/192 193/193
f 191/191 193/193 194/194
f 195/195 196/196 197/197
f 195/195 197/197 198/198
f 199/199 200/200 201/201
f 199/199 201/201 202/202
f 203/203 204/204 205/205
f 203/203 205/205 206/206
f 207/207 208/208 209/209
f 207/207 209/209 210/210
f 211/211 212/212 213/213
f 211/211 213/213 214/214
f 215/215 216/216 217/217
f 215/215 217/217 218/218
f 219/219 220/220 221/221
f 219/219 221/221 222/222
f 223/223 224/224 225/225
f 223/223 225/225 226/226
f 227/227 228/228 229/229
f 227/227 229/229 230/230
f 231/231 232/232 233/233
f 231/231 233/233 234/234
f 235/235 236/236 237/237
f 235/235 237/237 238/238
f 239/239 240/240 241/241
f 239/239 241/241 242/242
f 243/243 244/244 245/245
f 243/243 245/245 246/246
f 247/247 248/248 249/249
f 247/247 249/249 250/250
f 251/251 252/252 253/253
f 251/251 253/253 254/254
f 255/255 256/256 257/257
f 255/255 257/257 258/258
f 259/259 260/260 261/261
f 259/259 261/261 262/262
f 263/263 264/264 265/265
f 263/263 265/265 266/266
f 267/267 268/268 269/269
f 267/267 269/269 270/270
f 271/271 272/272 273/273
f 271/271 273/273 274/274
f 275/275 276/276 277/277
f 275/275 277/277 278/278
f 279/279 280/280 281/281
f 279/279 281/281 282/282
f 283/283 284/284 285/285
f 283/283 285/285 286/286
f 287/287 288/288 289/289
f 287/287 289/289 290/290
f 291/291 292/292 293/293
f 291/291 293/293 294/294
f 295/295 296/296 297/297
f 295/295 297/297 298/298
f 299/299 300/300 301/301
f 299/299 301/301 302/302
f 303/303 304/304 305/305
f 303/303 305/305 306/306
f 307/307 308/308 309/309
f 307/307 309/309 310/310
f 311/311 312/312 313/313
f 311/311 313/313 314/314
f 315/315 316/316 317/317
f 315/315 317/317 318/318
f 319/319 320/320 321/321
f 319/319 321/321 322/322
f 323/323 324/324 325/325
f 323/323 325/325 326/326
f 327/327 328/328 329/329
f 327/327 329/329 330/330
f 331/331 332/332 333/333
f 331/331 333/333 334/334
f 335/335 336/336 337/337
f 335/335 337/337 338/338
f 339/339 340/340 341/341
f 339/339 341/341 342/342
f 343/343 344/344 345/345
f 343/343 345/345 346/346
f 347/347 348/348 349/349
f 347/347 349/349 350/350
f 351/351 352/352 353/353
f 351/351 353/353 354/354
f 355/355 356/356 357/357
f 355/355 357/357 358/358
f 359/359 360/360 361/361
f 359/359 361/361 362/362
f 363/363 364/364 365/365
f 363/363 365/365 366/366
f 367/367 368/368 369/369
f 367/367 369/369 370/370
f 371/371 372/372 373/373
f 371/371 373/373 374/374
f 375/375 376/376 377/377
f 375/375 377/377 378/378
f 379/379 380/380 381/381
f 379/379 381/381 382/382
f 383/383 384/384 385/385
f 383/383 385/385 386/386
f 387/387 388/388 389/389
f 387/387 389/389 390/390
f 391/391 392/392 393/393
f 391/391 393/393 394/394
f 395/395 396/396 397/397
f 395/395 397/397 398/398
f 399/399 400/400 401/401
f 399/399 401/401 402/402
f 403/403 404/404 405/405
f 403/403 405/405 406/406
f 407/407 408/408 409/409
f 407/407 409/409 410/410
f 411/411 412/412 413/413
f 411/411 413/413 414/414
f 415/415 416/416 417/417
f 415/415 417/417 418/418
f 419/419 420/420 421/421
f 419/419 421/421 422/422
f 423/423 424/424 425/425
f 423/423 425/425 426/426
f 427/427 428/428 429/429
f 427/427 429/429 430/430
f 431/431 432/432 433/433
f 431/431 433/433 434/434
f 435/435 436/436 437/437
f 435/435 437/437 438/438
f 439/439 440/440 441/441
f 439/439 441/441 442/442
f 443/443 444/444 445/445
f 443/443 445/445 446/446
f 447/447 448/448 449/449
f 447/447 449/449 450/450
f 451/451 452/452 453/453
f 451/451 453/453 454/454
f 455/455 456/456 457/457
f 455/455 457/457 458/458
f 459/459 460/460 461/461
f 459/459 461/461 462/462
f 463/463 464/464 465/465
f 463/463 465/465 466/466
f 467/467 468/468 469/469
f 467/467 469/469 470/470
f 471/471 472/472 473/473
f 471/471 473/473 474/474
f 475/475 476/476 477/477
f 475/475 477/477 478/478
f 479/479 480/480 481/481
f 479/479 481/481 482/482
f 483/483 484/484 485/485
f 483/483 485/485 486/486
f 487/487 488/488 489/489
f 487/487 489/489 490/490
f 491/491 492/492 493/493
f 491/491 493/493 494/494
f 495/495 496/496 497/497
f 495/495 497/497 498/498
f 499/499 500/500 501/501
f 499/499 501/501 502/502
f 503/503 504/504 505/505
f 503/503 505/505 506/506
usemtl Cloth
f 507/507 508/508 509/509
f 507/507 509/509 510/510
f 511/511 512/512 513/513
f 511/511 513/513 514/514
f 515/515 516/516 517/517
f 515/515 517/517 518/518
f 519/519 520/520 521/521
f 519/519 521/521 522/522
f 523/523 524/524 525/525
f 523/523 525/525 526/526
f 527/527 528/528 529/529
f 527/527 529/529 530/530
