# PROJECT OEN production source mesh: ENV_EPILOGUE_001
mtllib ENV_EPILOGUE_001.mtl
s off
v -3.500000 0.000000 -3.000000
v 3.500000 0.000000 -3.000000
v 3.500000 0.030000 -3.000000
v -3.500000 0.030000 -3.000000
v -3.500000 0.000000 3.000000
v 3.500000 0.000000 3.000000
v 3.500000 0.030000 3.000000
v -3.500000 0.030000 3.000000
v -2.850000 0.022500 -2.100000
v -1.350000 0.022500 -2.100000
v -1.350000 0.047500 -2.100000
v -2.850000 0.047500 -2.100000
v -2.850000 0.022500 -1.100000
v -1.350000 0.022500 -1.100000
v -1.350000 0.047500 -1.100000
v -2.850000 0.047500 -1.100000
v -0.900000 0.022500 -2.400000
v 0.900000 0.022500 -2.400000
v 0.900000 0.047500 -2.400000
v -0.900000 0.047500 -2.400000
v -0.900000 0.022500 -1.200000
v 0.900000 0.022500 -1.200000
v 0.900000 0.047500 -1.200000
v -0.900000 0.047500 -1.200000
v 1.400000 0.022500 -1.950000
v 2.800000 0.022500 -1.950000
v 2.800000 0.047500 -1.950000
v 1.400000 0.047500 -1.950000
v 1.400000 0.022500 -0.850000
v 2.800000 0.022500 -0.850000
v 2.800000 0.047500 -0.850000
v 1.400000 0.047500 -0.850000
v -2.650000 0.022500 -0.350000
v -0.950000 0.022500 -0.350000
v -0.950000 0.047500 -0.350000
v -2.650000 0.047500 -0.350000
v -2.650000 0.022500 1.150000
v -0.950000 0.022500 1.150000
v -0.950000 0.047500 1.150000
v -2.650000 0.047500 1.150000
v -0.800000 0.022500 -0.350000
v 1.200000 0.022500 -0.350000
v 1.200000 0.047500 -0.350000
v -0.800000 0.047500 -0.350000
v -0.800000 0.022500 1.350000
v 1.200000 0.022500 1.350000
v 1.200000 0.047500 1.350000
v -0.800000 0.047500 1.350000
v 1.550000 0.022500 0.000000
v 2.850000 0.022500 0.000000
v 2.850000 0.047500 0.000000
v 1.550000 0.047500 0.000000
v 1.550000 0.022500 1.400000
v 2.850000 0.022500 1.400000
v 2.850000 0.047500 1.400000
v 1.550000 0.047500 1.400000
v -0.700000 0.037500 0.950000
v 0.700000 0.037500 0.950000
v 0.700000 0.072500 0.950000
v -0.700000 0.072500 0.950000
v -0.700000 0.037500 2.950000
v 0.700000 0.037500 2.950000
v 0.700000 0.072500 2.950000
v -0.700000 0.072500 2.950000
v 0.385000 0.020000 0.000000
v 0.360104 0.020000 0.060104
v 0.300000 0.020000 0.085000
v 0.239896 0.020000 0.060104
v 0.215000 0.020000 0.000000
v 0.239896 0.020000 -0.060104
v 0.300000 0.020000 -0.085000
v 0.360104 0.020000 -0.060104
v 0.385000 0.180000 0.000000
v 0.360104 0.180000 0.060104
v 0.300000 0.180000 0.085000
v 0.239896 0.180000 0.060104
v 0.215000 0.180000 0.000000
v 0.239896 0.180000 -0.060104
v 0.300000 0.180000 -0.085000
v 0.360104 0.180000 -0.060104
v 0.327705 0.020000 0.176336
v 0.302809 0.020000 0.236440
v 0.242705 0.020000 0.261336
v 0.182601 0.020000 0.236440
v 0.157705 0.020000 0.176336
v 0.182601 0.020000 0.116231
v 0.242705 0.020000 0.091336
v 0.302809 0.020000 0.116231
v 0.327705 0.180000 0.176336
v 0.302809 0.180000 0.236440
v 0.242705 0.180000 0.261336
v 0.182601 0.180000 0.236440
v 0.157705 0.180000 0.176336
v 0.182601 0.180000 0.116231
v 0.242705 0.180000 0.091336
v 0.302809 0.180000 0.116231
v 0.177705 0.020000 0.285317
v 0.152809 0.020000 0.345421
v 0.092705 0.020000 0.370317
v 0.032601 0.020000 0.345421
v 0.007705 0.020000 0.285317
v 0.032601 0.020000 0.225213
v 0.092705 0.020000 0.200317
v 0.152809 0.020000 0.225213
v 0.177705 0.180000 0.285317
v 0.152809 0.180000 0.345421
v 0.092705 0.180000 0.370317
v 0.032601 0.180000 0.345421
v 0.007705 0.180000 0.285317
v 0.032601 0.180000 0.225213
v 0.092705 0.180000 0.200317
v 0.152809 0.180000 0.225213
v -0.007705 0.020000 0.285317
v -0.032601 0.020000 0.345421
v -0.092705 0.020000 0.370317
v -0.152809 0.020000 0.345421
v -0.177705 0.020000 0.285317
v -0.152809 0.020000 0.225213
v -0.092705 0.020000 0.200317
v -0.032601 0.020000 0.225213
v -0.007705 0.180000 0.285317
v -0.032601 0.180000 0.345421
v -0.092705 0.180000 0.370317
v -0.152809 0.180000 0.345421
v -0.177705 0.180000 0.285317
v -0.152809 0.180000 0.225213
v -0.092705 0.180000 0.200317
v -0.032601 0.180000 0.225213
v -0.157705 0.020000 0.176336
v -0.182601 0.020000 0.236440
v -0.242705 0.020000 0.261336
v -0.302809 0.020000 0.236440
v -0.327705 0.020000 0.176336
v -0.302809 0.020000 0.116231
v -0.242705 0.020000 0.091336
v -0.182601 0.020000 0.116231
v -0.157705 0.180000 0.176336
v -0.182601 0.180000 0.236440
v -0.242705 0.180000 0.261336
v -0.302809 0.180000 0.236440
v -0.327705 0.180000 0.176336
v -0.302809 0.180000 0.116231
v -0.242705 0.180000 0.091336
v -0.182601 0.180000 0.116231
v -0.215000 0.020000 0.000000
v -0.239896 0.020000 0.060104
v -0.300000 0.020000 0.085000
v -0.360104 0.020000 0.060104
v -0.385000 0.020000 0.000000
v -0.360104 0.020000 -0.060104
v -0.300000 0.020000 -0.085000
v -0.239896 0.020000 -0.060104
v -0.215000 0.180000 0.000000
v -0.239896 0.180000 0.060104
v -0.300000 0.180000 0.085000
v -0.360104 0.180000 0.060104
v -0.385000 0.180000 0.000000
v -0.360104 0.180000 -0.060104
v -0.300000 0.180000 -0.085000
v -0.239896 0.180000 -0.060104
v -0.157705 0.020000 -0.176336
v -0.182601 0.020000 -0.116231
v -0.242705 0.020000 -0.091336
v -0.302809 0.020000 -0.116231
v -0.327705 0.020000 -0.176336
v -0.302809 0.020000 -0.236440
v -0.242705 0.020000 -0.261336
v -0.182601 0.020000 -0.236440
v -0.157705 0.180000 -0.176336
v -0.182601 0.180000 -0.116231
v -0.242705 0.180000 -0.091336
v -0.302809 0.180000 -0.116231
v -0.327705 0.180000 -0.176336
v -0.302809 0.180000 -0.236440
v -0.242705 0.180000 -0.261336
v -0.182601 0.180000 -0.236440
v -0.007705 0.020000 -0.285317
v -0.032601 0.020000 -0.225213
v -0.092705 0.020000 -0.200317
v -0.152809 0.020000 -0.225213
v -0.177705 0.020000 -0.285317
v -0.152809 0.020000 -0.345421
v -0.092705 0.020000 -0.370317
v -0.032601 0.020000 -0.345421
v -0.007705 0.180000 -0.285317
v -0.032601 0.180000 -0.225213
v -0.092705 0.180000 -0.200317
v -0.152809 0.180000 -0.225213
v -0.177705 0.180000 -0.285317
v -0.152809 0.180000 -0.345421
v -0.092705 0.180000 -0.370317
v -0.032601 0.180000 -0.345421
v 0.177705 0.020000 -0.285317
v 0.152809 0.020000 -0.225213
v 0.092705 0.020000 -0.200317
v 0.032601 0.020000 -0.225213
v 0.007705 0.020000 -0.285317
v 0.032601 0.020000 -0.345421
v 0.092705 0.020000 -0.370317
v 0.152809 0.020000 -0.345421
v 0.177705 0.180000 -0.285317
v 0.152809 0.180000 -0.225213
v 0.092705 0.180000 -0.200317
v 0.032601 0.180000 -0.225213
v 0.007705 0.180000 -0.285317
v 0.032601 0.180000 -0.345421
v 0.092705 0.180000 -0.370317
v 0.152809 0.180000 -0.345421
v 0.327705 0.020000 -0.176336
v 0.302809 0.020000 -0.116231
v 0.242705 0.020000 -0.091336
v 0.182601 0.020000 -0.116231
v 0.157705 0.020000 -0.176336
v 0.182601 0.020000 -0.236440
v 0.242705 0.020000 -0.261336
v 0.302809 0.020000 -0.236440
v 0.327705 0.180000 -0.176336
v 0.302809 0.180000 -0.116231
v 0.242705 0.180000 -0.091336
v 0.182601 0.180000 -0.116231
v 0.157705 0.180000 -0.176336
v 0.182601 0.180000 -0.236440
v 0.242705 0.180000 -0.261336
v 0.302809 0.180000 -0.236440
v -0.850000 0.130000 -0.660000
v -0.850000 0.130000 -0.840000
v -0.850000 0.310000 -0.660000
v -0.850000 0.310000 -0.840000
v 0.850000 0.130000 -0.660000
v 0.850000 0.130000 -0.840000
v 0.850000 0.310000 -0.660000
v 0.850000 0.310000 -0.840000
v -1.217989 0.120000 0.927951
v -1.182011 0.120000 0.772049
v -1.217989 0.280000 0.927951
v -1.182011 0.280000 0.772049
v 0.082011 0.120000 1.227951
v 0.117989 0.120000 1.072049
v 0.082011 0.280000 1.227951
v 0.117989 0.280000 1.072049
v 1.075000 0.035000 0.590000
v 2.025000 0.035000 0.590000
v 2.025000 0.075000 0.590000
v 1.075000 0.075000 0.590000
v 1.075000 0.035000 1.310000
v 2.025000 0.035000 1.310000
v 2.025000 0.075000 1.310000
v 1.075000 0.075000 1.310000
v -0.900000 0.050000 2.640000
v 0.900000 0.050000 2.640000
v 0.900000 0.090000 2.640000
v -0.900000 0.090000 2.640000
v -0.900000 0.050000 2.860000
v 0.900000 0.050000 2.860000
v 0.900000 0.090000 2.860000
v -0.900000 0.090000 2.860000
v 2.205000 0.050000 -1.495000
v 2.205000 0.050000 -1.405000
v 2.295000 0.050000 -1.495000
v 2.295000 0.050000 -1.405000
v 2.205000 1.550000 -1.495000
v 2.205000 1.550000 -1.405000
v 2.295000 1.550000 -1.495000
v 2.295000 1.550000 -1.405000
v 1.950000 1.210000 -1.410000
v 1.950000 1.210000 -1.490000
v 1.950000 1.290000 -1.410000
v 1.950000 1.290000 -1.490000
v 2.550000 1.210000 -1.410000
v 2.550000 1.210000 -1.490000
v 2.550000 1.290000 -1.410000
v 2.550000 1.290000 -1.490000
v -0.035000 0.055000 1.750000
v 0.035000 0.055000 1.750000
v -0.035000 0.125000 1.750000
v 0.035000 0.125000 1.750000
v -0.035000 0.055000 2.900000
v 0.035000 0.055000 2.900000
v -0.035000 0.125000 2.900000
v 0.035000 0.125000 2.900000
vt 0.000000 0.000000
vt 1.000000 0.000000
vt 1.000000 1.000000
vt 0.000000 1.000000
vt 0.000000 0.000000
vt 1.000000 0.000000
vt 1.000000 1.000000
vt 0.000000 1.000000
vt 0.000000 0.000000
vt 1.000000 0.000000
vt 1.000000 1.000000
vt 0.000000 1.000000
vt 0.000000 0.000000
vt 1.000000 0.000000
vt 1.000000 1.000000
vt 0.000000 1.000000
vt 0.000000 0.000000
vt 1.000000 0.000000
vt 1.000000 1.000000
vt 0.000000 1.000000
vt 0.000000 0.000000
vt 1.000000 0.000000
vt 1.000000 1.000000
vt 0.000000 1.000000
vt 0.000000 0.000000
vt 1.000000 0.000000
vt 1.000000 1.000000
vt 0.000000 1.000000
vt 0.000000 0.000000
vt 1.000000 0.000000
vt 1.000000 1.000000
vt 0.000000 1.000000
vt 0.000000 0.000000
vt 1.000000 0.000000
vt 1.000000 1.000000
vt 0.000000 1.000000
vt 0.000000 0.000000
vt 1.000000 0.000000
vt 1.000000 1.000000
vt 0.000000 1.000000
vt 0.000000 0.000000
vt 1.000000 0.000000
vt 1.000000 1.000000
vt 0.000000 1.000000
vt 0.000000 0.000000
vt 1.000000 0.000000
vt 1.000000 1.000000
vt 0.000000 1.000000
vt 0.000000 0.000000
vt 1.000000 0.000000
vt 1.000000 1.000000
vt 0.000000 1.000000
vt 0.000000 0.000000
vt 1.000000 0.000000
vt 1.000000 1.000000
vt 0.000000 1.000000
vt 0.000000 0.000000
vt 1.000000 0.000000
vt 1.000000 1.000000
vt 0.000000 1.000000
vt 0.000000 0.000000
vt 1.000000 0.000000
vt 1.000000 1.000000
vt 0.000000 1.000000
vt 0.000000 0.000000
vt 1.000000 0.000000
vt 1.000000 1.000000
vt 0.000000 1.000000
vt 0.000000 0.000000
vt 1.000000 0.000000
vt 1.000000 1.000000
vt 0.000000 1.000000
vt 0.000000 0.000000
vt 1.000000 0.000000
vt 1.000000 1.000000
vt 0.000000 1.000000
vt 0.000000 0.000000
vt 1.000000 0.000000
vt 1.000000 1.000000
vt 0.000000 1.000000
vt 0.000000 0.000000
vt 1.000000 0.000000
vt 1.000000 1.000000
vt 0.000000 1.000000
vt 0.000000 0.000000
vt 1.000000 0.000000
vt 1.000000 1.000000
vt 0.000000 1.000000
vt 0.000000 0.000000
vt 1.000000 0.000000
vt 1.000000 1.000000
vt 0.000000 1.000000
vt 0.000000 0.000000
vt 1.000000 0.000000
vt 1.000000 1.000000
vt 0.000000 1.000000
vt 0.000000 0.000000
vt 1.000000 0.000000
vt 1.000000 1.000000
vt 0.000000 1.000000
vt 0.000000 0.000000
vt 1.000000 0.000000
vt 1.000000 1.000000
vt 0.000000 1.000000
vt 0.000000 0.000000
vt 1.000000 0.000000
vt 1.000000 1.000000
vt 0.000000 1.000000
vt 0.000000 0.000000
vt 1.000000 0.000000
vt 1.000000 1.000000
vt 0.000000 1.000000
vt 0.000000 0.000000
vt 1.000000 0.000000
vt 1.000000 1.000000
vt 0.000000 1.000000
vt 0.000000 0.000000
vt 1.000000 0.000000
vt 1.000000 1.000000
vt 0.000000 1.000000
vt 0.000000 0.000000
vt 1.000000 0.000000
vt 1.000000 1.000000
vt 0.000000 1.000000
vt 0.000000 0.000000
vt 1.000000 0.000000
vt 1.000000 1.000000
vt 0.000000 1.000000
vt 0.000000 0.000000
vt 1.000000 0.000000
vt 1.000000 1.000000
vt 0.000000 1.000000
vt 0.000000 0.000000
vt 1.000000 0.000000
vt 1.000000 1.000000
vt 0.000000 1.000000
vt 0.000000 0.000000
vt 1.000000 0.000000
vt 1.000000 1.000000
vt 0.000000 1.000000
vt 0.000000 0.000000
vt 1.000000 0.000000
vt 1.000000 1.000000
vt 0.000000 1.000000
vt 0.000000 0.000000
vt 1.000000 0.000000
vt 1.000000 1.000000
vt 0.000000 1.000000
vt 0.000000 0.000000
vt 1.000000 0.000000
vt 1.000000 1.000000
vt 0.000000 1.000000
vt 0.000000 0.000000
vt 1.000000 0.000000
vt 1.000000 1.000000
vt 0.000000 1.000000
vt 0.000000 0.000000
vt 1.000000 0.000000
vt 1.000000 1.000000
vt 0.000000 1.000000
vt 0.000000 0.000000
vt 1.000000 0.000000
vt 1.000000 1.000000
vt 0.000000 1.000000
vt 0.000000 0.000000
vt 1.000000 0.000000
vt 1.000000 1.000000
vt 0.000000 1.000000
vt 0.000000 0.000000
vt 1.000000 0.000000
vt 1.000000 1.000000
vt 0.000000 1.000000
vt 0.000000 0.000000
vt 1.000000 0.000000
vt 1.000000 1.000000
vt 0.000000 1.000000
vt 0.000000 0.000000
vt 1.000000 0.000000
vt 1.000000 1.000000
vt 0.000000 1.000000
vt 0.000000 0.000000
vt 1.000000 0.000000
vt 1.000000 1.000000
vt 0.000000 1.000000
vt 0.000000 0.000000
vt 1.000000 0.000000
vt 1.000000 1.000000
vt 0.000000 1.000000
vt 0.000000 0.000000
vt 1.000000 0.000000
vt 1.000000 1.000000
vt 0.000000 1.000000
vt 0.000000 0.000000
vt 1.000000 0.000000
vt 1.000000 1.000000
vt 0.000000 1.000000
vt 0.000000 0.000000
vt 1.000000 0.000000
vt 1.000000 1.000000
vt 0.000000 1.000000
vt 0.000000 0.000000
vt 1.000000 0.000000
vt 1.000000 1.000000
vt 0.000000 1.000000
vt 0.000000 0.000000
vt 1.000000 0.000000
vt 1.000000 1.000000
vt 0.000000 1.000000
vt 0.000000 0.000000
vt 1.000000 0.000000
vt 1.000000 1.000000
vt 0.000000 1.000000
vt 0.000000 0.000000
vt 1.000000 0.000000
vt 1.000000 1.000000
vt 0.000000 1.000000
vt 0.000000 0.000000
vt 1.000000 0.000000
vt 1.000000 1.000000
vt 0.000000 1.000000
vt 0.000000 0.000000
vt 1.000000 0.000000
vt 1.000000 1.000000
vt 0.000000 1.000000
vt 1.000000 0.500000
vt 0.853553 0.853553
vt 0.500000 1.000000
vt 0.146447 0.853553
vt 0.000000 0.500000
vt 0.146447 0.146447
vt 0.500000 0.000000
vt 0.853553 0.146447
vt 1.000000 0.500000
vt 0.853553 0.853553
vt 0.500000 1.000000
vt 0.146447 0.853553
vt 0.000000 0.500000
vt 0.146447 0.146447
vt 0.500000 0.000000
vt 0.853553 0.146447
vt 0.000000 0.000000
vt 1.000000 0.000000
vt 1.000000 1.000000
vt 0.000000 1.000000
vt 0.000000 0.000000
vt 1.000000 0.000000
vt 1.000000 1.000000
vt 0.000000 1.000000
vt 0.000000 0.000000
vt 1.000000 0.000000
vt 1.000000 1.000000
vt 0.000000 1.000000
vt 0.000000 0.000000
vt 1.000000 0.000000
vt 1.000000 1.000000
vt 0.000000 1.000000
vt 0.000000 0.000000
vt 1.000000 0.000000
vt 1.000000 1.000000
vt 0.000000 1.000000
vt 0.000000 0.000000
vt 1.000000 0.000000
vt 1.000000 1.000000
vt 0.000000 1.000000
vt 0.000000 0.000000
vt 1.000000 0.000000
vt 1.000000 1.000000
vt 0.000000 1.000000
vt 0.000000 0.000000
vt 1.000000 0.000000
vt 1.000000 1.000000
vt 0.000000 1.000000
vt 1.000000 0.500000
vt 0.853553 0.853553
vt 0.500000 1.000000
vt 0.146447 0.853553
vt 0.000000 0.500000
vt 0.146447 0.146447
vt 0.500000 0.000000
vt 0.853553 0.146447
vt 1.000000 0.500000
vt 0.853553 0.853553
vt 0.500000 1.000000
vt 0.146447 0.853553
vt 0.000000 0.500000
vt 0.146447 0.146447
vt 0.500000 0.000000
vt 0.853553 0.146447
vt 0.000000 0.000000
vt 1.000000 0.000000
vt 1.000000 1.000000
vt 0.000000 1.000000
vt 0.000000 0.000000
vt 1.000000 0.000000
vt 1.000000 1.000000
vt 0.000000 1.000000
vt 0.000000 0.000000
vt 1.000000 0.000000
vt 1.000000 1.000000
vt 0.000000 1.000000
vt 0.000000 0.000000
vt 1.000000 0.000000
vt 1.000000 1.000000
vt 0.000000 1.000000
vt 0.000000 0.000000
vt 1.000000 0.000000
vt 1.000000 1.000000
vt 0.000000 1.000000
vt 0.000000 0.000000
vt 1.000000 0.000000
vt 1.000000 1.000000
vt 0.000000 1.000000
vt 0.000000 0.000000
vt 1.000000 0.000000
vt 1.000000 1.000000
vt 0.000000 1.000000
vt 0.000000 0.000000
vt 1.000000 0.000000
vt 1.000000 1.000000
vt 0.000000 1.000000
vt 1.000000 0.500000
vt 0.853553 0.853553
vt 0.500000 1.000000
vt 0.146447 0.853553
vt 0.000000 0.500000
vt 0.146447 0.146447
vt 0.500000 0.000000
vt 0.853553 0.146447
vt 1.000000 0.500000
vt 0.853553 0.853553
vt 0.500000 1.000000
vt 0.146447 0.853553
vt 0.000000 0.500000
vt 0.146447 0.146447
vt 0.500000 0.000000
vt 0.853553 0.146447
vt 0.000000 0.000000
vt 1.000000 0.000000
vt 1.000000 1.000000
vt 0.000000 1.000000
vt 0.000000 0.000000
vt 1.000000 0.000000
vt 1.000000 1.000000
vt 0.000000 1.000000
vt 0.000000 0.000000
vt 1.000000 0.000000
vt 1.000000 1.000000
vt 0.000000 1.000000
vt 0.000000 0.000000
vt 1.000000 0.000000
vt 1.000000 1.000000
vt 0.000000 1.000000
vt 0.000000 0.000000
vt 1.000000 0.000000
vt 1.000000 1.000000
vt 0.000000 1.000000
vt 0.000000 0.000000
vt 1.000000 0.000000
vt 1.000000 1.000000
vt 0.000000 1.000000
vt 0.000000 0.000000
vt 1.000000 0.000000
vt 1.000000 1.000000
vt 0.000000 1.000000
vt 0.000000 0.000000
vt 1.000000 0.000000
vt 1.000000 1.000000
vt 0.000000 1.000000
vt 1.000000 0.500000
vt 0.853553 0.853553
vt 0.500000 1.000000
vt 0.146447 0.853553
vt 0.000000 0.500000
vt 0.146447 0.146447
vt 0.500000 0.000000
vt 0.853553 0.146447
vt 1.000000 0.500000
vt 0.853553 0.853553
vt 0.500000 1.000000
vt 0.146447 0.853553
vt 0.000000 0.500000
vt 0.146447 0.146447
vt 0.500000 0.000000
vt 0.853553 0.146447
vt 0.000000 0.000000
vt 1.000000 0.000000
vt 1.000000 1.000000
vt 0.000000 1.000000
vt 0.000000 0.000000
vt 1.000000 0.000000
vt 1.000000 1.000000
vt 0.000000 1.000000
vt 0.000000 0.000000
vt 1.000000 0.000000
vt 1.000000 1.000000
vt 0.000000 1.000000
vt 0.000000 0.000000
vt 1.000000 0.000000
vt 1.000000 1.000000
vt 0.000000 1.000000
vt 0.000000 0.000000
vt 1.000000 0.000000
vt 1.000000 1.000000
vt 0.000000 1.000000
vt 0.000000 0.000000
vt 1.000000 0.000000
vt 1.000000 1.000000
vt 0.000000 1.000000
vt 0.000000 0.000000
vt 1.000000 0.000000
vt 1.000000 1.000000
vt 0.000000 1.000000
vt 0.000000 0.000000
vt 1.000000 0.000000
vt 1.000000 1.000000
vt 0.000000 1.000000
vt 1.000000 0.500000
vt 0.853553 0.853553
vt 0.500000 1.000000
vt 0.146447 0.853553
vt 0.000000 0.500000
vt 0.146447 0.146447
vt 0.500000 0.000000
vt 0.853553 0.146447
vt 1.000000 0.500000
vt 0.853553 0.853553
vt 0.500000 1.000000
vt 0.146447 0.853553
vt 0.000000 0.500000
vt 0.146447 0.146447
vt 0.500000 0.000000
vt 0.853553 0.146447
vt 0.000000 0.000000
vt 1.000000 0.000000
vt 1.000000 1.000000
vt 0.000000 1.000000
vt 0.000000 0.000000
vt 1.000000 0.000000
vt 1.000000 1.000000
vt 0.000000 1.000000
vt 0.000000 0.000000
vt 1.000000 0.000000
vt 1.000000 1.000000
vt 0.000000 1.000000
vt 0.000000 0.000000
vt 1.000000 0.000000
vt 1.000000 1.000000
vt 0.000000 1.000000
vt 0.000000 0.000000
vt 1.000000 0.000000
vt 1.000000 1.000000
vt 0.000000 1.000000
vt 0.000000 0.000000
vt 1.000000 0.000000
vt 1.000000 1.000000
vt 0.000000 1.000000
vt 0.000000 0.000000
vt 1.000000 0.000000
vt 1.000000 1.000000
vt 0.000000 1.000000
vt 0.000000 0.000000
vt 1.000000 0.000000
vt 1.000000 1.000000
vt 0.000000 1.000000
vt 1.000000 0.500000
vt 0.853553 0.853553
vt 0.500000 1.000000
vt 0.146447 0.853553
vt 0.000000 0.500000
vt 0.146447 0.146447
vt 0.500000 0.000000
vt 0.853553 0.146447
vt 1.000000 0.500000
vt 0.853553 0.853553
vt 0.500000 1.000000
vt 0.146447 0.853553
vt 0.000000 0.500000
vt 0.146447 0.146447
vt 0.500000 0.000000
vt 0.853553 0.146447
vt 0.000000 0.000000
vt 1.000000 0.000000
vt 1.000000 1.000000
vt 0.000000 1.000000
vt 0.000000 0.000000
vt 1.000000 0.000000
vt 1.000000 1.000000
vt 0.000000 1.000000
vt 0.000000 0.000000
vt 1.000000 0.000000
vt 1.000000 1.000000
vt 0.000000 1.000000
vt 0.000000 0.000000
vt 1.000000 0.000000
vt 1.000000 1.000000
vt 0.000000 1.000000
vt 0.000000 0.000000
vt 1.000000 0.000000
vt 1.000000 1.000000
vt 0.000000 1.000000
vt 0.000000 0.000000
vt 1.000000 0.000000
vt 1.000000 1.000000
vt 0.000000 1.000000
vt 0.000000 0.000000
vt 1.000000 0.000000
vt 1.000000 1.000000
vt 0.000000 1.000000
vt 0.000000 0.000000
vt 1.000000 0.000000
vt 1.000000 1.000000
vt 0.000000 1.000000
vt 1.000000 0.500000
vt 0.853553 0.853553
vt 0.500000 1.000000
vt 0.146447 0.853553
vt 0.000000 0.500000
vt 0.146447 0.146447
vt 0.500000 0.000000
vt 0.853553 0.146447
vt 1.000000 0.500000
vt 0.853553 0.853553
vt 0.500000 1.000000
vt 0.146447 0.853553
vt 0.000000 0.500000
vt 0.146447 0.146447
vt 0.500000 0.000000
vt 0.853553 0.146447
vt 0.000000 0.000000
vt 1.000000 0.000000
vt 1.000000 1.000000
vt 0.000000 1.000000
vt 0.000000 0.000000
vt 1.000000 0.000000
vt 1.000000 1.000000
vt 0.000000 1.000000
vt 0.000000 0.000000
vt 1.000000 0.000000
vt 1.000000 1.000000
vt 0.000000 1.000000
vt 0.000000 0.000000
vt 1.000000 0.000000
vt 1.000000 1.000000
vt 0.000000 1.000000
vt 0.000000 0.000000
vt 1.000000 0.000000
vt 1.000000 1.000000
vt 0.000000 1.000000
vt 0.000000 0.000000
vt 1.000000 0.000000
vt 1.000000 1.000000
vt 0.000000 1.000000
vt 0.000000 0.000000
vt 1.000000 0.000000
vt 1.000000 1.000000
vt 0.000000 1.000000
vt 0.000000 0.000000
vt 1.000000 0.000000
vt 1.000000 1.000000
vt 0.000000 1.000000
vt 1.000000 0.500000
vt 0.853553 0.853553
vt 0.500000 1.000000
vt 0.146447 0.853553
vt 0.000000 0.500000
vt 0.146447 0.146447
vt 0.500000 0.000000
vt 0.853553 0.146447
vt 1.000000 0.500000
vt 0.853553 0.853553
vt 0.500000 1.000000
vt 0.146447 0.853553
vt 0.000000 0.500000
vt 0.146447 0.146447
vt 0.500000 0.000000
vt 0.853553 0.146447
vt 0.000000 0.000000
vt 1.000000 0.000000
vt 1.000000 1.000000
vt 0.000000 1.000000
vt 0.000000 0.000000
vt 1.000000 0.000000
vt 1.000000 1.000000
vt 0.000000 1.000000
vt 0.000000 0.000000
vt 1.000000 0.000000
vt 1.000000 1.000000
vt 0.000000 1.000000
vt 0.000000 0.000000
vt 1.000000 0.000000
vt 1.000000 1.000000
vt 0.000000 1.000000
vt 0.000000 0.000000
vt 1.000000 0.000000
vt 1.000000 1.000000
vt 0.000000 1.000000
vt 0.000000 0.000000
vt 1.000000 0.000000
vt 1.000000 1.000000
vt 0.000000 1.000000
vt 0.000000 0.000000
vt 1.000000 0.000000
vt 1.000000 1.000000
vt 0.000000 1.000000
vt 0.000000 0.000000
vt 1.000000 0.000000
vt 1.000000 1.000000
vt 0.000000 1.000000
vt 1.000000 0.500000
vt 0.853553 0.853553
vt 0.500000 1.000000
vt 0.146447 0.853553
vt 0.000000 0.500000
vt 0.146447 0.146447
vt 0.500000 0.000000
vt 0.853553 0.146447
vt 1.000000 0.500000
vt 0.853553 0.853553
vt 0.500000 1.000000
vt 0.146447 0.853553
vt 0.000000 0.500000
vt 0.146447 0.146447
vt 0.500000 0.000000
vt 0.853553 0.146447
vt 0.000000 0.000000
vt 1.000000 0.000000
vt 1.000000 1.000000
vt 0.000000 1.000000
vt 0.000000 0.000000
vt 1.000000 0.000000
vt 1.000000 1.000000
vt 0.000000 1.000000
vt 0.000000 0.000000
vt 1.000000 0.000000
vt 1.000000 1.000000
vt 0.000000 1.000000
vt 0.000000 0.000000
vt 1.000000 0.000000
vt 1.000000 1.000000
vt 0.000000 1.000000
vt 0.000000 0.000000
vt 1.000000 0.000000
vt 1.000000 1.000000
vt 0.000000 1.000000
vt 0.000000 0.000000
vt 1.000000 0.000000
vt 1.000000 1.000000
vt 0.000000 1.000000
vt 0.000000 0.000000
vt 1.000000 0.000000
vt 1.000000 1.000000
vt 0.000000 1.000000
vt 0.000000 0.000000
vt 1.000000 0.000000
vt 1.000000 1.000000
vt 0.000000 1.000000
vt 1.000000 0.500000
vt 0.853553 0.853553
vt 0.500000 1.000000
vt 0.146447 0.853553
vt 0.000000 0.500000
vt 0.146447 0.146447
vt 0.500000 0.000000
vt 0.853553 0.146447
vt 1.000000 0.500000
vt 0.853553 0.853553
vt 0.500000 1.000000
vt 0.146447 0.853553
vt 0.000000 0.500000
vt 0.146447 0.146447
vt 0.500000 0.000000
vt 0.853553 0.146447
vt 0.000000 0.000000
vt 1.000000 0.000000
vt 1.000000 1.000000
vt 0.000000 1.000000
vt 0.000000 0.000000
vt 1.000000 0.000000
vt 1.000000 1.000000
vt 0.000000 1.000000
vt 0.000000 0.000000
vt 1.000000 0.000000
vt 1.000000 1.000000
vt 0.000000 1.000000
vt 0.000000 0.000000
vt 1.000000 0.000000
vt 1.000000 1.000000
vt 0.000000 1.000000
vt 0.000000 0.000000
vt 1.000000 0.000000
vt 1.000000 1.000000
vt 0.000000 1.000000
vt 0.000000 0.000000
vt 1.000000 0.000000
vt 1.000000 1.000000
vt 0.000000 1.000000
vt 0.000000 0.000000
vt 1.000000 0.000000
vt 1.000000 1.000000
vt 0.000000 1.000000
vt 0.000000 0.000000
vt 1.000000 0.000000
vt 1.000000 1.000000
vt 0.000000 1.000000
vt 0.000000 0.000000
vt 1.000000 0.000000
vt 1.000000 1.000000
vt 0.000000 1.000000
vt 0.000000 0.000000
vt 1.000000 0.000000
vt 1.000000 1.000000
vt 0.000000 1.000000
vt 0.000000 0.000000
vt 1.000000 0.000000
vt 1.000000 1.000000
vt 0.000000 1.000000
vt 0.000000 0.000000
vt 1.000000 0.000000
vt 1.000000 1.000000
vt 0.000000 1.000000
vt 0.000000 0.000000
vt 1.000000 0.000000
vt 1.000000 1.000000
vt 0.000000 1.000000
vt 0.000000 0.000000
vt 1.000000 0.000000
vt 1.000000 1.000000
vt 0.000000 1.000000
vt 0.000000 0.000000
vt 1.000000 0.000000
vt 1.000000 1.000000
vt 0.000000 1.000000
vt 0.000000 0.000000
vt 1.000000 0.000000
vt 1.000000 1.000000
vt 0.000000 1.000000
vt 0.000000 0.000000
vt 1.000000 0.000000
vt 1.000000 1.000000
vt 0.000000 1.000000
vt 0.000000 0.000000
vt 1.000000 0.000000
vt 1.000000 1.000000
vt 0.000000 1.000000
vt 0.000000 0.000000
vt 1.000000 0.000000
vt 1.000000 1.000000
vt 0.000000 1.000000
vt 0.000000 0.000000
vt 1.000000 0.000000
vt 1.000000 1.000000
vt 0.000000 1.000000
vt 0.000000 0.000000
vt 1.000000 0.000000
vt 1.000000 1.000000
vt 0.000000 1.000000
vt 0.000000 0.000000
vt 1.000000 0.000000
vt 1.000000 1.000000
vt 0.000000 1.000000
vt 0.000000 0.000000
vt 1.000000 0.000000
vt 1.000000 1.000000
vt 0.000000 1.000000
vt 0.000000 0.000000
vt 1.000000 0.000000
vt 1.000000 1.000000
vt 0.000000 1.000000
vt 0.000000 0.000000
vt 1.000000 0.000000
vt 1.000000 1.000000
vt 0.000000 1.000000
vt 0.000000 0.000000
vt 1.000000 0.000000
vt 1.000000 1.000000
vt 0.000000 1.000000
vt 0.000000 0.000000
vt 1.000000 0.000000
vt 1.000000 1.000000
vt 0.000000 1.000000
vt 0.000000 0.000000
vt 1.000000 0.000000
vt 1.000000 1.000000
vt 0.000000 1.000000
vt 0.000000 0.000000
vt 1.000000 0.000000
vt 1.000000 1.000000
vt 0.000000 1.000000
vt 0.000000 0.000000
vt 1.000000 0.000000
vt 1.000000 1.000000
vt 0.000000 1.000000
vt 0.000000 0.000000
vt 1.000000 0.000000
vt 1.000000 1.000000
vt 0.000000 1.000000
vt 0.000000 0.000000
vt 1.000000 0.000000
vt 1.000000 1.000000
vt 0.000000 1.000000
vt 0.000000 0.000000
vt 1.000000 0.000000
vt 1.000000 1.000000
vt 0.000000 1.000000
vt 0.000000 0.000000
vt 1.000000 0.000000
vt 1.000000 1.000000
vt 0.000000 1.000000
vt 0.000000 0.000000
vt 1.000000 0.000000
vt 1.000000 1.000000
vt 0.000000 1.000000
vt 0.000000 0.000000
vt 1.000000 0.000000
vt 1.000000 1.000000
vt 0.000000 1.000000
vt 0.000000 0.000000
vt 1.000000 0.000000
vt 1.000000 1.000000
vt 0.000000 1.000000
vt 0.000000 0.000000
vt 1.000000 0.000000
vt 1.000000 1.000000
vt 0.000000 1.000000
vt 0.000000 0.000000
vt 1.000000 0.000000
vt 1.000000 1.000000
vt 0.000000 1.000000
vt 0.000000 0.000000
vt 1.000000 0.000000
vt 1.000000 1.000000
vt 0.000000 1.000000
vt 0.000000 0.000000
vt 1.000000 0.000000
vt 1.000000 1.000000
vt 0.000000 1.000000
vt 0.000000 0.000000
vt 1.000000 0.000000
vt 1.000000 1.000000
vt 0.000000 1.000000
o ExistingCampFootprint
usemtl MAT_SAND_WET
f 1/1 4/2 3/3 2/4
f 5/5 6/6 7/7 8/8
f 1/9 2/10 6/11 5/12
f 4/13 8/14 7/15 3/16
f 1/17 5/18 8/19 4/20
f 2/21 3/22 7/23 6/24
o RecedingWetnessPatch_1
usemtl MAT_SAND_DRY
f 9/25 12/26 11/27 10/28
f 13/29 14/30 15/31 16/32
f 9/33 10/34 14/35 13/36
f 12/37 16/38 15/39 11/40
f 9/41 13/42 16/43 12/44
f 10/45 11/46 15/47 14/48
o RecedingWetnessPatch_2
f 17/49 20/50 19/51 18/52
f 21/53 22/54 23/55 24/56
f 17/57 18/58 22/59 21/60
f 20/61 24/62 23/63 19/64
f 17/65 21/66 24/67 20/68
f 18/69 19/70 23/71 22/72
o RecedingWetnessPatch_3
f 25/73 28/74 27/75 26/76
f 29/77 30/78 31/79 32/80
f 25/81 26/82 30/83 29/84
f 28/85 32/86 31/87 27/88
f 25/89 29/90 32/91 28/92
f 26/93 27/94 31/95 30/96
o RecedingWetnessPatch_4
f 33/97 36/98 35/99 34/100
f 37/101 38/102 39/103 40/104
f 33/105 34/106 38/107 37/108
f 36/109 40/110 39/111 35/112
f 33/113 37/114 40/115 36/116
f 34/117 35/118 39/119 38/120
o RecedingWetnessPatch_5
f 41/121 44/122 43/123 42/124
f 45/125 46/126 47/127 48/128
f 41/129 42/130 46/131 45/132
f 44/133 48/134 47/135 43/136
f 41/137 45/138 48/139 44/140
f 42/141 43/142 47/143 46/144
o RecedingWetnessPatch_6
f 49/145 52/146 51/147 50/148
f 53/149 54/150 55/151 56/152
f 49/153 50/154 54/155 53/156
f 52/157 56/158 55/159 51/160
f 49/161 53/162 56/163 52/164
f 50/165 51/166 55/167 54/168
o StormReleasePath
f 57/169 60/170 59/171 58/172
f 61/173 62/174 63/175 64/176
f 57/177 58/178 62/179 61/180
f 60/181 64/182 63/183 59/184
f 57/185 61/186 64/187 60/188
f 58/189 59/190 63/191 62/192
o EpilogueFireRing_1
usemtl MAT_STONE
f 65/193 66/194 74/195 73/196
f 66/197 67/198 75/199 74/200
f 67/201 68/202 76/203 75/204
f 68/205 69/206 77/207 76/208
f 69/209 70/210 78/211 77/212
f 70/213 71/214 79/215 78/216
f 71/217 72/218 80/219 79/220
f 72/221 65/222 73/223 80/224
f 72/225 71/226 70/227 69/228 68/229 67/230 66/231 65/232
f 73/233 74/234 75/235 76/236 77/237 78/238 79/239 80/240
o EpilogueFireRing_2
f 81/241 82/242 90/243 89/244
f 82/245 83/246 91/247 90/248
f 83/249 84/250 92/251 91/252
f 84/253 85/254 93/255 92/256
f 85/257 86/258 94/259 93/260
f 86/261 87/262 95/263 94/264
f 87/265 88/266 96/267 95/268
f 88/269 81/270 89/271 96/272
f 88/273 87/274 86/275 85/276 84/277 83/278 82/279 81/280
f 89/281 90/282 91/283 92/284 93/285 94/286 95/287 96/288
o EpilogueFireRing_3
f 97/289 98/290 106/291 105/292
f 98/293 99/294 107/295 106/296
f 99/297 100/298 108/299 107/300
f 100/301 101/302 109/303 108/304
f 101/305 102/306 110/307 109/308
f 102/309 103/310 111/311 110/312
f 103/313 104/314 112/315 111/316
f 104/317 97/318 105/319 112/320
f 104/321 103/322 102/323 101/324 100/325 99/326 98/327 97/328
f 105/329 106/330 107/331 108/332 109/333 110/334 111/335 112/336
o EpilogueFireRing_4
f 113/337 114/338 122/339 121/340
f 114/341 115/342 123/343 122/344
f 115/345 116/346 124/347 123/348
f 116/349 117/350 125/351 124/352
f 117/353 118/354 126/355 125/356
f 118/357 119/358 127/359 126/360
f 119/361 120/362 128/363 127/364
f 120/365 113/366 121/367 128/368
f 120/369 119/370 118/371 117/372 116/373 115/374 114/375 113/376
f 121/377 122/378 123/379 124/380 125/381 126/382 127/383 128/384
o EpilogueFireRing_5
f 129/385 130/386 138/387 137/388
f 130/389 131/390 139/391 138/392
f 131/393 132/394 140/395 139/396
f 132/397 133/398 141/399 140/400
f 133/401 134/402 142/403 141/404
f 134/405 135/406 143/407 142/408
f 135/409 136/410 144/411 143/412
f 136/413 129/414 137/415 144/416
f 136/417 135/418 134/419 133/420 132/421 131/422 130/423 129/424
f 137/425 138/426 139/427 140/428 141/429 142/430 143/431 144/432
o EpilogueFireRing_6
f 145/433 146/434 154/435 153/436
f 146/437 147/438 155/439 154/440
f 147/441 148/442 156/443 155/444
f 148/445 149/446 157/447 156/448
f 149/449 150/450 158/451 157/452
f 150/453 151/454 159/455 158/456
f 151/457 152/458 160/459 159/460
f 152/461 145/462 153/463 160/464
f 152/465 151/466 150/467 149/468 148/469 147/470 146/471 145/472
f 153/473 154/474 155/475 156/476 157/477 158/478 159/479 160/480
o EpilogueFireRing_7
f 161/481 162/482 170/483 169/484
f 162/485 163/486 171/487 170/488
f 163/489 164/490 172/491 171/492
f 164/493 165/494 173/495 172/496
f 165/497 166/498 174/499 173/500
f 166/501 167/502 175/503 174/504
f 167/505 168/506 176/507 175/508
f 168/509 161/510 169/511 176/512
f 168/513 167/514 166/515 165/516 164/517 163/518 162/519 161/520
f 169/521 170/522 171/523 172/524 173/525 174/526 175/527 176/528
o EpilogueFireRing_8
f 177/529 178/530 186/531 185/532
f 178/533 179/534 187/535 186/536
f 179/537 180/538 188/539 187/540
f 180/541 181/542 189/543 188/544
f 181/545 182/546 190/547 189/548
f 182/549 183/550 191/551 190/552
f 183/553 184/554 192/555 191/556
f 184/557 177/558 185/559 192/560
f 184/561 183/562 182/563 181/564 180/565 179/566 178/567 177/568
f 185/569 186/570 187/571 188/572 189/573 190/574 191/575 192/576
o EpilogueFireRing_9
f 193/577 194/578 202/579 201/580
f 194/581 195/582 203/583 202/584
f 195/585 196/586 204/587 203/588
f 196/589 197/590 205/591 204/592
f 197/593 198/594 206/595 205/596
f 198/597 199/598 207/599 206/600
f 199/601 200/602 208/603 207/604
f 200/605 193/606 201/607 208/608
f 200/609 199/610 198/611 197/612 196/613 195/614 194/615 193/616
f 201/617 202/618 203/619 204/620 205/621 206/622 207/623 208/624
o EpilogueFireRing_10
f 209/625 210/626 218/627 217/628
f 210/629 211/630 219/631 218/632
f 211/633 212/634 220/635 219/636
f 212/637 213/638 221/639 220/640
f 213/641 214/642 222/643 221/644
f 214/645 215/646 223/647 222/648
f 215/649 216/650 224/651 223/652
f 216/653 209/654 217/655 224/656
f 216/657 215/658 214/659 213/660 212/661 211/662 210/663 209/664
f 217/665 218/666 219/667 220/668 221/669 222/670 223/671 224/672
o EpilogueFocus
usemtl MAT_WOOD
f 225/673 226/674 228/675 227/676
f 229/677 231/678 232/679 230/680
f 225/681 229/682 230/683 226/684
f 227/685 228/686 232/687 231/688
f 225/689 227/690 231/691 229/692
f 226/693 230/694 232/695 228/696
o CampHistoryBench
f 233/697 234/698 236/699 235/700
f 237/701 239/702 240/703 238/704
f 233/705 237/706 238/707 234/708
f 235/709 236/710 240/711 239/712
f 233/713 235/714 239/715 237/716
f 234/717 238/718 240/719 236/720
o EndingCrateSocket
usemtl MAT_CANVAS
f 241/721 244/722 243/723 242/724
f 245/725 246/726 247/727 248/728
f 241/729 242/730 246/731 245/732
f 244/733 248/734 247/735 243/736
f 241/737 245/738 248/739 244/740
f 242/741 243/742 247/743 246/744
o DawnDirectionMarker
f 249/745 252/746 251/747 250/748
f 253/749 254/750 255/751 256/752
f 249/753 250/754 254/755 253/756
f 252/757 256/758 255/759 251/760
f 249/761 253/762 256/763 252/764
f 250/765 251/766 255/767 254/768
o SignalCausalityAnchor
usemtl MAT_METAL
f 257/769 258/770 260/771 259/772
f 261/773 263/774 264/775 262/776
f 257/777 261/778 262/779 258/780
f 259/781 260/782 264/783 263/784
f 257/785 259/786 263/787 261/788
f 258/789 262/790 264/791 260/792
o SignalCausalityCrossbar
f 265/793 266/794 268/795 267/796
f 269/797 271/798 272/799 270/800
f 265/801 269/802 270/803 266/804
f 267/805 268/806 272/807 271/808
f 265/809 267/810 271/811 269/812
f 266/813 270/814 272/815 268/816
o DawnSightline
f 273/817 274/818 276/819 275/820
f 277/821 279/822 280/823 278/824
f 273/825 277/826 278/827 274/828
f 275/829 276/830 280/831 279/832
f 273/833 275/834 279/835 277/836
f 274/837 278/838 280/839 276/840
