mtllib ../../Materials/project_oen.mtl
o cs-011_signal_beacon_base
v -0.163251 0.010549 0.000000
v -0.178389 0.005040 0.038891
v -0.708520 1.461563 0.038891
v -0.693383 1.467073 0.000000
v -0.178389 0.005040 0.038891
v -0.214934 -0.008262 0.055000
v -0.745066 1.448262 0.055000
v -0.708520 1.461563 0.038891
v -0.214934 -0.008262 0.055000
v -0.251480 -0.021563 0.038891
v -0.781611 1.434960 0.038891
v -0.745066 1.448262 0.055000
v -0.251480 -0.021563 0.038891
v -0.266617 -0.027073 0.000000
v -0.796749 1.429451 0.000000
v -0.781611 1.434960 0.038891
v -0.266617 -0.027073 0.000000
v -0.251480 -0.021563 -0.038891
v -0.781611 1.434960 -0.038891
v -0.796749 1.429451 0.000000
v -0.251480 -0.021563 -0.038891
v -0.214934 -0.008262 -0.055000
v -0.745066 1.448262 -0.055000
v -0.781611 1.434960 -0.038891
v -0.214934 -0.008262 -0.055000
v -0.178389 0.005040 -0.038891
v -0.708520 1.461563 -0.038891
v -0.745066 1.448262 -0.055000
v -0.178389 0.005040 -0.038891
v -0.163251 0.010549 0.000000
v -0.693383 1.467073 0.000000
v -0.708520 1.461563 -0.038891
v -0.214934 -0.008262 0.000000
v -0.178389 0.005040 0.038891
v -0.163251 0.010549 0.000000
v -0.745066 1.448262 0.000000
v -0.693383 1.467073 0.000000
v -0.708520 1.461563 0.038891
v -0.214934 -0.008262 0.000000
v -0.214934 -0.008262 0.055000
v -0.178389 0.005040 0.038891
v -0.745066 1.448262 0.000000
v -0.708520 1.461563 0.038891
v -0.745066 1.448262 0.055000
v -0.214934 -0.008262 0.000000
v -0.251480 -0.021563 0.038891
v -0.214934 -0.008262 0.055000
v -0.745066 1.448262 0.000000
v -0.745066 1.448262 0.055000
v -0.781611 1.434960 0.038891
v -0.214934 -0.008262 0.000000
v -0.266617 -0.027073 0.000000
v -0.251480 -0.021563 0.038891
v -0.745066 1.448262 0.000000
v -0.781611 1.434960 0.038891
v -0.796749 1.429451 0.000000
v -0.214934 -0.008262 0.000000
v -0.251480 -0.021563 -0.038891
v -0.266617 -0.027073 0.000000
v -0.745066 1.448262 0.000000
v -0.796749 1.429451 0.000000
v -0.781611 1.434960 -0.038891
v -0.214934 -0.008262 0.000000
v -0.214934 -0.008262 -0.055000
v -0.251480 -0.021563 -0.038891
v -0.745066 1.448262 0.000000
v -0.781611 1.434960 -0.038891
v -0.745066 1.448262 -0.055000
v -0.214934 -0.008262 0.000000
v -0.178389 0.005040 -0.038891
v -0.214934 -0.008262 -0.055000
v -0.745066 1.448262 0.000000
v -0.745066 1.448262 -0.055000
v -0.708520 1.461563 -0.038891
v -0.214934 -0.008262 0.000000
v -0.163251 0.010549 0.000000
v -0.178389 0.005040 -0.038891
v -0.745066 1.448262 0.000000
v -0.708520 1.461563 -0.038891
v -0.693383 1.467073 0.000000
v 0.266617 -0.027073 0.000000
v 0.251480 -0.021563 0.038891
v 0.781611 1.434960 0.038891
v 0.796749 1.429451 0.000000
v 0.251480 -0.021563 0.038891
v 0.214934 -0.008262 0.055000
v 0.745066 1.448262 0.055000
v 0.781611 1.434960 0.038891
v 0.214934 -0.008262 0.055000
v 0.178389 0.005040 0.038891
v 0.708520 1.461563 0.038891
v 0.745066 1.448262 0.055000
v 0.178389 0.005040 0.038891
v 0.163251 0.010549 0.000000
v 0.693383 1.467073 0.000000
v 0.708520 1.461563 0.038891
v 0.163251 0.010549 0.000000
v 0.178389 0.005040 -0.038891
v 0.708520 1.461563 -0.038891
v 0.693383 1.467073 0.000000
v 0.178389 0.005040 -0.038891
v 0.214934 -0.008262 -0.055000
v 0.745066 1.448262 -0.055000
v 0.708520 1.461563 -0.038891
v 0.214934 -0.008262 -0.055000
v 0.251480 -0.021563 -0.038891
v 0.781611 1.434960 -0.038891
v 0.745066 1.448262 -0.055000
v 0.251480 -0.021563 -0.038891
v 0.266617 -0.027073 0.000000
v 0.796749 1.429451 0.000000
v 0.781611 1.434960 -0.038891
v 0.214934 -0.008262 0.000000
v 0.251480 -0.021563 0.038891
v 0.266617 -0.027073 0.000000
v 0.745066 1.448262 0.000000
v 0.796749 1.429451 0.000000
v 0.781611 1.434960 0.038891
v 0.214934 -0.008262 0.000000
v 0.214934 -0.008262 0.055000
v 0.251480 -0.021563 0.038891
v 0.745066 1.448262 0.000000
v 0.781611 1.434960 0.038891
v 0.745066 1.448262 0.055000
v 0.214934 -0.008262 0.000000
v 0.178389 0.005040 0.038891
v 0.214934 -0.008262 0.055000
v 0.745066 1.448262 0.000000
v 0.745066 1.448262 0.055000
v 0.708520 1.461563 0.038891
v 0.214934 -0.008262 0.000000
v 0.163251 0.010549 0.000000
v 0.178389 0.005040 0.038891
v 0.745066 1.448262 0.000000
v 0.708520 1.461563 0.038891
v 0.693383 1.467073 0.000000
v 0.214934 -0.008262 0.000000
v 0.178389 0.005040 -0.038891
v 0.163251 0.010549 0.000000
v 0.745066 1.448262 0.000000
v 0.693383 1.467073 0.000000
v 0.708520 1.461563 -0.038891
v 0.214934 -0.008262 0.000000
v 0.214934 -0.008262 -0.055000
v 0.178389 0.005040 -0.038891
v 0.745066 1.448262 0.000000
v 0.708520 1.461563 -0.038891
v 0.745066 1.448262 -0.055000
v 0.214934 -0.008262 0.000000
v 0.251480 -0.021563 -0.038891
v 0.214934 -0.008262 -0.055000
v 0.745066 1.448262 0.000000
v 0.745066 1.448262 -0.055000
v 0.781611 1.434960 -0.038891
v 0.214934 -0.008262 0.000000
v 0.266617 -0.027073 0.000000
v 0.251480 -0.021563 -0.038891
v 0.745066 1.448262 0.000000
v 0.781611 1.434960 -0.038891
v 0.796749 1.429451 0.000000
vt 0.000000 0.000000
vt 1.000000 0.000000
vt 1.000000 1.000000
vt 0.000000 1.000000
vt 0.000000 0.000000
vt 1.000000 0.000000
vt 1.000000 1.000000
vt 0.000000 1.000000
vt 0.000000 0.000000
vt 1.000000 0.000000
vt 1.000000 1.000000
vt 0.000000 1.000000
vt 0.000000 0.000000
vt 1.000000 0.000000
vt 1.000000 1.000000
vt 0.000000 1.000000
vt 0.000000 0.000000
vt 1.000000 0.000000
vt 1.000000 1.000000
vt 0.000000 1.000000
vt 0.000000 0.000000
vt 1.000000 0.000000
vt 1.000000 1.000000
vt 0.000000 1.000000
vt 0.000000 0.000000
vt 1.000000 0.000000
vt 1.000000 1.000000
vt 0.000000 1.000000
vt 0.000000 0.000000
vt 1.000000 0.000000
vt 1.000000 1.000000
vt 0.000000 1.000000
vt 0.500000 0.500000
vt 0.000000 0.000000
vt 1.000000 0.000000
vt 0.500000 0.500000
vt 0.000000 1.000000
vt 1.000000 1.000000
vt 0.500000 0.500000
vt 0.000000 0.000000
vt 1.000000 0.000000
vt 0.500000 0.500000
vt 0.000000 1.000000
vt 1.000000 1.000000
vt 0.500000 0.500000
vt 0.000000 0.000000
vt 1.000000 0.000000
vt 0.500000 0.500000
vt 0.000000 1.000000
vt 1.000000 1.000000
vt 0.500000 0.500000
vt 0.000000 0.000000
vt 1.000000 0.000000
vt 0.500000 0.500000
vt 0.000000 1.000000
vt 1.000000 1.000000
vt 0.500000 0.500000
vt 0.000000 0.000000
vt 1.000000 0.000000
vt 0.500000 0.500000
vt 0.000000 1.000000
vt 1.000000 1.000000
vt 0.500000 0.500000
vt 0.000000 0.000000
vt 1.000000 0.000000
vt 0.500000 0.500000
vt 0.000000 1.000000
vt 1.000000 1.000000
vt 0.500000 0.500000
vt 0.000000 0.000000
vt 1.000000 0.000000
vt 0.500000 0.500000
vt 0.000000 1.000000
vt 1.000000 1.000000
vt 0.500000 0.500000
vt 0.000000 0.000000
vt 1.000000 0.000000
vt 0.500000 0.500000
vt 0.000000 1.000000
vt 1.000000 1.000000
vt 0.000000 0.000000
vt 1.000000 0.000000
vt 1.000000 1.000000
vt 0.000000 1.000000
vt 0.000000 0.000000
vt 1.000000 0.000000
vt 1.000000 1.000000
vt 0.000000 1.000000
vt 0.000000 0.000000
vt 1.000000 0.000000
vt 1.000000 1.000000
vt 0.000000 1.000000
vt 0.000000 0.000000
vt 1.000000 0.000000
vt 1.000000 1.000000
vt 0.000000 1.000000
vt 0.000000 0.000000
vt 1.000000 0.000000
vt 1.000000 1.000000
vt 0.000000 1.000000
vt 0.000000 0.000000
vt 1.000000 0.000000
vt 1.000000 1.000000
vt 0.000000 1.000000
vt 0.000000 0.000000
vt 1.000000 0.000000
vt 1.000000 1.000000
vt 0.000000 1.000000
vt 0.000000 0.000000
vt 1.000000 0.000000
vt 1.000000 1.000000
vt 0.000000 1.000000
vt 0.500000 0.500000
vt 0.000000 0.000000
vt 1.000000 0.000000
vt 0.500000 0.500000
vt 0.000000 1.000000
vt 1.000000 1.000000
vt 0.500000 0.500000
vt 0.000000 0.000000
vt 1.000000 0.000000
vt 0.500000 0.500000
vt 0.000000 1.000000
vt 1.000000 1.000000
vt 0.500000 0.500000
vt 0.000000 0.000000
vt 1.000000 0.000000
vt 0.500000 0.500000
vt 0.000000 1.000000
vt 1.000000 1.000000
vt 0.500000 0.500000
vt 0.000000 0.000000
vt 1.000000 0.000000
vt 0.500000 0.500000
vt 0.000000 1.000000
vt 1.000000 1.000000
vt 0.500000 0.500000
vt 0.000000 0.000000
vt 1.000000 0.000000
vt 0.500000 0.500000
vt 0.000000 1.000000
vt 1.000000 1.000000
vt 0.500000 0.500000
vt 0.000000 0.000000
vt 1.000000 0.000000
vt 0.500000 0.500000
vt 0.000000 1.000000
vt 1.000000 1.000000
vt 0.500000 0.500000
vt 0.000000 0.000000
vt 1.000000 0.000000
vt 0.500000 0.500000
vt 0.000000 1.000000
vt 1.000000 1.000000
vt 0.500000 0.500000
vt 0.000000 0.000000
vt 1.000000 0.000000
vt 0.500000 0.500000
vt 0.000000 1.000000
vt 1.000000 1.000000
usemtl Wood
f 1/1 2/2 3/3
f 1/1 3/3 4/4
f 5/5 6/6 7/7
f 5/5 7/7 8/8
f 9/9 10/10 11/11
f 9/9 11/11 12/12
f 13/13 14/14 15/15
f 13/13 15/15 16/16
f 17/17 18/18 19/19
f 17/17 19/19 20/20
f 21/21 22/22 23/23
f 21/21 23/23 24/24
f 25/25 26/26 27/27
f 25/25 27/27 28/28
f 29/29 30/30 31/31
f 29/29 31/31 32/32
f 33/33 34/34 35/35
f 36/36 37/37 38/38
f 39/39 40/40 41/41
f 42/42 43/43 44/44
f 45/45 46/46 47/47
f 48/48 49/49 50/50
f 51/51 52/52 53/53
f 54/54 55/55 56/56
f 57/57 58/58 59/59
f 60/60 61/61 62/62
f 63/63 64/64 65/65
f 66/66 67/67 68/68
f 69/69 70/70 71/71
f 72/72 73/73 74/74
f 75/75 76/76 77/77
f 78/78 79/79 80/80
f 81/81 82/82 83/83
f 81/81 83/83 84/84
f 85/85 86/86 87/87
f 85/85 87/87 88/88
f 89/89 90/90 91/91
f 89/89 91/91 92/92
f 93/93 94/94 95/95
f 93/93 95/95 96/96
f 97/97 98/98 99/99
f 97/97 99/99 100/100
f 101/101 102/102 103/103
f 101/101 103/103 104/104
f 105/105 106/106 107/107
f 105/105 107/107 108/108
f 109/109 110/110 111/111
f 109/109 111/111 112/112
f 113/113 114/114 115/115
f 116/116 117/117 118/118
f 119/119 120/120 121/121
f 122/122 123/123 124/124
f 125/125 126/126 127/127
f 128/128 129/129 130/130
f 131/131 132/132 133/133
f 134/134 135/135 136/136
f 137/137 138/138 139/139
f 140/140 141/141 142/142
f 143/143 144/144 145/145
f 146/146 147/147 148/148
f 149/149 150/150 151/151
f 152/152 153/153 154/154
f 155/155 156/156 157/157
f 158/158 159/159 160/160
