mtllib ../../Materials/project_oen.mtl
o cs-007_campfire_ember
v 0.320000 0.030000 -0.100000
v 0.540000 0.030000 -0.100000
v 0.540000 0.190000 -0.100000
v 0.320000 0.190000 -0.100000
v 0.540000 0.030000 0.100000
v 0.320000 0.030000 0.100000
v 0.320000 0.190000 0.100000
v 0.540000 0.190000 0.100000
v 0.320000 0.030000 0.100000
v 0.320000 0.030000 -0.100000
v 0.320000 0.190000 -0.100000
v 0.320000 0.190000 0.100000
v 0.540000 0.030000 -0.100000
v 0.540000 0.030000 0.100000
v 0.540000 0.190000 0.100000
v 0.540000 0.190000 -0.100000
v 0.320000 0.190000 -0.100000
v 0.540000 0.190000 -0.100000
v 0.540000 0.190000 0.100000
v 0.320000 0.190000 0.100000
v 0.320000 0.030000 0.100000
v 0.540000 0.030000 0.100000
v 0.540000 0.030000 -0.100000
v 0.320000 0.030000 -0.100000
v 0.227128 0.030000 0.183397
v 0.417654 0.030000 0.073397
v 0.417654 0.190000 0.073397
v 0.227128 0.190000 0.183397
v 0.517654 0.030000 0.246603
v 0.327128 0.030000 0.356603
v 0.327128 0.190000 0.356603
v 0.517654 0.190000 0.246603
v 0.327128 0.030000 0.356603
v 0.227128 0.030000 0.183397
v 0.227128 0.190000 0.183397
v 0.327128 0.190000 0.356603
v 0.417654 0.030000 0.073397
v 0.517654 0.030000 0.246603
v 0.517654 0.190000 0.246603
v 0.417654 0.190000 0.073397
v 0.227128 0.190000 0.183397
v 0.417654 0.190000 0.073397
v 0.517654 0.190000 0.246603
v 0.327128 0.190000 0.356603
v 0.327128 0.030000 0.356603
v 0.517654 0.030000 0.246603
v 0.417654 0.030000 0.073397
v 0.227128 0.030000 0.183397
v 0.073397 0.030000 0.417654
v 0.183397 0.030000 0.227128
v 0.183397 0.190000 0.227128
v 0.073397 0.190000 0.417654
v 0.356603 0.030000 0.327128
v 0.246603 0.030000 0.517654
v 0.246603 0.190000 0.517654
v 0.356603 0.190000 0.327128
v 0.246603 0.030000 0.517654
v 0.073397 0.030000 0.417654
v 0.073397 0.190000 0.417654
v 0.246603 0.190000 0.517654
v 0.183397 0.030000 0.227128
v 0.356603 0.030000 0.327128
v 0.356603 0.190000 0.327128
v 0.183397 0.190000 0.227128
v 0.073397 0.190000 0.417654
v 0.183397 0.190000 0.227128
v 0.356603 0.190000 0.327128
v 0.246603 0.190000 0.517654
v 0.246603 0.030000 0.517654
v 0.356603 0.030000 0.327128
v 0.183397 0.030000 0.227128
v 0.073397 0.030000 0.417654
v -0.100000 0.030000 0.540000
v -0.100000 0.030000 0.320000
v -0.100000 0.190000 0.320000
v -0.100000 0.190000 0.540000
v 0.100000 0.030000 0.320000
v 0.100000 0.030000 0.540000
v 0.100000 0.190000 0.540000
v 0.100000 0.190000 0.320000
v 0.100000 0.030000 0.540000
v -0.100000 0.030000 0.540000
v -0.100000 0.190000 0.540000
v 0.100000 0.190000 0.540000
v -0.100000 0.030000 0.320000
v 0.100000 0.030000 0.320000
v 0.100000 0.190000 0.320000
v -0.100000 0.190000 0.320000
v -0.100000 0.190000 0.540000
v -0.100000 0.190000 0.320000
v 0.100000 0.190000 0.320000
v 0.100000 0.190000 0.540000
v 0.100000 0.030000 0.540000
v 0.100000 0.030000 0.320000
v -0.100000 0.030000 0.320000
v -0.100000 0.030000 0.540000
v -0.246603 0.030000 0.517654
v -0.356603 0.030000 0.327128
v -0.356603 0.190000 0.327128
v -0.246603 0.190000 0.517654
v -0.183397 0.030000 0.227128
v -0.073397 0.030000 0.417654
v -0.073397 0.190000 0.417654
v -0.183397 0.190000 0.227128
v -0.073397 0.030000 0.417654
v -0.246603 0.030000 0.517654
v -0.246603 0.190000 0.517654
v -0.073397 0.190000 0.417654
v -0.356603 0.030000 0.327128
v -0.183397 0.030000 0.227128
v -0.183397 0.190000 0.227128
v -0.356603 0.190000 0.327128
v -0.246603 0.190000 0.517654
v -0.356603 0.190000 0.327128
v -0.183397 0.190000 0.227128
v -0.073397 0.190000 0.417654
v -0.073397 0.030000 0.417654
v -0.183397 0.030000 0.227128
v -0.356603 0.030000 0.327128
v -0.246603 0.030000 0.517654
v -0.327128 0.030000 0.356603
v -0.517654 0.030000 0.246603
v -0.517654 0.190000 0.246603
v -0.327128 0.190000 0.356603
v -0.417654 0.030000 0.073397
v -0.227128 0.030000 0.183397
v -0.227128 0.190000 0.183397
v -0.417654 0.190000 0.073397
v -0.227128 0.030000 0.183397
v -0.327128 0.030000 0.356603
v -0.327128 0.190000 0.356603
v -0.227128 0.190000 0.183397
v -0.517654 0.030000 0.246603
v -0.417654 0.030000 0.073397
v -0.417654 0.190000 0.073397
v -0.517654 0.190000 0.246603
v -0.327128 0.190000 0.356603
v -0.517654 0.190000 0.246603
v -0.417654 0.190000 0.073397
v -0.227128 0.190000 0.183397
v -0.227128 0.030000 0.183397
v -0.417654 0.030000 0.073397
v -0.517654 0.030000 0.246603
v -0.327128 0.030000 0.356603
v -0.320000 0.030000 0.100000
v -0.540000 0.030000 0.100000
v -0.540000 0.190000 0.100000
v -0.320000 0.190000 0.100000
v -0.540000 0.030000 -0.100000
v -0.320000 0.030000 -0.100000
v -0.320000 0.190000 -0.100000
v -0.540000 0.190000 -0.100000
v -0.320000 0.030000 -0.100000
v -0.320000 0.030000 0.100000
v -0.320000 0.190000 0.100000
v -0.320000 0.190000 -0.100000
v -0.540000 0.030000 0.100000
v -0.540000 0.030000 -0.100000
v -0.540000 0.190000 -0.100000
v -0.540000 0.190000 0.100000
v -0.320000 0.190000 0.100000
v -0.540000 0.190000 0.100000
v -0.540000 0.190000 -0.100000
v -0.320000 0.190000 -0.100000
v -0.320000 0.030000 -0.100000
v -0.540000 0.030000 -0.100000
v -0.540000 0.030000 0.100000
v -0.320000 0.030000 0.100000
v -0.227128 0.030000 -0.183397
v -0.417654 0.030000 -0.073397
v -0.417654 0.190000 -0.073397
v -0.227128 0.190000 -0.183397
v -0.517654 0.030000 -0.246603
v -0.327128 0.030000 -0.356603
v -0.327128 0.190000 -0.356603
v -0.517654 0.190000 -0.246603
v -0.327128 0.030000 -0.356603
v -0.227128 0.030000 -0.183397
v -0.227128 0.190000 -0.183397
v -0.327128 0.190000 -0.356603
v -0.417654 0.030000 -0.073397
v -0.517654 0.030000 -0.246603
v -0.517654 0.190000 -0.246603
v -0.417654 0.190000 -0.073397
v -0.227128 0.190000 -0.183397
v -0.417654 0.190000 -0.073397
v -0.517654 0.190000 -0.246603
v -0.327128 0.190000 -0.356603
v -0.327128 0.030000 -0.356603
v -0.517654 0.030000 -0.246603
v -0.417654 0.030000 -0.073397
v -0.227128 0.030000 -0.183397
v -0.073397 0.030000 -0.417654
v -0.183397 0.030000 -0.227128
v -0.183397 0.190000 -0.227128
v -0.073397 0.190000 -0.417654
v -0.356603 0.030000 -0.327128
v -0.246603 0.030000 -0.517654
v -0.246603 0.190000 -0.517654
v -0.356603 0.190000 -0.327128
v -0.246603 0.030000 -0.517654
v -0.073397 0.030000 -0.417654
v -0.073397 0.190000 -0.417654
v -0.246603 0.190000 -0.517654
v -0.183397 0.030000 -0.227128
v -0.356603 0.030000 -0.327128
v -0.356603 0.190000 -0.327128
v -0.183397 0.190000 -0.227128
v -0.073397 0.190000 -0.417654
v -0.183397 0.190000 -0.227128
v -0.356603 0.190000 -0.327128
v -0.246603 0.190000 -0.517654
v -0.246603 0.030000 -0.517654
v -0.356603 0.030000 -0.327128
v -0.183397 0.030000 -0.227128
v -0.073397 0.030000 -0.417654
v 0.100000 0.030000 -0.540000
v 0.100000 0.030000 -0.320000
v 0.100000 0.190000 -0.320000
v 0.100000 0.190000 -0.540000
v -0.100000 0.030000 -0.320000
v -0.100000 0.030000 -0.540000
v -0.100000 0.190000 -0.540000
v -0.100000 0.190000 -0.320000
v -0.100000 0.030000 -0.540000
v 0.100000 0.030000 -0.540000
v 0.100000 0.190000 -0.540000
v -0.100000 0.190000 -0.540000
v 0.100000 0.030000 -0.320000
v -0.100000 0.030000 -0.320000
v -0.100000 0.190000 -0.320000
v 0.100000 0.190000 -0.320000
v 0.100000 0.190000 -0.540000
v 0.100000 0.190000 -0.320000
v -0.100000 0.190000 -0.320000
v -0.100000 0.190000 -0.540000
v -0.100000 0.030000 -0.540000
v -0.100000 0.030000 -0.320000
v 0.100000 0.030000 -0.320000
v 0.100000 0.030000 -0.540000
v 0.246603 0.030000 -0.517654
v 0.356603 0.030000 -0.327128
v 0.356603 0.190000 -0.327128
v 0.246603 0.190000 -0.517654
v 0.183397 0.030000 -0.227128
v 0.073397 0.030000 -0.417654
v 0.073397 0.190000 -0.417654
v 0.183397 0.190000 -0.227128
v 0.073397 0.030000 -0.417654
v 0.246603 0.030000 -0.517654
v 0.246603 0.190000 -0.517654
v 0.073397 0.190000 -0.417654
v 0.356603 0.030000 -0.327128
v 0.183397 0.030000 -0.227128
v 0.183397 0.190000 -0.227128
v 0.356603 0.190000 -0.327128
v 0.246603 0.190000 -0.517654
v 0.356603 0.190000 -0.327128
v 0.183397 0.190000 -0.227128
v 0.073397 0.190000 -0.417654
v 0.073397 0.030000 -0.417654
v 0.183397 0.030000 -0.227128
v 0.356603 0.030000 -0.327128
v 0.246603 0.030000 -0.517654
v 0.327128 0.030000 -0.356603
v 0.517654 0.030000 -0.246603
v 0.517654 0.190000 -0.246603
v 0.327128 0.190000 -0.356603
v 0.417654 0.030000 -0.073397
v 0.227128 0.030000 -0.183397
v 0.227128 0.190000 -0.183397
v 0.417654 0.190000 -0.073397
v 0.227128 0.030000 -0.183397
v 0.327128 0.030000 -0.356603
v 0.327128 0.190000 -0.356603
v 0.227128 0.190000 -0.183397
v 0.517654 0.030000 -0.246603
v 0.417654 0.030000 -0.073397
v 0.417654 0.190000 -0.073397
v 0.517654 0.190000 -0.246603
v 0.327128 0.190000 -0.356603
v 0.517654 0.190000 -0.246603
v 0.417654 0.190000 -0.073397
v 0.227128 0.190000 -0.183397
v 0.227128 0.030000 -0.183397
v 0.417654 0.030000 -0.073397
v 0.517654 0.030000 -0.246603
v 0.327128 0.030000 -0.356603
v 0.366391 -0.035706 0.000000
v 0.355433 -0.047876 0.044995
v -0.283671 0.527576 0.044995
v -0.272713 0.539746 0.000000
v 0.355433 -0.047876 0.044995
v 0.327686 -0.078693 0.068937
v -0.311419 0.496759 0.068937
v -0.283671 0.527576 0.044995
v 0.327686 -0.078693 0.068937
v 0.296133 -0.113736 0.060622
v -0.342972 0.461716 0.060622
v -0.311419 0.496759 0.068937
v 0.296133 -0.113736 0.060622
v 0.275538 -0.136609 0.023941
v -0.363567 0.438843 0.023941
v -0.342972 0.461716 0.060622
v 0.275538 -0.136609 0.023941
v 0.275538 -0.136609 -0.023941
v -0.363567 0.438843 -0.023941
v -0.363567 0.438843 0.023941
v 0.275538 -0.136609 -0.023941
v 0.296133 -0.113736 -0.060622
v -0.342972 0.461716 -0.060622
v -0.363567 0.438843 -0.023941
v 0.296133 -0.113736 -0.060622
v 0.327686 -0.078693 -0.068937
v -0.311419 0.496759 -0.068937
v -0.342972 0.461716 -0.060622
v 0.327686 -0.078693 -0.068937
v 0.355433 -0.047876 -0.044995
v -0.283671 0.527576 -0.044995
v -0.311419 0.496759 -0.068937
v 0.355433 -0.047876 -0.044995
v 0.366391 -0.035706 0.000000
v -0.272713 0.539746 0.000000
v -0.283671 0.527576 -0.044995
v 0.319552 -0.087726 0.000000
v 0.355433 -0.047876 0.044995
v 0.366391 -0.035706 0.000000
v -0.319552 0.487726 0.000000
v -0.272713 0.539746 0.000000
v -0.283671 0.527576 0.044995
v 0.319552 -0.087726 0.000000
v 0.327686 -0.078693 0.068937
v 0.355433 -0.047876 0.044995
v -0.319552 0.487726 0.000000
v -0.283671 0.527576 0.044995
v -0.311419 0.496759 0.068937
v 0.319552 -0.087726 0.000000
v 0.296133 -0.113736 0.060622
v 0.327686 -0.078693 0.068937
v -0.319552 0.487726 0.000000
v -0.311419 0.496759 0.068937
v -0.342972 0.461716 0.060622
v 0.319552 -0.087726 0.000000
v 0.275538 -0.136609 0.023941
v 0.296133 -0.113736 0.060622
v -0.319552 0.487726 0.000000
v -0.342972 0.461716 0.060622
v -0.363567 0.438843 0.023941
v 0.319552 -0.087726 0.000000
v 0.275538 -0.136609 -0.023941
v 0.275538 -0.136609 0.023941
v -0.319552 0.487726 0.000000
v -0.363567 0.438843 0.023941
v -0.363567 0.438843 -0.023941
v 0.319552 -0.087726 0.000000
v 0.296133 -0.113736 -0.060622
v 0.275538 -0.136609 -0.023941
v -0.319552 0.487726 0.000000
v -0.363567 0.438843 -0.023941
v -0.342972 0.461716 -0.060622
v 0.319552 -0.087726 0.000000
v 0.327686 -0.078693 -0.068937
v 0.296133 -0.113736 -0.060622
v -0.319552 0.487726 0.000000
v -0.342972 0.461716 -0.060622
v -0.311419 0.496759 -0.068937
v 0.319552 -0.087726 0.000000
v 0.355433 -0.047876 -0.044995
v 0.327686 -0.078693 -0.068937
v -0.319552 0.487726 0.000000
v -0.311419 0.496759 -0.068937
v -0.283671 0.527576 -0.044995
v 0.319552 -0.087726 0.000000
v 0.366391 -0.035706 0.000000
v 0.355433 -0.047876 -0.044995
v -0.319552 0.487726 0.000000
v -0.283671 0.527576 -0.044995
v -0.272713 0.539746 0.000000
v 0.272713 0.559746 0.000000
v 0.283671 0.547576 0.044995
v -0.355433 -0.027876 0.044995
v -0.366391 -0.015706 0.000000
v 0.283671 0.547576 0.044995
v 0.311419 0.516759 0.068937
v -0.327686 -0.058693 0.068937
v -0.355433 -0.027876 0.044995
v 0.311419 0.516759 0.068937
v 0.342972 0.481716 0.060622
v -0.296133 -0.093736 0.060622
v -0.327686 -0.058693 0.068937
v 0.342972 0.481716 0.060622
v 0.363567 0.458843 0.023941
v -0.275538 -0.116609 0.023941
v -0.296133 -0.093736 0.060622
v 0.363567 0.458843 0.023941
v 0.363567 0.458843 -0.023941
v -0.275538 -0.116609 -0.023941
v -0.275538 -0.116609 0.023941
v 0.363567 0.458843 -0.023941
v 0.342972 0.481716 -0.060622
v -0.296133 -0.093736 -0.060622
v -0.275538 -0.116609 -0.023941
v 0.342972 0.481716 -0.060622
v 0.311419 0.516759 -0.068937
v -0.327686 -0.058693 -0.068937
v -0.296133 -0.093736 -0.060622
v 0.311419 0.516759 -0.068937
v 0.283671 0.547576 -0.044995
v -0.355433 -0.027876 -0.044995
v -0.327686 -0.058693 -0.068937
v 0.283671 0.547576 -0.044995
v 0.272713 0.559746 0.000000
v -0.366391 -0.015706 0.000000
v -0.355433 -0.027876 -0.044995
v 0.319552 0.507726 0.000000
v 0.283671 0.547576 0.044995
v 0.272713 0.559746 0.000000
v -0.319552 -0.067726 0.000000
v -0.366391 -0.015706 0.000000
v -0.355433 -0.027876 0.044995
v 0.319552 0.507726 0.000000
v 0.311419 0.516759 0.068937
v 0.283671 0.547576 0.044995
v -0.319552 -0.067726 0.000000
v -0.355433 -0.027876 0.044995
v -0.327686 -0.058693 0.068937
v 0.319552 0.507726 0.000000
v 0.342972 0.481716 0.060622
v 0.311419 0.516759 0.068937
v -0.319552 -0.067726 0.000000
v -0.327686 -0.058693 0.068937
v -0.296133 -0.093736 0.060622
v 0.319552 0.507726 0.000000
v 0.363567 0.458843 0.023941
v 0.342972 0.481716 0.060622
v -0.319552 -0.067726 0.000000
v -0.296133 -0.093736 0.060622
v -0.275538 -0.116609 0.023941
v 0.319552 0.507726 0.000000
v 0.363567 0.458843 -0.023941
v 0.363567 0.458843 0.023941
v -0.319552 -0.067726 0.000000
v -0.275538 -0.116609 0.023941
v -0.275538 -0.116609 -0.023941
v 0.319552 0.507726 0.000000
v 0.342972 0.481716 -0.060622
v 0.363567 0.458843 -0.023941
v -0.319552 -0.067726 0.000000
v -0.275538 -0.116609 -0.023941
v -0.296133 -0.093736 -0.060622
v 0.319552 0.507726 0.000000
v 0.311419 0.516759 -0.068937
v 0.342972 0.481716 -0.060622
v -0.319552 -0.067726 0.000000
v -0.296133 -0.093736 -0.060622
v -0.327686 -0.058693 -0.068937
v 0.319552 0.507726 0.000000
v 0.283671 0.547576 -0.044995
v 0.311419 0.516759 -0.068937
v -0.319552 -0.067726 0.000000
v -0.327686 -0.058693 -0.068937
v -0.355433 -0.027876 -0.044995
v 0.319552 0.507726 0.000000
v 0.272713 0.559746 0.000000
v 0.283671 0.547576 -0.044995
v -0.319552 -0.067726 0.000000
v -0.355433 -0.027876 -0.044995
v -0.366391 -0.015706 0.000000
v 0.430000 0.320000 0.000000
v 0.430000 0.303623 0.044995
v -0.430000 0.303623 0.044995
v -0.430000 0.320000 0.000000
v 0.430000 0.303623 0.044995
v 0.430000 0.262155 0.068937
v -0.430000 0.262155 0.068937
v -0.430000 0.303623 0.044995
v 0.430000 0.262155 0.068937
v 0.430000 0.215000 0.060622
v -0.430000 0.215000 0.060622
v -0.430000 0.262155 0.068937
v 0.430000 0.215000 0.060622
v 0.430000 0.184222 0.023941
v -0.430000 0.184222 0.023941
v -0.430000 0.215000 0.060622
v 0.430000 0.184222 0.023941
v 0.430000 0.184222 -0.023941
v -0.430000 0.184222 -0.023941
v -0.430000 0.184222 0.023941
v 0.430000 0.184222 -0.023941
v 0.430000 0.215000 -0.060622
v -0.430000 0.215000 -0.060622
v -0.430000 0.184222 -0.023941
v 0.430000 0.215000 -0.060622
v 0.430000 0.262155 -0.068937
v -0.430000 0.262155 -0.068937
v -0.430000 0.215000 -0.060622
v 0.430000 0.262155 -0.068937
v 0.430000 0.303623 -0.044995
v -0.430000 0.303623 -0.044995
v -0.430000 0.262155 -0.068937
v 0.430000 0.303623 -0.044995
v 0.430000 0.320000 0.000000
v -0.430000 0.320000 0.000000
v -0.430000 0.303623 -0.044995
v 0.430000 0.250000 0.000000
v 0.430000 0.303623 0.044995
v 0.430000 0.320000 0.000000
v -0.430000 0.250000 0.000000
v -0.430000 0.320000 0.000000
v -0.430000 0.303623 0.044995
v 0.430000 0.250000 0.000000
v 0.430000 0.262155 0.068937
v 0.430000 0.303623 0.044995
v -0.430000 0.250000 0.000000
v -0.430000 0.303623 0.044995
v -0.430000 0.262155 0.068937
v 0.430000 0.250000 0.000000
v 0.430000 0.215000 0.060622
v 0.430000 0.262155 0.068937
v -0.430000 0.250000 0.000000
v -0.430000 0.262155 0.068937
v -0.430000 0.215000 0.060622
v 0.430000 0.250000 0.000000
v 0.430000 0.184222 0.023941
v 0.430000 0.215000 0.060622
v -0.430000 0.250000 0.000000
v -0.430000 0.215000 0.060622
v -0.430000 0.184222 0.023941
v 0.430000 0.250000 0.000000
v 0.430000 0.184222 -0.023941
v 0.430000 0.184222 0.023941
v -0.430000 0.250000 0.000000
v -0.430000 0.184222 0.023941
v -0.430000 0.184222 -0.023941
v 0.430000 0.250000 0.000000
v 0.430000 0.215000 -0.060622
v 0.430000 0.184222 -0.023941
v -0.430000 0.250000 0.000000
v -0.430000 0.184222 -0.023941
v -0.430000 0.215000 -0.060622
v 0.430000 0.250000 0.000000
v 0.430000 0.262155 -0.068937
v 0.430000 0.215000 -0.060622
v -0.430000 0.250000 0.000000
v -0.430000 0.215000 -0.060622
v -0.430000 0.262155 -0.068937
v 0.430000 0.250000 0.000000
v 0.430000 0.303623 -0.044995
v 0.430000 0.262155 -0.068937
v -0.430000 0.250000 0.000000
v -0.430000 0.262155 -0.068937
v -0.430000 0.303623 -0.044995
v 0.430000 0.250000 0.000000
v 0.430000 0.320000 0.000000
v 0.430000 0.303623 -0.044995
v -0.430000 0.250000 0.000000
v -0.430000 0.303623 -0.044995
v -0.430000 0.320000 0.000000
v 0.080000 0.162500 -0.060000
v 0.280000 0.162500 -0.060000
v 0.280000 0.197500 -0.060000
v 0.080000 0.197500 -0.060000
v 0.280000 0.162500 0.060000
v 0.080000 0.162500 0.060000
v 0.080000 0.197500 0.060000
v 0.280000 0.197500 0.060000
v 0.080000 0.162500 0.060000
v 0.080000 0.162500 -0.060000
v 0.080000 0.197500 -0.060000
v 0.080000 0.197500 0.060000
v 0.280000 0.162500 -0.060000
v 0.280000 0.162500 0.060000
v 0.280000 0.197500 0.060000
v 0.280000 0.197500 -0.060000
v 0.080000 0.197500 -0.060000
v 0.280000 0.197500 -0.060000
v 0.280000 0.197500 0.060000
v 0.080000 0.197500 0.060000
v 0.080000 0.162500 0.060000
v 0.280000 0.162500 0.060000
v 0.280000 0.162500 -0.060000
v 0.080000 0.162500 -0.060000
v -0.032342 0.162500 0.247755
v 0.029461 0.162500 0.057544
v 0.029461 0.197500 0.057544
v -0.032342 0.197500 0.247755
v 0.143588 0.162500 0.094626
v 0.081785 0.162500 0.284837
v 0.081785 0.197500 0.284837
v 0.143588 0.197500 0.094626
v 0.081785 0.162500 0.284837
v -0.032342 0.162500 0.247755
v -0.032342 0.197500 0.247755
v 0.081785 0.197500 0.284837
v 0.029461 0.162500 0.057544
v 0.143588 0.162500 0.094626
v 0.143588 0.197500 0.094626
v 0.029461 0.197500 0.057544
v -0.032342 0.197500 0.247755
v 0.029461 0.197500 0.057544
v 0.143588 0.197500 0.094626
v 0.081785 0.197500 0.284837
v 0.081785 0.162500 0.284837
v 0.143588 0.162500 0.094626
v 0.029461 0.162500 0.057544
v -0.032342 0.162500 0.247755
v -0.099988 0.162500 0.213121
v -0.261792 0.162500 0.095564
v -0.261792 0.197500 0.095564
v -0.099988 0.197500 0.213121
v -0.191258 0.162500 -0.001518
v -0.029454 0.162500 0.116039
v -0.029454 0.197500 0.116039
v -0.191258 0.197500 -0.001518
v -0.029454 0.162500 0.116039
v -0.099988 0.162500 0.213121
v -0.099988 0.197500 0.213121
v -0.029454 0.197500 0.116039
v -0.261792 0.162500 0.095564
v -0.191258 0.162500 -0.001518
v -0.191258 0.197500 -0.001518
v -0.261792 0.197500 0.095564
v -0.099988 0.197500 0.213121
v -0.261792 0.197500 0.095564
v -0.191258 0.197500 -0.001518
v -0.029454 0.197500 0.116039
v -0.029454 0.162500 0.116039
v -0.191258 0.162500 -0.001518
v -0.261792 0.162500 0.095564
v -0.099988 0.162500 0.213121
v -0.029454 0.162500 -0.116039
v -0.191258 0.162500 0.001518
v -0.191258 0.197500 0.001518
v -0.029454 0.197500 -0.116039
v -0.261792 0.162500 -0.095564
v -0.099988 0.162500 -0.213121
v -0.099988 0.197500 -0.213121
v -0.261792 0.197500 -0.095564
v -0.099988 0.162500 -0.213121
v -0.029454 0.162500 -0.116039
v -0.029454 0.197500 -0.116039
v -0.099988 0.197500 -0.213121
v -0.191258 0.162500 0.001518
v -0.261792 0.162500 -0.095564
v -0.261792 0.197500 -0.095564
v -0.191258 0.197500 0.001518
v -0.029454 0.197500 -0.116039
v -0.191258 0.197500 0.001518
v -0.261792 0.197500 -0.095564
v -0.099988 0.197500 -0.213121
v -0.099988 0.162500 -0.213121
v -0.261792 0.162500 -0.095564
v -0.191258 0.162500 0.001518
v -0.029454 0.162500 -0.116039
v 0.081785 0.162500 -0.284837
v 0.143588 0.162500 -0.094626
v 0.143588 0.197500 -0.094626
v 0.081785 0.197500 -0.284837
v 0.029461 0.162500 -0.057544
v -0.032342 0.162500 -0.247755
v -0.032342 0.197500 -0.247755
v 0.029461 0.197500 -0.057544
v -0.032342 0.162500 -0.247755
v 0.081785 0.162500 -0.284837
v 0.081785 0.197500 -0.284837
v -0.032342 0.197500 -0.247755
v 0.143588 0.162500 -0.094626
v 0.029461 0.162500 -0.057544
v 0.029461 0.197500 -0.057544
v 0.143588 0.197500 -0.094626
v 0.081785 0.197500 -0.284837
v 0.143588 0.197500 -0.094626
v 0.029461 0.197500 -0.057544
v -0.032342 0.197500 -0.247755
v -0.032342 0.162500 -0.247755
v 0.029461 0.162500 -0.057544
v 0.143588 0.162500 -0.094626
v 0.081785 0.162500 -0.284837
vt 0.000000 0.000000
vt 1.000000 0.000000
vt 1.000000 1.000000
vt 0.000000 1.000000
vt 0.000000 0.000000
vt 1.000000 0.000000
vt 1.000000 1.000000
vt 0.000000 1.000000
vt 0.000000 0.000000
vt 1.000000 0.000000
vt 1.000000 1.000000
vt 0.000000 1.000000
vt 0.000000 0.000000
vt 1.000000 0.000000
vt 1.000000 1.000000
vt 0.000000 1.000000
vt 0.000000 0.000000
vt 1.000000 0.000000
vt 1.000000 1.000000
vt 0.000000 1.000000
vt 0.000000 0.000000
vt 1.000000 0.000000
vt 1.000000 1.000000
vt 0.000000 1.000000
vt 0.000000 0.000000
vt 1.000000 0.000000
vt 1.000000 1.000000
vt 0.000000 1.000000
vt 0.000000 0.000000
vt 1.000000 0.000000
vt 1.000000 1.000000
vt 0.000000 1.000000
vt 0.000000 0.000000
vt 1.000000 0.000000
vt 1.000000 1.000000
vt 0.000000 1.000000
vt 0.000000 0.000000
vt 1.000000 0.000000
vt 1.000000 1.000000
vt 0.000000 1.000000
vt 0.000000 0.000000
vt 1.000000 0.000000
vt 1.000000 1.000000
vt 0.000000 1.000000
vt 0.000000 0.000000
vt 1.000000 0.000000
vt 1.000000 1.000000
vt 0.000000 1.000000
vt 0.000000 0.000000
vt 1.000000 0.000000
vt 1.000000 1.000000
vt 0.000000 1.000000
vt 0.000000 0.000000
vt 1.000000 0.000000
vt 1.000000 1.000000
vt 0.000000 1.000000
vt 0.000000 0.000000
vt 1.000000 0.000000
vt 1.000000 1.000000
vt 0.000000 1.000000
vt 0.000000 0.000000
vt 1.000000 0.000000
vt 1.000000 1.000000
vt 0.000000 1.000000
vt 0.000000 0.000000
vt 1.000000 0.000000
vt 1.000000 1.000000
vt 0.000000 1.000000
vt 0.000000 0.000000
vt 1.000000 0.000000
vt 1.000000 1.000000
vt 0.000000 1.000000
vt 0.000000 0.000000
vt 1.000000 0.000000
vt 1.000000 1.000000
vt 0.000000 1.000000
vt 0.000000 0.000000
vt 1.000000 0.000000
vt 1.000000 1.000000
vt 0.000000 1.000000
vt 0.000000 0.000000
vt 1.000000 0.000000
vt 1.000000 1.000000
vt 0.000000 1.000000
vt 0.000000 0.000000
vt 1.000000 0.000000
vt 1.000000 1.000000
vt 0.000000 1.000000
vt 0.000000 0.000000
vt 1.000000 0.000000
vt 1.000000 1.000000
vt 0.000000 1.000000
vt 0.000000 0.000000
vt 1.000000 0.000000
vt 1.000000 1.000000
vt 0.000000 1.000000
vt 0.000000 0.000000
vt 1.000000 0.000000
vt 1.000000 1.000000
vt 0.000000 1.000000
vt 0.000000 0.000000
vt 1.000000 0.000000
vt 1.000000 1.000000
vt 0.000000 1.000000
vt 0.000000 0.000000
vt 1.000000 0.000000
vt 1.000000 1.000000
vt 0.000000 1.000000
vt 0.000000 0.000000
vt 1.000000 0.000000
vt 1.000000 1.000000
vt 0.000000 1.000000
vt 0.000000 0.000000
vt 1.000000 0.000000
vt 1.000000 1.000000
vt 0.000000 1.000000
vt 0.000000 0.000000
vt 1.000000 0.000000
vt 1.000000 1.000000
vt 0.000000 1.000000
vt 0.000000 0.000000
vt 1.000000 0.000000
vt 1.000000 1.000000
vt 0.000000 1.000000
vt 0.000000 0.000000
vt 1.000000 0.000000
vt 1.000000 1.000000
vt 0.000000 1.000000
vt 0.000000 0.000000
vt 1.000000 0.000000
vt 1.000000 1.000000
vt 0.000000 1.000000
vt 0.000000 0.000000
vt 1.000000 0.000000
vt 1.000000 1.000000
vt 0.000000 1.000000
vt 0.000000 0.000000
vt 1.000000 0.000000
vt 1.000000 1.000000
vt 0.000000 1.000000
vt 0.000000 0.000000
vt 1.000000 0.000000
vt 1.000000 1.000000
vt 0.000000 1.000000
vt 0.000000 0.000000
vt 1.000000 0.000000
vt 1.000000 1.000000
vt 0.000000 1.000000
vt 0.000000 0.000000
vt 1.000000 0.000000
vt 1.000000 1.000000
vt 0.000000 1.000000
vt 0.000000 0.000000
vt 1.000000 0.000000
vt 1.000000 1.000000
vt 0.000000 1.000000
vt 0.000000 0.000000
vt 1.000000 0.000000
vt 1.000000 1.000000
vt 0.000000 1.000000
vt 0.000000 0.000000
vt 1.000000 0.000000
vt 1.000000 1.000000
vt 0.000000 1.000000
vt 0.000000 0.000000
vt 1.000000 0.000000
vt 1.000000 1.000000
vt 0.000000 1.000000
vt 0.000000 0.000000
vt 1.000000 0.000000
vt 1.000000 1.000000
vt 0.000000 1.000000
vt 0.000000 0.000000
vt 1.000000 0.000000
vt 1.000000 1.000000
vt 0.000000 1.000000
vt 0.000000 0.000000
vt 1.000000 0.000000
vt 1.000000 1.000000
vt 0.000000 1.000000
vt 0.000000 0.000000
vt 1.000000 0.000000
vt 1.000000 1.000000
vt 0.000000 1.000000
vt 0.000000 0.000000
vt 1.000000 0.000000
vt 1.000000 1.000000
vt 0.000000 1.000000
vt 0.000000 0.000000
vt 1.000000 0.000000
vt 1.000000 1.000000
vt 0.000000 1.000000
vt 0.000000 0.000000
vt 1.000000 0.000000
vt 1.000000 1.000000
vt 0.000000 1.000000
vt 0.000000 0.000000
vt 1.000000 0.000000
vt 1.000000 1.000000
vt 0.000000 1.000000
vt 0.000000 0.000000
vt 1.000000 0.000000
vt 1.000000 1.000000
vt 0.000000 1.000000
vt 0.000000 0.000000
vt 1.000000 0.000000
vt 1.000000 1.000000
vt 0.000000 1.000000
vt 0.000000 0.000000
vt 1.000000 0.000000
vt 1.000000 1.000000
vt 0.000000 1.000000
vt 0.000000 0.000000
vt 1.000000 0.000000
vt 1.000000 1.000000
vt 0.000000 1.000000
vt 0.000000 0.000000
vt 1.000000 0.000000
vt 1.000000 1.000000
vt 0.000000 1.000000
vt 0.000000 0.000000
vt 1.000000 0.000000
vt 1.000000 1.000000
vt 0.000000 1.000000
vt 0.000000 0.000000
vt 1.000000 0.000000
vt 1.000000 1.000000
vt 0.000000 1.000000
vt 0.000000 0.000000
vt 1.000000 0.000000
vt 1.000000 1.000000
vt 0.000000 1.000000
vt 0.000000 0.000000
vt 1.000000 0.000000
vt 1.000000 1.000000
vt 0.000000 1.000000
vt 0.000000 0.000000
vt 1.000000 0.000000
vt 1.000000 1.000000
vt 0.000000 1.000000
vt 0.000000 0.000000
vt 1.000000 0.000000
vt 1.000000 1.000000
vt 0.000000 1.000000
vt 0.000000 0.000000
vt 1.000000 0.000000
vt 1.000000 1.000000
vt 0.000000 1.000000
vt 0.000000 0.000000
vt 1.000000 0.000000
vt 1.000000 1.000000
vt 0.000000 1.000000
vt 0.000000 0.000000
vt 1.000000 0.000000
vt 1.000000 1.000000
vt 0.000000 1.000000
vt 0.000000 0.000000
vt 1.000000 0.000000
vt 1.000000 1.000000
vt 0.000000 1.000000
vt 0.000000 0.000000
vt 1.000000 0.000000
vt 1.000000 1.000000
vt 0.000000 1.000000
vt 0.000000 0.000000
vt 1.000000 0.000000
vt 1.000000 1.000000
vt 0.000000 1.000000
vt 0.000000 0.000000
vt 1.000000 0.000000
vt 1.000000 1.000000
vt 0.000000 1.000000
vt 0.000000 0.000000
vt 1.000000 0.000000
vt 1.000000 1.000000
vt 0.000000 1.000000
vt 0.000000 0.000000
vt 1.000000 0.000000
vt 1.000000 1.000000
vt 0.000000 1.000000
vt 0.000000 0.000000
vt 1.000000 0.000000
vt 1.000000 1.000000
vt 0.000000 1.000000
vt 0.000000 0.000000
vt 1.000000 0.000000
vt 1.000000 1.000000
vt 0.000000 1.000000
vt 0.000000 0.000000
vt 1.000000 0.000000
vt 1.000000 1.000000
vt 0.000000 1.000000
vt 0.000000 0.000000
vt 1.000000 0.000000
vt 1.000000 1.000000
vt 0.000000 1.000000
vt 0.000000 0.000000
vt 1.000000 0.000000
vt 1.000000 1.000000
vt 0.000000 1.000000
vt 0.000000 0.000000
vt 1.000000 0.000000
vt 1.000000 1.000000
vt 0.000000 1.000000
vt 0.000000 0.000000
vt 1.000000 0.000000
vt 1.000000 1.000000
vt 0.000000 1.000000
vt 0.000000 0.000000
vt 1.000000 0.000000
vt 1.000000 1.000000
vt 0.000000 1.000000
vt 0.000000 0.000000
vt 1.000000 0.000000
vt 1.000000 1.000000
vt 0.000000 1.000000
vt 0.000000 0.000000
vt 1.000000 0.000000
vt 1.000000 1.000000
vt 0.000000 1.000000
vt 0.000000 0.000000
vt 1.000000 0.000000
vt 1.000000 1.000000
vt 0.000000 1.000000
vt 0.500000 0.500000
vt 0.000000 0.000000
vt 1.000000 0.000000
vt 0.500000 0.500000
vt 0.000000 1.000000
vt 1.000000 1.000000
vt 0.500000 0.500000
vt 0.000000 0.000000
vt 1.000000 0.000000
vt 0.500000 0.500000
vt 0.000000 1.000000
vt 1.000000 1.000000
vt 0.500000 0.500000
vt 0.000000 0.000000
vt 1.000000 0.000000
vt 0.500000 0.500000
vt 0.000000 1.000000
vt 1.000000 1.000000
vt 0.500000 0.500000
vt 0.000000 0.000000
vt 1.000000 0.000000
vt 0.500000 0.500000
vt 0.000000 1.000000
vt 1.000000 1.000000
vt 0.500000 0.500000
vt 0.000000 0.000000
vt 1.000000 0.000000
vt 0.500000 0.500000
vt 0.000000 1.000000
vt 1.000000 1.000000
vt 0.500000 0.500000
vt 0.000000 0.000000
vt 1.000000 0.000000
vt 0.500000 0.500000
vt 0.000000 1.000000
vt 1.000000 1.000000
vt 0.500000 0.500000
vt 0.000000 0.000000
vt 1.000000 0.000000
vt 0.500000 0.500000
vt 0.000000 1.000000
vt 1.000000 1.000000
vt 0.500000 0.500000
vt 0.000000 0.000000
vt 1.000000 0.000000
vt 0.500000 0.500000
vt 0.000000 1.000000
vt 1.000000 1.000000
vt 0.500000 0.500000
vt 0.000000 0.000000
vt 1.000000 0.000000
vt 0.500000 0.500000
vt 0.000000 1.000000
vt 1.000000 1.000000
vt 0.000000 0.000000
vt 1.000000 0.000000
vt 1.000000 1.000000
vt 0.000000 1.000000
vt 0.000000 0.000000
vt 1.000000 0.000000
vt 1.000000 1.000000
vt 0.000000 1.000000
vt 0.000000 0.000000
vt 1.000000 0.000000
vt 1.000000 1.000000
vt 0.000000 1.000000
vt 0.000000 0.000000
vt 1.000000 0.000000
vt 1.000000 1.000000
vt 0.000000 1.000000
vt 0.000000 0.000000
vt 1.000000 0.000000
vt 1.000000 1.000000
vt 0.000000 1.000000
vt 0.000000 0.000000
vt 1.000000 0.000000
vt 1.000000 1.000000
vt 0.000000 1.000000
vt 0.000000 0.000000
vt 1.000000 0.000000
vt 1.000000 1.000000
vt 0.000000 1.000000
vt 0.000000 0.000000
vt 1.000000 0.000000
vt 1.000000 1.000000
vt 0.000000 1.000000
vt 0.000000 0.000000
vt 1.000000 0.000000
vt 1.000000 1.000000
vt 0.000000 1.000000
vt 0.500000 0.500000
vt 0.000000 0.000000
vt 1.000000 0.000000
vt 0.500000 0.500000
vt 0.000000 1.000000
vt 1.000000 1.000000
vt 0.500000 0.500000
vt 0.000000 0.000000
vt 1.000000 0.000000
vt 0.500000 0.500000
vt 0.000000 1.000000
vt 1.000000 1.000000
vt 0.500000 0.500000
vt 0.000000 0.000000
vt 1.000000 0.000000
vt 0.500000 0.500000
vt 0.000000 1.000000
vt 1.000000 1.000000
vt 0.500000 0.500000
vt 0.000000 0.000000
vt 1.000000 0.000000
vt 0.500000 0.500000
vt 0.000000 1.000000
vt 1.000000 1.000000
vt 0.500000 0.500000
vt 0.000000 0.000000
vt 1.000000 0.000000
vt 0.500000 0.500000
vt 0.000000 1.000000
vt 1.000000 1.000000
vt 0.500000 0.500000
vt 0.000000 0.000000
vt 1.000000 0.000000
vt 0.500000 0.500000
vt 0.000000 1.000000
vt 1.000000 1.000000
vt 0.500000 0.500000
vt 0.000000 0.000000
vt 1.000000 0.000000
vt 0.500000 0.500000
vt 0.000000 1.000000
vt 1.000000 1.000000
vt 0.500000 0.500000
vt 0.000000 0.000000
vt 1.000000 0.000000
vt 0.500000 0.500000
vt 0.000000 1.000000
vt 1.000000 1.000000
vt 0.500000 0.500000
vt 0.000000 0.000000
vt 1.000000 0.000000
vt 0.500000 0.500000
vt 0.000000 1.000000
vt 1.000000 1.000000
vt 0.000000 0.000000
vt 1.000000 0.000000
vt 1.000000 1.000000
vt 0.000000 1.000000
vt 0.000000 0.000000
vt 1.000000 0.000000
vt 1.000000 1.000000
vt 0.000000 1.000000
vt 0.000000 0.000000
vt 1.000000 0.000000
vt 1.000000 1.000000
vt 0.000000 1.000000
vt 0.000000 0.000000
vt 1.000000 0.000000
vt 1.000000 1.000000
vt 0.000000 1.000000
vt 0.000000 0.000000
vt 1.000000 0.000000
vt 1.000000 1.000000
vt 0.000000 1.000000
vt 0.000000 0.000000
vt 1.000000 0.000000
vt 1.000000 1.000000
vt 0.000000 1.000000
vt 0.000000 0.000000
vt 1.000000 0.000000
vt 1.000000 1.000000
vt 0.000000 1.000000
vt 0.000000 0.000000
vt 1.000000 0.000000
vt 1.000000 1.000000
vt 0.000000 1.000000
vt 0.000000 0.000000
vt 1.000000 0.000000
vt 1.000000 1.000000
vt 0.000000 1.000000
vt 0.500000 0.500000
vt 0.000000 0.000000
vt 1.000000 0.000000
vt 0.500000 0.500000
vt 0.000000 1.000000
vt 1.000000 1.000000
vt 0.500000 0.500000
vt 0.000000 0.000000
vt 1.000000 0.000000
vt 0.500000 0.500000
vt 0.000000 1.000000
vt 1.000000 1.000000
vt 0.500000 0.500000
vt 0.000000 0.000000
vt 1.000000 0.000000
vt 0.500000 0.500000
vt 0.000000 1.000000
vt 1.000000 1.000000
vt 0.500000 0.500000
vt 0.000000 0.000000
vt 1.000000 0.000000
vt 0.500000 0.500000
vt 0.000000 1.000000
vt 1.000000 1.000000
vt 0.500000 0.500000
vt 0.000000 0.000000
vt 1.000000 0.000000
vt 0.500000 0.500000
vt 0.000000 1.000000
vt 1.000000 1.000000
vt 0.500000 0.500000
vt 0.000000 0.000000
vt 1.000000 0.000000
vt 0.500000 0.500000
vt 0.000000 1.000000
vt 1.000000 1.000000
vt 0.500000 0.500000
vt 0.000000 0.000000
vt 1.000000 0.000000
vt 0.500000 0.500000
vt 0.000000 1.000000
vt 1.000000 1.000000
vt 0.500000 0.500000
vt 0.000000 0.000000
vt 1.000000 0.000000
vt 0.500000 0.500000
vt 0.000000 1.000000
vt 1.000000 1.000000
vt 0.500000 0.500000
vt 0.000000 0.000000
vt 1.000000 0.000000
vt 0.500000 0.500000
vt 0.000000 1.000000
vt 1.000000 1.000000
vt 0.000000 0.000000
vt 1.000000 0.000000
vt 1.000000 1.000000
vt 0.000000 1.000000
vt 0.000000 0.000000
vt 1.000000 0.000000
vt 1.000000 1.000000
vt 0.000000 1.000000
vt 0.000000 0.000000
vt 1.000000 0.000000
vt 1.000000 1.000000
vt 0.000000 1.000000
vt 0.000000 0.000000
vt 1.000000 0.000000
vt 1.000000 1.000000
vt 0.000000 1.000000
vt 0.000000 0.000000
vt 1.000000 0.000000
vt 1.000000 1.000000
vt 0.000000 1.000000
vt 0.000000 0.000000
vt 1.000000 0.000000
vt 1.000000 1.000000
vt 0.000000 1.000000
vt 0.000000 0.000000
vt 1.000000 0.000000
vt 1.000000 1.000000
vt 0.000000 1.000000
vt 0.000000 0.000000
vt 1.000000 0.000000
vt 1.000000 1.000000
vt 0.000000 1.000000
vt 0.000000 0.000000
vt 1.000000 0.000000
vt 1.000000 1.000000
vt 0.000000 1.000000
vt 0.000000 0.000000
vt 1.000000 0.000000
vt 1.000000 1.000000
vt 0.000000 1.000000
vt 0.000000 0.000000
vt 1.000000 0.000000
vt 1.000000 1.000000
vt 0.000000 1.000000
vt 0.000000 0.000000
vt 1.000000 0.000000
vt 1.000000 1.000000
vt 0.000000 1.000000
vt 0.000000 0.000000
vt 1.000000 0.000000
vt 1.000000 1.000000
vt 0.000000 1.000000
vt 0.000000 0.000000
vt 1.000000 0.000000
vt 1.000000 1.000000
vt 0.000000 1.000000
vt 0.000000 0.000000
vt 1.000000 0.000000
vt 1.000000 1.000000
vt 0.000000 1.000000
vt 0.000000 0.000000
vt 1.000000 0.000000
vt 1.000000 1.000000
vt 0.000000 1.000000
vt 0.000000 0.000000
vt 1.000000 0.000000
vt 1.000000 1.000000
vt 0.000000 1.000000
vt 0.000000 0.000000
vt 1.000000 0.000000
vt 1.000000 1.000000
vt 0.000000 1.000000
vt 0.000000 0.000000
vt 1.000000 0.000000
vt 1.000000 1.000000
vt 0.000000 1.000000
vt 0.000000 0.000000
vt 1.000000 0.000000
vt 1.000000 1.000000
vt 0.000000 1.000000
vt 0.000000 0.000000
vt 1.000000 0.000000
vt 1.000000 1.000000
vt 0.000000 1.000000
vt 0.000000 0.000000
vt 1.000000 0.000000
vt 1.000000 1.000000
vt 0.000000 1.000000
vt 0.000000 0.000000
vt 1.000000 0.000000
vt 1.000000 1.000000
vt 0.000000 1.000000
vt 0.000000 0.000000
vt 1.000000 0.000000
vt 1.000000 1.000000
vt 0.000000 1.000000
vt 0.000000 0.000000
vt 1.000000 0.000000
vt 1.000000 1.000000
vt 0.000000 1.000000
vt 0.000000 0.000000
vt 1.000000 0.000000
vt 1.000000 1.000000
vt 0.000000 1.000000
vt 0.000000 0.000000
vt 1.000000 0.000000
vt 1.000000 1.000000
vt 0.000000 1.000000
vt 0.000000 0.000000
vt 1.000000 0.000000
vt 1.000000 1.000000
vt 0.000000 1.000000
vt 0.000000 0.000000
vt 1.000000 0.000000
vt 1.000000 1.000000
vt 0.000000 1.000000
vt 0.000000 0.000000
vt 1.000000 0.000000
vt 1.000000 1.000000
vt 0.000000 1.000000
usemtl Stone
f 1/1 2/2 3/3
f 1/1 3/3 4/4
f 5/5 6/6 7/7
f 5/5 7/7 8/8
f 9/9 10/10 11/11
f 9/9 11/11 12/12
f 13/13 14/14 15/15
f 13/13 15/15 16/16
f 17/17 18/18 19/19
f 17/17 19/19 20/20
f 21/21 22/22 23/23
f 21/21 23/23 24/24
f 25/25 26/26 27/27
f 25/25 27/27 28/28
f 29/29 30/30 31/31
f 29/29 31/31 32/32
f 33/33 34/34 35/35
f 33/33 35/35 36/36
f 37/37 38/38 39/39
f 37/37 39/39 40/40
f 41/41 42/42 43/43
f 41/41 43/43 44/44
f 45/45 46/46 47/47
f 45/45 47/47 48/48
f 49/49 50/50 51/51
f 49/49 51/51 52/52
f 53/53 54/54 55/55
f 53/53 55/55 56/56
f 57/57 58/58 59/59
f 57/57 59/59 60/60
f 61/61 62/62 63/63
f 61/61 63/63 64/64
f 65/65 66/66 67/67
f 65/65 67/67 68/68
f 69/69 70/70 71/71
f 69/69 71/71 72/72
f 73/73 74/74 75/75
f 73/73 75/75 76/76
f 77/77 78/78 79/79
f 77/77 79/79 80/80
f 81/81 82/82 83/83
f 81/81 83/83 84/84
f 85/85 86/86 87/87
f 85/85 87/87 88/88
f 89/89 90/90 91/91
f 89/89 91/91 92/92
f 93/93 94/94 95/95
f 93/93 95/95 96/96
f 97/97 98/98 99/99
f 97/97 99/99 100/100
f 101/101 102/102 103/103
f 101/101 103/103 104/104
f 105/105 106/106 107/107
f 105/105 107/107 108/108
f 109/109 110/110 111/111
f 109/109 111/111 112/112
f 113/113 114/114 115/115
f 113/113 115/115 116/116
f 117/117 118/118 119/119
f 117/117 119/119 120/120
f 121/121 122/122 123/123
f 121/121 123/123 124/124
f 125/125 126/126 127/127
f 125/125 127/127 128/128
f 129/129 130/130 131/131
f 129/129 131/131 132/132
f 133/133 134/134 135/135
f 133/133 135/135 136/136
f 137/137 138/138 139/139
f 137/137 139/139 140/140
f 141/141 142/142 143/143
f 141/141 143/143 144/144
f 145/145 146/146 147/147
f 145/145 147/147 148/148
f 149/149 150/150 151/151
f 149/149 151/151 152/152
f 153/153 154/154 155/155
f 153/153 155/155 156/156
f 157/157 158/158 159/159
f 157/157 159/159 160/160
f 161/161 162/162 163/163
f 161/161 163/163 164/164
f 165/165 166/166 167/167
f 165/165 167/167 168/168
f 169/169 170/170 171/171
f 169/169 171/171 172/172
f 173/173 174/174 175/175
f 173/173 175/175 176/176
f 177/177 178/178 179/179
f 177/177 179/179 180/180
f 181/181 182/182 183/183
f 181/181 183/183 184/184
f 185/185 186/186 187/187
f 185/185 187/187 188/188
f 189/189 190/190 191/191
f 189/189 191/191 192/192
f 193/193 194/194 195/195
f 193/193 195/195 196/196
f 197/197 198/198 199/199
f 197/197 199/199 200/200
f 201/201 202/202 203/203
f 201/201 203/203 204/204
f 205/205 206/206 207/207
f 205/205 207/207 208/208
f 209/209 210/210 211/211
f 209/209 211/211 212/212
f 213/213 214/214 215/215
f 213/213 215/215 216/216
f 217/217 218/218 219/219
f 217/217 219/219 220/220
f 221/221 222/222 223/223
f 221/221 223/223 224/224
f 225/225 226/226 227/227
f 225/225 227/227 228/228
f 229/229 230/230 231/231
f 229/229 231/231 232/232
f 233/233 234/234 235/235
f 233/233 235/235 236/236
f 237/237 238/238 239/239
f 237/237 239/239 240/240
f 241/241 242/242 243/243
f 241/241 243/243 244/244
f 245/245 246/246 247/247
f 245/245 247/247 248/248
f 249/249 250/250 251/251
f 249/249 251/251 252/252
f 253/253 254/254 255/255
f 253/253 255/255 256/256
f 257/257 258/258 259/259
f 257/257 259/259 260/260
f 261/261 262/262 263/263
f 261/261 263/263 264/264
f 265/265 266/266 267/267
f 265/265 267/267 268/268
f 269/269 270/270 271/271
f 269/269 271/271 272/272
f 273/273 274/274 275/275
f 273/273 275/275 276/276
f 277/277 278/278 279/279
f 277/277 279/279 280/280
f 281/281 282/282 283/283
f 281/281 283/283 284/284
f 285/285 286/286 287/287
f 285/285 287/287 288/288
usemtl Wood
f 289/289 290/290 291/291
f 289/289 291/291 292/292
f 293/293 294/294 295/295
f 293/293 295/295 296/296
f 297/297 298/298 299/299
f 297/297 299/299 300/300
f 301/301 302/302 303/303
f 301/301 303/303 304/304
f 305/305 306/306 307/307
f 305/305 307/307 308/308
f 309/309 310/310 311/311
f 309/309 311/311 312/312
f 313/313 314/314 315/315
f 313/313 315/315 316/316
f 317/317 318/318 319/319
f 317/317 319/319 320/320
f 321/321 322/322 323/323
f 321/321 323/323 324/324
f 325/325 326/326 327/327
f 328/328 329/329 330/330
f 331/331 332/332 333/333
f 334/334 335/335 336/336
f 337/337 338/338 339/339
f 340/340 341/341 342/342
f 343/343 344/344 345/345
f 346/346 347/347 348/348
f 349/349 350/350 351/351
f 352/352 353/353 354/354
f 355/355 356/356 357/357
f 358/358 359/359 360/360
f 361/361 362/362 363/363
f 364/364 365/365 366/366
f 367/367 368/368 369/369
f 370/370 371/371 372/372
f 373/373 374/374 375/375
f 376/376 377/377 378/378
f 379/379 380/380 381/381
f 379/379 381/381 382/382
f 383/383 384/384 385/385
f 383/383 385/385 386/386
f 387/387 388/388 389/389
f 387/387 389/389 390/390
f 391/391 392/392 393/393
f 391/391 393/393 394/394
f 395/395 396/396 397/397
f 395/395 397/397 398/398
f 399/399 400/400 401/401
f 399/399 401/401 402/402
f 403/403 404/404 405/405
f 403/403 405/405 406/406
f 407/407 408/408 409/409
f 407/407 409/409 410/410
f 411/411 412/412 413/413
f 411/411 413/413 414/414
f 415/415 416/416 417/417
f 418/418 419/419 420/420
f 421/421 422/422 423/423
f 424/424 425/425 426/426
f 427/427 428/428 429/429
f 430/430 431/431 432/432
f 433/433 434/434 435/435
f 436/436 437/437 438/438
f 439/439 440/440 441/441
f 442/442 443/443 444/444
f 445/445 446/446 447/447
f 448/448 449/449 450/450
f 451/451 452/452 453/453
f 454/454 455/455 456/456
f 457/457 458/458 459/459
f 460/460 461/461 462/462
f 463/463 464/464 465/465
f 466/466 467/467 468/468
f 469/469 470/470 471/471
f 469/469 471/471 472/472
f 473/473 474/474 475/475
f 473/473 475/475 476/476
f 477/477 478/478 479/479
f 477/477 479/479 480/480
f 481/481 482/482 483/483
f 481/481 483/483 484/484
f 485/485 486/486 487/487
f 485/485 487/487 488/488
f 489/489 490/490 491/491
f 489/489 491/491 492/492
f 493/493 494/494 495/495
f 493/493 495/495 496/496
f 497/497 498/498 499/499
f 497/497 499/499 500/500
f 501/501 502/502 503/503
f 501/501 503/503 504/504
f 505/505 506/506 507/507
f 508/508 509/509 510/510
f 511/511 512/512 513/513
f 514/514 515/515 516/516
f 517/517 518/518 519/519
f 520/520 521/521 522/522
f 523/523 524/524 525/525
f 526/526 527/527 528/528
f 529/529 530/530 531/531
f 532/532 533/533 534/534
f 535/535 536/536 537/537
f 538/538 539/539 540/540
f 541/541 542/542 543/543
f 544/544 545/545 546/546
f 547/547 548/548 549/549
f 550/550 551/551 552/552
f 553/553 554/554 555/555
f 556/556 557/557 558/558
usemtl Char
f 559/559 560/560 561/561
f 559/559 561/561 562/562
f 563/563 564/564 565/565
f 563/563 565/565 566/566
f 567/567 568/568 569/569
f 567/567 569/569 570/570
f 571/571 572/572 573/573
f 571/571 573/573 574/574
f 575/575 576/576 577/577
f 575/575 577/577 578/578
f 579/579 580/580 581/581
f 579/579 581/581 582/582
f 583/583 584/584 585/585
f 583/583 585/585 586/586
f 587/587 588/588 589/589
f 587/587 589/589 590/590
f 591/591 592/592 593/593
f 591/591 593/593 594/594
f 595/595 596/596 597/597
f 595/595 597/597 598/598
f 599/599 600/600 601/601
f 599/599 601/601 602/602
f 603/603 604/604 605/605
f 603/603 605/605 606/606
f 607/607 608/608 609/609
f 607/607 609/609 610/610
f 611/611 612/612 613/613
f 611/611 613/613 614/614
f 615/615 616/616 617/617
f 615/615 617/617 618/618
f 619/619 620/620 621/621
f 619/619 621/621 622/622
f 623/623 624/624 625/625
f 623/623 625/625 626/626
f 627/627 628/628 629/629
f 627/627 629/629 630/630
f 631/631 632/632 633/633
f 631/631 633/633 634/634
f 635/635 636/636 637/637
f 635/635 637/637 638/638
f 639/639 640/640 641/641
f 639/639 641/641 642/642
f 643/643 644/644 645/645
f 643/643 645/645 646/646
f 647/647 648/648 649/649
f 647/647 649/649 650/650
f 651/651 652/652 653/653
f 651/651 653/653 654/654
f 655/655 656/656 657/657
f 655/655 657/657 658/658
f 659/659 660/660 661/661
f 659/659 661/661 662/662
f 663/663 664/664 665/665
f 663/663 665/665 666/666
f 667/667 668/668 669/669
f 667/667 669/669 670/670
f 671/671 672/672 673/673
f 671/671 673/673 674/674
f 675/675 676/676 677/677
f 675/675 677/677 678/678
