mtllib ../../Materials/project_oen.mtl
o cs-003_shelter_covered_usable
v 0.016403 0.061537 0.000000
v 0.002179 0.053974 0.038891
v -0.725502 1.422543 0.038891
v -0.711278 1.430105 0.000000
v 0.002179 0.053974 0.038891
v -0.032160 0.035716 0.055000
v -0.759840 1.404284 0.055000
v -0.725502 1.422543 0.038891
v -0.032160 0.035716 0.055000
v -0.066498 0.017457 0.038891
v -0.794179 1.386026 0.038891
v -0.759840 1.404284 0.055000
v -0.066498 0.017457 0.038891
v -0.080722 0.009895 0.000000
v -0.808403 1.378463 0.000000
v -0.794179 1.386026 0.038891
v -0.080722 0.009895 0.000000
v -0.066498 0.017457 -0.038891
v -0.794179 1.386026 -0.038891
v -0.808403 1.378463 0.000000
v -0.066498 0.017457 -0.038891
v -0.032160 0.035716 -0.055000
v -0.759840 1.404284 -0.055000
v -0.794179 1.386026 -0.038891
v -0.032160 0.035716 -0.055000
v 0.002179 0.053974 -0.038891
v -0.725502 1.422543 -0.038891
v -0.759840 1.404284 -0.055000
v 0.002179 0.053974 -0.038891
v 0.016403 0.061537 0.000000
v -0.711278 1.430105 0.000000
v -0.725502 1.422543 -0.038891
v -0.032160 0.035716 0.000000
v 0.002179 0.053974 0.038891
v 0.016403 0.061537 0.000000
v -0.759840 1.404284 0.000000
v -0.711278 1.430105 0.000000
v -0.725502 1.422543 0.038891
v -0.032160 0.035716 0.000000
v -0.032160 0.035716 0.055000
v 0.002179 0.053974 0.038891
v -0.759840 1.404284 0.000000
v -0.725502 1.422543 0.038891
v -0.759840 1.404284 0.055000
v -0.032160 0.035716 0.000000
v -0.066498 0.017457 0.038891
v -0.032160 0.035716 0.055000
v -0.759840 1.404284 0.000000
v -0.759840 1.404284 0.055000
v -0.794179 1.386026 0.038891
v -0.032160 0.035716 0.000000
v -0.080722 0.009895 0.000000
v -0.066498 0.017457 0.038891
v -0.759840 1.404284 0.000000
v -0.794179 1.386026 0.038891
v -0.808403 1.378463 0.000000
v -0.032160 0.035716 0.000000
v -0.066498 0.017457 -0.038891
v -0.080722 0.009895 0.000000
v -0.759840 1.404284 0.000000
v -0.808403 1.378463 0.000000
v -0.794179 1.386026 -0.038891
v -0.032160 0.035716 0.000000
v -0.032160 0.035716 -0.055000
v -0.066498 0.017457 -0.038891
v -0.759840 1.404284 0.000000
v -0.794179 1.386026 -0.038891
v -0.759840 1.404284 -0.055000
v -0.032160 0.035716 0.000000
v 0.002179 0.053974 -0.038891
v -0.032160 0.035716 -0.055000
v -0.759840 1.404284 0.000000
v -0.759840 1.404284 -0.055000
v -0.725502 1.422543 -0.038891
v -0.032160 0.035716 0.000000
v 0.016403 0.061537 0.000000
v 0.002179 0.053974 -0.038891
v -0.759840 1.404284 0.000000
v -0.725502 1.422543 -0.038891
v -0.711278 1.430105 0.000000
v 0.080722 0.009895 0.000000
v 0.066498 0.017457 0.038891
v 0.794179 1.386026 0.038891
v 0.808403 1.378463 0.000000
v 0.066498 0.017457 0.038891
v 0.032160 0.035716 0.055000
v 0.759840 1.404284 0.055000
v 0.794179 1.386026 0.038891
v 0.032160 0.035716 0.055000
v -0.002179 0.053974 0.038891
v 0.725502 1.422543 0.038891
v 0.759840 1.404284 0.055000
v -0.002179 0.053974 0.038891
v -0.016403 0.061537 0.000000
v 0.711278 1.430105 0.000000
v 0.725502 1.422543 0.038891
v -0.016403 0.061537 0.000000
v -0.002179 0.053974 -0.038891
v 0.725502 1.422543 -0.038891
v 0.711278 1.430105 0.000000
v -0.002179 0.053974 -0.038891
v 0.032160 0.035716 -0.055000
v 0.759840 1.404284 -0.055000
v 0.725502 1.422543 -0.038891
v 0.032160 0.035716 -0.055000
v 0.066498 0.017457 -0.038891
v 0.794179 1.386026 -0.038891
v 0.759840 1.404284 -0.055000
v 0.066498 0.017457 -0.038891
v 0.080722 0.009895 0.000000
v 0.808403 1.378463 0.000000
v 0.794179 1.386026 -0.038891
v 0.032160 0.035716 0.000000
v 0.066498 0.017457 0.038891
v 0.080722 0.009895 0.000000
v 0.759840 1.404284 0.000000
v 0.808403 1.378463 0.000000
v 0.794179 1.386026 0.038891
v 0.032160 0.035716 0.000000
v 0.032160 0.035716 0.055000
v 0.066498 0.017457 0.038891
v 0.759840 1.404284 0.000000
v 0.794179 1.386026 0.038891
v 0.759840 1.404284 0.055000
v 0.032160 0.035716 0.000000
v -0.002179 0.053974 0.038891
v 0.032160 0.035716 0.055000
v 0.759840 1.404284 0.000000
v 0.759840 1.404284 0.055000
v 0.725502 1.422543 0.038891
v 0.032160 0.035716 0.000000
v -0.016403 0.061537 0.000000
v -0.002179 0.053974 0.038891
v 0.759840 1.404284 0.000000
v 0.725502 1.422543 0.038891
v 0.711278 1.430105 0.000000
v 0.032160 0.035716 0.000000
v -0.002179 0.053974 -0.038891
v -0.016403 0.061537 0.000000
v 0.759840 1.404284 0.000000
v 0.711278 1.430105 0.000000
v 0.725502 1.422543 -0.038891
v 0.032160 0.035716 0.000000
v 0.032160 0.035716 -0.055000
v -0.002179 0.053974 -0.038891
v 0.759840 1.404284 0.000000
v 0.725502 1.422543 -0.038891
v 0.759840 1.404284 -0.055000
v 0.032160 0.035716 0.000000
v 0.066498 0.017457 -0.038891
v 0.032160 0.035716 -0.055000
v 0.759840 1.404284 0.000000
v 0.759840 1.404284 -0.055000
v 0.794179 1.386026 -0.038891
v 0.032160 0.035716 0.000000
v 0.080722 0.009895 0.000000
v 0.066498 0.017457 -0.038891
v 0.759840 1.404284 0.000000
v 0.794179 1.386026 -0.038891
v 0.808403 1.378463 0.000000
v 0.775000 1.470000 0.000000
v 0.775000 1.455355 0.035355
v -0.775000 1.455355 0.035355
v -0.775000 1.470000 0.000000
v 0.775000 1.455355 0.035355
v 0.775000 1.420000 0.050000
v -0.775000 1.420000 0.050000
v -0.775000 1.455355 0.035355
v 0.775000 1.420000 0.050000
v 0.775000 1.384645 0.035355
v -0.775000 1.384645 0.035355
v -0.775000 1.420000 0.050000
v 0.775000 1.384645 0.035355
v 0.775000 1.370000 0.000000
v -0.775000 1.370000 0.000000
v -0.775000 1.384645 0.035355
v 0.775000 1.370000 0.000000
v 0.775000 1.384645 -0.035355
v -0.775000 1.384645 -0.035355
v -0.775000 1.370000 0.000000
v 0.775000 1.384645 -0.035355
v 0.775000 1.420000 -0.050000
v -0.775000 1.420000 -0.050000
v -0.775000 1.384645 -0.035355
v 0.775000 1.420000 -0.050000
v 0.775000 1.455355 -0.035355
v -0.775000 1.455355 -0.035355
v -0.775000 1.420000 -0.050000
v 0.775000 1.455355 -0.035355
v 0.775000 1.470000 0.000000
v -0.775000 1.470000 0.000000
v -0.775000 1.455355 -0.035355
v 0.775000 1.420000 0.000000
v 0.775000 1.455355 0.035355
v 0.775000 1.470000 0.000000
v -0.775000 1.420000 0.000000
v -0.775000 1.470000 0.000000
v -0.775000 1.455355 0.035355
v 0.775000 1.420000 0.000000
v 0.775000 1.420000 0.050000
v 0.775000 1.455355 0.035355
v -0.775000 1.420000 0.000000
v -0.775000 1.455355 0.035355
v -0.775000 1.420000 0.050000
v 0.775000 1.420000 0.000000
v 0.775000 1.384645 0.035355
v 0.775000 1.420000 0.050000
v -0.775000 1.420000 0.000000
v -0.775000 1.420000 0.050000
v -0.775000 1.384645 0.035355
v 0.775000 1.420000 0.000000
v 0.775000 1.370000 0.000000
v 0.775000 1.384645 0.035355
v -0.775000 1.420000 0.000000
v -0.775000 1.384645 0.035355
v -0.775000 1.370000 0.000000
v 0.775000 1.420000 0.000000
v 0.775000 1.384645 -0.035355
v 0.775000 1.370000 0.000000
v -0.775000 1.420000 0.000000
v -0.775000 1.370000 0.000000
v -0.775000 1.384645 -0.035355
v 0.775000 1.420000 0.000000
v 0.775000 1.420000 -0.050000
v 0.775000 1.384645 -0.035355
v -0.775000 1.420000 0.000000
v -0.775000 1.384645 -0.035355
v -0.775000 1.420000 -0.050000
v 0.775000 1.420000 0.000000
v 0.775000 1.455355 -0.035355
v 0.775000 1.420000 -0.050000
v -0.775000 1.420000 0.000000
v -0.775000 1.420000 -0.050000
v -0.775000 1.455355 -0.035355
v 0.775000 1.420000 0.000000
v 0.775000 1.470000 0.000000
v 0.775000 1.455355 -0.035355
v -0.775000 1.420000 0.000000
v -0.775000 1.455355 -0.035355
v -0.775000 1.470000 0.000000
v 0.825000 0.230000 0.550000
v 0.825000 0.215355 0.585355
v -0.825000 0.215355 0.585355
v -0.825000 0.230000 0.550000
v 0.825000 0.215355 0.585355
v 0.825000 0.180000 0.600000
v -0.825000 0.180000 0.600000
v -0.825000 0.215355 0.585355
v 0.825000 0.180000 0.600000
v 0.825000 0.144645 0.585355
v -0.825000 0.144645 0.585355
v -0.825000 0.180000 0.600000
v 0.825000 0.144645 0.585355
v 0.825000 0.130000 0.550000
v -0.825000 0.130000 0.550000
v -0.825000 0.144645 0.585355
v 0.825000 0.130000 0.550000
v 0.825000 0.144645 0.514645
v -0.825000 0.144645 0.514645
v -0.825000 0.130000 0.550000
v 0.825000 0.144645 0.514645
v 0.825000 0.180000 0.500000
v -0.825000 0.180000 0.500000
v -0.825000 0.144645 0.514645
v 0.825000 0.180000 0.500000
v 0.825000 0.215355 0.514645
v -0.825000 0.215355 0.514645
v -0.825000 0.180000 0.500000
v 0.825000 0.215355 0.514645
v 0.825000 0.230000 0.550000
v -0.825000 0.230000 0.550000
v -0.825000 0.215355 0.514645
v 0.825000 0.180000 0.550000
v 0.825000 0.215355 0.585355
v 0.825000 0.230000 0.550000
v -0.825000 0.180000 0.550000
v -0.825000 0.230000 0.550000
v -0.825000 0.215355 0.585355
v 0.825000 0.180000 0.550000
v 0.825000 0.180000 0.600000
v 0.825000 0.215355 0.585355
v -0.825000 0.180000 0.550000
v -0.825000 0.215355 0.585355
v -0.825000 0.180000 0.600000
v 0.825000 0.180000 0.550000
v 0.825000 0.144645 0.585355
v 0.825000 0.180000 0.600000
v -0.825000 0.180000 0.550000
v -0.825000 0.180000 0.600000
v -0.825000 0.144645 0.585355
v 0.825000 0.180000 0.550000
v 0.825000 0.130000 0.550000
v 0.825000 0.144645 0.585355
v -0.825000 0.180000 0.550000
v -0.825000 0.144645 0.585355
v -0.825000 0.130000 0.550000
v 0.825000 0.180000 0.550000
v 0.825000 0.144645 0.514645
v 0.825000 0.130000 0.550000
v -0.825000 0.180000 0.550000
v -0.825000 0.130000 0.550000
v -0.825000 0.144645 0.514645
v 0.825000 0.180000 0.550000
v 0.825000 0.180000 0.500000
v 0.825000 0.144645 0.514645
v -0.825000 0.180000 0.550000
v -0.825000 0.144645 0.514645
v -0.825000 0.180000 0.500000
v 0.825000 0.180000 0.550000
v 0.825000 0.215355 0.514645
v 0.825000 0.180000 0.500000
v -0.825000 0.180000 0.550000
v -0.825000 0.180000 0.500000
v -0.825000 0.215355 0.514645
v 0.825000 0.180000 0.550000
v 0.825000 0.230000 0.550000
v 0.825000 0.215355 0.514645
v -0.825000 0.180000 0.550000
v -0.825000 0.215355 0.514645
v -0.825000 0.230000 0.550000
v 0.825000 0.230000 -0.550000
v 0.825000 0.215355 -0.514645
v -0.825000 0.215355 -0.514645
v -0.825000 0.230000 -0.550000
v 0.825000 0.215355 -0.514645
v 0.825000 0.180000 -0.500000
v -0.825000 0.180000 -0.500000
v -0.825000 0.215355 -0.514645
v 0.825000 0.180000 -0.500000
v 0.825000 0.144645 -0.514645
v -0.825000 0.144645 -0.514645
v -0.825000 0.180000 -0.500000
v 0.825000 0.144645 -0.514645
v 0.825000 0.130000 -0.550000
v -0.825000 0.130000 -0.550000
v -0.825000 0.144645 -0.514645
v 0.825000 0.130000 -0.550000
v 0.825000 0.144645 -0.585355
v -0.825000 0.144645 -0.585355
v -0.825000 0.130000 -0.550000
v 0.825000 0.144645 -0.585355
v 0.825000 0.180000 -0.600000
v -0.825000 0.180000 -0.600000
v -0.825000 0.144645 -0.585355
v 0.825000 0.180000 -0.600000
v 0.825000 0.215355 -0.585355
v -0.825000 0.215355 -0.585355
v -0.825000 0.180000 -0.600000
v 0.825000 0.215355 -0.585355
v 0.825000 0.230000 -0.550000
v -0.825000 0.230000 -0.550000
v -0.825000 0.215355 -0.585355
v 0.825000 0.180000 -0.550000
v 0.825000 0.215355 -0.514645
v 0.825000 0.230000 -0.550000
v -0.825000 0.180000 -0.550000
v -0.825000 0.230000 -0.550000
v -0.825000 0.215355 -0.514645
v 0.825000 0.180000 -0.550000
v 0.825000 0.180000 -0.500000
v 0.825000 0.215355 -0.514645
v -0.825000 0.180000 -0.550000
v -0.825000 0.215355 -0.514645
v -0.825000 0.180000 -0.500000
v 0.825000 0.180000 -0.550000
v 0.825000 0.144645 -0.514645
v 0.825000 0.180000 -0.500000
v -0.825000 0.180000 -0.550000
v -0.825000 0.180000 -0.500000
v -0.825000 0.144645 -0.514645
v 0.825000 0.180000 -0.550000
v 0.825000 0.130000 -0.550000
v 0.825000 0.144645 -0.514645
v -0.825000 0.180000 -0.550000
v -0.825000 0.144645 -0.514645
v -0.825000 0.130000 -0.550000
v 0.825000 0.180000 -0.550000
v 0.825000 0.144645 -0.585355
v 0.825000 0.130000 -0.550000
v -0.825000 0.180000 -0.550000
v -0.825000 0.130000 -0.550000
v -0.825000 0.144645 -0.585355
v 0.825000 0.180000 -0.550000
v 0.825000 0.180000 -0.600000
v 0.825000 0.144645 -0.585355
v -0.825000 0.180000 -0.550000
v -0.825000 0.144645 -0.585355
v -0.825000 0.180000 -0.600000
v 0.825000 0.180000 -0.550000
v 0.825000 0.215355 -0.585355
v 0.825000 0.180000 -0.600000
v -0.825000 0.180000 -0.550000
v -0.825000 0.180000 -0.600000
v -0.825000 0.215355 -0.585355
v 0.825000 0.180000 -0.550000
v 0.825000 0.230000 -0.550000
v 0.825000 0.215355 -0.585355
v -0.825000 0.180000 -0.550000
v -0.825000 0.215355 -0.585355
v -0.825000 0.230000 -0.550000
v -0.825000 1.020000 -0.775000
v -0.412500 1.020000 -0.775000
v -0.412500 0.946875 -0.387500
v -0.825000 1.020000 -0.387500
v -0.412500 1.020000 -0.775000
v 0.000000 1.020000 -0.775000
v 0.000000 0.922500 -0.387500
v -0.412500 0.946875 -0.387500
v 0.000000 1.020000 -0.775000
v 0.412500 1.020000 -0.775000
v 0.412500 0.946875 -0.387500
v 0.000000 0.922500 -0.387500
v 0.412500 1.020000 -0.775000
v 0.825000 1.020000 -0.775000
v 0.825000 1.020000 -0.387500
v 0.412500 0.946875 -0.387500
v -0.825000 1.020000 -0.387500
v -0.412500 0.946875 -0.387500
v -0.412500 0.922500 0.000000
v -0.825000 1.020000 0.000000
v -0.412500 0.946875 -0.387500
v 0.000000 0.922500 -0.387500
v 0.000000 0.890000 0.000000
v -0.412500 0.922500 0.000000
v 0.000000 0.922500 -0.387500
v 0.412500 0.946875 -0.387500
v 0.412500 0.922500 0.000000
v 0.000000 0.890000 0.000000
v 0.412500 0.946875 -0.387500
v 0.825000 1.020000 -0.387500
v 0.825000 1.020000 0.000000
v 0.412500 0.922500 0.000000
v -0.825000 1.020000 0.000000
v -0.412500 0.922500 0.000000
v -0.412500 0.946875 0.387500
v -0.825000 1.020000 0.387500
v -0.412500 0.922500 0.000000
v 0.000000 0.890000 0.000000
v 0.000000 0.922500 0.387500
v -0.412500 0.946875 0.387500
v 0.000000 0.890000 0.000000
v 0.412500 0.922500 0.000000
v 0.412500 0.946875 0.387500
v 0.000000 0.922500 0.387500
v 0.412500 0.922500 0.000000
v 0.825000 1.020000 0.000000
v 0.825000 1.020000 0.387500
v 0.412500 0.946875 0.387500
v -0.825000 1.020000 0.387500
v -0.412500 0.946875 0.387500
v -0.412500 1.020000 0.775000
v -0.825000 1.020000 0.775000
v -0.412500 0.946875 0.387500
v 0.000000 0.922500 0.387500
v 0.000000 1.020000 0.775000
v -0.412500 1.020000 0.775000
v 0.000000 0.922500 0.387500
v 0.412500 0.946875 0.387500
v 0.412500 1.020000 0.775000
v 0.000000 1.020000 0.775000
v 0.412500 0.946875 0.387500
v 0.825000 1.020000 0.387500
v 0.825000 1.020000 0.775000
v 0.412500 1.020000 0.775000
vt 0.000000 0.000000
vt 1.000000 0.000000
vt 1.000000 1.000000
vt 0.000000 1.000000
vt 0.000000 0.000000
vt 1.000000 0.000000
vt 1.000000 1.000000
vt 0.000000 1.000000
vt 0.000000 0.000000
vt 1.000000 0.000000
vt 1.000000 1.000000
vt 0.000000 1.000000
vt 0.000000 0.000000
vt 1.000000 0.000000
vt 1.000000 1.000000
vt 0.000000 1.000000
vt 0.000000 0.000000
vt 1.000000 0.000000
vt 1.000000 1.000000
vt 0.000000 1.000000
vt 0.000000 0.000000
vt 1.000000 0.000000
vt 1.000000 1.000000
vt 0.000000 1.000000
vt 0.000000 0.000000
vt 1.000000 0.000000
vt 1.000000 1.000000
vt 0.000000 1.000000
vt 0.000000 0.000000
vt 1.000000 0.000000
vt 1.000000 1.000000
vt 0.000000 1.000000
vt 0.500000 0.500000
vt 0.000000 0.000000
vt 1.000000 0.000000
vt 0.500000 0.500000
vt 0.000000 1.000000
vt 1.000000 1.000000
vt 0.500000 0.500000
vt 0.000000 0.000000
vt 1.000000 0.000000
vt 0.500000 0.500000
vt 0.000000 1.000000
vt 1.000000 1.000000
vt 0.500000 0.500000
vt 0.000000 0.000000
vt 1.000000 0.000000
vt 0.500000 0.500000
vt 0.000000 1.000000
vt 1.000000 1.000000
vt 0.500000 0.500000
vt 0.000000 0.000000
vt 1.000000 0.000000
vt 0.500000 0.500000
vt 0.000000 1.000000
vt 1.000000 1.000000
vt 0.500000 0.500000
vt 0.000000 0.000000
vt 1.000000 0.000000
vt 0.500000 0.500000
vt 0.000000 1.000000
vt 1.000000 1.000000
vt 0.500000 0.500000
vt 0.000000 0.000000
vt 1.000000 0.000000
vt 0.500000 0.500000
vt 0.000000 1.000000
vt 1.000000 1.000000
vt 0.500000 0.500000
vt 0.000000 0.000000
vt 1.000000 0.000000
vt 0.500000 0.500000
vt 0.000000 1.000000
vt 1.000000 1.000000
vt 0.500000 0.500000
vt 0.000000 0.000000
vt 1.000000 0.000000
vt 0.500000 0.500000
vt 0.000000 1.000000
vt 1.000000 1.000000
vt 0.000000 0.000000
vt 1.000000 0.000000
vt 1.000000 1.000000
vt 0.000000 1.000000
vt 0.000000 0.000000
vt 1.000000 0.000000
vt 1.000000 1.000000
vt 0.000000 1.000000
vt 0.000000 0.000000
vt 1.000000 0.000000
vt 1.000000 1.000000
vt 0.000000 1.000000
vt 0.000000 0.000000
vt 1.000000 0.000000
vt 1.000000 1.000000
vt 0.000000 1.000000
vt 0.000000 0.000000
vt 1.000000 0.000000
vt 1.000000 1.000000
vt 0.000000 1.000000
vt 0.000000 0.000000
vt 1.000000 0.000000
vt 1.000000 1.000000
vt 0.000000 1.000000
vt 0.000000 0.000000
vt 1.000000 0.000000
vt 1.000000 1.000000
vt 0.000000 1.000000
vt 0.000000 0.000000
vt 1.000000 0.000000
vt 1.000000 1.000000
vt 0.000000 1.000000
vt 0.500000 0.500000
vt 0.000000 0.000000
vt 1.000000 0.000000
vt 0.500000 0.500000
vt 0.000000 1.000000
vt 1.000000 1.000000
vt 0.500000 0.500000
vt 0.000000 0.000000
vt 1.000000 0.000000
vt 0.500000 0.500000
vt 0.000000 1.000000
vt 1.000000 1.000000
vt 0.500000 0.500000
vt 0.000000 0.000000
vt 1.000000 0.000000
vt 0.500000 0.500000
vt 0.000000 1.000000
vt 1.000000 1.000000
vt 0.500000 0.500000
vt 0.000000 0.000000
vt 1.000000 0.000000
vt 0.500000 0.500000
vt 0.000000 1.000000
vt 1.000000 1.000000
vt 0.500000 0.500000
vt 0.000000 0.000000
vt 1.000000 0.000000
vt 0.500000 0.500000
vt 0.000000 1.000000
vt 1.000000 1.000000
vt 0.500000 0.500000
vt 0.000000 0.000000
vt 1.000000 0.000000
vt 0.500000 0.500000
vt 0.000000 1.000000
vt 1.000000 1.000000
vt 0.500000 0.500000
vt 0.000000 0.000000
vt 1.000000 0.000000
vt 0.500000 0.500000
vt 0.000000 1.000000
vt 1.000000 1.000000
vt 0.500000 0.500000
vt 0.000000 0.000000
vt 1.000000 0.000000
vt 0.500000 0.500000
vt 0.000000 1.000000
vt 1.000000 1.000000
vt 0.000000 0.000000
vt 1.000000 0.000000
vt 1.000000 1.000000
vt 0.000000 1.000000
vt 0.000000 0.000000
vt 1.000000 0.000000
vt 1.000000 1.000000
vt 0.000000 1.000000
vt 0.000000 0.000000
vt 1.000000 0.000000
vt 1.000000 1.000000
vt 0.000000 1.000000
vt 0.000000 0.000000
vt 1.000000 0.000000
vt 1.000000 1.000000
vt 0.000000 1.000000
vt 0.000000 0.000000
vt 1.000000 0.000000
vt 1.000000 1.000000
vt 0.000000 1.000000
vt 0.000000 0.000000
vt 1.000000 0.000000
vt 1.000000 1.000000
vt 0.000000 1.000000
vt 0.000000 0.000000
vt 1.000000 0.000000
vt 1.000000 1.000000
vt 0.000000 1.000000
vt 0.000000 0.000000
vt 1.000000 0.000000
vt 1.000000 1.000000
vt 0.000000 1.000000
vt 0.500000 0.500000
vt 0.000000 0.000000
vt 1.000000 0.000000
vt 0.500000 0.500000
vt 0.000000 1.000000
vt 1.000000 1.000000
vt 0.500000 0.500000
vt 0.000000 0.000000
vt 1.000000 0.000000
vt 0.500000 0.500000
vt 0.000000 1.000000
vt 1.000000 1.000000
vt 0.500000 0.500000
vt 0.000000 0.000000
vt 1.000000 0.000000
vt 0.500000 0.500000
vt 0.000000 1.000000
vt 1.000000 1.000000
vt 0.500000 0.500000
vt 0.000000 0.000000
vt 1.000000 0.000000
vt 0.500000 0.500000
vt 0.000000 1.000000
vt 1.000000 1.000000
vt 0.500000 0.500000
vt 0.000000 0.000000
vt 1.000000 0.000000
vt 0.500000 0.500000
vt 0.000000 1.000000
vt 1.000000 1.000000
vt 0.500000 0.500000
vt 0.000000 0.000000
vt 1.000000 0.000000
vt 0.500000 0.500000
vt 0.000000 1.000000
vt 1.000000 1.000000
vt 0.500000 0.500000
vt 0.000000 0.000000
vt 1.000000 0.000000
vt 0.500000 0.500000
vt 0.000000 1.000000
vt 1.000000 1.000000
vt 0.500000 0.500000
vt 0.000000 0.000000
vt 1.000000 0.000000
vt 0.500000 0.500000
vt 0.000000 1.000000
vt 1.000000 1.000000
vt 0.000000 0.000000
vt 1.000000 0.000000
vt 1.000000 1.000000
vt 0.000000 1.000000
vt 0.000000 0.000000
vt 1.000000 0.000000
vt 1.000000 1.000000
vt 0.000000 1.000000
vt 0.000000 0.000000
vt 1.000000 0.000000
vt 1.000000 1.000000
vt 0.000000 1.000000
vt 0.000000 0.000000
vt 1.000000 0.000000
vt 1.000000 1.000000
vt 0.000000 1.000000
vt 0.000000 0.000000
vt 1.000000 0.000000
vt 1.000000 1.000000
vt 0.000000 1.000000
vt 0.000000 0.000000
vt 1.000000 0.000000
vt 1.000000 1.000000
vt 0.000000 1.000000
vt 0.000000 0.000000
vt 1.000000 0.000000
vt 1.000000 1.000000
vt 0.000000 1.000000
vt 0.000000 0.000000
vt 1.000000 0.000000
vt 1.000000 1.000000
vt 0.000000 1.000000
vt 0.500000 0.500000
vt 0.000000 0.000000
vt 1.000000 0.000000
vt 0.500000 0.500000
vt 0.000000 1.000000
vt 1.000000 1.000000
vt 0.500000 0.500000
vt 0.000000 0.000000
vt 1.000000 0.000000
vt 0.500000 0.500000
vt 0.000000 1.000000
vt 1.000000 1.000000
vt 0.500000 0.500000
vt 0.000000 0.000000
vt 1.000000 0.000000
vt 0.500000 0.500000
vt 0.000000 1.000000
vt 1.000000 1.000000
vt 0.500000 0.500000
vt 0.000000 0.000000
vt 1.000000 0.000000
vt 0.500000 0.500000
vt 0.000000 1.000000
vt 1.000000 1.000000
vt 0.500000 0.500000
vt 0.000000 0.000000
vt 1.000000 0.000000
vt 0.500000 0.500000
vt 0.000000 1.000000
vt 1.000000 1.000000
vt 0.500000 0.500000
vt 0.000000 0.000000
vt 1.000000 0.000000
vt 0.500000 0.500000
vt 0.000000 1.000000
vt 1.000000 1.000000
vt 0.500000 0.500000
vt 0.000000 0.000000
vt 1.000000 0.000000
vt 0.500000 0.500000
vt 0.000000 1.000000
vt 1.000000 1.000000
vt 0.500000 0.500000
vt 0.000000 0.000000
vt 1.000000 0.000000
vt 0.500000 0.500000
vt 0.000000 1.000000
vt 1.000000 1.000000
vt 0.000000 0.000000
vt 1.000000 0.000000
vt 1.000000 1.000000
vt 0.000000 1.000000
vt 0.000000 0.000000
vt 1.000000 0.000000
vt 1.000000 1.000000
vt 0.000000 1.000000
vt 0.000000 0.000000
vt 1.000000 0.000000
vt 1.000000 1.000000
vt 0.000000 1.000000
vt 0.000000 0.000000
vt 1.000000 0.000000
vt 1.000000 1.000000
vt 0.000000 1.000000
vt 0.000000 0.000000
vt 1.000000 0.000000
vt 1.000000 1.000000
vt 0.000000 1.000000
vt 0.000000 0.000000
vt 1.000000 0.000000
vt 1.000000 1.000000
vt 0.000000 1.000000
vt 0.000000 0.000000
vt 1.000000 0.000000
vt 1.000000 1.000000
vt 0.000000 1.000000
vt 0.000000 0.000000
vt 1.000000 0.000000
vt 1.000000 1.000000
vt 0.000000 1.000000
vt 0.500000 0.500000
vt 0.000000 0.000000
vt 1.000000 0.000000
vt 0.500000 0.500000
vt 0.000000 1.000000
vt 1.000000 1.000000
vt 0.500000 0.500000
vt 0.000000 0.000000
vt 1.000000 0.000000
vt 0.500000 0.500000
vt 0.000000 1.000000
vt 1.000000 1.000000
vt 0.500000 0.500000
vt 0.000000 0.000000
vt 1.000000 0.000000
vt 0.500000 0.500000
vt 0.000000 1.000000
vt 1.000000 1.000000
vt 0.500000 0.500000
vt 0.000000 0.000000
vt 1.000000 0.000000
vt 0.500000 0.500000
vt 0.000000 1.000000
vt 1.000000 1.000000
vt 0.500000 0.500000
vt 0.000000 0.000000
vt 1.000000 0.000000
vt 0.500000 0.500000
vt 0.000000 1.000000
vt 1.000000 1.000000
vt 0.500000 0.500000
vt 0.000000 0.000000
vt 1.000000 0.000000
vt 0.500000 0.500000
vt 0.000000 1.000000
vt 1.000000 1.000000
vt 0.500000 0.500000
vt 0.000000 0.000000
vt 1.000000 0.000000
vt 0.500000 0.500000
vt 0.000000 1.000000
vt 1.000000 1.000000
vt 0.500000 0.500000
vt 0.000000 0.000000
vt 1.000000 0.000000
vt 0.500000 0.500000
vt 0.000000 1.000000
vt 1.000000 1.000000
vt 0.000000 0.000000
vt 1.000000 0.000000
vt 1.000000 1.000000
vt 0.000000 1.000000
vt 0.000000 0.000000
vt 1.000000 0.000000
vt 1.000000 1.000000
vt 0.000000 1.000000
vt 0.000000 0.000000
vt 1.000000 0.000000
vt 1.000000 1.000000
vt 0.000000 1.000000
vt 0.000000 0.000000
vt 1.000000 0.000000
vt 1.000000 1.000000
vt 0.000000 1.000000
vt 0.000000 0.000000
vt 1.000000 0.000000
vt 1.000000 1.000000
vt 0.000000 1.000000
vt 0.000000 0.000000
vt 1.000000 0.000000
vt 1.000000 1.000000
vt 0.000000 1.000000
vt 0.000000 0.000000
vt 1.000000 0.000000
vt 1.000000 1.000000
vt 0.000000 1.000000
vt 0.000000 0.000000
vt 1.000000 0.000000
vt 1.000000 1.000000
vt 0.000000 1.000000
vt 0.000000 0.000000
vt 1.000000 0.000000
vt 1.000000 1.000000
vt 0.000000 1.000000
vt 0.000000 0.000000
vt 1.000000 0.000000
vt 1.000000 1.000000
vt 0.000000 1.000000
vt 0.000000 0.000000
vt 1.000000 0.000000
vt 1.000000 1.000000
vt 0.000000 1.000000
vt 0.000000 0.000000
vt 1.000000 0.000000
vt 1.000000 1.000000
vt 0.000000 1.000000
vt 0.000000 0.000000
vt 1.000000 0.000000
vt 1.000000 1.000000
vt 0.000000 1.000000
vt 0.000000 0.000000
vt 1.000000 0.000000
vt 1.000000 1.000000
vt 0.000000 1.000000
vt 0.000000 0.000000
vt 1.000000 0.000000
vt 1.000000 1.000000
vt 0.000000 1.000000
vt 0.000000 0.000000
vt 1.000000 0.000000
vt 1.000000 1.000000
vt 0.000000 1.000000
usemtl Wood
f 1/1 2/2 3/3
f 1/1 3/3 4/4
f 5/5 6/6 7/7
f 5/5 7/7 8/8
f 9/9 10/10 11/11
f 9/9 11/11 12/12
f 13/13 14/14 15/15
f 13/13 15/15 16/16
f 17/17 18/18 19/19
f 17/17 19/19 20/20
f 21/21 22/22 23/23
f 21/21 23/23 24/24
f 25/25 26/26 27/27
f 25/25 27/27 28/28
f 29/29 30/30 31/31
f 29/29 31/31 32/32
f 33/33 34/34 35/35
f 36/36 37/37 38/38
f 39/39 40/40 41/41
f 42/42 43/43 44/44
f 45/45 46/46 47/47
f 48/48 49/49 50/50
f 51/51 52/52 53/53
f 54/54 55/55 56/56
f 57/57 58/58 59/59
f 60/60 61/61 62/62
f 63/63 64/64 65/65
f 66/66 67/67 68/68
f 69/69 70/70 71/71
f 72/72 73/73 74/74
f 75/75 76/76 77/77
f 78/78 79/79 80/80
f 81/81 82/82 83/83
f 81/81 83/83 84/84
f 85/85 86/86 87/87
f 85/85 87/87 88/88
f 89/89 90/90 91/91
f 89/89 91/91 92/92
f 93/93 94/94 95/95
f 93/93 95/95 96/96
f 97/97 98/98 99/99
f 97/97 99/99 100/100
f 101/101 102/102 103/103
f 101/101 103/103 104/104
f 105/105 106/106 107/107
f 105/105 107/107 108/108
f 109/109 110/110 111/111
f 109/109 111/111 112/112
f 113/113 114/114 115/115
f 116/116 117/117 118/118
f 119/119 120/120 121/121
f 122/122 123/123 124/124
f 125/125 126/126 127/127
f 128/128 129/129 130/130
f 131/131 132/132 133/133
f 134/134 135/135 136/136
f 137/137 138/138 139/139
f 140/140 141/141 142/142
f 143/143 144/144 145/145
f 146/146 147/147 148/148
f 149/149 150/150 151/151
f 152/152 153/153 154/154
f 155/155 156/156 157/157
f 158/158 159/159 160/160
f 161/161 162/162 163/163
f 161/161 163/163 164/164
f 165/165 166/166 167/167
f 165/165 167/167 168/168
f 169/169 170/170 171/171
f 169/169 171/171 172/172
f 173/173 174/174 175/175
f 173/173 175/175 176/176
f 177/177 178/178 179/179
f 177/177 179/179 180/180
f 181/181 182/182 183/183
f 181/181 183/183 184/184
f 185/185 186/186 187/187
f 185/185 187/187 188/188
f 189/189 190/190 191/191
f 189/189 191/191 192/192
f 193/193 194/194 195/195
f 196/196 197/197 198/198
f 199/199 200/200 201/201
f 202/202 203/203 204/204
f 205/205 206/206 207/207
f 208/208 209/209 210/210
f 211/211 212/212 213/213
f 214/214 215/215 216/216
f 217/217 218/218 219/219
f 220/220 221/221 222/222
f 223/223 224/224 225/225
f 226/226 227/227 228/228
f 229/229 230/230 231/231
f 232/232 233/233 234/234
f 235/235 236/236 237/237
f 238/238 239/239 240/240
f 241/241 242/242 243/243
f 241/241 243/243 244/244
f 245/245 246/246 247/247
f 245/245 247/247 248/248
f 249/249 250/250 251/251
f 249/249 251/251 252/252
f 253/253 254/254 255/255
f 253/253 255/255 256/256
f 257/257 258/258 259/259
f 257/257 259/259 260/260
f 261/261 262/262 263/263
f 261/261 263/263 264/264
f 265/265 266/266 267/267
f 265/265 267/267 268/268
f 269/269 270/270 271/271
f 269/269 271/271 272/272
f 273/273 274/274 275/275
f 276/276 277/277 278/278
f 279/279 280/280 281/281
f 282/282 283/283 284/284
f 285/285 286/286 287/287
f 288/288 289/289 290/290
f 291/291 292/292 293/293
f 294/294 295/295 296/296
f 297/297 298/298 299/299
f 300/300 301/301 302/302
f 303/303 304/304 305/305
f 306/306 307/307 308/308
f 309/309 310/310 311/311
f 312/312 313/313 314/314
f 315/315 316/316 317/317
f 318/318 319/319 320/320
f 321/321 322/322 323/323
f 321/321 323/323 324/324
f 325/325 326/326 327/327
f 325/325 327/327 328/328
f 329/329 330/330 331/331
f 329/329 331/331 332/332
f 333/333 334/334 335/335
f 333/333 335/335 336/336
f 337/337 338/338 339/339
f 337/337 339/339 340/340
f 341/341 342/342 343/343
f 341/341 343/343 344/344
f 345/345 346/346 347/347
f 345/345 347/347 348/348
f 349/349 350/350 351/351
f 349/349 351/351 352/352
f 353/353 354/354 355/355
f 356/356 357/357 358/358
f 359/359 360/360 361/361
f 362/362 363/363 364/364
f 365/365 366/366 367/367
f 368/368 369/369 370/370
f 371/371 372/372 373/373
f 374/374 375/375 376/376
f 377/377 378/378 379/379
f 380/380 381/381 382/382
f 383/383 384/384 385/385
f 386/386 387/387 388/388
f 389/389 390/390 391/391
f 392/392 393/393 394/394
f 395/395 396/396 397/397
f 398/398 399/399 400/400
usemtl Tarp
f 401/401 402/402 403/403
f 401/401 403/403 404/404
f 405/405 406/406 407/407
f 405/405 407/407 408/408
f 409/409 410/410 411/411
f 409/409 411/411 412/412
f 413/413 414/414 415/415
f 413/413 415/415 416/416
f 417/417 418/418 419/419
f 417/417 419/419 420/420
f 421/421 422/422 423/423
f 421/421 423/423 424/424
f 425/425 426/426 427/427
f 425/425 427/427 428/428
f 429/429 430/430 431/431
f 429/429 431/431 432/432
f 433/433 434/434 435/435
f 433/433 435/435 436/436
f 437/437 438/438 439/439
f 437/437 439/439 440/440
f 441/441 442/442 443/443
f 441/441 443/443 444/444
f 445/445 446/446 447/447
f 445/445 447/447 448/448
f 449/449 450/450 451/451
f 449/449 451/451 452/452
f 453/453 454/454 455/455
f 453/453 455/455 456/456
f 457/457 458/458 459/459
f 457/457 459/459 460/460
f 461/461 462/462 463/463
f 461/461 463/463 464/464
