mtllib ../../Materials/project_oen.mtl
o pr-014_signal_flag_cloth_strip__storm_damaged
v -0.334000 -0.010000 0.000000
v -0.343789 -0.010000 0.020328
v -0.343789 1.110000 0.020328
v -0.334000 1.110000 0.000000
v -0.343789 -0.010000 0.020328
v -0.365786 -0.010000 0.025348
v -0.365786 1.110000 0.025348
v -0.343789 1.110000 0.020328
v -0.365786 -0.010000 0.025348
v -0.383425 -0.010000 0.011281
v -0.383425 1.110000 0.011281
v -0.365786 1.110000 0.025348
v -0.383425 -0.010000 0.011281
v -0.383425 -0.010000 -0.011281
v -0.383425 1.110000 -0.011281
v -0.383425 1.110000 0.011281
v -0.383425 -0.010000 -0.011281
v -0.365786 -0.010000 -0.025348
v -0.365786 1.110000 -0.025348
v -0.383425 1.110000 -0.011281
v -0.365786 -0.010000 -0.025348
v -0.343789 -0.010000 -0.020328
v -0.343789 1.110000 -0.020328
v -0.365786 1.110000 -0.025348
v -0.343789 -0.010000 -0.020328
v -0.334000 -0.010000 0.000000
v -0.334000 1.110000 0.000000
v -0.343789 1.110000 -0.020328
v -0.360000 -0.010000 0.000000
v -0.343789 -0.010000 0.020328
v -0.334000 -0.010000 0.000000
v -0.360000 1.110000 0.000000
v -0.334000 1.110000 0.000000
v -0.343789 1.110000 0.020328
v -0.360000 -0.010000 0.000000
v -0.365786 -0.010000 0.025348
v -0.343789 -0.010000 0.020328
v -0.360000 1.110000 0.000000
v -0.343789 1.110000 0.020328
v -0.365786 1.110000 0.025348
v -0.360000 -0.010000 0.000000
v -0.383425 -0.010000 0.011281
v -0.365786 -0.010000 0.025348
v -0.360000 1.110000 0.000000
v -0.365786 1.110000 0.025348
v -0.383425 1.110000 0.011281
v -0.360000 -0.010000 0.000000
v -0.383425 -0.010000 -0.011281
v -0.383425 -0.010000 0.011281
v -0.360000 1.110000 0.000000
v -0.383425 1.110000 0.011281
v -0.383425 1.110000 -0.011281
v -0.360000 -0.010000 0.000000
v -0.365786 -0.010000 -0.025348
v -0.383425 -0.010000 -0.011281
v -0.360000 1.110000 0.000000
v -0.383425 1.110000 -0.011281
v -0.365786 1.110000 -0.025348
v -0.360000 -0.010000 0.000000
v -0.343789 -0.010000 -0.020328
v -0.365786 -0.010000 -0.025348
v -0.360000 1.110000 0.000000
v -0.365786 1.110000 -0.025348
v -0.343789 1.110000 -0.020328
v -0.360000 -0.010000 0.000000
v -0.334000 -0.010000 0.000000
v -0.343789 -0.010000 -0.020328
v -0.360000 1.110000 0.000000
v -0.343789 1.110000 -0.020328
v -0.334000 1.110000 0.000000
v -0.330000 0.920000 0.000000
v 0.420000 0.840000 0.000000
v 0.120000 0.630000 0.000000
v -0.330000 0.920000 0.000000
v 0.120000 0.630000 0.000000
v -0.330000 0.480000 0.000000
v 0.387628 0.513281 -0.067703
v 0.380023 0.517681 -0.075513
v 0.092195 0.402550 0.139893
v 0.099800 0.398150 0.147703
v 0.380023 0.517681 -0.075513
v 0.377795 0.528831 -0.072530
v 0.089967 0.413700 0.142876
v 0.092195 0.402550 0.139893
v 0.377795 0.528831 -0.072530
v 0.384023 0.531323 -0.062876
v 0.096196 0.416192 0.152530
v 0.089967 0.413700 0.142876
v 0.384023 0.531323 -0.062876
v 0.390100 0.521712 -0.059893
v 0.102273 0.406581 0.155513
v 0.096196 0.416192 0.152530
v 0.390100 0.521712 -0.059893
v 0.387628 0.513281 -0.067703
v 0.099800 0.398150 0.147703
v 0.102273 0.406581 0.155513
v 0.383914 0.522566 -0.067703
v 0.380023 0.517681 -0.075513
v 0.387628 0.513281 -0.067703
v 0.096086 0.407434 0.147703
v 0.099800 0.398150 0.147703
v 0.092195 0.402550 0.139893
v 0.383914 0.522566 -0.067703
v 0.377795 0.528831 -0.072530
v 0.380023 0.517681 -0.075513
v 0.096086 0.407434 0.147703
v 0.092195 0.402550 0.139893
v 0.089967 0.413700 0.142876
v 0.383914 0.522566 -0.067703
v 0.384023 0.531323 -0.062876
v 0.377795 0.528831 -0.072530
v 0.096086 0.407434 0.147703
v 0.089967 0.413700 0.142876
v 0.096196 0.416192 0.152530
v 0.383914 0.522566 -0.067703
v 0.390100 0.521712 -0.059893
v 0.384023 0.531323 -0.062876
v 0.096086 0.407434 0.147703
v 0.096196 0.416192 0.152530
v 0.102273 0.406581 0.155513
v 0.383914 0.522566 -0.067703
v 0.387628 0.513281 -0.067703
v 0.390100 0.521712 -0.059893
v 0.096086 0.407434 0.147703
v 0.102273 0.406581 0.155513
v 0.099800 0.398150 0.147703
v -0.310000 0.880000 -0.000000
v -0.315000 0.880000 -0.008660
v -0.315000 0.430000 -0.008660
v -0.310000 0.430000 0.000000
v -0.315000 0.880000 -0.008660
v -0.325000 0.880000 -0.008660
v -0.325000 0.430000 -0.008660
v -0.315000 0.430000 -0.008660
v -0.325000 0.880000 -0.008660
v -0.330000 0.880000 -0.000000
v -0.330000 0.430000 0.000000
v -0.325000 0.430000 -0.008660
v -0.330000 0.880000 -0.000000
v -0.325000 0.880000 0.008660
v -0.325000 0.430000 0.008660
v -0.330000 0.430000 0.000000
v -0.325000 0.880000 0.008660
v -0.315000 0.880000 0.008660
v -0.315000 0.430000 0.008660
v -0.325000 0.430000 0.008660
v -0.315000 0.880000 0.008660
v -0.310000 0.880000 -0.000000
v -0.310000 0.430000 0.000000
v -0.315000 0.430000 0.008660
v -0.320000 0.880000 -0.000000
v -0.315000 0.880000 -0.008660
v -0.310000 0.880000 -0.000000
v -0.320000 0.430000 0.000000
v -0.310000 0.430000 0.000000
v -0.315000 0.430000 -0.008660
v -0.320000 0.880000 -0.000000
v -0.325000 0.880000 -0.008660
v -0.315000 0.880000 -0.008660
v -0.320000 0.430000 0.000000
v -0.315000 0.430000 -0.008660
v -0.325000 0.430000 -0.008660
v -0.320000 0.880000 -0.000000
v -0.330000 0.880000 -0.000000
v -0.325000 0.880000 -0.008660
v -0.320000 0.430000 0.000000
v -0.325000 0.430000 -0.008660
v -0.330000 0.430000 0.000000
v -0.320000 0.880000 -0.000000
v -0.325000 0.880000 0.008660
v -0.330000 0.880000 -0.000000
v -0.320000 0.430000 0.000000
v -0.330000 0.430000 0.000000
v -0.325000 0.430000 0.008660
v -0.320000 0.880000 -0.000000
v -0.315000 0.880000 0.008660
v -0.325000 0.880000 0.008660
v -0.320000 0.430000 0.000000
v -0.325000 0.430000 0.008660
v -0.315000 0.430000 0.008660
v -0.320000 0.880000 -0.000000
v -0.310000 0.880000 -0.000000
v -0.315000 0.880000 0.008660
v -0.320000 0.430000 0.000000
v -0.315000 0.430000 0.008660
v -0.310000 0.430000 0.000000
v 0.044852 0.508508 -0.016407
v 0.141715 0.487919 -0.030324
v 0.192329 0.697943 0.011245
v 0.095467 0.718532 0.025162
v 0.144533 0.481468 -0.001162
v 0.047671 0.502057 0.012755
v 0.098285 0.712081 0.054324
v 0.195148 0.691492 0.040407
v 0.047671 0.502057 0.012755
v 0.044852 0.508508 -0.016407
v 0.095467 0.718532 0.025162
v 0.098285 0.712081 0.054324
v 0.141715 0.487919 -0.030324
v 0.144533 0.481468 -0.001162
v 0.195148 0.691492 0.040407
v 0.192329 0.697943 0.011245
v 0.095467 0.718532 0.025162
v 0.192329 0.697943 0.011245
v 0.195148 0.691492 0.040407
v 0.098285 0.712081 0.054324
v 0.047671 0.502057 0.012755
v 0.144533 0.481468 -0.001162
v 0.141715 0.487919 -0.030324
v 0.044852 0.508508 -0.016407
v 0.224036 0.452159 0.009736
v 0.300480 0.471219 0.023628
v 0.261579 0.645225 -0.001042
v 0.185134 0.626165 -0.014934
v 0.294866 0.473835 0.050934
v 0.218421 0.454775 0.037042
v 0.179520 0.628781 0.012372
v 0.255964 0.647841 0.026264
v 0.218421 0.454775 0.037042
v 0.224036 0.452159 0.009736
v 0.185134 0.626165 -0.014934
v 0.179520 0.628781 0.012372
v 0.300480 0.471219 0.023628
v 0.294866 0.473835 0.050934
v 0.255964 0.647841 0.026264
v 0.261579 0.645225 -0.001042
v 0.185134 0.626165 -0.014934
v 0.261579 0.645225 -0.001042
v 0.255964 0.647841 0.026264
v 0.179520 0.628781 0.012372
v 0.218421 0.454775 0.037042
v 0.294866 0.473835 0.050934
v 0.300480 0.471219 0.023628
v 0.224036 0.452159 0.009736
v 0.292779 0.448359 -0.012836
v 0.359699 0.429170 -0.020153
v 0.406287 0.577993 0.015642
v 0.339368 0.597182 0.022959
v 0.360632 0.422818 0.005041
v 0.293713 0.442007 0.012358
v 0.340301 0.590830 0.048153
v 0.407221 0.571641 0.040836
v 0.293713 0.442007 0.012358
v 0.292779 0.448359 -0.012836
v 0.339368 0.597182 0.022959
v 0.340301 0.590830 0.048153
v 0.359699 0.429170 -0.020153
v 0.360632 0.422818 0.005041
v 0.407221 0.571641 0.040836
v 0.406287 0.577993 0.015642
v 0.339368 0.597182 0.022959
v 0.406287 0.577993 0.015642
v 0.407221 0.571641 0.040836
v 0.340301 0.590830 0.048153
v 0.293713 0.442007 0.012358
v 0.360632 0.422818 0.005041
v 0.359699 0.429170 -0.020153
v 0.292779 0.448359 -0.012836
v 0.033315 0.597826 0.019715
v 0.120856 0.613262 0.005636
v 0.083281 0.796637 -0.026951
v -0.004260 0.781201 -0.012871
v 0.124260 0.618799 0.032871
v 0.036719 0.603363 0.046951
v -0.000856 0.786738 0.014364
v 0.086685 0.802174 0.000285
v 0.036719 0.603363 0.046951
v 0.033315 0.597826 0.019715
v -0.004260 0.781201 -0.012871
v -0.000856 0.786738 0.014364
v 0.120856 0.613262 0.005636
v 0.124260 0.618799 0.032871
v 0.086685 0.802174 0.000285
v 0.083281 0.796637 -0.026951
v -0.004260 0.781201 -0.012871
v 0.083281 0.796637 -0.026951
v 0.086685 0.802174 0.000285
v -0.000856 0.786738 0.014364
v 0.036719 0.603363 0.046951
v 0.124260 0.618799 0.032871
v 0.120856 0.613262 0.005636
v 0.033315 0.597826 0.019715
v -0.270000 0.850000 0.000000
v -0.278038 0.820000 0.000000
v -0.284967 0.824000 0.008000
v -0.278000 0.850000 0.008000
v -0.278000 0.850000 0.008000
v -0.284967 0.824000 0.008000
v -0.291895 0.828000 0.000000
v -0.286000 0.850000 0.000000
v -0.286000 0.850000 0.000000
v -0.291895 0.828000 0.000000
v -0.284967 0.824000 -0.008000
v -0.278000 0.850000 -0.008000
v -0.278000 0.850000 -0.008000
v -0.284967 0.824000 -0.008000
v -0.278038 0.820000 0.000000
v -0.270000 0.850000 0.000000
v -0.278038 0.820000 0.000000
v -0.300000 0.798038 0.000000
v -0.304000 0.804967 0.008000
v -0.284967 0.824000 0.008000
v -0.284967 0.824000 0.008000
v -0.304000 0.804967 0.008000
v -0.308000 0.811895 0.000000
v -0.291895 0.828000 0.000000
v -0.291895 0.828000 0.000000
v -0.308000 0.811895 0.000000
v -0.304000 0.804967 -0.008000
v -0.284967 0.824000 -0.008000
v -0.284967 0.824000 -0.008000
v -0.304000 0.804967 -0.008000
v -0.300000 0.798038 0.000000
v -0.278038 0.820000 0.000000
v -0.300000 0.798038 0.000000
v -0.330000 0.790000 0.000000
v -0.330000 0.798000 0.008000
v -0.304000 0.804967 0.008000
v -0.304000 0.804967 0.008000
v -0.330000 0.798000 0.008000
v -0.330000 0.806000 0.000000
v -0.308000 0.811895 0.000000
v -0.308000 0.811895 0.000000
v -0.330000 0.806000 0.000000
v -0.330000 0.798000 -0.008000
v -0.304000 0.804967 -0.008000
v -0.304000 0.804967 -0.008000
v -0.330000 0.798000 -0.008000
v -0.330000 0.790000 0.000000
v -0.300000 0.798038 0.000000
v -0.330000 0.790000 0.000000
v -0.360000 0.798038 0.000000
v -0.356000 0.804967 0.008000
v -0.330000 0.798000 0.008000
v -0.330000 0.798000 0.008000
v -0.356000 0.804967 0.008000
v -0.352000 0.811895 0.000000
v -0.330000 0.806000 0.000000
v -0.330000 0.806000 0.000000
v -0.352000 0.811895 0.000000
v -0.356000 0.804967 -0.008000
v -0.330000 0.798000 -0.008000
v -0.330000 0.798000 -0.008000
v -0.356000 0.804967 -0.008000
v -0.360000 0.798038 0.000000
v -0.330000 0.790000 0.000000
v -0.360000 0.798038 0.000000
v -0.381962 0.820000 0.000000
v -0.375033 0.824000 0.008000
v -0.356000 0.804967 0.008000
v -0.356000 0.804967 0.008000
v -0.375033 0.824000 0.008000
v -0.368105 0.828000 0.000000
v -0.352000 0.811895 0.000000
v -0.352000 0.811895 0.000000
v -0.368105 0.828000 0.000000
v -0.375033 0.824000 -0.008000
v -0.356000 0.804967 -0.008000
v -0.356000 0.804967 -0.008000
v -0.375033 0.824000 -0.008000
v -0.381962 0.820000 0.000000
v -0.360000 0.798038 0.000000
v -0.381962 0.820000 0.000000
v -0.390000 0.850000 0.000000
v -0.382000 0.850000 0.008000
v -0.375033 0.824000 0.008000
v -0.375033 0.824000 0.008000
v -0.382000 0.850000 0.008000
v -0.374000 0.850000 0.000000
v -0.368105 0.828000 0.000000
v -0.368105 0.828000 0.000000
v -0.374000 0.850000 0.000000
v -0.382000 0.850000 -0.008000
v -0.375033 0.824000 -0.008000
v -0.375033 0.824000 -0.008000
v -0.382000 0.850000 -0.008000
v -0.390000 0.850000 0.000000
v -0.381962 0.820000 0.000000
v -0.390000 0.850000 0.000000
v -0.381962 0.880000 -0.000000
v -0.375033 0.876000 0.008000
v -0.382000 0.850000 0.008000
v -0.382000 0.850000 0.008000
v -0.375033 0.876000 0.008000
v -0.368105 0.872000 -0.000000
v -0.374000 0.850000 0.000000
v -0.374000 0.850000 0.000000
v -0.368105 0.872000 -0.000000
v -0.375033 0.876000 -0.008000
v -0.382000 0.850000 -0.008000
v -0.382000 0.850000 -0.008000
v -0.375033 0.876000 -0.008000
v -0.381962 0.880000 -0.000000
v -0.390000 0.850000 0.000000
v -0.381962 0.880000 -0.000000
v -0.360000 0.901962 -0.000000
v -0.356000 0.895033 0.008000
v -0.375033 0.876000 0.008000
v -0.375033 0.876000 0.008000
v -0.356000 0.895033 0.008000
v -0.352000 0.888105 -0.000000
v -0.368105 0.872000 -0.000000
v -0.368105 0.872000 -0.000000
v -0.352000 0.888105 -0.000000
v -0.356000 0.895033 -0.008000
v -0.375033 0.876000 -0.008000
v -0.375033 0.876000 -0.008000
v -0.356000 0.895033 -0.008000
v -0.360000 0.901962 -0.000000
v -0.381962 0.880000 -0.000000
v -0.360000 0.901962 -0.000000
v -0.330000 0.910000 -0.000000
v -0.330000 0.902000 0.008000
v -0.356000 0.895033 0.008000
v -0.356000 0.895033 0.008000
v -0.330000 0.902000 0.008000
v -0.330000 0.894000 -0.000000
v -0.352000 0.888105 -0.000000
v -0.352000 0.888105 -0.000000
v -0.330000 0.894000 -0.000000
v -0.330000 0.902000 -0.008000
v -0.356000 0.895033 -0.008000
v -0.356000 0.895033 -0.008000
v -0.330000 0.902000 -0.008000
v -0.330000 0.910000 -0.000000
v -0.360000 0.901962 -0.000000
v -0.330000 0.910000 -0.000000
v -0.300000 0.901962 -0.000000
v -0.304000 0.895033 0.008000
v -0.330000 0.902000 0.008000
v -0.330000 0.902000 0.008000
v -0.304000 0.895033 0.008000
v -0.308000 0.888105 -0.000000
v -0.330000 0.894000 -0.000000
v -0.330000 0.894000 -0.000000
v -0.308000 0.888105 -0.000000
v -0.304000 0.895033 -0.008000
v -0.330000 0.902000 -0.008000
v -0.330000 0.902000 -0.008000
v -0.304000 0.895033 -0.008000
v -0.300000 0.901962 -0.000000
v -0.330000 0.910000 -0.000000
v -0.300000 0.901962 -0.000000
v -0.278038 0.880000 -0.000000
v -0.284967 0.876000 0.008000
v -0.304000 0.895033 0.008000
v -0.304000 0.895033 0.008000
v -0.284967 0.876000 0.008000
v -0.291895 0.872000 -0.000000
v -0.308000 0.888105 -0.000000
v -0.308000 0.888105 -0.000000
v -0.291895 0.872000 -0.000000
v -0.284967 0.876000 -0.008000
v -0.304000 0.895033 -0.008000
v -0.304000 0.895033 -0.008000
v -0.284967 0.876000 -0.008000
v -0.278038 0.880000 -0.000000
v -0.300000 0.901962 -0.000000
v -0.278038 0.880000 -0.000000
v -0.270000 0.850000 0.000000
v -0.278000 0.850000 0.008000
v -0.284967 0.876000 0.008000
v -0.284967 0.876000 0.008000
v -0.278000 0.850000 0.008000
v -0.286000 0.850000 0.000000
v -0.291895 0.872000 -0.000000
v -0.291895 0.872000 -0.000000
v -0.286000 0.850000 0.000000
v -0.278000 0.850000 -0.008000
v -0.284967 0.876000 -0.008000
v -0.284967 0.876000 -0.008000
v -0.278000 0.850000 -0.008000
v -0.270000 0.850000 0.000000
v -0.278038 0.880000 -0.000000
v -0.274000 0.480000 0.000000
v -0.281503 0.452000 0.000000
v -0.288431 0.456000 0.008000
v -0.282000 0.480000 0.008000
v -0.282000 0.480000 0.008000
v -0.288431 0.456000 0.008000
v -0.295359 0.460000 0.000000
v -0.290000 0.480000 0.000000
v -0.290000 0.480000 0.000000
v -0.295359 0.460000 0.000000
v -0.288431 0.456000 -0.008000
v -0.282000 0.480000 -0.008000
v -0.282000 0.480000 -0.008000
v -0.288431 0.456000 -0.008000
v -0.281503 0.452000 0.000000
v -0.274000 0.480000 0.000000
v -0.281503 0.452000 0.000000
v -0.302000 0.431503 0.000000
v -0.306000 0.438431 0.008000
v -0.288431 0.456000 0.008000
v -0.288431 0.456000 0.008000
v -0.306000 0.438431 0.008000
v -0.310000 0.445359 0.000000
v -0.295359 0.460000 0.000000
v -0.295359 0.460000 0.000000
v -0.310000 0.445359 0.000000
v -0.306000 0.438431 -0.008000
v -0.288431 0.456000 -0.008000
v -0.288431 0.456000 -0.008000
v -0.306000 0.438431 -0.008000
v -0.302000 0.431503 0.000000
v -0.281503 0.452000 0.000000
v -0.302000 0.431503 0.000000
v -0.330000 0.424000 0.000000
v -0.330000 0.432000 0.008000
v -0.306000 0.438431 0.008000
v -0.306000 0.438431 0.008000
v -0.330000 0.432000 0.008000
v -0.330000 0.440000 0.000000
v -0.310000 0.445359 0.000000
v -0.310000 0.445359 0.000000
v -0.330000 0.440000 0.000000
v -0.330000 0.432000 -0.008000
v -0.306000 0.438431 -0.008000
v -0.306000 0.438431 -0.008000
v -0.330000 0.432000 -0.008000
v -0.330000 0.424000 0.000000
v -0.302000 0.431503 0.000000
v -0.330000 0.424000 0.000000
v -0.358000 0.431503 0.000000
v -0.354000 0.438431 0.008000
v -0.330000 0.432000 0.008000
v -0.330000 0.432000 0.008000
v -0.354000 0.438431 0.008000
v -0.350000 0.445359 0.000000
v -0.330000 0.440000 0.000000
v -0.330000 0.440000 0.000000
v -0.350000 0.445359 0.000000
v -0.354000 0.438431 -0.008000
v -0.330000 0.432000 -0.008000
v -0.330000 0.432000 -0.008000
v -0.354000 0.438431 -0.008000
v -0.358000 0.431503 0.000000
v -0.330000 0.424000 0.000000
v -0.358000 0.431503 0.000000
v -0.378497 0.452000 0.000000
v -0.371569 0.456000 0.008000
v -0.354000 0.438431 0.008000
v -0.354000 0.438431 0.008000
v -0.371569 0.456000 0.008000
v -0.364641 0.460000 0.000000
v -0.350000 0.445359 0.000000
v -0.350000 0.445359 0.000000
v -0.364641 0.460000 0.000000
v -0.371569 0.456000 -0.008000
v -0.354000 0.438431 -0.008000
v -0.354000 0.438431 -0.008000
v -0.371569 0.456000 -0.008000
v -0.378497 0.452000 0.000000
v -0.358000 0.431503 0.000000
v -0.378497 0.452000 0.000000
v -0.386000 0.480000 0.000000
v -0.378000 0.480000 0.008000
v -0.371569 0.456000 0.008000
v -0.371569 0.456000 0.008000
v -0.378000 0.480000 0.008000
v -0.370000 0.480000 0.000000
v -0.364641 0.460000 0.000000
v -0.364641 0.460000 0.000000
v -0.370000 0.480000 0.000000
v -0.378000 0.480000 -0.008000
v -0.371569 0.456000 -0.008000
v -0.371569 0.456000 -0.008000
v -0.378000 0.480000 -0.008000
v -0.386000 0.480000 0.000000
v -0.378497 0.452000 0.000000
v -0.386000 0.480000 0.000000
v -0.378497 0.508000 -0.000000
v -0.371569 0.504000 0.008000
v -0.378000 0.480000 0.008000
v -0.378000 0.480000 0.008000
v -0.371569 0.504000 0.008000
v -0.364641 0.500000 -0.000000
v -0.370000 0.480000 0.000000
v -0.370000 0.480000 0.000000
v -0.364641 0.500000 -0.000000
v -0.371569 0.504000 -0.008000
v -0.378000 0.480000 -0.008000
v -0.378000 0.480000 -0.008000
v -0.371569 0.504000 -0.008000
v -0.378497 0.508000 -0.000000
v -0.386000 0.480000 0.000000
v -0.378497 0.508000 -0.000000
v -0.358000 0.528497 -0.000000
v -0.354000 0.521569 0.008000
v -0.371569 0.504000 0.008000
v -0.371569 0.504000 0.008000
v -0.354000 0.521569 0.008000
v -0.350000 0.514641 -0.000000
v -0.364641 0.500000 -0.000000
v -0.364641 0.500000 -0.000000
v -0.350000 0.514641 -0.000000
v -0.354000 0.521569 -0.008000
v -0.371569 0.504000 -0.008000
v -0.371569 0.504000 -0.008000
v -0.354000 0.521569 -0.008000
v -0.358000 0.528497 -0.000000
v -0.378497 0.508000 -0.000000
v -0.358000 0.528497 -0.000000
v -0.330000 0.536000 -0.000000
v -0.330000 0.528000 0.008000
v -0.354000 0.521569 0.008000
v -0.354000 0.521569 0.008000
v -0.330000 0.528000 0.008000
v -0.330000 0.520000 -0.000000
v -0.350000 0.514641 -0.000000
v -0.350000 0.514641 -0.000000
v -0.330000 0.520000 -0.000000
v -0.330000 0.528000 -0.008000
v -0.354000 0.521569 -0.008000
v -0.354000 0.521569 -0.008000
v -0.330000 0.528000 -0.008000
v -0.330000 0.536000 -0.000000
v -0.358000 0.528497 -0.000000
v -0.330000 0.536000 -0.000000
v -0.302000 0.528497 -0.000000
v -0.306000 0.521569 0.008000
v -0.330000 0.528000 0.008000
v -0.330000 0.528000 0.008000
v -0.306000 0.521569 0.008000
v -0.310000 0.514641 -0.000000
v -0.330000 0.520000 -0.000000
v -0.330000 0.520000 -0.000000
v -0.310000 0.514641 -0.000000
v -0.306000 0.521569 -0.008000
v -0.330000 0.528000 -0.008000
v -0.330000 0.528000 -0.008000
v -0.306000 0.521569 -0.008000
v -0.302000 0.528497 -0.000000
v -0.330000 0.536000 -0.000000
v -0.302000 0.528497 -0.000000
v -0.281503 0.508000 -0.000000
v -0.288431 0.504000 0.008000
v -0.306000 0.521569 0.008000
v -0.306000 0.521569 0.008000
v -0.288431 0.504000 0.008000
v -0.295359 0.500000 -0.000000
v -0.310000 0.514641 -0.000000
v -0.310000 0.514641 -0.000000
v -0.295359 0.500000 -0.000000
v -0.288431 0.504000 -0.008000
v -0.306000 0.521569 -0.008000
v -0.306000 0.521569 -0.008000
v -0.288431 0.504000 -0.008000
v -0.281503 0.508000 -0.000000
v -0.302000 0.528497 -0.000000
v -0.281503 0.508000 -0.000000
v -0.274000 0.480000 0.000000
v -0.282000 0.480000 0.008000
v -0.288431 0.504000 0.008000
v -0.288431 0.504000 0.008000
v -0.282000 0.480000 0.008000
v -0.290000 0.480000 0.000000
v -0.295359 0.500000 -0.000000
v -0.295359 0.500000 -0.000000
v -0.290000 0.480000 0.000000
v -0.282000 0.480000 -0.008000
v -0.288431 0.504000 -0.008000
v -0.288431 0.504000 -0.008000
v -0.282000 0.480000 -0.008000
v -0.274000 0.480000 0.000000
v -0.281503 0.508000 -0.000000
v 0.557780 0.464403 -0.124722
v 0.550843 0.467676 -0.130164
v 0.120979 0.303918 0.319280
v 0.127916 0.300645 0.324722
v 0.550843 0.467676 -0.130164
v 0.549557 0.476757 -0.128085
v 0.119693 0.312999 0.321359
v 0.120979 0.303918 0.319280
v 0.549557 0.476757 -0.128085
v 0.555699 0.479097 -0.121359
v 0.125835 0.315339 0.328085
v 0.119693 0.312999 0.321359
v 0.555699 0.479097 -0.121359
v 0.560781 0.471462 -0.119280
v 0.130917 0.307704 0.330164
v 0.125835 0.315339 0.328085
v 0.560781 0.471462 -0.119280
v 0.557780 0.464403 -0.124722
v 0.127916 0.300645 0.324722
v 0.130917 0.307704 0.330164
v 0.554932 0.471879 -0.124722
v 0.550843 0.467676 -0.130164
v 0.557780 0.464403 -0.124722
v 0.125068 0.308121 0.324722
v 0.127916 0.300645 0.324722
v 0.120979 0.303918 0.319280
v 0.554932 0.471879 -0.124722
v 0.549557 0.476757 -0.128085
v 0.550843 0.467676 -0.130164
v 0.125068 0.308121 0.324722
v 0.120979 0.303918 0.319280
v 0.119693 0.312999 0.321359
v 0.554932 0.471879 -0.124722
v 0.555699 0.479097 -0.121359
v 0.549557 0.476757 -0.128085
v 0.125068 0.308121 0.324722
v 0.119693 0.312999 0.321359
v 0.125835 0.315339 0.328085
v 0.554932 0.471879 -0.124722
v 0.560781 0.471462 -0.119280
v 0.555699 0.479097 -0.121359
v 0.125068 0.308121 0.324722
v 0.125835 0.315339 0.328085
v 0.130917 0.307704 0.330164
v 0.554932 0.471879 -0.124722
v 0.557780 0.464403 -0.124722
v 0.560781 0.471462 -0.119280
v 0.125068 0.308121 0.324722
v 0.130917 0.307704 0.330164
v 0.127916 0.300645 0.324722
v 0.652141 0.169985 -0.265066
v 0.650278 0.177097 -0.270931
v 0.238841 0.382815 0.109201
v 0.240704 0.375704 0.115066
v 0.650278 0.177097 -0.270931
v 0.655934 0.184269 -0.268691
v 0.244497 0.389988 0.111441
v 0.238841 0.382815 0.109201
v 0.655934 0.184269 -0.268691
v 0.661292 0.181590 -0.261441
v 0.249855 0.387308 0.118691
v 0.244497 0.389988 0.111441
v 0.661292 0.181590 -0.261441
v 0.658948 0.172762 -0.259201
v 0.247511 0.378480 0.120931
v 0.249855 0.387308 0.118691
v 0.658948 0.172762 -0.259201
v 0.652141 0.169985 -0.265066
v 0.240704 0.375704 0.115066
v 0.247511 0.378480 0.120931
v 0.655718 0.177141 -0.265066
v 0.650278 0.177097 -0.270931
v 0.652141 0.169985 -0.265066
v 0.244282 0.382859 0.115066
v 0.240704 0.375704 0.115066
v 0.238841 0.382815 0.109201
v 0.655718 0.177141 -0.265066
v 0.655934 0.184269 -0.268691
v 0.650278 0.177097 -0.270931
v 0.244282 0.382859 0.115066
v 0.238841 0.382815 0.109201
v 0.244497 0.389988 0.111441
v 0.655718 0.177141 -0.265066
v 0.661292 0.181590 -0.261441
v 0.655934 0.184269 -0.268691
v 0.244282 0.382859 0.115066
v 0.244497 0.389988 0.111441
v 0.249855 0.387308 0.118691
v 0.655718 0.177141 -0.265066
v 0.658948 0.172762 -0.259201
v 0.661292 0.181590 -0.261441
v 0.244282 0.382859 0.115066
v 0.249855 0.387308 0.118691
v 0.247511 0.378480 0.120931
v 0.655718 0.177141 -0.265066
v 0.652141 0.169985 -0.265066
v 0.658948 0.172762 -0.259201
v 0.244282 0.382859 0.115066
v 0.247511 0.378480 0.120931
v 0.240704 0.375704 0.115066
v -0.623196 0.365542 -0.074164
v -0.622125 0.358827 -0.080660
v -0.228577 0.162053 0.187668
v -0.229648 0.168768 0.194164
v -0.622125 0.358827 -0.080660
v -0.627479 0.351503 -0.078179
v -0.233931 0.154729 0.190149
v -0.228577 0.162053 0.187668
v -0.627479 0.351503 -0.078179
v -0.631858 0.353693 -0.070149
v -0.238310 0.156919 0.198179
v -0.233931 0.154729 0.190149
v -0.631858 0.353693 -0.070149
v -0.629212 0.362370 -0.067668
v -0.235664 0.165596 0.200660
v -0.238310 0.156919 0.198179
v -0.629212 0.362370 -0.067668
v -0.623196 0.365542 -0.074164
v -0.229648 0.168768 0.194164
v -0.235664 0.165596 0.200660
v -0.626774 0.358387 -0.074164
v -0.622125 0.358827 -0.080660
v -0.623196 0.365542 -0.074164
v -0.233226 0.161613 0.194164
v -0.229648 0.168768 0.194164
v -0.228577 0.162053 0.187668
v -0.626774 0.358387 -0.074164
v -0.627479 0.351503 -0.078179
v -0.622125 0.358827 -0.080660
v -0.233226 0.161613 0.194164
v -0.228577 0.162053 0.187668
v -0.233931 0.154729 0.190149
v -0.626774 0.358387 -0.074164
v -0.631858 0.353693 -0.070149
v -0.627479 0.351503 -0.078179
v -0.233226 0.161613 0.194164
v -0.233931 0.154729 0.190149
v -0.238310 0.156919 0.198179
v -0.626774 0.358387 -0.074164
v -0.629212 0.362370 -0.067668
v -0.631858 0.353693 -0.070149
v -0.233226 0.161613 0.194164
v -0.238310 0.156919 0.198179
v -0.235664 0.165596 0.200660
v -0.626774 0.358387 -0.074164
v -0.623196 0.365542 -0.074164
v -0.629212 0.362370 -0.067668
v -0.233226 0.161613 0.194164
v -0.235664 0.165596 0.200660
v -0.229648 0.168768 0.194164
vt 0.000000 0.000000
vt 1.000000 0.000000
vt 1.000000 1.000000
vt 0.000000 1.000000
vt 0.000000 0.000000
vt 1.000000 0.000000
vt 1.000000 1.000000
vt 0.000000 1.000000
vt 0.000000 0.000000
vt 1.000000 0.000000
vt 1.000000 1.000000
vt 0.000000 1.000000
vt 0.000000 0.000000
vt 1.000000 0.000000
vt 1.000000 1.000000
vt 0.000000 1.000000
vt 0.000000 0.000000
vt 1.000000 0.000000
vt 1.000000 1.000000
vt 0.000000 1.000000
vt 0.000000 0.000000
vt 1.000000 0.000000
vt 1.000000 1.000000
vt 0.000000 1.000000
vt 0.000000 0.000000
vt 1.000000 0.000000
vt 1.000000 1.000000
vt 0.000000 1.000000
vt 0.500000 0.500000
vt 0.000000 0.000000
vt 1.000000 0.000000
vt 0.500000 0.500000
vt 0.000000 1.000000
vt 1.000000 1.000000
vt 0.500000 0.500000
vt 0.000000 0.000000
vt 1.000000 0.000000
vt 0.500000 0.500000
vt 0.000000 1.000000
vt 1.000000 1.000000
vt 0.500000 0.500000
vt 0.000000 0.000000
vt 1.000000 0.000000
vt 0.500000 0.500000
vt 0.000000 1.000000
vt 1.000000 1.000000
vt 0.500000 0.500000
vt 0.000000 0.000000
vt 1.000000 0.000000
vt 0.500000 0.500000
vt 0.000000 1.000000
vt 1.000000 1.000000
vt 0.500000 0.500000
vt 0.000000 0.000000
vt 1.000000 0.000000
vt 0.500000 0.500000
vt 0.000000 1.000000
vt 1.000000 1.000000
vt 0.500000 0.500000
vt 0.000000 0.000000
vt 1.000000 0.000000
vt 0.500000 0.500000
vt 0.000000 1.000000
vt 1.000000 1.000000
vt 0.500000 0.500000
vt 0.000000 0.000000
vt 1.000000 0.000000
vt 0.500000 0.500000
vt 0.000000 1.000000
vt 1.000000 1.000000
vt 0.000000 0.000000
vt 0.000000 0.000000
vt 0.000000 0.000000
vt 0.000000 0.000000
vt 0.000000 0.000000
vt 0.000000 0.000000
vt 0.000000 0.000000
vt 1.000000 0.000000
vt 1.000000 1.000000
vt 0.000000 1.000000
vt 0.000000 0.000000
vt 1.000000 0.000000
vt 1.000000 1.000000
vt 0.000000 1.000000
vt 0.000000 0.000000
vt 1.000000 0.000000
vt 1.000000 1.000000
vt 0.000000 1.000000
vt 0.000000 0.000000
vt 1.000000 0.000000
vt 1.000000 1.000000
vt 0.000000 1.000000
vt 0.000000 0.000000
vt 1.000000 0.000000
vt 1.000000 1.000000
vt 0.000000 1.000000
vt 0.500000 0.500000
vt 0.000000 0.000000
vt 1.000000 0.000000
vt 0.500000 0.500000
vt 0.000000 1.000000
vt 1.000000 1.000000
vt 0.500000 0.500000
vt 0.000000 0.000000
vt 1.000000 0.000000
vt 0.500000 0.500000
vt 0.000000 1.000000
vt 1.000000 1.000000
vt 0.500000 0.500000
vt 0.000000 0.000000
vt 1.000000 0.000000
vt 0.500000 0.500000
vt 0.000000 1.000000
vt 1.000000 1.000000
vt 0.500000 0.500000
vt 0.000000 0.000000
vt 1.000000 0.000000
vt 0.500000 0.500000
vt 0.000000 1.000000
vt 1.000000 1.000000
vt 0.500000 0.500000
vt 0.000000 0.000000
vt 1.000000 0.000000
vt 0.500000 0.500000
vt 0.000000 1.000000
vt 1.000000 1.000000
vt 0.000000 0.000000
vt 1.000000 0.000000
vt 1.000000 1.000000
vt 0.000000 1.000000
vt 0.000000 0.000000
vt 1.000000 0.000000
vt 1.000000 1.000000
vt 0.000000 1.000000
vt 0.000000 0.000000
vt 1.000000 0.000000
vt 1.000000 1.000000
vt 0.000000 1.000000
vt 0.000000 0.000000
vt 1.000000 0.000000
vt 1.000000 1.000000
vt 0.000000 1.000000
vt 0.000000 0.000000
vt 1.000000 0.000000
vt 1.000000 1.000000
vt 0.000000 1.000000
vt 0.000000 0.000000
vt 1.000000 0.000000
vt 1.000000 1.000000
vt 0.000000 1.000000
vt 0.500000 0.500000
vt 0.000000 0.000000
vt 1.000000 0.000000
vt 0.500000 0.500000
vt 0.000000 1.000000
vt 1.000000 1.000000
vt 0.500000 0.500000
vt 0.000000 0.000000
vt 1.000000 0.000000
vt 0.500000 0.500000
vt 0.000000 1.000000
vt 1.000000 1.000000
vt 0.500000 0.500000
vt 0.000000 0.000000
vt 1.000000 0.000000
vt 0.500000 0.500000
vt 0.000000 1.000000
vt 1.000000 1.000000
vt 0.500000 0.500000
vt 0.000000 0.000000
vt 1.000000 0.000000
vt 0.500000 0.500000
vt 0.000000 1.000000
vt 1.000000 1.000000
vt 0.500000 0.500000
vt 0.000000 0.000000
vt 1.000000 0.000000
vt 0.500000 0.500000
vt 0.000000 1.000000
vt 1.000000 1.000000
vt 0.500000 0.500000
vt 0.000000 0.000000
vt 1.000000 0.000000
vt 0.500000 0.500000
vt 0.000000 1.000000
vt 1.000000 1.000000
vt 0.000000 0.000000
vt 1.000000 0.000000
vt 1.000000 1.000000
vt 0.000000 1.000000
vt 0.000000 0.000000
vt 1.000000 0.000000
vt 1.000000 1.000000
vt 0.000000 1.000000
vt 0.000000 0.000000
vt 1.000000 0.000000
vt 1.000000 1.000000
vt 0.000000 1.000000
vt 0.000000 0.000000
vt 1.000000 0.000000
vt 1.000000 1.000000
vt 0.000000 1.000000
vt 0.000000 0.000000
vt 1.000000 0.000000
vt 1.000000 1.000000
vt 0.000000 1.000000
vt 0.000000 0.000000
vt 1.000000 0.000000
vt 1.000000 1.000000
vt 0.000000 1.000000
vt 0.000000 0.000000
vt 1.000000 0.000000
vt 1.000000 1.000000
vt 0.000000 1.000000
vt 0.000000 0.000000
vt 1.000000 0.000000
vt 1.000000 1.000000
vt 0.000000 1.000000
vt 0.000000 0.000000
vt 1.000000 0.000000
vt 1.000000 1.000000
vt 0.000000 1.000000
vt 0.000000 0.000000
vt 1.000000 0.000000
vt 1.000000 1.000000
vt 0.000000 1.000000
vt 0.000000 0.000000
vt 1.000000 0.000000
vt 1.000000 1.000000
vt 0.000000 1.000000
vt 0.000000 0.000000
vt 1.000000 0.000000
vt 1.000000 1.000000
vt 0.000000 1.000000
vt 0.000000 0.000000
vt 1.000000 0.000000
vt 1.000000 1.000000
vt 0.000000 1.000000
vt 0.000000 0.000000
vt 1.000000 0.000000
vt 1.000000 1.000000
vt 0.000000 1.000000
vt 0.000000 0.000000
vt 1.000000 0.000000
vt 1.000000 1.000000
vt 0.000000 1.000000
vt 0.000000 0.000000
vt 1.000000 0.000000
vt 1.000000 1.000000
vt 0.000000 1.000000
vt 0.000000 0.000000
vt 1.000000 0.000000
vt 1.000000 1.000000
vt 0.000000 1.000000
vt 0.000000 0.000000
vt 1.000000 0.000000
vt 1.000000 1.000000
vt 0.000000 1.000000
vt 0.000000 0.000000
vt 1.000000 0.000000
vt 1.000000 1.000000
vt 0.000000 1.000000
vt 0.000000 0.000000
vt 1.000000 0.000000
vt 1.000000 1.000000
vt 0.000000 1.000000
vt 0.000000 0.000000
vt 1.000000 0.000000
vt 1.000000 1.000000
vt 0.000000 1.000000
vt 0.000000 0.000000
vt 1.000000 0.000000
vt 1.000000 1.000000
vt 0.000000 1.000000
vt 0.000000 0.000000
vt 1.000000 0.000000
vt 1.000000 1.000000
vt 0.000000 1.000000
vt 0.000000 0.000000
vt 1.000000 0.000000
vt 1.000000 1.000000
vt 0.000000 1.000000
vt 0.000000 0.000000
vt 1.000000 0.000000
vt 1.000000 1.000000
vt 0.000000 1.000000
vt 0.000000 0.000000
vt 1.000000 0.000000
vt 1.000000 1.000000
vt 0.000000 1.000000
vt 0.000000 0.000000
vt 1.000000 0.000000
vt 1.000000 1.000000
vt 0.000000 1.000000
vt 0.000000 0.000000
vt 1.000000 0.000000
vt 1.000000 1.000000
vt 0.000000 1.000000
vt 0.000000 0.000000
vt 1.000000 0.000000
vt 1.000000 1.000000
vt 0.000000 1.000000
vt 0.000000 0.000000
vt 1.000000 0.000000
vt 1.000000 1.000000
vt 0.000000 1.000000
vt 0.000000 0.000000
vt 1.000000 0.000000
vt 1.000000 1.000000
vt 0.000000 1.000000
vt 0.000000 0.000000
vt 1.000000 0.000000
vt 1.000000 1.000000
vt 0.000000 1.000000
vt 0.000000 0.000000
vt 1.000000 0.000000
vt 1.000000 1.000000
vt 0.000000 1.000000
vt 0.000000 0.000000
vt 1.000000 0.000000
vt 1.000000 1.000000
vt 0.000000 1.000000
vt 0.000000 0.000000
vt 1.000000 0.000000
vt 1.000000 1.000000
vt 0.000000 1.000000
vt 0.000000 0.000000
vt 1.000000 0.000000
vt 1.000000 1.000000
vt 0.000000 1.000000
vt 0.000000 0.000000
vt 1.000000 0.000000
vt 1.000000 1.000000
vt 0.000000 1.000000
vt 0.000000 0.000000
vt 1.000000 0.000000
vt 1.000000 1.000000
vt 0.000000 1.000000
vt 0.000000 0.000000
vt 1.000000 0.000000
vt 1.000000 1.000000
vt 0.000000 1.000000
vt 0.000000 0.000000
vt 1.000000 0.000000
vt 1.000000 1.000000
vt 0.000000 1.000000
vt 0.000000 0.000000
vt 1.000000 0.000000
vt 1.000000 1.000000
vt 0.000000 1.000000
vt 0.000000 0.000000
vt 1.000000 0.000000
vt 1.000000 1.000000
vt 0.000000 1.000000
vt 0.000000 0.000000
vt 1.000000 0.000000
vt 1.000000 1.000000
vt 0.000000 1.000000
vt 0.000000 0.000000
vt 1.000000 0.000000
vt 1.000000 1.000000
vt 0.000000 1.000000
vt 0.000000 0.000000
vt 1.000000 0.000000
vt 1.000000 1.000000
vt 0.000000 1.000000
vt 0.000000 0.000000
vt 1.000000 0.000000
vt 1.000000 1.000000
vt 0.000000 1.000000
vt 0.000000 0.000000
vt 1.000000 0.000000
vt 1.000000 1.000000
vt 0.000000 1.000000
vt 0.000000 0.000000
vt 1.000000 0.000000
vt 1.000000 1.000000
vt 0.000000 1.000000
vt 0.000000 0.000000
vt 1.000000 0.000000
vt 1.000000 1.000000
vt 0.000000 1.000000
vt 0.000000 0.000000
vt 1.000000 0.000000
vt 1.000000 1.000000
vt 0.000000 1.000000
vt 0.000000 0.000000
vt 1.000000 0.000000
vt 1.000000 1.000000
vt 0.000000 1.000000
vt 0.000000 0.000000
vt 1.000000 0.000000
vt 1.000000 1.000000
vt 0.000000 1.000000
vt 0.000000 0.000000
vt 1.000000 0.000000
vt 1.000000 1.000000
vt 0.000000 1.000000
vt 0.000000 0.000000
vt 1.000000 0.000000
vt 1.000000 1.000000
vt 0.000000 1.000000
vt 0.000000 0.000000
vt 1.000000 0.000000
vt 1.000000 1.000000
vt 0.000000 1.000000
vt 0.000000 0.000000
vt 1.000000 0.000000
vt 1.000000 1.000000
vt 0.000000 1.000000
vt 0.000000 0.000000
vt 1.000000 0.000000
vt 1.000000 1.000000
vt 0.000000 1.000000
vt 0.000000 0.000000
vt 1.000000 0.000000
vt 1.000000 1.000000
vt 0.000000 1.000000
vt 0.000000 0.000000
vt 1.000000 0.000000
vt 1.000000 1.000000
vt 0.000000 1.000000
vt 0.000000 0.000000
vt 1.000000 0.000000
vt 1.000000 1.000000
vt 0.000000 1.000000
vt 0.000000 0.000000
vt 1.000000 0.000000
vt 1.000000 1.000000
vt 0.000000 1.000000
vt 0.000000 0.000000
vt 1.000000 0.000000
vt 1.000000 1.000000
vt 0.000000 1.000000
vt 0.000000 0.000000
vt 1.000000 0.000000
vt 1.000000 1.000000
vt 0.000000 1.000000
vt 0.000000 0.000000
vt 1.000000 0.000000
vt 1.000000 1.000000
vt 0.000000 1.000000
vt 0.000000 0.000000
vt 1.000000 0.000000
vt 1.000000 1.000000
vt 0.000000 1.000000
vt 0.000000 0.000000
vt 1.000000 0.000000
vt 1.000000 1.000000
vt 0.000000 1.000000
vt 0.000000 0.000000
vt 1.000000 0.000000
vt 1.000000 1.000000
vt 0.000000 1.000000
vt 0.000000 0.000000
vt 1.000000 0.000000
vt 1.000000 1.000000
vt 0.000000 1.000000
vt 0.000000 0.000000
vt 1.000000 0.000000
vt 1.000000 1.000000
vt 0.000000 1.000000
vt 0.000000 0.000000
vt 1.000000 0.000000
vt 1.000000 1.000000
vt 0.000000 1.000000
vt 0.000000 0.000000
vt 1.000000 0.000000
vt 1.000000 1.000000
vt 0.000000 1.000000
vt 0.000000 0.000000
vt 1.000000 0.000000
vt 1.000000 1.000000
vt 0.000000 1.000000
vt 0.000000 0.000000
vt 1.000000 0.000000
vt 1.000000 1.000000
vt 0.000000 1.000000
vt 0.000000 0.000000
vt 1.000000 0.000000
vt 1.000000 1.000000
vt 0.000000 1.000000
vt 0.000000 0.000000
vt 1.000000 0.000000
vt 1.000000 1.000000
vt 0.000000 1.000000
vt 0.000000 0.000000
vt 1.000000 0.000000
vt 1.000000 1.000000
vt 0.000000 1.000000
vt 0.000000 0.000000
vt 1.000000 0.000000
vt 1.000000 1.000000
vt 0.000000 1.000000
vt 0.000000 0.000000
vt 1.000000 0.000000
vt 1.000000 1.000000
vt 0.000000 1.000000
vt 0.000000 0.000000
vt 1.000000 0.000000
vt 1.000000 1.000000
vt 0.000000 1.000000
vt 0.000000 0.000000
vt 1.000000 0.000000
vt 1.000000 1.000000
vt 0.000000 1.000000
vt 0.000000 0.000000
vt 1.000000 0.000000
vt 1.000000 1.000000
vt 0.000000 1.000000
vt 0.000000 0.000000
vt 1.000000 0.000000
vt 1.000000 1.000000
vt 0.000000 1.000000
vt 0.000000 0.000000
vt 1.000000 0.000000
vt 1.000000 1.000000
vt 0.000000 1.000000
vt 0.000000 0.000000
vt 1.000000 0.000000
vt 1.000000 1.000000
vt 0.000000 1.000000
vt 0.000000 0.000000
vt 1.000000 0.000000
vt 1.000000 1.000000
vt 0.000000 1.000000
vt 0.000000 0.000000
vt 1.000000 0.000000
vt 1.000000 1.000000
vt 0.000000 1.000000
vt 0.000000 0.000000
vt 1.000000 0.000000
vt 1.000000 1.000000
vt 0.000000 1.000000
vt 0.000000 0.000000
vt 1.000000 0.000000
vt 1.000000 1.000000
vt 0.000000 1.000000
vt 0.000000 0.000000
vt 1.000000 0.000000
vt 1.000000 1.000000
vt 0.000000 1.000000
vt 0.000000 0.000000
vt 1.000000 0.000000
vt 1.000000 1.000000
vt 0.000000 1.000000
vt 0.000000 0.000000
vt 1.000000 0.000000
vt 1.000000 1.000000
vt 0.000000 1.000000
vt 0.000000 0.000000
vt 1.000000 0.000000
vt 1.000000 1.000000
vt 0.000000 1.000000
vt 0.000000 0.000000
vt 1.000000 0.000000
vt 1.000000 1.000000
vt 0.000000 1.000000
vt 0.000000 0.000000
vt 1.000000 0.000000
vt 1.000000 1.000000
vt 0.000000 1.000000
vt 0.000000 0.000000
vt 1.000000 0.000000
vt 1.000000 1.000000
vt 0.000000 1.000000
vt 0.000000 0.000000
vt 1.000000 0.000000
vt 1.000000 1.000000
vt 0.000000 1.000000
vt 0.000000 0.000000
vt 1.000000 0.000000
vt 1.000000 1.000000
vt 0.000000 1.000000
vt 0.000000 0.000000
vt 1.000000 0.000000
vt 1.000000 1.000000
vt 0.000000 1.000000
vt 0.000000 0.000000
vt 1.000000 0.000000
vt 1.000000 1.000000
vt 0.000000 1.000000
vt 0.000000 0.000000
vt 1.000000 0.000000
vt 1.000000 1.000000
vt 0.000000 1.000000
vt 0.000000 0.000000
vt 1.000000 0.000000
vt 1.000000 1.000000
vt 0.000000 1.000000
vt 0.000000 0.000000
vt 1.000000 0.000000
vt 1.000000 1.000000
vt 0.000000 1.000000
vt 0.000000 0.000000
vt 1.000000 0.000000
vt 1.000000 1.000000
vt 0.000000 1.000000
vt 0.000000 0.000000
vt 1.000000 0.000000
vt 1.000000 1.000000
vt 0.000000 1.000000
vt 0.000000 0.000000
vt 1.000000 0.000000
vt 1.000000 1.000000
vt 0.000000 1.000000
vt 0.000000 0.000000
vt 1.000000 0.000000
vt 1.000000 1.000000
vt 0.000000 1.000000
vt 0.000000 0.000000
vt 1.000000 0.000000
vt 1.000000 1.000000
vt 0.000000 1.000000
vt 0.000000 0.000000
vt 1.000000 0.000000
vt 1.000000 1.000000
vt 0.000000 1.000000
vt 0.000000 0.000000
vt 1.000000 0.000000
vt 1.000000 1.000000
vt 0.000000 1.000000
vt 0.000000 0.000000
vt 1.000000 0.000000
vt 1.000000 1.000000
vt 0.000000 1.000000
vt 0.000000 0.000000
vt 1.000000 0.000000
vt 1.000000 1.000000
vt 0.000000 1.000000
vt 0.000000 0.000000
vt 1.000000 0.000000
vt 1.000000 1.000000
vt 0.000000 1.000000
vt 0.000000 0.000000
vt 1.000000 0.000000
vt 1.000000 1.000000
vt 0.000000 1.000000
vt 0.000000 0.000000
vt 1.000000 0.000000
vt 1.000000 1.000000
vt 0.000000 1.000000
vt 0.000000 0.000000
vt 1.000000 0.000000
vt 1.000000 1.000000
vt 0.000000 1.000000
vt 0.000000 0.000000
vt 1.000000 0.000000
vt 1.000000 1.000000
vt 0.000000 1.000000
vt 0.000000 0.000000
vt 1.000000 0.000000
vt 1.000000 1.000000
vt 0.000000 1.000000
vt 0.000000 0.000000
vt 1.000000 0.000000
vt 1.000000 1.000000
vt 0.000000 1.000000
vt 0.000000 0.000000
vt 1.000000 0.000000
vt 1.000000 1.000000
vt 0.000000 1.000000
vt 0.000000 0.000000
vt 1.000000 0.000000
vt 1.000000 1.000000
vt 0.000000 1.000000
vt 0.000000 0.000000
vt 1.000000 0.000000
vt 1.000000 1.000000
vt 0.000000 1.000000
vt 0.000000 0.000000
vt 1.000000 0.000000
vt 1.000000 1.000000
vt 0.000000 1.000000
vt 0.000000 0.000000
vt 1.000000 0.000000
vt 1.000000 1.000000
vt 0.000000 1.000000
vt 0.000000 0.000000
vt 1.000000 0.000000
vt 1.000000 1.000000
vt 0.000000 1.000000
vt 0.000000 0.000000
vt 1.000000 0.000000
vt 1.000000 1.000000
vt 0.000000 1.000000
vt 0.500000 0.500000
vt 0.000000 0.000000
vt 1.000000 0.000000
vt 0.500000 0.500000
vt 0.000000 1.000000
vt 1.000000 1.000000
vt 0.500000 0.500000
vt 0.000000 0.000000
vt 1.000000 0.000000
vt 0.500000 0.500000
vt 0.000000 1.000000
vt 1.000000 1.000000
vt 0.500000 0.500000
vt 0.000000 0.000000
vt 1.000000 0.000000
vt 0.500000 0.500000
vt 0.000000 1.000000
vt 1.000000 1.000000
vt 0.500000 0.500000
vt 0.000000 0.000000
vt 1.000000 0.000000
vt 0.500000 0.500000
vt 0.000000 1.000000
vt 1.000000 1.000000
vt 0.500000 0.500000
vt 0.000000 0.000000
vt 1.000000 0.000000
vt 0.500000 0.500000
vt 0.000000 1.000000
vt 1.000000 1.000000
vt 0.000000 0.000000
vt 1.000000 0.000000
vt 1.000000 1.000000
vt 0.000000 1.000000
vt 0.000000 0.000000
vt 1.000000 0.000000
vt 1.000000 1.000000
vt 0.000000 1.000000
vt 0.000000 0.000000
vt 1.000000 0.000000
vt 1.000000 1.000000
vt 0.000000 1.000000
vt 0.000000 0.000000
vt 1.000000 0.000000
vt 1.000000 1.000000
vt 0.000000 1.000000
vt 0.000000 0.000000
vt 1.000000 0.000000
vt 1.000000 1.000000
vt 0.000000 1.000000
vt 0.500000 0.500000
vt 0.000000 0.000000
vt 1.000000 0.000000
vt 0.500000 0.500000
vt 0.000000 1.000000
vt 1.000000 1.000000
vt 0.500000 0.500000
vt 0.000000 0.000000
vt 1.000000 0.000000
vt 0.500000 0.500000
vt 0.000000 1.000000
vt 1.000000 1.000000
vt 0.500000 0.500000
vt 0.000000 0.000000
vt 1.000000 0.000000
vt 0.500000 0.500000
vt 0.000000 1.000000
vt 1.000000 1.000000
vt 0.500000 0.500000
vt 0.000000 0.000000
vt 1.000000 0.000000
vt 0.500000 0.500000
vt 0.000000 1.000000
vt 1.000000 1.000000
vt 0.500000 0.500000
vt 0.000000 0.000000
vt 1.000000 0.000000
vt 0.500000 0.500000
vt 0.000000 1.000000
vt 1.000000 1.000000
vt 0.000000 0.000000
vt 1.000000 0.000000
vt 1.000000 1.000000
vt 0.000000 1.000000
vt 0.000000 0.000000
vt 1.000000 0.000000
vt 1.000000 1.000000
vt 0.000000 1.000000
vt 0.000000 0.000000
vt 1.000000 0.000000
vt 1.000000 1.000000
vt 0.000000 1.000000
vt 0.000000 0.000000
vt 1.000000 0.000000
vt 1.000000 1.000000
vt 0.000000 1.000000
vt 0.000000 0.000000
vt 1.000000 0.000000
vt 1.000000 1.000000
vt 0.000000 1.000000
vt 0.500000 0.500000
vt 0.000000 0.000000
vt 1.000000 0.000000
vt 0.500000 0.500000
vt 0.000000 1.000000
vt 1.000000 1.000000
vt 0.500000 0.500000
vt 0.000000 0.000000
vt 1.000000 0.000000
vt 0.500000 0.500000
vt 0.000000 1.000000
vt 1.000000 1.000000
vt 0.500000 0.500000
vt 0.000000 0.000000
vt 1.000000 0.000000
vt 0.500000 0.500000
vt 0.000000 1.000000
vt 1.000000 1.000000
vt 0.500000 0.500000
vt 0.000000 0.000000
vt 1.000000 0.000000
vt 0.500000 0.500000
vt 0.000000 1.000000
vt 1.000000 1.000000
vt 0.500000 0.500000
vt 0.000000 0.000000
vt 1.000000 0.000000
vt 0.500000 0.500000
vt 0.000000 1.000000
vt 1.000000 1.000000
usemtl Wood
f 1/1 2/2 3/3
f 1/1 3/3 4/4
f 5/5 6/6 7/7
f 5/5 7/7 8/8
f 9/9 10/10 11/11
f 9/9 11/11 12/12
f 13/13 14/14 15/15
f 13/13 15/15 16/16
f 17/17 18/18 19/19
f 17/17 19/19 20/20
f 21/21 22/22 23/23
f 21/21 23/23 24/24
f 25/25 26/26 27/27
f 25/25 27/27 28/28
f 29/29 30/30 31/31
f 32/32 33/33 34/34
f 35/35 36/36 37/37
f 38/38 39/39 40/40
f 41/41 42/42 43/43
f 44/44 45/45 46/46
f 47/47 48/48 49/49
f 50/50 51/51 52/52
f 53/53 54/54 55/55
f 56/56 57/57 58/58
f 59/59 60/60 61/61
f 62/62 63/63 64/64
f 65/65 66/66 67/67
f 68/68 69/69 70/70
usemtl Cloth
f 71/71 72/72 73/73
f 74/74 75/75 76/76
f 77/77 78/78 79/79
f 77/77 79/79 80/80
f 81/81 82/82 83/83
f 81/81 83/83 84/84
f 85/85 86/86 87/87
f 85/85 87/87 88/88
f 89/89 90/90 91/91
f 89/89 91/91 92/92
f 93/93 94/94 95/95
f 93/93 95/95 96/96
f 97/97 98/98 99/99
f 100/100 101/101 102/102
f 103/103 104/104 105/105
f 106/106 107/107 108/108
f 109/109 110/110 111/111
f 112/112 113/113 114/114
f 115/115 116/116 117/117
f 118/118 119/119 120/120
f 121/121 122/122 123/123
f 124/124 125/125 126/126
usemtl Rope
f 127/127 128/128 129/129
f 127/127 129/129 130/130
f 131/131 132/132 133/133
f 131/131 133/133 134/134
f 135/135 136/136 137/137
f 135/135 137/137 138/138
f 139/139 140/140 141/141
f 139/139 141/141 142/142
f 143/143 144/144 145/145
f 143/143 145/145 146/146
f 147/147 148/148 149/149
f 147/147 149/149 150/150
f 151/151 152/152 153/153
f 154/154 155/155 156/156
f 157/157 158/158 159/159
f 160/160 161/161 162/162
f 163/163 164/164 165/165
f 166/166 167/167 168/168
f 169/169 170/170 171/171
f 172/172 173/173 174/174
f 175/175 176/176 177/177
f 178/178 179/179 180/180
f 181/181 182/182 183/183
f 184/184 185/185 186/186
usemtl Cloth
f 187/187 188/188 189/189
f 187/187 189/189 190/190
f 191/191 192/192 193/193
f 191/191 193/193 194/194
f 195/195 196/196 197/197
f 195/195 197/197 198/198
f 199/199 200/200 201/201
f 199/199 201/201 202/202
f 203/203 204/204 205/205
f 203/203 205/205 206/206
f 207/207 208/208 209/209
f 207/207 209/209 210/210
f 211/211 212/212 213/213
f 211/211 213/213 214/214
f 215/215 216/216 217/217
f 215/215 217/217 218/218
f 219/219 220/220 221/221
f 219/219 221/221 222/222
f 223/223 224/224 225/225
f 223/223 225/225 226/226
f 227/227 228/228 229/229
f 227/227 229/229 230/230
f 231/231 232/232 233/233
f 231/231 233/233 234/234
f 235/235 236/236 237/237
f 235/235 237/237 238/238
f 239/239 240/240 241/241
f 239/239 241/241 242/242
f 243/243 244/244 245/245
f 243/243 245/245 246/246
f 247/247 248/248 249/249
f 247/247 249/249 250/250
f 251/251 252/252 253/253
f 251/251 253/253 254/254
f 255/255 256/256 257/257
f 255/255 257/257 258/258
f 259/259 260/260 261/261
f 259/259 261/261 262/262
f 263/263 264/264 265/265
f 263/263 265/265 266/266
f 267/267 268/268 269/269
f 267/267 269/269 270/270
f 271/271 272/272 273/273
f 271/271 273/273 274/274
f 275/275 276/276 277/277
f 275/275 277/277 278/278
f 279/279 280/280 281/281
f 279/279 281/281 282/282
usemtl Rope
f 283/283 284/284 285/285
f 283/283 285/285 286/286
f 287/287 288/288 289/289
f 287/287 289/289 290/290
f 291/291 292/292 293/293
f 291/291 293/293 294/294
f 295/295 296/296 297/297
f 295/295 297/297 298/298
f 299/299 300/300 301/301
f 299/299 301/301 302/302
f 303/303 304/304 305/305
f 303/303 305/305 306/306
f 307/307 308/308 309/309
f 307/307 309/309 310/310
f 311/311 312/312 313/313
f 311/311 313/313 314/314
f 315/315 316/316 317/317
f 315/315 317/317 318/318
f 319/319 320/320 321/321
f 319/319 321/321 322/322
f 323/323 324/324 325/325
f 323/323 325/325 326/326
f 327/327 328/328 329/329
f 327/327 329/329 330/330
f 331/331 332/332 333/333
f 331/331 333/333 334/334
f 335/335 336/336 337/337
f 335/335 337/337 338/338
f 339/339 340/340 341/341
f 339/339 341/341 342/342
f 343/343 344/344 345/345
f 343/343 345/345 346/346
f 347/347 348/348 349/349
f 347/347 349/349 350/350
f 351/351 352/352 353/353
f 351/351 353/353 354/354
f 355/355 356/356 357/357
f 355/355 357/357 358/358
f 359/359 360/360 361/361
f 359/359 361/361 362/362
f 363/363 364/364 365/365
f 363/363 365/365 366/366
f 367/367 368/368 369/369
f 367/367 369/369 370/370
f 371/371 372/372 373/373
f 371/371 373/373 374/374
f 375/375 376/376 377/377
f 375/375 377/377 378/378
f 379/379 380/380 381/381
f 379/379 381/381 382/382
f 383/383 384/384 385/385
f 383/383 385/385 386/386
f 387/387 388/388 389/389
f 387/387 389/389 390/390
f 391/391 392/392 393/393
f 391/391 393/393 394/394
f 395/395 396/396 397/397
f 395/395 397/397 398/398
f 399/399 400/400 401/401
f 399/399 401/401 402/402
f 403/403 404/404 405/405
f 403/403 405/405 406/406
f 407/407 408/408 409/409
f 407/407 409/409 410/410
f 411/411 412/412 413/413
f 411/411 413/413 414/414
f 415/415 416/416 417/417
f 415/415 417/417 418/418
f 419/419 420/420 421/421
f 419/419 421/421 422/422
f 423/423 424/424 425/425
f 423/423 425/425 426/426
f 427/427 428/428 429/429
f 427/427 429/429 430/430
f 431/431 432/432 433/433
f 431/431 433/433 434/434
f 435/435 436/436 437/437
f 435/435 437/437 438/438
f 439/439 440/440 441/441
f 439/439 441/441 442/442
f 443/443 444/444 445/445
f 443/443 445/445 446/446
f 447/447 448/448 449/449
f 447/447 449/449 450/450
f 451/451 452/452 453/453
f 451/451 453/453 454/454
f 455/455 456/456 457/457
f 455/455 457/457 458/458
f 459/459 460/460 461/461
f 459/459 461/461 462/462
f 463/463 464/464 465/465
f 463/463 465/465 466/466
f 467/467 468/468 469/469
f 467/467 469/469 470/470
f 471/471 472/472 473/473
f 471/471 473/473 474/474
f 475/475 476/476 477/477
f 475/475 477/477 478/478
f 479/479 480/480 481/481
f 479/479 481/481 482/482
f 483/483 484/484 485/485
f 483/483 485/485 486/486
f 487/487 488/488 489/489
f 487/487 489/489 490/490
f 491/491 492/492 493/493
f 491/491 493/493 494/494
f 495/495 496/496 497/497
f 495/495 497/497 498/498
f 499/499 500/500 501/501
f 499/499 501/501 502/502
f 503/503 504/504 505/505
f 503/503 505/505 506/506
f 507/507 508/508 509/509
f 507/507 509/509 510/510
f 511/511 512/512 513/513
f 511/511 513/513 514/514
f 515/515 516/516 517/517
f 515/515 517/517 518/518
f 519/519 520/520 521/521
f 519/519 521/521 522/522
f 523/523 524/524 525/525
f 523/523 525/525 526/526
f 527/527 528/528 529/529
f 527/527 529/529 530/530
f 531/531 532/532 533/533
f 531/531 533/533 534/534
f 535/535 536/536 537/537
f 535/535 537/537 538/538
f 539/539 540/540 541/541
f 539/539 541/541 542/542
f 543/543 544/544 545/545
f 543/543 545/545 546/546
f 547/547 548/548 549/549
f 547/547 549/549 550/550
f 551/551 552/552 553/553
f 551/551 553/553 554/554
f 555/555 556/556 557/557
f 555/555 557/557 558/558
f 559/559 560/560 561/561
f 559/559 561/561 562/562
f 563/563 564/564 565/565
f 563/563 565/565 566/566
f 567/567 568/568 569/569
f 567/567 569/569 570/570
f 571/571 572/572 573/573
f 571/571 573/573 574/574
f 575/575 576/576 577/577
f 575/575 577/577 578/578
f 579/579 580/580 581/581
f 579/579 581/581 582/582
f 583/583 584/584 585/585
f 583/583 585/585 586/586
f 587/587 588/588 589/589
f 587/587 589/589 590/590
f 591/591 592/592 593/593
f 591/591 593/593 594/594
f 595/595 596/596 597/597
f 595/595 597/597 598/598
f 599/599 600/600 601/601
f 599/599 601/601 602/602
f 603/603 604/604 605/605
f 603/603 605/605 606/606
f 607/607 608/608 609/609
f 607/607 609/609 610/610
f 611/611 612/612 613/613
f 611/611 613/613 614/614
f 615/615 616/616 617/617
f 615/615 617/617 618/618
f 619/619 620/620 621/621
f 619/619 621/621 622/622
f 623/623 624/624 625/625
f 623/623 625/625 626/626
f 627/627 628/628 629/629
f 627/627 629/629 630/630
f 631/631 632/632 633/633
f 631/631 633/633 634/634
f 635/635 636/636 637/637
f 635/635 637/637 638/638
f 639/639 640/640 641/641
f 639/639 641/641 642/642
f 643/643 644/644 645/645
f 643/643 645/645 646/646
f 647/647 648/648 649/649
f 647/647 649/649 650/650
f 651/651 652/652 653/653
f 651/651 653/653 654/654
f 655/655 656/656 657/657
f 655/655 657/657 658/658
f 659/659 660/660 661/661
f 659/659 661/661 662/662
f 663/663 664/664 665/665
f 663/663 665/665 666/666
f 667/667 668/668 669/669
f 667/667 669/669 670/670
f 671/671 672/672 673/673
f 671/671 673/673 674/674
f 675/675 676/676 677/677
f 675/675 677/677 678/678
f 679/679 680/680 681/681
f 679/679 681/681 682/682
f 683/683 684/684 685/685
f 683/683 685/685 686/686
f 687/687 688/688 689/689
f 690/690 691/691 692/692
f 693/693 694/694 695/695
f 696/696 697/697 698/698
f 699/699 700/700 701/701
f 702/702 703/703 704/704
f 705/705 706/706 707/707
f 708/708 709/709 710/710
f 711/711 712/712 713/713
f 714/714 715/715 716/716
f 717/717 718/718 719/719
f 717/717 719/719 720/720
f 721/721 722/722 723/723
f 721/721 723/723 724/724
f 725/725 726/726 727/727
f 725/725 727/727 728/728
f 729/729 730/730 731/731
f 729/729 731/731 732/732
f 733/733 734/734 735/735
f 733/733 735/735 736/736
f 737/737 738/738 739/739
f 740/740 741/741 742/742
f 743/743 744/744 745/745
f 746/746 747/747 748/748
f 749/749 750/750 751/751
f 752/752 753/753 754/754
f 755/755 756/756 757/757
f 758/758 759/759 760/760
f 761/761 762/762 763/763
f 764/764 765/765 766/766
f 767/767 768/768 769/769
f 767/767 769/769 770/770
f 771/771 772/772 773/773
f 771/771 773/773 774/774
f 775/775 776/776 777/777
f 775/775 777/777 778/778
f 779/779 780/780 781/781
f 779/779 781/781 782/782
f 783/783 784/784 785/785
f 783/783 785/785 786/786
f 787/787 788/788 789/789
f 790/790 791/791 792/792
f 793/793 794/794 795/795
f 796/796 797/797 798/798
f 799/799 800/800 801/801
f 802/802 803/803 804/804
f 805/805 806/806 807/807
f 808/808 809/809 810/810
f 811/811 812/812 813/813
f 814/814 815/815 816/816
