mtllib ../../Materials/project_oen.mtl
o pr-012_scrap_metal_bundle__small
v -0.374502 0.061772 -0.174880
v 0.078988 -0.001962 0.111276
v 0.083859 0.032697 0.111276
v -0.369631 0.096431 -0.174880
v 0.039631 0.003569 0.174880
v -0.413859 0.067303 -0.111276
v -0.408988 0.101962 -0.111276
v 0.044502 0.038228 0.174880
v -0.413859 0.067303 -0.111276
v -0.374502 0.061772 -0.174880
v -0.369631 0.096431 -0.174880
v -0.408988 0.101962 -0.111276
v 0.078988 -0.001962 0.111276
v 0.039631 0.003569 0.174880
v 0.044502 0.038228 0.174880
v 0.083859 0.032697 0.111276
v -0.369631 0.096431 -0.174880
v 0.083859 0.032697 0.111276
v 0.044502 0.038228 0.174880
v -0.408988 0.101962 -0.111276
v -0.413859 0.067303 -0.111276
v 0.039631 0.003569 0.174880
v 0.078988 -0.001962 0.111276
v -0.374502 0.061772 -0.174880
v 0.190390 0.016324 0.039667
v 0.188296 0.009878 0.053740
v -0.401359 0.201469 0.053740
v -0.399265 0.207914 0.039667
v 0.188296 0.009878 0.053740
v 0.183590 -0.004605 0.057215
v -0.406065 0.186986 0.057215
v -0.401359 0.201469 0.053740
v 0.183590 -0.004605 0.057215
v 0.179816 -0.016219 0.047476
v -0.409839 0.175372 0.047476
v -0.406065 0.186986 0.057215
v 0.179816 -0.016219 0.047476
v 0.179816 -0.016219 0.031857
v -0.409839 0.175372 0.031857
v -0.409839 0.175372 0.047476
v 0.179816 -0.016219 0.031857
v 0.183590 -0.004605 0.022118
v -0.406065 0.186986 0.022118
v -0.409839 0.175372 0.031857
v 0.183590 -0.004605 0.022118
v 0.188296 0.009878 0.025594
v -0.401359 0.201469 0.025594
v -0.406065 0.186986 0.022118
v 0.188296 0.009878 0.025594
v 0.190390 0.016324 0.039667
v -0.399265 0.207914 0.039667
v -0.401359 0.201469 0.025594
v 0.184828 -0.000795 0.039667
v 0.188296 0.009878 0.053740
v 0.190390 0.016324 0.039667
v -0.404828 0.190795 0.039667
v -0.399265 0.207914 0.039667
v -0.401359 0.201469 0.053740
v 0.184828 -0.000795 0.039667
v 0.183590 -0.004605 0.057215
v 0.188296 0.009878 0.053740
v -0.404828 0.190795 0.039667
v -0.401359 0.201469 0.053740
v -0.406065 0.186986 0.057215
v 0.184828 -0.000795 0.039667
v 0.179816 -0.016219 0.047476
v 0.183590 -0.004605 0.057215
v -0.404828 0.190795 0.039667
v -0.406065 0.186986 0.057215
v -0.409839 0.175372 0.047476
v 0.184828 -0.000795 0.039667
v 0.179816 -0.016219 0.031857
v 0.179816 -0.016219 0.047476
v -0.404828 0.190795 0.039667
v -0.409839 0.175372 0.047476
v -0.409839 0.175372 0.031857
v 0.184828 -0.000795 0.039667
v 0.183590 -0.004605 0.022118
v 0.179816 -0.016219 0.031857
v -0.404828 0.190795 0.039667
v -0.409839 0.175372 0.031857
v -0.406065 0.186986 0.022118
v 0.184828 -0.000795 0.039667
v 0.188296 0.009878 0.025594
v 0.183590 -0.004605 0.022118
v -0.404828 0.190795 0.039667
v -0.406065 0.186986 0.022118
v -0.401359 0.201469 0.025594
v 0.184828 -0.000795 0.039667
v 0.190390 0.016324 0.039667
v 0.188296 0.009878 0.025594
v -0.404828 0.190795 0.039667
v -0.401359 0.201469 0.025594
v -0.399265 0.207914 0.039667
v -0.309156 0.086609 0.074434
v 0.171469 0.154156 -0.162287
v 0.166598 0.188816 -0.162287
v -0.314027 0.121268 0.074434
v 0.204027 0.158732 -0.094877
v -0.276598 0.091184 0.141843
v -0.281469 0.125844 0.141843
v 0.199156 0.193391 -0.094877
v -0.276598 0.091184 0.141843
v -0.309156 0.086609 0.074434
v -0.314027 0.121268 0.074434
v -0.281469 0.125844 0.141843
v 0.171469 0.154156 -0.162287
v 0.204027 0.158732 -0.094877
v 0.199156 0.193391 -0.094877
v 0.166598 0.188816 -0.162287
v -0.314027 0.121268 0.074434
v 0.166598 0.188816 -0.162287
v 0.199156 0.193391 -0.094877
v -0.281469 0.125844 0.141843
v -0.276598 0.091184 0.141843
v 0.204027 0.158732 -0.094877
v 0.171469 0.154156 -0.162287
v -0.309156 0.086609 0.074434
v 0.293030 0.152750 -0.037033
v 0.294898 0.146236 -0.022960
v -0.301085 -0.024660 -0.022960
v -0.302953 -0.018145 -0.037033
v 0.294898 0.146236 -0.022960
v 0.299095 0.131597 -0.019484
v -0.296887 -0.039298 -0.019484
v -0.301085 -0.024660 -0.022960
v 0.299095 0.131597 -0.019484
v 0.302461 0.119858 -0.029223
v -0.293521 -0.051037 -0.029223
v -0.296887 -0.039298 -0.019484
v 0.302461 0.119858 -0.029223
v 0.302461 0.119858 -0.044842
v -0.293521 -0.051037 -0.044842
v -0.293521 -0.051037 -0.029223
v 0.302461 0.119858 -0.044842
v 0.299095 0.131597 -0.054581
v -0.296887 -0.039298 -0.054581
v -0.293521 -0.051037 -0.044842
v 0.299095 0.131597 -0.054581
v 0.294898 0.146236 -0.051106
v -0.301085 -0.024660 -0.051106
v -0.296887 -0.039298 -0.054581
v 0.294898 0.146236 -0.051106
v 0.293030 0.152750 -0.037033
v -0.302953 -0.018145 -0.037033
v -0.301085 -0.024660 -0.051106
v 0.297991 0.135448 -0.037033
v 0.294898 0.146236 -0.022960
v 0.293030 0.152750 -0.037033
v -0.297991 -0.035448 -0.037033
v -0.302953 -0.018145 -0.037033
v -0.301085 -0.024660 -0.022960
v 0.297991 0.135448 -0.037033
v 0.299095 0.131597 -0.019484
v 0.294898 0.146236 -0.022960
v -0.297991 -0.035448 -0.037033
v -0.301085 -0.024660 -0.022960
v -0.296887 -0.039298 -0.019484
v 0.297991 0.135448 -0.037033
v 0.302461 0.119858 -0.029223
v 0.299095 0.131597 -0.019484
v -0.297991 -0.035448 -0.037033
v -0.296887 -0.039298 -0.019484
v -0.293521 -0.051037 -0.029223
v 0.297991 0.135448 -0.037033
v 0.302461 0.119858 -0.044842
v 0.302461 0.119858 -0.029223
v -0.297991 -0.035448 -0.037033
v -0.293521 -0.051037 -0.029223
v -0.293521 -0.051037 -0.044842
v 0.297991 0.135448 -0.037033
v 0.299095 0.131597 -0.054581
v 0.302461 0.119858 -0.044842
v -0.297991 -0.035448 -0.037033
v -0.293521 -0.051037 -0.044842
v -0.296887 -0.039298 -0.054581
v 0.297991 0.135448 -0.037033
v 0.294898 0.146236 -0.051106
v 0.299095 0.131597 -0.054581
v -0.297991 -0.035448 -0.037033
v -0.296887 -0.039298 -0.054581
v -0.301085 -0.024660 -0.051106
v 0.297991 0.135448 -0.037033
v 0.293030 0.152750 -0.037033
v 0.294898 0.146236 -0.051106
v -0.297991 -0.035448 -0.037033
v -0.301085 -0.024660 -0.051106
v -0.302953 -0.018145 -0.037033
v -0.211543 0.077500 0.076871
v 0.295891 0.077500 -0.107819
v 0.295891 0.112500 -0.107819
v -0.211543 0.112500 0.076871
v 0.321543 0.077500 -0.037342
v -0.185891 0.077500 0.147348
v -0.185891 0.112500 0.147348
v 0.321543 0.112500 -0.037342
v -0.185891 0.077500 0.147348
v -0.211543 0.077500 0.076871
v -0.211543 0.112500 0.076871
v -0.185891 0.112500 0.147348
v 0.295891 0.077500 -0.107819
v 0.321543 0.077500 -0.037342
v 0.321543 0.112500 -0.037342
v 0.295891 0.112500 -0.107819
v -0.211543 0.112500 0.076871
v 0.295891 0.112500 -0.107819
v 0.321543 0.112500 -0.037342
v -0.185891 0.112500 0.147348
v -0.185891 0.077500 0.147348
v 0.321543 0.077500 -0.037342
v 0.295891 0.077500 -0.107819
v -0.211543 0.077500 0.076871
v 0.407461 0.050888 0.031939
v 0.405143 0.044520 0.046012
v -0.177466 0.256572 0.046012
v -0.175148 0.262941 0.031939
v 0.405143 0.044520 0.046012
v 0.399935 0.030210 0.049488
v -0.182675 0.242262 0.049488
v -0.177466 0.256572 0.046012
v 0.399935 0.030210 0.049488
v 0.395758 0.018734 0.039749
v -0.186851 0.230787 0.039749
v -0.182675 0.242262 0.049488
v 0.395758 0.018734 0.039749
v 0.395758 0.018734 0.024130
v -0.186851 0.230787 0.024130
v -0.186851 0.230787 0.039749
v 0.395758 0.018734 0.024130
v 0.399935 0.030210 0.014391
v -0.182675 0.242262 0.014391
v -0.186851 0.230787 0.024130
v 0.399935 0.030210 0.014391
v 0.405143 0.044520 0.017867
v -0.177466 0.256572 0.017867
v -0.182675 0.242262 0.014391
v 0.405143 0.044520 0.017867
v 0.407461 0.050888 0.031939
v -0.175148 0.262941 0.031939
v -0.177466 0.256572 0.017867
v 0.401305 0.033974 0.031939
v 0.405143 0.044520 0.046012
v 0.407461 0.050888 0.031939
v -0.181305 0.246026 0.031939
v -0.175148 0.262941 0.031939
v -0.177466 0.256572 0.046012
v 0.401305 0.033974 0.031939
v 0.399935 0.030210 0.049488
v 0.405143 0.044520 0.046012
v -0.181305 0.246026 0.031939
v -0.177466 0.256572 0.046012
v -0.182675 0.242262 0.049488
v 0.401305 0.033974 0.031939
v 0.395758 0.018734 0.039749
v 0.399935 0.030210 0.049488
v -0.181305 0.246026 0.031939
v -0.182675 0.242262 0.049488
v -0.186851 0.230787 0.039749
v 0.401305 0.033974 0.031939
v 0.395758 0.018734 0.024130
v 0.395758 0.018734 0.039749
v -0.181305 0.246026 0.031939
v -0.186851 0.230787 0.039749
v -0.186851 0.230787 0.024130
v 0.401305 0.033974 0.031939
v 0.399935 0.030210 0.014391
v 0.395758 0.018734 0.024130
v -0.181305 0.246026 0.031939
v -0.186851 0.230787 0.024130
v -0.182675 0.242262 0.014391
v 0.401305 0.033974 0.031939
v 0.405143 0.044520 0.017867
v 0.399935 0.030210 0.014391
v -0.181305 0.246026 0.031939
v -0.182675 0.242262 0.014391
v -0.177466 0.256572 0.017867
v 0.401305 0.033974 0.031939
v 0.407461 0.050888 0.031939
v 0.405143 0.044520 0.017867
v -0.181305 0.246026 0.031939
v -0.177466 0.256572 0.017867
v -0.175148 0.262941 0.031939
v 0.194000 0.110000 0.000000
v 0.174788 0.025827 0.000000
v 0.166072 0.030024 0.013315
v 0.184326 0.110000 0.013315
v 0.184326 0.110000 0.013315
v 0.166072 0.030024 0.013315
v 0.151970 0.036815 0.008229
v 0.168674 0.110000 0.008229
v 0.168674 0.110000 0.008229
v 0.151970 0.036815 0.008229
v 0.151970 0.036815 -0.008229
v 0.168674 0.110000 -0.008229
v 0.168674 0.110000 -0.008229
v 0.151970 0.036815 -0.008229
v 0.166072 0.030024 -0.013315
v 0.184326 0.110000 -0.013315
v 0.184326 0.110000 -0.013315
v 0.166072 0.030024 -0.013315
v 0.174788 0.025827 0.000000
v 0.194000 0.110000 0.000000
v 0.174788 0.025827 0.000000
v 0.120957 -0.041675 0.000000
v 0.114926 -0.034112 0.013315
v 0.166072 0.030024 0.013315
v 0.166072 0.030024 0.013315
v 0.114926 -0.034112 0.013315
v 0.105166 -0.021874 0.008229
v 0.151970 0.036815 0.008229
v 0.151970 0.036815 0.008229
v 0.105166 -0.021874 0.008229
v 0.105166 -0.021874 -0.008229
v 0.151970 0.036815 -0.008229
v 0.151970 0.036815 -0.008229
v 0.105166 -0.021874 -0.008229
v 0.114926 -0.034112 -0.013315
v 0.166072 0.030024 -0.013315
v 0.166072 0.030024 -0.013315
v 0.114926 -0.034112 -0.013315
v 0.120957 -0.041675 0.000000
v 0.174788 0.025827 0.000000
v 0.120957 -0.041675 0.000000
v 0.043169 -0.079136 0.000000
v 0.041016 -0.069705 0.013315
v 0.114926 -0.034112 0.013315
v 0.114926 -0.034112 0.013315
v 0.041016 -0.069705 0.013315
v 0.037533 -0.054445 0.008229
v 0.105166 -0.021874 0.008229
v 0.105166 -0.021874 0.008229
v 0.037533 -0.054445 0.008229
v 0.037533 -0.054445 -0.008229
v 0.105166 -0.021874 -0.008229
v 0.105166 -0.021874 -0.008229
v 0.037533 -0.054445 -0.008229
v 0.041016 -0.069705 -0.013315
v 0.114926 -0.034112 -0.013315
v 0.114926 -0.034112 -0.013315
v 0.041016 -0.069705 -0.013315
v 0.043169 -0.079136 0.000000
v 0.120957 -0.041675 0.000000
v 0.043169 -0.079136 0.000000
v -0.043169 -0.079136 0.000000
v -0.041016 -0.069705 0.013315
v 0.041016 -0.069705 0.013315
v 0.041016 -0.069705 0.013315
v -0.041016 -0.069705 0.013315
v -0.037533 -0.054445 0.008229
v 0.037533 -0.054445 0.008229
v 0.037533 -0.054445 0.008229
v -0.037533 -0.054445 0.008229
v -0.037533 -0.054445 -0.008229
v 0.037533 -0.054445 -0.008229
v 0.037533 -0.054445 -0.008229
v -0.037533 -0.054445 -0.008229
v -0.041016 -0.069705 -0.013315
v 0.041016 -0.069705 -0.013315
v 0.041016 -0.069705 -0.013315
v -0.041016 -0.069705 -0.013315
v -0.043169 -0.079136 0.000000
v 0.043169 -0.079136 0.000000
v -0.043169 -0.079136 0.000000
v -0.120957 -0.041675 0.000000
v -0.114926 -0.034112 0.013315
v -0.041016 -0.069705 0.013315
v -0.041016 -0.069705 0.013315
v -0.114926 -0.034112 0.013315
v -0.105166 -0.021874 0.008229
v -0.037533 -0.054445 0.008229
v -0.037533 -0.054445 0.008229
v -0.105166 -0.021874 0.008229
v -0.105166 -0.021874 -0.008229
v -0.037533 -0.054445 -0.008229
v -0.037533 -0.054445 -0.008229
v -0.105166 -0.021874 -0.008229
v -0.114926 -0.034112 -0.013315
v -0.041016 -0.069705 -0.013315
v -0.041016 -0.069705 -0.013315
v -0.114926 -0.034112 -0.013315
v -0.120957 -0.041675 0.000000
v -0.043169 -0.079136 0.000000
v -0.120957 -0.041675 0.000000
v -0.174788 0.025827 0.000000
v -0.166072 0.030024 0.013315
v -0.114926 -0.034112 0.013315
v -0.114926 -0.034112 0.013315
v -0.166072 0.030024 0.013315
v -0.151970 0.036815 0.008229
v -0.105166 -0.021874 0.008229
v -0.105166 -0.021874 0.008229
v -0.151970 0.036815 0.008229
v -0.151970 0.036815 -0.008229
v -0.105166 -0.021874 -0.008229
v -0.105166 -0.021874 -0.008229
v -0.151970 0.036815 -0.008229
v -0.166072 0.030024 -0.013315
v -0.114926 -0.034112 -0.013315
v -0.114926 -0.034112 -0.013315
v -0.166072 0.030024 -0.013315
v -0.174788 0.025827 0.000000
v -0.120957 -0.041675 0.000000
v -0.174788 0.025827 0.000000
v -0.194000 0.110000 0.000000
v -0.184326 0.110000 0.013315
v -0.166072 0.030024 0.013315
v -0.166072 0.030024 0.013315
v -0.184326 0.110000 0.013315
v -0.168674 0.110000 0.008229
v -0.151970 0.036815 0.008229
v -0.151970 0.036815 0.008229
v -0.168674 0.110000 0.008229
v -0.168674 0.110000 -0.008229
v -0.151970 0.036815 -0.008229
v -0.151970 0.036815 -0.008229
v -0.168674 0.110000 -0.008229
v -0.184326 0.110000 -0.013315
v -0.166072 0.030024 -0.013315
v -0.166072 0.030024 -0.013315
v -0.184326 0.110000 -0.013315
v -0.194000 0.110000 0.000000
v -0.174788 0.025827 0.000000
v -0.194000 0.110000 0.000000
v -0.174788 0.194173 -0.000000
v -0.166072 0.189976 0.013315
v -0.184326 0.110000 0.013315
v -0.184326 0.110000 0.013315
v -0.166072 0.189976 0.013315
v -0.151970 0.183185 0.008229
v -0.168674 0.110000 0.008229
v -0.168674 0.110000 0.008229
v -0.151970 0.183185 0.008229
v -0.151970 0.183185 -0.008229
v -0.168674 0.110000 -0.008229
v -0.168674 0.110000 -0.008229
v -0.151970 0.183185 -0.008229
v -0.166072 0.189976 -0.013315
v -0.184326 0.110000 -0.013315
v -0.184326 0.110000 -0.013315
v -0.166072 0.189976 -0.013315
v -0.174788 0.194173 -0.000000
v -0.194000 0.110000 0.000000
v -0.174788 0.194173 -0.000000
v -0.120957 0.261675 -0.000000
v -0.114926 0.254112 0.013315
v -0.166072 0.189976 0.013315
v -0.166072 0.189976 0.013315
v -0.114926 0.254112 0.013315
v -0.105166 0.241874 0.008229
v -0.151970 0.183185 0.008229
v -0.151970 0.183185 0.008229
v -0.105166 0.241874 0.008229
v -0.105166 0.241874 -0.008229
v -0.151970 0.183185 -0.008229
v -0.151970 0.183185 -0.008229
v -0.105166 0.241874 -0.008229
v -0.114926 0.254112 -0.013315
v -0.166072 0.189976 -0.013315
v -0.166072 0.189976 -0.013315
v -0.114926 0.254112 -0.013315
v -0.120957 0.261675 -0.000000
v -0.174788 0.194173 -0.000000
v -0.120957 0.261675 -0.000000
v -0.043169 0.299136 -0.000000
v -0.041016 0.289705 0.013315
v -0.114926 0.254112 0.013315
v -0.114926 0.254112 0.013315
v -0.041016 0.289705 0.013315
v -0.037533 0.274445 0.008229
v -0.105166 0.241874 0.008229
v -0.105166 0.241874 0.008229
v -0.037533 0.274445 0.008229
v -0.037533 0.274445 -0.008229
v -0.105166 0.241874 -0.008229
v -0.105166 0.241874 -0.008229
v -0.037533 0.274445 -0.008229
v -0.041016 0.289705 -0.013315
v -0.114926 0.254112 -0.013315
v -0.114926 0.254112 -0.013315
v -0.041016 0.289705 -0.013315
v -0.043169 0.299136 -0.000000
v -0.120957 0.261675 -0.000000
v -0.043169 0.299136 -0.000000
v 0.043169 0.299136 -0.000000
v 0.041016 0.289705 0.013315
v -0.041016 0.289705 0.013315
v -0.041016 0.289705 0.013315
v 0.041016 0.289705 0.013315
v 0.037533 0.274445 0.008229
v -0.037533 0.274445 0.008229
v -0.037533 0.274445 0.008229
v 0.037533 0.274445 0.008229
v 0.037533 0.274445 -0.008229
v -0.037533 0.274445 -0.008229
v -0.037533 0.274445 -0.008229
v 0.037533 0.274445 -0.008229
v 0.041016 0.289705 -0.013315
v -0.041016 0.289705 -0.013315
v -0.041016 0.289705 -0.013315
v 0.041016 0.289705 -0.013315
v 0.043169 0.299136 -0.000000
v -0.043169 0.299136 -0.000000
v 0.043169 0.299136 -0.000000
v 0.120957 0.261675 -0.000000
v 0.114926 0.254112 0.013315
v 0.041016 0.289705 0.013315
v 0.041016 0.289705 0.013315
v 0.114926 0.254112 0.013315
v 0.105166 0.241874 0.008229
v 0.037533 0.274445 0.008229
v 0.037533 0.274445 0.008229
v 0.105166 0.241874 0.008229
v 0.105166 0.241874 -0.008229
v 0.037533 0.274445 -0.008229
v 0.037533 0.274445 -0.008229
v 0.105166 0.241874 -0.008229
v 0.114926 0.254112 -0.013315
v 0.041016 0.289705 -0.013315
v 0.041016 0.289705 -0.013315
v 0.114926 0.254112 -0.013315
v 0.120957 0.261675 -0.000000
v 0.043169 0.299136 -0.000000
v 0.120957 0.261675 -0.000000
v 0.174788 0.194173 -0.000000
v 0.166072 0.189976 0.013315
v 0.114926 0.254112 0.013315
v 0.114926 0.254112 0.013315
v 0.166072 0.189976 0.013315
v 0.151970 0.183185 0.008229
v 0.105166 0.241874 0.008229
v 0.105166 0.241874 0.008229
v 0.151970 0.183185 0.008229
v 0.151970 0.183185 -0.008229
v 0.105166 0.241874 -0.008229
v 0.105166 0.241874 -0.008229
v 0.151970 0.183185 -0.008229
v 0.166072 0.189976 -0.013315
v 0.114926 0.254112 -0.013315
v 0.114926 0.254112 -0.013315
v 0.166072 0.189976 -0.013315
v 0.174788 0.194173 -0.000000
v 0.120957 0.261675 -0.000000
v 0.174788 0.194173 -0.000000
v 0.194000 0.110000 0.000000
v 0.184326 0.110000 0.013315
v 0.166072 0.189976 0.013315
v 0.166072 0.189976 0.013315
v 0.184326 0.110000 0.013315
v 0.168674 0.110000 0.008229
v 0.151970 0.183185 0.008229
v 0.151970 0.183185 0.008229
v 0.168674 0.110000 0.008229
v 0.168674 0.110000 -0.008229
v 0.151970 0.183185 -0.008229
v 0.151970 0.183185 -0.008229
v 0.168674 0.110000 -0.008229
v 0.184326 0.110000 -0.013315
v 0.166072 0.189976 -0.013315
v 0.166072 0.189976 -0.013315
v 0.184326 0.110000 -0.013315
v 0.194000 0.110000 0.000000
v 0.174788 0.194173 -0.000000
v -0.453889 0.084235 0.195333
v -0.182492 0.122377 0.073312
v -0.186389 0.150105 0.073312
v -0.457786 0.111962 0.195333
v -0.142214 0.128038 0.164667
v -0.413611 0.089895 0.286688
v -0.417508 0.117623 0.286688
v -0.146111 0.155765 0.164667
v -0.413611 0.089895 0.286688
v -0.453889 0.084235 0.195333
v -0.457786 0.111962 0.195333
v -0.417508 0.117623 0.286688
v -0.182492 0.122377 0.073312
v -0.142214 0.128038 0.164667
v -0.146111 0.155765 0.164667
v -0.186389 0.150105 0.073312
v -0.457786 0.111962 0.195333
v -0.186389 0.150105 0.073312
v -0.146111 0.155765 0.164667
v -0.417508 0.117623 0.286688
v -0.413611 0.089895 0.286688
v -0.142214 0.128038 0.164667
v -0.182492 0.122377 0.073312
v -0.453889 0.084235 0.195333
v -0.165655 0.092377 0.180000
v -0.169371 0.089031 0.188660
v -0.303197 0.237660 0.188660
v -0.299482 0.241006 0.180000
v -0.169371 0.089031 0.188660
v -0.176803 0.082340 0.188660
v -0.310629 0.230969 0.188660
v -0.303197 0.237660 0.188660
v -0.176803 0.082340 0.188660
v -0.180518 0.078994 0.180000
v -0.314345 0.227623 0.180000
v -0.310629 0.230969 0.188660
v -0.180518 0.078994 0.180000
v -0.176803 0.082340 0.171340
v -0.310629 0.230969 0.171340
v -0.314345 0.227623 0.180000
v -0.176803 0.082340 0.171340
v -0.169371 0.089031 0.171340
v -0.303197 0.237660 0.171340
v -0.310629 0.230969 0.171340
v -0.169371 0.089031 0.171340
v -0.165655 0.092377 0.180000
v -0.299482 0.241006 0.180000
v -0.303197 0.237660 0.171340
v -0.173087 0.085686 0.180000
v -0.169371 0.089031 0.188660
v -0.165655 0.092377 0.180000
v -0.306913 0.234314 0.180000
v -0.299482 0.241006 0.180000
v -0.303197 0.237660 0.188660
v -0.173087 0.085686 0.180000
v -0.176803 0.082340 0.188660
v -0.169371 0.089031 0.188660
v -0.306913 0.234314 0.180000
v -0.303197 0.237660 0.188660
v -0.310629 0.230969 0.188660
v -0.173087 0.085686 0.180000
v -0.180518 0.078994 0.180000
v -0.176803 0.082340 0.188660
v -0.306913 0.234314 0.180000
v -0.310629 0.230969 0.188660
v -0.314345 0.227623 0.180000
v -0.173087 0.085686 0.180000
v -0.176803 0.082340 0.171340
v -0.180518 0.078994 0.180000
v -0.306913 0.234314 0.180000
v -0.314345 0.227623 0.180000
v -0.310629 0.230969 0.171340
v -0.173087 0.085686 0.180000
v -0.169371 0.089031 0.171340
v -0.176803 0.082340 0.171340
v -0.306913 0.234314 0.180000
v -0.310629 0.230969 0.171340
v -0.303197 0.237660 0.171340
v -0.173087 0.085686 0.180000
v -0.165655 0.092377 0.180000
v -0.169371 0.089031 0.171340
v -0.306913 0.234314 0.180000
v -0.303197 0.237660 0.171340
v -0.299482 0.241006 0.180000
v 0.032839 0.104476 -0.331750
v 0.269206 0.108602 -0.147051
v 0.268718 0.136598 -0.147051
v 0.032350 0.132472 -0.331750
v 0.207650 0.107528 -0.068250
v -0.028718 0.103402 -0.252949
v -0.029206 0.131398 -0.252949
v 0.207161 0.135524 -0.068250
v -0.028718 0.103402 -0.252949
v 0.032839 0.104476 -0.331750
v 0.032350 0.132472 -0.331750
v -0.029206 0.131398 -0.252949
v 0.269206 0.108602 -0.147051
v 0.207650 0.107528 -0.068250
v 0.207161 0.135524 -0.068250
v 0.268718 0.136598 -0.147051
v 0.032350 0.132472 -0.331750
v 0.268718 0.136598 -0.147051
v 0.207161 0.135524 -0.068250
v -0.029206 0.131398 -0.252949
v -0.028718 0.103402 -0.252949
v 0.207650 0.107528 -0.068250
v 0.269206 0.108602 -0.147051
v 0.032839 0.104476 -0.331750
v 0.267651 0.110834 -0.200000
v 0.264783 0.106738 -0.191340
v 0.100953 0.221453 -0.191340
v 0.103821 0.225549 -0.200000
v 0.264783 0.106738 -0.191340
v 0.259047 0.098547 -0.191340
v 0.095217 0.213262 -0.191340
v 0.100953 0.221453 -0.191340
v 0.259047 0.098547 -0.191340
v 0.256179 0.094451 -0.200000
v 0.092349 0.209166 -0.200000
v 0.095217 0.213262 -0.191340
v 0.256179 0.094451 -0.200000
v 0.259047 0.098547 -0.208660
v 0.095217 0.213262 -0.208660
v 0.092349 0.209166 -0.200000
v 0.259047 0.098547 -0.208660
v 0.264783 0.106738 -0.208660
v 0.100953 0.221453 -0.208660
v 0.095217 0.213262 -0.208660
v 0.264783 0.106738 -0.208660
v 0.267651 0.110834 -0.200000
v 0.103821 0.225549 -0.200000
v 0.100953 0.221453 -0.208660
v 0.261915 0.102642 -0.200000
v 0.264783 0.106738 -0.191340
v 0.267651 0.110834 -0.200000
v 0.098085 0.217358 -0.200000
v 0.103821 0.225549 -0.200000
v 0.100953 0.221453 -0.191340
v 0.261915 0.102642 -0.200000
v 0.259047 0.098547 -0.191340
v 0.264783 0.106738 -0.191340
v 0.098085 0.217358 -0.200000
v 0.100953 0.221453 -0.191340
v 0.095217 0.213262 -0.191340
v 0.261915 0.102642 -0.200000
v 0.256179 0.094451 -0.200000
v 0.259047 0.098547 -0.191340
v 0.098085 0.217358 -0.200000
v 0.095217 0.213262 -0.191340
v 0.092349 0.209166 -0.200000
v 0.261915 0.102642 -0.200000
v 0.259047 0.098547 -0.208660
v 0.256179 0.094451 -0.200000
v 0.098085 0.217358 -0.200000
v 0.092349 0.209166 -0.200000
v 0.095217 0.213262 -0.208660
v 0.261915 0.102642 -0.200000
v 0.264783 0.106738 -0.208660
v 0.259047 0.098547 -0.208660
v 0.098085 0.217358 -0.200000
v 0.095217 0.213262 -0.208660
v 0.100953 0.221453 -0.208660
v 0.261915 0.102642 -0.200000
v 0.267651 0.110834 -0.200000
v 0.264783 0.106738 -0.208660
v 0.098085 0.217358 -0.200000
v 0.100953 0.221453 -0.208660
v 0.103821 0.225549 -0.200000
v 0.224596 0.118052 0.228969
v 0.364666 0.103330 -0.035916
v 0.367593 0.131177 -0.035916
v 0.227523 0.145899 0.228969
v 0.452477 0.094101 0.011031
v 0.312407 0.108823 0.275916
v 0.315334 0.136670 0.275916
v 0.455404 0.121948 0.011031
v 0.312407 0.108823 0.275916
v 0.224596 0.118052 0.228969
v 0.227523 0.145899 0.228969
v 0.315334 0.136670 0.275916
v 0.364666 0.103330 -0.035916
v 0.452477 0.094101 0.011031
v 0.455404 0.121948 0.011031
v 0.367593 0.131177 -0.035916
v 0.227523 0.145899 0.228969
v 0.367593 0.131177 -0.035916
v 0.455404 0.121948 0.011031
v 0.315334 0.136670 0.275916
v 0.312407 0.108823 0.275916
v 0.452477 0.094101 0.011031
v 0.364666 0.103330 -0.035916
v 0.224596 0.118052 0.228969
v 0.496464 0.131811 0.120000
v 0.494591 0.127175 0.128660
v 0.309155 0.202097 0.128660
v 0.311028 0.206732 0.120000
v 0.494591 0.127175 0.128660
v 0.490845 0.117903 0.128660
v 0.305409 0.192825 0.128660
v 0.309155 0.202097 0.128660
v 0.490845 0.117903 0.128660
v 0.488972 0.113268 0.120000
v 0.303536 0.188189 0.120000
v 0.305409 0.192825 0.128660
v 0.488972 0.113268 0.120000
v 0.490845 0.117903 0.111340
v 0.305409 0.192825 0.111340
v 0.303536 0.188189 0.120000
v 0.490845 0.117903 0.111340
v 0.494591 0.127175 0.111340
v 0.309155 0.202097 0.111340
v 0.305409 0.192825 0.111340
v 0.494591 0.127175 0.111340
v 0.496464 0.131811 0.120000
v 0.311028 0.206732 0.120000
v 0.309155 0.202097 0.111340
v 0.492718 0.122539 0.120000
v 0.494591 0.127175 0.128660
v 0.496464 0.131811 0.120000
v 0.307282 0.197461 0.120000
v 0.311028 0.206732 0.120000
v 0.309155 0.202097 0.128660
v 0.492718 0.122539 0.120000
v 0.490845 0.117903 0.128660
v 0.494591 0.127175 0.128660
v 0.307282 0.197461 0.120000
v 0.309155 0.202097 0.128660
v 0.305409 0.192825 0.128660
v 0.492718 0.122539 0.120000
v 0.488972 0.113268 0.120000
v 0.490845 0.117903 0.128660
v 0.307282 0.197461 0.120000
v 0.305409 0.192825 0.128660
v 0.303536 0.188189 0.120000
v 0.492718 0.122539 0.120000
v 0.490845 0.117903 0.111340
v 0.488972 0.113268 0.120000
v 0.307282 0.197461 0.120000
v 0.303536 0.188189 0.120000
v 0.305409 0.192825 0.111340
v 0.492718 0.122539 0.120000
v 0.494591 0.127175 0.111340
v 0.490845 0.117903 0.111340
v 0.307282 0.197461 0.120000
v 0.305409 0.192825 0.111340
v 0.309155 0.202097 0.111340
v 0.492718 0.122539 0.120000
v 0.496464 0.131811 0.120000
v 0.494591 0.127175 0.111340
v 0.307282 0.197461 0.120000
v 0.309155 0.202097 0.111340
v 0.311028 0.206732 0.120000
v 0.077898 0.126174 -0.318891
v 0.067499 0.128110 -0.319136
v 0.049442 0.119511 0.378646
v 0.059841 0.117575 0.378891
v 0.067499 0.128110 -0.319136
v 0.066124 0.138600 -0.319043
v 0.048067 0.130001 0.378740
v 0.049442 0.119511 0.378646
v 0.066124 0.138600 -0.319043
v 0.075672 0.143147 -0.318740
v 0.057615 0.134548 0.379043
v 0.048067 0.130001 0.378740
v 0.075672 0.143147 -0.318740
v 0.082949 0.135467 -0.318646
v 0.064892 0.126868 0.379136
v 0.057615 0.134548 0.379043
v 0.082949 0.135467 -0.318646
v 0.077898 0.126174 -0.318891
v 0.059841 0.117575 0.378891
v 0.064892 0.126868 0.379136
v 0.074029 0.134299 -0.318891
v 0.067499 0.128110 -0.319136
v 0.077898 0.126174 -0.318891
v 0.055971 0.125701 0.378891
v 0.059841 0.117575 0.378891
v 0.049442 0.119511 0.378646
v 0.074029 0.134299 -0.318891
v 0.066124 0.138600 -0.319043
v 0.067499 0.128110 -0.319136
v 0.055971 0.125701 0.378891
v 0.049442 0.119511 0.378646
v 0.048067 0.130001 0.378740
v 0.074029 0.134299 -0.318891
v 0.075672 0.143147 -0.318740
v 0.066124 0.138600 -0.319043
v 0.055971 0.125701 0.378891
v 0.048067 0.130001 0.378740
v 0.057615 0.134548 0.379043
v 0.074029 0.134299 -0.318891
v 0.082949 0.135467 -0.318646
v 0.075672 0.143147 -0.318740
v 0.055971 0.125701 0.378891
v 0.057615 0.134548 0.379043
v 0.064892 0.126868 0.379136
v 0.074029 0.134299 -0.318891
v 0.077898 0.126174 -0.318891
v 0.082949 0.135467 -0.318646
v 0.055971 0.125701 0.378891
v 0.064892 0.126868 0.379136
v 0.059841 0.117575 0.378891
vt 0.000000 0.000000
vt 1.000000 0.000000
vt 1.000000 1.000000
vt 0.000000 1.000000
vt 0.000000 0.000000
vt 1.000000 0.000000
vt 1.000000 1.000000
vt 0.000000 1.000000
vt 0.000000 0.000000
vt 1.000000 0.000000
vt 1.000000 1.000000
vt 0.000000 1.000000
vt 0.000000 0.000000
vt 1.000000 0.000000
vt 1.000000 1.000000
vt 0.000000 1.000000
vt 0.000000 0.000000
vt 1.000000 0.000000
vt 1.000000 1.000000
vt 0.000000 1.000000
vt 0.000000 0.000000
vt 1.000000 0.000000
vt 1.000000 1.000000
vt 0.000000 1.000000
vt 0.000000 0.000000
vt 1.000000 0.000000
vt 1.000000 1.000000
vt 0.000000 1.000000
vt 0.000000 0.000000
vt 1.000000 0.000000
vt 1.000000 1.000000
vt 0.000000 1.000000
vt 0.000000 0.000000
vt 1.000000 0.000000
vt 1.000000 1.000000
vt 0.000000 1.000000
vt 0.000000 0.000000
vt 1.000000 0.000000
vt 1.000000 1.000000
vt 0.000000 1.000000
vt 0.000000 0.000000
vt 1.000000 0.000000
vt 1.000000 1.000000
vt 0.000000 1.000000
vt 0.000000 0.000000
vt 1.000000 0.000000
vt 1.000000 1.000000
vt 0.000000 1.000000
vt 0.000000 0.000000
vt 1.000000 0.000000
vt 1.000000 1.000000
vt 0.000000 1.000000
vt 0.500000 0.500000
vt 0.000000 0.000000
vt 1.000000 0.000000
vt 0.500000 0.500000
vt 0.000000 1.000000
vt 1.000000 1.000000
vt 0.500000 0.500000
vt 0.000000 0.000000
vt 1.000000 0.000000
vt 0.500000 0.500000
vt 0.000000 1.000000
vt 1.000000 1.000000
vt 0.500000 0.500000
vt 0.000000 0.000000
vt 1.000000 0.000000
vt 0.500000 0.500000
vt 0.000000 1.000000
vt 1.000000 1.000000
vt 0.500000 0.500000
vt 0.000000 0.000000
vt 1.000000 0.000000
vt 0.500000 0.500000
vt 0.000000 1.000000
vt 1.000000 1.000000
vt 0.500000 0.500000
vt 0.000000 0.000000
vt 1.000000 0.000000
vt 0.500000 0.500000
vt 0.000000 1.000000
vt 1.000000 1.000000
vt 0.500000 0.500000
vt 0.000000 0.000000
vt 1.000000 0.000000
vt 0.500000 0.500000
vt 0.000000 1.000000
vt 1.000000 1.000000
vt 0.500000 0.500000
vt 0.000000 0.000000
vt 1.000000 0.000000
vt 0.500000 0.500000
vt 0.000000 1.000000
vt 1.000000 1.000000
vt 0.000000 0.000000
vt 1.000000 0.000000
vt 1.000000 1.000000
vt 0.000000 1.000000
vt 0.000000 0.000000
vt 1.000000 0.000000
vt 1.000000 1.000000
vt 0.000000 1.000000
vt 0.000000 0.000000
vt 1.000000 0.000000
vt 1.000000 1.000000
vt 0.000000 1.000000
vt 0.000000 0.000000
vt 1.000000 0.000000
vt 1.000000 1.000000
vt 0.000000 1.000000
vt 0.000000 0.000000
vt 1.000000 0.000000
vt 1.000000 1.000000
vt 0.000000 1.000000
vt 0.000000 0.000000
vt 1.000000 0.000000
vt 1.000000 1.000000
vt 0.000000 1.000000
vt 0.000000 0.000000
vt 1.000000 0.000000
vt 1.000000 1.000000
vt 0.000000 1.000000
vt 0.000000 0.000000
vt 1.000000 0.000000
vt 1.000000 1.000000
vt 0.000000 1.000000
vt 0.000000 0.000000
vt 1.000000 0.000000
vt 1.000000 1.000000
vt 0.000000 1.000000
vt 0.000000 0.000000
vt 1.000000 0.000000
vt 1.000000 1.000000
vt 0.000000 1.000000
vt 0.000000 0.000000
vt 1.000000 0.000000
vt 1.000000 1.000000
vt 0.000000 1.000000
vt 0.000000 0.000000
vt 1.000000 0.000000
vt 1.000000 1.000000
vt 0.000000 1.000000
vt 0.000000 0.000000
vt 1.000000 0.000000
vt 1.000000 1.000000
vt 0.000000 1.000000
vt 0.500000 0.500000
vt 0.000000 0.000000
vt 1.000000 0.000000
vt 0.500000 0.500000
vt 0.000000 1.000000
vt 1.000000 1.000000
vt 0.500000 0.500000
vt 0.000000 0.000000
vt 1.000000 0.000000
vt 0.500000 0.500000
vt 0.000000 1.000000
vt 1.000000 1.000000
vt 0.500000 0.500000
vt 0.000000 0.000000
vt 1.000000 0.000000
vt 0.500000 0.500000
vt 0.000000 1.000000
vt 1.000000 1.000000
vt 0.500000 0.500000
vt 0.000000 0.000000
vt 1.000000 0.000000
vt 0.500000 0.500000
vt 0.000000 1.000000
vt 1.000000 1.000000
vt 0.500000 0.500000
vt 0.000000 0.000000
vt 1.000000 0.000000
vt 0.500000 0.500000
vt 0.000000 1.000000
vt 1.000000 1.000000
vt 0.500000 0.500000
vt 0.000000 0.000000
vt 1.000000 0.000000
vt 0.500000 0.500000
vt 0.000000 1.000000
vt 1.000000 1.000000
vt 0.500000 0.500000
vt 0.000000 0.000000
vt 1.000000 0.000000
vt 0.500000 0.500000
vt 0.000000 1.000000
vt 1.000000 1.000000
vt 0.000000 0.000000
vt 1.000000 0.000000
vt 1.000000 1.000000
vt 0.000000 1.000000
vt 0.000000 0.000000
vt 1.000000 0.000000
vt 1.000000 1.000000
vt 0.000000 1.000000
vt 0.000000 0.000000
vt 1.000000 0.000000
vt 1.000000 1.000000
vt 0.000000 1.000000
vt 0.000000 0.000000
vt 1.000000 0.000000
vt 1.000000 1.000000
vt 0.000000 1.000000
vt 0.000000 0.000000
vt 1.000000 0.000000
vt 1.000000 1.000000
vt 0.000000 1.000000
vt 0.000000 0.000000
vt 1.000000 0.000000
vt 1.000000 1.000000
vt 0.000000 1.000000
vt 0.000000 0.000000
vt 1.000000 0.000000
vt 1.000000 1.000000
vt 0.000000 1.000000
vt 0.000000 0.000000
vt 1.000000 0.000000
vt 1.000000 1.000000
vt 0.000000 1.000000
vt 0.000000 0.000000
vt 1.000000 0.000000
vt 1.000000 1.000000
vt 0.000000 1.000000
vt 0.000000 0.000000
vt 1.000000 0.000000
vt 1.000000 1.000000
vt 0.000000 1.000000
vt 0.000000 0.000000
vt 1.000000 0.000000
vt 1.000000 1.000000
vt 0.000000 1.000000
vt 0.000000 0.000000
vt 1.000000 0.000000
vt 1.000000 1.000000
vt 0.000000 1.000000
vt 0.000000 0.000000
vt 1.000000 0.000000
vt 1.000000 1.000000
vt 0.000000 1.000000
vt 0.500000 0.500000
vt 0.000000 0.000000
vt 1.000000 0.000000
vt 0.500000 0.500000
vt 0.000000 1.000000
vt 1.000000 1.000000
vt 0.500000 0.500000
vt 0.000000 0.000000
vt 1.000000 0.000000
vt 0.500000 0.500000
vt 0.000000 1.000000
vt 1.000000 1.000000
vt 0.500000 0.500000
vt 0.000000 0.000000
vt 1.000000 0.000000
vt 0.500000 0.500000
vt 0.000000 1.000000
vt 1.000000 1.000000
vt 0.500000 0.500000
vt 0.000000 0.000000
vt 1.000000 0.000000
vt 0.500000 0.500000
vt 0.000000 1.000000
vt 1.000000 1.000000
vt 0.500000 0.500000
vt 0.000000 0.000000
vt 1.000000 0.000000
vt 0.500000 0.500000
vt 0.000000 1.000000
vt 1.000000 1.000000
vt 0.500000 0.500000
vt 0.000000 0.000000
vt 1.000000 0.000000
vt 0.500000 0.500000
vt 0.000000 1.000000
vt 1.000000 1.000000
vt 0.500000 0.500000
vt 0.000000 0.000000
vt 1.000000 0.000000
vt 0.500000 0.500000
vt 0.000000 1.000000
vt 1.000000 1.000000
vt 0.000000 0.000000
vt 1.000000 0.000000
vt 1.000000 1.000000
vt 0.000000 1.000000
vt 0.000000 0.000000
vt 1.000000 0.000000
vt 1.000000 1.000000
vt 0.000000 1.000000
vt 0.000000 0.000000
vt 1.000000 0.000000
vt 1.000000 1.000000
vt 0.000000 1.000000
vt 0.000000 0.000000
vt 1.000000 0.000000
vt 1.000000 1.000000
vt 0.000000 1.000000
vt 0.000000 0.000000
vt 1.000000 0.000000
vt 1.000000 1.000000
vt 0.000000 1.000000
vt 0.000000 0.000000
vt 1.000000 0.000000
vt 1.000000 1.000000
vt 0.000000 1.000000
vt 0.000000 0.000000
vt 1.000000 0.000000
vt 1.000000 1.000000
vt 0.000000 1.000000
vt 0.000000 0.000000
vt 1.000000 0.000000
vt 1.000000 1.000000
vt 0.000000 1.000000
vt 0.000000 0.000000
vt 1.000000 0.000000
vt 1.000000 1.000000
vt 0.000000 1.000000
vt 0.000000 0.000000
vt 1.000000 0.000000
vt 1.000000 1.000000
vt 0.000000 1.000000
vt 0.000000 0.000000
vt 1.000000 0.000000
vt 1.000000 1.000000
vt 0.000000 1.000000
vt 0.000000 0.000000
vt 1.000000 0.000000
vt 1.000000 1.000000
vt 0.000000 1.000000
vt 0.000000 0.000000
vt 1.000000 0.000000
vt 1.000000 1.000000
vt 0.000000 1.000000
vt 0.000000 0.000000
vt 1.000000 0.000000
vt 1.000000 1.000000
vt 0.000000 1.000000
vt 0.000000 0.000000
vt 1.000000 0.000000
vt 1.000000 1.000000
vt 0.000000 1.000000
vt 0.000000 0.000000
vt 1.000000 0.000000
vt 1.000000 1.000000
vt 0.000000 1.000000
vt 0.000000 0.000000
vt 1.000000 0.000000
vt 1.000000 1.000000
vt 0.000000 1.000000
vt 0.000000 0.000000
vt 1.000000 0.000000
vt 1.000000 1.000000
vt 0.000000 1.000000
vt 0.000000 0.000000
vt 1.000000 0.000000
vt 1.000000 1.000000
vt 0.000000 1.000000
vt 0.000000 0.000000
vt 1.000000 0.000000
vt 1.000000 1.000000
vt 0.000000 1.000000
vt 0.000000 0.000000
vt 1.000000 0.000000
vt 1.000000 1.000000
vt 0.000000 1.000000
vt 0.000000 0.000000
vt 1.000000 0.000000
vt 1.000000 1.000000
vt 0.000000 1.000000
vt 0.000000 0.000000
vt 1.000000 0.000000
vt 1.000000 1.000000
vt 0.000000 1.000000
vt 0.000000 0.000000
vt 1.000000 0.000000
vt 1.000000 1.000000
vt 0.000000 1.000000
vt 0.000000 0.000000
vt 1.000000 0.000000
vt 1.000000 1.000000
vt 0.000000 1.000000
vt 0.000000 0.000000
vt 1.000000 0.000000
vt 1.000000 1.000000
vt 0.000000 1.000000
vt 0.000000 0.000000
vt 1.000000 0.000000
vt 1.000000 1.000000
vt 0.000000 1.000000
vt 0.000000 0.000000
vt 1.000000 0.000000
vt 1.000000 1.000000
vt 0.000000 1.000000
vt 0.000000 0.000000
vt 1.000000 0.000000
vt 1.000000 1.000000
vt 0.000000 1.000000
vt 0.000000 0.000000
vt 1.000000 0.000000
vt 1.000000 1.000000
vt 0.000000 1.000000
vt 0.000000 0.000000
vt 1.000000 0.000000
vt 1.000000 1.000000
vt 0.000000 1.000000
vt 0.000000 0.000000
vt 1.000000 0.000000
vt 1.000000 1.000000
vt 0.000000 1.000000
vt 0.000000 0.000000
vt 1.000000 0.000000
vt 1.000000 1.000000
vt 0.000000 1.000000
vt 0.000000 0.000000
vt 1.000000 0.000000
vt 1.000000 1.000000
vt 0.000000 1.000000
vt 0.000000 0.000000
vt 1.000000 0.000000
vt 1.000000 1.000000
vt 0.000000 1.000000
vt 0.000000 0.000000
vt 1.000000 0.000000
vt 1.000000 1.000000
vt 0.000000 1.000000
vt 0.000000 0.000000
vt 1.000000 0.000000
vt 1.000000 1.000000
vt 0.000000 1.000000
vt 0.000000 0.000000
vt 1.000000 0.000000
vt 1.000000 1.000000
vt 0.000000 1.000000
vt 0.000000 0.000000
vt 1.000000 0.000000
vt 1.000000 1.000000
vt 0.000000 1.000000
vt 0.000000 0.000000
vt 1.000000 0.000000
vt 1.000000 1.000000
vt 0.000000 1.000000
vt 0.000000 0.000000
vt 1.000000 0.000000
vt 1.000000 1.000000
vt 0.000000 1.000000
vt 0.000000 0.000000
vt 1.000000 0.000000
vt 1.000000 1.000000
vt 0.000000 1.000000
vt 0.000000 0.000000
vt 1.000000 0.000000
vt 1.000000 1.000000
vt 0.000000 1.000000
vt 0.000000 0.000000
vt 1.000000 0.000000
vt 1.000000 1.000000
vt 0.000000 1.000000
vt 0.000000 0.000000
vt 1.000000 0.000000
vt 1.000000 1.000000
vt 0.000000 1.000000
vt 0.000000 0.000000
vt 1.000000 0.000000
vt 1.000000 1.000000
vt 0.000000 1.000000
vt 0.000000 0.000000
vt 1.000000 0.000000
vt 1.000000 1.000000
vt 0.000000 1.000000
vt 0.000000 0.000000
vt 1.000000 0.000000
vt 1.000000 1.000000
vt 0.000000 1.000000
vt 0.000000 0.000000
vt 1.000000 0.000000
vt 1.000000 1.000000
vt 0.000000 1.000000
vt 0.000000 0.000000
vt 1.000000 0.000000
vt 1.000000 1.000000
vt 0.000000 1.000000
vt 0.000000 0.000000
vt 1.000000 0.000000
vt 1.000000 1.000000
vt 0.000000 1.000000
vt 0.000000 0.000000
vt 1.000000 0.000000
vt 1.000000 1.000000
vt 0.000000 1.000000
vt 0.000000 0.000000
vt 1.000000 0.000000
vt 1.000000 1.000000
vt 0.000000 1.000000
vt 0.000000 0.000000
vt 1.000000 0.000000
vt 1.000000 1.000000
vt 0.000000 1.000000
vt 0.000000 0.000000
vt 1.000000 0.000000
vt 1.000000 1.000000
vt 0.000000 1.000000
vt 0.000000 0.000000
vt 1.000000 0.000000
vt 1.000000 1.000000
vt 0.000000 1.000000
vt 0.000000 0.000000
vt 1.000000 0.000000
vt 1.000000 1.000000
vt 0.000000 1.000000
vt 0.000000 0.000000
vt 1.000000 0.000000
vt 1.000000 1.000000
vt 0.000000 1.000000
vt 0.000000 0.000000
vt 1.000000 0.000000
vt 1.000000 1.000000
vt 0.000000 1.000000
vt 0.000000 0.000000
vt 1.000000 0.000000
vt 1.000000 1.000000
vt 0.000000 1.000000
vt 0.000000 0.000000
vt 1.000000 0.000000
vt 1.000000 1.000000
vt 0.000000 1.000000
vt 0.000000 0.000000
vt 1.000000 0.000000
vt 1.000000 1.000000
vt 0.000000 1.000000
vt 0.000000 0.000000
vt 1.000000 0.000000
vt 1.000000 1.000000
vt 0.000000 1.000000
vt 0.000000 0.000000
vt 1.000000 0.000000
vt 1.000000 1.000000
vt 0.000000 1.000000
vt 0.000000 0.000000
vt 1.000000 0.000000
vt 1.000000 1.000000
vt 0.000000 1.000000
vt 0.000000 0.000000
vt 1.000000 0.000000
vt 1.000000 1.000000
vt 0.000000 1.000000
vt 0.000000 0.000000
vt 1.000000 0.000000
vt 1.000000 1.000000
vt 0.000000 1.000000
vt 0.000000 0.000000
vt 1.000000 0.000000
vt 1.000000 1.000000
vt 0.000000 1.000000
vt 0.000000 0.000000
vt 1.000000 0.000000
vt 1.000000 1.000000
vt 0.000000 1.000000
vt 0.000000 0.000000
vt 1.000000 0.000000
vt 1.000000 1.000000
vt 0.000000 1.000000
vt 0.000000 0.000000
vt 1.000000 0.000000
vt 1.000000 1.000000
vt 0.000000 1.000000
vt 0.000000 0.000000
vt 1.000000 0.000000
vt 1.000000 1.000000
vt 0.000000 1.000000
vt 0.000000 0.000000
vt 1.000000 0.000000
vt 1.000000 1.000000
vt 0.000000 1.000000
vt 0.000000 0.000000
vt 1.000000 0.000000
vt 1.000000 1.000000
vt 0.000000 1.000000
vt 0.000000 0.000000
vt 1.000000 0.000000
vt 1.000000 1.000000
vt 0.000000 1.000000
vt 0.000000 0.000000
vt 1.000000 0.000000
vt 1.000000 1.000000
vt 0.000000 1.000000
vt 0.000000 0.000000
vt 1.000000 0.000000
vt 1.000000 1.000000
vt 0.000000 1.000000
vt 0.000000 0.000000
vt 1.000000 0.000000
vt 1.000000 1.000000
vt 0.000000 1.000000
vt 0.000000 0.000000
vt 1.000000 0.000000
vt 1.000000 1.000000
vt 0.000000 1.000000
vt 0.000000 0.000000
vt 1.000000 0.000000
vt 1.000000 1.000000
vt 0.000000 1.000000
vt 0.000000 0.000000
vt 1.000000 0.000000
vt 1.000000 1.000000
vt 0.000000 1.000000
vt 0.000000 0.000000
vt 1.000000 0.000000
vt 1.000000 1.000000
vt 0.000000 1.000000
vt 0.500000 0.500000
vt 0.000000 0.000000
vt 1.000000 0.000000
vt 0.500000 0.500000
vt 0.000000 1.000000
vt 1.000000 1.000000
vt 0.500000 0.500000
vt 0.000000 0.000000
vt 1.000000 0.000000
vt 0.500000 0.500000
vt 0.000000 1.000000
vt 1.000000 1.000000
vt 0.500000 0.500000
vt 0.000000 0.000000
vt 1.000000 0.000000
vt 0.500000 0.500000
vt 0.000000 1.000000
vt 1.000000 1.000000
vt 0.500000 0.500000
vt 0.000000 0.000000
vt 1.000000 0.000000
vt 0.500000 0.500000
vt 0.000000 1.000000
vt 1.000000 1.000000
vt 0.500000 0.500000
vt 0.000000 0.000000
vt 1.000000 0.000000
vt 0.500000 0.500000
vt 0.000000 1.000000
vt 1.000000 1.000000
vt 0.500000 0.500000
vt 0.000000 0.000000
vt 1.000000 0.000000
vt 0.500000 0.500000
vt 0.000000 1.000000
vt 1.000000 1.000000
vt 0.000000 0.000000
vt 1.000000 0.000000
vt 1.000000 1.000000
vt 0.000000 1.000000
vt 0.000000 0.000000
vt 1.000000 0.000000
vt 1.000000 1.000000
vt 0.000000 1.000000
vt 0.000000 0.000000
vt 1.000000 0.000000
vt 1.000000 1.000000
vt 0.000000 1.000000
vt 0.000000 0.000000
vt 1.000000 0.000000
vt 1.000000 1.000000
vt 0.000000 1.000000
vt 0.000000 0.000000
vt 1.000000 0.000000
vt 1.000000 1.000000
vt 0.000000 1.000000
vt 0.000000 0.000000
vt 1.000000 0.000000
vt 1.000000 1.000000
vt 0.000000 1.000000
vt 0.000000 0.000000
vt 1.000000 0.000000
vt 1.000000 1.000000
vt 0.000000 1.000000
vt 0.000000 0.000000
vt 1.000000 0.000000
vt 1.000000 1.000000
vt 0.000000 1.000000
vt 0.000000 0.000000
vt 1.000000 0.000000
vt 1.000000 1.000000
vt 0.000000 1.000000
vt 0.000000 0.000000
vt 1.000000 0.000000
vt 1.000000 1.000000
vt 0.000000 1.000000
vt 0.000000 0.000000
vt 1.000000 0.000000
vt 1.000000 1.000000
vt 0.000000 1.000000
vt 0.000000 0.000000
vt 1.000000 0.000000
vt 1.000000 1.000000
vt 0.000000 1.000000
vt 0.500000 0.500000
vt 0.000000 0.000000
vt 1.000000 0.000000
vt 0.500000 0.500000
vt 0.000000 1.000000
vt 1.000000 1.000000
vt 0.500000 0.500000
vt 0.000000 0.000000
vt 1.000000 0.000000
vt 0.500000 0.500000
vt 0.000000 1.000000
vt 1.000000 1.000000
vt 0.500000 0.500000
vt 0.000000 0.000000
vt 1.000000 0.000000
vt 0.500000 0.500000
vt 0.000000 1.000000
vt 1.000000 1.000000
vt 0.500000 0.500000
vt 0.000000 0.000000
vt 1.000000 0.000000
vt 0.500000 0.500000
vt 0.000000 1.000000
vt 1.000000 1.000000
vt 0.500000 0.500000
vt 0.000000 0.000000
vt 1.000000 0.000000
vt 0.500000 0.500000
vt 0.000000 1.000000
vt 1.000000 1.000000
vt 0.500000 0.500000
vt 0.000000 0.000000
vt 1.000000 0.000000
vt 0.500000 0.500000
vt 0.000000 1.000000
vt 1.000000 1.000000
vt 0.000000 0.000000
vt 1.000000 0.000000
vt 1.000000 1.000000
vt 0.000000 1.000000
vt 0.000000 0.000000
vt 1.000000 0.000000
vt 1.000000 1.000000
vt 0.000000 1.000000
vt 0.000000 0.000000
vt 1.000000 0.000000
vt 1.000000 1.000000
vt 0.000000 1.000000
vt 0.000000 0.000000
vt 1.000000 0.000000
vt 1.000000 1.000000
vt 0.000000 1.000000
vt 0.000000 0.000000
vt 1.000000 0.000000
vt 1.000000 1.000000
vt 0.000000 1.000000
vt 0.000000 0.000000
vt 1.000000 0.000000
vt 1.000000 1.000000
vt 0.000000 1.000000
vt 0.000000 0.000000
vt 1.000000 0.000000
vt 1.000000 1.000000
vt 0.000000 1.000000
vt 0.000000 0.000000
vt 1.000000 0.000000
vt 1.000000 1.000000
vt 0.000000 1.000000
vt 0.000000 0.000000
vt 1.000000 0.000000
vt 1.000000 1.000000
vt 0.000000 1.000000
vt 0.000000 0.000000
vt 1.000000 0.000000
vt 1.000000 1.000000
vt 0.000000 1.000000
vt 0.000000 0.000000
vt 1.000000 0.000000
vt 1.000000 1.000000
vt 0.000000 1.000000
vt 0.000000 0.000000
vt 1.000000 0.000000
vt 1.000000 1.000000
vt 0.000000 1.000000
vt 0.500000 0.500000
vt 0.000000 0.000000
vt 1.000000 0.000000
vt 0.500000 0.500000
vt 0.000000 1.000000
vt 1.000000 1.000000
vt 0.500000 0.500000
vt 0.000000 0.000000
vt 1.000000 0.000000
vt 0.500000 0.500000
vt 0.000000 1.000000
vt 1.000000 1.000000
vt 0.500000 0.500000
vt 0.000000 0.000000
vt 1.000000 0.000000
vt 0.500000 0.500000
vt 0.000000 1.000000
vt 1.000000 1.000000
vt 0.500000 0.500000
vt 0.000000 0.000000
vt 1.000000 0.000000
vt 0.500000 0.500000
vt 0.000000 1.000000
vt 1.000000 1.000000
vt 0.500000 0.500000
vt 0.000000 0.000000
vt 1.000000 0.000000
vt 0.500000 0.500000
vt 0.000000 1.000000
vt 1.000000 1.000000
vt 0.500000 0.500000
vt 0.000000 0.000000
vt 1.000000 0.000000
vt 0.500000 0.500000
vt 0.000000 1.000000
vt 1.000000 1.000000
vt 0.000000 0.000000
vt 1.000000 0.000000
vt 1.000000 1.000000
vt 0.000000 1.000000
vt 0.000000 0.000000
vt 1.000000 0.000000
vt 1.000000 1.000000
vt 0.000000 1.000000
vt 0.000000 0.000000
vt 1.000000 0.000000
vt 1.000000 1.000000
vt 0.000000 1.000000
vt 0.000000 0.000000
vt 1.000000 0.000000
vt 1.000000 1.000000
vt 0.000000 1.000000
vt 0.000000 0.000000
vt 1.000000 0.000000
vt 1.000000 1.000000
vt 0.000000 1.000000
vt 0.500000 0.500000
vt 0.000000 0.000000
vt 1.000000 0.000000
vt 0.500000 0.500000
vt 0.000000 1.000000
vt 1.000000 1.000000
vt 0.500000 0.500000
vt 0.000000 0.000000
vt 1.000000 0.000000
vt 0.500000 0.500000
vt 0.000000 1.000000
vt 1.000000 1.000000
vt 0.500000 0.500000
vt 0.000000 0.000000
vt 1.000000 0.000000
vt 0.500000 0.500000
vt 0.000000 1.000000
vt 1.000000 1.000000
vt 0.500000 0.500000
vt 0.000000 0.000000
vt 1.000000 0.000000
vt 0.500000 0.500000
vt 0.000000 1.000000
vt 1.000000 1.000000
vt 0.500000 0.500000
vt 0.000000 0.000000
vt 1.000000 0.000000
vt 0.500000 0.500000
vt 0.000000 1.000000
vt 1.000000 1.000000
usemtl Metal
f 1/1 2/2 3/3
f 1/1 3/3 4/4
f 5/5 6/6 7/7
f 5/5 7/7 8/8
f 9/9 10/10 11/11
f 9/9 11/11 12/12
f 13/13 14/14 15/15
f 13/13 15/15 16/16
f 17/17 18/18 19/19
f 17/17 19/19 20/20
f 21/21 22/22 23/23
f 21/21 23/23 24/24
f 25/25 26/26 27/27
f 25/25 27/27 28/28
f 29/29 30/30 31/31
f 29/29 31/31 32/32
f 33/33 34/34 35/35
f 33/33 35/35 36/36
f 37/37 38/38 39/39
f 37/37 39/39 40/40
f 41/41 42/42 43/43
f 41/41 43/43 44/44
f 45/45 46/46 47/47
f 45/45 47/47 48/48
f 49/49 50/50 51/51
f 49/49 51/51 52/52
f 53/53 54/54 55/55
f 56/56 57/57 58/58
f 59/59 60/60 61/61
f 62/62 63/63 64/64
f 65/65 66/66 67/67
f 68/68 69/69 70/70
f 71/71 72/72 73/73
f 74/74 75/75 76/76
f 77/77 78/78 79/79
f 80/80 81/81 82/82
f 83/83 84/84 85/85
f 86/86 87/87 88/88
f 89/89 90/90 91/91
f 92/92 93/93 94/94
f 95/95 96/96 97/97
f 95/95 97/97 98/98
f 99/99 100/100 101/101
f 99/99 101/101 102/102
f 103/103 104/104 105/105
f 103/103 105/105 106/106
f 107/107 108/108 109/109
f 107/107 109/109 110/110
f 111/111 112/112 113/113
f 111/111 113/113 114/114
f 115/115 116/116 117/117
f 115/115 117/117 118/118
f 119/119 120/120 121/121
f 119/119 121/121 122/122
f 123/123 124/124 125/125
f 123/123 125/125 126/126
f 127/127 128/128 129/129
f 127/127 129/129 130/130
f 131/131 132/132 133/133
f 131/131 133/133 134/134
f 135/135 136/136 137/137
f 135/135 137/137 138/138
f 139/139 140/140 141/141
f 139/139 141/141 142/142
f 143/143 144/144 145/145
f 143/143 145/145 146/146
f 147/147 148/148 149/149
f 150/150 151/151 152/152
f 153/153 154/154 155/155
f 156/156 157/157 158/158
f 159/159 160/160 161/161
f 162/162 163/163 164/164
f 165/165 166/166 167/167
f 168/168 169/169 170/170
f 171/171 172/172 173/173
f 174/174 175/175 176/176
f 177/177 178/178 179/179
f 180/180 181/181 182/182
f 183/183 184/184 185/185
f 186/186 187/187 188/188
f 189/189 190/190 191/191
f 189/189 191/191 192/192
f 193/193 194/194 195/195
f 193/193 195/195 196/196
f 197/197 198/198 199/199
f 197/197 199/199 200/200
f 201/201 202/202 203/203
f 201/201 203/203 204/204
f 205/205 206/206 207/207
f 205/205 207/207 208/208
f 209/209 210/210 211/211
f 209/209 211/211 212/212
f 213/213 214/214 215/215
f 213/213 215/215 216/216
f 217/217 218/218 219/219
f 217/217 219/219 220/220
f 221/221 222/222 223/223
f 221/221 223/223 224/224
f 225/225 226/226 227/227
f 225/225 227/227 228/228
f 229/229 230/230 231/231
f 229/229 231/231 232/232
f 233/233 234/234 235/235
f 233/233 235/235 236/236
f 237/237 238/238 239/239
f 237/237 239/239 240/240
f 241/241 242/242 243/243
f 244/244 245/245 246/246
f 247/247 248/248 249/249
f 250/250 251/251 252/252
f 253/253 254/254 255/255
f 256/256 257/257 258/258
f 259/259 260/260 261/261
f 262/262 263/263 264/264
f 265/265 266/266 267/267
f 268/268 269/269 270/270
f 271/271 272/272 273/273
f 274/274 275/275 276/276
f 277/277 278/278 279/279
f 280/280 281/281 282/282
usemtl Rope
f 283/283 284/284 285/285
f 283/283 285/285 286/286
f 287/287 288/288 289/289
f 287/287 289/289 290/290
f 291/291 292/292 293/293
f 291/291 293/293 294/294
f 295/295 296/296 297/297
f 295/295 297/297 298/298
f 299/299 300/300 301/301
f 299/299 301/301 302/302
f 303/303 304/304 305/305
f 303/303 305/305 306/306
f 307/307 308/308 309/309
f 307/307 309/309 310/310
f 311/311 312/312 313/313
f 311/311 313/313 314/314
f 315/315 316/316 317/317
f 315/315 317/317 318/318
f 319/319 320/320 321/321
f 319/319 321/321 322/322
f 323/323 324/324 325/325
f 323/323 325/325 326/326
f 327/327 328/328 329/329
f 327/327 329/329 330/330
f 331/331 332/332 333/333
f 331/331 333/333 334/334
f 335/335 336/336 337/337
f 335/335 337/337 338/338
f 339/339 340/340 341/341
f 339/339 341/341 342/342
f 343/343 344/344 345/345
f 343/343 345/345 346/346
f 347/347 348/348 349/349
f 347/347 349/349 350/350
f 351/351 352/352 353/353
f 351/351 353/353 354/354
f 355/355 356/356 357/357
f 355/355 357/357 358/358
f 359/359 360/360 361/361
f 359/359 361/361 362/362
f 363/363 364/364 365/365
f 363/363 365/365 366/366
f 367/367 368/368 369/369
f 367/367 369/369 370/370
f 371/371 372/372 373/373
f 371/371 373/373 374/374
f 375/375 376/376 377/377
f 375/375 377/377 378/378
f 379/379 380/380 381/381
f 379/379 381/381 382/382
f 383/383 384/384 385/385
f 383/383 385/385 386/386
f 387/387 388/388 389/389
f 387/387 389/389 390/390
f 391/391 392/392 393/393
f 391/391 393/393 394/394
f 395/395 396/396 397/397
f 395/395 397/397 398/398
f 399/399 400/400 401/401
f 399/399 401/401 402/402
f 403/403 404/404 405/405
f 403/403 405/405 406/406
f 407/407 408/408 409/409
f 407/407 409/409 410/410
f 411/411 412/412 413/413
f 411/411 413/413 414/414
f 415/415 416/416 417/417
f 415/415 417/417 418/418
f 419/419 420/420 421/421
f 419/419 421/421 422/422
f 423/423 424/424 425/425
f 423/423 425/425 426/426
f 427/427 428/428 429/429
f 427/427 429/429 430/430
f 431/431 432/432 433/433
f 431/431 433/433 434/434
f 435/435 436/436 437/437
f 435/435 437/437 438/438
f 439/439 440/440 441/441
f 439/439 441/441 442/442
f 443/443 444/444 445/445
f 443/443 445/445 446/446
f 447/447 448/448 449/449
f 447/447 449/449 450/450
f 451/451 452/452 453/453
f 451/451 453/453 454/454
f 455/455 456/456 457/457
f 455/455 457/457 458/458
f 459/459 460/460 461/461
f 459/459 461/461 462/462
f 463/463 464/464 465/465
f 463/463 465/465 466/466
f 467/467 468/468 469/469
f 467/467 469/469 470/470
f 471/471 472/472 473/473
f 471/471 473/473 474/474
f 475/475 476/476 477/477
f 475/475 477/477 478/478
f 479/479 480/480 481/481
f 479/479 481/481 482/482
f 483/483 484/484 485/485
f 483/483 485/485 486/486
f 487/487 488/488 489/489
f 487/487 489/489 490/490
f 491/491 492/492 493/493
f 491/491 493/493 494/494
f 495/495 496/496 497/497
f 495/495 497/497 498/498
f 499/499 500/500 501/501
f 499/499 501/501 502/502
f 503/503 504/504 505/505
f 503/503 505/505 506/506
f 507/507 508/508 509/509
f 507/507 509/509 510/510
f 511/511 512/512 513/513
f 511/511 513/513 514/514
f 515/515 516/516 517/517
f 515/515 517/517 518/518
f 519/519 520/520 521/521
f 519/519 521/521 522/522
f 523/523 524/524 525/525
f 523/523 525/525 526/526
f 527/527 528/528 529/529
f 527/527 529/529 530/530
f 531/531 532/532 533/533
f 531/531 533/533 534/534
f 535/535 536/536 537/537
f 535/535 537/537 538/538
f 539/539 540/540 541/541
f 539/539 541/541 542/542
f 543/543 544/544 545/545
f 543/543 545/545 546/546
f 547/547 548/548 549/549
f 547/547 549/549 550/550
f 551/551 552/552 553/553
f 551/551 553/553 554/554
f 555/555 556/556 557/557
f 555/555 557/557 558/558
f 559/559 560/560 561/561
f 559/559 561/561 562/562
usemtl Char
f 563/563 564/564 565/565
f 563/563 565/565 566/566
f 567/567 568/568 569/569
f 567/567 569/569 570/570
f 571/571 572/572 573/573
f 571/571 573/573 574/574
f 575/575 576/576 577/577
f 575/575 577/577 578/578
f 579/579 580/580 581/581
f 579/579 581/581 582/582
f 583/583 584/584 585/585
f 583/583 585/585 586/586
usemtl Metal
f 587/587 588/588 589/589
f 587/587 589/589 590/590
f 591/591 592/592 593/593
f 591/591 593/593 594/594
f 595/595 596/596 597/597
f 595/595 597/597 598/598
f 599/599 600/600 601/601
f 599/599 601/601 602/602
f 603/603 604/604 605/605
f 603/603 605/605 606/606
f 607/607 608/608 609/609
f 607/607 609/609 610/610
f 611/611 612/612 613/613
f 614/614 615/615 616/616
f 617/617 618/618 619/619
f 620/620 621/621 622/622
f 623/623 624/624 625/625
f 626/626 627/627 628/628
f 629/629 630/630 631/631
f 632/632 633/633 634/634
f 635/635 636/636 637/637
f 638/638 639/639 640/640
f 641/641 642/642 643/643
f 644/644 645/645 646/646
usemtl Char
f 647/647 648/648 649/649
f 647/647 649/649 650/650
f 651/651 652/652 653/653
f 651/651 653/653 654/654
f 655/655 656/656 657/657
f 655/655 657/657 658/658
f 659/659 660/660 661/661
f 659/659 661/661 662/662
f 663/663 664/664 665/665
f 663/663 665/665 666/666
f 667/667 668/668 669/669
f 667/667 669/669 670/670
usemtl Metal
f 671/671 672/672 673/673
f 671/671 673/673 674/674
f 675/675 676/676 677/677
f 675/675 677/677 678/678
f 679/679 680/680 681/681
f 679/679 681/681 682/682
f 683/683 684/684 685/685
f 683/683 685/685 686/686
f 687/687 688/688 689/689
f 687/687 689/689 690/690
f 691/691 692/692 693/693
f 691/691 693/693 694/694
f 695/695 696/696 697/697
f 698/698 699/699 700/700
f 701/701 702/702 703/703
f 704/704 705/705 706/706
f 707/707 708/708 709/709
f 710/710 711/711 712/712
f 713/713 714/714 715/715
f 716/716 717/717 718/718
f 719/719 720/720 721/721
f 722/722 723/723 724/724
f 725/725 726/726 727/727
f 728/728 729/729 730/730
usemtl Char
f 731/731 732/732 733/733
f 731/731 733/733 734/734
f 735/735 736/736 737/737
f 735/735 737/737 738/738
f 739/739 740/740 741/741
f 739/739 741/741 742/742
f 743/743 744/744 745/745
f 743/743 745/745 746/746
f 747/747 748/748 749/749
f 747/747 749/749 750/750
f 751/751 752/752 753/753
f 751/751 753/753 754/754
usemtl Metal
f 755/755 756/756 757/757
f 755/755 757/757 758/758
f 759/759 760/760 761/761
f 759/759 761/761 762/762
f 763/763 764/764 765/765
f 763/763 765/765 766/766
f 767/767 768/768 769/769
f 767/767 769/769 770/770
f 771/771 772/772 773/773
f 771/771 773/773 774/774
f 775/775 776/776 777/777
f 775/775 777/777 778/778
f 779/779 780/780 781/781
f 782/782 783/783 784/784
f 785/785 786/786 787/787
f 788/788 789/789 790/790
f 791/791 792/792 793/793
f 794/794 795/795 796/796
f 797/797 798/798 799/799
f 800/800 801/801 802/802
f 803/803 804/804 805/805
f 806/806 807/807 808/808
f 809/809 810/810 811/811
f 812/812 813/813 814/814
usemtl Rope
f 815/815 816/816 817/817
f 815/815 817/817 818/818
f 819/819 820/820 821/821
f 819/819 821/821 822/822
f 823/823 824/824 825/825
f 823/823 825/825 826/826
f 827/827 828/828 829/829
f 827/827 829/829 830/830
f 831/831 832/832 833/833
f 831/831 833/833 834/834
f 835/835 836/836 837/837
f 838/838 839/839 840/840
f 841/841 842/842 843/843
f 844/844 845/845 846/846
f 847/847 848/848 849/849
f 850/850 851/851 852/852
f 853/853 854/854 855/855
f 856/856 857/857 858/858
f 859/859 860/860 861/861
f 862/862 863/863 864/864
