mtllib ../../Materials/project_oen.mtl
o pr-007_metal_canteen__empty
v 0.072940 0.010941 0.000000
v 0.063168 0.010941 0.036470
v 0.063168 0.185997 0.036470
v 0.072940 0.185997 0.000000
v 0.063168 0.010941 0.036470
v 0.036470 0.010941 0.063168
v 0.036470 0.185997 0.063168
v 0.063168 0.185997 0.036470
v 0.036470 0.010941 0.063168
v 0.000000 0.010941 0.072940
v 0.000000 0.185997 0.072940
v 0.036470 0.185997 0.063168
v 0.000000 0.010941 0.072940
v -0.036470 0.010941 0.063168
v -0.036470 0.185997 0.063168
v 0.000000 0.185997 0.072940
v -0.036470 0.010941 0.063168
v -0.063168 0.010941 0.036470
v -0.063168 0.185997 0.036470
v -0.036470 0.185997 0.063168
v -0.063168 0.010941 0.036470
v -0.072940 0.010941 0.000000
v -0.072940 0.185997 0.000000
v -0.063168 0.185997 0.036470
v -0.072940 0.010941 0.000000
v -0.063168 0.010941 -0.036470
v -0.063168 0.185997 -0.036470
v -0.072940 0.185997 0.000000
v -0.063168 0.010941 -0.036470
v -0.036470 0.010941 -0.063168
v -0.036470 0.185997 -0.063168
v -0.063168 0.185997 -0.036470
v -0.036470 0.010941 -0.063168
v -0.000000 0.010941 -0.072940
v -0.000000 0.185997 -0.072940
v -0.036470 0.185997 -0.063168
v -0.000000 0.010941 -0.072940
v 0.036470 0.010941 -0.063168
v 0.036470 0.185997 -0.063168
v -0.000000 0.185997 -0.072940
v 0.036470 0.010941 -0.063168
v 0.063168 0.010941 -0.036470
v 0.063168 0.185997 -0.036470
v 0.036470 0.185997 -0.063168
v 0.063168 0.010941 -0.036470
v 0.072940 0.010941 0.000000
v 0.072940 0.185997 0.000000
v 0.063168 0.185997 -0.036470
v 0.000000 0.010941 0.000000
v 0.063168 0.010941 0.036470
v 0.072940 0.010941 0.000000
v 0.000000 0.185997 0.000000
v 0.072940 0.185997 0.000000
v 0.063168 0.185997 0.036470
v 0.000000 0.010941 0.000000
v 0.036470 0.010941 0.063168
v 0.063168 0.010941 0.036470
v 0.000000 0.185997 0.000000
v 0.063168 0.185997 0.036470
v 0.036470 0.185997 0.063168
v 0.000000 0.010941 0.000000
v 0.000000 0.010941 0.072940
v 0.036470 0.010941 0.063168
v 0.000000 0.185997 0.000000
v 0.036470 0.185997 0.063168
v 0.000000 0.185997 0.072940
v 0.000000 0.010941 0.000000
v -0.036470 0.010941 0.063168
v 0.000000 0.010941 0.072940
v 0.000000 0.185997 0.000000
v 0.000000 0.185997 0.072940
v -0.036470 0.185997 0.063168
v 0.000000 0.010941 0.000000
v -0.063168 0.010941 0.036470
v -0.036470 0.010941 0.063168
v 0.000000 0.185997 0.000000
v -0.036470 0.185997 0.063168
v -0.063168 0.185997 0.036470
v 0.000000 0.010941 0.000000
v -0.072940 0.010941 0.000000
v -0.063168 0.010941 0.036470
v 0.000000 0.185997 0.000000
v -0.063168 0.185997 0.036470
v -0.072940 0.185997 0.000000
v 0.000000 0.010941 0.000000
v -0.063168 0.010941 -0.036470
v -0.072940 0.010941 0.000000
v 0.000000 0.185997 0.000000
v -0.072940 0.185997 0.000000
v -0.063168 0.185997 -0.036470
v 0.000000 0.010941 0.000000
v -0.036470 0.010941 -0.063168
v -0.063168 0.010941 -0.036470
v 0.000000 0.185997 0.000000
v -0.063168 0.185997 -0.036470
v -0.036470 0.185997 -0.063168
v 0.000000 0.010941 0.000000
v -0.000000 0.010941 -0.072940
v -0.036470 0.010941 -0.063168
v 0.000000 0.185997 0.000000
v -0.036470 0.185997 -0.063168
v -0.000000 0.185997 -0.072940
v 0.000000 0.010941 0.000000
v 0.036470 0.010941 -0.063168
v -0.000000 0.010941 -0.072940
v 0.000000 0.185997 0.000000
v -0.000000 0.185997 -0.072940
v 0.036470 0.185997 -0.063168
v 0.000000 0.010941 0.000000
v 0.063168 0.010941 -0.036470
v 0.036470 0.010941 -0.063168
v 0.000000 0.185997 0.000000
v 0.036470 0.185997 -0.063168
v 0.063168 0.185997 -0.036470
v 0.000000 0.010941 0.000000
v 0.072940 0.010941 0.000000
v 0.063168 0.010941 -0.036470
v 0.000000 0.185997 0.000000
v 0.063168 0.185997 -0.036470
v 0.072940 0.185997 0.000000
v -0.061999 0.043764 -0.078411
v 0.061999 0.043764 -0.078411
v 0.061999 0.153174 -0.078411
v -0.061999 0.153174 -0.078411
v 0.061999 0.043764 -0.049235
v -0.061999 0.043764 -0.049235
v -0.061999 0.153174 -0.049235
v 0.061999 0.153174 -0.049235
v -0.061999 0.043764 -0.049235
v -0.061999 0.043764 -0.078411
v -0.061999 0.153174 -0.078411
v -0.061999 0.153174 -0.049235
v 0.061999 0.043764 -0.078411
v 0.061999 0.043764 -0.049235
v 0.061999 0.153174 -0.049235
v 0.061999 0.153174 -0.078411
v -0.061999 0.153174 -0.078411
v 0.061999 0.153174 -0.078411
v 0.061999 0.153174 -0.049235
v -0.061999 0.153174 -0.049235
v -0.061999 0.043764 -0.049235
v 0.061999 0.043764 -0.049235
v 0.061999 0.043764 -0.078411
v -0.061999 0.043764 -0.078411
v 0.031000 0.180527 0.000000
v 0.025079 0.180527 0.018221
v 0.025079 0.220644 0.018221
v 0.031000 0.220644 0.000000
v 0.025079 0.180527 0.018221
v 0.009579 0.180527 0.029482
v 0.009579 0.220644 0.029482
v 0.025079 0.220644 0.018221
v 0.009579 0.180527 0.029482
v -0.009579 0.180527 0.029482
v -0.009579 0.220644 0.029482
v 0.009579 0.220644 0.029482
v -0.009579 0.180527 0.029482
v -0.025079 0.180527 0.018221
v -0.025079 0.220644 0.018221
v -0.009579 0.220644 0.029482
v -0.025079 0.180527 0.018221
v -0.031000 0.180527 0.000000
v -0.031000 0.220644 0.000000
v -0.025079 0.220644 0.018221
v -0.031000 0.180527 0.000000
v -0.025079 0.180527 -0.018221
v -0.025079 0.220644 -0.018221
v -0.031000 0.220644 0.000000
v -0.025079 0.180527 -0.018221
v -0.009579 0.180527 -0.029482
v -0.009579 0.220644 -0.029482
v -0.025079 0.220644 -0.018221
v -0.009579 0.180527 -0.029482
v 0.009579 0.180527 -0.029482
v 0.009579 0.220644 -0.029482
v -0.009579 0.220644 -0.029482
v 0.009579 0.180527 -0.029482
v 0.025079 0.180527 -0.018221
v 0.025079 0.220644 -0.018221
v 0.009579 0.220644 -0.029482
v 0.025079 0.180527 -0.018221
v 0.031000 0.180527 0.000000
v 0.031000 0.220644 0.000000
v 0.025079 0.220644 -0.018221
v 0.000000 0.180527 0.000000
v 0.025079 0.180527 0.018221
v 0.031000 0.180527 0.000000
v 0.000000 0.220644 0.000000
v 0.031000 0.220644 0.000000
v 0.025079 0.220644 0.018221
v 0.000000 0.180527 0.000000
v 0.009579 0.180527 0.029482
v 0.025079 0.180527 0.018221
v 0.000000 0.220644 0.000000
v 0.025079 0.220644 0.018221
v 0.009579 0.220644 0.029482
v 0.000000 0.180527 0.000000
v -0.009579 0.180527 0.029482
v 0.009579 0.180527 0.029482
v 0.000000 0.220644 0.000000
v 0.009579 0.220644 0.029482
v -0.009579 0.220644 0.029482
v 0.000000 0.180527 0.000000
v -0.025079 0.180527 0.018221
v -0.009579 0.180527 0.029482
v 0.000000 0.220644 0.000000
v -0.009579 0.220644 0.029482
v -0.025079 0.220644 0.018221
v 0.000000 0.180527 0.000000
v -0.031000 0.180527 0.000000
v -0.025079 0.180527 0.018221
v 0.000000 0.220644 0.000000
v -0.025079 0.220644 0.018221
v -0.031000 0.220644 0.000000
v 0.000000 0.180527 0.000000
v -0.025079 0.180527 -0.018221
v -0.031000 0.180527 0.000000
v 0.000000 0.220644 0.000000
v -0.031000 0.220644 0.000000
v -0.025079 0.220644 -0.018221
v 0.000000 0.180527 0.000000
v -0.009579 0.180527 -0.029482
v -0.025079 0.180527 -0.018221
v 0.000000 0.220644 0.000000
v -0.025079 0.220644 -0.018221
v -0.009579 0.220644 -0.029482
v 0.000000 0.180527 0.000000
v 0.009579 0.180527 -0.029482
v -0.009579 0.180527 -0.029482
v 0.000000 0.220644 0.000000
v -0.009579 0.220644 -0.029482
v 0.009579 0.220644 -0.029482
v 0.000000 0.180527 0.000000
v 0.025079 0.180527 -0.018221
v 0.009579 0.180527 -0.029482
v 0.000000 0.220644 0.000000
v 0.009579 0.220644 -0.029482
v 0.025079 0.220644 -0.018221
v 0.000000 0.180527 0.000000
v 0.031000 0.180527 0.000000
v 0.025079 0.180527 -0.018221
v 0.000000 0.220644 0.000000
v 0.025079 0.220644 -0.018221
v 0.031000 0.220644 0.000000
v 0.034647 0.218820 0.000000
v 0.028030 0.218820 0.020365
v 0.028030 0.247996 0.020365
v 0.034647 0.247996 0.000000
v 0.028030 0.218820 0.020365
v 0.010707 0.218820 0.032951
v 0.010707 0.247996 0.032951
v 0.028030 0.247996 0.020365
v 0.010707 0.218820 0.032951
v -0.010707 0.218820 0.032951
v -0.010707 0.247996 0.032951
v 0.010707 0.247996 0.032951
v -0.010707 0.218820 0.032951
v -0.028030 0.218820 0.020365
v -0.028030 0.247996 0.020365
v -0.010707 0.247996 0.032951
v -0.028030 0.218820 0.020365
v -0.034647 0.218820 0.000000
v -0.034647 0.247996 0.000000
v -0.028030 0.247996 0.020365
v -0.034647 0.218820 0.000000
v -0.028030 0.218820 -0.020365
v -0.028030 0.247996 -0.020365
v -0.034647 0.247996 0.000000
v -0.028030 0.218820 -0.020365
v -0.010707 0.218820 -0.032951
v -0.010707 0.247996 -0.032951
v -0.028030 0.247996 -0.020365
v -0.010707 0.218820 -0.032951
v 0.010707 0.218820 -0.032951
v 0.010707 0.247996 -0.032951
v -0.010707 0.247996 -0.032951
v 0.010707 0.218820 -0.032951
v 0.028030 0.218820 -0.020365
v 0.028030 0.247996 -0.020365
v 0.010707 0.247996 -0.032951
v 0.028030 0.218820 -0.020365
v 0.034647 0.218820 0.000000
v 0.034647 0.247996 0.000000
v 0.028030 0.247996 -0.020365
v 0.000000 0.218820 0.000000
v 0.028030 0.218820 0.020365
v 0.034647 0.218820 0.000000
v 0.000000 0.247996 0.000000
v 0.034647 0.247996 0.000000
v 0.028030 0.247996 0.020365
v 0.000000 0.218820 0.000000
v 0.010707 0.218820 0.032951
v 0.028030 0.218820 0.020365
v 0.000000 0.247996 0.000000
v 0.028030 0.247996 0.020365
v 0.010707 0.247996 0.032951
v 0.000000 0.218820 0.000000
v -0.010707 0.218820 0.032951
v 0.010707 0.218820 0.032951
v 0.000000 0.247996 0.000000
v 0.010707 0.247996 0.032951
v -0.010707 0.247996 0.032951
v 0.000000 0.218820 0.000000
v -0.028030 0.218820 0.020365
v -0.010707 0.218820 0.032951
v 0.000000 0.247996 0.000000
v -0.010707 0.247996 0.032951
v -0.028030 0.247996 0.020365
v 0.000000 0.218820 0.000000
v -0.034647 0.218820 0.000000
v -0.028030 0.218820 0.020365
v 0.000000 0.247996 0.000000
v -0.028030 0.247996 0.020365
v -0.034647 0.247996 0.000000
v 0.000000 0.218820 0.000000
v -0.028030 0.218820 -0.020365
v -0.034647 0.218820 0.000000
v 0.000000 0.247996 0.000000
v -0.034647 0.247996 0.000000
v -0.028030 0.247996 -0.020365
v 0.000000 0.218820 0.000000
v -0.010707 0.218820 -0.032951
v -0.028030 0.218820 -0.020365
v 0.000000 0.247996 0.000000
v -0.028030 0.247996 -0.020365
v -0.010707 0.247996 -0.032951
v 0.000000 0.218820 0.000000
v 0.010707 0.218820 -0.032951
v -0.010707 0.218820 -0.032951
v 0.000000 0.247996 0.000000
v -0.010707 0.247996 -0.032951
v 0.010707 0.247996 -0.032951
v 0.000000 0.218820 0.000000
v 0.028030 0.218820 -0.020365
v 0.010707 0.218820 -0.032951
v 0.000000 0.247996 0.000000
v 0.010707 0.247996 -0.032951
v 0.028030 0.247996 -0.020365
v 0.000000 0.218820 0.000000
v 0.034647 0.218820 0.000000
v 0.028030 0.218820 -0.020365
v 0.000000 0.247996 0.000000
v 0.028030 0.247996 -0.020365
v 0.034647 0.247996 0.000000
v -0.153174 0.110504 -0.020059
v -0.151712 0.108033 -0.024978
v -0.016773 0.108033 0.015139
v -0.018235 0.110504 0.020059
v -0.151712 0.108033 -0.024978
v -0.151350 0.102479 -0.026193
v -0.016411 0.102479 0.013924
v -0.016773 0.108033 0.015139
v -0.151350 0.102479 -0.026193
v -0.152362 0.098025 -0.022789
v -0.017423 0.098025 0.017328
v -0.016411 0.102479 0.013924
v -0.152362 0.098025 -0.022789
v -0.153986 0.098025 -0.017328
v -0.019047 0.098025 0.022789
v -0.017423 0.098025 0.017328
v -0.153986 0.098025 -0.017328
v -0.154998 0.102479 -0.013924
v -0.020059 0.102479 0.026193
v -0.019047 0.098025 0.022789
v -0.154998 0.102479 -0.013924
v -0.154637 0.108033 -0.015139
v -0.019697 0.108033 0.024978
v -0.020059 0.102479 0.026193
v -0.154637 0.108033 -0.015139
v -0.153174 0.110504 -0.020059
v -0.018235 0.110504 0.020059
v -0.019697 0.108033 0.024978
v -0.153174 0.103940 -0.020059
v -0.151712 0.108033 -0.024978
v -0.153174 0.110504 -0.020059
v -0.018235 0.103940 0.020059
v -0.018235 0.110504 0.020059
v -0.016773 0.108033 0.015139
v -0.153174 0.103940 -0.020059
v -0.151350 0.102479 -0.026193
v -0.151712 0.108033 -0.024978
v -0.018235 0.103940 0.020059
v -0.016773 0.108033 0.015139
v -0.016411 0.102479 0.013924
v -0.153174 0.103940 -0.020059
v -0.152362 0.098025 -0.022789
v -0.151350 0.102479 -0.026193
v -0.018235 0.103940 0.020059
v -0.016411 0.102479 0.013924
v -0.017423 0.098025 0.017328
v -0.153174 0.103940 -0.020059
v -0.153986 0.098025 -0.017328
v -0.152362 0.098025 -0.022789
v -0.018235 0.103940 0.020059
v -0.017423 0.098025 0.017328
v -0.019047 0.098025 0.022789
v -0.153174 0.103940 -0.020059
v -0.154998 0.102479 -0.013924
v -0.153986 0.098025 -0.017328
v -0.018235 0.103940 0.020059
v -0.019047 0.098025 0.022789
v -0.020059 0.102479 0.026193
v -0.153174 0.103940 -0.020059
v -0.154637 0.108033 -0.015139
v -0.154998 0.102479 -0.013924
v -0.018235 0.103940 0.020059
v -0.020059 0.102479 0.026193
v -0.019697 0.108033 0.024978
v -0.153174 0.103940 -0.020059
v -0.153174 0.110504 -0.020059
v -0.154637 0.108033 -0.015139
v -0.018235 0.103940 0.020059
v -0.019697 0.108033 0.024978
v -0.018235 0.110504 0.020059
v 0.153174 0.097375 -0.020059
v 0.151712 0.099847 -0.024978
v 0.016773 0.099847 0.015139
v 0.018235 0.097375 0.020059
v 0.151712 0.099847 -0.024978
v 0.151350 0.105400 -0.026193
v 0.016411 0.105400 0.013924
v 0.016773 0.099847 0.015139
v 0.151350 0.105400 -0.026193
v 0.152362 0.109854 -0.022789
v 0.017423 0.109854 0.017328
v 0.016411 0.105400 0.013924
v 0.152362 0.109854 -0.022789
v 0.153986 0.109854 -0.017328
v 0.019047 0.109854 0.022789
v 0.017423 0.109854 0.017328
v 0.153986 0.109854 -0.017328
v 0.154998 0.105400 -0.013924
v 0.020059 0.105400 0.026193
v 0.019047 0.109854 0.022789
v 0.154998 0.105400 -0.013924
v 0.154637 0.099847 -0.015139
v 0.019697 0.099847 0.024978
v 0.020059 0.105400 0.026193
v 0.154637 0.099847 -0.015139
v 0.153174 0.097375 -0.020059
v 0.018235 0.097375 0.020059
v 0.019697 0.099847 0.024978
v 0.153174 0.103940 -0.020059
v 0.151712 0.099847 -0.024978
v 0.153174 0.097375 -0.020059
v 0.018235 0.103940 0.020059
v 0.018235 0.097375 0.020059
v 0.016773 0.099847 0.015139
v 0.153174 0.103940 -0.020059
v 0.151350 0.105400 -0.026193
v 0.151712 0.099847 -0.024978
v 0.018235 0.103940 0.020059
v 0.016773 0.099847 0.015139
v 0.016411 0.105400 0.013924
v 0.153174 0.103940 -0.020059
v 0.152362 0.109854 -0.022789
v 0.151350 0.105400 -0.026193
v 0.018235 0.103940 0.020059
v 0.016411 0.105400 0.013924
v 0.017423 0.109854 0.017328
v 0.153174 0.103940 -0.020059
v 0.153986 0.109854 -0.017328
v 0.152362 0.109854 -0.022789
v 0.018235 0.103940 0.020059
v 0.017423 0.109854 0.017328
v 0.019047 0.109854 0.022789
v 0.153174 0.103940 -0.020059
v 0.154998 0.105400 -0.013924
v 0.153986 0.109854 -0.017328
v 0.018235 0.103940 0.020059
v 0.019047 0.109854 0.022789
v 0.020059 0.105400 0.026193
v 0.153174 0.103940 -0.020059
v 0.154637 0.099847 -0.015139
v 0.154998 0.105400 -0.013924
v 0.018235 0.103940 0.020059
v 0.020059 0.105400 0.026193
v 0.019697 0.099847 0.024978
v 0.153174 0.103940 -0.020059
v 0.153174 0.097375 -0.020059
v 0.154637 0.099847 -0.015139
v 0.018235 0.103940 0.020059
v 0.019697 0.099847 0.024978
v 0.018235 0.097375 0.020059
v 0.041941 0.222467 0.000000
v 0.037787 0.204270 0.000000
v 0.034501 0.205852 0.003647
v 0.038294 0.222467 0.003647
v 0.038294 0.222467 0.003647
v 0.034501 0.205852 0.003647
v 0.031215 0.207435 0.000000
v 0.034647 0.222467 0.000000
v 0.034647 0.222467 0.000000
v 0.031215 0.207435 0.000000
v 0.034501 0.205852 -0.003647
v 0.038294 0.222467 -0.003647
v 0.038294 0.222467 -0.003647
v 0.034501 0.205852 -0.003647
v 0.037787 0.204270 0.000000
v 0.041941 0.222467 0.000000
v 0.037787 0.204270 0.000000
v 0.026149 0.189677 0.000000
v 0.023875 0.192528 0.003647
v 0.034501 0.205852 0.003647
v 0.034501 0.205852 0.003647
v 0.023875 0.192528 0.003647
v 0.021602 0.195379 0.000000
v 0.031215 0.207435 0.000000
v 0.031215 0.207435 0.000000
v 0.021602 0.195379 0.000000
v 0.023875 0.192528 -0.003647
v 0.034501 0.205852 -0.003647
v 0.034501 0.205852 -0.003647
v 0.023875 0.192528 -0.003647
v 0.026149 0.189677 0.000000
v 0.037787 0.204270 0.000000
v 0.026149 0.189677 0.000000
v 0.009333 0.181578 0.000000
v 0.008521 0.185134 0.003647
v 0.023875 0.192528 0.003647
v 0.023875 0.192528 0.003647
v 0.008521 0.185134 0.003647
v 0.007709 0.188689 0.000000
v 0.021602 0.195379 0.000000
v 0.021602 0.195379 0.000000
v 0.007709 0.188689 0.000000
v 0.008521 0.185134 -0.003647
v 0.023875 0.192528 -0.003647
v 0.023875 0.192528 -0.003647
v 0.008521 0.185134 -0.003647
v 0.009333 0.181578 0.000000
v 0.026149 0.189677 0.000000
v 0.009333 0.181578 0.000000
v -0.009333 0.181578 0.000000
v -0.008521 0.185134 0.003647
v 0.008521 0.185134 0.003647
v 0.008521 0.185134 0.003647
v -0.008521 0.185134 0.003647
v -0.007709 0.188689 0.000000
v 0.007709 0.188689 0.000000
v 0.007709 0.188689 0.000000
v -0.007709 0.188689 0.000000
v -0.008521 0.185134 -0.003647
v 0.008521 0.185134 -0.003647
v 0.008521 0.185134 -0.003647
v -0.008521 0.185134 -0.003647
v -0.009333 0.181578 0.000000
v 0.009333 0.181578 0.000000
v -0.009333 0.181578 0.000000
v -0.026149 0.189677 0.000000
v -0.023875 0.192528 0.003647
v -0.008521 0.185134 0.003647
v -0.008521 0.185134 0.003647
v -0.023875 0.192528 0.003647
v -0.021602 0.195379 0.000000
v -0.007709 0.188689 0.000000
v -0.007709 0.188689 0.000000
v -0.021602 0.195379 0.000000
v -0.023875 0.192528 -0.003647
v -0.008521 0.185134 -0.003647
v -0.008521 0.185134 -0.003647
v -0.023875 0.192528 -0.003647
v -0.026149 0.189677 0.000000
v -0.009333 0.181578 0.000000
v -0.026149 0.189677 0.000000
v -0.037787 0.204270 0.000000
v -0.034501 0.205852 0.003647
v -0.023875 0.192528 0.003647
v -0.023875 0.192528 0.003647
v -0.034501 0.205852 0.003647
v -0.031215 0.207435 0.000000
v -0.021602 0.195379 0.000000
v -0.021602 0.195379 0.000000
v -0.031215 0.207435 0.000000
v -0.034501 0.205852 -0.003647
v -0.023875 0.192528 -0.003647
v -0.023875 0.192528 -0.003647
v -0.034501 0.205852 -0.003647
v -0.037787 0.204270 0.000000
v -0.026149 0.189677 0.000000
v -0.037787 0.204270 0.000000
v -0.041941 0.222467 0.000000
v -0.038294 0.222467 0.003647
v -0.034501 0.205852 0.003647
v -0.034501 0.205852 0.003647
v -0.038294 0.222467 0.003647
v -0.034647 0.222467 0.000000
v -0.031215 0.207435 0.000000
v -0.031215 0.207435 0.000000
v -0.034647 0.222467 0.000000
v -0.038294 0.222467 -0.003647
v -0.034501 0.205852 -0.003647
v -0.034501 0.205852 -0.003647
v -0.038294 0.222467 -0.003647
v -0.041941 0.222467 0.000000
v -0.037787 0.204270 0.000000
v -0.041941 0.222467 0.000000
v -0.037787 0.240665 -0.000000
v -0.034501 0.239082 0.003647
v -0.038294 0.222467 0.003647
v -0.038294 0.222467 0.003647
v -0.034501 0.239082 0.003647
v -0.031215 0.237500 -0.000000
v -0.034647 0.222467 0.000000
v -0.034647 0.222467 0.000000
v -0.031215 0.237500 -0.000000
v -0.034501 0.239082 -0.003647
v -0.038294 0.222467 -0.003647
v -0.038294 0.222467 -0.003647
v -0.034501 0.239082 -0.003647
v -0.037787 0.240665 -0.000000
v -0.041941 0.222467 0.000000
v -0.037787 0.240665 -0.000000
v -0.026149 0.255258 -0.000000
v -0.023875 0.252406 0.003647
v -0.034501 0.239082 0.003647
v -0.034501 0.239082 0.003647
v -0.023875 0.252406 0.003647
v -0.021602 0.249555 -0.000000
v -0.031215 0.237500 -0.000000
v -0.031215 0.237500 -0.000000
v -0.021602 0.249555 -0.000000
v -0.023875 0.252406 -0.003647
v -0.034501 0.239082 -0.003647
v -0.034501 0.239082 -0.003647
v -0.023875 0.252406 -0.003647
v -0.026149 0.255258 -0.000000
v -0.037787 0.240665 -0.000000
v -0.026149 0.255258 -0.000000
v -0.009333 0.263356 -0.000000
v -0.008521 0.259800 0.003647
v -0.023875 0.252406 0.003647
v -0.023875 0.252406 0.003647
v -0.008521 0.259800 0.003647
v -0.007709 0.256245 -0.000000
v -0.021602 0.249555 -0.000000
v -0.021602 0.249555 -0.000000
v -0.007709 0.256245 -0.000000
v -0.008521 0.259800 -0.003647
v -0.023875 0.252406 -0.003647
v -0.023875 0.252406 -0.003647
v -0.008521 0.259800 -0.003647
v -0.009333 0.263356 -0.000000
v -0.026149 0.255258 -0.000000
v -0.009333 0.263356 -0.000000
v 0.009333 0.263356 -0.000000
v 0.008521 0.259800 0.003647
v -0.008521 0.259800 0.003647
v -0.008521 0.259800 0.003647
v 0.008521 0.259800 0.003647
v 0.007709 0.256245 -0.000000
v -0.007709 0.256245 -0.000000
v -0.007709 0.256245 -0.000000
v 0.007709 0.256245 -0.000000
v 0.008521 0.259800 -0.003647
v -0.008521 0.259800 -0.003647
v -0.008521 0.259800 -0.003647
v 0.008521 0.259800 -0.003647
v 0.009333 0.263356 -0.000000
v -0.009333 0.263356 -0.000000
v 0.009333 0.263356 -0.000000
v 0.026149 0.255258 -0.000000
v 0.023875 0.252406 0.003647
v 0.008521 0.259800 0.003647
v 0.008521 0.259800 0.003647
v 0.023875 0.252406 0.003647
v 0.021602 0.249555 -0.000000
v 0.007709 0.256245 -0.000000
v 0.007709 0.256245 -0.000000
v 0.021602 0.249555 -0.000000
v 0.023875 0.252406 -0.003647
v 0.008521 0.259800 -0.003647
v 0.008521 0.259800 -0.003647
v 0.023875 0.252406 -0.003647
v 0.026149 0.255258 -0.000000
v 0.009333 0.263356 -0.000000
v 0.026149 0.255258 -0.000000
v 0.037787 0.240665 -0.000000
v 0.034501 0.239082 0.003647
v 0.023875 0.252406 0.003647
v 0.023875 0.252406 0.003647
v 0.034501 0.239082 0.003647
v 0.031215 0.237500 -0.000000
v 0.021602 0.249555 -0.000000
v 0.021602 0.249555 -0.000000
v 0.031215 0.237500 -0.000000
v 0.034501 0.239082 -0.003647
v 0.023875 0.252406 -0.003647
v 0.023875 0.252406 -0.003647
v 0.034501 0.239082 -0.003647
v 0.037787 0.240665 -0.000000
v 0.026149 0.255258 -0.000000
v 0.037787 0.240665 -0.000000
v 0.041941 0.222467 0.000000
v 0.038294 0.222467 0.003647
v 0.034501 0.239082 0.003647
v 0.034501 0.239082 0.003647
v 0.038294 0.222467 0.003647
v 0.034647 0.222467 0.000000
v 0.031215 0.237500 -0.000000
v 0.031215 0.237500 -0.000000
v 0.034647 0.222467 0.000000
v 0.038294 0.222467 -0.003647
v 0.034501 0.239082 -0.003647
v 0.034501 0.239082 -0.003647
v 0.038294 0.222467 -0.003647
v 0.041941 0.222467 0.000000
v 0.037787 0.240665 -0.000000
v 0.090186 0.198834 -0.023318
v 0.088062 0.200476 -0.025452
v 0.020032 0.187309 0.032125
v 0.022156 0.185667 0.034259
v 0.088062 0.200476 -0.025452
v 0.088108 0.203807 -0.024637
v 0.020077 0.190640 0.032940
v 0.020032 0.187309 0.032125
v 0.088108 0.203807 -0.024637
v 0.090260 0.204224 -0.021999
v 0.022229 0.191057 0.035578
v 0.020077 0.190640 0.032940
v 0.090260 0.204224 -0.021999
v 0.091545 0.201150 -0.021184
v 0.023514 0.187983 0.036393
v 0.022229 0.191057 0.035578
v 0.091545 0.201150 -0.021184
v 0.090186 0.198834 -0.023318
v 0.022156 0.185667 0.034259
v 0.023514 0.187983 0.036393
v 0.089632 0.201698 -0.023318
v 0.088062 0.200476 -0.025452
v 0.090186 0.198834 -0.023318
v 0.021602 0.188531 0.034259
v 0.022156 0.185667 0.034259
v 0.020032 0.187309 0.032125
v 0.089632 0.201698 -0.023318
v 0.088108 0.203807 -0.024637
v 0.088062 0.200476 -0.025452
v 0.021602 0.188531 0.034259
v 0.020032 0.187309 0.032125
v 0.020077 0.190640 0.032940
v 0.089632 0.201698 -0.023318
v 0.090260 0.204224 -0.021999
v 0.088108 0.203807 -0.024637
v 0.021602 0.188531 0.034259
v 0.020077 0.190640 0.032940
v 0.022229 0.191057 0.035578
v 0.089632 0.201698 -0.023318
v 0.091545 0.201150 -0.021184
v 0.090260 0.204224 -0.021999
v 0.021602 0.188531 0.034259
v 0.022229 0.191057 0.035578
v 0.023514 0.187983 0.036393
v 0.089632 0.201698 -0.023318
v 0.090186 0.198834 -0.023318
v 0.091545 0.201150 -0.021184
v 0.021602 0.188531 0.034259
v 0.023514 0.187983 0.036393
v 0.022156 0.185667 0.034259
v -0.068711 0.064792 -0.089080
v -0.026320 0.070749 -0.079981
v -0.031903 0.110476 -0.079981
v -0.074294 0.104518 -0.089080
v -0.027822 0.070538 -0.072847
v -0.070213 0.064580 -0.081946
v -0.075796 0.104307 -0.081946
v -0.033405 0.110265 -0.072847
v -0.070213 0.064580 -0.081946
v -0.068711 0.064792 -0.089080
v -0.074294 0.104518 -0.089080
v -0.075796 0.104307 -0.081946
v -0.026320 0.070749 -0.079981
v -0.027822 0.070538 -0.072847
v -0.033405 0.110265 -0.072847
v -0.031903 0.110476 -0.079981
v -0.074294 0.104518 -0.089080
v -0.031903 0.110476 -0.079981
v -0.033405 0.110265 -0.072847
v -0.075796 0.104307 -0.081946
v -0.070213 0.064580 -0.081946
v -0.027822 0.070538 -0.072847
v -0.026320 0.070749 -0.079981
v -0.068711 0.064792 -0.089080
v 0.006615 0.137120 0.071420
v 0.061807 0.131319 0.053388
v 0.063523 0.147641 0.053388
v 0.008331 0.153442 0.071420
v 0.064609 0.131024 0.062060
v 0.009417 0.136825 0.080092
v 0.011133 0.153147 0.080092
v 0.066325 0.147346 0.062060
v 0.009417 0.136825 0.080092
v 0.006615 0.137120 0.071420
v 0.008331 0.153442 0.071420
v 0.011133 0.153147 0.080092
v 0.061807 0.131319 0.053388
v 0.064609 0.131024 0.062060
v 0.066325 0.147346 0.062060
v 0.063523 0.147641 0.053388
v 0.008331 0.153442 0.071420
v 0.063523 0.147641 0.053388
v 0.066325 0.147346 0.062060
v 0.011133 0.153147 0.080092
v 0.009417 0.136825 0.080092
v 0.064609 0.131024 0.062060
v 0.061807 0.131319 0.053388
v 0.006615 0.137120 0.071420
vt 0.000000 0.000000
vt 1.000000 0.000000
vt 1.000000 1.000000
vt 0.000000 1.000000
vt 0.000000 0.000000
vt 1.000000 0.000000
vt 1.000000 1.000000
vt 0.000000 1.000000
vt 0.000000 0.000000
vt 1.000000 0.000000
vt 1.000000 1.000000
vt 0.000000 1.000000
vt 0.000000 0.000000
vt 1.000000 0.000000
vt 1.000000 1.000000
vt 0.000000 1.000000
vt 0.000000 0.000000
vt 1.000000 0.000000
vt 1.000000 1.000000
vt 0.000000 1.000000
vt 0.000000 0.000000
vt 1.000000 0.000000
vt 1.000000 1.000000
vt 0.000000 1.000000
vt 0.000000 0.000000
vt 1.000000 0.000000
vt 1.000000 1.000000
vt 0.000000 1.000000
vt 0.000000 0.000000
vt 1.000000 0.000000
vt 1.000000 1.000000
vt 0.000000 1.000000
vt 0.000000 0.000000
vt 1.000000 0.000000
vt 1.000000 1.000000
vt 0.000000 1.000000
vt 0.000000 0.000000
vt 1.000000 0.000000
vt 1.000000 1.000000
vt 0.000000 1.000000
vt 0.000000 0.000000
vt 1.000000 0.000000
vt 1.000000 1.000000
vt 0.000000 1.000000
vt 0.000000 0.000000
vt 1.000000 0.000000
vt 1.000000 1.000000
vt 0.000000 1.000000
vt 0.500000 0.500000
vt 0.000000 0.000000
vt 1.000000 0.000000
vt 0.500000 0.500000
vt 0.000000 1.000000
vt 1.000000 1.000000
vt 0.500000 0.500000
vt 0.000000 0.000000
vt 1.000000 0.000000
vt 0.500000 0.500000
vt 0.000000 1.000000
vt 1.000000 1.000000
vt 0.500000 0.500000
vt 0.000000 0.000000
vt 1.000000 0.000000
vt 0.500000 0.500000
vt 0.000000 1.000000
vt 1.000000 1.000000
vt 0.500000 0.500000
vt 0.000000 0.000000
vt 1.000000 0.000000
vt 0.500000 0.500000
vt 0.000000 1.000000
vt 1.000000 1.000000
vt 0.500000 0.500000
vt 0.000000 0.000000
vt 1.000000 0.000000
vt 0.500000 0.500000
vt 0.000000 1.000000
vt 1.000000 1.000000
vt 0.500000 0.500000
vt 0.000000 0.000000
vt 1.000000 0.000000
vt 0.500000 0.500000
vt 0.000000 1.000000
vt 1.000000 1.000000
vt 0.500000 0.500000
vt 0.000000 0.000000
vt 1.000000 0.000000
vt 0.500000 0.500000
vt 0.000000 1.000000
vt 1.000000 1.000000
vt 0.500000 0.500000
vt 0.000000 0.000000
vt 1.000000 0.000000
vt 0.500000 0.500000
vt 0.000000 1.000000
vt 1.000000 1.000000
vt 0.500000 0.500000
vt 0.000000 0.000000
vt 1.000000 0.000000
vt 0.500000 0.500000
vt 0.000000 1.000000
vt 1.000000 1.000000
vt 0.500000 0.500000
vt 0.000000 0.000000
vt 1.000000 0.000000
vt 0.500000 0.500000
vt 0.000000 1.000000
vt 1.000000 1.000000
vt 0.500000 0.500000
vt 0.000000 0.000000
vt 1.000000 0.000000
vt 0.500000 0.500000
vt 0.000000 1.000000
vt 1.000000 1.000000
vt 0.500000 0.500000
vt 0.000000 0.000000
vt 1.000000 0.000000
vt 0.500000 0.500000
vt 0.000000 1.000000
vt 1.000000 1.000000
vt 0.000000 0.000000
vt 1.000000 0.000000
vt 1.000000 1.000000
vt 0.000000 1.000000
vt 0.000000 0.000000
vt 1.000000 0.000000
vt 1.000000 1.000000
vt 0.000000 1.000000
vt 0.000000 0.000000
vt 1.000000 0.000000
vt 1.000000 1.000000
vt 0.000000 1.000000
vt 0.000000 0.000000
vt 1.000000 0.000000
vt 1.000000 1.000000
vt 0.000000 1.000000
vt 0.000000 0.000000
vt 1.000000 0.000000
vt 1.000000 1.000000
vt 0.000000 1.000000
vt 0.000000 0.000000
vt 1.000000 0.000000
vt 1.000000 1.000000
vt 0.000000 1.000000
vt 0.000000 0.000000
vt 1.000000 0.000000
vt 1.000000 1.000000
vt 0.000000 1.000000
vt 0.000000 0.000000
vt 1.000000 0.000000
vt 1.000000 1.000000
vt 0.000000 1.000000
vt 0.000000 0.000000
vt 1.000000 0.000000
vt 1.000000 1.000000
vt 0.000000 1.000000
vt 0.000000 0.000000
vt 1.000000 0.000000
vt 1.000000 1.000000
vt 0.000000 1.000000
vt 0.000000 0.000000
vt 1.000000 0.000000
vt 1.000000 1.000000
vt 0.000000 1.000000
vt 0.000000 0.000000
vt 1.000000 0.000000
vt 1.000000 1.000000
vt 0.000000 1.000000
vt 0.000000 0.000000
vt 1.000000 0.000000
vt 1.000000 1.000000
vt 0.000000 1.000000
vt 0.000000 0.000000
vt 1.000000 0.000000
vt 1.000000 1.000000
vt 0.000000 1.000000
vt 0.000000 0.000000
vt 1.000000 0.000000
vt 1.000000 1.000000
vt 0.000000 1.000000
vt 0.000000 0.000000
vt 1.000000 0.000000
vt 1.000000 1.000000
vt 0.000000 1.000000
vt 0.500000 0.500000
vt 0.000000 0.000000
vt 1.000000 0.000000
vt 0.500000 0.500000
vt 0.000000 1.000000
vt 1.000000 1.000000
vt 0.500000 0.500000
vt 0.000000 0.000000
vt 1.000000 0.000000
vt 0.500000 0.500000
vt 0.000000 1.000000
vt 1.000000 1.000000
vt 0.500000 0.500000
vt 0.000000 0.000000
vt 1.000000 0.000000
vt 0.500000 0.500000
vt 0.000000 1.000000
vt 1.000000 1.000000
vt 0.500000 0.500000
vt 0.000000 0.000000
vt 1.000000 0.000000
vt 0.500000 0.500000
vt 0.000000 1.000000
vt 1.000000 1.000000
vt 0.500000 0.500000
vt 0.000000 0.000000
vt 1.000000 0.000000
vt 0.500000 0.500000
vt 0.000000 1.000000
vt 1.000000 1.000000
vt 0.500000 0.500000
vt 0.000000 0.000000
vt 1.000000 0.000000
vt 0.500000 0.500000
vt 0.000000 1.000000
vt 1.000000 1.000000
vt 0.500000 0.500000
vt 0.000000 0.000000
vt 1.000000 0.000000
vt 0.500000 0.500000
vt 0.000000 1.000000
vt 1.000000 1.000000
vt 0.500000 0.500000
vt 0.000000 0.000000
vt 1.000000 0.000000
vt 0.500000 0.500000
vt 0.000000 1.000000
vt 1.000000 1.000000
vt 0.500000 0.500000
vt 0.000000 0.000000
vt 1.000000 0.000000
vt 0.500000 0.500000
vt 0.000000 1.000000
vt 1.000000 1.000000
vt 0.500000 0.500000
vt 0.000000 0.000000
vt 1.000000 0.000000
vt 0.500000 0.500000
vt 0.000000 1.000000
vt 1.000000 1.000000
vt 0.000000 0.000000
vt 1.000000 0.000000
vt 1.000000 1.000000
vt 0.000000 1.000000
vt 0.000000 0.000000
vt 1.000000 0.000000
vt 1.000000 1.000000
vt 0.000000 1.000000
vt 0.000000 0.000000
vt 1.000000 0.000000
vt 1.000000 1.000000
vt 0.000000 1.000000
vt 0.000000 0.000000
vt 1.000000 0.000000
vt 1.000000 1.000000
vt 0.000000 1.000000
vt 0.000000 0.000000
vt 1.000000 0.000000
vt 1.000000 1.000000
vt 0.000000 1.000000
vt 0.000000 0.000000
vt 1.000000 0.000000
vt 1.000000 1.000000
vt 0.000000 1.000000
vt 0.000000 0.000000
vt 1.000000 0.000000
vt 1.000000 1.000000
vt 0.000000 1.000000
vt 0.000000 0.000000
vt 1.000000 0.000000
vt 1.000000 1.000000
vt 0.000000 1.000000
vt 0.000000 0.000000
vt 1.000000 0.000000
vt 1.000000 1.000000
vt 0.000000 1.000000
vt 0.000000 0.000000
vt 1.000000 0.000000
vt 1.000000 1.000000
vt 0.000000 1.000000
vt 0.500000 0.500000
vt 0.000000 0.000000
vt 1.000000 0.000000
vt 0.500000 0.500000
vt 0.000000 1.000000
vt 1.000000 1.000000
vt 0.500000 0.500000
vt 0.000000 0.000000
vt 1.000000 0.000000
vt 0.500000 0.500000
vt 0.000000 1.000000
vt 1.000000 1.000000
vt 0.500000 0.500000
vt 0.000000 0.000000
vt 1.000000 0.000000
vt 0.500000 0.500000
vt 0.000000 1.000000
vt 1.000000 1.000000
vt 0.500000 0.500000
vt 0.000000 0.000000
vt 1.000000 0.000000
vt 0.500000 0.500000
vt 0.000000 1.000000
vt 1.000000 1.000000
vt 0.500000 0.500000
vt 0.000000 0.000000
vt 1.000000 0.000000
vt 0.500000 0.500000
vt 0.000000 1.000000
vt 1.000000 1.000000
vt 0.500000 0.500000
vt 0.000000 0.000000
vt 1.000000 0.000000
vt 0.500000 0.500000
vt 0.000000 1.000000
vt 1.000000 1.000000
vt 0.500000 0.500000
vt 0.000000 0.000000
vt 1.000000 0.000000
vt 0.500000 0.500000
vt 0.000000 1.000000
vt 1.000000 1.000000
vt 0.500000 0.500000
vt 0.000000 0.000000
vt 1.000000 0.000000
vt 0.500000 0.500000
vt 0.000000 1.000000
vt 1.000000 1.000000
vt 0.500000 0.500000
vt 0.000000 0.000000
vt 1.000000 0.000000
vt 0.500000 0.500000
vt 0.000000 1.000000
vt 1.000000 1.000000
vt 0.500000 0.500000
vt 0.000000 0.000000
vt 1.000000 0.000000
vt 0.500000 0.500000
vt 0.000000 1.000000
vt 1.000000 1.000000
vt 0.000000 0.000000
vt 1.000000 0.000000
vt 1.000000 1.000000
vt 0.000000 1.000000
vt 0.000000 0.000000
vt 1.000000 0.000000
vt 1.000000 1.000000
vt 0.000000 1.000000
vt 0.000000 0.000000
vt 1.000000 0.000000
vt 1.000000 1.000000
vt 0.000000 1.000000
vt 0.000000 0.000000
vt 1.000000 0.000000
vt 1.000000 1.000000
vt 0.000000 1.000000
vt 0.000000 0.000000
vt 1.000000 0.000000
vt 1.000000 1.000000
vt 0.000000 1.000000
vt 0.000000 0.000000
vt 1.000000 0.000000
vt 1.000000 1.000000
vt 0.000000 1.000000
vt 0.000000 0.000000
vt 1.000000 0.000000
vt 1.000000 1.000000
vt 0.000000 1.000000
vt 0.500000 0.500000
vt 0.000000 0.000000
vt 1.000000 0.000000
vt 0.500000 0.500000
vt 0.000000 1.000000
vt 1.000000 1.000000
vt 0.500000 0.500000
vt 0.000000 0.000000
vt 1.000000 0.000000
vt 0.500000 0.500000
vt 0.000000 1.000000
vt 1.000000 1.000000
vt 0.500000 0.500000
vt 0.000000 0.000000
vt 1.000000 0.000000
vt 0.500000 0.500000
vt 0.000000 1.000000
vt 1.000000 1.000000
vt 0.500000 0.500000
vt 0.000000 0.000000
vt 1.000000 0.000000
vt 0.500000 0.500000
vt 0.000000 1.000000
vt 1.000000 1.000000
vt 0.500000 0.500000
vt 0.000000 0.000000
vt 1.000000 0.000000
vt 0.500000 0.500000
vt 0.000000 1.000000
vt 1.000000 1.000000
vt 0.500000 0.500000
vt 0.000000 0.000000
vt 1.000000 0.000000
vt 0.500000 0.500000
vt 0.000000 1.000000
vt 1.000000 1.000000
vt 0.500000 0.500000
vt 0.000000 0.000000
vt 1.000000 0.000000
vt 0.500000 0.500000
vt 0.000000 1.000000
vt 1.000000 1.000000
vt 0.000000 0.000000
vt 1.000000 0.000000
vt 1.000000 1.000000
vt 0.000000 1.000000
vt 0.000000 0.000000
vt 1.000000 0.000000
vt 1.000000 1.000000
vt 0.000000 1.000000
vt 0.000000 0.000000
vt 1.000000 0.000000
vt 1.000000 1.000000
vt 0.000000 1.000000
vt 0.000000 0.000000
vt 1.000000 0.000000
vt 1.000000 1.000000
vt 0.000000 1.000000
vt 0.000000 0.000000
vt 1.000000 0.000000
vt 1.000000 1.000000
vt 0.000000 1.000000
vt 0.000000 0.000000
vt 1.000000 0.000000
vt 1.000000 1.000000
vt 0.000000 1.000000
vt 0.000000 0.000000
vt 1.000000 0.000000
vt 1.000000 1.000000
vt 0.000000 1.000000
vt 0.500000 0.500000
vt 0.000000 0.000000
vt 1.000000 0.000000
vt 0.500000 0.500000
vt 0.000000 1.000000
vt 1.000000 1.000000
vt 0.500000 0.500000
vt 0.000000 0.000000
vt 1.000000 0.000000
vt 0.500000 0.500000
vt 0.000000 1.000000
vt 1.000000 1.000000
vt 0.500000 0.500000
vt 0.000000 0.000000
vt 1.000000 0.000000
vt 0.500000 0.500000
vt 0.000000 1.000000
vt 1.000000 1.000000
vt 0.500000 0.500000
vt 0.000000 0.000000
vt 1.000000 0.000000
vt 0.500000 0.500000
vt 0.000000 1.000000
vt 1.000000 1.000000
vt 0.500000 0.500000
vt 0.000000 0.000000
vt 1.000000 0.000000
vt 0.500000 0.500000
vt 0.000000 1.000000
vt 1.000000 1.000000
vt 0.500000 0.500000
vt 0.000000 0.000000
vt 1.000000 0.000000
vt 0.500000 0.500000
vt 0.000000 1.000000
vt 1.000000 1.000000
vt 0.500000 0.500000
vt 0.000000 0.000000
vt 1.000000 0.000000
vt 0.500000 0.500000
vt 0.000000 1.000000
vt 1.000000 1.000000
vt 0.000000 0.000000
vt 1.000000 0.000000
vt 1.000000 1.000000
vt 0.000000 1.000000
vt 0.000000 0.000000
vt 1.000000 0.000000
vt 1.000000 1.000000
vt 0.000000 1.000000
vt 0.000000 0.000000
vt 1.000000 0.000000
vt 1.000000 1.000000
vt 0.000000 1.000000
vt 0.000000 0.000000
vt 1.000000 0.000000
vt 1.000000 1.000000
vt 0.000000 1.000000
vt 0.000000 0.000000
vt 1.000000 0.000000
vt 1.000000 1.000000
vt 0.000000 1.000000
vt 0.000000 0.000000
vt 1.000000 0.000000
vt 1.000000 1.000000
vt 0.000000 1.000000
vt 0.000000 0.000000
vt 1.000000 0.000000
vt 1.000000 1.000000
vt 0.000000 1.000000
vt 0.000000 0.000000
vt 1.000000 0.000000
vt 1.000000 1.000000
vt 0.000000 1.000000
vt 0.000000 0.000000
vt 1.000000 0.000000
vt 1.000000 1.000000
vt 0.000000 1.000000
vt 0.000000 0.000000
vt 1.000000 0.000000
vt 1.000000 1.000000
vt 0.000000 1.000000
vt 0.000000 0.000000
vt 1.000000 0.000000
vt 1.000000 1.000000
vt 0.000000 1.000000
vt 0.000000 0.000000
vt 1.000000 0.000000
vt 1.000000 1.000000
vt 0.000000 1.000000
vt 0.000000 0.000000
vt 1.000000 0.000000
vt 1.000000 1.000000
vt 0.000000 1.000000
vt 0.000000 0.000000
vt 1.000000 0.000000
vt 1.000000 1.000000
vt 0.000000 1.000000
vt 0.000000 0.000000
vt 1.000000 0.000000
vt 1.000000 1.000000
vt 0.000000 1.000000
vt 0.000000 0.000000
vt 1.000000 0.000000
vt 1.000000 1.000000
vt 0.000000 1.000000
vt 0.000000 0.000000
vt 1.000000 0.000000
vt 1.000000 1.000000
vt 0.000000 1.000000
vt 0.000000 0.000000
vt 1.000000 0.000000
vt 1.000000 1.000000
vt 0.000000 1.000000
vt 0.000000 0.000000
vt 1.000000 0.000000
vt 1.000000 1.000000
vt 0.000000 1.000000
vt 0.000000 0.000000
vt 1.000000 0.000000
vt 1.000000 1.000000
vt 0.000000 1.000000
vt 0.000000 0.000000
vt 1.000000 0.000000
vt 1.000000 1.000000
vt 0.000000 1.000000
vt 0.000000 0.000000
vt 1.000000 0.000000
vt 1.000000 1.000000
vt 0.000000 1.000000
vt 0.000000 0.000000
vt 1.000000 0.000000
vt 1.000000 1.000000
vt 0.000000 1.000000
vt 0.000000 0.000000
vt 1.000000 0.000000
vt 1.000000 1.000000
vt 0.000000 1.000000
vt 0.000000 0.000000
vt 1.000000 0.000000
vt 1.000000 1.000000
vt 0.000000 1.000000
vt 0.000000 0.000000
vt 1.000000 0.000000
vt 1.000000 1.000000
vt 0.000000 1.000000
vt 0.000000 0.000000
vt 1.000000 0.000000
vt 1.000000 1.000000
vt 0.000000 1.000000
vt 0.000000 0.000000
vt 1.000000 0.000000
vt 1.000000 1.000000
vt 0.000000 1.000000
vt 0.000000 0.000000
vt 1.000000 0.000000
vt 1.000000 1.000000
vt 0.000000 1.000000
vt 0.000000 0.000000
vt 1.000000 0.000000
vt 1.000000 1.000000
vt 0.000000 1.000000
vt 0.000000 0.000000
vt 1.000000 0.000000
vt 1.000000 1.000000
vt 0.000000 1.000000
vt 0.000000 0.000000
vt 1.000000 0.000000
vt 1.000000 1.000000
vt 0.000000 1.000000
vt 0.000000 0.000000
vt 1.000000 0.000000
vt 1.000000 1.000000
vt 0.000000 1.000000
vt 0.000000 0.000000
vt 1.000000 0.000000
vt 1.000000 1.000000
vt 0.000000 1.000000
vt 0.000000 0.000000
vt 1.000000 0.000000
vt 1.000000 1.000000
vt 0.000000 1.000000
vt 0.000000 0.000000
vt 1.000000 0.000000
vt 1.000000 1.000000
vt 0.000000 1.000000
vt 0.000000 0.000000
vt 1.000000 0.000000
vt 1.000000 1.000000
vt 0.000000 1.000000
vt 0.000000 0.000000
vt 1.000000 0.000000
vt 1.000000 1.000000
vt 0.000000 1.000000
vt 0.000000 0.000000
vt 1.000000 0.000000
vt 1.000000 1.000000
vt 0.000000 1.000000
vt 0.000000 0.000000
vt 1.000000 0.000000
vt 1.000000 1.000000
vt 0.000000 1.000000
vt 0.000000 0.000000
vt 1.000000 0.000000
vt 1.000000 1.000000
vt 0.000000 1.000000
vt 0.000000 0.000000
vt 1.000000 0.000000
vt 1.000000 1.000000
vt 0.000000 1.000000
vt 0.000000 0.000000
vt 1.000000 0.000000
vt 1.000000 1.000000
vt 0.000000 1.000000
vt 0.000000 0.000000
vt 1.000000 0.000000
vt 1.000000 1.000000
vt 0.000000 1.000000
vt 0.000000 0.000000
vt 1.000000 0.000000
vt 1.000000 1.000000
vt 0.000000 1.000000
vt 0.000000 0.000000
vt 1.000000 0.000000
vt 1.000000 1.000000
vt 0.000000 1.000000
vt 0.000000 0.000000
vt 1.000000 0.000000
vt 1.000000 1.000000
vt 0.000000 1.000000
vt 0.000000 0.000000
vt 1.000000 0.000000
vt 1.000000 1.000000
vt 0.000000 1.000000
vt 0.000000 0.000000
vt 1.000000 0.000000
vt 1.000000 1.000000
vt 0.000000 1.000000
vt 0.000000 0.000000
vt 1.000000 0.000000
vt 1.000000 1.000000
vt 0.000000 1.000000
vt 0.000000 0.000000
vt 1.000000 0.000000
vt 1.000000 1.000000
vt 0.000000 1.000000
vt 0.000000 0.000000
vt 1.000000 0.000000
vt 1.000000 1.000000
vt 0.000000 1.000000
vt 0.000000 0.000000
vt 1.000000 0.000000
vt 1.000000 1.000000
vt 0.000000 1.000000
vt 0.000000 0.000000
vt 1.000000 0.000000
vt 1.000000 1.000000
vt 0.000000 1.000000
vt 0.000000 0.000000
vt 1.000000 0.000000
vt 1.000000 1.000000
vt 0.000000 1.000000
vt 0.000000 0.000000
vt 1.000000 0.000000
vt 1.000000 1.000000
vt 0.000000 1.000000
vt 0.000000 0.000000
vt 1.000000 0.000000
vt 1.000000 1.000000
vt 0.000000 1.000000
vt 0.000000 0.000000
vt 1.000000 0.000000
vt 1.000000 1.000000
vt 0.000000 1.000000
vt 0.000000 0.000000
vt 1.000000 0.000000
vt 1.000000 1.000000
vt 0.000000 1.000000
vt 0.000000 0.000000
vt 1.000000 0.000000
vt 1.000000 1.000000
vt 0.000000 1.000000
vt 0.000000 0.000000
vt 1.000000 0.000000
vt 1.000000 1.000000
vt 0.000000 1.000000
vt 0.500000 0.500000
vt 0.000000 0.000000
vt 1.000000 0.000000
vt 0.500000 0.500000
vt 0.000000 1.000000
vt 1.000000 1.000000
vt 0.500000 0.500000
vt 0.000000 0.000000
vt 1.000000 0.000000
vt 0.500000 0.500000
vt 0.000000 1.000000
vt 1.000000 1.000000
vt 0.500000 0.500000
vt 0.000000 0.000000
vt 1.000000 0.000000
vt 0.500000 0.500000
vt 0.000000 1.000000
vt 1.000000 1.000000
vt 0.500000 0.500000
vt 0.000000 0.000000
vt 1.000000 0.000000
vt 0.500000 0.500000
vt 0.000000 1.000000
vt 1.000000 1.000000
vt 0.500000 0.500000
vt 0.000000 0.000000
vt 1.000000 0.000000
vt 0.500000 0.500000
vt 0.000000 1.000000
vt 1.000000 1.000000
vt 0.000000 0.000000
vt 1.000000 0.000000
vt 1.000000 1.000000
vt 0.000000 1.000000
vt 0.000000 0.000000
vt 1.000000 0.000000
vt 1.000000 1.000000
vt 0.000000 1.000000
vt 0.000000 0.000000
vt 1.000000 0.000000
vt 1.000000 1.000000
vt 0.000000 1.000000
vt 0.000000 0.000000
vt 1.000000 0.000000
vt 1.000000 1.000000
vt 0.000000 1.000000
vt 0.000000 0.000000
vt 1.000000 0.000000
vt 1.000000 1.000000
vt 0.000000 1.000000
vt 0.000000 0.000000
vt 1.000000 0.000000
vt 1.000000 1.000000
vt 0.000000 1.000000
vt 0.000000 0.000000
vt 1.000000 0.000000
vt 1.000000 1.000000
vt 0.000000 1.000000
vt 0.000000 0.000000
vt 1.000000 0.000000
vt 1.000000 1.000000
vt 0.000000 1.000000
vt 0.000000 0.000000
vt 1.000000 0.000000
vt 1.000000 1.000000
vt 0.000000 1.000000
vt 0.000000 0.000000
vt 1.000000 0.000000
vt 1.000000 1.000000
vt 0.000000 1.000000
vt 0.000000 0.000000
vt 1.000000 0.000000
vt 1.000000 1.000000
vt 0.000000 1.000000
vt 0.000000 0.000000
vt 1.000000 0.000000
vt 1.000000 1.000000
vt 0.000000 1.000000
usemtl Metal
f 1/1 2/2 3/3
f 1/1 3/3 4/4
f 5/5 6/6 7/7
f 5/5 7/7 8/8
f 9/9 10/10 11/11
f 9/9 11/11 12/12
f 13/13 14/14 15/15
f 13/13 15/15 16/16
f 17/17 18/18 19/19
f 17/17 19/19 20/20
f 21/21 22/22 23/23
f 21/21 23/23 24/24
f 25/25 26/26 27/27
f 25/25 27/27 28/28
f 29/29 30/30 31/31
f 29/29 31/31 32/32
f 33/33 34/34 35/35
f 33/33 35/35 36/36
f 37/37 38/38 39/39
f 37/37 39/39 40/40
f 41/41 42/42 43/43
f 41/41 43/43 44/44
f 45/45 46/46 47/47
f 45/45 47/47 48/48
f 49/49 50/50 51/51
f 52/52 53/53 54/54
f 55/55 56/56 57/57
f 58/58 59/59 60/60
f 61/61 62/62 63/63
f 64/64 65/65 66/66
f 67/67 68/68 69/69
f 70/70 71/71 72/72
f 73/73 74/74 75/75
f 76/76 77/77 78/78
f 79/79 80/80 81/81
f 82/82 83/83 84/84
f 85/85 86/86 87/87
f 88/88 89/89 90/90
f 91/91 92/92 93/93
f 94/94 95/95 96/96
f 97/97 98/98 99/99
f 100/100 101/101 102/102
f 103/103 104/104 105/105
f 106/106 107/107 108/108
f 109/109 110/110 111/111
f 112/112 113/113 114/114
f 115/115 116/116 117/117
f 118/118 119/119 120/120
usemtl Cloth
f 121/121 122/122 123/123
f 121/121 123/123 124/124
f 125/125 126/126 127/127
f 125/125 127/127 128/128
f 129/129 130/130 131/131
f 129/129 131/131 132/132
f 133/133 134/134 135/135
f 133/133 135/135 136/136
f 137/137 138/138 139/139
f 137/137 139/139 140/140
f 141/141 142/142 143/143
f 141/141 143/143 144/144
usemtl Metal
f 145/145 146/146 147/147
f 145/145 147/147 148/148
f 149/149 150/150 151/151
f 149/149 151/151 152/152
f 153/153 154/154 155/155
f 153/153 155/155 156/156
f 157/157 158/158 159/159
f 157/157 159/159 160/160
f 161/161 162/162 163/163
f 161/161 163/163 164/164
f 165/165 166/166 167/167
f 165/165 167/167 168/168
f 169/169 170/170 171/171
f 169/169 171/171 172/172
f 173/173 174/174 175/175
f 173/173 175/175 176/176
f 177/177 178/178 179/179
f 177/177 179/179 180/180
f 181/181 182/182 183/183
f 181/181 183/183 184/184
f 185/185 186/186 187/187
f 188/188 189/189 190/190
f 191/191 192/192 193/193
f 194/194 195/195 196/196
f 197/197 198/198 199/199
f 200/200 201/201 202/202
f 203/203 204/204 205/205
f 206/206 207/207 208/208
f 209/209 210/210 211/211
f 212/212 213/213 214/214
f 215/215 216/216 217/217
f 218/218 219/219 220/220
f 221/221 222/222 223/223
f 224/224 225/225 226/226
f 227/227 228/228 229/229
f 230/230 231/231 232/232
f 233/233 234/234 235/235
f 236/236 237/237 238/238
f 239/239 240/240 241/241
f 242/242 243/243 244/244
f 245/245 246/246 247/247
f 245/245 247/247 248/248
f 249/249 250/250 251/251
f 249/249 251/251 252/252
f 253/253 254/254 255/255
f 253/253 255/255 256/256
f 257/257 258/258 259/259
f 257/257 259/259 260/260
f 261/261 262/262 263/263
f 261/261 263/263 264/264
f 265/265 266/266 267/267
f 265/265 267/267 268/268
f 269/269 270/270 271/271
f 269/269 271/271 272/272
f 273/273 274/274 275/275
f 273/273 275/275 276/276
f 277/277 278/278 279/279
f 277/277 279/279 280/280
f 281/281 282/282 283/283
f 281/281 283/283 284/284
f 285/285 286/286 287/287
f 288/288 289/289 290/290
f 291/291 292/292 293/293
f 294/294 295/295 296/296
f 297/297 298/298 299/299
f 300/300 301/301 302/302
f 303/303 304/304 305/305
f 306/306 307/307 308/308
f 309/309 310/310 311/311
f 312/312 313/313 314/314
f 315/315 316/316 317/317
f 318/318 319/319 320/320
f 321/321 322/322 323/323
f 324/324 325/325 326/326
f 327/327 328/328 329/329
f 330/330 331/331 332/332
f 333/333 334/334 335/335
f 336/336 337/337 338/338
f 339/339 340/340 341/341
f 342/342 343/343 344/344
usemtl Rope
f 345/345 346/346 347/347
f 345/345 347/347 348/348
f 349/349 350/350 351/351
f 349/349 351/351 352/352
f 353/353 354/354 355/355
f 353/353 355/355 356/356
f 357/357 358/358 359/359
f 357/357 359/359 360/360
f 361/361 362/362 363/363
f 361/361 363/363 364/364
f 365/365 366/366 367/367
f 365/365 367/367 368/368
f 369/369 370/370 371/371
f 369/369 371/371 372/372
f 373/373 374/374 375/375
f 376/376 377/377 378/378
f 379/379 380/380 381/381
f 382/382 383/383 384/384
f 385/385 386/386 387/387
f 388/388 389/389 390/390
f 391/391 392/392 393/393
f 394/394 395/395 396/396
f 397/397 398/398 399/399
f 400/400 401/401 402/402
f 403/403 404/404 405/405
f 406/406 407/407 408/408
f 409/409 410/410 411/411
f 412/412 413/413 414/414
f 415/415 416/416 417/417
f 415/415 417/417 418/418
f 419/419 420/420 421/421
f 419/419 421/421 422/422
f 423/423 424/424 425/425
f 423/423 425/425 426/426
f 427/427 428/428 429/429
f 427/427 429/429 430/430
f 431/431 432/432 433/433
f 431/431 433/433 434/434
f 435/435 436/436 437/437
f 435/435 437/437 438/438
f 439/439 440/440 441/441
f 439/439 441/441 442/442
f 443/443 444/444 445/445
f 446/446 447/447 448/448
f 449/449 450/450 451/451
f 452/452 453/453 454/454
f 455/455 456/456 457/457
f 458/458 459/459 460/460
f 461/461 462/462 463/463
f 464/464 465/465 466/466
f 467/467 468/468 469/469
f 470/470 471/471 472/472
f 473/473 474/474 475/475
f 476/476 477/477 478/478
f 479/479 480/480 481/481
f 482/482 483/483 484/484
f 485/485 486/486 487/487
f 485/485 487/487 488/488
f 489/489 490/490 491/491
f 489/489 491/491 492/492
f 493/493 494/494 495/495
f 493/493 495/495 496/496
f 497/497 498/498 499/499
f 497/497 499/499 500/500
f 501/501 502/502 503/503
f 501/501 503/503 504/504
f 505/505 506/506 507/507
f 505/505 507/507 508/508
f 509/509 510/510 511/511
f 509/509 511/511 512/512
f 513/513 514/514 515/515
f 513/513 515/515 516/516
f 517/517 518/518 519/519
f 517/517 519/519 520/520
f 521/521 522/522 523/523
f 521/521 523/523 524/524
f 525/525 526/526 527/527
f 525/525 527/527 528/528
f 529/529 530/530 531/531
f 529/529 531/531 532/532
f 533/533 534/534 535/535
f 533/533 535/535 536/536
f 537/537 538/538 539/539
f 537/537 539/539 540/540
f 541/541 542/542 543/543
f 541/541 543/543 544/544
f 545/545 546/546 547/547
f 545/545 547/547 548/548
f 549/549 550/550 551/551
f 549/549 551/551 552/552
f 553/553 554/554 555/555
f 553/553 555/555 556/556
f 557/557 558/558 559/559
f 557/557 559/559 560/560
f 561/561 562/562 563/563
f 561/561 563/563 564/564
f 565/565 566/566 567/567
f 565/565 567/567 568/568
f 569/569 570/570 571/571
f 569/569 571/571 572/572
f 573/573 574/574 575/575
f 573/573 575/575 576/576
f 577/577 578/578 579/579
f 577/577 579/579 580/580
f 581/581 582/582 583/583
f 581/581 583/583 584/584
f 585/585 586/586 587/587
f 585/585 587/587 588/588
f 589/589 590/590 591/591
f 589/589 591/591 592/592
f 593/593 594/594 595/595
f 593/593 595/595 596/596
f 597/597 598/598 599/599
f 597/597 599/599 600/600
f 601/601 602/602 603/603
f 601/601 603/603 604/604
f 605/605 606/606 607/607
f 605/605 607/607 608/608
f 609/609 610/610 611/611
f 609/609 611/611 612/612
f 613/613 614/614 615/615
f 613/613 615/615 616/616
f 617/617 618/618 619/619
f 617/617 619/619 620/620
f 621/621 622/622 623/623
f 621/621 623/623 624/624
f 625/625 626/626 627/627
f 625/625 627/627 628/628
f 629/629 630/630 631/631
f 629/629 631/631 632/632
f 633/633 634/634 635/635
f 633/633 635/635 636/636
f 637/637 638/638 639/639
f 637/637 639/639 640/640
f 641/641 642/642 643/643
f 641/641 643/643 644/644
f 645/645 646/646 647/647
f 645/645 647/647 648/648
f 649/649 650/650 651/651
f 649/649 651/651 652/652
f 653/653 654/654 655/655
f 653/653 655/655 656/656
f 657/657 658/658 659/659
f 657/657 659/659 660/660
f 661/661 662/662 663/663
f 661/661 663/663 664/664
f 665/665 666/666 667/667
f 665/665 667/667 668/668
f 669/669 670/670 671/671
f 669/669 671/671 672/672
f 673/673 674/674 675/675
f 673/673 675/675 676/676
f 677/677 678/678 679/679
f 677/677 679/679 680/680
f 681/681 682/682 683/683
f 681/681 683/683 684/684
f 685/685 686/686 687/687
f 685/685 687/687 688/688
f 689/689 690/690 691/691
f 689/689 691/691 692/692
f 693/693 694/694 695/695
f 693/693 695/695 696/696
f 697/697 698/698 699/699
f 697/697 699/699 700/700
f 701/701 702/702 703/703
f 701/701 703/703 704/704
f 705/705 706/706 707/707
f 705/705 707/707 708/708
f 709/709 710/710 711/711
f 709/709 711/711 712/712
f 713/713 714/714 715/715
f 713/713 715/715 716/716
f 717/717 718/718 719/719
f 717/717 719/719 720/720
f 721/721 722/722 723/723
f 721/721 723/723 724/724
f 725/725 726/726 727/727
f 725/725 727/727 728/728
f 729/729 730/730 731/731
f 732/732 733/733 734/734
f 735/735 736/736 737/737
f 738/738 739/739 740/740
f 741/741 742/742 743/743
f 744/744 745/745 746/746
f 747/747 748/748 749/749
f 750/750 751/751 752/752
f 753/753 754/754 755/755
f 756/756 757/757 758/758
usemtl Char
f 759/759 760/760 761/761
f 759/759 761/761 762/762
f 763/763 764/764 765/765
f 763/763 765/765 766/766
f 767/767 768/768 769/769
f 767/767 769/769 770/770
f 771/771 772/772 773/773
f 771/771 773/773 774/774
f 775/775 776/776 777/777
f 775/775 777/777 778/778
f 779/779 780/780 781/781
f 779/779 781/781 782/782
usemtl Mud
f 783/783 784/784 785/785
f 783/783 785/785 786/786
f 787/787 788/788 789/789
f 787/787 789/789 790/790
f 791/791 792/792 793/793
f 791/791 793/793 794/794
f 795/795 796/796 797/797
f 795/795 797/797 798/798
f 799/799 800/800 801/801
f 799/799 801/801 802/802
f 803/803 804/804 805/805
f 803/803 805/805 806/806
