mtllib ../../Materials/project_oen.mtl
o pr-011_palm_leaf_pile__small
v -0.100000 0.025000 0.000000
v -0.367498 -0.024968 0.192062
v -0.721666 -0.262433 0.201991
v -0.429301 -0.024968 0.001850
v -0.494234 -0.084258 -0.212760
v -0.489643 -0.090835 -0.214595
v -0.318513 -0.146439 0.412916
v -0.323105 -0.139861 0.414752
v -0.489643 -0.090835 -0.214595
v -0.494386 -0.097523 -0.213894
v -0.323257 -0.153126 0.413617
v -0.318513 -0.146439 0.412916
v -0.494386 -0.097523 -0.213894
v -0.501909 -0.095079 -0.211626
v -0.330780 -0.150682 0.415886
v -0.323257 -0.153126 0.413617
v -0.501909 -0.095079 -0.211626
v -0.501815 -0.086880 -0.210925
v -0.330686 -0.142484 0.416587
v -0.330780 -0.150682 0.415886
v -0.501815 -0.086880 -0.210925
v -0.494234 -0.084258 -0.212760
v -0.323105 -0.139861 0.414752
v -0.330686 -0.142484 0.416587
v -0.496398 -0.090915 -0.212760
v -0.489643 -0.090835 -0.214595
v -0.494234 -0.084258 -0.212760
v -0.325268 -0.146518 0.414752
v -0.323105 -0.139861 0.414752
v -0.318513 -0.146439 0.412916
v -0.496398 -0.090915 -0.212760
v -0.494386 -0.097523 -0.213894
v -0.489643 -0.090835 -0.214595
v -0.325268 -0.146518 0.414752
v -0.318513 -0.146439 0.412916
v -0.323257 -0.153126 0.413617
v -0.496398 -0.090915 -0.212760
v -0.501909 -0.095079 -0.211626
v -0.494386 -0.097523 -0.213894
v -0.325268 -0.146518 0.414752
v -0.323257 -0.153126 0.413617
v -0.330780 -0.150682 0.415886
v -0.496398 -0.090915 -0.212760
v -0.501815 -0.086880 -0.210925
v -0.501909 -0.095079 -0.211626
v -0.325268 -0.146518 0.414752
v -0.330780 -0.150682 0.415886
v -0.330686 -0.142484 0.416587
v -0.496398 -0.090915 -0.212760
v -0.494234 -0.084258 -0.212760
v -0.501815 -0.086880 -0.210925
v -0.325268 -0.146518 0.414752
v -0.330686 -0.142484 0.416587
v -0.323105 -0.139861 0.414752
v -0.385222 0.030881 -0.207295
v -0.379695 0.023273 -0.207358
v -0.374940 0.021728 0.392642
v -0.380467 0.029336 0.392705
v -0.379695 0.023273 -0.207358
v -0.385223 0.015664 -0.207334
v -0.380467 0.014119 0.392666
v -0.374940 0.021728 0.392642
v -0.385223 0.015664 -0.207334
v -0.394167 0.018570 -0.207256
v -0.389411 0.017025 0.392744
v -0.380467 0.014119 0.392666
v -0.394167 0.018570 -0.207256
v -0.394166 0.027975 -0.207232
v -0.389411 0.026430 0.392768
v -0.389411 0.017025 0.392744
v -0.394166 0.027975 -0.207232
v -0.385222 0.030881 -0.207295
v -0.380467 0.029336 0.392705
v -0.389411 0.026430 0.392768
v -0.387695 0.023273 -0.207295
v -0.379695 0.023273 -0.207358
v -0.385222 0.030881 -0.207295
v -0.382939 0.021727 0.392705
v -0.380467 0.029336 0.392705
v -0.374940 0.021728 0.392642
v -0.387695 0.023273 -0.207295
v -0.385223 0.015664 -0.207334
v -0.379695 0.023273 -0.207358
v -0.382939 0.021727 0.392705
v -0.374940 0.021728 0.392642
v -0.380467 0.014119 0.392666
v -0.387695 0.023273 -0.207295
v -0.394167 0.018570 -0.207256
v -0.385223 0.015664 -0.207334
v -0.382939 0.021727 0.392705
v -0.380467 0.014119 0.392666
v -0.389411 0.017025 0.392744
v -0.387695 0.023273 -0.207295
v -0.394166 0.027975 -0.207232
v -0.394167 0.018570 -0.207256
v -0.382939 0.021727 0.392705
v -0.389411 0.017025 0.392744
v -0.389411 0.026430 0.392768
v -0.387695 0.023273 -0.207295
v -0.385222 0.030881 -0.207295
v -0.394166 0.027975 -0.207232
v -0.382939 0.021727 0.392705
v -0.389411 0.026430 0.392768
v -0.380467 0.029336 0.392705
v -0.060000 0.025000 0.016829
v -0.169986 -0.053202 0.338342
v -0.457683 -0.321255 0.564193
v -0.331790 -0.053202 0.220785
v -0.322656 -0.048385 -0.034247
v -0.322892 -0.056289 -0.036523
v -0.183937 -0.247544 0.612992
v -0.183701 -0.239640 0.615269
v -0.322892 -0.056289 -0.036523
v -0.330628 -0.058956 -0.035654
v -0.191673 -0.250211 0.613862
v -0.183937 -0.247544 0.612992
v -0.330628 -0.058956 -0.035654
v -0.335173 -0.052700 -0.032839
v -0.196218 -0.243956 0.616676
v -0.191673 -0.250211 0.613862
v -0.335173 -0.052700 -0.032839
v -0.330246 -0.046167 -0.031970
v -0.191291 -0.237422 0.617546
v -0.196218 -0.243956 0.616676
v -0.330246 -0.046167 -0.031970
v -0.322656 -0.048385 -0.034247
v -0.183701 -0.239640 0.615269
v -0.191291 -0.237422 0.617546
v -0.328319 -0.052500 -0.034247
v -0.322892 -0.056289 -0.036523
v -0.322656 -0.048385 -0.034247
v -0.189364 -0.243755 0.615269
v -0.183701 -0.239640 0.615269
v -0.183937 -0.247544 0.612992
v -0.328319 -0.052500 -0.034247
v -0.330628 -0.058956 -0.035654
v -0.322892 -0.056289 -0.036523
v -0.189364 -0.243755 0.615269
v -0.183937 -0.247544 0.612992
v -0.191673 -0.250211 0.613862
v -0.328319 -0.052500 -0.034247
v -0.335173 -0.052700 -0.032839
v -0.330628 -0.058956 -0.035654
v -0.189364 -0.243755 0.615269
v -0.191673 -0.250211 0.613862
v -0.196218 -0.243956 0.616676
v -0.328319 -0.052500 -0.034247
v -0.330246 -0.046167 -0.031970
v -0.335173 -0.052700 -0.032839
v -0.189364 -0.243755 0.615269
v -0.196218 -0.243956 0.616676
v -0.191291 -0.237422 0.617546
v -0.328319 -0.052500 -0.034247
v -0.322656 -0.048385 -0.034247
v -0.330246 -0.046167 -0.031970
v -0.189364 -0.243755 0.615269
v -0.191291 -0.237422 0.617546
v -0.183701 -0.239640 0.615269
v -0.231333 0.029225 -0.040465
v -0.231333 0.019820 -0.040529
v -0.228394 0.015775 0.559471
v -0.228394 0.025180 0.559535
v -0.231333 0.019820 -0.040529
v -0.240277 0.016914 -0.040505
v -0.237338 0.012869 0.559495
v -0.228394 0.015775 0.559471
v -0.240277 0.016914 -0.040505
v -0.245805 0.024522 -0.040426
v -0.242866 0.020477 0.559574
v -0.237338 0.012869 0.559495
v -0.245805 0.024522 -0.040426
v -0.240277 0.032131 -0.040402
v -0.237338 0.028086 0.559598
v -0.242866 0.020477 0.559574
v -0.240277 0.032131 -0.040402
v -0.231333 0.029225 -0.040465
v -0.228394 0.025180 0.559535
v -0.237338 0.028086 0.559598
v -0.237805 0.024523 -0.040465
v -0.231333 0.019820 -0.040529
v -0.231333 0.029225 -0.040465
v -0.234866 0.020477 0.559535
v -0.228394 0.025180 0.559535
v -0.228394 0.015775 0.559471
v -0.237805 0.024523 -0.040465
v -0.240277 0.016914 -0.040505
v -0.231333 0.019820 -0.040529
v -0.234866 0.020477 0.559535
v -0.228394 0.015775 0.559471
v -0.237338 0.012869 0.559495
v -0.237805 0.024523 -0.040465
v -0.245805 0.024522 -0.040426
v -0.240277 0.016914 -0.040505
v -0.234866 0.020477 0.559535
v -0.237338 0.012869 0.559495
v -0.242866 0.020477 0.559574
v -0.237805 0.024523 -0.040465
v -0.240277 0.032131 -0.040402
v -0.245805 0.024522 -0.040426
v -0.234866 0.020477 0.559535
v -0.242866 0.020477 0.559574
v -0.237338 0.028086 0.559598
v -0.237805 0.024523 -0.040465
v -0.231333 0.029225 -0.040465
v -0.240277 0.032131 -0.040402
v -0.234866 0.020477 0.559535
v -0.237338 0.028086 0.559598
v -0.228394 0.025180 0.559535
v -0.020000 0.025000 0.018186
v 0.080000 -0.083378 0.351447
v -0.020000 -0.384120 0.712480
v -0.120000 -0.083378 0.351447
v -0.013000 -0.031182 0.032072
v -0.017837 -0.037264 0.029364
v -0.017837 -0.334019 0.695887
v -0.013000 -0.327937 0.698595
v -0.017837 -0.037264 0.029364
v -0.025663 -0.034941 0.030398
v -0.025663 -0.331696 0.696921
v -0.017837 -0.334019 0.695887
v -0.025663 -0.034941 0.030398
v -0.025663 -0.027424 0.033745
v -0.025663 -0.324179 0.700268
v -0.025663 -0.331696 0.696921
v -0.025663 -0.027424 0.033745
v -0.017837 -0.025101 0.034780
v -0.017837 -0.321856 0.701302
v -0.025663 -0.324179 0.700268
v -0.017837 -0.025101 0.034780
v -0.013000 -0.031182 0.032072
v -0.013000 -0.327937 0.698595
v -0.017837 -0.321856 0.701302
v -0.020000 -0.031182 0.032072
v -0.017837 -0.037264 0.029364
v -0.013000 -0.031182 0.032072
v -0.020000 -0.327937 0.698595
v -0.013000 -0.327937 0.698595
v -0.017837 -0.334019 0.695887
v -0.020000 -0.031182 0.032072
v -0.025663 -0.034941 0.030398
v -0.017837 -0.037264 0.029364
v -0.020000 -0.327937 0.698595
v -0.017837 -0.334019 0.695887
v -0.025663 -0.331696 0.696921
v -0.020000 -0.031182 0.032072
v -0.025663 -0.027424 0.033745
v -0.025663 -0.034941 0.030398
v -0.020000 -0.327937 0.698595
v -0.025663 -0.331696 0.696921
v -0.025663 -0.324179 0.700268
v -0.020000 -0.031182 0.032072
v -0.017837 -0.025101 0.034780
v -0.025663 -0.027424 0.033745
v -0.020000 -0.327937 0.698595
v -0.025663 -0.324179 0.700268
v -0.017837 -0.321856 0.701302
v -0.020000 -0.031182 0.032072
v -0.013000 -0.031182 0.032072
v -0.017837 -0.025101 0.034780
v -0.020000 -0.327937 0.698595
v -0.017837 -0.321856 0.701302
v -0.013000 -0.327937 0.698595
v -0.012000 0.025000 0.018186
v -0.017528 0.017392 0.018123
v -0.017528 0.012392 0.618123
v -0.012000 0.020000 0.618186
v -0.017528 0.017392 0.018123
v -0.026472 0.020298 0.018147
v -0.026472 0.015298 0.618147
v -0.017528 0.012392 0.618123
v -0.026472 0.020298 0.018147
v -0.026472 0.029702 0.018225
v -0.026472 0.024702 0.618225
v -0.026472 0.015298 0.618147
v -0.026472 0.029702 0.018225
v -0.017528 0.032608 0.018249
v -0.017528 0.027608 0.618249
v -0.026472 0.024702 0.618225
v -0.017528 0.032608 0.018249
v -0.012000 0.025000 0.018186
v -0.012000 0.020000 0.618186
v -0.017528 0.027608 0.618249
v -0.020000 0.025000 0.018186
v -0.017528 0.017392 0.018123
v -0.012000 0.025000 0.018186
v -0.020000 0.020000 0.618186
v -0.012000 0.020000 0.618186
v -0.017528 0.012392 0.618123
v -0.020000 0.025000 0.018186
v -0.026472 0.020298 0.018147
v -0.017528 0.017392 0.018123
v -0.020000 0.020000 0.618186
v -0.017528 0.012392 0.618123
v -0.026472 0.015298 0.618147
v -0.020000 0.025000 0.018186
v -0.026472 0.029702 0.018225
v -0.026472 0.020298 0.018147
v -0.020000 0.020000 0.618186
v -0.026472 0.015298 0.618147
v -0.026472 0.024702 0.618225
v -0.020000 0.025000 0.018186
v -0.017528 0.032608 0.018249
v -0.026472 0.029702 0.018225
v -0.020000 0.020000 0.618186
v -0.026472 0.024702 0.618225
v -0.017528 0.027608 0.618249
v -0.020000 0.025000 0.018186
v -0.012000 0.025000 0.018186
v -0.017528 0.032608 0.018249
v -0.020000 0.020000 0.618186
v -0.017528 0.027608 0.618249
v -0.012000 0.020000 0.618186
v 0.020000 0.025000 0.002822
v 0.285323 -0.024968 0.197878
v 0.404211 -0.262433 0.531643
v 0.123519 -0.024968 0.315435
v 0.270650 -0.050046 -0.046523
v 0.262976 -0.052380 -0.048358
v 0.157212 -0.197951 0.579153
v 0.164886 -0.195617 0.580988
v 0.262976 -0.052380 -0.048358
v 0.258081 -0.045802 -0.047657
v 0.152317 -0.191373 0.579854
v 0.157212 -0.197951 0.579153
v 0.258081 -0.045802 -0.047657
v 0.262730 -0.039403 -0.045389
v 0.156967 -0.184974 0.582123
v 0.152317 -0.191373 0.579854
v 0.262730 -0.039403 -0.045389
v 0.270499 -0.042025 -0.044688
v 0.164735 -0.187597 0.582823
v 0.156967 -0.184974 0.582123
v 0.270499 -0.042025 -0.044688
v 0.270650 -0.050046 -0.046523
v 0.164886 -0.195617 0.580988
v 0.164735 -0.187597 0.582823
v 0.264987 -0.045931 -0.046523
v 0.262976 -0.052380 -0.048358
v 0.270650 -0.050046 -0.046523
v 0.159223 -0.191502 0.580988
v 0.164886 -0.195617 0.580988
v 0.157212 -0.197951 0.579153
v 0.264987 -0.045931 -0.046523
v 0.258081 -0.045802 -0.047657
v 0.262976 -0.052380 -0.048358
v 0.159223 -0.191502 0.580988
v 0.157212 -0.197951 0.579153
v 0.152317 -0.191373 0.579854
v 0.264987 -0.045931 -0.046523
v 0.262730 -0.039403 -0.045389
v 0.258081 -0.045802 -0.047657
v 0.159223 -0.191502 0.580988
v 0.152317 -0.191373 0.579854
v 0.156967 -0.184974 0.582123
v 0.264987 -0.045931 -0.046523
v 0.270499 -0.042025 -0.044688
v 0.262730 -0.039403 -0.045389
v 0.159223 -0.191502 0.580988
v 0.156967 -0.184974 0.582123
v 0.164735 -0.187597 0.582823
v 0.264987 -0.045931 -0.046523
v 0.270650 -0.050046 -0.046523
v 0.270499 -0.042025 -0.044688
v 0.159223 -0.191502 0.580988
v 0.164735 -0.187597 0.582823
v 0.164886 -0.195617 0.580988
v 0.204277 0.019820 -0.054473
v 0.195333 0.016914 -0.054536
v 0.192394 0.012869 0.545464
v 0.201338 0.015775 0.545527
v 0.195333 0.016914 -0.054536
v 0.189805 0.024523 -0.054512
v 0.186866 0.020478 0.545488
v 0.192394 0.012869 0.545464
v 0.189805 0.024523 -0.054512
v 0.195333 0.032131 -0.054433
v 0.192394 0.028086 0.545567
v 0.186866 0.020478 0.545488
v 0.195333 0.032131 -0.054433
v 0.204277 0.029225 -0.054409
v 0.201338 0.025180 0.545591
v 0.192394 0.028086 0.545567
v 0.204277 0.029225 -0.054409
v 0.204277 0.019820 -0.054473
v 0.201338 0.015775 0.545527
v 0.201338 0.025180 0.545591
v 0.197805 0.024523 -0.054473
v 0.195333 0.016914 -0.054536
v 0.204277 0.019820 -0.054473
v 0.194866 0.020477 0.545527
v 0.201338 0.015775 0.545527
v 0.192394 0.012869 0.545464
v 0.197805 0.024523 -0.054473
v 0.189805 0.024523 -0.054512
v 0.195333 0.016914 -0.054536
v 0.194866 0.020477 0.545527
v 0.192394 0.012869 0.545464
v 0.186866 0.020478 0.545488
v 0.197805 0.024523 -0.054473
v 0.195333 0.032131 -0.054433
v 0.189805 0.024523 -0.054512
v 0.194866 0.020477 0.545527
v 0.186866 0.020478 0.545488
v 0.192394 0.028086 0.545567
v 0.197805 0.024523 -0.054473
v 0.204277 0.029225 -0.054409
v 0.195333 0.032131 -0.054433
v 0.194866 0.020477 0.545527
v 0.192394 0.028086 0.545567
v 0.201338 0.025180 0.545591
v 0.197805 0.024523 -0.054473
v 0.204277 0.019820 -0.054473
v 0.204277 0.029225 -0.054409
v 0.194866 0.020477 0.545527
v 0.201338 0.025180 0.545591
v 0.201338 0.015775 0.545527
v 0.060000 0.025000 -0.015136
v 0.399765 -0.053202 -0.009886
v 0.703465 -0.321255 0.193938
v 0.337961 -0.053202 0.180325
v 0.496312 -0.118258 -0.235357
v 0.488868 -0.115591 -0.237634
v 0.264034 -0.188644 0.411882
v 0.271478 -0.191311 0.414159
v 0.488868 -0.115591 -0.237634
v 0.488722 -0.107410 -0.236764
v 0.263888 -0.180463 0.412752
v 0.264034 -0.188644 0.411882
v 0.488722 -0.107410 -0.236764
v 0.496076 -0.105020 -0.233949
v 0.271242 -0.178073 0.415566
v 0.263888 -0.180463 0.412752
v 0.496076 -0.105020 -0.233949
v 0.500767 -0.111725 -0.233080
v 0.275934 -0.184778 0.416436
v 0.271242 -0.178073 0.415566
v 0.500767 -0.111725 -0.233080
v 0.496312 -0.118258 -0.235357
v 0.271478 -0.191311 0.414159
v 0.275934 -0.184778 0.416436
v 0.494149 -0.111601 -0.235357
v 0.488868 -0.115591 -0.237634
v 0.496312 -0.118258 -0.235357
v 0.269315 -0.184654 0.414159
v 0.271478 -0.191311 0.414159
v 0.264034 -0.188644 0.411882
v 0.494149 -0.111601 -0.235357
v 0.488722 -0.107410 -0.236764
v 0.488868 -0.115591 -0.237634
v 0.269315 -0.184654 0.414159
v 0.264034 -0.188644 0.411882
v 0.263888 -0.180463 0.412752
v 0.494149 -0.111601 -0.235357
v 0.496076 -0.105020 -0.233949
v 0.488722 -0.107410 -0.236764
v 0.269315 -0.184654 0.414159
v 0.263888 -0.180463 0.412752
v 0.271242 -0.178073 0.415566
v 0.494149 -0.111601 -0.235357
v 0.500767 -0.111725 -0.233080
v 0.496076 -0.105020 -0.233949
v 0.269315 -0.184654 0.414159
v 0.271242 -0.178073 0.415566
v 0.275934 -0.184778 0.416436
v 0.494149 -0.111601 -0.235357
v 0.496312 -0.118258 -0.235357
v 0.500767 -0.111725 -0.233080
v 0.269315 -0.184654 0.414159
v 0.275934 -0.184778 0.416436
v 0.271478 -0.191311 0.414159
v 0.350167 0.015664 -0.222431
v 0.341223 0.018570 -0.222494
v 0.336467 0.017025 0.377506
v 0.345411 0.014119 0.377569
v 0.341223 0.018570 -0.222494
v 0.341223 0.027975 -0.222470
v 0.336467 0.026430 0.377530
v 0.336467 0.017025 0.377506
v 0.341223 0.027975 -0.222470
v 0.350167 0.030881 -0.222392
v 0.345411 0.029336 0.377608
v 0.336467 0.026430 0.377530
v 0.350167 0.030881 -0.222392
v 0.355694 0.023272 -0.222368
v 0.350939 0.021727 0.377632
v 0.345411 0.029336 0.377608
v 0.355694 0.023272 -0.222368
v 0.350167 0.015664 -0.222431
v 0.345411 0.014119 0.377569
v 0.350939 0.021727 0.377632
v 0.347695 0.023273 -0.222431
v 0.341223 0.018570 -0.222494
v 0.350167 0.015664 -0.222431
v 0.342939 0.021727 0.377569
v 0.345411 0.014119 0.377569
v 0.336467 0.017025 0.377506
v 0.347695 0.023273 -0.222431
v 0.341223 0.027975 -0.222470
v 0.341223 0.018570 -0.222494
v 0.342939 0.021727 0.377569
v 0.336467 0.017025 0.377506
v 0.336467 0.026430 0.377530
v 0.347695 0.023273 -0.222431
v 0.350167 0.030881 -0.222392
v 0.341223 0.027975 -0.222470
v 0.342939 0.021727 0.377569
v 0.336467 0.026430 0.377530
v 0.345411 0.029336 0.377608
v 0.347695 0.023273 -0.222431
v 0.355694 0.023272 -0.222368
v 0.350167 0.030881 -0.222392
v 0.342939 0.021727 0.377569
v 0.345411 0.029336 0.377608
v 0.350939 0.021727 0.377632
v 0.347695 0.023273 -0.222431
v 0.350167 0.015664 -0.222431
v 0.355694 0.023272 -0.222368
v 0.342939 0.021727 0.377569
v 0.350939 0.021727 0.377632
v 0.345411 0.014119 0.377569
v 0.189141 0.101582 0.000000
v 0.184916 0.027177 0.000000
v 0.174267 0.029932 0.011000
v 0.178248 0.100051 0.011000
v 0.178248 0.100051 0.011000
v 0.174267 0.029932 0.011000
v 0.163617 0.032686 0.000000
v 0.167355 0.098520 0.000000
v 0.167355 0.098520 0.000000
v 0.163617 0.032686 0.000000
v 0.174267 0.029932 -0.011000
v 0.178248 0.100051 -0.011000
v 0.178248 0.100051 -0.011000
v 0.174267 0.029932 -0.011000
v 0.184916 0.027177 0.000000
v 0.189141 0.101582 0.000000
v 0.184916 0.027177 0.000000
v 0.152539 -0.039947 0.000000
v 0.143754 -0.033327 0.011000
v 0.174267 0.029932 0.011000
v 0.174267 0.029932 0.011000
v 0.143754 -0.033327 0.011000
v 0.134969 -0.026707 0.000000
v 0.163617 0.032686 0.000000
v 0.163617 0.032686 0.000000
v 0.134969 -0.026707 0.000000
v 0.143754 -0.033327 -0.011000
v 0.174267 0.029932 -0.011000
v 0.174267 0.029932 -0.011000
v 0.143754 -0.033327 -0.011000
v 0.152539 -0.039947 0.000000
v 0.184916 0.027177 0.000000
v 0.152539 -0.039947 0.000000
v 0.096940 -0.089571 0.000000
v 0.091357 -0.080093 0.011000
v 0.143754 -0.033327 0.011000
v 0.143754 -0.033327 0.011000
v 0.091357 -0.080093 0.011000
v 0.085774 -0.070615 0.000000
v 0.134969 -0.026707 0.000000
v 0.134969 -0.026707 0.000000
v 0.085774 -0.070615 0.000000
v 0.091357 -0.080093 -0.011000
v 0.143754 -0.033327 -0.011000
v 0.143754 -0.033327 -0.011000
v 0.091357 -0.080093 -0.011000
v 0.096940 -0.089571 0.000000
v 0.152539 -0.039947 0.000000
v 0.096940 -0.089571 0.000000
v 0.026582 -0.114141 0.000000
v 0.025051 -0.103248 0.011000
v 0.091357 -0.080093 0.011000
v 0.091357 -0.080093 0.011000
v 0.025051 -0.103248 0.011000
v 0.023520 -0.092355 0.000000
v 0.085774 -0.070615 0.000000
v 0.085774 -0.070615 0.000000
v 0.023520 -0.092355 0.000000
v 0.025051 -0.103248 -0.011000
v 0.091357 -0.080093 -0.011000
v 0.091357 -0.080093 -0.011000
v 0.025051 -0.103248 -0.011000
v 0.026582 -0.114141 0.000000
v 0.096940 -0.089571 0.000000
v 0.026582 -0.114141 0.000000
v -0.047823 -0.109916 0.000000
v -0.045068 -0.099267 0.011000
v 0.025051 -0.103248 0.011000
v 0.025051 -0.103248 0.011000
v -0.045068 -0.099267 0.011000
v -0.042314 -0.088617 0.000000
v 0.023520 -0.092355 0.000000
v 0.023520 -0.092355 0.000000
v -0.042314 -0.088617 0.000000
v -0.045068 -0.099267 -0.011000
v 0.025051 -0.103248 -0.011000
v 0.025051 -0.103248 -0.011000
v -0.045068 -0.099267 -0.011000
v -0.047823 -0.109916 0.000000
v 0.026582 -0.114141 0.000000
v -0.047823 -0.109916 0.000000
v -0.114947 -0.077539 0.000000
v -0.108327 -0.068754 0.011000
v -0.045068 -0.099267 0.011000
v -0.045068 -0.099267 0.011000
v -0.108327 -0.068754 0.011000
v -0.101707 -0.059969 0.000000
v -0.042314 -0.088617 0.000000
v -0.042314 -0.088617 0.000000
v -0.101707 -0.059969 0.000000
v -0.108327 -0.068754 -0.011000
v -0.045068 -0.099267 -0.011000
v -0.045068 -0.099267 -0.011000
v -0.108327 -0.068754 -0.011000
v -0.114947 -0.077539 0.000000
v -0.047823 -0.109916 0.000000
v -0.114947 -0.077539 0.000000
v -0.164571 -0.021940 0.000000
v -0.155093 -0.016357 0.011000
v -0.108327 -0.068754 0.011000
v -0.108327 -0.068754 0.011000
v -0.155093 -0.016357 0.011000
v -0.145615 -0.010774 0.000000
v -0.101707 -0.059969 0.000000
v -0.101707 -0.059969 0.000000
v -0.145615 -0.010774 0.000000
v -0.155093 -0.016357 -0.011000
v -0.108327 -0.068754 -0.011000
v -0.108327 -0.068754 -0.011000
v -0.155093 -0.016357 -0.011000
v -0.164571 -0.021940 0.000000
v -0.114947 -0.077539 0.000000
v -0.164571 -0.021940 0.000000
v -0.189141 0.048418 0.000000
v -0.178248 0.049949 0.011000
v -0.155093 -0.016357 0.011000
v -0.155093 -0.016357 0.011000
v -0.178248 0.049949 0.011000
v -0.167355 0.051480 0.000000
v -0.145615 -0.010774 0.000000
v -0.145615 -0.010774 0.000000
v -0.167355 0.051480 0.000000
v -0.178248 0.049949 -0.011000
v -0.155093 -0.016357 -0.011000
v -0.155093 -0.016357 -0.011000
v -0.178248 0.049949 -0.011000
v -0.189141 0.048418 0.000000
v -0.164571 -0.021940 0.000000
v -0.189141 0.048418 0.000000
v -0.184916 0.122823 -0.000000
v -0.174267 0.120068 0.011000
v -0.178248 0.049949 0.011000
v -0.178248 0.049949 0.011000
v -0.174267 0.120068 0.011000
v -0.163617 0.117314 -0.000000
v -0.167355 0.051480 0.000000
v -0.167355 0.051480 0.000000
v -0.163617 0.117314 -0.000000
v -0.174267 0.120068 -0.011000
v -0.178248 0.049949 -0.011000
v -0.178248 0.049949 -0.011000
v -0.174267 0.120068 -0.011000
v -0.184916 0.122823 -0.000000
v -0.189141 0.048418 0.000000
v -0.184916 0.122823 -0.000000
v -0.152539 0.189947 -0.000000
v -0.143754 0.183327 0.011000
v -0.174267 0.120068 0.011000
v -0.174267 0.120068 0.011000
v -0.143754 0.183327 0.011000
v -0.134969 0.176707 -0.000000
v -0.163617 0.117314 -0.000000
v -0.163617 0.117314 -0.000000
v -0.134969 0.176707 -0.000000
v -0.143754 0.183327 -0.011000
v -0.174267 0.120068 -0.011000
v -0.174267 0.120068 -0.011000
v -0.143754 0.183327 -0.011000
v -0.152539 0.189947 -0.000000
v -0.184916 0.122823 -0.000000
v -0.152539 0.189947 -0.000000
v -0.096940 0.239571 -0.000000
v -0.091357 0.230093 0.011000
v -0.143754 0.183327 0.011000
v -0.143754 0.183327 0.011000
v -0.091357 0.230093 0.011000
v -0.085774 0.220615 -0.000000
v -0.134969 0.176707 -0.000000
v -0.134969 0.176707 -0.000000
v -0.085774 0.220615 -0.000000
v -0.091357 0.230093 -0.011000
v -0.143754 0.183327 -0.011000
v -0.143754 0.183327 -0.011000
v -0.091357 0.230093 -0.011000
v -0.096940 0.239571 -0.000000
v -0.152539 0.189947 -0.000000
v -0.096940 0.239571 -0.000000
v -0.026582 0.264141 -0.000000
v -0.025051 0.253248 0.011000
v -0.091357 0.230093 0.011000
v -0.091357 0.230093 0.011000
v -0.025051 0.253248 0.011000
v -0.023520 0.242355 -0.000000
v -0.085774 0.220615 -0.000000
v -0.085774 0.220615 -0.000000
v -0.023520 0.242355 -0.000000
v -0.025051 0.253248 -0.011000
v -0.091357 0.230093 -0.011000
v -0.091357 0.230093 -0.011000
v -0.025051 0.253248 -0.011000
v -0.026582 0.264141 -0.000000
v -0.096940 0.239571 -0.000000
v -0.026582 0.264141 -0.000000
v 0.047823 0.259916 -0.000000
v 0.045068 0.249267 0.011000
v -0.025051 0.253248 0.011000
v -0.025051 0.253248 0.011000
v 0.045068 0.249267 0.011000
v 0.042314 0.238617 -0.000000
v -0.023520 0.242355 -0.000000
v -0.023520 0.242355 -0.000000
v 0.042314 0.238617 -0.000000
v 0.045068 0.249267 -0.011000
v -0.025051 0.253248 -0.011000
v -0.025051 0.253248 -0.011000
v 0.045068 0.249267 -0.011000
v 0.047823 0.259916 -0.000000
v -0.026582 0.264141 -0.000000
v 0.047823 0.259916 -0.000000
v 0.114947 0.227539 -0.000000
v 0.108327 0.218754 0.011000
v 0.045068 0.249267 0.011000
v 0.045068 0.249267 0.011000
v 0.108327 0.218754 0.011000
v 0.101707 0.209969 -0.000000
v 0.042314 0.238617 -0.000000
v 0.042314 0.238617 -0.000000
v 0.101707 0.209969 -0.000000
v 0.108327 0.218754 -0.011000
v 0.045068 0.249267 -0.011000
v 0.045068 0.249267 -0.011000
v 0.108327 0.218754 -0.011000
v 0.114947 0.227539 -0.000000
v 0.047823 0.259916 -0.000000
v 0.114947 0.227539 -0.000000
v 0.164571 0.171940 -0.000000
v 0.155093 0.166357 0.011000
v 0.108327 0.218754 0.011000
v 0.108327 0.218754 0.011000
v 0.155093 0.166357 0.011000
v 0.145615 0.160774 -0.000000
v 0.101707 0.209969 -0.000000
v 0.101707 0.209969 -0.000000
v 0.145615 0.160774 -0.000000
v 0.155093 0.166357 -0.011000
v 0.108327 0.218754 -0.011000
v 0.108327 0.218754 -0.011000
v 0.155093 0.166357 -0.011000
v 0.164571 0.171940 -0.000000
v 0.114947 0.227539 -0.000000
v 0.164571 0.171940 -0.000000
v 0.189141 0.101582 0.000000
v 0.178248 0.100051 0.011000
v 0.155093 0.166357 0.011000
v 0.155093 0.166357 0.011000
v 0.178248 0.100051 0.011000
v 0.167355 0.098520 0.000000
v 0.145615 0.160774 -0.000000
v 0.145615 0.160774 -0.000000
v 0.167355 0.098520 0.000000
v 0.178248 0.100051 -0.011000
v 0.155093 0.166357 -0.011000
v 0.155093 0.166357 -0.011000
v 0.178248 0.100051 -0.011000
v 0.189141 0.101582 0.000000
v 0.164571 0.171940 -0.000000
v 0.009428 0.036670 -0.285701
v 0.002226 0.042716 -0.285834
v -0.007749 0.043416 0.285568
v -0.000548 0.037370 0.285701
v 0.002226 0.042716 -0.285834
v 0.005751 0.051435 -0.285783
v -0.004225 0.052135 0.285619
v -0.007749 0.043416 0.285568
v 0.005751 0.051435 -0.285783
v 0.015131 0.050777 -0.285619
v 0.005155 0.051477 0.285783
v -0.004225 0.052135 0.285619
v 0.015131 0.050777 -0.285619
v 0.017403 0.041651 -0.285568
v 0.007428 0.042351 0.285834
v 0.005155 0.051477 0.285783
v 0.017403 0.041651 -0.285568
v 0.009428 0.036670 -0.285701
v -0.000548 0.037370 0.285701
v 0.007428 0.042351 0.285834
v 0.009988 0.044650 -0.285701
v 0.002226 0.042716 -0.285834
v 0.009428 0.036670 -0.285701
v 0.000012 0.045350 0.285701
v -0.000548 0.037370 0.285701
v -0.007749 0.043416 0.285568
v 0.009988 0.044650 -0.285701
v 0.005751 0.051435 -0.285783
v 0.002226 0.042716 -0.285834
v 0.000012 0.045350 0.285701
v -0.007749 0.043416 0.285568
v -0.004225 0.052135 0.285619
v 0.009988 0.044650 -0.285701
v 0.015131 0.050777 -0.285619
v 0.005751 0.051435 -0.285783
v 0.000012 0.045350 0.285701
v -0.004225 0.052135 0.285619
v 0.005155 0.051477 0.285783
v 0.009988 0.044650 -0.285701
v 0.017403 0.041651 -0.285568
v 0.015131 0.050777 -0.285619
v 0.000012 0.045350 0.285701
v 0.005155 0.051477 0.285783
v 0.007428 0.042351 0.285834
v 0.009988 0.044650 -0.285701
v 0.009428 0.036670 -0.285701
v 0.017403 0.041651 -0.285568
v 0.000012 0.045350 0.285701
v 0.007428 0.042351 0.285834
v -0.000548 0.037370 0.285701
v 0.060000 0.080000 0.050000
v 0.291977 -0.019715 -0.105747
v 0.591167 -0.331072 -0.082435
v 0.337943 -0.019715 0.078609
v 0.459454 -0.166128 -0.278983
v 0.454921 -0.160013 -0.282108
v 0.183792 -0.092413 0.243422
v 0.188325 -0.098528 0.246548
v 0.454921 -0.160013 -0.282108
v 0.458993 -0.152962 -0.280914
v 0.187864 -0.085362 0.244616
v 0.183792 -0.092413 0.243422
v 0.458993 -0.152962 -0.280914
v 0.466043 -0.154720 -0.277051
v 0.194914 -0.087120 0.248479
v 0.187864 -0.085362 0.244616
v 0.466043 -0.154720 -0.277051
v 0.466328 -0.162857 -0.275857
v 0.195199 -0.095257 0.249673
v 0.194914 -0.087120 0.248479
v 0.466328 -0.162857 -0.275857
v 0.459454 -0.166128 -0.278983
v 0.188325 -0.098528 0.246548
v 0.195199 -0.095257 0.249673
v 0.461148 -0.159336 -0.278983
v 0.454921 -0.160013 -0.282108
v 0.459454 -0.166128 -0.278983
v 0.190019 -0.091736 0.246548
v 0.188325 -0.098528 0.246548
v 0.183792 -0.092413 0.243422
v 0.461148 -0.159336 -0.278983
v 0.458993 -0.152962 -0.280914
v 0.454921 -0.160013 -0.282108
v 0.190019 -0.091736 0.246548
v 0.183792 -0.092413 0.243422
v 0.187864 -0.085362 0.244616
v 0.461148 -0.159336 -0.278983
v 0.466043 -0.154720 -0.277051
v 0.458993 -0.152962 -0.280914
v 0.190019 -0.091736 0.246548
v 0.187864 -0.085362 0.244616
v 0.194914 -0.087120 0.248479
v 0.461148 -0.159336 -0.278983
v 0.466328 -0.162857 -0.275857
v 0.466043 -0.154720 -0.277051
v 0.190019 -0.091736 0.246548
v 0.194914 -0.087120 0.248479
v 0.195199 -0.095257 0.249673
v 0.461148 -0.159336 -0.278983
v 0.459454 -0.166128 -0.278983
v 0.466328 -0.162857 -0.275857
v 0.190019 -0.091736 0.246548
v 0.195199 -0.095257 0.249673
v 0.188325 -0.098528 0.246548
vt 0.000000 0.500000
vt 0.480000 1.000000
vt 1.000000 0.500000
vt 0.480000 0.000000
vt 0.000000 0.000000
vt 1.000000 0.000000
vt 1.000000 1.000000
vt 0.000000 1.000000
vt 0.000000 0.000000
vt 1.000000 0.000000
vt 1.000000 1.000000
vt 0.000000 1.000000
vt 0.000000 0.000000
vt 1.000000 0.000000
vt 1.000000 1.000000
vt 0.000000 1.000000
vt 0.000000 0.000000
vt 1.000000 0.000000
vt 1.000000 1.000000
vt 0.000000 1.000000
vt 0.000000 0.000000
vt 1.000000 0.000000
vt 1.000000 1.000000
vt 0.000000 1.000000
vt 0.500000 0.500000
vt 0.000000 0.000000
vt 1.000000 0.000000
vt 0.500000 0.500000
vt 0.000000 1.000000
vt 1.000000 1.000000
vt 0.500000 0.500000
vt 0.000000 0.000000
vt 1.000000 0.000000
vt 0.500000 0.500000
vt 0.000000 1.000000
vt 1.000000 1.000000
vt 0.500000 0.500000
vt 0.000000 0.000000
vt 1.000000 0.000000
vt 0.500000 0.500000
vt 0.000000 1.000000
vt 1.000000 1.000000
vt 0.500000 0.500000
vt 0.000000 0.000000
vt 1.000000 0.000000
vt 0.500000 0.500000
vt 0.000000 1.000000
vt 1.000000 1.000000
vt 0.500000 0.500000
vt 0.000000 0.000000
vt 1.000000 0.000000
vt 0.500000 0.500000
vt 0.000000 1.000000
vt 1.000000 1.000000
vt 0.000000 0.000000
vt 1.000000 0.000000
vt 1.000000 1.000000
vt 0.000000 1.000000
vt 0.000000 0.000000
vt 1.000000 0.000000
vt 1.000000 1.000000
vt 0.000000 1.000000
vt 0.000000 0.000000
vt 1.000000 0.000000
vt 1.000000 1.000000
vt 0.000000 1.000000
vt 0.000000 0.000000
vt 1.000000 0.000000
vt 1.000000 1.000000
vt 0.000000 1.000000
vt 0.000000 0.000000
vt 1.000000 0.000000
vt 1.000000 1.000000
vt 0.000000 1.000000
vt 0.500000 0.500000
vt 0.000000 0.000000
vt 1.000000 0.000000
vt 0.500000 0.500000
vt 0.000000 1.000000
vt 1.000000 1.000000
vt 0.500000 0.500000
vt 0.000000 0.000000
vt 1.000000 0.000000
vt 0.500000 0.500000
vt 0.000000 1.000000
vt 1.000000 1.000000
vt 0.500000 0.500000
vt 0.000000 0.000000
vt 1.000000 0.000000
vt 0.500000 0.500000
vt 0.000000 1.000000
vt 1.000000 1.000000
vt 0.500000 0.500000
vt 0.000000 0.000000
vt 1.000000 0.000000
vt 0.500000 0.500000
vt 0.000000 1.000000
vt 1.000000 1.000000
vt 0.500000 0.500000
vt 0.000000 0.000000
vt 1.000000 0.000000
vt 0.500000 0.500000
vt 0.000000 1.000000
vt 1.000000 1.000000
vt 0.000000 0.500000
vt 0.480000 1.000000
vt 1.000000 0.500000
vt 0.480000 0.000000
vt 0.000000 0.000000
vt 1.000000 0.000000
vt 1.000000 1.000000
vt 0.000000 1.000000
vt 0.000000 0.000000
vt 1.000000 0.000000
vt 1.000000 1.000000
vt 0.000000 1.000000
vt 0.000000 0.000000
vt 1.000000 0.000000
vt 1.000000 1.000000
vt 0.000000 1.000000
vt 0.000000 0.000000
vt 1.000000 0.000000
vt 1.000000 1.000000
vt 0.000000 1.000000
vt 0.000000 0.000000
vt 1.000000 0.000000
vt 1.000000 1.000000
vt 0.000000 1.000000
vt 0.500000 0.500000
vt 0.000000 0.000000
vt 1.000000 0.000000
vt 0.500000 0.500000
vt 0.000000 1.000000
vt 1.000000 1.000000
vt 0.500000 0.500000
vt 0.000000 0.000000
vt 1.000000 0.000000
vt 0.500000 0.500000
vt 0.000000 1.000000
vt 1.000000 1.000000
vt 0.500000 0.500000
vt 0.000000 0.000000
vt 1.000000 0.000000
vt 0.500000 0.500000
vt 0.000000 1.000000
vt 1.000000 1.000000
vt 0.500000 0.500000
vt 0.000000 0.000000
vt 1.000000 0.000000
vt 0.500000 0.500000
vt 0.000000 1.000000
vt 1.000000 1.000000
vt 0.500000 0.500000
vt 0.000000 0.000000
vt 1.000000 0.000000
vt 0.500000 0.500000
vt 0.000000 1.000000
vt 1.000000 1.000000
vt 0.000000 0.000000
vt 1.000000 0.000000
vt 1.000000 1.000000
vt 0.000000 1.000000
vt 0.000000 0.000000
vt 1.000000 0.000000
vt 1.000000 1.000000
vt 0.000000 1.000000
vt 0.000000 0.000000
vt 1.000000 0.000000
vt 1.000000 1.000000
vt 0.000000 1.000000
vt 0.000000 0.000000
vt 1.000000 0.000000
vt 1.000000 1.000000
vt 0.000000 1.000000
vt 0.000000 0.000000
vt 1.000000 0.000000
vt 1.000000 1.000000
vt 0.000000 1.000000
vt 0.500000 0.500000
vt 0.000000 0.000000
vt 1.000000 0.000000
vt 0.500000 0.500000
vt 0.000000 1.000000
vt 1.000000 1.000000
vt 0.500000 0.500000
vt 0.000000 0.000000
vt 1.000000 0.000000
vt 0.500000 0.500000
vt 0.000000 1.000000
vt 1.000000 1.000000
vt 0.500000 0.500000
vt 0.000000 0.000000
vt 1.000000 0.000000
vt 0.500000 0.500000
vt 0.000000 1.000000
vt 1.000000 1.000000
vt 0.500000 0.500000
vt 0.000000 0.000000
vt 1.000000 0.000000
vt 0.500000 0.500000
vt 0.000000 1.000000
vt 1.000000 1.000000
vt 0.500000 0.500000
vt 0.000000 0.000000
vt 1.000000 0.000000
vt 0.500000 0.500000
vt 0.000000 1.000000
vt 1.000000 1.000000
vt 0.000000 0.500000
vt 0.480000 1.000000
vt 1.000000 0.500000
vt 0.480000 0.000000
vt 0.000000 0.000000
vt 1.000000 0.000000
vt 1.000000 1.000000
vt 0.000000 1.000000
vt 0.000000 0.000000
vt 1.000000 0.000000
vt 1.000000 1.000000
vt 0.000000 1.000000
vt 0.000000 0.000000
vt 1.000000 0.000000
vt 1.000000 1.000000
vt 0.000000 1.000000
vt 0.000000 0.000000
vt 1.000000 0.000000
vt 1.000000 1.000000
vt 0.000000 1.000000
vt 0.000000 0.000000
vt 1.000000 0.000000
vt 1.000000 1.000000
vt 0.000000 1.000000
vt 0.500000 0.500000
vt 0.000000 0.000000
vt 1.000000 0.000000
vt 0.500000 0.500000
vt 0.000000 1.000000
vt 1.000000 1.000000
vt 0.500000 0.500000
vt 0.000000 0.000000
vt 1.000000 0.000000
vt 0.500000 0.500000
vt 0.000000 1.000000
vt 1.000000 1.000000
vt 0.500000 0.500000
vt 0.000000 0.000000
vt 1.000000 0.000000
vt 0.500000 0.500000
vt 0.000000 1.000000
vt 1.000000 1.000000
vt 0.500000 0.500000
vt 0.000000 0.000000
vt 1.000000 0.000000
vt 0.500000 0.500000
vt 0.000000 1.000000
vt 1.000000 1.000000
vt 0.500000 0.500000
vt 0.000000 0.000000
vt 1.000000 0.000000
vt 0.500000 0.500000
vt 0.000000 1.000000
vt 1.000000 1.000000
vt 0.000000 0.000000
vt 1.000000 0.000000
vt 1.000000 1.000000
vt 0.000000 1.000000
vt 0.000000 0.000000
vt 1.000000 0.000000
vt 1.000000 1.000000
vt 0.000000 1.000000
vt 0.000000 0.000000
vt 1.000000 0.000000
vt 1.000000 1.000000
vt 0.000000 1.000000
vt 0.000000 0.000000
vt 1.000000 0.000000
vt 1.000000 1.000000
vt 0.000000 1.000000
vt 0.000000 0.000000
vt 1.000000 0.000000
vt 1.000000 1.000000
vt 0.000000 1.000000
vt 0.500000 0.500000
vt 0.000000 0.000000
vt 1.000000 0.000000
vt 0.500000 0.500000
vt 0.000000 1.000000
vt 1.000000 1.000000
vt 0.500000 0.500000
vt 0.000000 0.000000
vt 1.000000 0.000000
vt 0.500000 0.500000
vt 0.000000 1.000000
vt 1.000000 1.000000
vt 0.500000 0.500000
vt 0.000000 0.000000
vt 1.000000 0.000000
vt 0.500000 0.500000
vt 0.000000 1.000000
vt 1.000000 1.000000
vt 0.500000 0.500000
vt 0.000000 0.000000
vt 1.000000 0.000000
vt 0.500000 0.500000
vt 0.000000 1.000000
vt 1.000000 1.000000
vt 0.500000 0.500000
vt 0.000000 0.000000
vt 1.000000 0.000000
vt 0.500000 0.500000
vt 0.000000 1.000000
vt 1.000000 1.000000
vt 0.000000 0.500000
vt 0.480000 1.000000
vt 1.000000 0.500000
vt 0.480000 0.000000
vt 0.000000 0.000000
vt 1.000000 0.000000
vt 1.000000 1.000000
vt 0.000000 1.000000
vt 0.000000 0.000000
vt 1.000000 0.000000
vt 1.000000 1.000000
vt 0.000000 1.000000
vt 0.000000 0.000000
vt 1.000000 0.000000
vt 1.000000 1.000000
vt 0.000000 1.000000
vt 0.000000 0.000000
vt 1.000000 0.000000
vt 1.000000 1.000000
vt 0.000000 1.000000
vt 0.000000 0.000000
vt 1.000000 0.000000
vt 1.000000 1.000000
vt 0.000000 1.000000
vt 0.500000 0.500000
vt 0.000000 0.000000
vt 1.000000 0.000000
vt 0.500000 0.500000
vt 0.000000 1.000000
vt 1.000000 1.000000
vt 0.500000 0.500000
vt 0.000000 0.000000
vt 1.000000 0.000000
vt 0.500000 0.500000
vt 0.000000 1.000000
vt 1.000000 1.000000
vt 0.500000 0.500000
vt 0.000000 0.000000
vt 1.000000 0.000000
vt 0.500000 0.500000
vt 0.000000 1.000000
vt 1.000000 1.000000
vt 0.500000 0.500000
vt 0.000000 0.000000
vt 1.000000 0.000000
vt 0.500000 0.500000
vt 0.000000 1.000000
vt 1.000000 1.000000
vt 0.500000 0.500000
vt 0.000000 0.000000
vt 1.000000 0.000000
vt 0.500000 0.500000
vt 0.000000 1.000000
vt 1.000000 1.000000
vt 0.000000 0.000000
vt 1.000000 0.000000
vt 1.000000 1.000000
vt 0.000000 1.000000
vt 0.000000 0.000000
vt 1.000000 0.000000
vt 1.000000 1.000000
vt 0.000000 1.000000
vt 0.000000 0.000000
vt 1.000000 0.000000
vt 1.000000 1.000000
vt 0.000000 1.000000
vt 0.000000 0.000000
vt 1.000000 0.000000
vt 1.000000 1.000000
vt 0.000000 1.000000
vt 0.000000 0.000000
vt 1.000000 0.000000
vt 1.000000 1.000000
vt 0.000000 1.000000
vt 0.500000 0.500000
vt 0.000000 0.000000
vt 1.000000 0.000000
vt 0.500000 0.500000
vt 0.000000 1.000000
vt 1.000000 1.000000
vt 0.500000 0.500000
vt 0.000000 0.000000
vt 1.000000 0.000000
vt 0.500000 0.500000
vt 0.000000 1.000000
vt 1.000000 1.000000
vt 0.500000 0.500000
vt 0.000000 0.000000
vt 1.000000 0.000000
vt 0.500000 0.500000
vt 0.000000 1.000000
vt 1.000000 1.000000
vt 0.500000 0.500000
vt 0.000000 0.000000
vt 1.000000 0.000000
vt 0.500000 0.500000
vt 0.000000 1.000000
vt 1.000000 1.000000
vt 0.500000 0.500000
vt 0.000000 0.000000
vt 1.000000 0.000000
vt 0.500000 0.500000
vt 0.000000 1.000000
vt 1.000000 1.000000
vt 0.000000 0.500000
vt 0.480000 1.000000
vt 1.000000 0.500000
vt 0.480000 0.000000
vt 0.000000 0.000000
vt 1.000000 0.000000
vt 1.000000 1.000000
vt 0.000000 1.000000
vt 0.000000 0.000000
vt 1.000000 0.000000
vt 1.000000 1.000000
vt 0.000000 1.000000
vt 0.000000 0.000000
vt 1.000000 0.000000
vt 1.000000 1.000000
vt 0.000000 1.000000
vt 0.000000 0.000000
vt 1.000000 0.000000
vt 1.000000 1.000000
vt 0.000000 1.000000
vt 0.000000 0.000000
vt 1.000000 0.000000
vt 1.000000 1.000000
vt 0.000000 1.000000
vt 0.500000 0.500000
vt 0.000000 0.000000
vt 1.000000 0.000000
vt 0.500000 0.500000
vt 0.000000 1.000000
vt 1.000000 1.000000
vt 0.500000 0.500000
vt 0.000000 0.000000
vt 1.000000 0.000000
vt 0.500000 0.500000
vt 0.000000 1.000000
vt 1.000000 1.000000
vt 0.500000 0.500000
vt 0.000000 0.000000
vt 1.000000 0.000000
vt 0.500000 0.500000
vt 0.000000 1.000000
vt 1.000000 1.000000
vt 0.500000 0.500000
vt 0.000000 0.000000
vt 1.000000 0.000000
vt 0.500000 0.500000
vt 0.000000 1.000000
vt 1.000000 1.000000
vt 0.500000 0.500000
vt 0.000000 0.000000
vt 1.000000 0.000000
vt 0.500000 0.500000
vt 0.000000 1.000000
vt 1.000000 1.000000
vt 0.000000 0.000000
vt 1.000000 0.000000
vt 1.000000 1.000000
vt 0.000000 1.000000
vt 0.000000 0.000000
vt 1.000000 0.000000
vt 1.000000 1.000000
vt 0.000000 1.000000
vt 0.000000 0.000000
vt 1.000000 0.000000
vt 1.000000 1.000000
vt 0.000000 1.000000
vt 0.000000 0.000000
vt 1.000000 0.000000
vt 1.000000 1.000000
vt 0.000000 1.000000
vt 0.000000 0.000000
vt 1.000000 0.000000
vt 1.000000 1.000000
vt 0.000000 1.000000
vt 0.500000 0.500000
vt 0.000000 0.000000
vt 1.000000 0.000000
vt 0.500000 0.500000
vt 0.000000 1.000000
vt 1.000000 1.000000
vt 0.500000 0.500000
vt 0.000000 0.000000
vt 1.000000 0.000000
vt 0.500000 0.500000
vt 0.000000 1.000000
vt 1.000000 1.000000
vt 0.500000 0.500000
vt 0.000000 0.000000
vt 1.000000 0.000000
vt 0.500000 0.500000
vt 0.000000 1.000000
vt 1.000000 1.000000
vt 0.500000 0.500000
vt 0.000000 0.000000
vt 1.000000 0.000000
vt 0.500000 0.500000
vt 0.000000 1.000000
vt 1.000000 1.000000
vt 0.500000 0.500000
vt 0.000000 0.000000
vt 1.000000 0.000000
vt 0.500000 0.500000
vt 0.000000 1.000000
vt 1.000000 1.000000
vt 0.000000 0.000000
vt 1.000000 0.000000
vt 1.000000 1.000000
vt 0.000000 1.000000
vt 0.000000 0.000000
vt 1.000000 0.000000
vt 1.000000 1.000000
vt 0.000000 1.000000
vt 0.000000 0.000000
vt 1.000000 0.000000
vt 1.000000 1.000000
vt 0.000000 1.000000
vt 0.000000 0.000000
vt 1.000000 0.000000
vt 1.000000 1.000000
vt 0.000000 1.000000
vt 0.000000 0.000000
vt 1.000000 0.000000
vt 1.000000 1.000000
vt 0.000000 1.000000
vt 0.000000 0.000000
vt 1.000000 0.000000
vt 1.000000 1.000000
vt 0.000000 1.000000
vt 0.000000 0.000000
vt 1.000000 0.000000
vt 1.000000 1.000000
vt 0.000000 1.000000
vt 0.000000 0.000000
vt 1.000000 0.000000
vt 1.000000 1.000000
vt 0.000000 1.000000
vt 0.000000 0.000000
vt 1.000000 0.000000
vt 1.000000 1.000000
vt 0.000000 1.000000
vt 0.000000 0.000000
vt 1.000000 0.000000
vt 1.000000 1.000000
vt 0.000000 1.000000
vt 0.000000 0.000000
vt 1.000000 0.000000
vt 1.000000 1.000000
vt 0.000000 1.000000
vt 0.000000 0.000000
vt 1.000000 0.000000
vt 1.000000 1.000000
vt 0.000000 1.000000
vt 0.000000 0.000000
vt 1.000000 0.000000
vt 1.000000 1.000000
vt 0.000000 1.000000
vt 0.000000 0.000000
vt 1.000000 0.000000
vt 1.000000 1.000000
vt 0.000000 1.000000
vt 0.000000 0.000000
vt 1.000000 0.000000
vt 1.000000 1.000000
vt 0.000000 1.000000
vt 0.000000 0.000000
vt 1.000000 0.000000
vt 1.000000 1.000000
vt 0.000000 1.000000
vt 0.000000 0.000000
vt 1.000000 0.000000
vt 1.000000 1.000000
vt 0.000000 1.000000
vt 0.000000 0.000000
vt 1.000000 0.000000
vt 1.000000 1.000000
vt 0.000000 1.000000
vt 0.000000 0.000000
vt 1.000000 0.000000
vt 1.000000 1.000000
vt 0.000000 1.000000
vt 0.000000 0.000000
vt 1.000000 0.000000
vt 1.000000 1.000000
vt 0.000000 1.000000
vt 0.000000 0.000000
vt 1.000000 0.000000
vt 1.000000 1.000000
vt 0.000000 1.000000
vt 0.000000 0.000000
vt 1.000000 0.000000
vt 1.000000 1.000000
vt 0.000000 1.000000
vt 0.000000 0.000000
vt 1.000000 0.000000
vt 1.000000 1.000000
vt 0.000000 1.000000
vt 0.000000 0.000000
vt 1.000000 0.000000
vt 1.000000 1.000000
vt 0.000000 1.000000
vt 0.000000 0.000000
vt 1.000000 0.000000
vt 1.000000 1.000000
vt 0.000000 1.000000
vt 0.000000 0.000000
vt 1.000000 0.000000
vt 1.000000 1.000000
vt 0.000000 1.000000
vt 0.000000 0.000000
vt 1.000000 0.000000
vt 1.000000 1.000000
vt 0.000000 1.000000
vt 0.000000 0.000000
vt 1.000000 0.000000
vt 1.000000 1.000000
vt 0.000000 1.000000
vt 0.000000 0.000000
vt 1.000000 0.000000
vt 1.000000 1.000000
vt 0.000000 1.000000
vt 0.000000 0.000000
vt 1.000000 0.000000
vt 1.000000 1.000000
vt 0.000000 1.000000
vt 0.000000 0.000000
vt 1.000000 0.000000
vt 1.000000 1.000000
vt 0.000000 1.000000
vt 0.000000 0.000000
vt 1.000000 0.000000
vt 1.000000 1.000000
vt 0.000000 1.000000
vt 0.000000 0.000000
vt 1.000000 0.000000
vt 1.000000 1.000000
vt 0.000000 1.000000
vt 0.000000 0.000000
vt 1.000000 0.000000
vt 1.000000 1.000000
vt 0.000000 1.000000
vt 0.000000 0.000000
vt 1.000000 0.000000
vt 1.000000 1.000000
vt 0.000000 1.000000
vt 0.000000 0.000000
vt 1.000000 0.000000
vt 1.000000 1.000000
vt 0.000000 1.000000
vt 0.000000 0.000000
vt 1.000000 0.000000
vt 1.000000 1.000000
vt 0.000000 1.000000
vt 0.000000 0.000000
vt 1.000000 0.000000
vt 1.000000 1.000000
vt 0.000000 1.000000
vt 0.000000 0.000000
vt 1.000000 0.000000
vt 1.000000 1.000000
vt 0.000000 1.000000
vt 0.000000 0.000000
vt 1.000000 0.000000
vt 1.000000 1.000000
vt 0.000000 1.000000
vt 0.000000 0.000000
vt 1.000000 0.000000
vt 1.000000 1.000000
vt 0.000000 1.000000
vt 0.000000 0.000000
vt 1.000000 0.000000
vt 1.000000 1.000000
vt 0.000000 1.000000
vt 0.000000 0.000000
vt 1.000000 0.000000
vt 1.000000 1.000000
vt 0.000000 1.000000
vt 0.000000 0.000000
vt 1.000000 0.000000
vt 1.000000 1.000000
vt 0.000000 1.000000
vt 0.000000 0.000000
vt 1.000000 0.000000
vt 1.000000 1.000000
vt 0.000000 1.000000
vt 0.000000 0.000000
vt 1.000000 0.000000
vt 1.000000 1.000000
vt 0.000000 1.000000
vt 0.000000 0.000000
vt 1.000000 0.000000
vt 1.000000 1.000000
vt 0.000000 1.000000
vt 0.000000 0.000000
vt 1.000000 0.000000
vt 1.000000 1.000000
vt 0.000000 1.000000
vt 0.000000 0.000000
vt 1.000000 0.000000
vt 1.000000 1.000000
vt 0.000000 1.000000
vt 0.000000 0.000000
vt 1.000000 0.000000
vt 1.000000 1.000000
vt 0.000000 1.000000
vt 0.000000 0.000000
vt 1.000000 0.000000
vt 1.000000 1.000000
vt 0.000000 1.000000
vt 0.000000 0.000000
vt 1.000000 0.000000
vt 1.000000 1.000000
vt 0.000000 1.000000
vt 0.000000 0.000000
vt 1.000000 0.000000
vt 1.000000 1.000000
vt 0.000000 1.000000
vt 0.000000 0.000000
vt 1.000000 0.000000
vt 1.000000 1.000000
vt 0.000000 1.000000
vt 0.000000 0.000000
vt 1.000000 0.000000
vt 1.000000 1.000000
vt 0.000000 1.000000
vt 0.000000 0.000000
vt 1.000000 0.000000
vt 1.000000 1.000000
vt 0.000000 1.000000
vt 0.000000 0.000000
vt 1.000000 0.000000
vt 1.000000 1.000000
vt 0.000000 1.000000
vt 0.000000 0.000000
vt 1.000000 0.000000
vt 1.000000 1.000000
vt 0.000000 1.000000
vt 0.000000 0.000000
vt 1.000000 0.000000
vt 1.000000 1.000000
vt 0.000000 1.000000
vt 0.000000 0.000000
vt 1.000000 0.000000
vt 1.000000 1.000000
vt 0.000000 1.000000
vt 0.000000 0.000000
vt 1.000000 0.000000
vt 1.000000 1.000000
vt 0.000000 1.000000
vt 0.000000 0.000000
vt 1.000000 0.000000
vt 1.000000 1.000000
vt 0.000000 1.000000
vt 0.000000 0.000000
vt 1.000000 0.000000
vt 1.000000 1.000000
vt 0.000000 1.000000
vt 0.000000 0.000000
vt 1.000000 0.000000
vt 1.000000 1.000000
vt 0.000000 1.000000
vt 0.000000 0.000000
vt 1.000000 0.000000
vt 1.000000 1.000000
vt 0.000000 1.000000
vt 0.000000 0.000000
vt 1.000000 0.000000
vt 1.000000 1.000000
vt 0.000000 1.000000
vt 0.000000 0.000000
vt 1.000000 0.000000
vt 1.000000 1.000000
vt 0.000000 1.000000
vt 0.000000 0.000000
vt 1.000000 0.000000
vt 1.000000 1.000000
vt 0.000000 1.000000
vt 0.000000 0.000000
vt 1.000000 0.000000
vt 1.000000 1.000000
vt 0.000000 1.000000
vt 0.500000 0.500000
vt 0.000000 0.000000
vt 1.000000 0.000000
vt 0.500000 0.500000
vt 0.000000 1.000000
vt 1.000000 1.000000
vt 0.500000 0.500000
vt 0.000000 0.000000
vt 1.000000 0.000000
vt 0.500000 0.500000
vt 0.000000 1.000000
vt 1.000000 1.000000
vt 0.500000 0.500000
vt 0.000000 0.000000
vt 1.000000 0.000000
vt 0.500000 0.500000
vt 0.000000 1.000000
vt 1.000000 1.000000
vt 0.500000 0.500000
vt 0.000000 0.000000
vt 1.000000 0.000000
vt 0.500000 0.500000
vt 0.000000 1.000000
vt 1.000000 1.000000
vt 0.500000 0.500000
vt 0.000000 0.000000
vt 1.000000 0.000000
vt 0.500000 0.500000
vt 0.000000 1.000000
vt 1.000000 1.000000
vt 0.000000 0.500000
vt 0.480000 1.000000
vt 1.000000 0.500000
vt 0.480000 0.000000
vt 0.000000 0.000000
vt 1.000000 0.000000
vt 1.000000 1.000000
vt 0.000000 1.000000
vt 0.000000 0.000000
vt 1.000000 0.000000
vt 1.000000 1.000000
vt 0.000000 1.000000
vt 0.000000 0.000000
vt 1.000000 0.000000
vt 1.000000 1.000000
vt 0.000000 1.000000
vt 0.000000 0.000000
vt 1.000000 0.000000
vt 1.000000 1.000000
vt 0.000000 1.000000
vt 0.000000 0.000000
vt 1.000000 0.000000
vt 1.000000 1.000000
vt 0.000000 1.000000
vt 0.500000 0.500000
vt 0.000000 0.000000
vt 1.000000 0.000000
vt 0.500000 0.500000
vt 0.000000 1.000000
vt 1.000000 1.000000
vt 0.500000 0.500000
vt 0.000000 0.000000
vt 1.000000 0.000000
vt 0.500000 0.500000
vt 0.000000 1.000000
vt 1.000000 1.000000
vt 0.500000 0.500000
vt 0.000000 0.000000
vt 1.000000 0.000000
vt 0.500000 0.500000
vt 0.000000 1.000000
vt 1.000000 1.000000
vt 0.500000 0.500000
vt 0.000000 0.000000
vt 1.000000 0.000000
vt 0.500000 0.500000
vt 0.000000 1.000000
vt 1.000000 1.000000
vt 0.500000 0.500000
vt 0.000000 0.000000
vt 1.000000 0.000000
vt 0.500000 0.500000
vt 0.000000 1.000000
vt 1.000000 1.000000
usemtl Leaf
f 1/1 2/2 3/3
f 1/1 3/3 4/4
usemtl Wood
f 5/5 6/6 7/7
f 5/5 7/7 8/8
f 9/9 10/10 11/11
f 9/9 11/11 12/12
f 13/13 14/14 15/15
f 13/13 15/15 16/16
f 17/17 18/18 19/19
f 17/17 19/19 20/20
f 21/21 22/22 23/23
f 21/21 23/23 24/24
f 25/25 26/26 27/27
f 28/28 29/29 30/30
f 31/31 32/32 33/33
f 34/34 35/35 36/36
f 37/37 38/38 39/39
f 40/40 41/41 42/42
f 43/43 44/44 45/45
f 46/46 47/47 48/48
f 49/49 50/50 51/51
f 52/52 53/53 54/54
f 55/55 56/56 57/57
f 55/55 57/57 58/58
f 59/59 60/60 61/61
f 59/59 61/61 62/62
f 63/63 64/64 65/65
f 63/63 65/65 66/66
f 67/67 68/68 69/69
f 67/67 69/69 70/70
f 71/71 72/72 73/73
f 71/71 73/73 74/74
f 75/75 76/76 77/77
f 78/78 79/79 80/80
f 81/81 82/82 83/83
f 84/84 85/85 86/86
f 87/87 88/88 89/89
f 90/90 91/91 92/92
f 93/93 94/94 95/95
f 96/96 97/97 98/98
f 99/99 100/100 101/101
f 102/102 103/103 104/104
usemtl Leaf
f 105/105 106/106 107/107
f 105/105 107/107 108/108
usemtl Wood
f 109/109 110/110 111/111
f 109/109 111/111 112/112
f 113/113 114/114 115/115
f 113/113 115/115 116/116
f 117/117 118/118 119/119
f 117/117 119/119 120/120
f 121/121 122/122 123/123
f 121/121 123/123 124/124
f 125/125 126/126 127/127
f 125/125 127/127 128/128
f 129/129 130/130 131/131
f 132/132 133/133 134/134
f 135/135 136/136 137/137
f 138/138 139/139 140/140
f 141/141 142/142 143/143
f 144/144 145/145 146/146
f 147/147 148/148 149/149
f 150/150 151/151 152/152
f 153/153 154/154 155/155
f 156/156 157/157 158/158
f 159/159 160/160 161/161
f 159/159 161/161 162/162
f 163/163 164/164 165/165
f 163/163 165/165 166/166
f 167/167 168/168 169/169
f 167/167 169/169 170/170
f 171/171 172/172 173/173
f 171/171 173/173 174/174
f 175/175 176/176 177/177
f 175/175 177/177 178/178
f 179/179 180/180 181/181
f 182/182 183/183 184/184
f 185/185 186/186 187/187
f 188/188 189/189 190/190
f 191/191 192/192 193/193
f 194/194 195/195 196/196
f 197/197 198/198 199/199
f 200/200 201/201 202/202
f 203/203 204/204 205/205
f 206/206 207/207 208/208
usemtl Leaf
f 209/209 210/210 211/211
f 209/209 211/211 212/212
usemtl Wood
f 213/213 214/214 215/215
f 213/213 215/215 216/216
f 217/217 218/218 219/219
f 217/217 219/219 220/220
f 221/221 222/222 223/223
f 221/221 223/223 224/224
f 225/225 226/226 227/227
f 225/225 227/227 228/228
f 229/229 230/230 231/231
f 229/229 231/231 232/232
f 233/233 234/234 235/235
f 236/236 237/237 238/238
f 239/239 240/240 241/241
f 242/242 243/243 244/244
f 245/245 246/246 247/247
f 248/248 249/249 250/250
f 251/251 252/252 253/253
f 254/254 255/255 256/256
f 257/257 258/258 259/259
f 260/260 261/261 262/262
f 263/263 264/264 265/265
f 263/263 265/265 266/266
f 267/267 268/268 269/269
f 267/267 269/269 270/270
f 271/271 272/272 273/273
f 271/271 273/273 274/274
f 275/275 276/276 277/277
f 275/275 277/277 278/278
f 279/279 280/280 281/281
f 279/279 281/281 282/282
f 283/283 284/284 285/285
f 286/286 287/287 288/288
f 289/289 290/290 291/291
f 292/292 293/293 294/294
f 295/295 296/296 297/297
f 298/298 299/299 300/300
f 301/301 302/302 303/303
f 304/304 305/305 306/306
f 307/307 308/308 309/309
f 310/310 311/311 312/312
usemtl Leaf
f 313/313 314/314 315/315
f 313/313 315/315 316/316
usemtl Wood
f 317/317 318/318 319/319
f 317/317 319/319 320/320
f 321/321 322/322 323/323
f 321/321 323/323 324/324
f 325/325 326/326 327/327
f 325/325 327/327 328/328
f 329/329 330/330 331/331
f 329/329 331/331 332/332
f 333/333 334/334 335/335
f 333/333 335/335 336/336
f 337/337 338/338 339/339
f 340/340 341/341 342/342
f 343/343 344/344 345/345
f 346/346 347/347 348/348
f 349/349 350/350 351/351
f 352/352 353/353 354/354
f 355/355 356/356 357/357
f 358/358 359/359 360/360
f 361/361 362/362 363/363
f 364/364 365/365 366/366
f 367/367 368/368 369/369
f 367/367 369/369 370/370
f 371/371 372/372 373/373
f 371/371 373/373 374/374
f 375/375 376/376 377/377
f 375/375 377/377 378/378
f 379/379 380/380 381/381
f 379/379 381/381 382/382
f 383/383 384/384 385/385
f 383/383 385/385 386/386
f 387/387 388/388 389/389
f 390/390 391/391 392/392
f 393/393 394/394 395/395
f 396/396 397/397 398/398
f 399/399 400/400 401/401
f 402/402 403/403 404/404
f 405/405 406/406 407/407
f 408/408 409/409 410/410
f 411/411 412/412 413/413
f 414/414 415/415 416/416
usemtl Leaf
f 417/417 418/418 419/419
f 417/417 419/419 420/420
usemtl Wood
f 421/421 422/422 423/423
f 421/421 423/423 424/424
f 425/425 426/426 427/427
f 425/425 427/427 428/428
f 429/429 430/430 431/431
f 429/429 431/431 432/432
f 433/433 434/434 435/435
f 433/433 435/435 436/436
f 437/437 438/438 439/439
f 437/437 439/439 440/440
f 441/441 442/442 443/443
f 444/444 445/445 446/446
f 447/447 448/448 449/449
f 450/450 451/451 452/452
f 453/453 454/454 455/455
f 456/456 457/457 458/458
f 459/459 460/460 461/461
f 462/462 463/463 464/464
f 465/465 466/466 467/467
f 468/468 469/469 470/470
f 471/471 472/472 473/473
f 471/471 473/473 474/474
f 475/475 476/476 477/477
f 475/475 477/477 478/478
f 479/479 480/480 481/481
f 479/479 481/481 482/482
f 483/483 484/484 485/485
f 483/483 485/485 486/486
f 487/487 488/488 489/489
f 487/487 489/489 490/490
f 491/491 492/492 493/493
f 494/494 495/495 496/496
f 497/497 498/498 499/499
f 500/500 501/501 502/502
f 503/503 504/504 505/505
f 506/506 507/507 508/508
f 509/509 510/510 511/511
f 512/512 513/513 514/514
f 515/515 516/516 517/517
f 518/518 519/519 520/520
usemtl Rope
f 521/521 522/522 523/523
f 521/521 523/523 524/524
f 525/525 526/526 527/527
f 525/525 527/527 528/528
f 529/529 530/530 531/531
f 529/529 531/531 532/532
f 533/533 534/534 535/535
f 533/533 535/535 536/536
f 537/537 538/538 539/539
f 537/537 539/539 540/540
f 541/541 542/542 543/543
f 541/541 543/543 544/544
f 545/545 546/546 547/547
f 545/545 547/547 548/548
f 549/549 550/550 551/551
f 549/549 551/551 552/552
f 553/553 554/554 555/555
f 553/553 555/555 556/556
f 557/557 558/558 559/559
f 557/557 559/559 560/560
f 561/561 562/562 563/563
f 561/561 563/563 564/564
f 565/565 566/566 567/567
f 565/565 567/567 568/568
f 569/569 570/570 571/571
f 569/569 571/571 572/572
f 573/573 574/574 575/575
f 573/573 575/575 576/576
f 577/577 578/578 579/579
f 577/577 579/579 580/580
f 581/581 582/582 583/583
f 581/581 583/583 584/584
f 585/585 586/586 587/587
f 585/585 587/587 588/588
f 589/589 590/590 591/591
f 589/589 591/591 592/592
f 593/593 594/594 595/595
f 593/593 595/595 596/596
f 597/597 598/598 599/599
f 597/597 599/599 600/600
f 601/601 602/602 603/603
f 601/601 603/603 604/604
f 605/605 606/606 607/607
f 605/605 607/607 608/608
f 609/609 610/610 611/611
f 609/609 611/611 612/612
f 613/613 614/614 615/615
f 613/613 615/615 616/616
f 617/617 618/618 619/619
f 617/617 619/619 620/620
f 621/621 622/622 623/623
f 621/621 623/623 624/624
f 625/625 626/626 627/627
f 625/625 627/627 628/628
f 629/629 630/630 631/631
f 629/629 631/631 632/632
f 633/633 634/634 635/635
f 633/633 635/635 636/636
f 637/637 638/638 639/639
f 637/637 639/639 640/640
f 641/641 642/642 643/643
f 641/641 643/643 644/644
f 645/645 646/646 647/647
f 645/645 647/647 648/648
f 649/649 650/650 651/651
f 649/649 651/651 652/652
f 653/653 654/654 655/655
f 653/653 655/655 656/656
f 657/657 658/658 659/659
f 657/657 659/659 660/660
f 661/661 662/662 663/663
f 661/661 663/663 664/664
f 665/665 666/666 667/667
f 665/665 667/667 668/668
f 669/669 670/670 671/671
f 669/669 671/671 672/672
f 673/673 674/674 675/675
f 673/673 675/675 676/676
f 677/677 678/678 679/679
f 677/677 679/679 680/680
f 681/681 682/682 683/683
f 681/681 683/683 684/684
f 685/685 686/686 687/687
f 685/685 687/687 688/688
f 689/689 690/690 691/691
f 689/689 691/691 692/692
f 693/693 694/694 695/695
f 693/693 695/695 696/696
f 697/697 698/698 699/699
f 697/697 699/699 700/700
f 701/701 702/702 703/703
f 701/701 703/703 704/704
f 705/705 706/706 707/707
f 705/705 707/707 708/708
f 709/709 710/710 711/711
f 709/709 711/711 712/712
f 713/713 714/714 715/715
f 713/713 715/715 716/716
f 717/717 718/718 719/719
f 717/717 719/719 720/720
f 721/721 722/722 723/723
f 721/721 723/723 724/724
f 725/725 726/726 727/727
f 725/725 727/727 728/728
f 729/729 730/730 731/731
f 729/729 731/731 732/732
f 733/733 734/734 735/735
f 733/733 735/735 736/736
f 737/737 738/738 739/739
f 737/737 739/739 740/740
f 741/741 742/742 743/743
f 741/741 743/743 744/744
f 745/745 746/746 747/747
f 745/745 747/747 748/748
f 749/749 750/750 751/751
f 749/749 751/751 752/752
f 753/753 754/754 755/755
f 753/753 755/755 756/756
f 757/757 758/758 759/759
f 757/757 759/759 760/760
f 761/761 762/762 763/763
f 761/761 763/763 764/764
f 765/765 766/766 767/767
f 765/765 767/767 768/768
f 769/769 770/770 771/771
f 769/769 771/771 772/772
f 773/773 774/774 775/775
f 773/773 775/775 776/776
f 777/777 778/778 779/779
f 777/777 779/779 780/780
f 781/781 782/782 783/783
f 781/781 783/783 784/784
f 785/785 786/786 787/787
f 785/785 787/787 788/788
f 789/789 790/790 791/791
f 789/789 791/791 792/792
f 793/793 794/794 795/795
f 793/793 795/795 796/796
f 797/797 798/798 799/799
f 800/800 801/801 802/802
f 803/803 804/804 805/805
f 806/806 807/807 808/808
f 809/809 810/810 811/811
f 812/812 813/813 814/814
f 815/815 816/816 817/817
f 818/818 819/819 820/820
f 821/821 822/822 823/823
f 824/824 825/825 826/826
usemtl Leaf
f 827/827 828/828 829/829
f 827/827 829/829 830/830
usemtl Wood
f 831/831 832/832 833/833
f 831/831 833/833 834/834
f 835/835 836/836 837/837
f 835/835 837/837 838/838
f 839/839 840/840 841/841
f 839/839 841/841 842/842
f 843/843 844/844 845/845
f 843/843 845/845 846/846
f 847/847 848/848 849/849
f 847/847 849/849 850/850
f 851/851 852/852 853/853
f 854/854 855/855 856/856
f 857/857 858/858 859/859
f 860/860 861/861 862/862
f 863/863 864/864 865/865
f 866/866 867/867 868/868
f 869/869 870/870 871/871
f 872/872 873/873 874/874
f 875/875 876/876 877/877
f 878/878 879/879 880/880
