mtllib ../../Materials/project_oen.mtl
o en-009_broadleaf_bush_set__medium
v 0.000000 0.018662 0.012931
v 0.010481 0.015242 0.006042
v 0.230015 0.580791 0.062725
v 0.222469 0.583254 0.067685
v 0.010481 0.015242 0.006042
v 0.010481 0.016580 -0.006889
v 0.230015 0.581754 0.053414
v 0.230015 0.580791 0.062725
v 0.010481 0.016580 -0.006889
v 0.000000 0.021338 -0.012931
v 0.222469 0.585180 0.049064
v 0.230015 0.581754 0.053414
v 0.000000 0.021338 -0.012931
v -0.010481 0.024758 -0.006042
v 0.214923 0.587642 0.054024
v 0.222469 0.585180 0.049064
v -0.010481 0.024758 -0.006042
v -0.010481 0.023420 0.006889
v 0.214923 0.586679 0.063334
v 0.214923 0.587642 0.054024
v -0.010481 0.023420 0.006889
v 0.000000 0.018662 0.012931
v 0.222469 0.583254 0.067685
v 0.214923 0.586679 0.063334
v 0.000000 0.020000 0.000000
v 0.000000 0.018662 0.012931
v 0.010481 0.015242 0.006042
v 0.010481 0.015242 0.006042
v 0.010481 0.016580 -0.006889
v 0.010481 0.016580 -0.006889
v 0.000000 0.021338 -0.012931
v 0.000000 0.021338 -0.012931
v -0.010481 0.024758 -0.006042
v -0.010481 0.024758 -0.006042
v -0.010481 0.023420 0.006889
v -0.010481 0.023420 0.006889
v 0.000000 0.018662 0.012931
v 0.222469 0.584217 0.058374
v 0.222469 0.583254 0.067685
v 0.230015 0.580791 0.062725
v 0.230015 0.580791 0.062725
v 0.230015 0.581754 0.053414
v 0.230015 0.581754 0.053414
v 0.222469 0.585180 0.049064
v 0.222469 0.585180 0.049064
v 0.214923 0.587642 0.054024
v 0.214923 0.587642 0.054024
v 0.214923 0.586679 0.063334
v 0.214923 0.586679 0.063334
v 0.222469 0.583254 0.067685
v 0.000000 0.016148 0.012416
v 0.010779 0.014969 0.005245
v 0.171819 0.535946 0.164974
v 0.164058 0.536794 0.170138
v 0.010779 0.014969 0.005245
v 0.010779 0.018821 -0.007171
v 0.171819 0.538719 0.156035
v 0.171819 0.535946 0.164974
v 0.010779 0.018821 -0.007171
v 0.000000 0.023852 -0.012416
v 0.164058 0.542341 0.152258
v 0.171819 0.538719 0.156035
v 0.000000 0.023852 -0.012416
v -0.010779 0.025031 -0.005245
v 0.156298 0.543190 0.157422
v 0.164058 0.542341 0.152258
v -0.010779 0.025031 -0.005245
v -0.010779 0.021179 0.007171
v 0.156298 0.540416 0.166361
v 0.156298 0.543190 0.157422
v -0.010779 0.021179 0.007171
v 0.000000 0.016148 0.012416
v 0.164058 0.536794 0.170138
v 0.156298 0.540416 0.166361
v 0.000000 0.020000 0.000000
v 0.000000 0.016148 0.012416
v 0.010779 0.014969 0.005245
v 0.010779 0.014969 0.005245
v 0.010779 0.018821 -0.007171
v 0.010779 0.018821 -0.007171
v 0.000000 0.023852 -0.012416
v 0.000000 0.023852 -0.012416
v -0.010779 0.025031 -0.005245
v -0.010779 0.025031 -0.005245
v -0.010779 0.021179 0.007171
v -0.010779 0.021179 0.007171
v 0.000000 0.016148 0.012416
v 0.164058 0.539568 0.161198
v 0.164058 0.536794 0.170138
v 0.171819 0.535946 0.164974
v 0.171819 0.535946 0.164974
v 0.171819 0.538719 0.156035
v 0.171819 0.538719 0.156035
v 0.164058 0.542341 0.152258
v 0.164058 0.542341 0.152258
v 0.156298 0.543190 0.157422
v 0.156298 0.543190 0.157422
v 0.156298 0.540416 0.166361
v 0.156298 0.540416 0.166361
v 0.164058 0.536794 0.170138
v 0.000000 0.014799 0.011914
v 0.011258 0.017501 0.006001
v 0.002448 0.544909 0.234251
v -0.005657 0.542964 0.238509
v 0.011258 0.017501 0.006001
v 0.011258 0.022702 -0.005913
v 0.002448 0.548654 0.225673
v 0.002448 0.544909 0.234251
v 0.011258 0.022702 -0.005913
v 0.000000 0.025201 -0.011914
v -0.005657 0.550453 0.221352
v 0.002448 0.548654 0.225673
v 0.000000 0.025201 -0.011914
v -0.011258 0.022499 -0.006001
v -0.013763 0.548508 0.225609
v -0.005657 0.550453 0.221352
v -0.011258 0.022499 -0.006001
v -0.011258 0.017298 0.005913
v -0.013763 0.544763 0.234188
v -0.013763 0.548508 0.225609
v -0.011258 0.017298 0.005913
v 0.000000 0.014799 0.011914
v -0.005657 0.542964 0.238509
v -0.013763 0.544763 0.234188
v 0.000000 0.020000 0.000000
v 0.000000 0.014799 0.011914
v 0.011258 0.017501 0.006001
v 0.011258 0.017501 0.006001
v 0.011258 0.022702 -0.005913
v 0.011258 0.022702 -0.005913
v 0.000000 0.025201 -0.011914
v 0.000000 0.025201 -0.011914
v -0.011258 0.022499 -0.006001
v -0.011258 0.022499 -0.006001
v -0.011258 0.017298 0.005913
v -0.011258 0.017298 0.005913
v 0.000000 0.014799 0.011914
v -0.005657 0.546709 0.229930
v -0.005657 0.542964 0.238509
v 0.002448 0.544909 0.234251
v 0.002448 0.544909 0.234251
v 0.002448 0.548654 0.225673
v 0.002448 0.548654 0.225673
v -0.005657 0.550453 0.221352
v -0.005657 0.550453 0.221352
v -0.013763 0.548508 0.225609
v -0.013763 0.548508 0.225609
v -0.013763 0.544763 0.234188
v -0.013763 0.544763 0.234188
v -0.005657 0.542964 0.238509
v 0.000000 0.016459 0.012509
v 0.010506 0.022122 0.007356
v -0.180206 0.490782 0.138121
v -0.187770 0.486705 0.141830
v 0.010506 0.022122 0.007356
v 0.010506 0.025663 -0.005153
v -0.180206 0.493331 0.129114
v -0.180206 0.490782 0.138121
v 0.010506 0.025663 -0.005153
v 0.000000 0.023541 -0.012509
v -0.187770 0.491803 0.123818
v -0.180206 0.493331 0.129114
v 0.000000 0.023541 -0.012509
v -0.010506 0.017878 -0.007356
v -0.195335 0.487726 0.127528
v -0.187770 0.491803 0.123818
v -0.010506 0.017878 -0.007356
v -0.010506 0.014337 0.005153
v -0.195335 0.485177 0.136534
v -0.195335 0.487726 0.127528
v -0.010506 0.014337 0.005153
v 0.000000 0.016459 0.012509
v -0.187770 0.486705 0.141830
v -0.195335 0.485177 0.136534
v 0.000000 0.020000 0.000000
v 0.000000 0.016459 0.012509
v 0.010506 0.022122 0.007356
v 0.010506 0.022122 0.007356
v 0.010506 0.025663 -0.005153
v 0.010506 0.025663 -0.005153
v 0.000000 0.023541 -0.012509
v 0.000000 0.023541 -0.012509
v -0.010506 0.017878 -0.007356
v -0.010506 0.017878 -0.007356
v -0.010506 0.014337 0.005153
v -0.010506 0.014337 0.005153
v 0.000000 0.016459 0.012509
v -0.187770 0.489254 0.132824
v -0.187770 0.486705 0.141830
v -0.180206 0.490782 0.138121
v -0.180206 0.490782 0.138121
v -0.180206 0.493331 0.129114
v -0.180206 0.493331 0.129114
v -0.187770 0.491803 0.123818
v -0.187770 0.491803 0.123818
v -0.195335 0.487726 0.127528
v -0.195335 0.487726 0.127528
v -0.195335 0.485177 0.136534
v -0.195335 0.485177 0.136534
v -0.187770 0.486705 0.141830
v 0.000000 0.023014 0.012646
v 0.010653 0.025051 0.005478
v -0.182693 0.565130 -0.125136
v -0.190363 0.563664 -0.119976
v 0.010653 0.025051 0.005478
v 0.010653 0.022036 -0.007168
v -0.182693 0.562960 -0.134241
v -0.182693 0.565130 -0.125136
v 0.010653 0.022036 -0.007168
v 0.000000 0.016986 -0.012646
v -0.190363 0.559323 -0.138185
v -0.182693 0.562960 -0.134241
v 0.000000 0.016986 -0.012646
v -0.010653 0.014949 -0.005478
v -0.198033 0.557857 -0.133025
v -0.190363 0.559323 -0.138185
v -0.010653 0.014949 -0.005478
v -0.010653 0.017964 0.007168
v -0.198033 0.560028 -0.123920
v -0.198033 0.557857 -0.133025
v -0.010653 0.017964 0.007168
v 0.000000 0.023014 0.012646
v -0.190363 0.563664 -0.119976
v -0.198033 0.560028 -0.123920
v 0.000000 0.020000 0.000000
v 0.000000 0.023014 0.012646
v 0.010653 0.025051 0.005478
v 0.010653 0.025051 0.005478
v 0.010653 0.022036 -0.007168
v 0.010653 0.022036 -0.007168
v 0.000000 0.016986 -0.012646
v 0.000000 0.016986 -0.012646
v -0.010653 0.014949 -0.005478
v -0.010653 0.014949 -0.005478
v -0.010653 0.017964 0.007168
v -0.010653 0.017964 0.007168
v 0.000000 0.023014 0.012646
v -0.190363 0.561494 -0.129081
v -0.190363 0.563664 -0.119976
v -0.182693 0.565130 -0.125136
v -0.182693 0.565130 -0.125136
v -0.182693 0.562960 -0.134241
v -0.182693 0.562960 -0.134241
v -0.190363 0.559323 -0.138185
v -0.190363 0.559323 -0.138185
v -0.198033 0.557857 -0.133025
v -0.198033 0.557857 -0.133025
v -0.198033 0.560028 -0.123920
v -0.198033 0.560028 -0.123920
v -0.190363 0.563664 -0.119976
v 0.000000 0.024639 0.012144
v 0.011015 0.024496 0.005241
v -0.109342 0.541189 -0.194083
v -0.117273 0.541292 -0.189113
v 0.011015 0.024496 0.005241
v 0.011015 0.019857 -0.006903
v -0.109342 0.537849 -0.202827
v -0.109342 0.541189 -0.194083
v 0.011015 0.019857 -0.006903
v 0.000000 0.015361 -0.012144
v -0.117273 0.534612 -0.206600
v -0.109342 0.537849 -0.202827
v 0.000000 0.015361 -0.012144
v -0.011015 0.015504 -0.005241
v -0.125203 0.534715 -0.201630
v -0.117273 0.534612 -0.206600
v -0.011015 0.015504 -0.005241
v -0.011015 0.020143 0.006903
v -0.125203 0.538055 -0.192886
v -0.125203 0.534715 -0.201630
v -0.011015 0.020143 0.006903
v 0.000000 0.024639 0.012144
v -0.117273 0.541292 -0.189113
v -0.125203 0.538055 -0.192886
v 0.000000 0.020000 0.000000
v 0.000000 0.024639 0.012144
v 0.011015 0.024496 0.005241
v 0.011015 0.024496 0.005241
v 0.011015 0.019857 -0.006903
v 0.011015 0.019857 -0.006903
v 0.000000 0.015361 -0.012144
v 0.000000 0.015361 -0.012144
v -0.011015 0.015504 -0.005241
v -0.011015 0.015504 -0.005241
v -0.011015 0.020143 0.006903
v -0.011015 0.020143 0.006903
v 0.000000 0.024639 0.012144
v -0.117273 0.537952 -0.197856
v -0.117273 0.541292 -0.189113
v -0.109342 0.541189 -0.194083
v -0.109342 0.541189 -0.194083
v -0.109342 0.537849 -0.202827
v -0.109342 0.537849 -0.202827
v -0.117273 0.534612 -0.206600
v -0.117273 0.534612 -0.206600
v -0.125203 0.534715 -0.201630
v -0.125203 0.534715 -0.201630
v -0.125203 0.538055 -0.192886
v -0.125203 0.538055 -0.192886
v -0.117273 0.541292 -0.189113
v 0.000000 0.024284 0.012274
v 0.010873 0.019386 0.007099
v 0.153096 0.530466 -0.173207
v 0.145267 0.533993 -0.169481
v 0.010873 0.019386 0.007099
v 0.010873 0.015102 -0.005175
v 0.153096 0.527382 -0.182044
v 0.153096 0.530466 -0.173207
v 0.010873 0.015102 -0.005175
v 0.000000 0.015716 -0.012274
v 0.145267 0.527824 -0.187156
v 0.153096 0.527382 -0.182044
v 0.000000 0.015716 -0.012274
v -0.010873 0.020614 -0.007099
v 0.137438 0.531350 -0.183430
v 0.145267 0.527824 -0.187156
v -0.010873 0.020614 -0.007099
v -0.010873 0.024898 0.005175
v 0.137438 0.534435 -0.174592
v 0.137438 0.531350 -0.183430
v -0.010873 0.024898 0.005175
v 0.000000 0.024284 0.012274
v 0.145267 0.533993 -0.169481
v 0.137438 0.534435 -0.174592
v 0.000000 0.020000 0.000000
v 0.000000 0.024284 0.012274
v 0.010873 0.019386 0.007099
v 0.010873 0.019386 0.007099
v 0.010873 0.015102 -0.005175
v 0.010873 0.015102 -0.005175
v 0.000000 0.015716 -0.012274
v 0.000000 0.015716 -0.012274
v -0.010873 0.020614 -0.007099
v -0.010873 0.020614 -0.007099
v -0.010873 0.024898 0.005175
v -0.010873 0.024898 0.005175
v 0.000000 0.024284 0.012274
v 0.145267 0.530908 -0.178318
v 0.145267 0.533993 -0.169481
v 0.153096 0.530466 -0.173207
v 0.153096 0.530466 -0.173207
v 0.153096 0.527382 -0.182044
v 0.153096 0.527382 -0.182044
v 0.145267 0.527824 -0.187156
v 0.145267 0.527824 -0.187156
v 0.137438 0.531350 -0.183430
v 0.137438 0.531350 -0.183430
v 0.137438 0.534435 -0.174592
v 0.137438 0.534435 -0.174592
v 0.145267 0.533993 -0.169481
v 0.131829 0.140190 0.033720
v 0.136401 0.096222 -0.008604
v 0.285685 0.054249 -0.035002
v 0.272477 0.181270 0.087267
v 0.272477 0.181270 0.087267
v 0.285685 0.054249 -0.035002
v 0.136401 0.096222 -0.008604
v 0.131829 0.140190 0.033720
v 0.272477 0.181270 0.087267
v 0.285685 0.054249 -0.035002
v 0.392983 0.117409 0.036798
v 0.392983 0.117409 0.036798
v 0.392983 0.117409 0.036798
v 0.392983 0.117409 0.036798
v 0.285685 0.054249 -0.035002
v 0.272477 0.181270 0.087267
v -0.140707 0.130107 0.073225
v -0.095277 0.150203 0.127803
v -0.197311 0.190893 0.302819
v -0.328552 0.132838 0.145149
v -0.328552 0.132838 0.145149
v -0.197311 0.190893 0.302819
v -0.095277 0.150203 0.127803
v -0.140707 0.130107 0.073225
v -0.328552 0.132838 0.145149
v -0.197311 0.190893 0.302819
v -0.376812 0.178924 0.320996
v -0.376812 0.178924 0.320996
v -0.376812 0.178924 0.320996
v -0.376812 0.178924 0.320996
v -0.197311 0.190893 0.302819
v -0.328552 0.132838 0.145149
v 0.051723 0.158005 -0.168205
v -0.034568 0.158005 -0.172549
v -0.104239 0.157985 -0.411554
v 0.145045 0.157985 -0.399005
v 0.145045 0.157985 -0.399005
v -0.104239 0.157985 -0.411554
v -0.034568 0.158005 -0.172549
v 0.051723 0.158005 -0.168205
v 0.145045 0.157985 -0.399005
v -0.104239 0.157985 -0.411554
v 0.029695 0.157970 -0.589846
v 0.029695 0.157970 -0.589846
v 0.029695 0.157970 -0.589846
v 0.029695 0.157970 -0.589846
v -0.104239 0.157985 -0.411554
v 0.145045 0.157985 -0.399005
v 0.077234 0.166158 0.170641
v 0.125542 0.181655 0.136411
v 0.325466 0.154211 0.337731
v 0.185910 0.109443 0.436617
v 0.185910 0.109443 0.436617
v 0.325466 0.154211 0.337731
v 0.125542 0.181655 0.136411
v 0.077234 0.166158 0.170641
v 0.185910 0.109443 0.436617
v 0.325466 0.154211 0.337731
v 0.376924 0.098765 0.570754
v 0.376924 0.098765 0.570754
v 0.376924 0.098765 0.570754
v 0.376924 0.098765 0.570754
v 0.325466 0.154211 0.337731
v 0.185910 0.109443 0.436617
v -0.188359 0.215276 -0.067845
v -0.194189 0.161855 -0.017262
v -0.341821 0.091087 -0.001108
v -0.324977 0.245414 -0.147237
v -0.324977 0.245414 -0.147237
v -0.341821 0.091087 -0.001108
v -0.194189 0.161855 -0.017262
v -0.188359 0.215276 -0.067845
v -0.324977 0.245414 -0.147237
v -0.341821 0.091087 -0.001108
v -0.445069 0.152289 -0.099016
v -0.445069 0.152289 -0.099016
v -0.445069 0.152289 -0.099016
v -0.445069 0.152289 -0.099016
v -0.341821 0.091087 -0.001108
v -0.324977 0.245414 -0.147237
v 0.194758 0.231618 -0.093167
v 0.148931 0.173047 -0.137148
v 0.263819 0.096672 -0.284679
v 0.396209 0.265876 -0.157623
v 0.396209 0.265876 -0.157623
v 0.263819 0.096672 -0.284679
v 0.148931 0.173047 -0.137148
v 0.194758 0.231618 -0.093167
v 0.396209 0.265876 -0.157623
v 0.263819 0.096672 -0.284679
v 0.454290 0.164728 -0.304432
v 0.454290 0.164728 -0.304432
v 0.454290 0.164728 -0.304432
v 0.454290 0.164728 -0.304432
v 0.263819 0.096672 -0.284679
v 0.396209 0.265876 -0.157623
v -0.101815 0.207463 0.189392
v -0.049644 0.223360 0.217159
v -0.082482 0.236515 0.463784
v -0.233197 0.190591 0.383570
v -0.233197 0.190591 0.383570
v -0.082482 0.236515 0.463784
v -0.049644 0.223360 0.217159
v -0.101815 0.207463 0.189392
v -0.233197 0.190591 0.383570
v -0.082482 0.236515 0.463784
v -0.222355 0.212092 0.596850
v -0.222355 0.212092 0.596850
v -0.222355 0.212092 0.596850
v -0.222355 0.212092 0.596850
v -0.082482 0.236515 0.463784
v -0.233197 0.190591 0.383570
v -0.047017 0.227937 -0.224377
v -0.115870 0.227937 -0.197813
v -0.281684 0.255216 -0.433956
v -0.082775 0.255216 -0.510698
v -0.082775 0.255216 -0.510698
v -0.281684 0.255216 -0.433956
v -0.115870 0.227937 -0.197813
v -0.047017 0.227937 -0.224377
v -0.082775 0.255216 -0.510698
v -0.281684 0.255216 -0.433956
v -0.261419 0.276650 -0.677581
v -0.261419 0.276650 -0.677581
v -0.261419 0.276650 -0.677581
v -0.261419 0.276650 -0.677581
v -0.281684 0.255216 -0.433956
v -0.082775 0.255216 -0.510698
v 0.221009 0.227785 0.088686
v 0.238904 0.252219 0.007768
v 0.398305 0.264390 -0.038769
v 0.346608 0.193806 0.194995
v 0.346608 0.193806 0.194995
v 0.398305 0.264390 -0.038769
v 0.238904 0.252219 0.007768
v 0.221009 0.227785 0.088686
v 0.346608 0.193806 0.194995
v 0.398305 0.264390 -0.038769
v 0.484421 0.220530 0.101595
v 0.484421 0.220530 0.101595
v 0.484421 0.220530 0.101595
v 0.484421 0.220530 0.101595
v 0.398305 0.264390 -0.038769
v 0.346608 0.193806 0.194995
v -0.236813 0.273466 0.066869
v -0.217794 0.229884 0.105395
v -0.377877 0.183655 0.209248
v -0.432822 0.309558 0.097949
v -0.432822 0.309558 0.097949
v -0.377877 0.183655 0.209248
v -0.217794 0.229884 0.105395
v -0.236813 0.273466 0.066869
v -0.432822 0.309558 0.097949
v -0.377877 0.183655 0.209248
v -0.545243 0.242625 0.206608
v -0.545243 0.242625 0.206608
v -0.545243 0.242625 0.206608
v -0.545243 0.242625 0.206608
v -0.377877 0.183655 0.209248
v -0.432822 0.309558 0.097949
v 0.161503 0.291462 -0.197306
v 0.119302 0.234553 -0.217966
v 0.211193 0.217195 -0.432316
v 0.333108 0.381599 -0.372630
v 0.333108 0.381599 -0.372630
v 0.211193 0.217195 -0.432316
v 0.119302 0.234553 -0.217966
v 0.161503 0.291462 -0.197306
v 0.333108 0.381599 -0.372630
v 0.211193 0.217195 -0.432316
v 0.375667 0.327989 -0.555559
v 0.375667 0.327989 -0.555559
v 0.375667 0.327989 -0.555559
v 0.375667 0.327989 -0.555559
v 0.211193 0.217195 -0.432316
v 0.333108 0.381599 -0.372630
v 0.058120 0.285641 0.248327
v 0.138825 0.262444 0.227991
v 0.322035 0.263626 0.467540
v 0.088886 0.330638 0.526286
v 0.088886 0.330638 0.526286
v 0.322035 0.263626 0.467540
v 0.138825 0.262444 0.227991
v 0.058120 0.285641 0.248327
v 0.088886 0.330638 0.526286
v 0.322035 0.263626 0.467540
v 0.289523 0.315274 0.700219
v 0.289523 0.315274 0.700219
v 0.289523 0.315274 0.700219
v 0.289523 0.315274 0.700219
v 0.322035 0.263626 0.467540
v 0.088886 0.330638 0.526286
v -0.217271 0.284811 -0.153552
v -0.246609 0.284811 -0.099843
v -0.402097 0.309705 -0.118916
v -0.317341 0.309705 -0.274076
v -0.317341 0.309705 -0.274076
v -0.402097 0.309705 -0.118916
v -0.246609 0.284811 -0.099843
v -0.217271 0.284811 -0.153552
v -0.317341 0.309705 -0.274076
v -0.402097 0.309705 -0.118916
v -0.460116 0.329265 -0.251339
v -0.460116 0.329265 -0.251339
v -0.460116 0.329265 -0.251339
v -0.460116 0.329265 -0.251339
v -0.402097 0.309705 -0.118916
v -0.317341 0.309705 -0.274076
v 0.273718 0.284970 0.013537
v 0.265328 0.305711 -0.056790
v 0.447193 0.353220 -0.138438
v 0.471433 0.293302 0.064728
v 0.471433 0.293302 0.064728
v 0.447193 0.353220 -0.138438
v 0.265328 0.305711 -0.056790
v 0.273718 0.284970 0.013537
v 0.471433 0.293302 0.064728
v 0.447193 0.353220 -0.138438
v 0.608434 0.345198 -0.048821
v 0.608434 0.345198 -0.048821
v 0.608434 0.345198 -0.048821
v 0.608434 0.345198 -0.048821
v 0.447193 0.353220 -0.138438
v 0.471433 0.293302 0.064728
v -0.217089 0.334226 0.186079
v -0.160135 0.277082 0.216996
v -0.267059 0.201277 0.417923
v -0.431592 0.366358 0.328607
v -0.431592 0.366358 0.328607
v -0.267059 0.201277 0.417923
v -0.160135 0.277082 0.216996
v -0.217089 0.334226 0.186079
v -0.431592 0.366358 0.328607
v -0.267059 0.201277 0.417923
v -0.475601 0.266660 0.508193
v -0.475601 0.266660 0.508193
v -0.475601 0.266660 0.508193
v -0.475601 0.266660 0.508193
v -0.267059 0.201277 0.417923
v -0.431592 0.366358 0.328607
v 0.001372 0.308299 -0.300757
v -0.041965 0.323241 -0.260210
v -0.103103 0.340023 -0.501185
v 0.022093 0.296855 -0.618321
v 0.022093 0.296855 -0.618321
v -0.103103 0.340023 -0.501185
v -0.041965 0.323241 -0.260210
v 0.001372 0.308299 -0.300757
v 0.022093 0.296855 -0.618321
v -0.103103 0.340023 -0.501185
v -0.056383 0.320536 -0.779179
v -0.056383 0.320536 -0.779179
v -0.056383 0.320536 -0.779179
v -0.056383 0.320536 -0.779179
v -0.103103 0.340023 -0.501185
v 0.022093 0.296855 -0.618321
v 0.197036 0.337449 0.209493
v 0.242554 0.313961 0.156362
v 0.397455 0.276029 0.199324
v 0.265959 0.343884 0.352812
v 0.265959 0.343884 0.352812
v 0.397455 0.276029 0.199324
v 0.242554 0.313961 0.156362
v 0.197036 0.337449 0.209493
v 0.265959 0.343884 0.352812
v 0.397455 0.276029 0.199324
v 0.419638 0.297583 0.349249
v 0.419638 0.297583 0.349249
v 0.419638 0.297583 0.349249
v 0.419638 0.297583 0.349249
v 0.397455 0.276029 0.199324
v 0.265959 0.343884 0.352812
v -0.293331 0.335472 0.008627
v -0.278105 0.335472 0.093675
v -0.451146 0.320257 0.207551
v -0.495131 0.320257 -0.038143
v -0.495131 0.320257 -0.038143
v -0.451146 0.320257 0.207551
v -0.278105 0.335472 0.093675
v -0.293331 0.335472 0.008627
v -0.495131 0.320257 -0.038143
v -0.451146 0.320257 0.207551
v -0.620397 0.308301 0.111067
v -0.620397 0.308301 0.111067
v -0.620397 0.308301 0.111067
v -0.620397 0.308301 0.111067
v -0.451146 0.320257 0.207551
v -0.495131 0.320257 -0.038143
v 0.230138 0.336909 -0.184981
v 0.189269 0.353260 -0.227499
v 0.318361 0.401018 -0.432576
v 0.436426 0.353780 -0.309746
v 0.436426 0.353780 -0.309746
v 0.318361 0.401018 -0.432576
v 0.189269 0.353260 -0.227499
v 0.230138 0.336909 -0.184981
v 0.436426 0.353780 -0.309746
v 0.318361 0.401018 -0.432576
v 0.509150 0.402789 -0.500742
v 0.509150 0.402789 -0.500742
v 0.509150 0.402789 -0.500742
v 0.509150 0.402789 -0.500742
v 0.318361 0.401018 -0.432576
v 0.436426 0.353780 -0.309746
v -0.044345 0.364649 0.322312
v 0.005240 0.344456 0.271518
v 0.033671 0.344580 0.502941
v -0.109574 0.402917 0.649679
v -0.109574 0.402917 0.649679
v 0.033671 0.344580 0.502941
v 0.005240 0.344456 0.271518
v -0.044345 0.364649 0.322312
v -0.109574 0.402917 0.649679
v 0.033671 0.344580 0.502941
v -0.052408 0.388831 0.795835
v -0.052408 0.388831 0.795835
v -0.052408 0.388831 0.795835
v -0.052408 0.388831 0.795835
v 0.033671 0.344580 0.502941
v -0.109574 0.402917 0.649679
v -0.126214 0.341297 -0.279479
v -0.184839 0.386473 -0.234901
v -0.315549 0.410622 -0.317391
v -0.146188 0.280114 -0.446172
v -0.146188 0.280114 -0.446172
v -0.315549 0.410622 -0.317391
v -0.184839 0.386473 -0.234901
v -0.126214 0.341297 -0.279479
v -0.146188 0.280114 -0.446172
v -0.315549 0.410622 -0.317391
v -0.290066 0.330819 -0.479674
v -0.290066 0.330819 -0.479674
v -0.290066 0.330819 -0.479674
v -0.290066 0.330819 -0.479674
v -0.315549 0.410622 -0.317391
v -0.146188 0.280114 -0.446172
v 0.282718 0.382498 0.107874
v 0.301841 0.363685 0.052866
v 0.503487 0.375384 0.051396
v 0.448244 0.429732 0.210307
v 0.448244 0.429732 0.210307
v 0.503487 0.375384 0.051396
v 0.301841 0.363685 0.052866
v 0.282718 0.382498 0.107874
v 0.448244 0.429732 0.210307
v 0.503487 0.375384 0.051396
v 0.620111 0.425710 0.170515
v 0.620111 0.425710 0.170515
v 0.620111 0.425710 0.170515
v 0.620111 0.425710 0.170515
v 0.503487 0.375384 0.051396
v 0.448244 0.429732 0.210307
v -0.274214 0.382178 0.139129
v -0.233166 0.382178 0.200459
v -0.389859 0.359505 0.389204
v -0.508443 0.359505 0.212026
v -0.508443 0.359505 0.212026
v -0.389859 0.359505 0.389204
v -0.233166 0.382178 0.200459
v -0.274214 0.382178 0.139129
v -0.508443 0.359505 0.212026
v -0.389859 0.359505 0.389204
v -0.602727 0.341691 0.403403
v -0.602727 0.341691 0.403403
v -0.602727 0.341691 0.403403
v -0.602727 0.341691 0.403403
v -0.389859 0.359505 0.389204
v -0.508443 0.359505 0.212026
v 0.149856 0.380256 -0.266075
v 0.075814 0.402050 -0.304906
v 0.108804 0.435987 -0.601979
v 0.322702 0.373025 -0.489801
v 0.322702 0.373025 -0.489801
v 0.108804 0.435987 -0.601979
v 0.075814 0.402050 -0.304906
v 0.149856 0.380256 -0.266075
v 0.322702 0.373025 -0.489801
v 0.108804 0.435987 -0.601979
v 0.296617 0.414998 -0.750490
v 0.296617 0.414998 -0.750490
v 0.296617 0.414998 -0.750490
v 0.296617 0.414998 -0.750490
v 0.108804 0.435987 -0.601979
v 0.322702 0.373025 -0.489801
v 0.158540 0.382059 0.271055
v 0.192985 0.417983 0.235439
v 0.308533 0.453139 0.321415
v 0.209026 0.349360 0.424306
v 0.209026 0.349360 0.424306
v 0.308533 0.453139 0.321415
v 0.192985 0.417983 0.235439
v 0.158540 0.382059 0.271055
v 0.209026 0.349360 0.424306
v 0.308533 0.453139 0.321415
v 0.324007 0.402214 0.466844
v 0.324007 0.402214 0.466844
v 0.324007 0.402214 0.466844
v 0.324007 0.402214 0.466844
v 0.308533 0.453139 0.321415
v 0.209026 0.349360 0.424306
v -0.282756 0.386396 -0.141735
v -0.292818 0.431181 -0.083947
v -0.479582 0.509656 -0.098873
v -0.450513 0.380277 -0.265816
v -0.450513 0.380277 -0.265816
v -0.479582 0.509656 -0.098873
v -0.292818 0.431181 -0.083947
v -0.282756 0.386396 -0.141735
v -0.450513 0.380277 -0.265816
v -0.479582 0.509656 -0.098873
v -0.604324 0.473392 -0.236955
v -0.604324 0.473392 -0.236955
v -0.604324 0.473392 -0.236955
v -0.604324 0.473392 -0.236955
v -0.479582 0.509656 -0.098873
v -0.450513 0.380277 -0.265816
v 0.286649 0.430673 -0.130673
v 0.238423 0.404247 -0.197313
v 0.392358 0.356052 -0.384857
v 0.531676 0.432394 -0.192341
v 0.531676 0.432394 -0.192341
v 0.392358 0.356052 -0.384857
v 0.238423 0.404247 -0.197313
v 0.286649 0.430673 -0.130673
v 0.531676 0.432394 -0.192341
v 0.392358 0.356052 -0.384857
v 0.618751 0.375965 -0.386503
v 0.618751 0.375965 -0.386503
v 0.618751 0.375965 -0.386503
v 0.618751 0.375965 -0.386503
v 0.392358 0.356052 -0.384857
v 0.531676 0.432394 -0.192341
v -0.128442 0.426041 0.283298
v -0.070488 0.426041 0.302963
v -0.105724 0.416265 0.586687
v -0.273148 0.416265 0.529877
v -0.273148 0.416265 0.529877
v -0.105724 0.416265 0.586687
v -0.070488 0.426041 0.302963
v -0.128442 0.426041 0.283298
v -0.273148 0.416265 0.529877
v -0.105724 0.416265 0.586687
v -0.260128 0.408584 0.766615
v -0.260128 0.408584 0.766615
v -0.260128 0.408584 0.766615
v -0.260128 0.408584 0.766615
v -0.105724 0.416265 0.586687
v -0.273148 0.416265 0.529877
v -0.081464 0.444357 -0.294878
v -0.150606 0.424711 -0.278150
v -0.270561 0.418646 -0.397304
v -0.070817 0.475401 -0.445630
v -0.070817 0.475401 -0.445630
v -0.270561 0.418646 -0.397304
v -0.150606 0.424711 -0.278150
v -0.081464 0.444357 -0.294878
v -0.070817 0.475401 -0.445630
v -0.270561 0.418646 -0.397304
v -0.213632 0.456836 -0.527501
v -0.213632 0.456836 -0.527501
v -0.213632 0.456836 -0.527501
v -0.213632 0.456836 -0.527501
v -0.270561 0.418646 -0.397304
v -0.070817 0.475401 -0.445630
v 0.228005 0.418222 0.211192
v 0.269107 0.467668 0.153480
v 0.461446 0.492901 0.211594
v 0.342708 0.350058 0.378319
v 0.342708 0.350058 0.378319
v 0.461446 0.492901 0.211594
v 0.269107 0.467668 0.153480
v 0.228005 0.418222 0.211192
v 0.342708 0.350058 0.378319
v 0.461446 0.492901 0.211594
v 0.522701 0.404614 0.383444
v 0.522701 0.404614 0.383444
v 0.522701 0.404614 0.383444
v 0.522701 0.404614 0.383444
v 0.461446 0.492901 0.211594
v 0.342708 0.350058 0.378319
v -0.304160 0.432908 0.019962
v -0.303334 0.469644 0.068904
v -0.535277 0.470476 0.149169
v -0.537664 0.364351 0.007783
v -0.537664 0.364351 0.007783
v -0.535277 0.470476 0.149169
v -0.303334 0.469644 0.068904
v -0.304160 0.432908 0.019962
v -0.537664 0.364351 0.007783
v -0.535277 0.470476 0.149169
v -0.719324 0.390808 0.105224
v -0.719324 0.390808 0.105224
v -0.719324 0.390808 0.105224
v -0.719324 0.390808 0.105224
v -0.535277 0.470476 0.149169
v -0.537664 0.364351 0.007783
v 0.168140 0.470956 -0.260255
v 0.103141 0.448106 -0.286702
v 0.166165 0.465539 -0.562520
v 0.353941 0.531551 -0.486120
v 0.353941 0.531551 -0.486120
v 0.166165 0.465539 -0.562520
v 0.103141 0.448106 -0.286702
v 0.168140 0.470956 -0.260255
v 0.353941 0.531551 -0.486120
v 0.166165 0.465539 -0.562520
v 0.357806 0.529200 -0.721410
v 0.357806 0.529200 -0.721410
v 0.357806 0.529200 -0.721410
v 0.357806 0.529200 -0.721410
v 0.166165 0.465539 -0.562520
v 0.353941 0.531551 -0.486120
v 0.023054 0.467712 0.305322
v 0.107429 0.467712 0.286726
v 0.218454 0.445713 0.411351
v -0.025296 0.445713 0.465072
v -0.025296 0.445713 0.465072
v 0.218454 0.445713 0.411351
v 0.107429 0.467712 0.286726
v 0.023054 0.467712 0.305322
v -0.025296 0.445713 0.465072
v 0.218454 0.445713 0.411351
v 0.121201 0.428428 0.549930
v 0.121201 0.428428 0.549930
v 0.121201 0.428428 0.549930
v 0.121201 0.428428 0.549930
v 0.218454 0.445713 0.411351
v -0.025296 0.445713 0.465072
v -0.238259 0.485567 -0.185742
v -0.269115 0.466081 -0.136613
v -0.458966 0.422780 -0.192319
v -0.369824 0.479073 -0.334244
v -0.369824 0.479073 -0.334244
v -0.458966 0.422780 -0.192319
v -0.269115 0.466081 -0.136613
v -0.238259 0.485567 -0.185742
v -0.369824 0.479073 -0.334244
v -0.458966 0.422780 -0.192319
v -0.540665 0.431364 -0.343506
v -0.540665 0.431364 -0.343506
v -0.540665 0.431364 -0.343506
v -0.540665 0.431364 -0.343506
v -0.458966 0.422780 -0.192319
v -0.369824 0.479073 -0.334244
v 0.296186 0.461744 0.013586
v 0.298077 0.505993 -0.045447
v 0.534726 0.523229 -0.113793
v 0.529263 0.395398 0.056747
v 0.529263 0.395398 0.056747
v 0.534726 0.523229 -0.113793
v 0.298077 0.505993 -0.045447
v 0.296186 0.461744 0.013586
v 0.529263 0.395398 0.056747
v 0.534726 0.523229 -0.113793
v 0.716529 0.440020 -0.038417
v 0.716529 0.440020 -0.038417
v 0.716529 0.440020 -0.038417
v 0.716529 0.440020 -0.038417
v 0.534726 0.523229 -0.113793
v 0.529263 0.395398 0.056747
v -0.210445 0.467094 0.202452
v -0.161311 0.516600 0.253441
v -0.291858 0.577361 0.518597
v -0.433801 0.434342 0.371293
v -0.433801 0.434342 0.371293
v -0.291858 0.577361 0.518597
v -0.161311 0.516600 0.253441
v -0.210445 0.467094 0.202452
v -0.433801 0.434342 0.371293
v -0.291858 0.577361 0.518597
v -0.501862 0.516855 0.615444
v -0.501862 0.516855 0.615444
v -0.501862 0.516855 0.615444
v -0.501862 0.516855 0.615444
v -0.291858 0.577361 0.518597
v -0.433801 0.434342 0.371293
v 0.023899 0.498854 -0.300430
v -0.033764 0.500673 -0.280008
v -0.090698 0.512540 -0.406300
v 0.075885 0.507285 -0.465296
v 0.075885 0.507285 -0.465296
v -0.090698 0.512540 -0.406300
v -0.033764 0.500673 -0.280008
v 0.023899 0.498854 -0.300430
v 0.075885 0.507285 -0.465296
v -0.090698 0.512540 -0.406300
v -0.009351 0.517887 -0.550181
v -0.009351 0.517887 -0.550181
v -0.009351 0.517887 -0.550181
v -0.009351 0.517887 -0.550181
v -0.090698 0.512540 -0.406300
v 0.075885 0.507285 -0.465296
v 0.162082 0.507619 0.238461
v 0.217306 0.507619 0.189505
v 0.395766 0.510284 0.285745
v 0.236229 0.510284 0.427173
v 0.236229 0.510284 0.427173
v 0.395766 0.510284 0.285745
v 0.217306 0.507619 0.189505
v 0.162082 0.507619 0.238461
v 0.236229 0.510284 0.427173
v 0.395766 0.510284 0.285745
v 0.415236 0.512377 0.468405
v 0.415236 0.512377 0.468405
v 0.415236 0.512377 0.468405
v 0.415236 0.512377 0.468405
v 0.395766 0.510284 0.285745
v 0.236229 0.510284 0.427173
v -0.277949 0.528799 -0.045052
v -0.284425 0.502035 0.036842
v -0.525716 0.522530 0.110754
v -0.507007 0.599847 -0.125830
v -0.507007 0.599847 -0.125830
v -0.525716 0.522530 0.110754
v -0.284425 0.502035 0.036842
v -0.277949 0.528799 -0.045052
v -0.507007 0.599847 -0.125830
v -0.525716 0.522530 0.110754
v -0.701142 0.597151 -0.010235
v -0.701142 0.597151 -0.010235
v -0.701142 0.597151 -0.010235
v -0.701142 0.597151 -0.010235
v -0.525716 0.522530 0.110754
v -0.507007 0.599847 -0.125830
v 0.256528 0.505987 -0.109386
v 0.229579 0.540328 -0.152280
v 0.450676 0.628126 -0.325506
v 0.528529 0.528920 -0.201589
v 0.528529 0.528920 -0.201589
v 0.450676 0.628126 -0.325506
v 0.229579 0.540328 -0.152280
v 0.256528 0.505987 -0.109386
v 0.528529 0.528920 -0.201589
v 0.450676 0.628126 -0.325506
v 0.683320 0.622024 -0.367823
v 0.683320 0.622024 -0.367823
v 0.683320 0.622024 -0.367823
v 0.683320 0.622024 -0.367823
v 0.450676 0.628126 -0.325506
v 0.528529 0.528920 -0.201589
v -0.035591 0.522616 0.240667
v 0.006088 0.539072 0.299306
v 0.037507 0.539049 0.500071
v -0.082897 0.491512 0.330668
v -0.082897 0.491512 0.330668
v 0.037507 0.539049 0.500071
v 0.006088 0.539072 0.299306
v -0.035591 0.522616 0.240667
v -0.082897 0.491512 0.330668
v 0.037507 0.539049 0.500071
v -0.028936 0.503052 0.529599
v -0.028936 0.503052 0.529599
v -0.028936 0.503052 0.529599
v -0.028936 0.503052 0.529599
v 0.037507 0.539049 0.500071
v -0.082897 0.491512 0.330668
v -0.115226 0.526992 -0.243787
v -0.181654 0.549963 -0.193541
v -0.351331 0.556333 -0.303618
v -0.159428 0.489973 -0.448772
v -0.159428 0.489973 -0.448772
v -0.351331 0.556333 -0.303618
v -0.181654 0.549963 -0.193541
v -0.115226 0.526992 -0.243787
v -0.159428 0.489973 -0.448772
v -0.351331 0.556333 -0.303618
v -0.339404 0.511112 -0.499969
v -0.339404 0.511112 -0.499969
v -0.339404 0.511112 -0.499969
v -0.339404 0.511112 -0.499969
v -0.351331 0.556333 -0.303618
v -0.159428 0.489973 -0.448772
v 0.234925 0.546059 0.110287
v 0.254219 0.546059 0.052208
v 0.495647 0.542192 0.071506
v 0.439908 0.542192 0.239290
v 0.439908 0.542192 0.239290
v 0.495647 0.542192 0.071506
v 0.254219 0.546059 0.052208
v 0.234925 0.546059 0.110287
v 0.439908 0.542192 0.239290
v 0.495647 0.542192 0.071506
v 0.643154 0.539153 0.213659
v 0.643154 0.539153 0.213659
v 0.643154 0.539153 0.213659
v 0.643154 0.539153 0.213659
v 0.495647 0.542192 0.071506
v 0.439908 0.542192 0.239290
v -0.229142 0.564809 0.113360
v -0.185453 0.542373 0.168444
v -0.375762 0.491151 0.377870
v -0.501975 0.555965 0.218736
v -0.501975 0.555965 0.218736
v -0.375762 0.491151 0.377870
v -0.185453 0.542373 0.168444
v -0.229142 0.564809 0.113360
v -0.501975 0.555965 0.218736
v -0.375762 0.491151 0.377870
v -0.620817 0.499960 0.421975
v -0.620817 0.499960 0.421975
v -0.620817 0.499960 0.421975
v -0.620817 0.499960 0.421975
v -0.375762 0.491151 0.377870
v -0.501975 0.555965 0.218736
v 0.122864 0.540420 -0.205347
v 0.058583 0.581730 -0.245674
v 0.052215 0.639100 -0.418840
v 0.237916 0.519759 -0.302338
v 0.237916 0.519759 -0.302338
v 0.052215 0.639100 -0.418840
v 0.058583 0.581730 -0.245674
v 0.122864 0.540420 -0.205347
v 0.237916 0.519759 -0.302338
v 0.052215 0.639100 -0.418840
v 0.187763 0.593851 -0.466722
v 0.187763 0.593851 -0.466722
v 0.187763 0.593851 -0.466722
v 0.187763 0.593851 -0.466722
v 0.052215 0.639100 -0.418840
v 0.237916 0.519759 -0.302338
v 0.092191 0.591861 0.211795
v 0.130516 0.545163 0.201998
v 0.256948 0.475703 0.360405
v 0.146232 0.610607 0.388707
v 0.146232 0.610607 0.388707
v 0.256948 0.475703 0.360405
v 0.130516 0.545163 0.201998
v 0.092191 0.591861 0.211795
v 0.146232 0.610607 0.388707
v 0.256948 0.475703 0.360405
v 0.272489 0.523232 0.506288
v 0.272489 0.523232 0.506288
v 0.272489 0.523232 0.506288
v 0.272489 0.523232 0.506288
v 0.256948 0.475703 0.360405
v 0.146232 0.610607 0.388707
v -0.178064 0.565357 -0.147123
v -0.210744 0.586449 -0.084405
v -0.443692 0.625796 -0.145508
v -0.349284 0.564864 -0.326694
v -0.349284 0.564864 -0.326694
v -0.443692 0.625796 -0.145508
v -0.210744 0.586449 -0.084405
v -0.178064 0.565357 -0.147123
v -0.349284 0.564864 -0.326694
v -0.443692 0.625796 -0.145508
v -0.555269 0.610594 -0.330651
v -0.555269 0.610594 -0.330651
v -0.555269 0.610594 -0.330651
v -0.555269 0.610594 -0.330651
v -0.443692 0.625796 -0.145508
v -0.349284 0.564864 -0.326694
v 0.217277 0.583250 -0.041383
v 0.184847 0.583250 -0.121465
v 0.413744 0.597571 -0.302199
v 0.507433 0.597571 -0.070849
v 0.507433 0.597571 -0.070849
v 0.413744 0.597571 -0.302199
v 0.184847 0.583250 -0.121465
v 0.217277 0.583250 -0.041383
v 0.507433 0.597571 -0.070849
v 0.413744 0.597571 -0.302199
v 0.664502 0.608824 -0.269103
v 0.664502 0.608824 -0.269103
v 0.664502 0.608824 -0.269103
v 0.664502 0.608824 -0.269103
v 0.413744 0.597571 -0.302199
v 0.507433 0.597571 -0.070849
v -0.106465 0.599805 0.183056
v -0.050557 0.581302 0.199713
v -0.053016 0.582535 0.350150
v -0.214526 0.635988 0.302031
v -0.214526 0.635988 0.302031
v -0.053016 0.582535 0.350150
v -0.050557 0.581302 0.199713
v -0.106465 0.599805 0.183056
v -0.214526 0.635988 0.302031
v -0.053016 0.582535 0.350150
v -0.177189 0.623961 0.431931
v -0.177189 0.623961 0.431931
v -0.177189 0.623961 0.431931
v -0.177189 0.623961 0.431931
v -0.053016 0.582535 0.350150
v -0.214526 0.635988 0.302031
v -0.031610 0.617045 -0.183094
v -0.094406 0.578585 -0.187993
v -0.214936 0.563634 -0.372909
v -0.033527 0.674740 -0.358755
v -0.033527 0.674740 -0.358755
v -0.214936 0.563634 -0.372909
v -0.094406 0.578585 -0.187993
v -0.031610 0.617045 -0.183094
v -0.033527 0.674740 -0.358755
v -0.214936 0.563634 -0.372909
v -0.172335 0.635979 -0.507487
v -0.172335 0.635979 -0.507487
v -0.172335 0.635979 -0.507487
v -0.172335 0.635979 -0.507487
v -0.214936 0.563634 -0.372909
v -0.033527 0.674740 -0.358755
v 0.111635 0.635779 0.143328
v 0.159261 0.574292 0.105697
v 0.377396 0.514005 0.229331
v 0.239810 0.691634 0.338043
v 0.239810 0.691634 0.338043
v 0.377396 0.514005 0.229331
v 0.159261 0.574292 0.105697
v 0.111635 0.635779 0.143328
v 0.239810 0.691634 0.338043
v 0.377396 0.514005 0.229331
v 0.444653 0.601078 0.408753
v 0.444653 0.601078 0.408753
v 0.444653 0.601078 0.408753
v 0.444653 0.601078 0.408753
v 0.377396 0.514005 0.229331
v 0.239810 0.691634 0.338043
v -0.171088 0.603509 -0.029080
v -0.170097 0.620924 0.029582
v -0.449161 0.651994 0.085397
v -0.452024 0.601685 -0.084070
v -0.452024 0.601685 -0.084070
v -0.449161 0.651994 0.085397
v -0.170097 0.620924 0.029582
v -0.171088 0.603509 -0.029080
v -0.452024 0.601685 -0.084070
v -0.449161 0.651994 0.085397
v -0.670592 0.638329 0.000987
v -0.670592 0.638329 0.000987
v -0.670592 0.638329 0.000987
v -0.670592 0.638329 0.000987
v -0.449161 0.651994 0.085397
v -0.452024 0.601685 -0.084070
v 0.133978 0.619358 -0.086236
v 0.080749 0.619358 -0.137355
v 0.131330 0.608409 -0.290649
v 0.285102 0.608409 -0.142972
v 0.285102 0.608409 -0.142972
v 0.131330 0.608409 -0.290649
v 0.080749 0.619358 -0.137355
v 0.133978 0.619358 -0.086236
v 0.285102 0.608409 -0.142972
v 0.131330 0.608409 -0.290649
v 0.287457 0.599806 -0.299322
v 0.287457 0.599806 -0.299322
v 0.287457 0.599806 -0.299322
v 0.287457 0.599806 -0.299322
v 0.131330 0.608409 -0.290649
v 0.285102 0.608409 -0.142972
v -0.039164 0.625516 0.148523
v 0.042666 0.627408 0.120858
v 0.122425 0.652063 0.285115
v -0.113972 0.646599 0.365034
v -0.113972 0.646599 0.365034
v 0.122425 0.652063 0.285115
v 0.042666 0.627408 0.120858
v -0.039164 0.625516 0.148523
v -0.113972 0.646599 0.365034
v 0.122425 0.652063 0.285115
v 0.006171 0.667300 0.474662
v 0.006171 0.667300 0.474662
v 0.006171 0.667300 0.474662
v 0.006171 0.667300 0.474662
v 0.122425 0.652063 0.285115
v -0.113972 0.646599 0.365034
v -0.010191 0.538912 0.033266
v 0.010191 0.501088 -0.033266
v 0.238330 0.498964 -0.055498
v 0.179450 0.608236 0.136706
v 0.179450 0.608236 0.136706
v 0.238330 0.498964 -0.055498
v 0.010191 0.501088 -0.033266
v -0.010191 0.538912 0.033266
v 0.179450 0.608236 0.136706
v 0.238330 0.498964 -0.055498
v 0.373018 0.580000 0.072507
v 0.373018 0.580000 0.072507
v 0.373018 0.580000 0.072507
v 0.373018 0.580000 0.072507
v 0.238330 0.498964 -0.055498
v 0.179450 0.608236 0.136706
v -0.030775 0.520000 0.024921
v 0.030775 0.520000 -0.024921
v 0.222825 0.581600 0.093382
v 0.045014 0.581600 0.237371
v 0.045014 0.581600 0.237371
v 0.222825 0.581600 0.093382
v 0.030775 0.520000 -0.024921
v -0.030775 0.520000 0.024921
v 0.045014 0.581600 0.237371
v 0.222825 0.581600 0.093382
v 0.239142 0.630000 0.295315
v 0.239142 0.630000 0.295315
v 0.239142 0.630000 0.295315
v 0.239142 0.630000 0.295315
v 0.222825 0.581600 0.093382
v 0.045014 0.581600 0.237371
v -0.034407 0.521955 0.019506
v 0.034407 0.518045 -0.019506
v 0.095684 0.547952 0.156416
v -0.103112 0.559248 0.269119
v -0.103112 0.559248 0.269119
v 0.095684 0.547952 0.156416
v 0.034407 0.518045 -0.019506
v -0.034407 0.521955 0.019506
v -0.103112 0.559248 0.269119
v 0.095684 0.547952 0.156416
v -0.006632 0.580000 0.379942
v -0.006632 0.580000 0.379942
v -0.006632 0.580000 0.379942
v -0.006632 0.580000 0.379942
v 0.095684 0.547952 0.156416
v -0.103112 0.559248 0.269119
v -0.028677 0.506223 -0.023579
v 0.028677 0.533777 0.023579
v -0.056765 0.621401 0.228720
v -0.222454 0.541799 0.092484
v -0.222454 0.541799 0.092484
v -0.056765 0.621401 0.228720
v 0.028677 0.533777 0.023579
v -0.028677 0.506223 -0.023579
v -0.222454 0.541799 0.092484
v -0.056765 0.621401 0.228720
v -0.249302 0.630000 0.286790
v -0.249302 0.630000 0.286790
v -0.249302 0.630000 0.286790
v -0.249302 0.630000 0.286790
v -0.056765 0.621401 0.228720
v -0.222454 0.541799 0.092484
v -0.006195 0.520000 -0.039112
v 0.006195 0.520000 0.039112
v -0.192284 0.553600 0.146281
v -0.228076 0.553600 -0.079702
v -0.228076 0.553600 -0.079702
v -0.192284 0.553600 0.146281
v 0.006195 0.520000 0.039112
v -0.006195 0.520000 -0.039112
v -0.228076 0.553600 -0.079702
v -0.192284 0.553600 0.146281
v -0.375322 0.580000 0.059445
v -0.375322 0.580000 0.059445
v -0.375322 0.580000 0.059445
v -0.375322 0.580000 0.059445
v -0.192284 0.553600 0.146281
v -0.228076 0.553600 -0.079702
v 0.023942 0.537032 -0.026550
v -0.023942 0.502968 0.026550
v -0.251570 0.532398 -0.032901
v -0.113241 0.630802 -0.186299
v -0.113241 0.630802 -0.186299
v -0.251570 0.532398 -0.032901
v -0.023942 0.502968 0.026550
v 0.023942 0.537032 -0.026550
v -0.113241 0.630802 -0.186299
v -0.251570 0.532398 -0.032901
v -0.325724 0.630000 -0.195714
v -0.325724 0.630000 -0.195714
v -0.325724 0.630000 -0.195714
v -0.325724 0.630000 -0.195714
v -0.251570 0.532398 -0.032901
v -0.113241 0.630802 -0.186299
v 0.028858 0.503774 -0.021728
v -0.028858 0.536226 0.021728
v -0.152648 0.600474 -0.138436
v 0.014087 0.506726 -0.263976
v 0.014087 0.506726 -0.263976
v -0.152648 0.600474 -0.138436
v -0.028858 0.536226 0.021728
v 0.028858 0.503774 -0.021728
v 0.014087 0.506726 -0.263976
v -0.152648 0.600474 -0.138436
v -0.123716 0.580000 -0.359297
v -0.123716 0.580000 -0.359297
v -0.123716 0.580000 -0.359297
v -0.123716 0.580000 -0.359297
v -0.152648 0.600474 -0.138436
v 0.014087 0.506726 -0.263976
v 0.036970 0.520000 0.014191
v -0.036970 0.520000 -0.014191
v -0.030541 0.581600 -0.239663
v 0.183062 0.581600 -0.157669
v 0.183062 0.581600 -0.157669
v -0.030541 0.581600 -0.239663
v -0.036970 0.520000 -0.014191
v 0.036970 0.520000 0.014191
v 0.183062 0.581600 -0.157669
v -0.030541 0.581600 -0.239663
v 0.136180 0.630000 -0.354761
v 0.136180 0.630000 -0.354761
v 0.136180 0.630000 -0.354761
v 0.136180 0.630000 -0.354761
v -0.030541 0.581600 -0.239663
v 0.183062 0.581600 -0.157669
v 0.018354 0.504012 0.031236
v -0.018354 0.535988 -0.031236
v 0.133096 0.599787 -0.193404
v 0.239142 0.507413 -0.012931
v 0.239142 0.507413 -0.012931
v 0.133096 0.599787 -0.193404
v -0.018354 0.535988 -0.031236
v 0.018354 0.504012 0.031236
v 0.239142 0.507413 -0.012931
v 0.133096 0.599787 -0.193404
v 0.332355 0.580000 -0.184228
v 0.332355 0.580000 -0.184228
v 0.332355 0.580000 -0.184228
v 0.332355 0.580000 -0.184228
v 0.133096 0.599787 -0.193404
v 0.239142 0.507413 -0.012931
vt 0.000000 0.000000
vt 1.000000 0.000000
vt 1.000000 1.000000
vt 0.000000 1.000000
vt 0.000000 0.000000
vt 1.000000 0.000000
vt 1.000000 1.000000
vt 0.000000 1.000000
vt 0.000000 0.000000
vt 1.000000 0.000000
vt 1.000000 1.000000
vt 0.000000 1.000000
vt 0.000000 0.000000
vt 1.000000 0.000000
vt 1.000000 1.000000
vt 0.000000 1.000000
vt 0.000000 0.000000
vt 1.000000 0.000000
vt 1.000000 1.000000
vt 0.000000 1.000000
vt 0.000000 0.000000
vt 1.000000 0.000000
vt 1.000000 1.000000
vt 0.000000 1.000000
vt 0.500000 0.500000
vt 0.000000 0.000000
vt 1.000000 0.000000
vt 0.000000 0.000000
vt 1.000000 0.000000
vt 0.000000 0.000000
vt 1.000000 0.000000
vt 0.000000 0.000000
vt 1.000000 0.000000
vt 0.000000 0.000000
vt 1.000000 0.000000
vt 0.000000 0.000000
vt 1.000000 0.000000
vt 0.500000 0.500000
vt 0.000000 0.000000
vt 1.000000 0.000000
vt 0.000000 0.000000
vt 1.000000 0.000000
vt 0.000000 0.000000
vt 1.000000 0.000000
vt 0.000000 0.000000
vt 1.000000 0.000000
vt 0.000000 0.000000
vt 1.000000 0.000000
vt 0.000000 0.000000
vt 1.000000 0.000000
vt 0.000000 0.000000
vt 1.000000 0.000000
vt 1.000000 1.000000
vt 0.000000 1.000000
vt 0.000000 0.000000
vt 1.000000 0.000000
vt 1.000000 1.000000
vt 0.000000 1.000000
vt 0.000000 0.000000
vt 1.000000 0.000000
vt 1.000000 1.000000
vt 0.000000 1.000000
vt 0.000000 0.000000
vt 1.000000 0.000000
vt 1.000000 1.000000
vt 0.000000 1.000000
vt 0.000000 0.000000
vt 1.000000 0.000000
vt 1.000000 1.000000
vt 0.000000 1.000000
vt 0.000000 0.000000
vt 1.000000 0.000000
vt 1.000000 1.000000
vt 0.000000 1.000000
vt 0.500000 0.500000
vt 0.000000 0.000000
vt 1.000000 0.000000
vt 0.000000 0.000000
vt 1.000000 0.000000
vt 0.000000 0.000000
vt 1.000000 0.000000
vt 0.000000 0.000000
vt 1.000000 0.000000
vt 0.000000 0.000000
vt 1.000000 0.000000
vt 0.000000 0.000000
vt 1.000000 0.000000
vt 0.500000 0.500000
vt 0.000000 0.000000
vt 1.000000 0.000000
vt 0.000000 0.000000
vt 1.000000 0.000000
vt 0.000000 0.000000
vt 1.000000 0.000000
vt 0.000000 0.000000
vt 1.000000 0.000000
vt 0.000000 0.000000
vt 1.000000 0.000000
vt 0.000000 0.000000
vt 1.000000 0.000000
vt 0.000000 0.000000
vt 1.000000 0.000000
vt 1.000000 1.000000
vt 0.000000 1.000000
vt 0.000000 0.000000
vt 1.000000 0.000000
vt 1.000000 1.000000
vt 0.000000 1.000000
vt 0.000000 0.000000
vt 1.000000 0.000000
vt 1.000000 1.000000
vt 0.000000 1.000000
vt 0.000000 0.000000
vt 1.000000 0.000000
vt 1.000000 1.000000
vt 0.000000 1.000000
vt 0.000000 0.000000
vt 1.000000 0.000000
vt 1.000000 1.000000
vt 0.000000 1.000000
vt 0.000000 0.000000
vt 1.000000 0.000000
vt 1.000000 1.000000
vt 0.000000 1.000000
vt 0.500000 0.500000
vt 0.000000 0.000000
vt 1.000000 0.000000
vt 0.000000 0.000000
vt 1.000000 0.000000
vt 0.000000 0.000000
vt 1.000000 0.000000
vt 0.000000 0.000000
vt 1.000000 0.000000
vt 0.000000 0.000000
vt 1.000000 0.000000
vt 0.000000 0.000000
vt 1.000000 0.000000
vt 0.500000 0.500000
vt 0.000000 0.000000
vt 1.000000 0.000000
vt 0.000000 0.000000
vt 1.000000 0.000000
vt 0.000000 0.000000
vt 1.000000 0.000000
vt 0.000000 0.000000
vt 1.000000 0.000000
vt 0.000000 0.000000
vt 1.000000 0.000000
vt 0.000000 0.000000
vt 1.000000 0.000000
vt 0.000000 0.000000
vt 1.000000 0.000000
vt 1.000000 1.000000
vt 0.000000 1.000000
vt 0.000000 0.000000
vt 1.000000 0.000000
vt 1.000000 1.000000
vt 0.000000 1.000000
vt 0.000000 0.000000
vt 1.000000 0.000000
vt 1.000000 1.000000
vt 0.000000 1.000000
vt 0.000000 0.000000
vt 1.000000 0.000000
vt 1.000000 1.000000
vt 0.000000 1.000000
vt 0.000000 0.000000
vt 1.000000 0.000000
vt 1.000000 1.000000
vt 0.000000 1.000000
vt 0.000000 0.000000
vt 1.000000 0.000000
vt 1.000000 1.000000
vt 0.000000 1.000000
vt 0.500000 0.500000
vt 0.000000 0.000000
vt 1.000000 0.000000
vt 0.000000 0.000000
vt 1.000000 0.000000
vt 0.000000 0.000000
vt 1.000000 0.000000
vt 0.000000 0.000000
vt 1.000000 0.000000
vt 0.000000 0.000000
vt 1.000000 0.000000
vt 0.000000 0.000000
vt 1.000000 0.000000
vt 0.500000 0.500000
vt 0.000000 0.000000
vt 1.000000 0.000000
vt 0.000000 0.000000
vt 1.000000 0.000000
vt 0.000000 0.000000
vt 1.000000 0.000000
vt 0.000000 0.000000
vt 1.000000 0.000000
vt 0.000000 0.000000
vt 1.000000 0.000000
vt 0.000000 0.000000
vt 1.000000 0.000000
vt 0.000000 0.000000
vt 1.000000 0.000000
vt 1.000000 1.000000
vt 0.000000 1.000000
vt 0.000000 0.000000
vt 1.000000 0.000000
vt 1.000000 1.000000
vt 0.000000 1.000000
vt 0.000000 0.000000
vt 1.000000 0.000000
vt 1.000000 1.000000
vt 0.000000 1.000000
vt 0.000000 0.000000
vt 1.000000 0.000000
vt 1.000000 1.000000
vt 0.000000 1.000000
vt 0.000000 0.000000
vt 1.000000 0.000000
vt 1.000000 1.000000
vt 0.000000 1.000000
vt 0.000000 0.000000
vt 1.000000 0.000000
vt 1.000000 1.000000
vt 0.000000 1.000000
vt 0.500000 0.500000
vt 0.000000 0.000000
vt 1.000000 0.000000
vt 0.000000 0.000000
vt 1.000000 0.000000
vt 0.000000 0.000000
vt 1.000000 0.000000
vt 0.000000 0.000000
vt 1.000000 0.000000
vt 0.000000 0.000000
vt 1.000000 0.000000
vt 0.000000 0.000000
vt 1.000000 0.000000
vt 0.500000 0.500000
vt 0.000000 0.000000
vt 1.000000 0.000000
vt 0.000000 0.000000
vt 1.000000 0.000000
vt 0.000000 0.000000
vt 1.000000 0.000000
vt 0.000000 0.000000
vt 1.000000 0.000000
vt 0.000000 0.000000
vt 1.000000 0.000000
vt 0.000000 0.000000
vt 1.000000 0.000000
vt 0.000000 0.000000
vt 1.000000 0.000000
vt 1.000000 1.000000
vt 0.000000 1.000000
vt 0.000000 0.000000
vt 1.000000 0.000000
vt 1.000000 1.000000
vt 0.000000 1.000000
vt 0.000000 0.000000
vt 1.000000 0.000000
vt 1.000000 1.000000
vt 0.000000 1.000000
vt 0.000000 0.000000
vt 1.000000 0.000000
vt 1.000000 1.000000
vt 0.000000 1.000000
vt 0.000000 0.000000
vt 1.000000 0.000000
vt 1.000000 1.000000
vt 0.000000 1.000000
vt 0.000000 0.000000
vt 1.000000 0.000000
vt 1.000000 1.000000
vt 0.000000 1.000000
vt 0.500000 0.500000
vt 0.000000 0.000000
vt 1.000000 0.000000
vt 0.000000 0.000000
vt 1.000000 0.000000
vt 0.000000 0.000000
vt 1.000000 0.000000
vt 0.000000 0.000000
vt 1.000000 0.000000
vt 0.000000 0.000000
vt 1.000000 0.000000
vt 0.000000 0.000000
vt 1.000000 0.000000
vt 0.500000 0.500000
vt 0.000000 0.000000
vt 1.000000 0.000000
vt 0.000000 0.000000
vt 1.000000 0.000000
vt 0.000000 0.000000
vt 1.000000 0.000000
vt 0.000000 0.000000
vt 1.000000 0.000000
vt 0.000000 0.000000
vt 1.000000 0.000000
vt 0.000000 0.000000
vt 1.000000 0.000000
vt 0.000000 0.000000
vt 1.000000 0.000000
vt 1.000000 1.000000
vt 0.000000 1.000000
vt 0.000000 0.000000
vt 1.000000 0.000000
vt 1.000000 1.000000
vt 0.000000 1.000000
vt 0.000000 0.000000
vt 1.000000 0.000000
vt 1.000000 1.000000
vt 0.000000 1.000000
vt 0.000000 0.000000
vt 1.000000 0.000000
vt 1.000000 1.000000
vt 0.000000 1.000000
vt 0.000000 0.000000
vt 1.000000 0.000000
vt 1.000000 1.000000
vt 0.000000 1.000000
vt 0.000000 0.000000
vt 1.000000 0.000000
vt 1.000000 1.000000
vt 0.000000 1.000000
vt 0.500000 0.500000
vt 0.000000 0.000000
vt 1.000000 0.000000
vt 0.000000 0.000000
vt 1.000000 0.000000
vt 0.000000 0.000000
vt 1.000000 0.000000
vt 0.000000 0.000000
vt 1.000000 0.000000
vt 0.000000 0.000000
vt 1.000000 0.000000
vt 0.000000 0.000000
vt 1.000000 0.000000
vt 0.500000 0.500000
vt 0.000000 0.000000
vt 1.000000 0.000000
vt 0.000000 0.000000
vt 1.000000 0.000000
vt 0.000000 0.000000
vt 1.000000 0.000000
vt 0.000000 0.000000
vt 1.000000 0.000000
vt 0.000000 0.000000
vt 1.000000 0.000000
vt 0.000000 0.000000
vt 1.000000 0.000000
vt 0.000000 0.000000
vt 1.000000 0.000000
vt 1.000000 1.000000
vt 0.000000 1.000000
vt 0.000000 0.000000
vt 1.000000 0.000000
vt 1.000000 1.000000
vt 0.000000 1.000000
vt 0.000000 0.000000
vt 1.000000 0.000000
vt 1.000000 1.000000
vt 0.000000 1.000000
vt 0.000000 0.000000
vt 1.000000 0.000000
vt 1.000000 1.000000
vt 0.000000 1.000000
vt 0.000000 0.000000
vt 1.000000 0.000000
vt 1.000000 1.000000
vt 0.000000 1.000000
vt 0.000000 0.000000
vt 1.000000 0.000000
vt 1.000000 1.000000
vt 0.000000 1.000000
vt 0.000000 0.000000
vt 1.000000 0.000000
vt 1.000000 1.000000
vt 0.000000 1.000000
vt 0.000000 0.000000
vt 1.000000 0.000000
vt 1.000000 1.000000
vt 0.000000 1.000000
vt 0.000000 0.000000
vt 1.000000 0.000000
vt 1.000000 1.000000
vt 0.000000 1.000000
vt 0.000000 0.000000
vt 1.000000 0.000000
vt 1.000000 1.000000
vt 0.000000 1.000000
vt 0.000000 0.000000
vt 1.000000 0.000000
vt 1.000000 1.000000
vt 0.000000 1.000000
vt 0.000000 0.000000
vt 1.000000 0.000000
vt 1.000000 1.000000
vt 0.000000 1.000000
vt 0.000000 0.000000
vt 1.000000 0.000000
vt 1.000000 1.000000
vt 0.000000 1.000000
vt 0.000000 0.000000
vt 1.000000 0.000000
vt 1.000000 1.000000
vt 0.000000 1.000000
vt 0.000000 0.000000
vt 1.000000 0.000000
vt 1.000000 1.000000
vt 0.000000 1.000000
vt 0.000000 0.000000
vt 1.000000 0.000000
vt 1.000000 1.000000
vt 0.000000 1.000000
vt 0.000000 0.000000
vt 1.000000 0.000000
vt 1.000000 1.000000
vt 0.000000 1.000000
vt 0.000000 0.000000
vt 1.000000 0.000000
vt 1.000000 1.000000
vt 0.000000 1.000000
vt 0.000000 0.000000
vt 1.000000 0.000000
vt 1.000000 1.000000
vt 0.000000 1.000000
vt 0.000000 0.000000
vt 1.000000 0.000000
vt 1.000000 1.000000
vt 0.000000 1.000000
vt 0.000000 0.000000
vt 1.000000 0.000000
vt 1.000000 1.000000
vt 0.000000 1.000000
vt 0.000000 0.000000
vt 1.000000 0.000000
vt 1.000000 1.000000
vt 0.000000 1.000000
vt 0.000000 0.000000
vt 1.000000 0.000000
vt 1.000000 1.000000
vt 0.000000 1.000000
vt 0.000000 0.000000
vt 1.000000 0.000000
vt 1.000000 1.000000
vt 0.000000 1.000000
vt 0.000000 0.000000
vt 1.000000 0.000000
vt 1.000000 1.000000
vt 0.000000 1.000000
vt 0.000000 0.000000
vt 1.000000 0.000000
vt 1.000000 1.000000
vt 0.000000 1.000000
vt 0.000000 0.000000
vt 1.000000 0.000000
vt 1.000000 1.000000
vt 0.000000 1.000000
vt 0.000000 0.000000
vt 1.000000 0.000000
vt 1.000000 1.000000
vt 0.000000 1.000000
vt 0.000000 0.000000
vt 1.000000 0.000000
vt 1.000000 1.000000
vt 0.000000 1.000000
vt 0.000000 0.000000
vt 1.000000 0.000000
vt 1.000000 1.000000
vt 0.000000 1.000000
vt 0.000000 0.000000
vt 1.000000 0.000000
vt 1.000000 1.000000
vt 0.000000 1.000000
vt 0.000000 0.000000
vt 1.000000 0.000000
vt 1.000000 1.000000
vt 0.000000 1.000000
vt 0.000000 0.000000
vt 1.000000 0.000000
vt 1.000000 1.000000
vt 0.000000 1.000000
vt 0.000000 0.000000
vt 1.000000 0.000000
vt 1.000000 1.000000
vt 0.000000 1.000000
vt 0.000000 0.000000
vt 1.000000 0.000000
vt 1.000000 1.000000
vt 0.000000 1.000000
vt 0.000000 0.000000
vt 1.000000 0.000000
vt 1.000000 1.000000
vt 0.000000 1.000000
vt 0.000000 0.000000
vt 1.000000 0.000000
vt 1.000000 1.000000
vt 0.000000 1.000000
vt 0.000000 0.000000
vt 1.000000 0.000000
vt 1.000000 1.000000
vt 0.000000 1.000000
vt 0.000000 0.000000
vt 1.000000 0.000000
vt 1.000000 1.000000
vt 0.000000 1.000000
vt 0.000000 0.000000
vt 1.000000 0.000000
vt 1.000000 1.000000
vt 0.000000 1.000000
vt 0.000000 0.000000
vt 1.000000 0.000000
vt 1.000000 1.000000
vt 0.000000 1.000000
vt 0.000000 0.000000
vt 1.000000 0.000000
vt 1.000000 1.000000
vt 0.000000 1.000000
vt 0.000000 0.000000
vt 1.000000 0.000000
vt 1.000000 1.000000
vt 0.000000 1.000000
vt 0.000000 0.000000
vt 1.000000 0.000000
vt 1.000000 1.000000
vt 0.000000 1.000000
vt 0.000000 0.000000
vt 1.000000 0.000000
vt 1.000000 1.000000
vt 0.000000 1.000000
vt 0.000000 0.000000
vt 1.000000 0.000000
vt 1.000000 1.000000
vt 0.000000 1.000000
vt 0.000000 0.000000
vt 1.000000 0.000000
vt 1.000000 1.000000
vt 0.000000 1.000000
vt 0.000000 0.000000
vt 1.000000 0.000000
vt 1.000000 1.000000
vt 0.000000 1.000000
vt 0.000000 0.000000
vt 1.000000 0.000000
vt 1.000000 1.000000
vt 0.000000 1.000000
vt 0.000000 0.000000
vt 1.000000 0.000000
vt 1.000000 1.000000
vt 0.000000 1.000000
vt 0.000000 0.000000
vt 1.000000 0.000000
vt 1.000000 1.000000
vt 0.000000 1.000000
vt 0.000000 0.000000
vt 1.000000 0.000000
vt 1.000000 1.000000
vt 0.000000 1.000000
vt 0.000000 0.000000
vt 1.000000 0.000000
vt 1.000000 1.000000
vt 0.000000 1.000000
vt 0.000000 0.000000
vt 1.000000 0.000000
vt 1.000000 1.000000
vt 0.000000 1.000000
vt 0.000000 0.000000
vt 1.000000 0.000000
vt 1.000000 1.000000
vt 0.000000 1.000000
vt 0.000000 0.000000
vt 1.000000 0.000000
vt 1.000000 1.000000
vt 0.000000 1.000000
vt 0.000000 0.000000
vt 1.000000 0.000000
vt 1.000000 1.000000
vt 0.000000 1.000000
vt 0.000000 0.000000
vt 1.000000 0.000000
vt 1.000000 1.000000
vt 0.000000 1.000000
vt 0.000000 0.000000
vt 1.000000 0.000000
vt 1.000000 1.000000
vt 0.000000 1.000000
vt 0.000000 0.000000
vt 1.000000 0.000000
vt 1.000000 1.000000
vt 0.000000 1.000000
vt 0.000000 0.000000
vt 1.000000 0.000000
vt 1.000000 1.000000
vt 0.000000 1.000000
vt 0.000000 0.000000
vt 1.000000 0.000000
vt 1.000000 1.000000
vt 0.000000 1.000000
vt 0.000000 0.000000
vt 1.000000 0.000000
vt 1.000000 1.000000
vt 0.000000 1.000000
vt 0.000000 0.000000
vt 1.000000 0.000000
vt 1.000000 1.000000
vt 0.000000 1.000000
vt 0.000000 0.000000
vt 1.000000 0.000000
vt 1.000000 1.000000
vt 0.000000 1.000000
vt 0.000000 0.000000
vt 1.000000 0.000000
vt 1.000000 1.000000
vt 0.000000 1.000000
vt 0.000000 0.000000
vt 1.000000 0.000000
vt 1.000000 1.000000
vt 0.000000 1.000000
vt 0.000000 0.000000
vt 1.000000 0.000000
vt 1.000000 1.000000
vt 0.000000 1.000000
vt 0.000000 0.000000
vt 1.000000 0.000000
vt 1.000000 1.000000
vt 0.000000 1.000000
vt 0.000000 0.000000
vt 1.000000 0.000000
vt 1.000000 1.000000
vt 0.000000 1.000000
vt 0.000000 0.000000
vt 1.000000 0.000000
vt 1.000000 1.000000
vt 0.000000 1.000000
vt 0.000000 0.000000
vt 1.000000 0.000000
vt 1.000000 1.000000
vt 0.000000 1.000000
vt 0.000000 0.000000
vt 1.000000 0.000000
vt 1.000000 1.000000
vt 0.000000 1.000000
vt 0.000000 0.000000
vt 1.000000 0.000000
vt 1.000000 1.000000
vt 0.000000 1.000000
vt 0.000000 0.000000
vt 1.000000 0.000000
vt 1.000000 1.000000
vt 0.000000 1.000000
vt 0.000000 0.000000
vt 1.000000 0.000000
vt 1.000000 1.000000
vt 0.000000 1.000000
vt 0.000000 0.000000
vt 1.000000 0.000000
vt 1.000000 1.000000
vt 0.000000 1.000000
vt 0.000000 0.000000
vt 1.000000 0.000000
vt 1.000000 1.000000
vt 0.000000 1.000000
vt 0.000000 0.000000
vt 1.000000 0.000000
vt 1.000000 1.000000
vt 0.000000 1.000000
vt 0.000000 0.000000
vt 1.000000 0.000000
vt 1.000000 1.000000
vt 0.000000 1.000000
vt 0.000000 0.000000
vt 1.000000 0.000000
vt 1.000000 1.000000
vt 0.000000 1.000000
vt 0.000000 0.000000
vt 1.000000 0.000000
vt 1.000000 1.000000
vt 0.000000 1.000000
vt 0.000000 0.000000
vt 1.000000 0.000000
vt 1.000000 1.000000
vt 0.000000 1.000000
vt 0.000000 0.000000
vt 1.000000 0.000000
vt 1.000000 1.000000
vt 0.000000 1.000000
vt 0.000000 0.000000
vt 1.000000 0.000000
vt 1.000000 1.000000
vt 0.000000 1.000000
vt 0.000000 0.000000
vt 1.000000 0.000000
vt 1.000000 1.000000
vt 0.000000 1.000000
vt 0.000000 0.000000
vt 1.000000 0.000000
vt 1.000000 1.000000
vt 0.000000 1.000000
vt 0.000000 0.000000
vt 1.000000 0.000000
vt 1.000000 1.000000
vt 0.000000 1.000000
vt 0.000000 0.000000
vt 1.000000 0.000000
vt 1.000000 1.000000
vt 0.000000 1.000000
vt 0.000000 0.000000
vt 1.000000 0.000000
vt 1.000000 1.000000
vt 0.000000 1.000000
vt 0.000000 0.000000
vt 1.000000 0.000000
vt 1.000000 1.000000
vt 0.000000 1.000000
vt 0.000000 0.000000
vt 1.000000 0.000000
vt 1.000000 1.000000
vt 0.000000 1.000000
vt 0.000000 0.000000
vt 1.000000 0.000000
vt 1.000000 1.000000
vt 0.000000 1.000000
vt 0.000000 0.000000
vt 1.000000 0.000000
vt 1.000000 1.000000
vt 0.000000 1.000000
vt 0.000000 0.000000
vt 1.000000 0.000000
vt 1.000000 1.000000
vt 0.000000 1.000000
vt 0.000000 0.000000
vt 1.000000 0.000000
vt 1.000000 1.000000
vt 0.000000 1.000000
vt 0.000000 0.000000
vt 1.000000 0.000000
vt 1.000000 1.000000
vt 0.000000 1.000000
vt 0.000000 0.000000
vt 1.000000 0.000000
vt 1.000000 1.000000
vt 0.000000 1.000000
vt 0.000000 0.000000
vt 1.000000 0.000000
vt 1.000000 1.000000
vt 0.000000 1.000000
vt 0.000000 0.000000
vt 1.000000 0.000000
vt 1.000000 1.000000
vt 0.000000 1.000000
vt 0.000000 0.000000
vt 1.000000 0.000000
vt 1.000000 1.000000
vt 0.000000 1.000000
vt 0.000000 0.000000
vt 1.000000 0.000000
vt 1.000000 1.000000
vt 0.000000 1.000000
vt 0.000000 0.000000
vt 1.000000 0.000000
vt 1.000000 1.000000
vt 0.000000 1.000000
vt 0.000000 0.000000
vt 1.000000 0.000000
vt 1.000000 1.000000
vt 0.000000 1.000000
vt 0.000000 0.000000
vt 1.000000 0.000000
vt 1.000000 1.000000
vt 0.000000 1.000000
vt 0.000000 0.000000
vt 1.000000 0.000000
vt 1.000000 1.000000
vt 0.000000 1.000000
vt 0.000000 0.000000
vt 1.000000 0.000000
vt 1.000000 1.000000
vt 0.000000 1.000000
vt 0.000000 0.000000
vt 1.000000 0.000000
vt 1.000000 1.000000
vt 0.000000 1.000000
vt 0.000000 0.000000
vt 1.000000 0.000000
vt 1.000000 1.000000
vt 0.000000 1.000000
vt 0.000000 0.000000
vt 1.000000 0.000000
vt 1.000000 1.000000
vt 0.000000 1.000000
vt 0.000000 0.000000
vt 1.000000 0.000000
vt 1.000000 1.000000
vt 0.000000 1.000000
vt 0.000000 0.000000
vt 1.000000 0.000000
vt 1.000000 1.000000
vt 0.000000 1.000000
vt 0.000000 0.000000
vt 1.000000 0.000000
vt 1.000000 1.000000
vt 0.000000 1.000000
vt 0.000000 0.000000
vt 1.000000 0.000000
vt 1.000000 1.000000
vt 0.000000 1.000000
vt 0.000000 0.000000
vt 1.000000 0.000000
vt 1.000000 1.000000
vt 0.000000 1.000000
vt 0.000000 0.000000
vt 1.000000 0.000000
vt 1.000000 1.000000
vt 0.000000 1.000000
vt 0.000000 0.000000
vt 1.000000 0.000000
vt 1.000000 1.000000
vt 0.000000 1.000000
vt 0.000000 0.000000
vt 1.000000 0.000000
vt 1.000000 1.000000
vt 0.000000 1.000000
vt 0.000000 0.000000
vt 1.000000 0.000000
vt 1.000000 1.000000
vt 0.000000 1.000000
vt 0.000000 0.000000
vt 1.000000 0.000000
vt 1.000000 1.000000
vt 0.000000 1.000000
vt 0.000000 0.000000
vt 1.000000 0.000000
vt 1.000000 1.000000
vt 0.000000 1.000000
vt 0.000000 0.000000
vt 1.000000 0.000000
vt 1.000000 1.000000
vt 0.000000 1.000000
vt 0.000000 0.000000
vt 1.000000 0.000000
vt 1.000000 1.000000
vt 0.000000 1.000000
vt 0.000000 0.000000
vt 1.000000 0.000000
vt 1.000000 1.000000
vt 0.000000 1.000000
vt 0.000000 0.000000
vt 1.000000 0.000000
vt 1.000000 1.000000
vt 0.000000 1.000000
vt 0.000000 0.000000
vt 1.000000 0.000000
vt 1.000000 1.000000
vt 0.000000 1.000000
vt 0.000000 0.000000
vt 1.000000 0.000000
vt 1.000000 1.000000
vt 0.000000 1.000000
vt 0.000000 0.000000
vt 1.000000 0.000000
vt 1.000000 1.000000
vt 0.000000 1.000000
vt 0.000000 0.000000
vt 1.000000 0.000000
vt 1.000000 1.000000
vt 0.000000 1.000000
vt 0.000000 0.000000
vt 1.000000 0.000000
vt 1.000000 1.000000
vt 0.000000 1.000000
vt 0.000000 0.000000
vt 1.000000 0.000000
vt 1.000000 1.000000
vt 0.000000 1.000000
vt 0.000000 0.000000
vt 1.000000 0.000000
vt 1.000000 1.000000
vt 0.000000 1.000000
vt 0.000000 0.000000
vt 1.000000 0.000000
vt 1.000000 1.000000
vt 0.000000 1.000000
vt 0.000000 0.000000
vt 1.000000 0.000000
vt 1.000000 1.000000
vt 0.000000 1.000000
vt 0.000000 0.000000
vt 1.000000 0.000000
vt 1.000000 1.000000
vt 0.000000 1.000000
vt 0.000000 0.000000
vt 1.000000 0.000000
vt 1.000000 1.000000
vt 0.000000 1.000000
vt 0.000000 0.000000
vt 1.000000 0.000000
vt 1.000000 1.000000
vt 0.000000 1.000000
vt 0.000000 0.000000
vt 1.000000 0.000000
vt 1.000000 1.000000
vt 0.000000 1.000000
vt 0.000000 0.000000
vt 1.000000 0.000000
vt 1.000000 1.000000
vt 0.000000 1.000000
vt 0.000000 0.000000
vt 1.000000 0.000000
vt 1.000000 1.000000
vt 0.000000 1.000000
vt 0.000000 0.000000
vt 1.000000 0.000000
vt 1.000000 1.000000
vt 0.000000 1.000000
vt 0.000000 0.000000
vt 1.000000 0.000000
vt 1.000000 1.000000
vt 0.000000 1.000000
vt 0.000000 0.000000
vt 1.000000 0.000000
vt 1.000000 1.000000
vt 0.000000 1.000000
vt 0.000000 0.000000
vt 1.000000 0.000000
vt 1.000000 1.000000
vt 0.000000 1.000000
vt 0.000000 0.000000
vt 1.000000 0.000000
vt 1.000000 1.000000
vt 0.000000 1.000000
vt 0.000000 0.000000
vt 1.000000 0.000000
vt 1.000000 1.000000
vt 0.000000 1.000000
vt 0.000000 0.000000
vt 1.000000 0.000000
vt 1.000000 1.000000
vt 0.000000 1.000000
vt 0.000000 0.000000
vt 1.000000 0.000000
vt 1.000000 1.000000
vt 0.000000 1.000000
vt 0.000000 0.000000
vt 1.000000 0.000000
vt 1.000000 1.000000
vt 0.000000 1.000000
vt 0.000000 0.000000
vt 1.000000 0.000000
vt 1.000000 1.000000
vt 0.000000 1.000000
vt 0.000000 0.000000
vt 1.000000 0.000000
vt 1.000000 1.000000
vt 0.000000 1.000000
vt 0.000000 0.000000
vt 1.000000 0.000000
vt 1.000000 1.000000
vt 0.000000 1.000000
vt 0.000000 0.000000
vt 1.000000 0.000000
vt 1.000000 1.000000
vt 0.000000 1.000000
vt 0.000000 0.000000
vt 1.000000 0.000000
vt 1.000000 1.000000
vt 0.000000 1.000000
vt 0.000000 0.000000
vt 1.000000 0.000000
vt 1.000000 1.000000
vt 0.000000 1.000000
vt 0.000000 0.000000
vt 1.000000 0.000000
vt 1.000000 1.000000
vt 0.000000 1.000000
vt 0.000000 0.000000
vt 1.000000 0.000000
vt 1.000000 1.000000
vt 0.000000 1.000000
vt 0.000000 0.000000
vt 1.000000 0.000000
vt 1.000000 1.000000
vt 0.000000 1.000000
vt 0.000000 0.000000
vt 1.000000 0.000000
vt 1.000000 1.000000
vt 0.000000 1.000000
vt 0.000000 0.000000
vt 1.000000 0.000000
vt 1.000000 1.000000
vt 0.000000 1.000000
vt 0.000000 0.000000
vt 1.000000 0.000000
vt 1.000000 1.000000
vt 0.000000 1.000000
vt 0.000000 0.000000
vt 1.000000 0.000000
vt 1.000000 1.000000
vt 0.000000 1.000000
vt 0.000000 0.000000
vt 1.000000 0.000000
vt 1.000000 1.000000
vt 0.000000 1.000000
vt 0.000000 0.000000
vt 1.000000 0.000000
vt 1.000000 1.000000
vt 0.000000 1.000000
vt 0.000000 0.000000
vt 1.000000 0.000000
vt 1.000000 1.000000
vt 0.000000 1.000000
vt 0.000000 0.000000
vt 1.000000 0.000000
vt 1.000000 1.000000
vt 0.000000 1.000000
vt 0.000000 0.000000
vt 1.000000 0.000000
vt 1.000000 1.000000
vt 0.000000 1.000000
vt 0.000000 0.000000
vt 1.000000 0.000000
vt 1.000000 1.000000
vt 0.000000 1.000000
vt 0.000000 0.000000
vt 1.000000 0.000000
vt 1.000000 1.000000
vt 0.000000 1.000000
vt 0.000000 0.000000
vt 1.000000 0.000000
vt 1.000000 1.000000
vt 0.000000 1.000000
vt 0.000000 0.000000
vt 1.000000 0.000000
vt 1.000000 1.000000
vt 0.000000 1.000000
vt 0.000000 0.000000
vt 1.000000 0.000000
vt 1.000000 1.000000
vt 0.000000 1.000000
vt 0.000000 0.000000
vt 1.000000 0.000000
vt 1.000000 1.000000
vt 0.000000 1.000000
vt 0.000000 0.000000
vt 1.000000 0.000000
vt 1.000000 1.000000
vt 0.000000 1.000000
vt 0.000000 0.000000
vt 1.000000 0.000000
vt 1.000000 1.000000
vt 0.000000 1.000000
vt 0.000000 0.000000
vt 1.000000 0.000000
vt 1.000000 1.000000
vt 0.000000 1.000000
vt 0.000000 0.000000
vt 1.000000 0.000000
vt 1.000000 1.000000
vt 0.000000 1.000000
vt 0.000000 0.000000
vt 1.000000 0.000000
vt 1.000000 1.000000
vt 0.000000 1.000000
vt 0.000000 0.000000
vt 1.000000 0.000000
vt 1.000000 1.000000
vt 0.000000 1.000000
vt 0.000000 0.000000
vt 1.000000 0.000000
vt 1.000000 1.000000
vt 0.000000 1.000000
vt 0.000000 0.000000
vt 1.000000 0.000000
vt 1.000000 1.000000
vt 0.000000 1.000000
vt 0.000000 0.000000
vt 1.000000 0.000000
vt 1.000000 1.000000
vt 0.000000 1.000000
vt 0.000000 0.000000
vt 1.000000 0.000000
vt 1.000000 1.000000
vt 0.000000 1.000000
vt 0.000000 0.000000
vt 1.000000 0.000000
vt 1.000000 1.000000
vt 0.000000 1.000000
vt 0.000000 0.000000
vt 1.000000 0.000000
vt 1.000000 1.000000
vt 0.000000 1.000000
vt 0.000000 0.000000
vt 1.000000 0.000000
vt 1.000000 1.000000
vt 0.000000 1.000000
vt 0.000000 0.000000
vt 1.000000 0.000000
vt 1.000000 1.000000
vt 0.000000 1.000000
vt 0.000000 0.000000
vt 1.000000 0.000000
vt 1.000000 1.000000
vt 0.000000 1.000000
vt 0.000000 0.000000
vt 1.000000 0.000000
vt 1.000000 1.000000
vt 0.000000 1.000000
vt 0.000000 0.000000
vt 1.000000 0.000000
vt 1.000000 1.000000
vt 0.000000 1.000000
vt 0.000000 0.000000
vt 1.000000 0.000000
vt 1.000000 1.000000
vt 0.000000 1.000000
vt 0.000000 0.000000
vt 1.000000 0.000000
vt 1.000000 1.000000
vt 0.000000 1.000000
vt 0.000000 0.000000
vt 1.000000 0.000000
vt 1.000000 1.000000
vt 0.000000 1.000000
vt 0.000000 0.000000
vt 1.000000 0.000000
vt 1.000000 1.000000
vt 0.000000 1.000000
vt 0.000000 0.000000
vt 1.000000 0.000000
vt 1.000000 1.000000
vt 0.000000 1.000000
vt 0.000000 0.000000
vt 1.000000 0.000000
vt 1.000000 1.000000
vt 0.000000 1.000000
vt 0.000000 0.000000
vt 1.000000 0.000000
vt 1.000000 1.000000
vt 0.000000 1.000000
vt 0.000000 0.000000
vt 1.000000 0.000000
vt 1.000000 1.000000
vt 0.000000 1.000000
vt 0.000000 0.000000
vt 1.000000 0.000000
vt 1.000000 1.000000
vt 0.000000 1.000000
vt 0.000000 0.000000
vt 1.000000 0.000000
vt 1.000000 1.000000
vt 0.000000 1.000000
vt 0.000000 0.000000
vt 1.000000 0.000000
vt 1.000000 1.000000
vt 0.000000 1.000000
vt 0.000000 0.000000
vt 1.000000 0.000000
vt 1.000000 1.000000
vt 0.000000 1.000000
vt 0.000000 0.000000
vt 1.000000 0.000000
vt 1.000000 1.000000
vt 0.000000 1.000000
vt 0.000000 0.000000
vt 1.000000 0.000000
vt 1.000000 1.000000
vt 0.000000 1.000000
vt 0.000000 0.000000
vt 1.000000 0.000000
vt 1.000000 1.000000
vt 0.000000 1.000000
vt 0.000000 0.000000
vt 1.000000 0.000000
vt 1.000000 1.000000
vt 0.000000 1.000000
vt 0.000000 0.000000
vt 1.000000 0.000000
vt 1.000000 1.000000
vt 0.000000 1.000000
vt 0.000000 0.000000
vt 1.000000 0.000000
vt 1.000000 1.000000
vt 0.000000 1.000000
vt 0.000000 0.000000
vt 1.000000 0.000000
vt 1.000000 1.000000
vt 0.000000 1.000000
vt 0.000000 0.000000
vt 1.000000 0.000000
vt 1.000000 1.000000
vt 0.000000 1.000000
vt 0.000000 0.000000
vt 1.000000 0.000000
vt 1.000000 1.000000
vt 0.000000 1.000000
vt 0.000000 0.000000
vt 1.000000 0.000000
vt 1.000000 1.000000
vt 0.000000 1.000000
vt 0.000000 0.000000
vt 1.000000 0.000000
vt 1.000000 1.000000
vt 0.000000 1.000000
vt 0.000000 0.000000
vt 1.000000 0.000000
vt 1.000000 1.000000
vt 0.000000 1.000000
vt 0.000000 0.000000
vt 1.000000 0.000000
vt 1.000000 1.000000
vt 0.000000 1.000000
vt 0.000000 0.000000
vt 1.000000 0.000000
vt 1.000000 1.000000
vt 0.000000 1.000000
vt 0.000000 0.000000
vt 1.000000 0.000000
vt 1.000000 1.000000
vt 0.000000 1.000000
vt 0.000000 0.000000
vt 1.000000 0.000000
vt 1.000000 1.000000
vt 0.000000 1.000000
vt 0.000000 0.000000
vt 1.000000 0.000000
vt 1.000000 1.000000
vt 0.000000 1.000000
vt 0.000000 0.000000
vt 1.000000 0.000000
vt 1.000000 1.000000
vt 0.000000 1.000000
vt 0.000000 0.000000
vt 1.000000 0.000000
vt 1.000000 1.000000
vt 0.000000 1.000000
vt 0.000000 0.000000
vt 1.000000 0.000000
vt 1.000000 1.000000
vt 0.000000 1.000000
vt 0.000000 0.000000
vt 1.000000 0.000000
vt 1.000000 1.000000
vt 0.000000 1.000000
vt 0.000000 0.000000
vt 1.000000 0.000000
vt 1.000000 1.000000
vt 0.000000 1.000000
vt 0.000000 0.000000
vt 1.000000 0.000000
vt 1.000000 1.000000
vt 0.000000 1.000000
vt 0.000000 0.000000
vt 1.000000 0.000000
vt 1.000000 1.000000
vt 0.000000 1.000000
vt 0.000000 0.000000
vt 1.000000 0.000000
vt 1.000000 1.000000
vt 0.000000 1.000000
vt 0.000000 0.000000
vt 1.000000 0.000000
vt 1.000000 1.000000
vt 0.000000 1.000000
vt 0.000000 0.000000
vt 1.000000 0.000000
vt 1.000000 1.000000
vt 0.000000 1.000000
vt 0.000000 0.000000
vt 1.000000 0.000000
vt 1.000000 1.000000
vt 0.000000 1.000000
vt 0.000000 0.000000
vt 1.000000 0.000000
vt 1.000000 1.000000
vt 0.000000 1.000000
vt 0.000000 0.000000
vt 1.000000 0.000000
vt 1.000000 1.000000
vt 0.000000 1.000000
vt 0.000000 0.000000
vt 1.000000 0.000000
vt 1.000000 1.000000
vt 0.000000 1.000000
vt 0.000000 0.000000
vt 1.000000 0.000000
vt 1.000000 1.000000
vt 0.000000 1.000000
vt 0.000000 0.000000
vt 1.000000 0.000000
vt 1.000000 1.000000
vt 0.000000 1.000000
vt 0.000000 0.000000
vt 1.000000 0.000000
vt 1.000000 1.000000
vt 0.000000 1.000000
vt 0.000000 0.000000
vt 1.000000 0.000000
vt 1.000000 1.000000
vt 0.000000 1.000000
vt 0.000000 0.000000
vt 1.000000 0.000000
vt 1.000000 1.000000
vt 0.000000 1.000000
vt 0.000000 0.000000
vt 1.000000 0.000000
vt 1.000000 1.000000
vt 0.000000 1.000000
vt 0.000000 0.000000
vt 1.000000 0.000000
vt 1.000000 1.000000
vt 0.000000 1.000000
vt 0.000000 0.000000
vt 1.000000 0.000000
vt 1.000000 1.000000
vt 0.000000 1.000000
vt 0.000000 0.000000
vt 1.000000 0.000000
vt 1.000000 1.000000
vt 0.000000 1.000000
vt 0.000000 0.000000
vt 1.000000 0.000000
vt 1.000000 1.000000
vt 0.000000 1.000000
vt 0.000000 0.000000
vt 1.000000 0.000000
vt 1.000000 1.000000
vt 0.000000 1.000000
vt 0.000000 0.000000
vt 1.000000 0.000000
vt 1.000000 1.000000
vt 0.000000 1.000000
vt 0.000000 0.000000
vt 1.000000 0.000000
vt 1.000000 1.000000
vt 0.000000 1.000000
vt 0.000000 0.000000
vt 1.000000 0.000000
vt 1.000000 1.000000
vt 0.000000 1.000000
vt 0.000000 0.000000
vt 1.000000 0.000000
vt 1.000000 1.000000
vt 0.000000 1.000000
vt 0.000000 0.000000
vt 1.000000 0.000000
vt 1.000000 1.000000
vt 0.000000 1.000000
vt 0.000000 0.000000
vt 1.000000 0.000000
vt 1.000000 1.000000
vt 0.000000 1.000000
vt 0.000000 0.000000
vt 1.000000 0.000000
vt 1.000000 1.000000
vt 0.000000 1.000000
vt 0.000000 0.000000
vt 1.000000 0.000000
vt 1.000000 1.000000
vt 0.000000 1.000000
usemtl Wood
f 1/1 2/2 3/3
f 1/1 3/3 4/4
f 5/5 6/6 7/7
f 5/5 7/7 8/8
f 9/9 10/10 11/11
f 9/9 11/11 12/12
f 13/13 14/14 15/15
f 13/13 15/15 16/16
f 17/17 18/18 19/19
f 17/17 19/19 20/20
f 21/21 22/22 23/23
f 21/21 23/23 24/24
f 25/25 27/27 26/26
f 25/25 29/29 28/28
f 25/25 31/31 30/30
f 25/25 33/33 32/32
f 25/25 35/35 34/34
f 25/25 37/37 36/36
f 38/38 39/39 40/40
f 38/38 41/41 42/42
f 38/38 43/43 44/44
f 38/38 45/45 46/46
f 38/38 47/47 48/48
f 38/38 49/49 50/50
f 51/51 52/52 53/53
f 51/51 53/53 54/54
f 55/55 56/56 57/57
f 55/55 57/57 58/58
f 59/59 60/60 61/61
f 59/59 61/61 62/62
f 63/63 64/64 65/65
f 63/63 65/65 66/66
f 67/67 68/68 69/69
f 67/67 69/69 70/70
f 71/71 72/72 73/73
f 71/71 73/73 74/74
f 75/75 77/77 76/76
f 75/75 79/79 78/78
f 75/75 81/81 80/80
f 75/75 83/83 82/82
f 75/75 85/85 84/84
f 75/75 87/87 86/86
f 88/88 89/89 90/90
f 88/88 91/91 92/92
f 88/88 93/93 94/94
f 88/88 95/95 96/96
f 88/88 97/97 98/98
f 88/88 99/99 100/100
f 101/101 102/102 103/103
f 101/101 103/103 104/104
f 105/105 106/106 107/107
f 105/105 107/107 108/108
f 109/109 110/110 111/111
f 109/109 111/111 112/112
f 113/113 114/114 115/115
f 113/113 115/115 116/116
f 117/117 118/118 119/119
f 117/117 119/119 120/120
f 121/121 122/122 123/123
f 121/121 123/123 124/124
f 125/125 127/127 126/126
f 125/125 129/129 128/128
f 125/125 131/131 130/130
f 125/125 133/133 132/132
f 125/125 135/135 134/134
f 125/125 137/137 136/136
f 138/138 139/139 140/140
f 138/138 141/141 142/142
f 138/138 143/143 144/144
f 138/138 145/145 146/146
f 138/138 147/147 148/148
f 138/138 149/149 150/150
f 151/151 152/152 153/153
f 151/151 153/153 154/154
f 155/155 156/156 157/157
f 155/155 157/157 158/158
f 159/159 160/160 161/161
f 159/159 161/161 162/162
f 163/163 164/164 165/165
f 163/163 165/165 166/166
f 167/167 168/168 169/169
f 167/167 169/169 170/170
f 171/171 172/172 173/173
f 171/171 173/173 174/174
f 175/175 177/177 176/176
f 175/175 179/179 178/178
f 175/175 181/181 180/180
f 175/175 183/183 182/182
f 175/175 185/185 184/184
f 175/175 187/187 186/186
f 188/188 189/189 190/190
f 188/188 191/191 192/192
f 188/188 193/193 194/194
f 188/188 195/195 196/196
f 188/188 197/197 198/198
f 188/188 199/199 200/200
f 201/201 202/202 203/203
f 201/201 203/203 204/204
f 205/205 206/206 207/207
f 205/205 207/207 208/208
f 209/209 210/210 211/211
f 209/209 211/211 212/212
f 213/213 214/214 215/215
f 213/213 215/215 216/216
f 217/217 218/218 219/219
f 217/217 219/219 220/220
f 221/221 222/222 223/223
f 221/221 223/223 224/224
f 225/225 227/227 226/226
f 225/225 229/229 228/228
f 225/225 231/231 230/230
f 225/225 233/233 232/232
f 225/225 235/235 234/234
f 225/225 237/237 236/236
f 238/238 239/239 240/240
f 238/238 241/241 242/242
f 238/238 243/243 244/244
f 238/238 245/245 246/246
f 238/238 247/247 248/248
f 238/238 249/249 250/250
f 251/251 252/252 253/253
f 251/251 253/253 254/254
f 255/255 256/256 257/257
f 255/255 257/257 258/258
f 259/259 260/260 261/261
f 259/259 261/261 262/262
f 263/263 264/264 265/265
f 263/263 265/265 266/266
f 267/267 268/268 269/269
f 267/267 269/269 270/270
f 271/271 272/272 273/273
f 271/271 273/273 274/274
f 275/275 277/277 276/276
f 275/275 279/279 278/278
f 275/275 281/281 280/280
f 275/275 283/283 282/282
f 275/275 285/285 284/284
f 275/275 287/287 286/286
f 288/288 289/289 290/290
f 288/288 291/291 292/292
f 288/288 293/293 294/294
f 288/288 295/295 296/296
f 288/288 297/297 298/298
f 288/288 299/299 300/300
f 301/301 302/302 303/303
f 301/301 303/303 304/304
f 305/305 306/306 307/307
f 305/305 307/307 308/308
f 309/309 310/310 311/311
f 309/309 311/311 312/312
f 313/313 314/314 315/315
f 313/313 315/315 316/316
f 317/317 318/318 319/319
f 317/317 319/319 320/320
f 321/321 322/322 323/323
f 321/321 323/323 324/324
f 325/325 327/327 326/326
f 325/325 329/329 328/328
f 325/325 331/331 330/330
f 325/325 333/333 332/332
f 325/325 335/335 334/334
f 325/325 337/337 336/336
f 338/338 339/339 340/340
f 338/338 341/341 342/342
f 338/338 343/343 344/344
f 338/338 345/345 346/346
f 338/338 347/347 348/348
f 338/338 349/349 350/350
usemtl Leaf
f 351/351 352/352 353/353
f 351/351 353/353 354/354
f 355/355 356/356 357/357
f 355/355 357/357 358/358
f 359/359 360/360 361/361
f 359/359 361/361 362/362
f 363/363 364/364 365/365
f 363/363 365/365 366/366
f 367/367 368/368 369/369
f 367/367 369/369 370/370
f 371/371 372/372 373/373
f 371/371 373/373 374/374
f 375/375 376/376 377/377
f 375/375 377/377 378/378
f 379/379 380/380 381/381
f 379/379 381/381 382/382
f 383/383 384/384 385/385
f 383/383 385/385 386/386
f 387/387 388/388 389/389
f 387/387 389/389 390/390
f 391/391 392/392 393/393
f 391/391 393/393 394/394
f 395/395 396/396 397/397
f 395/395 397/397 398/398
f 399/399 400/400 401/401
f 399/399 401/401 402/402
f 403/403 404/404 405/405
f 403/403 405/405 406/406
f 407/407 408/408 409/409
f 407/407 409/409 410/410
f 411/411 412/412 413/413
f 411/411 413/413 414/414
f 415/415 416/416 417/417
f 415/415 417/417 418/418
f 419/419 420/420 421/421
f 419/419 421/421 422/422
f 423/423 424/424 425/425
f 423/423 425/425 426/426
f 427/427 428/428 429/429
f 427/427 429/429 430/430
f 431/431 432/432 433/433
f 431/431 433/433 434/434
f 435/435 436/436 437/437
f 435/435 437/437 438/438
f 439/439 440/440 441/441
f 439/439 441/441 442/442
f 443/443 444/444 445/445
f 443/443 445/445 446/446
f 447/447 448/448 449/449
f 447/447 449/449 450/450
f 451/451 452/452 453/453
f 451/451 453/453 454/454
f 455/455 456/456 457/457
f 455/455 457/457 458/458
f 459/459 460/460 461/461
f 459/459 461/461 462/462
f 463/463 464/464 465/465
f 463/463 465/465 466/466
f 467/467 468/468 469/469
f 467/467 469/469 470/470
f 471/471 472/472 473/473
f 471/471 473/473 474/474
f 475/475 476/476 477/477
f 475/475 477/477 478/478
f 479/479 480/480 481/481
f 479/479 481/481 482/482
f 483/483 484/484 485/485
f 483/483 485/485 486/486
f 487/487 488/488 489/489
f 487/487 489/489 490/490
f 491/491 492/492 493/493
f 491/491 493/493 494/494
f 495/495 496/496 497/497
f 495/495 497/497 498/498
f 499/499 500/500 501/501
f 499/499 501/501 502/502
f 503/503 504/504 505/505
f 503/503 505/505 506/506
f 507/507 508/508 509/509
f 507/507 509/509 510/510
f 511/511 512/512 513/513
f 511/511 513/513 514/514
f 515/515 516/516 517/517
f 515/515 517/517 518/518
f 519/519 520/520 521/521
f 519/519 521/521 522/522
f 523/523 524/524 525/525
f 523/523 525/525 526/526
f 527/527 528/528 529/529
f 527/527 529/529 530/530
f 531/531 532/532 533/533
f 531/531 533/533 534/534
f 535/535 536/536 537/537
f 535/535 537/537 538/538
f 539/539 540/540 541/541
f 539/539 541/541 542/542
f 543/543 544/544 545/545
f 543/543 545/545 546/546
f 547/547 548/548 549/549
f 547/547 549/549 550/550
f 551/551 552/552 553/553
f 551/551 553/553 554/554
f 555/555 556/556 557/557
f 555/555 557/557 558/558
f 559/559 560/560 561/561
f 559/559 561/561 562/562
f 563/563 564/564 565/565
f 563/563 565/565 566/566
f 567/567 568/568 569/569
f 567/567 569/569 570/570
f 571/571 572/572 573/573
f 571/571 573/573 574/574
f 575/575 576/576 577/577
f 575/575 577/577 578/578
f 579/579 580/580 581/581
f 579/579 581/581 582/582
f 583/583 584/584 585/585
f 583/583 585/585 586/586
f 587/587 588/588 589/589
f 587/587 589/589 590/590
f 591/591 592/592 593/593
f 591/591 593/593 594/594
f 595/595 596/596 597/597
f 595/595 597/597 598/598
f 599/599 600/600 601/601
f 599/599 601/601 602/602
f 603/603 604/604 605/605
f 603/603 605/605 606/606
f 607/607 608/608 609/609
f 607/607 609/609 610/610
f 611/611 612/612 613/613
f 611/611 613/613 614/614
f 615/615 616/616 617/617
f 615/615 617/617 618/618
f 619/619 620/620 621/621
f 619/619 621/621 622/622
f 623/623 624/624 625/625
f 623/623 625/625 626/626
f 627/627 628/628 629/629
f 627/627 629/629 630/630
f 631/631 632/632 633/633
f 631/631 633/633 634/634
f 635/635 636/636 637/637
f 635/635 637/637 638/638
f 639/639 640/640 641/641
f 639/639 641/641 642/642
f 643/643 644/644 645/645
f 643/643 645/645 646/646
f 647/647 648/648 649/649
f 647/647 649/649 650/650
f 651/651 652/652 653/653
f 651/651 653/653 654/654
f 655/655 656/656 657/657
f 655/655 657/657 658/658
f 659/659 660/660 661/661
f 659/659 661/661 662/662
f 663/663 664/664 665/665
f 663/663 665/665 666/666
f 667/667 668/668 669/669
f 667/667 669/669 670/670
f 671/671 672/672 673/673
f 671/671 673/673 674/674
f 675/675 676/676 677/677
f 675/675 677/677 678/678
f 679/679 680/680 681/681
f 679/679 681/681 682/682
f 683/683 684/684 685/685
f 683/683 685/685 686/686
f 687/687 688/688 689/689
f 687/687 689/689 690/690
f 691/691 692/692 693/693
f 691/691 693/693 694/694
f 695/695 696/696 697/697
f 695/695 697/697 698/698
f 699/699 700/700 701/701
f 699/699 701/701 702/702
f 703/703 704/704 705/705
f 703/703 705/705 706/706
f 707/707 708/708 709/709
f 707/707 709/709 710/710
f 711/711 712/712 713/713
f 711/711 713/713 714/714
f 715/715 716/716 717/717
f 715/715 717/717 718/718
f 719/719 720/720 721/721
f 719/719 721/721 722/722
f 723/723 724/724 725/725
f 723/723 725/725 726/726
f 727/727 728/728 729/729
f 727/727 729/729 730/730
f 731/731 732/732 733/733
f 731/731 733/733 734/734
f 735/735 736/736 737/737
f 735/735 737/737 738/738
f 739/739 740/740 741/741
f 739/739 741/741 742/742
f 743/743 744/744 745/745
f 743/743 745/745 746/746
f 747/747 748/748 749/749
f 747/747 749/749 750/750
f 751/751 752/752 753/753
f 751/751 753/753 754/754
f 755/755 756/756 757/757
f 755/755 757/757 758/758
f 759/759 760/760 761/761
f 759/759 761/761 762/762
f 763/763 764/764 765/765
f 763/763 765/765 766/766
f 767/767 768/768 769/769
f 767/767 769/769 770/770
f 771/771 772/772 773/773
f 771/771 773/773 774/774
f 775/775 776/776 777/777
f 775/775 777/777 778/778
f 779/779 780/780 781/781
f 779/779 781/781 782/782
f 783/783 784/784 785/785
f 783/783 785/785 786/786
f 787/787 788/788 789/789
f 787/787 789/789 790/790
f 791/791 792/792 793/793
f 791/791 793/793 794/794
f 795/795 796/796 797/797
f 795/795 797/797 798/798
f 799/799 800/800 801/801
f 799/799 801/801 802/802
f 803/803 804/804 805/805
f 803/803 805/805 806/806
f 807/807 808/808 809/809
f 807/807 809/809 810/810
f 811/811 812/812 813/813
f 811/811 813/813 814/814
f 815/815 816/816 817/817
f 815/815 817/817 818/818
f 819/819 820/820 821/821
f 819/819 821/821 822/822
f 823/823 824/824 825/825
f 823/823 825/825 826/826
f 827/827 828/828 829/829
f 827/827 829/829 830/830
f 831/831 832/832 833/833
f 831/831 833/833 834/834
f 835/835 836/836 837/837
f 835/835 837/837 838/838
f 839/839 840/840 841/841
f 839/839 841/841 842/842
f 843/843 844/844 845/845
f 843/843 845/845 846/846
f 847/847 848/848 849/849
f 847/847 849/849 850/850
f 851/851 852/852 853/853
f 851/851 853/853 854/854
f 855/855 856/856 857/857
f 855/855 857/857 858/858
f 859/859 860/860 861/861
f 859/859 861/861 862/862
f 863/863 864/864 865/865
f 863/863 865/865 866/866
f 867/867 868/868 869/869
f 867/867 869/869 870/870
f 871/871 872/872 873/873
f 871/871 873/873 874/874
f 875/875 876/876 877/877
f 875/875 877/877 878/878
f 879/879 880/880 881/881
f 879/879 881/881 882/882
f 883/883 884/884 885/885
f 883/883 885/885 886/886
f 887/887 888/888 889/889
f 887/887 889/889 890/890
f 891/891 892/892 893/893
f 891/891 893/893 894/894
f 895/895 896/896 897/897
f 895/895 897/897 898/898
f 899/899 900/900 901/901
f 899/899 901/901 902/902
f 903/903 904/904 905/905
f 903/903 905/905 906/906
f 907/907 908/908 909/909
f 907/907 909/909 910/910
f 911/911 912/912 913/913
f 911/911 913/913 914/914
f 915/915 916/916 917/917
f 915/915 917/917 918/918
f 919/919 920/920 921/921
f 919/919 921/921 922/922
f 923/923 924/924 925/925
f 923/923 925/925 926/926
f 927/927 928/928 929/929
f 927/927 929/929 930/930
f 931/931 932/932 933/933
f 931/931 933/933 934/934
f 935/935 936/936 937/937
f 935/935 937/937 938/938
f 939/939 940/940 941/941
f 939/939 941/941 942/942
f 943/943 944/944 945/945
f 943/943 945/945 946/946
f 947/947 948/948 949/949
f 947/947 949/949 950/950
f 951/951 952/952 953/953
f 951/951 953/953 954/954
f 955/955 956/956 957/957
f 955/955 957/957 958/958
f 959/959 960/960 961/961
f 959/959 961/961 962/962
f 963/963 964/964 965/965
f 963/963 965/965 966/966
f 967/967 968/968 969/969
f 967/967 969/969 970/970
f 971/971 972/972 973/973
f 971/971 973/973 974/974
f 975/975 976/976 977/977
f 975/975 977/977 978/978
f 979/979 980/980 981/981
f 979/979 981/981 982/982
f 983/983 984/984 985/985
f 983/983 985/985 986/986
f 987/987 988/988 989/989
f 987/987 989/989 990/990
f 991/991 992/992 993/993
f 991/991 993/993 994/994
f 995/995 996/996 997/997
f 995/995 997/997 998/998
f 999/999 1000/1000 1001/1001
f 999/999 1001/1001 1002/1002
f 1003/1003 1004/1004 1005/1005
f 1003/1003 1005/1005 1006/1006
f 1007/1007 1008/1008 1009/1009
f 1007/1007 1009/1009 1010/1010
f 1011/1011 1012/1012 1013/1013
f 1011/1011 1013/1013 1014/1014
f 1015/1015 1016/1016 1017/1017
f 1015/1015 1017/1017 1018/1018
f 1019/1019 1020/1020 1021/1021
f 1019/1019 1021/1021 1022/1022
f 1023/1023 1024/1024 1025/1025
f 1023/1023 1025/1025 1026/1026
f 1027/1027 1028/1028 1029/1029
f 1027/1027 1029/1029 1030/1030
f 1031/1031 1032/1032 1033/1033
f 1031/1031 1033/1033 1034/1034
f 1035/1035 1036/1036 1037/1037
f 1035/1035 1037/1037 1038/1038
f 1039/1039 1040/1040 1041/1041
f 1039/1039 1041/1041 1042/1042
f 1043/1043 1044/1044 1045/1045
f 1043/1043 1045/1045 1046/1046
f 1047/1047 1048/1048 1049/1049
f 1047/1047 1049/1049 1050/1050
f 1051/1051 1052/1052 1053/1053
f 1051/1051 1053/1053 1054/1054
f 1055/1055 1056/1056 1057/1057
f 1055/1055 1057/1057 1058/1058
f 1059/1059 1060/1060 1061/1061
f 1059/1059 1061/1061 1062/1062
f 1063/1063 1064/1064 1065/1065
f 1063/1063 1065/1065 1066/1066
f 1067/1067 1068/1068 1069/1069
f 1067/1067 1069/1069 1070/1070
f 1071/1071 1072/1072 1073/1073
f 1071/1071 1073/1073 1074/1074
f 1075/1075 1076/1076 1077/1077
f 1075/1075 1077/1077 1078/1078
f 1079/1079 1080/1080 1081/1081
f 1079/1079 1081/1081 1082/1082
f 1083/1083 1084/1084 1085/1085
f 1083/1083 1085/1085 1086/1086
f 1087/1087 1088/1088 1089/1089
f 1087/1087 1089/1089 1090/1090
f 1091/1091 1092/1092 1093/1093
f 1091/1091 1093/1093 1094/1094
f 1095/1095 1096/1096 1097/1097
f 1095/1095 1097/1097 1098/1098
f 1099/1099 1100/1100 1101/1101
f 1099/1099 1101/1101 1102/1102
f 1103/1103 1104/1104 1105/1105
f 1103/1103 1105/1105 1106/1106
f 1107/1107 1108/1108 1109/1109
f 1107/1107 1109/1109 1110/1110
f 1111/1111 1112/1112 1113/1113
f 1111/1111 1113/1113 1114/1114
f 1115/1115 1116/1116 1117/1117
f 1115/1115 1117/1117 1118/1118
f 1119/1119 1120/1120 1121/1121
f 1119/1119 1121/1121 1122/1122
f 1123/1123 1124/1124 1125/1125
f 1123/1123 1125/1125 1126/1126
f 1127/1127 1128/1128 1129/1129
f 1127/1127 1129/1129 1130/1130
f 1131/1131 1132/1132 1133/1133
f 1131/1131 1133/1133 1134/1134
f 1135/1135 1136/1136 1137/1137
f 1135/1135 1137/1137 1138/1138
f 1139/1139 1140/1140 1141/1141
f 1139/1139 1141/1141 1142/1142
f 1143/1143 1144/1144 1145/1145
f 1143/1143 1145/1145 1146/1146
f 1147/1147 1148/1148 1149/1149
f 1147/1147 1149/1149 1150/1150
f 1151/1151 1152/1152 1153/1153
f 1151/1151 1153/1153 1154/1154
f 1155/1155 1156/1156 1157/1157
f 1155/1155 1157/1157 1158/1158
f 1159/1159 1160/1160 1161/1161
f 1159/1159 1161/1161 1162/1162
f 1163/1163 1164/1164 1165/1165
f 1163/1163 1165/1165 1166/1166
f 1167/1167 1168/1168 1169/1169
f 1167/1167 1169/1169 1170/1170
f 1171/1171 1172/1172 1173/1173
f 1171/1171 1173/1173 1174/1174
f 1175/1175 1176/1176 1177/1177
f 1175/1175 1177/1177 1178/1178
f 1179/1179 1180/1180 1181/1181
f 1179/1179 1181/1181 1182/1182
f 1183/1183 1184/1184 1185/1185
f 1183/1183 1185/1185 1186/1186
f 1187/1187 1188/1188 1189/1189
f 1187/1187 1189/1189 1190/1190
f 1191/1191 1192/1192 1193/1193
f 1191/1191 1193/1193 1194/1194
f 1195/1195 1196/1196 1197/1197
f 1195/1195 1197/1197 1198/1198
f 1199/1199 1200/1200 1201/1201
f 1199/1199 1201/1201 1202/1202
f 1203/1203 1204/1204 1205/1205
f 1203/1203 1205/1205 1206/1206
f 1207/1207 1208/1208 1209/1209
f 1207/1207 1209/1209 1210/1210
f 1211/1211 1212/1212 1213/1213
f 1211/1211 1213/1213 1214/1214
f 1215/1215 1216/1216 1217/1217
f 1215/1215 1217/1217 1218/1218
f 1219/1219 1220/1220 1221/1221
f 1219/1219 1221/1221 1222/1222
f 1223/1223 1224/1224 1225/1225
f 1223/1223 1225/1225 1226/1226
f 1227/1227 1228/1228 1229/1229
f 1227/1227 1229/1229 1230/1230
f 1231/1231 1232/1232 1233/1233
f 1231/1231 1233/1233 1234/1234
f 1235/1235 1236/1236 1237/1237
f 1235/1235 1237/1237 1238/1238
f 1239/1239 1240/1240 1241/1241
f 1239/1239 1241/1241 1242/1242
f 1243/1243 1244/1244 1245/1245
f 1243/1243 1245/1245 1246/1246
f 1247/1247 1248/1248 1249/1249
f 1247/1247 1249/1249 1250/1250
f 1251/1251 1252/1252 1253/1253
f 1251/1251 1253/1253 1254/1254
f 1255/1255 1256/1256 1257/1257
f 1255/1255 1257/1257 1258/1258
f 1259/1259 1260/1260 1261/1261
f 1259/1259 1261/1261 1262/1262
f 1263/1263 1264/1264 1265/1265
f 1263/1263 1265/1265 1266/1266
f 1267/1267 1268/1268 1269/1269
f 1267/1267 1269/1269 1270/1270
f 1271/1271 1272/1272 1273/1273
f 1271/1271 1273/1273 1274/1274
f 1275/1275 1276/1276 1277/1277
f 1275/1275 1277/1277 1278/1278
f 1279/1279 1280/1280 1281/1281
f 1279/1279 1281/1281 1282/1282
f 1283/1283 1284/1284 1285/1285
f 1283/1283 1285/1285 1286/1286
f 1287/1287 1288/1288 1289/1289
f 1287/1287 1289/1289 1290/1290
f 1291/1291 1292/1292 1293/1293
f 1291/1291 1293/1293 1294/1294
f 1295/1295 1296/1296 1297/1297
f 1295/1295 1297/1297 1298/1298
f 1299/1299 1300/1300 1301/1301
f 1299/1299 1301/1301 1302/1302
f 1303/1303 1304/1304 1305/1305
f 1303/1303 1305/1305 1306/1306
f 1307/1307 1308/1308 1309/1309
f 1307/1307 1309/1309 1310/1310
f 1311/1311 1312/1312 1313/1313
f 1311/1311 1313/1313 1314/1314
f 1315/1315 1316/1316 1317/1317
f 1315/1315 1317/1317 1318/1318
f 1319/1319 1320/1320 1321/1321
f 1319/1319 1321/1321 1322/1322
f 1323/1323 1324/1324 1325/1325
f 1323/1323 1325/1325 1326/1326
f 1327/1327 1328/1328 1329/1329
f 1327/1327 1329/1329 1330/1330
f 1331/1331 1332/1332 1333/1333
f 1331/1331 1333/1333 1334/1334
f 1335/1335 1336/1336 1337/1337
f 1335/1335 1337/1337 1338/1338
f 1339/1339 1340/1340 1341/1341
f 1339/1339 1341/1341 1342/1342
f 1343/1343 1344/1344 1345/1345
f 1343/1343 1345/1345 1346/1346
f 1347/1347 1348/1348 1349/1349
f 1347/1347 1349/1349 1350/1350
f 1351/1351 1352/1352 1353/1353
f 1351/1351 1353/1353 1354/1354
f 1355/1355 1356/1356 1357/1357
f 1355/1355 1357/1357 1358/1358
