mtllib ../../Materials/project_oen.mtl
o en-002_broken_plank_pile__medium
v -0.696869 0.045977 -0.433569
v 0.030907 -0.004914 0.058520
v 0.035441 0.059927 0.058520
v -0.692335 0.110818 -0.433569
v -0.027665 -0.000818 0.145569
v -0.755441 0.050073 -0.346520
v -0.750907 0.114914 -0.346520
v -0.023131 0.064023 0.145569
v -0.755441 0.050073 -0.346520
v -0.696869 0.045977 -0.433569
v -0.692335 0.110818 -0.433569
v -0.750907 0.114914 -0.346520
v 0.030907 -0.004914 0.058520
v -0.027665 -0.000818 0.145569
v -0.023131 0.064023 0.145569
v 0.035441 0.059927 0.058520
v -0.692335 0.110818 -0.433569
v 0.035441 0.059927 0.058520
v -0.023131 0.064023 0.145569
v -0.750907 0.114914 -0.346520
v -0.755441 0.050073 -0.346520
v -0.027665 -0.000818 0.145569
v 0.030907 -0.004914 0.058520
v -0.696869 0.045977 -0.433569
v -0.219171 0.063663 -0.174000
v -0.223538 0.062574 -0.166206
v -0.247730 0.159603 -0.166206
v -0.243363 0.160692 -0.174000
v -0.223538 0.062574 -0.166206
v -0.232270 0.060397 -0.166206
v -0.256462 0.157426 -0.166206
v -0.247730 0.159603 -0.166206
v -0.232270 0.060397 -0.166206
v -0.236637 0.059308 -0.174000
v -0.260829 0.156337 -0.174000
v -0.256462 0.157426 -0.166206
v -0.236637 0.059308 -0.174000
v -0.232270 0.060397 -0.181794
v -0.256462 0.157426 -0.181794
v -0.260829 0.156337 -0.174000
v -0.232270 0.060397 -0.181794
v -0.223538 0.062574 -0.181794
v -0.247730 0.159603 -0.181794
v -0.256462 0.157426 -0.181794
v -0.223538 0.062574 -0.181794
v -0.219171 0.063663 -0.174000
v -0.243363 0.160692 -0.174000
v -0.247730 0.159603 -0.181794
v -0.227904 0.061485 -0.174000
v -0.223538 0.062574 -0.166206
v -0.219171 0.063663 -0.174000
v -0.252096 0.158515 -0.174000
v -0.243363 0.160692 -0.174000
v -0.247730 0.159603 -0.166206
v -0.227904 0.061485 -0.174000
v -0.232270 0.060397 -0.166206
v -0.223538 0.062574 -0.166206
v -0.252096 0.158515 -0.174000
v -0.247730 0.159603 -0.166206
v -0.256462 0.157426 -0.166206
v -0.227904 0.061485 -0.174000
v -0.236637 0.059308 -0.174000
v -0.232270 0.060397 -0.166206
v -0.252096 0.158515 -0.174000
v -0.256462 0.157426 -0.166206
v -0.260829 0.156337 -0.174000
v -0.227904 0.061485 -0.174000
v -0.232270 0.060397 -0.181794
v -0.236637 0.059308 -0.174000
v -0.252096 0.158515 -0.174000
v -0.260829 0.156337 -0.174000
v -0.256462 0.157426 -0.181794
v -0.227904 0.061485 -0.174000
v -0.223538 0.062574 -0.181794
v -0.232270 0.060397 -0.181794
v -0.252096 0.158515 -0.174000
v -0.256462 0.157426 -0.181794
v -0.247730 0.159603 -0.181794
v -0.227904 0.061485 -0.174000
v -0.219171 0.063663 -0.174000
v -0.223538 0.062574 -0.181794
v -0.252096 0.158515 -0.174000
v -0.247730 0.159603 -0.181794
v -0.243363 0.160692 -0.174000
v -0.710110 0.022500 -0.052311
v 0.527340 0.022500 -0.337998
v 0.527340 0.087500 -0.337998
v -0.710110 0.087500 -0.052311
v 0.550960 0.022500 -0.235689
v -0.686490 0.022500 0.049998
v -0.686490 0.087500 0.049998
v 0.550960 0.087500 -0.235689
v -0.686490 0.022500 0.049998
v -0.710110 0.022500 -0.052311
v -0.710110 0.087500 -0.052311
v -0.686490 0.087500 0.049998
v 0.527340 0.022500 -0.337998
v 0.550960 0.022500 -0.235689
v 0.550960 0.087500 -0.235689
v 0.527340 0.087500 -0.337998
v -0.710110 0.087500 -0.052311
v 0.527340 0.087500 -0.337998
v 0.550960 0.087500 -0.235689
v -0.686490 0.087500 0.049998
v -0.686490 0.022500 0.049998
v 0.550960 0.022500 -0.235689
v 0.527340 0.022500 -0.337998
v -0.710110 0.022500 -0.052311
v -0.404390 -0.010921 -0.308755
v 0.577326 0.057727 -0.081554
v 0.572792 0.122569 -0.081554
v -0.408924 0.053920 -0.308755
v 0.553764 0.056080 0.020755
v -0.427952 -0.012569 -0.206446
v -0.432487 0.052273 -0.206446
v 0.549230 0.120921 0.020755
v -0.427952 -0.012569 -0.206446
v -0.404390 -0.010921 -0.308755
v -0.408924 0.053920 -0.308755
v -0.432487 0.052273 -0.206446
v 0.577326 0.057727 -0.081554
v 0.553764 0.056080 0.020755
v 0.549230 0.120921 0.020755
v 0.572792 0.122569 -0.081554
v -0.408924 0.053920 -0.308755
v 0.572792 0.122569 -0.081554
v 0.549230 0.120921 0.020755
v -0.432487 0.052273 -0.206446
v -0.427952 -0.012569 -0.206446
v 0.553764 0.056080 0.020755
v 0.577326 0.057727 -0.081554
v -0.404390 -0.010921 -0.308755
v -0.234889 0.065109 0.203911
v 0.922937 -0.015854 -0.578960
v 0.927471 0.048987 -0.578960
v -0.230355 0.129950 0.203911
v 0.981509 -0.019950 -0.491911
v -0.176317 0.061013 0.290960
v -0.171782 0.125854 0.290960
v 0.986043 0.044891 -0.491911
v -0.176317 0.061013 0.290960
v -0.234889 0.065109 0.203911
v -0.230355 0.129950 0.203911
v -0.171782 0.125854 0.290960
v 0.922937 -0.015854 -0.578960
v 0.981509 -0.019950 -0.491911
v 0.986043 0.044891 -0.491911
v 0.927471 0.048987 -0.578960
v -0.230355 0.129950 0.203911
v 0.927471 0.048987 -0.578960
v 0.986043 0.044891 -0.491911
v -0.171782 0.125854 0.290960
v -0.176317 0.061013 0.290960
v 0.981509 -0.019950 -0.491911
v 0.922937 -0.015854 -0.578960
v -0.234889 0.065109 0.203911
v 0.527689 0.070632 -0.174000
v 0.523753 0.068451 -0.166206
v 0.475272 0.155913 -0.166206
v 0.479208 0.158094 -0.174000
v 0.523753 0.068451 -0.166206
v 0.515882 0.064087 -0.166206
v 0.467401 0.151549 -0.166206
v 0.475272 0.155913 -0.166206
v 0.515882 0.064087 -0.166206
v 0.511946 0.061906 -0.174000
v 0.463465 0.149368 -0.174000
v 0.467401 0.151549 -0.166206
v 0.511946 0.061906 -0.174000
v 0.515882 0.064087 -0.181794
v 0.467401 0.151549 -0.181794
v 0.463465 0.149368 -0.174000
v 0.515882 0.064087 -0.181794
v 0.523753 0.068451 -0.181794
v 0.475272 0.155913 -0.181794
v 0.467401 0.151549 -0.181794
v 0.523753 0.068451 -0.181794
v 0.527689 0.070632 -0.174000
v 0.479208 0.158094 -0.174000
v 0.475272 0.155913 -0.181794
v 0.519818 0.066269 -0.174000
v 0.523753 0.068451 -0.166206
v 0.527689 0.070632 -0.174000
v 0.471337 0.153731 -0.174000
v 0.479208 0.158094 -0.174000
v 0.475272 0.155913 -0.166206
v 0.519818 0.066269 -0.174000
v 0.515882 0.064087 -0.166206
v 0.523753 0.068451 -0.166206
v 0.471337 0.153731 -0.174000
v 0.475272 0.155913 -0.166206
v 0.467401 0.151549 -0.166206
v 0.519818 0.066269 -0.174000
v 0.511946 0.061906 -0.174000
v 0.515882 0.064087 -0.166206
v 0.471337 0.153731 -0.174000
v 0.467401 0.151549 -0.166206
v 0.463465 0.149368 -0.174000
v 0.519818 0.066269 -0.174000
v 0.515882 0.064087 -0.181794
v 0.511946 0.061906 -0.174000
v 0.471337 0.153731 -0.174000
v 0.463465 0.149368 -0.174000
v 0.467401 0.151549 -0.181794
v 0.519818 0.066269 -0.174000
v 0.523753 0.068451 -0.181794
v 0.515882 0.064087 -0.181794
v 0.471337 0.153731 -0.174000
v 0.467401 0.151549 -0.181794
v 0.475272 0.155913 -0.181794
v 0.519818 0.066269 -0.174000
v 0.527689 0.070632 -0.174000
v 0.523753 0.068451 -0.181794
v 0.471337 0.153731 -0.174000
v 0.475272 0.155913 -0.181794
v 0.479208 0.158094 -0.174000
v -0.902514 0.107500 0.063340
v 0.226392 0.107500 -0.095318
v 0.226392 0.172500 -0.095318
v -0.902514 0.172500 0.063340
v 0.241005 0.107500 0.008660
v -0.887900 0.107500 0.167318
v -0.887900 0.172500 0.167318
v 0.241005 0.172500 0.008660
v -0.887900 0.107500 0.167318
v -0.902514 0.107500 0.063340
v -0.902514 0.172500 0.063340
v -0.887900 0.172500 0.167318
v 0.226392 0.107500 -0.095318
v 0.241005 0.107500 0.008660
v 0.241005 0.172500 0.008660
v 0.226392 0.172500 -0.095318
v -0.902514 0.172500 0.063340
v 0.226392 0.172500 -0.095318
v 0.241005 0.172500 0.008660
v -0.887900 0.172500 0.167318
v -0.887900 0.107500 0.167318
v 0.241005 0.107500 0.008660
v 0.226392 0.107500 -0.095318
v -0.902514 0.107500 0.063340
v -0.568994 0.079520 -0.149898
v 0.265897 0.137901 0.122037
v 0.261363 0.202743 0.122037
v -0.573528 0.144362 -0.149898
v 0.233529 0.135638 0.221898
v -0.601362 0.077257 -0.050037
v -0.605896 0.142099 -0.050037
v 0.228995 0.200480 0.221898
v -0.601362 0.077257 -0.050037
v -0.568994 0.079520 -0.149898
v -0.573528 0.144362 -0.149898
v -0.605896 0.142099 -0.050037
v 0.265897 0.137901 0.122037
v 0.233529 0.135638 0.221898
v 0.228995 0.200480 0.221898
v 0.261363 0.202743 0.122037
v -0.573528 0.144362 -0.149898
v 0.261363 0.202743 0.122037
v 0.228995 0.200480 0.221898
v -0.605896 0.142099 -0.050037
v -0.601362 0.077257 -0.050037
v 0.233529 0.135638 0.221898
v 0.265897 0.137901 0.122037
v -0.568994 0.079520 -0.149898
v -0.432085 0.148096 0.297937
v 0.675977 0.070613 -0.317772
v 0.680511 0.135455 -0.317772
v -0.427550 0.212938 0.297937
v 0.726758 0.067062 -0.225937
v -0.381304 0.144545 0.389772
v -0.376769 0.209387 0.389772
v 0.731292 0.131904 -0.225937
v -0.381304 0.144545 0.389772
v -0.432085 0.148096 0.297937
v -0.427550 0.212938 0.297937
v -0.376769 0.209387 0.389772
v 0.675977 0.070613 -0.317772
v 0.726758 0.067062 -0.225937
v 0.731292 0.131904 -0.225937
v 0.680511 0.135455 -0.317772
v -0.427550 0.212938 0.297937
v 0.680511 0.135455 -0.317772
v 0.731292 0.131904 -0.225937
v -0.376769 0.209387 0.389772
v -0.381304 0.144545 0.389772
v 0.726758 0.067062 -0.225937
v 0.675977 0.070613 -0.317772
v -0.432085 0.148096 0.297937
v 0.310811 0.165285 0.006000
v 0.307574 0.162159 0.013794
v 0.238108 0.234093 0.013794
v 0.241345 0.237219 0.006000
v 0.307574 0.162159 0.013794
v 0.301100 0.155907 0.013794
v 0.231634 0.227841 0.013794
v 0.238108 0.234093 0.013794
v 0.301100 0.155907 0.013794
v 0.297863 0.152781 0.006000
v 0.228397 0.224715 0.006000
v 0.231634 0.227841 0.013794
v 0.297863 0.152781 0.006000
v 0.301100 0.155907 -0.001794
v 0.231634 0.227841 -0.001794
v 0.228397 0.224715 0.006000
v 0.301100 0.155907 -0.001794
v 0.307574 0.162159 -0.001794
v 0.238108 0.234093 -0.001794
v 0.231634 0.227841 -0.001794
v 0.307574 0.162159 -0.001794
v 0.310811 0.165285 0.006000
v 0.241345 0.237219 0.006000
v 0.238108 0.234093 -0.001794
v 0.304337 0.159033 0.006000
v 0.307574 0.162159 0.013794
v 0.310811 0.165285 0.006000
v 0.234871 0.230967 0.006000
v 0.241345 0.237219 0.006000
v 0.238108 0.234093 0.013794
v 0.304337 0.159033 0.006000
v 0.301100 0.155907 0.013794
v 0.307574 0.162159 0.013794
v 0.234871 0.230967 0.006000
v 0.238108 0.234093 0.013794
v 0.231634 0.227841 0.013794
v 0.304337 0.159033 0.006000
v 0.297863 0.152781 0.006000
v 0.301100 0.155907 0.013794
v 0.234871 0.230967 0.006000
v 0.231634 0.227841 0.013794
v 0.228397 0.224715 0.006000
v 0.304337 0.159033 0.006000
v 0.301100 0.155907 -0.001794
v 0.297863 0.152781 0.006000
v 0.234871 0.230967 0.006000
v 0.228397 0.224715 0.006000
v 0.231634 0.227841 -0.001794
v 0.304337 0.159033 0.006000
v 0.307574 0.162159 -0.001794
v 0.301100 0.155907 -0.001794
v 0.234871 0.230967 0.006000
v 0.231634 0.227841 -0.001794
v 0.238108 0.234093 -0.001794
v 0.304337 0.159033 0.006000
v 0.310811 0.165285 0.006000
v 0.307574 0.162159 -0.001794
v 0.234871 0.230967 0.006000
v 0.238108 0.234093 -0.001794
v 0.241345 0.237219 0.006000
v -0.131900 0.107500 0.010002
v 0.876716 0.107500 -0.042858
v 0.876716 0.172500 -0.042858
v -0.131900 0.172500 0.010002
v 0.882211 0.107500 0.061998
v -0.126404 0.107500 0.114858
v -0.126404 0.172500 0.114858
v 0.882211 0.172500 0.061998
v -0.126404 0.107500 0.114858
v -0.131900 0.107500 0.010002
v -0.131900 0.172500 0.010002
v -0.126404 0.172500 0.114858
v 0.876716 0.107500 -0.042858
v 0.882211 0.107500 0.061998
v 0.882211 0.172500 0.061998
v 0.876716 0.172500 -0.042858
v -0.131900 0.172500 0.010002
v 0.876716 0.172500 -0.042858
v 0.882211 0.172500 0.061998
v -0.126404 0.172500 0.114858
v -0.126404 0.107500 0.114858
v 0.882211 0.107500 0.061998
v 0.876716 0.107500 -0.042858
v -0.131900 0.107500 0.010002
v -1.027496 0.149062 -0.105838
v 0.258072 0.238958 0.441185
v 0.253538 0.303800 0.441185
v -1.032030 0.213904 -0.105838
v 0.217145 0.236096 0.537838
v -1.068422 0.146200 -0.009185
v -1.072957 0.211042 -0.009185
v 0.212611 0.300938 0.537838
v -1.068422 0.146200 -0.009185
v -1.027496 0.149062 -0.105838
v -1.032030 0.213904 -0.105838
v -1.072957 0.211042 -0.009185
v 0.258072 0.238958 0.441185
v 0.217145 0.236096 0.537838
v 0.212611 0.300938 0.537838
v 0.253538 0.303800 0.441185
v -1.032030 0.213904 -0.105838
v 0.253538 0.303800 0.441185
v 0.212611 0.300938 0.537838
v -1.072957 0.211042 -0.009185
v -1.068422 0.146200 -0.009185
v 0.217145 0.236096 0.537838
v 0.258072 0.238958 0.441185
v -1.027496 0.149062 -0.105838
v 0.280000 0.025000 0.000000
v 0.399935 -0.009635 0.095205
v 0.417289 -0.210489 0.258202
v 0.291862 -0.009635 0.152669
v 0.389864 -0.030132 -0.011266
v 0.382833 -0.033052 -0.014392
v 0.312756 -0.164849 0.266343
v 0.319786 -0.161929 0.269469
v 0.382833 -0.033052 -0.014392
v 0.376977 -0.027395 -0.013198
v 0.306900 -0.159192 0.267537
v 0.312756 -0.164849 0.266343
v 0.376977 -0.027395 -0.013198
v 0.380388 -0.020980 -0.009335
v 0.310311 -0.152777 0.271400
v 0.306900 -0.159192 0.267537
v 0.380388 -0.020980 -0.009335
v 0.388353 -0.022671 -0.008141
v 0.318275 -0.154468 0.272594
v 0.310311 -0.152777 0.271400
v 0.388353 -0.022671 -0.008141
v 0.389864 -0.030132 -0.011266
v 0.319786 -0.161929 0.269469
v 0.318275 -0.154468 0.272594
v 0.383683 -0.026846 -0.011266
v 0.382833 -0.033052 -0.014392
v 0.389864 -0.030132 -0.011266
v 0.313605 -0.158643 0.269469
v 0.319786 -0.161929 0.269469
v 0.312756 -0.164849 0.266343
v 0.383683 -0.026846 -0.011266
v 0.376977 -0.027395 -0.013198
v 0.382833 -0.033052 -0.014392
v 0.313605 -0.158643 0.269469
v 0.312756 -0.164849 0.266343
v 0.306900 -0.159192 0.267537
v 0.383683 -0.026846 -0.011266
v 0.380388 -0.020980 -0.009335
v 0.376977 -0.027395 -0.013198
v 0.313605 -0.158643 0.269469
v 0.306900 -0.159192 0.267537
v 0.310311 -0.152777 0.271400
v 0.383683 -0.026846 -0.011266
v 0.388353 -0.022671 -0.008141
v 0.380388 -0.020980 -0.009335
v 0.313605 -0.158643 0.269469
v 0.310311 -0.152777 0.271400
v 0.318275 -0.154468 0.272594
v 0.383683 -0.026846 -0.011266
v 0.389864 -0.030132 -0.011266
v 0.388353 -0.022671 -0.008141
v 0.313605 -0.158643 0.269469
v 0.318275 -0.154468 0.272594
v 0.319786 -0.161929 0.269469
v 0.315000 0.028000 -0.025000
v 0.264600 -0.001573 -0.128146
v 0.315000 -0.176943 -0.239887
v 0.365400 -0.001573 -0.128146
v 0.308000 -0.144044 -0.235589
v 0.312837 -0.138525 -0.239312
v 0.312837 0.000620 -0.033020
v 0.308000 -0.004899 -0.029298
v 0.312837 -0.138525 -0.239312
v 0.320663 -0.140633 -0.237890
v 0.320663 -0.001488 -0.031599
v 0.312837 0.000620 -0.033020
v 0.320663 -0.140633 -0.237890
v 0.320663 -0.147455 -0.233288
v 0.320663 -0.008310 -0.026997
v 0.320663 -0.001488 -0.031599
v 0.320663 -0.147455 -0.233288
v 0.312837 -0.149563 -0.231866
v 0.312837 -0.010418 -0.025575
v 0.320663 -0.008310 -0.026997
v 0.312837 -0.149563 -0.231866
v 0.308000 -0.144044 -0.235589
v 0.308000 -0.004899 -0.029298
v 0.312837 -0.010418 -0.025575
v 0.315000 -0.144044 -0.235589
v 0.312837 -0.138525 -0.239312
v 0.308000 -0.144044 -0.235589
v 0.315000 -0.004899 -0.029298
v 0.308000 -0.004899 -0.029298
v 0.312837 0.000620 -0.033020
v 0.315000 -0.144044 -0.235589
v 0.320663 -0.140633 -0.237890
v 0.312837 -0.138525 -0.239312
v 0.315000 -0.004899 -0.029298
v 0.312837 0.000620 -0.033020
v 0.320663 -0.001488 -0.031599
v 0.315000 -0.144044 -0.235589
v 0.320663 -0.147455 -0.233288
v 0.320663 -0.140633 -0.237890
v 0.315000 -0.004899 -0.029298
v 0.320663 -0.001488 -0.031599
v 0.320663 -0.008310 -0.026997
v 0.315000 -0.144044 -0.235589
v 0.312837 -0.149563 -0.231866
v 0.320663 -0.147455 -0.233288
v 0.315000 -0.004899 -0.029298
v 0.320663 -0.008310 -0.026997
v 0.312837 -0.010418 -0.025575
v 0.315000 -0.144044 -0.235589
v 0.308000 -0.144044 -0.235589
v 0.312837 -0.149563 -0.231866
v 0.315000 -0.004899 -0.029298
v 0.312837 -0.010418 -0.025575
v 0.308000 -0.004899 -0.029298
v -0.188626 0.025000 0.264661
v -0.020377 -0.017927 0.239344
v 0.125227 -0.227766 0.348757
v -0.055576 -0.017927 0.370710
v 0.050214 -0.086681 0.150745
v 0.043285 -0.083530 0.147620
v -0.116919 -0.126457 0.459548
v -0.109989 -0.129607 0.462673
v 0.043285 -0.083530 0.147620
v 0.043428 -0.075390 0.148814
v -0.116776 -0.118316 0.460741
v -0.116919 -0.126457 0.459548
v 0.043428 -0.075390 0.148814
v 0.050446 -0.073509 0.152677
v -0.109758 -0.116436 0.464605
v -0.116776 -0.118316 0.460741
v 0.050446 -0.073509 0.152677
v 0.054640 -0.080488 0.153871
v -0.105563 -0.123414 0.465798
v -0.109758 -0.116436 0.464605
v 0.054640 -0.080488 0.153871
v 0.050214 -0.086681 0.150745
v -0.109989 -0.129607 0.462673
v -0.105563 -0.123414 0.465798
v 0.048403 -0.079920 0.150745
v 0.043285 -0.083530 0.147620
v 0.050214 -0.086681 0.150745
v -0.111801 -0.122846 0.462673
v -0.109989 -0.129607 0.462673
v -0.116919 -0.126457 0.459548
v 0.048403 -0.079920 0.150745
v 0.043428 -0.075390 0.148814
v 0.043285 -0.083530 0.147620
v -0.111801 -0.122846 0.462673
v -0.116919 -0.126457 0.459548
v -0.116776 -0.118316 0.460741
v 0.048403 -0.079920 0.150745
v 0.050446 -0.073509 0.152677
v 0.043428 -0.075390 0.148814
v -0.111801 -0.122846 0.462673
v -0.116776 -0.118316 0.460741
v -0.109758 -0.116436 0.464605
v 0.048403 -0.079920 0.150745
v 0.054640 -0.080488 0.153871
v 0.050446 -0.073509 0.152677
v -0.111801 -0.122846 0.462673
v -0.109758 -0.116436 0.464605
v -0.105563 -0.123414 0.465798
v 0.048403 -0.079920 0.150745
v 0.050214 -0.086681 0.150745
v 0.054640 -0.080488 0.153871
v -0.111801 -0.122846 0.462673
v -0.105563 -0.123414 0.465798
v -0.109989 -0.129607 0.462673
v -0.153626 0.028000 0.239661
v -0.275635 -0.009303 0.202455
v -0.328246 -0.193048 0.076825
v -0.199251 -0.009303 0.120544
v -0.302245 -0.130125 0.043637
v -0.294910 -0.129898 0.039914
v -0.181839 -0.024457 0.269126
v -0.189174 -0.024684 0.272849
v -0.294910 -0.129898 0.039914
v -0.291115 -0.137060 0.041336
v -0.178043 -0.031619 0.270548
v -0.181839 -0.024457 0.269126
v -0.291115 -0.137060 0.041336
v -0.296104 -0.141712 0.045938
v -0.183033 -0.036271 0.275150
v -0.178043 -0.031619 0.270548
v -0.296104 -0.141712 0.045938
v -0.302983 -0.137426 0.047359
v -0.189912 -0.031985 0.276572
v -0.183033 -0.036271 0.275150
v -0.302983 -0.137426 0.047359
v -0.302245 -0.130125 0.043637
v -0.189174 -0.024684 0.272849
v -0.189912 -0.031985 0.276572
v -0.297471 -0.135244 0.043637
v -0.294910 -0.129898 0.039914
v -0.302245 -0.130125 0.043637
v -0.184400 -0.029803 0.272849
v -0.189174 -0.024684 0.272849
v -0.181839 -0.024457 0.269126
v -0.297471 -0.135244 0.043637
v -0.291115 -0.137060 0.041336
v -0.294910 -0.129898 0.039914
v -0.184400 -0.029803 0.272849
v -0.181839 -0.024457 0.269126
v -0.178043 -0.031619 0.270548
v -0.297471 -0.135244 0.043637
v -0.296104 -0.141712 0.045938
v -0.291115 -0.137060 0.041336
v -0.184400 -0.029803 0.272849
v -0.178043 -0.031619 0.270548
v -0.183033 -0.036271 0.275150
v -0.297471 -0.135244 0.043637
v -0.302983 -0.137426 0.047359
v -0.296104 -0.141712 0.045938
v -0.184400 -0.029803 0.272849
v -0.183033 -0.036271 0.275150
v -0.189912 -0.031985 0.276572
v -0.297471 -0.135244 0.043637
v -0.302245 -0.130125 0.043637
v -0.302983 -0.137426 0.047359
v -0.184400 -0.029803 0.272849
v -0.189912 -0.031985 0.276572
v -0.189174 -0.024684 0.272849
v -0.120732 0.025000 -0.349748
v -0.014878 -0.026220 -0.504095
v 0.182375 -0.245042 -0.539150
v 0.064397 -0.026220 -0.377227
v 0.104471 -0.164297 -0.616010
v 0.102050 -0.157080 -0.619135
v -0.052669 -0.060401 -0.276015
v -0.050247 -0.067618 -0.272889
v 0.102050 -0.157080 -0.619135
v 0.108101 -0.151633 -0.617941
v -0.046617 -0.054954 -0.274821
v -0.052669 -0.060401 -0.276015
v 0.108101 -0.151633 -0.617941
v 0.114263 -0.155483 -0.614078
v -0.040456 -0.058804 -0.270957
v -0.046617 -0.054954 -0.274821
v 0.114263 -0.155483 -0.614078
v 0.112019 -0.163310 -0.612884
v -0.042699 -0.066631 -0.269764
v -0.040456 -0.058804 -0.270957
v 0.112019 -0.163310 -0.612884
v 0.104471 -0.164297 -0.616010
v -0.050247 -0.067618 -0.272889
v -0.042699 -0.066631 -0.269764
v 0.108181 -0.158360 -0.616010
v 0.102050 -0.157080 -0.619135
v 0.104471 -0.164297 -0.616010
v -0.046537 -0.061682 -0.272889
v -0.050247 -0.067618 -0.272889
v -0.052669 -0.060401 -0.276015
v 0.108181 -0.158360 -0.616010
v 0.108101 -0.151633 -0.617941
v 0.102050 -0.157080 -0.619135
v -0.046537 -0.061682 -0.272889
v -0.052669 -0.060401 -0.276015
v -0.046617 -0.054954 -0.274821
v 0.108181 -0.158360 -0.616010
v 0.114263 -0.155483 -0.614078
v 0.108101 -0.151633 -0.617941
v -0.046537 -0.061682 -0.272889
v -0.046617 -0.054954 -0.274821
v -0.040456 -0.058804 -0.270957
v 0.108181 -0.158360 -0.616010
v 0.112019 -0.163310 -0.612884
v 0.114263 -0.155483 -0.614078
v -0.046537 -0.061682 -0.272889
v -0.040456 -0.058804 -0.270957
v -0.042699 -0.066631 -0.269764
v 0.108181 -0.158360 -0.616010
v 0.104471 -0.164297 -0.616010
v 0.112019 -0.163310 -0.612884
v -0.046537 -0.061682 -0.272889
v -0.042699 -0.066631 -0.269764
v -0.050247 -0.067618 -0.272889
v -0.085732 0.028000 -0.374748
v -0.207194 -0.017033 -0.304504
v -0.347731 -0.209152 -0.356427
v -0.215788 -0.017033 -0.427404
v -0.301069 -0.077662 -0.491655
v -0.295901 -0.082872 -0.495377
v -0.126249 -0.094735 -0.243244
v -0.131417 -0.089525 -0.239521
v -0.295901 -0.082872 -0.495377
v -0.298550 -0.090532 -0.493955
v -0.128898 -0.102395 -0.241822
v -0.126249 -0.094735 -0.243244
v -0.298550 -0.090532 -0.493955
v -0.305355 -0.090056 -0.489354
v -0.135703 -0.101919 -0.237220
v -0.128898 -0.102395 -0.241822
v -0.305355 -0.090056 -0.489354
v -0.306912 -0.082102 -0.487932
v -0.137260 -0.093965 -0.235798
v -0.135703 -0.101919 -0.237220
v -0.306912 -0.082102 -0.487932
v -0.301069 -0.077662 -0.491655
v -0.131417 -0.089525 -0.239521
v -0.137260 -0.093965 -0.235798
v -0.301557 -0.084645 -0.491655
v -0.295901 -0.082872 -0.495377
v -0.301069 -0.077662 -0.491655
v -0.131905 -0.096508 -0.239521
v -0.131417 -0.089525 -0.239521
v -0.126249 -0.094735 -0.243244
v -0.301557 -0.084645 -0.491655
v -0.298550 -0.090532 -0.493955
v -0.295901 -0.082872 -0.495377
v -0.131905 -0.096508 -0.239521
v -0.126249 -0.094735 -0.243244
v -0.128898 -0.102395 -0.241822
v -0.301557 -0.084645 -0.491655
v -0.305355 -0.090056 -0.489354
v -0.298550 -0.090532 -0.493955
v -0.131905 -0.096508 -0.239521
v -0.128898 -0.102395 -0.241822
v -0.135703 -0.101919 -0.237220
v -0.301557 -0.084645 -0.491655
v -0.306912 -0.082102 -0.487932
v -0.305355 -0.090056 -0.489354
v -0.131905 -0.096508 -0.239521
v -0.135703 -0.101919 -0.237220
v -0.137260 -0.093965 -0.235798
v -0.301557 -0.084645 -0.491655
v -0.301069 -0.077662 -0.491655
v -0.306912 -0.082102 -0.487932
v -0.131905 -0.096508 -0.239521
v -0.137260 -0.093965 -0.235798
v -0.131417 -0.089525 -0.239521
v 0.398047 0.025000 0.117403
v 0.364755 -0.009635 -0.032063
v 0.453846 -0.210489 -0.169657
v 0.484906 -0.009635 -0.008708
v 0.433316 -0.167344 -0.166494
v 0.436943 -0.160651 -0.169620
v 0.408461 -0.014124 0.111115
v 0.404834 -0.020817 0.114241
v 0.436943 -0.160651 -0.169620
v 0.445053 -0.161361 -0.168426
v 0.416571 -0.014834 0.112309
v 0.408461 -0.014124 0.111115
v 0.445053 -0.161361 -0.168426
v 0.446440 -0.168494 -0.164563
v 0.417958 -0.021967 0.116172
v 0.416571 -0.014834 0.112309
v 0.446440 -0.168494 -0.164563
v 0.439186 -0.172191 -0.163369
v 0.410704 -0.025664 0.117366
v 0.417958 -0.021967 0.116172
v 0.439186 -0.172191 -0.163369
v 0.433316 -0.167344 -0.166494
v 0.404834 -0.020817 0.114241
v 0.410704 -0.025664 0.117366
v 0.440188 -0.166008 -0.166494
v 0.436943 -0.160651 -0.169620
v 0.433316 -0.167344 -0.166494
v 0.411706 -0.019481 0.114241
v 0.404834 -0.020817 0.114241
v 0.408461 -0.014124 0.111115
v 0.440188 -0.166008 -0.166494
v 0.445053 -0.161361 -0.168426
v 0.436943 -0.160651 -0.169620
v 0.411706 -0.019481 0.114241
v 0.408461 -0.014124 0.111115
v 0.416571 -0.014834 0.112309
v 0.440188 -0.166008 -0.166494
v 0.446440 -0.168494 -0.164563
v 0.445053 -0.161361 -0.168426
v 0.411706 -0.019481 0.114241
v 0.416571 -0.014834 0.112309
v 0.417958 -0.021967 0.116172
v 0.440188 -0.166008 -0.166494
v 0.439186 -0.172191 -0.163369
v 0.446440 -0.168494 -0.164563
v 0.411706 -0.019481 0.114241
v 0.417958 -0.021967 0.116172
v 0.410704 -0.025664 0.117366
v 0.440188 -0.166008 -0.166494
v 0.433316 -0.167344 -0.166494
v 0.439186 -0.172191 -0.163369
v 0.411706 -0.019481 0.114241
v 0.410704 -0.025664 0.117366
v 0.404834 -0.020817 0.114241
v 0.433047 0.028000 0.092403
v 0.407304 -0.001573 0.204280
v 0.297815 -0.176943 0.259401
v 0.328967 -0.001573 0.140844
v 0.327088 -0.015998 0.072756
v 0.326802 -0.023331 0.069034
v 0.414369 -0.131467 0.275325
v 0.414654 -0.124134 0.279048
v 0.326802 -0.023331 0.069034
v 0.319393 -0.026618 0.070456
v 0.406960 -0.134754 0.276747
v 0.414369 -0.131467 0.275325
v 0.319393 -0.026618 0.070456
v 0.315100 -0.021316 0.075057
v 0.402667 -0.129452 0.281348
v 0.406960 -0.134754 0.276747
v 0.315100 -0.021316 0.075057
v 0.319855 -0.014753 0.076479
v 0.407422 -0.122889 0.282770
v 0.402667 -0.129452 0.281348
v 0.319855 -0.014753 0.076479
v 0.327088 -0.015998 0.072756
v 0.414654 -0.124134 0.279048
v 0.407422 -0.122889 0.282770
v 0.321648 -0.020403 0.072756
v 0.326802 -0.023331 0.069034
v 0.327088 -0.015998 0.072756
v 0.409214 -0.128539 0.279048
v 0.414654 -0.124134 0.279048
v 0.414369 -0.131467 0.275325
v 0.321648 -0.020403 0.072756
v 0.319393 -0.026618 0.070456
v 0.326802 -0.023331 0.069034
v 0.409214 -0.128539 0.279048
v 0.414369 -0.131467 0.275325
v 0.406960 -0.134754 0.276747
v 0.321648 -0.020403 0.072756
v 0.315100 -0.021316 0.075057
v 0.319393 -0.026618 0.070456
v 0.409214 -0.128539 0.279048
v 0.406960 -0.134754 0.276747
v 0.402667 -0.129452 0.281348
v 0.321648 -0.020403 0.072756
v 0.319855 -0.014753 0.076479
v 0.315100 -0.021316 0.075057
v 0.409214 -0.128539 0.279048
v 0.402667 -0.129452 0.281348
v 0.407422 -0.122889 0.282770
v 0.321648 -0.020403 0.072756
v 0.327088 -0.015998 0.072756
v 0.319855 -0.014753 0.076479
v 0.409214 -0.128539 0.279048
v 0.407422 -0.122889 0.282770
v 0.414654 -0.124134 0.279048
v -0.362045 0.025000 0.283767
v -0.508731 -0.017927 0.197559
v -0.553031 -0.227766 0.020897
v -0.398705 -0.017927 0.117620
v -0.511944 -0.164358 -0.003632
v -0.504576 -0.162446 -0.006757
v -0.407089 -0.028266 0.305170
v -0.414457 -0.030179 0.308296
v -0.504576 -0.162446 -0.006757
v -0.499564 -0.168862 -0.005563
v -0.402077 -0.034683 0.306364
v -0.407089 -0.028266 0.305170
v -0.499564 -0.168862 -0.005563
v -0.503835 -0.174740 -0.001700
v -0.406348 -0.040561 0.310228
v -0.402077 -0.034683 0.306364
v -0.503835 -0.174740 -0.001700
v -0.511486 -0.171957 -0.000506
v -0.413999 -0.037777 0.311421
v -0.406348 -0.040561 0.310228
v -0.511486 -0.171957 -0.000506
v -0.511944 -0.164358 -0.003632
v -0.414457 -0.030179 0.308296
v -0.413999 -0.037777 0.311421
v -0.506281 -0.168472 -0.003632
v -0.504576 -0.162446 -0.006757
v -0.511944 -0.164358 -0.003632
v -0.408794 -0.034293 0.308296
v -0.414457 -0.030179 0.308296
v -0.407089 -0.028266 0.305170
v -0.506281 -0.168472 -0.003632
v -0.499564 -0.168862 -0.005563
v -0.504576 -0.162446 -0.006757
v -0.408794 -0.034293 0.308296
v -0.407089 -0.028266 0.305170
v -0.402077 -0.034683 0.306364
v -0.506281 -0.168472 -0.003632
v -0.503835 -0.174740 -0.001700
v -0.499564 -0.168862 -0.005563
v -0.408794 -0.034293 0.308296
v -0.402077 -0.034683 0.306364
v -0.406348 -0.040561 0.310228
v -0.506281 -0.168472 -0.003632
v -0.511486 -0.171957 -0.000506
v -0.503835 -0.174740 -0.001700
v -0.408794 -0.034293 0.308296
v -0.406348 -0.040561 0.310228
v -0.413999 -0.037777 0.311421
v -0.506281 -0.168472 -0.003632
v -0.511944 -0.164358 -0.003632
v -0.511486 -0.171957 -0.000506
v -0.408794 -0.034293 0.308296
v -0.413999 -0.037777 0.311421
v -0.414457 -0.030179 0.308296
v -0.327045 0.028000 0.258767
v -0.255640 -0.009303 0.364464
v -0.293815 -0.193048 0.495206
v -0.366550 -0.009303 0.380051
v -0.292740 -0.006947 0.262380
v -0.298298 -0.011740 0.258657
v -0.319815 -0.164841 0.487870
v -0.314257 -0.160049 0.491593
v -0.298298 -0.011740 0.258657
v -0.305754 -0.008563 0.260079
v -0.327271 -0.161664 0.489292
v -0.319815 -0.164841 0.487870
v -0.305754 -0.008563 0.260079
v -0.304805 -0.001807 0.264681
v -0.326322 -0.154908 0.493893
v -0.327271 -0.161664 0.489292
v -0.304805 -0.001807 0.264681
v -0.296761 -0.000809 0.266103
v -0.318278 -0.153910 0.495315
v -0.326322 -0.154908 0.493893
v -0.296761 -0.000809 0.266103
v -0.292740 -0.006947 0.262380
v -0.314257 -0.160049 0.491593
v -0.318278 -0.153910 0.495315
v -0.299672 -0.005973 0.262380
v -0.298298 -0.011740 0.258657
v -0.292740 -0.006947 0.262380
v -0.321189 -0.159074 0.491593
v -0.314257 -0.160049 0.491593
v -0.319815 -0.164841 0.487870
v -0.299672 -0.005973 0.262380
v -0.305754 -0.008563 0.260079
v -0.298298 -0.011740 0.258657
v -0.321189 -0.159074 0.491593
v -0.319815 -0.164841 0.487870
v -0.327271 -0.161664 0.489292
v -0.299672 -0.005973 0.262380
v -0.304805 -0.001807 0.264681
v -0.305754 -0.008563 0.260079
v -0.321189 -0.159074 0.491593
v -0.327271 -0.161664 0.489292
v -0.326322 -0.154908 0.493893
v -0.299672 -0.005973 0.262380
v -0.296761 -0.000809 0.266103
v -0.304805 -0.001807 0.264681
v -0.321189 -0.159074 0.491593
v -0.326322 -0.154908 0.493893
v -0.318278 -0.153910 0.495315
v -0.299672 -0.005973 0.262380
v -0.292740 -0.006947 0.262380
v -0.296761 -0.000809 0.266103
v -0.321189 -0.159074 0.491593
v -0.318278 -0.153910 0.495315
v -0.314257 -0.160049 0.491593
v 0.065060 0.052073 -0.640676
v 0.055250 0.054009 -0.640839
v 0.031590 0.045934 0.690514
v 0.041400 0.043999 0.690676
v 0.055250 0.054009 -0.640839
v 0.052021 0.063473 -0.640839
v 0.028360 0.055398 0.690514
v 0.031590 0.045934 0.690514
v 0.052021 0.063473 -0.640839
v 0.058600 0.071001 -0.640676
v 0.034940 0.062927 0.690676
v 0.028360 0.055398 0.690514
v 0.058600 0.071001 -0.640676
v 0.068410 0.069066 -0.640514
v 0.044750 0.060991 0.690839
v 0.034940 0.062927 0.690676
v 0.068410 0.069066 -0.640514
v 0.071640 0.059602 -0.640514
v 0.047979 0.051527 0.690839
v 0.044750 0.060991 0.690839
v 0.071640 0.059602 -0.640514
v 0.065060 0.052073 -0.640676
v 0.041400 0.043999 0.690676
v 0.047979 0.051527 0.690839
v 0.061830 0.061537 -0.640676
v 0.055250 0.054009 -0.640839
v 0.065060 0.052073 -0.640676
v 0.038170 0.053463 0.690676
v 0.041400 0.043999 0.690676
v 0.031590 0.045934 0.690514
v 0.061830 0.061537 -0.640676
v 0.052021 0.063473 -0.640839
v 0.055250 0.054009 -0.640839
v 0.038170 0.053463 0.690676
v 0.031590 0.045934 0.690514
v 0.028360 0.055398 0.690514
v 0.061830 0.061537 -0.640676
v 0.058600 0.071001 -0.640676
v 0.052021 0.063473 -0.640839
v 0.038170 0.053463 0.690676
v 0.028360 0.055398 0.690514
v 0.034940 0.062927 0.690676
v 0.061830 0.061537 -0.640676
v 0.068410 0.069066 -0.640514
v 0.058600 0.071001 -0.640676
v 0.038170 0.053463 0.690676
v 0.034940 0.062927 0.690676
v 0.044750 0.060991 0.690839
v 0.061830 0.061537 -0.640676
v 0.071640 0.059602 -0.640514
v 0.068410 0.069066 -0.640514
v 0.038170 0.053463 0.690676
v 0.044750 0.060991 0.690839
v 0.047979 0.051527 0.690839
v 0.061830 0.061537 -0.640676
v 0.065060 0.052073 -0.640676
v 0.071640 0.059602 -0.640514
v 0.038170 0.053463 0.690676
v 0.047979 0.051527 0.690839
v 0.041400 0.043999 0.690676
v 0.181643 0.083287 -0.263460
v 0.595354 0.047092 -0.576404
v 0.598404 0.081959 -0.576404
v 0.184694 0.118153 -0.263460
v 0.655306 0.041847 -0.496540
v 0.241596 0.078041 -0.183596
v 0.244646 0.112908 -0.183596
v 0.658357 0.076713 -0.496540
v 0.241596 0.078041 -0.183596
v 0.181643 0.083287 -0.263460
v 0.184694 0.118153 -0.263460
v 0.244646 0.112908 -0.183596
v 0.595354 0.047092 -0.576404
v 0.655306 0.041847 -0.496540
v 0.658357 0.076713 -0.496540
v 0.598404 0.081959 -0.576404
v 0.184694 0.118153 -0.263460
v 0.598404 0.081959 -0.576404
v 0.658357 0.076713 -0.496540
v 0.244646 0.112908 -0.183596
v 0.241596 0.078041 -0.183596
v 0.655306 0.041847 -0.496540
v 0.595354 0.047092 -0.576404
v 0.181643 0.083287 -0.263460
vt 0.000000 0.000000
vt 1.000000 0.000000
vt 1.000000 1.000000
vt 0.000000 1.000000
vt 0.000000 0.000000
vt 1.000000 0.000000
vt 1.000000 1.000000
vt 0.000000 1.000000
vt 0.000000 0.000000
vt 1.000000 0.000000
vt 1.000000 1.000000
vt 0.000000 1.000000
vt 0.000000 0.000000
vt 1.000000 0.000000
vt 1.000000 1.000000
vt 0.000000 1.000000
vt 0.000000 0.000000
vt 1.000000 0.000000
vt 1.000000 1.000000
vt 0.000000 1.000000
vt 0.000000 0.000000
vt 1.000000 0.000000
vt 1.000000 1.000000
vt 0.000000 1.000000
vt 0.000000 0.000000
vt 1.000000 0.000000
vt 1.000000 1.000000
vt 0.000000 1.000000
vt 0.000000 0.000000
vt 1.000000 0.000000
vt 1.000000 1.000000
vt 0.000000 1.000000
vt 0.000000 0.000000
vt 1.000000 0.000000
vt 1.000000 1.000000
vt 0.000000 1.000000
vt 0.000000 0.000000
vt 1.000000 0.000000
vt 1.000000 1.000000
vt 0.000000 1.000000
vt 0.000000 0.000000
vt 1.000000 0.000000
vt 1.000000 1.000000
vt 0.000000 1.000000
vt 0.000000 0.000000
vt 1.000000 0.000000
vt 1.000000 1.000000
vt 0.000000 1.000000
vt 0.500000 0.500000
vt 0.000000 0.000000
vt 1.000000 0.000000
vt 0.500000 0.500000
vt 0.000000 1.000000
vt 1.000000 1.000000
vt 0.500000 0.500000
vt 0.000000 0.000000
vt 1.000000 0.000000
vt 0.500000 0.500000
vt 0.000000 1.000000
vt 1.000000 1.000000
vt 0.500000 0.500000
vt 0.000000 0.000000
vt 1.000000 0.000000
vt 0.500000 0.500000
vt 0.000000 1.000000
vt 1.000000 1.000000
vt 0.500000 0.500000
vt 0.000000 0.000000
vt 1.000000 0.000000
vt 0.500000 0.500000
vt 0.000000 1.000000
vt 1.000000 1.000000
vt 0.500000 0.500000
vt 0.000000 0.000000
vt 1.000000 0.000000
vt 0.500000 0.500000
vt 0.000000 1.000000
vt 1.000000 1.000000
vt 0.500000 0.500000
vt 0.000000 0.000000
vt 1.000000 0.000000
vt 0.500000 0.500000
vt 0.000000 1.000000
vt 1.000000 1.000000
vt 0.000000 0.000000
vt 1.000000 0.000000
vt 1.000000 1.000000
vt 0.000000 1.000000
vt 0.000000 0.000000
vt 1.000000 0.000000
vt 1.000000 1.000000
vt 0.000000 1.000000
vt 0.000000 0.000000
vt 1.000000 0.000000
vt 1.000000 1.000000
vt 0.000000 1.000000
vt 0.000000 0.000000
vt 1.000000 0.000000
vt 1.000000 1.000000
vt 0.000000 1.000000
vt 0.000000 0.000000
vt 1.000000 0.000000
vt 1.000000 1.000000
vt 0.000000 1.000000
vt 0.000000 0.000000
vt 1.000000 0.000000
vt 1.000000 1.000000
vt 0.000000 1.000000
vt 0.000000 0.000000
vt 1.000000 0.000000
vt 1.000000 1.000000
vt 0.000000 1.000000
vt 0.000000 0.000000
vt 1.000000 0.000000
vt 1.000000 1.000000
vt 0.000000 1.000000
vt 0.000000 0.000000
vt 1.000000 0.000000
vt 1.000000 1.000000
vt 0.000000 1.000000
vt 0.000000 0.000000
vt 1.000000 0.000000
vt 1.000000 1.000000
vt 0.000000 1.000000
vt 0.000000 0.000000
vt 1.000000 0.000000
vt 1.000000 1.000000
vt 0.000000 1.000000
vt 0.000000 0.000000
vt 1.000000 0.000000
vt 1.000000 1.000000
vt 0.000000 1.000000
vt 0.000000 0.000000
vt 1.000000 0.000000
vt 1.000000 1.000000
vt 0.000000 1.000000
vt 0.000000 0.000000
vt 1.000000 0.000000
vt 1.000000 1.000000
vt 0.000000 1.000000
vt 0.000000 0.000000
vt 1.000000 0.000000
vt 1.000000 1.000000
vt 0.000000 1.000000
vt 0.000000 0.000000
vt 1.000000 0.000000
vt 1.000000 1.000000
vt 0.000000 1.000000
vt 0.000000 0.000000
vt 1.000000 0.000000
vt 1.000000 1.000000
vt 0.000000 1.000000
vt 0.000000 0.000000
vt 1.000000 0.000000
vt 1.000000 1.000000
vt 0.000000 1.000000
vt 0.000000 0.000000
vt 1.000000 0.000000
vt 1.000000 1.000000
vt 0.000000 1.000000
vt 0.000000 0.000000
vt 1.000000 0.000000
vt 1.000000 1.000000
vt 0.000000 1.000000
vt 0.000000 0.000000
vt 1.000000 0.000000
vt 1.000000 1.000000
vt 0.000000 1.000000
vt 0.000000 0.000000
vt 1.000000 0.000000
vt 1.000000 1.000000
vt 0.000000 1.000000
vt 0.000000 0.000000
vt 1.000000 0.000000
vt 1.000000 1.000000
vt 0.000000 1.000000
vt 0.000000 0.000000
vt 1.000000 0.000000
vt 1.000000 1.000000
vt 0.000000 1.000000
vt 0.500000 0.500000
vt 0.000000 0.000000
vt 1.000000 0.000000
vt 0.500000 0.500000
vt 0.000000 1.000000
vt 1.000000 1.000000
vt 0.500000 0.500000
vt 0.000000 0.000000
vt 1.000000 0.000000
vt 0.500000 0.500000
vt 0.000000 1.000000
vt 1.000000 1.000000
vt 0.500000 0.500000
vt 0.000000 0.000000
vt 1.000000 0.000000
vt 0.500000 0.500000
vt 0.000000 1.000000
vt 1.000000 1.000000
vt 0.500000 0.500000
vt 0.000000 0.000000
vt 1.000000 0.000000
vt 0.500000 0.500000
vt 0.000000 1.000000
vt 1.000000 1.000000
vt 0.500000 0.500000
vt 0.000000 0.000000
vt 1.000000 0.000000
vt 0.500000 0.500000
vt 0.000000 1.000000
vt 1.000000 1.000000
vt 0.500000 0.500000
vt 0.000000 0.000000
vt 1.000000 0.000000
vt 0.500000 0.500000
vt 0.000000 1.000000
vt 1.000000 1.000000
vt 0.000000 0.000000
vt 1.000000 0.000000
vt 1.000000 1.000000
vt 0.000000 1.000000
vt 0.000000 0.000000
vt 1.000000 0.000000
vt 1.000000 1.000000
vt 0.000000 1.000000
vt 0.000000 0.000000
vt 1.000000 0.000000
vt 1.000000 1.000000
vt 0.000000 1.000000
vt 0.000000 0.000000
vt 1.000000 0.000000
vt 1.000000 1.000000
vt 0.000000 1.000000
vt 0.000000 0.000000
vt 1.000000 0.000000
vt 1.000000 1.000000
vt 0.000000 1.000000
vt 0.000000 0.000000
vt 1.000000 0.000000
vt 1.000000 1.000000
vt 0.000000 1.000000
vt 0.000000 0.000000
vt 1.000000 0.000000
vt 1.000000 1.000000
vt 0.000000 1.000000
vt 0.000000 0.000000
vt 1.000000 0.000000
vt 1.000000 1.000000
vt 0.000000 1.000000
vt 0.000000 0.000000
vt 1.000000 0.000000
vt 1.000000 1.000000
vt 0.000000 1.000000
vt 0.000000 0.000000
vt 1.000000 0.000000
vt 1.000000 1.000000
vt 0.000000 1.000000
vt 0.000000 0.000000
vt 1.000000 0.000000
vt 1.000000 1.000000
vt 0.000000 1.000000
vt 0.000000 0.000000
vt 1.000000 0.000000
vt 1.000000 1.000000
vt 0.000000 1.000000
vt 0.000000 0.000000
vt 1.000000 0.000000
vt 1.000000 1.000000
vt 0.000000 1.000000
vt 0.000000 0.000000
vt 1.000000 0.000000
vt 1.000000 1.000000
vt 0.000000 1.000000
vt 0.000000 0.000000
vt 1.000000 0.000000
vt 1.000000 1.000000
vt 0.000000 1.000000
vt 0.000000 0.000000
vt 1.000000 0.000000
vt 1.000000 1.000000
vt 0.000000 1.000000
vt 0.000000 0.000000
vt 1.000000 0.000000
vt 1.000000 1.000000
vt 0.000000 1.000000
vt 0.000000 0.000000
vt 1.000000 0.000000
vt 1.000000 1.000000
vt 0.000000 1.000000
vt 0.000000 0.000000
vt 1.000000 0.000000
vt 1.000000 1.000000
vt 0.000000 1.000000
vt 0.000000 0.000000
vt 1.000000 0.000000
vt 1.000000 1.000000
vt 0.000000 1.000000
vt 0.000000 0.000000
vt 1.000000 0.000000
vt 1.000000 1.000000
vt 0.000000 1.000000
vt 0.000000 0.000000
vt 1.000000 0.000000
vt 1.000000 1.000000
vt 0.000000 1.000000
vt 0.000000 0.000000
vt 1.000000 0.000000
vt 1.000000 1.000000
vt 0.000000 1.000000
vt 0.000000 0.000000
vt 1.000000 0.000000
vt 1.000000 1.000000
vt 0.000000 1.000000
vt 0.500000 0.500000
vt 0.000000 0.000000
vt 1.000000 0.000000
vt 0.500000 0.500000
vt 0.000000 1.000000
vt 1.000000 1.000000
vt 0.500000 0.500000
vt 0.000000 0.000000
vt 1.000000 0.000000
vt 0.500000 0.500000
vt 0.000000 1.000000
vt 1.000000 1.000000
vt 0.500000 0.500000
vt 0.000000 0.000000
vt 1.000000 0.000000
vt 0.500000 0.500000
vt 0.000000 1.000000
vt 1.000000 1.000000
vt 0.500000 0.500000
vt 0.000000 0.000000
vt 1.000000 0.000000
vt 0.500000 0.500000
vt 0.000000 1.000000
vt 1.000000 1.000000
vt 0.500000 0.500000
vt 0.000000 0.000000
vt 1.000000 0.000000
vt 0.500000 0.500000
vt 0.000000 1.000000
vt 1.000000 1.000000
vt 0.500000 0.500000
vt 0.000000 0.000000
vt 1.000000 0.000000
vt 0.500000 0.500000
vt 0.000000 1.000000
vt 1.000000 1.000000
vt 0.000000 0.000000
vt 1.000000 0.000000
vt 1.000000 1.000000
vt 0.000000 1.000000
vt 0.000000 0.000000
vt 1.000000 0.000000
vt 1.000000 1.000000
vt 0.000000 1.000000
vt 0.000000 0.000000
vt 1.000000 0.000000
vt 1.000000 1.000000
vt 0.000000 1.000000
vt 0.000000 0.000000
vt 1.000000 0.000000
vt 1.000000 1.000000
vt 0.000000 1.000000
vt 0.000000 0.000000
vt 1.000000 0.000000
vt 1.000000 1.000000
vt 0.000000 1.000000
vt 0.000000 0.000000
vt 1.000000 0.000000
vt 1.000000 1.000000
vt 0.000000 1.000000
vt 0.000000 0.000000
vt 1.000000 0.000000
vt 1.000000 1.000000
vt 0.000000 1.000000
vt 0.000000 0.000000
vt 1.000000 0.000000
vt 1.000000 1.000000
vt 0.000000 1.000000
vt 0.000000 0.000000
vt 1.000000 0.000000
vt 1.000000 1.000000
vt 0.000000 1.000000
vt 0.000000 0.000000
vt 1.000000 0.000000
vt 1.000000 1.000000
vt 0.000000 1.000000
vt 0.000000 0.000000
vt 1.000000 0.000000
vt 1.000000 1.000000
vt 0.000000 1.000000
vt 0.000000 0.000000
vt 1.000000 0.000000
vt 1.000000 1.000000
vt 0.000000 1.000000
vt 0.000000 0.500000
vt 0.480000 1.000000
vt 1.000000 0.500000
vt 0.480000 0.000000
vt 0.000000 0.000000
vt 1.000000 0.000000
vt 1.000000 1.000000
vt 0.000000 1.000000
vt 0.000000 0.000000
vt 1.000000 0.000000
vt 1.000000 1.000000
vt 0.000000 1.000000
vt 0.000000 0.000000
vt 1.000000 0.000000
vt 1.000000 1.000000
vt 0.000000 1.000000
vt 0.000000 0.000000
vt 1.000000 0.000000
vt 1.000000 1.000000
vt 0.000000 1.000000
vt 0.000000 0.000000
vt 1.000000 0.000000
vt 1.000000 1.000000
vt 0.000000 1.000000
vt 0.500000 0.500000
vt 0.000000 0.000000
vt 1.000000 0.000000
vt 0.500000 0.500000
vt 0.000000 1.000000
vt 1.000000 1.000000
vt 0.500000 0.500000
vt 0.000000 0.000000
vt 1.000000 0.000000
vt 0.500000 0.500000
vt 0.000000 1.000000
vt 1.000000 1.000000
vt 0.500000 0.500000
vt 0.000000 0.000000
vt 1.000000 0.000000
vt 0.500000 0.500000
vt 0.000000 1.000000
vt 1.000000 1.000000
vt 0.500000 0.500000
vt 0.000000 0.000000
vt 1.000000 0.000000
vt 0.500000 0.500000
vt 0.000000 1.000000
vt 1.000000 1.000000
vt 0.500000 0.500000
vt 0.000000 0.000000
vt 1.000000 0.000000
vt 0.500000 0.500000
vt 0.000000 1.000000
vt 1.000000 1.000000
vt 0.000000 0.500000
vt 0.480000 1.000000
vt 1.000000 0.500000
vt 0.480000 0.000000
vt 0.000000 0.000000
vt 1.000000 0.000000
vt 1.000000 1.000000
vt 0.000000 1.000000
vt 0.000000 0.000000
vt 1.000000 0.000000
vt 1.000000 1.000000
vt 0.000000 1.000000
vt 0.000000 0.000000
vt 1.000000 0.000000
vt 1.000000 1.000000
vt 0.000000 1.000000
vt 0.000000 0.000000
vt 1.000000 0.000000
vt 1.000000 1.000000
vt 0.000000 1.000000
vt 0.000000 0.000000
vt 1.000000 0.000000
vt 1.000000 1.000000
vt 0.000000 1.000000
vt 0.500000 0.500000
vt 0.000000 0.000000
vt 1.000000 0.000000
vt 0.500000 0.500000
vt 0.000000 1.000000
vt 1.000000 1.000000
vt 0.500000 0.500000
vt 0.000000 0.000000
vt 1.000000 0.000000
vt 0.500000 0.500000
vt 0.000000 1.000000
vt 1.000000 1.000000
vt 0.500000 0.500000
vt 0.000000 0.000000
vt 1.000000 0.000000
vt 0.500000 0.500000
vt 0.000000 1.000000
vt 1.000000 1.000000
vt 0.500000 0.500000
vt 0.000000 0.000000
vt 1.000000 0.000000
vt 0.500000 0.500000
vt 0.000000 1.000000
vt 1.000000 1.000000
vt 0.500000 0.500000
vt 0.000000 0.000000
vt 1.000000 0.000000
vt 0.500000 0.500000
vt 0.000000 1.000000
vt 1.000000 1.000000
vt 0.000000 0.500000
vt 0.480000 1.000000
vt 1.000000 0.500000
vt 0.480000 0.000000
vt 0.000000 0.000000
vt 1.000000 0.000000
vt 1.000000 1.000000
vt 0.000000 1.000000
vt 0.000000 0.000000
vt 1.000000 0.000000
vt 1.000000 1.000000
vt 0.000000 1.000000
vt 0.000000 0.000000
vt 1.000000 0.000000
vt 1.000000 1.000000
vt 0.000000 1.000000
vt 0.000000 0.000000
vt 1.000000 0.000000
vt 1.000000 1.000000
vt 0.000000 1.000000
vt 0.000000 0.000000
vt 1.000000 0.000000
vt 1.000000 1.000000
vt 0.000000 1.000000
vt 0.500000 0.500000
vt 0.000000 0.000000
vt 1.000000 0.000000
vt 0.500000 0.500000
vt 0.000000 1.000000
vt 1.000000 1.000000
vt 0.500000 0.500000
vt 0.000000 0.000000
vt 1.000000 0.000000
vt 0.500000 0.500000
vt 0.000000 1.000000
vt 1.000000 1.000000
vt 0.500000 0.500000
vt 0.000000 0.000000
vt 1.000000 0.000000
vt 0.500000 0.500000
vt 0.000000 1.000000
vt 1.000000 1.000000
vt 0.500000 0.500000
vt 0.000000 0.000000
vt 1.000000 0.000000
vt 0.500000 0.500000
vt 0.000000 1.000000
vt 1.000000 1.000000
vt 0.500000 0.500000
vt 0.000000 0.000000
vt 1.000000 0.000000
vt 0.500000 0.500000
vt 0.000000 1.000000
vt 1.000000 1.000000
vt 0.000000 0.500000
vt 0.480000 1.000000
vt 1.000000 0.500000
vt 0.480000 0.000000
vt 0.000000 0.000000
vt 1.000000 0.000000
vt 1.000000 1.000000
vt 0.000000 1.000000
vt 0.000000 0.000000
vt 1.000000 0.000000
vt 1.000000 1.000000
vt 0.000000 1.000000
vt 0.000000 0.000000
vt 1.000000 0.000000
vt 1.000000 1.000000
vt 0.000000 1.000000
vt 0.000000 0.000000
vt 1.000000 0.000000
vt 1.000000 1.000000
vt 0.000000 1.000000
vt 0.000000 0.000000
vt 1.000000 0.000000
vt 1.000000 1.000000
vt 0.000000 1.000000
vt 0.500000 0.500000
vt 0.000000 0.000000
vt 1.000000 0.000000
vt 0.500000 0.500000
vt 0.000000 1.000000
vt 1.000000 1.000000
vt 0.500000 0.500000
vt 0.000000 0.000000
vt 1.000000 0.000000
vt 0.500000 0.500000
vt 0.000000 1.000000
vt 1.000000 1.000000
vt 0.500000 0.500000
vt 0.000000 0.000000
vt 1.000000 0.000000
vt 0.500000 0.500000
vt 0.000000 1.000000
vt 1.000000 1.000000
vt 0.500000 0.500000
vt 0.000000 0.000000
vt 1.000000 0.000000
vt 0.500000 0.500000
vt 0.000000 1.000000
vt 1.000000 1.000000
vt 0.500000 0.500000
vt 0.000000 0.000000
vt 1.000000 0.000000
vt 0.500000 0.500000
vt 0.000000 1.000000
vt 1.000000 1.000000
vt 0.000000 0.500000
vt 0.480000 1.000000
vt 1.000000 0.500000
vt 0.480000 0.000000
vt 0.000000 0.000000
vt 1.000000 0.000000
vt 1.000000 1.000000
vt 0.000000 1.000000
vt 0.000000 0.000000
vt 1.000000 0.000000
vt 1.000000 1.000000
vt 0.000000 1.000000
vt 0.000000 0.000000
vt 1.000000 0.000000
vt 1.000000 1.000000
vt 0.000000 1.000000
vt 0.000000 0.000000
vt 1.000000 0.000000
vt 1.000000 1.000000
vt 0.000000 1.000000
vt 0.000000 0.000000
vt 1.000000 0.000000
vt 1.000000 1.000000
vt 0.000000 1.000000
vt 0.500000 0.500000
vt 0.000000 0.000000
vt 1.000000 0.000000
vt 0.500000 0.500000
vt 0.000000 1.000000
vt 1.000000 1.000000
vt 0.500000 0.500000
vt 0.000000 0.000000
vt 1.000000 0.000000
vt 0.500000 0.500000
vt 0.000000 1.000000
vt 1.000000 1.000000
vt 0.500000 0.500000
vt 0.000000 0.000000
vt 1.000000 0.000000
vt 0.500000 0.500000
vt 0.000000 1.000000
vt 1.000000 1.000000
vt 0.500000 0.500000
vt 0.000000 0.000000
vt 1.000000 0.000000
vt 0.500000 0.500000
vt 0.000000 1.000000
vt 1.000000 1.000000
vt 0.500000 0.500000
vt 0.000000 0.000000
vt 1.000000 0.000000
vt 0.500000 0.500000
vt 0.000000 1.000000
vt 1.000000 1.000000
vt 0.000000 0.500000
vt 0.480000 1.000000
vt 1.000000 0.500000
vt 0.480000 0.000000
vt 0.000000 0.000000
vt 1.000000 0.000000
vt 1.000000 1.000000
vt 0.000000 1.000000
vt 0.000000 0.000000
vt 1.000000 0.000000
vt 1.000000 1.000000
vt 0.000000 1.000000
vt 0.000000 0.000000
vt 1.000000 0.000000
vt 1.000000 1.000000
vt 0.000000 1.000000
vt 0.000000 0.000000
vt 1.000000 0.000000
vt 1.000000 1.000000
vt 0.000000 1.000000
vt 0.000000 0.000000
vt 1.000000 0.000000
vt 1.000000 1.000000
vt 0.000000 1.000000
vt 0.500000 0.500000
vt 0.000000 0.000000
vt 1.000000 0.000000
vt 0.500000 0.500000
vt 0.000000 1.000000
vt 1.000000 1.000000
vt 0.500000 0.500000
vt 0.000000 0.000000
vt 1.000000 0.000000
vt 0.500000 0.500000
vt 0.000000 1.000000
vt 1.000000 1.000000
vt 0.500000 0.500000
vt 0.000000 0.000000
vt 1.000000 0.000000
vt 0.500000 0.500000
vt 0.000000 1.000000
vt 1.000000 1.000000
vt 0.500000 0.500000
vt 0.000000 0.000000
vt 1.000000 0.000000
vt 0.500000 0.500000
vt 0.000000 1.000000
vt 1.000000 1.000000
vt 0.500000 0.500000
vt 0.000000 0.000000
vt 1.000000 0.000000
vt 0.500000 0.500000
vt 0.000000 1.000000
vt 1.000000 1.000000
vt 0.000000 0.500000
vt 0.480000 1.000000
vt 1.000000 0.500000
vt 0.480000 0.000000
vt 0.000000 0.000000
vt 1.000000 0.000000
vt 1.000000 1.000000
vt 0.000000 1.000000
vt 0.000000 0.000000
vt 1.000000 0.000000
vt 1.000000 1.000000
vt 0.000000 1.000000
vt 0.000000 0.000000
vt 1.000000 0.000000
vt 1.000000 1.000000
vt 0.000000 1.000000
vt 0.000000 0.000000
vt 1.000000 0.000000
vt 1.000000 1.000000
vt 0.000000 1.000000
vt 0.000000 0.000000
vt 1.000000 0.000000
vt 1.000000 1.000000
vt 0.000000 1.000000
vt 0.500000 0.500000
vt 0.000000 0.000000
vt 1.000000 0.000000
vt 0.500000 0.500000
vt 0.000000 1.000000
vt 1.000000 1.000000
vt 0.500000 0.500000
vt 0.000000 0.000000
vt 1.000000 0.000000
vt 0.500000 0.500000
vt 0.000000 1.000000
vt 1.000000 1.000000
vt 0.500000 0.500000
vt 0.000000 0.000000
vt 1.000000 0.000000
vt 0.500000 0.500000
vt 0.000000 1.000000
vt 1.000000 1.000000
vt 0.500000 0.500000
vt 0.000000 0.000000
vt 1.000000 0.000000
vt 0.500000 0.500000
vt 0.000000 1.000000
vt 1.000000 1.000000
vt 0.500000 0.500000
vt 0.000000 0.000000
vt 1.000000 0.000000
vt 0.500000 0.500000
vt 0.000000 1.000000
vt 1.000000 1.000000
vt 0.000000 0.500000
vt 0.480000 1.000000
vt 1.000000 0.500000
vt 0.480000 0.000000
vt 0.000000 0.000000
vt 1.000000 0.000000
vt 1.000000 1.000000
vt 0.000000 1.000000
vt 0.000000 0.000000
vt 1.000000 0.000000
vt 1.000000 1.000000
vt 0.000000 1.000000
vt 0.000000 0.000000
vt 1.000000 0.000000
vt 1.000000 1.000000
vt 0.000000 1.000000
vt 0.000000 0.000000
vt 1.000000 0.000000
vt 1.000000 1.000000
vt 0.000000 1.000000
vt 0.000000 0.000000
vt 1.000000 0.000000
vt 1.000000 1.000000
vt 0.000000 1.000000
vt 0.500000 0.500000
vt 0.000000 0.000000
vt 1.000000 0.000000
vt 0.500000 0.500000
vt 0.000000 1.000000
vt 1.000000 1.000000
vt 0.500000 0.500000
vt 0.000000 0.000000
vt 1.000000 0.000000
vt 0.500000 0.500000
vt 0.000000 1.000000
vt 1.000000 1.000000
vt 0.500000 0.500000
vt 0.000000 0.000000
vt 1.000000 0.000000
vt 0.500000 0.500000
vt 0.000000 1.000000
vt 1.000000 1.000000
vt 0.500000 0.500000
vt 0.000000 0.000000
vt 1.000000 0.000000
vt 0.500000 0.500000
vt 0.000000 1.000000
vt 1.000000 1.000000
vt 0.500000 0.500000
vt 0.000000 0.000000
vt 1.000000 0.000000
vt 0.500000 0.500000
vt 0.000000 1.000000
vt 1.000000 1.000000
vt 0.000000 0.500000
vt 0.480000 1.000000
vt 1.000000 0.500000
vt 0.480000 0.000000
vt 0.000000 0.000000
vt 1.000000 0.000000
vt 1.000000 1.000000
vt 0.000000 1.000000
vt 0.000000 0.000000
vt 1.000000 0.000000
vt 1.000000 1.000000
vt 0.000000 1.000000
vt 0.000000 0.000000
vt 1.000000 0.000000
vt 1.000000 1.000000
vt 0.000000 1.000000
vt 0.000000 0.000000
vt 1.000000 0.000000
vt 1.000000 1.000000
vt 0.000000 1.000000
vt 0.000000 0.000000
vt 1.000000 0.000000
vt 1.000000 1.000000
vt 0.000000 1.000000
vt 0.500000 0.500000
vt 0.000000 0.000000
vt 1.000000 0.000000
vt 0.500000 0.500000
vt 0.000000 1.000000
vt 1.000000 1.000000
vt 0.500000 0.500000
vt 0.000000 0.000000
vt 1.000000 0.000000
vt 0.500000 0.500000
vt 0.000000 1.000000
vt 1.000000 1.000000
vt 0.500000 0.500000
vt 0.000000 0.000000
vt 1.000000 0.000000
vt 0.500000 0.500000
vt 0.000000 1.000000
vt 1.000000 1.000000
vt 0.500000 0.500000
vt 0.000000 0.000000
vt 1.000000 0.000000
vt 0.500000 0.500000
vt 0.000000 1.000000
vt 1.000000 1.000000
vt 0.500000 0.500000
vt 0.000000 0.000000
vt 1.000000 0.000000
vt 0.500000 0.500000
vt 0.000000 1.000000
vt 1.000000 1.000000
vt 0.000000 0.500000
vt 0.480000 1.000000
vt 1.000000 0.500000
vt 0.480000 0.000000
vt 0.000000 0.000000
vt 1.000000 0.000000
vt 1.000000 1.000000
vt 0.000000 1.000000
vt 0.000000 0.000000
vt 1.000000 0.000000
vt 1.000000 1.000000
vt 0.000000 1.000000
vt 0.000000 0.000000
vt 1.000000 0.000000
vt 1.000000 1.000000
vt 0.000000 1.000000
vt 0.000000 0.000000
vt 1.000000 0.000000
vt 1.000000 1.000000
vt 0.000000 1.000000
vt 0.000000 0.000000
vt 1.000000 0.000000
vt 1.000000 1.000000
vt 0.000000 1.000000
vt 0.500000 0.500000
vt 0.000000 0.000000
vt 1.000000 0.000000
vt 0.500000 0.500000
vt 0.000000 1.000000
vt 1.000000 1.000000
vt 0.500000 0.500000
vt 0.000000 0.000000
vt 1.000000 0.000000
vt 0.500000 0.500000
vt 0.000000 1.000000
vt 1.000000 1.000000
vt 0.500000 0.500000
vt 0.000000 0.000000
vt 1.000000 0.000000
vt 0.500000 0.500000
vt 0.000000 1.000000
vt 1.000000 1.000000
vt 0.500000 0.500000
vt 0.000000 0.000000
vt 1.000000 0.000000
vt 0.500000 0.500000
vt 0.000000 1.000000
vt 1.000000 1.000000
vt 0.500000 0.500000
vt 0.000000 0.000000
vt 1.000000 0.000000
vt 0.500000 0.500000
vt 0.000000 1.000000
vt 1.000000 1.000000
vt 0.000000 0.000000
vt 1.000000 0.000000
vt 1.000000 1.000000
vt 0.000000 1.000000
vt 0.000000 0.000000
vt 1.000000 0.000000
vt 1.000000 1.000000
vt 0.000000 1.000000
vt 0.000000 0.000000
vt 1.000000 0.000000
vt 1.000000 1.000000
vt 0.000000 1.000000
vt 0.000000 0.000000
vt 1.000000 0.000000
vt 1.000000 1.000000
vt 0.000000 1.000000
vt 0.000000 0.000000
vt 1.000000 0.000000
vt 1.000000 1.000000
vt 0.000000 1.000000
vt 0.000000 0.000000
vt 1.000000 0.000000
vt 1.000000 1.000000
vt 0.000000 1.000000
vt 0.500000 0.500000
vt 0.000000 0.000000
vt 1.000000 0.000000
vt 0.500000 0.500000
vt 0.000000 1.000000
vt 1.000000 1.000000
vt 0.500000 0.500000
vt 0.000000 0.000000
vt 1.000000 0.000000
vt 0.500000 0.500000
vt 0.000000 1.000000
vt 1.000000 1.000000
vt 0.500000 0.500000
vt 0.000000 0.000000
vt 1.000000 0.000000
vt 0.500000 0.500000
vt 0.000000 1.000000
vt 1.000000 1.000000
vt 0.500000 0.500000
vt 0.000000 0.000000
vt 1.000000 0.000000
vt 0.500000 0.500000
vt 0.000000 1.000000
vt 1.000000 1.000000
vt 0.500000 0.500000
vt 0.000000 0.000000
vt 1.000000 0.000000
vt 0.500000 0.500000
vt 0.000000 1.000000
vt 1.000000 1.000000
vt 0.500000 0.500000
vt 0.000000 0.000000
vt 1.000000 0.000000
vt 0.500000 0.500000
vt 0.000000 1.000000
vt 1.000000 1.000000
vt 0.000000 0.000000
vt 1.000000 0.000000
vt 1.000000 1.000000
vt 0.000000 1.000000
vt 0.000000 0.000000
vt 1.000000 0.000000
vt 1.000000 1.000000
vt 0.000000 1.000000
vt 0.000000 0.000000
vt 1.000000 0.000000
vt 1.000000 1.000000
vt 0.000000 1.000000
vt 0.000000 0.000000
vt 1.000000 0.000000
vt 1.000000 1.000000
vt 0.000000 1.000000
vt 0.000000 0.000000
vt 1.000000 0.000000
vt 1.000000 1.000000
vt 0.000000 1.000000
vt 0.000000 0.000000
vt 1.000000 0.000000
vt 1.000000 1.000000
vt 0.000000 1.000000
usemtl Wood
f 1/1 2/2 3/3
f 1/1 3/3 4/4
f 5/5 6/6 7/7
f 5/5 7/7 8/8
f 9/9 10/10 11/11
f 9/9 11/11 12/12
f 13/13 14/14 15/15
f 13/13 15/15 16/16
f 17/17 18/18 19/19
f 17/17 19/19 20/20
f 21/21 22/22 23/23
f 21/21 23/23 24/24
usemtl Metal
f 25/25 26/26 27/27
f 25/25 27/27 28/28
f 29/29 30/30 31/31
f 29/29 31/31 32/32
f 33/33 34/34 35/35
f 33/33 35/35 36/36
f 37/37 38/38 39/39
f 37/37 39/39 40/40
f 41/41 42/42 43/43
f 41/41 43/43 44/44
f 45/45 46/46 47/47
f 45/45 47/47 48/48
f 49/49 50/50 51/51
f 52/52 53/53 54/54
f 55/55 56/56 57/57
f 58/58 59/59 60/60
f 61/61 62/62 63/63
f 64/64 65/65 66/66
f 67/67 68/68 69/69
f 70/70 71/71 72/72
f 73/73 74/74 75/75
f 76/76 77/77 78/78
f 79/79 80/80 81/81
f 82/82 83/83 84/84
usemtl Wood
f 85/85 86/86 87/87
f 85/85 87/87 88/88
f 89/89 90/90 91/91
f 89/89 91/91 92/92
f 93/93 94/94 95/95
f 93/93 95/95 96/96
f 97/97 98/98 99/99
f 97/97 99/99 100/100
f 101/101 102/102 103/103
f 101/101 103/103 104/104
f 105/105 106/106 107/107
f 105/105 107/107 108/108
f 109/109 110/110 111/111
f 109/109 111/111 112/112
f 113/113 114/114 115/115
f 113/113 115/115 116/116
f 117/117 118/118 119/119
f 117/117 119/119 120/120
f 121/121 122/122 123/123
f 121/121 123/123 124/124
f 125/125 126/126 127/127
f 125/125 127/127 128/128
f 129/129 130/130 131/131
f 129/129 131/131 132/132
f 133/133 134/134 135/135
f 133/133 135/135 136/136
f 137/137 138/138 139/139
f 137/137 139/139 140/140
f 141/141 142/142 143/143
f 141/141 143/143 144/144
f 145/145 146/146 147/147
f 145/145 147/147 148/148
f 149/149 150/150 151/151
f 149/149 151/151 152/152
f 153/153 154/154 155/155
f 153/153 155/155 156/156
usemtl Metal
f 157/157 158/158 159/159
f 157/157 159/159 160/160
f 161/161 162/162 163/163
f 161/161 163/163 164/164
f 165/165 166/166 167/167
f 165/165 167/167 168/168
f 169/169 170/170 171/171
f 169/169 171/171 172/172
f 173/173 174/174 175/175
f 173/173 175/175 176/176
f 177/177 178/178 179/179
f 177/177 179/179 180/180
f 181/181 182/182 183/183
f 184/184 185/185 186/186
f 187/187 188/188 189/189
f 190/190 191/191 192/192
f 193/193 194/194 195/195
f 196/196 197/197 198/198
f 199/199 200/200 201/201
f 202/202 203/203 204/204
f 205/205 206/206 207/207
f 208/208 209/209 210/210
f 211/211 212/212 213/213
f 214/214 215/215 216/216
usemtl Wood
f 217/217 218/218 219/219
f 217/217 219/219 220/220
f 221/221 222/222 223/223
f 221/221 223/223 224/224
f 225/225 226/226 227/227
f 225/225 227/227 228/228
f 229/229 230/230 231/231
f 229/229 231/231 232/232
f 233/233 234/234 235/235
f 233/233 235/235 236/236
f 237/237 238/238 239/239
f 237/237 239/239 240/240
f 241/241 242/242 243/243
f 241/241 243/243 244/244
f 245/245 246/246 247/247
f 245/245 247/247 248/248
f 249/249 250/250 251/251
f 249/249 251/251 252/252
f 253/253 254/254 255/255
f 253/253 255/255 256/256
f 257/257 258/258 259/259
f 257/257 259/259 260/260
f 261/261 262/262 263/263
f 261/261 263/263 264/264
f 265/265 266/266 267/267
f 265/265 267/267 268/268
f 269/269 270/270 271/271
f 269/269 271/271 272/272
f 273/273 274/274 275/275
f 273/273 275/275 276/276
f 277/277 278/278 279/279
f 277/277 279/279 280/280
f 281/281 282/282 283/283
f 281/281 283/283 284/284
f 285/285 286/286 287/287
f 285/285 287/287 288/288
usemtl Metal
f 289/289 290/290 291/291
f 289/289 291/291 292/292
f 293/293 294/294 295/295
f 293/293 295/295 296/296
f 297/297 298/298 299/299
f 297/297 299/299 300/300
f 301/301 302/302 303/303
f 301/301 303/303 304/304
f 305/305 306/306 307/307
f 305/305 307/307 308/308
f 309/309 310/310 311/311
f 309/309 311/311 312/312
f 313/313 314/314 315/315
f 316/316 317/317 318/318
f 319/319 320/320 321/321
f 322/322 323/323 324/324
f 325/325 326/326 327/327
f 328/328 329/329 330/330
f 331/331 332/332 333/333
f 334/334 335/335 336/336
f 337/337 338/338 339/339
f 340/340 341/341 342/342
f 343/343 344/344 345/345
f 346/346 347/347 348/348
usemtl Wood
f 349/349 350/350 351/351
f 349/349 351/351 352/352
f 353/353 354/354 355/355
f 353/353 355/355 356/356
f 357/357 358/358 359/359
f 357/357 359/359 360/360
f 361/361 362/362 363/363
f 361/361 363/363 364/364
f 365/365 366/366 367/367
f 365/365 367/367 368/368
f 369/369 370/370 371/371
f 369/369 371/371 372/372
f 373/373 374/374 375/375
f 373/373 375/375 376/376
f 377/377 378/378 379/379
f 377/377 379/379 380/380
f 381/381 382/382 383/383
f 381/381 383/383 384/384
f 385/385 386/386 387/387
f 385/385 387/387 388/388
f 389/389 390/390 391/391
f 389/389 391/391 392/392
f 393/393 394/394 395/395
f 393/393 395/395 396/396
usemtl Leaf
f 397/397 398/398 399/399
f 397/397 399/399 400/400
usemtl Wood
f 401/401 402/402 403/403
f 401/401 403/403 404/404
f 405/405 406/406 407/407
f 405/405 407/407 408/408
f 409/409 410/410 411/411
f 409/409 411/411 412/412
f 413/413 414/414 415/415
f 413/413 415/415 416/416
f 417/417 418/418 419/419
f 417/417 419/419 420/420
f 421/421 422/422 423/423
f 424/424 425/425 426/426
f 427/427 428/428 429/429
f 430/430 431/431 432/432
f 433/433 434/434 435/435
f 436/436 437/437 438/438
f 439/439 440/440 441/441
f 442/442 443/443 444/444
f 445/445 446/446 447/447
f 448/448 449/449 450/450
usemtl Leaf
f 451/451 452/452 453/453
f 451/451 453/453 454/454
usemtl Wood
f 455/455 456/456 457/457
f 455/455 457/457 458/458
f 459/459 460/460 461/461
f 459/459 461/461 462/462
f 463/463 464/464 465/465
f 463/463 465/465 466/466
f 467/467 468/468 469/469
f 467/467 469/469 470/470
f 471/471 472/472 473/473
f 471/471 473/473 474/474
f 475/475 476/476 477/477
f 478/478 479/479 480/480
f 481/481 482/482 483/483
f 484/484 485/485 486/486
f 487/487 488/488 489/489
f 490/490 491/491 492/492
f 493/493 494/494 495/495
f 496/496 497/497 498/498
f 499/499 500/500 501/501
f 502/502 503/503 504/504
usemtl Leaf
f 505/505 506/506 507/507
f 505/505 507/507 508/508
usemtl Wood
f 509/509 510/510 511/511
f 509/509 511/511 512/512
f 513/513 514/514 515/515
f 513/513 515/515 516/516
f 517/517 518/518 519/519
f 517/517 519/519 520/520
f 521/521 522/522 523/523
f 521/521 523/523 524/524
f 525/525 526/526 527/527
f 525/525 527/527 528/528
f 529/529 530/530 531/531
f 532/532 533/533 534/534
f 535/535 536/536 537/537
f 538/538 539/539 540/540
f 541/541 542/542 543/543
f 544/544 545/545 546/546
f 547/547 548/548 549/549
f 550/550 551/551 552/552
f 553/553 554/554 555/555
f 556/556 557/557 558/558
usemtl Leaf
f 559/559 560/560 561/561
f 559/559 561/561 562/562
usemtl Wood
f 563/563 564/564 565/565
f 563/563 565/565 566/566
f 567/567 568/568 569/569
f 567/567 569/569 570/570
f 571/571 572/572 573/573
f 571/571 573/573 574/574
f 575/575 576/576 577/577
f 575/575 577/577 578/578
f 579/579 580/580 581/581
f 579/579 581/581 582/582
f 583/583 584/584 585/585
f 586/586 587/587 588/588
f 589/589 590/590 591/591
f 592/592 593/593 594/594
f 595/595 596/596 597/597
f 598/598 599/599 600/600
f 601/601 602/602 603/603
f 604/604 605/605 606/606
f 607/607 608/608 609/609
f 610/610 611/611 612/612
usemtl Leaf
f 613/613 614/614 615/615
f 613/613 615/615 616/616
usemtl Wood
f 617/617 618/618 619/619
f 617/617 619/619 620/620
f 621/621 622/622 623/623
f 621/621 623/623 624/624
f 625/625 626/626 627/627
f 625/625 627/627 628/628
f 629/629 630/630 631/631
f 629/629 631/631 632/632
f 633/633 634/634 635/635
f 633/633 635/635 636/636
f 637/637 638/638 639/639
f 640/640 641/641 642/642
f 643/643 644/644 645/645
f 646/646 647/647 648/648
f 649/649 650/650 651/651
f 652/652 653/653 654/654
f 655/655 656/656 657/657
f 658/658 659/659 660/660
f 661/661 662/662 663/663
f 664/664 665/665 666/666
usemtl Leaf
f 667/667 668/668 669/669
f 667/667 669/669 670/670
usemtl Wood
f 671/671 672/672 673/673
f 671/671 673/673 674/674
f 675/675 676/676 677/677
f 675/675 677/677 678/678
f 679/679 680/680 681/681
f 679/679 681/681 682/682
f 683/683 684/684 685/685
f 683/683 685/685 686/686
f 687/687 688/688 689/689
f 687/687 689/689 690/690
f 691/691 692/692 693/693
f 694/694 695/695 696/696
f 697/697 698/698 699/699
f 700/700 701/701 702/702
f 703/703 704/704 705/705
f 706/706 707/707 708/708
f 709/709 710/710 711/711
f 712/712 713/713 714/714
f 715/715 716/716 717/717
f 718/718 719/719 720/720
usemtl Leaf
f 721/721 722/722 723/723
f 721/721 723/723 724/724
usemtl Wood
f 725/725 726/726 727/727
f 725/725 727/727 728/728
f 729/729 730/730 731/731
f 729/729 731/731 732/732
f 733/733 734/734 735/735
f 733/733 735/735 736/736
f 737/737 738/738 739/739
f 737/737 739/739 740/740
f 741/741 742/742 743/743
f 741/741 743/743 744/744
f 745/745 746/746 747/747
f 748/748 749/749 750/750
f 751/751 752/752 753/753
f 754/754 755/755 756/756
f 757/757 758/758 759/759
f 760/760 761/761 762/762
f 763/763 764/764 765/765
f 766/766 767/767 768/768
f 769/769 770/770 771/771
f 772/772 773/773 774/774
usemtl Leaf
f 775/775 776/776 777/777
f 775/775 777/777 778/778
usemtl Wood
f 779/779 780/780 781/781
f 779/779 781/781 782/782
f 783/783 784/784 785/785
f 783/783 785/785 786/786
f 787/787 788/788 789/789
f 787/787 789/789 790/790
f 791/791 792/792 793/793
f 791/791 793/793 794/794
f 795/795 796/796 797/797
f 795/795 797/797 798/798
f 799/799 800/800 801/801
f 802/802 803/803 804/804
f 805/805 806/806 807/807
f 808/808 809/809 810/810
f 811/811 812/812 813/813
f 814/814 815/815 816/816
f 817/817 818/818 819/819
f 820/820 821/821 822/822
f 823/823 824/824 825/825
f 826/826 827/827 828/828
usemtl Leaf
f 829/829 830/830 831/831
f 829/829 831/831 832/832
usemtl Wood
f 833/833 834/834 835/835
f 833/833 835/835 836/836
f 837/837 838/838 839/839
f 837/837 839/839 840/840
f 841/841 842/842 843/843
f 841/841 843/843 844/844
f 845/845 846/846 847/847
f 845/845 847/847 848/848
f 849/849 850/850 851/851
f 849/849 851/851 852/852
f 853/853 854/854 855/855
f 856/856 857/857 858/858
f 859/859 860/860 861/861
f 862/862 863/863 864/864
f 865/865 866/866 867/867
f 868/868 869/869 870/870
f 871/871 872/872 873/873
f 874/874 875/875 876/876
f 877/877 878/878 879/879
f 880/880 881/881 882/882
usemtl Leaf
f 883/883 884/884 885/885
f 883/883 885/885 886/886
usemtl Wood
f 887/887 888/888 889/889
f 887/887 889/889 890/890
f 891/891 892/892 893/893
f 891/891 893/893 894/894
f 895/895 896/896 897/897
f 895/895 897/897 898/898
f 899/899 900/900 901/901
f 899/899 901/901 902/902
f 903/903 904/904 905/905
f 903/903 905/905 906/906
f 907/907 908/908 909/909
f 910/910 911/911 912/912
f 913/913 914/914 915/915
f 916/916 917/917 918/918
f 919/919 920/920 921/921
f 922/922 923/923 924/924
f 925/925 926/926 927/927
f 928/928 929/929 930/930
f 931/931 932/932 933/933
f 934/934 935/935 936/936
usemtl Rope
f 937/937 938/938 939/939
f 937/937 939/939 940/940
f 941/941 942/942 943/943
f 941/941 943/943 944/944
f 945/945 946/946 947/947
f 945/945 947/947 948/948
f 949/949 950/950 951/951
f 949/949 951/951 952/952
f 953/953 954/954 955/955
f 953/953 955/955 956/956
f 957/957 958/958 959/959
f 957/957 959/959 960/960
f 961/961 962/962 963/963
f 964/964 965/965 966/966
f 967/967 968/968 969/969
f 970/970 971/971 972/972
f 973/973 974/974 975/975
f 976/976 977/977 978/978
f 979/979 980/980 981/981
f 982/982 983/983 984/984
f 985/985 986/986 987/987
f 988/988 989/989 990/990
f 991/991 992/992 993/993
f 994/994 995/995 996/996
usemtl Char
f 997/997 998/998 999/999
f 997/997 999/999 1000/1000
f 1001/1001 1002/1002 1003/1003
f 1001/1001 1003/1003 1004/1004
f 1005/1005 1006/1006 1007/1007
f 1005/1005 1007/1007 1008/1008
f 1009/1009 1010/1010 1011/1011
f 1009/1009 1011/1011 1012/1012
f 1013/1013 1014/1014 1015/1015
f 1013/1013 1015/1015 1016/1016
f 1017/1017 1018/1018 1019/1019
f 1017/1017 1019/1019 1020/1020
