mtllib ../../Materials/project_oen.mtl
o en-023_storm_damage_debris_set__loose_cloth
v -0.575000 0.060000 -0.390000
v -0.431250 0.078000 -0.390000
v -0.431250 0.042121 -0.292500
v -0.575000 0.075102 -0.292500
v -0.431250 0.078000 -0.390000
v -0.287500 0.060000 -0.390000
v -0.287500 -0.012664 -0.292500
v -0.431250 0.042121 -0.292500
v -0.287500 0.060000 -0.390000
v -0.143750 0.042000 -0.390000
v -0.143750 -0.046128 -0.292500
v -0.287500 -0.012664 -0.292500
v -0.143750 0.042000 -0.390000
v 0.000000 0.060000 -0.390000
v 0.000000 -0.031210 -0.292500
v -0.143750 -0.046128 -0.292500
v 0.000000 0.060000 -0.390000
v 0.143750 0.078000 -0.390000
v 0.143750 -0.011035 -0.292500
v 0.000000 -0.031210 -0.292500
v 0.143750 0.078000 -0.390000
v 0.287500 0.060000 -0.390000
v 0.287500 -0.012664 -0.292500
v 0.143750 -0.011035 -0.292500
v 0.287500 0.060000 -0.390000
v 0.431250 0.042000 -0.390000
v 0.431250 0.007029 -0.292500
v 0.287500 -0.012664 -0.292500
v 0.431250 0.042000 -0.390000
v 0.575000 0.060000 -0.390000
v 0.575000 0.075102 -0.292500
v 0.431250 0.007029 -0.292500
v -0.575000 0.075102 -0.292500
v -0.431250 0.042121 -0.292500
v -0.431250 0.004959 -0.195000
v -0.575000 0.076315 -0.195000
v -0.431250 0.042121 -0.292500
v -0.287500 -0.012664 -0.292500
v -0.287500 -0.076032 -0.195000
v -0.431250 0.004959 -0.195000
v -0.287500 -0.012664 -0.292500
v -0.143750 -0.046128 -0.292500
v -0.143750 -0.118582 -0.195000
v -0.287500 -0.076032 -0.195000
v -0.143750 -0.046128 -0.292500
v 0.000000 -0.031210 -0.292500
v 0.000000 -0.105935 -0.195000
v -0.143750 -0.118582 -0.195000
v 0.000000 -0.031210 -0.292500
v 0.143750 -0.011035 -0.292500
v 0.143750 -0.086166 -0.195000
v 0.000000 -0.105935 -0.195000
v 0.143750 -0.011035 -0.292500
v 0.287500 -0.012664 -0.292500
v 0.287500 -0.076032 -0.195000
v 0.143750 -0.086166 -0.195000
v 0.287500 -0.012664 -0.292500
v 0.431250 0.007029 -0.292500
v 0.431250 -0.027457 -0.195000
v 0.287500 -0.076032 -0.195000
v 0.431250 0.007029 -0.292500
v 0.575000 0.075102 -0.292500
v 0.575000 0.076315 -0.195000
v 0.431250 -0.027457 -0.195000
v -0.575000 0.076315 -0.195000
v -0.431250 0.004959 -0.195000
v -0.431250 -0.030207 -0.097500
v -0.575000 0.066656 -0.097500
v -0.431250 0.004959 -0.195000
v -0.287500 -0.076032 -0.195000
v -0.287500 -0.126700 -0.097500
v -0.431250 -0.030207 -0.097500
v -0.287500 -0.076032 -0.195000
v -0.143750 -0.118582 -0.195000
v -0.143750 -0.172219 -0.097500
v -0.287500 -0.126700 -0.097500
v -0.143750 -0.118582 -0.195000
v 0.000000 -0.105935 -0.195000
v 0.000000 -0.211157 -0.097500
v -0.143750 -0.172219 -0.097500
v 0.000000 -0.105935 -0.195000
v 0.143750 -0.086166 -0.195000
v 0.143750 -0.144114 -0.097500
v 0.000000 -0.211157 -0.097500
v 0.143750 -0.086166 -0.195000
v 0.287500 -0.076032 -0.195000
v 0.287500 -0.126700 -0.097500
v 0.143750 -0.144114 -0.097500
v 0.287500 -0.076032 -0.195000
v 0.431250 -0.027457 -0.195000
v 0.431250 -0.058313 -0.097500
v 0.287500 -0.126700 -0.097500
v 0.431250 -0.027457 -0.195000
v 0.575000 0.076315 -0.195000
v 0.575000 0.066656 -0.097500
v 0.431250 -0.058313 -0.097500
v -0.575000 0.066656 -0.097500
v -0.431250 -0.030207 -0.097500
v -0.431250 -0.047124 0.000000
v -0.575000 0.062100 0.000000
v -0.431250 -0.030207 -0.097500
v -0.287500 -0.126700 -0.097500
v -0.287500 -0.148350 0.000000
v -0.431250 -0.047124 0.000000
v -0.287500 -0.126700 -0.097500
v -0.143750 -0.172219 -0.097500
v -0.143750 -0.191001 0.000000
v -0.287500 -0.148350 0.000000
v 0.143750 -0.144114 -0.097500
v 0.287500 -0.126700 -0.097500
v 0.287500 -0.148350 0.000000
v 0.143750 -0.168624 0.000000
v 0.287500 -0.126700 -0.097500
v 0.431250 -0.058313 -0.097500
v 0.431250 -0.069501 0.000000
v 0.287500 -0.148350 0.000000
v 0.431250 -0.058313 -0.097500
v 0.575000 0.066656 -0.097500
v 0.575000 0.062100 0.000000
v 0.431250 -0.069501 0.000000
v -0.575000 0.062100 0.000000
v -0.431250 -0.047124 0.000000
v -0.431250 -0.036499 0.097500
v -0.575000 0.071649 0.097500
v -0.431250 -0.047124 0.000000
v -0.287500 -0.148350 0.000000
v -0.287500 -0.131692 0.097500
v -0.431250 -0.036499 0.097500
v -0.287500 -0.148350 0.000000
v -0.143750 -0.191001 0.000000
v -0.143750 -0.165928 0.097500
v -0.287500 -0.131692 0.097500
v 0.143750 -0.168624 0.000000
v 0.287500 -0.148350 0.000000
v 0.287500 -0.131692 0.097500
v 0.143750 -0.150405 0.097500
v 0.287500 -0.148350 0.000000
v 0.431250 -0.069501 0.000000
v 0.431250 -0.052021 0.097500
v 0.287500 -0.131692 0.097500
v 0.431250 -0.069501 0.000000
v 0.575000 0.062100 0.000000
v 0.575000 0.071649 0.097500
v 0.431250 -0.052021 0.097500
v -0.575000 0.071649 0.097500
v -0.431250 -0.036499 0.097500
v -0.431250 -0.007307 0.195000
v -0.575000 0.086048 0.195000
v -0.431250 -0.036499 0.097500
v -0.287500 -0.131692 0.097500
v -0.287500 -0.085765 0.195000
v -0.431250 -0.007307 0.195000
v -0.287500 -0.131692 0.097500
v -0.143750 -0.165928 0.097500
v -0.143750 -0.106316 0.195000
v -0.287500 -0.085765 0.195000
v -0.143750 -0.165928 0.097500
v 0.000000 -0.206164 0.097500
v 0.000000 -0.096202 0.195000
v -0.143750 -0.106316 0.195000
v 0.000000 -0.206164 0.097500
v 0.143750 -0.150405 0.097500
v 0.143750 -0.098432 0.195000
v 0.000000 -0.096202 0.195000
v 0.143750 -0.150405 0.097500
v 0.287500 -0.131692 0.097500
v 0.287500 -0.085765 0.195000
v 0.143750 -0.098432 0.195000
v 0.287500 -0.131692 0.097500
v 0.431250 -0.052021 0.097500
v 0.431250 -0.015191 0.195000
v 0.287500 -0.085765 0.195000
v 0.431250 -0.052021 0.097500
v 0.575000 0.071649 0.097500
v 0.575000 0.086048 0.195000
v 0.431250 -0.015191 0.195000
v -0.575000 0.086048 0.195000
v -0.431250 -0.007307 0.195000
v -0.431250 0.024499 0.292500
v -0.575000 0.089086 0.292500
v -0.431250 -0.007307 0.195000
v -0.287500 -0.085765 0.195000
v -0.287500 -0.026648 0.292500
v -0.431250 0.024499 0.292500
v -0.287500 -0.085765 0.195000
v -0.143750 -0.106316 0.195000
v -0.143750 -0.028506 0.292500
v -0.287500 -0.026648 0.292500
v -0.143750 -0.106316 0.195000
v 0.000000 -0.096202 0.195000
v 0.000000 -0.017226 0.292500
v -0.143750 -0.028506 0.292500
v 0.000000 -0.096202 0.195000
v 0.143750 -0.098432 0.195000
v 0.143750 -0.028657 0.292500
v 0.000000 -0.017226 0.292500
v 0.143750 -0.098432 0.195000
v 0.287500 -0.085765 0.195000
v 0.287500 -0.026648 0.292500
v 0.143750 -0.028657 0.292500
v 0.287500 -0.085765 0.195000
v 0.431250 -0.015191 0.195000
v 0.431250 0.024651 0.292500
v 0.287500 -0.026648 0.292500
v 0.431250 -0.015191 0.195000
v 0.575000 0.086048 0.195000
v 0.575000 0.089086 0.292500
v 0.431250 0.024651 0.292500
v -0.575000 0.089086 0.292500
v -0.431250 0.024499 0.292500
v -0.431250 0.055910 0.390000
v -0.575000 0.077529 0.390000
v -0.431250 0.024499 0.292500
v -0.287500 -0.026648 0.292500
v -0.287500 0.042471 0.390000
v -0.431250 0.055910 0.390000
v -0.287500 -0.026648 0.292500
v -0.143750 -0.028506 0.292500
v -0.143750 0.064090 0.390000
v -0.287500 0.042471 0.390000
v -0.143750 -0.028506 0.292500
v 0.000000 -0.017226 0.292500
v 0.000000 0.077529 0.390000
v -0.143750 0.064090 0.390000
v 0.000000 -0.017226 0.292500
v 0.143750 -0.028657 0.292500
v 0.143750 0.055910 0.390000
v 0.000000 0.077529 0.390000
v 0.143750 -0.028657 0.292500
v 0.287500 -0.026648 0.292500
v 0.287500 0.042471 0.390000
v 0.143750 0.055910 0.390000
v 0.287500 -0.026648 0.292500
v 0.431250 0.024651 0.292500
v 0.431250 0.064090 0.390000
v 0.287500 0.042471 0.390000
v 0.431250 0.024651 0.292500
v 0.575000 0.089086 0.292500
v 0.575000 0.077529 0.390000
v 0.431250 0.064090 0.390000
v -0.575000 0.055000 -0.407500
v 0.575000 0.055000 -0.407500
v 0.575000 0.081000 -0.407500
v -0.575000 0.081000 -0.407500
v 0.575000 0.055000 -0.372500
v -0.575000 0.055000 -0.372500
v -0.575000 0.081000 -0.372500
v 0.575000 0.081000 -0.372500
v -0.575000 0.055000 -0.372500
v -0.575000 0.055000 -0.407500
v -0.575000 0.081000 -0.407500
v -0.575000 0.081000 -0.372500
v 0.575000 0.055000 -0.407500
v 0.575000 0.055000 -0.372500
v 0.575000 0.081000 -0.372500
v 0.575000 0.081000 -0.407500
v -0.575000 0.081000 -0.407500
v 0.575000 0.081000 -0.407500
v 0.575000 0.081000 -0.372500
v -0.575000 0.081000 -0.372500
v -0.575000 0.055000 -0.372500
v 0.575000 0.055000 -0.372500
v 0.575000 0.055000 -0.407500
v -0.575000 0.055000 -0.407500
v -0.575000 0.055000 0.372500
v 0.575000 0.055000 0.372500
v 0.575000 0.081000 0.372500
v -0.575000 0.081000 0.372500
v 0.575000 0.055000 0.407500
v -0.575000 0.055000 0.407500
v -0.575000 0.081000 0.407500
v 0.575000 0.081000 0.407500
v -0.575000 0.055000 0.407500
v -0.575000 0.055000 0.372500
v -0.575000 0.081000 0.372500
v -0.575000 0.081000 0.407500
v 0.575000 0.055000 0.372500
v 0.575000 0.055000 0.407500
v 0.575000 0.081000 0.407500
v 0.575000 0.081000 0.372500
v -0.575000 0.081000 0.372500
v 0.575000 0.081000 0.372500
v 0.575000 0.081000 0.407500
v -0.575000 0.081000 0.407500
v -0.575000 0.055000 0.407500
v 0.575000 0.055000 0.407500
v 0.575000 0.055000 0.372500
v -0.575000 0.055000 0.372500
v -0.592500 0.055000 -0.390000
v -0.557500 0.055000 -0.390000
v -0.557500 0.081000 -0.390000
v -0.592500 0.081000 -0.390000
v -0.557500 0.055000 0.390000
v -0.592500 0.055000 0.390000
v -0.592500 0.081000 0.390000
v -0.557500 0.081000 0.390000
v -0.592500 0.055000 0.390000
v -0.592500 0.055000 -0.390000
v -0.592500 0.081000 -0.390000
v -0.592500 0.081000 0.390000
v -0.557500 0.055000 -0.390000
v -0.557500 0.055000 0.390000
v -0.557500 0.081000 0.390000
v -0.557500 0.081000 -0.390000
v -0.592500 0.081000 -0.390000
v -0.557500 0.081000 -0.390000
v -0.557500 0.081000 0.390000
v -0.592500 0.081000 0.390000
v -0.592500 0.055000 0.390000
v -0.557500 0.055000 0.390000
v -0.557500 0.055000 -0.390000
v -0.592500 0.055000 -0.390000
v 0.557500 0.055000 -0.390000
v 0.592500 0.055000 -0.390000
v 0.592500 0.081000 -0.390000
v 0.557500 0.081000 -0.390000
v 0.592500 0.055000 0.390000
v 0.557500 0.055000 0.390000
v 0.557500 0.081000 0.390000
v 0.592500 0.081000 0.390000
v 0.557500 0.055000 0.390000
v 0.557500 0.055000 -0.390000
v 0.557500 0.081000 -0.390000
v 0.557500 0.081000 0.390000
v 0.592500 0.055000 -0.390000
v 0.592500 0.055000 0.390000
v 0.592500 0.081000 0.390000
v 0.592500 0.081000 -0.390000
v 0.557500 0.081000 -0.390000
v 0.592500 0.081000 -0.390000
v 0.592500 0.081000 0.390000
v 0.557500 0.081000 0.390000
v 0.557500 0.055000 0.390000
v 0.592500 0.055000 0.390000
v 0.592500 0.055000 -0.390000
v 0.557500 0.055000 -0.390000
v -0.713274 0.058482 -0.548114
v -0.701382 0.059418 -0.549418
v -0.668494 0.082186 -0.233190
v -0.680387 0.081251 -0.231886
v -0.701382 0.059418 -0.549418
v -0.694552 0.049551 -0.549418
v -0.661664 0.072320 -0.233190
v -0.668494 0.082186 -0.233190
v -0.694552 0.049551 -0.549418
v -0.699613 0.038749 -0.548114
v -0.666726 0.061518 -0.231886
v -0.661664 0.072320 -0.233190
v -0.699613 0.038749 -0.548114
v -0.711506 0.037814 -0.546810
v -0.678618 0.060582 -0.230582
v -0.666726 0.061518 -0.231886
v -0.711506 0.037814 -0.546810
v -0.718336 0.047680 -0.546810
v -0.685448 0.070449 -0.230582
v -0.678618 0.060582 -0.230582
v -0.718336 0.047680 -0.546810
v -0.713274 0.058482 -0.548114
v -0.680387 0.081251 -0.231886
v -0.685448 0.070449 -0.230582
v -0.706444 0.048616 -0.548114
v -0.701382 0.059418 -0.549418
v -0.713274 0.058482 -0.548114
v -0.673556 0.071384 -0.231886
v -0.680387 0.081251 -0.231886
v -0.668494 0.082186 -0.233190
v -0.706444 0.048616 -0.548114
v -0.694552 0.049551 -0.549418
v -0.701382 0.059418 -0.549418
v -0.673556 0.071384 -0.231886
v -0.668494 0.082186 -0.233190
v -0.661664 0.072320 -0.233190
v -0.706444 0.048616 -0.548114
v -0.699613 0.038749 -0.548114
v -0.694552 0.049551 -0.549418
v -0.673556 0.071384 -0.231886
v -0.661664 0.072320 -0.233190
v -0.666726 0.061518 -0.231886
v -0.706444 0.048616 -0.548114
v -0.711506 0.037814 -0.546810
v -0.699613 0.038749 -0.548114
v -0.673556 0.071384 -0.231886
v -0.666726 0.061518 -0.231886
v -0.678618 0.060582 -0.230582
v -0.706444 0.048616 -0.548114
v -0.718336 0.047680 -0.546810
v -0.711506 0.037814 -0.546810
v -0.673556 0.071384 -0.231886
v -0.678618 0.060582 -0.230582
v -0.685448 0.070449 -0.230582
v -0.706444 0.048616 -0.548114
v -0.713274 0.058482 -0.548114
v -0.718336 0.047680 -0.546810
v -0.673556 0.071384 -0.231886
v -0.685448 0.070449 -0.230582
v -0.680387 0.081251 -0.231886
v 0.657265 0.060062 0.203988
v 0.645434 0.058847 0.202393
v 0.605064 0.029346 0.524418
v 0.616895 0.030561 0.526012
v 0.645434 0.058847 0.202393
v 0.638353 0.068536 0.202393
v 0.597984 0.039035 0.524418
v 0.605064 0.029346 0.524418
v 0.638353 0.068536 0.202393
v 0.643105 0.079439 0.203988
v 0.602735 0.049938 0.526012
v 0.597984 0.039035 0.524418
v 0.643105 0.079439 0.203988
v 0.654936 0.080654 0.205582
v 0.614566 0.051153 0.527607
v 0.602735 0.049938 0.526012
v 0.654936 0.080654 0.205582
v 0.662016 0.070965 0.205582
v 0.621647 0.041464 0.527607
v 0.614566 0.051153 0.527607
v 0.662016 0.070965 0.205582
v 0.657265 0.060062 0.203988
v 0.616895 0.030561 0.526012
v 0.621647 0.041464 0.527607
v 0.650185 0.069750 0.203988
v 0.645434 0.058847 0.202393
v 0.657265 0.060062 0.203988
v 0.609815 0.040250 0.526012
v 0.616895 0.030561 0.526012
v 0.605064 0.029346 0.524418
v 0.650185 0.069750 0.203988
v 0.638353 0.068536 0.202393
v 0.645434 0.058847 0.202393
v 0.609815 0.040250 0.526012
v 0.605064 0.029346 0.524418
v 0.597984 0.039035 0.524418
v 0.650185 0.069750 0.203988
v 0.643105 0.079439 0.203988
v 0.638353 0.068536 0.202393
v 0.609815 0.040250 0.526012
v 0.597984 0.039035 0.524418
v 0.602735 0.049938 0.526012
v 0.650185 0.069750 0.203988
v 0.654936 0.080654 0.205582
v 0.643105 0.079439 0.203988
v 0.609815 0.040250 0.526012
v 0.602735 0.049938 0.526012
v 0.614566 0.051153 0.527607
v 0.650185 0.069750 0.203988
v 0.662016 0.070965 0.205582
v 0.654936 0.080654 0.205582
v 0.609815 0.040250 0.526012
v 0.614566 0.051153 0.527607
v 0.621647 0.041464 0.527607
v 0.650185 0.069750 0.203988
v 0.657265 0.060062 0.203988
v 0.662016 0.070965 0.205582
v 0.609815 0.040250 0.526012
v 0.621647 0.041464 0.527607
v 0.616895 0.030561 0.526012
v -0.517546 -0.085592 0.322104
v -0.443866 -0.098584 0.316872
v -0.402862 0.106646 0.384690
v -0.476543 0.119638 0.389922
v -0.443457 -0.109638 0.350078
v -0.517138 -0.096646 0.355310
v -0.476134 0.108584 0.423128
v -0.402454 0.095592 0.417896
v -0.517138 -0.096646 0.355310
v -0.517546 -0.085592 0.322104
v -0.476543 0.119638 0.389922
v -0.476134 0.108584 0.423128
v -0.443866 -0.098584 0.316872
v -0.443457 -0.109638 0.350078
v -0.402454 0.095592 0.417896
v -0.402862 0.106646 0.384690
v -0.476543 0.119638 0.389922
v -0.402862 0.106646 0.384690
v -0.402454 0.095592 0.417896
v -0.476134 0.108584 0.423128
v -0.517138 -0.096646 0.355310
v -0.443457 -0.109638 0.350078
v -0.443866 -0.098584 0.316872
v -0.517546 -0.085592 0.322104
v -0.315443 -0.081833 0.354352
v -0.251722 -0.071741 0.362274
v -0.281731 0.092463 0.394470
v -0.345453 0.082370 0.386548
v -0.254547 -0.078370 0.393452
v -0.318269 -0.088463 0.385530
v -0.348278 0.075741 0.417726
v -0.284557 0.085833 0.425648
v -0.318269 -0.088463 0.385530
v -0.315443 -0.081833 0.354352
v -0.345453 0.082370 0.386548
v -0.348278 0.075741 0.417726
v -0.251722 -0.071741 0.362274
v -0.254547 -0.078370 0.393452
v -0.284557 0.085833 0.425648
v -0.281731 0.092463 0.394470
v -0.345453 0.082370 0.386548
v -0.281731 0.092463 0.394470
v -0.284557 0.085833 0.425648
v -0.348278 0.075741 0.417726
v -0.318269 -0.088463 0.385530
v -0.254547 -0.078370 0.393452
v -0.251722 -0.071741 0.362274
v -0.315443 -0.081833 0.354352
v -0.158327 -0.106132 0.345880
v -0.077223 -0.114656 0.337309
v -0.043778 0.118046 0.422345
v -0.124882 0.126570 0.430917
v -0.075118 -0.126570 0.369083
v -0.156222 -0.118046 0.377655
v -0.122777 0.114656 0.462691
v -0.041673 0.106132 0.454120
v -0.156222 -0.118046 0.377655
v -0.158327 -0.106132 0.345880
v -0.124882 0.126570 0.430917
v -0.122777 0.114656 0.462691
v -0.077223 -0.114656 0.337309
v -0.075118 -0.126570 0.369083
v -0.041673 0.106132 0.454120
v -0.043778 0.118046 0.422345
v -0.124882 0.126570 0.430917
v -0.043778 0.118046 0.422345
v -0.041673 0.106132 0.454120
v -0.122777 0.114656 0.462691
v -0.156222 -0.118046 0.377655
v -0.075118 -0.126570 0.369083
v -0.077223 -0.114656 0.337309
v -0.158327 -0.106132 0.345880
v 0.145918 -0.088697 0.348589
v 0.214371 -0.075392 0.354690
v 0.175261 0.104813 0.400480
v 0.106809 0.091507 0.394379
v 0.213191 -0.083507 0.385621
v 0.144739 -0.096813 0.379520
v 0.105629 0.083392 0.425310
v 0.174082 0.096697 0.431411
v 0.144739 -0.096813 0.379520
v 0.145918 -0.088697 0.348589
v 0.106809 0.091507 0.394379
v 0.105629 0.083392 0.425310
v 0.214371 -0.075392 0.354690
v 0.213191 -0.083507 0.385621
v 0.174082 0.096697 0.431411
v 0.175261 0.104813 0.400480
v 0.106809 0.091507 0.394379
v 0.175261 0.104813 0.400480
v 0.174082 0.096697 0.431411
v 0.105629 0.083392 0.425310
v 0.144739 -0.096813 0.379520
v 0.213191 -0.083507 0.385621
v 0.214371 -0.075392 0.354690
v 0.145918 -0.088697 0.348589
v 0.293482 -0.083367 0.322434
v 0.369035 -0.099426 0.311579
v 0.424443 0.111124 0.385731
v 0.348890 0.127184 0.396586
v 0.371110 -0.111184 0.343414
v 0.295557 -0.095124 0.354269
v 0.350965 0.115426 0.428421
v 0.426518 0.099367 0.417566
v 0.295557 -0.095124 0.354269
v 0.293482 -0.083367 0.322434
v 0.348890 0.127184 0.396586
v 0.350965 0.115426 0.428421
v 0.369035 -0.099426 0.311579
v 0.371110 -0.111184 0.343414
v 0.426518 0.099367 0.417566
v 0.424443 0.111124 0.385731
v 0.348890 0.127184 0.396586
v 0.424443 0.111124 0.385731
v 0.426518 0.099367 0.417566
v 0.350965 0.115426 0.428421
v 0.295557 -0.095124 0.354269
v 0.371110 -0.111184 0.343414
v 0.369035 -0.099426 0.311579
v 0.293482 -0.083367 0.322434
v 0.495228 -0.067511 0.303961
v 0.553876 -0.060310 0.314380
v 0.529070 0.094323 0.347140
v 0.470421 0.087122 0.336721
v 0.549579 -0.067122 0.343279
v 0.490930 -0.074323 0.332860
v 0.466124 0.080310 0.365620
v 0.524772 0.087511 0.376039
v 0.490930 -0.074323 0.332860
v 0.495228 -0.067511 0.303961
v 0.470421 0.087122 0.336721
v 0.466124 0.080310 0.365620
v 0.553876 -0.060310 0.314380
v 0.549579 -0.067122 0.343279
v 0.524772 0.087511 0.376039
v 0.529070 0.094323 0.347140
v 0.470421 0.087122 0.336721
v 0.529070 0.094323 0.347140
v 0.524772 0.087511 0.376039
v 0.466124 0.080310 0.365620
v 0.490930 -0.074323 0.332860
v 0.549579 -0.067122 0.343279
v 0.553876 -0.060310 0.314380
v 0.495228 -0.067511 0.303961
v -0.441959 0.080457 -0.290995
v -0.449659 0.040322 -0.289522
v -0.456423 0.044360 -0.279525
v -0.449601 0.079923 -0.280830
v -0.449601 0.079923 -0.280830
v -0.456423 0.044360 -0.279525
v -0.465686 0.048223 -0.287352
v -0.459741 0.079214 -0.288490
v -0.459741 0.079214 -0.288490
v -0.465686 0.048223 -0.287352
v -0.458922 0.044185 -0.297349
v -0.452100 0.079748 -0.298655
v -0.452100 0.079748 -0.298655
v -0.458922 0.044185 -0.297349
v -0.449659 0.040322 -0.289522
v -0.441959 0.080457 -0.290995
v -0.449659 0.040322 -0.289522
v -0.476207 0.009479 -0.285497
v -0.479947 0.017031 -0.275959
v -0.456423 0.044360 -0.279525
v -0.456423 0.044360 -0.279525
v -0.479947 0.017031 -0.275959
v -0.486185 0.024408 -0.284245
v -0.465686 0.048223 -0.287352
v -0.465686 0.048223 -0.287352
v -0.486185 0.024408 -0.284245
v -0.482446 0.016856 -0.293783
v -0.458922 0.044185 -0.297349
v -0.458922 0.044185 -0.297349
v -0.482446 0.016856 -0.293783
v -0.476207 0.009479 -0.285497
v -0.449659 0.040322 -0.289522
v -0.476207 0.009479 -0.285497
v -0.514489 -0.003808 -0.280000
v -0.513868 0.005258 -0.271088
v -0.479947 0.017031 -0.275959
v -0.479947 0.017031 -0.275959
v -0.513868 0.005258 -0.271088
v -0.515745 0.014149 -0.280000
v -0.486185 0.024408 -0.284245
v -0.486185 0.024408 -0.284245
v -0.515745 0.014149 -0.280000
v -0.516367 0.005083 -0.288912
v -0.482446 0.016856 -0.293783
v -0.482446 0.016856 -0.293783
v -0.516367 0.005083 -0.288912
v -0.514489 -0.003808 -0.280000
v -0.476207 0.009479 -0.285497
v -0.514489 -0.003808 -0.280000
v -0.554248 0.004022 -0.274503
v -0.549097 0.012196 -0.266217
v -0.513868 0.005258 -0.271088
v -0.513868 0.005258 -0.271088
v -0.549097 0.012196 -0.266217
v -0.546445 0.020194 -0.275755
v -0.515745 0.014149 -0.280000
v -0.515745 0.014149 -0.280000
v -0.546445 0.020194 -0.275755
v -0.551596 0.012021 -0.284041
v -0.516367 0.005083 -0.288912
v -0.516367 0.005083 -0.288912
v -0.551596 0.012021 -0.284041
v -0.554248 0.004022 -0.274503
v -0.514489 -0.003808 -0.280000
v -0.554248 0.004022 -0.274503
v -0.584830 0.030870 -0.270478
v -0.576195 0.035985 -0.262651
v -0.549097 0.012196 -0.266217
v -0.549097 0.012196 -0.266217
v -0.576195 0.035985 -0.262651
v -0.570058 0.040925 -0.272648
v -0.546445 0.020194 -0.275755
v -0.546445 0.020194 -0.275755
v -0.570058 0.040925 -0.272648
v -0.578694 0.035810 -0.280475
v -0.551596 0.012021 -0.284041
v -0.551596 0.012021 -0.284041
v -0.578694 0.035810 -0.280475
v -0.584830 0.030870 -0.270478
v -0.554248 0.004022 -0.274503
v -0.584830 0.030870 -0.270478
v -0.598041 0.069543 -0.269005
v -0.587900 0.070252 -0.261345
v -0.576195 0.035985 -0.262651
v -0.576195 0.035985 -0.262651
v -0.587900 0.070252 -0.261345
v -0.580259 0.070786 -0.271510
v -0.570058 0.040925 -0.272648
v -0.570058 0.040925 -0.272648
v -0.580259 0.070786 -0.271510
v -0.590399 0.070077 -0.279170
v -0.578694 0.035810 -0.280475
v -0.578694 0.035810 -0.280475
v -0.590399 0.070077 -0.279170
v -0.598041 0.069543 -0.269005
v -0.584830 0.030870 -0.270478
v -0.598041 0.069543 -0.269005
v -0.590341 0.109678 -0.270478
v -0.581078 0.105815 -0.262651
v -0.587900 0.070252 -0.261345
v -0.587900 0.070252 -0.261345
v -0.581078 0.105815 -0.262651
v -0.574314 0.101777 -0.272648
v -0.580259 0.070786 -0.271510
v -0.580259 0.070786 -0.271510
v -0.574314 0.101777 -0.272648
v -0.583577 0.105640 -0.280475
v -0.590399 0.070077 -0.279170
v -0.590399 0.070077 -0.279170
v -0.583577 0.105640 -0.280475
v -0.590341 0.109678 -0.270478
v -0.598041 0.069543 -0.269005
v -0.590341 0.109678 -0.270478
v -0.563793 0.140521 -0.274503
v -0.557554 0.133144 -0.266217
v -0.581078 0.105815 -0.262651
v -0.581078 0.105815 -0.262651
v -0.557554 0.133144 -0.266217
v -0.553815 0.125592 -0.275755
v -0.574314 0.101777 -0.272648
v -0.574314 0.101777 -0.272648
v -0.553815 0.125592 -0.275755
v -0.560053 0.132969 -0.284041
v -0.583577 0.105640 -0.280475
v -0.583577 0.105640 -0.280475
v -0.560053 0.132969 -0.284041
v -0.563793 0.140521 -0.274503
v -0.590341 0.109678 -0.270478
v -0.563793 0.140521 -0.274503
v -0.525511 0.153808 -0.280000
v -0.523633 0.144917 -0.271088
v -0.557554 0.133144 -0.266217
v -0.557554 0.133144 -0.266217
v -0.523633 0.144917 -0.271088
v -0.524255 0.135851 -0.280000
v -0.553815 0.125592 -0.275755
v -0.553815 0.125592 -0.275755
v -0.524255 0.135851 -0.280000
v -0.526132 0.144742 -0.288912
v -0.560053 0.132969 -0.284041
v -0.560053 0.132969 -0.284041
v -0.526132 0.144742 -0.288912
v -0.525511 0.153808 -0.280000
v -0.563793 0.140521 -0.274503
v -0.525511 0.153808 -0.280000
v -0.485752 0.145978 -0.285497
v -0.488404 0.137979 -0.275959
v -0.523633 0.144917 -0.271088
v -0.523633 0.144917 -0.271088
v -0.488404 0.137979 -0.275959
v -0.493555 0.129806 -0.284245
v -0.524255 0.135851 -0.280000
v -0.524255 0.135851 -0.280000
v -0.493555 0.129806 -0.284245
v -0.490903 0.137804 -0.293783
v -0.526132 0.144742 -0.288912
v -0.526132 0.144742 -0.288912
v -0.490903 0.137804 -0.293783
v -0.485752 0.145978 -0.285497
v -0.525511 0.153808 -0.280000
v -0.485752 0.145978 -0.285497
v -0.455170 0.119130 -0.289522
v -0.461306 0.114190 -0.279525
v -0.488404 0.137979 -0.275959
v -0.488404 0.137979 -0.275959
v -0.461306 0.114190 -0.279525
v -0.469942 0.109075 -0.287352
v -0.493555 0.129806 -0.284245
v -0.493555 0.129806 -0.284245
v -0.469942 0.109075 -0.287352
v -0.463805 0.114015 -0.297349
v -0.490903 0.137804 -0.293783
v -0.490903 0.137804 -0.293783
v -0.463805 0.114015 -0.297349
v -0.455170 0.119130 -0.289522
v -0.485752 0.145978 -0.285497
v -0.455170 0.119130 -0.289522
v -0.441959 0.080457 -0.290995
v -0.449601 0.079923 -0.280830
v -0.461306 0.114190 -0.279525
v -0.461306 0.114190 -0.279525
v -0.449601 0.079923 -0.280830
v -0.459741 0.079214 -0.288490
v -0.469942 0.109075 -0.287352
v -0.469942 0.109075 -0.287352
v -0.459741 0.079214 -0.288490
v -0.452100 0.079748 -0.298655
v -0.463805 0.114015 -0.297349
v -0.463805 0.114015 -0.297349
v -0.452100 0.079748 -0.298655
v -0.441959 0.080457 -0.290995
v -0.455170 0.119130 -0.289522
v 0.540739 0.060565 0.266421
v 0.527447 0.025261 0.264221
v 0.518351 0.030742 0.271237
v 0.530005 0.061693 0.273166
v 0.530005 0.061693 0.273166
v 0.518351 0.030742 0.271237
v 0.513282 0.035799 0.260715
v 0.523297 0.062398 0.262372
v 0.523297 0.062398 0.262372
v 0.513282 0.035799 0.260715
v 0.522378 0.030319 0.253699
v 0.534032 0.061270 0.255628
v 0.534032 0.061270 0.255628
v 0.522378 0.030319 0.253699
v 0.527447 0.025261 0.264221
v 0.540739 0.060565 0.266421
v 0.527447 0.025261 0.264221
v 0.498761 0.001409 0.258211
v 0.493202 0.009830 0.265968
v 0.518351 0.030742 0.271237
v 0.518351 0.030742 0.271237
v 0.493202 0.009830 0.265968
v 0.491670 0.017829 0.256186
v 0.513282 0.035799 0.260715
v 0.513282 0.035799 0.260715
v 0.491670 0.017829 0.256186
v 0.497229 0.009407 0.248429
v 0.522378 0.030319 0.253699
v 0.522378 0.030319 0.253699
v 0.497229 0.009407 0.248429
v 0.498761 0.001409 0.258211
v 0.527447 0.025261 0.264221
v 0.498761 0.001409 0.258211
v 0.462369 -0.004600 0.250000
v 0.461297 0.004562 0.258769
v 0.493202 0.009830 0.265968
v 0.493202 0.009830 0.265968
v 0.461297 0.004562 0.258769
v 0.464251 0.013301 0.250000
v 0.491670 0.017829 0.256186
v 0.491670 0.017829 0.256186
v 0.464251 0.013301 0.250000
v 0.465324 0.004139 0.241231
v 0.497229 0.009407 0.248429
v 0.497229 0.009407 0.248429
v 0.465324 0.004139 0.241231
v 0.462369 -0.004600 0.250000
v 0.498761 0.001409 0.258211
v 0.462369 -0.004600 0.250000
v 0.428022 0.008844 0.241789
v 0.431184 0.016349 0.251571
v 0.461297 0.004562 0.258769
v 0.461297 0.004562 0.258769
v 0.431184 0.016349 0.251571
v 0.438373 0.023430 0.243814
v 0.464251 0.013301 0.250000
v 0.464251 0.013301 0.250000
v 0.438373 0.023430 0.243814
v 0.435211 0.015926 0.234032
v 0.465324 0.004139 0.241231
v 0.465324 0.004139 0.241231
v 0.435211 0.015926 0.234032
v 0.428022 0.008844 0.241789
v 0.462369 -0.004600 0.250000
v 0.428022 0.008844 0.241789
v 0.404923 0.038139 0.235779
v 0.410932 0.042032 0.246301
v 0.431184 0.016349 0.251571
v 0.431184 0.016349 0.251571
v 0.410932 0.042032 0.246301
v 0.420969 0.045502 0.239285
v 0.438373 0.023430 0.243814
v 0.438373 0.023430 0.243814
v 0.420969 0.045502 0.239285
v 0.414959 0.041609 0.228763
v 0.435211 0.015926 0.234032
v 0.435211 0.015926 0.234032
v 0.414959 0.041609 0.228763
v 0.404923 0.038139 0.235779
v 0.428022 0.008844 0.241789
v 0.404923 0.038139 0.235779
v 0.399261 0.075435 0.233579
v 0.405968 0.074730 0.244372
v 0.410932 0.042032 0.246301
v 0.410932 0.042032 0.246301
v 0.405968 0.074730 0.244372
v 0.416703 0.073602 0.237628
v 0.420969 0.045502 0.239285
v 0.420969 0.045502 0.239285
v 0.416703 0.073602 0.237628
v 0.409995 0.074307 0.226834
v 0.414959 0.041609 0.228763
v 0.414959 0.041609 0.228763
v 0.409995 0.074307 0.226834
v 0.399261 0.075435 0.233579
v 0.404923 0.038139 0.235779
v 0.399261 0.075435 0.233579
v 0.412553 0.110739 0.235779
v 0.417622 0.105681 0.246301
v 0.405968 0.074730 0.244372
v 0.405968 0.074730 0.244372
v 0.417622 0.105681 0.246301
v 0.426718 0.100201 0.239285
v 0.416703 0.073602 0.237628
v 0.416703 0.073602 0.237628
v 0.426718 0.100201 0.239285
v 0.421649 0.105258 0.228763
v 0.409995 0.074307 0.226834
v 0.409995 0.074307 0.226834
v 0.421649 0.105258 0.228763
v 0.412553 0.110739 0.235779
v 0.399261 0.075435 0.233579
v 0.412553 0.110739 0.235779
v 0.441239 0.134591 0.241789
v 0.442771 0.126593 0.251571
v 0.417622 0.105681 0.246301
v 0.417622 0.105681 0.246301
v 0.442771 0.126593 0.251571
v 0.448330 0.118171 0.243814
v 0.426718 0.100201 0.239285
v 0.426718 0.100201 0.239285
v 0.448330 0.118171 0.243814
v 0.446798 0.126170 0.234032
v 0.421649 0.105258 0.228763
v 0.421649 0.105258 0.228763
v 0.446798 0.126170 0.234032
v 0.441239 0.134591 0.241789
v 0.412553 0.110739 0.235779
v 0.441239 0.134591 0.241789
v 0.477631 0.140600 0.250000
v 0.474676 0.131861 0.258769
v 0.442771 0.126593 0.251571
v 0.442771 0.126593 0.251571
v 0.474676 0.131861 0.258769
v 0.475749 0.122699 0.250000
v 0.448330 0.118171 0.243814
v 0.448330 0.118171 0.243814
v 0.475749 0.122699 0.250000
v 0.478703 0.131438 0.241231
v 0.446798 0.126170 0.234032
v 0.446798 0.126170 0.234032
v 0.478703 0.131438 0.241231
v 0.477631 0.140600 0.250000
v 0.441239 0.134591 0.241789
v 0.477631 0.140600 0.250000
v 0.511978 0.127156 0.258211
v 0.504789 0.120074 0.265968
v 0.474676 0.131861 0.258769
v 0.474676 0.131861 0.258769
v 0.504789 0.120074 0.265968
v 0.501627 0.112570 0.256186
v 0.475749 0.122699 0.250000
v 0.475749 0.122699 0.250000
v 0.501627 0.112570 0.256186
v 0.508816 0.119651 0.248429
v 0.478703 0.131438 0.241231
v 0.478703 0.131438 0.241231
v 0.508816 0.119651 0.248429
v 0.511978 0.127156 0.258211
v 0.477631 0.140600 0.250000
v 0.511978 0.127156 0.258211
v 0.535077 0.097861 0.264221
v 0.525041 0.094391 0.271237
v 0.504789 0.120074 0.265968
v 0.504789 0.120074 0.265968
v 0.525041 0.094391 0.271237
v 0.519031 0.090498 0.260715
v 0.501627 0.112570 0.256186
v 0.501627 0.112570 0.256186
v 0.519031 0.090498 0.260715
v 0.529068 0.093968 0.253699
v 0.508816 0.119651 0.248429
v 0.508816 0.119651 0.248429
v 0.529068 0.093968 0.253699
v 0.535077 0.097861 0.264221
v 0.511978 0.127156 0.258211
v 0.535077 0.097861 0.264221
v 0.540739 0.060565 0.266421
v 0.530005 0.061693 0.273166
v 0.525041 0.094391 0.271237
v 0.525041 0.094391 0.271237
v 0.530005 0.061693 0.273166
v 0.523297 0.062398 0.262372
v 0.519031 0.090498 0.260715
v 0.519031 0.090498 0.260715
v 0.523297 0.062398 0.262372
v 0.534032 0.061270 0.255628
v 0.529068 0.093968 0.253699
v 0.529068 0.093968 0.253699
v 0.534032 0.061270 0.255628
v 0.540739 0.060565 0.266421
v 0.535077 0.097861 0.264221
v -0.770436 0.037317 -0.638002
v -0.759901 0.037395 -0.638977
v -0.719764 0.067212 -0.202973
v -0.730298 0.067133 -0.201998
v -0.759901 0.037395 -0.638977
v -0.756508 0.027381 -0.638605
v -0.716371 0.057197 -0.202600
v -0.719764 0.067212 -0.202973
v -0.756508 0.027381 -0.638605
v -0.764946 0.021113 -0.637400
v -0.724808 0.050929 -0.201395
v -0.716371 0.057197 -0.202600
v -0.764946 0.021113 -0.637400
v -0.773553 0.027253 -0.637027
v -0.733416 0.057070 -0.201023
v -0.724808 0.050929 -0.201395
v -0.773553 0.027253 -0.637027
v -0.770436 0.037317 -0.638002
v -0.730298 0.067133 -0.201998
v -0.733416 0.057070 -0.201023
v -0.765069 0.030092 -0.638002
v -0.759901 0.037395 -0.638977
v -0.770436 0.037317 -0.638002
v -0.724931 0.059908 -0.201998
v -0.730298 0.067133 -0.201998
v -0.719764 0.067212 -0.202973
v -0.765069 0.030092 -0.638002
v -0.756508 0.027381 -0.638605
v -0.759901 0.037395 -0.638977
v -0.724931 0.059908 -0.201998
v -0.719764 0.067212 -0.202973
v -0.716371 0.057197 -0.202600
v -0.765069 0.030092 -0.638002
v -0.764946 0.021113 -0.637400
v -0.756508 0.027381 -0.638605
v -0.724931 0.059908 -0.201998
v -0.716371 0.057197 -0.202600
v -0.724808 0.050929 -0.201395
v -0.765069 0.030092 -0.638002
v -0.773553 0.027253 -0.637027
v -0.764946 0.021113 -0.637400
v -0.724931 0.059908 -0.201998
v -0.724808 0.050929 -0.201395
v -0.733416 0.057070 -0.201023
v -0.765069 0.030092 -0.638002
v -0.770436 0.037317 -0.638002
v -0.773553 0.027253 -0.637027
v -0.724931 0.059908 -0.201998
v -0.733416 0.057070 -0.201023
v -0.730298 0.067133 -0.201998
v -0.637513 0.024918 -0.692539
v -0.628914 0.028666 -0.693209
v -0.607696 0.064913 -0.218131
v -0.616295 0.061165 -0.217461
v -0.628914 0.028666 -0.693209
v -0.622657 0.021649 -0.692954
v -0.601439 0.057896 -0.217875
v -0.607696 0.064913 -0.218131
v -0.622657 0.021649 -0.692954
v -0.627389 0.013565 -0.692125
v -0.606172 0.049811 -0.217046
v -0.601439 0.057896 -0.217875
v -0.627389 0.013565 -0.692125
v -0.636571 0.015585 -0.691869
v -0.615353 0.051831 -0.216791
v -0.606172 0.049811 -0.217046
v -0.636571 0.015585 -0.691869
v -0.637513 0.024918 -0.692539
v -0.616295 0.061165 -0.217461
v -0.615353 0.051831 -0.216791
v -0.630609 0.020877 -0.692539
v -0.628914 0.028666 -0.693209
v -0.637513 0.024918 -0.692539
v -0.609391 0.057123 -0.217461
v -0.616295 0.061165 -0.217461
v -0.607696 0.064913 -0.218131
v -0.630609 0.020877 -0.692539
v -0.622657 0.021649 -0.692954
v -0.628914 0.028666 -0.693209
v -0.609391 0.057123 -0.217461
v -0.607696 0.064913 -0.218131
v -0.601439 0.057896 -0.217875
v -0.630609 0.020877 -0.692539
v -0.627389 0.013565 -0.692125
v -0.622657 0.021649 -0.692954
v -0.609391 0.057123 -0.217461
v -0.601439 0.057896 -0.217875
v -0.606172 0.049811 -0.217046
v -0.630609 0.020877 -0.692539
v -0.636571 0.015585 -0.691869
v -0.627389 0.013565 -0.692125
v -0.609391 0.057123 -0.217461
v -0.606172 0.049811 -0.217046
v -0.615353 0.051831 -0.216791
v -0.630609 0.020877 -0.692539
v -0.637513 0.024918 -0.692539
v -0.636571 0.015585 -0.691869
v -0.609391 0.057123 -0.217461
v -0.615353 0.051831 -0.216791
v -0.616295 0.061165 -0.217461
v 0.702000 0.045165 0.173862
v 0.691460 0.044660 0.173087
v 0.658752 0.018313 0.635364
v 0.669292 0.018817 0.636138
v 0.691460 0.044660 0.173087
v 0.687683 0.054539 0.173383
v 0.654976 0.028191 0.635660
v 0.658752 0.018313 0.635364
v 0.687683 0.054539 0.173383
v 0.695889 0.061149 0.174340
v 0.663181 0.034801 0.636617
v 0.654976 0.028191 0.635660
v 0.695889 0.061149 0.174340
v 0.704737 0.055356 0.174636
v 0.672029 0.029008 0.636913
v 0.663181 0.034801 0.636617
v 0.704737 0.055356 0.174636
v 0.702000 0.045165 0.173862
v 0.669292 0.018817 0.636138
v 0.672029 0.029008 0.636913
v 0.696354 0.052174 0.173862
v 0.691460 0.044660 0.173087
v 0.702000 0.045165 0.173862
v 0.663646 0.025826 0.636138
v 0.669292 0.018817 0.636138
v 0.658752 0.018313 0.635364
v 0.696354 0.052174 0.173862
v 0.687683 0.054539 0.173383
v 0.691460 0.044660 0.173087
v 0.663646 0.025826 0.636138
v 0.658752 0.018313 0.635364
v 0.654976 0.028191 0.635660
v 0.696354 0.052174 0.173862
v 0.695889 0.061149 0.174340
v 0.687683 0.054539 0.173383
v 0.663646 0.025826 0.636138
v 0.654976 0.028191 0.635660
v 0.663181 0.034801 0.636617
v 0.696354 0.052174 0.173862
v 0.704737 0.055356 0.174636
v 0.695889 0.061149 0.174340
v 0.663646 0.025826 0.636138
v 0.663181 0.034801 0.636617
v 0.672029 0.029008 0.636913
v 0.696354 0.052174 0.173862
v 0.702000 0.045165 0.173862
v 0.704737 0.055356 0.174636
v 0.663646 0.025826 0.636138
v 0.672029 0.029008 0.636913
v 0.669292 0.018817 0.636138
v 0.564552 0.044885 0.195049
v 0.556290 0.040421 0.194543
v 0.541620 0.009748 0.704445
v 0.549882 0.014212 0.704951
v 0.556290 0.040421 0.194543
v 0.549472 0.046896 0.194736
v 0.534802 0.016223 0.704638
v 0.541620 0.009748 0.704445
v 0.549472 0.046896 0.194736
v 0.553520 0.055361 0.195362
v 0.538851 0.024689 0.705264
v 0.534802 0.016223 0.704638
v 0.553520 0.055361 0.195362
v 0.562840 0.054118 0.195555
v 0.548171 0.023446 0.705457
v 0.538851 0.024689 0.705264
v 0.562840 0.054118 0.195555
v 0.564552 0.044885 0.195049
v 0.549882 0.014212 0.704951
v 0.548171 0.023446 0.705457
v 0.557335 0.048336 0.195049
v 0.556290 0.040421 0.194543
v 0.564552 0.044885 0.195049
v 0.542665 0.017664 0.704951
v 0.549882 0.014212 0.704951
v 0.541620 0.009748 0.704445
v 0.557335 0.048336 0.195049
v 0.549472 0.046896 0.194736
v 0.556290 0.040421 0.194543
v 0.542665 0.017664 0.704951
v 0.541620 0.009748 0.704445
v 0.534802 0.016223 0.704638
v 0.557335 0.048336 0.195049
v 0.553520 0.055361 0.195362
v 0.549472 0.046896 0.194736
v 0.542665 0.017664 0.704951
v 0.534802 0.016223 0.704638
v 0.538851 0.024689 0.705264
v 0.557335 0.048336 0.195049
v 0.562840 0.054118 0.195555
v 0.553520 0.055361 0.195362
v 0.542665 0.017664 0.704951
v 0.538851 0.024689 0.705264
v 0.548171 0.023446 0.705457
v 0.557335 0.048336 0.195049
v 0.564552 0.044885 0.195049
v 0.562840 0.054118 0.195555
v 0.542665 0.017664 0.704951
v 0.548171 0.023446 0.705457
v 0.549882 0.014212 0.704951
vt 0.000000 0.000000
vt 1.000000 0.000000
vt 1.000000 1.000000
vt 0.000000 1.000000
vt 0.000000 0.000000
vt 1.000000 0.000000
vt 1.000000 1.000000
vt 0.000000 1.000000
vt 0.000000 0.000000
vt 1.000000 0.000000
vt 1.000000 1.000000
vt 0.000000 1.000000
vt 0.000000 0.000000
vt 1.000000 0.000000
vt 1.000000 1.000000
vt 0.000000 1.000000
vt 0.000000 0.000000
vt 1.000000 0.000000
vt 1.000000 1.000000
vt 0.000000 1.000000
vt 0.000000 0.000000
vt 1.000000 0.000000
vt 1.000000 1.000000
vt 0.000000 1.000000
vt 0.000000 0.000000
vt 1.000000 0.000000
vt 1.000000 1.000000
vt 0.000000 1.000000
vt 0.000000 0.000000
vt 1.000000 0.000000
vt 1.000000 1.000000
vt 0.000000 1.000000
vt 0.000000 0.000000
vt 1.000000 0.000000
vt 1.000000 1.000000
vt 0.000000 1.000000
vt 0.000000 0.000000
vt 1.000000 0.000000
vt 1.000000 1.000000
vt 0.000000 1.000000
vt 0.000000 0.000000
vt 1.000000 0.000000
vt 1.000000 1.000000
vt 0.000000 1.000000
vt 0.000000 0.000000
vt 1.000000 0.000000
vt 1.000000 1.000000
vt 0.000000 1.000000
vt 0.000000 0.000000
vt 1.000000 0.000000
vt 1.000000 1.000000
vt 0.000000 1.000000
vt 0.000000 0.000000
vt 1.000000 0.000000
vt 1.000000 1.000000
vt 0.000000 1.000000
vt 0.000000 0.000000
vt 1.000000 0.000000
vt 1.000000 1.000000
vt 0.000000 1.000000
vt 0.000000 0.000000
vt 1.000000 0.000000
vt 1.000000 1.000000
vt 0.000000 1.000000
vt 0.000000 0.000000
vt 1.000000 0.000000
vt 1.000000 1.000000
vt 0.000000 1.000000
vt 0.000000 0.000000
vt 1.000000 0.000000
vt 1.000000 1.000000
vt 0.000000 1.000000
vt 0.000000 0.000000
vt 1.000000 0.000000
vt 1.000000 1.000000
vt 0.000000 1.000000
vt 0.000000 0.000000
vt 1.000000 0.000000
vt 1.000000 1.000000
vt 0.000000 1.000000
vt 0.000000 0.000000
vt 1.000000 0.000000
vt 1.000000 1.000000
vt 0.000000 1.000000
vt 0.000000 0.000000
vt 1.000000 0.000000
vt 1.000000 1.000000
vt 0.000000 1.000000
vt 0.000000 0.000000
vt 1.000000 0.000000
vt 1.000000 1.000000
vt 0.000000 1.000000
vt 0.000000 0.000000
vt 1.000000 0.000000
vt 1.000000 1.000000
vt 0.000000 1.000000
vt 0.000000 0.000000
vt 1.000000 0.000000
vt 1.000000 1.000000
vt 0.000000 1.000000
vt 0.000000 0.000000
vt 1.000000 0.000000
vt 1.000000 1.000000
vt 0.000000 1.000000
vt 0.000000 0.000000
vt 1.000000 0.000000
vt 1.000000 1.000000
vt 0.000000 1.000000
vt 0.000000 0.000000
vt 1.000000 0.000000
vt 1.000000 1.000000
vt 0.000000 1.000000
vt 0.000000 0.000000
vt 1.000000 0.000000
vt 1.000000 1.000000
vt 0.000000 1.000000
vt 0.000000 0.000000
vt 1.000000 0.000000
vt 1.000000 1.000000
vt 0.000000 1.000000
vt 0.000000 0.000000
vt 1.000000 0.000000
vt 1.000000 1.000000
vt 0.000000 1.000000
vt 0.000000 0.000000
vt 1.000000 0.000000
vt 1.000000 1.000000
vt 0.000000 1.000000
vt 0.000000 0.000000
vt 1.000000 0.000000
vt 1.000000 1.000000
vt 0.000000 1.000000
vt 0.000000 0.000000
vt 1.000000 0.000000
vt 1.000000 1.000000
vt 0.000000 1.000000
vt 0.000000 0.000000
vt 1.000000 0.000000
vt 1.000000 1.000000
vt 0.000000 1.000000
vt 0.000000 0.000000
vt 1.000000 0.000000
vt 1.000000 1.000000
vt 0.000000 1.000000
vt 0.000000 0.000000
vt 1.000000 0.000000
vt 1.000000 1.000000
vt 0.000000 1.000000
vt 0.000000 0.000000
vt 1.000000 0.000000
vt 1.000000 1.000000
vt 0.000000 1.000000
vt 0.000000 0.000000
vt 1.000000 0.000000
vt 1.000000 1.000000
vt 0.000000 1.000000
vt 0.000000 0.000000
vt 1.000000 0.000000
vt 1.000000 1.000000
vt 0.000000 1.000000
vt 0.000000 0.000000
vt 1.000000 0.000000
vt 1.000000 1.000000
vt 0.000000 1.000000
vt 0.000000 0.000000
vt 1.000000 0.000000
vt 1.000000 1.000000
vt 0.000000 1.000000
vt 0.000000 0.000000
vt 1.000000 0.000000
vt 1.000000 1.000000
vt 0.000000 1.000000
vt 0.000000 0.000000
vt 1.000000 0.000000
vt 1.000000 1.000000
vt 0.000000 1.000000
vt 0.000000 0.000000
vt 1.000000 0.000000
vt 1.000000 1.000000
vt 0.000000 1.000000
vt 0.000000 0.000000
vt 1.000000 0.000000
vt 1.000000 1.000000
vt 0.000000 1.000000
vt 0.000000 0.000000
vt 1.000000 0.000000
vt 1.000000 1.000000
vt 0.000000 1.000000
vt 0.000000 0.000000
vt 1.000000 0.000000
vt 1.000000 1.000000
vt 0.000000 1.000000
vt 0.000000 0.000000
vt 1.000000 0.000000
vt 1.000000 1.000000
vt 0.000000 1.000000
vt 0.000000 0.000000
vt 1.000000 0.000000
vt 1.000000 1.000000
vt 0.000000 1.000000
vt 0.000000 0.000000
vt 1.000000 0.000000
vt 1.000000 1.000000
vt 0.000000 1.000000
vt 0.000000 0.000000
vt 1.000000 0.000000
vt 1.000000 1.000000
vt 0.000000 1.000000
vt 0.000000 0.000000
vt 1.000000 0.000000
vt 1.000000 1.000000
vt 0.000000 1.000000
vt 0.000000 0.000000
vt 1.000000 0.000000
vt 1.000000 1.000000
vt 0.000000 1.000000
vt 0.000000 0.000000
vt 1.000000 0.000000
vt 1.000000 1.000000
vt 0.000000 1.000000
vt 0.000000 0.000000
vt 1.000000 0.000000
vt 1.000000 1.000000
vt 0.000000 1.000000
vt 0.000000 0.000000
vt 1.000000 0.000000
vt 1.000000 1.000000
vt 0.000000 1.000000
vt 0.000000 0.000000
vt 1.000000 0.000000
vt 1.000000 1.000000
vt 0.000000 1.000000
vt 0.000000 0.000000
vt 1.000000 0.000000
vt 1.000000 1.000000
vt 0.000000 1.000000
vt 0.000000 0.000000
vt 1.000000 0.000000
vt 1.000000 1.000000
vt 0.000000 1.000000
vt 0.000000 0.000000
vt 1.000000 0.000000
vt 1.000000 1.000000
vt 0.000000 1.000000
vt 0.000000 0.000000
vt 1.000000 0.000000
vt 1.000000 1.000000
vt 0.000000 1.000000
vt 0.000000 0.000000
vt 1.000000 0.000000
vt 1.000000 1.000000
vt 0.000000 1.000000
vt 0.000000 0.000000
vt 1.000000 0.000000
vt 1.000000 1.000000
vt 0.000000 1.000000
vt 0.000000 0.000000
vt 1.000000 0.000000
vt 1.000000 1.000000
vt 0.000000 1.000000
vt 0.000000 0.000000
vt 1.000000 0.000000
vt 1.000000 1.000000
vt 0.000000 1.000000
vt 0.000000 0.000000
vt 1.000000 0.000000
vt 1.000000 1.000000
vt 0.000000 1.000000
vt 0.000000 0.000000
vt 1.000000 0.000000
vt 1.000000 1.000000
vt 0.000000 1.000000
vt 0.000000 0.000000
vt 1.000000 0.000000
vt 1.000000 1.000000
vt 0.000000 1.000000
vt 0.000000 0.000000
vt 1.000000 0.000000
vt 1.000000 1.000000
vt 0.000000 1.000000
vt 0.000000 0.000000
vt 1.000000 0.000000
vt 1.000000 1.000000
vt 0.000000 1.000000
vt 0.000000 0.000000
vt 1.000000 0.000000
vt 1.000000 1.000000
vt 0.000000 1.000000
vt 0.000000 0.000000
vt 1.000000 0.000000
vt 1.000000 1.000000
vt 0.000000 1.000000
vt 0.000000 0.000000
vt 1.000000 0.000000
vt 1.000000 1.000000
vt 0.000000 1.000000
vt 0.000000 0.000000
vt 1.000000 0.000000
vt 1.000000 1.000000
vt 0.000000 1.000000
vt 0.000000 0.000000
vt 1.000000 0.000000
vt 1.000000 1.000000
vt 0.000000 1.000000
vt 0.000000 0.000000
vt 1.000000 0.000000
vt 1.000000 1.000000
vt 0.000000 1.000000
vt 0.000000 0.000000
vt 1.000000 0.000000
vt 1.000000 1.000000
vt 0.000000 1.000000
vt 0.000000 0.000000
vt 1.000000 0.000000
vt 1.000000 1.000000
vt 0.000000 1.000000
vt 0.000000 0.000000
vt 1.000000 0.000000
vt 1.000000 1.000000
vt 0.000000 1.000000
vt 0.000000 0.000000
vt 1.000000 0.000000
vt 1.000000 1.000000
vt 0.000000 1.000000
vt 0.000000 0.000000
vt 1.000000 0.000000
vt 1.000000 1.000000
vt 0.000000 1.000000
vt 0.000000 0.000000
vt 1.000000 0.000000
vt 1.000000 1.000000
vt 0.000000 1.000000
vt 0.000000 0.000000
vt 1.000000 0.000000
vt 1.000000 1.000000
vt 0.000000 1.000000
vt 0.000000 0.000000
vt 1.000000 0.000000
vt 1.000000 1.000000
vt 0.000000 1.000000
vt 0.000000 0.000000
vt 1.000000 0.000000
vt 1.000000 1.000000
vt 0.000000 1.000000
vt 0.000000 0.000000
vt 1.000000 0.000000
vt 1.000000 1.000000
vt 0.000000 1.000000
vt 0.000000 0.000000
vt 1.000000 0.000000
vt 1.000000 1.000000
vt 0.000000 1.000000
vt 0.000000 0.000000
vt 1.000000 0.000000
vt 1.000000 1.000000
vt 0.000000 1.000000
vt 0.000000 0.000000
vt 1.000000 0.000000
vt 1.000000 1.000000
vt 0.000000 1.000000
vt 0.500000 0.500000
vt 0.000000 0.000000
vt 1.000000 0.000000
vt 0.500000 0.500000
vt 0.000000 1.000000
vt 1.000000 1.000000
vt 0.500000 0.500000
vt 0.000000 0.000000
vt 1.000000 0.000000
vt 0.500000 0.500000
vt 0.000000 1.000000
vt 1.000000 1.000000
vt 0.500000 0.500000
vt 0.000000 0.000000
vt 1.000000 0.000000
vt 0.500000 0.500000
vt 0.000000 1.000000
vt 1.000000 1.000000
vt 0.500000 0.500000
vt 0.000000 0.000000
vt 1.000000 0.000000
vt 0.500000 0.500000
vt 0.000000 1.000000
vt 1.000000 1.000000
vt 0.500000 0.500000
vt 0.000000 0.000000
vt 1.000000 0.000000
vt 0.500000 0.500000
vt 0.000000 1.000000
vt 1.000000 1.000000
vt 0.500000 0.500000
vt 0.000000 0.000000
vt 1.000000 0.000000
vt 0.500000 0.500000
vt 0.000000 1.000000
vt 1.000000 1.000000
vt 0.000000 0.000000
vt 1.000000 0.000000
vt 1.000000 1.000000
vt 0.000000 1.000000
vt 0.000000 0.000000
vt 1.000000 0.000000
vt 1.000000 1.000000
vt 0.000000 1.000000
vt 0.000000 0.000000
vt 1.000000 0.000000
vt 1.000000 1.000000
vt 0.000000 1.000000
vt 0.000000 0.000000
vt 1.000000 0.000000
vt 1.000000 1.000000
vt 0.000000 1.000000
vt 0.000000 0.000000
vt 1.000000 0.000000
vt 1.000000 1.000000
vt 0.000000 1.000000
vt 0.000000 0.000000
vt 1.000000 0.000000
vt 1.000000 1.000000
vt 0.000000 1.000000
vt 0.500000 0.500000
vt 0.000000 0.000000
vt 1.000000 0.000000
vt 0.500000 0.500000
vt 0.000000 1.000000
vt 1.000000 1.000000
vt 0.500000 0.500000
vt 0.000000 0.000000
vt 1.000000 0.000000
vt 0.500000 0.500000
vt 0.000000 1.000000
vt 1.000000 1.000000
vt 0.500000 0.500000
vt 0.000000 0.000000
vt 1.000000 0.000000
vt 0.500000 0.500000
vt 0.000000 1.000000
vt 1.000000 1.000000
vt 0.500000 0.500000
vt 0.000000 0.000000
vt 1.000000 0.000000
vt 0.500000 0.500000
vt 0.000000 1.000000
vt 1.000000 1.000000
vt 0.500000 0.500000
vt 0.000000 0.000000
vt 1.000000 0.000000
vt 0.500000 0.500000
vt 0.000000 1.000000
vt 1.000000 1.000000
vt 0.500000 0.500000
vt 0.000000 0.000000
vt 1.000000 0.000000
vt 0.500000 0.500000
vt 0.000000 1.000000
vt 1.000000 1.000000
vt 0.000000 0.000000
vt 1.000000 0.000000
vt 1.000000 1.000000
vt 0.000000 1.000000
vt 0.000000 0.000000
vt 1.000000 0.000000
vt 1.000000 1.000000
vt 0.000000 1.000000
vt 0.000000 0.000000
vt 1.000000 0.000000
vt 1.000000 1.000000
vt 0.000000 1.000000
vt 0.000000 0.000000
vt 1.000000 0.000000
vt 1.000000 1.000000
vt 0.000000 1.000000
vt 0.000000 0.000000
vt 1.000000 0.000000
vt 1.000000 1.000000
vt 0.000000 1.000000
vt 0.000000 0.000000
vt 1.000000 0.000000
vt 1.000000 1.000000
vt 0.000000 1.000000
vt 0.000000 0.000000
vt 1.000000 0.000000
vt 1.000000 1.000000
vt 0.000000 1.000000
vt 0.000000 0.000000
vt 1.000000 0.000000
vt 1.000000 1.000000
vt 0.000000 1.000000
vt 0.000000 0.000000
vt 1.000000 0.000000
vt 1.000000 1.000000
vt 0.000000 1.000000
vt 0.000000 0.000000
vt 1.000000 0.000000
vt 1.000000 1.000000
vt 0.000000 1.000000
vt 0.000000 0.000000
vt 1.000000 0.000000
vt 1.000000 1.000000
vt 0.000000 1.000000
vt 0.000000 0.000000
vt 1.000000 0.000000
vt 1.000000 1.000000
vt 0.000000 1.000000
vt 0.000000 0.000000
vt 1.000000 0.000000
vt 1.000000 1.000000
vt 0.000000 1.000000
vt 0.000000 0.000000
vt 1.000000 0.000000
vt 1.000000 1.000000
vt 0.000000 1.000000
vt 0.000000 0.000000
vt 1.000000 0.000000
vt 1.000000 1.000000
vt 0.000000 1.000000
vt 0.000000 0.000000
vt 1.000000 0.000000
vt 1.000000 1.000000
vt 0.000000 1.000000
vt 0.000000 0.000000
vt 1.000000 0.000000
vt 1.000000 1.000000
vt 0.000000 1.000000
vt 0.000000 0.000000
vt 1.000000 0.000000
vt 1.000000 1.000000
vt 0.000000 1.000000
vt 0.000000 0.000000
vt 1.000000 0.000000
vt 1.000000 1.000000
vt 0.000000 1.000000
vt 0.000000 0.000000
vt 1.000000 0.000000
vt 1.000000 1.000000
vt 0.000000 1.000000
vt 0.000000 0.000000
vt 1.000000 0.000000
vt 1.000000 1.000000
vt 0.000000 1.000000
vt 0.000000 0.000000
vt 1.000000 0.000000
vt 1.000000 1.000000
vt 0.000000 1.000000
vt 0.000000 0.000000
vt 1.000000 0.000000
vt 1.000000 1.000000
vt 0.000000 1.000000
vt 0.000000 0.000000
vt 1.000000 0.000000
vt 1.000000 1.000000
vt 0.000000 1.000000
vt 0.000000 0.000000
vt 1.000000 0.000000
vt 1.000000 1.000000
vt 0.000000 1.000000
vt 0.000000 0.000000
vt 1.000000 0.000000
vt 1.000000 1.000000
vt 0.000000 1.000000
vt 0.000000 0.000000
vt 1.000000 0.000000
vt 1.000000 1.000000
vt 0.000000 1.000000
vt 0.000000 0.000000
vt 1.000000 0.000000
vt 1.000000 1.000000
vt 0.000000 1.000000
vt 0.000000 0.000000
vt 1.000000 0.000000
vt 1.000000 1.000000
vt 0.000000 1.000000
vt 0.000000 0.000000
vt 1.000000 0.000000
vt 1.000000 1.000000
vt 0.000000 1.000000
vt 0.000000 0.000000
vt 1.000000 0.000000
vt 1.000000 1.000000
vt 0.000000 1.000000
vt 0.000000 0.000000
vt 1.000000 0.000000
vt 1.000000 1.000000
vt 0.000000 1.000000
vt 0.000000 0.000000
vt 1.000000 0.000000
vt 1.000000 1.000000
vt 0.000000 1.000000
vt 0.000000 0.000000
vt 1.000000 0.000000
vt 1.000000 1.000000
vt 0.000000 1.000000
vt 0.000000 0.000000
vt 1.000000 0.000000
vt 1.000000 1.000000
vt 0.000000 1.000000
vt 0.000000 0.000000
vt 1.000000 0.000000
vt 1.000000 1.000000
vt 0.000000 1.000000
vt 0.000000 0.000000
vt 1.000000 0.000000
vt 1.000000 1.000000
vt 0.000000 1.000000
vt 0.000000 0.000000
vt 1.000000 0.000000
vt 1.000000 1.000000
vt 0.000000 1.000000
vt 0.000000 0.000000
vt 1.000000 0.000000
vt 1.000000 1.000000
vt 0.000000 1.000000
vt 0.000000 0.000000
vt 1.000000 0.000000
vt 1.000000 1.000000
vt 0.000000 1.000000
vt 0.000000 0.000000
vt 1.000000 0.000000
vt 1.000000 1.000000
vt 0.000000 1.000000
vt 0.000000 0.000000
vt 1.000000 0.000000
vt 1.000000 1.000000
vt 0.000000 1.000000
vt 0.000000 0.000000
vt 1.000000 0.000000
vt 1.000000 1.000000
vt 0.000000 1.000000
vt 0.000000 0.000000
vt 1.000000 0.000000
vt 1.000000 1.000000
vt 0.000000 1.000000
vt 0.000000 0.000000
vt 1.000000 0.000000
vt 1.000000 1.000000
vt 0.000000 1.000000
vt 0.000000 0.000000
vt 1.000000 0.000000
vt 1.000000 1.000000
vt 0.000000 1.000000
vt 0.000000 0.000000
vt 1.000000 0.000000
vt 1.000000 1.000000
vt 0.000000 1.000000
vt 0.000000 0.000000
vt 1.000000 0.000000
vt 1.000000 1.000000
vt 0.000000 1.000000
vt 0.000000 0.000000
vt 1.000000 0.000000
vt 1.000000 1.000000
vt 0.000000 1.000000
vt 0.000000 0.000000
vt 1.000000 0.000000
vt 1.000000 1.000000
vt 0.000000 1.000000
vt 0.000000 0.000000
vt 1.000000 0.000000
vt 1.000000 1.000000
vt 0.000000 1.000000
vt 0.000000 0.000000
vt 1.000000 0.000000
vt 1.000000 1.000000
vt 0.000000 1.000000
vt 0.000000 0.000000
vt 1.000000 0.000000
vt 1.000000 1.000000
vt 0.000000 1.000000
vt 0.000000 0.000000
vt 1.000000 0.000000
vt 1.000000 1.000000
vt 0.000000 1.000000
vt 0.000000 0.000000
vt 1.000000 0.000000
vt 1.000000 1.000000
vt 0.000000 1.000000
vt 0.000000 0.000000
vt 1.000000 0.000000
vt 1.000000 1.000000
vt 0.000000 1.000000
vt 0.000000 0.000000
vt 1.000000 0.000000
vt 1.000000 1.000000
vt 0.000000 1.000000
vt 0.000000 0.000000
vt 1.000000 0.000000
vt 1.000000 1.000000
vt 0.000000 1.000000
vt 0.000000 0.000000
vt 1.000000 0.000000
vt 1.000000 1.000000
vt 0.000000 1.000000
vt 0.000000 0.000000
vt 1.000000 0.000000
vt 1.000000 1.000000
vt 0.000000 1.000000
vt 0.000000 0.000000
vt 1.000000 0.000000
vt 1.000000 1.000000
vt 0.000000 1.000000
vt 0.000000 0.000000
vt 1.000000 0.000000
vt 1.000000 1.000000
vt 0.000000 1.000000
vt 0.000000 0.000000
vt 1.000000 0.000000
vt 1.000000 1.000000
vt 0.000000 1.000000
vt 0.000000 0.000000
vt 1.000000 0.000000
vt 1.000000 1.000000
vt 0.000000 1.000000
vt 0.000000 0.000000
vt 1.000000 0.000000
vt 1.000000 1.000000
vt 0.000000 1.000000
vt 0.000000 0.000000
vt 1.000000 0.000000
vt 1.000000 1.000000
vt 0.000000 1.000000
vt 0.000000 0.000000
vt 1.000000 0.000000
vt 1.000000 1.000000
vt 0.000000 1.000000
vt 0.000000 0.000000
vt 1.000000 0.000000
vt 1.000000 1.000000
vt 0.000000 1.000000
vt 0.000000 0.000000
vt 1.000000 0.000000
vt 1.000000 1.000000
vt 0.000000 1.000000
vt 0.000000 0.000000
vt 1.000000 0.000000
vt 1.000000 1.000000
vt 0.000000 1.000000
vt 0.000000 0.000000
vt 1.000000 0.000000
vt 1.000000 1.000000
vt 0.000000 1.000000
vt 0.000000 0.000000
vt 1.000000 0.000000
vt 1.000000 1.000000
vt 0.000000 1.000000
vt 0.000000 0.000000
vt 1.000000 0.000000
vt 1.000000 1.000000
vt 0.000000 1.000000
vt 0.000000 0.000000
vt 1.000000 0.000000
vt 1.000000 1.000000
vt 0.000000 1.000000
vt 0.000000 0.000000
vt 1.000000 0.000000
vt 1.000000 1.000000
vt 0.000000 1.000000
vt 0.000000 0.000000
vt 1.000000 0.000000
vt 1.000000 1.000000
vt 0.000000 1.000000
vt 0.000000 0.000000
vt 1.000000 0.000000
vt 1.000000 1.000000
vt 0.000000 1.000000
vt 0.000000 0.000000
vt 1.000000 0.000000
vt 1.000000 1.000000
vt 0.000000 1.000000
vt 0.000000 0.000000
vt 1.000000 0.000000
vt 1.000000 1.000000
vt 0.000000 1.000000
vt 0.000000 0.000000
vt 1.000000 0.000000
vt 1.000000 1.000000
vt 0.000000 1.000000
vt 0.000000 0.000000
vt 1.000000 0.000000
vt 1.000000 1.000000
vt 0.000000 1.000000
vt 0.000000 0.000000
vt 1.000000 0.000000
vt 1.000000 1.000000
vt 0.000000 1.000000
vt 0.000000 0.000000
vt 1.000000 0.000000
vt 1.000000 1.000000
vt 0.000000 1.000000
vt 0.000000 0.000000
vt 1.000000 0.000000
vt 1.000000 1.000000
vt 0.000000 1.000000
vt 0.000000 0.000000
vt 1.000000 0.000000
vt 1.000000 1.000000
vt 0.000000 1.000000
vt 0.000000 0.000000
vt 1.000000 0.000000
vt 1.000000 1.000000
vt 0.000000 1.000000
vt 0.000000 0.000000
vt 1.000000 0.000000
vt 1.000000 1.000000
vt 0.000000 1.000000
vt 0.000000 0.000000
vt 1.000000 0.000000
vt 1.000000 1.000000
vt 0.000000 1.000000
vt 0.000000 0.000000
vt 1.000000 0.000000
vt 1.000000 1.000000
vt 0.000000 1.000000
vt 0.000000 0.000000
vt 1.000000 0.000000
vt 1.000000 1.000000
vt 0.000000 1.000000
vt 0.000000 0.000000
vt 1.000000 0.000000
vt 1.000000 1.000000
vt 0.000000 1.000000
vt 0.000000 0.000000
vt 1.000000 0.000000
vt 1.000000 1.000000
vt 0.000000 1.000000
vt 0.000000 0.000000
vt 1.000000 0.000000
vt 1.000000 1.000000
vt 0.000000 1.000000
vt 0.000000 0.000000
vt 1.000000 0.000000
vt 1.000000 1.000000
vt 0.000000 1.000000
vt 0.000000 0.000000
vt 1.000000 0.000000
vt 1.000000 1.000000
vt 0.000000 1.000000
vt 0.000000 0.000000
vt 1.000000 0.000000
vt 1.000000 1.000000
vt 0.000000 1.000000
vt 0.000000 0.000000
vt 1.000000 0.000000
vt 1.000000 1.000000
vt 0.000000 1.000000
vt 0.000000 0.000000
vt 1.000000 0.000000
vt 1.000000 1.000000
vt 0.000000 1.000000
vt 0.000000 0.000000
vt 1.000000 0.000000
vt 1.000000 1.000000
vt 0.000000 1.000000
vt 0.000000 0.000000
vt 1.000000 0.000000
vt 1.000000 1.000000
vt 0.000000 1.000000
vt 0.000000 0.000000
vt 1.000000 0.000000
vt 1.000000 1.000000
vt 0.000000 1.000000
vt 0.000000 0.000000
vt 1.000000 0.000000
vt 1.000000 1.000000
vt 0.000000 1.000000
vt 0.000000 0.000000
vt 1.000000 0.000000
vt 1.000000 1.000000
vt 0.000000 1.000000
vt 0.000000 0.000000
vt 1.000000 0.000000
vt 1.000000 1.000000
vt 0.000000 1.000000
vt 0.000000 0.000000
vt 1.000000 0.000000
vt 1.000000 1.000000
vt 0.000000 1.000000
vt 0.000000 0.000000
vt 1.000000 0.000000
vt 1.000000 1.000000
vt 0.000000 1.000000
vt 0.000000 0.000000
vt 1.000000 0.000000
vt 1.000000 1.000000
vt 0.000000 1.000000
vt 0.000000 0.000000
vt 1.000000 0.000000
vt 1.000000 1.000000
vt 0.000000 1.000000
vt 0.000000 0.000000
vt 1.000000 0.000000
vt 1.000000 1.000000
vt 0.000000 1.000000
vt 0.000000 0.000000
vt 1.000000 0.000000
vt 1.000000 1.000000
vt 0.000000 1.000000
vt 0.000000 0.000000
vt 1.000000 0.000000
vt 1.000000 1.000000
vt 0.000000 1.000000
vt 0.000000 0.000000
vt 1.000000 0.000000
vt 1.000000 1.000000
vt 0.000000 1.000000
vt 0.000000 0.000000
vt 1.000000 0.000000
vt 1.000000 1.000000
vt 0.000000 1.000000
vt 0.000000 0.000000
vt 1.000000 0.000000
vt 1.000000 1.000000
vt 0.000000 1.000000
vt 0.000000 0.000000
vt 1.000000 0.000000
vt 1.000000 1.000000
vt 0.000000 1.000000
vt 0.000000 0.000000
vt 1.000000 0.000000
vt 1.000000 1.000000
vt 0.000000 1.000000
vt 0.000000 0.000000
vt 1.000000 0.000000
vt 1.000000 1.000000
vt 0.000000 1.000000
vt 0.000000 0.000000
vt 1.000000 0.000000
vt 1.000000 1.000000
vt 0.000000 1.000000
vt 0.000000 0.000000
vt 1.000000 0.000000
vt 1.000000 1.000000
vt 0.000000 1.000000
vt 0.000000 0.000000
vt 1.000000 0.000000
vt 1.000000 1.000000
vt 0.000000 1.000000
vt 0.000000 0.000000
vt 1.000000 0.000000
vt 1.000000 1.000000
vt 0.000000 1.000000
vt 0.000000 0.000000
vt 1.000000 0.000000
vt 1.000000 1.000000
vt 0.000000 1.000000
vt 0.000000 0.000000
vt 1.000000 0.000000
vt 1.000000 1.000000
vt 0.000000 1.000000
vt 0.000000 0.000000
vt 1.000000 0.000000
vt 1.000000 1.000000
vt 0.000000 1.000000
vt 0.000000 0.000000
vt 1.000000 0.000000
vt 1.000000 1.000000
vt 0.000000 1.000000
vt 0.000000 0.000000
vt 1.000000 0.000000
vt 1.000000 1.000000
vt 0.000000 1.000000
vt 0.000000 0.000000
vt 1.000000 0.000000
vt 1.000000 1.000000
vt 0.000000 1.000000
vt 0.000000 0.000000
vt 1.000000 0.000000
vt 1.000000 1.000000
vt 0.000000 1.000000
vt 0.000000 0.000000
vt 1.000000 0.000000
vt 1.000000 1.000000
vt 0.000000 1.000000
vt 0.000000 0.000000
vt 1.000000 0.000000
vt 1.000000 1.000000
vt 0.000000 1.000000
vt 0.000000 0.000000
vt 1.000000 0.000000
vt 1.000000 1.000000
vt 0.000000 1.000000
vt 0.000000 0.000000
vt 1.000000 0.000000
vt 1.000000 1.000000
vt 0.000000 1.000000
vt 0.000000 0.000000
vt 1.000000 0.000000
vt 1.000000 1.000000
vt 0.000000 1.000000
vt 0.000000 0.000000
vt 1.000000 0.000000
vt 1.000000 1.000000
vt 0.000000 1.000000
vt 0.000000 0.000000
vt 1.000000 0.000000
vt 1.000000 1.000000
vt 0.000000 1.000000
vt 0.000000 0.000000
vt 1.000000 0.000000
vt 1.000000 1.000000
vt 0.000000 1.000000
vt 0.000000 0.000000
vt 1.000000 0.000000
vt 1.000000 1.000000
vt 0.000000 1.000000
vt 0.500000 0.500000
vt 0.000000 0.000000
vt 1.000000 0.000000
vt 0.500000 0.500000
vt 0.000000 1.000000
vt 1.000000 1.000000
vt 0.500000 0.500000
vt 0.000000 0.000000
vt 1.000000 0.000000
vt 0.500000 0.500000
vt 0.000000 1.000000
vt 1.000000 1.000000
vt 0.500000 0.500000
vt 0.000000 0.000000
vt 1.000000 0.000000
vt 0.500000 0.500000
vt 0.000000 1.000000
vt 1.000000 1.000000
vt 0.500000 0.500000
vt 0.000000 0.000000
vt 1.000000 0.000000
vt 0.500000 0.500000
vt 0.000000 1.000000
vt 1.000000 1.000000
vt 0.500000 0.500000
vt 0.000000 0.000000
vt 1.000000 0.000000
vt 0.500000 0.500000
vt 0.000000 1.000000
vt 1.000000 1.000000
vt 0.000000 0.000000
vt 1.000000 0.000000
vt 1.000000 1.000000
vt 0.000000 1.000000
vt 0.000000 0.000000
vt 1.000000 0.000000
vt 1.000000 1.000000
vt 0.000000 1.000000
vt 0.000000 0.000000
vt 1.000000 0.000000
vt 1.000000 1.000000
vt 0.000000 1.000000
vt 0.000000 0.000000
vt 1.000000 0.000000
vt 1.000000 1.000000
vt 0.000000 1.000000
vt 0.000000 0.000000
vt 1.000000 0.000000
vt 1.000000 1.000000
vt 0.000000 1.000000
vt 0.500000 0.500000
vt 0.000000 0.000000
vt 1.000000 0.000000
vt 0.500000 0.500000
vt 0.000000 1.000000
vt 1.000000 1.000000
vt 0.500000 0.500000
vt 0.000000 0.000000
vt 1.000000 0.000000
vt 0.500000 0.500000
vt 0.000000 1.000000
vt 1.000000 1.000000
vt 0.500000 0.500000
vt 0.000000 0.000000
vt 1.000000 0.000000
vt 0.500000 0.500000
vt 0.000000 1.000000
vt 1.000000 1.000000
vt 0.500000 0.500000
vt 0.000000 0.000000
vt 1.000000 0.000000
vt 0.500000 0.500000
vt 0.000000 1.000000
vt 1.000000 1.000000
vt 0.500000 0.500000
vt 0.000000 0.000000
vt 1.000000 0.000000
vt 0.500000 0.500000
vt 0.000000 1.000000
vt 1.000000 1.000000
vt 0.000000 0.000000
vt 1.000000 0.000000
vt 1.000000 1.000000
vt 0.000000 1.000000
vt 0.000000 0.000000
vt 1.000000 0.000000
vt 1.000000 1.000000
vt 0.000000 1.000000
vt 0.000000 0.000000
vt 1.000000 0.000000
vt 1.000000 1.000000
vt 0.000000 1.000000
vt 0.000000 0.000000
vt 1.000000 0.000000
vt 1.000000 1.000000
vt 0.000000 1.000000
vt 0.000000 0.000000
vt 1.000000 0.000000
vt 1.000000 1.000000
vt 0.000000 1.000000
vt 0.500000 0.500000
vt 0.000000 0.000000
vt 1.000000 0.000000
vt 0.500000 0.500000
vt 0.000000 1.000000
vt 1.000000 1.000000
vt 0.500000 0.500000
vt 0.000000 0.000000
vt 1.000000 0.000000
vt 0.500000 0.500000
vt 0.000000 1.000000
vt 1.000000 1.000000
vt 0.500000 0.500000
vt 0.000000 0.000000
vt 1.000000 0.000000
vt 0.500000 0.500000
vt 0.000000 1.000000
vt 1.000000 1.000000
vt 0.500000 0.500000
vt 0.000000 0.000000
vt 1.000000 0.000000
vt 0.500000 0.500000
vt 0.000000 1.000000
vt 1.000000 1.000000
vt 0.500000 0.500000
vt 0.000000 0.000000
vt 1.000000 0.000000
vt 0.500000 0.500000
vt 0.000000 1.000000
vt 1.000000 1.000000
vt 0.000000 0.000000
vt 1.000000 0.000000
vt 1.000000 1.000000
vt 0.000000 1.000000
vt 0.000000 0.000000
vt 1.000000 0.000000
vt 1.000000 1.000000
vt 0.000000 1.000000
vt 0.000000 0.000000
vt 1.000000 0.000000
vt 1.000000 1.000000
vt 0.000000 1.000000
vt 0.000000 0.000000
vt 1.000000 0.000000
vt 1.000000 1.000000
vt 0.000000 1.000000
vt 0.000000 0.000000
vt 1.000000 0.000000
vt 1.000000 1.000000
vt 0.000000 1.000000
vt 0.500000 0.500000
vt 0.000000 0.000000
vt 1.000000 0.000000
vt 0.500000 0.500000
vt 0.000000 1.000000
vt 1.000000 1.000000
vt 0.500000 0.500000
vt 0.000000 0.000000
vt 1.000000 0.000000
vt 0.500000 0.500000
vt 0.000000 1.000000
vt 1.000000 1.000000
vt 0.500000 0.500000
vt 0.000000 0.000000
vt 1.000000 0.000000
vt 0.500000 0.500000
vt 0.000000 1.000000
vt 1.000000 1.000000
vt 0.500000 0.500000
vt 0.000000 0.000000
vt 1.000000 0.000000
vt 0.500000 0.500000
vt 0.000000 1.000000
vt 1.000000 1.000000
vt 0.500000 0.500000
vt 0.000000 0.000000
vt 1.000000 0.000000
vt 0.500000 0.500000
vt 0.000000 1.000000
vt 1.000000 1.000000
usemtl Tarp
f 1/1 2/2 3/3
f 1/1 3/3 4/4
f 5/5 6/6 7/7
f 5/5 7/7 8/8
f 9/9 10/10 11/11
f 9/9 11/11 12/12
f 13/13 14/14 15/15
f 13/13 15/15 16/16
f 17/17 18/18 19/19
f 17/17 19/19 20/20
f 21/21 22/22 23/23
f 21/21 23/23 24/24
f 25/25 26/26 27/27
f 25/25 27/27 28/28
f 29/29 30/30 31/31
f 29/29 31/31 32/32
f 33/33 34/34 35/35
f 33/33 35/35 36/36
f 37/37 38/38 39/39
f 37/37 39/39 40/40
f 41/41 42/42 43/43
f 41/41 43/43 44/44
f 45/45 46/46 47/47
f 45/45 47/47 48/48
f 49/49 50/50 51/51
f 49/49 51/51 52/52
f 53/53 54/54 55/55
f 53/53 55/55 56/56
f 57/57 58/58 59/59
f 57/57 59/59 60/60
f 61/61 62/62 63/63
f 61/61 63/63 64/64
f 65/65 66/66 67/67
f 65/65 67/67 68/68
f 69/69 70/70 71/71
f 69/69 71/71 72/72
f 73/73 74/74 75/75
f 73/73 75/75 76/76
f 77/77 78/78 79/79
f 77/77 79/79 80/80
f 81/81 82/82 83/83
f 81/81 83/83 84/84
f 85/85 86/86 87/87
f 85/85 87/87 88/88
f 89/89 90/90 91/91
f 89/89 91/91 92/92
f 93/93 94/94 95/95
f 93/93 95/95 96/96
f 97/97 98/98 99/99
f 97/97 99/99 100/100
f 101/101 102/102 103/103
f 101/101 103/103 104/104
f 105/105 106/106 107/107
f 105/105 107/107 108/108
f 109/109 110/110 111/111
f 109/109 111/111 112/112
f 113/113 114/114 115/115
f 113/113 115/115 116/116
f 117/117 118/118 119/119
f 117/117 119/119 120/120
f 121/121 122/122 123/123
f 121/121 123/123 124/124
f 125/125 126/126 127/127
f 125/125 127/127 128/128
f 129/129 130/130 131/131
f 129/129 131/131 132/132
f 133/133 134/134 135/135
f 133/133 135/135 136/136
f 137/137 138/138 139/139
f 137/137 139/139 140/140
f 141/141 142/142 143/143
f 141/141 143/143 144/144
f 145/145 146/146 147/147
f 145/145 147/147 148/148
f 149/149 150/150 151/151
f 149/149 151/151 152/152
f 153/153 154/154 155/155
f 153/153 155/155 156/156
f 157/157 158/158 159/159
f 157/157 159/159 160/160
f 161/161 162/162 163/163
f 161/161 163/163 164/164
f 165/165 166/166 167/167
f 165/165 167/167 168/168
f 169/169 170/170 171/171
f 169/169 171/171 172/172
f 173/173 174/174 175/175
f 173/173 175/175 176/176
f 177/177 178/178 179/179
f 177/177 179/179 180/180
f 181/181 182/182 183/183
f 181/181 183/183 184/184
f 185/185 186/186 187/187
f 185/185 187/187 188/188
f 189/189 190/190 191/191
f 189/189 191/191 192/192
f 193/193 194/194 195/195
f 193/193 195/195 196/196
f 197/197 198/198 199/199
f 197/197 199/199 200/200
f 201/201 202/202 203/203
f 201/201 203/203 204/204
f 205/205 206/206 207/207
f 205/205 207/207 208/208
f 209/209 210/210 211/211
f 209/209 211/211 212/212
f 213/213 214/214 215/215
f 213/213 215/215 216/216
f 217/217 218/218 219/219
f 217/217 219/219 220/220
f 221/221 222/222 223/223
f 221/221 223/223 224/224
f 225/225 226/226 227/227
f 225/225 227/227 228/228
f 229/229 230/230 231/231
f 229/229 231/231 232/232
f 233/233 234/234 235/235
f 233/233 235/235 236/236
f 237/237 238/238 239/239
f 237/237 239/239 240/240
usemtl Cloth
f 241/241 242/242 243/243
f 241/241 243/243 244/244
f 245/245 246/246 247/247
f 245/245 247/247 248/248
f 249/249 250/250 251/251
f 249/249 251/251 252/252
f 253/253 254/254 255/255
f 253/253 255/255 256/256
f 257/257 258/258 259/259
f 257/257 259/259 260/260
f 261/261 262/262 263/263
f 261/261 263/263 264/264
f 265/265 266/266 267/267
f 265/265 267/267 268/268
f 269/269 270/270 271/271
f 269/269 271/271 272/272
f 273/273 274/274 275/275
f 273/273 275/275 276/276
f 277/277 278/278 279/279
f 277/277 279/279 280/280
f 281/281 282/282 283/283
f 281/281 283/283 284/284
f 285/285 286/286 287/287
f 285/285 287/287 288/288
f 289/289 290/290 291/291
f 289/289 291/291 292/292
f 293/293 294/294 295/295
f 293/293 295/295 296/296
f 297/297 298/298 299/299
f 297/297 299/299 300/300
f 301/301 302/302 303/303
f 301/301 303/303 304/304
f 305/305 306/306 307/307
f 305/305 307/307 308/308
f 309/309 310/310 311/311
f 309/309 311/311 312/312
f 313/313 314/314 315/315
f 313/313 315/315 316/316
f 317/317 318/318 319/319
f 317/317 319/319 320/320
f 321/321 322/322 323/323
f 321/321 323/323 324/324
f 325/325 326/326 327/327
f 325/325 327/327 328/328
f 329/329 330/330 331/331
f 329/329 331/331 332/332
f 333/333 334/334 335/335
f 333/333 335/335 336/336
usemtl Rope
f 337/337 338/338 339/339
f 337/337 339/339 340/340
f 341/341 342/342 343/343
f 341/341 343/343 344/344
f 345/345 346/346 347/347
f 345/345 347/347 348/348
f 349/349 350/350 351/351
f 349/349 351/351 352/352
f 353/353 354/354 355/355
f 353/353 355/355 356/356
f 357/357 358/358 359/359
f 357/357 359/359 360/360
f 361/361 362/362 363/363
f 364/364 365/365 366/366
f 367/367 368/368 369/369
f 370/370 371/371 372/372
f 373/373 374/374 375/375
f 376/376 377/377 378/378
f 379/379 380/380 381/381
f 382/382 383/383 384/384
f 385/385 386/386 387/387
f 388/388 389/389 390/390
f 391/391 392/392 393/393
f 394/394 395/395 396/396
f 397/397 398/398 399/399
f 397/397 399/399 400/400
f 401/401 402/402 403/403
f 401/401 403/403 404/404
f 405/405 406/406 407/407
f 405/405 407/407 408/408
f 409/409 410/410 411/411
f 409/409 411/411 412/412
f 413/413 414/414 415/415
f 413/413 415/415 416/416
f 417/417 418/418 419/419
f 417/417 419/419 420/420
f 421/421 422/422 423/423
f 424/424 425/425 426/426
f 427/427 428/428 429/429
f 430/430 431/431 432/432
f 433/433 434/434 435/435
f 436/436 437/437 438/438
f 439/439 440/440 441/441
f 442/442 443/443 444/444
f 445/445 446/446 447/447
f 448/448 449/449 450/450
f 451/451 452/452 453/453
f 454/454 455/455 456/456
usemtl Cloth
f 457/457 458/458 459/459
f 457/457 459/459 460/460
f 461/461 462/462 463/463
f 461/461 463/463 464/464
f 465/465 466/466 467/467
f 465/465 467/467 468/468
f 469/469 470/470 471/471
f 469/469 471/471 472/472
f 473/473 474/474 475/475
f 473/473 475/475 476/476
f 477/477 478/478 479/479
f 477/477 479/479 480/480
f 481/481 482/482 483/483
f 481/481 483/483 484/484
f 485/485 486/486 487/487
f 485/485 487/487 488/488
f 489/489 490/490 491/491
f 489/489 491/491 492/492
f 493/493 494/494 495/495
f 493/493 495/495 496/496
f 497/497 498/498 499/499
f 497/497 499/499 500/500
f 501/501 502/502 503/503
f 501/501 503/503 504/504
f 505/505 506/506 507/507
f 505/505 507/507 508/508
f 509/509 510/510 511/511
f 509/509 511/511 512/512
f 513/513 514/514 515/515
f 513/513 515/515 516/516
f 517/517 518/518 519/519
f 517/517 519/519 520/520
f 521/521 522/522 523/523
f 521/521 523/523 524/524
f 525/525 526/526 527/527
f 525/525 527/527 528/528
f 529/529 530/530 531/531
f 529/529 531/531 532/532
f 533/533 534/534 535/535
f 533/533 535/535 536/536
f 537/537 538/538 539/539
f 537/537 539/539 540/540
f 541/541 542/542 543/543
f 541/541 543/543 544/544
f 545/545 546/546 547/547
f 545/545 547/547 548/548
f 549/549 550/550 551/551
f 549/549 551/551 552/552
f 553/553 554/554 555/555
f 553/553 555/555 556/556
f 557/557 558/558 559/559
f 557/557 559/559 560/560
f 561/561 562/562 563/563
f 561/561 563/563 564/564
f 565/565 566/566 567/567
f 565/565 567/567 568/568
f 569/569 570/570 571/571
f 569/569 571/571 572/572
f 573/573 574/574 575/575
f 573/573 575/575 576/576
f 577/577 578/578 579/579
f 577/577 579/579 580/580
f 581/581 582/582 583/583
f 581/581 583/583 584/584
f 585/585 586/586 587/587
f 585/585 587/587 588/588
f 589/589 590/590 591/591
f 589/589 591/591 592/592
f 593/593 594/594 595/595
f 593/593 595/595 596/596
f 597/597 598/598 599/599
f 597/597 599/599 600/600
usemtl Rope
f 601/601 602/602 603/603
f 601/601 603/603 604/604
f 605/605 606/606 607/607
f 605/605 607/607 608/608
f 609/609 610/610 611/611
f 609/609 611/611 612/612
f 613/613 614/614 615/615
f 613/613 615/615 616/616
f 617/617 618/618 619/619
f 617/617 619/619 620/620
f 621/621 622/622 623/623
f 621/621 623/623 624/624
f 625/625 626/626 627/627
f 625/625 627/627 628/628
f 629/629 630/630 631/631
f 629/629 631/631 632/632
f 633/633 634/634 635/635
f 633/633 635/635 636/636
f 637/637 638/638 639/639
f 637/637 639/639 640/640
f 641/641 642/642 643/643
f 641/641 643/643 644/644
f 645/645 646/646 647/647
f 645/645 647/647 648/648
f 649/649 650/650 651/651
f 649/649 651/651 652/652
f 653/653 654/654 655/655
f 653/653 655/655 656/656
f 657/657 658/658 659/659
f 657/657 659/659 660/660
f 661/661 662/662 663/663
f 661/661 663/663 664/664
f 665/665 666/666 667/667
f 665/665 667/667 668/668
f 669/669 670/670 671/671
f 669/669 671/671 672/672
f 673/673 674/674 675/675
f 673/673 675/675 676/676
f 677/677 678/678 679/679
f 677/677 679/679 680/680
f 681/681 682/682 683/683
f 681/681 683/683 684/684
f 685/685 686/686 687/687
f 685/685 687/687 688/688
f 689/689 690/690 691/691
f 689/689 691/691 692/692
f 693/693 694/694 695/695
f 693/693 695/695 696/696
f 697/697 698/698 699/699
f 697/697 699/699 700/700
f 701/701 702/702 703/703
f 701/701 703/703 704/704
f 705/705 706/706 707/707
f 705/705 707/707 708/708
f 709/709 710/710 711/711
f 709/709 711/711 712/712
f 713/713 714/714 715/715
f 713/713 715/715 716/716
f 717/717 718/718 719/719
f 717/717 719/719 720/720
f 721/721 722/722 723/723
f 721/721 723/723 724/724
f 725/725 726/726 727/727
f 725/725 727/727 728/728
f 729/729 730/730 731/731
f 729/729 731/731 732/732
f 733/733 734/734 735/735
f 733/733 735/735 736/736
f 737/737 738/738 739/739
f 737/737 739/739 740/740
f 741/741 742/742 743/743
f 741/741 743/743 744/744
f 745/745 746/746 747/747
f 745/745 747/747 748/748
f 749/749 750/750 751/751
f 749/749 751/751 752/752
f 753/753 754/754 755/755
f 753/753 755/755 756/756
f 757/757 758/758 759/759
f 757/757 759/759 760/760
f 761/761 762/762 763/763
f 761/761 763/763 764/764
f 765/765 766/766 767/767
f 765/765 767/767 768/768
f 769/769 770/770 771/771
f 769/769 771/771 772/772
f 773/773 774/774 775/775
f 773/773 775/775 776/776
f 777/777 778/778 779/779
f 777/777 779/779 780/780
f 781/781 782/782 783/783
f 781/781 783/783 784/784
f 785/785 786/786 787/787
f 785/785 787/787 788/788
f 789/789 790/790 791/791
f 789/789 791/791 792/792
f 793/793 794/794 795/795
f 793/793 795/795 796/796
f 797/797 798/798 799/799
f 797/797 799/799 800/800
f 801/801 802/802 803/803
f 801/801 803/803 804/804
f 805/805 806/806 807/807
f 805/805 807/807 808/808
f 809/809 810/810 811/811
f 809/809 811/811 812/812
f 813/813 814/814 815/815
f 813/813 815/815 816/816
f 817/817 818/818 819/819
f 817/817 819/819 820/820
f 821/821 822/822 823/823
f 821/821 823/823 824/824
f 825/825 826/826 827/827
f 825/825 827/827 828/828
f 829/829 830/830 831/831
f 829/829 831/831 832/832
f 833/833 834/834 835/835
f 833/833 835/835 836/836
f 837/837 838/838 839/839
f 837/837 839/839 840/840
f 841/841 842/842 843/843
f 841/841 843/843 844/844
f 845/845 846/846 847/847
f 845/845 847/847 848/848
f 849/849 850/850 851/851
f 849/849 851/851 852/852
f 853/853 854/854 855/855
f 853/853 855/855 856/856
f 857/857 858/858 859/859
f 857/857 859/859 860/860
f 861/861 862/862 863/863
f 861/861 863/863 864/864
f 865/865 866/866 867/867
f 865/865 867/867 868/868
f 869/869 870/870 871/871
f 869/869 871/871 872/872
f 873/873 874/874 875/875
f 873/873 875/875 876/876
f 877/877 878/878 879/879
f 877/877 879/879 880/880
f 881/881 882/882 883/883
f 881/881 883/883 884/884
f 885/885 886/886 887/887
f 885/885 887/887 888/888
f 889/889 890/890 891/891
f 889/889 891/891 892/892
f 893/893 894/894 895/895
f 893/893 895/895 896/896
f 897/897 898/898 899/899
f 897/897 899/899 900/900
f 901/901 902/902 903/903
f 901/901 903/903 904/904
f 905/905 906/906 907/907
f 905/905 907/907 908/908
f 909/909 910/910 911/911
f 909/909 911/911 912/912
f 913/913 914/914 915/915
f 913/913 915/915 916/916
f 917/917 918/918 919/919
f 917/917 919/919 920/920
f 921/921 922/922 923/923
f 921/921 923/923 924/924
f 925/925 926/926 927/927
f 925/925 927/927 928/928
f 929/929 930/930 931/931
f 929/929 931/931 932/932
f 933/933 934/934 935/935
f 933/933 935/935 936/936
f 937/937 938/938 939/939
f 937/937 939/939 940/940
f 941/941 942/942 943/943
f 941/941 943/943 944/944
f 945/945 946/946 947/947
f 945/945 947/947 948/948
f 949/949 950/950 951/951
f 949/949 951/951 952/952
f 953/953 954/954 955/955
f 953/953 955/955 956/956
f 957/957 958/958 959/959
f 957/957 959/959 960/960
f 961/961 962/962 963/963
f 961/961 963/963 964/964
f 965/965 966/966 967/967
f 965/965 967/967 968/968
f 969/969 970/970 971/971
f 969/969 971/971 972/972
f 973/973 974/974 975/975
f 973/973 975/975 976/976
f 977/977 978/978 979/979
f 977/977 979/979 980/980
f 981/981 982/982 983/983
f 981/981 983/983 984/984
f 985/985 986/986 987/987
f 985/985 987/987 988/988
f 989/989 990/990 991/991
f 989/989 991/991 992/992
f 993/993 994/994 995/995
f 993/993 995/995 996/996
f 997/997 998/998 999/999
f 997/997 999/999 1000/1000
f 1001/1001 1002/1002 1003/1003
f 1001/1001 1003/1003 1004/1004
f 1005/1005 1006/1006 1007/1007
f 1008/1008 1009/1009 1010/1010
f 1011/1011 1012/1012 1013/1013
f 1014/1014 1015/1015 1016/1016
f 1017/1017 1018/1018 1019/1019
f 1020/1020 1021/1021 1022/1022
f 1023/1023 1024/1024 1025/1025
f 1026/1026 1027/1027 1028/1028
f 1029/1029 1030/1030 1031/1031
f 1032/1032 1033/1033 1034/1034
f 1035/1035 1036/1036 1037/1037
f 1035/1035 1037/1037 1038/1038
f 1039/1039 1040/1040 1041/1041
f 1039/1039 1041/1041 1042/1042
f 1043/1043 1044/1044 1045/1045
f 1043/1043 1045/1045 1046/1046
f 1047/1047 1048/1048 1049/1049
f 1047/1047 1049/1049 1050/1050
f 1051/1051 1052/1052 1053/1053
f 1051/1051 1053/1053 1054/1054
f 1055/1055 1056/1056 1057/1057
f 1058/1058 1059/1059 1060/1060
f 1061/1061 1062/1062 1063/1063
f 1064/1064 1065/1065 1066/1066
f 1067/1067 1068/1068 1069/1069
f 1070/1070 1071/1071 1072/1072
f 1073/1073 1074/1074 1075/1075
f 1076/1076 1077/1077 1078/1078
f 1079/1079 1080/1080 1081/1081
f 1082/1082 1083/1083 1084/1084
f 1085/1085 1086/1086 1087/1087
f 1085/1085 1087/1087 1088/1088
f 1089/1089 1090/1090 1091/1091
f 1089/1089 1091/1091 1092/1092
f 1093/1093 1094/1094 1095/1095
f 1093/1093 1095/1095 1096/1096
f 1097/1097 1098/1098 1099/1099
f 1097/1097 1099/1099 1100/1100
f 1101/1101 1102/1102 1103/1103
f 1101/1101 1103/1103 1104/1104
f 1105/1105 1106/1106 1107/1107
f 1108/1108 1109/1109 1110/1110
f 1111/1111 1112/1112 1113/1113
f 1114/1114 1115/1115 1116/1116
f 1117/1117 1118/1118 1119/1119
f 1120/1120 1121/1121 1122/1122
f 1123/1123 1124/1124 1125/1125
f 1126/1126 1127/1127 1128/1128
f 1129/1129 1130/1130 1131/1131
f 1132/1132 1133/1133 1134/1134
f 1135/1135 1136/1136 1137/1137
f 1135/1135 1137/1137 1138/1138
f 1139/1139 1140/1140 1141/1141
f 1139/1139 1141/1141 1142/1142
f 1143/1143 1144/1144 1145/1145
f 1143/1143 1145/1145 1146/1146
f 1147/1147 1148/1148 1149/1149
f 1147/1147 1149/1149 1150/1150
f 1151/1151 1152/1152 1153/1153
f 1151/1151 1153/1153 1154/1154
f 1155/1155 1156/1156 1157/1157
f 1158/1158 1159/1159 1160/1160
f 1161/1161 1162/1162 1163/1163
f 1164/1164 1165/1165 1166/1166
f 1167/1167 1168/1168 1169/1169
f 1170/1170 1171/1171 1172/1172
f 1173/1173 1174/1174 1175/1175
f 1176/1176 1177/1177 1178/1178
f 1179/1179 1180/1180 1181/1181
f 1182/1182 1183/1183 1184/1184
