mtllib ../../Materials/project_oen.mtl
o en-019_signal_hill_dressing_set__stones
v 0.120000 0.000000 0.000000
v 0.217197 0.005332 0.096831
v 0.264000 0.000000 0.000000
v 0.264000 0.000000 0.000000
v 0.217197 0.005332 0.096831
v 0.220304 0.064492 0.126015
v 0.302477 0.059160 0.000000
v 0.302477 0.059160 0.000000
v 0.220304 0.064492 0.126015
v 0.184665 0.116692 0.092856
v 0.240940 0.111360 0.000000
v 0.120000 0.158400 0.009000
v 0.240940 0.111360 0.000000
v 0.184665 0.116692 0.092856
v 0.120000 0.000000 0.000000
v 0.090942 -0.001690 0.143875
v 0.217197 0.005332 0.096831
v 0.217197 0.005332 0.096831
v 0.090942 -0.001690 0.143875
v 0.085163 0.057470 0.161088
v 0.220304 0.064492 0.126015
v 0.220304 0.064492 0.126015
v 0.085163 0.057470 0.161088
v 0.092760 0.109670 0.098698
v 0.184665 0.116692 0.092856
v 0.120000 0.158400 0.009000
v 0.184665 0.116692 0.092856
v 0.092760 0.109670 0.098698
v 0.120000 0.000000 0.000000
v -0.012657 -0.004796 0.057257
v 0.090942 -0.001690 0.143875
v 0.090942 -0.001690 0.143875
v -0.012657 -0.004796 0.057257
v -0.044905 0.054364 0.060921
v 0.085163 0.057470 0.161088
v 0.085163 0.057470 0.161088
v -0.044905 0.054364 0.060921
v 0.013193 0.106564 0.045498
v 0.092760 0.109670 0.098698
v 0.120000 0.158400 0.009000
v 0.092760 0.109670 0.098698
v 0.013193 0.106564 0.045498
v 0.120000 0.000000 0.000000
v -0.018533 0.003211 -0.054604
v -0.012657 -0.004796 0.057257
v -0.012657 -0.004796 0.057257
v -0.018533 0.003211 -0.054604
v -0.021891 0.062371 -0.071311
v -0.044905 0.054364 0.060921
v -0.044905 0.054364 0.060921
v -0.021891 0.062371 -0.071311
v 0.026110 0.114571 -0.051330
v 0.013193 0.106564 0.045498
v 0.120000 0.158400 0.009000
v 0.013193 0.106564 0.045498
v 0.026110 0.114571 -0.051330
v 0.120000 0.000000 0.000000
v 0.091127 0.003778 -0.144638
v -0.018533 0.003211 -0.054604
v -0.018533 0.003211 -0.054604
v 0.091127 0.003778 -0.144638
v 0.084436 0.062938 -0.158100
v -0.021891 0.062371 -0.071311
v -0.021891 0.062371 -0.071311
v 0.084436 0.062938 -0.158100
v 0.092352 0.115138 -0.097021
v 0.026110 0.114571 -0.051330
v 0.120000 0.158400 0.009000
v 0.026110 0.114571 -0.051330
v 0.092352 0.115138 -0.097021
v 0.120000 0.000000 0.000000
v 0.213717 -0.004409 -0.100922
v 0.091127 0.003778 -0.144638
v 0.091127 0.003778 -0.144638
v 0.213717 -0.004409 -0.100922
v 0.233931 0.054751 -0.109995
v 0.084436 0.062938 -0.158100
v 0.084436 0.062938 -0.158100
v 0.233931 0.054751 -0.109995
v 0.192314 0.106951 -0.083864
v 0.092352 0.115138 -0.097021
v 0.120000 0.158400 0.009000
v 0.092352 0.115138 -0.097021
v 0.192314 0.106951 -0.083864
v 0.120000 0.000000 0.000000
v 0.264000 0.000000 0.000000
v 0.213717 -0.004409 -0.100922
v 0.213717 -0.004409 -0.100922
v 0.264000 0.000000 0.000000
v 0.302477 0.059160 0.000000
v 0.233931 0.054751 -0.109995
v 0.233931 0.054751 -0.109995
v 0.302477 0.059160 0.000000
v 0.240940 0.111360 0.000000
v 0.192314 0.106951 -0.083864
v 0.120000 0.158400 0.009000
v 0.192314 0.106951 -0.083864
v 0.240940 0.111360 0.000000
v -0.140100 0.000000 0.128343
v -0.091733 0.004767 0.255704
v 0.007519 0.001750 0.168432
v 0.007519 0.001750 0.168432
v -0.091733 0.004767 0.255704
v -0.089542 0.063927 0.289507
v 0.029060 0.060910 0.175124
v 0.029060 0.060910 0.175124
v -0.089542 0.063927 0.289507
v -0.103204 0.116127 0.234949
v -0.036036 0.113110 0.164920
v -0.135952 0.158400 0.136858
v -0.036036 0.113110 0.164920
v -0.103204 0.116127 0.234949
v -0.140100 0.000000 0.128343
v -0.209726 -0.003261 0.252480
v -0.091733 0.004767 0.255704
v -0.091733 0.004767 0.255704
v -0.209726 -0.003261 0.252480
v -0.230758 0.055899 0.256344
v -0.089542 0.063927 0.289507
v -0.089542 0.063927 0.289507
v -0.230758 0.055899 0.256344
v -0.206782 0.108099 0.211027
v -0.103204 0.116127 0.234949
v -0.135952 0.158400 0.136858
v -0.103204 0.116127 0.234949
v -0.206782 0.108099 0.211027
v -0.140100 0.000000 0.128343
v -0.296497 -0.003733 0.142843
v -0.209726 -0.003261 0.252480
v -0.209726 -0.003261 0.252480
v -0.296497 -0.003733 0.142843
v -0.314857 0.055427 0.145766
v -0.230758 0.055899 0.256344
v -0.230758 0.055899 0.256344
v -0.314857 0.055427 0.145766
v -0.247161 0.107627 0.141963
v -0.206782 0.108099 0.211027
v -0.135952 0.158400 0.136858
v -0.206782 0.108099 0.211027
v -0.247161 0.107627 0.141963
v -0.140100 0.000000 0.128343
v -0.240105 0.004445 0.031214
v -0.296497 -0.003733 0.142843
v -0.296497 -0.003733 0.142843
v -0.240105 0.004445 0.031214
v -0.246694 0.063605 0.007808
v -0.314857 0.055427 0.145766
v -0.314857 0.055427 0.145766
v -0.246694 0.063605 0.007808
v -0.219857 0.115805 0.050411
v -0.247161 0.107627 0.141963
v -0.135952 0.158400 0.136858
v -0.247161 0.107627 0.141963
v -0.219857 0.115805 0.050411
v -0.140100 0.000000 0.128343
v -0.125930 0.002323 -0.014821
v -0.240105 0.004445 0.031214
v -0.240105 0.004445 0.031214
v -0.125930 0.002323 -0.014821
v -0.121594 0.061483 -0.018239
v -0.246694 0.063605 0.007808
v -0.246694 0.063605 0.007808
v -0.121594 0.061483 -0.018239
v -0.126806 0.113683 0.031130
v -0.219857 0.115805 0.050411
v -0.135952 0.158400 0.136858
v -0.219857 0.115805 0.050411
v -0.126806 0.113683 0.031130
v -0.140100 0.000000 0.128343
v -0.006636 -0.005181 0.062965
v -0.125930 0.002323 -0.014821
v -0.125930 0.002323 -0.014821
v -0.006636 -0.005181 0.062965
v 0.005515 0.053979 0.047649
v -0.121594 0.061483 -0.018239
v -0.121594 0.061483 -0.018239
v 0.005515 0.053979 0.047649
v -0.050704 0.106179 0.065655
v -0.126806 0.113683 0.031130
v -0.135952 0.158400 0.136858
v -0.126806 0.113683 0.031130
v -0.050704 0.106179 0.065655
v -0.140100 0.000000 0.128343
v 0.007519 0.001750 0.168432
v -0.006636 -0.005181 0.062965
v -0.006636 -0.005181 0.062965
v 0.007519 0.001750 0.168432
v 0.029060 0.060910 0.175124
v 0.005515 0.053979 0.047649
v 0.005515 0.053979 0.047649
v 0.029060 0.060910 0.175124
v -0.036036 0.113110 0.164920
v -0.050704 0.106179 0.065655
v -0.135952 0.158400 0.136858
v -0.050704 0.106179 0.065655
v -0.036036 0.113110 0.164920
v 0.022731 0.000000 -0.259004
v 0.024470 0.003687 -0.112596
v 0.146926 0.003311 -0.183827
v 0.146926 0.003311 -0.183827
v 0.024470 0.003687 -0.112596
v 0.024766 0.062847 -0.091579
v 0.152242 0.062471 -0.161944
v 0.152242 0.062471 -0.161944
v 0.024766 0.062847 -0.091579
v 0.024322 0.115047 -0.156066
v 0.104694 0.114671 -0.186208
v 0.030578 0.158400 -0.251895
v 0.104694 0.114671 -0.186208
v 0.024322 0.115047 -0.156066
v 0.022731 0.000000 -0.259004
v -0.089068 -0.004480 -0.173763
v 0.024470 0.003687 -0.112596
v 0.024470 0.003687 -0.112596
v -0.089068 -0.004480 -0.173763
v -0.118536 0.054680 -0.169778
v 0.024766 0.062847 -0.091579
v 0.024766 0.062847 -0.091579
v -0.118536 0.054680 -0.169778
v -0.070533 0.106880 -0.193749
v 0.024322 0.115047 -0.156066
v 0.030578 0.158400 -0.251895
v 0.024322 0.115047 -0.156066
v -0.070533 0.106880 -0.193749
v 0.022731 0.000000 -0.259004
v -0.129397 -0.002267 -0.285028
v -0.089068 -0.004480 -0.173763
v -0.089068 -0.004480 -0.173763
v -0.129397 -0.002267 -0.285028
v -0.134009 0.056893 -0.292906
v -0.118536 0.054680 -0.169778
v -0.118536 0.054680 -0.169778
v -0.134009 0.056893 -0.292906
v -0.078719 0.109093 -0.283894
v -0.070533 0.106880 -0.193749
v 0.030578 0.158400 -0.251895
v -0.070533 0.106880 -0.193749
v -0.078719 0.109093 -0.283894
v 0.022731 0.000000 -0.259004
v -0.035395 0.005199 -0.391262
v -0.129397 -0.002267 -0.285028
v -0.129397 -0.002267 -0.285028
v -0.035395 0.005199 -0.391262
v -0.047274 0.064359 -0.406493
v -0.134009 0.056893 -0.292906
v -0.134009 0.056893 -0.292906
v -0.047274 0.064359 -0.406493
v -0.031980 0.116559 -0.349354
v -0.078719 0.109093 -0.283894
v 0.030578 0.158400 -0.251895
v -0.078719 0.109093 -0.283894
v -0.031980 0.116559 -0.349354
v 0.022731 0.000000 -0.259004
v 0.085075 0.000618 -0.378208
v -0.035395 0.005199 -0.391262
v -0.035395 0.005199 -0.391262
v 0.085075 0.000618 -0.378208
v 0.099965 0.059778 -0.386294
v -0.047274 0.064359 -0.406493
v -0.047274 0.064359 -0.406493
v 0.099965 0.059778 -0.386294
v 0.072580 0.111978 -0.354421
v -0.031980 0.116559 -0.349354
v 0.030578 0.158400 -0.251895
v -0.031980 0.116559 -0.349354
v 0.072580 0.111978 -0.354421
v 0.022731 0.000000 -0.259004
v 0.171786 -0.005395 -0.288713
v 0.085075 0.000618 -0.378208
v 0.085075 0.000618 -0.378208
v 0.171786 -0.005395 -0.288713
v 0.175297 0.053765 -0.297801
v 0.099965 0.059778 -0.386294
v 0.099965 0.059778 -0.386294
v 0.175297 0.053765 -0.297801
v 0.124143 0.105965 -0.286820
v 0.072580 0.111978 -0.354421
v 0.030578 0.158400 -0.251895
v 0.072580 0.111978 -0.354421
v 0.124143 0.105965 -0.286820
v 0.022731 0.000000 -0.259004
v 0.146926 0.003311 -0.183827
v 0.171786 -0.005395 -0.288713
v 0.171786 -0.005395 -0.288713
v 0.146926 0.003311 -0.183827
v 0.152242 0.062471 -0.161944
v 0.175297 0.053765 -0.297801
v 0.175297 0.053765 -0.297801
v 0.152242 0.062471 -0.161944
v 0.104694 0.114671 -0.186208
v 0.124143 0.105965 -0.286820
v 0.030578 0.158400 -0.251895
v 0.124143 0.105965 -0.286820
v 0.104694 0.114671 -0.186208
v 0.200785 0.000000 0.261888
v 0.160007 0.002210 0.401843
v 0.281145 0.004515 0.372824
v 0.281145 0.004515 0.372824
v 0.160007 0.002210 0.401843
v 0.148086 0.061370 0.407664
v 0.283797 0.063675 0.404150
v 0.283797 0.063675 0.404150
v 0.148086 0.061370 0.407664
v 0.161324 0.113570 0.354296
v 0.259955 0.115875 0.357948
v 0.211486 0.158400 0.266826
v 0.259955 0.115875 0.357948
v 0.161324 0.113570 0.354296
v 0.200785 0.000000 0.261888
v 0.054287 -0.005215 0.304959
v 0.160007 0.002210 0.401843
v 0.160007 0.002210 0.401843
v 0.054287 -0.005215 0.304959
v 0.033603 0.053945 0.312394
v 0.148086 0.061370 0.407664
v 0.148086 0.061370 0.407664
v 0.033603 0.053945 0.312394
v 0.098049 0.106145 0.301393
v 0.161324 0.113570 0.354296
v 0.211486 0.158400 0.266826
v 0.161324 0.113570 0.354296
v 0.098049 0.106145 0.301393
v 0.200785 0.000000 0.261888
v 0.078045 -0.000556 0.191957
v 0.054287 -0.005215 0.304959
v 0.054287 -0.005215 0.304959
v 0.078045 -0.000556 0.191957
v 0.072127 0.058604 0.173655
v 0.033603 0.053945 0.312394
v 0.033603 0.053945 0.312394
v 0.072127 0.058604 0.173655
v 0.106488 0.110804 0.203748
v 0.098049 0.106145 0.301393
v 0.211486 0.158400 0.266826
v 0.098049 0.106145 0.301393
v 0.106488 0.110804 0.203748
v 0.200785 0.000000 0.261888
v 0.183336 0.005392 0.117445
v 0.078045 -0.000556 0.191957
v 0.078045 -0.000556 0.191957
v 0.183336 0.005392 0.117445
v 0.178044 0.064552 0.113176
v 0.072127 0.058604 0.173655
v 0.072127 0.058604 0.173655
v 0.178044 0.064552 0.113176
v 0.184120 0.116752 0.165439
v 0.106488 0.110804 0.203748
v 0.211486 0.158400 0.266826
v 0.106488 0.110804 0.203748
v 0.184120 0.116752 0.165439
v 0.200785 0.000000 0.261888
v 0.310054 -0.001153 0.173805
v 0.183336 0.005392 0.117445
v 0.183336 0.005392 0.117445
v 0.310054 -0.001153 0.173805
v 0.322395 0.058007 0.155562
v 0.178044 0.064552 0.113176
v 0.178044 0.064552 0.113176
v 0.322395 0.058007 0.155562
v 0.275279 0.110207 0.178819
v 0.184120 0.116752 0.165439
v 0.211486 0.158400 0.266826
v 0.184120 0.116752 0.165439
v 0.275279 0.110207 0.178819
v 0.200785 0.000000 0.261888
v 0.340180 -0.005026 0.274691
v 0.310054 -0.001153 0.173805
v 0.310054 -0.001153 0.173805
v 0.340180 -0.005026 0.274691
v 0.349910 0.054134 0.277721
v 0.322395 0.058007 0.155562
v 0.322395 0.058007 0.155562
v 0.349910 0.054134 0.277721
v 0.312772 0.106334 0.272090
v 0.275279 0.110207 0.178819
v 0.211486 0.158400 0.266826
v 0.275279 0.110207 0.178819
v 0.312772 0.106334 0.272090
v 0.200785 0.000000 0.261888
v 0.281145 0.004515 0.372824
v 0.340180 -0.005026 0.274691
v 0.340180 -0.005026 0.274691
v 0.281145 0.004515 0.372824
v 0.283797 0.063675 0.404150
v 0.349910 0.054134 0.277721
v 0.349910 0.054134 0.277721
v 0.283797 0.063675 0.404150
v 0.259955 0.115875 0.357948
v 0.312772 0.106334 0.272090
v 0.211486 0.158400 0.266826
v 0.312772 0.106334 0.272090
v 0.259955 0.115875 0.357948
v -0.393885 0.000000 -0.069672
v -0.479341 0.000494 0.039704
v -0.360757 0.005231 0.070652
v -0.360757 0.005231 0.070652
v -0.479341 0.000494 0.039704
v -0.503345 0.059654 0.043421
v -0.356093 0.064391 0.094270
v -0.356093 0.064391 0.094270
v -0.503345 0.059654 0.043421
v -0.467646 0.111854 0.011129
v -0.364459 0.116591 0.031889
v -0.381486 0.158400 -0.067439
v -0.364459 0.116591 0.031889
v -0.467646 0.111854 0.011129
v -0.393885 0.000000 -0.069672
v -0.550822 -0.005388 -0.066431
v -0.479341 0.000494 0.039704
v -0.479341 0.000494 0.039704
v -0.550822 -0.005388 -0.066431
v -0.557164 0.053772 -0.065479
v -0.503345 0.059654 0.043421
v -0.503345 0.059654 0.043421
v -0.557164 0.053772 -0.065479
v -0.497562 0.105972 -0.066538
v -0.467646 0.111854 0.011129
v -0.381486 0.158400 -0.067439
v -0.467646 0.111854 0.011129
v -0.497562 0.105972 -0.066538
v -0.393885 0.000000 -0.069672
v -0.478587 0.001214 -0.181896
v -0.550822 -0.005388 -0.066431
v -0.550822 -0.005388 -0.066431
v -0.478587 0.001214 -0.181896
v -0.493448 0.060374 -0.197476
v -0.557164 0.053772 -0.065479
v -0.557164 0.053772 -0.065479
v -0.493448 0.060374 -0.197476
v -0.471773 0.112574 -0.148172
v -0.497562 0.105972 -0.066538
v -0.381486 0.158400 -0.067439
v -0.497562 0.105972 -0.066538
v -0.471773 0.112574 -0.148172
v -0.393885 0.000000 -0.069672
v -0.365351 0.005003 -0.201061
v -0.478587 0.001214 -0.181896
v -0.478587 0.001214 -0.181896
v -0.365351 0.005003 -0.201061
v -0.357937 0.064163 -0.207596
v -0.493448 0.060374 -0.197476
v -0.493448 0.060374 -0.197476
v -0.357937 0.064163 -0.207596
v -0.370243 0.116363 -0.170976
v -0.471773 0.112574 -0.148172
v -0.381486 0.158400 -0.067439
v -0.471773 0.112574 -0.148172
v -0.370243 0.116363 -0.170976
v -0.393885 0.000000 -0.069672
v -0.255826 -0.002800 -0.126606
v -0.365351 0.005003 -0.201061
v -0.365351 0.005003 -0.201061
v -0.255826 -0.002800 -0.126606
v -0.251848 0.056360 -0.143903
v -0.357937 0.064163 -0.207596
v -0.357937 0.064163 -0.207596
v -0.251848 0.056360 -0.143903
v -0.301576 0.108560 -0.123969
v -0.370243 0.116363 -0.170976
v -0.381486 0.158400 -0.067439
v -0.370243 0.116363 -0.170976
v -0.301576 0.108560 -0.123969
v -0.393885 0.000000 -0.069672
v -0.275095 -0.004115 -0.009040
v -0.255826 -0.002800 -0.126606
v -0.255826 -0.002800 -0.126606
v -0.275095 -0.004115 -0.009040
v -0.250167 0.055045 -0.002325
v -0.251848 0.056360 -0.143903
v -0.251848 0.056360 -0.143903
v -0.250167 0.055045 -0.002325
v -0.281645 0.107245 -0.028417
v -0.301576 0.108560 -0.123969
v -0.381486 0.158400 -0.067439
v -0.301576 0.108560 -0.123969
v -0.281645 0.107245 -0.028417
v -0.393885 0.000000 -0.069672
v -0.360757 0.005231 0.070652
v -0.275095 -0.004115 -0.009040
v -0.275095 -0.004115 -0.009040
v -0.360757 0.005231 0.070652
v -0.356093 0.064391 0.094270
v -0.250167 0.055045 -0.002325
v -0.250167 0.055045 -0.002325
v -0.356093 0.064391 0.094270
v -0.364459 0.116591 0.031889
v -0.281645 0.107245 -0.028417
v -0.381486 0.158400 -0.067439
v -0.281645 0.107245 -0.028417
v -0.364459 0.116591 0.031889
v 0.396565 0.000000 -0.252263
v 0.268369 -0.001275 -0.182317
v 0.386279 0.005383 -0.104606
v 0.386279 0.005383 -0.104606
v 0.268369 -0.001275 -0.182317
v 0.247102 0.057885 -0.172275
v 0.383430 0.064543 -0.096391
v 0.383430 0.064543 -0.096391
v 0.247102 0.057885 -0.172275
v 0.304057 0.110085 -0.189944
v 0.386575 0.116743 -0.154936
v 0.409325 0.158400 -0.252975
v 0.386575 0.116743 -0.154936
v 0.304057 0.110085 -0.189944
v 0.396565 0.000000 -0.252263
v 0.257304 -0.004979 -0.292080
v 0.268369 -0.001275 -0.182317
v 0.268369 -0.001275 -0.182317
v 0.257304 -0.004979 -0.292080
v 0.252428 0.054181 -0.303204
v 0.247102 0.057885 -0.172275
v 0.247102 0.057885 -0.172275
v 0.252428 0.054181 -0.303204
v 0.293342 0.106381 -0.286521
v 0.304057 0.110085 -0.189944
v 0.409325 0.158400 -0.252975
v 0.304057 0.110085 -0.189944
v 0.293342 0.106381 -0.286521
v 0.396565 0.000000 -0.252263
v 0.349197 0.002854 -0.389402
v 0.257304 -0.004979 -0.292080
v 0.257304 -0.004979 -0.292080
v 0.349197 0.002854 -0.389402
v 0.335239 0.062014 -0.394787
v 0.252428 0.054181 -0.303204
v 0.252428 0.054181 -0.303204
v 0.335239 0.062014 -0.394787
v 0.350795 0.114214 -0.342916
v 0.293342 0.106381 -0.286521
v 0.409325 0.158400 -0.252975
v 0.293342 0.106381 -0.286521
v 0.350795 0.114214 -0.342916
v 0.396565 0.000000 -0.252263
v 0.475455 0.004074 -0.358684
v 0.349197 0.002854 -0.389402
v 0.349197 0.002854 -0.389402
v 0.475455 0.004074 -0.358684
v 0.486222 0.063234 -0.377657
v 0.335239 0.062014 -0.394787
v 0.335239 0.062014 -0.394787
v 0.486222 0.063234 -0.377657
v 0.451609 0.115434 -0.350367
v 0.350795 0.114214 -0.342916
v 0.409325 0.158400 -0.252975
v 0.350795 0.114214 -0.342916
v 0.451609 0.115434 -0.350367
v 0.396565 0.000000 -0.252263
v 0.537740 -0.004146 -0.271975
v 0.475455 0.004074 -0.358684
v 0.475455 0.004074 -0.358684
v 0.537740 -0.004146 -0.271975
v 0.544983 0.055014 -0.277059
v 0.486222 0.063234 -0.377657
v 0.486222 0.063234 -0.377657
v 0.544983 0.055014 -0.277059
v 0.505805 0.107214 -0.268540
v 0.451609 0.115434 -0.350367
v 0.409325 0.158400 -0.252975
v 0.451609 0.115434 -0.350367
v 0.505805 0.107214 -0.268540
v 0.396565 0.000000 -0.252263
v 0.493592 -0.002760 -0.152896
v 0.537740 -0.004146 -0.271975
v 0.537740 -0.004146 -0.271975
v 0.493592 -0.002760 -0.152896
v 0.523114 0.056400 -0.150102
v 0.544983 0.055014 -0.277059
v 0.544983 0.055014 -0.277059
v 0.523114 0.056400 -0.150102
v 0.488956 0.108600 -0.185731
v 0.505805 0.107214 -0.268540
v 0.409325 0.158400 -0.252975
v 0.505805 0.107214 -0.268540
v 0.488956 0.108600 -0.185731
v 0.396565 0.000000 -0.252263
v 0.386279 0.005383 -0.104606
v 0.493592 -0.002760 -0.152896
v 0.493592 -0.002760 -0.152896
v 0.386279 0.005383 -0.104606
v 0.383430 0.064543 -0.096391
v 0.523114 0.056400 -0.150102
v 0.523114 0.056400 -0.150102
v 0.383430 0.064543 -0.096391
v 0.386575 0.116743 -0.154936
v 0.488956 0.108600 -0.185731
v 0.409325 0.158400 -0.252975
v 0.488956 0.108600 -0.185731
v 0.386575 0.116743 -0.154936
v -0.140186 0.000000 0.521486
v -0.292645 -0.002907 0.553305
v -0.195552 0.004954 0.649508
v -0.195552 0.004954 0.649508
v -0.292645 -0.002907 0.553305
v -0.300897 0.056253 0.562173
v -0.211842 0.064114 0.652827
v -0.211842 0.064114 0.652827
v -0.300897 0.056253 0.562173
v -0.240664 0.108453 0.552387
v -0.189509 0.116314 0.613030
v -0.128442 0.158400 0.517905
v -0.189509 0.116314 0.613030
v -0.240664 0.108453 0.552387
v -0.140186 0.000000 0.521486
v -0.247477 -0.004033 0.435527
v -0.292645 -0.002907 0.553305
v -0.292645 -0.002907 0.553305
v -0.247477 -0.004033 0.435527
v -0.263177 0.055127 0.421474
v -0.300897 0.056253 0.562173
v -0.300897 0.056253 0.562173
v -0.263177 0.055127 0.421474
v -0.236065 0.107327 0.459639
v -0.240664 0.108453 0.552387
v -0.128442 0.158400 0.517905
v -0.240664 0.108453 0.552387
v -0.236065 0.107327 0.459639
v -0.140186 0.000000 0.521486
v -0.145820 0.004185 0.385026
v -0.247477 -0.004033 0.435527
v -0.247477 -0.004033 0.435527
v -0.145820 0.004185 0.385026
v -0.147385 0.063345 0.380101
v -0.263177 0.055127 0.421474
v -0.263177 0.055127 0.421474
v -0.147385 0.063345 0.380101
v -0.145017 0.115545 0.419998
v -0.236065 0.107327 0.459639
v -0.128442 0.158400 0.517905
v -0.236065 0.107327 0.459639
v -0.145017 0.115545 0.419998
v -0.140186 0.000000 0.521486
v -0.021595 0.002706 0.441022
v -0.145820 0.004185 0.385026
v -0.145820 0.004185 0.385026
v -0.021595 0.002706 0.441022
v -0.017070 0.061866 0.417224
v -0.147385 0.063345 0.380101
v -0.147385 0.063345 0.380101
v -0.017070 0.061866 0.417224
v -0.061741 0.114066 0.443802
v -0.145017 0.115545 0.419998
v -0.128442 0.158400 0.517905
v -0.145017 0.115545 0.419998
v -0.061741 0.114066 0.443802
v -0.140186 0.000000 0.521486
v -0.011135 -0.005043 0.548483
v -0.021595 0.002706 0.441022
v -0.021595 0.002706 0.441022
v -0.011135 -0.005043 0.548483
v 0.012237 0.054117 0.552105
v -0.017070 0.061866 0.417224
v -0.017070 0.061866 0.417224
v 0.012237 0.054117 0.552105
v -0.020928 0.106317 0.540277
v -0.061741 0.114066 0.443802
v -0.128442 0.158400 0.517905
v -0.061741 0.114066 0.443802
v -0.020928 0.106317 0.540277
v -0.140186 0.000000 0.521486
v -0.071875 -0.001107 0.639389
v -0.011135 -0.005043 0.548483
v -0.011135 -0.005043 0.548483
v -0.071875 -0.001107 0.639389
v -0.054390 0.058053 0.645627
v 0.012237 0.054117 0.552105
v 0.012237 0.054117 0.552105
v -0.054390 0.058053 0.645627
v -0.083973 0.110253 0.613048
v -0.020928 0.106317 0.540277
v -0.128442 0.158400 0.517905
v -0.020928 0.106317 0.540277
v -0.083973 0.110253 0.613048
v -0.140186 0.000000 0.521486
v -0.195552 0.004954 0.649508
v -0.071875 -0.001107 0.639389
v -0.071875 -0.001107 0.639389
v -0.195552 0.004954 0.649508
v -0.211842 0.064114 0.652827
v -0.054390 0.058053 0.645627
v -0.054390 0.058053 0.645627
v -0.211842 0.064114 0.652827
v -0.189509 0.116314 0.613030
v -0.083973 0.110253 0.613048
v -0.128442 0.158400 0.517905
v -0.083973 0.110253 0.613048
v -0.189509 0.116314 0.613030
v -0.281154 0.000000 -0.541343
v -0.429426 -0.004225 -0.549963
v -0.384013 0.003991 -0.447590
v -0.384013 0.003991 -0.447590
v -0.429426 -0.004225 -0.549963
v -0.433354 0.054935 -0.552490
v -0.403643 0.063151 -0.436738
v -0.403643 0.063151 -0.436738
v -0.433354 0.054935 -0.552490
v -0.387495 0.107135 -0.549000
v -0.357795 0.115351 -0.460534
v -0.271695 0.158400 -0.547406
v -0.357795 0.115351 -0.460534
v -0.387495 0.107135 -0.549000
v -0.281154 0.000000 -0.541343
v -0.355407 -0.002651 -0.662884
v -0.429426 -0.004225 -0.549963
v -0.429426 -0.004225 -0.549963
v -0.355407 -0.002651 -0.662884
v -0.376226 0.056509 -0.669284
v -0.433354 0.054935 -0.552490
v -0.433354 0.054935 -0.552490
v -0.376226 0.056509 -0.669284
v -0.353256 0.108709 -0.621438
v -0.387495 0.107135 -0.549000
v -0.271695 0.158400 -0.547406
v -0.387495 0.107135 -0.549000
v -0.353256 0.108709 -0.621438
v -0.281154 0.000000 -0.541343
v -0.236760 0.005065 -0.660774
v -0.355407 -0.002651 -0.662884
v -0.355407 -0.002651 -0.662884
v -0.236760 0.005065 -0.660774
v -0.229610 0.064225 -0.678584
v -0.376226 0.056509 -0.669284
v -0.376226 0.056509 -0.669284
v -0.229610 0.064225 -0.678584
v -0.249305 0.116425 -0.648389
v -0.353256 0.108709 -0.621438
v -0.271695 0.158400 -0.547406
v -0.353256 0.108709 -0.621438
v -0.249305 0.116425 -0.648389
v -0.281154 0.000000 -0.541343
v -0.146270 0.001045 -0.591274
v -0.236760 0.005065 -0.660774
v -0.236760 0.005065 -0.660774
v -0.146270 0.001045 -0.591274
v -0.141250 0.060205 -0.605067
v -0.229610 0.064225 -0.678584
v -0.229610 0.064225 -0.678584
v -0.141250 0.060205 -0.605067
v -0.180497 0.112405 -0.584025
v -0.249305 0.116425 -0.648389
v -0.271695 0.158400 -0.547406
v -0.249305 0.116425 -0.648389
v -0.180497 0.112405 -0.584025
v -0.281154 0.000000 -0.541343
v -0.166810 -0.005397 -0.469045
v -0.146270 0.001045 -0.591274
v -0.146270 0.001045 -0.591274
v -0.166810 -0.005397 -0.469045
v -0.132872 0.053763 -0.466363
v -0.141250 0.060205 -0.605067
v -0.141250 0.060205 -0.605067
v -0.132872 0.053763 -0.466363
v -0.170861 0.105963 -0.493484
v -0.180497 0.112405 -0.584025
v -0.271695 0.158400 -0.547406
v -0.180497 0.112405 -0.584025
v -0.170861 0.105963 -0.493484
v -0.281154 0.000000 -0.541343
v -0.256416 0.000666 -0.419916
v -0.166810 -0.005397 -0.469045
v -0.166810 -0.005397 -0.469045
v -0.256416 0.000666 -0.419916
v -0.253155 0.059826 -0.397582
v -0.132872 0.053763 -0.466363
v -0.132872 0.053763 -0.466363
v -0.253155 0.059826 -0.397582
v -0.263977 0.112026 -0.428861
v -0.170861 0.105963 -0.493484
v -0.271695 0.158400 -0.547406
v -0.170861 0.105963 -0.493484
v -0.263977 0.112026 -0.428861
v -0.281154 0.000000 -0.541343
v -0.384013 0.003991 -0.447590
v -0.256416 0.000666 -0.419916
v -0.256416 0.000666 -0.419916
v -0.384013 0.003991 -0.447590
v -0.403643 0.063151 -0.436738
v -0.253155 0.059826 -0.397582
v -0.253155 0.059826 -0.397582
v -0.403643 0.063151 -0.436738
v -0.357795 0.115351 -0.460534
v -0.263977 0.112026 -0.428861
v -0.271695 0.158400 -0.547406
v -0.263977 0.112026 -0.428861
v -0.357795 0.115351 -0.460534
v 0.274092 0.085000 -0.031199
v 0.240050 -0.043000 -0.027019
v 0.231935 -0.037500 -0.014940
v 0.264514 0.085000 -0.018940
v 0.264514 0.085000 -0.018940
v 0.231935 -0.037500 -0.014940
v 0.221139 -0.032000 -0.024697
v 0.252256 0.085000 -0.028517
v 0.252256 0.085000 -0.028517
v 0.221139 -0.032000 -0.024697
v 0.229254 -0.037500 -0.036776
v 0.261833 0.085000 -0.040776
v 0.261833 0.085000 -0.040776
v 0.229254 -0.037500 -0.036776
v 0.240050 -0.043000 -0.027019
v 0.274092 0.085000 -0.031199
v 0.240050 -0.043000 -0.027019
v 0.147046 -0.136703 -0.015599
v 0.142927 -0.127176 -0.004011
v 0.231935 -0.037500 -0.014940
v 0.231935 -0.037500 -0.014940
v 0.142927 -0.127176 -0.004011
v 0.136128 -0.117650 -0.014259
v 0.221139 -0.032000 -0.024697
v 0.221139 -0.032000 -0.024697
v 0.136128 -0.117650 -0.014259
v 0.140246 -0.127176 -0.025847
v 0.229254 -0.037500 -0.036776
v 0.229254 -0.037500 -0.036776
v 0.140246 -0.127176 -0.025847
v 0.147046 -0.136703 -0.015599
v 0.240050 -0.043000 -0.027019
v 0.147046 -0.136703 -0.015599
v 0.020000 -0.171000 0.000000
v 0.021341 -0.160000 0.010918
v 0.142927 -0.127176 -0.004011
v 0.142927 -0.127176 -0.004011
v 0.021341 -0.160000 0.010918
v 0.020000 -0.149000 0.000000
v 0.136128 -0.117650 -0.014259
v 0.136128 -0.117650 -0.014259
v 0.020000 -0.149000 0.000000
v 0.018659 -0.160000 -0.010918
v 0.140246 -0.127176 -0.025847
v 0.140246 -0.127176 -0.025847
v 0.018659 -0.160000 -0.010918
v 0.020000 -0.171000 0.000000
v 0.147046 -0.136703 -0.015599
v 0.020000 -0.171000 0.000000
v -0.107046 -0.136703 0.015599
v -0.100246 -0.127176 0.025847
v 0.021341 -0.160000 0.010918
v 0.021341 -0.160000 0.010918
v -0.100246 -0.127176 0.025847
v -0.096128 -0.117650 0.014259
v 0.020000 -0.149000 0.000000
v 0.020000 -0.149000 0.000000
v -0.096128 -0.117650 0.014259
v -0.102927 -0.127176 0.004011
v 0.018659 -0.160000 -0.010918
v 0.018659 -0.160000 -0.010918
v -0.102927 -0.127176 0.004011
v -0.107046 -0.136703 0.015599
v 0.020000 -0.171000 0.000000
v -0.107046 -0.136703 0.015599
v -0.200050 -0.043000 0.027019
v -0.189254 -0.037500 0.036776
v -0.100246 -0.127176 0.025847
v -0.100246 -0.127176 0.025847
v -0.189254 -0.037500 0.036776
v -0.181139 -0.032000 0.024697
v -0.096128 -0.117650 0.014259
v -0.096128 -0.117650 0.014259
v -0.181139 -0.032000 0.024697
v -0.191935 -0.037500 0.014940
v -0.102927 -0.127176 0.004011
v -0.102927 -0.127176 0.004011
v -0.191935 -0.037500 0.014940
v -0.200050 -0.043000 0.027019
v -0.107046 -0.136703 0.015599
v -0.200050 -0.043000 0.027019
v -0.234092 0.085000 0.031199
v -0.221833 0.085000 0.040776
v -0.189254 -0.037500 0.036776
v -0.189254 -0.037500 0.036776
v -0.221833 0.085000 0.040776
v -0.212256 0.085000 0.028517
v -0.181139 -0.032000 0.024697
v -0.181139 -0.032000 0.024697
v -0.212256 0.085000 0.028517
v -0.224514 0.085000 0.018940
v -0.191935 -0.037500 0.014940
v -0.191935 -0.037500 0.014940
v -0.224514 0.085000 0.018940
v -0.234092 0.085000 0.031199
v -0.200050 -0.043000 0.027019
v -0.234092 0.085000 0.031199
v -0.200050 0.213000 0.027019
v -0.189254 0.207500 0.036776
v -0.221833 0.085000 0.040776
v -0.221833 0.085000 0.040776
v -0.189254 0.207500 0.036776
v -0.181139 0.202000 0.024697
v -0.212256 0.085000 0.028517
v -0.212256 0.085000 0.028517
v -0.181139 0.202000 0.024697
v -0.191935 0.207500 0.014940
v -0.224514 0.085000 0.018940
v -0.224514 0.085000 0.018940
v -0.191935 0.207500 0.014940
v -0.200050 0.213000 0.027019
v -0.234092 0.085000 0.031199
v -0.200050 0.213000 0.027019
v -0.107046 0.306703 0.015599
v -0.100246 0.297176 0.025847
v -0.189254 0.207500 0.036776
v -0.189254 0.207500 0.036776
v -0.100246 0.297176 0.025847
v -0.096128 0.287650 0.014259
v -0.181139 0.202000 0.024697
v -0.181139 0.202000 0.024697
v -0.096128 0.287650 0.014259
v -0.102927 0.297176 0.004011
v -0.191935 0.207500 0.014940
v -0.191935 0.207500 0.014940
v -0.102927 0.297176 0.004011
v -0.107046 0.306703 0.015599
v -0.200050 0.213000 0.027019
v -0.107046 0.306703 0.015599
v 0.020000 0.341000 -0.000000
v 0.021341 0.330000 0.010918
v -0.100246 0.297176 0.025847
v -0.100246 0.297176 0.025847
v 0.021341 0.330000 0.010918
v 0.020000 0.319000 -0.000000
v -0.096128 0.287650 0.014259
v -0.096128 0.287650 0.014259
v 0.020000 0.319000 -0.000000
v 0.018659 0.330000 -0.010918
v -0.102927 0.297176 0.004011
v -0.102927 0.297176 0.004011
v 0.018659 0.330000 -0.010918
v 0.020000 0.341000 -0.000000
v -0.107046 0.306703 0.015599
v 0.020000 0.341000 -0.000000
v 0.147046 0.306703 -0.015599
v 0.142927 0.297176 -0.004011
v 0.021341 0.330000 0.010918
v 0.021341 0.330000 0.010918
v 0.142927 0.297176 -0.004011
v 0.136128 0.287650 -0.014259
v 0.020000 0.319000 -0.000000
v 0.020000 0.319000 -0.000000
v 0.136128 0.287650 -0.014259
v 0.140246 0.297176 -0.025847
v 0.018659 0.330000 -0.010918
v 0.018659 0.330000 -0.010918
v 0.140246 0.297176 -0.025847
v 0.147046 0.306703 -0.015599
v 0.020000 0.341000 -0.000000
v 0.147046 0.306703 -0.015599
v 0.240050 0.213000 -0.027019
v 0.231935 0.207500 -0.014940
v 0.142927 0.297176 -0.004011
v 0.142927 0.297176 -0.004011
v 0.231935 0.207500 -0.014940
v 0.221139 0.202000 -0.024697
v 0.136128 0.287650 -0.014259
v 0.136128 0.287650 -0.014259
v 0.221139 0.202000 -0.024697
v 0.229254 0.207500 -0.036776
v 0.140246 0.297176 -0.025847
v 0.140246 0.297176 -0.025847
v 0.229254 0.207500 -0.036776
v 0.240050 0.213000 -0.027019
v 0.147046 0.306703 -0.015599
v 0.240050 0.213000 -0.027019
v 0.274092 0.085000 -0.031199
v 0.264514 0.085000 -0.018940
v 0.231935 0.207500 -0.014940
v 0.231935 0.207500 -0.014940
v 0.264514 0.085000 -0.018940
v 0.252256 0.085000 -0.028517
v 0.221139 0.202000 -0.024697
v 0.221139 0.202000 -0.024697
v 0.252256 0.085000 -0.028517
v 0.261833 0.085000 -0.040776
v 0.229254 0.207500 -0.036776
v 0.229254 0.207500 -0.036776
v 0.261833 0.085000 -0.040776
v 0.274092 0.085000 -0.031199
v 0.240050 0.213000 -0.027019
v -0.376575 0.051054 -0.356716
v -0.366089 0.052013 -0.357746
v -0.324848 0.088402 0.095685
v -0.335334 0.087443 0.096716
v -0.366089 0.052013 -0.357746
v -0.361865 0.042320 -0.357353
v -0.320624 0.078709 0.096079
v -0.324848 0.088402 0.095685
v -0.361865 0.042320 -0.357353
v -0.369741 0.035371 -0.356079
v -0.328500 0.071760 0.097353
v -0.320624 0.078709 0.096079
v -0.369741 0.035371 -0.356079
v -0.378832 0.040769 -0.355685
v -0.337591 0.077158 0.097746
v -0.328500 0.071760 0.097353
v -0.378832 0.040769 -0.355685
v -0.376575 0.051054 -0.356716
v -0.335334 0.087443 0.096716
v -0.337591 0.077158 0.097746
v -0.370621 0.044305 -0.356716
v -0.366089 0.052013 -0.357746
v -0.376575 0.051054 -0.356716
v -0.329379 0.080695 0.096716
v -0.335334 0.087443 0.096716
v -0.324848 0.088402 0.095685
v -0.370621 0.044305 -0.356716
v -0.361865 0.042320 -0.357353
v -0.366089 0.052013 -0.357746
v -0.329379 0.080695 0.096716
v -0.324848 0.088402 0.095685
v -0.320624 0.078709 0.096079
v -0.370621 0.044305 -0.356716
v -0.369741 0.035371 -0.356079
v -0.361865 0.042320 -0.357353
v -0.329379 0.080695 0.096716
v -0.320624 0.078709 0.096079
v -0.328500 0.071760 0.097353
v -0.370621 0.044305 -0.356716
v -0.378832 0.040769 -0.355685
v -0.369741 0.035371 -0.356079
v -0.329379 0.080695 0.096716
v -0.328500 0.071760 0.097353
v -0.337591 0.077158 0.097746
v -0.370621 0.044305 -0.356716
v -0.376575 0.051054 -0.356716
v -0.378832 0.040769 -0.355685
v -0.329379 0.080695 0.096716
v -0.337591 0.077158 0.097746
v -0.335334 0.087443 0.096716
v 0.398057 0.069575 -0.104722
v 0.387553 0.070296 -0.105762
v 0.341051 0.040927 0.343682
v 0.351555 0.040206 0.344722
v 0.387553 0.070296 -0.105762
v 0.384923 0.080537 -0.105365
v 0.338421 0.051167 0.344079
v 0.341051 0.040927 0.343682
v 0.384923 0.080537 -0.105365
v 0.393802 0.086145 -0.104079
v 0.347301 0.056775 0.345365
v 0.338421 0.051167 0.344079
v 0.393802 0.086145 -0.104079
v 0.401919 0.079370 -0.103682
v 0.355418 0.050001 0.345762
v 0.347301 0.056775 0.345365
v 0.401919 0.079370 -0.103682
v 0.398057 0.069575 -0.104722
v 0.351555 0.040206 0.344722
v 0.355418 0.050001 0.345762
v 0.393251 0.077185 -0.104722
v 0.387553 0.070296 -0.105762
v 0.398057 0.069575 -0.104722
v 0.346749 0.047815 0.344722
v 0.351555 0.040206 0.344722
v 0.341051 0.040927 0.343682
v 0.393251 0.077185 -0.104722
v 0.384923 0.080537 -0.105365
v 0.387553 0.070296 -0.105762
v 0.346749 0.047815 0.344722
v 0.341051 0.040927 0.343682
v 0.338421 0.051167 0.344079
v 0.393251 0.077185 -0.104722
v 0.393802 0.086145 -0.104079
v 0.384923 0.080537 -0.105365
v 0.346749 0.047815 0.344722
v 0.338421 0.051167 0.344079
v 0.347301 0.056775 0.345365
v 0.393251 0.077185 -0.104722
v 0.401919 0.079370 -0.103682
v 0.393802 0.086145 -0.104079
v 0.346749 0.047815 0.344722
v 0.347301 0.056775 0.345365
v 0.355418 0.050001 0.345762
v 0.393251 0.077185 -0.104722
v 0.398057 0.069575 -0.104722
v 0.401919 0.079370 -0.103682
v 0.346749 0.047815 0.344722
v 0.355418 0.050001 0.345762
v 0.351555 0.040206 0.344722
v -0.500000 0.000000 0.250000
v -0.505414 0.003776 0.416904
v -0.366731 0.003813 0.341277
v -0.366731 0.003813 0.341277
v -0.505414 0.003776 0.416904
v -0.506458 0.067866 0.437696
v -0.362208 0.067903 0.368632
v -0.362208 0.067903 0.368632
v -0.506458 0.067866 0.437696
v -0.505052 0.124416 0.365044
v -0.411538 0.124453 0.337757
v -0.490614 0.171600 0.257735
v -0.411538 0.124453 0.337757
v -0.505052 0.124416 0.365044
v -0.500000 0.000000 0.250000
v -0.632707 -0.005010 0.339239
v -0.505414 0.003776 0.416904
v -0.505414 0.003776 0.416904
v -0.632707 -0.005010 0.339239
v -0.665568 0.059080 0.344594
v -0.506458 0.067866 0.437696
v -0.506458 0.067866 0.437696
v -0.665568 0.059080 0.344594
v -0.607654 0.115630 0.320352
v -0.505052 0.124416 0.365044
v -0.490614 0.171600 0.257735
v -0.505052 0.124416 0.365044
v -0.607654 0.115630 0.320352
v -0.500000 0.000000 0.250000
v -0.667565 -0.002187 0.213281
v -0.632707 -0.005010 0.339239
v -0.632707 -0.005010 0.339239
v -0.667565 -0.002187 0.213281
v -0.671782 0.061903 0.202054
v -0.665568 0.059080 0.344594
v -0.665568 0.059080 0.344594
v -0.671782 0.061903 0.202054
v -0.613119 0.118453 0.215340
v -0.607654 0.115630 0.320352
v -0.490614 0.171600 0.257735
v -0.607654 0.115630 0.320352
v -0.613119 0.118453 0.215340
v -0.500000 0.000000 0.250000
v -0.558496 0.005704 0.096024
v -0.667565 -0.002187 0.213281
v -0.667565 -0.002187 0.213281
v -0.558496 0.005704 0.096024
v -0.571726 0.069794 0.081000
v -0.671782 0.061903 0.202054
v -0.671782 0.061903 0.202054
v -0.571726 0.069794 0.081000
v -0.555842 0.126344 0.146368
v -0.613119 0.118453 0.215340
v -0.490614 0.171600 0.257735
v -0.613119 0.118453 0.215340
v -0.555842 0.126344 0.146368
v -0.500000 0.000000 0.250000
v -0.421349 0.000379 0.120126
v -0.558496 0.005704 0.096024
v -0.558496 0.005704 0.096024
v -0.421349 0.000379 0.120126
v -0.403991 0.064469 0.109093
v -0.571726 0.069794 0.081000
v -0.571726 0.069794 0.081000
v -0.403991 0.064469 0.109093
v -0.438859 0.121019 0.142917
v -0.555842 0.126344 0.146368
v -0.490614 0.171600 0.257735
v -0.555842 0.126344 0.146368
v -0.438859 0.121019 0.142917
v -0.500000 0.000000 0.250000
v -0.332416 -0.005824 0.222976
v -0.421349 0.000379 0.120126
v -0.421349 0.000379 0.120126
v -0.332416 -0.005824 0.222976
v -0.328648 0.058266 0.214774
v -0.403991 0.064469 0.109093
v -0.403991 0.064469 0.109093
v -0.328648 0.058266 0.214774
v -0.383901 0.114816 0.225160
v -0.438859 0.121019 0.142917
v -0.490614 0.171600 0.257735
v -0.438859 0.121019 0.142917
v -0.383901 0.114816 0.225160
v -0.500000 0.000000 0.250000
v -0.366731 0.003813 0.341277
v -0.332416 -0.005824 0.222976
v -0.332416 -0.005824 0.222976
v -0.366731 0.003813 0.341277
v -0.362208 0.067903 0.368632
v -0.328648 0.058266 0.214774
v -0.328648 0.058266 0.214774
v -0.362208 0.067903 0.368632
v -0.411538 0.124453 0.337757
v -0.383901 0.114816 0.225160
v -0.490614 0.171600 0.257735
v -0.383901 0.114816 0.225160
v -0.411538 0.124453 0.337757
v 0.480000 0.000000 -0.240000
v 0.416981 0.001501 -0.084989
v 0.543674 0.004884 -0.089883
v 0.543674 0.004884 -0.089883
v 0.416981 0.001501 -0.084989
v 0.397699 0.060661 -0.081297
v 0.547891 0.064044 -0.053765
v 0.547891 0.064044 -0.053765
v 0.397699 0.060661 -0.081297
v 0.420897 0.112861 -0.134707
v 0.530814 0.116244 -0.119626
v 0.492300 0.158400 -0.235392
v 0.530814 0.116244 -0.119626
v 0.420897 0.112861 -0.134707
v 0.480000 0.000000 -0.240000
v 0.315740 -0.005360 -0.208668
v 0.416981 0.001501 -0.084989
v 0.416981 0.001501 -0.084989
v 0.315740 -0.005360 -0.208668
v 0.300842 0.053800 -0.201315
v 0.397699 0.060661 -0.081297
v 0.397699 0.060661 -0.081297
v 0.300842 0.053800 -0.201315
v 0.370003 0.106000 -0.209951
v 0.420897 0.112861 -0.134707
v 0.492300 0.158400 -0.235392
v 0.420897 0.112861 -0.134707
v 0.370003 0.106000 -0.209951
v 0.480000 0.000000 -0.240000
v 0.366585 0.000199 -0.346683
v 0.315740 -0.005360 -0.208668
v 0.315740 -0.005360 -0.208668
v 0.366585 0.000199 -0.346683
v 0.356078 0.059359 -0.369403
v 0.300842 0.053800 -0.201315
v 0.300842 0.053800 -0.201315
v 0.356078 0.059359 -0.369403
v 0.385358 0.111559 -0.321991
v 0.370003 0.106000 -0.209951
v 0.492300 0.158400 -0.235392
v 0.370003 0.106000 -0.209951
v 0.385358 0.111559 -0.321991
v 0.480000 0.000000 -0.240000
v 0.481166 0.005297 -0.409710
v 0.366585 0.000199 -0.346683
v 0.366585 0.000199 -0.346683
v 0.481166 0.005297 -0.409710
v 0.481518 0.064457 -0.413589
v 0.356078 0.059359 -0.369403
v 0.356078 0.059359 -0.369403
v 0.481518 0.064457 -0.413589
v 0.481063 0.116657 -0.358567
v 0.385358 0.111559 -0.321991
v 0.492300 0.158400 -0.235392
v 0.385358 0.111559 -0.321991
v 0.481063 0.116657 -0.358567
v 0.480000 0.000000 -0.240000
v 0.612354 -0.001878 -0.330043
v 0.481166 0.005297 -0.409710
v 0.481166 0.005297 -0.409710
v 0.612354 -0.001878 -0.330043
v 0.621294 0.057282 -0.353725
v 0.481518 0.064457 -0.413589
v 0.481518 0.064457 -0.413589
v 0.621294 0.057282 -0.353725
v 0.567506 0.109482 -0.327299
v 0.481063 0.116657 -0.358567
v 0.492300 0.158400 -0.235392
v 0.481063 0.116657 -0.358567
v 0.567506 0.109482 -0.327299
v 0.480000 0.000000 -0.240000
v 0.619272 -0.004701 -0.200279
v 0.612354 -0.001878 -0.330043
v 0.612354 -0.001878 -0.330043
v 0.619272 -0.004701 -0.200279
v 0.636490 0.054459 -0.192986
v 0.621294 0.057282 -0.353725
v 0.621294 0.057282 -0.353725
v 0.636490 0.054459 -0.192986
v 0.601247 0.106659 -0.210687
v 0.567506 0.109482 -0.327299
v 0.492300 0.158400 -0.235392
v 0.567506 0.109482 -0.327299
v 0.601247 0.106659 -0.210687
v 0.480000 0.000000 -0.240000
v 0.543674 0.004884 -0.089883
v 0.619272 -0.004701 -0.200279
v 0.619272 -0.004701 -0.200279
v 0.543674 0.004884 -0.089883
v 0.547891 0.064044 -0.053765
v 0.636490 0.054459 -0.192986
v 0.636490 0.054459 -0.192986
v 0.547891 0.064044 -0.053765
v 0.530814 0.116244 -0.119626
v 0.601247 0.106659 -0.210687
v 0.492300 0.158400 -0.235392
v 0.601247 0.106659 -0.210687
v 0.530814 0.116244 -0.119626
v 0.090000 0.000000 0.520000
v -0.033638 -0.000976 0.594716
v 0.084917 0.004946 0.668293
v 0.084917 0.004946 0.668293
v -0.033638 -0.000976 0.594716
v -0.056099 0.053254 0.604113
v 0.083571 0.059176 0.678104
v 0.083571 0.059176 0.678104
v -0.056099 0.053254 0.604113
v -0.001012 0.101104 0.585217
v 0.085070 0.107026 0.617994
v 0.102790 0.145200 0.519647
v 0.085070 0.107026 0.617994
v -0.001012 0.101104 0.585217
v 0.090000 0.000000 0.520000
v -0.052530 -0.004637 0.485711
v -0.033638 -0.000976 0.594716
v -0.033638 -0.000976 0.594716
v -0.052530 -0.004637 0.485711
v -0.056675 0.049593 0.475816
v -0.056099 0.053254 0.604113
v -0.056099 0.053254 0.604113
v -0.056675 0.049593 0.475816
v -0.013428 0.097443 0.489888
v -0.001012 0.101104 0.585217
v 0.102790 0.145200 0.519647
v -0.001012 0.101104 0.585217
v -0.013428 0.097443 0.489888
v 0.090000 0.000000 0.520000
v 0.038052 0.002446 0.384511
v -0.052530 -0.004637 0.485711
v -0.052530 -0.004637 0.485711
v 0.038052 0.002446 0.384511
v 0.023180 0.056676 0.378099
v -0.056675 0.049593 0.475816
v -0.056675 0.049593 0.475816
v 0.023180 0.056676 0.378099
v 0.039607 0.104526 0.430685
v -0.013428 0.097443 0.489888
v 0.102790 0.145200 0.519647
v -0.013428 0.097443 0.489888
v 0.039607 0.104526 0.430685
v 0.090000 0.000000 0.520000
v 0.162983 0.003861 0.410413
v 0.038052 0.002446 0.384511
v 0.038052 0.002446 0.384511
v 0.162983 0.003861 0.410413
v 0.174071 0.058091 0.392899
v 0.023180 0.056676 0.378099
v 0.023180 0.056676 0.378099
v 0.174071 0.058091 0.392899
v 0.141800 0.105941 0.420699
v 0.039607 0.104526 0.430685
v 0.102790 0.145200 0.519647
v 0.039607 0.104526 0.430685
v 0.141800 0.105941 0.420699
v 0.090000 0.000000 0.520000
v 0.231933 -0.003670 0.495211
v 0.162983 0.003861 0.410413
v 0.162983 0.003861 0.410413
v 0.231933 -0.003670 0.495211
v 0.237876 0.050560 0.488521
v 0.174071 0.058091 0.392899
v 0.174071 0.058091 0.392899
v 0.237876 0.050560 0.488521
v 0.197316 0.098410 0.499074
v 0.141800 0.105941 0.420699
v 0.102790 0.145200 0.519647
v 0.141800 0.105941 0.420699
v 0.197316 0.098410 0.499074
v 0.090000 0.000000 0.520000
v 0.189811 -0.002698 0.615667
v 0.231933 -0.003670 0.495211
v 0.231933 -0.003670 0.495211
v 0.189811 -0.002698 0.615667
v 0.219777 0.051532 0.618855
v 0.237876 0.050560 0.488521
v 0.237876 0.050560 0.488521
v 0.219777 0.051532 0.618855
v 0.185890 0.099382 0.583544
v 0.197316 0.098410 0.499074
v 0.102790 0.145200 0.519647
v 0.197316 0.098410 0.499074
v 0.185890 0.099382 0.583544
v 0.090000 0.000000 0.520000
v 0.084917 0.004946 0.668293
v 0.189811 -0.002698 0.615667
v 0.189811 -0.002698 0.615667
v 0.084917 0.004946 0.668293
v 0.083571 0.059176 0.678104
v 0.219777 0.051532 0.618855
v 0.219777 0.051532 0.618855
v 0.083571 0.059176 0.678104
v 0.085070 0.107026 0.617994
v 0.185890 0.099382 0.583544
v 0.102790 0.145200 0.519647
v 0.185890 0.099382 0.583544
v 0.085070 0.107026 0.617994
vt 0.000000 0.000000
vt 0.000000 0.000000
vt 0.000000 0.000000
vt 0.000000 0.000000
vt 1.000000 0.000000
vt 1.000000 1.000000
vt 0.000000 1.000000
vt 0.000000 0.000000
vt 1.000000 0.000000
vt 1.000000 1.000000
vt 0.000000 1.000000
vt 0.000000 0.000000
vt 0.000000 0.000000
vt 0.000000 0.000000
vt 0.000000 0.000000
vt 0.000000 0.000000
vt 0.000000 0.000000
vt 0.000000 0.000000
vt 1.000000 0.000000
vt 1.000000 1.000000
vt 0.000000 1.000000
vt 0.000000 0.000000
vt 1.000000 0.000000
vt 1.000000 1.000000
vt 0.000000 1.000000
vt 0.000000 0.000000
vt 0.000000 0.000000
vt 0.000000 0.000000
vt 0.000000 0.000000
vt 0.000000 0.000000
vt 0.000000 0.000000
vt 0.000000 0.000000
vt 1.000000 0.000000
vt 1.000000 1.000000
vt 0.000000 1.000000
vt 0.000000 0.000000
vt 1.000000 0.000000
vt 1.000000 1.000000
vt 0.000000 1.000000
vt 0.000000 0.000000
vt 0.000000 0.000000
vt 0.000000 0.000000
vt 0.000000 0.000000
vt 0.000000 0.000000
vt 0.000000 0.000000
vt 0.000000 0.000000
vt 1.000000 0.000000
vt 1.000000 1.000000
vt 0.000000 1.000000
vt 0.000000 0.000000
vt 1.000000 0.000000
vt 1.000000 1.000000
vt 0.000000 1.000000
vt 0.000000 0.000000
vt 0.000000 0.000000
vt 0.000000 0.000000
vt 0.000000 0.000000
vt 0.000000 0.000000
vt 0.000000 0.000000
vt 0.000000 0.000000
vt 1.000000 0.000000
vt 1.000000 1.000000
vt 0.000000 1.000000
vt 0.000000 0.000000
vt 1.000000 0.000000
vt 1.000000 1.000000
vt 0.000000 1.000000
vt 0.000000 0.000000
vt 0.000000 0.000000
vt 0.000000 0.000000
vt 0.000000 0.000000
vt 0.000000 0.000000
vt 0.000000 0.000000
vt 0.000000 0.000000
vt 1.000000 0.000000
vt 1.000000 1.000000
vt 0.000000 1.000000
vt 0.000000 0.000000
vt 1.000000 0.000000
vt 1.000000 1.000000
vt 0.000000 1.000000
vt 0.000000 0.000000
vt 0.000000 0.000000
vt 0.000000 0.000000
vt 0.000000 0.000000
vt 0.000000 0.000000
vt 0.000000 0.000000
vt 0.000000 0.000000
vt 1.000000 0.000000
vt 1.000000 1.000000
vt 0.000000 1.000000
vt 0.000000 0.000000
vt 1.000000 0.000000
vt 1.000000 1.000000
vt 0.000000 1.000000
vt 0.000000 0.000000
vt 0.000000 0.000000
vt 0.000000 0.000000
vt 0.000000 0.000000
vt 0.000000 0.000000
vt 0.000000 0.000000
vt 0.000000 0.000000
vt 1.000000 0.000000
vt 1.000000 1.000000
vt 0.000000 1.000000
vt 0.000000 0.000000
vt 1.000000 0.000000
vt 1.000000 1.000000
vt 0.000000 1.000000
vt 0.000000 0.000000
vt 0.000000 0.000000
vt 0.000000 0.000000
vt 0.000000 0.000000
vt 0.000000 0.000000
vt 0.000000 0.000000
vt 0.000000 0.000000
vt 1.000000 0.000000
vt 1.000000 1.000000
vt 0.000000 1.000000
vt 0.000000 0.000000
vt 1.000000 0.000000
vt 1.000000 1.000000
vt 0.000000 1.000000
vt 0.000000 0.000000
vt 0.000000 0.000000
vt 0.000000 0.000000
vt 0.000000 0.000000
vt 0.000000 0.000000
vt 0.000000 0.000000
vt 0.000000 0.000000
vt 1.000000 0.000000
vt 1.000000 1.000000
vt 0.000000 1.000000
vt 0.000000 0.000000
vt 1.000000 0.000000
vt 1.000000 1.000000
vt 0.000000 1.000000
vt 0.000000 0.000000
vt 0.000000 0.000000
vt 0.000000 0.000000
vt 0.000000 0.000000
vt 0.000000 0.000000
vt 0.000000 0.000000
vt 0.000000 0.000000
vt 1.000000 0.000000
vt 1.000000 1.000000
vt 0.000000 1.000000
vt 0.000000 0.000000
vt 1.000000 0.000000
vt 1.000000 1.000000
vt 0.000000 1.000000
vt 0.000000 0.000000
vt 0.000000 0.000000
vt 0.000000 0.000000
vt 0.000000 0.000000
vt 0.000000 0.000000
vt 0.000000 0.000000
vt 0.000000 0.000000
vt 1.000000 0.000000
vt 1.000000 1.000000
vt 0.000000 1.000000
vt 0.000000 0.000000
vt 1.000000 0.000000
vt 1.000000 1.000000
vt 0.000000 1.000000
vt 0.000000 0.000000
vt 0.000000 0.000000
vt 0.000000 0.000000
vt 0.000000 0.000000
vt 0.000000 0.000000
vt 0.000000 0.000000
vt 0.000000 0.000000
vt 1.000000 0.000000
vt 1.000000 1.000000
vt 0.000000 1.000000
vt 0.000000 0.000000
vt 1.000000 0.000000
vt 1.000000 1.000000
vt 0.000000 1.000000
vt 0.000000 0.000000
vt 0.000000 0.000000
vt 0.000000 0.000000
vt 0.000000 0.000000
vt 0.000000 0.000000
vt 0.000000 0.000000
vt 0.000000 0.000000
vt 1.000000 0.000000
vt 1.000000 1.000000
vt 0.000000 1.000000
vt 0.000000 0.000000
vt 1.000000 0.000000
vt 1.000000 1.000000
vt 0.000000 1.000000
vt 0.000000 0.000000
vt 0.000000 0.000000
vt 0.000000 0.000000
vt 0.000000 0.000000
vt 0.000000 0.000000
vt 0.000000 0.000000
vt 0.000000 0.000000
vt 1.000000 0.000000
vt 1.000000 1.000000
vt 0.000000 1.000000
vt 0.000000 0.000000
vt 1.000000 0.000000
vt 1.000000 1.000000
vt 0.000000 1.000000
vt 0.000000 0.000000
vt 0.000000 0.000000
vt 0.000000 0.000000
vt 0.000000 0.000000
vt 0.000000 0.000000
vt 0.000000 0.000000
vt 0.000000 0.000000
vt 1.000000 0.000000
vt 1.000000 1.000000
vt 0.000000 1.000000
vt 0.000000 0.000000
vt 1.000000 0.000000
vt 1.000000 1.000000
vt 0.000000 1.000000
vt 0.000000 0.000000
vt 0.000000 0.000000
vt 0.000000 0.000000
vt 0.000000 0.000000
vt 0.000000 0.000000
vt 0.000000 0.000000
vt 0.000000 0.000000
vt 1.000000 0.000000
vt 1.000000 1.000000
vt 0.000000 1.000000
vt 0.000000 0.000000
vt 1.000000 0.000000
vt 1.000000 1.000000
vt 0.000000 1.000000
vt 0.000000 0.000000
vt 0.000000 0.000000
vt 0.000000 0.000000
vt 0.000000 0.000000
vt 0.000000 0.000000
vt 0.000000 0.000000
vt 0.000000 0.000000
vt 1.000000 0.000000
vt 1.000000 1.000000
vt 0.000000 1.000000
vt 0.000000 0.000000
vt 1.000000 0.000000
vt 1.000000 1.000000
vt 0.000000 1.000000
vt 0.000000 0.000000
vt 0.000000 0.000000
vt 0.000000 0.000000
vt 0.000000 0.000000
vt 0.000000 0.000000
vt 0.000000 0.000000
vt 0.000000 0.000000
vt 1.000000 0.000000
vt 1.000000 1.000000
vt 0.000000 1.000000
vt 0.000000 0.000000
vt 1.000000 0.000000
vt 1.000000 1.000000
vt 0.000000 1.000000
vt 0.000000 0.000000
vt 0.000000 0.000000
vt 0.000000 0.000000
vt 0.000000 0.000000
vt 0.000000 0.000000
vt 0.000000 0.000000
vt 0.000000 0.000000
vt 1.000000 0.000000
vt 1.000000 1.000000
vt 0.000000 1.000000
vt 0.000000 0.000000
vt 1.000000 0.000000
vt 1.000000 1.000000
vt 0.000000 1.000000
vt 0.000000 0.000000
vt 0.000000 0.000000
vt 0.000000 0.000000
vt 0.000000 0.000000
vt 0.000000 0.000000
vt 0.000000 0.000000
vt 0.000000 0.000000
vt 1.000000 0.000000
vt 1.000000 1.000000
vt 0.000000 1.000000
vt 0.000000 0.000000
vt 1.000000 0.000000
vt 1.000000 1.000000
vt 0.000000 1.000000
vt 0.000000 0.000000
vt 0.000000 0.000000
vt 0.000000 0.000000
vt 0.000000 0.000000
vt 0.000000 0.000000
vt 0.000000 0.000000
vt 0.000000 0.000000
vt 1.000000 0.000000
vt 1.000000 1.000000
vt 0.000000 1.000000
vt 0.000000 0.000000
vt 1.000000 0.000000
vt 1.000000 1.000000
vt 0.000000 1.000000
vt 0.000000 0.000000
vt 0.000000 0.000000
vt 0.000000 0.000000
vt 0.000000 0.000000
vt 0.000000 0.000000
vt 0.000000 0.000000
vt 0.000000 0.000000
vt 1.000000 0.000000
vt 1.000000 1.000000
vt 0.000000 1.000000
vt 0.000000 0.000000
vt 1.000000 0.000000
vt 1.000000 1.000000
vt 0.000000 1.000000
vt 0.000000 0.000000
vt 0.000000 0.000000
vt 0.000000 0.000000
vt 0.000000 0.000000
vt 0.000000 0.000000
vt 0.000000 0.000000
vt 0.000000 0.000000
vt 1.000000 0.000000
vt 1.000000 1.000000
vt 0.000000 1.000000
vt 0.000000 0.000000
vt 1.000000 0.000000
vt 1.000000 1.000000
vt 0.000000 1.000000
vt 0.000000 0.000000
vt 0.000000 0.000000
vt 0.000000 0.000000
vt 0.000000 0.000000
vt 0.000000 0.000000
vt 0.000000 0.000000
vt 0.000000 0.000000
vt 1.000000 0.000000
vt 1.000000 1.000000
vt 0.000000 1.000000
vt 0.000000 0.000000
vt 1.000000 0.000000
vt 1.000000 1.000000
vt 0.000000 1.000000
vt 0.000000 0.000000
vt 0.000000 0.000000
vt 0.000000 0.000000
vt 0.000000 0.000000
vt 0.000000 0.000000
vt 0.000000 0.000000
vt 0.000000 0.000000
vt 1.000000 0.000000
vt 1.000000 1.000000
vt 0.000000 1.000000
vt 0.000000 0.000000
vt 1.000000 0.000000
vt 1.000000 1.000000
vt 0.000000 1.000000
vt 0.000000 0.000000
vt 0.000000 0.000000
vt 0.000000 0.000000
vt 0.000000 0.000000
vt 0.000000 0.000000
vt 0.000000 0.000000
vt 0.000000 0.000000
vt 1.000000 0.000000
vt 1.000000 1.000000
vt 0.000000 1.000000
vt 0.000000 0.000000
vt 1.000000 0.000000
vt 1.000000 1.000000
vt 0.000000 1.000000
vt 0.000000 0.000000
vt 0.000000 0.000000
vt 0.000000 0.000000
vt 0.000000 0.000000
vt 0.000000 0.000000
vt 0.000000 0.000000
vt 0.000000 0.000000
vt 1.000000 0.000000
vt 1.000000 1.000000
vt 0.000000 1.000000
vt 0.000000 0.000000
vt 1.000000 0.000000
vt 1.000000 1.000000
vt 0.000000 1.000000
vt 0.000000 0.000000
vt 0.000000 0.000000
vt 0.000000 0.000000
vt 0.000000 0.000000
vt 0.000000 0.000000
vt 0.000000 0.000000
vt 0.000000 0.000000
vt 1.000000 0.000000
vt 1.000000 1.000000
vt 0.000000 1.000000
vt 0.000000 0.000000
vt 1.000000 0.000000
vt 1.000000 1.000000
vt 0.000000 1.000000
vt 0.000000 0.000000
vt 0.000000 0.000000
vt 0.000000 0.000000
vt 0.000000 0.000000
vt 0.000000 0.000000
vt 0.000000 0.000000
vt 0.000000 0.000000
vt 1.000000 0.000000
vt 1.000000 1.000000
vt 0.000000 1.000000
vt 0.000000 0.000000
vt 1.000000 0.000000
vt 1.000000 1.000000
vt 0.000000 1.000000
vt 0.000000 0.000000
vt 0.000000 0.000000
vt 0.000000 0.000000
vt 0.000000 0.000000
vt 0.000000 0.000000
vt 0.000000 0.000000
vt 0.000000 0.000000
vt 1.000000 0.000000
vt 1.000000 1.000000
vt 0.000000 1.000000
vt 0.000000 0.000000
vt 1.000000 0.000000
vt 1.000000 1.000000
vt 0.000000 1.000000
vt 0.000000 0.000000
vt 0.000000 0.000000
vt 0.000000 0.000000
vt 0.000000 0.000000
vt 0.000000 0.000000
vt 0.000000 0.000000
vt 0.000000 0.000000
vt 1.000000 0.000000
vt 1.000000 1.000000
vt 0.000000 1.000000
vt 0.000000 0.000000
vt 1.000000 0.000000
vt 1.000000 1.000000
vt 0.000000 1.000000
vt 0.000000 0.000000
vt 0.000000 0.000000
vt 0.000000 0.000000
vt 0.000000 0.000000
vt 0.000000 0.000000
vt 0.000000 0.000000
vt 0.000000 0.000000
vt 1.000000 0.000000
vt 1.000000 1.000000
vt 0.000000 1.000000
vt 0.000000 0.000000
vt 1.000000 0.000000
vt 1.000000 1.000000
vt 0.000000 1.000000
vt 0.000000 0.000000
vt 0.000000 0.000000
vt 0.000000 0.000000
vt 0.000000 0.000000
vt 0.000000 0.000000
vt 0.000000 0.000000
vt 0.000000 0.000000
vt 1.000000 0.000000
vt 1.000000 1.000000
vt 0.000000 1.000000
vt 0.000000 0.000000
vt 1.000000 0.000000
vt 1.000000 1.000000
vt 0.000000 1.000000
vt 0.000000 0.000000
vt 0.000000 0.000000
vt 0.000000 0.000000
vt 0.000000 0.000000
vt 0.000000 0.000000
vt 0.000000 0.000000
vt 0.000000 0.000000
vt 1.000000 0.000000
vt 1.000000 1.000000
vt 0.000000 1.000000
vt 0.000000 0.000000
vt 1.000000 0.000000
vt 1.000000 1.000000
vt 0.000000 1.000000
vt 0.000000 0.000000
vt 0.000000 0.000000
vt 0.000000 0.000000
vt 0.000000 0.000000
vt 0.000000 0.000000
vt 0.000000 0.000000
vt 0.000000 0.000000
vt 1.000000 0.000000
vt 1.000000 1.000000
vt 0.000000 1.000000
vt 0.000000 0.000000
vt 1.000000 0.000000
vt 1.000000 1.000000
vt 0.000000 1.000000
vt 0.000000 0.000000
vt 0.000000 0.000000
vt 0.000000 0.000000
vt 0.000000 0.000000
vt 0.000000 0.000000
vt 0.000000 0.000000
vt 0.000000 0.000000
vt 1.000000 0.000000
vt 1.000000 1.000000
vt 0.000000 1.000000
vt 0.000000 0.000000
vt 1.000000 0.000000
vt 1.000000 1.000000
vt 0.000000 1.000000
vt 0.000000 0.000000
vt 0.000000 0.000000
vt 0.000000 0.000000
vt 0.000000 0.000000
vt 0.000000 0.000000
vt 0.000000 0.000000
vt 0.000000 0.000000
vt 1.000000 0.000000
vt 1.000000 1.000000
vt 0.000000 1.000000
vt 0.000000 0.000000
vt 1.000000 0.000000
vt 1.000000 1.000000
vt 0.000000 1.000000
vt 0.000000 0.000000
vt 0.000000 0.000000
vt 0.000000 0.000000
vt 0.000000 0.000000
vt 0.000000 0.000000
vt 0.000000 0.000000
vt 0.000000 0.000000
vt 1.000000 0.000000
vt 1.000000 1.000000
vt 0.000000 1.000000
vt 0.000000 0.000000
vt 1.000000 0.000000
vt 1.000000 1.000000
vt 0.000000 1.000000
vt 0.000000 0.000000
vt 0.000000 0.000000
vt 0.000000 0.000000
vt 0.000000 0.000000
vt 0.000000 0.000000
vt 0.000000 0.000000
vt 0.000000 0.000000
vt 1.000000 0.000000
vt 1.000000 1.000000
vt 0.000000 1.000000
vt 0.000000 0.000000
vt 1.000000 0.000000
vt 1.000000 1.000000
vt 0.000000 1.000000
vt 0.000000 0.000000
vt 0.000000 0.000000
vt 0.000000 0.000000
vt 0.000000 0.000000
vt 0.000000 0.000000
vt 0.000000 0.000000
vt 0.000000 0.000000
vt 1.000000 0.000000
vt 1.000000 1.000000
vt 0.000000 1.000000
vt 0.000000 0.000000
vt 1.000000 0.000000
vt 1.000000 1.000000
vt 0.000000 1.000000
vt 0.000000 0.000000
vt 0.000000 0.000000
vt 0.000000 0.000000
vt 0.000000 0.000000
vt 0.000000 0.000000
vt 0.000000 0.000000
vt 0.000000 0.000000
vt 1.000000 0.000000
vt 1.000000 1.000000
vt 0.000000 1.000000
vt 0.000000 0.000000
vt 1.000000 0.000000
vt 1.000000 1.000000
vt 0.000000 1.000000
vt 0.000000 0.000000
vt 0.000000 0.000000
vt 0.000000 0.000000
vt 0.000000 0.000000
vt 0.000000 0.000000
vt 0.000000 0.000000
vt 0.000000 0.000000
vt 1.000000 0.000000
vt 1.000000 1.000000
vt 0.000000 1.000000
vt 0.000000 0.000000
vt 1.000000 0.000000
vt 1.000000 1.000000
vt 0.000000 1.000000
vt 0.000000 0.000000
vt 0.000000 0.000000
vt 0.000000 0.000000
vt 0.000000 0.000000
vt 0.000000 0.000000
vt 0.000000 0.000000
vt 0.000000 0.000000
vt 1.000000 0.000000
vt 1.000000 1.000000
vt 0.000000 1.000000
vt 0.000000 0.000000
vt 1.000000 0.000000
vt 1.000000 1.000000
vt 0.000000 1.000000
vt 0.000000 0.000000
vt 0.000000 0.000000
vt 0.000000 0.000000
vt 0.000000 0.000000
vt 0.000000 0.000000
vt 0.000000 0.000000
vt 0.000000 0.000000
vt 1.000000 0.000000
vt 1.000000 1.000000
vt 0.000000 1.000000
vt 0.000000 0.000000
vt 1.000000 0.000000
vt 1.000000 1.000000
vt 0.000000 1.000000
vt 0.000000 0.000000
vt 0.000000 0.000000
vt 0.000000 0.000000
vt 0.000000 0.000000
vt 0.000000 0.000000
vt 0.000000 0.000000
vt 0.000000 0.000000
vt 1.000000 0.000000
vt 1.000000 1.000000
vt 0.000000 1.000000
vt 0.000000 0.000000
vt 1.000000 0.000000
vt 1.000000 1.000000
vt 0.000000 1.000000
vt 0.000000 0.000000
vt 0.000000 0.000000
vt 0.000000 0.000000
vt 0.000000 0.000000
vt 0.000000 0.000000
vt 0.000000 0.000000
vt 0.000000 0.000000
vt 1.000000 0.000000
vt 1.000000 1.000000
vt 0.000000 1.000000
vt 0.000000 0.000000
vt 1.000000 0.000000
vt 1.000000 1.000000
vt 0.000000 1.000000
vt 0.000000 0.000000
vt 0.000000 0.000000
vt 0.000000 0.000000
vt 0.000000 0.000000
vt 0.000000 0.000000
vt 0.000000 0.000000
vt 0.000000 0.000000
vt 1.000000 0.000000
vt 1.000000 1.000000
vt 0.000000 1.000000
vt 0.000000 0.000000
vt 1.000000 0.000000
vt 1.000000 1.000000
vt 0.000000 1.000000
vt 0.000000 0.000000
vt 0.000000 0.000000
vt 0.000000 0.000000
vt 0.000000 0.000000
vt 0.000000 0.000000
vt 0.000000 0.000000
vt 0.000000 0.000000
vt 1.000000 0.000000
vt 1.000000 1.000000
vt 0.000000 1.000000
vt 0.000000 0.000000
vt 1.000000 0.000000
vt 1.000000 1.000000
vt 0.000000 1.000000
vt 0.000000 0.000000
vt 0.000000 0.000000
vt 0.000000 0.000000
vt 0.000000 0.000000
vt 0.000000 0.000000
vt 0.000000 0.000000
vt 0.000000 0.000000
vt 1.000000 0.000000
vt 1.000000 1.000000
vt 0.000000 1.000000
vt 0.000000 0.000000
vt 1.000000 0.000000
vt 1.000000 1.000000
vt 0.000000 1.000000
vt 0.000000 0.000000
vt 0.000000 0.000000
vt 0.000000 0.000000
vt 0.000000 0.000000
vt 0.000000 0.000000
vt 0.000000 0.000000
vt 0.000000 0.000000
vt 1.000000 0.000000
vt 1.000000 1.000000
vt 0.000000 1.000000
vt 0.000000 0.000000
vt 1.000000 0.000000
vt 1.000000 1.000000
vt 0.000000 1.000000
vt 0.000000 0.000000
vt 0.000000 0.000000
vt 0.000000 0.000000
vt 0.000000 0.000000
vt 0.000000 0.000000
vt 0.000000 0.000000
vt 0.000000 0.000000
vt 1.000000 0.000000
vt 1.000000 1.000000
vt 0.000000 1.000000
vt 0.000000 0.000000
vt 1.000000 0.000000
vt 1.000000 1.000000
vt 0.000000 1.000000
vt 0.000000 0.000000
vt 0.000000 0.000000
vt 0.000000 0.000000
vt 0.000000 0.000000
vt 0.000000 0.000000
vt 0.000000 0.000000
vt 0.000000 0.000000
vt 1.000000 0.000000
vt 1.000000 1.000000
vt 0.000000 1.000000
vt 0.000000 0.000000
vt 1.000000 0.000000
vt 1.000000 1.000000
vt 0.000000 1.000000
vt 0.000000 0.000000
vt 0.000000 0.000000
vt 0.000000 0.000000
vt 0.000000 0.000000
vt 0.000000 0.000000
vt 0.000000 0.000000
vt 0.000000 0.000000
vt 1.000000 0.000000
vt 1.000000 1.000000
vt 0.000000 1.000000
vt 0.000000 0.000000
vt 1.000000 0.000000
vt 1.000000 1.000000
vt 0.000000 1.000000
vt 0.000000 0.000000
vt 0.000000 0.000000
vt 0.000000 0.000000
vt 0.000000 0.000000
vt 0.000000 0.000000
vt 0.000000 0.000000
vt 0.000000 0.000000
vt 1.000000 0.000000
vt 1.000000 1.000000
vt 0.000000 1.000000
vt 0.000000 0.000000
vt 1.000000 0.000000
vt 1.000000 1.000000
vt 0.000000 1.000000
vt 0.000000 0.000000
vt 0.000000 0.000000
vt 0.000000 0.000000
vt 0.000000 0.000000
vt 0.000000 0.000000
vt 0.000000 0.000000
vt 0.000000 0.000000
vt 1.000000 0.000000
vt 1.000000 1.000000
vt 0.000000 1.000000
vt 0.000000 0.000000
vt 1.000000 0.000000
vt 1.000000 1.000000
vt 0.000000 1.000000
vt 0.000000 0.000000
vt 0.000000 0.000000
vt 0.000000 0.000000
vt 0.000000 0.000000
vt 1.000000 0.000000
vt 1.000000 1.000000
vt 0.000000 1.000000
vt 0.000000 0.000000
vt 1.000000 0.000000
vt 1.000000 1.000000
vt 0.000000 1.000000
vt 0.000000 0.000000
vt 1.000000 0.000000
vt 1.000000 1.000000
vt 0.000000 1.000000
vt 0.000000 0.000000
vt 1.000000 0.000000
vt 1.000000 1.000000
vt 0.000000 1.000000
vt 0.000000 0.000000
vt 1.000000 0.000000
vt 1.000000 1.000000
vt 0.000000 1.000000
vt 0.000000 0.000000
vt 1.000000 0.000000
vt 1.000000 1.000000
vt 0.000000 1.000000
vt 0.000000 0.000000
vt 1.000000 0.000000
vt 1.000000 1.000000
vt 0.000000 1.000000
vt 0.000000 0.000000
vt 1.000000 0.000000
vt 1.000000 1.000000
vt 0.000000 1.000000
vt 0.000000 0.000000
vt 1.000000 0.000000
vt 1.000000 1.000000
vt 0.000000 1.000000
vt 0.000000 0.000000
vt 1.000000 0.000000
vt 1.000000 1.000000
vt 0.000000 1.000000
vt 0.000000 0.000000
vt 1.000000 0.000000
vt 1.000000 1.000000
vt 0.000000 1.000000
vt 0.000000 0.000000
vt 1.000000 0.000000
vt 1.000000 1.000000
vt 0.000000 1.000000
vt 0.000000 0.000000
vt 1.000000 0.000000
vt 1.000000 1.000000
vt 0.000000 1.000000
vt 0.000000 0.000000
vt 1.000000 0.000000
vt 1.000000 1.000000
vt 0.000000 1.000000
vt 0.000000 0.000000
vt 1.000000 0.000000
vt 1.000000 1.000000
vt 0.000000 1.000000
vt 0.000000 0.000000
vt 1.000000 0.000000
vt 1.000000 1.000000
vt 0.000000 1.000000
vt 0.000000 0.000000
vt 1.000000 0.000000
vt 1.000000 1.000000
vt 0.000000 1.000000
vt 0.000000 0.000000
vt 1.000000 0.000000
vt 1.000000 1.000000
vt 0.000000 1.000000
vt 0.000000 0.000000
vt 1.000000 0.000000
vt 1.000000 1.000000
vt 0.000000 1.000000
vt 0.000000 0.000000
vt 1.000000 0.000000
vt 1.000000 1.000000
vt 0.000000 1.000000
vt 0.000000 0.000000
vt 1.000000 0.000000
vt 1.000000 1.000000
vt 0.000000 1.000000
vt 0.000000 0.000000
vt 1.000000 0.000000
vt 1.000000 1.000000
vt 0.000000 1.000000
vt 0.000000 0.000000
vt 1.000000 0.000000
vt 1.000000 1.000000
vt 0.000000 1.000000
vt 0.000000 0.000000
vt 1.000000 0.000000
vt 1.000000 1.000000
vt 0.000000 1.000000
vt 0.000000 0.000000
vt 1.000000 0.000000
vt 1.000000 1.000000
vt 0.000000 1.000000
vt 0.000000 0.000000
vt 1.000000 0.000000
vt 1.000000 1.000000
vt 0.000000 1.000000
vt 0.000000 0.000000
vt 1.000000 0.000000
vt 1.000000 1.000000
vt 0.000000 1.000000
vt 0.000000 0.000000
vt 1.000000 0.000000
vt 1.000000 1.000000
vt 0.000000 1.000000
vt 0.000000 0.000000
vt 1.000000 0.000000
vt 1.000000 1.000000
vt 0.000000 1.000000
vt 0.000000 0.000000
vt 1.000000 0.000000
vt 1.000000 1.000000
vt 0.000000 1.000000
vt 0.000000 0.000000
vt 1.000000 0.000000
vt 1.000000 1.000000
vt 0.000000 1.000000
vt 0.000000 0.000000
vt 1.000000 0.000000
vt 1.000000 1.000000
vt 0.000000 1.000000
vt 0.000000 0.000000
vt 1.000000 0.000000
vt 1.000000 1.000000
vt 0.000000 1.000000
vt 0.000000 0.000000
vt 1.000000 0.000000
vt 1.000000 1.000000
vt 0.000000 1.000000
vt 0.000000 0.000000
vt 1.000000 0.000000
vt 1.000000 1.000000
vt 0.000000 1.000000
vt 0.000000 0.000000
vt 1.000000 0.000000
vt 1.000000 1.000000
vt 0.000000 1.000000
vt 0.000000 0.000000
vt 1.000000 0.000000
vt 1.000000 1.000000
vt 0.000000 1.000000
vt 0.000000 0.000000
vt 1.000000 0.000000
vt 1.000000 1.000000
vt 0.000000 1.000000
vt 0.000000 0.000000
vt 1.000000 0.000000
vt 1.000000 1.000000
vt 0.000000 1.000000
vt 0.000000 0.000000
vt 1.000000 0.000000
vt 1.000000 1.000000
vt 0.000000 1.000000
vt 0.000000 0.000000
vt 1.000000 0.000000
vt 1.000000 1.000000
vt 0.000000 1.000000
vt 0.000000 0.000000
vt 1.000000 0.000000
vt 1.000000 1.000000
vt 0.000000 1.000000
vt 0.000000 0.000000
vt 1.000000 0.000000
vt 1.000000 1.000000
vt 0.000000 1.000000
vt 0.000000 0.000000
vt 1.000000 0.000000
vt 1.000000 1.000000
vt 0.000000 1.000000
vt 0.000000 0.000000
vt 1.000000 0.000000
vt 1.000000 1.000000
vt 0.000000 1.000000
vt 0.000000 0.000000
vt 1.000000 0.000000
vt 1.000000 1.000000
vt 0.000000 1.000000
vt 0.000000 0.000000
vt 1.000000 0.000000
vt 1.000000 1.000000
vt 0.000000 1.000000
vt 0.000000 0.000000
vt 1.000000 0.000000
vt 1.000000 1.000000
vt 0.000000 1.000000
vt 0.000000 0.000000
vt 1.000000 0.000000
vt 1.000000 1.000000
vt 0.000000 1.000000
vt 0.000000 0.000000
vt 1.000000 0.000000
vt 1.000000 1.000000
vt 0.000000 1.000000
vt 0.000000 0.000000
vt 1.000000 0.000000
vt 1.000000 1.000000
vt 0.000000 1.000000
vt 0.000000 0.000000
vt 1.000000 0.000000
vt 1.000000 1.000000
vt 0.000000 1.000000
vt 0.000000 0.000000
vt 1.000000 0.000000
vt 1.000000 1.000000
vt 0.000000 1.000000
vt 0.500000 0.500000
vt 0.000000 0.000000
vt 1.000000 0.000000
vt 0.500000 0.500000
vt 0.000000 1.000000
vt 1.000000 1.000000
vt 0.500000 0.500000
vt 0.000000 0.000000
vt 1.000000 0.000000
vt 0.500000 0.500000
vt 0.000000 1.000000
vt 1.000000 1.000000
vt 0.500000 0.500000
vt 0.000000 0.000000
vt 1.000000 0.000000
vt 0.500000 0.500000
vt 0.000000 1.000000
vt 1.000000 1.000000
vt 0.500000 0.500000
vt 0.000000 0.000000
vt 1.000000 0.000000
vt 0.500000 0.500000
vt 0.000000 1.000000
vt 1.000000 1.000000
vt 0.500000 0.500000
vt 0.000000 0.000000
vt 1.000000 0.000000
vt 0.500000 0.500000
vt 0.000000 1.000000
vt 1.000000 1.000000
vt 0.000000 0.000000
vt 1.000000 0.000000
vt 1.000000 1.000000
vt 0.000000 1.000000
vt 0.000000 0.000000
vt 1.000000 0.000000
vt 1.000000 1.000000
vt 0.000000 1.000000
vt 0.000000 0.000000
vt 1.000000 0.000000
vt 1.000000 1.000000
vt 0.000000 1.000000
vt 0.000000 0.000000
vt 1.000000 0.000000
vt 1.000000 1.000000
vt 0.000000 1.000000
vt 0.000000 0.000000
vt 1.000000 0.000000
vt 1.000000 1.000000
vt 0.000000 1.000000
vt 0.500000 0.500000
vt 0.000000 0.000000
vt 1.000000 0.000000
vt 0.500000 0.500000
vt 0.000000 1.000000
vt 1.000000 1.000000
vt 0.500000 0.500000
vt 0.000000 0.000000
vt 1.000000 0.000000
vt 0.500000 0.500000
vt 0.000000 1.000000
vt 1.000000 1.000000
vt 0.500000 0.500000
vt 0.000000 0.000000
vt 1.000000 0.000000
vt 0.500000 0.500000
vt 0.000000 1.000000
vt 1.000000 1.000000
vt 0.500000 0.500000
vt 0.000000 0.000000
vt 1.000000 0.000000
vt 0.500000 0.500000
vt 0.000000 1.000000
vt 1.000000 1.000000
vt 0.500000 0.500000
vt 0.000000 0.000000
vt 1.000000 0.000000
vt 0.500000 0.500000
vt 0.000000 1.000000
vt 1.000000 1.000000
vt 0.000000 0.000000
vt 0.000000 0.000000
vt 0.000000 0.000000
vt 0.000000 0.000000
vt 1.000000 0.000000
vt 1.000000 1.000000
vt 0.000000 1.000000
vt 0.000000 0.000000
vt 1.000000 0.000000
vt 1.000000 1.000000
vt 0.000000 1.000000
vt 0.000000 0.000000
vt 0.000000 0.000000
vt 0.000000 0.000000
vt 0.000000 0.000000
vt 0.000000 0.000000
vt 0.000000 0.000000
vt 0.000000 0.000000
vt 1.000000 0.000000
vt 1.000000 1.000000
vt 0.000000 1.000000
vt 0.000000 0.000000
vt 1.000000 0.000000
vt 1.000000 1.000000
vt 0.000000 1.000000
vt 0.000000 0.000000
vt 0.000000 0.000000
vt 0.000000 0.000000
vt 0.000000 0.000000
vt 0.000000 0.000000
vt 0.000000 0.000000
vt 0.000000 0.000000
vt 1.000000 0.000000
vt 1.000000 1.000000
vt 0.000000 1.000000
vt 0.000000 0.000000
vt 1.000000 0.000000
vt 1.000000 1.000000
vt 0.000000 1.000000
vt 0.000000 0.000000
vt 0.000000 0.000000
vt 0.000000 0.000000
vt 0.000000 0.000000
vt 0.000000 0.000000
vt 0.000000 0.000000
vt 0.000000 0.000000
vt 1.000000 0.000000
vt 1.000000 1.000000
vt 0.000000 1.000000
vt 0.000000 0.000000
vt 1.000000 0.000000
vt 1.000000 1.000000
vt 0.000000 1.000000
vt 0.000000 0.000000
vt 0.000000 0.000000
vt 0.000000 0.000000
vt 0.000000 0.000000
vt 0.000000 0.000000
vt 0.000000 0.000000
vt 0.000000 0.000000
vt 1.000000 0.000000
vt 1.000000 1.000000
vt 0.000000 1.000000
vt 0.000000 0.000000
vt 1.000000 0.000000
vt 1.000000 1.000000
vt 0.000000 1.000000
vt 0.000000 0.000000
vt 0.000000 0.000000
vt 0.000000 0.000000
vt 0.000000 0.000000
vt 0.000000 0.000000
vt 0.000000 0.000000
vt 0.000000 0.000000
vt 1.000000 0.000000
vt 1.000000 1.000000
vt 0.000000 1.000000
vt 0.000000 0.000000
vt 1.000000 0.000000
vt 1.000000 1.000000
vt 0.000000 1.000000
vt 0.000000 0.000000
vt 0.000000 0.000000
vt 0.000000 0.000000
vt 0.000000 0.000000
vt 0.000000 0.000000
vt 0.000000 0.000000
vt 0.000000 0.000000
vt 1.000000 0.000000
vt 1.000000 1.000000
vt 0.000000 1.000000
vt 0.000000 0.000000
vt 1.000000 0.000000
vt 1.000000 1.000000
vt 0.000000 1.000000
vt 0.000000 0.000000
vt 0.000000 0.000000
vt 0.000000 0.000000
vt 0.000000 0.000000
vt 0.000000 0.000000
vt 0.000000 0.000000
vt 0.000000 0.000000
vt 1.000000 0.000000
vt 1.000000 1.000000
vt 0.000000 1.000000
vt 0.000000 0.000000
vt 1.000000 0.000000
vt 1.000000 1.000000
vt 0.000000 1.000000
vt 0.000000 0.000000
vt 0.000000 0.000000
vt 0.000000 0.000000
vt 0.000000 0.000000
vt 0.000000 0.000000
vt 0.000000 0.000000
vt 0.000000 0.000000
vt 1.000000 0.000000
vt 1.000000 1.000000
vt 0.000000 1.000000
vt 0.000000 0.000000
vt 1.000000 0.000000
vt 1.000000 1.000000
vt 0.000000 1.000000
vt 0.000000 0.000000
vt 0.000000 0.000000
vt 0.000000 0.000000
vt 0.000000 0.000000
vt 0.000000 0.000000
vt 0.000000 0.000000
vt 0.000000 0.000000
vt 1.000000 0.000000
vt 1.000000 1.000000
vt 0.000000 1.000000
vt 0.000000 0.000000
vt 1.000000 0.000000
vt 1.000000 1.000000
vt 0.000000 1.000000
vt 0.000000 0.000000
vt 0.000000 0.000000
vt 0.000000 0.000000
vt 0.000000 0.000000
vt 0.000000 0.000000
vt 0.000000 0.000000
vt 0.000000 0.000000
vt 1.000000 0.000000
vt 1.000000 1.000000
vt 0.000000 1.000000
vt 0.000000 0.000000
vt 1.000000 0.000000
vt 1.000000 1.000000
vt 0.000000 1.000000
vt 0.000000 0.000000
vt 0.000000 0.000000
vt 0.000000 0.000000
vt 0.000000 0.000000
vt 0.000000 0.000000
vt 0.000000 0.000000
vt 0.000000 0.000000
vt 1.000000 0.000000
vt 1.000000 1.000000
vt 0.000000 1.000000
vt 0.000000 0.000000
vt 1.000000 0.000000
vt 1.000000 1.000000
vt 0.000000 1.000000
vt 0.000000 0.000000
vt 0.000000 0.000000
vt 0.000000 0.000000
vt 0.000000 0.000000
vt 0.000000 0.000000
vt 0.000000 0.000000
vt 0.000000 0.000000
vt 1.000000 0.000000
vt 1.000000 1.000000
vt 0.000000 1.000000
vt 0.000000 0.000000
vt 1.000000 0.000000
vt 1.000000 1.000000
vt 0.000000 1.000000
vt 0.000000 0.000000
vt 0.000000 0.000000
vt 0.000000 0.000000
vt 0.000000 0.000000
vt 0.000000 0.000000
vt 0.000000 0.000000
vt 0.000000 0.000000
vt 1.000000 0.000000
vt 1.000000 1.000000
vt 0.000000 1.000000
vt 0.000000 0.000000
vt 1.000000 0.000000
vt 1.000000 1.000000
vt 0.000000 1.000000
vt 0.000000 0.000000
vt 0.000000 0.000000
vt 0.000000 0.000000
vt 0.000000 0.000000
vt 0.000000 0.000000
vt 0.000000 0.000000
vt 0.000000 0.000000
vt 1.000000 0.000000
vt 1.000000 1.000000
vt 0.000000 1.000000
vt 0.000000 0.000000
vt 1.000000 0.000000
vt 1.000000 1.000000
vt 0.000000 1.000000
vt 0.000000 0.000000
vt 0.000000 0.000000
vt 0.000000 0.000000
vt 0.000000 0.000000
vt 0.000000 0.000000
vt 0.000000 0.000000
vt 0.000000 0.000000
vt 1.000000 0.000000
vt 1.000000 1.000000
vt 0.000000 1.000000
vt 0.000000 0.000000
vt 1.000000 0.000000
vt 1.000000 1.000000
vt 0.000000 1.000000
vt 0.000000 0.000000
vt 0.000000 0.000000
vt 0.000000 0.000000
vt 0.000000 0.000000
vt 0.000000 0.000000
vt 0.000000 0.000000
vt 0.000000 0.000000
vt 1.000000 0.000000
vt 1.000000 1.000000
vt 0.000000 1.000000
vt 0.000000 0.000000
vt 1.000000 0.000000
vt 1.000000 1.000000
vt 0.000000 1.000000
vt 0.000000 0.000000
vt 0.000000 0.000000
vt 0.000000 0.000000
vt 0.000000 0.000000
vt 0.000000 0.000000
vt 0.000000 0.000000
vt 0.000000 0.000000
vt 1.000000 0.000000
vt 1.000000 1.000000
vt 0.000000 1.000000
vt 0.000000 0.000000
vt 1.000000 0.000000
vt 1.000000 1.000000
vt 0.000000 1.000000
vt 0.000000 0.000000
vt 0.000000 0.000000
vt 0.000000 0.000000
vt 0.000000 0.000000
vt 0.000000 0.000000
vt 0.000000 0.000000
vt 0.000000 0.000000
vt 1.000000 0.000000
vt 1.000000 1.000000
vt 0.000000 1.000000
vt 0.000000 0.000000
vt 1.000000 0.000000
vt 1.000000 1.000000
vt 0.000000 1.000000
vt 0.000000 0.000000
vt 0.000000 0.000000
vt 0.000000 0.000000
vt 0.000000 0.000000
vt 0.000000 0.000000
vt 0.000000 0.000000
vt 0.000000 0.000000
vt 1.000000 0.000000
vt 1.000000 1.000000
vt 0.000000 1.000000
vt 0.000000 0.000000
vt 1.000000 0.000000
vt 1.000000 1.000000
vt 0.000000 1.000000
vt 0.000000 0.000000
vt 0.000000 0.000000
vt 0.000000 0.000000
vt 0.000000 0.000000
vt 0.000000 0.000000
vt 0.000000 0.000000
vt 0.000000 0.000000
vt 1.000000 0.000000
vt 1.000000 1.000000
vt 0.000000 1.000000
vt 0.000000 0.000000
vt 1.000000 0.000000
vt 1.000000 1.000000
vt 0.000000 1.000000
vt 0.000000 0.000000
vt 0.000000 0.000000
vt 0.000000 0.000000
usemtl Stone
f 1/1 2/2 3/3
f 4/4 5/5 6/6
f 4/4 6/6 7/7
f 8/8 9/9 10/10
f 8/8 10/10 11/11
f 12/12 13/13 14/14
f 15/15 16/16 17/17
f 18/18 19/19 20/20
f 18/18 20/20 21/21
f 22/22 23/23 24/24
f 22/22 24/24 25/25
f 26/26 27/27 28/28
f 29/29 30/30 31/31
f 32/32 33/33 34/34
f 32/32 34/34 35/35
f 36/36 37/37 38/38
f 36/36 38/38 39/39
f 40/40 41/41 42/42
f 43/43 44/44 45/45
f 46/46 47/47 48/48
f 46/46 48/48 49/49
f 50/50 51/51 52/52
f 50/50 52/52 53/53
f 54/54 55/55 56/56
f 57/57 58/58 59/59
f 60/60 61/61 62/62
f 60/60 62/62 63/63
f 64/64 65/65 66/66
f 64/64 66/66 67/67
f 68/68 69/69 70/70
f 71/71 72/72 73/73
f 74/74 75/75 76/76
f 74/74 76/76 77/77
f 78/78 79/79 80/80
f 78/78 80/80 81/81
f 82/82 83/83 84/84
f 85/85 86/86 87/87
f 88/88 89/89 90/90
f 88/88 90/90 91/91
f 92/92 93/93 94/94
f 92/92 94/94 95/95
f 96/96 97/97 98/98
f 99/99 100/100 101/101
f 102/102 103/103 104/104
f 102/102 104/104 105/105
f 106/106 107/107 108/108
f 106/106 108/108 109/109
f 110/110 111/111 112/112
f 113/113 114/114 115/115
f 116/116 117/117 118/118
f 116/116 118/118 119/119
f 120/120 121/121 122/122
f 120/120 122/122 123/123
f 124/124 125/125 126/126
f 127/127 128/128 129/129
f 130/130 131/131 132/132
f 130/130 132/132 133/133
f 134/134 135/135 136/136
f 134/134 136/136 137/137
f 138/138 139/139 140/140
f 141/141 142/142 143/143
f 144/144 145/145 146/146
f 144/144 146/146 147/147
f 148/148 149/149 150/150
f 148/148 150/150 151/151
f 152/152 153/153 154/154
f 155/155 156/156 157/157
f 158/158 159/159 160/160
f 158/158 160/160 161/161
f 162/162 163/163 164/164
f 162/162 164/164 165/165
f 166/166 167/167 168/168
f 169/169 170/170 171/171
f 172/172 173/173 174/174
f 172/172 174/174 175/175
f 176/176 177/177 178/178
f 176/176 178/178 179/179
f 180/180 181/181 182/182
f 183/183 184/184 185/185
f 186/186 187/187 188/188
f 186/186 188/188 189/189
f 190/190 191/191 192/192
f 190/190 192/192 193/193
f 194/194 195/195 196/196
f 197/197 198/198 199/199
f 200/200 201/201 202/202
f 200/200 202/202 203/203
f 204/204 205/205 206/206
f 204/204 206/206 207/207
f 208/208 209/209 210/210
f 211/211 212/212 213/213
f 214/214 215/215 216/216
f 214/214 216/216 217/217
f 218/218 219/219 220/220
f 218/218 220/220 221/221
f 222/222 223/223 224/224
f 225/225 226/226 227/227
f 228/228 229/229 230/230
f 228/228 230/230 231/231
f 232/232 233/233 234/234
f 232/232 234/234 235/235
f 236/236 237/237 238/238
f 239/239 240/240 241/241
f 242/242 243/243 244/244
f 242/242 244/244 245/245
f 246/246 247/247 248/248
f 246/246 248/248 249/249
f 250/250 251/251 252/252
f 253/253 254/254 255/255
f 256/256 257/257 258/258
f 256/256 258/258 259/259
f 260/260 261/261 262/262
f 260/260 262/262 263/263
f 264/264 265/265 266/266
f 267/267 268/268 269/269
f 270/270 271/271 272/272
f 270/270 272/272 273/273
f 274/274 275/275 276/276
f 274/274 276/276 277/277
f 278/278 279/279 280/280
f 281/281 282/282 283/283
f 284/284 285/285 286/286
f 284/284 286/286 287/287
f 288/288 289/289 290/290
f 288/288 290/290 291/291
f 292/292 293/293 294/294
f 295/295 296/296 297/297
f 298/298 299/299 300/300
f 298/298 300/300 301/301
f 302/302 303/303 304/304
f 302/302 304/304 305/305
f 306/306 307/307 308/308
f 309/309 310/310 311/311
f 312/312 313/313 314/314
f 312/312 314/314 315/315
f 316/316 317/317 318/318
f 316/316 318/318 319/319
f 320/320 321/321 322/322
f 323/323 324/324 325/325
f 326/326 327/327 328/328
f 326/326 328/328 329/329
f 330/330 331/331 332/332
f 330/330 332/332 333/333
f 334/334 335/335 336/336
f 337/337 338/338 339/339
f 340/340 341/341 342/342
f 340/340 342/342 343/343
f 344/344 345/345 346/346
f 344/344 346/346 347/347
f 348/348 349/349 350/350
f 351/351 352/352 353/353
f 354/354 355/355 356/356
f 354/354 356/356 357/357
f 358/358 359/359 360/360
f 358/358 360/360 361/361
f 362/362 363/363 364/364
f 365/365 366/366 367/367
f 368/368 369/369 370/370
f 368/368 370/370 371/371
f 372/372 373/373 374/374
f 372/372 374/374 375/375
f 376/376 377/377 378/378
f 379/379 380/380 381/381
f 382/382 383/383 384/384
f 382/382 384/384 385/385
f 386/386 387/387 388/388
f 386/386 388/388 389/389
f 390/390 391/391 392/392
f 393/393 394/394 395/395
f 396/396 397/397 398/398
f 396/396 398/398 399/399
f 400/400 401/401 402/402
f 400/400 402/402 403/403
f 404/404 405/405 406/406
f 407/407 408/408 409/409
f 410/410 411/411 412/412
f 410/410 412/412 413/413
f 414/414 415/415 416/416
f 414/414 416/416 417/417
f 418/418 419/419 420/420
f 421/421 422/422 423/423
f 424/424 425/425 426/426
f 424/424 426/426 427/427
f 428/428 429/429 430/430
f 428/428 430/430 431/431
f 432/432 433/433 434/434
f 435/435 436/436 437/437
f 438/438 439/439 440/440
f 438/438 440/440 441/441
f 442/442 443/443 444/444
f 442/442 444/444 445/445
f 446/446 447/447 448/448
f 449/449 450/450 451/451
f 452/452 453/453 454/454
f 452/452 454/454 455/455
f 456/456 457/457 458/458
f 456/456 458/458 459/459
f 460/460 461/461 462/462
f 463/463 464/464 465/465
f 466/466 467/467 468/468
f 466/466 468/468 469/469
f 470/470 471/471 472/472
f 470/470 472/472 473/473
f 474/474 475/475 476/476
f 477/477 478/478 479/479
f 480/480 481/481 482/482
f 480/480 482/482 483/483
f 484/484 485/485 486/486
f 484/484 486/486 487/487
f 488/488 489/489 490/490
f 491/491 492/492 493/493
f 494/494 495/495 496/496
f 494/494 496/496 497/497
f 498/498 499/499 500/500
f 498/498 500/500 501/501
f 502/502 503/503 504/504
f 505/505 506/506 507/507
f 508/508 509/509 510/510
f 508/508 510/510 511/511
f 512/512 513/513 514/514
f 512/512 514/514 515/515
f 516/516 517/517 518/518
f 519/519 520/520 521/521
f 522/522 523/523 524/524
f 522/522 524/524 525/525
f 526/526 527/527 528/528
f 526/526 528/528 529/529
f 530/530 531/531 532/532
f 533/533 534/534 535/535
f 536/536 537/537 538/538
f 536/536 538/538 539/539
f 540/540 541/541 542/542
f 540/540 542/542 543/543
f 544/544 545/545 546/546
f 547/547 548/548 549/549
f 550/550 551/551 552/552
f 550/550 552/552 553/553
f 554/554 555/555 556/556
f 554/554 556/556 557/557
f 558/558 559/559 560/560
f 561/561 562/562 563/563
f 564/564 565/565 566/566
f 564/564 566/566 567/567
f 568/568 569/569 570/570
f 568/568 570/570 571/571
f 572/572 573/573 574/574
f 575/575 576/576 577/577
f 578/578 579/579 580/580
f 578/578 580/580 581/581
f 582/582 583/583 584/584
f 582/582 584/584 585/585
f 586/586 587/587 588/588
f 589/589 590/590 591/591
f 592/592 593/593 594/594
f 592/592 594/594 595/595
f 596/596 597/597 598/598
f 596/596 598/598 599/599
f 600/600 601/601 602/602
f 603/603 604/604 605/605
f 606/606 607/607 608/608
f 606/606 608/608 609/609
f 610/610 611/611 612/612
f 610/610 612/612 613/613
f 614/614 615/615 616/616
f 617/617 618/618 619/619
f 620/620 621/621 622/622
f 620/620 622/622 623/623
f 624/624 625/625 626/626
f 624/624 626/626 627/627
f 628/628 629/629 630/630
f 631/631 632/632 633/633
f 634/634 635/635 636/636
f 634/634 636/636 637/637
f 638/638 639/639 640/640
f 638/638 640/640 641/641
f 642/642 643/643 644/644
f 645/645 646/646 647/647
f 648/648 649/649 650/650
f 648/648 650/650 651/651
f 652/652 653/653 654/654
f 652/652 654/654 655/655
f 656/656 657/657 658/658
f 659/659 660/660 661/661
f 662/662 663/663 664/664
f 662/662 664/664 665/665
f 666/666 667/667 668/668
f 666/666 668/668 669/669
f 670/670 671/671 672/672
f 673/673 674/674 675/675
f 676/676 677/677 678/678
f 676/676 678/678 679/679
f 680/680 681/681 682/682
f 680/680 682/682 683/683
f 684/684 685/685 686/686
f 687/687 688/688 689/689
f 690/690 691/691 692/692
f 690/690 692/692 693/693
f 694/694 695/695 696/696
f 694/694 696/696 697/697
f 698/698 699/699 700/700
f 701/701 702/702 703/703
f 704/704 705/705 706/706
f 704/704 706/706 707/707
f 708/708 709/709 710/710
f 708/708 710/710 711/711
f 712/712 713/713 714/714
f 715/715 716/716 717/717
f 718/718 719/719 720/720
f 718/718 720/720 721/721
f 722/722 723/723 724/724
f 722/722 724/724 725/725
f 726/726 727/727 728/728
f 729/729 730/730 731/731
f 732/732 733/733 734/734
f 732/732 734/734 735/735
f 736/736 737/737 738/738
f 736/736 738/738 739/739
f 740/740 741/741 742/742
f 743/743 744/744 745/745
f 746/746 747/747 748/748
f 746/746 748/748 749/749
f 750/750 751/751 752/752
f 750/750 752/752 753/753
f 754/754 755/755 756/756
f 757/757 758/758 759/759
f 760/760 761/761 762/762
f 760/760 762/762 763/763
f 764/764 765/765 766/766
f 764/764 766/766 767/767
f 768/768 769/769 770/770
f 771/771 772/772 773/773
f 774/774 775/775 776/776
f 774/774 776/776 777/777
f 778/778 779/779 780/780
f 778/778 780/780 781/781
f 782/782 783/783 784/784
usemtl Rope
f 785/785 786/786 787/787
f 785/785 787/787 788/788
f 789/789 790/790 791/791
f 789/789 791/791 792/792
f 793/793 794/794 795/795
f 793/793 795/795 796/796
f 797/797 798/798 799/799
f 797/797 799/799 800/800
f 801/801 802/802 803/803
f 801/801 803/803 804/804
f 805/805 806/806 807/807
f 805/805 807/807 808/808
f 809/809 810/810 811/811
f 809/809 811/811 812/812
f 813/813 814/814 815/815
f 813/813 815/815 816/816
f 817/817 818/818 819/819
f 817/817 819/819 820/820
f 821/821 822/822 823/823
f 821/821 823/823 824/824
f 825/825 826/826 827/827
f 825/825 827/827 828/828
f 829/829 830/830 831/831
f 829/829 831/831 832/832
f 833/833 834/834 835/835
f 833/833 835/835 836/836
f 837/837 838/838 839/839
f 837/837 839/839 840/840
f 841/841 842/842 843/843
f 841/841 843/843 844/844
f 845/845 846/846 847/847
f 845/845 847/847 848/848
f 849/849 850/850 851/851
f 849/849 851/851 852/852
f 853/853 854/854 855/855
f 853/853 855/855 856/856
f 857/857 858/858 859/859
f 857/857 859/859 860/860
f 861/861 862/862 863/863
f 861/861 863/863 864/864
f 865/865 866/866 867/867
f 865/865 867/867 868/868
f 869/869 870/870 871/871
f 869/869 871/871 872/872
f 873/873 874/874 875/875
f 873/873 875/875 876/876
f 877/877 878/878 879/879
f 877/877 879/879 880/880
f 881/881 882/882 883/883
f 881/881 883/883 884/884
f 885/885 886/886 887/887
f 885/885 887/887 888/888
f 889/889 890/890 891/891
f 889/889 891/891 892/892
f 893/893 894/894 895/895
f 893/893 895/895 896/896
f 897/897 898/898 899/899
f 897/897 899/899 900/900
f 901/901 902/902 903/903
f 901/901 903/903 904/904
f 905/905 906/906 907/907
f 905/905 907/907 908/908
f 909/909 910/910 911/911
f 909/909 911/911 912/912
f 913/913 914/914 915/915
f 913/913 915/915 916/916
f 917/917 918/918 919/919
f 917/917 919/919 920/920
f 921/921 922/922 923/923
f 921/921 923/923 924/924
f 925/925 926/926 927/927
f 925/925 927/927 928/928
f 929/929 930/930 931/931
f 929/929 931/931 932/932
f 933/933 934/934 935/935
f 933/933 935/935 936/936
f 937/937 938/938 939/939
f 937/937 939/939 940/940
f 941/941 942/942 943/943
f 941/941 943/943 944/944
f 945/945 946/946 947/947
f 945/945 947/947 948/948
f 949/949 950/950 951/951
f 949/949 951/951 952/952
f 953/953 954/954 955/955
f 953/953 955/955 956/956
f 957/957 958/958 959/959
f 957/957 959/959 960/960
f 961/961 962/962 963/963
f 961/961 963/963 964/964
f 965/965 966/966 967/967
f 965/965 967/967 968/968
f 969/969 970/970 971/971
f 969/969 971/971 972/972
f 973/973 974/974 975/975
f 973/973 975/975 976/976
f 977/977 978/978 979/979
f 977/977 979/979 980/980
f 981/981 982/982 983/983
f 981/981 983/983 984/984
f 985/985 986/986 987/987
f 985/985 987/987 988/988
f 989/989 990/990 991/991
f 989/989 991/991 992/992
f 993/993 994/994 995/995
f 993/993 995/995 996/996
f 997/997 998/998 999/999
f 1000/1000 1001/1001 1002/1002
f 1003/1003 1004/1004 1005/1005
f 1006/1006 1007/1007 1008/1008
f 1009/1009 1010/1010 1011/1011
f 1012/1012 1013/1013 1014/1014
f 1015/1015 1016/1016 1017/1017
f 1018/1018 1019/1019 1020/1020
f 1021/1021 1022/1022 1023/1023
f 1024/1024 1025/1025 1026/1026
f 1027/1027 1028/1028 1029/1029
f 1027/1027 1029/1029 1030/1030
f 1031/1031 1032/1032 1033/1033
f 1031/1031 1033/1033 1034/1034
f 1035/1035 1036/1036 1037/1037
f 1035/1035 1037/1037 1038/1038
f 1039/1039 1040/1040 1041/1041
f 1039/1039 1041/1041 1042/1042
f 1043/1043 1044/1044 1045/1045
f 1043/1043 1045/1045 1046/1046
f 1047/1047 1048/1048 1049/1049
f 1050/1050 1051/1051 1052/1052
f 1053/1053 1054/1054 1055/1055
f 1056/1056 1057/1057 1058/1058
f 1059/1059 1060/1060 1061/1061
f 1062/1062 1063/1063 1064/1064
f 1065/1065 1066/1066 1067/1067
f 1068/1068 1069/1069 1070/1070
f 1071/1071 1072/1072 1073/1073
f 1074/1074 1075/1075 1076/1076
usemtl Stone
f 1077/1077 1078/1078 1079/1079
f 1080/1080 1081/1081 1082/1082
f 1080/1080 1082/1082 1083/1083
f 1084/1084 1085/1085 1086/1086
f 1084/1084 1086/1086 1087/1087
f 1088/1088 1089/1089 1090/1090
f 1091/1091 1092/1092 1093/1093
f 1094/1094 1095/1095 1096/1096
f 1094/1094 1096/1096 1097/1097
f 1098/1098 1099/1099 1100/1100
f 1098/1098 1100/1100 1101/1101
f 1102/1102 1103/1103 1104/1104
f 1105/1105 1106/1106 1107/1107
f 1108/1108 1109/1109 1110/1110
f 1108/1108 1110/1110 1111/1111
f 1112/1112 1113/1113 1114/1114
f 1112/1112 1114/1114 1115/1115
f 1116/1116 1117/1117 1118/1118
f 1119/1119 1120/1120 1121/1121
f 1122/1122 1123/1123 1124/1124
f 1122/1122 1124/1124 1125/1125
f 1126/1126 1127/1127 1128/1128
f 1126/1126 1128/1128 1129/1129
f 1130/1130 1131/1131 1132/1132
f 1133/1133 1134/1134 1135/1135
f 1136/1136 1137/1137 1138/1138
f 1136/1136 1138/1138 1139/1139
f 1140/1140 1141/1141 1142/1142
f 1140/1140 1142/1142 1143/1143
f 1144/1144 1145/1145 1146/1146
f 1147/1147 1148/1148 1149/1149
f 1150/1150 1151/1151 1152/1152
f 1150/1150 1152/1152 1153/1153
f 1154/1154 1155/1155 1156/1156
f 1154/1154 1156/1156 1157/1157
f 1158/1158 1159/1159 1160/1160
f 1161/1161 1162/1162 1163/1163
f 1164/1164 1165/1165 1166/1166
f 1164/1164 1166/1166 1167/1167
f 1168/1168 1169/1169 1170/1170
f 1168/1168 1170/1170 1171/1171
f 1172/1172 1173/1173 1174/1174
f 1175/1175 1176/1176 1177/1177
f 1178/1178 1179/1179 1180/1180
f 1178/1178 1180/1180 1181/1181
f 1182/1182 1183/1183 1184/1184
f 1182/1182 1184/1184 1185/1185
f 1186/1186 1187/1187 1188/1188
f 1189/1189 1190/1190 1191/1191
f 1192/1192 1193/1193 1194/1194
f 1192/1192 1194/1194 1195/1195
f 1196/1196 1197/1197 1198/1198
f 1196/1196 1198/1198 1199/1199
f 1200/1200 1201/1201 1202/1202
f 1203/1203 1204/1204 1205/1205
f 1206/1206 1207/1207 1208/1208
f 1206/1206 1208/1208 1209/1209
f 1210/1210 1211/1211 1212/1212
f 1210/1210 1212/1212 1213/1213
f 1214/1214 1215/1215 1216/1216
f 1217/1217 1218/1218 1219/1219
f 1220/1220 1221/1221 1222/1222
f 1220/1220 1222/1222 1223/1223
f 1224/1224 1225/1225 1226/1226
f 1224/1224 1226/1226 1227/1227
f 1228/1228 1229/1229 1230/1230
f 1231/1231 1232/1232 1233/1233
f 1234/1234 1235/1235 1236/1236
f 1234/1234 1236/1236 1237/1237
f 1238/1238 1239/1239 1240/1240
f 1238/1238 1240/1240 1241/1241
f 1242/1242 1243/1243 1244/1244
f 1245/1245 1246/1246 1247/1247
f 1248/1248 1249/1249 1250/1250
f 1248/1248 1250/1250 1251/1251
f 1252/1252 1253/1253 1254/1254
f 1252/1252 1254/1254 1255/1255
f 1256/1256 1257/1257 1258/1258
f 1259/1259 1260/1260 1261/1261
f 1262/1262 1263/1263 1264/1264
f 1262/1262 1264/1264 1265/1265
f 1266/1266 1267/1267 1268/1268
f 1266/1266 1268/1268 1269/1269
f 1270/1270 1271/1271 1272/1272
f 1273/1273 1274/1274 1275/1275
f 1276/1276 1277/1277 1278/1278
f 1276/1276 1278/1278 1279/1279
f 1280/1280 1281/1281 1282/1282
f 1280/1280 1282/1282 1283/1283
f 1284/1284 1285/1285 1286/1286
f 1287/1287 1288/1288 1289/1289
f 1290/1290 1291/1291 1292/1292
f 1290/1290 1292/1292 1293/1293
f 1294/1294 1295/1295 1296/1296
f 1294/1294 1296/1296 1297/1297
f 1298/1298 1299/1299 1300/1300
f 1301/1301 1302/1302 1303/1303
f 1304/1304 1305/1305 1306/1306
f 1304/1304 1306/1306 1307/1307
f 1308/1308 1309/1309 1310/1310
f 1308/1308 1310/1310 1311/1311
f 1312/1312 1313/1313 1314/1314
f 1315/1315 1316/1316 1317/1317
f 1318/1318 1319/1319 1320/1320
f 1318/1318 1320/1320 1321/1321
f 1322/1322 1323/1323 1324/1324
f 1322/1322 1324/1324 1325/1325
f 1326/1326 1327/1327 1328/1328
f 1329/1329 1330/1330 1331/1331
f 1332/1332 1333/1333 1334/1334
f 1332/1332 1334/1334 1335/1335
f 1336/1336 1337/1337 1338/1338
f 1336/1336 1338/1338 1339/1339
f 1340/1340 1341/1341 1342/1342
f 1343/1343 1344/1344 1345/1345
f 1346/1346 1347/1347 1348/1348
f 1346/1346 1348/1348 1349/1349
f 1350/1350 1351/1351 1352/1352
f 1350/1350 1352/1352 1353/1353
f 1354/1354 1355/1355 1356/1356
f 1357/1357 1358/1358 1359/1359
f 1360/1360 1361/1361 1362/1362
f 1360/1360 1362/1362 1363/1363
f 1364/1364 1365/1365 1366/1366
f 1364/1364 1366/1366 1367/1367
f 1368/1368 1369/1369 1370/1370
